<?xml version="1.0" encoding="utf-8"?>
<!-- Generator: Adobe Illustrator 19.0.1, SVG Export Plug-In . SVG Version: 6.00 Build 0)  -->
<svg version="1.1" id="Layer_1" xmlns="http://www.w3.org/2000/svg" xmlns:xlink="http://www.w3.org/1999/xlink" x="0px" y="0px"
	 viewBox="-249 341 400 400" style="enable-background:new -249 341 400 400;" xml:space="preserve">
<style type="text/css">
	.st0{fill:#FFFFFF;}
</style>
<g>
	<circle class="st0" cx="-48.8" cy="541.3" r="41.4"/>
	<circle class="st0" cx="-126.7" cy="619.2" r="29"/>
	<circle class="st0" cx="-210.7" cy="703.2" r="18.6"/>
	<circle class="st0" cx="-210.7" cy="703.2" r="18.6"/>
	<circle class="st0" cx="-126" cy="716.9" r="18.6"/>
	<circle class="st0" cx="-224.3" cy="618.6" r="18.6"/>
	<circle class="st0" cx="29.1" cy="463.4" r="29"/>
	<circle class="st0" cx="113.2" cy="379.4" r="18.6"/>
	<circle class="st0" cx="-126.7" cy="463.4" r="29"/>
	<circle class="st0" cx="-210.7" cy="379.4" r="18.6"/>
	<path class="st0" d="M-110.6,355.8c-7.4-11.1-23.5-11.1-30.9,0c-4.3,6.2-4.3,14.2,0,20.4c7.4,11.1,23.5,11.1,30.9,0
		C-106.2,370.1-106.2,362-110.6,355.8z"/>
	<circle class="st0" cx="29.1" cy="619.2" r="29"/>
	<circle class="st0" cx="113.8" cy="703.2" r="18.6"/>
	<circle class="st0" cx="126.8" cy="618.6" r="18.6"/>
</g>
<circle class="st0" cx="-48.8" cy="541.3" r="16.7"/>
<g>
	
		<rect x="-178" y="412.3" transform="matrix(-0.7071 0.7071 -0.7071 -0.7071 2.5933 835.8173)" class="st0" width="12.3" height="12.3"/>
	
		<rect x="-177.7" y="658.1" transform="matrix(-0.7071 -0.7071 0.7071 -0.7071 -762.4319 1012.6919)" class="st0" width="12.3" height="12.3"/>
	<path class="st0" d="M113.2,404.1c13.6,0,24.8-11.1,24.8-24.8c0-14.2-10.5-24.8-24.8-24.8c-13.6,0-24.8,11.1-24.8,24.8
		C88.5,392.9,99.6,404.1,113.2,404.1z M113.2,367c6.8,0,12.3,5.6,12.3,12.3c0,6.8-5,12.3-12.3,12.3c-6.8,0-12.3-5.6-12.3-12.3
		C100.8,372.5,106.4,367,113.2,367z"/>
	<path class="st0" d="M-210.7,404.1c5.4,0,10.5-1.8,14.6-4.8l-1.7,1.7l8.7,8.7l8.7-8.7l-8.7-8.8l-1.7,1.7c3-4.1,4.8-9.1,4.8-14.6
		c0-13.6-11.1-24.8-24.8-24.8c-13.6,0-24.8,11.1-24.8,24.8C-235.5,392.9-224.3,404.1-210.7,404.1z M-210.7,367
		c6.8,0,12.3,5.6,12.3,12.3c0,6.8-5.6,12.3-12.3,12.3c-6.8,0-12.3-5.6-12.3-12.3C-223.1,372.5-217.6,367-210.7,367z"/>
	<path class="st0" d="M-180.5,681.7l-8.7-8.7l-8.7,8.7l2.1,2.1c-4.2-3.4-9.5-5.3-15.5-5.3c-13.6,0-24.8,11.1-24.8,24.8
		c0,13.6,11.1,24.8,24.8,24.8c13.6,0,24.8-11.1,24.8-24.8c0-5.9-2-11.3-5.4-15.6l2.8,2.8L-180.5,681.7z M-211.4,715.7
		c-6.8,0-12.3-5.6-12.3-12.3c0-6.8,5.6-12.3,12.3-12.3s12.3,5.6,12.3,12.3C-199,710.1-203.9,715.7-211.4,715.7z"/>
	<path class="st0" d="M111.9,678.6c-13.6,0-24.8,11.1-24.8,24.8c0,13.6,11.1,24.8,24.8,24.8c13.6,0,24.8-11.1,24.8-24.8
		C136.7,689.7,125.6,678.6,111.9,678.6z M111.9,715.7c-6.8,0-12.3-5.6-12.3-12.3c0-6.8,5.6-12.3,12.3-12.3s12.3,5.6,12.3,12.3
		C124.4,710.1,118.7,715.7,111.9,715.7z"/>
	<path class="st0" d="M126.8,593.9c-11.8,0-21,8-24.1,18.6h-39C60.6,596.3,46.4,584,29.1,584c-7.4,0-14.2,2.5-19.8,6.2l-20.4-20.4
		c6.2-8,9.9-17.9,9.9-29c0-11.1-3.7-21-9.9-29l20.4-20.4c5.6,3.7,12.3,6.2,19.8,6.2c19.1,0,35.2-15.5,35.2-35.2
		c0-19.1-15.5-35.2-35.2-35.2C10,427-6.1,442.5-6.1,462.2c0,7.4,2.5,14.2,6.2,19.8l-20.4,20.4c-8-6.2-17.9-9.9-29-9.9
		s-21,3.7-29,9.9l-19.8-19.1c3.7-5.6,6.2-12.3,6.2-19.8c0-17.3-12.3-31.5-29-34.7v-38.9c11.1-2.5,19.1-12.3,19.1-24.1
		c0-13.6-11.1-24.8-24.8-24.8c-13.6,0-24.8,11.1-24.8,24.8c0,11.1,7.4,20.4,17.9,23.5v39.6c-5.1,1-9.8,2.9-13.8,5.7l-7.3-7.3
		l-8.7,8.7l7.2,7.2c-4.1,5.7-6.4,12.7-6.4,20.3c0,19.1,15.5,35.2,35.2,35.2c7.4,0,14.2-2.5,19.8-6.2l20.4,20.4
		c-6.2,8-9.9,17.9-9.9,29s3.7,21,9.9,29l-19.8,19.8c-5.6-3.7-12.3-6.2-19.8-6.2c-17.3,0-31.5,12.3-34.7,28.4l-38.9-0.6
		c-2.5-10.5-12.3-18.6-24.1-18.6c-13.6,0-24.8,11.1-24.8,24.8s11.1,24.8,24.8,24.8c11.1,0,21-8,23.5-18.6l38.9,0.6
		c0.6,4.9,3.1,9.9,5.6,14.2l-7.4,7.4l8.7,8.7l7.4-7.4c4.3,3.1,8.7,5,14.2,5.6l0.6,38.9c-10.5,3.1-18.6,12.3-18.6,23.5
		c0,13.6,11.1,24.8,24.8,24.8c13.6,0,24.8-11.1,24.8-24.8c0-11.8-8-21-18.6-24.1l-0.6-38.9c16.1-3.1,28.4-17.3,28.4-34.6
		c0-7.4-2.5-14.2-6.2-19.8l20.4-20.4c8,6.2,17.9,9.9,29,9.9s21-3.7,29-9.9l20.4,20.4c-3.7,5.6-6.2,12.3-6.2,19.8
		c0,19.1,15.5,35.2,35.2,35.2c17.3,0,31.5-12.3,34.6-29l38.9-0.6c3.1,10.5,12.3,18.6,23.5,18.6c13.6,0,24.8-11.1,24.8-24.8
		C151.5,605,140.4,593.9,126.8,593.9z M29.1,440.5c12.3,0,22.9,9.9,22.9,22.9c0,13-10.5,22.2-22.9,22.2s-22.2-9.9-22.2-22.2
		S16.8,440.5,29.1,440.5z M-138.4,365.7c0-6.8,5.6-12.3,12.3-12.3s12.3,5.6,12.3,12.3c0,6.8-5.6,12.3-12.3,12.3
		S-138.4,372.5-138.4,365.7z M-126.7,486.3c-12.3,0-22.9-9.9-22.9-22.9c0-13,9.9-22.9,22.9-22.9c13,0,22.9,9.9,22.9,22.9
		C-103.8,476.4-114.3,486.3-126.7,486.3z M-224.3,631c-6.8,0-12.3-5.6-12.3-12.3c0-6.8,5.6-12.3,12.3-12.3c6.8,0,12.3,5.6,12.3,12.3
		C-212,625.4-217.6,631-224.3,631z M-113.7,716.9c0,6.8-5.6,12.3-12.3,12.3c-6.8,0-12.3-5.6-12.3-12.3s5.6-12.3,12.3-12.3
		C-119.2,704.5-113.7,710.1-113.7,716.9z M-126.7,642.1c-12.3,0-22.9-9.9-22.9-22.9s9.9-22.9,22.9-22.9c12.3,0,22.9,9.9,22.9,22.9
		C-103.8,632.2-114.3,642.1-126.7,642.1z M-48.8,576.5c-19.1,0-35.2-15.5-35.2-35.2c0-19.1,15.5-35.2,35.2-35.2
		c19.1,0,35.2,15.5,35.2,35.2C-13.5,560.4-29.6,576.5-48.8,576.5z M29.1,642.1c-12.3,0-22.9-9.9-22.9-22.9
		c0-12.3,9.9-22.9,22.9-22.9S52,606.2,52,619.2C52,631.6,41.5,642.1,29.1,642.1z M126.8,631c-6.8,0-12.3-5.6-12.3-12.3
		c0-6.8,5.6-12.3,12.3-12.3c6.8,0,12.3,5.6,12.3,12.3C139.2,625.4,133.6,631,126.8,631z"/>
</g>
</svg>
