<?xml version="1.0" encoding="utf-8"?>
<!-- Generator: Adobe Illustrator 19.0.1, SVG Export Plug-In . SVG Version: 6.00 Build 0)  -->
<svg version="1.1" id="Capa_1" xmlns="http://www.w3.org/2000/svg" xmlns:xlink="http://www.w3.org/1999/xlink" x="0px" y="0px"
	 viewBox="-421 512 57 57" style="enable-background:new -421 512 57 57;" xml:space="preserve">
<style type="text/css">
	.st0{fill:#424A60;}
	.st1{fill:#F7D166;}
	.st2{fill:#8B9AC9;}
	.st3{fill:#7FC68D;}
</style>
<g>
	<path class="st0" d="M-378.9,520.8c-0.5-0.3-1.1-0.1-1.4,0.3c-0.3,0.5-0.1,1.1,0.3,1.4c7.2,4.4,11.4,12.1,11.4,20.5
		c0,2.1-0.3,4.1-0.8,6.2c-0.1,0.5,0.2,1.1,0.7,1.2c0.1,0,0.2,0,0.3,0c0.4,0,0.8-0.3,1-0.7c0.6-2.2,0.9-4.4,0.9-6.7
		C-366.5,533.9-371.1,525.6-378.9,520.8z"/>
	<path class="st0" d="M-383.3,565.2c-2.9,1.2-6,1.8-9.2,1.8c-6.7,0-13.2-2.9-17.7-7.8c-0.4-0.4-1-0.4-1.4-0.1
		c-0.4,0.4-0.4,1-0.1,1.4c4.9,5.4,11.9,8.5,19.2,8.5c3.4,0,6.8-0.7,9.9-2c0.5-0.2,0.8-0.8,0.5-1.3
		C-382.2,565.2-382.8,565-383.3,565.2z"/>
	<path class="st0" d="M-398.2,519.7c0.5-0.1,0.9-0.7,0.7-1.2c-0.1-0.5-0.7-0.9-1.2-0.7c-11,2.7-18.9,12.1-19.7,23.4
		c0,0.6,0.4,1,0.9,1.1c0,0,0,0,0.1,0c0.5,0,1-0.4,1-0.9C-415.7,530.8-408.4,522.2-398.2,519.7z"/>
</g>
<circle class="st1" cx="-392.5" cy="518" r="6"/>
<circle class="st2" cx="-414.5" cy="555" r="6"/>
<circle class="st3" cx="-370.5" cy="555" r="6"/>
</svg>
