<?xml version="1.0" encoding="utf-8"?>
<!-- Generator: Adobe Illustrator 19.0.1, SVG Export Plug-In . SVG Version: 6.00 Build 0)  -->
<svg version="1.1" xmlns="http://www.w3.org/2000/svg" xmlns:xlink="http://www.w3.org/1999/xlink" x="0px" y="0px"
	 viewBox="0 0 1000 1000" style="enable-background:new 0 0 1000 1000;" xml:space="preserve">
<style type="text/css">
	.st0{fill:#99CC33;}
	.st1{opacity:0.37;}
	.st2{fill:#47821C;}
	.st3{fill:#4E901E;}
	.st4{fill:#5EAC24;}
	.st5{fill:#6DC82A;}
	.st6{fill:#91DC5A;}
</style>
<g id="圖層_1">
	<rect x="0" class="st0" width="1000" height="1000"/>
</g>
<g id="Layer_1">
	<g class="st1">
		<path class="st2" d="M184.9,385.5c0.3-0.6,1-1,1.6-0.8c3.5,0.7,7.1,2.4,10.9,5.1c3,2.1,6,4.9,9.1,8.2c0,0,0,0.1,0.1,0.1h-10.4
			c-1-1.1-2-2.2-2.9-3.1c-4.5-4.7-8.1-7.6-8.1-7.6C184.8,386.8,184.7,386.1,184.9,385.5z"/>
		<path class="st3" d="M187.3,374.4c0.4-0.5,1.1-0.7,1.8-0.5c3.2,1.4,6.5,3.8,9.6,7.3c2.5,2.7,4.9,6,7.2,9.9
			c1.5,2.5,2.8,4.9,3.7,6.9h-9.2c-2.3-5-4.8-9.4-6.9-12.6c-3.5-5.5-6.3-9.1-6.3-9.2C186.9,375.7,186.9,374.9,187.3,374.4z"/>
		<path class="st4" d="M193.1,365.9c0.5-0.5,1.3-0.5,1.8-0.1c2.9,1.9,5.7,4.9,8.2,8.9c1.9,3.1,3.7,6.8,5.3,11
			c2,5.4,3.2,10.2,3.6,12.3h-8.8c-1.4-7.8-3.9-15.1-5.9-20.1c-2.4-6.1-4.5-10.1-4.6-10.2C192.5,367.1,192.6,366.4,193.1,365.9z"/>
		<path class="st5" d="M206,398c0-0.1,0-0.1,0-0.2c0.5-8.8-0.6-17.7-1.6-23.6c-1.1-6.4-2.4-10.8-2.4-10.9c-0.2-0.7,0.1-1.4,0.6-1.7
			c0.6-0.4,1.3-0.3,1.8,0.2c2.4,2.5,4.5,6,6.1,10.3c1.3,3.4,2.2,7.4,2.9,11.9c1.2,7.4,1.1,13.6,1.1,13.9L206,398z"/>
		<path class="st3" d="M237.6,385.5c-0.3-0.6-1-1-1.6-0.8c-3.5,0.7-7.1,2.4-10.9,5.1c-3,2.1-6,4.9-9.1,8.2c0,0,0,0.1-0.1,0.1h10.4
			c1-1.1,2-2.2,2.9-3.1c4.5-4.7,8.1-7.6,8.1-7.6C237.7,386.8,237.9,386.1,237.6,385.5z"/>
		<path class="st4" d="M235.2,374.4c-0.4-0.5-1.1-0.7-1.8-0.5c-3.2,1.4-6.5,3.8-9.6,7.3c-2.5,2.7-4.9,6-7.2,9.9
			c-1.5,2.5-2.8,4.9-3.7,6.9h9.2c2.3-5,4.8-9.4,6.9-12.6c3.5-5.5,6.3-9.1,6.3-9.2C235.6,375.7,235.6,374.9,235.2,374.4z"/>
		<path class="st5" d="M229.4,365.9c-0.5-0.5-1.3-0.5-1.8-0.1c-2.9,1.9-5.7,4.9-8.2,8.9c-1.9,3.1-3.7,6.8-5.3,11
			c-2,5.4-3.2,10.2-3.6,12.3h8.8c1.4-7.8,3.9-15.1,5.9-20.1c2.4-6.1,4.5-10.1,4.6-10.2C230,367.1,229.9,366.4,229.4,365.9z"/>
		<path class="st6" d="M216.7,398c0-0.1,0-0.1,0-0.2c-0.5-8.8,0.7-17.7,1.8-23.6c1.2-6.4,2.5-10.8,2.5-10.8c0.2-0.7-0.1-1.4-0.7-1.7
			c-0.6-0.4-1.3-0.3-1.8,0.2c-2.5,2.5-4.6,5.9-6.3,10.3c-1.3,3.4-2.3,7.4-3.1,11.8c-1.2,7.4-1.2,13.6-1.2,13.9L216.7,398L216.7,398
			L216.7,398z"/>
		<g>
			<path class="st2" d="M197.2,398h-7.4c-0.4,0-0.8-0.4-0.8-0.8s0.4-0.8,0.8-0.8h7.4c0.4,0,0.8,0.4,0.8,0.8S197.7,398,197.2,398z"/>
			<path class="st2" d="M187.1,398h-1.4c-0.4,0-0.8-0.4-0.8-0.8s0.4-0.8,0.8-0.8h1.4c0.4,0,0.8,0.4,0.8,0.8S187.5,398,187.1,398z"/>
		</g>
		<g>
			<path class="st3" d="M230.7,398h-6c-0.4,0-0.8-0.4-0.8-0.8s0.4-0.8,0.8-0.8h6c0.4,0,0.8,0.4,0.8,0.8S231.2,398,230.7,398z"/>
			<path class="st3" d="M236.8,398h-3.2c-0.4,0-0.8-0.4-0.8-0.8s0.4-0.8,0.8-0.8h3.2c0.4,0,0.8,0.4,0.8,0.8S237.2,398,236.8,398z"/>
		</g>
		<g>
			<path class="st4" d="M212.8,394.8c-0.4,0-0.8-0.4-0.8-0.8c-0.1-2.7,0.1-5.7,0.4-8.7c0-0.4,0.4-0.8,0.9-0.7c0.4,0,0.8,0.4,0.7,0.9
				c-0.3,3-0.5,5.8-0.4,8.5C213.7,394.4,213.3,394.8,212.8,394.8C212.8,394.8,212.8,394.8,212.8,394.8z"/>
			<path class="st4" d="M213.7,382.6c0,0-0.1,0-0.1,0c-0.4-0.1-0.7-0.5-0.7-0.9c0.4-2.4,0.7-3.9,0.8-4c0.1-0.4,0.5-0.7,1-0.6
				c0.4,0.1,0.7,0.5,0.6,1c0,0-0.4,1.5-0.7,3.9C214.5,382.3,214.1,382.6,213.7,382.6z"/>
		</g>
	</g>
	<g class="st1">
		<path class="st2" d="M388.5,270.9c0.3-0.6,1-1,1.6-0.8c3.5,0.7,7.1,2.4,10.9,5.1c3,2.1,6,4.9,9.1,8.2c0,0,0,0.1,0.1,0.1h-10.4
			c-1-1.1-2-2.2-2.9-3.1c-4.5-4.7-8.1-7.6-8.1-7.6C388.3,272.3,388.2,271.6,388.5,270.9z"/>
		<path class="st3" d="M390.9,259.8c0.4-0.5,1.1-0.7,1.8-0.5c3.2,1.4,6.5,3.8,9.6,7.3c2.5,2.7,4.9,6,7.2,9.9
			c1.5,2.5,2.8,4.9,3.7,6.9h-9.2c-2.3-5-4.8-9.4-6.9-12.6c-3.5-5.5-6.3-9.1-6.3-9.2C390.4,261.1,390.4,260.4,390.9,259.8z"/>
		<path class="st4" d="M396.6,251.4c0.5-0.5,1.3-0.5,1.8-0.1c2.9,1.9,5.7,4.9,8.2,8.9c1.9,3.1,3.7,6.8,5.3,11
			c2,5.4,3.2,10.2,3.6,12.3h-8.8c-1.4-7.8-3.9-15.1-5.9-20.1c-2.4-6.1-4.5-10.1-4.6-10.2C396,252.6,396.1,251.8,396.6,251.4z"/>
		<path class="st5" d="M409.5,283.5c0-0.1,0-0.1,0-0.2c0.5-8.8-0.6-17.7-1.6-23.6c-1.1-6.4-2.4-10.8-2.4-10.9
			c-0.2-0.7,0.1-1.4,0.6-1.7c0.6-0.4,1.3-0.3,1.8,0.2c2.4,2.5,4.5,6,6.1,10.3c1.3,3.4,2.2,7.4,2.9,11.9c1.2,7.4,1.1,13.6,1.1,13.9
			L409.5,283.5z"/>
		<path class="st3" d="M441.1,270.9c-0.3-0.6-1-1-1.6-0.8c-3.5,0.7-7.1,2.4-10.9,5.1c-3,2.1-6,4.9-9.1,8.2c0,0,0,0.1-0.1,0.1h10.4
			c1-1.1,2-2.2,2.9-3.1c4.5-4.7,8.1-7.6,8.1-7.6C441.2,272.3,441.4,271.6,441.1,270.9z"/>
		<path class="st4" d="M438.7,259.8c-0.4-0.5-1.1-0.7-1.8-0.5c-3.2,1.4-6.5,3.8-9.6,7.3c-2.5,2.7-4.9,6-7.2,9.9
			c-1.5,2.5-2.8,4.9-3.7,6.9h9.2c2.3-5,4.8-9.4,6.9-12.6c3.5-5.5,6.3-9.1,6.3-9.2C439.1,261.1,439.1,260.4,438.7,259.8z"/>
		<path class="st5" d="M432.9,251.4c-0.5-0.5-1.3-0.5-1.8-0.1c-2.9,1.9-5.7,4.9-8.2,8.9c-1.9,3.1-3.7,6.8-5.3,11
			c-2,5.4-3.2,10.2-3.6,12.3h8.8c1.4-7.8,3.9-15.1,5.9-20.1c2.4-6.1,4.5-10.1,4.6-10.2C433.6,252.6,433.4,251.8,432.9,251.4z"/>
		<path class="st6" d="M420.2,283.5c0-0.1,0-0.1,0-0.2c-0.5-8.8,0.7-17.7,1.8-23.6c1.2-6.4,2.5-10.8,2.5-10.8
			c0.2-0.7-0.1-1.4-0.7-1.7c-0.6-0.4-1.3-0.3-1.8,0.2c-2.5,2.5-4.6,5.9-6.3,10.3c-1.3,3.4-2.3,7.4-3.1,11.8
			c-1.2,7.4-1.2,13.6-1.2,13.9L420.2,283.5L420.2,283.5L420.2,283.5z"/>
		<g>
			<path class="st2" d="M400.7,283.5h-7.4c-0.4,0-0.8-0.4-0.8-0.8c0-0.4,0.4-0.8,0.8-0.8h7.4c0.4,0,0.8,0.4,0.8,0.8
				C401.5,283.1,401.2,283.5,400.7,283.5z"/>
			<path class="st2" d="M390.6,283.5h-1.4c-0.4,0-0.8-0.4-0.8-0.8c0-0.4,0.4-0.8,0.8-0.8h1.4c0.4,0,0.8,0.4,0.8,0.8
				C391.4,283.1,391,283.5,390.6,283.5z"/>
		</g>
		<g>
			<path class="st3" d="M434.3,283.5h-6c-0.4,0-0.8-0.4-0.8-0.8c0-0.4,0.4-0.8,0.8-0.8h6c0.4,0,0.8,0.4,0.8,0.8
				C435.1,283.1,434.7,283.5,434.3,283.5z"/>
			<path class="st3" d="M440.3,283.5h-3.2c-0.4,0-0.8-0.4-0.8-0.8c0-0.4,0.4-0.8,0.8-0.8h3.2c0.4,0,0.8,0.4,0.8,0.8
				C441.1,283.1,440.8,283.5,440.3,283.5z"/>
		</g>
		<g>
			<path class="st4" d="M416.3,280.3c-0.4,0-0.8-0.4-0.8-0.8c-0.1-2.7,0.1-5.7,0.4-8.7c0-0.4,0.4-0.8,0.9-0.7c0.4,0,0.8,0.4,0.7,0.9
				c-0.3,3-0.5,5.8-0.4,8.5C417.2,279.9,416.8,280.2,416.3,280.3C416.4,280.3,416.4,280.3,416.3,280.3z"/>
			<path class="st4" d="M417.2,268.1c0,0-0.1,0-0.1,0c-0.4-0.1-0.7-0.5-0.7-0.9c0.4-2.4,0.7-3.9,0.8-4c0.1-0.4,0.5-0.7,1-0.6
				c0.4,0.1,0.7,0.5,0.6,1c0,0-0.4,1.5-0.7,3.9C418,267.8,417.6,268.1,417.2,268.1z"/>
		</g>
	</g>
	<g class="st1">
		<path class="st2" d="M78.8,226.1c0.3-0.6,1-1,1.6-0.8c3.5,0.7,7.1,2.4,10.9,5.1c3,2.1,6,4.9,9.1,8.2c0,0,0,0.1,0.1,0.1H90.1
			c-1-1.1-2-2.2-2.9-3.1c-4.5-4.7-8.1-7.6-8.1-7.6C78.6,227.4,78.5,226.7,78.8,226.1z"/>
		<path class="st3" d="M81.2,215c0.4-0.5,1.1-0.7,1.8-0.5c3.2,1.4,6.5,3.8,9.6,7.3c2.5,2.7,4.9,6,7.2,9.9c1.5,2.5,2.8,4.9,3.7,6.9
			h-9.2c-2.3-5-4.8-9.4-6.9-12.6c-3.5-5.5-6.3-9.1-6.3-9.2C80.7,216.3,80.7,215.5,81.2,215z"/>
		<path class="st4" d="M86.9,206.5c0.5-0.5,1.3-0.5,1.8-0.1c2.9,1.9,5.7,4.9,8.2,8.9c1.9,3.1,3.7,6.8,5.3,11
			c2,5.4,3.2,10.2,3.6,12.3H97c-1.4-7.8-3.9-15.1-5.9-20.1c-2.4-6.1-4.5-10.1-4.6-10.2C86.3,207.7,86.4,207,86.9,206.5z"/>
		<path class="st5" d="M99.8,238.6c0-0.1,0-0.1,0-0.2c0.5-8.8-0.6-17.7-1.6-23.6c-1.1-6.4-2.4-10.8-2.4-10.9
			c-0.2-0.7,0.1-1.4,0.6-1.7c0.6-0.4,1.3-0.3,1.8,0.2c2.4,2.5,4.5,6,6.1,10.3c1.3,3.4,2.2,7.4,2.9,11.9c1.2,7.4,1.1,13.6,1.1,13.9
			L99.8,238.6z"/>
		<path class="st3" d="M131.4,226.1c-0.3-0.6-1-1-1.6-0.8c-3.5,0.7-7.1,2.4-10.9,5.1c-3,2.1-6,4.9-9.1,8.2c0,0,0,0.1-0.1,0.1H120
			c1-1.1,2-2.2,2.9-3.1c4.5-4.7,8.1-7.6,8.1-7.6C131.5,227.4,131.7,226.7,131.4,226.1z"/>
		<path class="st4" d="M129,215c-0.4-0.5-1.1-0.7-1.8-0.5c-3.2,1.4-6.5,3.8-9.6,7.3c-2.5,2.7-4.9,6-7.2,9.9
			c-1.5,2.5-2.8,4.9-3.7,6.9h9.2c2.3-5,4.8-9.4,6.9-12.6c3.5-5.5,6.3-9.1,6.3-9.2C129.4,216.3,129.4,215.5,129,215z"/>
		<path class="st5" d="M123.2,206.5c-0.5-0.5-1.3-0.5-1.8-0.1c-2.9,1.9-5.7,4.9-8.2,8.9c-1.9,3.1-3.7,6.8-5.3,11
			c-2,5.4-3.2,10.2-3.6,12.3h8.8c1.4-7.8,3.9-15.1,5.9-20.1c2.4-6.1,4.5-10.1,4.6-10.2C123.9,207.7,123.7,207,123.2,206.5z"/>
		<path class="st6" d="M110.6,238.6c0-0.1,0-0.1,0-0.2c-0.5-8.8,0.7-17.7,1.8-23.6c1.2-6.4,2.5-10.8,2.5-10.8
			c0.2-0.7-0.1-1.4-0.7-1.7c-0.6-0.4-1.3-0.3-1.8,0.2c-2.5,2.5-4.6,5.9-6.3,10.3c-1.3,3.4-2.3,7.4-3.1,11.8
			c-1.2,7.4-1.2,13.6-1.2,13.9L110.6,238.6L110.6,238.6L110.6,238.6z"/>
		<g>
			<path class="st2" d="M91,238.6h-7.4c-0.4,0-0.8-0.4-0.8-0.8s0.4-0.8,0.8-0.8H91c0.4,0,0.8,0.4,0.8,0.8S91.5,238.6,91,238.6z"/>
			<path class="st2" d="M80.9,238.6h-1.4c-0.4,0-0.8-0.4-0.8-0.8s0.4-0.8,0.8-0.8h1.4c0.4,0,0.8,0.4,0.8,0.8S81.3,238.6,80.9,238.6z
				"/>
		</g>
		<g>
			<path class="st3" d="M124.6,238.6h-6c-0.4,0-0.8-0.4-0.8-0.8s0.4-0.8,0.8-0.8h6c0.4,0,0.8,0.4,0.8,0.8S125,238.6,124.6,238.6z"/>
			<path class="st3" d="M130.6,238.6h-3.2c-0.4,0-0.8-0.4-0.8-0.8s0.4-0.8,0.8-0.8h3.2c0.4,0,0.8,0.4,0.8,0.8
				S131.1,238.6,130.6,238.6z"/>
		</g>
		<g>
			<path class="st4" d="M106.7,235.4c-0.4,0-0.8-0.4-0.8-0.8c-0.1-2.7,0.1-5.7,0.4-8.7c0-0.4,0.4-0.8,0.9-0.7c0.4,0,0.8,0.4,0.7,0.9
				c-0.3,3-0.5,5.8-0.4,8.5C107.5,235,107.1,235.4,106.7,235.4C106.7,235.4,106.7,235.4,106.7,235.4z"/>
			<path class="st4" d="M107.5,223.2c0,0-0.1,0-0.1,0c-0.4-0.1-0.7-0.5-0.7-0.9c0.4-2.4,0.7-3.9,0.8-4c0.1-0.4,0.5-0.7,1-0.6
				c0.4,0.1,0.7,0.5,0.6,1c0,0-0.4,1.5-0.7,3.9C108.3,222.9,107.9,223.2,107.5,223.2z"/>
		</g>
	</g>
	<g class="st1">
		<path class="st2" d="M51.2,563.5c0.3-0.6,1-1,1.6-0.8c3.5,0.7,7.1,2.4,10.9,5.1c3,2.1,6,4.9,9.1,8.2c0,0,0,0.1,0.1,0.1H62.6
			c-1-1.1-2-2.2-2.9-3.1c-4.5-4.7-8.1-7.6-8.1-7.6C51.1,564.8,50.9,564.1,51.2,563.5z"/>
		<path class="st3" d="M53.6,552.4c0.4-0.5,1.1-0.7,1.8-0.5c3.2,1.4,6.5,3.8,9.6,7.3c2.5,2.7,4.9,6,7.2,9.9c1.5,2.5,2.8,4.9,3.7,6.9
			h-9.2c-2.3-5-4.8-9.4-6.9-12.6c-3.5-5.5-6.3-9.1-6.3-9.2C53.2,553.7,53.2,552.9,53.6,552.4z"/>
		<path class="st4" d="M59.4,543.9c0.5-0.5,1.3-0.5,1.8-0.1c2.9,1.9,5.7,4.9,8.2,8.9c1.9,3.1,3.7,6.8,5.3,11
			c2,5.4,3.2,10.2,3.6,12.3h-8.8c-1.4-7.8-3.9-15.1-5.9-20.1c-2.4-6.1-4.5-10.1-4.6-10.2C58.8,545.1,58.9,544.4,59.4,543.9z"/>
		<path class="st5" d="M72.2,576c0-0.1,0-0.1,0-0.2c0.5-8.8-0.6-17.7-1.6-23.6c-1.1-6.4-2.4-10.8-2.4-10.9c-0.2-0.7,0.1-1.4,0.6-1.7
			c0.6-0.4,1.3-0.3,1.8,0.2c2.4,2.5,4.5,6,6.1,10.3c1.3,3.4,2.2,7.4,2.9,11.9c1.2,7.4,1.1,13.6,1.1,13.9L72.2,576z"/>
		<path class="st3" d="M103.8,563.5c-0.3-0.6-1-1-1.6-0.8c-3.5,0.7-7.1,2.4-10.9,5.1c-3,2.1-6,4.9-9.1,8.2c0,0,0,0.1-0.1,0.1h10.4
			c1-1.1,2-2.2,2.9-3.1c4.5-4.7,8.1-7.6,8.1-7.6C104,564.8,104.1,564.1,103.8,563.5z"/>
		<path class="st4" d="M101.5,552.4c-0.4-0.5-1.1-0.7-1.8-0.5c-3.2,1.4-6.5,3.8-9.6,7.3c-2.5,2.7-4.9,6-7.2,9.9
			c-1.5,2.5-2.8,4.9-3.7,6.9h9.2c2.3-5,4.8-9.4,6.9-12.6c3.5-5.5,6.3-9.1,6.3-9.2C101.9,553.7,101.9,552.9,101.5,552.4z"/>
		<path class="st5" d="M95.7,543.9c-0.5-0.5-1.3-0.5-1.8-0.1c-2.9,1.9-5.7,4.9-8.2,8.9c-1.9,3.1-3.7,6.8-5.3,11
			c-2,5.4-3.2,10.2-3.6,12.3h8.8c1.4-7.8,3.9-15.1,5.9-20.1c2.4-6.1,4.5-10.1,4.6-10.2C96.3,545.1,96.2,544.4,95.7,543.9z"/>
		<path class="st6" d="M83,576c0-0.1,0-0.1,0-0.2c-0.5-8.8,0.7-17.7,1.8-23.6c1.2-6.4,2.5-10.8,2.5-10.8c0.2-0.7-0.1-1.4-0.7-1.7
			c-0.6-0.4-1.3-0.3-1.8,0.2c-2.5,2.5-4.6,5.9-6.3,10.3c-1.3,3.4-2.3,7.4-3.1,11.8c-1.2,7.4-1.2,13.6-1.2,13.9L83,576L83,576L83,576
			z"/>
		<g>
			<path class="st2" d="M63.5,576h-7.4c-0.4,0-0.8-0.4-0.8-0.8s0.4-0.8,0.8-0.8h7.4c0.4,0,0.8,0.4,0.8,0.8S63.9,576,63.5,576z"/>
			<path class="st2" d="M53.3,576h-1.4c-0.4,0-0.8-0.4-0.8-0.8s0.4-0.8,0.8-0.8h1.4c0.4,0,0.8,0.4,0.8,0.8S53.8,576,53.3,576z"/>
		</g>
		<g>
			<path class="st3" d="M97,576h-6c-0.4,0-0.8-0.4-0.8-0.8s0.4-0.8,0.8-0.8h6c0.4,0,0.8,0.4,0.8,0.8S97.5,576,97,576z"/>
			<path class="st3" d="M103.1,576h-3.2c-0.4,0-0.8-0.4-0.8-0.8s0.4-0.8,0.8-0.8h3.2c0.4,0,0.8,0.4,0.8,0.8S103.5,576,103.1,576z"/>
		</g>
		<g>
			<path class="st4" d="M79.1,572.8c-0.4,0-0.8-0.4-0.8-0.8c-0.1-2.7,0.1-5.7,0.4-8.7c0-0.4,0.4-0.8,0.9-0.7c0.4,0,0.8,0.4,0.7,0.9
				c-0.3,3-0.5,5.8-0.4,8.5C79.9,572.4,79.6,572.8,79.1,572.8C79.1,572.8,79.1,572.8,79.1,572.8z"/>
			<path class="st4" d="M80,560.6c0,0-0.1,0-0.1,0c-0.4-0.1-0.7-0.5-0.7-0.9c0.4-2.4,0.7-3.9,0.8-4c0.1-0.4,0.5-0.7,1-0.6
				c0.4,0.1,0.7,0.5,0.6,1c0,0-0.4,1.5-0.7,3.9C80.7,560.3,80.4,560.6,80,560.6z"/>
		</g>
	</g>
	<g class="st1">
		<path class="st2" d="M260.8,690.6c0.3-0.6,1-1,1.6-0.8c3.5,0.7,7.1,2.4,10.9,5.1c3,2.1,6,4.9,9.1,8.2c0,0,0,0.1,0.1,0.1h-10.4
			c-1-1.1-2-2.2-2.9-3.1c-4.5-4.7-8.1-7.6-8.1-7.6C260.7,691.9,260.5,691.2,260.8,690.6z"/>
		<path class="st3" d="M263.2,679.5c0.4-0.5,1.1-0.7,1.8-0.5c3.2,1.4,6.5,3.8,9.6,7.3c2.5,2.7,4.9,6,7.2,9.9
			c1.5,2.5,2.8,4.9,3.7,6.9h-9.2c-2.3-5-4.8-9.4-6.9-12.6c-3.5-5.5-6.3-9.1-6.3-9.2C262.8,680.8,262.8,680,263.2,679.5z"/>
		<path class="st4" d="M269,671c0.5-0.5,1.3-0.5,1.8-0.1c2.9,1.9,5.7,4.9,8.2,8.9c1.9,3.1,3.7,6.8,5.3,11c2,5.4,3.2,10.2,3.6,12.3
			h-8.8c-1.4-7.8-3.9-15.1-5.9-20.1c-2.4-6.1-4.5-10.1-4.6-10.2C268.4,672.2,268.5,671.5,269,671z"/>
		<path class="st5" d="M281.8,703.1c0-0.1,0-0.1,0-0.2c0.5-8.8-0.6-17.7-1.6-23.6c-1.1-6.4-2.4-10.8-2.4-10.9
			c-0.2-0.7,0.1-1.4,0.6-1.7c0.6-0.4,1.3-0.3,1.8,0.2c2.4,2.5,4.5,6,6.1,10.3c1.3,3.4,2.2,7.4,2.9,11.9c1.2,7.4,1.1,13.6,1.1,13.9
			L281.8,703.1z"/>
		<path class="st3" d="M313.5,690.6c-0.3-0.6-1-1-1.6-0.8c-3.5,0.7-7.1,2.4-10.9,5.1c-3,2.1-6,4.9-9.1,8.2c0,0,0,0.1-0.1,0.1h10.4
			c1-1.1,2-2.2,2.9-3.1c4.5-4.7,8.1-7.6,8.1-7.6C313.6,691.9,313.8,691.2,313.5,690.6z"/>
		<path class="st4" d="M311.1,679.5c-0.4-0.5-1.1-0.7-1.8-0.5c-3.2,1.4-6.5,3.8-9.6,7.3c-2.5,2.7-4.9,6-7.2,9.9
			c-1.5,2.5-2.8,4.9-3.7,6.9h9.2c2.3-5,4.8-9.4,6.9-12.6c3.5-5.5,6.3-9.1,6.3-9.2C311.5,680.8,311.5,680,311.1,679.5z"/>
		<path class="st5" d="M305.3,671c-0.5-0.5-1.3-0.5-1.8-0.1c-2.9,1.9-5.7,4.9-8.2,8.9c-1.9,3.1-3.7,6.8-5.3,11
			c-2,5.4-3.2,10.2-3.6,12.3h8.8c1.4-7.8,3.9-15.1,5.9-20.1c2.4-6.1,4.5-10.1,4.6-10.2C305.9,672.2,305.8,671.5,305.3,671z"/>
		<path class="st6" d="M292.6,703.1c0-0.1,0-0.1,0-0.2c-0.5-8.8,0.7-17.7,1.8-23.6c1.2-6.4,2.5-10.8,2.5-10.8
			c0.2-0.7-0.1-1.4-0.7-1.7c-0.6-0.4-1.3-0.3-1.8,0.2c-2.5,2.5-4.6,5.9-6.3,10.3c-1.3,3.4-2.3,7.4-3.1,11.8
			c-1.2,7.4-1.2,13.6-1.2,13.9L292.6,703.1L292.6,703.1L292.6,703.1z"/>
		<g>
			<path class="st2" d="M273.1,703.1h-7.4c-0.4,0-0.8-0.4-0.8-0.8s0.4-0.8,0.8-0.8h7.4c0.4,0,0.8,0.4,0.8,0.8
				S273.6,703.1,273.1,703.1z"/>
			<path class="st2" d="M263,703.1h-1.4c-0.4,0-0.8-0.4-0.8-0.8s0.4-0.8,0.8-0.8h1.4c0.4,0,0.8,0.4,0.8,0.8S263.4,703.1,263,703.1z"
				/>
		</g>
		<g>
			<path class="st3" d="M306.6,703.1h-6c-0.4,0-0.8-0.4-0.8-0.8s0.4-0.8,0.8-0.8h6c0.4,0,0.8,0.4,0.8,0.8S307.1,703.1,306.6,703.1z"
				/>
			<path class="st3" d="M312.7,703.1h-3.2c-0.4,0-0.8-0.4-0.8-0.8s0.4-0.8,0.8-0.8h3.2c0.4,0,0.8,0.4,0.8,0.8
				S313.1,703.1,312.7,703.1z"/>
		</g>
		<g>
			<path class="st4" d="M288.7,699.9c-0.4,0-0.8-0.4-0.8-0.8c-0.1-2.7,0.1-5.7,0.4-8.7c0-0.4,0.4-0.8,0.9-0.7c0.4,0,0.8,0.4,0.7,0.9
				c-0.3,3-0.5,5.8-0.4,8.5C289.5,699.5,289.2,699.9,288.7,699.9C288.7,699.9,288.7,699.9,288.7,699.9z"/>
			<path class="st4" d="M289.6,687.7c0,0-0.1,0-0.1,0c-0.4-0.1-0.7-0.5-0.7-0.9c0.4-2.4,0.7-3.9,0.8-4c0.1-0.4,0.5-0.7,1-0.6
				c0.4,0.1,0.7,0.5,0.6,1c0,0-0.4,1.5-0.7,3.9C290.3,687.4,290,687.7,289.6,687.7z"/>
		</g>
	</g>
	<g class="st1">
		<path class="st2" d="M228.4,67.9c0.3-0.6,1-1,1.6-0.8c3.5,0.7,7.1,2.4,10.9,5.1c3,2.1,6,4.9,9.1,8.2c0,0,0,0.1,0.1,0.1h-10.4
			c-1-1.1-2-2.2-2.9-3.1c-4.5-4.7-8.1-7.6-8.1-7.6C228.3,69.3,228.1,68.6,228.4,67.9z"/>
		<path class="st3" d="M230.8,56.8c0.4-0.5,1.1-0.7,1.8-0.5c3.2,1.4,6.5,3.8,9.6,7.3c2.5,2.7,4.9,6,7.2,9.9c1.5,2.5,2.8,4.9,3.7,6.9
			H244c-2.3-5-4.8-9.4-6.9-12.6c-3.5-5.5-6.3-9.1-6.3-9.2C230.4,58.1,230.4,57.4,230.8,56.8z"/>
		<path class="st4" d="M236.6,48.4c0.5-0.5,1.3-0.5,1.8-0.1c2.9,1.9,5.7,4.9,8.2,8.9c1.9,3.1,3.7,6.8,5.3,11
			c2,5.4,3.2,10.2,3.6,12.3h-8.8c-1.4-7.8-3.9-15.1-5.9-20.1c-2.4-6.1-4.5-10.1-4.6-10.2C235.9,49.6,236.1,48.9,236.6,48.4z"/>
		<path class="st5" d="M249.4,80.5c0-0.1,0-0.1,0-0.2c0.5-8.8-0.6-17.7-1.6-23.6c-1.1-6.4-2.4-10.8-2.4-10.9
			c-0.2-0.7,0.1-1.4,0.6-1.7c0.6-0.4,1.3-0.3,1.8,0.2c2.4,2.5,4.5,6,6.1,10.3c1.3,3.4,2.2,7.4,2.9,11.9c1.2,7.4,1.1,13.6,1.1,13.9
			L249.4,80.5z"/>
		<path class="st3" d="M281,67.9c-0.3-0.6-1-1-1.6-0.8c-3.5,0.7-7.1,2.4-10.9,5.1c-3,2.1-6,4.9-9.1,8.2c0,0,0,0.1-0.1,0.1h10.4
			c1-1.1,2-2.2,2.9-3.1c4.5-4.7,8.1-7.6,8.1-7.6C281.2,69.3,281.3,68.6,281,67.9z"/>
		<path class="st4" d="M278.6,56.8c-0.4-0.5-1.1-0.7-1.8-0.5c-3.2,1.4-6.5,3.8-9.6,7.3c-2.5,2.7-4.9,6-7.2,9.9
			c-1.5,2.5-2.8,4.9-3.7,6.9h9.2c2.3-5,4.8-9.4,6.9-12.6c3.5-5.5,6.3-9.1,6.3-9.2C279,58.1,279,57.4,278.6,56.8z"/>
		<path class="st5" d="M272.8,48.4c-0.5-0.5-1.3-0.5-1.8-0.1c-2.9,1.9-5.7,4.9-8.2,8.9c-1.9,3.1-3.7,6.8-5.3,11
			c-2,5.4-3.2,10.2-3.6,12.3h8.8c1.4-7.8,3.9-15.1,5.9-20.1c2.4-6.1,4.5-10.1,4.6-10.2C273.5,49.6,273.3,48.9,272.8,48.4z"/>
		<path class="st6" d="M260.2,80.5c0-0.1,0-0.1,0-0.2c-0.5-8.8,0.7-17.7,1.8-23.6c1.2-6.4,2.5-10.8,2.5-10.8
			c0.2-0.7-0.1-1.4-0.7-1.7c-0.6-0.4-1.3-0.3-1.8,0.2c-2.5,2.5-4.6,5.9-6.3,10.3c-1.3,3.4-2.3,7.4-3.1,11.8
			c-1.2,7.4-1.2,13.6-1.2,13.9L260.2,80.5L260.2,80.5L260.2,80.5z"/>
		<g>
			<path class="st2" d="M240.7,80.5h-7.4c-0.4,0-0.8-0.4-0.8-0.8c0-0.4,0.4-0.8,0.8-0.8h7.4c0.4,0,0.8,0.4,0.8,0.8
				C241.5,80.1,241.1,80.5,240.7,80.5z"/>
			<path class="st2" d="M230.5,80.5h-1.4c-0.4,0-0.8-0.4-0.8-0.8c0-0.4,0.4-0.8,0.8-0.8h1.4c0.4,0,0.8,0.4,0.8,0.8
				C231.3,80.1,231,80.5,230.5,80.5z"/>
		</g>
		<g>
			<path class="st3" d="M274.2,80.5h-6c-0.4,0-0.8-0.4-0.8-0.8c0-0.4,0.4-0.8,0.8-0.8h6c0.4,0,0.8,0.4,0.8,0.8
				C275,80.1,274.6,80.5,274.2,80.5z"/>
			<path class="st3" d="M280.2,80.5h-3.2c-0.4,0-0.8-0.4-0.8-0.8c0-0.4,0.4-0.8,0.8-0.8h3.2c0.4,0,0.8,0.4,0.8,0.8
				C281,80.1,280.7,80.5,280.2,80.5z"/>
		</g>
		<g>
			<path class="st4" d="M256.3,77.3c-0.4,0-0.8-0.4-0.8-0.8c-0.1-2.7,0.1-5.7,0.4-8.7c0-0.4,0.4-0.8,0.9-0.7c0.4,0,0.8,0.4,0.7,0.9
				c-0.3,3-0.5,5.8-0.4,8.5C257.1,76.9,256.7,77.2,256.3,77.3C256.3,77.3,256.3,77.3,256.3,77.3z"/>
			<path class="st4" d="M257.2,65.1c0,0-0.1,0-0.1,0c-0.4-0.1-0.7-0.5-0.7-0.9c0.4-2.4,0.7-3.9,0.8-4c0.1-0.4,0.5-0.7,1-0.6
				c0.4,0.1,0.7,0.5,0.6,1c0,0-0.4,1.5-0.7,3.9C257.9,64.8,257.5,65.1,257.2,65.1z"/>
		</g>
	</g>
	<g class="st1">
		<path class="st2" d="M737.3,310.3c0.3-0.6,1-1,1.6-0.8c3.5,0.7,7.1,2.4,10.9,5.1c3,2.1,6,4.9,9.1,8.2c0,0,0,0.1,0.1,0.1h-10.4
			c-1-1.1-2-2.2-2.9-3.1c-4.5-4.7-8.1-7.6-8.1-7.6C737.2,311.7,737,310.9,737.3,310.3z"/>
		<path class="st3" d="M739.7,299.2c0.4-0.5,1.1-0.7,1.8-0.5c3.2,1.4,6.5,3.8,9.6,7.3c2.5,2.7,4.9,6,7.2,9.9
			c1.5,2.5,2.8,4.9,3.7,6.9h-9.2c-2.3-5-4.8-9.4-6.9-12.6c-3.5-5.5-6.3-9.1-6.3-9.2C739.3,300.5,739.3,299.8,739.7,299.2z"/>
		<path class="st4" d="M745.5,290.8c0.5-0.5,1.3-0.5,1.8-0.1c2.9,1.9,5.7,4.9,8.2,8.9c1.9,3.1,3.7,6.8,5.3,11
			c2,5.4,3.2,10.2,3.6,12.3h-8.8c-1.4-7.8-3.9-15.1-5.9-20.1c-2.4-6.1-4.5-10.1-4.6-10.2C744.9,292,745,291.2,745.5,290.8z"/>
		<path class="st5" d="M758.3,322.8c0-0.1,0-0.1,0-0.2c0.5-8.8-0.6-17.7-1.6-23.6c-1.1-6.4-2.4-10.8-2.4-10.9
			c-0.2-0.7,0.1-1.4,0.6-1.7c0.6-0.4,1.3-0.3,1.8,0.2c2.4,2.5,4.5,6,6.1,10.3c1.3,3.4,2.2,7.4,2.9,11.9c1.2,7.4,1.1,13.6,1.1,13.9
			L758.3,322.8z"/>
		<path class="st3" d="M790,310.3c-0.3-0.6-1-1-1.6-0.8c-3.5,0.7-7.1,2.4-10.9,5.1c-3,2.1-6,4.9-9.1,8.2c0,0,0,0.1-0.1,0.1h10.4
			c1-1.1,2-2.2,2.9-3.1c4.5-4.7,8.1-7.6,8.1-7.6C790.1,311.7,790.3,310.9,790,310.3z"/>
		<path class="st4" d="M787.6,299.2c-0.4-0.5-1.1-0.7-1.8-0.5c-3.2,1.4-6.5,3.8-9.6,7.3c-2.5,2.7-4.9,6-7.2,9.9
			c-1.5,2.5-2.8,4.9-3.7,6.9h9.2c2.3-5,4.8-9.4,6.9-12.6c3.5-5.5,6.3-9.1,6.3-9.2C788,300.5,788,299.8,787.6,299.2z"/>
		<path class="st5" d="M781.8,290.8c-0.5-0.5-1.3-0.5-1.8-0.1c-2.9,1.9-5.7,4.9-8.2,8.9c-1.9,3.1-3.7,6.8-5.3,11
			c-2,5.4-3.2,10.2-3.6,12.3h8.8c1.4-7.8,3.9-15.1,5.9-20.1c2.4-6.1,4.5-10.1,4.6-10.2C782.4,292,782.3,291.2,781.8,290.8z"/>
		<path class="st6" d="M769.1,322.9c0-0.1,0-0.1,0-0.2c-0.5-8.8,0.7-17.7,1.8-23.6c1.2-6.4,2.5-10.8,2.5-10.8
			c0.2-0.7-0.1-1.4-0.7-1.7c-0.6-0.4-1.3-0.3-1.8,0.2c-2.5,2.5-4.6,5.9-6.3,10.3c-1.3,3.4-2.3,7.4-3.1,11.8
			c-1.2,7.4-1.2,13.6-1.2,13.9L769.1,322.9L769.1,322.9L769.1,322.9z"/>
		<g>
			<path class="st2" d="M749.6,322.9h-7.4c-0.4,0-0.8-0.4-0.8-0.8s0.4-0.8,0.8-0.8h7.4c0.4,0,0.8,0.4,0.8,0.8S750,322.9,749.6,322.9
				z"/>
			<path class="st2" d="M739.4,322.9H738c-0.4,0-0.8-0.4-0.8-0.8s0.4-0.8,0.8-0.8h1.4c0.4,0,0.8,0.4,0.8,0.8
				S739.9,322.9,739.4,322.9z"/>
		</g>
		<g>
			<path class="st3" d="M783.1,322.9h-6c-0.4,0-0.8-0.4-0.8-0.8s0.4-0.8,0.8-0.8h6c0.4,0,0.8,0.4,0.8,0.8S783.6,322.9,783.1,322.9z"
				/>
			<path class="st3" d="M789.2,322.9H786c-0.4,0-0.8-0.4-0.8-0.8s0.4-0.8,0.8-0.8h3.2c0.4,0,0.8,0.4,0.8,0.8
				S789.6,322.9,789.2,322.9z"/>
		</g>
		<g>
			<path class="st4" d="M765.2,319.6c-0.4,0-0.8-0.4-0.8-0.8c-0.1-2.7,0.1-5.7,0.4-8.7c0-0.4,0.4-0.8,0.9-0.7c0.4,0,0.8,0.4,0.7,0.9
				c-0.3,3-0.5,5.8-0.4,8.5C766,319.3,765.7,319.6,765.2,319.6C765.2,319.6,765.2,319.6,765.2,319.6z"/>
			<path class="st4" d="M766.1,307.4c0,0-0.1,0-0.1,0c-0.4-0.1-0.7-0.5-0.7-0.9c0.4-2.4,0.7-3.9,0.8-4c0.1-0.4,0.5-0.7,1-0.6
				c0.4,0.1,0.7,0.5,0.6,1c0,0-0.4,1.5-0.7,3.9C766.8,307.2,766.5,307.4,766.1,307.4z"/>
		</g>
	</g>
	<g class="st1">
		<path class="st2" d="M470.6,487.4c0.3-0.6,1-1,1.6-0.8c3.5,0.7,7.1,2.4,10.9,5.1c3,2.1,6,4.9,9.1,8.2c0,0,0,0.1,0.1,0.1h-10.4
			c-1-1.1-2-2.2-2.9-3.1c-4.5-4.7-8.1-7.6-8.1-7.6C470.4,488.8,470.3,488.1,470.6,487.4z"/>
		<path class="st3" d="M473,476.3c0.4-0.5,1.1-0.7,1.8-0.5c3.2,1.4,6.5,3.8,9.6,7.3c2.5,2.7,4.9,6,7.2,9.9c1.5,2.5,2.8,4.9,3.7,6.9
			h-9.2c-2.3-5-4.8-9.4-6.9-12.6c-3.5-5.5-6.3-9.1-6.3-9.2C472.6,477.6,472.5,476.9,473,476.3z"/>
		<path class="st4" d="M478.8,467.9c0.5-0.5,1.3-0.5,1.8-0.1c2.9,1.9,5.7,4.9,8.2,8.9c1.9,3.1,3.7,6.8,5.3,11
			c2,5.4,3.2,10.2,3.6,12.3h-8.8c-1.4-7.8-3.9-15.1-5.9-20.1c-2.4-6.1-4.5-10.1-4.6-10.2C478.1,469.1,478.3,468.3,478.8,467.9z"/>
		<path class="st5" d="M491.6,500c0-0.1,0-0.1,0-0.2c0.5-8.8-0.6-17.7-1.6-23.6c-1.1-6.4-2.4-10.8-2.4-10.9
			c-0.2-0.7,0.1-1.4,0.6-1.7c0.6-0.4,1.3-0.3,1.8,0.2c2.4,2.5,4.5,6,6.1,10.3c1.3,3.4,2.2,7.4,2.9,11.9c1.2,7.4,1.1,13.6,1.1,13.9
			L491.6,500z"/>
		<path class="st3" d="M523.2,487.4c-0.3-0.6-1-1-1.6-0.8c-3.5,0.7-7.1,2.4-10.9,5.1c-3,2.1-6,4.9-9.1,8.2c0,0,0,0.1-0.1,0.1h10.4
			c1-1.1,2-2.2,2.9-3.1c4.5-4.7,8.1-7.6,8.1-7.6C523.3,488.8,523.5,488.1,523.2,487.4z"/>
		<path class="st4" d="M520.8,476.3c-0.4-0.5-1.1-0.7-1.8-0.5c-3.2,1.4-6.5,3.8-9.6,7.3c-2.5,2.7-4.9,6-7.2,9.9
			c-1.5,2.5-2.8,4.9-3.7,6.9h9.2c2.3-5,4.8-9.4,6.9-12.6c3.5-5.5,6.3-9.1,6.3-9.2C521.2,477.6,521.2,476.9,520.8,476.3z"/>
		<path class="st5" d="M515,467.9c-0.5-0.5-1.3-0.5-1.8-0.1c-2.9,1.9-5.7,4.9-8.2,8.9c-1.9,3.1-3.7,6.8-5.3,11
			c-2,5.4-3.2,10.2-3.6,12.3h8.8c1.4-7.8,3.9-15.1,5.9-20.1c2.4-6.1,4.5-10.1,4.6-10.2C515.7,469.1,515.5,468.3,515,467.9z"/>
		<path class="st6" d="M502.4,500c0-0.1,0-0.1,0-0.2c-0.5-8.8,0.7-17.7,1.8-23.6c1.2-6.4,2.5-10.8,2.5-10.8c0.2-0.7-0.1-1.4-0.7-1.7
			c-0.6-0.4-1.3-0.3-1.8,0.2c-2.5,2.5-4.6,5.9-6.3,10.3c-1.3,3.4-2.3,7.4-3.1,11.8c-1.2,7.4-1.2,13.6-1.2,13.9L502.4,500L502.4,500
			L502.4,500z"/>
		<g>
			<path class="st2" d="M482.9,500h-7.4c-0.4,0-0.8-0.4-0.8-0.8s0.4-0.8,0.8-0.8h7.4c0.4,0,0.8,0.4,0.8,0.8S483.3,500,482.9,500z"/>
			<path class="st2" d="M472.7,500h-1.4c-0.4,0-0.8-0.4-0.8-0.8s0.4-0.8,0.8-0.8h1.4c0.4,0,0.8,0.4,0.8,0.8S473.1,500,472.7,500z"/>
		</g>
		<g>
			<path class="st3" d="M516.4,500h-6c-0.4,0-0.8-0.4-0.8-0.8s0.4-0.8,0.8-0.8h6c0.4,0,0.8,0.4,0.8,0.8S516.8,500,516.4,500z"/>
			<path class="st3" d="M522.4,500h-3.2c-0.4,0-0.8-0.4-0.8-0.8s0.4-0.8,0.8-0.8h3.2c0.4,0,0.8,0.4,0.8,0.8S522.9,500,522.4,500z"/>
		</g>
		<g>
			<path class="st4" d="M498.5,496.8c-0.4,0-0.8-0.4-0.8-0.8c-0.1-2.7,0.1-5.7,0.4-8.7c0-0.4,0.4-0.8,0.9-0.7c0.4,0,0.8,0.4,0.7,0.9
				c-0.3,3-0.5,5.8-0.4,8.5C499.3,496.4,498.9,496.7,498.5,496.8C498.5,496.8,498.5,496.8,498.5,496.8z"/>
			<path class="st4" d="M499.4,484.6c0,0-0.1,0-0.1,0c-0.4-0.1-0.7-0.5-0.7-0.9c0.4-2.4,0.7-3.9,0.8-4c0.1-0.4,0.5-0.7,1-0.6
				c0.4,0.1,0.7,0.5,0.6,1c0,0-0.4,1.5-0.7,3.9C500.1,484.3,499.7,484.6,499.4,484.6z"/>
		</g>
	</g>
	<g class="st1">
		<path class="st2" d="M670.2,580.1c0.3-0.6,1-1,1.6-0.8c3.5,0.7,7.1,2.4,10.9,5.1c3,2.1,6,4.9,9.1,8.2c0,0,0,0.1,0.1,0.1h-10.4
			c-1-1.1-2-2.2-2.9-3.1c-4.5-4.7-8.1-7.6-8.1-7.6C670,581.5,669.9,580.7,670.2,580.1z"/>
		<path class="st3" d="M672.6,569c0.4-0.5,1.1-0.7,1.8-0.5c3.2,1.4,6.5,3.8,9.6,7.3c2.5,2.7,4.9,6,7.2,9.9c1.5,2.5,2.8,4.9,3.7,6.9
			h-9.2c-2.3-5-4.8-9.4-6.9-12.6c-3.5-5.5-6.3-9.1-6.3-9.2C672.2,570.3,672.1,569.6,672.6,569z"/>
		<path class="st4" d="M678.4,560.6c0.5-0.5,1.3-0.5,1.8-0.1c2.9,1.9,5.7,4.9,8.2,8.9c1.9,3.1,3.7,6.8,5.3,11
			c2,5.4,3.2,10.2,3.6,12.3h-8.8c-1.4-7.8-3.9-15.1-5.9-20.1c-2.4-6.1-4.5-10.1-4.6-10.2C677.7,561.8,677.8,561,678.4,560.6z"/>
		<path class="st5" d="M691.2,592.6c0-0.1,0-0.1,0-0.2c0.5-8.8-0.6-17.7-1.6-23.6c-1.1-6.4-2.4-10.8-2.4-10.9
			c-0.2-0.7,0.1-1.4,0.6-1.7c0.6-0.4,1.3-0.3,1.8,0.2c2.4,2.5,4.5,6,6.1,10.3c1.3,3.4,2.2,7.4,2.9,11.9c1.2,7.4,1.1,13.6,1.1,13.9
			L691.2,592.6z"/>
		<path class="st3" d="M722.8,580.1c-0.3-0.6-1-1-1.6-0.8c-3.5,0.7-7.1,2.4-10.9,5.1c-3,2.1-6,4.9-9.1,8.2c0,0,0,0.1-0.1,0.1h10.4
			c1-1.1,2-2.2,2.9-3.1c4.5-4.7,8.1-7.6,8.1-7.6C722.9,581.5,723.1,580.7,722.8,580.1z"/>
		<path class="st4" d="M720.4,569c-0.4-0.5-1.1-0.7-1.8-0.5c-3.2,1.4-6.5,3.8-9.6,7.3c-2.5,2.7-4.9,6-7.2,9.9
			c-1.5,2.5-2.8,4.9-3.8,6.9h9.2c2.3-5,4.8-9.4,6.9-12.6c3.5-5.5,6.3-9.1,6.3-9.2C720.8,570.3,720.8,569.6,720.4,569z"/>
		<path class="st5" d="M714.6,560.6c-0.5-0.5-1.3-0.5-1.8-0.1c-2.9,1.9-5.7,4.9-8.2,8.9c-1.9,3.1-3.7,6.8-5.3,11
			c-2,5.4-3.2,10.2-3.6,12.3h8.8c1.4-7.8,3.9-15.1,5.9-20.1c2.4-6.1,4.5-10.1,4.6-10.2C715.3,561.8,715.1,561,714.6,560.6z"/>
		<path class="st6" d="M702,592.6c0-0.1,0-0.1,0-0.2c-0.5-8.8,0.7-17.7,1.8-23.6c1.2-6.4,2.5-10.8,2.5-10.8c0.2-0.7-0.1-1.4-0.7-1.7
			c-0.6-0.4-1.3-0.3-1.8,0.2c-2.5,2.5-4.6,5.9-6.3,10.3c-1.3,3.4-2.3,7.4-3.1,11.8c-1.2,7.4-1.2,13.6-1.2,13.9L702,592.6L702,592.6
			L702,592.6z"/>
		<g>
			<path class="st2" d="M682.4,592.6h-7.4c-0.4,0-0.8-0.4-0.8-0.8s0.4-0.8,0.8-0.8h7.4c0.4,0,0.8,0.4,0.8,0.8
				S682.9,592.6,682.4,592.6z"/>
			<path class="st2" d="M672.3,592.6h-1.4c-0.4,0-0.8-0.4-0.8-0.8s0.4-0.8,0.8-0.8h1.4c0.4,0,0.8,0.4,0.8,0.8
				S672.7,592.6,672.3,592.6z"/>
		</g>
		<g>
			<path class="st3" d="M716,592.6h-6c-0.4,0-0.8-0.4-0.8-0.8s0.4-0.8,0.8-0.8h6c0.4,0,0.8,0.4,0.8,0.8S716.4,592.6,716,592.6z"/>
			<path class="st3" d="M722,592.6h-3.2c-0.4,0-0.8-0.4-0.8-0.8s0.4-0.8,0.8-0.8h3.2c0.4,0,0.8,0.4,0.8,0.8S722.5,592.6,722,592.6z"
				/>
		</g>
		<g>
			<path class="st4" d="M698.1,589.4c-0.4,0-0.8-0.4-0.8-0.8c-0.1-2.7,0.1-5.7,0.4-8.7c0-0.4,0.4-0.8,0.9-0.7c0.4,0,0.8,0.4,0.7,0.9
				c-0.3,3-0.5,5.8-0.4,8.5C698.9,589,698.5,589.4,698.1,589.4C698.1,589.4,698.1,589.4,698.1,589.4z"/>
			<path class="st4" d="M698.9,577.2c0,0-0.1,0-0.1,0c-0.4-0.1-0.7-0.5-0.7-0.9c0.4-2.4,0.7-3.9,0.8-4c0.1-0.4,0.5-0.7,1-0.6
				c0.4,0.1,0.7,0.5,0.6,1c0,0-0.4,1.5-0.7,3.9C699.7,576.9,699.3,577.2,698.9,577.2z"/>
		</g>
	</g>
	<g class="st1">
		<path class="st2" d="M590.8,159.7c0.3-0.6,1-1,1.6-0.8c3.5,0.7,7.1,2.4,10.9,5.1c3,2.1,6,4.9,9.1,8.2c0,0,0,0.1,0.1,0.1h-10.4
			c-1-1.1-2-2.2-2.9-3.1c-4.5-4.7-8.1-7.6-8.1-7.6C590.6,161.1,590.5,160.3,590.8,159.7z"/>
		<path class="st3" d="M593.2,148.6c0.4-0.5,1.1-0.7,1.8-0.5c3.2,1.4,6.5,3.8,9.6,7.3c2.5,2.7,4.9,6,7.2,9.9
			c1.5,2.5,2.8,4.9,3.7,6.9h-9.2c-2.3-5-4.8-9.4-6.9-12.6c-3.5-5.5-6.3-9.1-6.3-9.2C592.7,149.9,592.7,149.1,593.2,148.6z"/>
		<path class="st4" d="M598.9,140.2c0.5-0.5,1.3-0.5,1.8-0.1c2.9,1.9,5.7,4.9,8.2,8.9c1.9,3.1,3.7,6.8,5.3,11
			c2,5.4,3.2,10.2,3.6,12.3H609c-1.4-7.8-3.9-15.1-5.9-20.1c-2.4-6.1-4.5-10.1-4.6-10.2C598.3,141.4,598.4,140.6,598.9,140.2z"/>
		<path class="st5" d="M611.8,172.2c0-0.1,0-0.1,0-0.2c0.5-8.8-0.6-17.7-1.6-23.6c-1.1-6.4-2.4-10.8-2.4-10.9
			c-0.2-0.7,0.1-1.4,0.6-1.7c0.6-0.4,1.3-0.3,1.8,0.2c2.4,2.5,4.5,6,6.1,10.3c1.3,3.4,2.2,7.4,2.9,11.9c1.2,7.4,1.1,13.6,1.1,13.9
			L611.8,172.2z"/>
		<path class="st3" d="M643.4,159.7c-0.3-0.6-1-1-1.6-0.8c-3.5,0.7-7.1,2.4-10.9,5.1c-3,2.1-6,4.9-9.1,8.2c0,0,0,0.1-0.1,0.1H632
			c1-1.1,2-2.2,2.9-3.1c4.5-4.7,8.1-7.6,8.1-7.6C643.5,161.1,643.7,160.3,643.4,159.7z"/>
		<path class="st4" d="M641,148.6c-0.4-0.5-1.1-0.7-1.8-0.5c-3.2,1.4-6.5,3.8-9.6,7.3c-2.5,2.7-4.9,6-7.2,9.9
			c-1.5,2.5-2.8,4.9-3.7,6.9h9.2c2.3-5,4.8-9.4,6.9-12.6c3.5-5.5,6.3-9.1,6.3-9.2C641.4,149.9,641.4,149.1,641,148.6z"/>
		<path class="st5" d="M635.2,140.2c-0.5-0.5-1.3-0.5-1.8-0.1c-2.9,1.9-5.7,4.9-8.2,8.9c-1.9,3.1-3.7,6.8-5.3,11
			c-2,5.4-3.2,10.2-3.6,12.3h8.8c1.4-7.8,3.9-15.1,5.9-20.1c2.4-6.1,4.5-10.1,4.6-10.2C635.9,141.4,635.7,140.6,635.2,140.2z"/>
		<path class="st6" d="M622.6,172.2c0-0.1,0-0.1,0-0.2c-0.5-8.8,0.7-17.7,1.8-23.6c1.2-6.4,2.5-10.8,2.5-10.8
			c0.2-0.7-0.1-1.4-0.7-1.7c-0.6-0.4-1.3-0.3-1.8,0.2c-2.5,2.5-4.6,5.9-6.3,10.3c-1.3,3.4-2.3,7.4-3.1,11.8
			c-1.2,7.4-1.2,13.6-1.2,13.9L622.6,172.2L622.6,172.2L622.6,172.2z"/>
		<g>
			<path class="st2" d="M603,172.2h-7.4c-0.4,0-0.8-0.4-0.8-0.8s0.4-0.8,0.8-0.8h7.4c0.4,0,0.8,0.4,0.8,0.8S603.5,172.2,603,172.2z"
				/>
			<path class="st2" d="M592.9,172.2h-1.4c-0.4,0-0.8-0.4-0.8-0.8s0.4-0.8,0.8-0.8h1.4c0.4,0,0.8,0.4,0.8,0.8
				S593.3,172.2,592.9,172.2z"/>
		</g>
		<g>
			<path class="st3" d="M636.6,172.2h-6c-0.4,0-0.8-0.4-0.8-0.8s0.4-0.8,0.8-0.8h6c0.4,0,0.8,0.4,0.8,0.8S637,172.2,636.6,172.2z"/>
			<path class="st3" d="M642.6,172.2h-3.2c-0.4,0-0.8-0.4-0.8-0.8s0.4-0.8,0.8-0.8h3.2c0.4,0,0.8,0.4,0.8,0.8
				S643.1,172.2,642.6,172.2z"/>
		</g>
		<g>
			<path class="st4" d="M618.7,169c-0.4,0-0.8-0.4-0.8-0.8c-0.1-2.7,0.1-5.7,0.4-8.7c0-0.4,0.4-0.8,0.9-0.7c0.4,0,0.8,0.4,0.7,0.9
				c-0.3,3-0.5,5.8-0.4,8.5C619.5,168.6,619.1,169,618.7,169C618.7,169,618.7,169,618.7,169z"/>
			<path class="st4" d="M619.5,156.8c0,0-0.1,0-0.1,0c-0.4-0.1-0.7-0.5-0.7-0.9c0.4-2.4,0.7-3.9,0.8-4c0.1-0.4,0.5-0.7,1-0.6
				c0.4,0.1,0.7,0.5,0.6,1c0,0-0.4,1.5-0.7,3.9C620.3,156.5,619.9,156.8,619.5,156.8z"/>
		</g>
	</g>
	<g class="st1">
		<path class="st2" d="M844.1,76.6c0.3-0.6,1-1,1.6-0.8c3.5,0.7,7.1,2.4,10.9,5.1c3,2.1,6,4.9,9.1,8.2c0,0,0,0.1,0.1,0.1h-10.4
			c-1-1.1-2-2.2-2.9-3.1c-4.5-4.7-8.1-7.6-8.1-7.6C844,78,843.8,77.3,844.1,76.6z"/>
		<path class="st3" d="M846.5,65.5c0.4-0.5,1.1-0.7,1.8-0.5c3.2,1.4,6.5,3.8,9.6,7.3c2.5,2.7,4.9,6,7.2,9.9c1.5,2.5,2.8,4.9,3.7,6.9
			h-9.2c-2.3-5-4.8-9.4-6.9-12.6c-3.5-5.5-6.3-9.1-6.3-9.2C846.1,66.8,846.1,66.1,846.5,65.5z"/>
		<path class="st4" d="M852.3,57.1c0.5-0.5,1.3-0.5,1.8-0.1c2.9,1.9,5.7,4.9,8.2,8.9c1.9,3.1,3.7,6.8,5.3,11
			c2,5.4,3.2,10.2,3.6,12.3h-8.8c-1.4-7.8-3.9-15.1-5.9-20.1c-2.4-6.1-4.5-10.1-4.6-10.2C851.7,58.3,851.8,57.5,852.3,57.1z"/>
		<path class="st5" d="M865.1,89.2c0-0.1,0-0.1,0-0.2c0.5-8.8-0.6-17.7-1.6-23.6c-1.1-6.4-2.4-10.8-2.4-10.9
			c-0.2-0.7,0.1-1.4,0.6-1.7c0.6-0.4,1.3-0.3,1.8,0.2c2.4,2.5,4.5,6,6.1,10.3c1.3,3.4,2.2,7.4,2.9,11.9c1.2,7.4,1.1,13.6,1.1,13.9
			L865.1,89.2z"/>
		<path class="st3" d="M896.8,76.6c-0.3-0.6-1-1-1.6-0.8c-3.5,0.7-7.1,2.4-10.9,5.1c-3,2.1-6,4.9-9.1,8.2c0,0,0,0.1-0.1,0.1h10.4
			c1-1.1,2-2.2,2.9-3.1c4.5-4.7,8.1-7.6,8.1-7.6C896.9,78,897.1,77.3,896.8,76.6z"/>
		<path class="st4" d="M894.4,65.5c-0.4-0.5-1.1-0.7-1.8-0.5c-3.2,1.4-6.5,3.8-9.6,7.3c-2.5,2.7-4.9,6-7.2,9.9
			c-1.5,2.5-2.8,4.9-3.8,6.9h9.2c2.3-5,4.8-9.4,6.9-12.6c3.5-5.5,6.3-9.1,6.3-9.2C894.8,66.8,894.8,66.1,894.4,65.5z"/>
		<path class="st5" d="M888.6,57.1c-0.5-0.5-1.3-0.5-1.8-0.1c-2.9,1.9-5.7,4.9-8.2,8.9c-1.9,3.1-3.7,6.8-5.3,11
			c-2,5.4-3.2,10.2-3.6,12.3h8.8c1.4-7.8,3.9-15.1,5.9-20.1c2.4-6.1,4.5-10.1,4.6-10.2C889.2,58.3,889.1,57.5,888.6,57.1z"/>
		<path class="st6" d="M875.9,89.2c0-0.1,0-0.1,0-0.2c-0.5-8.8,0.7-17.7,1.8-23.6c1.2-6.4,2.5-10.8,2.5-10.8
			c0.2-0.7-0.1-1.4-0.7-1.7c-0.6-0.4-1.3-0.3-1.8,0.2c-2.5,2.5-4.6,5.9-6.3,10.3c-1.3,3.4-2.3,7.4-3.1,11.8
			c-1.2,7.4-1.2,13.6-1.2,13.9L875.9,89.2L875.9,89.2L875.9,89.2z"/>
		<g>
			<path class="st2" d="M856.4,89.2H849c-0.4,0-0.8-0.4-0.8-0.8c0-0.4,0.4-0.8,0.8-0.8h7.4c0.4,0,0.8,0.4,0.8,0.8
				C857.2,88.8,856.9,89.2,856.4,89.2z"/>
			<path class="st2" d="M846.3,89.2h-1.4c-0.4,0-0.8-0.4-0.8-0.8c0-0.4,0.4-0.8,0.8-0.8h1.4c0.4,0,0.8,0.4,0.8,0.8
				C847.1,88.8,846.7,89.2,846.3,89.2z"/>
		</g>
		<g>
			<path class="st3" d="M889.9,89.2h-6c-0.4,0-0.8-0.4-0.8-0.8c0-0.4,0.4-0.8,0.8-0.8h6c0.4,0,0.8,0.4,0.8,0.8
				C890.7,88.8,890.4,89.2,889.9,89.2z"/>
			<path class="st3" d="M896,89.2h-3.2c-0.4,0-0.8-0.4-0.8-0.8c0-0.4,0.4-0.8,0.8-0.8h3.2c0.4,0,0.8,0.4,0.8,0.8
				C896.8,88.8,896.4,89.2,896,89.2z"/>
		</g>
		<g>
			<path class="st4" d="M872,86c-0.4,0-0.8-0.4-0.8-0.8c-0.1-2.7,0.1-5.7,0.4-8.7c0-0.4,0.4-0.8,0.9-0.7c0.4,0,0.8,0.4,0.7,0.9
				c-0.3,3-0.5,5.8-0.4,8.5C872.8,85.6,872.5,85.9,872,86C872,86,872,86,872,86z"/>
			<path class="st4" d="M872.9,73.8c0,0-0.1,0-0.1,0c-0.4-0.1-0.7-0.5-0.7-0.9c0.4-2.4,0.7-3.9,0.8-4c0.1-0.4,0.5-0.7,1-0.6
				c0.4,0.1,0.7,0.5,0.6,1c0,0-0.4,1.5-0.7,3.9C873.6,73.5,873.3,73.8,872.9,73.8z"/>
		</g>
	</g>
	<g class="st1">
		<path class="st2" d="M853.2,437.8c0.3-0.6,1-1,1.6-0.8c3.5,0.7,7.1,2.4,10.9,5.1c3,2.1,6,4.9,9.1,8.2c0,0,0,0.1,0.1,0.1h-10.4
			c-1-1.1-2-2.2-2.9-3.1c-4.5-4.7-8.1-7.6-8.1-7.6C853.1,439.2,852.9,438.4,853.2,437.8z"/>
		<path class="st3" d="M855.6,426.7c0.4-0.5,1.1-0.7,1.8-0.5c3.2,1.4,6.5,3.8,9.6,7.3c2.5,2.7,4.9,6,7.2,9.9
			c1.5,2.5,2.8,4.9,3.7,6.9h-9.2c-2.3-5-4.8-9.4-6.9-12.6c-3.5-5.5-6.3-9.1-6.3-9.2C855.2,428,855.2,427.2,855.6,426.7z"/>
		<path class="st4" d="M861.4,418.2c0.5-0.5,1.3-0.5,1.8-0.1c2.9,1.9,5.7,4.9,8.2,8.9c1.9,3.1,3.7,6.8,5.3,11
			c2,5.4,3.2,10.2,3.6,12.3h-8.8c-1.4-7.8-3.9-15.1-5.9-20.1c-2.4-6.1-4.5-10.1-4.6-10.2C860.8,419.5,860.9,418.7,861.4,418.2z"/>
		<path class="st5" d="M874.2,450.3c0-0.1,0-0.1,0-0.2c0.5-8.8-0.6-17.7-1.6-23.6c-1.1-6.4-2.4-10.8-2.4-10.9
			c-0.2-0.7,0.1-1.4,0.6-1.7c0.6-0.4,1.3-0.3,1.8,0.2c2.4,2.5,4.5,6,6.1,10.3c1.3,3.4,2.2,7.4,2.9,11.9c1.2,7.4,1.1,13.6,1.1,13.9
			L874.2,450.3z"/>
		<path class="st3" d="M905.9,437.8c-0.3-0.6-1-1-1.6-0.8c-3.5,0.7-7.1,2.4-10.9,5.1c-3,2.1-6,4.9-9.1,8.2c0,0,0,0.1-0.1,0.1h10.4
			c1-1.1,2-2.2,2.9-3.1c4.5-4.7,8.1-7.6,8.1-7.6C906,439.2,906.2,438.4,905.9,437.8z"/>
		<path class="st4" d="M903.5,426.7c-0.4-0.5-1.1-0.7-1.8-0.5c-3.2,1.4-6.5,3.8-9.6,7.3c-2.5,2.7-4.9,6-7.2,9.9
			c-1.5,2.5-2.8,4.9-3.7,6.9h9.2c2.3-5,4.8-9.4,6.9-12.6c3.5-5.5,6.3-9.1,6.3-9.2C903.9,428,903.9,427.2,903.5,426.7z"/>
		<path class="st5" d="M897.7,418.2c-0.5-0.5-1.3-0.5-1.8-0.1c-2.9,1.9-5.7,4.9-8.2,8.9c-1.9,3.1-3.7,6.8-5.3,11
			c-2,5.4-3.2,10.2-3.6,12.3h8.8c1.4-7.8,3.9-15.1,5.9-20.1c2.4-6.1,4.5-10.1,4.6-10.2C898.3,419.5,898.2,418.7,897.7,418.2z"/>
		<path class="st6" d="M885,450.3c0-0.1,0-0.1,0-0.2c-0.5-8.8,0.7-17.7,1.8-23.6c1.2-6.4,2.5-10.8,2.5-10.8c0.2-0.7-0.1-1.4-0.7-1.7
			c-0.6-0.4-1.3-0.3-1.8,0.2c-2.5,2.5-4.6,5.9-6.3,10.3c-1.3,3.4-2.3,7.4-3.1,11.8c-1.2,7.4-1.2,13.6-1.2,13.9L885,450.3L885,450.3
			L885,450.3z"/>
		<g>
			<path class="st2" d="M865.5,450.3h-7.4c-0.4,0-0.8-0.4-0.8-0.8s0.4-0.8,0.8-0.8h7.4c0.4,0,0.8,0.4,0.8,0.8S866,450.3,865.5,450.3
				z"/>
			<path class="st2" d="M855.4,450.3H854c-0.4,0-0.8-0.4-0.8-0.8s0.4-0.8,0.8-0.8h1.4c0.4,0,0.8,0.4,0.8,0.8
				S855.8,450.3,855.4,450.3z"/>
		</g>
		<g>
			<path class="st3" d="M899,450.3h-6c-0.4,0-0.8-0.4-0.8-0.8s0.4-0.8,0.8-0.8h6c0.4,0,0.8,0.4,0.8,0.8S899.5,450.3,899,450.3z"/>
			<path class="st3" d="M905.1,450.3h-3.2c-0.4,0-0.8-0.4-0.8-0.8s0.4-0.8,0.8-0.8h3.2c0.4,0,0.8,0.4,0.8,0.8
				S905.5,450.3,905.1,450.3z"/>
		</g>
		<g>
			<path class="st4" d="M881.1,447.1c-0.4,0-0.8-0.4-0.8-0.8c-0.1-2.7,0.1-5.7,0.4-8.7c0-0.4,0.4-0.8,0.9-0.7c0.4,0,0.8,0.4,0.7,0.9
				c-0.3,3-0.5,5.8-0.4,8.5C881.9,446.7,881.6,447.1,881.1,447.1C881.1,447.1,881.1,447.1,881.1,447.1z"/>
			<path class="st4" d="M882,434.9c0,0-0.1,0-0.1,0c-0.4-0.1-0.7-0.5-0.7-0.9c0.4-2.4,0.7-3.9,0.8-4c0.1-0.4,0.5-0.7,1-0.6
				c0.4,0.1,0.7,0.5,0.6,1c0,0-0.4,1.5-0.7,3.9C882.7,434.6,882.4,434.9,882,434.9z"/>
		</g>
	</g>
	<g class="st1">
		<path class="st2" d="M548.7,727.6c0.3-0.6,1-1,1.6-0.8c3.5,0.7,7.1,2.4,10.9,5.1c3,2.1,6,4.9,9.1,8.2c0,0,0,0.1,0.1,0.1h-10.4
			c-1-1.1-2-2.2-2.9-3.1c-4.5-4.7-8.1-7.6-8.1-7.6C548.6,729,548.4,728.2,548.7,727.6z"/>
		<path class="st3" d="M551.1,716.5c0.4-0.5,1.1-0.7,1.8-0.5c3.2,1.4,6.5,3.8,9.6,7.3c2.5,2.7,4.9,6,7.2,9.9
			c1.5,2.5,2.8,4.9,3.7,6.9h-9.2c-2.3-5-4.8-9.4-6.9-12.6c-3.5-5.5-6.3-9.1-6.3-9.2C550.7,717.8,550.7,717.1,551.1,716.5z"/>
		<path class="st4" d="M556.9,708.1c0.5-0.5,1.3-0.5,1.8-0.1c2.9,1.9,5.7,4.9,8.2,8.9c1.9,3.1,3.7,6.8,5.3,11
			c2,5.4,3.2,10.2,3.6,12.3H567c-1.4-7.8-3.9-15.1-5.9-20.1c-2.4-6.1-4.5-10.1-4.6-10.2C556.3,709.3,556.4,708.5,556.9,708.1z"/>
		<path class="st5" d="M569.7,740.1c0-0.1,0-0.1,0-0.2c0.5-8.8-0.6-17.7-1.6-23.6c-1.1-6.4-2.4-10.8-2.4-10.9
			c-0.2-0.7,0.1-1.4,0.6-1.7c0.6-0.4,1.3-0.3,1.8,0.2c2.4,2.5,4.5,6,6.1,10.3c1.3,3.4,2.2,7.4,2.9,11.9c1.2,7.4,1.1,13.6,1.1,13.9
			L569.7,740.1z"/>
		<path class="st3" d="M601.4,727.6c-0.3-0.6-1-1-1.6-0.8c-3.5,0.7-7.1,2.4-10.9,5.1c-3,2.1-6,4.9-9.1,8.2c0,0,0,0.1-0.1,0.1H590
			c1-1.1,2-2.2,2.9-3.1c4.5-4.7,8.1-7.6,8.1-7.6C601.5,729,601.7,728.2,601.4,727.6z"/>
		<path class="st4" d="M599,716.5c-0.4-0.5-1.1-0.7-1.8-0.5c-3.2,1.4-6.5,3.8-9.6,7.3c-2.5,2.7-4.9,6-7.2,9.9
			c-1.5,2.5-2.8,4.9-3.8,6.9h9.2c2.3-5,4.8-9.4,6.9-12.6c3.5-5.5,6.3-9.1,6.3-9.2C599.4,717.8,599.4,717.1,599,716.5z"/>
		<path class="st5" d="M593.2,708.1c-0.5-0.5-1.3-0.5-1.8-0.1c-2.9,1.9-5.7,4.9-8.2,8.9c-1.9,3.1-3.7,6.8-5.3,11
			c-2,5.4-3.2,10.2-3.6,12.3h8.8c1.4-7.8,3.9-15.1,5.9-20.1c2.4-6.1,4.5-10.1,4.6-10.2C593.8,709.3,593.7,708.5,593.2,708.1z"/>
		<path class="st6" d="M580.5,740.2c0-0.1,0-0.1,0-0.2c-0.5-8.8,0.7-17.7,1.8-23.6c1.2-6.4,2.5-10.8,2.5-10.8
			c0.2-0.7-0.1-1.4-0.7-1.7c-0.6-0.4-1.3-0.3-1.8,0.2c-2.5,2.5-4.6,5.9-6.3,10.3c-1.3,3.4-2.3,7.4-3.1,11.8
			c-1.2,7.4-1.2,13.6-1.2,13.9L580.5,740.2L580.5,740.2L580.5,740.2z"/>
		<g>
			<path class="st2" d="M561,740.2h-7.4c-0.4,0-0.8-0.4-0.8-0.8s0.4-0.8,0.8-0.8h7.4c0.4,0,0.8,0.4,0.8,0.8S561.5,740.2,561,740.2z"
				/>
			<path class="st2" d="M550.8,740.2h-1.4c-0.4,0-0.8-0.4-0.8-0.8s0.4-0.8,0.8-0.8h1.4c0.4,0,0.8,0.4,0.8,0.8
				S551.3,740.2,550.8,740.2z"/>
		</g>
		<g>
			<path class="st3" d="M594.5,740.2h-6c-0.4,0-0.8-0.4-0.8-0.8s0.4-0.8,0.8-0.8h6c0.4,0,0.8,0.4,0.8,0.8S595,740.2,594.5,740.2z"/>
			<path class="st3" d="M600.6,740.2h-3.2c-0.4,0-0.8-0.4-0.8-0.8s0.4-0.8,0.8-0.8h3.2c0.4,0,0.8,0.4,0.8,0.8S601,740.2,600.6,740.2
				z"/>
		</g>
		<g>
			<path class="st4" d="M576.6,736.9c-0.4,0-0.8-0.4-0.8-0.8c-0.1-2.7,0.1-5.7,0.4-8.7c0-0.4,0.4-0.8,0.9-0.7c0.4,0,0.8,0.4,0.7,0.9
				c-0.3,3-0.5,5.8-0.4,8.5C577.4,736.6,577.1,736.9,576.6,736.9C576.6,736.9,576.6,736.9,576.6,736.9z"/>
			<path class="st4" d="M577.5,724.7c0,0-0.1,0-0.1,0c-0.4-0.1-0.7-0.5-0.7-0.9c0.4-2.4,0.7-3.9,0.8-4c0.1-0.4,0.5-0.7,1-0.6
				c0.4,0.1,0.7,0.5,0.6,1c0,0-0.4,1.5-0.7,3.9C578.2,724.5,577.9,724.7,577.5,724.7z"/>
		</g>
	</g>
	<g class="st1">
		<path class="st2" d="M168.4,855.9c0.3-0.6,1-1,1.6-0.8c3.5,0.7,7.1,2.4,10.9,5.1c3,2.1,6,4.9,9.1,8.2c0,0,0,0.1,0.1,0.1h-10.4
			c-1-1.1-2-2.2-2.9-3.1c-4.5-4.7-8.1-7.6-8.1-7.6C168.3,857.3,168.2,856.6,168.4,855.9z"/>
		<path class="st3" d="M170.8,844.8c0.4-0.5,1.1-0.7,1.8-0.5c3.2,1.4,6.5,3.8,9.6,7.3c2.5,2.7,4.9,6,7.2,9.9
			c1.5,2.5,2.8,4.9,3.7,6.9h-9.2c-2.3-5-4.8-9.4-6.9-12.6c-3.5-5.5-6.3-9.1-6.3-9.2C170.4,846.1,170.4,845.4,170.8,844.8z"/>
		<path class="st4" d="M176.6,836.4c0.5-0.5,1.3-0.5,1.8-0.1c2.9,1.9,5.7,4.9,8.2,8.9c1.9,3.1,3.7,6.8,5.3,11
			c2,5.4,3.2,10.2,3.6,12.3h-8.8c-1.4-7.8-3.9-15.1-5.9-20.1c-2.4-6.1-4.5-10.1-4.6-10.2C176,837.6,176.1,836.8,176.6,836.4z"/>
		<path class="st5" d="M189.5,868.5c0-0.1,0-0.1,0-0.2c0.5-8.8-0.6-17.7-1.6-23.6c-1.1-6.4-2.4-10.8-2.4-10.9
			c-0.2-0.7,0.1-1.4,0.6-1.7c0.6-0.4,1.3-0.3,1.8,0.2c2.4,2.5,4.5,6,6.1,10.3c1.3,3.4,2.2,7.4,2.9,11.9c1.2,7.4,1.1,13.6,1.1,13.9
			L189.5,868.5z"/>
		<path class="st3" d="M221.1,855.9c-0.3-0.6-1-1-1.6-0.8c-3.5,0.7-7.1,2.4-10.9,5.1c-3,2.1-6,4.9-9.1,8.2c0,0,0,0.1-0.1,0.1h10.4
			c1-1.1,2-2.2,2.9-3.1c4.5-4.7,8.1-7.6,8.1-7.6C221.2,857.3,221.4,856.6,221.1,855.9z"/>
		<path class="st4" d="M218.7,844.8c-0.4-0.5-1.1-0.7-1.8-0.5c-3.2,1.4-6.5,3.8-9.6,7.3c-2.5,2.7-4.9,6-7.2,9.9
			c-1.5,2.5-2.8,4.9-3.7,6.9h9.2c2.3-5,4.8-9.4,6.9-12.6c3.5-5.5,6.3-9.1,6.3-9.2C219.1,846.1,219.1,845.4,218.7,844.8z"/>
		<path class="st5" d="M212.9,836.4c-0.5-0.5-1.3-0.5-1.8-0.1c-2.9,1.9-5.7,4.9-8.2,8.9c-1.9,3.1-3.7,6.8-5.3,11
			c-2,5.4-3.2,10.2-3.6,12.3h8.8c1.4-7.8,3.9-15.1,5.9-20.1c2.4-6.1,4.5-10.1,4.6-10.2C213.5,837.6,213.4,836.8,212.9,836.4z"/>
		<path class="st6" d="M200.2,868.5c0-0.1,0-0.1,0-0.2c-0.5-8.8,0.7-17.7,1.8-23.6c1.2-6.4,2.5-10.8,2.5-10.8
			c0.2-0.7-0.1-1.4-0.7-1.7c-0.6-0.4-1.3-0.3-1.8,0.2c-2.5,2.5-4.6,5.9-6.3,10.3c-1.3,3.4-2.3,7.4-3.1,11.8
			c-1.2,7.4-1.2,13.6-1.2,13.9L200.2,868.5L200.2,868.5L200.2,868.5z"/>
		<g>
			<path class="st2" d="M180.7,868.5h-7.4c-0.4,0-0.8-0.4-0.8-0.8s0.4-0.8,0.8-0.8h7.4c0.4,0,0.8,0.4,0.8,0.8
				S181.2,868.5,180.7,868.5z"/>
			<path class="st2" d="M170.6,868.5h-1.4c-0.4,0-0.8-0.4-0.8-0.8s0.4-0.8,0.8-0.8h1.4c0.4,0,0.8,0.4,0.8,0.8S171,868.5,170.6,868.5
				z"/>
		</g>
		<g>
			<path class="st3" d="M214.3,868.5h-6c-0.4,0-0.8-0.4-0.8-0.8s0.4-0.8,0.8-0.8h6c0.4,0,0.8,0.4,0.8,0.8S214.7,868.5,214.3,868.5z"
				/>
			<path class="st3" d="M220.3,868.5h-3.2c-0.4,0-0.8-0.4-0.8-0.8s0.4-0.8,0.8-0.8h3.2c0.4,0,0.8,0.4,0.8,0.8
				S220.8,868.5,220.3,868.5z"/>
		</g>
		<g>
			<path class="st4" d="M196.3,865.3c-0.4,0-0.8-0.4-0.8-0.8c-0.1-2.7,0.1-5.7,0.4-8.7c0-0.4,0.4-0.8,0.9-0.7c0.4,0,0.8,0.4,0.7,0.9
				c-0.3,3-0.5,5.8-0.4,8.5C197.2,864.9,196.8,865.2,196.3,865.3C196.4,865.3,196.3,865.3,196.3,865.3z"/>
			<path class="st4" d="M197.2,853.1c0,0-0.1,0-0.1,0c-0.4-0.1-0.7-0.5-0.7-0.9c0.4-2.4,0.7-3.9,0.8-4c0.1-0.4,0.5-0.7,1-0.6
				c0.4,0.1,0.7,0.5,0.6,1c0,0-0.4,1.5-0.7,3.9C198,852.8,197.6,853.1,197.2,853.1z"/>
		</g>
	</g>
	<g class="st1">
		<path class="st2" d="M518.4,907.6c0.3-0.6,1-1,1.6-0.8c3.5,0.7,7.1,2.4,10.9,5.1c3,2.1,6,4.9,9.1,8.2c0,0,0,0.1,0.1,0.1h-10.4
			c-1-1.1-2-2.2-2.9-3.1c-4.5-4.7-8.1-7.6-8.1-7.6C518.3,909,518.2,908.2,518.4,907.6z"/>
		<path class="st3" d="M520.8,896.5c0.4-0.5,1.1-0.7,1.8-0.5c3.2,1.4,6.5,3.8,9.6,7.3c2.5,2.7,4.9,6,7.2,9.9
			c1.5,2.5,2.8,4.9,3.7,6.9H534c-2.3-5-4.8-9.4-6.9-12.6c-3.5-5.5-6.3-9.1-6.3-9.2C520.4,897.8,520.4,897,520.8,896.5z"/>
		<path class="st4" d="M526.6,888.1c0.5-0.5,1.3-0.5,1.8-0.1c2.9,1.9,5.7,4.9,8.2,8.9c1.9,3.1,3.7,6.8,5.3,11
			c2,5.4,3.2,10.2,3.6,12.3h-8.8c-1.4-7.8-3.9-15.1-5.9-20.1c-2.4-6.1-4.5-10.1-4.6-10.2C526,889.3,526.1,888.5,526.6,888.1z"/>
		<path class="st5" d="M539.5,920.1c0-0.1,0-0.1,0-0.2c0.5-8.8-0.6-17.7-1.6-23.6c-1.1-6.4-2.4-10.8-2.4-10.9
			c-0.2-0.7,0.1-1.4,0.6-1.7c0.6-0.4,1.3-0.3,1.8,0.2c2.4,2.5,4.5,6,6.1,10.3c1.3,3.4,2.2,7.4,2.9,11.9c1.2,7.4,1.1,13.6,1.1,13.9
			L539.5,920.1z"/>
		<path class="st3" d="M571.1,907.6c-0.3-0.6-1-1-1.6-0.8c-3.5,0.7-7.1,2.4-10.9,5.1c-3,2.1-6,4.9-9.1,8.2c0,0,0,0.1-0.1,0.1h10.4
			c1-1.1,2-2.2,2.9-3.1c4.5-4.7,8.1-7.6,8.1-7.6C571.2,909,571.4,908.2,571.1,907.6z"/>
		<path class="st4" d="M568.7,896.5c-0.4-0.5-1.1-0.7-1.8-0.5c-3.2,1.4-6.5,3.8-9.6,7.3c-2.5,2.7-4.9,6-7.2,9.9
			c-1.5,2.5-2.8,4.9-3.7,6.9h9.2c2.3-5,4.8-9.4,6.9-12.6c3.5-5.5,6.3-9.1,6.3-9.2C569.1,897.8,569.1,897,568.7,896.5z"/>
		<path class="st5" d="M562.9,888.1c-0.5-0.5-1.3-0.5-1.8-0.1c-2.9,1.9-5.7,4.9-8.2,8.9c-1.9,3.1-3.7,6.8-5.3,11
			c-2,5.4-3.2,10.2-3.6,12.3h8.8c1.4-7.8,3.9-15.1,5.9-20.1c2.4-6.1,4.5-10.1,4.6-10.2C563.5,889.3,563.4,888.5,562.9,888.1z"/>
		<path class="st6" d="M550.2,920.1c0-0.1,0-0.1,0-0.2c-0.5-8.8,0.7-17.7,1.8-23.6c1.2-6.4,2.5-10.8,2.5-10.8
			c0.2-0.7-0.1-1.4-0.7-1.7c-0.6-0.4-1.3-0.3-1.8,0.2c-2.5,2.5-4.6,5.9-6.3,10.3c-1.3,3.4-2.3,7.4-3.1,11.8
			c-1.2,7.4-1.2,13.6-1.2,13.9L550.2,920.1L550.2,920.1L550.2,920.1z"/>
		<g>
			<path class="st2" d="M530.7,920.1h-7.4c-0.4,0-0.8-0.4-0.8-0.8c0-0.4,0.4-0.8,0.8-0.8h7.4c0.4,0,0.8,0.4,0.8,0.8
				C531.5,919.8,531.2,920.1,530.7,920.1z"/>
			<path class="st2" d="M520.6,920.1h-1.4c-0.4,0-0.8-0.4-0.8-0.8c0-0.4,0.4-0.8,0.8-0.8h1.4c0.4,0,0.8,0.4,0.8,0.8
				C521.4,919.8,521,920.1,520.6,920.1z"/>
		</g>
		<g>
			<path class="st3" d="M564.2,920.1h-6c-0.4,0-0.8-0.4-0.8-0.8c0-0.4,0.4-0.8,0.8-0.8h6c0.4,0,0.8,0.4,0.8,0.8
				C565.1,919.8,564.7,920.1,564.2,920.1z"/>
			<path class="st3" d="M570.3,920.1h-3.2c-0.4,0-0.8-0.4-0.8-0.8c0-0.4,0.4-0.8,0.8-0.8h3.2c0.4,0,0.8,0.4,0.8,0.8
				C571.1,919.8,570.7,920.1,570.3,920.1z"/>
		</g>
		<g>
			<path class="st4" d="M546.3,916.9c-0.4,0-0.8-0.4-0.8-0.8c-0.1-2.7,0.1-5.7,0.4-8.7c0-0.4,0.4-0.8,0.9-0.7c0.4,0,0.8,0.4,0.7,0.9
				c-0.3,3-0.5,5.8-0.4,8.5C547.2,916.5,546.8,916.9,546.3,916.9C546.3,916.9,546.3,916.9,546.3,916.9z"/>
			<path class="st4" d="M547.2,904.7c0,0-0.1,0-0.1,0c-0.4-0.1-0.7-0.5-0.7-0.9c0.4-2.4,0.7-3.9,0.8-4c0.1-0.4,0.5-0.7,1-0.6
				c0.4,0.1,0.7,0.5,0.6,1c0,0-0.4,1.5-0.7,3.9C548,904.4,547.6,904.7,547.2,904.7z"/>
		</g>
	</g>
	<g class="st1">
		<path class="st2" d="M813.1,865.8c0.3-0.6,1-1,1.6-0.8c3.5,0.7,7.1,2.4,10.9,5.1c3,2.1,6,4.9,9.1,8.2c0,0,0,0.1,0.1,0.1h-10.4
			c-1-1.1-2-2.2-2.9-3.1c-4.5-4.7-8.1-7.6-8.1-7.6C813,867.2,812.8,866.5,813.1,865.8z"/>
		<path class="st3" d="M815.5,854.7c0.4-0.5,1.1-0.7,1.8-0.5c3.2,1.4,6.5,3.8,9.6,7.3c2.5,2.7,4.9,6,7.2,9.9
			c1.5,2.5,2.8,4.9,3.7,6.9h-9.2c-2.3-5-4.8-9.4-6.9-12.6c-3.5-5.5-6.3-9.1-6.3-9.2C815.1,856,815.1,855.3,815.5,854.7z"/>
		<path class="st4" d="M821.3,846.3c0.5-0.5,1.3-0.5,1.8-0.1c2.9,1.9,5.7,4.9,8.2,8.9c1.9,3.1,3.7,6.8,5.3,11
			c2,5.4,3.2,10.2,3.6,12.3h-8.8c-1.4-7.8-3.9-15.1-5.9-20.1c-2.4-6.1-4.5-10.1-4.6-10.2C820.6,847.5,820.8,846.8,821.3,846.3z"/>
		<path class="st5" d="M834.1,878.4c0-0.1,0-0.1,0-0.2c0.5-8.8-0.6-17.7-1.6-23.6c-1.1-6.4-2.4-10.8-2.4-10.9
			c-0.2-0.7,0.1-1.4,0.6-1.7c0.6-0.4,1.3-0.3,1.8,0.2c2.4,2.5,4.5,6,6.1,10.3c1.3,3.4,2.2,7.4,2.9,11.9c1.2,7.4,1.1,13.6,1.1,13.9
			L834.1,878.4z"/>
		<path class="st3" d="M865.7,865.8c-0.3-0.6-1-1-1.6-0.8c-3.5,0.7-7.1,2.4-10.9,5.1c-3,2.1-6,4.9-9.1,8.2c0,0,0,0.1-0.1,0.1h10.4
			c1-1.1,2-2.2,2.9-3.1c4.5-4.7,8.1-7.6,8.1-7.6C865.9,867.2,866,866.5,865.7,865.8z"/>
		<path class="st4" d="M863.3,854.7c-0.4-0.5-1.1-0.7-1.8-0.5c-3.2,1.4-6.5,3.8-9.6,7.3c-2.5,2.7-4.9,6-7.2,9.9
			c-1.5,2.5-2.8,4.9-3.7,6.9h9.2c2.3-5,4.8-9.4,6.9-12.6c3.5-5.5,6.3-9.1,6.3-9.2C863.7,856,863.8,855.3,863.3,854.7z"/>
		<path class="st5" d="M857.5,846.3c-0.5-0.5-1.3-0.5-1.8-0.1c-2.9,1.9-5.7,4.9-8.2,8.9c-1.9,3.1-3.7,6.8-5.3,11
			c-2,5.4-3.2,10.2-3.6,12.3h8.8c1.4-7.8,3.9-15.1,5.9-20.1c2.4-6.1,4.5-10.1,4.6-10.2C858.2,847.5,858.1,846.8,857.5,846.3z"/>
		<path class="st6" d="M844.9,878.4c0-0.1,0-0.1,0-0.2c-0.5-8.8,0.7-17.7,1.8-23.6c1.2-6.4,2.5-10.8,2.5-10.8
			c0.2-0.7-0.1-1.4-0.7-1.7c-0.6-0.4-1.3-0.3-1.8,0.2c-2.5,2.5-4.6,5.9-6.3,10.3c-1.3,3.4-2.3,7.4-3.1,11.8
			c-1.2,7.4-1.2,13.6-1.2,13.9L844.9,878.4L844.9,878.4L844.9,878.4z"/>
		<g>
			<path class="st2" d="M825.4,878.4H818c-0.4,0-0.8-0.4-0.8-0.8s0.4-0.8,0.8-0.8h7.4c0.4,0,0.8,0.4,0.8,0.8
				S825.8,878.4,825.4,878.4z"/>
			<path class="st2" d="M815.2,878.4h-1.4c-0.4,0-0.8-0.4-0.8-0.8s0.4-0.8,0.8-0.8h1.4c0.4,0,0.8,0.4,0.8,0.8
				S815.7,878.4,815.2,878.4z"/>
		</g>
		<g>
			<path class="st3" d="M858.9,878.4h-6c-0.4,0-0.8-0.4-0.8-0.8s0.4-0.8,0.8-0.8h6c0.4,0,0.8,0.4,0.8,0.8S859.3,878.4,858.9,878.4z"
				/>
			<path class="st3" d="M864.9,878.4h-3.2c-0.4,0-0.8-0.4-0.8-0.8s0.4-0.8,0.8-0.8h3.2c0.4,0,0.8,0.4,0.8,0.8
				S865.4,878.4,864.9,878.4z"/>
		</g>
		<g>
			<path class="st4" d="M841,875.2c-0.4,0-0.8-0.4-0.8-0.8c-0.1-2.7,0.1-5.7,0.4-8.7c0-0.4,0.4-0.8,0.9-0.7c0.4,0,0.8,0.4,0.7,0.9
				c-0.3,3-0.5,5.8-0.4,8.5C841.8,874.8,841.4,875.1,841,875.2C841,875.2,841,875.2,841,875.2z"/>
			<path class="st4" d="M841.9,863c0,0-0.1,0-0.1,0c-0.4-0.1-0.7-0.5-0.7-0.9c0.4-2.4,0.7-3.9,0.8-4c0.1-0.4,0.5-0.7,1-0.6
				c0.4,0.1,0.7,0.5,0.6,1c0,0-0.4,1.5-0.7,3.9C842.6,862.7,842.3,863,841.9,863z"/>
		</g>
	</g>
	<g class="st1">
		<path class="st2" d="M895,703.2c0.3-0.6,1-1,1.6-0.8c3.5,0.7,7.1,2.4,10.9,5.1c3,2.1,6,4.9,9.1,8.2c0,0,0,0.1,0.1,0.1h-10.4
			c-1-1.1-2-2.2-2.9-3.1c-4.5-4.7-8.1-7.6-8.1-7.6C894.8,704.6,894.7,703.8,895,703.2z"/>
		<path class="st3" d="M897.4,692.1c0.4-0.5,1.1-0.7,1.8-0.5c3.2,1.4,6.5,3.8,9.6,7.3c2.5,2.7,4.9,6,7.2,9.9
			c1.5,2.5,2.8,4.9,3.7,6.9h-9.2c-2.3-5-4.8-9.4-6.9-12.6c-3.5-5.5-6.3-9.1-6.3-9.2C896.9,693.4,896.9,692.7,897.4,692.1z"/>
		<path class="st4" d="M903.1,683.7c0.5-0.5,1.3-0.5,1.8-0.1c2.9,1.9,5.7,4.9,8.2,8.9c1.9,3.1,3.7,6.8,5.3,11
			c2,5.4,3.2,10.2,3.6,12.3h-8.8c-1.4-7.8-3.9-15.1-5.9-20.1c-2.4-6.1-4.5-10.1-4.6-10.2C902.5,684.9,902.6,684.1,903.1,683.7z"/>
		<path class="st5" d="M916,715.7c0-0.1,0-0.1,0-0.2c0.5-8.8-0.6-17.7-1.6-23.6c-1.1-6.4-2.4-10.8-2.4-10.9
			c-0.2-0.7,0.1-1.4,0.6-1.7c0.6-0.4,1.3-0.3,1.8,0.2c2.4,2.5,4.5,6,6.1,10.3c1.3,3.4,2.2,7.4,2.9,11.9c1.2,7.4,1.1,13.6,1.1,13.9
			L916,715.7z"/>
		<path class="st3" d="M947.6,703.2c-0.3-0.6-1-1-1.6-0.8c-3.5,0.7-7.1,2.4-10.9,5.1c-3,2.1-6,4.9-9.1,8.2c0,0,0,0.1-0.1,0.1h10.4
			c1-1.1,2-2.2,2.9-3.1c4.5-4.7,8.1-7.6,8.1-7.6C947.7,704.6,947.9,703.8,947.6,703.2z"/>
		<path class="st4" d="M945.2,692.1c-0.4-0.5-1.1-0.7-1.8-0.5c-3.2,1.4-6.5,3.8-9.6,7.3c-2.5,2.7-4.9,6-7.2,9.9
			c-1.5,2.5-2.8,4.9-3.7,6.9h9.2c2.3-5,4.8-9.4,6.9-12.6c3.5-5.5,6.3-9.1,6.3-9.2C945.6,693.4,945.6,692.7,945.2,692.1z"/>
		<path class="st5" d="M939.4,683.7c-0.5-0.5-1.3-0.5-1.8-0.1c-2.9,1.9-5.7,4.9-8.2,8.9c-1.9,3.1-3.7,6.8-5.3,11
			c-2,5.4-3.2,10.2-3.6,12.3h8.8c1.4-7.8,3.9-15.1,5.9-20.1c2.4-6.1,4.5-10.1,4.6-10.2C940.1,684.9,939.9,684.1,939.4,683.7z"/>
		<path class="st6" d="M926.8,715.7c0-0.1,0-0.1,0-0.2c-0.5-8.8,0.7-17.7,1.8-23.6c1.2-6.4,2.5-10.8,2.5-10.8
			c0.2-0.7-0.1-1.4-0.7-1.7c-0.6-0.4-1.3-0.3-1.8,0.2c-2.5,2.5-4.6,5.9-6.3,10.3c-1.3,3.4-2.3,7.4-3.1,11.8
			c-1.2,7.4-1.2,13.6-1.2,13.9L926.8,715.7L926.8,715.7L926.8,715.7z"/>
		<g>
			<path class="st2" d="M907.2,715.7h-7.4c-0.4,0-0.8-0.4-0.8-0.8s0.4-0.8,0.8-0.8h7.4c0.4,0,0.8,0.4,0.8,0.8
				S907.7,715.7,907.2,715.7z"/>
			<path class="st2" d="M897.1,715.7h-1.4c-0.4,0-0.8-0.4-0.8-0.8s0.4-0.8,0.8-0.8h1.4c0.4,0,0.8,0.4,0.8,0.8
				S897.5,715.7,897.1,715.7z"/>
		</g>
		<g>
			<path class="st3" d="M940.8,715.7h-6c-0.4,0-0.8-0.4-0.8-0.8s0.4-0.8,0.8-0.8h6c0.4,0,0.8,0.4,0.8,0.8S941.2,715.7,940.8,715.7z"
				/>
			<path class="st3" d="M946.8,715.7h-3.2c-0.4,0-0.8-0.4-0.8-0.8s0.4-0.8,0.8-0.8h3.2c0.4,0,0.8,0.4,0.8,0.8
				S947.3,715.7,946.8,715.7z"/>
		</g>
		<g>
			<path class="st4" d="M922.9,712.5c-0.4,0-0.8-0.4-0.8-0.8c-0.1-2.7,0.1-5.7,0.4-8.7c0-0.4,0.4-0.8,0.9-0.7c0.4,0,0.8,0.4,0.7,0.9
				c-0.3,3-0.5,5.8-0.4,8.5C923.7,712.1,923.3,712.5,922.9,712.5C922.9,712.5,922.9,712.5,922.9,712.5z"/>
			<path class="st4" d="M923.7,700.3c0,0-0.1,0-0.1,0c-0.4-0.1-0.7-0.5-0.7-0.9c0.4-2.4,0.7-3.9,0.8-4c0.1-0.4,0.5-0.7,1-0.6
				c0.4,0.1,0.7,0.5,0.6,1c0,0-0.4,1.5-0.7,3.9C924.5,700,924.1,700.3,923.7,700.3z"/>
		</g>
	</g>
</g>
</svg>
