<?xml version="1.0" encoding="utf-8"?>
<!-- Generator: Adobe Illustrator 19.0.1, SVG Export Plug-In . SVG Version: 6.00 Build 0)  -->
<svg version="1.1" id="圖層_1" xmlns="http://www.w3.org/2000/svg" xmlns:xlink="http://www.w3.org/1999/xlink" x="0px" y="0px"
	 viewBox="455 -455 960 960" style="enable-background:new 455 -455 960 960;" xml:space="preserve">
<style type="text/css">
	.st0{fill:#99CC33;}
	.st1{fill:#669933;}
	.st2{fill:#7FA54E;}
	.st3{fill:#7BAF3E;}
</style>
<g id="basex2">
	<rect x="455.9" y="-455" class="st0" width="959.1" height="960"/>
</g>
<g id="green">
	<g>
		<g>
			<path class="st1" d="M732.5,284c2.1-3.3,4.3-5.8,6.4-7.7c-5.9,1.5-11.2,5.3-15.6,11.3c-4.7,6.4-6.7,13.1-6.7,13.2
				c-0.3,1-1.2,1.6-2.2,1.5s-1.8-0.9-1.8-2c-0.8-19.1,4-34.6,8.2-44.3c1.9-4.5,3.9-8.2,5.6-11c-18.6,11-27.2,47-27.3,47.4
				c-0.2,1-1.2,1.7-2.2,1.6c-1-0.1-1.8-1-1.8-2c-0.2-14.7-3-24.7-5.7-31c0.4,17.7-6.3,43.8-6.6,45.1c-0.3,1-1.2,1.6-2.2,1.5
				s-1.8-1-1.8-2c-0.6-17.8-3.2-28.7-5.3-34.7c-2.5,13.4-9.4,27.3-9.7,28c-0.4,0.8-1.2,1.2-2.1,1.1c-0.9-0.1-1.6-0.7-1.8-1.6
				c-3.1-14-1.7-39.5,6.7-53.2c-1.5,0.6-3.1,1.6-4.9,3.1c-4.8,4.2-11,13.6-13.2,34.3c-0.1,1-1,1.8-2,1.8s-1.9-0.7-2.1-1.7
				c-5.9-36.1-19.2-46.4-26.9-49.3c15.1,19.3,19.2,65,20.2,79.6c0.1,1.1-0.7,2-1.7,2.2s-2-0.5-2.3-1.5c-4.2-17.3-12-29.6-22.6-35.6
				c-3.2-1.8-6.1-2.8-8.5-3.3c13.6,12.9,17.4,25.5,18.1,34.2c0.5,6.6-0.6,11.9-1.6,15h109.5C723.3,304.5,727.7,291.5,732.5,284z"/>
		</g>
	</g>
	<g>
		<g>
			<path class="st2" d="M912.3,52.2c2.1-3.3,4.3-5.8,6.4-7.7c-5.9,1.5-11.2,5.3-15.6,11.3c-4.7,6.4-6.7,13.1-6.7,13.2
				c-0.3,1-1.2,1.6-2.2,1.5s-1.8-0.9-1.8-2c-0.8-19.1,4-34.6,8.2-44.3c1.9-4.5,3.9-8.2,5.6-11c-18.6,11-27.2,47-27.3,47.4
				c-0.2,1-1.2,1.7-2.2,1.6c-1-0.1-1.8-1-1.8-2c-0.2-14.7-3-24.7-5.7-31c0.4,17.7-6.3,43.8-6.6,45.1c-0.3,1-1.2,1.6-2.2,1.5
				s-1.8-1-1.8-2c-0.6-17.8-3.2-28.7-5.3-34.7c-2.5,13.4-9.4,27.3-9.7,28c-0.4,0.8-1.2,1.2-2.1,1.1c-0.9-0.1-1.6-0.7-1.8-1.6
				c-3.1-14-1.7-39.5,6.7-53.2c-1.5,0.6-3.1,1.6-4.9,3.1c-4.8,4.2-11,13.6-13.2,34.3c-0.1,1-1,1.8-2,1.8s-1.9-0.7-2.1-1.7
				C818.3,14.8,805,4.5,797.3,1.6c15.1,19.3,19.2,65,20.2,79.6c0.1,1.1-0.7,2-1.7,2.2s-2-0.5-2.3-1.5c-4.2-17.3-12-29.6-22.6-35.6
				c-3.2-1.8-6.1-2.8-8.5-3.3c13.6,12.9,17.4,25.5,18.1,34.2c0.5,6.6-0.6,11.9-1.6,15h109.5C903.1,72.6,907.5,59.7,912.3,52.2z"/>
		</g>
	</g>
	<g>
		<g>
			<path class="st3" d="M1348.4,172.6c2.1-3.3,4.3-5.8,6.4-7.7c-5.9,1.5-11.2,5.3-15.6,11.3c-4.7,6.4-6.7,13.1-6.7,13.2
				c-0.3,1-1.2,1.6-2.2,1.5s-1.8-0.9-1.8-2c-0.8-19.1,4-34.6,8.2-44.3c1.9-4.5,3.9-8.2,5.6-11c-18.6,11-27.2,47-27.3,47.4
				c-0.2,1-1.2,1.7-2.2,1.6c-1-0.1-1.8-1-1.8-2c-0.2-14.7-3-24.7-5.7-31c0.4,17.7-6.3,43.8-6.6,45.1c-0.3,1-1.2,1.6-2.2,1.5
				s-1.8-1-1.8-2c-0.6-17.8-3.2-28.7-5.3-34.7c-2.5,13.4-9.4,27.3-9.7,28c-0.4,0.8-1.2,1.2-2.1,1.1c-0.9-0.1-1.6-0.7-1.8-1.6
				c-3.1-14-1.7-39.5,6.7-53.2c-1.5,0.6-3.1,1.6-4.9,3.1c-4.8,4.2-11,13.6-13.2,34.3c-0.1,1-1,1.8-2,1.8s-1.9-0.7-2.1-1.7
				c-5.9-36.1-19.2-46.4-26.9-49.3c15.1,19.3,19.2,65,20.2,79.6c0.1,1.1-0.7,2-1.7,2.2s-2-0.5-2.3-1.5c-4.2-17.3-12-29.6-22.6-35.6
				c-3.2-1.8-6.1-2.8-8.5-3.3c13.6,12.9,17.4,25.5,18.1,34.2c0.5,6.6-0.6,11.9-1.6,15h109.5C1339.2,193.1,1343.6,180.1,1348.4,172.6
				z"/>
		</g>
	</g>
	<g>
		<g>
			<path class="st3" d="M732.5-318c2.1-3.3,4.3-5.8,6.4-7.7c-5.9,1.5-11.2,5.3-15.6,11.3c-4.7,6.4-6.7,13.1-6.7,13.2
				c-0.3,1-1.2,1.6-2.2,1.5c-1-0.1-1.8-0.9-1.8-2c-0.8-19.1,4-34.6,8.2-44.3c1.9-4.5,3.9-8.2,5.6-11c-18.6,11-27.2,47-27.3,47.4
				c-0.2,1-1.2,1.7-2.2,1.6c-1-0.1-1.8-1-1.8-2c-0.2-14.7-3-24.7-5.7-31c0.4,17.7-6.3,43.8-6.6,45.1c-0.3,1-1.2,1.6-2.2,1.5
				s-1.8-1-1.8-2c-0.6-17.8-3.2-28.7-5.3-34.7c-2.5,13.4-9.4,27.3-9.7,28c-0.4,0.8-1.2,1.2-2.1,1.1c-0.9-0.1-1.6-0.7-1.8-1.6
				c-3.1-14-1.7-39.5,6.7-53.2c-1.5,0.6-3.1,1.6-4.9,3.1c-4.8,4.2-11,13.6-13.2,34.3c-0.1,1-1,1.8-2,1.8s-1.9-0.7-2.1-1.7
				c-5.9-36.1-19.2-46.4-26.9-49.3c15.1,19.3,19.2,65,20.2,79.6c0.1,1.1-0.7,2-1.7,2.2c-1,0.2-2-0.5-2.3-1.5
				c-4.2-17.3-12-29.6-22.6-35.6c-3.2-1.8-6.1-2.8-8.5-3.3c13.6,12.9,17.4,25.5,18.1,34.2c0.5,6.6-0.6,11.9-1.6,15h109.5
				C723.3-297.5,727.7-310.5,732.5-318z"/>
		</g>
	</g>
	<g>
		<g>
			<path class="st3" d="M1227.6-166.6c2.1-3.3,4.3-5.8,6.4-7.7c-5.9,1.5-11.2,5.3-15.6,11.3c-4.7,6.4-6.7,13.1-6.7,13.2
				c-0.3,1-1.2,1.6-2.2,1.5s-1.8-0.9-1.8-2c-0.8-19.1,4-34.6,8.2-44.3c1.9-4.5,3.9-8.2,5.6-11c-18.6,11-27.2,47-27.3,47.4
				c-0.2,1-1.2,1.7-2.2,1.6s-1.8-1-1.8-2c-0.2-14.7-3-24.7-5.7-31c0.4,17.7-6.3,43.8-6.6,45.1c-0.3,1-1.2,1.6-2.2,1.5s-1.8-1-1.8-2
				c-0.6-17.8-3.2-28.7-5.3-34.7c-2.5,13.4-9.4,27.3-9.7,28c-0.4,0.8-1.2,1.2-2.1,1.1c-0.9-0.1-1.6-0.7-1.8-1.6
				c-3.1-14-1.7-39.5,6.7-53.2c-1.5,0.6-3.1,1.6-4.9,3.1c-4.8,4.2-11,13.6-13.2,34.3c-0.1,1-1,1.8-2,1.8s-1.9-0.7-2.1-1.7
				c-5.9-36.1-19.2-46.4-26.9-49.3c15.1,19.3,19.2,65,20.2,79.6c0.1,1.1-0.7,2-1.7,2.2s-2-0.5-2.3-1.5c-4.2-17.3-12-29.6-22.6-35.6
				c-3.2-1.8-6.1-2.8-8.5-3.3c13.6,12.9,17.4,25.5,18.1,34.2c0.5,6.6-0.6,11.9-1.6,15h109.5C1218.5-146.2,1222.9-159.1,1227.6-166.6
				z"/>
		</g>
	</g>
</g>
</svg>
