<?xml version="1.0" encoding="iso-8859-1"?>
<!-- Generator: Adobe Illustrator 18.0.0, SVG Export Plug-In . SVG Version: 6.00 Build 0)  -->
<!DOCTYPE svg PUBLIC "-//W3C//DTD SVG 1.1//EN" "http://www.w3.org/Graphics/SVG/1.1/DTD/svg11.dtd">
<svg version="1.1" id="Capa_1" xmlns="http://www.w3.org/2000/svg" xmlns:xlink="http://www.w3.org/1999/xlink" x="0px" y="0px"
	 viewBox="0 0 185.472 185.472" style="enable-background:new 0 0 185.472 185.472;" xml:space="preserve">
<g>
	<polygon style="fill:#F04923;" points="16.486,92.736 16.486,181.865 92.736,181.865 92.736,14.426 46.368,39.155 	"/>
	<polygon style="fill:#985729;" points="92.736,23.699 92.736,3.606 35.151,31.942 0,97.888 20.608,97.888 49.429,45.337 	"/>
	<rect x="73.158" y="59.763" style="fill:#985729;" width="19.578" height="27.306"/>
	<rect x="77.408" y="63.112" style="fill:#FFFFFF;" width="15.328" height="20.608"/>
	<rect x="46.368" y="112.185" style="fill:#985729;" width="46.368" height="69.681"/>
	<rect x="52.164" y="117.787" style="fill:#B56833;" width="40.572" height="58.475"/>
	<polygon style="fill:#985729;" points="92.736,149.472 92.736,144.062 52.164,114.696 48.751,120.299 	"/>
	<polygon style="fill:#985729;" points="92.736,144.062 92.736,149.472 52.164,178.838 48.751,173.236 	"/>
	<polygon style="fill:#D3401E;" points="168.985,92.736 168.985,181.865 92.736,181.865 92.736,14.426 139.104,39.155 	"/>
	<polygon style="fill:#7A441B;" points="92.736,23.699 92.736,3.606 150.32,31.942 185.472,97.888 164.863,97.888 136.043,45.337 	
		"/>
	<rect x="92.736" y="59.763" style="fill:#7A441B;" width="19.577" height="27.306"/>
	<rect x="92.736" y="63.112" style="fill:#D1EEFC;" width="15.327" height="20.608"/>
	<rect x="92.736" y="112.185" style="fill:#7A441B;" width="46.367" height="69.681"/>
	<rect x="92.736" y="117.787" style="fill:#985729;" width="40.571" height="58.475"/>
	<polygon style="fill:#7A441B;" points="92.736,149.472 92.736,144.062 133.308,114.696 136.721,120.299 	"/>
	<polygon style="fill:#7A441B;" points="92.736,144.062 92.736,149.472 133.308,178.838 136.721,173.236 	"/>
</g>
<g>
</g>
<g>
</g>
<g>
</g>
<g>
</g>
<g>
</g>
<g>
</g>
<g>
</g>
<g>
</g>
<g>
</g>
<g>
</g>
<g>
</g>
<g>
</g>
<g>
</g>
<g>
</g>
<g>
</g>
</svg>
