<?xml version="1.0" encoding="utf-8"?>
<!-- Generator: Adobe Illustrator 19.0.1, SVG Export Plug-In . SVG Version: 6.00 Build 0)  -->
<svg version="1.1" id="Layer_1" xmlns="http://www.w3.org/2000/svg" xmlns:xlink="http://www.w3.org/1999/xlink" x="0px" y="0px"
	 viewBox="-223 225 512 512" style="enable-background:new -223 225 512 512;" xml:space="preserve">
<style type="text/css">
	.st0{fill:#88C057;}
	.st1{fill:#A4E869;}
	.st2{fill:#659C35;}
	.st3{fill:#F2681C;}
	.st4{fill:#ED8F20;}
	.st5{fill:#DD7017;}
</style>
<g>
	<g>
		<path class="st0" d="M-71.4,386c0,0,16.2-55,67.3-46.1c0,0,12.4,1.3,13.9,12.2c1.5,10.7-9.8,18.6-21.2,16.4
			C-21.7,366.5-39.9,368.8-71.4,386z"/>
		<path class="st0" d="M-71.4,386c0,0-11.1-56-58.9-50.7c0,0-17.1,0.3-22.8,11.1c-5.3,10.1,4.7,21.2,15.8,18.6
			C-125.2,362.3-103.9,363.5-71.4,386z"/>
		<path class="st0" d="M-3.1,342.5c0,0,0.4,0.1,1,0.2c0.1-1.4,0.2-2.8,0.1-4.2c-1.2-13.5-11.7-15-11.7-15
			c-43.5-10.4-58.1,58.4-58.1,58.4c2.2-1.7,4.2-3.3,6.2-4.8C-57.6,361.4-39,336.2-3.1,342.5z"/>
		<path class="st1" d="M-130.3,335.3c36.8-4.1,51.9,28.3,56.8,43.3c0.2,0.2,0.4,0.4,0.7,0.7c0,0-8.7-69.7-49.5-62.3
			c0,0-14.6,0.6-19.6,14.2c-0.9,2.3-1.3,4.7-1.3,7C-136.9,335.5-130.3,335.3-130.3,335.3z"/>
		<path class="st2" d="M-70.7,294.2c-17.1,3-21,26.1-21,26.1c0.3,4.8,0.9,9.6,1.8,14.3c10.8,15.4,15.6,38.3,17.4,49
			c0.6,1.2,1.1,2.2,1.5,2.9c1.9-8.2,8.2-31.3,20.6-47.3c1.4-5.8,2.4-11.6,2.7-17.3C-45.8,291.5-70.7,294.2-70.7,294.2z"/>
		<path class="st1" d="M-71.4,386c0,0,16.2-55,67.3-46.1c0,0,12.4,1.3,13.9,12.2c1.5,10.7-9.8,18.6-21.2,16.4
			C-21.7,366.5-39.9,368.8-71.4,386z"/>
		<g>
			<path class="st3" d="M-72.4,380.9c0.7,2.4,1,3.8,1,3.8s0.6-2.1,2-5.3C-70.5,379.9-71.4,380.4-72.4,380.9z"/>
			<path class="st4" d="M-76,447.1c11.5-0.7,23-1.3,34.5-1c5.9-30.8,8.9-56.5,5.9-63.5c-2-4.6-5.2-7.9-9-10.4
				c-7.7,2.8-16.5,6.8-26.8,12.5c-10.7-7.4-20.1-12.5-28.5-15.9c-5.1,2.2-9.7,5.6-12.5,11.1c-3.7,7.1-2.4,34.8,1.4,67.8
				C-99.4,446.9-87.7,446.9-76,447.1z"/>
		</g>
		<g>
			<path class="st5" d="M-44.7,388.5c-8.1,3.3-17.5,4.4-27.9,3.2c-2.2-0.3-4.2,1.3-4.4,3.5c-0.3,2.2,1.3,4.2,3.5,4.4
				c11.7,1.3,22.4,0.1,31.8-3.7c0.5-0.2,0.9-0.5,1.2-0.8c1.2-1.1,1.6-2.9,1-4.4C-40.3,388.7-42.6,387.7-44.7,388.5z"/>
			<g>
				<path class="st5" d="M-114.3,410.2c1.4-0.8,3.2-0.7,4.5,0.5c5,4.3,13.2,8.2,20.4,7.2c2.2-0.3,4.2,1.2,4.5,3.4
					c0.2,1.3-0.3,2.6-1.2,3.5c-0.6,0.5-1.3,0.9-2.2,1c-9.7,1.3-19.5-3.4-25.5-8.2"/>
				<path class="st5" d="M-88.3,425.9c0.9-0.1,1.6-0.5,2.2-1c0.9-0.9,1.4-2.1,1.2-3.5c-0.3-2.2-2.3-3.7-4.5-3.4
					c-7.2,1-15.4-2.9-20.4-7.2c-1.3-1.1-3.1-1.2-4.5-0.5c0.1,2.4,0.3,4.8,0.4,7.4C-107.8,422.5-98,427.2-88.3,425.9z"/>
			</g>
			<g>
				<path class="st5" d="M-44.6,446.1c1.2-0.6,2.4-1.3,3.4-2l1.4-7.5c-1.4-0.9-3.2-1-4.6,0c-5.3,3.9-13.8,7.2-20.9,5.7
					c-2.2-0.5-4.3,0.9-4.7,3.1c-0.1,0.4-0.1,0.9,0,1.3C-61.6,446.3-53.1,445.9-44.6,446.1z"/>
				<path class="st5" d="M-44.6,446.1c1.2-0.6,2.4-1.3,3.4-2c0.5-2.5,0.9-5,1.4-7.5c-1.4-0.9-3.2-1-4.6,0
					c-5.3,3.9-13.8,7.2-20.9,5.7c-2.2-0.5-4.3,0.9-4.7,3.1c-0.1,0.4-0.1,0.9,0,1.3C-61.6,446.3-53.1,445.9-44.6,446.1z"/>
			</g>
		</g>
	</g>
	<g>
		<path class="st0" d="M140.1,386c0,0,16.2-55,67.3-46.1c0,0,12.4,1.3,13.9,12.2c1.5,10.7-9.8,18.6-21.2,16.4
			C189.9,366.5,171.7,368.8,140.1,386z"/>
		<path class="st0" d="M140.1,386c0,0-11.1-56-58.9-50.7c0,0-17.1,0.3-22.8,11.1c-5.3,10.1,4.7,21.2,15.8,18.6
			C86.4,362.3,107.7,363.5,140.1,386z"/>
		<path class="st0" d="M208.4,342.5c0,0,0.4,0.1,1,0.2c0.1-1.4,0.2-2.8,0.1-4.2c-1.2-13.5-11.7-15-11.7-15
			c-43.5-10.4-58.1,58.4-58.1,58.4c2.2-1.7,4.2-3.3,6.2-4.8C153.9,361.4,172.6,336.2,208.4,342.5z"/>
		<path class="st1" d="M81.3,335.3c36.8-4.1,51.9,28.3,56.8,43.3c0.2,0.2,0.4,0.4,0.7,0.7c0,0-8.7-69.7-49.5-62.3
			c0,0-14.6,0.6-19.6,14.2c-0.9,2.3-1.3,4.7-1.3,7C74.7,335.5,81.3,335.3,81.3,335.3z"/>
		<path class="st2" d="M140.9,294.2c-17.1,3-21,26.1-21,26.1c0.3,4.8,0.9,9.6,1.8,14.3c10.8,15.4,15.6,38.3,17.4,49
			c0.6,1.2,1.1,2.2,1.5,2.9c1.9-8.2,8.2-31.3,20.6-47.3c1.4-5.8,2.4-11.6,2.7-17.3C165.8,291.5,140.9,294.2,140.9,294.2z"/>
		<path class="st1" d="M140.1,386c0,0,16.2-55,67.3-46.1c0,0,12.4,1.3,13.9,12.2c1.5,10.7-9.8,18.6-21.2,16.4
			C189.9,366.5,171.7,368.8,140.1,386z"/>
		<g>
			<path class="st3" d="M139.2,380.9c0.7,2.4,1,3.8,1,3.8s0.6-2.1,2-5.3C141.1,379.9,140.2,380.4,139.2,380.9z"/>
			<path class="st4" d="M135.5,447.1c11.5-0.7,23-1.3,34.5-1c5.9-30.8,8.9-56.5,5.9-63.5c-2-4.6-5.2-7.9-9-10.4
				c-7.7,2.8-16.5,6.8-26.8,12.5c-10.7-7.4-20.1-12.5-28.5-15.9c-5.1,2.2-9.7,5.6-12.5,11.1c-3.7,7.1-2.4,34.8,1.4,67.8
				C112.2,446.9,123.9,446.9,135.5,447.1z"/>
		</g>
		<g>
			<path class="st5" d="M166.9,388.5c-8.1,3.3-17.5,4.4-27.9,3.2c-2.2-0.3-4.2,1.3-4.4,3.5c-0.3,2.2,1.3,4.2,3.5,4.4
				c11.7,1.3,22.4,0.1,31.8-3.7c0.5-0.2,0.9-0.5,1.2-0.8c1.2-1.1,1.6-2.9,1-4.4C171.3,388.7,169,387.7,166.9,388.5z"/>
			<g>
				<path class="st5" d="M97.3,410.2c1.4-0.8,3.2-0.7,4.5,0.5c5,4.3,13.2,8.2,20.4,7.2c2.2-0.3,4.2,1.2,4.5,3.4
					c0.2,1.3-0.3,2.6-1.2,3.5c-0.6,0.5-1.3,0.9-2.2,1c-9.7,1.3-19.5-3.4-25.5-8.2"/>
				<path class="st5" d="M123.3,425.9c0.9-0.1,1.6-0.5,2.2-1c0.9-0.9,1.4-2.1,1.2-3.5c-0.3-2.2-2.3-3.7-4.5-3.4
					c-7.2,1-15.4-2.9-20.4-7.2c-1.3-1.1-3.1-1.2-4.5-0.5c0.1,2.4,0.3,4.8,0.4,7.4C103.8,422.5,113.6,427.2,123.3,425.9z"/>
			</g>
			<g>
				<path class="st5" d="M167,446.1c1.2-0.6,2.4-1.3,3.4-2l1.4-7.5c-1.4-0.9-3.2-1-4.6,0c-5.3,3.9-13.8,7.2-20.9,5.7
					c-2.2-0.5-4.3,0.9-4.7,3.1c-0.1,0.4-0.1,0.9,0,1.3C150,446.3,158.5,445.9,167,446.1z"/>
				<path class="st5" d="M167,446.1c1.2-0.6,2.4-1.3,3.4-2c0.5-2.5,0.9-5,1.4-7.5c-1.4-0.9-3.2-1-4.6,0c-5.3,3.9-13.8,7.2-20.9,5.7
					c-2.2-0.5-4.3,0.9-4.7,3.1c-0.1,0.4-0.1,0.9,0,1.3C150,446.3,158.5,445.9,167,446.1z"/>
			</g>
		</g>
	</g>
	<g>
		<path class="st0" d="M-71.4,599.9c0,0,16.2-55,67.3-46.1c0,0,12.4,1.3,13.9,12.2c1.5,10.7-9.8,18.6-21.2,16.4
			C-21.7,580.4-39.9,582.7-71.4,599.9z"/>
		<path class="st0" d="M-71.4,599.9c0,0-11.1-56-58.9-50.7c0,0-17.1,0.3-22.8,11.1c-5.3,10.1,4.7,21.2,15.8,18.6
			C-125.2,576.2-103.9,577.4-71.4,599.9z"/>
		<path class="st0" d="M-3.1,556.4c0,0,0.4,0.1,1,0.2c0.1-1.4,0.2-2.8,0.1-4.2c-1.2-13.5-11.7-15-11.7-15
			c-43.5-10.4-58.1,58.4-58.1,58.4c2.2-1.7,4.2-3.3,6.2-4.8C-57.6,575.3-39,550.1-3.1,556.4z"/>
		<path class="st1" d="M-130.3,549.2c36.8-4.1,51.9,28.3,56.8,43.3c0.2,0.2,0.4,0.4,0.7,0.7c0,0-8.7-69.7-49.5-62.3
			c0,0-14.6,0.6-19.6,14.2c-0.9,2.3-1.3,4.7-1.3,7C-136.9,549.4-130.3,549.2-130.3,549.2z"/>
		<path class="st2" d="M-70.7,508.1c-17.1,3-21,26.1-21,26.1c0.3,4.8,0.9,9.6,1.8,14.3c10.8,15.4,15.6,38.3,17.4,49
			c0.6,1.2,1.1,2.2,1.5,2.9c1.9-8.2,8.2-31.3,20.6-47.3c1.4-5.8,2.4-11.6,2.7-17.3C-45.8,505.4-70.7,508.1-70.7,508.1z"/>
		<path class="st1" d="M-71.4,599.9c0,0,16.2-55,67.3-46.1c0,0,12.4,1.3,13.9,12.2c1.5,10.7-9.8,18.6-21.2,16.4
			C-21.7,580.4-39.9,582.7-71.4,599.9z"/>
		<g>
			<path class="st3" d="M-72.4,594.8c0.7,2.4,1,3.8,1,3.8s0.6-2.1,2-5.3C-70.5,593.8-71.4,594.3-72.4,594.8z"/>
			<path class="st4" d="M-76,661c11.5-0.7,23-1.3,34.5-1c5.9-30.8,8.9-56.5,5.9-63.5c-2-4.6-5.2-7.9-9-10.4
				c-7.7,2.8-16.5,6.8-26.8,12.5c-10.7-7.4-20.1-12.5-28.5-15.9c-5.1,2.2-9.7,5.6-12.5,11.1c-3.7,7.1-2.4,34.8,1.4,67.8
				C-99.4,660.8-87.7,660.8-76,661z"/>
		</g>
		<g>
			<path class="st5" d="M-44.7,602.4c-8.1,3.3-17.5,4.4-27.9,3.2c-2.2-0.3-4.2,1.3-4.4,3.5c-0.3,2.2,1.3,4.2,3.5,4.4
				c11.7,1.3,22.4,0.1,31.8-3.7c0.5-0.2,0.9-0.5,1.2-0.8c1.2-1.1,1.6-2.9,1-4.4C-40.3,602.6-42.6,601.6-44.7,602.4z"/>
			<g>
				<path class="st5" d="M-114.3,624.1c1.4-0.8,3.2-0.7,4.5,0.5c5,4.3,13.2,8.2,20.4,7.2c2.2-0.3,4.2,1.2,4.5,3.4
					c0.2,1.3-0.3,2.6-1.2,3.5c-0.6,0.5-1.3,0.9-2.2,1c-9.7,1.3-19.5-3.4-25.5-8.2"/>
				<path class="st5" d="M-88.3,639.8c0.9-0.1,1.6-0.5,2.2-1c0.9-0.9,1.4-2.1,1.2-3.5c-0.3-2.2-2.3-3.7-4.5-3.4
					c-7.2,1-15.4-2.9-20.4-7.2c-1.3-1.1-3.1-1.2-4.5-0.5c0.1,2.4,0.3,4.8,0.4,7.4C-107.8,636.4-98,641.1-88.3,639.8z"/>
			</g>
			<g>
				<path class="st5" d="M-44.6,660c1.2-0.6,2.4-1.3,3.4-2l1.4-7.5c-1.4-0.9-3.2-1-4.6,0c-5.3,3.9-13.8,7.2-20.9,5.7
					c-2.2-0.5-4.3,0.9-4.7,3.1c-0.1,0.4-0.1,0.9,0,1.3C-61.6,660.1-53.1,659.8-44.6,660z"/>
				<path class="st5" d="M-44.6,660c1.2-0.6,2.4-1.3,3.4-2c0.5-2.5,0.9-5,1.4-7.5c-1.4-0.9-3.2-1-4.6,0c-5.3,3.9-13.8,7.2-20.9,5.7
					c-2.2-0.5-4.3,0.9-4.7,3.1c-0.1,0.4-0.1,0.9,0,1.3C-61.6,660.1-53.1,659.8-44.6,660z"/>
			</g>
		</g>
	</g>
	<g>
		<path class="st0" d="M140.1,599.9c0,0,16.2-55,67.3-46.1c0,0,12.4,1.3,13.9,12.2c1.5,10.7-9.8,18.6-21.2,16.4
			C189.9,580.4,171.7,582.7,140.1,599.9z"/>
		<path class="st0" d="M140.1,599.9c0,0-11.1-56-58.9-50.7c0,0-17.1,0.3-22.8,11.1c-5.3,10.1,4.7,21.2,15.8,18.6
			C86.4,576.2,107.7,577.4,140.1,599.9z"/>
		<path class="st0" d="M208.4,556.4c0,0,0.4,0.1,1,0.2c0.1-1.4,0.2-2.8,0.1-4.2c-1.2-13.5-11.7-15-11.7-15
			c-43.5-10.4-58.1,58.4-58.1,58.4c2.2-1.7,4.2-3.3,6.2-4.8C153.9,575.3,172.6,550.1,208.4,556.4z"/>
		<path class="st1" d="M81.3,549.2c36.8-4.1,51.9,28.3,56.8,43.3c0.2,0.2,0.4,0.4,0.7,0.7c0,0-8.7-69.7-49.5-62.3
			c0,0-14.6,0.6-19.6,14.2c-0.9,2.3-1.3,4.7-1.3,7C74.7,549.4,81.3,549.2,81.3,549.2z"/>
		<path class="st2" d="M140.9,508.1c-17.1,3-21,26.1-21,26.1c0.3,4.8,0.9,9.6,1.8,14.3c10.8,15.4,15.6,38.3,17.4,49
			c0.6,1.2,1.1,2.2,1.5,2.9c1.9-8.2,8.2-31.3,20.6-47.3c1.4-5.8,2.4-11.6,2.7-17.3C165.8,505.4,140.9,508.1,140.9,508.1z"/>
		<path class="st1" d="M140.1,599.9c0,0,16.2-55,67.3-46.1c0,0,12.4,1.3,13.9,12.2c1.5,10.7-9.8,18.6-21.2,16.4
			C189.9,580.4,171.7,582.7,140.1,599.9z"/>
		<g>
			<path class="st3" d="M139.2,594.8c0.7,2.4,1,3.8,1,3.8s0.6-2.1,2-5.3C141.1,593.8,140.2,594.3,139.2,594.8z"/>
			<path class="st4" d="M135.5,661c11.5-0.7,23-1.3,34.5-1c5.9-30.8,8.9-56.5,5.9-63.5c-2-4.6-5.2-7.9-9-10.4
				c-7.7,2.8-16.5,6.8-26.8,12.5c-10.7-7.4-20.1-12.5-28.5-15.9c-5.1,2.2-9.7,5.6-12.5,11.1c-3.7,7.1-2.4,34.8,1.4,67.8
				C112.2,660.8,123.9,660.8,135.5,661z"/>
		</g>
		<g>
			<path class="st5" d="M166.9,602.4c-8.1,3.3-17.5,4.4-27.9,3.2c-2.2-0.3-4.2,1.3-4.4,3.5c-0.3,2.2,1.3,4.2,3.5,4.4
				c11.7,1.3,22.4,0.1,31.8-3.7c0.5-0.2,0.9-0.5,1.2-0.8c1.2-1.1,1.6-2.9,1-4.4C171.3,602.6,169,601.6,166.9,602.4z"/>
			<g>
				<path class="st5" d="M97.3,624.1c1.4-0.8,3.2-0.7,4.5,0.5c5,4.3,13.2,8.2,20.4,7.2c2.2-0.3,4.2,1.2,4.5,3.4
					c0.2,1.3-0.3,2.6-1.2,3.5c-0.6,0.5-1.3,0.9-2.2,1c-9.7,1.3-19.5-3.4-25.5-8.2"/>
				<path class="st5" d="M123.3,639.8c0.9-0.1,1.6-0.5,2.2-1c0.9-0.9,1.4-2.1,1.2-3.5c-0.3-2.2-2.3-3.7-4.5-3.4
					c-7.2,1-15.4-2.9-20.4-7.2c-1.3-1.1-3.1-1.2-4.5-0.5c0.1,2.4,0.3,4.8,0.4,7.4C103.8,636.4,113.6,641.1,123.3,639.8z"/>
			</g>
			<g>
				<path class="st5" d="M167,660c1.2-0.6,2.4-1.3,3.4-2l1.4-7.5c-1.4-0.9-3.2-1-4.6,0c-5.3,3.9-13.8,7.2-20.9,5.7
					c-2.2-0.5-4.3,0.9-4.7,3.1c-0.1,0.4-0.1,0.9,0,1.3C150,660.1,158.5,659.8,167,660z"/>
				<path class="st5" d="M167,660c1.2-0.6,2.4-1.3,3.4-2c0.5-2.5,0.9-5,1.4-7.5c-1.4-0.9-3.2-1-4.6,0c-5.3,3.9-13.8,7.2-20.9,5.7
					c-2.2-0.5-4.3,0.9-4.7,3.1c-0.1,0.5-0.1,0.9,0,1.3C150,660.1,158.5,659.8,167,660z"/>
			</g>
		</g>
	</g>
</g>
</svg>
