<?xml version="1.0" encoding="utf-8"?>
<!-- Generator: Adobe Illustrator 19.0.1, SVG Export Plug-In . SVG Version: 6.00 Build 0)  -->
<svg version="1.1" id="圖層_1" xmlns="http://www.w3.org/2000/svg" xmlns:xlink="http://www.w3.org/1999/xlink" x="0px" y="0px"
	 viewBox="0 0 50 50" style="enable-background:new 0 0 50 50;" xml:space="preserve">
<style type="text/css">
	.st0{fill:#88C057;}
	.st1{fill:#A4E869;}
	.st2{fill:#659C35;}
	.st3{fill:#F2681C;}
	.st4{fill:#ED8F20;}
	.st5{fill:#DD7017;}
</style>
<g>
	<path class="st0" d="M30.7,19.9c0,0,10.9-6.5,17.8,2.7c0,0,1.8,2.1,0.4,4.1c-1.4,2-4.4,1.5-5.9-0.5C41.7,24.3,38.4,21.9,30.7,19.9z
		"/>
	<path class="st0" d="M30.7,19.9c0,0,6.6-10.7-1.9-17c0,0-2.8-2.5-5.4-1.6c-2.4,0.8-2.4,4.1-0.3,5.4C25.6,8,28.8,11.4,30.7,19.9z"/>
	<path class="st0" d="M48.3,23.2c0,0,0.1,0.1,0.1,0.2c0.2-0.2,0.4-0.4,0.6-0.7c1.8-2.4,0.4-4.2,0.4-4.2c-5.5-8.2-18.2,0.7-18.2,0.7
		c0.6,0,1.2,0.1,1.7,0.2C36.6,18,43.4,16.8,48.3,23.2z"/>
	<path class="st1" d="M28.8,2.9c6.6,4.9,4.1,12.3,2.7,15.5c0,0.1,0,0.1,0,0.2c0,0,9.1-12.6,1.4-17.5c0,0-2.5-2.1-5.3-0.7
		c-0.5,0.2-0.9,0.6-1.3,0.9C27.7,2,28.8,2.9,28.8,2.9z"/>
	<path class="st2" d="M44.6,5.2c-3.2-2.1-7.3,1.1-7.3,1.1C36.6,7.1,36,8,35.5,8.9c-0.6,4.1-3.2,8.5-4.6,10.5
		c-0.1,0.3-0.1,0.5-0.2,0.7c1.5-1,6-3.8,10.4-4.6c1.1-0.7,2.1-1.5,3-2.4C49.1,8.5,44.6,5.2,44.6,5.2z"/>
	<path class="st1" d="M30.7,19.9c0,0,10.9-6.5,17.8,2.7c0,0,1.8,2.1,0.4,4.1c-1.4,2-4.4,1.5-5.9-0.5C41.7,24.3,38.4,21.9,30.7,19.9z
		"/>
	<g>
		<path class="st3" d="M31.3,19c-0.2,0.5-0.4,0.8-0.4,0.8s0.4-0.2,1.1-0.6C31.8,19.1,31.6,19,31.3,19z"/>
		<path class="st4" d="M37,24.8c0.4-1,0.3-2.1,0.1-3c-1.7-0.7-3.7-1.4-6.2-2c-0.6-2.8-1.4-5-2.2-6.8c-1.2-0.4-2.4-0.5-3.7-0.1
			C21,14.2,3.4,39.5,0.1,48.3c-0.3,0.8,0.3,1.5,1.2,1.2C10.1,46.2,35.6,28.8,37,24.8z"/>
	</g>
	<g>
		<path class="st5" d="M7.3,41.1c-0.6-0.3-1.2-0.6-1.7-1c-0.4-0.3-0.9-0.2-1.2,0.2c-0.3,0.4-0.2,0.9,0.2,1.2c0.6,0.5,1.3,0.9,2,1.2
			c0.1,0.1,0.3,0.1,0.4,0.1c0.3,0,0.6-0.2,0.8-0.5C8,41.9,7.8,41.4,7.3,41.1z"/>
		<path class="st5" d="M34.7,24.4c-1.8-0.7-3.5-1.9-5-3.7c-0.3-0.4-0.9-0.4-1.2-0.1c-0.4,0.3-0.4,0.9-0.1,1.2c1.7,2,3.6,3.4,5.7,4.2
			c0.1,0,0.2,0.1,0.3,0.1c0.4,0,0.7-0.2,0.8-0.6C35.3,25.1,35.1,24.5,34.7,24.4z"/>
		<g>
			<path class="st5" d="M20.1,17.4c0.3,0.1,0.6,0.4,0.7,0.8c0.2,1.4,0.9,3.3,2.2,4.2c0.4,0.3,0.5,0.8,0.2,1.2
				C23,23.9,22.8,24,22.5,24c-0.2,0-0.4-0.1-0.5-0.2c-1.8-1.2-2.6-3.5-2.9-5.2"/>
			<path class="st5" d="M22,23.8c0.2,0.1,0.3,0.2,0.5,0.2c0.3,0,0.6-0.1,0.7-0.4c0.3-0.4,0.2-0.9-0.2-1.2c-1.3-0.9-2.1-2.8-2.2-4.2
				c0-0.4-0.3-0.7-0.7-0.8c-0.3,0.4-0.7,0.8-1,1.3C19.3,20.4,20.2,22.6,22,23.8z"/>
		</g>
		<g>
			<path class="st5" d="M26.9,33.8c-1.7-0.3-3.9-1.1-5.1-2.9c-0.3-0.4-0.2-0.9,0.2-1.2c0.4-0.3,0.9-0.2,1.2,0.2
				c0.9,1.3,2.8,2.1,4.2,2.2c0.4,0,0.7,0.3,0.8,0.7"/>
			<path class="st5" d="M27.5,32.2c-1.4-0.2-3.3-0.9-4.2-2.2c-0.3-0.4-0.8-0.5-1.2-0.2c-0.4,0.3-0.5,0.8-0.2,1.2
				c1.2,1.7,3.4,2.6,5.1,2.9c0.5-0.3,0.9-0.7,1.3-1C28.1,32.5,27.8,32.2,27.5,32.2z"/>
		</g>
		<g>
			<path class="st5" d="M13.1,26.6c0.4,0.1,0.6,0.4,0.7,0.8c0.1,0.9,0.6,2.1,1.4,2.6c0.4,0.3,0.5,0.8,0.2,1.2
				c-0.2,0.2-0.4,0.4-0.7,0.4c-0.2,0-0.4-0.1-0.5-0.2c-1.2-0.8-1.8-2.3-2-3.4"/>
			<path class="st5" d="M14.1,31.5c0.2,0.1,0.3,0.2,0.5,0.2c0.3,0,0.6-0.1,0.7-0.4c0.3-0.4,0.2-0.9-0.2-1.2
				c-0.8-0.6-1.3-1.7-1.4-2.6c0-0.4-0.3-0.7-0.7-0.8c-0.3,0.5-0.7,0.9-1,1.4C12.3,29.2,13,30.7,14.1,31.5z"/>
		</g>
		<g>
			<path class="st5" d="M16,41.3c-1.2-0.2-2.9-0.8-3.8-2.1c-0.3-0.4-0.2-0.9,0.2-1.2c0.4-0.3,1-0.2,1.2,0.2c0.6,0.8,1.7,1.3,2.6,1.4
				c0.5,0.1,0.8,0.5,0.8,1c0,0,0,0.1,0,0.1"/>
			<path class="st5" d="M16.3,39.6c-0.9-0.1-2.1-0.6-2.6-1.4c-0.3-0.4-0.8-0.5-1.2-0.2c-0.4,0.3-0.5,0.8-0.2,1.2
				c0.9,1.3,2.6,1.9,3.8,2.1c0.4-0.2,0.7-0.5,1.1-0.7c0,0,0,0,0-0.1C17.1,40.1,16.8,39.6,16.3,39.6z"/>
		</g>
	</g>
</g>
</svg>
