<?xml version="1.0" encoding="utf-8"?>
<!-- Generator: Adobe Illustrator 19.0.1, SVG Export Plug-In . SVG Version: 6.00 Build 0)  -->
<svg version="1.1" id="Layer_1" xmlns="http://www.w3.org/2000/svg" xmlns:xlink="http://www.w3.org/1999/xlink" x="0px" y="0px"
	 viewBox="-223 225 512 512" style="enable-background:new -223 225 512 512;" xml:space="preserve">
<style type="text/css">
	.st0{fill:#88C057;}
	.st1{fill:#A4E869;}
	.st2{fill:#659C35;}
	.st3{fill:#F2681C;}
	.st4{fill:#ED8F20;}
	.st5{fill:#DD7017;}
</style>
<g>
	<path class="st0" d="M34.9,550.3c0,0,49.9-169.5,207.3-142c0,0,38,4.2,42.8,37.5c4.7,32.8-30.2,57.4-65.3,50.6
		C188.1,490.3,132.1,497.2,34.9,550.3z"/>
	<path class="st0" d="M34.9,550.3c0,0-34.2-172.6-181.3-156.1c0,0-52.7,0.9-70.1,34.2c-16.2,31,14.5,65.2,48.5,57.3
		C-130.7,477.1-65,480.9,34.9,550.3z"/>
	<path class="st0" d="M245.2,416.2c0,0,1.3,0.2,3.1,0.5c0.4-4.2,0.6-8.6,0.2-13.1c-3.6-41.6-36-46.2-36-46.2
		c-133.9-32-178.9,180-178.9,180c6.7-5.4,13-10.3,19.2-14.9C77.4,474.4,134.8,396.9,245.2,416.2z"/>
	<path class="st1" d="M-146.4,394.2c113.4-12.7,159.7,87,174.9,133.3c0.7,0.7,1.4,1.3,2.1,2c0,0-26.7-214.6-152.4-192
		c0,0-45,1.9-60.3,43.6c-2.6,7.2-3.9,14.5-4,21.5C-166.6,394.6-146.4,394.2-146.4,394.2z"/>
	<path class="st2" d="M37.2,267.6c-52.7,9.3-64.5,80.3-64.5,80.3c0.8,14.7,2.8,29.5,5.5,44.1c33.2,47.3,48.1,118,53.5,151
		c1.8,3.6,3.5,6.7,4.7,8.9c5.9-25.2,25.2-96.5,63.3-145.8c4.3-17.8,7.4-35.9,8.4-53.3C113.8,259.1,37.2,267.6,37.2,267.6z"/>
	<path class="st1" d="M34.9,550.3c0,0,49.9-169.5,207.3-142c0,0,38,4.2,42.8,37.5c4.7,32.8-30.2,57.4-65.3,50.6
		C188.1,490.3,132.1,497.2,34.9,550.3z"/>
	<g>
		<path class="st3" d="M31.8,534.5c2.1,7.3,2.9,11.7,2.9,11.7s1.9-6.4,6.1-16.5C37.9,531.3,34.9,532.8,31.8,534.5z"/>
		<path class="st4" d="M20.7,738.3c35.4-2.2,70.8-3.9,106.1-2.9c18.2-94.8,27.4-173.9,18.2-195.5c-6-14.1-16-24.4-27.6-32
			c-23.6,8.6-50.9,21-82.7,38.4c-32.9-22.9-62-38.5-87.7-49c-15.6,6.8-29.8,17.3-38.4,34.1c-11.2,21.8-7.4,107.3,4.4,208.7
			C-51.1,737.7-15.2,737.7,20.7,738.3z"/>
	</g>
	<g>
		<path class="st5" d="M117.3,558c-25,10.1-53.9,13.4-85.8,9.7c-6.8-0.8-12.9,4.1-13.6,10.8c-0.8,6.8,4.1,12.9,10.8,13.6
			c36.1,4.1,69,0.3,97.9-11.4c1.4-0.6,2.7-1.4,3.8-2.4c3.6-3.4,5-8.8,3-13.7C130.8,558.5,123.6,555.4,117.3,558z"/>
		<g>
			<path class="st5" d="M-97,624.9c4.4-2.4,9.9-2,13.9,1.4c15.3,13.2,40.7,25.2,62.8,22.2c6.7-0.9,12.9,3.8,13.9,10.6
				c0.6,4.1-1,8-3.8,10.7c-1.8,1.7-4.1,2.8-6.7,3.2c-29.9,4.1-60.1-10.5-78.7-25.2"/>
			<path class="st5" d="M-17,672.9c2.6-0.3,4.9-1.5,6.7-3.2c2.8-2.6,4.4-6.6,3.8-10.7c-0.9-6.7-7.1-11.5-13.9-10.6
				c-22.1,3-47.5-9-62.8-22.2c-4-3.4-9.6-3.8-13.9-1.4c0.4,7.4,0.8,14.9,1.3,22.9C-77.2,662.4-46.9,677-17,672.9z"/>
		</g>
		<g>
			<path class="st5" d="M117.6,735.1c3.7-2,7.2-4.1,10.4-6.2l4.2-23c-4.2-2.9-9.9-3.1-14.3,0.1c-16.2,12.1-42.4,22.2-64.2,17.6
				c-6.7-1.4-13.2,2.9-14.6,9.5c-0.3,1.4-0.3,2.7-0.1,4.1C65.2,735.7,91.4,734.7,117.6,735.1z"/>
			<path class="st5" d="M117.6,735.1c3.7-2,7.2-4.1,10.4-6.2c1.5-7.8,2.9-15.5,4.2-23c-4.2-2.9-9.9-3.1-14.3,0.1
				c-16.2,12.1-42.4,22.2-64.2,17.6c-6.7-1.4-13.2,2.9-14.6,9.5c-0.3,1.4-0.3,2.8-0.1,4.1C65.2,735.7,91.4,734.7,117.6,735.1z"/>
		</g>
	</g>
</g>
</svg>
