<?xml version="1.0" encoding="iso-8859-1"?>
<!-- Generator: Adobe Illustrator 18.0.0, SVG Export Plug-In . SVG Version: 6.00 Build 0)  -->
<!DOCTYPE svg PUBLIC "-//W3C//DTD SVG 1.1//EN" "http://www.w3.org/Graphics/SVG/1.1/DTD/svg11.dtd">
<svg version="1.1" id="Capa_1" xmlns="http://www.w3.org/2000/svg" xmlns:xlink="http://www.w3.org/1999/xlink" x="0px" y="0px"
	 viewBox="0 0 58 58" style="enable-background:new 0 0 58 58;" xml:space="preserve">
<g>
	<g>
		<path style="fill:#C64645;" d="M39.741,9l-8.88-8.267c-1.049-0.976-2.674-0.976-3.723,0L18.259,9H39.741z"/>
	</g>
	<polygon style="fill:#F2ECBF;" points="52,9 6,9 6,30.571 21,42 37,42 52,30.571 	"/>
	<path style="fill:#BAB395;" d="M32,18h-6c-0.553,0-1-0.447-1-1s0.447-1,1-1h6c0.553,0,1,0.447,1,1S32.553,18,32,18z"/>
	<path style="fill:#BAB395;" d="M41,34h-6c-0.553,0-1-0.447-1-1s0.447-1,1-1h6c0.553,0,1,0.447,1,1S41.553,34,41,34z"/>
	<path style="fill:#BAB395;" d="M22,26h-5c-0.553,0-1-0.447-1-1s0.447-1,1-1h5c0.553,0,1,0.447,1,1S22.553,26,22,26z"/>
	<path style="fill:#BAB395;" d="M37,26h-7c-0.553,0-1-0.447-1-1s0.447-1,1-1h7c0.553,0,1,0.447,1,1S37.553,26,37,26z"/>
	<path style="fill:#BAB395;" d="M26,26c-0.26,0-0.521-0.11-0.71-0.29C25.109,25.519,25,25.259,25,25c0-0.271,0.109-0.53,0.29-0.71
		c0.37-0.37,1.05-0.37,1.42,0C26.89,24.479,27,24.729,27,25c0,0.26-0.11,0.52-0.29,0.71C26.52,25.889,26.26,26,26,26z"/>
	<path style="fill:#BAB395;" d="M31,34H21c-0.553,0-1-0.447-1-1s0.447-1,1-1h10c0.553,0,1,0.447,1,1S31.553,34,31,34z"/>
	<path style="fill:#BAB395;" d="M17,34c-0.26,0-0.521-0.11-0.71-0.29C16.1,33.519,16,33.259,16,33s0.1-0.521,0.29-0.71
		c0.37-0.37,1.05-0.37,1.42,0C17.89,32.479,18,32.74,18,33s-0.11,0.52-0.29,0.71C17.52,33.889,17.27,34,17,34z"/>
	<path style="fill:#BAB395;" d="M41,26c-0.26,0-0.521-0.11-0.71-0.29C40.1,25.519,40,25.259,40,25c0-0.271,0.109-0.521,0.29-0.71
		c0.37-0.37,1.04-0.37,1.42,0C41.89,24.479,42,24.729,42,25c0,0.26-0.11,0.52-0.29,0.71C41.52,25.889,41.26,26,41,26z"/>
	<polygon style="fill:#C64645;" points="6.107,30.653 6,30.571 6,20.413 0,25.999 0,26 6.107,30.653 	"/>
	<polygon style="fill:#C64645;" points="52,20.413 52,30.571 51.792,30.729 51.793,30.729 58,26 58,25.999 	"/>
	<polygon style="fill:#ED7161;" points="0,58 0.129,58 57.541,58 57.871,58 58,58 37,42 21,42 	"/>
	<polygon style="fill:#D75A4A;" points="0,58 0,26 21,42 	"/>
	<polygon style="fill:#E95853;" points="58,58 58,26 37,42 	"/>
</g>
<g>
</g>
<g>
</g>
<g>
</g>
<g>
</g>
<g>
</g>
<g>
</g>
<g>
</g>
<g>
</g>
<g>
</g>
<g>
</g>
<g>
</g>
<g>
</g>
<g>
</g>
<g>
</g>
<g>
</g>
</svg>
