<?xml version="1.0" encoding="utf-8"?>
<!-- Generator: Adobe Illustrator 19.0.1, SVG Export Plug-In . SVG Version: 6.00 Build 0)  -->
<svg version="1.1" id="farmer" xmlns="http://www.w3.org/2000/svg" xmlns:xlink="http://www.w3.org/1999/xlink" x="0px" y="0px"
	 viewBox="-223 225 512 512" style="enable-background:new -223 225 512 512;" xml:space="preserve">
<style type="text/css">
	.st0{display:none;fill:#E6AF78;}
	.st1{display:none;fill:#D29B6E;}
	.st2{display:none;fill:#704E46;}
	.st3{fill:#704E46;}
	.st4{display:none;fill:#736F7B;}
	.st5{display:none;fill:#F0C087;}
	.st6{display:none;}
	.st7{display:inline;fill:#625D6B;}
	.st8{fill:#FFCF65;}
	.st9{fill:#FFB450;}
	.st10{fill:#FFDC78;}
</style>
<g>
	<rect x="-37.6" y="547" class="st0" width="141.2" height="105.9"/>
	<path class="st1" d="M-37.6,640.2c97.1,0,141.2-57.9,141.2-57.2v-36H-37.6V640.2z"/>
	<g>
		<path class="st2" d="M33,731.9c-4.9,0-8.8-4.4-8.8-9.8V683h17.6v39.1C41.8,727.5,37.9,731.9,33,731.9z"/>
		<path class="st3" d="M33,692.8c-92.4,0-167.5-92.1-167.5-205.2c2.2,2.1,4.5,4.1,6.7,6.2c0.4,16.4,3.9,75.4,45.5,126
			c10,12.2,49.3,59.9,113.7,61.6c66.9,1.8,109.4-47.5,117.5-57.4c43.1-52.3,42.1-114.7,41.7-127.4c3.3-3,6.6-6,9.9-9
			C200.5,600.7,125.4,692.8,33,692.8z"/>
	</g>
	<path class="st4" d="M104.2,618.5L33,652.9l-71.2-34.4l-103.2,20c-16.6,3.2-28.6,17.8-28.6,34.7v59.2c0,9.8,7.9,17.7,17.7,17.7
		h370.8c9.8,0,17.7-7.9,17.7-17.7v-59.2c0-16.9-12-31.4-28.6-34.7L104.2,618.5z"/>
	<path class="st5" d="M-67.8,423.4l4.8,106.4c0.6,14.2,7.6,27.3,18.9,35.8l32.7,24.5c8.2,6.2,18.2,9.5,28.5,9.5h31.7
		c10.3,0,20.3-3.3,28.5-9.5l32.7-24.5c11.4-8.5,18.3-21.7,18.9-35.8l4.8-106.4H-67.8L-67.8,423.4z"/>
	<path class="st0" d="M130.1,449.9v-26.5H-67.8l4.8,106.4c0.6,14.2,7.6,27.3,18.9,35.8l32.7,24.5c8.2,6.2,18.2,9.5,28.5,9.5H33
		c-15.8,0-47.5-31.7-47.5-71.2v-69.7c0-4.9,4-8.8,8.8-8.8H130.1z"/>
	<g class="st6">
		<rect x="-81.8" y="423.4" class="st7" width="17.7" height="44.1"/>
		<rect x="130.1" y="423.4" class="st7" width="17.7" height="44.1"/>
	</g>
	<path class="st5" d="M151.2,477.5l-8.9,35.7c-1.1,4.2-4.9,7.2-9.2,7.2l0,0c-4.8,0-8.8-3.6-9.4-8.3l-4.6-36.6
		c-1.2-9.8,6.4-18.4,16.3-18.4h0C146,457.2,153.8,467.2,151.2,477.5z"/>
	<path class="st0" d="M-85.2,477.5l8.9,35.7c1.1,4.2,4.9,7.2,9.2,7.2l0,0c4.8,0,8.8-3.6,9.4-8.3l4.6-36.6
		c1.2-9.8-6.4-18.4-16.3-18.4h0C-80,457.2-87.8,467.2-85.2,477.5z"/>
	<g class="st6">
		<path class="st7" d="M-108.2,706.8l-57.1-51.3c-3.1,5.2-4.8,11.3-4.8,17.7v59.2c0,9.8,7.9,17.7,17.7,17.7h53v-23.5
			C-99.4,719-102.6,711.8-108.2,706.8z"/>
		<path class="st7" d="M174.2,706.8l57.1-51.3c3.1,5.2,4.8,11.3,4.8,17.7v59.2c0,9.8-7.9,17.7-17.7,17.7h-53v-23.5
			C165.4,719,168.6,711.8,174.2,706.8z"/>
		<path class="st7" d="M116.1,610.9c-1.8-5.5-8.4-7.8-13.3-4.6l-64.9,43.3c-3,2-6.8,2-9.8,0l-64.9-43.3c-4.8-3.2-11.4-1-13.3,4.6
			l-3.9,11.6c-0.8,2.5-0.5,5.2,0.9,7.5l36.1,57.7c3,4.8,9.7,5.6,13.7,1.6l22.1-22.1c2-2,5.3-0.6,5.3,2.2v45.4c0,4.9,4,8.8,8.8,8.8
			s8.8-4,8.8-8.8v-45.4c0-2.8,3.4-4.2,5.3-2.2l22.1,22.1c4,4,10.7,3.3,13.7-1.6l36.1-57.7c1.4-2.2,1.7-5,0.9-7.5L116.1,610.9z"/>
	</g>
	<path class="st8" d="M286.1,481L44.1,278.7c-3.1-2.6-6.7-3.9-10.4-3.9v215h249.8C287.7,489.8,289.4,483.8,286.1,481z"/>
	<path class="st9" d="M-218.5,481L23.4,278.7c3.1-2.6,6.7-3.9,10.4-3.9v215H-216C-220.1,489.8-221.9,483.8-218.5,481z"/>
	<path class="st8" d="M44.1,278.7c-6.2-5.2-14.6-5.2-20.7,0l-2.1,1.7l-127.7,209.4H174L46.2,280.4L44.1,278.7z"/>
	<path class="st10" d="M46.2,280.4l-2.1-1.7c-3.1-2.6-6.7-3.9-10.4-3.9v215H174L46.2,280.4z"/>
</g>
</svg>
