<?xml version="1.0" encoding="iso-8859-1"?>
<!-- Generator: Adobe Illustrator 19.0.0, SVG Export Plug-In . SVG Version: 6.00 Build 0)  -->
<svg version="1.1" id="Layer_1" xmlns="http://www.w3.org/2000/svg" xmlns:xlink="http://www.w3.org/1999/xlink" x="0px" y="0px"
	 viewBox="0 0 504.127 504.127" style="enable-background:new 0 0 504.127 504.127;" xml:space="preserve">
<path style="fill:#A86743;" d="M484.165,252.07c0-46.773-2.781-90.293-16.313-126.826c20.519-42.756,27.845-83.409,27.845-101.652
	c0-46.726-109.08-9.618-243.633-9.618S8.43-23.134,8.43,23.591c0,17.558,6.735,55.887,25.553,96.878
	c-13.241,37.478-14.029,82.786-14.029,131.6c0,46.765,2.788,90.277,16.321,126.811C15.756,421.636,8.43,462.297,8.43,480.548
	c0,46.71,109.08,9.602,243.633,9.602s243.633,37.108,243.633-9.602c0-17.573-8.917-55.926-29.649-96.933
	C481.187,346.144,484.165,300.859,484.165,252.07z"/>
<path style="fill:#8C4E2F;" d="M252.063,490.15c134.554,0,243.633,37.108,243.633-9.602c0-17.573-8.917-55.926-29.649-96.933
	c15.139-37.471,18.117-82.755,18.117-131.545c0-46.773-2.781-90.293-16.313-126.826c20.519-42.756,27.845-83.409,27.845-101.652
	c0-46.726-109.08-9.618-243.633-9.618"/>
<path style="fill:#BC7957;" d="M252.063,13.974c-123.203,0-224.981-31.067-241.294-0.449C52.383,26.837,144.732,36.1,252.063,36.1
	s199.688-9.263,241.294-22.567C477.044-17.093,375.266,13.974,252.063,13.974z"/>
<path style="fill:#A86743;" d="M493.357,13.533c0-0.008-0.016-0.016-0.016-0.016c-0.48-0.914-1.056-1.764-1.694-2.568
	c-0.047-0.055-0.079-0.11-0.079-0.11c-0.677-0.843-1.402-1.568-2.166-2.261c-0.063-0.047-0.126-0.11-0.181-0.158
	c-0.796-0.685-1.662-1.323-2.584-1.906c-0.063-0.032-0.11-0.063-0.165-0.102c-21.205-13.131-77.485-2.922-150.024,3.45
	c-0.544,0.047-1.103,0.095-1.646,0.142c-2.938,0.252-5.908,0.496-8.893,0.748c-1.016,0.079-2.032,0.158-3.048,0.236
	c-2.607,0.197-5.238,0.394-7.893,0.583c-1.229,0.087-2.458,0.173-3.694,0.252c-2.489,0.165-5.002,0.331-7.522,0.488
	c-1.386,0.087-2.741,0.165-4.12,0.244c-2.434,0.142-4.892,0.26-7.357,0.386c-1.465,0.071-2.922,0.15-4.387,0.205
	c-2.458,0.11-4.939,0.197-7.412,0.291c-1.481,0.047-2.938,0.11-4.419,0.158c-2.678,0.087-5.372,0.142-8.058,0.197
	c-1.292,0.024-2.576,0.063-3.875,0.087c-4.002,0.063-8.011,0.095-12.06,0.095V36.1C359.394,36.1,451.743,26.837,493.357,13.533z"/>
<path style="fill:#8C4E2F;" d="M65.971,252.062c0-62.157-15.644-116.957-39.463-149.339c2.261,5.821,4.726,11.744,7.475,17.747
	c-13.241,37.478-14.029,82.786-14.029,131.6c0,46.765,2.788,90.277,16.321,126.811c-3.631,7.578-6.845,15.069-9.681,22.41
	C50.359,368.876,65.971,314.14,65.971,252.062z"/>
<path style="fill:#A86743;" d="M438.156,252.062c0,51.617,10.807,98.131,28.105,130.977c14.935-37.352,17.896-82.424,17.896-130.97
	c0-46.773-2.781-90.293-16.313-126.826c3.631-7.578,6.837-15.076,9.681-22.41C453.768,135.247,438.156,189.984,438.156,252.062z"/>
<path style="fill:#7DA81D;" d="M252.063,439.139c-39.274,0.008-76.201-15.289-103.968-43.063
	c-57.336-57.32-57.336-150.607,0-207.943c4.616-4.616,12.091-4.616,16.707,0c4.616,4.616,4.616,12.091,0,16.707
	c-48.112,48.12-48.112,126.417,0,174.529c48.12,48.104,126.401,48.104,174.521,0c23.308-23.308,36.139-54.303,36.139-87.268
	s-12.832-63.953-36.139-87.261c-4.616-4.616-4.616-12.091,0-16.707c4.616-4.616,12.091-4.616,16.707,0
	c27.766,27.766,43.063,64.693,43.063,103.975c0,39.266-15.289,76.201-43.063,103.967
	C328.257,423.842,291.338,439.139,252.063,439.139z"/>
<path style="fill:#4C8E11;" d="M356.031,396.075c27.766-27.766,43.063-64.701,43.063-103.967c0-39.282-15.289-76.209-43.063-103.975
	c-4.616-4.616-12.091-4.616-16.707,0c-4.616,4.616-4.616,12.091,0,16.707c23.308,23.308,36.139,54.304,36.139,87.261
	c0,32.973-12.832,63.961-36.139,87.268c-24.064,24.056-55.658,36.076-87.261,36.076v23.694
	C291.338,439.139,328.265,423.849,356.031,396.075z"/>
<g>
	<path style="fill:#7DA81D;" d="M254.694,377.431c0,1.457-1.182,2.631-2.631,2.631l0,0c-1.449,0-2.631-1.174-2.631-2.631V152.938
		c0-1.449,1.182-2.623,2.631-2.623l0,0c1.449,0,2.631,1.174,2.631,2.623V377.431z"/>
	<circle style="fill:#7DA81D;" cx="252.063" cy="384.788" r="10.335"/>
	<path style="fill:#7DA81D;" d="M252.158,93.137c-10.917,5.356-19.18,29.452-19.18,40.952c0,11.5,8.271,21.039,19.18,23.079V93.137z
		"/>
</g>
<path style="fill:#469315;" d="M251.969,93.137c10.917,5.356,19.172,29.452,19.172,40.952c0,11.5-8.263,21.039-19.172,23.079V93.137
	z"/>
<path style="fill:#7DA81D;" d="M300.373,164.927c-11.508-3.923-34.383,7.278-42.52,15.407c-8.121,8.129-9.027,20.724-2.757,29.869
	L300.373,164.927z"/>
<path style="fill:#469315;" d="M300.247,164.809c3.923,11.5-7.278,34.383-15.399,42.512c-8.137,8.129-20.724,9.027-29.877,2.765
	L300.247,164.809z"/>
<path style="fill:#7DA81D;" d="M300.373,218.096c-11.508-3.923-34.383,7.278-42.52,15.407c-8.121,8.129-9.027,20.724-2.757,29.869
	L300.373,218.096z"/>
<path style="fill:#469315;" d="M300.247,217.978c3.923,11.5-7.278,34.383-15.399,42.512c-8.137,8.129-20.724,9.027-29.877,2.765
	L300.247,217.978z"/>
<path style="fill:#7DA81D;" d="M300.373,271.266c-11.508-3.923-34.383,7.278-42.52,15.407c-8.121,8.129-9.027,20.724-2.757,29.869
	L300.373,271.266z"/>
<path style="fill:#469315;" d="M300.247,271.147c3.923,11.5-7.278,34.383-15.399,42.512c-8.137,8.129-20.724,9.027-29.877,2.765
	L300.247,271.147z"/>
<path style="fill:#7DA81D;" d="M292.307,332.477c-9.46-3.222-28.278,5.986-34.958,12.666c-6.695,6.688-7.428,17.038-2.276,24.56
	L292.307,332.477z"/>
<path style="fill:#469315;" d="M292.204,332.375c3.23,9.46-5.971,28.278-12.658,34.958s-17.03,7.42-24.568,2.269L292.204,332.375z"
	/>
<path style="fill:#7DA81D;" d="M203.754,164.927c11.508-3.923,34.383,7.278,42.52,15.407c8.121,8.129,9.027,20.724,2.757,29.869
	L203.754,164.927z"/>
<path style="fill:#469315;" d="M203.88,164.809c-3.923,11.5,7.278,34.383,15.399,42.512c8.137,8.129,20.724,9.027,29.877,2.765
	L203.88,164.809z"/>
<path style="fill:#7DA81D;" d="M203.754,218.096c11.508-3.923,34.383,7.278,42.52,15.407c8.121,8.129,9.027,20.724,2.757,29.869
	L203.754,218.096z"/>
<path style="fill:#469315;" d="M203.88,217.978c-3.923,11.5,7.278,34.383,15.399,42.512c8.137,8.129,20.724,9.027,29.877,2.765
	L203.88,217.978z"/>
<path style="fill:#7DA81D;" d="M203.754,271.266c11.508-3.923,34.383,7.278,42.52,15.407c8.121,8.129,9.027,20.724,2.757,29.869
	L203.754,271.266z"/>
<path style="fill:#469315;" d="M203.88,271.147c-3.923,11.5,7.278,34.383,15.399,42.512c8.137,8.129,20.724,9.027,29.877,2.765
	L203.88,271.147z"/>
<path style="fill:#7DA81D;" d="M211.82,332.477c9.46-3.222,28.278,5.986,34.958,12.666c6.695,6.688,7.428,17.038,2.276,24.56
	L211.82,332.477z"/>
<path style="fill:#469315;" d="M211.923,332.375c-3.23,9.46,5.971,28.278,12.658,34.958s17.03,7.42,24.568,2.269L211.923,332.375z"
	/>
<g>
</g>
<g>
</g>
<g>
</g>
<g>
</g>
<g>
</g>
<g>
</g>
<g>
</g>
<g>
</g>
<g>
</g>
<g>
</g>
<g>
</g>
<g>
</g>
<g>
</g>
<g>
</g>
<g>
</g>
</svg>
