<?xml version="1.0" encoding="utf-8"?>
<!-- Generator: Adobe Illustrator 19.0.1, SVG Export Plug-In . SVG Version: 6.00 Build 0)  -->
<svg version="1.1" id="guard" xmlns="http://www.w3.org/2000/svg" xmlns:xlink="http://www.w3.org/1999/xlink" x="0px" y="0px"
	 viewBox="-223 225 512 512" style="enable-background:new -223 225 512 512;" xml:space="preserve">
<style type="text/css">
	.st0{fill:#223F91;}
	.st1{fill:#1A1782;}
	.st2{clip-path:url(#SVGID_2_);}
	.st3{fill:#172C65;}
</style>
<g id="bright">
	<g>
		<g>
			<path class="st0" d="M-104.2,483.6c22.8,63.8,140.7,55.9,140.7,55.9s117.9,7.9,140.7-55.9c-32.4-17.4-83.9-28.9-140.7-28.9
				C-20.3,454.7-71.9,466.1-104.2,483.6z"/>
			<path class="st0" d="M177,323.5c-25.7-2.6-67.5-4.4-100.5-33.5c-33.1-29.2-40-24-40-24s-7-5.2-40.1,24
				c-33.1,29.2-74.9,30.9-100.6,33.5c-25.7,2.6-23.9,13.1-30.4,42.2s-28.3,37-21.3,44c4.9,4.8,27.3,23.3,40.6,34.1
				c34.1-20.6,88.9-34.3,151.9-34.3c63,0,117.8,13.7,151.9,34.3c13.3-10.9,35.6-29.3,40.5-34.1c7-7-14.9-14.8-21.4-44
				C201,336.5,202.7,326.1,177,323.5z M68.4,393.6l-32-23.1l-32,23.3l12.2-38l-32-23.7h39.5l12.2-37.6l12.2,37.6h39.5l-32,23.7
				L68.4,393.6z"/>
			<path class="st0" d="M178.4,452c-32.3-17.8-84.4-29.6-142-29.6c-57.5,0-109.7,11.8-142,29.6v18.6c34.3-17.5,84.8-28.8,142-28.8
				c57.2,0,107.6,11.3,142,28.8V452z"/>
		</g>
	</g>
</g>
<g>
	<path class="st1" d="M35,697.1c-92.4,0-167.5-92.1-167.5-205.2c2.2,2.1,4.5,4.1,6.7,6.2c0.4,16.4,3.9,75.4,45.5,126
		c10,12.2,49.3,59.9,113.7,61.6c66.9,1.8,109.4-47.5,117.5-57.4C194,576.1,193,513.7,192.6,501c3.3-3,6.6-6,9.9-9
		C202.5,605.1,127.4,697.1,35,697.1z"/>
</g>
<g>
	<defs>
		<rect id="SVGID_1_" x="-157.4" y="265.6" width="193.8" height="273.8"/>
	</defs>
	<clipPath id="SVGID_2_">
		<use xlink:href="#SVGID_1_"  style="overflow:visible;"/>
	</clipPath>
	<g id="dark" class="st2">
		<g>
			<g>
				<path class="st3" d="M-104.2,483.2c22.8,63.8,140.7,55.9,140.7,55.9s117.9,7.9,140.7-55.9c-32.4-17.4-83.9-28.9-140.7-28.9
					C-20.3,454.3-71.9,465.8-104.2,483.2z"/>
				<path class="st3" d="M177,323.1c-25.7-2.6-67.5-4.4-100.5-33.5c-33.1-29.2-40-24-40-24s-7-5.2-40.1,24
					c-33.1,29.2-74.9,30.9-100.6,33.5c-25.7,2.6-23.9,13.1-30.4,42.2c-6.5,29.2-28.3,37-21.3,44c4.9,4.8,27.3,23.3,40.6,34.1
					c34.1-20.6,88.9-34.3,151.9-34.3c63,0,117.8,13.7,151.9,34.3c13.3-10.9,35.6-29.3,40.5-34.1c7-7-14.9-14.8-21.4-44
					C201,336.2,202.7,325.7,177,323.1z M68.4,393.2l-32-23.1l-32,23.3l12.2-38l-32-23.7h39.5l12.2-37.6l12.2,37.6h39.5l-32,23.7
					L68.4,393.2z"/>
				<path class="st3" d="M178.4,451.7c-32.3-17.8-84.4-29.6-142-29.6c-57.5,0-109.7,11.8-142,29.6v18.6
					c34.3-17.5,84.8-28.8,142-28.8c57.2,0,107.6,11.3,142,28.8V451.7z"/>
			</g>
		</g>
	</g>
</g>
</svg>
