<?xml version="1.0" encoding="utf-8"?>
<!-- Generator: Adobe Illustrator 19.0.1, SVG Export Plug-In . SVG Version: 6.00 Build 0)  -->
<svg version="1.1" id="圖層_1" xmlns="http://www.w3.org/2000/svg" xmlns:xlink="http://www.w3.org/1999/xlink" x="0px" y="0px"
	 viewBox="0 0 1280 800" style="enable-background:new 0 0 1280 800;" xml:space="preserve">
<style type="text/css">
	.st0{fill:#825012;}
	.st1{opacity:0.5;}
	.st2{fill:#FF9900;}
	.st3{fill:#68420F;}
</style>
<g>
	<polygon class="st0" points="640,80 1280,400 640,720 0,400 	"/>
	<polygon class="st0" points="640,80 1280,400 640,720 0,400 	"/>
</g>
<g class="st1">
	<g>
		<polygon class="st2" points="640,80 1280,400 640,720 0,400 		"/>
	</g>
	<g>
		<polygon class="st3" points="640,80 1280,400 640,720 0,400 		"/>
	</g>
</g>
<g>
	<g class="st1">
		<polygon class="st2" points="700.8,110.3 720.8,120.3 80.8,440.3 60.8,430.3 		"/>
	</g>
	<g class="st1">
		<polygon class="st2" points="720.7,120.3 740.7,130.3 100.7,450.3 80.7,440.3 		"/>
	</g>
	<g class="st1">
		<polygon class="st2" points="740.4,130.3 760.4,140.3 120.4,460.3 100.4,450.3 		"/>
	</g>
</g>
<g>
	<g class="st1">
		<polygon class="st2" points="819.5,169.3 839.5,179.3 199.5,499.3 179.5,489.3 		"/>
	</g>
	<g class="st1">
		<polygon class="st2" points="839.4,179.3 859.4,189.3 219.4,509.3 199.4,499.3 		"/>
	</g>
	<g class="st1">
		<polygon class="st2" points="859.1,189.3 879.1,199.3 239.1,519.3 219.1,509.3 		"/>
	</g>
</g>
<g>
	<g class="st1">
		<polygon class="st2" points="939.1,229 959.1,239 319.1,559 299.1,549 		"/>
	</g>
	<g class="st1">
		<polygon class="st2" points="959,239 979,249 339,569 319,559 		"/>
	</g>
	<g class="st1">
		<polygon class="st2" points="978.7,249 998.7,259 358.7,579 338.7,569 		"/>
	</g>
</g>
<g>
	<g class="st1">
		<polygon class="st2" points="1056.4,288.8 1076.4,298.8 436.4,618.8 416.4,608.8 		"/>
	</g>
	<g class="st1">
		<polygon class="st2" points="1076.4,298.8 1096.4,308.8 456.4,628.8 436.4,618.8 		"/>
	</g>
	<g class="st1">
		<polygon class="st2" points="1096,308.8 1116,318.8 476,638.8 456,628.8 		"/>
	</g>
</g>
<g>
	<g class="st1">
		<polygon class="st2" points="1179.3,349.3 1199.3,359.3 559.3,679.3 539.3,669.3 		"/>
	</g>
	<g class="st1">
		<polygon class="st2" points="1199.2,359.3 1219.2,369.3 579.2,689.3 559.2,679.3 		"/>
	</g>
	<g class="st1">
		<polygon class="st2" points="1218.9,369.3 1238.9,379.3 598.9,699.3 578.9,689.3 		"/>
	</g>
</g>
</svg>
