<?xml version="1.0" encoding="utf-8"?>
<!-- Generator: Adobe Illustrator 19.0.1, SVG Export Plug-In . SVG Version: 6.00 Build 0)  -->
<svg version="1.1" xmlns="http://www.w3.org/2000/svg" xmlns:xlink="http://www.w3.org/1999/xlink" x="0px" y="0px"
	 viewBox="0 0 50 50" style="enable-background:new 0 0 50 50;" xml:space="preserve">
<style type="text/css">
	.st0{display:none;}
	.st1{display:inline;}
	.st2{fill:#FBFDF0;}
	.st3{fill:#88C057;}
	.st4{fill:#A4E869;}
	.st5{fill:#659C35;}
	.st6{fill:#DDC5AB;}
</style>
<g id="圖層_1" class="st0">
	<rect x="-4.4" y="-3.9" width="57.1" height="54.2"/>
	<g class="st1">
		<path class="st2" d="M0.2,46.6c0,0,0.5,0.1,1-0.1c0.5-0.2,0.8-0.7,1-0.8c0.4-0.7,0.2-1.1,0.6-1.6c0.1-0.1,0.2-0.3,0.3-0.5
			C3.3,43.3,3.3,43,3.2,43c0,0-0.1,0.2-0.3,0.5c-0.3,0.5-0.5,0.5-0.6,0.9c-0.1,0.2,0,0.2-0.2,0.7C2,45.3,2,45.5,1.9,45.6
			c0,0.1-0.1,0.3-0.3,0.5c-0.1,0.1-0.2,0.1-0.5,0.3C0.6,46.6,0.2,46.6,0.2,46.6z"/>
		<path class="st2" d="M2.2,46.8c0,0,0.4-0.1,0.9-0.4c0.5-0.3,0.7-0.7,0.8-0.9c0.4-0.7,0.3-1,0.6-1.6c0,0,0.1-0.2,0.2-0.4
			c0.1-0.2,0.1-0.4,0.1-0.4c0,0-0.1,0.2-0.3,0.5c-0.3,0.5-0.4,0.5-0.5,0.9c-0.1,0.2,0,0.2-0.2,0.6c-0.1,0.2-0.1,0.4-0.2,0.5
			c0,0.1-0.1,0.3-0.3,0.5c-0.1,0.1-0.2,0.2-0.4,0.3C2.4,46.6,2.2,46.7,2.2,46.8z"/>
		<path class="st2" d="M4.2,47.5c0,0-0.5-0.1-0.8-0.5C3,46.6,3,46.1,2.9,45.8c-0.1-0.8,0.2-1.2,0.1-1.9c0,0,0-0.3,0-0.5
			c0-0.2,0.1-0.5,0.2-0.5c0,0,0,0.2,0.1,0.6c0.1,0.6,0.2,0.7,0.2,1.1c0,0.2-0.1,0.2-0.2,0.7c0,0.2-0.1,0.4-0.1,0.6
			c0,0.1,0,0.4,0.1,0.6c0,0.1,0.1,0.2,0.3,0.5C4,47.3,4.2,47.5,4.2,47.5z"/>
	</g>
	<g class="st1">
		<g>
			<path class="st2" d="M31.5,28.9c1-1,2.5-2.4,3.8-4.7c0.5-0.9,0.9-1.8,1.2-2.3c-0.7-0.3-1.4-0.7-2.2-1c-1.2-0.5-2.4-0.8-3.4-1
				c-0.6-2.8-1.3-5-2.2-6.7c-5.2,2.5-9.1,5.4-11.7,7.6c-2,1.7-6.7,5.9-10.9,12.6C3.9,37.1,0.9,41.9,2.6,44c1.3,1.7,4.7,1,6.3,0.6
				c3.2-0.6,4.9-1.9,11.1-6.5C23.5,35.6,28,32.3,31.5,28.9z"/>
		</g>
		<path class="st3" d="M30.6,20.2c0,0,10.8-6.4,17.7,2.6c0,0,1.8,2.1,0.4,4c-1.3,1.9-4.3,1.5-5.8-0.5C41.5,24.5,38.2,22.2,30.6,20.2
			z"/>
		<path class="st3" d="M30.6,20.2c0,0,6.6-10.6-1.9-16.9c0,0-2.8-2.5-5.3-1.6c-2.3,0.8-2.4,4.1-0.2,5.3
			C25.5,8.4,28.8,11.8,30.6,20.2z"/>
		<path class="st3" d="M48,23.4c0,0,0.1,0.1,0.1,0.2c0.2-0.2,0.4-0.4,0.6-0.7c1.8-2.3,0.4-4.1,0.4-4.1c-5.4-8.1-18,0.7-18,0.7
			c0.6,0,1.2,0.1,1.7,0.2C36.5,18.3,43.2,17.1,48,23.4z"/>
		<path class="st4" d="M28.7,3.3c6.5,4.8,4.1,12.2,2.6,15.4c0,0.1,0,0.1,0,0.2c0,0,9-12.5,1.4-17.4c0,0-2.4-2.1-5.2-0.6
			c-0.5,0.2-0.9,0.6-1.2,0.9C27.7,2.4,28.7,3.3,28.7,3.3z"/>
		<path class="st5" d="M44.4,5.6c-3.2-2.1-7.2,1.1-7.2,1.1c-0.7,0.8-1.3,1.7-1.8,2.6c-0.6,4.1-3.2,8.5-4.5,10.4
			c-0.1,0.3-0.1,0.5-0.2,0.7c1.5-1,6-3.8,10.3-4.5c1.1-0.7,2.1-1.5,3-2.4C48.8,8.9,44.4,5.6,44.4,5.6z"/>
		<path class="st4" d="M30.6,20.2c0,0,10.8-6.4,17.7,2.6c0,0,1.8,2.1,0.4,4c-1.3,1.9-4.3,1.5-5.8-0.5C41.5,24.5,38.2,22.2,30.6,20.2
			z"/>
		<g>
			<g>
				<g>
					<path class="st6" d="M19.7,20.4c0.1,0,0.3,0.2,0.5,0.6c0.8,1.2,1.9,2.7,2.6,3.3c0.2,0.2,0.5,0.6,0.7,1c0.1,0.2,0.1,0.4,0.1,0.4
						c0,0-0.1,0-0.2-0.1c-1-0.8-2.3-2.6-3.2-4"/>
					<path class="st6" d="M23.4,25.6c0.1,0.1,0.1,0.1,0.2,0.1c0.1,0,0-0.2-0.1-0.4c-0.2-0.4-0.5-0.8-0.7-1c-0.7-0.6-1.8-2.1-2.6-3.3
						c-0.2-0.3-0.4-0.5-0.5-0.6c0.1,0.4,0.3,0.8,0.5,1.2C21.1,23,22.4,24.8,23.4,25.6z"/>
				</g>
			</g>
		</g>
		<g>
			<g>
				<g>
					<path class="st6" d="M17.7,25.5c0.1,0,0.3,0.2,0.5,0.6c0.8,1.2,1.9,2.7,2.6,3.3c0.2,0.2,0.5,0.6,0.7,1c0.1,0.2,0.1,0.4,0.1,0.4
						c0,0-0.1,0-0.2-0.1c-1-0.8-2.3-2.6-3.2-4"/>
					<path class="st6" d="M21.4,30.7c0.1,0.1,0.1,0.1,0.2,0.1c0.1,0,0-0.2-0.1-0.4c-0.2-0.4-0.5-0.8-0.7-1c-0.7-0.6-1.8-2.1-2.6-3.3
						c-0.2-0.3-0.4-0.5-0.5-0.6c0.1,0.4,0.3,0.8,0.5,1.2C19.1,28.1,20.4,29.9,21.4,30.7z"/>
				</g>
			</g>
		</g>
		<g>
			<g>
				<g>
					<path class="st6" d="M12.5,29.3c0.1,0,0.3,0.2,0.5,0.6c0.8,1.2,1.9,2.7,2.6,3.3c0.2,0.2,0.5,0.6,0.7,1c0.1,0.2,0.1,0.4,0.1,0.4
						c0,0-0.1,0-0.2-0.1c-1-0.8-2.3-2.6-3.2-4"/>
					<path class="st6" d="M16.2,34.5c0.1,0.1,0.1,0.1,0.2,0.1c0.1,0,0-0.2-0.1-0.4c-0.2-0.4-0.5-0.8-0.7-1c-0.7-0.6-1.8-2.1-2.6-3.3
						c-0.2-0.3-0.4-0.5-0.5-0.6c0.1,0.4,0.3,0.8,0.5,1.2C13.9,31.8,15.2,33.6,16.2,34.5z"/>
				</g>
			</g>
		</g>
	</g>
</g>
<g id="lettuce">
	<g>
		<g>
			<path class="st3" d="M37.9,24.4c1.4,0.3,2.9,0.3,4.5-0.4c2.8-1.2,4.8-3.9,4.8-6.9c0.1-3.4-2.1-6.3-5.1-7.4
				c-0.2-3.1-2.8-5.5-5.9-5.5c0,0,0,0,0,0c0.1-0.5,0-1-0.1-1.5C35.7,1.3,34.5,0.2,33,0c-1.2-0.1-2.4,0.3-3.1,1.1
				C29.1,0.4,28.1,0,27,0c-2.3,0-4.2,1.9-4.2,4.2c0,0,0,0,0,0c-2.8,0.2-5.1,2.6-5.1,5.5c0,0.4,0.1,0.9,0.2,1.3
				c-3.4,0.1-6.1,2.9-6.1,6.3c0,1.2,0.3,2.2,0.9,3.2c-1,0.9-1.7,2.2-1.7,3.6c0,2,1.3,3.8,3.1,4.4c-0.2,8.3,2.7,13.2,8.5,19.8
				c0.1,0.1,0.2,0.2,0.3,0.4c0,0,0,0.1,0.1,0.1c2.4,2.7,7.8,0.6,6.6-2.8c-6.2-18.1,12.8-15.5,12.8-15.5s0.5-5.5-4.4-5.7
				C37.9,24.7,37.9,24.5,37.9,24.4C37.9,24.4,37.9,24.4,37.9,24.4z"/>
			<path class="st5" d="M22.8,48.8C22.8,48.8,22.8,48.7,22.8,48.8c-0.2-0.2-0.3-0.3-0.4-0.4c-5.7-6.6-8.7-11.5-8.5-19.8
				c-1.8-0.6-3.1-2.4-3.1-4.4c0-1.5,0.7-2.8,1.7-3.6c-0.5-0.9-0.9-2-0.9-3.2c0-3.4,2.7-6.2,6.1-6.3c-0.1-0.4-0.2-0.8-0.2-1.3
				c0-2.3,1.4-4.3,3.4-5.1c-0.1-0.4-0.3-0.9-0.5-1.3c-1.1-2.2-3.1-3.6-4.8-3.3c-1.5,0.2-2.5,1.4-2.9,3C11.5,2.3,10.2,2,8.9,2.4
				c-2.6,0.9-3.5,4.7-2,8.3c0,0,0,0,0,0c-2.9,1.4-3.6,5.4-1.8,9.1c0.3,0.5,0.6,1,0.9,1.5c-3.2,1.3-4,5.3-2,8.8
				c0.6,1.1,1.5,2,2.4,2.7c-0.4,1.1-0.4,2.4,0.4,3.6c1,1.6,2.8,2.6,4.4,2.6c3,5.8,6.6,8.1,12.1,10.4c0.1,0,0.1,0,0.2,0.1
				C23.3,49.2,23,49,22.8,48.8z"/>
			<path class="st5" d="M25,22c0.1-0.1,0.1-0.2,0.1-0.4c0.6-1.6,1.4-3,2.2-4.1c4-0.8,7.1,0.4,7.1,0.5c0.1,0.1,0.2,0.1,0.4,0.1
				c0.3,0,0.7-0.2,0.8-0.5c0.2-0.5,0-1-0.5-1.2c-0.1-0.1-2.6-1.1-6.2-0.9c1.7-1.8,3.3-2.6,3.5-2.8c1.3-0.6,3.2,0.2,3.8,0.5
				c0.1,0.1,0.3,0.1,0.5,0.1c0.3,0,0.6-0.2,0.8-0.4c0.3-0.4,0.1-1-0.3-1.2c-0.1-0.1-2.1-1.2-4.2-1c0.2-0.7,0.6-1.4,0.8-1.7
				c0.3-0.4,0.2-1-0.2-1.3c-0.4-0.3-1-0.2-1.3,0.2c-0.1,0.1-1.2,1.6-1.2,3.4c-1.3,0.8-4.7,3.2-7.1,8.1c-0.1,0.3-0.3,0.5-0.4,0.8
				c-2.5-1.7-2.1-4.7-2-4.8c0.1-0.5-0.3-0.9-0.7-1c-0.5-0.1-1,0.3-1,0.7c-0.3,1.6,0.1,5,3.1,6.8c-0.7,2-1.2,4.3-1.3,7.1
				c0,0.1,0,0.2,0,0.3c-0.1,1.9,0,4.1,0.3,6.5c-1.1-0.6-1.7-1.5-1.7-1.6c-0.2-0.4-0.8-0.6-1.2-0.4c-0.4,0.2-0.6,0.8-0.4,1.2
				c0,0.1,1.1,2.1,3.6,2.9c0.6,3.6,1.8,7.6,3.7,12c0.6,0,1.2-0.2,1.7-0.5c0,0,0,0,0,0c-2-4.7-3.1-8.8-3.8-12.4c0,0,0,0,0-0.1
				c-0.5-2.7-0.6-5.2-0.5-7.4c1.3-2.1,5-2.2,5-2.2c0.5,0,0.9-0.4,0.9-0.9c0-0.5-0.4-0.9-0.9-0.9c0,0,0,0,0,0c-0.1,0-2.7,0.1-4.7,1.3
				c0.2-1.8,0.7-3.4,1.2-4.8C24.9,22.1,24.9,22.1,25,22z"/>
		</g>
		<g>
		</g>
		<g>
		</g>
		<g>
		</g>
		<g>
		</g>
		<g>
		</g>
		<g>
		</g>
		<g>
		</g>
		<g>
		</g>
		<g>
		</g>
		<g>
		</g>
		<g>
		</g>
		<g>
		</g>
		<g>
		</g>
		<g>
		</g>
		<g>
		</g>
	</g>
</g>
</svg>
