<?xml version="1.0" encoding="utf-8"?>
<!-- Generator: Adobe Illustrator 19.0.1, SVG Export Plug-In . SVG Version: 6.00 Build 0)  -->
<svg version="1.1" id="圖層_10" xmlns="http://www.w3.org/2000/svg" xmlns:xlink="http://www.w3.org/1999/xlink" x="0px" y="0px"
	 viewBox="-223 225 512 512" style="enable-background:new -223 225 512 512;" xml:space="preserve">
<style type="text/css">
	.st0{fill:#FFFFFF;}
	.st1{fill:#E5E4E3;}
	.st2{fill:#D3D3D3;}
</style>
<g>
	<g>
		<g>
			<path class="st0" d="M68,553.3l-30-30c-1.2-1.1-2.6-1.7-4.2-1.7c-1.6,0-3,0.6-4.1,1.7l-30,30c-1.2,1.2-1.8,2.6-1.8,4.2
				c0,1.7,0.6,3,1.8,4.1l3.5,3.5c1.1,1.2,2.5,1.8,4.1,1.8c1.7,0,3-0.6,4.1-1.8l22.4-22.4l22.4,22.4c1.1,1.2,2.5,1.8,4.1,1.8
				c1.6,0,3-0.6,4.2-1.8l3.5-3.5c1.1-1.1,1.7-2.5,1.7-4.1C69.8,555.9,69.2,554.5,68,553.3z"/>
		</g>
	</g>
	<g>
		<g>
			<path class="st1" d="M68,597.7l-30-30c-1.2-1.1-2.6-1.7-4.2-1.7c-1.6,0-3,0.6-4.1,1.7l-30,30c-1.2,1.2-1.8,2.6-1.8,4.2
				c0,1.7,0.6,3,1.8,4.1l3.5,3.5c1.1,1.2,2.5,1.8,4.1,1.8c1.7,0,3-0.6,4.1-1.8l22.4-22.4l22.4,22.4c1.1,1.2,2.5,1.8,4.1,1.8
				c1.6,0,3-0.6,4.2-1.8l3.5-3.5c1.1-1.1,1.7-2.5,1.7-4.1C69.8,600.3,69.2,598.9,68,597.7z"/>
		</g>
	</g>
	<g>
		<g>
			<path class="st2" d="M68,643l-30-30c-1.2-1.1-2.6-1.7-4.2-1.7c-1.6,0-3,0.6-4.1,1.7l-30,30c-1.2,1.2-1.8,2.6-1.8,4.2
				c0,1.7,0.6,3,1.8,4.1l3.5,3.5c1.1,1.2,2.5,1.8,4.1,1.8c1.7,0,3-0.6,4.1-1.8l22.4-22.4l22.4,22.4c1.1,1.2,2.5,1.8,4.1,1.8
				c1.6,0,3-0.6,4.2-1.8l3.5-3.5c1.1-1.1,1.7-2.5,1.7-4.1C69.8,645.6,69.2,644.2,68,643z"/>
		</g>
	</g>
</g>
</svg>
