<?xml version="1.0" encoding="utf-8"?>
<!-- Generator: Adobe Illustrator 18.1.0, SVG Export Plug-In . SVG Version: 6.00 Build 0)  -->
<svg version="1.1" baseProfile="basic" id="Layer_1"
	 xmlns="http://www.w3.org/2000/svg" xmlns:xlink="http://www.w3.org/1999/xlink" x="0px" y="0px" viewBox="0 0 80 88"
	 xml:space="preserve">
<g>
	<g>
		<polygon fill="#E5E5E5" points="80,72 48,88 48,61 80,45 		"/>
		<polygon fill="#762C07" points="48,64 80,48 80,32 48,48 		"/>
		<polygon opacity="0.4" points="79,48.5 49,63.5 49,61.5 79,46.5 		"/>
		<polygon fill="#FFFFFF" points="50,47 48,48 48,88 50,87 		"/>
		<polygon fill="#FFFFFF" points="78,33 80,32 80,72 78,73 		"/>
		<polygon opacity="0.3" points="78,73 50,87 50,86 78,72 		"/>
		<polygon opacity="0.15" points="57,59.5 56,60 56,44 57,43.5 		"/>
		<polygon opacity="0.15" points="52,62 51,62.5 51,46.5 52,46 		"/>
		<polygon opacity="0.15" points="62,57 61,57.5 61,41.5 62,41 		"/>
		<polygon opacity="0.15" points="72,52 71,52.5 71,36.5 72,36 		"/>
		<polygon opacity="0.15" points="77,49.5 76,50 76,34 77,33.5 		"/>
		<polygon opacity="0.15" points="67,54.5 66,55 66,39 67,38.5 		"/>
		<g>
			<polygon fill="#FFFFFF" points="67,49.5 61,52.5 61,44.5 67,41.5 			"/>
			<polygon fill="#656565" points="66,49 62,51 62,45 66,43 			"/>
			<polygon opacity="0.15" points="66,44 62,46 62,45 66,43 			"/>
		</g>
		<polygon opacity="0.29" points="48,48 48,88 80,72 80,32 		"/>
	</g>
	<g>
		<polygon fill="#E5E5E5" points="48,88 16,72 16,45 48,61 		"/>
		<polygon fill="#762C07" points="16,48 48,64 48,48 32,24 16,32 		"/>
		<polygon opacity="0.4" points="48,64 18,49 18,47 48,62 		"/>
		<polygon fill="#FFFFFF" points="18,31.9 16,31.9 16,71.9 18,72.9 		"/>
		<polygon fill="#FFFFFF" points="46,46 48,48 48,88 46,87 		"/>
		<polygon opacity="0.3" points="46,87 18,73 18,72 46,86 		"/>
		<g>
			<polygon fill="#FFFFFF" points="37,64.5 27,59.5 27,76.5 37,81.5 			"/>
			<polygon fill="#762C07" points="36,81 28,77 28,61 36,65 			"/>
			<polygon opacity="0.3" points="29,76.5 29,61.5 28,61 28,77 36,81 36,80 			"/>
			<polygon opacity="0.3" points="32,67 30,66 30,65 32,66 			"/>
			<polygon opacity="0.3" points="35,68.5 33,67.5 33,66.5 35,67.5 			"/>
			<polygon opacity="0.3" points="32,71 30,70 30,69 32,70 			"/>
			<polygon opacity="0.3" points="35,72.5 33,71.5 33,70.5 35,71.5 			"/>
			<polygon opacity="0.3" points="32,75 30,74 30,73 32,74 			"/>
			<polygon opacity="0.3" points="35,76.5 33,75.5 33,74.5 35,75.5 			"/>
		</g>
		<g>
			<polygon opacity="0.15" points="25,52 24,51.5 24,28.5 25,29 			"/>
			<polygon opacity="0.15" points="20,49.5 19,49 19,31 20,31.5 			"/>
			<polygon opacity="0.15" points="30,54.5 29,54 29,26 30,26.5 			"/>
			<polygon opacity="0.15" points="40,59.5 39,59 39,36 40,36.5 			"/>
			<polygon opacity="0.15" points="45,62 44,61.5 44,43.5 45,44 			"/>
			<polygon opacity="0.15" points="35,57 34,56.5 34,28.5 35,29 			"/>
		</g>
		<polygon fill="#FFFFFF" points="32,24 16,32 16,34 32,26 48,50 48,48 		"/>
		<path fill="#E5E5E5" d="M35,44c0,1.7-1.3,2.3-3,1.5c-1.7-0.8-3-2.8-3-4.5c0-1.7,1.3-2.3,3-1.5C33.7,40.3,35,42.3,35,44z"/>
		<polygon opacity="0.11" points="32,24 16,32 16,72 48,88 48,48 		"/>
	</g>
	<polygon fill="#2D3134" points="48,48 32,24 64,8 80,32 	"/>
	<polygon opacity="0.39" points="48,48 32,24 64,8 80,32 	"/>
	<polygon fill="#2D3134" points="16,32 32,24 64,8 48,16 	"/>
	<polygon opacity="0.06" points="16,32 32,24 64,8 48,16 	"/>
	<path fill="#825012" d="M21.2,46.1l-5.7-2.8l-9.9,5l4.2,6.4l32.5-16.3l5.7,2.8l9.9-5l-4.2-6.4L21.2,46.1z M20.2,46.6l-2.5,1.3
		L17,46.9l1.8-0.9L20.2,46.6z M10.6,50l1.4-0.7l0.7,1.1l-1.4,0.7L10.6,50z M12.7,49l1.4-0.7l0.7,1.1L13.5,50L12.7,49z M14.9,47.9
		l1.4-0.7l0.7,1.1L15.6,49L14.9,47.9z M16,44.5l1.4,0.7l-1.1,0.6l-0.7-1.1L16,44.5z M14.9,45.1l0.7,1.1l-1.4,0.7l-0.7-1.1L14.9,45.1
		z M12.7,46.1l0.7,1.1L12,47.9l-0.7-1.1L12.7,46.1z M10.6,47.2l0.7,1.1L9.9,49l-0.7-1.1L10.6,47.2z M7.1,49l1.4-0.7l0.7,1.1L7.8,50
		L7.1,49z M8.5,51.1l1.4-0.7l0.7,1.1l-1.4,0.7L8.5,51.1z M43.4,37.9l2.5-1.3l0.7,1.1l-1.8,0.9L43.4,37.9z M53.1,34.5l-1.4,0.7
		l-0.7-1.1l1.4-0.7L53.1,34.5z M50.9,35.5l-1.4,0.7l-0.7-1.1l1.4-0.7L50.9,35.5z M48.8,36.6l-1.4,0.7l-0.7-1.1l1.4-0.7L48.8,36.6z
		 M47.7,40l-1.4-0.7l1.1-0.6l0.7,1.1L47.7,40z M48.8,39.4l-0.7-1.1l1.4-0.7l0.7,1.1L48.8,39.4z M50.9,38.4l-0.7-1.1l1.4-0.7l0.7,1.1
		L50.9,38.4z M53.1,37.3l-0.7-1.1l1.4-0.7l0.7,1.1L53.1,37.3z M56.6,35.5l-1.4,0.7l-0.7-1.1l1.4-0.7L56.6,35.5z M55.2,33.4l-1.4,0.7
		l-0.7-1.1l1.4-0.7L55.2,33.4z"/>
	<path fill="#825012" d="M22.6,27.1v-5.7L12.7,6.5L8.5,8.7L41,57.5v5.7L50.9,78l4.2-2.1L22.6,27.1z M21.6,25.6l-2.5-3.8l0.7-0.4
		l1.8,2.7V25.6z M13.5,11.8l1.4,2.1l-0.7,0.4l-1.4-2.1L13.5,11.8z M15.6,15l1.4,2.1l-0.7,0.4l-1.4-2.1L15.6,15z M17.7,18.2l1.4,2.1
		l-0.7,0.4L17,18.6L17.7,18.2z M21.6,21.3v1.4L20.5,21l0.7-0.4L21.6,21.3z M20.5,19.6L19.8,20l-1.4-2.1l0.7-0.4L20.5,19.6z
		 M18.4,16.4l-0.7,0.4l-1.4-2.1l0.7-0.4L18.4,16.4z M16.3,13.3l-0.7,0.4l-1.4-2.1l0.7-0.4L16.3,13.3z M12.7,8l1.4,2.1l-0.7,0.4
		L12,8.3L12.7,8z M11.3,8.7l1.4,2.1L12,11.1L10.6,9L11.3,8.7z M42,59l2.5,3.8l-0.7,0.4L42,60.4V59z M50.2,72.7l-1.4-2.1l0.7-0.4
		l1.4,2.1L50.2,72.7z M48.1,69.5l-1.4-2.1l0.7-0.4l1.4,2.1L48.1,69.5z M46,66.3l-1.4-2.1l0.7-0.4l1.4,2.1L46,66.3z M42,63.2v-1.4
		l1.1,1.7l-0.7,0.4L42,63.2z M43.2,64.9l0.7-0.4l1.4,2.1L44.6,67L43.2,64.9z M45.3,68.1l0.7-0.4l1.4,2.1l-0.7,0.4L45.3,68.1z
		 M47.4,71.2l0.7-0.4l1.4,2.1l-0.7,0.4L47.4,71.2z M50.9,76.5l-1.4-2.1l0.7-0.4l1.4,2.1L50.9,76.5z M52.3,75.8l-1.4-2.1l0.7-0.4
		l1.4,2.1L52.3,75.8z"/>
	<path opacity="0.11" d="M42.4,38.4l5.7,2.8l9.9-5l-4.2-6.4l-21.9,11l-9.2-13.8v-5.7L12.7,6.5L8.5,8.7l21.9,32.9l-9.2,4.6l-5.7-2.8
		l-9.9,5l4.2,6.4l21.9-11L41,57.5v5.7L50.9,78l4.2-2.1L33.3,43L42.4,38.4z M47.7,40l-1.4-0.7l1.1-0.6l0.7,1.1L47.7,40z M48.8,39.4
		l-0.7-1.1l1.4-0.7l0.7,1.1L48.8,39.4z M50.9,38.4l-0.7-1.1l1.4-0.7l0.7,1.1L50.9,38.4z M53.1,37.3l-0.7-1.1l1.4-0.7l0.7,1.1
		L53.1,37.3z M56.6,35.5l-1.4,0.7l-0.7-1.1l1.4-0.7L56.6,35.5z M54.5,32.4l0.7,1.1l-1.4,0.7l-0.7-1.1L54.5,32.4z M52.3,33.4l0.7,1.1
		l-1.4,0.7l-0.7-1.1L52.3,33.4z M50.2,34.5l0.7,1.1l-1.4,0.7l-0.7-1.1L50.2,34.5z M48.1,35.5l0.7,1.1l-1.4,0.7l-0.7-1.1L48.1,35.5z
		 M46,36.6l0.7,1.1l-1.8,0.9l-1.4-0.7L46,36.6z M20.5,19.6L19.8,20l-1.4-2.1l0.7-0.4L20.5,19.6z M18.4,16.4l-0.7,0.4l-1.4-2.1
		l0.7-0.4L18.4,16.4z M16.3,13.3l-0.7,0.4l-1.4-2.1l0.7-0.4L16.3,13.3z M12.7,8l1.4,2.1l-0.7,0.4L12,8.3L12.7,8z M10.6,9l0.7-0.4
		l1.4,2.1L12,11.1L10.6,9z M12.7,12.2l0.7-0.4l1.4,2.1l-0.7,0.4L12.7,12.2z M14.9,15.4l0.7-0.4l1.4,2.1l-0.7,0.4L14.9,15.4z
		 M17,18.6l0.7-0.4l1.4,2.1l-0.7,0.4L17,18.6z M21.6,25.6l-2.5-3.8l0.7-0.4l1.8,2.7V25.6z M21.6,22.7L20.5,21l0.7-0.4l0.4,0.6V22.7z
		 M16,44.5l1.4,0.7l-1.1,0.6l-0.7-1.1L16,44.5z M14.9,45.1l0.7,1.1l-1.4,0.7l-0.7-1.1L14.9,45.1z M12.7,46.1l0.7,1.1L12,47.9
		l-0.7-1.1L12.7,46.1z M10.6,47.2l0.7,1.1L9.9,49l-0.7-1.1L10.6,47.2z M7.1,49l1.4-0.7l0.7,1.1L7.8,50L7.1,49z M9.2,52.2l-0.7-1.1
		l1.4-0.7l0.7,1.1L9.2,52.2z M11.3,51.1L10.6,50l1.4-0.7l0.7,1.1L11.3,51.1z M13.5,50L12.7,49l1.4-0.7l0.7,1.1L13.5,50z M15.6,49
		l-0.7-1.1l1.4-0.7l0.7,1.1L15.6,49z M17.7,47.9L17,46.9l1.8-0.9l1.4,0.7L17.7,47.9z M43.2,64.9l0.7-0.4l1.4,2.1L44.6,67L43.2,64.9z
		 M45.3,68.1l0.7-0.4l1.4,2.1l-0.7,0.4L45.3,68.1z M47.4,71.2l0.7-0.4l1.4,2.1l-0.7,0.4L47.4,71.2z M50.9,76.5l-1.4-2.1l0.7-0.4
		l1.4,2.1L50.9,76.5z M53.1,75.5l-0.7,0.4l-1.4-2.1l0.7-0.4L53.1,75.5z M50.9,72.3l-0.7,0.4l-1.4-2.1l0.7-0.4L50.9,72.3z M48.8,69.1
		l-0.7,0.4l-1.4-2.1l0.7-0.4L48.8,69.1z M46.7,65.9L46,66.3l-1.4-2.1l0.7-0.4L46.7,65.9z M42,59l2.5,3.8l-0.7,0.4L42,60.4V59z
		 M42,61.8l1.1,1.7l-0.7,0.4L42,63.2V61.8z"/>
</g>
</svg>
