<?xml version="1.0" encoding="utf-8"?>
<!-- Generator: Adobe Illustrator 19.0.1, SVG Export Plug-In . SVG Version: 6.00 Build 0)  -->
<svg version="1.1" id="Capa_1" xmlns="http://www.w3.org/2000/svg" xmlns:xlink="http://www.w3.org/1999/xlink" x="0px" y="0px"
	 viewBox="-420 511.7 58.3 58.3" style="enable-background:new -420 511.7 58.3 58.3;" xml:space="preserve">
<style type="text/css">
	.st0{fill:#010002;}
</style>
<g>
	<g>
		<path class="st0" d="M-408.6,557.3c-2.3,2.3,1.3,5.9,3.6,3.5c3.1-3.2,5.5-7,6.8-11.2c0.9,0.1,1.7-0.1,2.5-0.4
			c1.6-0.1,3.1-0.2,4.6,0c0.1,2.5-1.5,4.2-3.1,6.4c-1.9,2.6,2.4,5.1,4.3,2.5c2.3-3.2,4.5-6.2,3.7-10.4c-0.5-2.8-2.2-3.3-4.8-3.6
			c-0.8-0.1-1.5-0.1-2.3-0.1c0.1-1.4,0.5-2.6,1.4-3.7c0.7,0.5,1.5,0.9,2.5,0.7c2.2-0.3,3.7-1.9,4.8-3.7v3.6c0,0,3.8-4.2,5.3-4.3
			c1.3,0-3.4,0-4.9,0c0.1-0.1,0.1-0.2,0.2-0.3c1.5-2.5-1.8-4.8-3.7-3.2c-0.7-2.7-3.7-4.9-6.7-2.9c-5.2,3.3-8.6,8.5-8.3,14.8
			c0,0.3,0.1,0.7,0.1,1C-403.4,550.4-405.5,554.1-408.6,557.3z"/>
		<path class="st0" d="M-382,525.7c0.1-0.7-0.4-1.3-1.1-1.8l0.1-0.8c0.2-1.1-0.6-2.2-1.8-2.3l-4.5-0.6c-1.1-0.2-2.2,0.6-2.3,1.8
			l-0.1,1c0,0.3,0,0.5,0.2,0.6c-0.2,0.4-0.4,0.9-0.4,1.3c-0.3,2.3,1.3,4.5,3.6,4.8c2.3,0.3,4.5-1.3,4.8-3.6c0-0.1,0-0.1,0-0.2
			C-382.8,526.1-382.1,526.3-382,525.7z"/>
		<path class="st0" d="M-419.1,541.3c6.3,15.5,17.8,8.6,15.1,1.9c-1.2-8,9-13.5,9-13.5C-427.1,520.1-419.1,541.3-419.1,541.3z"/>
	</g>
</g>
<g>
	<g>
		<path d="M-361.9,540.2l-15.4-15.4c-0.4-0.4-0.9-0.4-1.3,0c-0.4,0.4-0.4,0.9,0,1.3l14.8,14.8l-14.8,14.8c-0.4,0.4-0.4,0.9,0,1.3
			c0.2,0.2,0.4,0.3,0.7,0.3c0.2,0,0.5-0.1,0.7-0.3l15.4-15.4C-361.6,541.1-361.6,540.5-361.9,540.2z"/>
	</g>
	<g>
	</g>
	<g>
	</g>
	<g>
	</g>
	<g>
	</g>
	<g>
	</g>
	<g>
	</g>
	<g>
	</g>
	<g>
	</g>
	<g>
	</g>
	<g>
	</g>
	<g>
	</g>
	<g>
	</g>
	<g>
	</g>
	<g>
	</g>
	<g>
	</g>
</g>
</svg>
