<?xml version="1.0" encoding="iso-8859-1"?>
<!-- Generator: Adobe Illustrator 19.0.0, SVG Export Plug-In . SVG Version: 6.00 Build 0)  -->
<svg version="1.1" id="Layer_1" xmlns="http://www.w3.org/2000/svg" xmlns:xlink="http://www.w3.org/1999/xlink" x="0px" y="0px"
	 viewBox="0 0 504.133 504.133" style="enable-background:new 0 0 504.133 504.133;" xml:space="preserve">
<path style="fill:#6D4417;" d="M207.733,322.231c-4.08,4.08-10.673,4.08-14.761,0l-11.067-11.075c-4.08-4.08-4.08-10.673,0-14.753
	L475.241,3.066c4.064-4.08,10.673-4.08,14.753,0l11.075,11.075c4.088,4.08,4.08,10.673,0,14.738L207.733,322.231z"/>
<path style="fill:#895D24;" d="M488.884,2.318c-4.08-3.135-9.901-3.017-13.643,0.74L181.905,296.395
	c-3.749,3.742-3.875,9.57-0.725,13.643c4.08,3.135,9.893,3.017,13.635-0.725L488.16,15.976
	C491.901,12.227,492.019,6.414,488.884,2.318z"/>
<path style="fill:#80C1D1;" d="M152.374,377.567c-4.064,4.08-10.673,4.08-14.753,0.016l-11.059-11.091
	c-4.096-4.064-4.096-10.673,0-14.753l57.179-57.186c4.088-4.08,10.689-4.08,14.761,0l11.083,11.059
	c4.072,4.096,4.072,10.689-0.008,14.769L152.374,377.567z"/>
<path style="fill:#9CD8E2;" d="M197.761,294.048c-4.104-3.434-10.153-3.356-14.021,0.504l-57.179,57.186
	c-3.875,3.86-3.962,9.909-0.504,14.029c4.104,3.45,10.153,3.356,14.029-0.488l61.109-61.109
	C205.063,300.294,201.203,298.167,197.761,294.048z"/>
<path style="fill:#80C1D1;" d="M200.66,465.812c-4.08,4.08-10.681,4.08-14.761,0L38.301,318.23
	c-4.064-4.096-4.064-10.673,0.016-14.769l13.832-13.832c4.088-4.064,10.673-4.08,14.761,0l147.574,147.582
	c4.096,4.096,4.096,10.689,0,14.753L200.66,465.812z"/>
<path style="fill:#9CD8E2;" d="M66.91,289.629c-3.206-3.198-7.932-3.797-11.808-1.953c-1.827,3.844-1.237,8.586,1.969,11.8
	l147.582,147.566c3.198,3.214,7.94,3.812,11.8,1.985c1.843-3.875,1.245-8.602-1.969-11.815L66.91,289.629z"/>
<g>
	<path style="fill:#80C1D1;" d="M10.653,350.029c-2.442,2.45-6.38,2.434-8.822,0l0,0c-2.442-2.434-2.442-6.388,0.008-8.83
		l37.604-37.597c2.434-2.434,6.38-2.434,8.806,0l0,0c2.45,2.434,2.45,6.388,0.008,8.814L10.653,350.029z"/>
	<path style="fill:#80C1D1;" d="M32.409,371.785c-2.45,2.434-6.396,2.434-8.822,0l0,0c-2.442-2.45-2.442-6.388,0.008-8.83
		l37.597-37.597c2.442-2.434,6.388-2.434,8.814,0l0,0c2.442,2.434,2.442,6.388,0,8.814L32.409,371.785z"/>
	<path style="fill:#80C1D1;" d="M54.157,393.517c-2.45,2.45-6.388,2.45-8.83,0l0,0c-2.434-2.434-2.434-6.372,0.016-8.814
		l37.597-37.597c2.434-2.434,6.372-2.45,8.83,0l0,0c2.434,2.434,2.426,6.388,0,8.814L54.157,393.517z"/>
	<path style="fill:#80C1D1;" d="M75.913,415.273c-2.45,2.45-6.372,2.458-8.83,0l0,0c-2.434-2.434-2.434-6.357,0.024-8.799
		l37.589-37.612c2.458-2.434,6.388-2.434,8.83,0l0,0c2.434,2.45,2.418,6.372,0,8.814L75.913,415.273z"/>
	<path style="fill:#80C1D1;" d="M97.669,437.029c-2.45,2.458-6.38,2.458-8.83,0.016l0,0c-2.434-2.45-2.434-6.372,0.024-8.83
		l37.597-37.597c2.442-2.434,6.365-2.45,8.822,0l0,0c2.434,2.434,2.434,6.372-0.016,8.799L97.669,437.029z"/>
	<path style="fill:#80C1D1;" d="M119.425,458.785c-2.442,2.45-6.38,2.45-8.83,0l0,0c-2.434-2.434-2.434-6.388,0.008-8.814
		l37.589-37.597c2.45-2.45,6.396-2.45,8.83,0l0,0c2.45,2.434,2.45,6.388,0.008,8.83L119.425,458.785z"/>
	<path style="fill:#80C1D1;" d="M141.173,480.534c-2.45,2.45-6.396,2.434-8.83,0l0,0c-2.442-2.434-2.442-6.372,0.016-8.814
		l37.597-37.612c2.442-2.434,6.388-2.434,8.814,0l0,0c2.434,2.45,2.442,6.388,0,8.814L141.173,480.534z"/>
	<path style="fill:#80C1D1;" d="M162.921,502.29c-2.45,2.45-6.38,2.45-8.838,0l0,0c-2.426-2.434-2.426-6.372,0.032-8.814
		l37.597-37.612c2.434-2.434,6.372-2.434,8.814,0l0,0c2.442,2.45,2.442,6.388,0,8.814L162.921,502.29z"/>
</g>
<g>
</g>
<g>
</g>
<g>
</g>
<g>
</g>
<g>
</g>
<g>
</g>
<g>
</g>
<g>
</g>
<g>
</g>
<g>
</g>
<g>
</g>
<g>
</g>
<g>
</g>
<g>
</g>
<g>
</g>
</svg>
