<?xml version="1.0" encoding="utf-8"?>
<!-- Generator: Adobe Illustrator 19.0.1, SVG Export Plug-In . SVG Version: 6.00 Build 0)  -->
<svg version="1.1" id="Layer_1" xmlns="http://www.w3.org/2000/svg" xmlns:xlink="http://www.w3.org/1999/xlink" x="0px" y="0px"
	 viewBox="-223 225 512 512" style="enable-background:new -223 225 512 512;" xml:space="preserve">
<style type="text/css">
	.st0{fill:#564520;}
	.st1{fill:#382A15;}
</style>
<g>
	<path class="st0" d="M198.1,647.9c-69.6,66.9-206.3,37-305.2-66.7s-122.7-242-53.1-308.8S46.1,235.3,145,339S267.7,581,198.1,647.9
		z"/>
	<g>
		<g>
			<g>
				<path class="st1" d="M210.5,361.1C111.1,261.4,7.9,232.9-61.1,226.6c-75.7-6.9-128.1,10.4-130.3,11.2c-8.9,3-15.8,10-18.8,18.9
					c-0.7,2.2-18.1,54.8-11.2,130.7c6.3,69.3,34.7,172.7,134,272.4C-35.7,711.6,13.5,737,62.7,737c5.6,0,11.2-0.3,16.7-1
					c55.2-6.4,99-44.1,131-76.2c32-32.1,69.5-76,75.9-131.4C292.8,473.5,267.9,418.7,210.5,361.1z M226.8,521.5
					c-3.3,28.9-21.5,58.4-58.8,95.8c-37.3,37.4-66.8,55.6-95.5,59c-35.4,4.1-73.8-15.2-117.5-59c-68.8-69-108-147.3-116.4-232.5
					c-4.2-42,0.5-75.5,4.3-93.8c45.8-9.5,188.4-24.6,325.2,112.6C211.7,447.4,230.9,486,226.8,521.5z"/>
			</g>
		</g>
		<g>
			<g>
				<path class="st1" d="M20.9,558.6c-1.7-1.6-3.4-3.2-5.1-4.9c-11.7-11.7-30.7-11.8-42.4,0c-11.7,11.7-11.7,30.8,0,42.5
					c2.3,2.3,4.5,4.5,6.8,6.5c5.8,5.4,13.1,8,20.4,8c8.1,0,16.1-3.2,22-9.7C33.8,588.9,33,569.9,20.9,558.6z"/>
			</g>
		</g>
		<g>
			<g>
				<path class="st1" d="M147.5,553.7c-11.7-11.7-30.7-11.7-42.4,0c-14,14-25.1,22-35,25c-15.8,4.9-24.7,21.7-19.8,37.6
					c4,12.9,15.8,21.2,28.6,21.2c2.9,0,5.9-0.4,8.8-1.3c25.8-8,46.5-26.6,59.8-40C159.2,584.5,159.2,565.4,147.5,553.7z"/>
			</g>
		</g>
		<g>
		</g>
		<g>
		</g>
		<g>
		</g>
		<g>
		</g>
		<g>
		</g>
		<g>
		</g>
		<g>
		</g>
		<g>
		</g>
		<g>
		</g>
		<g>
		</g>
		<g>
		</g>
		<g>
		</g>
		<g>
		</g>
		<g>
		</g>
		<g>
		</g>
	</g>
</g>
</svg>
