<?xml version="1.0" encoding="iso-8859-1"?>
<!-- Generator: Adobe Illustrator 19.0.0, SVG Export Plug-In . SVG Version: 6.00 Build 0)  -->
<svg version="1.1" id="Layer_1" xmlns="http://www.w3.org/2000/svg" xmlns:xlink="http://www.w3.org/1999/xlink" x="0px" y="0px"
	 viewBox="0 0 511.844 511.844" style="enable-background:new 0 0 511.844 511.844;" xml:space="preserve">
<rect x="214.095" y="87.139" transform="matrix(-0.7071 -0.7071 0.7071 -0.7071 206.4398 638.3353)" style="fill:#A85D5D;" width="42.657" height="378.546"/>
<path style="fill:#CBD0D8;" d="M391.207,15.081C333.709,72.571,353.5,158.342,353.5,158.342s85.77,19.798,143.268-37.7
	L391.207,15.081z M403.156,139.692c-12.105,1.039-22.899,0.602-30.865-0.148c-0.734-7.958-1.172-18.744-0.141-30.865
	c1.233-14.355,4.279-27.796,9.059-39.949c3.094-7.857,6.92-15.214,11.481-22.001l72.431,72.431
	c-6.795,4.553-14.151,8.388-22.008,11.473C430.96,135.412,417.512,138.458,403.156,139.692z"/>
<polygon style="fill:#EC5564;" points="496.768,120.643 391.207,15.081 406.28,0 511.842,105.562 "/>
<polygon style="fill:#CBD0D8;" points="350.656,191.348 320.494,161.185 350.656,131.03 380.819,161.185 "/>
<g style="opacity:0.2;">
	<path style="fill:#FFFFFF;" d="M159.777,352.064c-2.078-2.077-2.078-5.451,0-7.545l190.879-190.871
		c2.078-2.077,5.451-2.077,7.545,0c2.077,2.085,2.077,5.459,0,7.545L167.322,352.064
		C165.244,354.142,161.87,354.142,159.777,352.064z"/>
</g>
<path style="fill:#CBD0D8;" d="M174.866,336.99l-67.87-67.87C-43.864,419.887,8.964,502.877,8.964,502.877
	s82.99,52.843,233.757-98.032L174.866,336.99z"/>
<path style="fill:#A9B1BC;" d="M150.359,376.571c4.17-4.17,4.17-10.918,0-15.088c-4.171-4.156-10.919-4.156-15.074,0l0,0l0,0
	l-58.451,58.45l0,0c-4.17,4.171-4.17,10.919,0,15.089c4.171,4.155,10.919,4.155,15.074,0L150.359,376.571L150.359,376.571z"/>
<g>
</g>
<g>
</g>
<g>
</g>
<g>
</g>
<g>
</g>
<g>
</g>
<g>
</g>
<g>
</g>
<g>
</g>
<g>
</g>
<g>
</g>
<g>
</g>
<g>
</g>
<g>
</g>
<g>
</g>
</svg>
