<?xml version="1.0" encoding="iso-8859-1"?>
<!-- Generator: Adobe Illustrator 19.0.0, SVG Export Plug-In . SVG Version: 6.00 Build 0)  -->
<svg version="1.1" id="Layer_1" xmlns="http://www.w3.org/2000/svg" xmlns:xlink="http://www.w3.org/1999/xlink" x="0px" y="0px"
	 viewBox="0 0 511.998 511.998" style="enable-background:new 0 0 511.998 511.998;" xml:space="preserve">
<g>
	<path style="fill:#FFEA84;" d="M305.469,256.5L256,238.909l-49.469,17.59l1.444-52.481l-32.016-41.61l50.358-14.845l29.681-43.307
		l29.681,43.307l50.358,14.845l-32.016,41.61L305.469,256.5z"/>
	<path style="fill:#FFEA84;" d="M129.507,256.5l-49.467-17.59L30.572,256.5l1.444-52.481L0,162.407l50.36-14.846l29.681-43.307
		l29.68,43.308l50.359,14.845l-32.016,41.61L129.507,256.5z"/>
	<path style="fill:#FFEA84;" d="M481.427,256.5l-49.469-17.59l-49.467,17.59l1.442-52.481l-32.016-41.61l50.359-14.845l29.68-43.308
		l29.681,43.307l50.36,14.846l-32.018,41.61L481.427,256.5z"/>
	<path style="fill:#FFEA84;" d="M393.447,407.743l-49.469-17.59l-49.469,17.59l1.444-52.481l-32.016-41.61l50.359-14.845
		l29.68-43.308l29.681,43.308l50.358,14.845l-32.016,41.61L393.447,407.743z"/>
	<path style="fill:#FFEA84;" d="M217.489,407.743l-49.469-17.59l-49.469,17.59l1.444-52.481l-32.015-41.611l50.358-14.845
		l29.681-43.308l29.68,43.308l50.359,14.845l-32.016,41.61L217.489,407.743z"/>
</g>
<g>
	<path style="fill:#FFDB00;" d="M481.427,256.5l-49.469-17.59l-49.467,17.59l1.442-52.481l-32.016-41.61l50.359-14.845l29.68-43.308
		l29.681,43.307l50.36,14.846l-32.018,41.61L481.427,256.5z"/>
	<path style="fill:#FFDB00;" d="M393.447,407.743l-49.469-17.59l-49.469,17.59l1.444-52.481l-32.016-41.61l50.359-14.845
		l29.68-43.308l29.681,43.308l50.358,14.845l-32.016,41.61L393.447,407.743z"/>
	<polygon style="fill:#FFDB00;" points="336.039,162.407 285.681,147.562 256,104.256 256,238.909 305.469,256.5 304.023,204.017 	
		"/>
</g>
<g>
</g>
<g>
</g>
<g>
</g>
<g>
</g>
<g>
</g>
<g>
</g>
<g>
</g>
<g>
</g>
<g>
</g>
<g>
</g>
<g>
</g>
<g>
</g>
<g>
</g>
<g>
</g>
<g>
</g>
</svg>
