<?xml version="1.0" encoding="utf-8"?>
<!-- Generator: Adobe Illustrator 19.0.1, SVG Export Plug-In . SVG Version: 6.00 Build 0)  -->
<svg version="1.1" id="thief" xmlns="http://www.w3.org/2000/svg" xmlns:xlink="http://www.w3.org/1999/xlink" x="0px" y="0px"
	 viewBox="-223 225 512 512" style="enable-background:new -223 225 512 512;" xml:space="preserve">
<style type="text/css">
	.st0{fill:#212121;}
	.st1{fill:#545554;}
	.st2{fill:#F2F2F2;}
	.st3{fill:#FFFFFF;}
</style>
<g>
	<path class="st0" d="M36.4,700.1c-92.4,0-167.5-92.1-167.5-205.2c2.2,2.1,4.5,4.1,6.7,6.2c0.4,16.4,3.9,75.4,45.5,126
		c10,12.2,49.3,59.9,113.7,61.6c66.9,1.8,109.4-47.5,117.5-57.4c43.1-52.3,42.1-114.7,41.7-127.4c3.3-3,6.6-6,9.9-9
		C203.9,608.1,128.8,700.1,36.4,700.1z"/>
</g>
<g>
	<path class="st0" d="M-130.2,422.8c0,0,0.1-167.2,166.6-156.7v244.2c-22.5-0.2-45.9-1.1-70.2-2.6c-39.7-2.5-77-6.7-111.6-11.9
		c-3.4-1.4-9-4.2-13.2-10c-5.5-7.4-5.5-15.3-5.5-24c0.1-13.9,0.1-27.1,10-34.7C-145.7,420.6-134.6,422-130.2,422.8z"/>
	<path class="st1" d="M203,422.8c0,0-0.1-167.2-166.6-156.7v244.2c22.5-0.2,45.9-1.1,70.2-2.6c39.7-2.5,77-6.7,111.6-11.9
		c3.4-1.4,9-4.2,13.2-10c5.5-7.4,5.5-15.3,5.5-24c-0.1-13.9-0.1-27.1-10-34.7C218.4,420.6,207.4,422,203,422.8z"/>
</g>
<path class="st0" d="M-141.4,494.9c0,0,2.2,69.1,88.5,81.5c0,0,58.1,8.5,89.3-44.8v-22.1C36.4,509.5-30.7,511-141.4,494.9z"/>
<path class="st2" d="M-86.2,525.6c0,0,1.8,18.4,36.8,20.2c0,0,27.1,5.1,40.9-20.2H-86.2z"/>
<path class="st0" d="M214.2,494.9c0,0-2.2,69.1-88.5,81.5c0,0-58.1,8.5-89.3-44.8v-22.1C36.4,509.5,103.5,511,214.2,494.9z"/>
<path class="st3" d="M158.9,525.6c0,0-1.8,18.4-36.8,20.2c0,0-27.1,5.1-40.9-20.2H158.9z"/>
</svg>
