<?xml version="1.0" encoding="utf-8"?>
<!-- Generator: Adobe Illustrator 19.0.1, SVG Export Plug-In . SVG Version: 6.00 Build 0)  -->
<svg version="1.1" xmlns="http://www.w3.org/2000/svg" xmlns:xlink="http://www.w3.org/1999/xlink" x="0px" y="0px"
	 viewBox="0 0 960 960" style="enable-background:new 0 0 960 960;" xml:space="preserve">
<style type="text/css">
	.st0{fill:#825012;}
	.st1{opacity:0.15;fill:#FFFFFF;enable-background:new    ;}
	.st2{display:none;}
	.st3{display:inline;}
	.st4{fill:#564520;}
	.st5{fill:#382A15;}
	.st6{display:inline;fill:#99CC33;}
	.st7{fill:#88C057;}
	.st8{fill:#A4E869;}
	.st9{fill:#659C35;}
	.st10{fill:#F2681C;}
	.st11{fill:#ED8F20;}
	.st12{fill:#DD7017;}
</style>
<g id="base">
	<rect class="st0" width="960" height="960"/>
</g>
<g id="灰土">
	<g>
		<g>
			<g>
				<polygon class="st1" points="261.1,685.9 244.3,647.5 264.9,596.6 248.1,558.2 231.3,519.9 251.2,483.8 271.2,447.8 
					254.4,409.4 275,358.5 258.2,320.1 241.3,281.8 261.3,245.7 281.2,209.7 264.4,171.3 285,120.4 268.2,82 251.4,43.7 271.4,7.6 
					197.9,3.1 177.9,39.1 194.1,92.3 192.2,137 190.3,181.6 207.7,205.1 187.8,241.1 167.8,277.2 184,330.4 182.1,375.1 
					180.2,419.7 197.7,443.2 177.7,479.2 157.8,515.3 173.9,568.5 172.1,613.2 170.2,657.8 187.6,681.3 167.6,717.3 147.7,753.4 
					163.9,806.6 162,851.3 160.1,895.9 177.5,919.4 157.6,955.4 231.1,960 251,923.9 234.2,885.6 254.8,834.7 238,796.3 221.2,758 
					241.2,721.9 				"/>
			</g>
			<g>
				<polygon class="st1" points="311.4,685.9 294.6,647.5 315.2,596.6 298.4,558.2 281.6,519.9 301.6,483.8 321.5,447.8 
					304.7,409.4 325.3,358.5 308.5,320.1 291.7,281.8 311.6,245.7 331.6,209.7 314.8,171.3 335.4,120.4 318.6,82 301.7,43.7 
					321.7,7.6 248.2,3.1 228.2,39.1 244.4,92.3 242.5,137 240.6,181.6 258.1,205.1 238.1,241.1 218.2,277.2 234.3,330.4 
					232.5,375.1 230.6,419.7 248,443.2 228,479.2 208.1,515.3 224.3,568.5 222.4,613.2 220.5,657.8 237.9,681.3 218,717.3 
					198,753.4 214.2,806.6 212.3,851.3 210.4,895.9 227.9,919.4 207.9,955.4 281.4,960 301.4,923.9 284.6,885.6 305.1,834.7 
					288.3,796.3 271.5,758 291.5,721.9 				"/>
			</g>
		</g>
		<g>
			<g>
				<polygon class="st1" points="510.3,685.9 493.5,647.5 514.1,596.6 497.2,558.2 480.4,519.9 500.4,483.8 520.3,447.8 
					503.5,409.4 524.1,358.5 507.3,320.1 490.5,281.8 510.5,245.7 530.4,209.7 513.6,171.3 534.2,120.4 517.4,82 500.6,43.7 
					520.5,7.6 447,3.1 427.1,39.1 443.2,92.3 441.4,137 439.5,181.6 456.9,205.1 437,241.1 417,277.2 433.2,330.4 431.3,375.1 
					429.4,419.7 446.8,443.2 426.9,479.2 406.9,515.3 423.1,568.5 421.2,613.2 419.3,657.8 436.8,681.3 416.8,717.3 396.9,753.4 
					413,806.6 411.2,851.3 409.3,895.9 426.7,919.4 406.7,955.4 480.3,960 500.2,923.9 483.4,885.6 504,834.7 487.2,796.3 
					470.4,758 490.3,721.9 				"/>
			</g>
			<g>
				<polygon class="st1" points="560.6,685.9 543.8,647.5 564.4,596.6 547.6,558.2 530.8,519.9 550.7,483.8 570.7,447.8 
					553.9,409.4 574.5,358.5 557.6,320.1 540.8,281.8 560.8,245.7 580.7,209.7 563.9,171.3 584.5,120.4 567.7,82 550.9,43.7 
					570.9,7.6 497.4,3.1 477.4,39.1 493.6,92.3 491.7,137 489.8,181.6 507.2,205.1 487.3,241.1 467.3,277.2 483.5,330.4 
					481.6,375.1 479.7,419.7 497.2,443.2 477.2,479.2 457.3,515.3 473.4,568.5 471.6,613.2 469.7,657.8 487.1,681.3 467.1,717.3 
					447.2,753.4 463.4,806.6 461.5,851.3 459.6,895.9 477,919.4 457.1,955.4 530.6,960 550.5,923.9 533.7,885.6 554.3,834.7 
					537.5,796.3 520.7,758 540.7,721.9 				"/>
			</g>
		</g>
		<g>
			<polygon class="st1" points="759.4,685.9 742.6,647.5 763.2,596.6 746.4,558.2 729.6,519.9 749.6,483.8 769.5,447.8 752.7,409.4 
				773.3,358.5 756.5,320.1 739.7,281.8 759.6,245.7 779.6,209.7 762.8,171.3 783.4,120.4 766.6,82 749.7,43.7 769.7,7.6 696.2,3.1 
				676.2,39.1 692.4,92.3 690.5,137 688.6,181.6 706.1,205.1 686.1,241.1 666.2,277.2 682.3,330.4 680.5,375.1 678.6,419.7 
				696,443.2 676,479.2 656.1,515.3 672.3,568.5 670.4,613.2 668.5,657.8 685.9,681.3 666,717.3 646,753.4 662.2,806.6 660.3,851.3 
				658.4,895.9 675.9,919.4 655.9,955.4 729.4,960 749.4,923.9 732.6,885.6 753.1,834.7 736.3,796.3 719.5,758 739.5,721.9 			"/>
			<polygon class="st1" points="809.8,685.9 793,647.5 813.5,596.6 796.7,558.2 779.9,519.9 799.9,483.8 819.8,447.8 803,409.4 
				823.6,358.5 806.8,320.1 790,281.8 810,245.7 829.9,209.7 813.1,171.3 833.7,120.4 816.9,82 800.1,43.7 820,7.6 746.5,3.1 
				726.6,39.1 742.7,92.3 740.9,137 739,181.6 756.4,205.1 736.4,241.1 716.5,277.2 732.7,330.4 730.8,375.1 728.9,419.7 
				746.3,443.2 726.4,479.2 706.4,515.3 722.6,568.5 720.7,613.2 718.8,657.8 736.3,681.3 716.3,717.3 696.4,753.4 712.5,806.6 
				710.6,851.3 708.8,895.9 726.2,919.4 706.2,955.4 779.8,960 799.7,923.9 782.9,885.6 803.5,834.7 786.7,796.3 769.9,758 
				789.8,721.9 			"/>
		</g>
	</g>
</g>
<g id="seed" class="st2">
	<g class="st3">
		
			<ellipse transform="matrix(0.6915 0.7224 -0.7224 0.6915 124.7788 -156.5932)" class="st4" cx="245.7" cy="67.8" rx="9.9" ry="6.6"/>
		<g>
			<g>
				<g>
					<path class="st5" d="M253,64c-3.8-3.8-7.7-4.9-10.3-5.1c-2.9-0.3-4.9,0.4-5,0.4c-0.3,0.1-0.6,0.4-0.7,0.7c0,0.1-0.7,2.1-0.4,5
						c0.2,2.6,1.3,6.6,5.1,10.3c2,2,3.8,2.9,5.7,2.9c0.2,0,0.4,0,0.6,0c2.1-0.2,3.8-1.7,5-2.9c1.2-1.2,2.6-2.9,2.9-5
						C256.1,68.3,255.2,66.2,253,64z M253.6,70.1c-0.1,1.1-0.8,2.2-2.2,3.6s-2.5,2.1-3.6,2.2c-1.3,0.2-2.8-0.6-4.5-2.2
						c-2.6-2.6-4.1-5.6-4.4-8.8c-0.2-1.6,0-2.9,0.2-3.6c1.7-0.4,7.2-0.9,12.4,4.3C253.1,67.3,253.8,68.8,253.6,70.1z"/>
				</g>
			</g>
			<g>
				<g>
					<path class="st5" d="M245.8,71.5c-0.1-0.1-0.1-0.1-0.2-0.2c-0.4-0.4-1.2-0.4-1.6,0c-0.4,0.4-0.4,1.2,0,1.6
						c0.1,0.1,0.2,0.2,0.3,0.2c0.2,0.2,0.5,0.3,0.8,0.3c0.3,0,0.6-0.1,0.8-0.4C246.3,72.7,246.2,71.9,245.8,71.5z"/>
				</g>
			</g>
			<g>
				<g>
					<path class="st5" d="M250.6,71.3c-0.4-0.4-1.2-0.4-1.6,0c-0.5,0.5-1,0.8-1.3,0.9c-0.6,0.2-0.9,0.8-0.8,1.4
						c0.2,0.5,0.6,0.8,1.1,0.8c0.1,0,0.2,0,0.3-0.1c1-0.3,1.8-1,2.3-1.5C251.1,72.5,251.1,71.8,250.6,71.3z"/>
				</g>
			</g>
			<g>
			</g>
			<g>
			</g>
			<g>
			</g>
			<g>
			</g>
			<g>
			</g>
			<g>
			</g>
			<g>
			</g>
			<g>
			</g>
			<g>
			</g>
			<g>
			</g>
			<g>
			</g>
			<g>
			</g>
			<g>
			</g>
			<g>
			</g>
			<g>
			</g>
		</g>
	</g>
	<g class="st3">
		
			<ellipse transform="matrix(0.6915 0.7224 -0.7224 0.6915 831.4875 -285.2738)" class="st4" cx="749.7" cy="830.8" rx="9.9" ry="6.6"/>
		<g>
			<g>
				<g>
					<path class="st5" d="M757,827c-3.8-3.8-7.7-4.9-10.3-5.1c-2.9-0.3-4.9,0.4-5,0.4c-0.3,0.1-0.6,0.4-0.7,0.7c0,0.1-0.7,2.1-0.4,5
						c0.2,2.6,1.3,6.6,5.1,10.3c2,2,3.8,2.9,5.7,2.9c0.2,0,0.4,0,0.6,0c2.1-0.2,3.8-1.7,5-2.9c1.2-1.2,2.6-2.9,2.9-5
						C760.1,831.3,759.2,829.2,757,827z M757.6,833.1c-0.1,1.1-0.8,2.2-2.2,3.6c-1.4,1.4-2.5,2.1-3.6,2.2c-1.3,0.2-2.8-0.6-4.5-2.2
						c-2.6-2.6-4.1-5.6-4.4-8.8c-0.2-1.6,0-2.9,0.2-3.6c1.7-0.4,7.2-0.9,12.4,4.3C757.1,830.3,757.8,831.8,757.6,833.1z"/>
				</g>
			</g>
			<g>
				<g>
					<path class="st5" d="M749.8,834.5c-0.1-0.1-0.1-0.1-0.2-0.2c-0.4-0.4-1.2-0.4-1.6,0c-0.4,0.4-0.4,1.2,0,1.6
						c0.1,0.1,0.2,0.2,0.3,0.2c0.2,0.2,0.5,0.3,0.8,0.3c0.3,0,0.6-0.1,0.8-0.4C750.3,835.7,750.2,834.9,749.8,834.5z"/>
				</g>
			</g>
			<g>
				<g>
					<path class="st5" d="M754.6,834.3c-0.4-0.4-1.2-0.4-1.6,0c-0.5,0.5-1,0.8-1.3,0.9c-0.6,0.2-0.9,0.8-0.8,1.4
						c0.2,0.5,0.6,0.8,1.1,0.8c0.1,0,0.2,0,0.3-0.1c1-0.3,1.8-1,2.3-1.5C755.1,835.5,755.1,834.8,754.6,834.3z"/>
				</g>
			</g>
			<g>
			</g>
			<g>
			</g>
			<g>
			</g>
			<g>
			</g>
			<g>
			</g>
			<g>
			</g>
			<g>
			</g>
			<g>
			</g>
			<g>
			</g>
			<g>
			</g>
			<g>
			</g>
			<g>
			</g>
			<g>
			</g>
			<g>
			</g>
			<g>
			</g>
		</g>
	</g>
	<g class="st3">
		
			<ellipse transform="matrix(0.6915 0.7224 -0.7224 0.6915 205.366 -133.2792)" class="st4" cx="258.7" cy="173.8" rx="9.9" ry="6.6"/>
		<g>
			<g>
				<g>
					<path class="st5" d="M266,170c-3.8-3.8-7.7-4.9-10.3-5.1c-2.9-0.3-4.9,0.4-5,0.4c-0.3,0.1-0.6,0.4-0.7,0.7c0,0.1-0.7,2.1-0.4,5
						c0.2,2.6,1.3,6.6,5.1,10.3c2,2,3.8,2.9,5.7,2.9c0.2,0,0.4,0,0.6,0c2.1-0.2,3.8-1.7,5-2.9c1.2-1.2,2.6-2.9,2.9-5
						C269.1,174.3,268.2,172.2,266,170z M266.6,176.1c-0.1,1.1-0.8,2.2-2.2,3.6c-1.4,1.4-2.5,2.1-3.6,2.2c-1.3,0.2-2.8-0.6-4.5-2.2
						c-2.6-2.6-4.1-5.6-4.4-8.8c-0.2-1.6,0-2.9,0.2-3.6c1.7-0.4,7.2-0.9,12.4,4.3C266.1,173.3,266.8,174.8,266.6,176.1z"/>
				</g>
			</g>
			<g>
				<g>
					<path class="st5" d="M258.8,177.5c-0.1-0.1-0.1-0.1-0.2-0.2c-0.4-0.4-1.2-0.4-1.6,0c-0.4,0.4-0.4,1.2,0,1.6
						c0.1,0.1,0.2,0.2,0.3,0.2c0.2,0.2,0.5,0.3,0.8,0.3c0.3,0,0.6-0.1,0.8-0.4C259.3,178.7,259.2,177.9,258.8,177.5z"/>
				</g>
			</g>
			<g>
				<g>
					<path class="st5" d="M263.6,177.3c-0.4-0.4-1.2-0.4-1.6,0c-0.5,0.5-1,0.8-1.3,0.9c-0.6,0.2-0.9,0.8-0.8,1.4
						c0.2,0.5,0.6,0.8,1.1,0.8c0.1,0,0.2,0,0.3-0.1c1-0.3,1.8-1,2.3-1.5C264.1,178.5,264.1,177.8,263.6,177.3z"/>
				</g>
			</g>
			<g>
			</g>
			<g>
			</g>
			<g>
			</g>
			<g>
			</g>
			<g>
			</g>
			<g>
			</g>
			<g>
			</g>
			<g>
			</g>
			<g>
			</g>
			<g>
			</g>
			<g>
			</g>
			<g>
			</g>
			<g>
			</g>
			<g>
			</g>
			<g>
			</g>
		</g>
	</g>
	<g class="st3">
		
			<ellipse transform="matrix(0.6915 0.7224 -0.7224 0.6915 283.1763 -103.4635)" class="st4" cx="262.7" cy="279.8" rx="9.9" ry="6.6"/>
		<g>
			<g>
				<g>
					<path class="st5" d="M270,276c-3.8-3.8-7.7-4.9-10.3-5.1c-2.9-0.3-4.9,0.4-5,0.4c-0.3,0.1-0.6,0.4-0.7,0.7c0,0.1-0.7,2.1-0.4,5
						c0.2,2.6,1.3,6.6,5.1,10.3c2,2,3.8,2.9,5.7,2.9c0.2,0,0.4,0,0.6,0c2.1-0.2,3.8-1.7,5-2.9c1.2-1.2,2.6-2.9,2.9-5
						C273.1,280.3,272.2,278.2,270,276z M270.6,282.1c-0.1,1.1-0.8,2.2-2.2,3.6c-1.4,1.4-2.5,2.1-3.6,2.2c-1.3,0.2-2.8-0.6-4.5-2.2
						c-2.6-2.6-4.1-5.6-4.4-8.8c-0.2-1.6,0-2.9,0.2-3.6c1.7-0.4,7.2-0.9,12.4,4.3C270.1,279.3,270.8,280.8,270.6,282.1z"/>
				</g>
			</g>
			<g>
				<g>
					<path class="st5" d="M262.8,283.5c-0.1-0.1-0.1-0.1-0.2-0.2c-0.4-0.4-1.2-0.4-1.6,0c-0.4,0.4-0.4,1.2,0,1.6
						c0.1,0.1,0.2,0.2,0.3,0.2c0.2,0.2,0.5,0.3,0.8,0.3c0.3,0,0.6-0.1,0.8-0.4C263.3,284.7,263.2,283.9,262.8,283.5z"/>
				</g>
			</g>
			<g>
				<g>
					<path class="st5" d="M267.6,283.3c-0.4-0.4-1.2-0.4-1.6,0c-0.5,0.5-1,0.8-1.3,0.9c-0.6,0.2-0.9,0.8-0.8,1.4
						c0.2,0.5,0.6,0.8,1.1,0.8c0.1,0,0.2,0,0.3-0.1c1-0.3,1.8-1,2.3-1.5C268.1,284.5,268.1,283.8,267.6,283.3z"/>
				</g>
			</g>
			<g>
			</g>
			<g>
			</g>
			<g>
			</g>
			<g>
			</g>
			<g>
			</g>
			<g>
			</g>
			<g>
			</g>
			<g>
			</g>
			<g>
			</g>
			<g>
			</g>
			<g>
			</g>
			<g>
			</g>
			<g>
			</g>
			<g>
			</g>
			<g>
			</g>
		</g>
	</g>
	<g class="st3">
		
			<ellipse transform="matrix(0.6915 0.7224 -0.7224 0.6915 332.2475 -42.3582)" class="st4" cx="215.7" cy="367.8" rx="9.9" ry="6.6"/>
		<g>
			<g>
				<g>
					<path class="st5" d="M223,364c-3.8-3.8-7.7-4.9-10.3-5.1c-2.9-0.3-4.9,0.4-5,0.4c-0.3,0.1-0.6,0.4-0.7,0.7c0,0.1-0.7,2.1-0.4,5
						c0.2,2.6,1.3,6.6,5.1,10.3c2,2,3.8,2.9,5.7,2.9c0.2,0,0.4,0,0.6,0c2.1-0.2,3.8-1.7,5-2.9c1.2-1.2,2.6-2.9,2.9-5
						C226.1,368.3,225.2,366.2,223,364z M223.6,370.1c-0.1,1.1-0.8,2.2-2.2,3.6c-1.4,1.4-2.5,2.1-3.6,2.2c-1.3,0.2-2.8-0.6-4.5-2.2
						c-2.6-2.6-4.1-5.6-4.4-8.8c-0.2-1.6,0-2.9,0.2-3.6c1.7-0.4,7.2-0.9,12.4,4.3C223.1,367.3,223.8,368.8,223.6,370.1z"/>
				</g>
			</g>
			<g>
				<g>
					<path class="st5" d="M215.8,371.5c-0.1-0.1-0.1-0.1-0.2-0.2c-0.4-0.4-1.2-0.4-1.6,0c-0.4,0.4-0.4,1.2,0,1.6
						c0.1,0.1,0.2,0.2,0.3,0.2c0.2,0.2,0.5,0.3,0.8,0.3c0.3,0,0.6-0.1,0.8-0.4C216.3,372.7,216.2,371.9,215.8,371.5z"/>
				</g>
			</g>
			<g>
				<g>
					<path class="st5" d="M220.6,371.3c-0.4-0.4-1.2-0.4-1.6,0c-0.5,0.5-1,0.8-1.3,0.9c-0.6,0.2-0.9,0.8-0.8,1.4
						c0.2,0.5,0.6,0.8,1.1,0.8c0.1,0,0.2,0,0.3-0.1c1-0.3,1.8-1,2.3-1.5C221.1,372.5,221.1,371.8,220.6,371.3z"/>
				</g>
			</g>
			<g>
			</g>
			<g>
			</g>
			<g>
			</g>
			<g>
			</g>
			<g>
			</g>
			<g>
			</g>
			<g>
			</g>
			<g>
			</g>
			<g>
			</g>
			<g>
			</g>
			<g>
			</g>
			<g>
			</g>
			<g>
			</g>
			<g>
			</g>
			<g>
			</g>
		</g>
	</g>
	<g class="st3">
		
			<ellipse transform="matrix(0.6915 0.7224 -0.7224 0.6915 384.6157 -66.9726)" class="st4" cx="270.7" cy="416.8" rx="9.9" ry="6.6"/>
		<g>
			<g>
				<g>
					<path class="st5" d="M278,413c-3.8-3.8-7.7-4.9-10.3-5.1c-2.9-0.3-4.9,0.4-5,0.4c-0.3,0.1-0.6,0.4-0.7,0.7c0,0.1-0.7,2.1-0.4,5
						c0.2,2.6,1.3,6.6,5.1,10.3c2,2,3.8,2.9,5.7,2.9c0.2,0,0.4,0,0.6,0c2.1-0.2,3.8-1.7,5-2.9c1.2-1.2,2.6-2.9,2.9-5
						C281.1,417.3,280.2,415.2,278,413z M278.6,419.1c-0.1,1.1-0.8,2.2-2.2,3.6c-1.4,1.4-2.5,2.1-3.6,2.2c-1.3,0.2-2.8-0.6-4.5-2.2
						c-2.6-2.6-4.1-5.6-4.4-8.8c-0.2-1.6,0-2.9,0.2-3.6c1.7-0.4,7.2-0.9,12.4,4.3C278.1,416.3,278.8,417.8,278.6,419.1z"/>
				</g>
			</g>
			<g>
				<g>
					<path class="st5" d="M270.8,420.5c-0.1-0.1-0.1-0.1-0.2-0.2c-0.4-0.4-1.2-0.4-1.6,0c-0.4,0.4-0.4,1.2,0,1.6
						c0.1,0.1,0.2,0.2,0.3,0.2c0.2,0.2,0.5,0.3,0.8,0.3c0.3,0,0.6-0.1,0.8-0.4C271.3,421.7,271.2,420.9,270.8,420.5z"/>
				</g>
			</g>
			<g>
				<g>
					<path class="st5" d="M275.6,420.3c-0.4-0.4-1.2-0.4-1.6,0c-0.5,0.5-1,0.8-1.3,0.9c-0.6,0.2-0.9,0.8-0.8,1.4
						c0.2,0.5,0.6,0.8,1.1,0.8c0.1,0,0.2,0,0.3-0.1c1-0.3,1.8-1,2.3-1.5C276.1,421.5,276.1,420.8,275.6,420.3z"/>
				</g>
			</g>
			<g>
			</g>
			<g>
			</g>
			<g>
			</g>
			<g>
			</g>
			<g>
			</g>
			<g>
			</g>
			<g>
			</g>
			<g>
			</g>
			<g>
			</g>
			<g>
			</g>
			<g>
			</g>
			<g>
			</g>
			<g>
			</g>
			<g>
			</g>
			<g>
			</g>
		</g>
	</g>
	<g class="st3">
		
			<ellipse transform="matrix(0.6915 0.7224 -0.7224 0.6915 201.3121 -323.7874)" class="st4" cx="479.7" cy="73.8" rx="9.9" ry="6.6"/>
		<g>
			<g>
				<g>
					<path class="st5" d="M487,70c-3.8-3.8-7.7-4.9-10.3-5.1c-2.9-0.3-4.9,0.4-5,0.4c-0.3,0.1-0.6,0.4-0.7,0.7c0,0.1-0.7,2.1-0.4,5
						c0.2,2.6,1.3,6.6,5.1,10.3c2,2,3.8,2.9,5.7,2.9c0.2,0,0.4,0,0.6,0c2.1-0.2,3.8-1.7,5-2.9c1.2-1.2,2.6-2.9,2.9-5
						C490.1,74.3,489.2,72.2,487,70z M487.6,76.1c-0.1,1.1-0.8,2.2-2.2,3.6s-2.5,2.1-3.6,2.2c-1.3,0.2-2.8-0.6-4.5-2.2
						c-2.6-2.6-4.1-5.6-4.4-8.8c-0.2-1.6,0-2.9,0.2-3.6c1.7-0.4,7.2-0.9,12.4,4.3C487.1,73.3,487.8,74.8,487.6,76.1z"/>
				</g>
			</g>
			<g>
				<g>
					<path class="st5" d="M479.8,77.5c-0.1-0.1-0.1-0.1-0.2-0.2c-0.4-0.4-1.2-0.4-1.6,0c-0.4,0.4-0.4,1.2,0,1.6
						c0.1,0.1,0.2,0.2,0.3,0.2c0.2,0.2,0.5,0.3,0.8,0.3c0.3,0,0.6-0.1,0.8-0.4C480.3,78.7,480.2,77.9,479.8,77.5z"/>
				</g>
			</g>
			<g>
				<g>
					<path class="st5" d="M484.6,77.3c-0.4-0.4-1.2-0.4-1.6,0c-0.5,0.5-1,0.8-1.3,0.9c-0.6,0.2-0.9,0.8-0.8,1.4
						c0.2,0.5,0.6,0.8,1.1,0.8c0.1,0,0.2,0,0.3-0.1c1-0.3,1.8-1,2.3-1.5C485.1,78.5,485.1,77.8,484.6,77.3z"/>
				</g>
			</g>
			<g>
			</g>
			<g>
			</g>
			<g>
			</g>
			<g>
			</g>
			<g>
			</g>
			<g>
			</g>
			<g>
			</g>
			<g>
			</g>
			<g>
			</g>
			<g>
			</g>
			<g>
			</g>
			<g>
			</g>
			<g>
			</g>
			<g>
			</g>
			<g>
			</g>
		</g>
	</g>
	<g class="st3">
		
			<ellipse transform="matrix(0.6915 0.7224 -0.7224 0.6915 742.1558 -290.1135)" class="st4" cx="710.7" cy="723.8" rx="9.9" ry="6.6"/>
		<g>
			<g>
				<g>
					<path class="st5" d="M718,720c-3.8-3.8-7.7-4.9-10.3-5.1c-2.9-0.3-4.9,0.4-5,0.4c-0.3,0.1-0.6,0.4-0.7,0.7c0,0.1-0.7,2.1-0.4,5
						c0.2,2.6,1.3,6.6,5.1,10.3c2,2,3.8,2.9,5.7,2.9c0.2,0,0.4,0,0.6,0c2.1-0.2,3.8-1.7,5-2.9c1.2-1.2,2.6-2.9,2.9-5
						C721.1,724.3,720.2,722.2,718,720z M718.6,726.1c-0.1,1.1-0.8,2.2-2.2,3.6c-1.4,1.4-2.5,2.1-3.6,2.2c-1.3,0.2-2.8-0.6-4.5-2.2
						c-2.6-2.6-4.1-5.6-4.4-8.8c-0.2-1.6,0-2.9,0.2-3.6c1.7-0.4,7.2-0.9,12.4,4.3C718.1,723.3,718.8,724.8,718.6,726.1z"/>
				</g>
			</g>
			<g>
				<g>
					<path class="st5" d="M710.8,727.5c-0.1-0.1-0.1-0.1-0.2-0.2c-0.4-0.4-1.2-0.4-1.6,0c-0.4,0.4-0.4,1.2,0,1.6
						c0.1,0.1,0.2,0.2,0.3,0.2c0.2,0.2,0.5,0.3,0.8,0.3c0.3,0,0.6-0.1,0.8-0.4C711.3,728.7,711.2,727.9,710.8,727.5z"/>
				</g>
			</g>
			<g>
				<g>
					<path class="st5" d="M715.6,727.3c-0.4-0.4-1.2-0.4-1.6,0c-0.5,0.5-1,0.8-1.3,0.9c-0.6,0.2-0.9,0.8-0.8,1.4
						c0.2,0.5,0.6,0.8,1.1,0.8c0.1,0,0.2,0,0.3-0.1c1-0.3,1.8-1,2.3-1.5C716.1,728.5,716.1,727.8,715.6,727.3z"/>
				</g>
			</g>
			<g>
			</g>
			<g>
			</g>
			<g>
			</g>
			<g>
			</g>
			<g>
			</g>
			<g>
			</g>
			<g>
			</g>
			<g>
			</g>
			<g>
			</g>
			<g>
			</g>
			<g>
			</g>
			<g>
			</g>
			<g>
			</g>
			<g>
			</g>
			<g>
			</g>
		</g>
	</g>
	<g class="st3">
		
			<ellipse transform="matrix(0.6915 0.7224 -0.7224 0.6915 279.815 -317.5933)" class="st4" cx="511.7" cy="168.8" rx="9.9" ry="6.6"/>
		<g>
			<g>
				<g>
					<path class="st5" d="M519,165c-3.8-3.8-7.7-4.9-10.3-5.1c-2.9-0.3-4.9,0.4-5,0.4c-0.3,0.1-0.6,0.4-0.7,0.7c0,0.1-0.7,2.1-0.4,5
						c0.2,2.6,1.3,6.6,5.1,10.3c2,2,3.8,2.9,5.7,2.9c0.2,0,0.4,0,0.6,0c2.1-0.2,3.8-1.7,5-2.9c1.2-1.2,2.6-2.9,2.9-5
						C522.1,169.3,521.2,167.2,519,165z M519.6,171.1c-0.1,1.1-0.8,2.2-2.2,3.6c-1.4,1.4-2.5,2.1-3.6,2.2c-1.3,0.2-2.8-0.6-4.5-2.2
						c-2.6-2.6-4.1-5.6-4.4-8.8c-0.2-1.6,0-2.9,0.2-3.6c1.7-0.4,7.2-0.9,12.4,4.3C519.1,168.3,519.8,169.8,519.6,171.1z"/>
				</g>
			</g>
			<g>
				<g>
					<path class="st5" d="M511.8,172.5c-0.1-0.1-0.1-0.1-0.2-0.2c-0.4-0.4-1.2-0.4-1.6,0c-0.4,0.4-0.4,1.2,0,1.6
						c0.1,0.1,0.2,0.2,0.3,0.2c0.2,0.2,0.5,0.3,0.8,0.3c0.3,0,0.6-0.1,0.8-0.4C512.3,173.7,512.2,172.9,511.8,172.5z"/>
				</g>
			</g>
			<g>
				<g>
					<path class="st5" d="M516.6,172.3c-0.4-0.4-1.2-0.4-1.6,0c-0.5,0.5-1,0.8-1.3,0.9c-0.6,0.2-0.9,0.8-0.8,1.4
						c0.2,0.5,0.6,0.8,1.1,0.8c0.1,0,0.2,0,0.3-0.1c1-0.3,1.8-1,2.3-1.5C517.1,173.5,517.1,172.8,516.6,172.3z"/>
				</g>
			</g>
			<g>
			</g>
			<g>
			</g>
			<g>
			</g>
			<g>
			</g>
			<g>
			</g>
			<g>
			</g>
			<g>
			</g>
			<g>
			</g>
			<g>
			</g>
			<g>
			</g>
			<g>
			</g>
			<g>
			</g>
			<g>
			</g>
			<g>
			</g>
			<g>
			</g>
		</g>
	</g>
	<g class="st3">
		
			<ellipse transform="matrix(0.6915 0.7224 -0.7224 0.6915 674.8136 -362.439)" class="st4" cx="761.7" cy="608.8" rx="9.9" ry="6.6"/>
		<g>
			<g>
				<g>
					<path class="st5" d="M769,605c-3.8-3.8-7.7-4.9-10.3-5.1c-2.9-0.3-4.9,0.4-5,0.4c-0.3,0.1-0.6,0.4-0.7,0.7c0,0.1-0.7,2.1-0.4,5
						c0.2,2.6,1.3,6.6,5.1,10.3c2,2,3.8,2.9,5.7,2.9c0.2,0,0.4,0,0.6,0c2.1-0.2,3.8-1.7,5-2.9c1.2-1.2,2.6-2.9,2.9-5
						C772.1,609.3,771.2,607.2,769,605z M769.6,611.1c-0.1,1.1-0.8,2.2-2.2,3.6c-1.4,1.4-2.5,2.1-3.6,2.2c-1.3,0.2-2.8-0.6-4.5-2.2
						c-2.6-2.6-4.1-5.6-4.4-8.8c-0.2-1.6,0-2.9,0.2-3.6c1.7-0.4,7.2-0.9,12.4,4.3C769.1,608.3,769.8,609.8,769.6,611.1z"/>
				</g>
			</g>
			<g>
				<g>
					<path class="st5" d="M761.8,612.5c-0.1-0.1-0.1-0.1-0.2-0.2c-0.4-0.4-1.2-0.4-1.6,0c-0.4,0.4-0.4,1.2,0,1.6
						c0.1,0.1,0.2,0.2,0.3,0.2c0.2,0.2,0.5,0.3,0.8,0.3c0.3,0,0.6-0.1,0.8-0.4C762.3,613.7,762.2,612.9,761.8,612.5z"/>
				</g>
			</g>
			<g>
				<g>
					<path class="st5" d="M766.6,612.3c-0.4-0.4-1.2-0.4-1.6,0c-0.5,0.5-1,0.8-1.3,0.9c-0.6,0.2-0.9,0.8-0.8,1.4
						c0.2,0.5,0.6,0.8,1.1,0.8c0.1,0,0.2,0,0.3-0.1c1-0.3,1.8-1,2.3-1.5C767.1,613.5,767.1,612.8,766.6,612.3z"/>
				</g>
			</g>
			<g>
			</g>
			<g>
			</g>
			<g>
			</g>
			<g>
			</g>
			<g>
			</g>
			<g>
			</g>
			<g>
			</g>
			<g>
			</g>
			<g>
			</g>
			<g>
			</g>
			<g>
			</g>
			<g>
			</g>
			<g>
			</g>
			<g>
			</g>
			<g>
			</g>
		</g>
	</g>
	<g class="st3">
		
			<ellipse transform="matrix(0.6915 0.7224 -0.7224 0.6915 351.3789 -251.1524)" class="st4" cx="469.7" cy="285.8" rx="9.9" ry="6.6"/>
		<g>
			<g>
				<g>
					<path class="st5" d="M477,282c-3.8-3.8-7.7-4.9-10.3-5.1c-2.9-0.3-4.9,0.4-5,0.4c-0.3,0.1-0.6,0.4-0.7,0.7c0,0.1-0.7,2.1-0.4,5
						c0.2,2.6,1.3,6.6,5.1,10.3c2,2,3.8,2.9,5.7,2.9c0.2,0,0.4,0,0.6,0c2.1-0.2,3.8-1.7,5-2.9c1.2-1.2,2.6-2.9,2.9-5
						C480.1,286.3,479.2,284.2,477,282z M477.6,288.1c-0.1,1.1-0.8,2.2-2.2,3.6c-1.4,1.4-2.5,2.1-3.6,2.2c-1.3,0.2-2.8-0.6-4.5-2.2
						c-2.6-2.6-4.1-5.6-4.4-8.8c-0.2-1.6,0-2.9,0.2-3.6c1.7-0.4,7.2-0.9,12.4,4.3C477.1,285.3,477.8,286.8,477.6,288.1z"/>
				</g>
			</g>
			<g>
				<g>
					<path class="st5" d="M469.8,289.5c-0.1-0.1-0.1-0.1-0.2-0.2c-0.4-0.4-1.2-0.4-1.6,0c-0.4,0.4-0.4,1.2,0,1.6
						c0.1,0.1,0.2,0.2,0.3,0.2c0.2,0.2,0.5,0.3,0.8,0.3c0.3,0,0.6-0.1,0.8-0.4C470.3,290.7,470.2,289.9,469.8,289.5z"/>
				</g>
			</g>
			<g>
				<g>
					<path class="st5" d="M474.6,289.3c-0.4-0.4-1.2-0.4-1.6,0c-0.5,0.5-1,0.8-1.3,0.9c-0.6,0.2-0.9,0.8-0.8,1.4
						c0.2,0.5,0.6,0.8,1.1,0.8c0.1,0,0.2,0,0.3-0.1c1-0.3,1.8-1,2.3-1.5C475.1,290.5,475.1,289.8,474.6,289.3z"/>
				</g>
			</g>
			<g>
			</g>
			<g>
			</g>
			<g>
			</g>
			<g>
			</g>
			<g>
			</g>
			<g>
			</g>
			<g>
			</g>
			<g>
			</g>
			<g>
			</g>
			<g>
			</g>
			<g>
			</g>
			<g>
			</g>
			<g>
			</g>
			<g>
			</g>
			<g>
			</g>
		</g>
	</g>
	<g class="st3">
		
			<ellipse transform="matrix(0.6915 0.7224 -0.7224 0.6915 449.5903 -239.1034)" class="st4" cx="504.7" cy="406.8" rx="9.9" ry="6.6"/>
		<g>
			<g>
				<g>
					<path class="st5" d="M512,403c-3.8-3.8-7.7-4.9-10.3-5.1c-2.9-0.3-4.9,0.4-5,0.4c-0.3,0.1-0.6,0.4-0.7,0.7c0,0.1-0.7,2.1-0.4,5
						c0.2,2.6,1.3,6.6,5.1,10.3c2,2,3.8,2.9,5.7,2.9c0.2,0,0.4,0,0.6,0c2.1-0.2,3.8-1.7,5-2.9c1.2-1.2,2.6-2.9,2.9-5
						C515.1,407.3,514.2,405.2,512,403z M512.6,409.1c-0.1,1.1-0.8,2.2-2.2,3.6c-1.4,1.4-2.5,2.1-3.6,2.2c-1.3,0.2-2.8-0.6-4.5-2.2
						c-2.6-2.6-4.1-5.6-4.4-8.8c-0.2-1.6,0-2.9,0.2-3.6c1.7-0.4,7.2-0.9,12.4,4.3C512.1,406.3,512.8,407.8,512.6,409.1z"/>
				</g>
			</g>
			<g>
				<g>
					<path class="st5" d="M504.8,410.5c-0.1-0.1-0.1-0.1-0.2-0.2c-0.4-0.4-1.2-0.4-1.6,0c-0.4,0.4-0.4,1.2,0,1.6
						c0.1,0.1,0.2,0.2,0.3,0.2c0.2,0.2,0.5,0.3,0.8,0.3c0.3,0,0.6-0.1,0.8-0.4C505.3,411.7,505.2,410.9,504.8,410.5z"/>
				</g>
			</g>
			<g>
				<g>
					<path class="st5" d="M509.6,410.3c-0.4-0.4-1.2-0.4-1.6,0c-0.5,0.5-1,0.8-1.3,0.9c-0.6,0.2-0.9,0.8-0.8,1.4
						c0.2,0.5,0.6,0.8,1.1,0.8c0.1,0,0.2,0,0.3-0.1c1-0.3,1.8-1,2.3-1.5C510.1,411.5,510.1,410.8,509.6,410.3z"/>
				</g>
			</g>
			<g>
			</g>
			<g>
			</g>
			<g>
			</g>
			<g>
			</g>
			<g>
			</g>
			<g>
			</g>
			<g>
			</g>
			<g>
			</g>
			<g>
			</g>
			<g>
			</g>
			<g>
			</g>
			<g>
			</g>
			<g>
			</g>
			<g>
			</g>
			<g>
			</g>
		</g>
	</g>
	<g class="st3">
		
			<ellipse transform="matrix(0.6915 0.7224 -0.7224 0.6915 447.6309 9.4842)" class="st4" cx="212.7" cy="528.8" rx="9.9" ry="6.6"/>
		<g>
			<g>
				<g>
					<path class="st5" d="M220,525c-3.8-3.8-7.7-4.9-10.3-5.1c-2.9-0.3-4.9,0.4-5,0.4c-0.3,0.1-0.6,0.4-0.7,0.7c0,0.1-0.7,2.1-0.4,5
						c0.2,2.6,1.3,6.6,5.1,10.3c2,2,3.8,2.9,5.7,2.9c0.2,0,0.4,0,0.6,0c2.1-0.2,3.8-1.7,5-2.9c1.2-1.2,2.6-2.9,2.9-5
						C223.1,529.3,222.2,527.2,220,525z M220.6,531.1c-0.1,1.1-0.8,2.2-2.2,3.6s-2.5,2.1-3.6,2.2c-1.3,0.2-2.8-0.6-4.5-2.2
						c-2.6-2.6-4.1-5.6-4.4-8.8c-0.2-1.6,0-2.9,0.2-3.6c1.7-0.4,7.2-0.9,12.4,4.3C220.1,528.3,220.8,529.8,220.6,531.1z"/>
				</g>
			</g>
			<g>
				<g>
					<path class="st5" d="M212.8,532.5c-0.1-0.1-0.1-0.1-0.2-0.2c-0.4-0.4-1.2-0.4-1.6,0c-0.4,0.4-0.4,1.2,0,1.6
						c0.1,0.1,0.2,0.2,0.3,0.2c0.2,0.2,0.5,0.3,0.8,0.3c0.3,0,0.6-0.1,0.8-0.4C213.3,533.7,213.2,532.9,212.8,532.5z"/>
				</g>
			</g>
			<g>
				<g>
					<path class="st5" d="M217.6,532.3c-0.4-0.4-1.2-0.4-1.6,0c-0.5,0.5-1,0.8-1.3,0.9c-0.6,0.2-0.9,0.8-0.8,1.4
						c0.2,0.5,0.6,0.8,1.1,0.8c0.1,0,0.2,0,0.3-0.1c1-0.3,1.8-1,2.3-1.5C218.1,533.5,218.1,532.8,217.6,532.3z"/>
				</g>
			</g>
			<g>
			</g>
			<g>
			</g>
			<g>
			</g>
			<g>
			</g>
			<g>
			</g>
			<g>
			</g>
			<g>
			</g>
			<g>
			</g>
			<g>
			</g>
			<g>
			</g>
			<g>
			</g>
			<g>
			</g>
			<g>
			</g>
			<g>
			</g>
			<g>
			</g>
		</g>
	</g>
	<g class="st3">
		
			<ellipse transform="matrix(0.6915 0.7224 -0.7224 0.6915 546.2057 -183.318)" class="st4" cx="487.7" cy="547.8" rx="9.9" ry="6.6"/>
		<g>
			<g>
				<g>
					<path class="st5" d="M495,544c-3.8-3.8-7.7-4.9-10.3-5.1c-2.9-0.3-4.9,0.4-5,0.4c-0.3,0.1-0.6,0.4-0.7,0.7c0,0.1-0.7,2.1-0.4,5
						c0.2,2.6,1.3,6.6,5.1,10.3c2,2,3.8,2.9,5.7,2.9c0.2,0,0.4,0,0.6,0c2.1-0.2,3.8-1.7,5-2.9c1.2-1.2,2.6-2.9,2.9-5
						C498.1,548.3,497.2,546.2,495,544z M495.6,550.1c-0.1,1.1-0.8,2.2-2.2,3.6s-2.5,2.1-3.6,2.2c-1.3,0.2-2.8-0.6-4.5-2.2
						c-2.6-2.6-4.1-5.6-4.4-8.8c-0.2-1.6,0-2.9,0.2-3.6c1.7-0.4,7.2-0.9,12.4,4.3C495.1,547.3,495.8,548.8,495.6,550.1z"/>
				</g>
			</g>
			<g>
				<g>
					<path class="st5" d="M487.8,551.5c-0.1-0.1-0.1-0.1-0.2-0.2c-0.4-0.4-1.2-0.4-1.6,0c-0.4,0.4-0.4,1.2,0,1.6
						c0.1,0.1,0.2,0.2,0.3,0.2c0.2,0.2,0.5,0.3,0.8,0.3c0.3,0,0.6-0.1,0.8-0.4C488.3,552.7,488.2,551.9,487.8,551.5z"/>
				</g>
			</g>
			<g>
				<g>
					<path class="st5" d="M492.6,551.3c-0.4-0.4-1.2-0.4-1.6,0c-0.5,0.5-1,0.8-1.3,0.9c-0.6,0.2-0.9,0.8-0.8,1.4
						c0.2,0.5,0.6,0.8,1.1,0.8c0.1,0,0.2,0,0.3-0.1c1-0.3,1.8-1,2.3-1.5C493.1,552.5,493.1,551.8,492.6,551.3z"/>
				</g>
			</g>
			<g>
			</g>
			<g>
			</g>
			<g>
			</g>
			<g>
			</g>
			<g>
			</g>
			<g>
			</g>
			<g>
			</g>
			<g>
			</g>
			<g>
			</g>
			<g>
			</g>
			<g>
			</g>
			<g>
			</g>
			<g>
			</g>
			<g>
			</g>
			<g>
			</g>
		</g>
	</g>
	<g class="st3">
		
			<ellipse transform="matrix(0.6915 0.7224 -0.7224 0.6915 614.4513 -131.1073)" class="st4" cx="460.7" cy="653.8" rx="9.9" ry="6.6"/>
		<g>
			<g>
				<g>
					<path class="st5" d="M468,650c-3.8-3.8-7.7-4.9-10.3-5.1c-2.9-0.3-4.9,0.4-5,0.4c-0.3,0.1-0.6,0.4-0.7,0.7c0,0.1-0.7,2.1-0.4,5
						c0.2,2.6,1.3,6.6,5.1,10.3c2,2,3.8,2.9,5.7,2.9c0.2,0,0.4,0,0.6,0c2.1-0.2,3.8-1.7,5-2.9c1.2-1.2,2.6-2.9,2.9-5
						C471.1,654.3,470.2,652.2,468,650z M468.6,656.1c-0.1,1.1-0.8,2.2-2.2,3.6s-2.5,2.1-3.6,2.2c-1.3,0.2-2.8-0.6-4.5-2.2
						c-2.6-2.6-4.1-5.6-4.4-8.8c-0.2-1.6,0-2.9,0.2-3.6c1.7-0.4,7.2-0.9,12.4,4.3C468.1,653.3,468.8,654.8,468.6,656.1z"/>
				</g>
			</g>
			<g>
				<g>
					<path class="st5" d="M460.8,657.5c-0.1-0.1-0.1-0.1-0.2-0.2c-0.4-0.4-1.2-0.4-1.6,0c-0.4,0.4-0.4,1.2,0,1.6
						c0.1,0.1,0.2,0.2,0.3,0.2c0.2,0.2,0.5,0.3,0.8,0.3c0.3,0,0.6-0.1,0.8-0.4C461.3,658.7,461.2,657.9,460.8,657.5z"/>
				</g>
			</g>
			<g>
				<g>
					<path class="st5" d="M465.6,657.3c-0.4-0.4-1.2-0.4-1.6,0c-0.5,0.5-1,0.8-1.3,0.9c-0.6,0.2-0.9,0.8-0.8,1.4
						c0.2,0.5,0.6,0.8,1.1,0.8c0.1,0,0.2,0,0.3-0.1c1-0.3,1.8-1,2.3-1.5C466.1,658.5,466.1,657.8,465.6,657.3z"/>
				</g>
			</g>
			<g>
			</g>
			<g>
			</g>
			<g>
			</g>
			<g>
			</g>
			<g>
			</g>
			<g>
			</g>
			<g>
			</g>
			<g>
			</g>
			<g>
			</g>
			<g>
			</g>
			<g>
			</g>
			<g>
			</g>
			<g>
			</g>
			<g>
			</g>
			<g>
			</g>
		</g>
	</g>
	<g class="st3">
		
			<ellipse transform="matrix(0.6915 0.7224 -0.7224 0.6915 527.7669 1.8546)" class="st4" cx="261.7" cy="618.8" rx="9.9" ry="6.6"/>
		<g>
			<g>
				<g>
					<path class="st5" d="M269,615c-3.8-3.8-7.7-4.9-10.3-5.1c-2.9-0.3-4.9,0.4-5,0.4c-0.3,0.1-0.6,0.4-0.7,0.7c0,0.1-0.7,2.1-0.4,5
						c0.2,2.6,1.3,6.6,5.1,10.3c2,2,3.8,2.9,5.7,2.9c0.2,0,0.4,0,0.6,0c2.1-0.2,3.8-1.7,5-2.9c1.2-1.2,2.6-2.9,2.9-5
						C272.1,619.3,271.2,617.2,269,615z M269.6,621.1c-0.1,1.1-0.8,2.2-2.2,3.6s-2.5,2.1-3.6,2.2c-1.3,0.2-2.8-0.6-4.5-2.2
						c-2.6-2.6-4.1-5.6-4.4-8.8c-0.2-1.6,0-2.9,0.2-3.6c1.7-0.4,7.2-0.9,12.4,4.3C269.1,618.3,269.8,619.8,269.6,621.1z"/>
				</g>
			</g>
			<g>
				<g>
					<path class="st5" d="M261.8,622.5c-0.1-0.1-0.1-0.1-0.2-0.2c-0.4-0.4-1.2-0.4-1.6,0c-0.4,0.4-0.4,1.2,0,1.6
						c0.1,0.1,0.2,0.2,0.3,0.2c0.2,0.2,0.5,0.3,0.8,0.3c0.3,0,0.6-0.1,0.8-0.4C262.3,623.7,262.2,622.9,261.8,622.5z"/>
				</g>
			</g>
			<g>
				<g>
					<path class="st5" d="M266.6,622.3c-0.4-0.4-1.2-0.4-1.6,0c-0.5,0.5-1,0.8-1.3,0.9c-0.6,0.2-0.9,0.8-0.8,1.4
						c0.2,0.5,0.6,0.8,1.1,0.8c0.1,0,0.2,0,0.3-0.1c1-0.3,1.8-1,2.3-1.5C267.1,623.5,267.1,622.8,266.6,622.3z"/>
				</g>
			</g>
			<g>
			</g>
			<g>
			</g>
			<g>
			</g>
			<g>
			</g>
			<g>
			</g>
			<g>
			</g>
			<g>
			</g>
			<g>
			</g>
			<g>
			</g>
			<g>
			</g>
			<g>
			</g>
			<g>
			</g>
			<g>
			</g>
			<g>
			</g>
			<g>
			</g>
		</g>
	</g>
	<g class="st3">
		
			<ellipse transform="matrix(0.6915 0.7224 -0.7224 0.6915 592.2046 60.9809)" class="st4" cx="224.7" cy="723.8" rx="9.9" ry="6.6"/>
		<g>
			<g>
				<g>
					<path class="st5" d="M232,720c-3.8-3.8-7.7-4.9-10.3-5.1c-2.9-0.3-4.9,0.4-5,0.4c-0.3,0.1-0.6,0.4-0.7,0.7c0,0.1-0.7,2.1-0.4,5
						c0.2,2.6,1.3,6.6,5.1,10.3c2,2,3.8,2.9,5.7,2.9c0.2,0,0.4,0,0.6,0c2.1-0.2,3.8-1.7,5-2.9c1.2-1.2,2.6-2.9,2.9-5
						C235.1,724.3,234.2,722.2,232,720z M232.6,726.1c-0.1,1.1-0.8,2.2-2.2,3.6s-2.5,2.1-3.6,2.2c-1.3,0.2-2.8-0.6-4.5-2.2
						c-2.6-2.6-4.1-5.6-4.4-8.8c-0.2-1.6,0-2.9,0.2-3.6c1.7-0.4,7.2-0.9,12.4,4.3C232.1,723.3,232.8,724.8,232.6,726.1z"/>
				</g>
			</g>
			<g>
				<g>
					<path class="st5" d="M224.8,727.5c-0.1-0.1-0.1-0.1-0.2-0.2c-0.4-0.4-1.2-0.4-1.6,0c-0.4,0.4-0.4,1.2,0,1.6
						c0.1,0.1,0.2,0.2,0.3,0.2c0.2,0.2,0.5,0.3,0.8,0.3c0.3,0,0.6-0.1,0.8-0.4C225.3,728.7,225.2,727.9,224.8,727.5z"/>
				</g>
			</g>
			<g>
				<g>
					<path class="st5" d="M229.6,727.3c-0.4-0.4-1.2-0.4-1.6,0c-0.5,0.5-1,0.8-1.3,0.9c-0.6,0.2-0.9,0.8-0.8,1.4
						c0.2,0.5,0.6,0.8,1.1,0.8c0.1,0,0.2,0,0.3-0.1c1-0.3,1.8-1,2.3-1.5C230.1,728.5,230.1,727.8,229.6,727.3z"/>
				</g>
			</g>
			<g>
			</g>
			<g>
			</g>
			<g>
			</g>
			<g>
			</g>
			<g>
			</g>
			<g>
			</g>
			<g>
			</g>
			<g>
			</g>
			<g>
			</g>
			<g>
			</g>
			<g>
			</g>
			<g>
			</g>
			<g>
			</g>
			<g>
			</g>
			<g>
			</g>
		</g>
	</g>
	<g class="st3">
		
			<ellipse transform="matrix(0.6915 0.7224 -0.7224 0.6915 679.6021 86.3493)" class="st4" cx="238.7" cy="838.8" rx="9.9" ry="6.6"/>
		<g>
			<g>
				<g>
					<path class="st5" d="M246,835c-3.8-3.8-7.7-4.9-10.3-5.1c-2.9-0.3-4.9,0.4-5,0.4c-0.3,0.1-0.6,0.4-0.7,0.7c0,0.1-0.7,2.1-0.4,5
						c0.2,2.6,1.3,6.6,5.1,10.3c2,2,3.8,2.9,5.7,2.9c0.2,0,0.4,0,0.6,0c2.1-0.2,3.8-1.7,5-2.9c1.2-1.2,2.6-2.9,2.9-5
						C249.1,839.3,248.2,837.2,246,835z M246.6,841.1c-0.1,1.1-0.8,2.2-2.2,3.6s-2.5,2.1-3.6,2.2c-1.3,0.2-2.8-0.6-4.5-2.2
						c-2.6-2.6-4.1-5.6-4.4-8.8c-0.2-1.6,0-2.9,0.2-3.6c1.7-0.4,7.2-0.9,12.4,4.3C246.1,838.3,246.8,839.8,246.6,841.1z"/>
				</g>
			</g>
			<g>
				<g>
					<path class="st5" d="M238.8,842.5c-0.1-0.1-0.1-0.1-0.2-0.2c-0.4-0.4-1.2-0.4-1.6,0c-0.4,0.4-0.4,1.2,0,1.6
						c0.1,0.1,0.2,0.2,0.3,0.2c0.2,0.2,0.5,0.3,0.8,0.3c0.3,0,0.6-0.1,0.8-0.4C239.3,843.7,239.2,842.9,238.8,842.5z"/>
				</g>
			</g>
			<g>
				<g>
					<path class="st5" d="M243.6,842.3c-0.4-0.4-1.2-0.4-1.6,0c-0.5,0.5-1,0.8-1.3,0.9c-0.6,0.2-0.9,0.8-0.8,1.4
						c0.2,0.5,0.6,0.8,1.1,0.8c0.1,0,0.2,0,0.3-0.1c1-0.3,1.8-1,2.3-1.5C244.1,843.5,244.1,842.8,243.6,842.3z"/>
				</g>
			</g>
			<g>
			</g>
			<g>
			</g>
			<g>
			</g>
			<g>
			</g>
			<g>
			</g>
			<g>
			</g>
			<g>
			</g>
			<g>
			</g>
			<g>
			</g>
			<g>
			</g>
			<g>
			</g>
			<g>
			</g>
			<g>
			</g>
			<g>
			</g>
			<g>
			</g>
		</g>
	</g>
	<g class="st3">
		
			<ellipse transform="matrix(0.6915 0.7224 -0.7224 0.6915 690.4709 -131.0989)" class="st4" cx="498.7" cy="742.8" rx="9.9" ry="6.6"/>
		<g>
			<g>
				<g>
					<path class="st5" d="M506,739c-3.8-3.8-7.7-4.9-10.3-5.1c-2.9-0.3-4.9,0.4-5,0.4c-0.3,0.1-0.6,0.4-0.7,0.7c0,0.1-0.7,2.1-0.4,5
						c0.2,2.6,1.3,6.6,5.1,10.3c2,2,3.8,2.9,5.7,2.9c0.2,0,0.4,0,0.6,0c2.1-0.2,3.8-1.7,5-2.9c1.2-1.2,2.6-2.9,2.9-5
						C509.1,743.3,508.2,741.2,506,739z M506.6,745.1c-0.1,1.1-0.8,2.2-2.2,3.6s-2.5,2.1-3.6,2.2c-1.3,0.2-2.8-0.6-4.5-2.2
						c-2.6-2.6-4.1-5.6-4.4-8.8c-0.2-1.6,0-2.9,0.2-3.6c1.7-0.4,7.2-0.9,12.4,4.3C506.1,742.3,506.8,743.8,506.6,745.1z"/>
				</g>
			</g>
			<g>
				<g>
					<path class="st5" d="M498.8,746.5c-0.1-0.1-0.1-0.1-0.2-0.2c-0.4-0.4-1.2-0.4-1.6,0c-0.4,0.4-0.4,1.2,0,1.6
						c0.1,0.1,0.2,0.2,0.3,0.2c0.2,0.2,0.5,0.3,0.8,0.3c0.3,0,0.6-0.1,0.8-0.4C499.3,747.7,499.2,746.9,498.8,746.5z"/>
				</g>
			</g>
			<g>
				<g>
					<path class="st5" d="M503.6,746.3c-0.4-0.4-1.2-0.4-1.6,0c-0.5,0.5-1,0.8-1.3,0.9c-0.6,0.2-0.9,0.8-0.8,1.4
						c0.2,0.5,0.6,0.8,1.1,0.8c0.1,0,0.2,0,0.3-0.1c1-0.3,1.8-1,2.3-1.5C504.1,747.5,504.1,746.8,503.6,746.3z"/>
				</g>
			</g>
			<g>
			</g>
			<g>
			</g>
			<g>
			</g>
			<g>
			</g>
			<g>
			</g>
			<g>
			</g>
			<g>
			</g>
			<g>
			</g>
			<g>
			</g>
			<g>
			</g>
			<g>
			</g>
			<g>
			</g>
			<g>
			</g>
			<g>
			</g>
			<g>
			</g>
		</g>
	</g>
	<g class="st3">
		
			<ellipse transform="matrix(0.6915 0.7224 -0.7224 0.6915 755.3224 -70.9417)" class="st4" cx="460.7" cy="848.8" rx="9.9" ry="6.6"/>
		<g>
			<g>
				<g>
					<path class="st5" d="M468,845c-3.8-3.8-7.7-4.9-10.3-5.1c-2.9-0.3-4.9,0.4-5,0.4c-0.3,0.1-0.6,0.4-0.7,0.7c0,0.1-0.7,2.1-0.4,5
						c0.2,2.6,1.3,6.6,5.1,10.3c2,2,3.8,2.9,5.7,2.9c0.2,0,0.4,0,0.6,0c2.1-0.2,3.8-1.7,5-2.9c1.2-1.2,2.6-2.9,2.9-5
						C471.1,849.3,470.2,847.2,468,845z M468.6,851.1c-0.1,1.1-0.8,2.2-2.2,3.6s-2.5,2.1-3.6,2.2c-1.3,0.2-2.8-0.6-4.5-2.2
						c-2.6-2.6-4.1-5.6-4.4-8.8c-0.2-1.6,0-2.9,0.2-3.6c1.7-0.4,7.2-0.9,12.4,4.3C468.1,848.3,468.8,849.8,468.6,851.1z"/>
				</g>
			</g>
			<g>
				<g>
					<path class="st5" d="M460.8,852.5c-0.1-0.1-0.1-0.1-0.2-0.2c-0.4-0.4-1.2-0.4-1.6,0c-0.4,0.4-0.4,1.2,0,1.6
						c0.1,0.1,0.2,0.2,0.3,0.2c0.2,0.2,0.5,0.3,0.8,0.3c0.3,0,0.6-0.1,0.8-0.4C461.3,853.7,461.2,852.9,460.8,852.5z"/>
				</g>
			</g>
			<g>
				<g>
					<path class="st5" d="M465.6,852.3c-0.4-0.4-1.2-0.4-1.6,0c-0.5,0.5-1,0.8-1.3,0.9c-0.6,0.2-0.9,0.8-0.8,1.4
						c0.2,0.5,0.6,0.8,1.1,0.8c0.1,0,0.2,0,0.3-0.1c1-0.3,1.8-1,2.3-1.5C466.1,853.5,466.1,852.8,465.6,852.3z"/>
				</g>
			</g>
			<g>
			</g>
			<g>
			</g>
			<g>
			</g>
			<g>
			</g>
			<g>
			</g>
			<g>
			</g>
			<g>
			</g>
			<g>
			</g>
			<g>
			</g>
			<g>
			</g>
			<g>
			</g>
			<g>
			</g>
			<g>
			</g>
			<g>
			</g>
			<g>
			</g>
		</g>
	</g>
	<g class="st3">
		
			<ellipse transform="matrix(0.6915 0.7224 -0.7224 0.6915 264.1194 -496.8439)" class="st4" cx="713.7" cy="60.8" rx="9.9" ry="6.6"/>
		<g>
			<g>
				<g>
					<path class="st5" d="M721,57c-3.8-3.8-7.7-4.9-10.3-5.1c-2.9-0.3-4.9,0.4-5,0.4c-0.3,0.1-0.6,0.4-0.7,0.7c0,0.1-0.7,2.1-0.4,5
						c0.2,2.6,1.3,6.6,5.1,10.3c2,2,3.8,2.9,5.7,2.9c0.2,0,0.4,0,0.6,0c2.1-0.2,3.8-1.7,5-2.9c1.2-1.2,2.6-2.9,2.9-5
						C724.1,61.3,723.2,59.2,721,57z M721.6,63.1c-0.1,1.1-0.8,2.2-2.2,3.6c-1.4,1.4-2.5,2.1-3.6,2.2c-1.3,0.2-2.8-0.6-4.5-2.2
						c-2.6-2.6-4.1-5.6-4.4-8.8c-0.2-1.6,0-2.9,0.2-3.6c1.7-0.4,7.2-0.9,12.4,4.3C721.1,60.3,721.8,61.8,721.6,63.1z"/>
				</g>
			</g>
			<g>
				<g>
					<path class="st5" d="M713.8,64.5c-0.1-0.1-0.1-0.1-0.2-0.2c-0.4-0.4-1.2-0.4-1.6,0c-0.4,0.4-0.4,1.2,0,1.6
						c0.1,0.1,0.2,0.2,0.3,0.2c0.2,0.2,0.5,0.3,0.8,0.3c0.3,0,0.6-0.1,0.8-0.4C714.3,65.7,714.2,64.9,713.8,64.5z"/>
				</g>
			</g>
			<g>
				<g>
					<path class="st5" d="M718.6,64.3c-0.4-0.4-1.2-0.4-1.6,0c-0.5,0.5-1,0.8-1.3,0.9c-0.6,0.2-0.9,0.8-0.8,1.4
						c0.2,0.5,0.6,0.8,1.1,0.8c0.1,0,0.2,0,0.3-0.1c1-0.3,1.8-1,2.3-1.5C719.1,65.5,719.1,64.8,718.6,64.3z"/>
				</g>
			</g>
			<g>
			</g>
			<g>
			</g>
			<g>
			</g>
			<g>
			</g>
			<g>
			</g>
			<g>
			</g>
			<g>
			</g>
			<g>
			</g>
			<g>
			</g>
			<g>
			</g>
			<g>
			</g>
			<g>
			</g>
			<g>
			</g>
			<g>
			</g>
			<g>
			</g>
		</g>
	</g>
	<g class="st3">
		
			<ellipse transform="matrix(0.6915 0.7224 -0.7224 0.6915 395.9683 -475.5536)" class="st4" cx="754.7" cy="225.8" rx="9.9" ry="6.6"/>
		<g>
			<g>
				<g>
					<path class="st5" d="M762,222c-3.8-3.8-7.7-4.9-10.3-5.1c-2.9-0.3-4.9,0.4-5,0.4c-0.3,0.1-0.6,0.4-0.7,0.7c0,0.1-0.7,2.1-0.4,5
						c0.2,2.6,1.3,6.6,5.1,10.3c2,2,3.8,2.9,5.7,2.9c0.2,0,0.4,0,0.6,0c2.1-0.2,3.8-1.7,5-2.9c1.2-1.2,2.6-2.9,2.9-5
						C765.1,226.3,764.2,224.2,762,222z M762.6,228.1c-0.1,1.1-0.8,2.2-2.2,3.6c-1.4,1.4-2.5,2.1-3.6,2.2c-1.3,0.2-2.8-0.6-4.5-2.2
						c-2.6-2.6-4.1-5.6-4.4-8.8c-0.2-1.6,0-2.9,0.2-3.6c1.7-0.4,7.2-0.9,12.4,4.3C762.1,225.3,762.8,226.8,762.6,228.1z"/>
				</g>
			</g>
			<g>
				<g>
					<path class="st5" d="M754.8,229.5c-0.1-0.1-0.1-0.1-0.2-0.2c-0.4-0.4-1.2-0.4-1.6,0c-0.4,0.4-0.4,1.2,0,1.6
						c0.1,0.1,0.2,0.2,0.3,0.2c0.2,0.2,0.5,0.3,0.8,0.3c0.3,0,0.6-0.1,0.8-0.4C755.3,230.7,755.2,229.9,754.8,229.5z"/>
				</g>
			</g>
			<g>
				<g>
					<path class="st5" d="M759.6,229.3c-0.4-0.4-1.2-0.4-1.6,0c-0.5,0.5-1,0.8-1.3,0.9c-0.6,0.2-0.9,0.8-0.8,1.4
						c0.2,0.5,0.6,0.8,1.1,0.8c0.1,0,0.2,0,0.3-0.1c1-0.3,1.8-1,2.3-1.5C760.1,230.5,760.1,229.8,759.6,229.3z"/>
				</g>
			</g>
			<g>
			</g>
			<g>
			</g>
			<g>
			</g>
			<g>
			</g>
			<g>
			</g>
			<g>
			</g>
			<g>
			</g>
			<g>
			</g>
			<g>
			</g>
			<g>
			</g>
			<g>
			</g>
			<g>
			</g>
			<g>
			</g>
			<g>
			</g>
			<g>
			</g>
		</g>
	</g>
	<g class="st3">
		
			<ellipse transform="matrix(0.6915 0.7224 -0.7224 0.6915 488.6334 -444.5186)" class="st4" cx="764.7" cy="349.8" rx="9.9" ry="6.6"/>
		<g>
			<g>
				<g>
					<path class="st5" d="M772,346c-3.8-3.8-7.7-4.9-10.3-5.1c-2.9-0.3-4.9,0.4-5,0.4c-0.3,0.1-0.6,0.4-0.7,0.7c0,0.1-0.7,2.1-0.4,5
						c0.2,2.6,1.3,6.6,5.1,10.3c2,2,3.8,2.9,5.7,2.9c0.2,0,0.4,0,0.6,0c2.1-0.2,3.8-1.7,5-2.9c1.2-1.2,2.6-2.9,2.9-5
						C775.1,350.3,774.2,348.2,772,346z M772.6,352.1c-0.1,1.1-0.8,2.2-2.2,3.6c-1.4,1.4-2.5,2.1-3.6,2.2c-1.3,0.2-2.8-0.6-4.5-2.2
						c-2.6-2.6-4.1-5.6-4.4-8.8c-0.2-1.6,0-2.9,0.2-3.6c1.7-0.4,7.2-0.9,12.4,4.3C772.1,349.3,772.8,350.8,772.6,352.1z"/>
				</g>
			</g>
			<g>
				<g>
					<path class="st5" d="M764.8,353.5c-0.1-0.1-0.1-0.1-0.2-0.2c-0.4-0.4-1.2-0.4-1.6,0c-0.4,0.4-0.4,1.2,0,1.6
						c0.1,0.1,0.2,0.2,0.3,0.2c0.2,0.2,0.5,0.3,0.8,0.3c0.3,0,0.6-0.1,0.8-0.4C765.3,354.7,765.2,353.9,764.8,353.5z"/>
				</g>
			</g>
			<g>
				<g>
					<path class="st5" d="M769.6,353.3c-0.4-0.4-1.2-0.4-1.6,0c-0.5,0.5-1,0.8-1.3,0.9c-0.6,0.2-0.9,0.8-0.8,1.4
						c0.2,0.5,0.6,0.8,1.1,0.8c0.1,0,0.2,0,0.3-0.1c1-0.3,1.8-1,2.3-1.5C770.1,354.5,770.1,353.8,769.6,353.3z"/>
				</g>
			</g>
			<g>
			</g>
			<g>
			</g>
			<g>
			</g>
			<g>
			</g>
			<g>
			</g>
			<g>
			</g>
			<g>
			</g>
			<g>
			</g>
			<g>
			</g>
			<g>
			</g>
			<g>
			</g>
			<g>
			</g>
			<g>
			</g>
			<g>
			</g>
			<g>
			</g>
		</g>
	</g>
	<g class="st3">
		
			<ellipse transform="matrix(0.6915 0.7224 -0.7224 0.6915 570.6197 -374.4805)" class="st4" cx="723.7" cy="480.8" rx="9.9" ry="6.6"/>
		<g>
			<g>
				<g>
					<path class="st5" d="M731,477c-3.8-3.8-7.7-4.9-10.3-5.1c-2.9-0.3-4.9,0.4-5,0.4c-0.3,0.1-0.6,0.4-0.7,0.7c0,0.1-0.7,2.1-0.4,5
						c0.2,2.6,1.3,6.6,5.1,10.3c2,2,3.8,2.9,5.7,2.9c0.2,0,0.4,0,0.6,0c2.1-0.2,3.8-1.7,5-2.9c1.2-1.2,2.6-2.9,2.9-5
						C734.1,481.3,733.2,479.2,731,477z M731.6,483.1c-0.1,1.1-0.8,2.2-2.2,3.6c-1.4,1.4-2.5,2.1-3.6,2.2c-1.3,0.2-2.8-0.6-4.5-2.2
						c-2.6-2.6-4.1-5.6-4.4-8.8c-0.2-1.6,0-2.9,0.2-3.6c1.7-0.4,7.2-0.9,12.4,4.3C731.1,480.3,731.8,481.8,731.6,483.1z"/>
				</g>
			</g>
			<g>
				<g>
					<path class="st5" d="M723.8,484.5c-0.1-0.1-0.1-0.1-0.2-0.2c-0.4-0.4-1.2-0.4-1.6,0c-0.4,0.4-0.4,1.2,0,1.6
						c0.1,0.1,0.2,0.2,0.3,0.2c0.2,0.2,0.5,0.3,0.8,0.3c0.3,0,0.6-0.1,0.8-0.4C724.3,485.7,724.2,484.9,723.8,484.5z"/>
				</g>
			</g>
			<g>
				<g>
					<path class="st5" d="M728.6,484.3c-0.4-0.4-1.2-0.4-1.6,0c-0.5,0.5-1,0.8-1.3,0.9c-0.6,0.2-0.9,0.8-0.8,1.4
						c0.2,0.5,0.6,0.8,1.1,0.8c0.1,0,0.2,0,0.3-0.1c1-0.3,1.8-1,2.3-1.5C729.1,485.5,729.1,484.8,728.6,484.3z"/>
				</g>
			</g>
			<g>
			</g>
			<g>
			</g>
			<g>
			</g>
			<g>
			</g>
			<g>
			</g>
			<g>
			</g>
			<g>
			</g>
			<g>
			</g>
			<g>
			</g>
			<g>
			</g>
			<g>
			</g>
			<g>
			</g>
			<g>
			</g>
			<g>
			</g>
			<g>
			</g>
		</g>
	</g>
</g>
<g id="grass" class="st2">
	<path class="st6" d="M286.8,61.8c-4.5-6-12.1,0-16.6,9c3-12.1,3-27.1-7.5-27.1c-15.1,0-13.6,28.6-10.5,40.7c0,1.5,0,1.5,1.5,3
		c-1.5,0-3,0-4.5,0c-9,3-4.5,16.6,1.5,25.6c6,9,18.1,21.1,18.1,21.1s3-19.6,9-33.2S294.3,70.8,286.8,61.8z"/>
	<path class="st6" d="M292.1,198.6c-5.7-7.6-15.2,0-21,11.4c3.8-15.2,3.8-34.3-9.5-34.3c-19,0-17.1,36.2-13.3,51.4
		c0,1.9,0,1.9,1.9,3.8c-1.9,0-3.8,0-5.7,0c-11.4,3.8-5.7,21,1.9,32.4s22.9,26.7,22.9,26.7s3.8-24.8,11.4-41.9S301.6,210,292.1,198.6
		z"/>
	<path class="st6" d="M276.2,353.5c-5.7-7.6-15.2,0-21,11.4c3.8-15.2,3.8-34.3-9.5-34.3c-19,0-17.1,36.2-13.3,51.4
		c0,1.9,0,1.9,1.9,3.8c-1.9,0-3.8,0-5.7,0c-11.4,3.8-5.7,21,1.9,32.4s22.9,26.7,22.9,26.7s3.8-24.8,11.4-41.9S285.7,365,276.2,353.5
		z"/>
	<path class="st6" d="M271.1,529.4c-5.7-7.6-15.2,0-21,11.4c3.8-15.2,3.8-34.3-9.5-34.3c-19,0-17.1,36.2-13.3,51.4
		c0,1.9,0,1.9,1.9,3.8c-1.9,0-3.8,0-5.7,0c-11.4,3.8-5.7,21,1.9,32.4c7.6,11.4,22.9,26.7,22.9,26.7s3.8-24.8,11.4-41.9
		C267.3,561.8,280.7,540.8,271.1,529.4z"/>
	<path class="st6" d="M263.4,680.6c-5.7-7.6-15.2,0-21,11.4c3.8-15.2,3.8-34.3-9.5-34.3c-19,0-17.1,36.2-13.3,51.4
		c0,1.9,0,1.9,1.9,3.8c-1.9,0-3.8,0-5.7,0c-11.4,3.8-5.7,21,1.9,32.4c7.6,11.4,22.9,26.7,22.9,26.7s3.8-24.8,11.4-41.9
		C259.6,713,272.9,692,263.4,680.6z"/>
	<path class="st6" d="M269.4,841.2c-5.7-7.6-15.2,0-21,11.4c3.8-15.2,3.8-34.3-9.5-34.3c-19,0-17.1,36.2-13.3,51.4
		c0,1.9,0,1.9,1.9,3.8c-1.9,0-3.8,0-5.7,0c-11.4,3.8-5.7,21,1.9,32.4c7.6,11.4,22.9,26.7,22.9,26.7s3.8-24.8,11.4-41.9
		C265.6,873.5,278.9,852.6,269.4,841.2z"/>
	<path class="st6" d="M548.3,42.7c-5.7-7.6-15.2,0-21,11.4c3.8-15.2,3.8-34.3-9.5-34.3c-19,0-17.1,36.2-13.3,51.4
		c0,1.9,0,1.9,1.9,3.8c-1.9,0-3.8,0-5.7,0c-11.4,3.8-5.7,21,1.9,32.4c7.6,11.4,22.9,26.7,22.9,26.7s3.8-24.8,11.4-41.9
		S557.8,54.1,548.3,42.7z"/>
	<path class="st6" d="M530.9,198.4c-5.7-7.6-15.2,0-21,11.4c3.8-15.2,3.8-34.3-9.5-34.3c-19,0-17.1,36.2-13.3,51.4
		c0,1.9,0,1.9,1.9,3.8c-1.9,0-3.8,0-5.7,0c-11.4,3.8-5.7,21,1.9,32.4s22.9,26.7,22.9,26.7s3.8-24.8,11.4-41.9
		S540.4,209.8,530.9,198.4z"/>
	<path class="st6" d="M530.9,369.8c-5.7-7.6-15.2,0-21,11.4c3.8-15.2,3.8-34.3-9.5-34.3c-19,0-17.1,36.2-13.3,51.4
		c0,1.9,0,1.9,1.9,3.8c-1.9,0-3.8,0-5.7,0c-11.4,3.8-5.7,21,1.9,32.4s22.9,26.7,22.9,26.7s3.8-24.8,11.4-41.9
		S540.4,381.2,530.9,369.8z"/>
	<path class="st6" d="M519.6,564.5c-5.7-7.6-15.2,0-21,11.4c3.8-15.2,3.8-34.3-9.5-34.3c-19,0-17.1,36.2-13.3,51.4
		c0,1.9,0,1.9,1.9,3.8c-1.9,0-3.8,0-5.7,0c-11.4,3.8-5.7,21,1.9,32.4c7.6,11.4,22.9,26.7,22.9,26.7s3.8-24.8,11.4-41.9
		C515.8,596.9,529.1,575.9,519.6,564.5z"/>
	<path class="st6" d="M519.6,779.8c-5.7-7.6-15.2,0-21,11.4c3.8-15.2,3.8-34.3-9.5-34.3c-19,0-17.1,36.2-13.3,51.4
		c0,1.9,0,1.9,1.9,3.8c-1.9,0-3.8,0-5.7,0c-11.4,3.8-5.7,21,1.9,32.4c7.6,11.4,22.9,26.7,22.9,26.7s3.8-24.8,11.4-41.9
		C515.8,812.2,529.1,791.3,519.6,779.8z"/>
	<path class="st6" d="M768.8,826.2c-5.7-7.6-15.2,0-21,11.4c3.8-15.2,3.8-34.3-9.5-34.3c-19,0-17.1,36.2-13.3,51.4
		c0,1.9,0,1.9,1.9,3.8c-1.9,0-3.8,0-5.7,0c-11.4,3.8-5.7,21,1.9,32.4c7.6,11.4,22.9,26.7,22.9,26.7s3.8-24.8,11.4-41.9
		C765,858.5,778.3,837.6,768.8,826.2z"/>
	<path class="st6" d="M761.7,598.1c-5.7-7.6-15.2,0-21,11.4c3.8-15.2,3.8-34.3-9.5-34.3c-19,0-17.1,36.2-13.3,51.4
		c0,1.9,0,1.9,1.9,3.8c-1.9,0-3.8,0-5.7,0c-11.4,3.8-5.7,21,1.9,32.4c7.6,11.4,22.9,26.7,22.9,26.7s3.8-24.8,11.4-41.9
		C757.9,630.5,771.2,609.5,761.7,598.1z"/>
	<path class="st6" d="M768.8,415.1c-5.7-7.6-15.2,0-21,11.4c3.8-15.2,3.8-34.3-9.5-34.3c-19,0-17.1,36.2-13.3,51.4
		c0,1.9,0,1.9,1.9,3.8c-1.9,0-3.8,0-5.7,0c-11.4,3.8-5.7,21,1.9,32.4s22.9,26.7,22.9,26.7s3.8-24.8,11.4-41.9
		C765,447.5,778.3,426.5,768.8,415.1z"/>
	<path class="st6" d="M780.1,230.5c-5.7-7.6-15.2,0-21,11.4c3.8-15.2,3.8-34.3-9.5-34.3c-19,0-17.1,36.2-13.3,51.4
		c0,1.9,0,1.9,1.9,3.8c-1.9,0-3.8,0-5.7,0c-11.4,3.8-5.7,21,1.9,32.4s22.9,26.7,22.9,26.7s3.8-24.8,11.4-41.9
		S789.6,241.9,780.1,230.5z"/>
	<path class="st6" d="M790.4,54.6c-5.7-7.6-15.2,0-21,11.4c3.8-15.2,3.8-34.3-9.5-34.3c-19,0-17.1,36.2-13.3,51.4
		c0,1.9,0,1.9,1.9,3.8c-1.9,0-3.8,0-5.7,0c-11.4,3.8-5.7,21,1.9,32.4s22.9,26.7,22.9,26.7s3.8-24.8,11.4-41.9S799.9,66,790.4,54.6z"
		/>
</g>
<g id="carrot">
	<g>
		<path class="st7" d="M261.3,81.3c0,0,8.8-29.8,36.4-24.9c0,0,6.7,0.7,7.5,6.6c0.8,5.8-5.3,10.1-11.5,8.9
			C288.2,70.8,278.3,72,261.3,81.3z"/>
		<path class="st7" d="M261.3,81.3c0,0-6-30.3-31.8-27.4c0,0-9.3,0.2-12.3,6c-2.8,5.4,2.5,11.4,8.5,10.1
			C232.2,68.4,243.7,69.1,261.3,81.3z"/>
		<path class="st7" d="M298.2,57.8c0,0,0.2,0,0.5,0.1c0.1-0.7,0.1-1.5,0-2.3c-0.6-7.3-6.3-8.1-6.3-8.1C269,41.8,261,79,261,79
			c1.2-0.9,2.3-1.8,3.4-2.6C268.7,68,278.8,54.4,298.2,57.8z"/>
		<path class="st8" d="M229.5,53.9c19.9-2.2,28,15.3,30.7,23.4c0.1,0.1,0.2,0.2,0.4,0.4c0,0-4.7-37.7-26.7-33.7
			c0,0-7.9,0.3-10.6,7.7c-0.5,1.3-0.7,2.5-0.7,3.8C225.9,54,229.5,53.9,229.5,53.9z"/>
		<path class="st9" d="M261.7,31.7c-9.3,1.6-11.3,14.1-11.3,14.1c0.1,2.6,0.5,5.2,1,7.7c5.8,8.3,8.4,20.7,9.4,26.5
			c0.3,0.6,0.6,1.2,0.8,1.6c1-4.4,4.4-16.9,11.1-25.6c0.8-3.1,1.3-6.3,1.5-9.4C275.1,30.2,261.7,31.7,261.7,31.7z"/>
		<path class="st8" d="M261.3,81.3c0,0,8.8-29.8,36.4-24.9c0,0,6.7,0.7,7.5,6.6c0.8,5.8-5.3,10.1-11.5,8.9
			C288.2,70.8,278.3,72,261.3,81.3z"/>
		<g>
			<path class="st10" d="M260.7,78.5c0.4,1.3,0.5,2.1,0.5,2.1s0.3-1.1,1.1-2.9C261.8,78,261.3,78.2,260.7,78.5z"/>
			<path class="st11" d="M258.8,114.3c6.2-0.4,12.4-0.7,18.6-0.5c3.2-16.6,4.8-30.5,3.2-34.3c-1.1-2.5-2.8-4.3-4.8-5.6
				c-4.1,1.5-8.9,3.7-14.5,6.7c-5.8-4-10.9-6.8-15.4-8.6c-2.7,1.2-5.2,3-6.7,6c-2,3.8-1.3,18.8,0.8,36.6
				C246.2,114.2,252.5,114.2,258.8,114.3z"/>
		</g>
		<g>
			<path class="st12" d="M275.7,82.7c-4.4,1.8-9.5,2.4-15.1,1.7c-1.2-0.1-2.3,0.7-2.4,1.9c-0.1,1.2,0.7,2.3,1.9,2.4
				c6.3,0.7,12.1,0.1,17.2-2c0.2-0.1,0.5-0.2,0.7-0.4c0.6-0.6,0.9-1.5,0.5-2.4C278.1,82.7,276.8,82.2,275.7,82.7z"/>
			<g>
				<path class="st12" d="M238.1,94.4c0.8-0.4,1.7-0.4,2.4,0.3c2.7,2.3,7.1,4.4,11,3.9c1.2-0.2,2.3,0.7,2.4,1.9
					c0.1,0.7-0.2,1.4-0.7,1.9c-0.3,0.3-0.7,0.5-1.2,0.6c-5.2,0.7-10.6-1.8-13.8-4.4"/>
				<path class="st12" d="M252.2,102.8c0.5-0.1,0.9-0.3,1.2-0.6c0.5-0.5,0.8-1.2,0.7-1.9c-0.2-1.2-1.2-2-2.4-1.9
					c-3.9,0.5-8.3-1.6-11-3.9c-0.7-0.6-1.7-0.7-2.4-0.3c0.1,1.3,0.1,2.6,0.2,4C241.6,101,246.9,103.5,252.2,102.8z"/>
			</g>
			<g>
				<path class="st12" d="M275.8,113.7c0.7-0.3,1.3-0.7,1.8-1.1l0.7-4c-0.7-0.5-1.7-0.5-2.5,0c-2.8,2.1-7.4,3.9-11.3,3.1
					c-1.2-0.2-2.3,0.5-2.6,1.7c-0.1,0.2,0,0.5,0,0.7C266.6,113.9,271.2,113.7,275.8,113.7z"/>
				<path class="st12" d="M275.8,113.7c0.7-0.4,1.3-0.7,1.8-1.1c0.3-1.4,0.5-2.7,0.7-4c-0.7-0.5-1.7-0.5-2.5,0
					c-2.8,2.1-7.4,3.9-11.3,3.1c-1.2-0.2-2.3,0.5-2.6,1.7c-0.1,0.2-0.1,0.5,0,0.7C266.6,113.9,271.2,113.7,275.8,113.7z"/>
			</g>
		</g>
	</g>
	<g>
		<path class="st7" d="M254.5,255.9c0,0,8.8-29.8,36.4-24.9c0,0,6.7,0.7,7.5,6.6c0.8,5.8-5.3,10.1-11.5,8.9
			C281.4,245.4,271.6,246.6,254.5,255.9z"/>
		<path class="st7" d="M254.5,255.9c0,0-6-30.3-31.8-27.4c0,0-9.3,0.2-12.3,6c-2.8,5.4,2.5,11.4,8.5,10.1
			C225.4,243,237,243.7,254.5,255.9z"/>
		<path class="st7" d="M291.4,232.4c0,0,0.2,0,0.5,0.1c0.1-0.7,0.1-1.5,0-2.3c-0.6-7.3-6.3-8.1-6.3-8.1
			c-23.5-5.6-31.4,31.6-31.4,31.6c1.2-0.9,2.3-1.8,3.4-2.6C262,242.6,272,229,291.4,232.4z"/>
		<path class="st8" d="M222.7,228.5c19.9-2.2,28,15.3,30.7,23.4c0.1,0.1,0.2,0.2,0.4,0.4c0,0-4.7-37.7-26.7-33.7
			c0,0-7.9,0.3-10.6,7.7c-0.5,1.3-0.7,2.5-0.7,3.8C219.1,228.6,222.7,228.5,222.7,228.5z"/>
		<path class="st9" d="M254.9,206.3c-9.3,1.6-11.3,14.1-11.3,14.1c0.1,2.6,0.5,5.2,1,7.7c5.8,8.3,8.4,20.7,9.4,26.5
			c0.3,0.6,0.6,1.2,0.8,1.6c1-4.4,4.4-16.9,11.1-25.6c0.8-3.1,1.3-6.3,1.5-9.4C268.4,204.8,254.9,206.3,254.9,206.3z"/>
		<path class="st8" d="M254.5,255.9c0,0,8.8-29.8,36.4-24.9c0,0,6.7,0.7,7.5,6.6c0.8,5.8-5.3,10.1-11.5,8.9
			C281.4,245.4,271.6,246.6,254.5,255.9z"/>
		<g>
			<path class="st10" d="M254,253.1c0.4,1.3,0.5,2.1,0.5,2.1s0.3-1.1,1.1-2.9C255,252.6,254.5,252.8,254,253.1z"/>
			<path class="st11" d="M252,288.9c6.2-0.4,12.4-0.7,18.6-0.5c3.2-16.6,4.8-30.5,3.2-34.3c-1.1-2.5-2.8-4.3-4.8-5.6
				c-4.1,1.5-8.9,3.7-14.5,6.7c-5.8-4-10.9-6.8-15.4-8.6c-2.7,1.2-5.2,3-6.7,6c-2,3.8-1.3,18.8,0.8,36.6
				C239.4,288.8,245.7,288.8,252,288.9z"/>
		</g>
		<g>
			<path class="st12" d="M269,257.2c-4.4,1.8-9.5,2.4-15.1,1.7c-1.2-0.1-2.3,0.7-2.4,1.9c-0.1,1.2,0.7,2.3,1.9,2.4
				c6.3,0.7,12.1,0.1,17.2-2c0.2-0.1,0.5-0.2,0.7-0.4c0.6-0.6,0.9-1.5,0.5-2.4C271.3,257.3,270.1,256.8,269,257.2z"/>
			<g>
				<path class="st12" d="M231.3,269c0.8-0.4,1.7-0.4,2.4,0.3c2.7,2.3,7.1,4.4,11,3.9c1.2-0.2,2.3,0.7,2.4,1.9
					c0.1,0.7-0.2,1.4-0.7,1.9c-0.3,0.3-0.7,0.5-1.2,0.6c-5.2,0.7-10.6-1.8-13.8-4.4"/>
				<path class="st12" d="M245.4,277.4c0.5-0.1,0.9-0.3,1.2-0.6c0.5-0.5,0.8-1.2,0.7-1.9c-0.2-1.2-1.2-2-2.4-1.9
					c-3.9,0.5-8.3-1.6-11-3.9c-0.7-0.6-1.7-0.7-2.4-0.3c0.1,1.3,0.1,2.6,0.2,4C234.8,275.6,240.1,278.1,245.4,277.4z"/>
			</g>
			<g>
				<path class="st12" d="M269,288.3c0.7-0.3,1.3-0.7,1.8-1.1l0.7-4c-0.7-0.5-1.7-0.5-2.5,0c-2.8,2.1-7.4,3.9-11.3,3.1
					c-1.2-0.2-2.3,0.5-2.6,1.7c-0.1,0.2,0,0.5,0,0.7C259.8,288.4,264.4,288.3,269,288.3z"/>
				<path class="st12" d="M269,288.3c0.7-0.4,1.3-0.7,1.8-1.1c0.3-1.4,0.5-2.7,0.7-4c-0.7-0.5-1.7-0.5-2.5,0
					c-2.8,2.1-7.4,3.9-11.3,3.1c-1.2-0.2-2.3,0.5-2.6,1.7c-0.1,0.2-0.1,0.5,0,0.7C259.8,288.4,264.4,288.3,269,288.3z"/>
			</g>
		</g>
	</g>
	<g>
		<path class="st7" d="M231.6,857.3c0,0,8.8-29.8,36.4-24.9c0,0,6.7,0.7,7.5,6.6c0.8,5.8-5.3,10.1-11.5,8.9
			C258.5,846.7,248.7,848,231.6,857.3z"/>
		<path class="st7" d="M231.6,857.3c0,0-6-30.3-31.8-27.4c0,0-9.3,0.2-12.3,6c-2.8,5.4,2.5,11.4,8.5,10.1
			C202.6,844.4,214.1,845.1,231.6,857.3z"/>
		<path class="st7" d="M268.5,833.7c0,0,0.2,0,0.5,0.1c0.1-0.7,0.1-1.5,0-2.3c-0.6-7.3-6.3-8.1-6.3-8.1
			c-23.5-5.6-31.4,31.6-31.4,31.6c1.2-0.9,2.3-1.8,3.4-2.6C239.1,844,249.2,830.4,268.5,833.7z"/>
		<path class="st8" d="M199.8,829.9c19.9-2.2,28,15.3,30.7,23.4c0.1,0.1,0.2,0.2,0.4,0.4c0,0-4.7-37.7-26.7-33.7
			c0,0-7.9,0.3-10.6,7.7c-0.5,1.3-0.7,2.5-0.7,3.8C196.3,829.9,199.8,829.9,199.8,829.9z"/>
		<path class="st9" d="M232,807.7c-9.3,1.6-11.3,14.1-11.3,14.1c0.1,2.6,0.5,5.2,1,7.7c5.8,8.3,8.4,20.7,9.4,26.5
			c0.3,0.6,0.6,1.2,0.8,1.6c1-4.4,4.4-16.9,11.1-25.6c0.8-3.1,1.3-6.3,1.5-9.4C245.5,806.2,232,807.7,232,807.7z"/>
		<path class="st8" d="M231.6,857.3c0,0,8.8-29.8,36.4-24.9c0,0,6.7,0.7,7.5,6.6c0.8,5.8-5.3,10.1-11.5,8.9
			C258.5,846.7,248.7,848,231.6,857.3z"/>
		<g>
			<path class="st10" d="M231.1,854.5c0.4,1.3,0.5,2.1,0.5,2.1s0.3-1.1,1.1-2.9C232.2,853.9,231.6,854.2,231.1,854.5z"/>
			<path class="st11" d="M229.1,890.3c6.2-0.4,12.4-0.7,18.6-0.5c3.2-16.6,4.8-30.5,3.2-34.3c-1.1-2.5-2.8-4.3-4.8-5.6
				c-4.1,1.5-8.9,3.7-14.5,6.7c-5.8-4-10.9-6.8-15.4-8.6c-2.7,1.2-5.2,3-6.7,6c-2,3.8-1.3,18.8,0.8,36.6
				C216.5,890.2,222.8,890.2,229.1,890.3z"/>
		</g>
		<g>
			<path class="st12" d="M246.1,858.6c-4.4,1.8-9.5,2.4-15.1,1.7c-1.2-0.1-2.3,0.7-2.4,1.9c-0.1,1.2,0.7,2.3,1.9,2.4
				c6.3,0.7,12.1,0.1,17.2-2c0.3-0.1,0.5-0.2,0.7-0.4c0.6-0.6,0.9-1.5,0.5-2.4C248.5,858.7,247.2,858.2,246.1,858.6z"/>
			<g>
				<path class="st12" d="M208.5,870.4c0.8-0.4,1.7-0.4,2.4,0.3c2.7,2.3,7.1,4.4,11,3.9c1.2-0.2,2.3,0.7,2.4,1.9
					c0.1,0.7-0.2,1.4-0.7,1.9c-0.3,0.3-0.7,0.5-1.2,0.6c-5.2,0.7-10.6-1.8-13.8-4.4"/>
				<path class="st12" d="M222.5,878.8c0.5-0.1,0.9-0.3,1.2-0.6c0.5-0.5,0.8-1.2,0.7-1.9c-0.2-1.2-1.2-2-2.4-1.9
					c-3.9,0.5-8.3-1.6-11-3.9c-0.7-0.6-1.7-0.7-2.4-0.3c0.1,1.3,0.1,2.6,0.2,4C212,877,217.3,879.5,222.5,878.8z"/>
			</g>
			<g>
				<path class="st12" d="M246.1,889.7c0.7-0.3,1.3-0.7,1.8-1.1l0.7-4c-0.7-0.5-1.7-0.5-2.5,0c-2.8,2.1-7.4,3.9-11.3,3.1
					c-1.2-0.2-2.3,0.5-2.6,1.7c-0.1,0.2,0,0.5,0,0.7C237,889.8,241.6,889.7,246.1,889.7z"/>
				<path class="st12" d="M246.1,889.7c0.7-0.4,1.3-0.7,1.8-1.1c0.3-1.4,0.5-2.7,0.7-4c-0.7-0.5-1.7-0.5-2.5,0
					c-2.8,2.1-7.4,3.9-11.3,3.1c-1.2-0.2-2.3,0.5-2.6,1.7c-0.1,0.2-0.1,0.5,0,0.7C237,889.8,241.5,889.7,246.1,889.7z"/>
			</g>
		</g>
	</g>
	<g>
		<path class="st7" d="M242,413.1c0,0,8.8-29.8,36.4-24.9c0,0,6.7,0.7,7.5,6.6c0.8,5.8-5.3,10.1-11.5,8.9
			C268.9,402.6,259,403.8,242,413.1z"/>
		<path class="st7" d="M242,413.1c0,0-6-30.3-31.8-27.4c0,0-9.3,0.2-12.3,6c-2.8,5.4,2.5,11.4,8.5,10.1
			C212.9,400.3,224.4,400.9,242,413.1z"/>
		<path class="st7" d="M278.9,389.6c0,0,0.2,0,0.5,0.1c0.1-0.7,0.1-1.5,0-2.3c-0.6-7.3-6.3-8.1-6.3-8.1
			c-23.5-5.6-31.4,31.6-31.4,31.6c1.2-0.9,2.3-1.8,3.4-2.6C249.4,399.8,259.5,386.2,278.9,389.6z"/>
		<path class="st8" d="M210.2,385.7c19.9-2.2,28,15.3,30.7,23.4c0.1,0.1,0.2,0.2,0.4,0.4c0,0-4.7-37.7-26.7-33.7
			c0,0-7.9,0.3-10.6,7.7c-0.5,1.3-0.7,2.5-0.7,3.8C206.6,385.8,210.2,385.7,210.2,385.7z"/>
		<path class="st9" d="M242.4,363.5c-9.3,1.6-11.3,14.1-11.3,14.1c0.1,2.6,0.5,5.2,1,7.7c5.8,8.3,8.4,20.7,9.4,26.5
			c0.3,0.6,0.6,1.2,0.8,1.6c1-4.4,4.4-16.9,11.1-25.6c0.8-3.1,1.3-6.3,1.5-9.4C255.8,362,242.4,363.5,242.4,363.5z"/>
		<path class="st8" d="M242,413.1c0,0,8.8-29.8,36.4-24.9c0,0,6.7,0.7,7.5,6.6c0.8,5.8-5.3,10.1-11.5,8.9
			C268.9,402.6,259,403.8,242,413.1z"/>
		<g>
			<path class="st10" d="M241.4,410.4c0.4,1.3,0.5,2.1,0.5,2.1s0.3-1.1,1.1-2.9C242.5,409.8,242,410.1,241.4,410.4z"/>
			<path class="st11" d="M239.5,446.1c6.2-0.4,12.4-0.7,18.6-0.5c3.2-16.6,4.8-30.5,3.2-34.3c-1.1-2.5-2.8-4.3-4.8-5.6
				c-4.1,1.5-8.9,3.7-14.5,6.7c-5.8-4-10.9-6.8-15.4-8.6c-2.7,1.2-5.2,3-6.7,6c-2,3.8-1.3,18.8,0.8,36.6
				C226.9,446,233.2,446,239.5,446.1z"/>
		</g>
		<g>
			<path class="st12" d="M256.4,414.5c-4.4,1.8-9.5,2.4-15.1,1.7c-1.2-0.1-2.3,0.7-2.4,1.9c-0.1,1.2,0.7,2.3,1.9,2.4
				c6.3,0.7,12.1,0.1,17.2-2c0.3-0.1,0.5-0.2,0.7-0.4c0.6-0.6,0.9-1.5,0.5-2.4C258.8,414.6,257.5,414,256.4,414.5z"/>
			<g>
				<path class="st12" d="M218.8,426.2c0.8-0.4,1.7-0.4,2.4,0.3c2.7,2.3,7.1,4.4,11,3.9c1.2-0.2,2.3,0.7,2.4,1.9
					c0.1,0.7-0.2,1.4-0.7,1.9c-0.3,0.3-0.7,0.5-1.2,0.6c-5.2,0.7-10.6-1.8-13.8-4.4"/>
				<path class="st12" d="M232.9,434.7c0.5-0.1,0.9-0.3,1.2-0.6c0.5-0.5,0.8-1.2,0.7-1.9c-0.2-1.2-1.2-2-2.4-1.9
					c-3.9,0.5-8.3-1.6-11-3.9c-0.7-0.6-1.7-0.7-2.4-0.3c0.1,1.3,0.1,2.6,0.2,4C222.3,432.8,227.6,435.4,232.9,434.7z"/>
			</g>
			<g>
				<path class="st12" d="M256.5,445.6c0.7-0.3,1.3-0.7,1.8-1.1l0.7-4c-0.7-0.5-1.7-0.5-2.5,0c-2.8,2.1-7.4,3.9-11.3,3.1
					c-1.2-0.2-2.3,0.5-2.6,1.7c-0.1,0.2,0,0.5,0,0.7C247.3,445.7,251.9,445.5,256.5,445.6z"/>
				<path class="st12" d="M256.5,445.6c0.7-0.4,1.3-0.7,1.8-1.1c0.3-1.4,0.5-2.7,0.7-4c-0.7-0.5-1.7-0.5-2.5,0
					c-2.8,2.1-7.4,3.9-11.3,3.1c-1.2-0.2-2.3,0.5-2.6,1.7c-0.1,0.2-0.1,0.5,0,0.7C247.3,445.7,251.9,445.5,256.5,445.6z"/>
			</g>
		</g>
	</g>
	<g>
		<path class="st7" d="M233.1,544.1c0,0,8.8-29.8,36.4-24.9c0,0,6.7,0.7,7.5,6.6c0.8,5.8-5.3,10.1-11.5,8.9
			C260,533.5,250.2,534.7,233.1,544.1z"/>
		<path class="st7" d="M233.1,544.1c0,0-6-30.3-31.8-27.4c0,0-9.3,0.2-12.3,6c-2.8,5.4,2.5,11.4,8.5,10.1
			C204.1,531.2,215.6,531.9,233.1,544.1z"/>
		<path class="st7" d="M270.1,520.5c0,0,0.2,0,0.5,0.1c0.1-0.7,0.1-1.5,0-2.3c-0.6-7.3-6.3-8.1-6.3-8.1
			c-23.5-5.6-31.4,31.6-31.4,31.6c1.2-0.9,2.3-1.8,3.4-2.6C240.6,530.7,250.7,517.1,270.1,520.5z"/>
		<path class="st8" d="M201.3,516.7c19.9-2.2,28,15.3,30.7,23.4c0.1,0.1,0.2,0.2,0.4,0.4c0,0-4.7-37.7-26.7-33.7
			c0,0-7.9,0.3-10.6,7.7c-0.5,1.3-0.7,2.5-0.7,3.8C197.8,516.7,201.3,516.7,201.3,516.7z"/>
		<path class="st9" d="M233.5,494.4c-9.3,1.6-11.3,14.1-11.3,14.1c0.1,2.6,0.5,5.2,1,7.7c5.8,8.3,8.4,20.7,9.4,26.5
			c0.3,0.6,0.6,1.2,0.8,1.6c1-4.4,4.4-16.9,11.1-25.6c0.8-3.1,1.3-6.3,1.5-9.4C247,493,233.5,494.4,233.5,494.4z"/>
		<path class="st8" d="M233.1,544.1c0,0,8.8-29.8,36.4-24.9c0,0,6.7,0.7,7.5,6.6c0.8,5.8-5.3,10.1-11.5,8.9
			C260,533.5,250.2,534.7,233.1,544.1z"/>
		<g>
			<path class="st10" d="M232.6,541.3c0.4,1.3,0.5,2.1,0.5,2.1s0.3-1.1,1.1-2.9C233.7,540.7,233.1,541,232.6,541.3z"/>
			<path class="st11" d="M230.6,577.1c6.2-0.4,12.4-0.7,18.6-0.5c3.2-16.6,4.8-30.5,3.2-34.3c-1.1-2.5-2.8-4.3-4.8-5.6
				c-4.1,1.5-8.9,3.7-14.5,6.7c-5.8-4-10.9-6.8-15.4-8.6c-2.7,1.2-5.2,3-6.7,6c-2,3.8-1.3,18.8,0.8,36.6
				C218,577,224.3,576.9,230.6,577.1z"/>
		</g>
		<g>
			<path class="st12" d="M247.6,545.4c-4.4,1.8-9.5,2.4-15.1,1.7c-1.2-0.1-2.3,0.7-2.4,1.9c-0.1,1.2,0.7,2.3,1.9,2.4
				c6.3,0.7,12.1,0.1,17.2-2c0.3-0.1,0.5-0.2,0.7-0.4c0.6-0.6,0.9-1.5,0.5-2.4C250,545.5,248.7,545,247.6,545.4z"/>
			<g>
				<path class="st12" d="M210,557.1c0.8-0.4,1.7-0.4,2.4,0.3c2.7,2.3,7.1,4.4,11,3.9c1.2-0.2,2.3,0.7,2.4,1.9
					c0.1,0.7-0.2,1.4-0.7,1.9c-0.3,0.3-0.7,0.5-1.2,0.6c-5.2,0.7-10.6-1.8-13.8-4.4"/>
				<path class="st12" d="M224,565.6c0.5-0.1,0.9-0.3,1.2-0.6c0.5-0.5,0.8-1.2,0.7-1.9c-0.2-1.2-1.2-2-2.4-1.9
					c-3.9,0.5-8.3-1.6-11-3.9c-0.7-0.6-1.7-0.7-2.4-0.3c0.1,1.3,0.1,2.6,0.2,4C213.5,563.7,218.8,566.3,224,565.6z"/>
			</g>
			<g>
				<path class="st12" d="M247.7,576.5c0.7-0.3,1.3-0.7,1.8-1.1l0.7-4c-0.7-0.5-1.7-0.5-2.5,0c-2.8,2.1-7.4,3.9-11.3,3.1
					c-1.2-0.2-2.3,0.5-2.6,1.7c-0.1,0.2,0,0.5,0,0.7C238.5,576.6,243.1,576.4,247.7,576.5z"/>
				<path class="st12" d="M247.7,576.5c0.7-0.4,1.3-0.7,1.8-1.1c0.3-1.4,0.5-2.7,0.7-4c-0.7-0.5-1.7-0.5-2.5,0
					c-2.8,2.1-7.4,3.9-11.3,3.1c-1.2-0.2-2.3,0.5-2.6,1.7c-0.1,0.2-0.1,0.5,0,0.7C238.5,576.6,243.1,576.4,247.7,576.5z"/>
			</g>
		</g>
	</g>
	<g>
		<path class="st7" d="M240.7,698.9c0,0,8.8-29.8,36.4-24.9c0,0,6.7,0.7,7.5,6.6c0.8,5.8-5.3,10.1-11.5,8.9
			C267.6,688.4,257.8,689.6,240.7,698.9z"/>
		<path class="st7" d="M240.7,698.9c0,0-6-30.3-31.8-27.4c0,0-9.3,0.2-12.3,6c-2.8,5.4,2.5,11.4,8.5,10.1
			C211.7,686.1,223.2,686.7,240.7,698.9z"/>
		<path class="st7" d="M277.7,675.4c0,0,0.2,0,0.5,0.1c0.1-0.7,0.1-1.5,0-2.3c-0.6-7.3-6.3-8.1-6.3-8.1
			c-23.5-5.6-31.4,31.6-31.4,31.6c1.2-0.9,2.3-1.8,3.4-2.6C248.2,685.6,258.3,672,277.7,675.4z"/>
		<path class="st8" d="M208.9,671.5c19.9-2.2,28,15.3,30.7,23.4c0.1,0.1,0.2,0.2,0.4,0.4c0,0-4.7-37.7-26.7-33.7
			c0,0-7.9,0.3-10.6,7.7c-0.5,1.3-0.7,2.5-0.7,3.8C205.4,671.6,208.9,671.5,208.9,671.5z"/>
		<path class="st9" d="M241.2,649.3c-9.3,1.6-11.3,14.1-11.3,14.1c0.1,2.6,0.5,5.2,1,7.7c5.8,8.3,8.4,20.7,9.4,26.5
			c0.3,0.6,0.6,1.2,0.8,1.6c1-4.4,4.4-16.9,11.1-25.6c0.8-3.1,1.3-6.3,1.5-9.4C254.6,647.8,241.2,649.3,241.2,649.3z"/>
		<path class="st8" d="M240.7,698.9c0,0,8.8-29.8,36.4-24.9c0,0,6.7,0.7,7.5,6.6c0.8,5.8-5.3,10.1-11.5,8.9
			C267.6,688.4,257.8,689.6,240.7,698.9z"/>
		<g>
			<path class="st10" d="M240.2,696.1c0.4,1.3,0.5,2.1,0.5,2.1s0.3-1.1,1.1-2.9C241.3,695.6,240.7,695.9,240.2,696.1z"/>
			<path class="st11" d="M238.3,731.9c6.2-0.4,12.4-0.7,18.6-0.5c3.2-16.6,4.8-30.5,3.2-34.3c-1.1-2.5-2.8-4.3-4.8-5.6
				c-4.1,1.5-8.9,3.7-14.5,6.7c-5.8-4-10.9-6.8-15.4-8.6c-2.7,1.2-5.2,3-6.7,6c-2,3.8-1.3,18.8,0.8,36.6
				C225.7,731.8,232,731.8,238.3,731.9z"/>
		</g>
		<g>
			<path class="st12" d="M255.2,700.3c-4.4,1.8-9.5,2.4-15.1,1.7c-1.2-0.1-2.3,0.7-2.4,1.9c-0.1,1.2,0.7,2.3,1.9,2.4
				c6.3,0.7,12.1,0.1,17.2-2c0.3-0.1,0.5-0.2,0.7-0.4c0.6-0.6,0.9-1.5,0.5-2.4C257.6,700.4,256.3,699.8,255.2,700.3z"/>
			<g>
				<path class="st12" d="M217.6,712c0.8-0.4,1.7-0.4,2.4,0.3c2.7,2.3,7.1,4.4,11,3.9c1.2-0.2,2.3,0.7,2.4,1.9
					c0.1,0.7-0.2,1.4-0.7,1.9c-0.3,0.3-0.7,0.5-1.2,0.6c-5.2,0.7-10.6-1.8-13.8-4.4"/>
				<path class="st12" d="M231.6,720.4c0.5-0.1,0.9-0.3,1.2-0.6c0.5-0.5,0.8-1.2,0.7-1.9c-0.2-1.2-1.2-2-2.4-1.9
					c-3.9,0.5-8.3-1.6-11-3.9c-0.7-0.6-1.7-0.7-2.4-0.3c0.1,1.3,0.1,2.6,0.2,4C221.1,718.6,226.4,721.1,231.6,720.4z"/>
			</g>
			<g>
				<path class="st12" d="M255.3,731.4c0.7-0.3,1.3-0.7,1.8-1.1l0.7-4c-0.7-0.5-1.7-0.5-2.5,0c-2.8,2.1-7.4,3.9-11.3,3.1
					c-1.2-0.2-2.3,0.5-2.6,1.7c-0.1,0.2,0,0.5,0,0.7C246.1,731.5,250.7,731.3,255.3,731.4z"/>
				<path class="st12" d="M255.3,731.4c0.7-0.4,1.3-0.7,1.8-1.1c0.3-1.4,0.5-2.7,0.7-4c-0.7-0.5-1.7-0.5-2.5,0
					c-2.8,2.1-7.4,3.9-11.3,3.1c-1.2-0.2-2.3,0.5-2.6,1.7c-0.1,0.2-0.1,0.5,0,0.7C246.1,731.5,250.7,731.3,255.3,731.4z"/>
			</g>
		</g>
	</g>
	<g>
		<path class="st7" d="M510.4,75.7c0,0,8.8-29.8,36.4-24.9c0,0,6.7,0.7,7.5,6.6c0.8,5.8-5.3,10.1-11.5,8.9
			C537.3,65.2,527.5,66.4,510.4,75.7z"/>
		<path class="st7" d="M510.4,75.7c0,0-6-30.3-31.8-27.4c0,0-9.3,0.2-12.3,6c-2.8,5.4,2.5,11.4,8.5,10.1
			C481.4,62.8,492.9,63.5,510.4,75.7z"/>
		<path class="st7" d="M547.4,52.2c0,0,0.2,0,0.5,0.1c0.1-0.7,0.1-1.5,0-2.3c-0.6-7.3-6.3-8.1-6.3-8.1
			c-23.5-5.6-31.4,31.6-31.4,31.6c1.2-0.9,2.3-1.8,3.4-2.6C517.9,62.4,528,48.8,547.4,52.2z"/>
		<path class="st8" d="M478.6,48.3c19.9-2.2,28,15.3,30.7,23.4c0.1,0.1,0.2,0.2,0.4,0.4c0,0-4.7-37.7-26.7-33.7
			c0,0-7.9,0.3-10.6,7.7c-0.5,1.3-0.7,2.5-0.7,3.8C475.1,48.4,478.6,48.3,478.6,48.3z"/>
		<path class="st9" d="M510.9,26.1c-9.3,1.6-11.3,14.1-11.3,14.1c0.1,2.6,0.5,5.2,1,7.7c5.8,8.3,8.4,20.7,9.4,26.5
			c0.3,0.6,0.6,1.2,0.8,1.6c1-4.4,4.4-16.9,11.1-25.6c0.8-3.1,1.3-6.3,1.5-9.4C524.3,24.6,510.9,26.1,510.9,26.1z"/>
		<path class="st8" d="M510.4,75.7c0,0,8.8-29.8,36.4-24.9c0,0,6.7,0.7,7.5,6.6c0.8,5.8-5.3,10.1-11.5,8.9
			C537.3,65.2,527.5,66.4,510.4,75.7z"/>
		<g>
			<path class="st10" d="M509.9,72.9c0.4,1.3,0.5,2.1,0.5,2.1s0.3-1.1,1.1-2.9C511,72.4,510.4,72.6,509.9,72.9z"/>
			<path class="st11" d="M507.9,108.7c6.2-0.4,12.4-0.7,18.6-0.5c3.2-16.6,4.8-30.5,3.2-34.3c-1.1-2.5-2.8-4.3-4.8-5.6
				c-4.1,1.5-8.9,3.7-14.5,6.7c-5.8-4-10.9-6.8-15.4-8.6c-2.7,1.2-5.2,3-6.7,6c-2,3.8-1.3,18.8,0.8,36.6
				C495.3,108.6,501.6,108.6,507.9,108.7z"/>
		</g>
		<g>
			<path class="st12" d="M524.9,77c-4.4,1.8-9.5,2.4-15.1,1.7c-1.2-0.1-2.3,0.7-2.4,1.9c-0.1,1.2,0.7,2.3,1.9,2.4
				c6.3,0.7,12.1,0.1,17.2-2c0.2-0.1,0.5-0.2,0.7-0.4c0.6-0.6,0.9-1.5,0.5-2.4C527.3,77.1,526,76.6,524.9,77z"/>
			<g>
				<path class="st12" d="M487.3,88.8c0.8-0.4,1.7-0.4,2.4,0.3c2.7,2.3,7.1,4.4,11,3.9c1.2-0.2,2.3,0.7,2.4,1.9
					c0.1,0.7-0.2,1.4-0.7,1.9c-0.3,0.3-0.7,0.5-1.2,0.6c-5.2,0.7-10.6-1.8-13.8-4.4"/>
				<path class="st12" d="M501.3,97.2c0.5-0.1,0.9-0.3,1.2-0.6c0.5-0.5,0.8-1.2,0.7-1.9c-0.2-1.2-1.2-2-2.4-1.9
					c-3.9,0.5-8.3-1.6-11-3.9c-0.7-0.6-1.7-0.7-2.4-0.3c0.1,1.3,0.1,2.6,0.2,4C490.8,95.4,496.1,97.9,501.3,97.2z"/>
			</g>
			<g>
				<path class="st12" d="M525,108.1c0.7-0.3,1.3-0.7,1.8-1.1l0.7-4c-0.7-0.5-1.7-0.5-2.5,0c-2.8,2.1-7.4,3.9-11.3,3.1
					c-1.2-0.2-2.3,0.5-2.6,1.7c-0.1,0.2,0,0.5,0,0.7C515.8,108.2,520.4,108.1,525,108.1z"/>
				<path class="st12" d="M525,108.1c0.7-0.4,1.3-0.7,1.8-1.1c0.3-1.4,0.5-2.7,0.7-4c-0.7-0.5-1.7-0.5-2.5,0
					c-2.8,2.1-7.4,3.9-11.3,3.1c-1.2-0.2-2.3,0.5-2.6,1.7c-0.1,0.2-0.1,0.5,0,0.7C515.8,108.2,520.4,108.1,525,108.1z"/>
			</g>
		</g>
	</g>
	<g>
		<path class="st7" d="M510.1,214.4c0,0,8.8-29.8,36.4-24.9c0,0,6.7,0.7,7.5,6.6c0.8,5.8-5.3,10.1-11.5,8.9
			C537.1,203.9,527.2,205.1,510.1,214.4z"/>
		<path class="st7" d="M510.1,214.4c0,0-6-30.3-31.8-27.4c0,0-9.3,0.2-12.3,6c-2.8,5.4,2.5,11.4,8.5,10.1
			C481.1,201.6,492.6,202.2,510.1,214.4z"/>
		<path class="st7" d="M547.1,190.9c0,0,0.2,0,0.5,0.1c0.1-0.7,0.1-1.5,0-2.3c-0.6-7.3-6.3-8.1-6.3-8.1
			c-23.5-5.6-31.4,31.6-31.4,31.6c1.2-0.9,2.3-1.8,3.4-2.6C517.6,201.1,527.7,187.5,547.1,190.9z"/>
		<path class="st8" d="M478.3,187c19.9-2.2,28,15.3,30.7,23.4c0.1,0.1,0.2,0.2,0.4,0.4c0,0-4.7-37.7-26.7-33.7c0,0-7.9,0.3-10.6,7.7
			c-0.5,1.3-0.7,2.5-0.7,3.8C474.8,187.1,478.3,187,478.3,187z"/>
		<path class="st9" d="M510.6,164.8c-9.3,1.6-11.3,14.1-11.3,14.1c0.1,2.6,0.5,5.2,1,7.7c5.8,8.3,8.4,20.7,9.4,26.5
			c0.3,0.6,0.6,1.2,0.8,1.6c1-4.4,4.4-16.9,11.1-25.6c0.8-3.1,1.3-6.3,1.5-9.4C524,163.3,510.6,164.8,510.6,164.8z"/>
		<path class="st8" d="M510.1,214.4c0,0,8.8-29.8,36.4-24.9c0,0,6.7,0.7,7.5,6.6c0.8,5.8-5.3,10.1-11.5,8.9
			C537.1,203.9,527.2,205.1,510.1,214.4z"/>
		<g>
			<path class="st10" d="M509.6,211.6c0.4,1.3,0.5,2.1,0.5,2.1s0.3-1.1,1.1-2.9C510.7,211.1,510.2,211.4,509.6,211.6z"/>
			<path class="st11" d="M507.7,247.4c6.2-0.4,12.4-0.7,18.6-0.5c3.2-16.6,4.8-30.5,3.2-34.3c-1.1-2.5-2.8-4.3-4.8-5.6
				c-4.1,1.5-8.9,3.7-14.5,6.7c-5.8-4-10.9-6.8-15.4-8.6c-2.7,1.2-5.2,3-6.7,6c-2,3.8-1.3,18.8,0.8,36.6
				C495.1,247.3,501.4,247.3,507.7,247.4z"/>
		</g>
		<g>
			<path class="st12" d="M524.6,215.8c-4.4,1.8-9.5,2.4-15.1,1.7c-1.2-0.1-2.3,0.7-2.4,1.9s0.7,2.3,1.9,2.4c6.3,0.7,12.1,0.1,17.2-2
				c0.3-0.1,0.5-0.2,0.7-0.4c0.6-0.6,0.9-1.5,0.5-2.4C527,215.9,525.7,215.3,524.6,215.8z"/>
			<g>
				<path class="st12" d="M487,227.5c0.8-0.4,1.7-0.4,2.4,0.3c2.7,2.3,7.1,4.4,11,3.9c1.2-0.2,2.3,0.7,2.4,1.9
					c0.1,0.7-0.2,1.4-0.7,1.9c-0.3,0.3-0.7,0.5-1.2,0.6c-5.2,0.7-10.6-1.8-13.8-4.4"/>
				<path class="st12" d="M501,235.9c0.5-0.1,0.9-0.3,1.2-0.6c0.5-0.5,0.8-1.2,0.7-1.9c-0.2-1.2-1.2-2-2.4-1.9
					c-3.9,0.5-8.3-1.6-11-3.9c-0.7-0.6-1.7-0.7-2.4-0.3c0.1,1.3,0.1,2.6,0.2,4C490.5,234.1,495.8,236.7,501,235.9z"/>
			</g>
			<g>
				<path class="st12" d="M524.7,246.9c0.7-0.3,1.3-0.7,1.8-1.1l0.7-4c-0.7-0.5-1.7-0.5-2.5,0c-2.8,2.1-7.4,3.9-11.3,3.1
					c-1.2-0.2-2.3,0.5-2.6,1.7c-0.1,0.2,0,0.5,0,0.7C515.5,247,520.1,246.8,524.7,246.9z"/>
				<path class="st12" d="M524.7,246.9c0.7-0.4,1.3-0.7,1.8-1.1c0.3-1.4,0.5-2.7,0.7-4c-0.7-0.5-1.7-0.5-2.5,0
					c-2.8,2.1-7.4,3.9-11.3,3.1c-1.2-0.2-2.3,0.5-2.6,1.7c-0.1,0.2-0.1,0.5,0,0.7C515.5,247,520.1,246.8,524.7,246.9z"/>
			</g>
		</g>
	</g>
	<g>
		<path class="st7" d="M503.4,371.1c0,0,8.8-29.8,36.4-24.9c0,0,6.7,0.7,7.5,6.6c0.8,5.8-5.3,10.1-11.5,8.9
			C530.3,360.5,520.4,361.7,503.4,371.1z"/>
		<path class="st7" d="M503.4,371.1c0,0-6-30.3-31.8-27.4c0,0-9.3,0.2-12.3,6c-2.8,5.4,2.5,11.4,8.5,10.1
			C474.3,358.2,485.9,358.9,503.4,371.1z"/>
		<path class="st7" d="M540.3,347.5c0,0,0.2,0,0.5,0.1c0.1-0.7,0.1-1.5,0-2.3c-0.6-7.3-6.3-8.1-6.3-8.1
			c-23.5-5.6-31.4,31.6-31.4,31.6c1.2-0.9,2.3-1.8,3.4-2.6C510.8,357.8,520.9,344.1,540.3,347.5z"/>
		<path class="st8" d="M471.6,343.7c19.9-2.2,28,15.3,30.7,23.4c0.1,0.1,0.2,0.2,0.4,0.4c0,0-4.7-37.7-26.7-33.7
			c0,0-7.9,0.3-10.6,7.7c-0.5,1.3-0.7,2.5-0.7,3.8C468,343.7,471.6,343.7,471.6,343.7z"/>
		<path class="st9" d="M503.8,321.4c-9.3,1.6-11.3,14.1-11.3,14.1c0.1,2.6,0.5,5.2,1,7.7c5.8,8.3,8.4,20.7,9.4,26.5
			c0.3,0.6,0.6,1.2,0.8,1.6c1-4.4,4.4-16.9,11.1-25.6c0.8-3.1,1.3-6.3,1.5-9.4C517.2,320,503.8,321.4,503.8,321.4z"/>
		<path class="st8" d="M503.4,371.1c0,0,8.8-29.8,36.4-24.9c0,0,6.7,0.7,7.5,6.6c0.8,5.8-5.3,10.1-11.5,8.9
			C530.3,360.5,520.4,361.7,503.4,371.1z"/>
		<g>
			<path class="st10" d="M502.8,368.3c0.4,1.3,0.5,2.1,0.5,2.1s0.3-1.1,1.1-2.9C503.9,367.7,503.4,368,502.8,368.3z"/>
			<path class="st11" d="M500.9,404.1c6.2-0.4,12.4-0.7,18.6-0.5c3.2-16.6,4.8-30.5,3.2-34.3c-1.1-2.5-2.8-4.3-4.8-5.6
				c-4.1,1.5-8.9,3.7-14.5,6.7c-5.8-4-10.9-6.8-15.4-8.6c-2.7,1.2-5.2,3-6.7,6c-2,3.8-1.3,18.8,0.8,36.6
				C488.3,404,494.6,404,500.9,404.1z"/>
		</g>
		<g>
			<path class="st12" d="M517.8,372.4c-4.4,1.8-9.5,2.4-15.1,1.7c-1.2-0.1-2.3,0.7-2.4,1.9c-0.1,1.2,0.7,2.3,1.9,2.4
				c6.3,0.7,12.1,0.1,17.2-2c0.3-0.1,0.5-0.2,0.7-0.4c0.6-0.6,0.9-1.5,0.5-2.4C520.2,372.5,519,372,517.8,372.4z"/>
			<g>
				<path class="st12" d="M480.2,384.2c0.8-0.4,1.7-0.4,2.4,0.3c2.7,2.3,7.1,4.4,11,3.9c1.2-0.2,2.3,0.7,2.4,1.9
					c0.1,0.7-0.2,1.4-0.7,1.9c-0.3,0.3-0.7,0.5-1.2,0.6c-5.2,0.7-10.6-1.8-13.8-4.4"/>
				<path class="st12" d="M494.3,392.6c0.5-0.1,0.9-0.3,1.2-0.6c0.5-0.5,0.8-1.2,0.7-1.9c-0.2-1.2-1.2-2-2.4-1.9
					c-3.9,0.5-8.3-1.6-11-3.9c-0.7-0.6-1.7-0.7-2.4-0.3c0.1,1.3,0.1,2.6,0.2,4C483.7,390.8,489,393.3,494.3,392.6z"/>
			</g>
			<g>
				<path class="st12" d="M517.9,403.5c0.7-0.3,1.3-0.7,1.8-1.1l0.7-4c-0.7-0.5-1.7-0.5-2.5,0c-2.8,2.1-7.4,3.9-11.3,3.1
					c-1.2-0.2-2.3,0.5-2.6,1.7c-0.1,0.2,0,0.5,0,0.7C508.7,403.6,513.3,403.4,517.9,403.5z"/>
				<path class="st12" d="M517.9,403.5c0.7-0.4,1.3-0.7,1.8-1.1c0.3-1.4,0.5-2.7,0.7-4c-0.7-0.5-1.7-0.5-2.5,0
					c-2.8,2.1-7.4,3.9-11.3,3.1c-1.2-0.2-2.3,0.5-2.6,1.7c-0.1,0.2-0.1,0.5,0,0.7C508.7,403.6,513.3,403.4,517.9,403.5z"/>
			</g>
		</g>
	</g>
	<g>
		<path class="st7" d="M492.9,514.6c0,0,8.8-29.8,36.4-24.9c0,0,6.7,0.7,7.5,6.6c0.8,5.8-5.3,10.1-11.5,8.9
			C519.8,504.1,510,505.3,492.9,514.6z"/>
		<path class="st7" d="M492.9,514.6c0,0-6-30.3-31.8-27.4c0,0-9.3,0.2-12.3,6c-2.8,5.4,2.5,11.4,8.5,10.1
			C463.9,501.7,475.4,502.4,492.9,514.6z"/>
		<path class="st7" d="M529.8,491.1c0,0,0.2,0,0.5,0.1c0.1-0.7,0.1-1.5,0-2.3c-0.6-7.3-6.3-8.1-6.3-8.1
			c-23.5-5.6-31.4,31.6-31.4,31.6c1.2-0.9,2.3-1.8,3.4-2.6C500.4,501.3,510.5,487.7,529.8,491.1z"/>
		<path class="st8" d="M461.1,487.2c19.9-2.2,28,15.3,30.7,23.4c0.1,0.1,0.2,0.2,0.4,0.4c0,0-4.7-37.7-26.7-33.7
			c0,0-7.9,0.3-10.6,7.7c-0.5,1.3-0.7,2.5-0.7,3.8C457.6,487.3,461.1,487.2,461.1,487.2z"/>
		<path class="st9" d="M493.3,465c-9.3,1.6-11.3,14.1-11.3,14.1c0.1,2.6,0.5,5.2,1,7.7c5.8,8.3,8.4,20.7,9.4,26.5
			c0.3,0.6,0.6,1.2,0.8,1.6c1-4.4,4.4-16.9,11.1-25.6c0.8-3.1,1.3-6.3,1.5-9.4C506.8,463.5,493.3,465,493.3,465z"/>
		<path class="st8" d="M492.9,514.6c0,0,8.8-29.8,36.4-24.9c0,0,6.7,0.7,7.5,6.6c0.8,5.8-5.3,10.1-11.5,8.9
			C519.8,504.1,510,505.3,492.9,514.6z"/>
		<g>
			<path class="st10" d="M492.4,511.8c0.4,1.3,0.5,2.1,0.5,2.1s0.3-1.1,1.1-2.9C493.5,511.3,492.9,511.5,492.4,511.8z"/>
			<path class="st11" d="M490.4,547.6c6.2-0.4,12.4-0.7,18.6-0.5c3.2-16.6,4.8-30.5,3.2-34.3c-1.1-2.5-2.8-4.3-4.8-5.6
				c-4.1,1.5-8.9,3.7-14.5,6.7c-5.8-4-10.9-6.8-15.4-8.6c-2.7,1.2-5.2,3-6.7,6c-2,3.8-1.3,18.8,0.8,36.6
				C477.8,547.5,484.1,547.5,490.4,547.6z"/>
		</g>
		<g>
			<path class="st12" d="M507.4,516c-4.4,1.8-9.5,2.4-15.1,1.7c-1.2-0.1-2.3,0.7-2.4,1.9s0.7,2.3,1.9,2.4c6.3,0.7,12.1,0.1,17.2-2
				c0.2-0.1,0.5-0.2,0.7-0.4c0.6-0.6,0.9-1.5,0.5-2.4C509.8,516,508.5,515.5,507.4,516z"/>
			<g>
				<path class="st12" d="M469.8,527.7c0.8-0.4,1.7-0.4,2.4,0.3c2.7,2.3,7.1,4.4,11,3.9c1.2-0.2,2.3,0.7,2.4,1.9
					c0.1,0.7-0.2,1.4-0.7,1.9c-0.3,0.3-0.7,0.5-1.2,0.6c-5.2,0.7-10.6-1.8-13.8-4.4"/>
				<path class="st12" d="M483.8,536.1c0.5-0.1,0.9-0.3,1.2-0.6c0.5-0.5,0.8-1.2,0.7-1.9c-0.2-1.2-1.2-2-2.4-1.9
					c-3.9,0.5-8.3-1.6-11-3.9c-0.7-0.6-1.7-0.7-2.4-0.3c0.1,1.3,0.1,2.6,0.2,4C473.3,534.3,478.6,536.8,483.8,536.1z"/>
			</g>
			<g>
				<path class="st12" d="M507.4,547c0.7-0.3,1.3-0.7,1.8-1.1l0.7-4c-0.7-0.5-1.7-0.5-2.5,0c-2.8,2.1-7.4,3.9-11.3,3.1
					c-1.2-0.2-2.3,0.5-2.6,1.7c-0.1,0.2,0,0.5,0,0.7C498.3,547.2,502.9,547,507.4,547z"/>
				<path class="st12" d="M507.4,547c0.7-0.4,1.3-0.7,1.8-1.1c0.3-1.4,0.5-2.7,0.7-4c-0.7-0.5-1.7-0.5-2.5,0
					c-2.8,2.1-7.4,3.9-11.3,3.1c-1.2-0.2-2.3,0.5-2.6,1.7c-0.1,0.2-0.1,0.5,0,0.7C498.3,547.2,502.9,547,507.4,547z"/>
			</g>
		</g>
	</g>
	<g>
		<path class="st7" d="M484.1,688.8c0,0,8.8-29.8,36.4-24.9c0,0,6.7,0.7,7.5,6.6c0.8,5.8-5.3,10.1-11.5,8.9
			C511,678.2,501.1,679.4,484.1,688.8z"/>
		<path class="st7" d="M484.1,688.8c0,0-6-30.3-31.8-27.4c0,0-9.3,0.2-12.3,6c-2.8,5.4,2.5,11.4,8.5,10.1
			C455,675.9,466.6,676.6,484.1,688.8z"/>
		<path class="st7" d="M521,665.2c0,0,0.2,0,0.5,0.1c0.1-0.7,0.1-1.5,0-2.3c-0.6-7.3-6.3-8.1-6.3-8.1c-23.5-5.6-31.4,31.6-31.4,31.6
			c1.2-0.9,2.3-1.8,3.4-2.6C491.5,675.4,501.6,661.8,521,665.2z"/>
		<path class="st8" d="M452.3,661.4c19.9-2.2,28,15.3,30.7,23.4c0.1,0.1,0.2,0.2,0.4,0.4c0,0-4.7-37.7-26.7-33.7
			c0,0-7.9,0.3-10.6,7.7c-0.5,1.3-0.7,2.5-0.7,3.8C448.7,661.4,452.3,661.4,452.3,661.4z"/>
		<path class="st9" d="M484.5,639.1c-9.3,1.6-11.3,14.1-11.3,14.1c0.1,2.6,0.5,5.2,1,7.7c5.8,8.3,8.4,20.7,9.4,26.5
			c0.3,0.6,0.6,1.2,0.8,1.6c1-4.4,4.4-16.9,11.1-25.6c0.8-3.1,1.3-6.3,1.5-9.4C497.9,637.7,484.5,639.1,484.5,639.1z"/>
		<path class="st8" d="M484.1,688.8c0,0,8.8-29.8,36.4-24.9c0,0,6.7,0.7,7.5,6.6c0.8,5.8-5.3,10.1-11.5,8.9
			C511,678.2,501.1,679.4,484.1,688.8z"/>
		<g>
			<path class="st10" d="M483.5,686c0.4,1.3,0.5,2.1,0.5,2.1s0.3-1.1,1.1-2.9C484.6,685.4,484.1,685.7,483.5,686z"/>
			<path class="st11" d="M481.6,721.8c6.2-0.4,12.4-0.7,18.6-0.5c3.2-16.6,4.8-30.5,3.2-34.3c-1.1-2.5-2.8-4.3-4.8-5.6
				c-4.1,1.5-8.9,3.7-14.5,6.7c-5.8-4-10.9-6.8-15.4-8.6c-2.7,1.2-5.2,3-6.7,6c-2,3.8-1.3,18.8,0.8,36.6
				C469,721.7,475.3,721.7,481.6,721.8z"/>
		</g>
		<g>
			<path class="st12" d="M498.5,690.1c-4.4,1.8-9.5,2.4-15.1,1.7c-1.2-0.1-2.3,0.7-2.4,1.9c-0.1,1.2,0.7,2.3,1.9,2.4
				c6.3,0.7,12.1,0.1,17.2-2c0.2-0.1,0.5-0.2,0.7-0.4c0.6-0.6,0.9-1.5,0.5-2.4C500.9,690.2,499.7,689.7,498.5,690.1z"/>
			<g>
				<path class="st12" d="M460.9,701.8c0.8-0.4,1.7-0.4,2.4,0.3c2.7,2.3,7.1,4.4,11,3.9c1.2-0.2,2.3,0.7,2.4,1.9
					c0.1,0.7-0.2,1.4-0.7,1.9c-0.3,0.3-0.7,0.5-1.2,0.6c-5.2,0.7-10.6-1.8-13.8-4.4"/>
				<path class="st12" d="M475,710.3c0.5-0.1,0.9-0.3,1.2-0.6c0.5-0.5,0.8-1.2,0.7-1.9c-0.2-1.2-1.2-2-2.4-1.9
					c-3.9,0.5-8.3-1.6-11-3.9c-0.7-0.6-1.7-0.7-2.4-0.3c0.1,1.3,0.1,2.6,0.2,4C464.4,708.4,469.7,711,475,710.3z"/>
			</g>
			<g>
				<path class="st12" d="M498.6,721.2c0.7-0.3,1.3-0.7,1.8-1.1l0.7-4c-0.7-0.5-1.7-0.5-2.5,0c-2.8,2.1-7.4,3.9-11.3,3.1
					c-1.2-0.2-2.3,0.5-2.6,1.7c-0.1,0.2,0,0.5,0,0.7C489.4,721.3,494,721.1,498.6,721.2z"/>
				<path class="st12" d="M498.6,721.2c0.7-0.4,1.3-0.7,1.8-1.1c0.3-1.4,0.5-2.7,0.7-4c-0.7-0.5-1.7-0.5-2.5,0
					c-2.8,2.1-7.4,3.9-11.3,3.1c-1.2-0.2-2.3,0.5-2.6,1.7c-0.1,0.2-0.1,0.5,0,0.7C489.4,721.3,494,721.1,498.6,721.2z"/>
			</g>
		</g>
	</g>
	<g>
		<path class="st7" d="M481.4,869.9c0,0,8.8-29.8,36.4-24.9c0,0,6.7,0.7,7.5,6.6c0.8,5.8-5.3,10.1-11.5,8.9
			C508.3,859.3,498.5,860.6,481.4,869.9z"/>
		<path class="st7" d="M481.4,869.9c0,0-6-30.3-31.8-27.4c0,0-9.3,0.2-12.3,6c-2.8,5.4,2.5,11.4,8.5,10.1
			C452.3,857,463.9,857.7,481.4,869.9z"/>
		<path class="st7" d="M518.3,846.3c0,0,0.2,0,0.5,0.1c0.1-0.7,0.1-1.5,0-2.3c-0.6-7.3-6.3-8.1-6.3-8.1
			c-23.5-5.6-31.4,31.6-31.4,31.6c1.2-0.9,2.3-1.8,3.4-2.6C488.8,856.6,498.9,843,518.3,846.3z"/>
		<path class="st8" d="M449.6,842.5c19.9-2.2,28,15.3,30.7,23.4c0.1,0.1,0.2,0.2,0.4,0.4c0,0-4.7-37.7-26.7-33.7
			c0,0-7.9,0.3-10.6,7.7c-0.5,1.3-0.7,2.5-0.7,3.8C446,842.5,449.6,842.5,449.6,842.5z"/>
		<path class="st9" d="M481.8,820.3c-9.3,1.6-11.3,14.1-11.3,14.1c0.1,2.6,0.5,5.2,1,7.7c5.8,8.3,8.4,20.7,9.4,26.5
			c0.3,0.6,0.6,1.2,0.8,1.6c1-4.4,4.4-16.9,11.1-25.6c0.8-3.1,1.3-6.3,1.5-9.4C495.2,818.8,481.8,820.3,481.8,820.3z"/>
		<path class="st8" d="M481.4,869.9c0,0,8.8-29.8,36.4-24.9c0,0,6.7,0.7,7.5,6.6c0.8,5.8-5.3,10.1-11.5,8.9
			C508.3,859.3,498.5,860.6,481.4,869.9z"/>
		<g>
			<path class="st10" d="M480.8,867.1c0.4,1.3,0.5,2.1,0.5,2.1s0.3-1.1,1.1-2.9C481.9,866.5,481.4,866.8,480.8,867.1z"/>
			<path class="st11" d="M478.9,902.9c6.2-0.4,12.4-0.7,18.6-0.5c3.2-16.6,4.8-30.5,3.2-34.3c-1.1-2.5-2.8-4.3-4.8-5.6
				c-4.1,1.5-8.9,3.7-14.5,6.7c-5.8-4-10.9-6.8-15.4-8.6c-2.7,1.2-5.2,3-6.7,6c-2,3.8-1.3,18.8,0.8,36.6
				C466.3,902.8,472.6,902.8,478.9,902.9z"/>
		</g>
		<g>
			<path class="st12" d="M495.9,871.2c-4.4,1.8-9.5,2.4-15.1,1.7c-1.2-0.1-2.3,0.7-2.4,1.9c-0.1,1.2,0.7,2.3,1.9,2.4
				c6.3,0.7,12.1,0.1,17.2-2c0.2-0.1,0.5-0.2,0.7-0.4c0.6-0.6,0.9-1.5,0.5-2.4C498.2,871.3,497,870.8,495.9,871.2z"/>
			<g>
				<path class="st12" d="M458.2,883c0.8-0.4,1.7-0.4,2.4,0.3c2.7,2.3,7.1,4.4,11,3.9c1.2-0.2,2.3,0.7,2.4,1.9
					c0.1,0.7-0.2,1.4-0.7,1.9c-0.3,0.3-0.7,0.5-1.2,0.6c-5.2,0.7-10.6-1.8-13.8-4.4"/>
				<path class="st12" d="M472.3,891.4c0.5-0.1,0.9-0.3,1.2-0.6c0.5-0.5,0.8-1.2,0.7-1.9c-0.2-1.2-1.2-2-2.4-1.9
					c-3.9,0.5-8.3-1.6-11-3.9c-0.7-0.6-1.7-0.7-2.4-0.3c0.1,1.3,0.1,2.6,0.2,4C461.7,889.6,467,892.1,472.3,891.4z"/>
			</g>
			<g>
				<path class="st12" d="M495.9,902.3c0.7-0.3,1.3-0.7,1.8-1.1l0.7-4c-0.7-0.5-1.7-0.5-2.5,0c-2.8,2.1-7.4,3.9-11.3,3.1
					c-1.2-0.2-2.3,0.5-2.6,1.7c-0.1,0.2,0,0.5,0,0.7C486.7,902.4,491.3,902.3,495.9,902.3z"/>
				<path class="st12" d="M495.9,902.3c0.7-0.4,1.3-0.7,1.8-1.1c0.3-1.4,0.5-2.7,0.7-4c-0.7-0.5-1.7-0.5-2.5,0
					c-2.8,2.1-7.4,3.9-11.3,3.1c-1.2-0.2-2.3,0.5-2.6,1.7c-0.1,0.2-0.1,0.5,0,0.7C486.7,902.4,491.3,902.3,495.9,902.3z"/>
			</g>
		</g>
	</g>
	<g>
		<path class="st7" d="M769.5,77.1c0,0,8.8-29.8,36.4-24.9c0,0,6.7,0.7,7.5,6.6c0.8,5.8-5.3,10.1-11.5,8.9
			C796.4,66.5,786.6,67.7,769.5,77.1z"/>
		<path class="st7" d="M769.5,77.1c0,0-6-30.3-31.8-27.4c0,0-9.3,0.2-12.3,6c-2.8,5.4,2.5,11.4,8.5,10.1
			C740.5,64.2,752,64.9,769.5,77.1z"/>
		<path class="st7" d="M806.5,53.5c0,0,0.2,0,0.5,0.1c0.1-0.7,0.1-1.5,0-2.3c-0.6-7.3-6.3-8.1-6.3-8.1
			c-23.5-5.6-31.4,31.6-31.4,31.6c1.2-0.9,2.3-1.8,3.4-2.6C777,63.8,787.1,50.2,806.5,53.5z"/>
		<path class="st8" d="M737.7,49.7c19.9-2.2,28,15.3,30.7,23.4c0.1,0.1,0.2,0.2,0.4,0.4c0,0-4.7-37.7-26.7-33.7
			c0,0-7.9,0.3-10.6,7.7c-0.5,1.3-0.7,2.5-0.7,3.8C734.2,49.7,737.7,49.7,737.7,49.7z"/>
		<path class="st9" d="M770,27.4c-9.3,1.6-11.3,14.1-11.3,14.1c0.1,2.6,0.5,5.2,1,7.7c5.8,8.3,8.4,20.7,9.4,26.5
			c0.3,0.6,0.6,1.2,0.8,1.6c1-4.4,4.4-16.9,11.1-25.6c0.8-3.1,1.3-6.3,1.5-9.4C783.4,26,770,27.4,770,27.4z"/>
		<path class="st8" d="M769.5,77.1c0,0,8.8-29.8,36.4-24.9c0,0,6.7,0.7,7.5,6.6c0.8,5.8-5.3,10.1-11.5,8.9
			C796.4,66.5,786.6,67.7,769.5,77.1z"/>
		<g>
			<path class="st10" d="M769,74.3c0.4,1.3,0.5,2.1,0.5,2.1s0.3-1.1,1.1-2.9C770.1,73.7,769.5,74,769,74.3z"/>
			<path class="st11" d="M767.1,110.1c6.2-0.4,12.4-0.7,18.6-0.5c3.2-16.6,4.8-30.5,3.2-34.3c-1.1-2.5-2.8-4.3-4.8-5.6
				c-4.1,1.5-8.9,3.7-14.5,6.7c-5.8-4-10.9-6.8-15.4-8.6c-2.7,1.2-5.2,3-6.7,6c-2,3.8-1.3,18.8,0.8,36.6
				C754.5,110,760.7,110,767.1,110.1z"/>
		</g>
		<g>
			<path class="st12" d="M784,78.4c-4.4,1.8-9.5,2.4-15.1,1.7c-1.2-0.1-2.3,0.7-2.4,1.9c-0.1,1.2,0.7,2.3,1.9,2.4
				c6.3,0.7,12.1,0.1,17.2-2c0.3-0.1,0.5-0.2,0.7-0.4c0.6-0.6,0.9-1.5,0.5-2.4C786.4,78.5,785.1,78,784,78.4z"/>
			<g>
				<path class="st12" d="M746.4,90.2c0.8-0.4,1.7-0.4,2.4,0.3c2.7,2.3,7.1,4.4,11,3.9c1.2-0.2,2.3,0.7,2.4,1.9
					c0.1,0.7-0.2,1.4-0.7,1.9c-0.3,0.3-0.7,0.5-1.2,0.6c-5.2,0.7-10.6-1.8-13.8-4.4"/>
				<path class="st12" d="M760.4,98.6c0.5-0.1,0.9-0.3,1.2-0.6c0.5-0.5,0.8-1.2,0.7-1.9c-0.2-1.2-1.2-2-2.4-1.9
					c-3.9,0.5-8.3-1.6-11-3.9c-0.7-0.6-1.7-0.7-2.4-0.3c0.1,1.3,0.1,2.6,0.2,4C749.9,96.8,755.2,99.3,760.4,98.6z"/>
			</g>
			<g>
				<path class="st12" d="M784.1,109.5c0.7-0.3,1.3-0.7,1.8-1.1l0.7-4c-0.7-0.5-1.7-0.5-2.5,0c-2.8,2.1-7.4,3.9-11.3,3.1
					c-1.2-0.2-2.3,0.5-2.6,1.7c-0.1,0.2,0,0.5,0,0.7C774.9,109.6,779.5,109.4,784.1,109.5z"/>
				<path class="st12" d="M784.1,109.5c0.7-0.4,1.3-0.7,1.8-1.1c0.3-1.4,0.5-2.7,0.7-4c-0.7-0.5-1.7-0.5-2.5,0
					c-2.8,2.1-7.4,3.9-11.3,3.1c-1.2-0.2-2.3,0.5-2.6,1.7c-0.1,0.2-0.1,0.5,0,0.7C774.9,109.6,779.5,109.4,784.1,109.5z"/>
			</g>
		</g>
	</g>
	<g>
		<path class="st7" d="M751.9,250.5c0,0,8.8-29.8,36.4-24.9c0,0,6.7,0.7,7.5,6.6c0.8,5.8-5.3,10.1-11.5,8.9
			C778.8,239.9,768.9,241.1,751.9,250.5z"/>
		<path class="st7" d="M751.9,250.5c0,0-6-30.3-31.8-27.4c0,0-9.3,0.2-12.3,6c-2.8,5.4,2.5,11.4,8.5,10.1
			C722.8,237.6,734.3,238.3,751.9,250.5z"/>
		<path class="st7" d="M788.8,226.9c0,0,0.2,0,0.5,0.1c0.1-0.7,0.1-1.5,0-2.3c-0.6-7.3-6.3-8.1-6.3-8.1
			c-23.5-5.6-31.4,31.6-31.4,31.6c1.2-0.9,2.3-1.8,3.4-2.6C759.3,237.2,769.4,223.5,788.8,226.9z"/>
		<path class="st8" d="M720,223.1c19.9-2.2,28,15.3,30.7,23.4c0.1,0.1,0.2,0.2,0.4,0.4c0,0-4.7-37.7-26.7-33.7c0,0-7.9,0.3-10.6,7.7
			c-0.5,1.3-0.7,2.5-0.7,3.8C716.5,223.1,720,223.1,720,223.1z"/>
		<path class="st9" d="M752.3,200.8c-9.3,1.6-11.3,14.1-11.3,14.1c0.1,2.6,0.5,5.2,1,7.7c5.8,8.3,8.4,20.7,9.4,26.5
			c0.3,0.6,0.6,1.2,0.8,1.6c1-4.4,4.4-16.9,11.1-25.6c0.8-3.1,1.3-6.3,1.5-9.4C765.7,199.4,752.3,200.8,752.3,200.8z"/>
		<path class="st8" d="M751.9,250.5c0,0,8.8-29.8,36.4-24.9c0,0,6.7,0.7,7.5,6.6c0.8,5.8-5.3,10.1-11.5,8.9
			C778.8,239.9,768.9,241.1,751.9,250.5z"/>
		<g>
			<path class="st10" d="M751.3,247.7c0.4,1.3,0.5,2.1,0.5,2.1s0.3-1.1,1.1-2.9C752.4,247.1,751.9,247.4,751.3,247.7z"/>
			<path class="st11" d="M749.4,283.5c6.2-0.4,12.4-0.7,18.6-0.5c3.2-16.6,4.8-30.5,3.2-34.3c-1.1-2.5-2.8-4.3-4.8-5.6
				c-4.1,1.5-8.9,3.7-14.5,6.7c-5.8-4-10.9-6.8-15.4-8.6c-2.7,1.2-5.2,3-6.7,6c-2,3.8-1.3,18.8,0.8,36.6
				C736.8,283.4,743.1,283.4,749.4,283.5z"/>
		</g>
		<g>
			<path class="st12" d="M766.3,251.8c-4.4,1.8-9.5,2.4-15.1,1.7c-1.2-0.1-2.3,0.7-2.4,1.9s0.7,2.3,1.9,2.4c6.3,0.7,12.1,0.1,17.2-2
				c0.3-0.1,0.5-0.2,0.7-0.4c0.6-0.6,0.9-1.5,0.5-2.4C768.7,251.9,767.4,251.4,766.3,251.8z"/>
			<g>
				<path class="st12" d="M728.7,263.6c0.8-0.4,1.7-0.4,2.4,0.3c2.7,2.3,7.1,4.4,11,3.9c1.2-0.2,2.3,0.7,2.4,1.9
					c0.1,0.7-0.2,1.4-0.7,1.9c-0.3,0.3-0.7,0.5-1.2,0.6c-5.2,0.7-10.6-1.8-13.8-4.4"/>
				<path class="st12" d="M742.7,272c0.5-0.1,0.9-0.3,1.2-0.6c0.5-0.5,0.8-1.2,0.7-1.9c-0.2-1.2-1.2-2-2.4-1.9
					c-3.9,0.5-8.3-1.6-11-3.9c-0.7-0.6-1.7-0.7-2.4-0.3c0.1,1.3,0.1,2.6,0.2,4C732.2,270.2,737.5,272.7,742.7,272z"/>
			</g>
			<g>
				<path class="st12" d="M766.4,282.9c0.7-0.3,1.3-0.7,1.8-1.1l0.7-4c-0.7-0.5-1.7-0.5-2.5,0c-2.8,2.1-7.4,3.9-11.3,3.1
					c-1.2-0.2-2.3,0.5-2.6,1.7c-0.1,0.2,0,0.5,0,0.7C757.2,283,761.8,282.8,766.4,282.9z"/>
				<path class="st12" d="M766.4,282.9c0.7-0.4,1.3-0.7,1.8-1.1c0.3-1.4,0.5-2.7,0.7-4c-0.7-0.5-1.7-0.5-2.5,0
					c-2.8,2.1-7.4,3.9-11.3,3.1c-1.2-0.2-2.3,0.5-2.6,1.7c-0.1,0.2-0.1,0.5,0,0.7C757.2,283,761.8,282.8,766.4,282.9z"/>
			</g>
		</g>
	</g>
	<g>
		<path class="st7" d="M747.4,435.8c0,0,8.8-29.8,36.4-24.9c0,0,6.7,0.7,7.5,6.6c0.8,5.8-5.3,10.1-11.5,8.9
			C774.3,425.3,764.5,426.5,747.4,435.8z"/>
		<path class="st7" d="M747.4,435.8c0,0-6-30.3-31.8-27.4c0,0-9.3,0.2-12.3,6c-2.8,5.4,2.5,11.4,8.5,10.1
			C718.4,423,729.9,423.6,747.4,435.8z"/>
		<path class="st7" d="M784.3,412.3c0,0,0.2,0,0.5,0.1c0.1-0.7,0.1-1.5,0-2.3c-0.6-7.3-6.3-8.1-6.3-8.1
			c-23.5-5.6-31.4,31.6-31.4,31.6c1.2-0.9,2.3-1.8,3.4-2.6C754.9,422.5,765,408.9,784.3,412.3z"/>
		<path class="st8" d="M715.6,408.4c19.9-2.2,28,15.3,30.7,23.4c0.1,0.1,0.2,0.2,0.4,0.4c0,0-4.7-37.7-26.7-33.7
			c0,0-7.9,0.3-10.6,7.7c-0.5,1.3-0.7,2.5-0.7,3.8C712.1,408.5,715.6,408.4,715.6,408.4z"/>
		<path class="st9" d="M747.8,386.2c-9.3,1.6-11.3,14.1-11.3,14.1c0.1,2.6,0.5,5.2,1,7.7c5.8,8.3,8.4,20.7,9.4,26.5
			c0.3,0.6,0.6,1.2,0.8,1.6c1-4.4,4.4-16.9,11.1-25.6c0.8-3.1,1.3-6.3,1.5-9.4C761.3,384.7,747.8,386.2,747.8,386.2z"/>
		<path class="st8" d="M747.4,435.8c0,0,8.8-29.8,36.4-24.9c0,0,6.7,0.7,7.5,6.6c0.8,5.8-5.3,10.1-11.5,8.9
			C774.3,425.3,764.5,426.5,747.4,435.8z"/>
		<g>
			<path class="st10" d="M746.9,433.1c0.4,1.3,0.5,2.1,0.5,2.1s0.3-1.1,1.1-2.9C747.9,432.5,747.4,432.8,746.9,433.1z"/>
			<path class="st11" d="M744.9,468.8c6.2-0.4,12.4-0.7,18.6-0.5c3.2-16.6,4.8-30.5,3.2-34.3c-1.1-2.5-2.8-4.3-4.8-5.6
				c-4.1,1.5-8.9,3.7-14.5,6.7c-5.8-4-10.9-6.8-15.4-8.6c-2.7,1.2-5.2,3-6.7,6c-2,3.8-1.3,18.8,0.8,36.6
				C732.3,468.7,738.6,468.7,744.9,468.8z"/>
		</g>
		<g>
			<path class="st12" d="M761.9,437.2c-4.4,1.8-9.5,2.4-15.1,1.7c-1.2-0.1-2.3,0.7-2.4,1.9c-0.1,1.2,0.7,2.3,1.9,2.4
				c6.3,0.7,12.1,0.1,17.2-2c0.2-0.1,0.5-0.2,0.7-0.4c0.6-0.6,0.9-1.5,0.5-2.4C764.3,437.3,763,436.7,761.9,437.2z"/>
			<g>
				<path class="st12" d="M724.3,448.9c0.8-0.4,1.7-0.4,2.4,0.3c2.7,2.3,7.1,4.4,11,3.9c1.2-0.2,2.3,0.7,2.4,1.9
					c0.1,0.7-0.2,1.4-0.7,1.9c-0.3,0.3-0.7,0.5-1.2,0.6c-5.2,0.7-10.6-1.8-13.8-4.4"/>
				<path class="st12" d="M738.3,457.3c0.5-0.1,0.9-0.3,1.2-0.6c0.5-0.5,0.8-1.2,0.7-1.9c-0.2-1.2-1.2-2-2.4-1.9
					c-3.9,0.5-8.3-1.6-11-3.9c-0.7-0.6-1.7-0.7-2.4-0.3c0.1,1.3,0.1,2.6,0.2,4C727.8,455.5,733.1,458.1,738.3,457.3z"/>
			</g>
			<g>
				<path class="st12" d="M761.9,468.3c0.7-0.3,1.3-0.7,1.8-1.1l0.7-4c-0.7-0.5-1.7-0.5-2.5,0c-2.8,2.1-7.4,3.9-11.3,3.1
					c-1.2-0.2-2.3,0.5-2.6,1.7c-0.1,0.2,0,0.5,0,0.7C752.7,468.4,757.3,468.2,761.9,468.3z"/>
				<path class="st12" d="M761.9,468.3c0.7-0.4,1.3-0.7,1.8-1.1c0.3-1.4,0.5-2.7,0.7-4c-0.7-0.5-1.7-0.5-2.5,0
					c-2.8,2.1-7.4,3.9-11.3,3.1c-1.2-0.2-2.3,0.5-2.6,1.7c-0.1,0.2-0.1,0.5,0,0.7C752.7,468.4,757.3,468.2,761.9,468.3z"/>
			</g>
		</g>
	</g>
	<g>
		<path class="st7" d="M722.6,569.2c0,0,8.8-29.8,36.4-24.9c0,0,6.7,0.7,7.5,6.6c0.8,5.8-5.3,10.1-11.5,8.9
			C749.5,558.7,739.7,559.9,722.6,569.2z"/>
		<path class="st7" d="M722.6,569.2c0,0-6-30.3-31.8-27.4c0,0-9.3,0.2-12.3,6c-2.8,5.4,2.5,11.4,8.5,10.1
			C693.6,556.4,705.1,557.1,722.6,569.2z"/>
		<path class="st7" d="M759.5,545.7c0,0,0.2,0,0.5,0.1c0.1-0.7,0.1-1.5,0-2.3c-0.6-7.3-6.3-8.1-6.3-8.1
			c-23.5-5.6-31.4,31.6-31.4,31.6c1.2-0.9,2.3-1.8,3.4-2.6C730.1,555.9,740.2,542.3,759.5,545.7z"/>
		<path class="st8" d="M690.8,541.8c19.9-2.2,28,15.3,30.7,23.4c0.1,0.1,0.2,0.2,0.4,0.4c0,0-4.7-37.7-26.7-33.7
			c0,0-7.9,0.3-10.6,7.7c-0.5,1.3-0.7,2.5-0.7,3.8C687.3,541.9,690.8,541.8,690.8,541.8z"/>
		<path class="st9" d="M723,519.6c-9.3,1.6-11.3,14.1-11.3,14.1c0.1,2.6,0.5,5.2,1,7.7c5.8,8.3,8.4,20.7,9.4,26.5
			c0.3,0.6,0.6,1.2,0.8,1.6c1-4.4,4.4-16.9,11.1-25.6c0.8-3.1,1.3-6.3,1.5-9.4C736.5,518.1,723,519.6,723,519.6z"/>
		<path class="st8" d="M722.6,569.2c0,0,8.8-29.8,36.4-24.9c0,0,6.7,0.7,7.5,6.6c0.8,5.8-5.3,10.1-11.5,8.9
			C749.5,558.7,739.7,559.9,722.6,569.2z"/>
		<g>
			<path class="st10" d="M722.1,566.5c0.4,1.3,0.5,2.1,0.5,2.1s0.3-1.1,1.1-2.9C723.2,565.9,722.6,566.2,722.1,566.5z"/>
			<path class="st11" d="M720.1,602.2c6.2-0.4,12.4-0.7,18.6-0.5c3.2-16.6,4.8-30.5,3.2-34.3c-1.1-2.5-2.8-4.3-4.8-5.6
				c-4.1,1.5-8.9,3.7-14.5,6.7c-5.8-4-10.9-6.8-15.4-8.6c-2.7,1.2-5.2,3-6.7,6c-2,3.8-1.3,18.8,0.8,36.6
				C707.5,602.1,713.8,602.1,720.1,602.2z"/>
		</g>
		<g>
			<path class="st12" d="M737.1,570.6c-4.4,1.8-9.5,2.4-15.1,1.7c-1.2-0.1-2.3,0.7-2.4,1.9c-0.1,1.2,0.7,2.3,1.9,2.4
				c6.3,0.7,12.1,0.1,17.2-2c0.2-0.1,0.5-0.2,0.7-0.4c0.6-0.6,0.9-1.5,0.5-2.4C739.5,570.7,738.2,570.1,737.1,570.6z"/>
			<g>
				<path class="st12" d="M699.5,582.3c0.8-0.4,1.7-0.4,2.4,0.3c2.7,2.3,7.1,4.4,11,3.9c1.2-0.2,2.3,0.7,2.4,1.9
					c0.1,0.7-0.2,1.4-0.7,1.9c-0.3,0.3-0.7,0.5-1.2,0.6c-5.2,0.7-10.6-1.8-13.8-4.4"/>
				<path class="st12" d="M713.5,590.8c0.5-0.1,0.9-0.3,1.2-0.6c0.5-0.5,0.8-1.2,0.7-1.9c-0.2-1.2-1.2-2-2.4-1.9
					c-3.9,0.5-8.3-1.6-11-3.9c-0.7-0.6-1.7-0.7-2.4-0.3c0.1,1.3,0.1,2.6,0.2,4C703,588.9,708.3,591.5,713.5,590.8z"/>
			</g>
			<g>
				<path class="st12" d="M737.1,601.7c0.7-0.3,1.3-0.7,1.8-1.1l0.7-4c-0.7-0.5-1.7-0.5-2.5,0c-2.8,2.1-7.4,3.9-11.3,3.1
					c-1.2-0.2-2.3,0.5-2.6,1.7c-0.1,0.2,0,0.5,0,0.7C728,601.8,732.6,601.6,737.1,601.7z"/>
				<path class="st12" d="M737.1,601.7c0.7-0.4,1.3-0.7,1.8-1.1c0.3-1.4,0.5-2.7,0.7-4c-0.7-0.5-1.7-0.5-2.5,0
					c-2.8,2.1-7.4,3.9-11.3,3.1c-1.2-0.2-2.3,0.5-2.6,1.7c-0.1,0.2-0.1,0.5,0,0.7C728,601.8,732.6,601.6,737.1,601.7z"/>
			</g>
		</g>
	</g>
	<g>
		<path class="st7" d="M723.1,726.8c0,0,8.8-29.8,36.4-24.9c0,0,6.7,0.7,7.5,6.6c0.8,5.8-5.3,10.1-11.5,8.9
			C750,716.3,740.2,717.5,723.1,726.8z"/>
		<path class="st7" d="M723.1,726.8c0,0-6-30.3-31.8-27.4c0,0-9.3,0.2-12.3,6c-2.8,5.4,2.5,11.4,8.5,10.1
			C694,713.9,705.6,714.6,723.1,726.8z"/>
		<path class="st7" d="M760,703.3c0,0,0.2,0,0.5,0.1c0.1-0.7,0.1-1.5,0-2.3c-0.6-7.3-6.3-8.1-6.3-8.1c-23.5-5.6-31.4,31.6-31.4,31.6
			c1.2-0.9,2.3-1.8,3.4-2.6C730.6,713.5,740.6,699.9,760,703.3z"/>
		<path class="st8" d="M691.3,699.4c19.9-2.2,28,15.3,30.7,23.4c0.1,0.1,0.2,0.2,0.4,0.4c0,0-4.7-37.7-26.7-33.7
			c0,0-7.9,0.3-10.6,7.7c-0.5,1.3-0.7,2.5-0.7,3.8C687.7,699.5,691.3,699.4,691.3,699.4z"/>
		<path class="st9" d="M723.5,677.2c-9.3,1.6-11.3,14.1-11.3,14.1c0.1,2.6,0.5,5.2,1,7.7c5.8,8.3,8.4,20.7,9.4,26.5
			c0.3,0.6,0.6,1.2,0.8,1.6c1-4.4,4.4-16.9,11.1-25.6c0.8-3.1,1.3-6.3,1.5-9.4C736.9,675.7,723.5,677.2,723.5,677.2z"/>
		<path class="st8" d="M723.1,726.8c0,0,8.8-29.8,36.4-24.9c0,0,6.7,0.7,7.5,6.6c0.8,5.8-5.3,10.1-11.5,8.9
			C750,716.3,740.2,717.5,723.1,726.8z"/>
		<g>
			<path class="st10" d="M722.6,724c0.4,1.3,0.5,2.1,0.5,2.1s0.3-1.1,1.1-2.9C723.6,723.5,723.1,723.7,722.6,724z"/>
			<path class="st11" d="M720.6,759.8c6.2-0.4,12.4-0.7,18.6-0.5c3.2-16.6,4.8-30.5,3.2-34.3c-1.1-2.5-2.8-4.3-4.8-5.6
				c-4.1,1.5-8.9,3.7-14.5,6.7c-5.8-4-10.9-6.8-15.4-8.6c-2.7,1.2-5.2,3-6.7,6c-2,3.8-1.3,18.8,0.8,36.6
				C708,759.7,714.3,759.7,720.6,759.8z"/>
		</g>
		<g>
			<path class="st12" d="M737.6,728.2c-4.4,1.8-9.5,2.4-15.1,1.7c-1.2-0.1-2.3,0.7-2.4,1.9s0.7,2.3,1.9,2.4c6.3,0.7,12.1,0.1,17.2-2
				c0.3-0.1,0.5-0.2,0.7-0.4c0.6-0.6,0.9-1.5,0.5-2.4C739.9,728.2,738.7,727.7,737.6,728.2z"/>
			<g>
				<path class="st12" d="M699.9,739.9c0.8-0.4,1.7-0.4,2.4,0.3c2.7,2.3,7.1,4.4,11,3.9c1.2-0.2,2.3,0.7,2.4,1.9
					c0.1,0.7-0.2,1.4-0.7,1.9c-0.3,0.3-0.7,0.5-1.2,0.6c-5.2,0.7-10.6-1.8-13.8-4.4"/>
				<path class="st12" d="M714,748.3c0.5-0.1,0.9-0.3,1.2-0.6c0.5-0.5,0.8-1.2,0.7-1.9c-0.2-1.2-1.2-2-2.4-1.9
					c-3.9,0.5-8.3-1.6-11-3.9c-0.7-0.6-1.7-0.7-2.4-0.3c0.1,1.3,0.1,2.6,0.2,4C703.4,746.5,708.7,749,714,748.3z"/>
			</g>
			<g>
				<path class="st12" d="M737.6,759.2c0.7-0.3,1.3-0.7,1.8-1.1l0.7-4c-0.7-0.5-1.7-0.5-2.5,0c-2.8,2.1-7.4,3.9-11.3,3.1
					c-1.2-0.2-2.3,0.5-2.6,1.7c-0.1,0.2,0,0.5,0,0.7C728.4,759.3,733,759.2,737.6,759.2z"/>
				<path class="st12" d="M737.6,759.2c0.7-0.4,1.3-0.7,1.8-1.1c0.3-1.4,0.5-2.7,0.7-4c-0.7-0.5-1.7-0.5-2.5,0
					c-2.8,2.1-7.4,3.9-11.3,3.1c-1.2-0.2-2.3,0.5-2.6,1.7c-0.1,0.2-0.1,0.5,0,0.7C728.4,759.3,733,759.2,737.6,759.2z"/>
			</g>
		</g>
	</g>
	<g>
		<path class="st7" d="M720.5,873.1c0,0,8.8-29.8,36.4-24.9c0,0,6.7,0.7,7.5,6.6c0.8,5.8-5.3,10.1-11.5,8.9
			C747.4,862.6,737.6,863.8,720.5,873.1z"/>
		<path class="st7" d="M720.5,873.1c0,0-6-30.3-31.8-27.4c0,0-9.3,0.2-12.3,6c-2.8,5.4,2.5,11.4,8.5,10.1
			C691.5,860.2,703,860.9,720.5,873.1z"/>
		<path class="st7" d="M757.5,849.6c0,0,0.2,0,0.5,0.1c0.1-0.7,0.1-1.5,0-2.3c-0.6-7.3-6.3-8.1-6.3-8.1
			c-23.5-5.6-31.4,31.6-31.4,31.6c1.2-0.9,2.3-1.8,3.4-2.6C728,859.8,738.1,846.2,757.5,849.6z"/>
		<path class="st8" d="M688.7,845.7c19.9-2.2,28,15.3,30.7,23.4c0.1,0.1,0.2,0.2,0.4,0.4c0,0-4.7-37.7-26.7-33.7
			c0,0-7.9,0.3-10.6,7.7c-0.5,1.3-0.7,2.5-0.7,3.8C685.2,845.8,688.7,845.7,688.7,845.7z"/>
		<path class="st9" d="M721,823.5c-9.3,1.6-11.3,14.1-11.3,14.1c0.1,2.6,0.5,5.2,1,7.7c5.8,8.3,8.4,20.7,9.4,26.5
			c0.3,0.6,0.6,1.2,0.8,1.6c1-4.4,4.4-16.9,11.1-25.6c0.8-3.1,1.3-6.3,1.5-9.4C734.4,822,721,823.5,721,823.5z"/>
		<path class="st8" d="M720.5,873.1c0,0,8.8-29.8,36.4-24.9c0,0,6.7,0.7,7.5,6.6c0.8,5.8-5.3,10.1-11.5,8.9
			C747.4,862.6,737.6,863.8,720.5,873.1z"/>
		<g>
			<path class="st10" d="M720,870.3c0.4,1.3,0.5,2.1,0.5,2.1s0.3-1.1,1.1-2.9C721.1,869.8,720.6,870,720,870.3z"/>
			<path class="st11" d="M718.1,906.1c6.2-0.4,12.4-0.7,18.6-0.5c3.2-16.6,4.8-30.5,3.2-34.3c-1.1-2.5-2.8-4.3-4.8-5.6
				c-4.1,1.5-8.9,3.7-14.5,6.7c-5.8-4-10.9-6.8-15.4-8.6c-2.7,1.2-5.2,3-6.7,6c-2,3.8-1.3,18.8,0.8,36.6
				C705.5,906,711.8,906,718.1,906.1z"/>
		</g>
		<g>
			<path class="st12" d="M735,874.5c-4.4,1.8-9.5,2.4-15.1,1.7c-1.2-0.1-2.3,0.7-2.4,1.9c-0.1,1.2,0.7,2.3,1.9,2.4
				c6.3,0.7,12.1,0.1,17.2-2c0.3-0.1,0.5-0.2,0.7-0.4c0.6-0.6,0.9-1.5,0.5-2.4C737.4,874.5,736.1,874,735,874.5z"/>
			<g>
				<path class="st12" d="M697.4,886.2c0.8-0.4,1.7-0.4,2.4,0.3c2.7,2.3,7.1,4.4,11,3.9c1.2-0.2,2.3,0.7,2.4,1.9
					c0.1,0.7-0.2,1.4-0.7,1.9c-0.3,0.3-0.7,0.5-1.2,0.6c-5.2,0.7-10.6-1.8-13.8-4.4"/>
				<path class="st12" d="M711.4,894.6c0.5-0.1,0.9-0.3,1.2-0.6c0.5-0.5,0.8-1.2,0.7-1.9c-0.2-1.2-1.2-2-2.4-1.9
					c-3.9,0.5-8.3-1.6-11-3.9c-0.7-0.6-1.7-0.7-2.4-0.3c0.1,1.3,0.1,2.6,0.2,4C700.9,892.8,706.2,895.3,711.4,894.6z"/>
			</g>
			<g>
				<path class="st12" d="M735.1,905.5c0.7-0.3,1.3-0.7,1.8-1.1l0.7-4c-0.7-0.5-1.7-0.5-2.5,0c-2.8,2.1-7.4,3.9-11.3,3.1
					c-1.2-0.2-2.3,0.5-2.6,1.7c-0.1,0.2,0,0.5,0,0.7C725.9,905.6,730.5,905.5,735.1,905.5z"/>
				<path class="st12" d="M735.1,905.5c0.7-0.4,1.3-0.7,1.8-1.1c0.3-1.4,0.5-2.7,0.7-4c-0.7-0.5-1.7-0.5-2.5,0
					c-2.8,2.1-7.4,3.9-11.3,3.1c-1.2-0.2-2.3,0.5-2.6,1.7c-0.1,0.2-0.1,0.5,0,0.7C725.9,905.6,730.5,905.5,735.1,905.5z"/>
			</g>
		</g>
	</g>
</g>
</svg>
