<?xml version="1.0" encoding="utf-8"?>
<!-- Generator: Adobe Illustrator 19.0.1, SVG Export Plug-In . SVG Version: 6.00 Build 0)  -->
<svg version="1.1" id="apple_x5F_harvest" xmlns="http://www.w3.org/2000/svg" xmlns:xlink="http://www.w3.org/1999/xlink" x="0px"
	 y="0px" viewBox="-223 225 512 512" style="enable-background:new -223 225 512 512;" xml:space="preserve">
<style type="text/css">
	.st0{fill:#4E901E;}
	.st1{fill:#47821C;}
	.st2{fill:#5EAC24;}
	.st3{fill:#E47500;}
	.st4{fill:#BF6100;}
	.st5{fill:#6DC82A;}
	.st6{fill:#D13834;}
	.st7{fill:#F75B57;}
	.st8{fill:#4C312C;}
	.st9{fill:#994530;}
	.st10{fill:#659C35;}
	.st11{clip-path:url(#SVGID_2_);fill:#8FDA5D;}
	.st12{clip-path:url(#SVGID_4_);fill:#8FDA5D;}
	.st13{clip-path:url(#SVGID_6_);fill:#8FDA5D;}
	.st14{clip-path:url(#SVGID_8_);fill:#8FDA5D;}
	.st15{clip-path:url(#SVGID_10_);fill:#8FDA5D;}
	.st16{clip-path:url(#SVGID_12_);fill:#8FDA5D;}
	.st17{clip-path:url(#SVGID_14_);fill:#8FDA5D;}
</style>
<g>
	<g>
		<circle class="st0" cx="69.7" cy="531.3" r="36.4"/>
		<path class="st1" d="M69.7,494.9c-20.1,0-36.4,16.3-36.4,36.4c0,5.1,1.1,10,2.9,14.4c10.7,5.1,22.7,8,35.3,8
			c10.9,0,21.3-2.1,30.8-6c2.5-4.9,3.9-10.5,3.9-16.4C106.2,511.2,89.9,494.9,69.7,494.9z"/>
		<circle class="st0" cx="-10.2" cy="526.9" r="45.4"/>
		<g>
			<path class="st1" d="M-32.9,526.9c0-21.2,14.5-38.9,34.1-44c-3.6-0.9-7.4-1.4-11.3-1.4c-25.1,0-45.4,20.3-45.4,45.4
				c0,25.1,20.3,45.4,45.4,45.4c3.9,0,7.7-0.5,11.3-1.4C-18.4,565.8-32.9,548-32.9,526.9z"/>
			<path class="st1" d="M34.7,520c-3.3-21.8-22.1-38.5-44.9-38.5c-25.1,0-45.4,20.3-45.4,45.4c0,11.6,4.4,22.2,11.5,30.2
				c2.9,0.3,5.9,0.5,8.9,0.5C-6,557.6,19.7,542.6,34.7,520z"/>
		</g>
		<circle class="st2" cx="71.5" cy="472" r="62.5"/>
		<path class="st0" d="M110.7,423.3c-10.7-8.6-24.4-13.8-39.2-13.8C37,409.5,9,437.5,9,472c0,9.5,2.1,18.5,5.9,26.6
			c1.6,0.1,3.2,0.1,4.7,0.1C64.9,498.7,102.6,466.2,110.7,423.3z"/>
		<path class="st3" d="M29,447.8h6c7,0,12.8,5.8,12.8,12.8V633c0,7-5.8,12.8-12.8,12.8h-6c-7,0-12.8-5.8-12.8-12.8V460.6
			C16.2,453.6,22,447.8,29,447.8z"/>
		<g>
			<path class="st4" d="M32,633V460.6c0-5.3,3.3-9.9,7.9-11.8c-1.5-0.6-3.2-1-4.9-1h-6c-7,0-12.8,5.8-12.8,12.8V633
				c0,7,5.8,12.8,12.8,12.8h6c1.7,0,3.4-0.4,4.9-1C35.3,642.9,32,638.3,32,633z"/>
			<path class="st4" d="M16.2,498.6c1.1,0,2.3,0.1,3.4,0.1c9.8,0,19.3-1.5,28.2-4.4v-32.7H16.2L16.2,498.6L16.2,498.6z"/>
		</g>
		<circle class="st2" cx="-35.1" cy="473.8" r="64.6"/>
		<g>
			<path class="st0" d="M-83.1,473.8c0-32.9,24.5-60,56.3-64.1c-2.7-0.4-5.5-0.5-8.3-0.5c-35.7,0-64.6,28.9-64.6,64.6
				s28.9,64.6,64.6,64.6c2.8,0,5.6-0.2,8.3-0.5C-58.6,533.8-83.1,506.6-83.1,473.8z"/>
			<path class="st0" d="M-35.1,409.2c-13.7,0-26.3,4.2-36.8,11.5c7.1,44.2,45.4,78,91.5,78c1.6,0,3.3,0,4.9-0.1
				c3.2-7.6,4.9-16,4.9-24.8C29.5,438.1,0.5,409.2-35.1,409.2z"/>
		</g>
		<circle class="st5" cx="19.7" cy="406" r="73.5"/>
		<g>
			<path class="st2" d="M-37,406c0-37.8,28.5-68.9,65.1-73c-2.8-0.3-5.6-0.5-8.4-0.5c-40.6,0-73.5,32.9-73.5,73.5
				s32.9,73.5,73.5,73.5c2.8,0,5.7-0.2,8.4-0.5C-8.6,474.9-37,443.8-37,406z"/>
			<path class="st2" d="M64.9,440.9c-0.9,0-1.8-0.3-2.7-0.8c-2.2-1.5-2.8-4.4-1.3-6.7c5.4-8.1,8.3-17.6,8.3-27.4
				c0-2.6,2.1-4.8,4.8-4.8s4.8,2.1,4.8,4.8c0,11.7-3.4,23-9.9,32.7C68,440.1,66.4,440.9,64.9,440.9z"/>
			<path class="st2" d="M64,379.5c-1.5,0-3-0.7-3.9-2c-9.3-13.1-24.4-21-40.5-21c-2.6,0-4.8-2.1-4.8-4.8s2.1-4.8,4.8-4.8
				c19.1,0,37.2,9.4,48.3,25c1.5,2.2,1,5.2-1.1,6.7C66,379.2,65,379.5,64,379.5z"/>
		</g>
	</g>
	<g>
		<g>
			<g>
				<path class="st6" d="M44.3,367c-2.8,0.7-5.8,0.7-8.7,0c-14.8-3.7-27.2-2.3-27.1,25.7C8.6,407,22,425.6,36.1,422.4
					c2.5-0.6,5.2-0.6,7.7,0c14.1,3.2,27.5-15.4,27.6-29.7C71.5,364.8,59.1,363.3,44.3,367z"/>
				<path class="st7" d="M15.4,385.6c-0.8,0-1.4-0.6-1.4-1.4c0-7.6,5.6-13.8,12.4-13.8c0.8,0,1.4,0.6,1.4,1.4c0,0.8-0.6,1.4-1.4,1.4
					c-5.3,0-9.6,4.9-9.6,11C16.8,384.9,16.2,385.6,15.4,385.6z"/>
				<path class="st8" d="M39.8,372.2c-0.7,0-1.4-0.6-1.4-1.3c-0.2-5.8-2.4-13.2-8.2-16.2c-0.7-0.4-0.9-1.2-0.6-1.9
					c0.4-0.7,1.2-0.9,1.9-0.6c6.8,3.6,9.4,12,9.6,18.6C41.2,371.6,40.6,372.2,39.8,372.2C39.9,372.2,39.8,372.2,39.8,372.2z"/>
				<path class="st9" d="M39.7,377.2c-2.3,0-4.5-0.9-6.1-2.5c-0.5-0.5-0.5-1.4,0-1.9c0.5-0.5,1.4-0.5,1.9,0c1.1,1.1,2.6,1.7,4.2,1.7
					c1.6,0,3.1-0.6,4.2-1.7c0.5-0.5,1.4-0.5,1.9,0c0.5,0.5,0.5,1.4,0,1.9C44.2,376.3,42,377.2,39.7,377.2z"/>
			</g>
		</g>
		<g>
			<path class="st10" d="M39.7,360.7l2.6-5.1c2.7-5.3,8.7-8.3,14.6-7.2l5.6,1l-2.6,5.1c-2.7,5.3-8.7,8.3-14.6,7.2L39.7,360.7z"/>
			<g>
				<defs>
					<path id="SVGID_1_" d="M39.7,360.7l2.6-5.1c2.7-5.3,8.7-8.3,14.6-7.2l5.6,1l-2.6,5.1c-2.7,5.3-8.7,8.3-14.6,7.2L39.7,360.7z"/>
				</defs>
				<clipPath id="SVGID_2_">
					<use xlink:href="#SVGID_1_"  style="overflow:visible;"/>
				</clipPath>
				
					<rect x="37" y="349.2" transform="matrix(0.8968 -0.4425 0.4425 0.8968 -150.7139 58.4494)" class="st11" width="25.7" height="6.1"/>
			</g>
		</g>
	</g>
	<g>
		<g>
			<g>
				<path class="st6" d="M13.8,440.4c-1.8,0.4-3.7,0.4-5.5,0C-1,438.1-8.9,439-8.8,456.7c0,9.1,8.5,20.8,17.4,18.8
					c1.6-0.4,3.3-0.4,4.9,0c8.9,2,17.4-9.7,17.4-18.8C31,439,23.2,438.1,13.8,440.4z"/>
				<path class="st7" d="M-4.4,452.2c-0.5,0-0.9-0.4-0.9-0.9c0-4.8,3.5-8.7,7.8-8.7c0.5,0,0.9,0.4,0.9,0.9c0,0.5-0.4,0.9-0.9,0.9
					c-3.4,0-6.1,3.1-6.1,7C-3.6,451.8-4,452.2-4.4,452.2z"/>
				<path class="st8" d="M11,443.7c-0.5,0-0.9-0.4-0.9-0.8c-0.1-3.7-1.5-8.3-5.2-10.3c-0.4-0.2-0.6-0.8-0.4-1.2
					c0.2-0.4,0.8-0.6,1.2-0.4c4.3,2.3,5.9,7.6,6.1,11.7C11.9,443.3,11.5,443.7,11,443.7C11,443.7,11,443.7,11,443.7z"/>
				<path class="st9" d="M10.9,446.9c-1.5,0-2.8-0.6-3.9-1.6c-0.3-0.3-0.3-0.9,0-1.2c0.3-0.3,0.9-0.3,1.2,0c0.7,0.7,1.6,1.1,2.6,1.1
					s1.9-0.4,2.6-1.1c0.3-0.3,0.9-0.3,1.2,0c0.3,0.3,0.3,0.9,0,1.2C13.8,446.3,12.4,446.9,10.9,446.9z"/>
			</g>
		</g>
		<g>
			<path class="st10" d="M10.9,436.4l1.6-3.2c1.7-3.4,5.5-5.2,9.2-4.6l3.5,0.6l-1.6,3.2c-1.7,3.4-5.5,5.2-9.2,4.6L10.9,436.4z"/>
			<g>
				<defs>
					<path id="SVGID_3_" d="M10.9,436.4l1.6-3.2c1.7-3.4,5.5-5.2,9.2-4.6l3.5,0.6l-1.6,3.2c-1.7,3.4-5.5,5.2-9.2,4.6L10.9,436.4z"/>
				</defs>
				<clipPath id="SVGID_4_">
					<use xlink:href="#SVGID_3_"  style="overflow:visible;"/>
				</clipPath>
				
					<rect x="9.2" y="429.2" transform="matrix(0.8968 -0.4425 0.4425 0.8968 -188.9626 52.1982)" class="st12" width="16.3" height="3.8"/>
			</g>
		</g>
	</g>
	<g>
		<g>
			<g>
				<path class="st6" d="M-22.1,390.5c-1.8,0.4-3.6,0.4-5.3,0c-9.1-2.3-16.8-1.4-16.7,15.8c0,8.8,8.3,20.2,17,18.3
					c1.6-0.4,3.2-0.4,4.7,0c8.7,2,16.9-9.5,17-18.3C-5.3,389.1-12.9,388.2-22.1,390.5z"/>
				<path class="st7" d="M-39.8,401.9c-0.5,0-0.8-0.4-0.8-0.8c0-4.7,3.4-8.5,7.6-8.5c0.5,0,0.8,0.4,0.8,0.8c0,0.5-0.4,0.8-0.8,0.8
					c-3.3,0-5.9,3-5.9,6.8C-39,401.5-39.3,401.9-39.8,401.9z"/>
				<path class="st8" d="M-24.8,393.7c-0.5,0-0.8-0.4-0.8-0.8c-0.1-3.6-1.5-8.1-5-10c-0.4-0.2-0.6-0.7-0.3-1.1
					c0.2-0.4,0.7-0.6,1.1-0.3c4.2,2.2,5.8,7.4,5.9,11.4C-23.9,393.3-24.3,393.7-24.8,393.7C-24.8,393.7-24.8,393.7-24.8,393.7z"/>
				<path class="st9" d="M-24.9,396.7c-1.4,0-2.8-0.6-3.8-1.6c-0.3-0.3-0.3-0.9,0-1.2s0.9-0.3,1.2,0c0.7,0.7,1.6,1.1,2.6,1.1
					c1,0,1.9-0.4,2.6-1.1c0.3-0.3,0.9-0.3,1.2,0c0.3,0.3,0.3,0.9,0,1.2C-22.1,396.2-23.4,396.7-24.9,396.7z"/>
			</g>
		</g>
		<g>
			<path class="st10" d="M-24.9,386.6l1.6-3.1c1.7-3.3,5.3-5.1,9-4.4l3.4,0.6l-1.6,3.1c-1.7,3.3-5.3,5.1-9,4.4L-24.9,386.6z"/>
			<g>
				<defs>
					<path id="SVGID_5_" d="M-24.9,386.6l1.6-3.1c1.7-3.3,5.3-5.1,9-4.4l3.4,0.6l-1.6,3.1c-1.7,3.3-5.3,5.1-9,4.4L-24.9,386.6z"/>
				</defs>
				<clipPath id="SVGID_6_">
					<use xlink:href="#SVGID_5_"  style="overflow:visible;"/>
				</clipPath>
				
					<rect x="-26.5" y="379.5" transform="matrix(0.8968 -0.4425 0.4425 0.8968 -170.687 31.1504)" class="st13" width="15.8" height="3.7"/>
			</g>
		</g>
	</g>
	<g>
		<g>
			<g>
				<path class="st6" d="M81.9,501.5c-2.1,0.5-4.2,0.5-6.3,0c-10.8-2.7-19.8-1.6-19.7,18.7c0.1,10.4,9.8,23.9,20,21.6
					c1.8-0.4,3.8-0.4,5.6,0c10.2,2.3,20-11.2,20-21.6C101.7,499.8,92.7,498.8,81.9,501.5z"/>
				<path class="st7" d="M61,515c-0.6,0-1-0.4-1-1c0-5.5,4-10,9-10c0.6,0,1,0.4,1,1c0,0.6-0.4,1-1,1c-3.9,0-7,3.6-7,8
					C62,514.5,61.5,515,61,515z"/>
				<path class="st8" d="M78.7,505.3c-0.5,0-1-0.4-1-1c-0.1-4.2-1.8-9.6-5.9-11.8c-0.5-0.3-0.7-0.9-0.4-1.4c0.3-0.5,0.9-0.7,1.4-0.4
					c4.9,2.6,6.8,8.7,7,13.5C79.7,504.8,79.3,505.3,78.7,505.3C78.7,505.3,78.7,505.3,78.7,505.3z"/>
				<path class="st9" d="M78.6,508.9c-1.7,0-3.3-0.7-4.5-1.8c-0.4-0.4-0.4-1,0-1.4s1-0.4,1.4,0c0.8,0.8,1.9,1.3,3,1.3s2.2-0.4,3-1.3
					c0.4-0.4,1-0.4,1.4,0c0.4,0.4,0.4,1,0,1.4C81.9,508.2,80.3,508.9,78.6,508.9z"/>
			</g>
		</g>
		<g>
			<path class="st10" d="M78.6,496.9l1.9-3.7c2-3.9,6.3-6,10.6-5.2l4.1,0.7l-1.9,3.7c-2,3.9-6.3,6-10.6,5.2L78.6,496.9z"/>
			<g>
				<defs>
					<path id="SVGID_7_" d="M78.6,496.9l1.9-3.7c2-3.9,6.3-6,10.6-5.2l4.1,0.7l-1.9,3.7c-2,3.9-6.3,6-10.6,5.2L78.6,496.9z"/>
				</defs>
				<clipPath id="SVGID_8_">
					<use xlink:href="#SVGID_7_"  style="overflow:visible;"/>
				</clipPath>
				
					<rect x="76.7" y="488.5" transform="matrix(0.8968 -0.4425 0.4425 0.8968 -208.275 88.7394)" class="st14" width="18.7" height="4.4"/>
			</g>
		</g>
	</g>
	<g>
		<g>
			<g>
				<path class="st6" d="M135.6,465.2c-2.2,0.5-4.5,0.5-6.8,0c-11.5-2.9-21.2-1.8-21.1,20c0.1,11.1,10.5,25.6,21.5,23.1
					c2-0.4,4-0.4,6,0c11,2.5,21.4-12,21.5-23.1C156.8,463.4,147.1,462.3,135.6,465.2z"/>
				<path class="st7" d="M113.1,479.6c-0.6,0-1.1-0.5-1.1-1.1c0-5.9,4.3-10.7,9.7-10.7c0.6,0,1.1,0.5,1.1,1.1s-0.5,1.1-1.1,1.1
					c-4.1,0-7.5,3.9-7.5,8.6C114.2,479.1,113.7,479.6,113.1,479.6z"/>
				<path class="st8" d="M132.1,469.2c-0.6,0-1.1-0.5-1.1-1c-0.1-4.5-1.9-10.2-6.4-12.6c-0.5-0.3-0.7-0.9-0.4-1.5
					c0.3-0.5,0.9-0.7,1.5-0.4c5.3,2.8,7.3,9.3,7.5,14.4C133.2,468.7,132.7,469.2,132.1,469.2C132.1,469.2,132.1,469.2,132.1,469.2z"
					/>
				<path class="st9" d="M132,473.1c-1.8,0-3.5-0.7-4.8-2c-0.4-0.4-0.4-1.1,0-1.5c0.4-0.4,1.1-0.4,1.5,0c0.9,0.9,2,1.4,3.3,1.4
					c1.2,0,2.4-0.5,3.3-1.4c0.4-0.4,1.1-0.4,1.5,0c0.4,0.4,0.4,1.1,0,1.5C135.5,472.4,133.8,473.1,132,473.1z"/>
			</g>
		</g>
		<g>
			<path class="st10" d="M132,460.2l2-3.9c2.1-4.2,6.8-6.4,11.4-5.6l4.4,0.8l-2,3.9c-2.1,4.2-6.8,6.4-11.4,5.6L132,460.2z"/>
			<g>
				<defs>
					<path id="SVGID_9_" d="M132,460.2l2-3.9c2.1-4.2,6.8-6.4,11.4-5.6l4.4,0.8l-2,3.9c-2.1,4.2-6.8,6.4-11.4,5.6L132,460.2z"/>
				</defs>
				<clipPath id="SVGID_10_">
					<use xlink:href="#SVGID_9_"  style="overflow:visible;"/>
				</clipPath>
				
					<rect x="129.9" y="451.3" transform="matrix(0.8968 -0.4425 0.4425 0.8968 -186.2955 108.7679)" class="st15" width="20" height="4.7"/>
			</g>
		</g>
	</g>
	<g>
		<g>
			<g>
				<path class="st6" d="M-89.9,465.8c-2.4,0.6-4.9,0.6-7.3,0c-12.4-3.1-22.8-1.9-22.7,21.5c0.1,12,11.3,27.5,23.1,24.9
					c2.1-0.5,4.3-0.5,6.4,0c11.8,2.7,23-12.9,23.1-24.9C-67.1,463.9-77.5,462.7-89.9,465.8z"/>
				<path class="st7" d="M-114.1,481.3c-0.6,0-1.2-0.5-1.2-1.2c0-6.4,4.7-11.5,10.4-11.5c0.6,0,1.2,0.5,1.2,1.2s-0.5,1.2-1.2,1.2
					c-4.5,0-8.1,4.1-8.1,9.2C-112.9,480.8-113.4,481.3-114.1,481.3z"/>
				<path class="st8" d="M-93.6,470.2c-0.6,0-1.1-0.5-1.2-1.1c-0.2-4.9-2-11-6.8-13.6c-0.6-0.3-0.8-1-0.5-1.6c0.3-0.6,1-0.8,1.6-0.5
					c5.7,3,7.9,10,8.1,15.5C-92.4,469.6-92.9,470.1-93.6,470.2C-93.6,470.2-93.6,470.2-93.6,470.2z"/>
				<path class="st9" d="M-93.7,474.3c-1.9,0-3.8-0.8-5.1-2.1c-0.5-0.4-0.5-1.2,0-1.6c0.5-0.5,1.2-0.5,1.6,0
					c0.9,0.9,2.2,1.5,3.5,1.5c1.3,0,2.6-0.5,3.5-1.5c0.5-0.5,1.2-0.5,1.6,0c0.5,0.5,0.5,1.2,0,1.6C-90,473.5-91.8,474.3-93.7,474.3z
					"/>
			</g>
		</g>
		<g>
			<path class="st10" d="M-93.7,460.5l2.2-4.2c2.3-4.5,7.3-6.9,12.2-6l4.7,0.8l-2.2,4.2c-2.3,4.5-7.3,6.9-12.2,6L-93.7,460.5z"/>
			<g>
				<defs>
					<path id="SVGID_11_" d="M-93.7,460.5l2.2-4.2c2.3-4.5,7.3-6.9,12.2-6l4.7,0.8l-2.2,4.2c-2.3,4.5-7.3,6.9-12.2,6L-93.7,460.5z"
						/>
				</defs>
				<clipPath id="SVGID_12_">
					<use xlink:href="#SVGID_11_"  style="overflow:visible;"/>
				</clipPath>
				
					<rect x="-96" y="450.9" transform="matrix(0.8968 -0.4425 0.4425 0.8968 -209.4359 9.1202)" class="st16" width="21.6" height="5.1"/>
			</g>
		</g>
	</g>
	<g>
		<g>
			<g>
				<path class="st6" d="M-27.5,501c-2.4,0.6-4.8,0.6-7.2,0c-12.3-3-22.6-1.9-22.5,21.3c0.1,11.9,11.2,27.3,22.9,24.6
					c2.1-0.5,4.3-0.5,6.4,0c11.7,2.6,22.8-12.8,22.9-24.6C-4.9,499.1-15.2,497.9-27.5,501z"/>
				<path class="st7" d="M-51.4,516.3c-0.6,0-1.1-0.5-1.1-1.1c0-6.3,4.6-11.4,10.3-11.4c0.6,0,1.1,0.5,1.1,1.1s-0.5,1.1-1.1,1.1
					c-4.4,0-8,4.1-8,9.1C-50.3,515.8-50.8,516.3-51.4,516.3z"/>
				<path class="st8" d="M-31.2,505.3c-0.6,0-1.1-0.5-1.1-1.1c-0.2-4.8-2-10.9-6.8-13.4c-0.6-0.3-0.8-1-0.5-1.5
					c0.3-0.6,1-0.8,1.5-0.5c5.6,3,7.8,9.9,8,15.4C-30,504.7-30.5,505.3-31.2,505.3C-31.2,505.3-31.2,505.3-31.2,505.3z"/>
				<path class="st9" d="M-31.3,509.4c-1.9,0-3.7-0.7-5.1-2.1c-0.4-0.4-0.4-1.2,0-1.6c0.4-0.4,1.2-0.4,1.6,0
					c0.9,0.9,2.2,1.4,3.5,1.4c1.3,0,2.5-0.5,3.5-1.4c0.4-0.4,1.2-0.4,1.6,0c0.4,0.4,0.4,1.2,0,1.6
					C-27.6,508.7-29.4,509.4-31.3,509.4z"/>
			</g>
		</g>
		<g>
			<path class="st10" d="M-31.3,495.7l2.2-4.2c2.3-4.4,7.2-6.9,12.1-6l4.6,0.8l-2.2,4.2c-2.3,4.4-7.2,6.9-12.1,6L-31.3,495.7z"/>
			<g>
				<defs>
					<path id="SVGID_13_" d="M-31.3,495.7l2.2-4.2c2.3-4.4,7.2-6.9,12.1-6l4.6,0.8l-2.2,4.2c-2.3,4.4-7.2,6.9-12.1,6L-31.3,495.7z"
						/>
				</defs>
				<clipPath id="SVGID_14_">
					<use xlink:href="#SVGID_13_"  style="overflow:visible;"/>
				</clipPath>
				
					<rect x="-33.5" y="486.2" transform="matrix(0.8968 -0.4425 0.4425 0.8968 -218.6227 40.3528)" class="st17" width="21.3" height="5"/>
			</g>
		</g>
	</g>
</g>
</svg>
