<?xml version="1.0" encoding="utf-8"?>
<!-- Generator: Adobe Illustrator 19.0.1, SVG Export Plug-In . SVG Version: 6.00 Build 0)  -->
<svg version="1.1" id="apple_x5F_grow" xmlns="http://www.w3.org/2000/svg" xmlns:xlink="http://www.w3.org/1999/xlink" x="0px"
	 y="0px" viewBox="-223 225 512 512" style="enable-background:new -223 225 512 512;" xml:space="preserve">
<style type="text/css">
	.st0{fill:#E47500;}
	.st1{fill:#BF6100;}
</style>
<g>
	<path class="st0" d="M29.3,482h7.4c8.6,0,15.7,4.7,15.7,10.5v142c0,5.8-7.1,10.5-15.7,10.5h-7.4c-8.6,0-15.7-4.7-15.7-10.5v-142
		C13.6,486.7,20.7,482,29.3,482z"/>
	<g>
		<path class="st1" d="M33,634.5v-142c0-4.4,4-8.1,9.7-9.7c-1.8-0.5-3.9-0.8-6-0.8h-7.4c-8.6,0-15.7,4.7-15.7,10.5v142
			c0,5.8,7.1,10.5,15.7,10.5h7.4c2.1,0,4.1-0.3,6-0.8C37,642.7,33,638.9,33,634.5z"/>
	</g>
</g>
</svg>
