<?xml version="1.0" encoding="utf-8"?>
<!-- Generator: Adobe Illustrator 19.0.1, SVG Export Plug-In . SVG Version: 6.00 Build 0)  -->
<svg version="1.1" id="apple" xmlns="http://www.w3.org/2000/svg" xmlns:xlink="http://www.w3.org/1999/xlink" x="0px" y="0px"
	 viewBox="0 0 50 50" style="enable-background:new 0 0 50 50;" xml:space="preserve">
<style type="text/css">
	.st0{fill:#D13834;}
	.st1{fill:#F75B57;}
	.st2{fill:#4C312C;}
	.st3{fill:#994530;}
	.st4{fill:#659C35;}
	.st5{clip-path:url(#SVGID_2_);fill:#8FDA5D;}
</style>
<g>
	<g>
		<g>
			<path class="st0" d="M27.8,12.9c-1.9,0.5-3.8,0.5-5.7,0c-9.7-2.4-17.8-1.5-17.7,16.8c0,9.4,8.8,21.5,18.1,19.5
				c1.7-0.4,3.4-0.4,5,0c9.2,2.1,18-10.1,18.1-19.5C45.7,11.4,37.6,10.5,27.8,12.9z"/>
			<path class="st1" d="M8.9,25.1c-0.5,0-0.9-0.4-0.9-0.9c0-5,3.6-9,8.1-9c0.5,0,0.9,0.4,0.9,0.9c0,0.5-0.4,0.9-0.9,0.9
				c-3.5,0-6.3,3.2-6.3,7.2C9.8,24.7,9.4,25.1,8.9,25.1z"/>
			<path class="st2" d="M24.9,16.3c-0.5,0-0.9-0.4-0.9-0.9c-0.1-3.8-1.6-8.6-5.3-10.6c-0.4-0.2-0.6-0.8-0.4-1.2
				c0.2-0.4,0.8-0.6,1.2-0.4c4.4,2.4,6.2,7.8,6.3,12.2C25.9,15.9,25.5,16.3,24.9,16.3C25,16.3,24.9,16.3,24.9,16.3z"/>
			<path class="st3" d="M24.9,19.6c-1.5,0-2.9-0.6-4-1.7c-0.4-0.4-0.4-0.9,0-1.3c0.4-0.4,0.9-0.4,1.3,0c0.7,0.7,1.7,1.1,2.7,1.1
				s2-0.4,2.7-1.1c0.4-0.4,0.9-0.4,1.3,0c0.4,0.4,0.4,0.9,0,1.3C27.8,19,26.4,19.6,24.9,19.6z"/>
		</g>
	</g>
	<g>
		<path class="st4" d="M24.9,8.7l1.7-3.3c1.8-3.5,5.7-5.4,9.6-4.7l3.7,0.7l-1.7,3.3c-1.8,3.5-5.7,5.4-9.6,4.7L24.9,8.7z"/>
		<g>
			<defs>
				<path id="SVGID_1_" d="M24.9,8.7l1.7-3.3c1.8-3.5,5.7-5.4,9.6-4.7l3.7,0.7l-1.7,3.3c-1.8,3.5-5.7,5.4-9.6,4.7L24.9,8.7z"/>
			</defs>
			<clipPath id="SVGID_2_">
				<use xlink:href="#SVGID_1_"  style="overflow:visible;"/>
			</clipPath>
			<rect x="23.1" y="1.2" transform="matrix(0.8968 -0.4425 0.4425 0.8968 1.8284 14.2887)" class="st5" width="16.9" height="4"/>
		</g>
	</g>
</g>
</svg>
