<?xml version="1.0" encoding="utf-8"?>
<!-- Generator: Adobe Illustrator 19.0.1, SVG Export Plug-In . SVG Version: 6.00 Build 0)  -->
<svg version="1.1" id="apple_x5F_seed" xmlns="http://www.w3.org/2000/svg" xmlns:xlink="http://www.w3.org/1999/xlink" x="0px"
	 y="0px" viewBox="-223 225 512 512" style="enable-background:new -223 225 512 512;" xml:space="preserve">
<style type="text/css">
	.st0{fill:#8E472B;}
	.st1{fill:#8E472B;stroke:#D3B092;stroke-width:0.25;stroke-miterlimit:10;}
</style>
<g>
	<g>
		<path class="st0" d="M38.3,604.6c0.1,1.8,0.3,4.4-1.3,6.4c-2.7,3.2-8,2.3-8.8,2.1c-1.2-0.2-4.9-1.1-9.4-6.4
			c-6.5-7.7-9.8-19.2-7-21.2c1.1-0.8,2.2,0.6,9.6,3.7c8.3,3.5,9.7,3,12.3,5.6C34.3,595.5,37.9,599.1,38.3,604.6z"/>
		<line class="st1" x1="17.5" y1="595.6" x2="28.5" y2="608.3"/>
		<line class="st1" x1="21.3" y1="594.8" x2="32.3" y2="607.5"/>
	</g>
	<g>
		<path class="st0" d="M28.4,635.7c0.1,1.8,0.3,4.4-1.3,6.4c-2.7,3.2-8,2.3-8.8,2.1c-1.2-0.2-4.9-1.1-9.4-6.4
			c-6.5-7.7-9.8-19.2-7-21.2c1.1-0.8,2.2,0.6,9.6,3.7c8.3,3.5,9.7,3,12.3,5.6C24.4,626.6,28,630.2,28.4,635.7z"/>
		<line class="st1" x1="7.6" y1="626.7" x2="18.6" y2="639.5"/>
		<line class="st1" x1="11.4" y1="625.9" x2="22.4" y2="638.7"/>
	</g>
	<g>
		<path class="st0" d="M66,635.7c0.1,1.8,0.3,4.4-1.3,6.4c-2.7,3.2-8,2.3-8.8,2.1c-1.2-0.2-4.9-1.1-9.4-6.4
			c-6.5-7.7-9.8-19.2-7-21.2c1.1-0.8,2.2,0.6,9.6,3.7c8.3,3.5,9.7,3,12.3,5.6C62,626.6,65.5,630.2,66,635.7z"/>
		<line class="st1" x1="45.1" y1="626.7" x2="56.1" y2="639.5"/>
		<line class="st1" x1="48.9" y1="625.9" x2="59.9" y2="638.7"/>
	</g>
</g>
</svg>
