<?xml version="1.0" encoding="utf-8"?>
<!-- Generator: Adobe Illustrator 19.0.1, SVG Export Plug-In . SVG Version: 6.00 Build 0)  -->
<svg version="1.1" id="bamboo_x5F_harvest" xmlns="http://www.w3.org/2000/svg" xmlns:xlink="http://www.w3.org/1999/xlink" x="0px"
	 y="0px" viewBox="-223 225 512 512" style="enable-background:new -223 225 512 512;" xml:space="preserve">
<style type="text/css">
	.st0{fill:#608C13;}
	.st1{fill:#6FA519;}
	.st2{fill:#5E9B0E;}
</style>
<g>
	<path class="st0" d="M0.7,490.9C4.5,503.4,23.6,513,23.6,513l0.3-5.7C18.5,498.5,0.7,490.9,0.7,490.9z"/>
	<path class="st1" d="M28.4,509.2c-0.5-9.6-11-28-11-28c-4.9,11.2,6.2,27.9,8.7,31.4c0.3,0.4,1.5-0.1,2.1-1.1
		C28.5,510.9,28.4,509.2,28.4,509.2z"/>
	<path class="st2" d="M28.4,510.6l-4.9-2.2c-10.2-1.8-28.3-0.3-28.3-0.3c10,9.2,30.1,7.3,32.5,4.2C28.5,511.4,28.4,510.6,28.4,510.6
		z"/>
	<path class="st1" d="M-2.6,596.5c4.1,13.8,25.1,24.3,25.1,24.3l0.3-6.3C16.9,604.8-2.6,596.5-2.6,596.5z"/>
	<path class="st0" d="M25.3,616.1c-0.5-10.6-12.1-30.8-12.1-30.8c-5.3,12.3,6.8,30.7,9.5,34.5c0.3,0.5,1.6-0.1,2.3-1.2
		C25.4,617.9,25.3,616.1,25.3,616.1z"/>
	<g>
		<path class="st2" d="M28.3,618.9l-5.3-2.4c-11.2-2-31.1-0.3-31.1-0.3c11,10.2,33.1,8.1,35.7,4.6C28.4,619.8,28.3,618.9,28.3,618.9
			z"/>
		<path class="st2" d="M45.7,556.7l0.4,7.3c0,0,24.4-12.2,29.2-28.3C75.3,535.7,52.6,545.4,45.7,556.7z"/>
	</g>
	<path class="st1" d="M45.5,558.2l-6.2,2.8c0,0-0.1,1.1,0.9,2.3c3.1,4,28.9,6.4,41.6-5.4C81.8,557.8,58.6,555.9,45.5,558.2z"/>
	<path class="st0" d="M54,523.4c0,0-13.5,23.6-14.1,35.8c0,0-0.2,2.1,0.4,3c0.7,1.3,2.3,1.9,2.6,1.4C46,559.2,60.2,537.8,54,523.4z"
		/>
	<g>
		<path class="st2" d="M23.3,587.9c0,0,0.2,0,0.6,0.1C23.5,588,23.3,587.9,23.3,587.9z"/>
		<path class="st2" d="M33,588.9l-0.2,57.7c0.1,0,0.2,0,0.3,0c2.6,0,5.2-0.1,7.8-0.3l0-22.8l0-29.3c0,0,1.5,0.4,1.5-6.2
			C42.5,587.9,38.1,588.9,33,588.9z"/>
	</g>
	<g>
		<path class="st0" d="M23.9,588.1c1.4,0.3,5,0.8,9,0.8C28.8,588.9,25.3,588.3,23.9,588.1z"/>
		<path class="st0" d="M23.9,588.1c-0.4-0.1-0.6-0.1-0.6-0.1c0,5.7,1.5,6.4,1.5,6.4l0,28.8v23.1c2.6,0.2,5.3,0.4,7.9,0.4l0.2-57.7
			C28.9,588.9,25.3,588.3,23.9,588.1z"/>
	</g>
	<path class="st2" d="M40.9,581.1v-53.1c0,0,1.5,0.6,1.5-5.4c0,0-4.9,0.8-9.5,0.8l-0.2,63.9c5.1,0,9.7-0.9,9.7-0.9
		C42.5,580.6,40.9,581.1,40.9,581.1z"/>
	<path class="st0" d="M23.3,522.6c0,5.1,1.5,5.5,1.5,5.5l0.8,26.1v26.9c0,0-2.4-0.8-2.4,5.4c0,0,4.4,0.9,9.4,0.9l0.2-63.9
		C28.3,523.4,23.3,522.6,23.3,522.6z"/>
	<path class="st2" d="M40.9,517.2v-45.9c-2.6-0.2-5.2-0.3-7.8-0.3c-0.1,0-0.1,0-0.2,0l-0.2,51.3c5.8,0,9.7-0.8,9.7-0.8
		C42.5,516.5,40.9,517.2,40.9,517.2z"/>
	<path class="st0" d="M24.7,471.3v45.8c0,0-1.6-1.1-1.6,4.3c0,0,3.9,0.8,9.7,0.8l0.2-51.3C30.2,470.9,27.4,471.1,24.7,471.3z"/>
</g>
<g>
	<path class="st0" d="M-161.1,397.2c3.8,12.6,22.8,22.1,22.8,22.1l0.3-5.7C-143.4,404.8-161.1,397.2-161.1,397.2z"/>
	<path class="st1" d="M-133.5,415.6c-0.5-9.6-11-28-11-28c-4.9,11.2,6.2,27.9,8.7,31.4c0.3,0.4,1.5-0.1,2.1-1.1
		C-133.3,417.2-133.5,415.6-133.5,415.6z"/>
	<path class="st2" d="M-133.5,416.9l-4.9-2.2c-10.2-1.8-28.3-0.3-28.3-0.3c10,9.2,30.1,7.3,32.5,4.2
		C-133.4,417.8-133.5,416.9-133.5,416.9z"/>
	<path class="st1" d="M-164.5,502.8c4.1,13.8,25.1,24.3,25.1,24.3l0.3-6.3C-145,511.2-164.5,502.8-164.5,502.8z"/>
	<path class="st0" d="M-136.6,522.5c-0.5-10.6-12.1-30.8-12.1-30.8c-5.3,12.3,6.8,30.7,9.5,34.5c0.3,0.5,1.6-0.1,2.3-1.2
		C-136.5,524.3-136.6,522.5-136.6,522.5z"/>
	<g>
		<path class="st2" d="M-133.6,525.3l-5.3-2.4c-11.2-2-31.1-0.3-31.1-0.3c11,10.2,33.1,8.1,35.7,4.6
			C-133.5,526.2-133.6,525.3-133.6,525.3z"/>
		<path class="st2" d="M-116.1,463.1l0.4,7.3c0,0,24.4-12.2,29.2-28.3C-86.6,442.1-109.2,451.8-116.1,463.1z"/>
	</g>
	<path class="st1" d="M-116.4,464.6l-6.2,2.8c0,0-0.1,1.1,0.9,2.3c3.1,4,28.9,6.4,41.6-5.4C-80.1,464.2-103.3,462.2-116.4,464.6z"/>
	<path class="st0" d="M-107.9,429.8c0,0-13.5,23.6-14.1,35.8c0,0-0.2,2.1,0.4,3c0.7,1.3,2.3,1.9,2.6,1.4
		C-115.9,465.5-101.7,444.1-107.9,429.8z"/>
	<g>
		<path class="st2" d="M-138.5,494.3c0,0,0.2,0,0.6,0.1C-138.3,494.3-138.5,494.3-138.5,494.3z"/>
		<path class="st2" d="M-128.9,495.2l-0.2,57.7c0.1,0,0.2,0,0.3,0c2.6,0,5.2-0.1,7.8-0.3l0-22.8l0-29.3c0,0,1.5,0.4,1.5-6.2
			C-119.4,494.3-123.7,495.2-128.9,495.2z"/>
	</g>
	<g>
		<path class="st0" d="M-138,494.4c1.4,0.3,5,0.8,9,0.8C-133,495.2-136.6,494.7-138,494.4z"/>
		<path class="st0" d="M-138,494.4c-0.4-0.1-0.6-0.1-0.6-0.1c0,5.7,1.5,6.4,1.5,6.4l0,28.8v23.1c2.6,0.2,5.3,0.4,7.9,0.4l0.2-57.7
			C-133,495.2-136.6,494.7-138,494.4z"/>
	</g>
	<path class="st2" d="M-121,487.4v-53.1c0,0,1.5,0.6,1.5-5.4c0,0-4.9,0.8-9.5,0.8l-0.2,63.9c5.1,0,9.7-0.9,9.7-0.9
		C-119.4,487-121,487.4-121,487.4z"/>
	<path class="st0" d="M-138.5,428.9c0,5.1,1.5,5.5,1.5,5.5l0.8,26.1v26.9c0,0-2.4-0.8-2.4,5.4c0,0,4.4,0.9,9.4,0.9l0.2-63.9
		C-133.6,429.8-138.5,428.9-138.5,428.9z"/>
	<path class="st2" d="M-121,423.5v-45.9c-2.6-0.2-5.2-0.3-7.8-0.3c-0.1,0-0.1,0-0.2,0l-0.2,51.3c5.8,0,9.7-0.8,9.7-0.8
		C-119.4,422.8-121,423.5-121,423.5z"/>
	<path class="st0" d="M-137.2,377.7v45.8c0,0-1.6-1.1-1.6,4.3c0,0,3.9,0.8,9.7,0.8l0.2-51.3C-131.7,377.3-134.5,377.4-137.2,377.7z"
		/>
</g>
<g>
	<path class="st0" d="M1.7,304.8c3.8,12.6,22.8,22.1,22.8,22.1l0.3-5.7C19.5,312.4,1.7,304.8,1.7,304.8z"/>
	<path class="st1" d="M29.4,323.2c-0.5-9.6-11-28-11-28c-4.9,11.2,6.2,27.9,8.7,31.4c0.3,0.4,1.5-0.1,2.1-1.1
		C29.5,324.8,29.4,323.2,29.4,323.2z"/>
	<path class="st2" d="M29.4,324.5l-4.9-2.2c-10.2-1.8-28.3-0.3-28.3-0.3c10,9.2,30.1,7.3,32.5,4.2C29.5,325.3,29.4,324.5,29.4,324.5
		z"/>
	<path class="st1" d="M-1.6,410.4c4.1,13.8,25.1,24.3,25.1,24.3l0.3-6.3C17.9,418.7-1.6,410.4-1.6,410.4z"/>
	<path class="st0" d="M26.3,430.1c-0.5-10.6-12.1-30.8-12.1-30.8c-5.3,12.3,6.8,30.7,9.5,34.5c0.3,0.5,1.6-0.1,2.3-1.2
		C26.4,431.8,26.3,430.1,26.3,430.1z"/>
	<g>
		<path class="st2" d="M29.3,432.9l-5.3-2.4c-11.2-2-31.1-0.3-31.1-0.3c11,10.2,33.1,8.1,35.7,4.6C29.4,433.8,29.3,432.9,29.3,432.9
			z"/>
		<path class="st2" d="M46.7,370.7l0.4,7.3c0,0,24.4-12.2,29.2-28.3C76.3,349.7,53.6,359.4,46.7,370.7z"/>
	</g>
	<path class="st1" d="M46.5,372.1l-6.2,2.8c0,0-0.1,1.1,0.9,2.3c3.1,4,28.9,6.4,41.6-5.4C82.8,371.8,59.6,369.8,46.5,372.1z"/>
	<path class="st0" d="M55,337.4c0,0-13.5,23.6-14.1,35.8c0,0-0.2,2.1,0.4,3c0.7,1.3,2.3,1.9,2.6,1.4C47,373.1,61.2,351.7,55,337.4z"
		/>
	<g>
		<path class="st2" d="M24.3,401.9c0,0,0.2,0,0.6,0.1C24.5,401.9,24.3,401.9,24.3,401.9z"/>
		<path class="st2" d="M34,402.8l-0.2,57.7c0.1,0,0.2,0,0.3,0c2.6,0,5.2-0.1,7.8-0.3l0-22.8l0-29.3c0,0,1.5,0.4,1.5-6.2
			C43.5,401.9,39.1,402.8,34,402.8z"/>
	</g>
	<g>
		<path class="st0" d="M24.9,402c1.4,0.3,5,0.8,9,0.8C29.8,402.8,26.3,402.2,24.9,402z"/>
		<path class="st0" d="M24.9,402c-0.4-0.1-0.6-0.1-0.6-0.1c0,5.7,1.5,6.4,1.5,6.4l0,28.8v23.1c2.6,0.2,5.3,0.4,7.9,0.4l0.2-57.7
			C29.9,402.8,26.3,402.2,24.9,402z"/>
	</g>
	<path class="st2" d="M41.9,395v-53.1c0,0,1.5,0.6,1.5-5.4c0,0-4.9,0.8-9.5,0.8l-0.2,63.9c5.1,0,9.7-0.9,9.7-0.9
		C43.5,394.6,41.9,395,41.9,395z"/>
	<path class="st0" d="M24.3,336.5c0,5.1,1.5,5.5,1.5,5.5l0.8,26.1V395c0,0-2.4-0.8-2.4,5.4c0,0,4.4,0.9,9.4,0.9l0.2-63.9
		C29.3,337.3,24.3,336.5,24.3,336.5z"/>
	<path class="st2" d="M41.9,331.1v-45.9c-2.6-0.2-5.2-0.3-7.8-0.3c-0.1,0-0.1,0-0.2,0l-0.2,51.3c5.8,0,9.7-0.8,9.7-0.8
		C43.5,330.4,41.9,331.1,41.9,331.1z"/>
	<path class="st0" d="M25.7,285.3v45.8c0,0-1.6-1.1-1.6,4.3c0,0,3.9,0.8,9.7,0.8l0.2-51.3C31.2,284.9,28.4,285,25.7,285.3z"/>
</g>
<g>
	<path class="st0" d="M162.4,398c3.8,12.6,22.8,22.1,22.8,22.1l0.3-5.7C180.1,405.6,162.4,398,162.4,398z"/>
	<path class="st1" d="M190.1,416.4c-0.5-9.6-11-28-11-28c-4.9,11.2,6.2,27.9,8.7,31.4c0.3,0.4,1.5-0.1,2.1-1.1
		C190.2,418,190.1,416.4,190.1,416.4z"/>
	<path class="st2" d="M190.1,417.7l-4.9-2.2c-10.2-1.8-28.3-0.3-28.3-0.3c10,9.2,30.1,7.3,32.5,4.2
		C190.1,418.5,190.1,417.7,190.1,417.7z"/>
	<path class="st1" d="M159.1,503.6c4.1,13.8,25.1,24.3,25.1,24.3l0.3-6.3C178.5,511.9,159.1,503.6,159.1,503.6z"/>
	<path class="st0" d="M187,523.2c-0.5-10.6-12.1-30.8-12.1-30.8c-5.3,12.3,6.8,30.7,9.5,34.5c0.3,0.5,1.6-0.1,2.3-1.2
		C187.1,525,187,523.2,187,523.2z"/>
	<g>
		<path class="st2" d="M190,526l-5.3-2.4c-11.2-2-31.1-0.3-31.1-0.3c11,10.2,33.1,8.1,35.7,4.6C190.1,527,190,526,190,526z"/>
		<path class="st2" d="M207.4,463.8l0.4,7.3c0,0,24.4-12.2,29.2-28.3C237,442.8,214.3,452.6,207.4,463.8z"/>
	</g>
	<path class="st1" d="M207.2,465.3l-6.2,2.8c0,0-0.1,1.1,0.9,2.3c3.1,4,28.9,6.4,41.6-5.4C243.5,465,220.3,463,207.2,465.3z"/>
	<path class="st0" d="M215.7,430.5c0,0-13.5,23.6-14.1,35.8c0,0-0.2,2.1,0.4,3c0.7,1.3,2.3,1.9,2.6,1.4
		C207.7,466.3,221.9,444.9,215.7,430.5z"/>
	<g>
		<path class="st2" d="M185,495.1c0,0,0.2,0,0.6,0.1C185.2,495.1,185,495.1,185,495.1z"/>
		<path class="st2" d="M194.7,496l-0.2,57.7c0.1,0,0.2,0,0.3,0c2.6,0,5.2-0.1,7.8-0.3l0-22.8l0-29.3c0,0,1.5,0.4,1.5-6.2
			C204.2,495.1,199.8,496,194.7,496z"/>
	</g>
	<g>
		<path class="st0" d="M185.6,495.2c1.4,0.3,5,0.8,9,0.8C190.5,496,187,495.4,185.6,495.2z"/>
		<path class="st0" d="M185.6,495.2c-0.4-0.1-0.6-0.1-0.6-0.1c0,5.7,1.5,6.4,1.5,6.4l0,28.8v23.1c2.6,0.2,5.3,0.4,7.9,0.4l0.2-57.7
			C190.6,496,187,495.4,185.6,495.2z"/>
	</g>
	<path class="st2" d="M202.6,488.2V435c0,0,1.5,0.6,1.5-5.4c0,0-4.9,0.8-9.5,0.8l-0.2,63.9c5.1,0,9.7-0.9,9.7-0.9
		C204.2,487.7,202.6,488.2,202.6,488.2z"/>
	<path class="st0" d="M185,429.7c0,5.1,1.5,5.5,1.5,5.5l0.8,26.1v26.9c0,0-2.4-0.8-2.4,5.4c0,0,4.4,0.9,9.4,0.9l0.2-63.9
		C190,430.5,185,429.7,185,429.7z"/>
	<path class="st2" d="M202.6,424.3v-45.9c-2.6-0.2-5.2-0.3-7.8-0.3c-0.1,0-0.1,0-0.2,0l-0.2,51.3c5.8,0,9.7-0.8,9.7-0.8
		C204.2,423.6,202.6,424.3,202.6,424.3z"/>
	<path class="st0" d="M186.4,378.4v45.8c0,0-1.6-1.1-1.6,4.3c0,0,3.9,0.8,9.7,0.8l0.2-51.3C191.9,378,189.1,378.2,186.4,378.4z"/>
</g>
<g>
	<path class="st0" d="M-103.2,451.6c0.3,8.3,10.4,17.2,10.4,17.2l1.1-3.4C-93.6,459.1-103.2,451.6-103.2,451.6z"/>
	<path class="st1" d="M-89.2,467.4c1.3-6-2.2-18.9-2.2-18.9c-4.8,6.1-0.7,18.1,0.2,20.6c0.1,0.3,0.9,0.2,1.4-0.3
		C-89.4,468.4-89.2,467.4-89.2,467.4z"/>
	<path class="st2" d="M-89.5,468.2l-2.6-2.1c-6-2.8-17.3-4.7-17.3-4.7c4.6,7.3,17.3,9.3,19.3,7.8C-89.6,468.7-89.5,468.2-89.5,468.2
		z"/>
	<path class="st1" d="M-122.3,515.8c0.3,9.1,11.5,18.9,11.5,18.9l1.2-3.8C-111.7,524.1-122.3,515.8-122.3,515.8z"/>
	<path class="st0" d="M-108.4,532.4c1.4-6.6-2.4-20.8-2.4-20.8c-5.3,6.7-0.8,19.9,0.3,22.7c0.1,0.3,1,0.2,1.6-0.4
		C-108.6,533.5-108.4,532.4-108.4,532.4z"/>
	<g>
		<path class="st2" d="M-107,534.6l-2.9-2.3c-6.5-3-19-5.2-19-5.2c5.1,8,19,10.3,21.2,8.6C-107.1,535.2-107,534.6-107,534.6z"/>
		<path class="st2" d="M-86.3,499.3l-1,4.5c0,0,16.9-3.6,22.5-12.6C-64.8,491.2-80.2,493.5-86.3,499.3z"/>
	</g>
	<path class="st1" d="M-86.7,500.1l-4.3,0.7c0,0-0.2,0.6,0.2,1.5c1.3,2.9,16.7,8.6,26.4,3.4C-64.4,505.8-78.3,500.8-86.7,500.1z"/>
	<path class="st0" d="M-75.9,480.2c0,0-12.1,12.3-14.4,19.7c0,0-0.4,1.2-0.3,1.9c0.3,0.9,1.1,1.5,1.4,1.3
		C-86.5,500.8-74.4,490-75.9,480.2z"/>
	<g>
		<path class="st2" d="M-105,514.8c0,0,0.1,0.1,0.3,0.2C-104.9,514.8-105,514.8-105,514.8z"/>
		<path class="st2" d="M-99.3,516.9l-9.4,35.4c0.1,0,0.1,0,0.2,0.1c1.6,0.4,3.2,0.8,4.8,1l3.7-14l4.7-18c0,0,0.9,0.5,2-3.6
			C-93.3,517.9-96.1,517.7-99.3,516.9z"/>
	</g>
	<g>
		<path class="st0" d="M-104.7,514.9c0.8,0.4,2.9,1.3,5.4,2C-101.8,516.2-103.9,515.3-104.7,514.9z"/>
		<path class="st0" d="M-104.7,514.9c-0.2-0.1-0.3-0.2-0.3-0.2c-0.9,3.5-0.1,4.2-0.1,4.2l-4.6,17.7l-3.7,14.2
			c1.6,0.6,3.2,1.1,4.8,1.5l9.4-35.4C-101.8,516.3-103.9,515.3-104.7,514.9z"/>
	</g>
	<path class="st2" d="M-93.2,513.4l8.6-32.6c0,0,0.8,0.6,1.8-3c0,0-3.1-0.3-6-1l-10.4,39.2c3.1,0.8,6.1,1,6.1,1
		C-92.1,513.4-93.2,513.4-93.2,513.4z"/>
	<path class="st0" d="M-94.5,474.7c-0.8,3.1,0.1,3.6,0.1,3.6l-3.7,16.1l-4.3,16.5c0,0-1.3-0.9-2.3,2.9c0,0,2.5,1.3,5.6,2.1
		l10.4-39.2C-91.6,476-94.5,474.7-94.5,474.7z"/>
	<path class="st2" d="M-82.9,474.2l7.4-28.1c-1.5-0.6-3.1-1-4.7-1.5c0,0-0.1,0-0.1,0l-8.4,31.4c3.6,0.9,6.1,1.1,6.1,1.1
		C-81.8,474-82.9,474.2-82.9,474.2z"/>
	<path class="st0" d="M-85.4,443.5l-7.4,28.1c0,0-0.8-0.9-1.7,2.4c0,0,2.2,1.1,5.8,2l8.4-31.4C-82,444.2-83.7,443.8-85.4,443.5z"/>
</g>
<g>
	<path class="st0" d="M-22.5,542.3c3.5,7.9,16.8,12.4,16.8,12.4L-6,551C-10.3,545.8-22.5,542.3-22.5,542.3z"/>
	<path class="st1" d="M-2.8,551.9c-1.1-6.2-9.6-17.3-9.6-17.3c-2.2,7.7,6.5,17.7,8.4,19.7c0.2,0.2,1-0.2,1.2-0.9
		C-2.6,553-2.8,551.9-2.8,551.9z"/>
	<path class="st2" d="M-2.7,552.8l-3.4-1c-6.8-0.3-18.5,2.3-18.5,2.3c7.3,5.2,20.2,2.2,21.6-0.1C-2.6,553.3-2.7,552.8-2.7,552.8z"/>
	<path class="st1" d="M-15.5,611.5c3.9,8.6,18.5,13.7,18.5,13.7L2.6,621C-2.1,615.2-15.5,611.5-15.5,611.5z"/>
	<path class="st0" d="M4.4,621.9c-1.2-6.8-10.5-19-10.5-19c-2.4,8.5,7.1,19.4,9.2,21.7c0.2,0.3,1-0.2,1.4-1
		C4.6,623.1,4.4,621.9,4.4,621.9z"/>
	<g>
		<path class="st2" d="M6.6,623.5l-3.7-1.1c-7.5-0.3-20.3,2.5-20.3,2.5c8,5.7,22.3,2.4,23.7-0.1C6.7,624.1,6.6,623.5,6.6,623.5z"/>
		<path class="st2" d="M12.6,581.4l0.9,4.7c0,0,14.9-10.1,16.6-21C30,565.1,16.1,573.4,12.6,581.4z"/>
	</g>
	<path class="st1" d="M12.5,582.4l-3.8,2.3c0,0,0,0.7,0.8,1.4c2.4,2.3,19.4,1.7,26.7-7.1C36.2,579,20.9,579.7,12.5,582.4z"/>
	<path class="st0" d="M15.1,559c0,0-6.8,16.5-6.1,24.6c0,0,0.1,1.4,0.5,1.9c0.6,0.8,1.6,1,1.8,0.7C12.9,583,20.4,567.8,15.1,559z"/>
	<g>
		<path class="st2" d="M0.7,603.7c0,0,0.1,0,0.4,0C0.8,603.7,0.7,603.7,0.7,603.7z"/>
		<path class="st2" d="M7,603.5l4.9,37.7c0.1,0,0.1,0,0.2,0c1.7-0.2,3.4-0.5,5-0.9l-2-14.9l-2.5-19.1c0,0,1,0.1,0.5-4.2
			C13.1,602,10.4,603,7,603.5z"/>
	</g>
	<g>
		<path class="st0" d="M1.1,603.7c0.9,0,3.3,0.1,6-0.2C4.3,603.8,2,603.8,1.1,603.7z"/>
		<path class="st0" d="M1.1,603.7c-0.3,0-0.4,0-0.4,0c0.5,3.7,1.6,4,1.6,4l2.5,18.8l2,15.1c1.7-0.1,3.5-0.2,5.2-0.4L7,603.5
			C4.4,603.8,2,603.8,1.1,603.7z"/>
	</g>
	<path class="st2" d="M11.5,597.7L6.9,563c0,0,1.1,0.3,0.5-3.6c0,0-3.1,1-6.1,1.4l5.4,41.7C10.1,602,13,601,13,601
		C12.5,597.3,11.5,597.7,11.5,597.7z"/>
	<path class="st0" d="M-5,561.1c0.4,3.3,1.5,3.5,1.5,3.5l2.8,17L1.6,599c0,0-1.6-0.3-1.1,3.7c0,0,2.9,0.2,6.2-0.2l-5.4-41.7
		C-1.7,561.2-5,561.1-5,561.1z"/>
	<path class="st2" d="M6,556l-4-29.9c-1.7,0.1-3.4,0.2-5.1,0.4c0,0-0.1,0-0.1,0L1.1,560c3.8-0.5,6.3-1.3,6.3-1.3
		C7,555.4,6,556,6,556z"/>
	<path class="st0" d="M-8.5,527.5l4,29.9c0,0-1.1-0.6-0.7,2.9c0,0,2.6,0.2,6.4-0.3l-4.3-33.5C-5,526.8-6.8,527.1-8.5,527.5z"/>
</g>
<g>
	<path class="st0" d="M139.6,410.6c3.4,11.2,20.3,19.7,20.3,19.7l0.3-5.1C155.4,417.4,139.6,410.6,139.6,410.6z"/>
	<path class="st1" d="M164.3,427c-0.4-8.6-9.8-24.9-9.8-24.9c-4.3,10,5.6,24.9,7.7,28c0.3,0.4,1.3-0.1,1.8-0.9
		C164.4,428.4,164.3,427,164.3,427z"/>
	<path class="st2" d="M164.3,428.2l-4.3-1.9c-9.1-1.6-25.2-0.3-25.2-0.3c8.9,8.2,26.8,6.5,29,3.8
		C164.3,428.9,164.3,428.2,164.3,428.2z"/>
	<path class="st1" d="M136.6,504.7c3.7,12.3,22.3,21.6,22.3,21.6l0.3-5.6C154,512.2,136.6,504.7,136.6,504.7z"/>
	<path class="st0" d="M161.5,522.3c-0.4-9.4-10.8-27.4-10.8-27.4c-4.8,11,6.1,27.4,8.5,30.7c0.3,0.4,1.4-0.1,2-1
		C161.6,523.8,161.5,522.3,161.5,522.3z"/>
	<g>
		<path class="st2" d="M164.2,524.7l-4.8-2.1c-10-1.8-27.7-0.3-27.7-0.3c9.8,9.1,29.5,7.2,31.9,4.1
			C164.3,525.6,164.2,524.7,164.2,524.7z"/>
		<path class="st2" d="M179.7,469.3l0.3,6.5c0,0,21.7-10.9,26-25.2C206.1,450.6,185.9,459.3,179.7,469.3z"/>
	</g>
	<path class="st1" d="M179.5,470.6l-5.5,2.5c0,0-0.1,1,0.8,2c2.8,3.6,25.7,5.7,37.1-4.8C211.9,470.3,191.2,468.5,179.5,470.6z"/>
	<path class="st0" d="M187.1,439.6c0,0-12,21-12.6,31.9c0,0-0.1,1.8,0.3,2.7c0.7,1.1,2,1.7,2.3,1.2
		C180,471.5,192.6,452.4,187.1,439.6z"/>
	<g>
		<path class="st2" d="M159.8,497.1c0,0,0.2,0,0.5,0.1C160,497.2,159.8,497.1,159.8,497.1z"/>
		<path class="st2" d="M168.3,498l-0.1,51.4c0.1,0,0.2,0,0.3,0c2.3,0,4.7-0.1,6.9-0.3l0-20.3l0-26.1c0,0,1.4,0.4,1.4-5.6
			C176.8,497.1,173,498,168.3,498z"/>
	</g>
	<g>
		<path class="st0" d="M160.3,497.2c1.2,0.2,4.4,0.7,8.1,0.7C164.7,498,161.5,497.5,160.3,497.2z"/>
		<path class="st0" d="M160.3,497.2c-0.3-0.1-0.5-0.1-0.5-0.1c0,5.1,1.4,5.7,1.4,5.7l0,25.7v20.6c2.3,0.2,4.7,0.3,7.1,0.3l0.1-51.4
			C164.7,498,161.5,497.5,160.3,497.2z"/>
	</g>
	<path class="st2" d="M175.4,491v-47.4c0,0,1.4,0.6,1.4-4.8c0,0-4.3,0.8-8.5,0.8l-0.2,57c4.5,0,8.6-0.8,8.6-0.8
		C176.8,490.6,175.4,491,175.4,491z"/>
	<path class="st0" d="M159.8,438.9c0,4.6,1.4,4.9,1.4,4.9l0.7,23.3V491c0,0-2.1-0.7-2.1,4.8c0,0,3.9,0.8,8.4,0.8l0.2-57
		C164.2,439.6,159.8,438.9,159.8,438.9z"/>
	<path class="st2" d="M175.4,434.1v-40.9c-2.3-0.2-4.6-0.3-6.9-0.3c-0.1,0-0.1,0-0.2,0l-0.2,45.7c5.2,0,8.6-0.7,8.6-0.7
		C176.8,433.4,175.4,434.1,175.4,434.1z"/>
	<path class="st0" d="M161,393.2v40.8c0,0-1.4-0.9-1.4,3.8c0,0,3.4,0.7,8.6,0.7l0.2-45.7C165.8,392.9,163.4,393,161,393.2z"/>
</g>
<g>
	<path class="st0" d="M36.3,340c3.4,11.2,20.3,19.7,20.3,19.7l0.3-5.1C52,346.8,36.3,340,36.3,340z"/>
	<path class="st1" d="M60.9,356.4c-0.4-8.6-9.8-24.9-9.8-24.9c-4.3,10,5.6,24.9,7.7,28c0.3,0.4,1.3-0.1,1.8-0.9
		C61,357.8,60.9,356.4,60.9,356.4z"/>
	<path class="st2" d="M60.9,357.6l-4.3-1.9c-9.1-1.6-25.2-0.3-25.2-0.3c8.9,8.2,26.8,6.5,29,3.8C61,358.3,60.9,357.6,60.9,357.6z"/>
	<path class="st1" d="M33.3,434.1c3.7,12.3,22.3,21.6,22.3,21.6l0.3-5.6C50.6,441.5,33.3,434.1,33.3,434.1z"/>
	<path class="st0" d="M58.1,451.6c-0.4-9.4-10.8-27.4-10.8-27.4c-4.8,11,6.1,27.4,8.5,30.7c0.3,0.4,1.4-0.1,2-1
		C58.3,453.2,58.1,451.6,58.1,451.6z"/>
	<g>
		<path class="st2" d="M60.8,454.1l-4.8-2.1c-10-1.8-27.7-0.3-27.7-0.3c9.8,9.1,29.5,7.2,31.9,4.1C60.9,454.9,60.8,454.1,60.8,454.1
			z"/>
		<path class="st2" d="M76.4,398.7l0.3,6.5c0,0,21.7-10.9,26-25.2C102.7,380,82.5,388.6,76.4,398.7z"/>
	</g>
	<path class="st1" d="M76.2,400l-5.5,2.5c0,0-0.1,1,0.8,2c2.8,3.6,25.7,5.7,37.1-4.8C108.5,399.7,87.8,397.9,76.2,400z"/>
	<path class="st0" d="M83.7,369c0,0-12,21-12.6,31.9c0,0-0.1,1.8,0.3,2.7c0.7,1.1,2,1.7,2.3,1.2C76.6,400.9,89.2,381.8,83.7,369z"/>
	<g>
		<path class="st2" d="M56.4,426.5c0,0,0.2,0,0.5,0.1C56.6,426.6,56.4,426.5,56.4,426.5z"/>
		<path class="st2" d="M65,427.4l-0.1,51.4c0.1,0,0.2,0,0.3,0c2.3,0,4.7-0.1,6.9-0.3l0-20.3l0-26.1c0,0,1.4,0.4,1.4-5.6
			C73.4,426.5,69.6,427.4,65,427.4z"/>
	</g>
	<g>
		<path class="st0" d="M56.9,426.6c1.2,0.2,4.4,0.7,8.1,0.7C61.3,427.3,58.1,426.8,56.9,426.6z"/>
		<path class="st0" d="M56.9,426.6c-0.3-0.1-0.5-0.1-0.5-0.1c0,5.1,1.4,5.7,1.4,5.7l0,25.7v20.6c2.3,0.2,4.7,0.3,7.1,0.3l0.1-51.4
			C61.4,427.4,58.1,426.8,56.9,426.6z"/>
	</g>
	<path class="st2" d="M72.1,420.4V373c0,0,1.4,0.6,1.4-4.8c0,0-4.3,0.8-8.5,0.8l-0.2,57c4.5,0,8.6-0.8,8.6-0.8
		C73.4,420,72.1,420.4,72.1,420.4z"/>
	<path class="st0" d="M56.4,368.3c0,4.6,1.4,4.9,1.4,4.9l0.7,23.3v23.9c0,0-2.1-0.7-2.1,4.8c0,0,3.9,0.8,8.4,0.8l0.2-57
		C60.8,369,56.4,368.3,56.4,368.3z"/>
	<path class="st2" d="M72.1,363.5v-40.9c-2.3-0.2-4.6-0.3-6.9-0.3c-0.1,0-0.1,0-0.2,0l-0.2,45.7c5.2,0,8.6-0.7,8.6-0.7
		C73.4,362.8,72.1,363.5,72.1,363.5z"/>
	<path class="st0" d="M57.6,322.6v40.8c0,0-1.4-0.9-1.4,3.8c0,0,3.4,0.7,8.6,0.7l0.2-45.7C62.5,322.3,60,322.4,57.6,322.6z"/>
</g>
<g>
	<path class="st0" d="M163.6,412.6c3.4,11.2,20.3,19.7,20.3,19.7l0.3-5.1C179.4,419.4,163.6,412.6,163.6,412.6z"/>
	<path class="st1" d="M188.3,429c-0.4-8.6-9.8-24.9-9.8-24.9c-4.3,10,5.6,24.9,7.7,28c0.3,0.4,1.3-0.1,1.8-0.9
		C188.4,430.4,188.3,429,188.3,429z"/>
	<path class="st2" d="M188.3,430.2l-4.3-1.9c-9.1-1.6-25.2-0.3-25.2-0.3c8.9,8.2,26.8,6.5,29,3.8
		C188.3,430.9,188.3,430.2,188.3,430.2z"/>
	<path class="st1" d="M160.6,506.7c3.7,12.3,22.3,21.6,22.3,21.6l0.3-5.6C178,514.2,160.6,506.7,160.6,506.7z"/>
	<path class="st0" d="M185.5,524.3c-0.4-9.4-10.8-27.4-10.8-27.4c-4.8,11,6.1,27.4,8.5,30.7c0.3,0.4,1.4-0.1,2-1
		C185.6,525.8,185.5,524.3,185.5,524.3z"/>
	<g>
		<path class="st2" d="M188.2,526.7l-4.8-2.1c-10-1.8-27.7-0.3-27.7-0.3c9.8,9.1,29.5,7.2,31.9,4.1
			C188.3,527.6,188.2,526.7,188.2,526.7z"/>
		<path class="st2" d="M203.7,471.3l0.3,6.5c0,0,21.7-10.9,26-25.2C230.1,452.6,209.9,461.3,203.7,471.3z"/>
	</g>
	<path class="st1" d="M203.5,472.6l-5.5,2.5c0,0-0.1,1,0.8,2c2.8,3.6,25.7,5.7,37.1-4.8C235.9,472.3,215.2,470.5,203.5,472.6z"/>
	<path class="st0" d="M211.1,441.6c0,0-12,21-12.6,31.9c0,0-0.1,1.8,0.3,2.7c0.7,1.1,2,1.7,2.3,1.2
		C204,473.5,216.6,454.4,211.1,441.6z"/>
	<g>
		<path class="st2" d="M183.8,499.1c0,0,0.2,0,0.5,0.1C184,499.2,183.8,499.1,183.8,499.1z"/>
		<path class="st2" d="M192.3,500l-0.1,51.4c0.1,0,0.2,0,0.3,0c2.3,0,4.7-0.1,6.9-0.3l0-20.3l0-26.1c0,0,1.4,0.4,1.4-5.6
			C200.8,499.1,197,500,192.3,500z"/>
	</g>
	<g>
		<path class="st0" d="M184.3,499.2c1.2,0.2,4.4,0.7,8.1,0.7C188.7,500,185.5,499.5,184.3,499.2z"/>
		<path class="st0" d="M184.3,499.2c-0.3-0.1-0.5-0.1-0.5-0.1c0,5.1,1.4,5.7,1.4,5.7l0,25.7v20.6c2.3,0.2,4.7,0.3,7.1,0.3l0.1-51.4
			C188.7,500,185.5,499.5,184.3,499.2z"/>
	</g>
	<path class="st2" d="M199.4,493v-47.4c0,0,1.4,0.6,1.4-4.8c0,0-4.3,0.8-8.5,0.8l-0.2,57c4.5,0,8.6-0.8,8.6-0.8
		C200.8,492.6,199.4,493,199.4,493z"/>
	<path class="st0" d="M183.8,440.9c0,4.6,1.4,4.9,1.4,4.9l0.7,23.3V493c0,0-2.1-0.7-2.1,4.8c0,0,3.9,0.8,8.4,0.8l0.2-57
		C188.2,441.6,183.8,440.9,183.8,440.9z"/>
	<path class="st2" d="M199.4,436.1v-40.9c-2.3-0.2-4.6-0.3-6.9-0.3c-0.1,0-0.1,0-0.2,0l-0.2,45.7c5.2,0,8.6-0.7,8.6-0.7
		C200.8,435.4,199.4,436.1,199.4,436.1z"/>
	<path class="st0" d="M185,395.2v40.8c0,0-1.4-0.9-1.4,3.8c0,0,3.4,0.7,8.6,0.7l0.2-45.7C189.8,394.9,187.4,395,185,395.2z"/>
</g>
<g>
	<path class="st0" d="M111.4,452.2c3.5,7.9,16.8,12.4,16.8,12.4l-0.3-3.7C123.6,455.6,111.4,452.2,111.4,452.2z"/>
	<path class="st1" d="M131,461.8c-1.1-6.2-9.6-17.3-9.6-17.3c-2.2,7.7,6.5,17.7,8.4,19.7c0.2,0.2,1-0.2,1.2-0.9
		C131.2,462.8,131,461.8,131,461.8z"/>
	<path class="st2" d="M131.1,462.7l-3.4-1c-6.8-0.3-18.5,2.3-18.5,2.3c7.3,5.2,20.2,2.2,21.6-0.1
		C131.2,463.2,131.1,462.7,131.1,462.7z"/>
	<path class="st1" d="M118.3,521.3c3.9,8.6,18.5,13.7,18.5,13.7l-0.3-4.1C131.7,525.1,118.3,521.3,118.3,521.3z"/>
	<path class="st0" d="M138.2,531.8c-1.2-6.8-10.5-19-10.5-19c-2.4,8.5,7.1,19.4,9.2,21.7c0.2,0.3,1-0.2,1.4-1
		C138.5,532.9,138.2,531.8,138.2,531.8z"/>
	<g>
		<path class="st2" d="M140.4,533.3l-3.7-1.1c-7.5-0.3-20.3,2.5-20.3,2.5c8,5.7,22.3,2.4,23.7-0.1
			C140.6,533.9,140.4,533.3,140.4,533.3z"/>
		<path class="st2" d="M146.4,491.3l0.9,4.7c0,0,14.9-10.1,16.6-21C163.9,475,149.9,483.3,146.4,491.3z"/>
	</g>
	<path class="st1" d="M146.4,492.2l-3.8,2.3c0,0,0,0.7,0.8,1.4c2.4,2.3,19.4,1.7,26.7-7.1C170,488.9,154.7,489.6,146.4,492.2z"/>
	<path class="st0" d="M148.9,468.8c0,0-6.8,16.5-6.1,24.6c0,0,0.1,1.4,0.5,1.9c0.6,0.8,1.6,1,1.8,0.7
		C146.8,492.8,154.2,477.6,148.9,468.8z"/>
	<g>
		<path class="st2" d="M134.5,513.5c0,0,0.1,0,0.4,0C134.6,513.6,134.5,513.5,134.5,513.5z"/>
		<path class="st2" d="M140.9,513.3l4.9,37.7c0.1,0,0.1,0,0.2,0c1.7-0.2,3.4-0.5,5-0.9l-2-14.9l-2.5-19.1c0,0,1,0.1,0.5-4.2
			C147,511.9,144.2,512.9,140.9,513.3z"/>
	</g>
	<g>
		<path class="st0" d="M134.9,513.6c0.9,0,3.3,0.1,6-0.2C138.2,513.7,135.8,513.6,134.9,513.6z"/>
		<path class="st0" d="M134.9,513.6c-0.3,0-0.4,0-0.4,0c0.5,3.7,1.6,4,1.6,4l2.5,18.8l2,15.1c1.7-0.1,3.5-0.2,5.2-0.4l-4.9-37.7
			C138.2,513.7,135.8,513.6,134.9,513.6z"/>
	</g>
	<path class="st2" d="M145.4,507.5l-4.6-34.7c0,0,1.1,0.3,0.5-3.6c0,0-3.1,1-6.1,1.4l5.4,41.7c3.3-0.4,6.2-1.4,6.2-1.4
		C146.3,507.1,145.4,507.5,145.4,507.5z"/>
	<path class="st0" d="M128.9,470.9c0.4,3.3,1.5,3.5,1.5,3.5l2.8,17l2.3,17.5c0,0-1.6-0.3-1.1,3.7c0,0,2.9,0.2,6.2-0.2l-5.4-41.7
		C132.2,471,128.9,470.9,128.9,470.9z"/>
	<path class="st2" d="M139.9,465.9l-4-29.9c-1.7,0.1-3.4,0.2-5.1,0.4c0,0-0.1,0-0.1,0l4.3,33.5c3.8-0.5,6.3-1.3,6.3-1.3
		C140.8,465.3,139.9,465.9,139.9,465.9z"/>
	<path class="st0" d="M125.3,437.4l4,29.9c0,0-1.1-0.6-0.7,2.9c0,0,2.6,0.2,6.4-0.3l-4.3-33.5C128.8,436.6,127.1,437,125.3,437.4z"
		/>
</g>
<g>
	<path class="st0" d="M-19.5,370.2c3.5,7.9,16.8,12.4,16.8,12.4l-0.3-3.7C-7.3,373.7-19.5,370.2-19.5,370.2z"/>
	<path class="st1" d="M0.1,379.8c-1.1-6.2-9.6-17.3-9.6-17.3c-2.2,7.7,6.5,17.7,8.4,19.7c0.2,0.2,1-0.2,1.2-0.9
		C0.3,380.9,0.1,379.8,0.1,379.8z"/>
	<path class="st2" d="M0.2,380.7l-3.4-1c-6.8-0.3-18.5,2.3-18.5,2.3c7.3,5.2,20.2,2.2,21.6-0.1C0.3,381.2,0.2,380.7,0.2,380.7z"/>
	<path class="st1" d="M-12.6,439.4c3.9,8.6,18.5,13.7,18.5,13.7l-0.3-4.1C0.8,443.1-12.6,439.4-12.6,439.4z"/>
	<path class="st0" d="M7.3,449.8c-1.2-6.8-10.5-19-10.5-19c-2.4,8.5,7.1,19.4,9.2,21.7c0.2,0.3,1-0.2,1.4-1
		C7.5,451,7.3,449.8,7.3,449.8z"/>
	<g>
		<path class="st2" d="M9.5,451.4l-3.7-1.1c-7.5-0.3-20.3,2.5-20.3,2.5c8,5.7,22.3,2.4,23.7-0.1C9.7,452,9.5,451.4,9.5,451.4z"/>
		<path class="st2" d="M15.5,409.3l0.9,4.7c0,0,14.9-10.1,16.6-21C33,393,19,401.3,15.5,409.3z"/>
	</g>
	<path class="st1" d="M15.5,410.3l-3.8,2.3c0,0,0,0.7,0.8,1.4c2.4,2.3,19.4,1.7,26.7-7.1C39.1,406.9,23.8,407.6,15.5,410.3z"/>
	<path class="st0" d="M18,386.9c0,0-6.8,16.5-6.1,24.6c0,0,0.1,1.4,0.5,1.9c0.6,0.8,1.6,1,1.8,0.7C15.9,410.9,23.3,395.7,18,386.9z"
		/>
	<g>
		<path class="st2" d="M3.6,431.6c0,0,0.1,0,0.4,0C3.7,431.6,3.6,431.6,3.6,431.6z"/>
		<path class="st2" d="M10,431.4l4.9,37.7c0.1,0,0.1,0,0.2,0c1.7-0.2,3.4-0.5,5-0.9l-2-14.9l-2.5-19.1c0,0,1,0.1,0.5-4.2
			C16.1,429.9,13.3,430.9,10,431.4z"/>
	</g>
	<g>
		<path class="st0" d="M4,431.6c0.9,0,3.3,0.1,6-0.2C7.3,431.7,4.9,431.7,4,431.6z"/>
		<path class="st0" d="M4,431.6c-0.3,0-0.4,0-0.4,0c0.5,3.7,1.6,4,1.6,4l2.5,18.8l2,15.1c1.7-0.1,3.5-0.2,5.2-0.4L10,431.4
			C7.3,431.7,4.9,431.7,4,431.6z"/>
	</g>
	<path class="st2" d="M14.5,425.6l-4.6-34.7c0,0,1.1,0.3,0.5-3.6c0,0-3.1,1-6.1,1.4l5.4,41.7c3.3-0.4,6.2-1.4,6.2-1.4
		C15.4,425.2,14.5,425.6,14.5,425.6z"/>
	<path class="st0" d="M-2.1,389c0.4,3.3,1.5,3.5,1.5,3.5l2.8,17l2.3,17.5c0,0-1.6-0.3-1.1,3.7c0,0,2.9,0.2,6.2-0.2l-5.4-41.7
		C1.3,389.1-2.1,389-2.1,389z"/>
	<path class="st2" d="M8.9,383.9L5,354c-1.7,0.1-3.4,0.2-5.1,0.4c0,0-0.1,0-0.1,0l4.3,33.5c3.8-0.5,6.3-1.3,6.3-1.3
		C9.9,383.3,8.9,383.9,8.9,383.9z"/>
	<path class="st0" d="M-5.6,355.4l4,29.9c0,0-1.1-0.6-0.7,2.9c0,0,2.6,0.2,6.4-0.3l-4.3-33.5C-2.1,354.7-3.9,355-5.6,355.4z"/>
</g>
<g>
	<path class="st0" d="M54.9,541.2c0.3,8.3,10.4,17.2,10.4,17.2l1.1-3.4C64.6,548.7,54.9,541.2,54.9,541.2z"/>
	<path class="st1" d="M68.9,557c1.3-6-2.2-18.9-2.2-18.9c-4.8,6.1-0.7,18.1,0.2,20.6c0.1,0.3,0.9,0.2,1.4-0.3
		C68.7,558,68.9,557,68.9,557z"/>
	<path class="st2" d="M68.7,557.8l-2.6-2.1c-6-2.8-17.3-4.7-17.3-4.7c4.6,7.3,17.3,9.3,19.3,7.8C68.6,558.3,68.7,557.8,68.7,557.8z"
		/>
	<path class="st1" d="M35.8,605.4c0.3,9.1,11.5,18.9,11.5,18.9l1.2-3.8C46.4,613.7,35.8,605.4,35.8,605.4z"/>
	<path class="st0" d="M49.8,622c1.4-6.6-2.4-20.8-2.4-20.8c-5.3,6.7-0.8,19.9,0.3,22.7c0.1,0.3,1,0.2,1.6-0.4
		C49.6,623.1,49.8,622,49.8,622z"/>
	<g>
		<path class="st2" d="M51.2,624.2l-2.9-2.3c-6.5-3-19-5.2-19-5.2c5.1,8,19,10.3,21.2,8.6C51.1,624.8,51.2,624.2,51.2,624.2z"/>
		<path class="st2" d="M71.9,588.9l-1,4.5c0,0,16.9-3.6,22.5-12.6C93.4,580.8,77.9,583.1,71.9,588.9z"/>
	</g>
	<path class="st1" d="M71.5,589.7l-4.3,0.7c0,0-0.2,0.6,0.2,1.5c1.3,2.9,16.7,8.6,26.4,3.4C93.8,595.4,79.9,590.4,71.5,589.7z"/>
	<path class="st0" d="M82.3,569.8c0,0-12.1,12.3-14.4,19.7c0,0-0.4,1.2-0.3,1.9c0.3,0.9,1.1,1.5,1.4,1.3
		C71.7,590.4,83.8,579.6,82.3,569.8z"/>
	<g>
		<path class="st2" d="M53.1,604.4c0,0,0.1,0.1,0.3,0.2C53.2,604.5,53.1,604.4,53.1,604.4z"/>
		<path class="st2" d="M58.9,606.5l-9.4,35.4c0.1,0,0.1,0,0.2,0.1c1.6,0.4,3.2,0.8,4.8,1l3.7-14l4.7-18c0,0,0.9,0.5,2-3.6
			C64.8,607.5,62,607.4,58.9,606.5z"/>
	</g>
	<g>
		<path class="st0" d="M53.5,604.6c0.8,0.4,2.9,1.3,5.4,2C56.3,605.8,54.3,604.9,53.5,604.6z"/>
		<path class="st0" d="M53.5,604.6c-0.2-0.1-0.3-0.2-0.3-0.2c-0.9,3.5-0.1,4.2-0.1,4.2l-4.6,17.7l-3.7,14.2c1.6,0.6,3.2,1.1,4.8,1.5
			l9.4-35.4C56.4,605.9,54.3,604.9,53.5,604.6z"/>
	</g>
	<path class="st2" d="M65,603l8.6-32.6c0,0,0.8,0.6,1.8-3c0,0-3.1-0.3-6-1L59,605.5c3.1,0.8,6.1,1,6.1,1C66,603,65,603,65,603z"/>
	<path class="st0" d="M63.7,564.3c-0.8,3.1,0.1,3.6,0.1,3.6L60,584.1l-4.3,16.5c0,0-1.3-0.9-2.3,2.9c0,0,2.5,1.3,5.6,2.1l10.4-39.2
		C66.6,565.6,63.7,564.3,63.7,564.3z"/>
	<path class="st2" d="M75.3,563.8l7.4-28.1c-1.5-0.6-3.1-1-4.7-1.5c0,0-0.1,0-0.1,0l-8.4,31.4c3.6,0.9,6.1,1.1,6.1,1.1
		C76.4,563.7,75.3,563.8,75.3,563.8z"/>
	<path class="st0" d="M72.8,533.1l-7.4,28.1c0,0-0.8-0.9-1.7,2.4c0,0,2.2,1.1,5.8,2l8.4-31.4C76.2,533.8,74.5,533.4,72.8,533.1z"/>
</g>
<g>
	<path class="st0" d="M-77.6,450c0.3,8.3,10.4,17.2,10.4,17.2l1.1-3.4C-67.9,457.5-77.6,450-77.6,450z"/>
	<path class="st1" d="M-63.6,465.7c1.3-6-2.2-18.9-2.2-18.9c-4.8,6.1-0.7,18.1,0.2,20.6c0.1,0.3,0.9,0.2,1.4-0.3
		C-63.8,466.8-63.6,465.7-63.6,465.7z"/>
	<path class="st2" d="M-63.8,466.6l-2.6-2.1c-6-2.8-17.3-4.7-17.3-4.7c4.6,7.3,17.3,9.3,19.3,7.8C-63.9,467.1-63.8,466.6-63.8,466.6
		z"/>
	<path class="st1" d="M-96.6,514.2c0.3,9.1,11.5,18.9,11.5,18.9l1.2-3.8C-86.1,522.5-96.6,514.2-96.6,514.2z"/>
	<path class="st0" d="M-82.7,530.8c1.4-6.6-2.4-20.8-2.4-20.8c-5.3,6.7-0.8,19.9,0.3,22.7c0.1,0.3,1,0.2,1.6-0.4
		C-82.9,531.9-82.7,530.8-82.7,530.8z"/>
	<g>
		<path class="st2" d="M-81.3,533l-2.9-2.3c-6.5-3-19-5.2-19-5.2c5.1,8,19,10.3,21.2,8.6C-81.4,533.5-81.3,533-81.3,533z"/>
		<path class="st2" d="M-60.6,497.6l-1,4.5c0,0,16.9-3.6,22.5-12.6C-39.1,489.5-54.5,491.8-60.6,497.6z"/>
	</g>
	<path class="st1" d="M-61,498.5l-4.3,0.7c0,0-0.2,0.6,0.2,1.5c1.3,2.9,16.7,8.6,26.4,3.4C-38.7,504.1-52.6,499.2-61,498.5z"/>
	<path class="st0" d="M-50.2,478.6c0,0-12.1,12.3-14.4,19.7c0,0-0.4,1.2-0.3,1.9c0.3,0.9,1.1,1.5,1.4,1.3
		C-60.8,499.2-48.7,488.4-50.2,478.6z"/>
	<g>
		<path class="st2" d="M-79.4,513.2c0,0,0.1,0.1,0.3,0.2C-79.2,513.2-79.4,513.2-79.4,513.2z"/>
		<path class="st2" d="M-73.6,515.3l-9.4,35.4c0.1,0,0.1,0,0.2,0.1c1.6,0.4,3.2,0.8,4.8,1l3.7-14l4.7-18c0,0,0.9,0.5,2-3.6
			C-67.6,516.3-70.5,516.1-73.6,515.3z"/>
	</g>
	<g>
		<path class="st0" d="M-79,513.3c0.8,0.4,2.9,1.3,5.4,2C-76.1,514.6-78.2,513.7-79,513.3z"/>
		<path class="st0" d="M-79,513.3c-0.2-0.1-0.3-0.2-0.3-0.2c-0.9,3.5-0.1,4.2-0.1,4.2l-4.6,17.7l-3.7,14.2c1.6,0.6,3.2,1.1,4.8,1.5
			l9.4-35.4C-76.1,514.6-78.2,513.7-79,513.3z"/>
	</g>
	<path class="st2" d="M-67.5,511.8l8.6-32.6c0,0,0.8,0.6,1.8-3c0,0-3.1-0.3-6-1l-10.4,39.2c3.1,0.8,6.1,1,6.1,1
		C-66.5,511.8-67.5,511.8-67.5,511.8z"/>
	<path class="st0" d="M-68.8,473.1c-0.8,3.1,0.1,3.6,0.1,3.6l-3.7,16.1l-4.3,16.5c0,0-1.3-0.9-2.3,2.9c0,0,2.5,1.3,5.6,2.1
		l10.4-39.2C-65.9,474.4-68.8,473.1-68.8,473.1z"/>
	<path class="st2" d="M-57.2,472.6l7.4-28.1c-1.5-0.6-3.1-1-4.7-1.5c0,0-0.1,0-0.1,0l-8.4,31.4c3.6,0.9,6.1,1.1,6.1,1.1
		C-56.1,472.4-57.2,472.6-57.2,472.6z"/>
	<path class="st0" d="M-59.7,441.9l-7.4,28.1c0,0-0.8-0.9-1.7,2.4c0,0,2.2,1.1,5.8,2l8.4-31.4C-56.3,442.5-58,442.2-59.7,441.9z"/>
</g>
<g>
	<path class="st0" d="M-85.7,451c3.5,7.9,16.8,12.4,16.8,12.4l-0.3-3.7C-73.5,454.4-85.7,451-85.7,451z"/>
	<path class="st1" d="M-66.1,460.6c-1.1-6.2-9.6-17.3-9.6-17.3c-2.2,7.7,6.5,17.7,8.4,19.7c0.2,0.2,1-0.2,1.2-0.9
		C-65.9,461.6-66.1,460.6-66.1,460.6z"/>
	<path class="st2" d="M-66,461.4l-3.4-1c-6.8-0.3-18.5,2.3-18.5,2.3c7.3,5.2,20.2,2.2,21.6-0.1C-65.9,462-66,461.4-66,461.4z"/>
	<path class="st1" d="M-78.8,520.1c3.9,8.6,18.5,13.7,18.5,13.7l-0.3-4.1C-65.4,523.9-78.8,520.1-78.8,520.1z"/>
	<path class="st0" d="M-58.9,530.5c-1.2-6.8-10.5-19-10.5-19c-2.4,8.5,7.1,19.4,9.2,21.7c0.2,0.3,1-0.2,1.4-1
		C-58.7,531.7-58.9,530.5-58.9,530.5z"/>
	<g>
		<path class="st2" d="M-56.7,532.1l-3.7-1.1c-7.5-0.3-20.3,2.5-20.3,2.5c8,5.7,22.3,2.4,23.7-0.1
			C-56.5,532.7-56.7,532.1-56.7,532.1z"/>
		<path class="st2" d="M-50.7,490l0.9,4.7c0,0,14.9-10.1,16.6-21C-33.2,473.8-47.2,482.1-50.7,490z"/>
	</g>
	<path class="st1" d="M-50.7,491l-3.8,2.3c0,0,0,0.7,0.8,1.4c2.4,2.3,19.4,1.7,26.7-7.1C-27.1,487.7-42.4,488.4-50.7,491z"/>
	<path class="st0" d="M-48.2,467.6c0,0-6.8,16.5-6.1,24.6c0,0,0.1,1.4,0.5,1.9c0.6,0.8,1.6,1,1.8,0.7
		C-50.3,491.6-42.9,476.4-48.2,467.6z"/>
	<g>
		<path class="st2" d="M-62.6,512.3c0,0,0.1,0,0.4,0C-62.5,512.3-62.6,512.3-62.6,512.3z"/>
		<path class="st2" d="M-56.2,512.1l4.9,37.7c0.1,0,0.1,0,0.2,0c1.7-0.2,3.4-0.5,5-0.9l-2-14.9l-2.5-19.1c0,0,1,0.1,0.5-4.2
			C-50.1,510.7-52.9,511.7-56.2,512.1z"/>
	</g>
	<g>
		<path class="st0" d="M-62.2,512.4c0.9,0,3.3,0.1,6-0.2C-58.9,512.5-61.3,512.4-62.2,512.4z"/>
		<path class="st0" d="M-62.2,512.4c-0.3,0-0.4,0-0.4,0c0.5,3.7,1.6,4,1.6,4l2.5,18.8l2,15.1c1.7-0.1,3.5-0.2,5.2-0.4l-4.9-37.7
			C-58.9,512.5-61.3,512.4-62.2,512.4z"/>
	</g>
	<path class="st2" d="M-51.7,506.3l-4.6-34.7c0,0,1.1,0.3,0.5-3.6c0,0-3.1,1-6.1,1.4l5.4,41.7c3.3-0.4,6.2-1.4,6.2-1.4
		C-50.8,505.9-51.7,506.3-51.7,506.3z"/>
	<path class="st0" d="M-68.3,469.7c0.4,3.3,1.5,3.5,1.5,3.5l2.8,17l2.3,17.5c0,0-1.6-0.3-1.1,3.7c0,0,2.9,0.2,6.2-0.2l-5.4-41.7
		C-64.9,469.8-68.3,469.7-68.3,469.7z"/>
	<path class="st2" d="M-57.3,464.7l-4-29.9c-1.7,0.1-3.4,0.2-5.1,0.4c0,0-0.1,0-0.1,0l4.3,33.5c3.8-0.5,6.3-1.3,6.3-1.3
		C-56.3,464.1-57.3,464.7-57.3,464.7z"/>
	<path class="st0" d="M-71.8,436.2l4,29.9c0,0-1.1-0.6-0.7,2.9c0,0,2.6,0.2,6.4-0.3l-4.3-33.5C-68.3,435.4-70.1,435.8-71.8,436.2z"
		/>
</g>
<g>
	<path class="st0" d="M18.8,385.8c1.8,6,10.9,10.6,10.9,10.6l0.1-2.7C27.3,389.4,18.8,385.8,18.8,385.8z"/>
	<path class="st1" d="M32.1,394.6c-0.2-4.6-5.3-13.4-5.3-13.4c-2.3,5.4,3,13.4,4.2,15c0.1,0.2,0.7,0,1-0.5
		C32.1,395.4,32.1,394.6,32.1,394.6z"/>
	<path class="st2" d="M32.1,395.2l-2.3-1c-4.9-0.9-13.6-0.1-13.6-0.1c4.8,4.4,14.4,3.5,15.6,2C32.1,395.6,32.1,395.2,32.1,395.2z"/>
	<path class="st1" d="M17.2,436.4c2,6.6,12,11.6,12,11.6l0.2-3C26.5,440.4,17.2,436.4,17.2,436.4z"/>
	<path class="st0" d="M30.6,445.8c-0.2-5.1-5.8-14.8-5.8-14.8c-2.6,5.9,3.3,14.7,4.6,16.5c0.2,0.2,0.8,0,1.1-0.6
		C30.7,446.7,30.6,445.8,30.6,445.8z"/>
	<g>
		<path class="st2" d="M32,447.2l-2.6-1.1c-5.4-1-14.9-0.1-14.9-0.1c5.3,4.9,15.8,3.9,17.1,2.2C32.1,447.6,32,447.2,32,447.2z"/>
		<path class="st2" d="M40.4,417.4l0.2,3.5c0,0,11.7-5.9,14-13.6C54.6,407.3,43.7,411.9,40.4,417.4z"/>
	</g>
	<path class="st1" d="M40.3,418.1l-3,1.3c0,0-0.1,0.5,0.4,1.1c1.5,1.9,13.8,3.1,20-2.6C57.7,417.9,46.5,416.9,40.3,418.1z"/>
	<path class="st0" d="M44.3,401.4c0,0-6.5,11.3-6.8,17.2c0,0-0.1,1,0.2,1.4c0.4,0.6,1.1,0.9,1.3,0.7
		C40.5,418.5,47.3,408.3,44.3,401.4z"/>
	<g>
		<path class="st2" d="M29.7,432.3c0,0,0.1,0,0.3,0.1C29.8,432.3,29.7,432.3,29.7,432.3z"/>
		<path class="st2" d="M34.3,432.8l-0.1,27.7c0.1,0,0.1,0,0.2,0c1.3,0,2.5-0.1,3.7-0.2l0-10.9l0-14c0,0,0.7,0.2,0.7-3
			C38.8,432.3,36.7,432.8,34.3,432.8z"/>
	</g>
	<g>
		<path class="st0" d="M29.9,432.4c0.7,0.1,2.4,0.4,4.3,0.4C32.3,432.8,30.6,432.5,29.9,432.4z"/>
		<path class="st0" d="M29.9,432.4c-0.2,0-0.3-0.1-0.3-0.1c0,2.7,0.7,3.1,0.7,3.1l0,13.8v11.1c1.3,0.1,2.5,0.2,3.8,0.2l0.1-27.7
			C32.3,432.8,30.6,432.5,29.9,432.4z"/>
	</g>
	<path class="st2" d="M38.1,429v-25.5c0,0,0.7,0.3,0.7-2.6c0,0-2.3,0.4-4.6,0.4L34.2,432c2.4,0,4.6-0.4,4.6-0.4
		C38.8,428.8,38.1,429,38.1,429z"/>
	<path class="st0" d="M29.7,401c0,2.5,0.7,2.6,0.7,2.6l0.4,12.5V429c0,0-1.1-0.4-1.1,2.6c0,0,2.1,0.4,4.5,0.4l0.1-30.6
		C32,401.4,29.7,401,29.7,401z"/>
	<path class="st2" d="M38.1,398.4v-22c-1.2-0.1-2.5-0.2-3.7-0.2c0,0-0.1,0-0.1,0l-0.1,24.6c2.8,0,4.6-0.4,4.6-0.4
		C38.8,398,38.1,398.4,38.1,398.4z"/>
	<path class="st0" d="M30.3,376.4v22c0,0-0.8-0.5-0.8,2c0,0,1.9,0.4,4.6,0.4l0.1-24.6C32.9,376.2,31.6,376.3,30.3,376.4z"/>
</g>
</svg>
