<?xml version="1.0" encoding="utf-8"?>
<!-- Generator: Adobe Illustrator 19.0.1, SVG Export Plug-In . SVG Version: 6.00 Build 0)  -->
<svg version="1.1" id="bamboo" xmlns="http://www.w3.org/2000/svg" xmlns:xlink="http://www.w3.org/1999/xlink" x="0px" y="0px"
	 viewBox="0 0 50 50" style="enable-background:new 0 0 50 50;" xml:space="preserve">
<style type="text/css">
	.st0{fill:#608C13;}
	.st1{fill:#6FA519;}
	.st2{fill:#5E9B0E;}
</style>
<g>
	<path class="st0" d="M24.2,6.8c1,3.3,6,5.8,6,5.8l0.1-1.5C28.9,8.8,24.2,6.8,24.2,6.8z"/>
	<path class="st1" d="M31.5,11.7c-0.1-2.5-2.9-7.4-2.9-7.4c-1.3,3,1.6,7.4,2.3,8.3c0.1,0.1,0.4,0,0.5-0.3
		C31.5,12.1,31.5,11.7,31.5,11.7z"/>
	<path class="st2" d="M31.5,12l-1.3-0.6c-2.7-0.5-7.5-0.1-7.5-0.1c2.6,2.4,7.9,1.9,8.6,1.1C31.5,12.3,31.5,12,31.5,12z"/>
	<path class="st1" d="M23.3,34.7c1.1,3.6,6.6,6.4,6.6,6.4l0.1-1.7C28.4,36.9,23.3,34.7,23.3,34.7z"/>
	<path class="st0" d="M30.7,39.9c-0.1-2.8-3.2-8.1-3.2-8.1c-1.4,3.3,1.8,8.1,2.5,9.1c0.1,0.1,0.4,0,0.6-0.3
		C30.7,40.4,30.7,39.9,30.7,39.9z"/>
	<g>
		<path class="st2" d="M31.5,40.6L30,40c-3-0.5-8.2-0.1-8.2-0.1c2.9,2.7,8.7,2.1,9.4,1.2C31.5,40.9,31.5,40.6,31.5,40.6z"/>
		<path class="st2" d="M36.1,24.2l0.1,1.9c0,0,6.4-3.2,7.7-7.5C43.9,18.7,37.9,21.2,36.1,24.2z"/>
	</g>
	<path class="st1" d="M36,24.6l-1.6,0.7c0,0,0,0.3,0.2,0.6c0.8,1.1,7.6,1.7,11-1.4C45.6,24.5,39.4,24,36,24.6z"/>
	<path class="st0" d="M38.2,15.4c0,0-3.6,6.2-3.7,9.5c0,0,0,0.5,0.1,0.8c0.2,0.3,0.6,0.5,0.7,0.4C36.1,24.9,39.9,19.2,38.2,15.4z"/>
	<g>
		<path class="st2" d="M30.1,32.4c0,0,0.1,0,0.2,0C30.2,32.5,30.1,32.4,30.1,32.4z"/>
		<path class="st2" d="M32.7,32.7l0,15.2c0,0,0.1,0,0.1,0c0.7,0,1.4,0,2.1-0.1l0-6l0-7.7c0,0,0.4,0.1,0.4-1.6
			C35.2,32.4,34,32.7,32.7,32.7z"/>
	</g>
	<g>
		<path class="st0" d="M30.3,32.5c0.4,0.1,1.3,0.2,2.4,0.2C31.6,32.7,30.7,32.5,30.3,32.5z"/>
		<path class="st0" d="M30.3,32.5c-0.1,0-0.2,0-0.2,0c0,1.5,0.4,1.7,0.4,1.7l0,7.6v6.1c0.7,0.1,1.4,0.1,2.1,0.1l0-15.2
			C31.6,32.7,30.7,32.5,30.3,32.5z"/>
	</g>
	<path class="st2" d="M34.8,30.6v-14c0,0,0.4,0.2,0.4-1.4c0,0-1.3,0.2-2.5,0.2l0,16.9c1.3,0,2.6-0.2,2.6-0.2
		C35.2,30.5,34.8,30.6,34.8,30.6z"/>
	<path class="st0" d="M30.1,15.2c0,1.4,0.4,1.5,0.4,1.5l0.2,6.9v7.1c0,0-0.6-0.2-0.6,1.4c0,0,1.1,0.2,2.5,0.2l0-16.9
		C31.5,15.4,30.1,15.2,30.1,15.2z"/>
	<path class="st2" d="M34.8,13.8V1.7c-0.7-0.1-1.4-0.1-2.1-0.1c0,0,0,0,0,0l0,13.5c1.5,0,2.6-0.2,2.6-0.2
		C35.2,13.6,34.8,13.8,34.8,13.8z"/>
	<path class="st0" d="M30.5,1.7v12.1c0,0-0.4-0.3-0.4,1.1c0,0,1,0.2,2.6,0.2l0-13.5C31.9,1.6,31.2,1.6,30.5,1.7z"/>
</g>
<g>
	<path class="st0" d="M4.8,25.2c1,1.8,4.3,2.6,4.3,2.6L8.9,27C7.8,25.8,4.8,25.2,4.8,25.2z"/>
	<path class="st1" d="M9.7,27.1c-0.4-1.5-2.6-4-2.6-4c-0.4,1.9,1.9,4.1,2.4,4.6c0.1,0.1,0.2-0.1,0.3-0.2C9.8,27.4,9.7,27.1,9.7,27.1
		z"/>
	<path class="st2" d="M9.7,27.4l-0.8-0.2c-1.6,0.1-4.4,0.9-4.4,0.9c1.9,1.1,4.9,0.1,5.2-0.4C9.8,27.5,9.7,27.4,9.7,27.4z"/>
	<path class="st1" d="M7.8,41.7c1.1,2,4.7,2.9,4.7,2.9l-0.2-1C11.1,42.3,7.8,41.7,7.8,41.7z"/>
	<path class="st0" d="M12.8,43.8c-0.4-1.6-2.9-4.3-2.9-4.3c-0.4,2.1,2.1,4.5,2.6,5c0.1,0.1,0.2-0.1,0.3-0.3
		C12.9,44,12.8,43.8,12.8,43.8z"/>
	<g>
		<path class="st2" d="M13.4,44.1l-0.9-0.2c-1.8,0.1-4.8,1-4.8,1c2,1.2,5.4,0.1,5.7-0.5C13.4,44.2,13.4,44.1,13.4,44.1z"/>
		<path class="st2" d="M14,33.9l0.3,1.1c0,0,3.4-2.7,3.6-5.4C17.8,29.7,14.6,31.9,14,33.9z"/>
	</g>
	<path class="st1" d="M14,34.1l-0.9,0.6c0,0,0,0.2,0.2,0.3c0.6,0.5,4.7,0,6.3-2.2C19.6,32.9,15.9,33.3,14,34.1z"/>
	<path class="st0" d="M14.1,28.5c0,0-1.3,4.1-1,6c0,0,0,0.3,0.2,0.4c0.2,0.2,0.4,0.2,0.5,0.1C14.1,34.3,15.6,30.5,14.1,28.5z"/>
	<g>
		<path class="st2" d="M11.5,39.5C11.5,39.5,11.6,39.5,11.5,39.5C11.6,39.5,11.5,39.5,11.5,39.5z"/>
		<path class="st2" d="M13.1,39.3l1.9,8.9c0,0,0,0,0.1,0c0.4-0.1,0.8-0.2,1.2-0.3l-0.8-3.5l-1-4.5c0,0,0.3,0,0-1
			C14.5,38.8,13.9,39.1,13.1,39.3z"/>
	</g>
	<g>
		<path class="st0" d="M11.6,39.5c0.2,0,0.8,0,1.4-0.2C12.4,39.4,11.9,39.5,11.6,39.5z"/>
		<path class="st0" d="M11.6,39.5C11.6,39.5,11.5,39.5,11.6,39.5c0.1,0.9,0.4,0.9,0.4,0.9l1,4.4l0.8,3.6c0.4-0.1,0.8-0.1,1.2-0.2
			l-1.9-8.9C12.4,39.4,11.9,39.5,11.6,39.5z"/>
	</g>
	<path class="st2" d="M14,37.8l-1.8-8.2c0,0,0.3,0,0.1-0.9c0,0-0.7,0.3-1.4,0.5l2.1,9.9c0.8-0.2,1.5-0.5,1.5-0.5
		C14.3,37.7,14,37.8,14,37.8z"/>
	<path class="st0" d="M9.4,29.4c0.2,0.8,0.4,0.8,0.4,0.8l1,4l0.9,4.2c0,0-0.4,0-0.2,0.9c0,0,0.7,0,1.5-0.2l-2.1-9.9
		C10.1,29.3,9.4,29.4,9.4,29.4z"/>
	<path class="st2" d="M11.9,27.9l-1.5-7.1c-0.4,0.1-0.8,0.1-1.2,0.2c0,0,0,0,0,0l1.7,7.9c0.9-0.2,1.5-0.4,1.5-0.4
		C12.1,27.8,11.9,27.9,11.9,27.9z"/>
	<path class="st0" d="M7.8,21.4l1.5,7.1c0,0-0.3-0.1-0.1,0.7c0,0,0.6,0,1.5-0.2l-1.7-7.9C8.7,21.2,8.3,21.3,7.8,21.4z"/>
</g>
<g>
	<path class="st0" d="M14.6,14c0.6,2.7,4.5,5.1,4.5,5.1l0.2-1.2C18.3,16,14.6,14,14.6,14z"/>
	<path class="st1" d="M20.2,18.4c0.1-2.1-1.9-6.1-1.9-6.1c-1.2,2.3,0.9,6.1,1.3,6.8c0.1,0.1,0.3,0,0.5-0.2
		C20.2,18.8,20.2,18.4,20.2,18.4z"/>
	<path class="st2" d="M20.2,18.7l-1-0.5c-2.1-0.6-6-0.5-6-0.5c2,2.1,6.3,2.1,6.9,1.4C20.2,18.9,20.2,18.7,20.2,18.7z"/>
	<path class="st1" d="M12.2,36.5c0.7,3,4.9,5.6,4.9,5.6l0.2-1.3C16.2,38.6,12.2,36.5,12.2,36.5z"/>
	<path class="st0" d="M17.8,41.1c0.1-2.3-2.1-6.8-2.1-6.8c-1.3,2.5,1,6.7,1.5,7.5c0.1,0.1,0.3,0,0.5-0.2
		C17.8,41.5,17.8,41.1,17.8,41.1z"/>
	<g>
		<path class="st2" d="M18.4,41.8l-1.1-0.6c-2.4-0.6-6.6-0.6-6.6-0.6c2.2,2.3,6.9,2.3,7.5,1.6C18.4,42,18.4,41.8,18.4,41.8z"/>
		<path class="st2" d="M23.1,28.8l0,1.6c0,0,5.4-2.2,6.7-5.5C29.8,24.8,24.8,26.5,23.1,28.8z"/>
	</g>
	<path class="st1" d="M23,29.1l-1.4,0.5c0,0,0,0.2,0.1,0.5c0.6,0.9,6,1.8,9-0.5C30.8,29.6,25.9,28.8,23,29.1z"/>
	<path class="st0" d="M25.4,21.8c0,0-3.3,4.8-3.6,7.4c0,0-0.1,0.4,0,0.6c0.1,0.3,0.4,0.4,0.5,0.3C23.1,29.3,26.5,25,25.4,21.8z"/>
	<g>
		<path class="st2" d="M17.8,35.1c0,0,0,0,0.1,0C17.9,35.1,17.8,35.1,17.8,35.1z"/>
		<path class="st2" d="M19.9,35.4l-1,12.3c0,0,0,0,0.1,0c0.6,0,1.1,0.1,1.7,0.1l0.4-4.9l0.5-6.2c0,0,0.3,0.1,0.4-1.3
			C21.9,35.4,21,35.5,19.9,35.4z"/>
	</g>
	<g>
		<path class="st0" d="M18,35.1c0.3,0.1,1,0.3,1.9,0.3C19,35.4,18.2,35.2,18,35.1z"/>
		<path class="st0" d="M18,35.1c-0.1,0-0.1,0-0.1,0c-0.1,1.2,0.2,1.4,0.2,1.4l-0.5,6.1l-0.4,4.9c0.6,0.1,1.1,0.2,1.7,0.2l1-12.3
			C19,35.4,18.3,35.2,18,35.1z"/>
	</g>
	<path class="st2" d="M21.7,33.9l0.9-11.3c0,0,0.3,0.2,0.4-1.1c0,0-1,0.1-2,0l-1.1,13.6c1.1,0.1,2.1,0,2.1,0
		C22,33.8,21.7,33.9,21.7,33.9z"/>
	<path class="st0" d="M18.9,21.2c-0.1,1.1,0.2,1.2,0.2,1.2l-0.3,5.6l-0.4,5.7c0,0-0.5-0.2-0.6,1.1c0,0,0.9,0.3,2,0.3l1.1-13.6
		C20,21.4,18.9,21.2,18.9,21.2z"/>
	<path class="st2" d="M22.7,20.3l0.7-9.8c-0.5-0.1-1.1-0.2-1.7-0.2c0,0,0,0,0,0l-0.9,10.9c1.2,0.1,2.1,0,2.1,0
		C23.1,20.2,22.7,20.3,22.7,20.3z"/>
	<path class="st0" d="M20,10.3L19.3,20c0,0-0.3-0.3-0.4,0.9c0,0,0.8,0.2,2,0.3l0.9-10.9C21.2,10.3,20.6,10.3,20,10.3z"/>
</g>
</svg>
