<?xml version="1.0" encoding="utf-8"?>
<!-- Generator: Adobe Illustrator 19.0.1, SVG Export Plug-In . SVG Version: 6.00 Build 0)  -->
<svg version="1.1" id="bamboo_x5F_grow" xmlns="http://www.w3.org/2000/svg" xmlns:xlink="http://www.w3.org/1999/xlink" x="0px"
	 y="0px" viewBox="-223 225 512 512" style="enable-background:new -223 225 512 512;" xml:space="preserve">
<style type="text/css">
	.st0{fill:#608C13;}
	.st1{fill:#6FA519;}
	.st2{fill:#5E9B0E;}
</style>
<g>
	<path class="st0" d="M18.5,570.9c1.8,6,10.9,10.6,10.9,10.6l0.1-2.7C27,574.6,18.5,570.9,18.5,570.9z"/>
	<path class="st1" d="M31.8,579.7c-0.2-4.6-5.3-13.4-5.3-13.4c-2.3,5.4,3,13.4,4.2,15c0.1,0.2,0.7,0,1-0.5
		C31.9,580.5,31.8,579.7,31.8,579.7z"/>
	<path class="st2" d="M31.8,580.4l-2.3-1c-4.9-0.9-13.6-0.1-13.6-0.1c4.8,4.4,14.4,3.5,15.6,2C31.8,580.8,31.8,580.4,31.8,580.4z"/>
	<path class="st1" d="M16.9,621.5c2,6.6,12,11.6,12,11.6l0.2-3C26.3,625.5,16.9,621.5,16.9,621.5z"/>
	<path class="st0" d="M30.3,631c-0.2-5.1-5.8-14.8-5.8-14.8c-2.6,5.9,3.3,14.7,4.6,16.5c0.2,0.2,0.8,0,1.1-0.6
		C30.4,631.8,30.3,631,30.3,631z"/>
	<g>
		<path class="st2" d="M31.8,632.3l-2.6-1.1c-5.4-1-14.9-0.1-14.9-0.1c5.3,4.9,15.8,3.9,17.1,2.2C31.8,632.8,31.8,632.3,31.8,632.3z
			"/>
		<path class="st2" d="M40.1,602.5l0.2,3.5c0,0,11.7-5.9,14-13.6C54.3,592.4,43.4,597.1,40.1,602.5z"/>
	</g>
	<path class="st1" d="M40,603.2l-3,1.3c0,0-0.1,0.5,0.4,1.1c1.5,1.9,13.8,3.1,20-2.6C57.4,603,46.3,602.1,40,603.2z"/>
	<path class="st0" d="M44.1,586.5c0,0-6.5,11.3-6.8,17.2c0,0-0.1,1,0.2,1.4c0.4,0.6,1.1,0.9,1.3,0.7
		C40.2,603.7,47.1,593.4,44.1,586.5z"/>
	<g>
		<path class="st2" d="M29.4,617.5c0,0,0.1,0,0.3,0.1C29.5,617.5,29.4,617.5,29.4,617.5z"/>
		<path class="st2" d="M34,617.9l-0.1,27.7c0.1,0,0.1,0,0.2,0c1.3,0,2.5-0.1,3.7-0.2l0-10.9l0-14c0,0,0.7,0.2,0.7-3
			C38.6,617.5,36.5,617.9,34,617.9z"/>
	</g>
	<g>
		<path class="st0" d="M29.7,617.5c0.7,0.1,2.4,0.4,4.3,0.4C32,617.9,30.3,617.6,29.7,617.5z"/>
		<path class="st0" d="M29.7,617.5c-0.2,0-0.3-0.1-0.3-0.1c0,2.7,0.7,3.1,0.7,3.1l0,13.8v11.1c1.3,0.1,2.5,0.2,3.8,0.2l0.1-27.7
			C32.1,617.9,30.3,617.6,29.7,617.5z"/>
	</g>
	<path class="st2" d="M37.8,614.2v-25.5c0,0,0.7,0.3,0.7-2.6c0,0-2.3,0.4-4.6,0.4l-0.1,30.6c2.4,0,4.6-0.4,4.6-0.4
		C38.6,613.9,37.8,614.2,37.8,614.2z"/>
	<path class="st0" d="M29.4,586.1c0,2.5,0.7,2.6,0.7,2.6l0.4,12.5v12.9c0,0-1.1-0.4-1.1,2.6c0,0,2.1,0.4,4.5,0.4l0.1-30.6
		C31.8,586.5,29.4,586.1,29.4,586.1z"/>
	<path class="st2" d="M37.8,583.5v-22c-1.2-0.1-2.5-0.2-3.7-0.2c0,0-0.1,0-0.1,0l-0.1,24.6c2.8,0,4.6-0.4,4.6-0.4
		C38.6,583.2,37.8,583.5,37.8,583.5z"/>
	<path class="st0" d="M30,561.5v22c0,0-0.8-0.5-0.8,2c0,0,1.9,0.4,4.6,0.4l0.1-24.6C32.7,561.4,31.3,561.4,30,561.5z"/>
</g>
<g>
	<path class="st0" d="M177.6,479.1c1.8,6,10.9,10.6,10.9,10.6l0.1-2.7C186.1,482.8,177.6,479.1,177.6,479.1z"/>
	<path class="st1" d="M190.9,487.9c-0.2-4.6-5.3-13.4-5.3-13.4c-2.3,5.4,3,13.4,4.2,15c0.1,0.2,0.7,0,1-0.5
		C191,488.7,190.9,487.9,190.9,487.9z"/>
	<path class="st2" d="M190.9,488.6l-2.3-1c-4.9-0.9-13.6-0.1-13.6-0.1c4.8,4.4,14.4,3.5,15.6,2C190.9,489,190.9,488.6,190.9,488.6z"
		/>
	<path class="st1" d="M176,529.7c2,6.6,12,11.6,12,11.6l0.2-3C185.4,533.7,176,529.7,176,529.7z"/>
	<path class="st0" d="M189.4,539.2c-0.2-5.1-5.8-14.8-5.8-14.8c-2.6,5.9,3.3,14.7,4.6,16.5c0.2,0.2,0.8,0,1.1-0.6
		C189.5,540,189.4,539.2,189.4,539.2z"/>
	<g>
		<path class="st2" d="M190.9,540.5l-2.6-1.1c-5.4-1-14.9-0.1-14.9-0.1c5.3,4.9,15.8,3.9,17.1,2.2
			C190.9,541,190.9,540.5,190.9,540.5z"/>
		<path class="st2" d="M199.2,510.7l0.2,3.5c0,0,11.7-5.9,14-13.6C213.4,500.6,202.5,505.3,199.2,510.7z"/>
	</g>
	<path class="st1" d="M199.1,511.4l-3,1.3c0,0-0.1,0.5,0.4,1.1c1.5,1.9,13.8,3.1,20-2.6C216.5,511.2,205.4,510.3,199.1,511.4z"/>
	<path class="st0" d="M203.2,494.7c0,0-6.5,11.3-6.8,17.2c0,0-0.1,1,0.2,1.4c0.4,0.6,1.1,0.9,1.3,0.7
		C199.3,511.9,206.2,501.6,203.2,494.7z"/>
	<g>
		<path class="st2" d="M188.5,525.7c0,0,0.1,0,0.3,0.1C188.6,525.7,188.5,525.7,188.5,525.7z"/>
		<path class="st2" d="M193.1,526.1l-0.1,27.7c0.1,0,0.1,0,0.2,0c1.3,0,2.5-0.1,3.7-0.2l0-10.9l0-14c0,0,0.7,0.2,0.7-3
			C197.7,525.7,195.6,526.1,193.1,526.1z"/>
	</g>
	<g>
		<path class="st0" d="M188.8,525.7c0.7,0.1,2.4,0.4,4.3,0.4C191.1,526.1,189.4,525.8,188.8,525.7z"/>
		<path class="st0" d="M188.8,525.7c-0.2,0-0.3-0.1-0.3-0.1c0,2.7,0.7,3.1,0.7,3.1l0,13.8v11.1c1.3,0.1,2.5,0.2,3.8,0.2l0.1-27.7
			C191.2,526.1,189.4,525.8,188.8,525.7z"/>
	</g>
	<path class="st2" d="M196.9,522.4v-25.5c0,0,0.7,0.3,0.7-2.6c0,0-2.3,0.4-4.6,0.4l-0.1,30.6c2.4,0,4.6-0.4,4.6-0.4
		C197.7,522.2,196.9,522.4,196.9,522.4z"/>
	<path class="st0" d="M188.5,494.3c0,2.5,0.7,2.6,0.7,2.6l0.4,12.5v12.9c0,0-1.1-0.4-1.1,2.6c0,0,2.1,0.4,4.5,0.4l0.1-30.6
		C190.9,494.7,188.5,494.3,188.5,494.3z"/>
	<path class="st2" d="M196.9,491.7v-22c-1.2-0.1-2.5-0.2-3.7-0.2c0,0-0.1,0-0.1,0l-0.1,24.6c2.8,0,4.6-0.4,4.6-0.4
		C197.7,491.4,196.9,491.7,196.9,491.7z"/>
	<path class="st0" d="M189.1,469.8v22c0,0-0.8-0.5-0.8,2c0,0,1.9,0.4,4.6,0.4l0.1-24.6C191.8,469.6,190.4,469.6,189.1,469.8z"/>
</g>
<g>
	<path class="st0" d="M-144.2,478.4c1.8,6,10.9,10.6,10.9,10.6l0.1-2.7C-135.7,482-144.2,478.4-144.2,478.4z"/>
	<path class="st1" d="M-130.9,487.2c-0.2-4.6-5.3-13.4-5.3-13.4c-2.3,5.4,3,13.4,4.2,15c0.1,0.2,0.7,0,1-0.5
		C-130.9,488-130.9,487.2-130.9,487.2z"/>
	<path class="st2" d="M-131,487.8l-2.3-1c-4.9-0.9-13.6-0.1-13.6-0.1c4.8,4.4,14.4,3.5,15.6,2C-130.9,488.2-131,487.8-131,487.8z"/>
	<path class="st1" d="M-145.8,529c2,6.6,12,11.6,12,11.6l0.2-3C-136.5,533-145.8,529-145.8,529z"/>
	<path class="st0" d="M-132.4,538.5c-0.2-5.1-5.8-14.8-5.8-14.8c-2.6,5.9,3.3,14.7,4.6,16.5c0.2,0.2,0.8,0,1.1-0.6
		C-132.4,539.3-132.4,538.5-132.4,538.5z"/>
	<g>
		<path class="st2" d="M-131,539.8l-2.6-1.1c-5.4-1-14.9-0.1-14.9-0.1c5.3,4.9,15.8,3.9,17.1,2.2C-130.9,540.2-131,539.8-131,539.8z
			"/>
		<path class="st2" d="M-122.6,510l0.2,3.5c0,0,11.7-5.9,14-13.6C-108.4,499.9-119.3,504.6-122.6,510z"/>
	</g>
	<path class="st1" d="M-122.7,510.7l-3,1.3c0,0-0.1,0.5,0.4,1.1c1.5,1.9,13.8,3.1,20-2.6C-105.4,510.5-116.5,509.6-122.7,510.7z"/>
	<path class="st0" d="M-118.7,494c0,0-6.5,11.3-6.8,17.2c0,0-0.1,1,0.2,1.4c0.4,0.6,1.1,0.9,1.3,0.7
		C-122.5,511.1-115.7,500.9-118.7,494z"/>
	<g>
		<path class="st2" d="M-133.4,524.9c0,0,0.1,0,0.3,0.1C-133.3,525-133.4,524.9-133.4,524.9z"/>
		<path class="st2" d="M-128.8,525.4l-0.1,27.7c0.1,0,0.1,0,0.2,0c1.3,0,2.5-0.1,3.7-0.2l0-10.9l0-14c0,0,0.7,0.2,0.7-3
			C-124.2,524.9-126.3,525.4-128.8,525.4z"/>
	</g>
	<g>
		<path class="st0" d="M-133.1,525c0.7,0.1,2.4,0.4,4.3,0.4C-130.7,525.4-132.4,525.1-133.1,525z"/>
		<path class="st0" d="M-133.1,525c-0.2,0-0.3-0.1-0.3-0.1c0,2.7,0.7,3.1,0.7,3.1l0,13.8v11.1c1.3,0.1,2.5,0.2,3.8,0.2l0.1-27.7
			C-130.7,525.4-132.4,525.1-133.1,525z"/>
	</g>
	<path class="st2" d="M-124.9,521.6v-25.5c0,0,0.7,0.3,0.7-2.6c0,0-2.3,0.4-4.6,0.4l-0.1,30.6c2.4,0,4.6-0.4,4.6-0.4
		C-124.2,521.4-124.9,521.6-124.9,521.6z"/>
	<path class="st0" d="M-133.4,493.6c0,2.5,0.7,2.6,0.7,2.6l0.4,12.5v12.9c0,0-1.1-0.4-1.1,2.6c0,0,2.1,0.4,4.5,0.4l0.1-30.6
		C-131,494-133.4,493.6-133.4,493.6z"/>
	<path class="st2" d="M-124.9,491v-22c-1.2-0.1-2.5-0.2-3.7-0.2c0,0-0.1,0-0.1,0l-0.1,24.6c2.8,0,4.6-0.4,4.6-0.4
		C-124.2,490.7-124.9,491-124.9,491z"/>
	<path class="st0" d="M-132.7,469v22c0,0-0.8-0.5-0.8,2c0,0,1.9,0.4,4.6,0.4l0.1-24.6C-130.1,468.8-131.4,468.9-132.7,469z"/>
</g>
<g>
	<path class="st0" d="M18.1,386c1.8,6,10.9,10.6,10.9,10.6l0.1-2.7C26.6,389.6,18.1,386,18.1,386z"/>
	<path class="st1" d="M31.4,394.8c-0.2-4.6-5.3-13.4-5.3-13.4c-2.3,5.4,3,13.4,4.2,15c0.1,0.2,0.7,0,1-0.5
		C31.4,395.5,31.4,394.8,31.4,394.8z"/>
	<path class="st2" d="M31.4,395.4l-2.3-1c-4.9-0.9-13.6-0.1-13.6-0.1c4.8,4.4,14.4,3.5,15.6,2C31.4,395.8,31.4,395.4,31.4,395.4z"/>
	<path class="st1" d="M16.5,436.6c2,6.6,12,11.6,12,11.6l0.2-3C25.8,440.6,16.5,436.6,16.5,436.6z"/>
	<path class="st0" d="M29.9,446c-0.2-5.1-5.8-14.8-5.8-14.8c-2.6,5.9,3.3,14.7,4.6,16.5c0.2,0.2,0.8,0,1.1-0.6
		C29.9,446.9,29.9,446,29.9,446z"/>
	<g>
		<path class="st2" d="M31.3,447.4l-2.6-1.1c-5.4-1-14.9-0.1-14.9-0.1c5.3,4.9,15.8,3.9,17.1,2.2C31.4,447.8,31.3,447.4,31.3,447.4z
			"/>
		<path class="st2" d="M39.7,417.5l0.2,3.5c0,0,11.7-5.9,14-13.6C53.9,407.5,43,412.1,39.7,417.5z"/>
	</g>
	<path class="st1" d="M39.6,418.2l-3,1.3c0,0-0.1,0.5,0.4,1.1c1.5,1.9,13.8,3.1,20-2.6C57,418.1,45.8,417.1,39.6,418.2z"/>
	<path class="st0" d="M43.6,401.6c0,0-6.5,11.3-6.8,17.2c0,0-0.1,1,0.2,1.4c0.4,0.6,1.1,0.9,1.3,0.7
		C39.8,418.7,46.6,408.5,43.6,401.6z"/>
	<g>
		<path class="st2" d="M28.9,432.5c0,0,0.1,0,0.3,0.1C29,432.5,28.9,432.5,28.9,432.5z"/>
		<path class="st2" d="M33.6,433l-0.1,27.7c0.1,0,0.1,0,0.2,0c1.3,0,2.5-0.1,3.7-0.2l0-10.9l0-14c0,0,0.7,0.2,0.7-3
			C38.1,432.5,36,433,33.6,433z"/>
	</g>
	<g>
		<path class="st0" d="M29.2,432.6c0.7,0.1,2.4,0.4,4.3,0.4C31.6,432.9,29.9,432.7,29.2,432.6z"/>
		<path class="st0" d="M29.2,432.6c-0.2,0-0.3-0.1-0.3-0.1c0,2.7,0.7,3.1,0.7,3.1l0,13.8v11.1c1.3,0.1,2.5,0.2,3.8,0.2l0.1-27.7
			C31.6,433,29.9,432.7,29.2,432.6z"/>
	</g>
	<path class="st2" d="M37.4,429.2v-25.5c0,0,0.7,0.3,0.7-2.6c0,0-2.3,0.4-4.6,0.4l-0.1,30.6c2.4,0,4.6-0.4,4.6-0.4
		C38.1,429,37.4,429.2,37.4,429.2z"/>
	<path class="st0" d="M28.9,401.2c0,2.5,0.7,2.6,0.7,2.6l0.4,12.5v12.9c0,0-1.1-0.4-1.1,2.6c0,0,2.1,0.4,4.5,0.4l0.1-30.6
		C31.3,401.6,28.9,401.2,28.9,401.2z"/>
	<path class="st2" d="M37.4,398.6v-22c-1.2-0.1-2.5-0.2-3.7-0.2c0,0-0.1,0-0.1,0L33.5,401c2.8,0,4.6-0.4,4.6-0.4
		C38.1,398.2,37.4,398.6,37.4,398.6z"/>
	<path class="st0" d="M29.6,376.6v22c0,0-0.8-0.5-0.8,2c0,0,1.9,0.4,4.6,0.4l0.1-24.6C32.2,376.4,30.9,376.5,29.6,376.6z"/>
</g>
</svg>
