<?xml version="1.0" encoding="utf-8"?>
<!-- Generator: Adobe Illustrator 19.0.1, SVG Export Plug-In . SVG Version: 6.00 Build 0)  -->
<svg version="1.1" id="bamboo_x5F_seed" xmlns="http://www.w3.org/2000/svg" xmlns:xlink="http://www.w3.org/1999/xlink" x="0px"
	 y="0px" viewBox="-223 225 512 512" style="enable-background:new -223 225 512 512;" xml:space="preserve">
<style type="text/css">
	.st0{fill:#D6D3C5;}
	.st1{fill:#C1BFB4;}
	.st2{fill:#BCE260;}
</style>
<g>
	<path class="st0" d="M-111.4,551.2c0.5,0.6,1,1.4,0.8,1.6c-0.2,0.3-1.6-0.4-4.7-2.3c-5.2-3.3-8.8-6.1-8.8-6.1c-2.7-2-4.8-3.8-10-8
		c-1.6-1.3-7.2-5.9-14.3-12.2c-3.4-3-5-4.4-4.9-4.7c0.2-0.5,4.5,2.2,5.8,3c7.9,5.3,18.3,13.5,20.4,15.2
		C-125,539.5-115.5,547.3-111.4,551.2z"/>
	<line class="st1" x1="-139.4" y1="531" x2="-120.8" y2="545.7"/>
	<line class="st1" x1="-134.6" y1="533.9" x2="-116" y2="548.6"/>
	<line class="st1" x1="-141.9" y1="527.4" x2="-123.4" y2="542"/>
	<path class="st2" d="M-136,534.1"/>
</g>
<g>
	<path class="st0" d="M50.6,643.1c0.5,0.6,1,1.4,0.8,1.6c-0.2,0.3-1.6-0.4-4.7-2.3c-5.2-3.3-8.8-6.1-8.8-6.1c-2.7-2-4.8-3.8-10-8
		c-1.6-1.3-7.2-5.9-14.3-12.2c-3.4-3-5-4.4-4.9-4.7c0.2-0.5,4.5,2.2,5.8,3c7.9,5.3,18.3,13.5,20.4,15.2
		C37,631.4,46.5,639.1,50.6,643.1z"/>
	<line class="st1" x1="22.6" y1="622.9" x2="41.2" y2="637.5"/>
	<line class="st1" x1="27.4" y1="625.8" x2="46" y2="640.4"/>
	<line class="st1" x1="20.1" y1="619.2" x2="38.6" y2="633.9"/>
	<path class="st2" d="M26,625.9"/>
</g>
<g>
	<path class="st0" d="M215.2,550.2c0.5,0.6,1,1.4,0.8,1.6c-0.2,0.3-1.6-0.4-4.7-2.3c-5.2-3.3-8.8-6.1-8.8-6.1c-2.7-2-4.8-3.8-10-8
		c-1.6-1.3-7.2-5.9-14.3-12.2c-3.4-3-5-4.4-4.9-4.7c0.2-0.5,4.5,2.2,5.8,3c7.9,5.3,18.3,13.5,20.4,15.2
		C201.6,538.5,211.1,546.2,215.2,550.2z"/>
	<line class="st1" x1="187.2" y1="530" x2="205.8" y2="544.7"/>
	<line class="st1" x1="192" y1="532.9" x2="210.6" y2="547.6"/>
	<line class="st1" x1="184.7" y1="526.3" x2="203.3" y2="541"/>
	<path class="st2" d="M190.6,533"/>
</g>
<g>
	<path class="st0" d="M54.4,457.9c0.5,0.6,1,1.4,0.8,1.6c-0.2,0.3-1.6-0.4-4.7-2.3c-5.2-3.3-8.8-6.1-8.8-6.1c-2.7-2-4.8-3.8-10-8
		c-1.6-1.3-7.2-5.9-14.3-12.2c-3.4-3-5-4.4-4.9-4.7c0.2-0.5,4.5,2.2,5.8,3c7.9,5.3,18.3,13.5,20.4,15.2
		C40.8,446.2,50.3,454,54.4,457.9z"/>
	<line class="st1" x1="26.4" y1="437.7" x2="45" y2="452.4"/>
	<line class="st1" x1="31.2" y1="440.6" x2="49.8" y2="455.3"/>
	<line class="st1" x1="23.9" y1="434.1" x2="42.4" y2="448.7"/>
	<path class="st2" d="M29.8,440.8"/>
</g>
<g>
	<path class="st0" d="M63.3,448.6c0.5,0.6,1.1,1.3,1,1.5c-0.2,0.3-1.6-0.2-4.9-1.9c-5.5-2.8-9.4-5.2-9.4-5.2
		c-2.8-1.8-5.1-3.3-10.7-7c-1.7-1.1-7.7-5.2-15.4-10.8c-3.7-2.7-5.4-3.9-5.3-4.3c0.1-0.5,4.7,1.7,6,2.5c8.3,4.5,19.4,11.7,21.7,13.3
		C48.7,438.3,58.8,445.1,63.3,448.6z"/>
	<line class="st1" x1="33.6" y1="431.2" x2="53.4" y2="444"/>
	<line class="st1" x1="38.6" y1="433.6" x2="58.5" y2="446.4"/>
	<line class="st1" x1="30.7" y1="427.7" x2="50.6" y2="440.6"/>
	<path class="st2" d="M37.2,433.9"/>
</g>
<g>
	<path class="st0" d="M38.7,456.6c0.2,0.8,0.3,1.7,0,1.8c-0.3,0.1-1.2-1-3.2-4.2c-3.1-5.2-5.2-9.4-5.2-9.4c-1.5-3-2.6-5.5-5.3-11.6
		c-0.8-1.9-3.7-8.5-7.3-17.3c-1.7-4.2-2.4-6.2-2.2-6.4c0.4-0.4,3,3.9,3.8,5.3c4.7,8.3,10.2,20.3,11.3,22.8
		C31.9,440,36.8,451.2,38.7,456.6z"/>
	<line class="st1" x1="22.9" y1="425.9" x2="32.8" y2="447.4"/>
	<line class="st1" x1="25.9" y1="430.7" x2="35.8" y2="452.1"/>
	<line class="st1" x1="22.3" y1="421.5" x2="32.2" y2="443"/>
	<path class="st2" d="M24.5,430.2"/>
</g>
<g>
	<path class="st0" d="M52.4,440.1c0.8,0.1,1.7,0.2,1.7,0.5c0,0.4-1.4,0.9-5,1.7c-5.9,1.4-10.5,2.1-10.5,2.1
		c-3.3,0.5-6.1,0.8-12.7,1.5c-2,0.2-9.3,1-18.7,1.7c-4.5,0.3-6.7,0.4-6.8,0.2c-0.2-0.5,4.7-1.7,6.2-2c9.3-1.9,22.4-3.5,25.2-3.9
		C34.5,441.6,46.7,440.3,52.4,440.1z"/>
	<line class="st1" x1="18.4" y1="445.9" x2="41.8" y2="442.9"/>
	<line class="st1" x1="23.8" y1="444.5" x2="47.3" y2="441.5"/>
	<line class="st1" x1="14" y1="445.1" x2="37.4" y2="442.2"/>
	<path class="st2" d="M22.9,445.6"/>
</g>
<g>
	<path class="st0" d="M-99.2,542.1c0.5,0.6,1.1,1.3,1,1.5c-0.2,0.3-1.6-0.2-4.9-1.9c-5.5-2.8-9.4-5.2-9.4-5.2
		c-2.8-1.8-5.1-3.3-10.7-7c-1.7-1.1-7.7-5.2-15.4-10.8c-3.7-2.7-5.4-3.9-5.3-4.3c0.1-0.5,4.7,1.7,6,2.5c8.3,4.5,19.4,11.7,21.7,13.3
		C-113.8,531.8-103.6,538.6-99.2,542.1z"/>
	<line class="st1" x1="-128.9" y1="524.7" x2="-109" y2="537.5"/>
	<line class="st1" x1="-123.8" y1="527.1" x2="-104" y2="539.9"/>
	<line class="st1" x1="-131.8" y1="521.2" x2="-111.9" y2="534.1"/>
	<path class="st2" d="M-125.2,527.4"/>
</g>
<g>
	<path class="st0" d="M-123.7,550.1c0.2,0.8,0.3,1.7,0,1.8c-0.3,0.1-1.2-1-3.2-4.2c-3.1-5.2-5.2-9.4-5.2-9.4
		c-1.5-3-2.6-5.5-5.3-11.6c-0.8-1.9-3.7-8.5-7.3-17.3c-1.7-4.2-2.4-6.2-2.2-6.4c0.4-0.4,3,3.9,3.8,5.3c4.7,8.3,10.2,20.3,11.3,22.8
		C-130.6,533.5-125.6,544.7-123.7,550.1z"/>
	<line class="st1" x1="-139.6" y1="519.4" x2="-129.6" y2="540.9"/>
	<line class="st1" x1="-136.6" y1="524.2" x2="-126.6" y2="545.6"/>
	<line class="st1" x1="-140.2" y1="515" x2="-130.2" y2="536.5"/>
	<path class="st2" d="M-137.9,523.7"/>
</g>
<g>
	<path class="st0" d="M-110.1,533.6c0.8,0.1,1.7,0.2,1.7,0.5c0,0.4-1.4,0.9-5,1.7c-5.9,1.4-10.5,2.1-10.5,2.1
		c-3.3,0.5-6.1,0.8-12.7,1.5c-2,0.2-9.3,1-18.7,1.7c-4.5,0.3-6.7,0.4-6.8,0.2c-0.2-0.5,4.7-1.7,6.2-2c9.3-1.9,22.4-3.5,25.2-3.9
		C-128,535.1-115.8,533.8-110.1,533.6z"/>
	<line class="st1" x1="-144.1" y1="539.4" x2="-120.6" y2="536.5"/>
	<line class="st1" x1="-138.6" y1="538" x2="-115.2" y2="535"/>
	<line class="st1" x1="-148.5" y1="538.6" x2="-125" y2="535.7"/>
	<path class="st2" d="M-139.5,539.1"/>
</g>
<g>
	<path class="st0" d="M61.1,634c0.5,0.6,1.1,1.3,1,1.5c-0.2,0.3-1.6-0.2-4.9-1.9c-5.5-2.8-9.4-5.2-9.4-5.2c-2.8-1.8-5.1-3.3-10.7-7
		c-1.7-1.1-7.7-5.2-15.4-10.8c-3.7-2.7-5.4-3.9-5.3-4.3c0.1-0.5,4.7,1.7,6,2.5c8.3,4.5,19.4,11.7,21.7,13.3
		C46.4,623.6,56.6,630.4,61.1,634z"/>
	<line class="st1" x1="31.3" y1="616.5" x2="51.2" y2="629.4"/>
	<line class="st1" x1="36.4" y1="618.9" x2="56.3" y2="631.8"/>
	<line class="st1" x1="28.5" y1="613.1" x2="48.3" y2="625.9"/>
	<path class="st2" d="M35,619.2"/>
</g>
<g>
	<path class="st0" d="M36.5,641.9c0.2,0.8,0.3,1.7,0,1.8c-0.3,0.1-1.2-1-3.2-4.2c-3.1-5.2-5.2-9.4-5.2-9.4c-1.5-3-2.6-5.5-5.3-11.6
		c-0.8-1.9-3.7-8.5-7.3-17.3c-1.7-4.2-2.4-6.2-2.2-6.4c0.4-0.4,3,3.9,3.8,5.3c4.7,8.3,10.2,20.3,11.3,22.8
		C29.6,625.3,34.6,636.5,36.5,641.9z"/>
	<line class="st1" x1="20.6" y1="611.3" x2="30.6" y2="632.7"/>
	<line class="st1" x1="23.6" y1="616" x2="33.6" y2="637.5"/>
	<line class="st1" x1="20" y1="606.8" x2="30" y2="628.3"/>
	<path class="st2" d="M22.3,615.5"/>
</g>
<g>
	<path class="st0" d="M50.1,625.5c0.8,0.1,1.7,0.2,1.7,0.5c0,0.4-1.4,0.9-5,1.7c-5.9,1.4-10.5,2.1-10.5,2.1
		c-3.3,0.5-6.1,0.8-12.7,1.5c-2,0.2-9.3,1-18.7,1.7c-4.5,0.3-6.7,0.4-6.8,0.2c-0.2-0.5,4.7-1.7,6.2-2c9.3-1.9,22.4-3.5,25.2-3.9
		C32.3,626.9,44.4,625.6,50.1,625.5z"/>
	<line class="st1" x1="16.1" y1="631.2" x2="39.6" y2="628.3"/>
	<line class="st1" x1="21.6" y1="629.8" x2="45.1" y2="626.9"/>
	<line class="st1" x1="11.7" y1="630.4" x2="35.2" y2="627.5"/>
	<path class="st2" d="M20.7,630.9"/>
</g>
<g>
	<path class="st0" d="M223.1,543.9c0.5,0.6,1.1,1.3,1,1.5c-0.2,0.3-1.6-0.2-4.9-1.9c-5.5-2.8-9.4-5.2-9.4-5.2
		c-2.8-1.8-5.1-3.3-10.7-7c-1.7-1.1-7.7-5.2-15.4-10.8c-3.7-2.7-5.4-3.9-5.3-4.3c0.1-0.5,4.7,1.7,6,2.5c8.3,4.5,19.4,11.7,21.7,13.3
		C208.5,533.5,218.7,540.3,223.1,543.9z"/>
	<line class="st1" x1="193.4" y1="526.4" x2="213.2" y2="539.3"/>
	<line class="st1" x1="198.4" y1="528.8" x2="218.3" y2="541.7"/>
	<line class="st1" x1="190.5" y1="523" x2="210.4" y2="535.8"/>
	<path class="st2" d="M197.1,529.1"/>
</g>
<g>
	<path class="st0" d="M198.5,551.8c0.2,0.8,0.3,1.7,0,1.8c-0.3,0.1-1.2-1-3.2-4.2c-3.1-5.2-5.2-9.4-5.2-9.4c-1.5-3-2.6-5.5-5.3-11.6
		c-0.8-1.9-3.7-8.5-7.3-17.3c-1.7-4.2-2.4-6.2-2.2-6.4c0.4-0.4,3,3.9,3.8,5.3c4.7,8.3,10.2,20.3,11.3,22.8
		C191.7,535.2,196.7,546.4,198.5,551.8z"/>
	<line class="st1" x1="182.7" y1="521.2" x2="192.6" y2="542.6"/>
	<line class="st1" x1="185.7" y1="525.9" x2="195.6" y2="547.4"/>
	<line class="st1" x1="182.1" y1="516.7" x2="192" y2="538.2"/>
	<path class="st2" d="M184.4,525.4"/>
</g>
<g>
	<path class="st0" d="M212.2,535.4c0.8,0.1,1.7,0.2,1.7,0.5c0,0.4-1.4,0.9-5,1.7c-5.9,1.4-10.5,2.1-10.5,2.1
		c-3.3,0.5-6.1,0.8-12.7,1.5c-2,0.2-9.3,1-18.7,1.7c-4.5,0.3-6.7,0.4-6.8,0.2c-0.2-0.5,4.7-1.7,6.2-2c9.3-1.9,22.4-3.5,25.2-3.9
		C194.3,536.8,206.5,535.5,212.2,535.4z"/>
	<line class="st1" x1="178.2" y1="541.1" x2="201.7" y2="538.2"/>
	<line class="st1" x1="183.6" y1="539.7" x2="207.1" y2="536.8"/>
	<line class="st1" x1="173.8" y1="540.3" x2="197.2" y2="537.4"/>
	<path class="st2" d="M182.7,540.8"/>
</g>
</svg>
