<?xml version="1.0" encoding="utf-8"?>
<!-- Generator: Adobe Illustrator 19.0.1, SVG Export Plug-In . SVG Version: 6.00 Build 0)  -->
<svg version="1.1" id="banana_x5F_seed" xmlns="http://www.w3.org/2000/svg" xmlns:xlink="http://www.w3.org/1999/xlink" x="0px"
	 y="0px" viewBox="-223 225 512 512" style="enable-background:new -223 225 512 512;" xml:space="preserve">
<style type="text/css">
	.st0{fill:#151613;}
	.st1{fill:#151613;stroke:#D3B092;stroke-width:0.25;stroke-miterlimit:10;}
</style>
<g>
	<path class="st0" d="M33,611.6c0.1,1.4,0.3,3.5-1.1,5.1c-2.1,2.6-6.4,1.8-7,1.7c-1-0.2-3.9-0.9-7.5-5.1c-5.1-6.2-7.8-15.3-5.5-16.8
		c0.9-0.6,1.8,0.5,7.7,3c6.6,2.8,7.7,2.4,9.8,4.5C29.8,604.4,32.6,607.3,33,611.6z"/>
	<line class="st1" x1="16.4" y1="604.5" x2="25.1" y2="614.6"/>
	<line class="st1" x1="19.4" y1="603.9" x2="28.2" y2="614"/>
</g>
<g>
	<path class="st0" d="M20.7,628.8c0.1,1.4,0.3,3.5-1.1,5.1c-2.1,2.6-6.4,1.8-7,1.7c-1-0.2-3.9-0.9-7.5-5.1
		c-5.1-6.2-7.8-15.3-5.5-16.8c0.9-0.6,1.8,0.5,7.7,3c6.6,2.8,7.7,2.4,9.8,4.5C17.5,621.5,20.3,624.4,20.7,628.8z"/>
	<line class="st1" x1="4.1" y1="621.6" x2="12.8" y2="631.8"/>
	<line class="st1" x1="7.1" y1="621" x2="15.9" y2="631.1"/>
</g>
<g>
	<path class="st0" d="M67.2,626.7c0.1,1.4,0.3,3.5-1.1,5.1c-2.1,2.6-6.4,1.8-7,1.7c-1-0.2-3.9-0.9-7.5-5.1
		c-5.1-6.2-7.8-15.3-5.5-16.8c0.9-0.6,1.8,0.5,7.7,3c6.6,2.8,7.7,2.4,9.8,4.5C64,619.5,66.8,622.3,67.2,626.7z"/>
	<line class="st1" x1="50.6" y1="619.6" x2="59.4" y2="629.7"/>
	<line class="st1" x1="53.6" y1="618.9" x2="62.4" y2="629.1"/>
</g>
<g>
	<path class="st0" d="M54.9,639.9c0.1,1.4,0.3,3.5-1.1,5.1c-2.1,2.6-6.4,1.8-7,1.7c-1-0.2-3.9-0.9-7.5-5.1
		c-5.1-6.2-7.8-15.3-5.5-16.8c0.9-0.6,1.8,0.5,7.7,3c6.6,2.8,7.7,2.4,9.8,4.5C51.7,632.7,54.6,635.6,54.9,639.9z"/>
	<line class="st1" x1="38.3" y1="632.8" x2="47.1" y2="642.9"/>
	<line class="st1" x1="41.4" y1="632.2" x2="50.1" y2="642.3"/>
</g>
</svg>
