<?xml version="1.0" encoding="utf-8"?>
<!-- Generator: Adobe Illustrator 19.0.1, SVG Export Plug-In . SVG Version: 6.00 Build 0)  -->
<svg version="1.1" id="banana_x5F_warn" xmlns="http://www.w3.org/2000/svg" xmlns:xlink="http://www.w3.org/1999/xlink" x="0px"
	 y="0px" viewBox="-223 225 512 512" style="enable-background:new -223 225 512 512;" xml:space="preserve">
<style type="text/css">
	.st0{clip-path:url(#SVGID_2_);}
	.st1{fill:#FBD303;}
	.st2{fill:#646B79;}
	.st3{clip-path:url(#SVGID_4_);}
	.st4{fill:#7D9B1F;}
	.st5{fill:#8FCB11;}
	.st6{fill:#ADDD3A;}
	.st7{fill:#8BBA14;}
	.st8{fill:#F6BB42;}
	.st9{fill:#434A54;}
	.st10{fill:#FFCE54;}
	.st11{opacity:0.2;}
	.st12{fill:#FFFFFF;}
	.st13{fill:#A07C2D;}
	.st14{clip-path:url(#SVGID_6_);}
	.st15{clip-path:url(#SVGID_8_);}
	.st16{font-family:'Arial-Black';}
	.st17{font-size:21.0661px;}
	.st18{font-size:20.1175px;}
</style>
<g>
	<defs>
		<polygon id="SVGID_1_" points="33.6,373.5 238.5,492.5 238.3,540.6 34.1,422.1 		"/>
	</defs>
	<clipPath id="SVGID_2_">
		<use xlink:href="#SVGID_1_"  style="overflow:visible;"/>
	</clipPath>
	<g class="st0">
		<polygon class="st1" points="33.6,347.5 238.5,466.5 238.3,514.7 34.1,396.1 		"/>
		<g>
			<polygon class="st2" points="238.5,466.5 226.8,459.7 187.6,485.2 217.5,502.6 238.4,489.1 			"/>
			<polygon class="st2" points="160.3,469.4 130.4,452 169.4,426.3 199.4,443.7 			"/>
			<polygon class="st2" points="103,436.1 73.1,418.8 111.9,392.9 141.9,410.4 			"/>
			<polygon class="st2" points="54.5,359.6 33.9,373.4 34.1,396.1 45.8,402.9 84.5,377 			"/>
		</g>
	</g>
</g>
<g>
	<defs>
		<polygon id="SVGID_3_" points="-170.7,466.6 33.5,348.1 33.7,396.3 -171.2,515.3 		"/>
	</defs>
	<clipPath id="SVGID_4_">
		<use xlink:href="#SVGID_3_"  style="overflow:visible;"/>
	</clipPath>
	<g class="st3">
		<polygon class="st1" points="-170.7,492.6 33.5,374.1 33.7,422.3 -171.2,541.3 		"/>
		<g>
			<polygon class="st2" points="33.6,399.6 12.7,386.1 -17.2,403.5 22,429.1 33.7,422.3 			"/>
			<polygon class="st2" points="-5.4,445 -35.4,462.4 -74.4,436.7 -44.5,419.4 			"/>
			<polygon class="st2" points="-62.9,478.4 -92.9,495.8 -131.7,470 -101.8,452.6 			"/>
			<polygon class="st2" points="-120.3,511.7 -159,485.8 -170.7,492.6 -170.9,515.4 -150.3,529.1 			"/>
		</g>
	</g>
</g>
<g>
	<g>
		<g>
			<polygon class="st4" points="23.3,647.6 46,647.6 46,594.4 23.3,565.5 			"/>
			<path class="st5" d="M42.5,590l-2.4-115l5.9-13.6l11.4-10.7l4.9,2.1l-11.1,9.1l-7,13.6l4.5,2.5l6.2-14.8l12-7.5l2.5,3l-10.7,6.2
				l-3.9,10.3c0,0-0.6,4.5,12.6,6.2l2.1-7.8l17.7-4.9l-14,12.4l-4.5,8.7l9.1,9.9l5.8-7.8l6.6,3.7l-12.8,12.4L87,505
				c0,0,7,1.6,7.8,2.9l-7.4,5.4l7.4,1.2c0,0,3.3,7.8,16.1-10.7l-4.5,26.4l3.4-2.1l5.1-11.7l1.2,3.9l-4,7.6l1.6,6.5l6.5,0.2l7.3,3.1
				l11-13.6l-54.9-65.2L45,443l-4,6.6l-0.2-5.4L38,443l-8.2,9.3l-4.2,116.2L42.5,590z"/>
			<path class="st5" d="M35,446.4c0,0-8-1.2-13.9-3.5c0,0-19.8,1.7-28.5,9c0,0-21,14-21,16.6c0,0-6.1,0.3-30.3,33.2
				c0,0-14,15.4-30,32.3l18.3,4.4l25.9-17.2l-8.1-18.3l10.8,14.8l9-11.6l9-8.1l-5.5-7.3c0,0,7.3,7.3,13.7-4.1l5.2-4.1l-4.7-9.6
				c0,0,0.6-3.5,1.5-3.8L-6,479l2.9-4.9l5.5-2.9l-3.2-13.4l5.8,11.4l4.7-5.2L7.1,454l6.4,10.2l5.2-6.4l-2.9-7.6c0,0,6.4,14,16.9-0.3
				"/>
		</g>
		<path class="st5" d="M43.6,443.2c0,0-5.8-5.5-9.1-10.7c0,0-16.9-9.6-28.2-8.3c0,0-25,0.1-26.5,2.3c0,0-5.1-3.2-43.7,11
			c0,0-20.2,5.2-43,10.5l12.2,13.9l30.9,0l4.2-20l0,18.5l14.1-4.8l12-1.8l-0.2-9.2c0,0,1.6,10.2,13.4,4.2l6.6-0.5l1.9-10.7
			c0,0,2.5-2.6,3.4-2.4l0.3,12.6l5.2-2.5l6.1,0.6l5.2-13.1l-1.9,12.8l6.8-1.8l3.7-9.8L16,446.2l8-2.5l2.1-8c0,0-3,15.3,13.7,9.2"/>
		<path class="st5" d="M49.4,425c0,0-2.4-5.1-5.7-8.5c0,0-1.2-13.7,5-21.2c0,0,11.3-17.3,14-17.9c0,0-0.6-4.2,29.7-28
			c0,0,13.8-13,28.8-27.6l7.3,11.3l-13.8,21.4l-20.2-1.2l17,3.8l-10.7,8.8l-7,7.9l-8.4-2c0,0,8.6,3.2-2.1,10.1l-3.4,4.5l-10.6-0.9
			c0,0-3.5,1.2-3.7,1.9l11.4,2.8l-4.7,3.1l-2.2,4.4l-14.3,1l12.6,1.3l-4.7,4.3L53,404.6l11.5,1.9l-5.8,5l-8.3-0.2
			c0,0,15.4,1,2.3,11.4"/>
		<path class="st6" d="M34.6,424.1c0,0-1.6-8.1-1-14.6c0,0-9.2-17.8-20.8-22.7c0,0-23.7-13.4-26.8-12.3c0,0-2.6-5.6-49.3-13.6
			c0,0-22.9-6.2-48.2-13.7l1.6,19.2l29.2,16.6l18.2-15.8l-13.2,16.7l16.7,3.3l12.7,4.8l6.4-8.4c0,0-5.7,10.1,9.7,11l6.6,3.1l9.4-8.7
			c0,0,4.2-1,4.9-0.3l-8.7,11.5l6.8,0.5l5.4,3.9l14.3-9l-11,10.5l7.7,2l10.5-6.9l-9.4,10.6l9.3,2.1l7.7-6.1c0,0-13.8,12.2,6.5,15.7"
			/>
		<path class="st7" d="M52.6,442.8c-0.5-0.7-0.1-1.3,0-3.3c0.1-2.8-0.6-5.1-1.2-6.8c0,0,6-12,16.1-14.9c0,0,20.3-8.3,23.3-7.3
			c0,0,1.6-3.8,44.2-7.2c4.2-0.8,8.5-1.5,13.1-2.1c9.1-1.2,17.7-1.8,25.5-2c-1.4,9.7-2.9,19.4-4.3,29.1c-5.7,0.4-11.5,0.7-17.2,1.1
			c-5.7-7.2-11.3-14.5-17-21.7c2.8,7.2,5.6,14.5,8.4,21.7c-2.9,0.4-5.7,0.7-8.6,1.1c-2.5,0-5,0-7.5,0c-3.7-4.1-7.3-8.3-11-12.4
			c0,3.5,0.3,6.2,0.7,8.1c0.2,1.3,0.5,2.2,0,2.6c-1,1-4.5-0.9-7.4-2.6c-2.1,0.3-4.3,0.7-6.4,1L93,420.6c0,0-4.1-0.9-4.6-0.5l9.8,8.4
			l-6.3,0.1l-4.5,2.5l-14.7-6.9l11.8,7.8l-7,1.1l-10.8-5.3l10.4,7.8l-8.4,1l-8.1-4.6c0.4,0.2,6,3.7,5.5,7.1
			C65.5,443.6,54.4,445.5,52.6,442.8z"/>
		<polygon class="st6" points="17.1,406.5 40.9,443.5 23.8,406.5 		"/>
		<polygon class="st5" points="51.3,412.4 35.8,449.5 47,412.4 		"/>
		<polygon class="st7" points="63.9,429 38.6,460.3 59.7,427.8 		"/>
	</g>
	<g>
		<g>
			<path class="st8" d="M12.8,457.9c9.3,24.3-9.6,41.5-9.6,41.5s-0.1,0.4,0.7,2c0.8,1.6,1.1,1.4,1.1,1.4c21.9-4,21.6-41.5,11.7-48.1
				l-2.1-0.7l-2.1,0l-0.4,0.5c0.7,2,1,1.3,1,1.3L12.8,457.9z"/>
			<path class="st9" d="M4,500.2c-0.2-0.1-0.5-0.1-0.7,0.1c0.1,0.3,0.3,0.6,0.5,1.1c0.1,0.3,0.3,0.5,0.4,0.7
				c0.1-0.1,0.2-0.3,0.3-0.5C4.6,501.1,4.4,500.4,4,500.2z"/>
			<path class="st10" d="M12.2,459.4c13.1,20.5-1.5,42.2-1.5,42.2s-0.1,0.4,1,1.7c1.1,1.3,1.3,1,1.3,1c20.6-11.2,14.2-47.6,3.5-50.7
				c0,0-1.7-0.2-2.1,0c-0.4,0.2-4.6-3.1-4.6-3.1l-2.6,4.6c2.3,1,4.4,2.1,4.6,2.7C11.8,458.4,12.2,459.4,12.2,459.4z"/>
			<path class="st9" d="M12.1,503.9c0.1-0.1,0.1-0.2,0.1-0.4c0.1-0.6-0.1-1.2-0.5-1.3c-0.3-0.1-0.6,0-0.8,0.3
				c0.1,0.2,0.3,0.5,0.6,0.9C11.8,503.6,12,503.8,12.1,503.9z"/>
			<path class="st8" d="M7.1,455.1c2.3,1,4.4,2.1,4.6,2.7c0.6-2.3,2.6-4.3,2.6-4.3c-0.4,0.2-4.6-3.1-4.6-3.1L7.1,455.1z"/>
			<g class="st11">
				<path class="st12" d="M14.3,453.6c-0.4,0.2-4.6-3.1-4.6-3.1l-1.2,2.1c1.2,0.9,3.5,2.7,3.8,2.5c0.4-0.2,2.1,0,2.1,0
					c9.9,2.9,16.2,34.2,0.7,47.8c17.8-12.6,11.5-46.3,1.2-49.3C16.4,453.6,14.7,453.4,14.3,453.6z"/>
			</g>
		</g>
		<path class="st13" d="M7.1,455.1l2.6-4.6l4.6,3.1c0,0-1.9,1.7-2.6,4.3c-0.7-0.5-1.4-1-2.2-1.4C8.7,455.9,7.9,455.5,7.1,455.1z"/>
	</g>
	<g>
		<g>
			<path class="st8" d="M24.9,457.9c8,24.3-8.3,41.5-8.3,41.5s-0.1,0.4,0.6,2c0.7,1.6,1,1.4,1,1.4c18.8-4,18.6-41.5,10.1-48.1
				l-1.8-0.7l-1.8,0l-0.3,0.5c0.6,2,0.8,1.3,0.8,1.3L24.9,457.9z"/>
			<path class="st9" d="M17.4,500.2c-0.2-0.1-0.4-0.1-0.6,0.1c0.1,0.3,0.2,0.6,0.4,1.1c0.1,0.3,0.2,0.5,0.3,0.7
				c0.1-0.1,0.2-0.3,0.2-0.5C17.9,501.1,17.7,500.4,17.4,500.2z"/>
			<path class="st10" d="M24.4,459.4c11.2,20.5-1.3,42.2-1.3,42.2s-0.1,0.4,0.9,1.7c0.9,1.3,1.1,1,1.1,1c17.7-11.2,12.2-47.6,3-50.7
				c0,0-1.5-0.2-1.8,0c-0.4,0.2-3.9-3.1-3.9-3.1l-2.2,4.6c2,1,3.8,2.1,3.9,2.7C24.1,458.4,24.4,459.4,24.4,459.4z"/>
			<path class="st9" d="M24.3,503.9c0.1-0.1,0.1-0.2,0.1-0.4c0.1-0.6-0.1-1.2-0.4-1.3c-0.2-0.1-0.5,0-0.7,0.3
				c0.1,0.2,0.3,0.5,0.5,0.9C24.1,503.6,24.2,503.8,24.3,503.9z"/>
			<path class="st8" d="M20,455.1c2,1,3.8,2.1,3.9,2.7c0.5-2.3,2.2-4.3,2.2-4.3c-0.4,0.2-3.9-3.1-3.9-3.1L20,455.1z"/>
			<g class="st11">
				<path class="st12" d="M26.2,453.6c-0.4,0.2-3.9-3.1-3.9-3.1l-1,2.1c1,0.9,3,2.7,3.3,2.5c0.4-0.2,1.8,0,1.8,0
					c8.5,2.9,13.9,34.2,0.6,47.8c15.3-12.6,9.8-46.3,1-49.3C28,453.6,26.6,453.4,26.2,453.6z"/>
			</g>
		</g>
		<path class="st13" d="M20,455.1l2.2-4.6l3.9,3.1c0,0-1.6,1.7-2.2,4.3c-0.6-0.5-1.2-1-1.9-1.4C21.3,455.9,20.7,455.5,20,455.1z"/>
	</g>
	<g>
		<g>
			<path class="st8" d="M16.2,455.8c0,0,0.2,0.8,0.8-1.3l-0.3-0.5l-1.8,0l-1.8,0.7c-8.6,6.6-8.8,44.2,10.1,48.1c0,0,0.3,0.3,1-1.4
				c0.7-1.6,0.6-2,0.6-2s-16.4-17.2-8.3-41.5L16.2,455.8z"/>
			<path class="st9" d="M23.6,501.6c0,0.2,0.1,0.4,0.2,0.5c0.1-0.2,0.2-0.4,0.3-0.7c0.2-0.5,0.3-0.8,0.4-1.1
				c-0.2-0.2-0.4-0.2-0.6-0.1C23.7,500.4,23.5,501.1,23.6,501.6z"/>
			<path class="st10" d="M17.4,457.9c0.1-0.6,1.9-1.8,3.9-2.7l-2.2-4.6c0,0-3.6,3.3-3.9,3.1c-0.4-0.2-1.9,0-1.9,0
				c-9.3,3.1-14.8,39.5,3,50.7c0,0,0.2,0.4,1.2-1c0.9-1.3,0.9-1.7,0.9-1.7S5.7,479.9,17,459.4C17,459.4,17.3,458.4,17.4,457.9z"/>
			<path class="st9" d="M17.4,503.3c0.2-0.4,0.4-0.6,0.5-0.9c-0.2-0.3-0.4-0.4-0.7-0.3c-0.3,0.2-0.6,0.8-0.5,1.3
				c0,0.1,0.1,0.3,0.1,0.4C17.1,503.8,17.3,503.6,17.4,503.3z"/>
			<path class="st8" d="M19.1,450.5c0,0-3.6,3.3-3.9,3.1c0,0,1.8,2,2.2,4.3c0.1-0.6,1.9-1.8,3.9-2.7L19.1,450.5z"/>
			<g class="st11">
				<path class="st12" d="M13.3,453.6c-8.9,3-14.4,36.7,1,49.3c-13.3-13.6-7.9-44.9,0.6-47.8c0,0,1.5-0.2,1.9,0
					c0.3,0.2,2.3-1.6,3.3-2.5l-1-2.1c0,0-3.6,3.3-3.9,3.1C14.8,453.4,13.3,453.6,13.3,453.6z"/>
			</g>
		</g>
		<path class="st13" d="M21.3,455.1l-2.2-4.6l-3.9,3.1c0,0,1.6,1.7,2.2,4.3c0.6-0.5,1.2-1,1.9-1.4C20,455.9,20.7,455.5,21.3,455.1z"
			/>
	</g>
	<g>
		<g>
			<path class="st8" d="M7.1,455.8c0,0,0.2,0.8,0.9-1.3L7.7,454l-2,0l-1.9,0.7c-9.2,6.6-9.5,44.2,10.9,48.1c0,0,0.3,0.3,1.1-1.4
				c0.8-1.6,0.6-2,0.6-2s-17.7-17.2-9-41.5L7.1,455.8z"/>
			<path class="st9" d="M15.1,501.6c0,0.2,0.1,0.4,0.2,0.5c0.1-0.2,0.2-0.4,0.3-0.7c0.2-0.5,0.4-0.8,0.5-1.1
				c-0.2-0.2-0.4-0.2-0.6-0.1C15.2,500.4,15,501.1,15.1,501.6z"/>
			<path class="st10" d="M8.4,457.9c0.1-0.6,2.1-1.8,4.3-2.7l-2.4-4.6c0,0-3.9,3.3-4.3,3.1c-0.4-0.2-2,0-2,0
				c-10,3.1-16,39.5,3.2,50.7c0,0,0.3,0.4,1.2-1c1-1.3,0.9-1.7,0.9-1.7S-4.2,479.9,8,459.4C8,459.4,8.3,458.4,8.4,457.9z"/>
			<path class="st9" d="M8.5,503.3c0.3-0.4,0.5-0.6,0.6-0.9c-0.2-0.3-0.4-0.4-0.7-0.3c-0.4,0.2-0.6,0.8-0.5,1.3
				c0,0.1,0.1,0.3,0.1,0.4C8.1,503.8,8.3,503.6,8.5,503.3z"/>
			<path class="st8" d="M10.2,450.5c0,0-3.9,3.3-4.3,3.1c0,0,1.9,2,2.4,4.3c0.1-0.6,2.1-1.8,4.3-2.7L10.2,450.5z"/>
			<g class="st11">
				<path class="st12" d="M4,453.6c-9.6,3-15.5,36.7,1.1,49.3c-14.4-13.6-8.6-44.9,0.7-47.8c0,0,1.6-0.2,2,0
					c0.3,0.2,2.5-1.6,3.6-2.5l-1.1-2.1c0,0-3.9,3.3-4.3,3.1C5.6,453.4,4,453.6,4,453.6z"/>
			</g>
		</g>
		<path class="st13" d="M12.7,455.1l-2.4-4.6L6,453.6c0,0,1.7,1.7,2.4,4.3c0.6-0.5,1.3-1,2.1-1.4C11.2,455.9,12,455.5,12.7,455.1z"
			/>
	</g>
	<g>
		<g>
			<path class="st8" d="M12.7,490.9c8.1,24.3-8.3,41.5-8.3,41.5s-0.1,0.4,0.6,2c0.7,1.6,1,1.4,1,1.4c19-4,18.7-41.5,10.1-48.1
				l-1.8-0.7l-1.8,0l-0.3,0.5c0.6,2,0.8,1.3,0.8,1.3L12.7,490.9z"/>
			<path class="st9" d="M5.1,533.2c-0.2-0.1-0.4-0.1-0.6,0.1c0.1,0.3,0.2,0.6,0.4,1.1c0.1,0.3,0.2,0.5,0.3,0.7
				c0.1-0.1,0.2-0.3,0.2-0.5C5.6,534.1,5.4,533.4,5.1,533.2z"/>
			<path class="st10" d="M12.1,492.4c11.3,20.5-1.3,42.2-1.3,42.2s-0.1,0.4,0.9,1.7c0.9,1.3,1.2,1,1.2,1c17.9-11.2,12.3-47.6,3-50.7
				c0,0-1.5-0.2-1.9,0c-0.4,0.2-4-3.1-4-3.1l-2.2,4.6c2,1,3.8,2.1,4,2.7C11.8,491.4,12.1,492.4,12.1,492.4z"/>
			<path class="st9" d="M12.1,536.9c0.1-0.1,0.1-0.2,0.1-0.4c0.1-0.6-0.1-1.2-0.5-1.3c-0.2-0.1-0.5,0-0.7,0.3
				c0.1,0.2,0.3,0.5,0.5,0.9C11.8,536.6,12,536.8,12.1,536.9z"/>
			<path class="st8" d="M7.8,488.1c2,1,3.8,2.1,4,2.7c0.5-2.3,2.2-4.3,2.2-4.3c-0.4,0.2-4-3.1-4-3.1L7.8,488.1z"/>
			<g class="st11">
				<path class="st12" d="M13.9,486.6c-0.4,0.2-4-3.1-4-3.1l-1,2.1c1,0.9,3,2.7,3.3,2.5c0.4-0.2,1.9,0,1.9,0
					c8.6,2.9,14,34.2,0.6,47.8c15.4-12.6,9.9-46.3,1-49.3C15.8,486.6,14.3,486.4,13.9,486.6z"/>
			</g>
		</g>
		<path class="st13" d="M7.8,488.1l2.2-4.6l4,3.1c0,0-1.6,1.7-2.2,4.3c-0.6-0.5-1.2-1-1.9-1.4C9.1,488.9,8.4,488.5,7.8,488.1z"/>
	</g>
	<g>
		<g>
			<path class="st8" d="M24.3,490.9c8.4,24.3-8.7,41.5-8.7,41.5s-0.1,0.4,0.6,2c0.7,1.6,1,1.4,1,1.4c19.7-4,19.4-41.5,10.5-48.1
				L26,487l-1.9,0l-0.3,0.5c0.6,2,0.9,1.3,0.9,1.3L24.3,490.9z"/>
			<path class="st9" d="M16.5,533.2c-0.2-0.1-0.4-0.1-0.6,0.1c0.1,0.3,0.2,0.6,0.4,1.1c0.1,0.3,0.2,0.5,0.3,0.7
				c0.1-0.1,0.2-0.3,0.2-0.5C17,534.1,16.8,533.4,16.5,533.2z"/>
			<path class="st10" d="M23.8,492.4c11.7,20.5-1.4,42.2-1.4,42.2s-0.1,0.4,0.9,1.7c1,1.3,1.2,1,1.2,1c18.6-11.2,12.8-47.6,3.1-50.7
				c0,0-1.5-0.2-1.9,0c-0.4,0.2-4.1-3.1-4.1-3.1l-2.3,4.6c2.1,1,4,2.1,4.1,2.7C23.5,491.4,23.8,492.4,23.8,492.4z"/>
			<path class="st9" d="M23.8,536.9c0.1-0.1,0.1-0.2,0.1-0.4c0.1-0.6-0.1-1.2-0.5-1.3c-0.3-0.1-0.5,0-0.7,0.3
				c0.1,0.2,0.3,0.5,0.6,0.9C23.5,536.6,23.6,536.8,23.8,536.9z"/>
			<path class="st8" d="M19.3,488.1c2.1,1,4,2.1,4.1,2.7c0.5-2.3,2.3-4.3,2.3-4.3c-0.4,0.2-4.1-3.1-4.1-3.1L19.3,488.1z"/>
			<g class="st11">
				<path class="st12" d="M25.7,486.6c-0.4,0.2-4.1-3.1-4.1-3.1l-1,2.1c1.1,0.9,3.2,2.7,3.4,2.5c0.4-0.2,1.9,0,1.9,0
					c8.9,2.9,14.5,34.2,0.7,47.8c16-12.6,10.3-46.3,1-49.3C27.6,486.6,26.1,486.4,25.7,486.6z"/>
			</g>
		</g>
		<path class="st13" d="M19.3,488.1l2.3-4.6l4.1,3.1c0,0-1.7,1.7-2.3,4.3c-0.6-0.5-1.3-1-2-1.4C20.6,488.9,19.9,488.5,19.3,488.1z"
			/>
	</g>
	<g>
		<g>
			<path class="st8" d="M15.1,488.8c0,0,0.2,0.8,0.8-1.3l-0.3-0.5l-1.8,0l-1.8,0.7c-8.5,6.6-8.7,44.2,10,48.1c0,0,0.3,0.3,1-1.4
				c0.7-1.6,0.6-2,0.6-2s-16.2-17.2-8.2-41.5L15.1,488.8z"/>
			<path class="st9" d="M22.4,534.6c0,0.2,0.1,0.4,0.2,0.5c0.1-0.2,0.2-0.4,0.3-0.7c0.2-0.5,0.3-0.8,0.4-1.1
				c-0.2-0.2-0.4-0.2-0.6-0.1C22.5,533.4,22.3,534.1,22.4,534.6z"/>
			<path class="st10" d="M16.3,490.9c0.1-0.6,1.9-1.8,3.9-2.7l-2.2-4.6c0,0-3.5,3.3-3.9,3.1c-0.4-0.2-1.8,0-1.8,0
				c-9.2,3.1-14.7,39.5,3,50.7c0,0,0.2,0.4,1.1-1c0.9-1.3,0.9-1.7,0.9-1.7s-12.5-21.7-1.3-42.2C15.9,492.4,16.1,491.4,16.3,490.9z"
				/>
			<path class="st9" d="M16.3,536.3c0.2-0.4,0.4-0.6,0.5-0.9c-0.2-0.3-0.4-0.4-0.7-0.3c-0.3,0.2-0.5,0.8-0.4,1.3
				c0,0.1,0.1,0.3,0.1,0.4C16,536.8,16.2,536.6,16.3,536.3z"/>
			<path class="st8" d="M17.9,483.5c0,0-3.5,3.3-3.9,3.1c0,0,1.7,2,2.2,4.3c0.1-0.6,1.9-1.8,3.9-2.7L17.9,483.5z"/>
			<g class="st11">
				<path class="st12" d="M12.2,486.6c-8.8,3-14.2,36.7,1,49.3c-13.2-13.6-7.9-44.9,0.6-47.8c0,0,1.5-0.2,1.8,0
					c0.3,0.2,2.2-1.6,3.3-2.5l-1-2.1c0,0-3.5,3.3-3.9,3.1C13.7,486.4,12.2,486.6,12.2,486.6z"/>
			</g>
		</g>
		<path class="st13" d="M20.2,488.1l-2.2-4.6l-3.9,3.1c0,0,1.6,1.7,2.2,4.3c0.6-0.5,1.2-1,1.9-1.4C18.9,488.9,19.5,488.5,20.2,488.1
			z"/>
	</g>
	<g>
		<g>
			<path class="st8" d="M4.1,488.8c0,0,0.2,0.8,0.8-1.3L4.6,487l-1.7,0l-1.6,0.7c-7.8,6.6-8,44.2,9.2,48.1c0,0,0.3,0.3,0.9-1.4
				c0.6-1.6,0.5-2,0.5-2S-3,515.2,4.4,490.9L4.1,488.8z"/>
			<path class="st9" d="M10.9,534.6c0,0.2,0.1,0.4,0.2,0.5c0.1-0.2,0.2-0.4,0.3-0.7c0.2-0.5,0.3-0.8,0.4-1.1
				c-0.2-0.2-0.3-0.2-0.5-0.1C11,533.4,10.8,534.1,10.9,534.6z"/>
			<path class="st10" d="M5.2,490.9c0.1-0.6,1.8-1.8,3.6-2.7l-2-4.6c0,0-3.2,3.3-3.6,3.1c-0.3-0.2-1.7,0-1.7,0
				c-8.4,3.1-13.5,39.5,2.7,50.7c0,0,0.2,0.4,1.1-1c0.8-1.3,0.8-1.7,0.8-1.7s-11.5-21.7-1.2-42.2C4.9,492.4,5.1,491.4,5.2,490.9z"/>
			<path class="st9" d="M5.3,536.3c0.2-0.4,0.4-0.6,0.5-0.9c-0.1-0.3-0.4-0.4-0.6-0.3c-0.3,0.2-0.5,0.8-0.4,1.3
				c0,0.1,0.1,0.3,0.1,0.4C5,536.8,5.2,536.6,5.3,536.3z"/>
			<path class="st8" d="M6.8,483.5c0,0-3.2,3.3-3.6,3.1c0,0,1.6,2,2,4.3c0.1-0.6,1.8-1.8,3.6-2.7L6.8,483.5z"/>
			<g class="st11">
				<path class="st12" d="M1.5,486.6c-8.1,3-13.1,36.7,0.9,49.3c-12.2-13.6-7.2-44.9,0.6-47.8c0,0,1.3-0.2,1.7,0
					c0.3,0.2,2.1-1.6,3-2.5l-0.9-2.1c0,0-3.2,3.3-3.6,3.1C2.9,486.4,1.5,486.6,1.5,486.6z"/>
			</g>
		</g>
		<path class="st13" d="M8.8,488.1l-2-4.6l-3.6,3.1c0,0,1.5,1.7,2,4.3c0.5-0.5,1.1-1,1.8-1.4C7.6,488.9,8.3,488.5,8.8,488.1z"/>
	</g>
	<g>
		<g>
			<path class="st8" d="M34.8,456.9c9.3,24.3-9.6,41.5-9.6,41.5s-0.1,0.4,0.7,2c0.8,1.6,1.1,1.4,1.1,1.4c21.9-4,21.6-41.5,11.7-48.1
				l-2.1-0.7l-2.1,0l-0.4,0.5c0.7,2,1,1.3,1,1.3L34.8,456.9z"/>
			<path class="st9" d="M26,499.2c-0.2-0.1-0.5-0.1-0.7,0.1c0.1,0.3,0.3,0.6,0.5,1.1c0.1,0.3,0.3,0.5,0.4,0.7
				c0.1-0.1,0.2-0.3,0.3-0.5C26.6,500.1,26.4,499.4,26,499.2z"/>
			<path class="st10" d="M34.2,458.4c13.1,20.5-1.5,42.2-1.5,42.2s-0.1,0.4,1,1.7c1.1,1.3,1.3,1,1.3,1c20.6-11.2,14.2-47.6,3.5-50.7
				c0,0-1.7-0.2-2.1,0c-0.4,0.2-4.6-3.1-4.6-3.1l-2.6,4.6c2.3,1,4.4,2.1,4.6,2.7C33.8,457.4,34.2,458.4,34.2,458.4z"/>
			<path class="st9" d="M34.1,502.9c0.1-0.1,0.1-0.2,0.1-0.4c0.1-0.6-0.1-1.2-0.5-1.3c-0.3-0.1-0.6,0-0.8,0.3
				c0.1,0.2,0.3,0.5,0.6,0.9C33.8,502.6,34,502.8,34.1,502.9z"/>
			<path class="st8" d="M29.1,454.1c2.3,1,4.4,2.1,4.6,2.7c0.6-2.3,2.6-4.3,2.6-4.3c-0.4,0.2-4.6-3.1-4.6-3.1L29.1,454.1z"/>
			<g class="st11">
				<path class="st12" d="M36.3,452.6c-0.4,0.2-4.6-3.1-4.6-3.1l-1.2,2.1c1.2,0.9,3.5,2.7,3.8,2.5c0.4-0.2,2.1,0,2.1,0
					c9.9,2.9,16.2,34.2,0.7,47.8c17.8-12.6,11.5-46.3,1.2-49.3C38.4,452.6,36.7,452.4,36.3,452.6z"/>
			</g>
		</g>
		<path class="st13" d="M29.1,454.1l2.6-4.6l4.6,3.1c0,0-1.9,1.7-2.6,4.3c-0.7-0.5-1.4-1-2.2-1.4C30.7,454.9,29.9,454.5,29.1,454.1z
			"/>
	</g>
	<g>
		<g>
			<path class="st8" d="M46.9,456.9c8,24.3-8.3,41.5-8.3,41.5s-0.1,0.4,0.6,2c0.7,1.6,1,1.4,1,1.4c18.8-4,18.6-41.5,10.1-48.1
				l-1.8-0.7l-1.8,0l-0.3,0.5c0.6,2,0.8,1.3,0.8,1.3L46.9,456.9z"/>
			<path class="st9" d="M39.4,499.2c-0.2-0.1-0.4-0.1-0.6,0.1c0.1,0.3,0.2,0.6,0.4,1.1c0.1,0.3,0.2,0.5,0.3,0.7
				c0.1-0.1,0.2-0.3,0.2-0.5C39.9,500.1,39.7,499.4,39.4,499.2z"/>
			<path class="st10" d="M46.4,458.4c11.2,20.5-1.3,42.2-1.3,42.2s-0.1,0.4,0.9,1.7c0.9,1.3,1.1,1,1.1,1c17.7-11.2,12.2-47.6,3-50.7
				c0,0-1.5-0.2-1.8,0c-0.4,0.2-3.9-3.1-3.9-3.1l-2.2,4.6c2,1,3.8,2.1,3.9,2.7C46.1,457.4,46.4,458.4,46.4,458.4z"/>
			<path class="st9" d="M46.3,502.9c0.1-0.1,0.1-0.2,0.1-0.4c0.1-0.6-0.1-1.2-0.4-1.3c-0.2-0.1-0.5,0-0.7,0.3
				c0.1,0.2,0.3,0.5,0.5,0.9C46.1,502.6,46.2,502.8,46.3,502.9z"/>
			<path class="st8" d="M42,454.1c2,1,3.8,2.1,3.9,2.7c0.5-2.3,2.2-4.3,2.2-4.3c-0.4,0.2-3.9-3.1-3.9-3.1L42,454.1z"/>
			<g class="st11">
				<path class="st12" d="M48.2,452.6c-0.4,0.2-3.9-3.1-3.9-3.1l-1,2.1c1,0.9,3,2.7,3.3,2.5c0.4-0.2,1.8,0,1.8,0
					c8.5,2.9,13.9,34.2,0.6,47.8c15.3-12.6,9.8-46.3,1-49.3C50,452.6,48.6,452.4,48.2,452.6z"/>
			</g>
		</g>
		<path class="st13" d="M42,454.1l2.2-4.6l3.9,3.1c0,0-1.6,1.7-2.2,4.3c-0.6-0.5-1.2-1-1.9-1.4C43.3,454.9,42.7,454.5,42,454.1z"/>
	</g>
	<g>
		<g>
			<path class="st8" d="M34.7,492.9c8.1,24.3-8.3,41.5-8.3,41.5s-0.1,0.4,0.6,2c0.7,1.6,1,1.4,1,1.4c19-4,18.7-41.5,10.1-48.1
				l-1.8-0.7l-1.8,0l-0.3,0.5c0.6,2,0.8,1.3,0.8,1.3L34.7,492.9z"/>
			<path class="st9" d="M27.1,535.2c-0.2-0.1-0.4-0.1-0.6,0.1c0.1,0.3,0.2,0.6,0.4,1.1c0.1,0.3,0.2,0.5,0.3,0.7
				c0.1-0.1,0.2-0.3,0.2-0.5C27.6,536.1,27.4,535.4,27.1,535.2z"/>
			<path class="st10" d="M34.1,494.4c11.3,20.5-1.3,42.2-1.3,42.2s-0.1,0.4,0.9,1.7c0.9,1.3,1.2,1,1.2,1c17.9-11.2,12.3-47.6,3-50.7
				c0,0-1.5-0.2-1.9,0c-0.4,0.2-4-3.1-4-3.1l-2.2,4.6c2,1,3.8,2.1,4,2.7C33.8,493.4,34.1,494.4,34.1,494.4z"/>
			<path class="st9" d="M34.1,538.9c0.1-0.1,0.1-0.2,0.1-0.4c0.1-0.6-0.1-1.2-0.5-1.3c-0.2-0.1-0.5,0-0.7,0.3
				c0.1,0.2,0.3,0.5,0.5,0.9C33.8,538.6,34,538.8,34.1,538.9z"/>
			<path class="st8" d="M29.8,490.1c2,1,3.8,2.1,4,2.7c0.5-2.3,2.2-4.3,2.2-4.3c-0.4,0.2-4-3.1-4-3.1L29.8,490.1z"/>
			<g class="st11">
				<path class="st12" d="M35.9,488.6c-0.4,0.2-4-3.1-4-3.1l-1,2.1c1,0.9,3,2.7,3.3,2.5c0.4-0.2,1.9,0,1.9,0
					c8.6,2.9,14,34.2,0.6,47.8c15.4-12.6,9.9-46.3,1-49.3C37.8,488.6,36.3,488.4,35.9,488.6z"/>
			</g>
		</g>
		<path class="st13" d="M29.8,490.1l2.2-4.6l4,3.1c0,0-1.6,1.7-2.2,4.3c-0.6-0.5-1.2-1-1.9-1.4C31.1,490.9,30.4,490.5,29.8,490.1z"
			/>
	</g>
	<g>
		<g>
			<path class="st8" d="M46.3,492.9c8.4,24.3-8.7,41.5-8.7,41.5s-0.1,0.4,0.6,2c0.7,1.6,1,1.4,1,1.4c19.7-4,19.4-41.5,10.5-48.1
				L48,489l-1.9,0l-0.3,0.5c0.6,2,0.9,1.3,0.9,1.3L46.3,492.9z"/>
			<path class="st9" d="M38.5,535.2c-0.2-0.1-0.4-0.1-0.6,0.1c0.1,0.3,0.2,0.6,0.4,1.1c0.1,0.3,0.2,0.5,0.3,0.7
				c0.1-0.1,0.2-0.3,0.2-0.5C39,536.1,38.8,535.4,38.5,535.2z"/>
			<path class="st10" d="M45.8,494.4c11.7,20.5-1.4,42.2-1.4,42.2s-0.1,0.4,0.9,1.7c1,1.3,1.2,1,1.2,1c18.6-11.2,12.8-47.6,3.1-50.7
				c0,0-1.5-0.2-1.9,0c-0.4,0.2-4.1-3.1-4.1-3.1l-2.3,4.6c2.1,1,4,2.1,4.1,2.7C45.5,493.4,45.8,494.4,45.8,494.4z"/>
			<path class="st9" d="M45.8,538.9c0.1-0.1,0.1-0.2,0.1-0.4c0.1-0.6-0.1-1.2-0.5-1.3c-0.3-0.1-0.5,0-0.7,0.3
				c0.1,0.2,0.3,0.5,0.6,0.9C45.5,538.6,45.6,538.8,45.8,538.9z"/>
			<path class="st8" d="M41.3,490.1c2.1,1,4,2.1,4.1,2.7c0.5-2.3,2.3-4.3,2.3-4.3c-0.4,0.2-4.1-3.1-4.1-3.1L41.3,490.1z"/>
			<g class="st11">
				<path class="st12" d="M47.7,488.6c-0.4,0.2-4.1-3.1-4.1-3.1l-1,2.1c1.1,0.9,3.2,2.7,3.4,2.5c0.4-0.2,1.9,0,1.9,0
					c8.9,2.9,14.5,34.2,0.7,47.8c16-12.6,10.3-46.3,1-49.3C49.6,488.6,48.1,488.4,47.7,488.6z"/>
			</g>
		</g>
		<path class="st13" d="M41.3,490.1l2.3-4.6l4.1,3.1c0,0-1.7,1.7-2.3,4.3c-0.6-0.5-1.3-1-2-1.4C42.6,490.9,41.9,490.5,41.3,490.1z"
			/>
	</g>
</g>
<g>
	<defs>
		<polygon id="SVGID_5_" points="-171.1,493.1 33.8,612.1 33.6,660.3 -170.6,541.8 		"/>
	</defs>
	<clipPath id="SVGID_6_">
		<use xlink:href="#SVGID_5_"  style="overflow:visible;"/>
	</clipPath>
	<g class="st14">
		<polygon class="st1" points="-171.1,467.1 33.8,586.1 33.6,634.3 -170.6,515.8 		"/>
		<g>
			<polygon class="st2" points="33.8,586.1 22.1,579.3 -17.1,604.9 12.8,622.3 33.7,608.8 			"/>
			<polygon class="st2" points="-150.3,479.3 -170.8,493 -170.6,515.8 -158.9,522.6 -120.3,496.7 			"/>
		</g>
	</g>
</g>
<g>
	<defs>
		<polygon id="SVGID_7_" points="34.2,586.3 238.4,467.7 238.6,515.9 33.7,634.9 		"/>
	</defs>
	<clipPath id="SVGID_8_">
		<use xlink:href="#SVGID_7_"  style="overflow:visible;"/>
	</clipPath>
	<g class="st15">
		<polygon class="st1" points="34.2,612.3 238.4,493.7 238.6,541.9 33.7,660.9 		"/>
		<g>
			<polygon class="st2" points="238.5,519.3 217.6,505.8 187.7,523.2 226.9,548.7 238.6,541.9 			"/>
			<polygon class="st2" points="84.5,631.4 45.9,605.5 34.2,612.3 33.9,635 54.5,648.8 			"/>
		</g>
	</g>
</g>
<text transform="matrix(0.5926 0.3431 -0.501 0.8654 -120.3065 542.5786)" class="st16 st17">Crime Scene</text>
<text transform="matrix(0.5889 -0.3413 0.5015 0.8652 72.196 609.8657)" class="st16 st18">Do Not Cross Line</text>
</svg>
