<?xml version="1.0" encoding="utf-8"?>
<!-- Generator: Adobe Illustrator 19.0.1, SVG Export Plug-In . SVG Version: 6.00 Build 0)  -->
<svg version="1.1" id="banana_x5F_grow" xmlns="http://www.w3.org/2000/svg" xmlns:xlink="http://www.w3.org/1999/xlink" x="0px"
	 y="0px" viewBox="-223 225 512 512" style="enable-background:new -223 225 512 512;" xml:space="preserve">
<style type="text/css">
	.st0{fill:#7D9B1F;}
	.st1{fill:#89BA11;}
</style>
<g>
	<polygon class="st0" points="22.5,643.2 43.6,643.2 43.6,593.9 22.5,567 	"/>
	<path class="st1" d="M40.3,589.7L38,483l5.5-12.6l10.6-9.9l4.6,1.9l-10.3,8.4l-6.5,12.6l4.2,2.3l5.7-13.8l11.1-7l2.3,2.8l-9.9,5.7
		l-3.6,9.6c0,0-0.6,4.2,11.7,5.7l1.9-7.3l16.5-4.6l-13,11.5l-4.2,8l8.4,9.2l5.4-7.3l6.1,3.4l-11.9,11.5l9.2-2.3c0,0,6.5,1.5,7.3,2.7
		l-6.9,5l6.9,1.1c0,0,3.1,7.3,14.9-9.9l-4.2,24.5l3.2-2l4.7-10.9l1.1,3.6l-3.7,7.1l1.5,6l6,0.2l6.8,2.9l10.2-12.6l-50.9-60.5
		l-35.8-14.8l-3.7,6.2l-0.2-5l-2.6-1.1l-7.6,8.6l-3.9,107.8L40.3,589.7z"/>
	<path class="st1" d="M28.5,463.3c0,0-7.5-1.1-12.9-3.2c0,0-18.4,1.6-26.5,8.4c0,0-19.4,13-19.4,15.4c0,0-5.7,0.3-28.1,30.8
		c0,0-13,14.3-27.8,30l17,4.1l24-15.9l-7.6-17l10,13.8l8.4-10.8l8.4-7.6l-5.1-6.8c0,0,6.8,6.8,12.7-3.8l4.9-3.8l-4.3-8.9
		c0,0,0.5-3.2,1.4-3.5l7,9.2l2.7-4.6l5.1-2.7l-3-12.4l5.4,10.5l4.3-4.9l-2.4-9.2l5.9,9.5l4.9-5.9l-2.7-7c0,0,5.9,12.9,15.7-0.3"/>
</g>
</svg>
