<?xml version="1.0" encoding="utf-8"?>
<!-- Generator: Adobe Illustrator 19.0.1, SVG Export Plug-In . SVG Version: 6.00 Build 0)  -->
<svg version="1.1" id="banana" xmlns="http://www.w3.org/2000/svg" xmlns:xlink="http://www.w3.org/1999/xlink" x="0px" y="0px"
	 viewBox="0 0 50 50" style="enable-background:new 0 0 50 50;" xml:space="preserve">
<style type="text/css">
	.st0{fill:#F6BB42;}
	.st1{fill:#434A54;}
	.st2{fill:#FFCE54;}
	.st3{opacity:0.2;}
	.st4{fill:#FFFFFF;}
	.st5{fill:#A07C2D;}
</style>
<g>
	<g>
		<path class="st0" d="M38.4,10.3c-5.1,27.2-37,23.3-37,23.3S1.1,33.9,1,35.9c-0.1,2,0.4,2.1,0.4,2.1C28,54.7,51.5,25.5,44.8,11.4
			L43,9L40.6,7l-0.7,0.1C39.4,9.3,40.2,9,40.2,9L38.4,10.3z"/>
		<path class="st1" d="M1.9,35.1c-0.2-0.3-0.5-0.5-0.8-0.5C1.1,34.9,1,35.3,1,35.9c0,0.3,0,0.6,0,0.9c0.2,0,0.4,0,0.6-0.1
			C2.1,36.3,2.2,35.6,1.9,35.1z"/>
		<path class="st2" d="M36.8,10.9C38.2,38.6,8.3,42.1,8.3,42.1s-0.3,0.3,0,2.3c0.3,2,0.9,2,0.9,2c29.9,10.1,45.9-23.9,36-36
			c0,0-1.7-1.7-2.4-1.9c-0.6-0.2-3.1-6.5-3.1-6.5L34,3.1c1.9,2.8,3.5,5.7,3.3,6.2C37.1,9.9,36.8,10.9,36.8,10.9z"/>
		<path class="st1" d="M8.5,45.3c0.1,0,0.3-0.1,0.4-0.2c0.5-0.3,0.6-1,0.3-1.5c-0.2-0.3-0.6-0.5-1-0.5c0,0.3,0.1,0.7,0.1,1.2
			C8.4,44.7,8.4,45,8.5,45.3z"/>
		<path class="st0" d="M34,3.1c1.9,2.8,3.5,5.7,3.3,6.2c2.1-1.2,5.6-1,5.6-1c-0.6-0.2-3.1-6.5-3.1-6.5L34,3.1z"/>
		<g class="st3">
			<path class="st4" d="M42.8,8.4c-0.6-0.2-3.1-6.5-3.1-6.5l-2.6,0.5c0.7,1.8,2.2,5.2,2.6,5.4c0.6,0.2,2.4,1.9,2.4,1.9
				c9.1,11.2-3.9,41.1-29.6,37.6c27.6,6.4,42-25.4,32.6-37C45.2,10.3,43.5,8.6,42.8,8.4z"/>
		</g>
	</g>
	<path class="st5" d="M34,3.1l5.8-1.2l3.1,6.5c0,0-3.1-0.4-5.6,1c-0.5-1-1-2.1-1.5-3.1C35.2,5.1,34.6,4,34,3.1z"/>
</g>
</svg>
