<?xml version="1.0" encoding="utf-8"?>
<!-- Generator: Adobe Illustrator 19.0.1, SVG Export Plug-In . SVG Version: 6.00 Build 0)  -->
<svg version="1.1" id="blueberry_x5F_seed" xmlns="http://www.w3.org/2000/svg" xmlns:xlink="http://www.w3.org/1999/xlink" x="0px"
	 y="0px" viewBox="-223 225 512 512" style="enable-background:new -223 225 512 512;" xml:space="preserve">
<style type="text/css">
	.st0{fill:#846623;}
</style>
<g>
	<g>
		<path class="st0" d="M-131.6,535.8c1,1.9,0,3.6-2.3,3.9c-2.3,0.3-6-6.5-3.7-6.8S-132.7,533.9-131.6,535.8z"/>
		<path class="st0" d="M-131.4,536.5c0.6,0.5,0.2,1.8-0.8,2.4c-0.9,0.5-2.4,0.5-2.9-0.1c-0.4-0.5,0.1-1.4,0.2-1.5
			c0.4-0.6,1.2-0.9,1.5-0.9C-133.2,536.4-132,536.1-131.4,536.5z"/>
	</g>
	<g>
		<path class="st0" d="M-130.1,550.8c1,1.9,0,3.6-2.3,3.9s-6-6.5-3.7-6.8S-131.1,548.9-130.1,550.8z"/>
		<path class="st0" d="M-129.9,551.6c0.6,0.5,0.2,1.8-0.8,2.4c-0.9,0.5-2.4,0.5-2.9-0.1c-0.4-0.5,0.1-1.4,0.2-1.5
			c0.4-0.6,1.2-0.9,1.5-0.9C-131.7,551.4-130.4,551.1-129.9,551.6z"/>
	</g>
	<g>
		<path class="st0" d="M-117.8,545.9c1,1.9,0,3.6-2.3,3.9c-2.3,0.3-6-6.5-3.7-6.8C-121.5,542.7-118.8,544-117.8,545.9z"/>
		<path class="st0" d="M-117.6,546.6c0.6,0.5,0.2,1.8-0.8,2.4c-0.9,0.5-2.4,0.5-2.9-0.1c-0.4-0.5,0.1-1.4,0.2-1.5
			c0.4-0.6,1.2-0.9,1.5-0.9C-119.3,546.5-118.1,546.1-117.6,546.6z"/>
	</g>
</g>
<g>
	<g>
		<path class="st0" d="M191.6,533.9c1,1.9,0,3.6-2.3,3.9c-2.3,0.3-6-6.5-3.7-6.8C187.9,530.8,190.6,532.1,191.6,533.9z"/>
		<path class="st0" d="M191.8,534.7c0.6,0.5,0.2,1.8-0.8,2.4c-0.9,0.5-2.4,0.5-2.9-0.1c-0.4-0.5,0.1-1.4,0.2-1.5
			c0.4-0.6,1.2-0.9,1.5-0.9C190,534.5,191.3,534.2,191.8,534.7z"/>
	</g>
	<g>
		<path class="st0" d="M193.1,549c1,1.9,0,3.6-2.3,3.9c-2.3,0.3-6-6.5-3.7-6.8C189.4,545.8,192.1,547.1,193.1,549z"/>
		<path class="st0" d="M193.3,549.7c0.6,0.5,0.2,1.8-0.8,2.4c-0.9,0.5-2.4,0.5-2.9-0.1c-0.4-0.5,0.1-1.4,0.2-1.5
			c0.4-0.6,1.2-0.9,1.5-0.9C191.6,549.6,192.8,549.2,193.3,549.7z"/>
	</g>
	<g>
		<path class="st0" d="M205.4,544c1,1.9,0,3.6-2.3,3.9s-6-6.5-3.7-6.8C201.7,540.8,204.4,542.1,205.4,544z"/>
		<path class="st0" d="M205.6,544.7c0.6,0.5,0.2,1.8-0.8,2.4c-0.9,0.5-2.4,0.5-2.9-0.1c-0.4-0.5,0.1-1.4,0.2-1.5
			c0.4-0.6,1.2-0.9,1.5-0.9C203.9,544.6,205.1,544.3,205.6,544.7z"/>
	</g>
</g>
<g>
	<g>
		<path class="st0" d="M30.9,440.7c1,1.9,0,3.6-2.3,3.9c-2.3,0.3-6-6.5-3.7-6.8S29.9,438.8,30.9,440.7z"/>
		<path class="st0" d="M31.1,441.4c0.6,0.5,0.2,1.8-0.8,2.4c-0.9,0.5-2.4,0.5-2.9-0.1c-0.4-0.5,0.1-1.4,0.2-1.5
			c0.4-0.6,1.2-0.9,1.5-0.9C29.4,441.3,30.6,441,31.1,441.4z"/>
	</g>
	<g>
		<path class="st0" d="M32.4,455.7c1,1.9,0,3.6-2.3,3.9c-2.3,0.3-6-6.5-3.7-6.8C28.7,452.5,31.4,453.8,32.4,455.7z"/>
		<path class="st0" d="M32.6,456.5c0.6,0.5,0.2,1.8-0.8,2.4c-0.9,0.5-2.4,0.5-2.9-0.1c-0.4-0.5,0.1-1.4,0.2-1.5
			c0.4-0.6,1.2-0.9,1.5-0.9C30.9,456.3,32.1,456,32.6,456.5z"/>
	</g>
	<g>
		<path class="st0" d="M44.8,450.7c1,1.9,0,3.6-2.3,3.9c-2.3,0.3-6-6.5-3.7-6.8C41.1,447.6,43.8,448.9,44.8,450.7z"/>
		<path class="st0" d="M45,451.5c0.6,0.5,0.2,1.8-0.8,2.4c-0.9,0.5-2.4,0.5-2.9-0.1c-0.4-0.5,0.1-1.4,0.2-1.5
			c0.4-0.6,1.2-0.9,1.5-0.9C43.2,451.3,44.5,451,45,451.5z"/>
	</g>
</g>
<g>
	<g>
		<path class="st0" d="M28.9,625c1,1.9,0,3.6-2.3,3.9c-2.3,0.3-6-6.5-3.7-6.8C25.2,621.8,27.9,623.1,28.9,625z"/>
		<path class="st0" d="M29.1,625.7c0.6,0.5,0.2,1.8-0.8,2.4c-0.9,0.5-2.4,0.5-2.9-0.1c-0.4-0.5,0.1-1.4,0.2-1.5
			c0.4-0.6,1.2-0.9,1.5-0.9C27.4,625.6,28.6,625.3,29.1,625.7z"/>
	</g>
	<g>
		<path class="st0" d="M30.4,640c1,1.9,0,3.6-2.3,3.9c-2.3,0.3-6-6.5-3.7-6.8C26.7,636.8,29.4,638.1,30.4,640z"/>
		<path class="st0" d="M30.6,640.7c0.6,0.5,0.2,1.8-0.8,2.4c-0.9,0.5-2.4,0.5-2.9-0.1c-0.4-0.5,0.1-1.4,0.2-1.5
			c0.4-0.6,1.2-0.9,1.5-0.9C28.9,640.6,30.1,640.3,30.6,640.7z"/>
	</g>
	<g>
		<path class="st0" d="M42.8,635c1,1.9,0,3.6-2.3,3.9c-2.3,0.3-6-6.5-3.7-6.8C39.1,631.9,41.8,633.2,42.8,635z"/>
		<path class="st0" d="M43,635.8c0.6,0.5,0.2,1.8-0.8,2.4c-0.9,0.5-2.4,0.5-2.9-0.1c-0.4-0.5,0.1-1.4,0.2-1.5
			c0.4-0.6,1.2-0.9,1.5-0.9C41.2,635.6,42.5,635.3,43,635.8z"/>
	</g>
</g>
</svg>
