<?xml version="1.0" encoding="utf-8"?>
<!-- Generator: Adobe Illustrator 19.0.1, SVG Export Plug-In . SVG Version: 6.00 Build 0)  -->
<svg version="1.1" id="cauliflower_x5F_seed" xmlns="http://www.w3.org/2000/svg" xmlns:xlink="http://www.w3.org/1999/xlink"
	 x="0px" y="0px" viewBox="-223 225 512 512" style="enable-background:new -223 225 512 512;" xml:space="preserve">
<style type="text/css">
	.st0{fill:#BC572F;}
	.st1{fill:#9B4527;}
</style>
<g>
	<ellipse transform="matrix(0.8192 0.5735 -0.5735 0.8192 265.2225 62.2258)" class="st0" cx="33.9" cy="451.8" rx="9.7" ry="7.9"/>
	<path class="st1" d="M40.5,458.5c-0.2,1.4-3.8,2.3-6.7,1.5c-2.7-0.7-5.2-3-4.7-4.4c0.4-1.2,3.3-1.3,3.7-1.3
		c2.2-0.1,3.8,0.8,4.5,1.1C38,455.8,40.7,457.2,40.5,458.5z"/>
</g>
<g>
	
		<ellipse transform="matrix(0.8192 0.5735 -0.5735 0.8192 347.4491 -13.1683)" class="st0" cx="194.6" cy="544.5" rx="9.7" ry="7.9"/>
	<path class="st1" d="M201.2,551.2c-0.2,1.4-3.8,2.3-6.7,1.5c-2.7-0.7-5.2-3-4.7-4.4c0.4-1.2,3.3-1.3,3.7-1.3
		c2.2-0.1,3.8,0.8,4.5,1.1C198.7,548.5,201.4,549.9,201.2,551.2z"/>
</g>
<g>
	<ellipse transform="matrix(0.8192 0.5735 -0.5735 0.8192 371.1792 96.7688)" class="st0" cx="32.1" cy="637.1" rx="9.7" ry="7.9"/>
	<path class="st1" d="M38.7,643.8c-0.2,1.4-3.8,2.3-6.7,1.5c-2.7-0.7-5.2-3-4.7-4.4c0.4-1.2,3.3-1.3,3.7-1.3
		c2.2-0.1,3.8,0.8,4.5,1.1C36.1,641.1,38.9,642.5,38.7,643.8z"/>
</g>
<g>
	
		<ellipse transform="matrix(0.8192 0.5735 -0.5735 0.8192 289.6202 172.2861)" class="st0" cx="-128.5" cy="545.5" rx="9.7" ry="7.9"/>
	<path class="st1" d="M-121.9,552.2c-0.2,1.4-3.8,2.3-6.7,1.5c-2.7-0.7-5.2-3-4.7-4.4c0.4-1.2,3.3-1.3,3.7-1.3
		c2.2-0.1,3.8,0.8,4.5,1.1C-124.4,549.5-121.7,550.9-121.9,552.2z"/>
</g>
</svg>
