<?xml version="1.0" encoding="utf-8"?>
<!-- Generator: Adobe Illustrator 19.0.1, SVG Export Plug-In . SVG Version: 6.00 Build 0)  -->
<svg version="1.1" id="blueberry" xmlns="http://www.w3.org/2000/svg" xmlns:xlink="http://www.w3.org/1999/xlink" x="0px" y="0px"
	 viewBox="0 0 50 50" style="enable-background:new 0 0 50 50;" xml:space="preserve">
<style type="text/css">
	.st0{fill:#207F34;}
	.st1{fill:#1A49C1;}
	.st2{fill:#3265D6;}
	.st3{fill:#121C60;}
	.st4{fill:#070707;}
</style>
<g>
	<g>
		<path class="st0" d="M35.9,24.8c-8.2,2.7-11.2-3.5-12-5.8c2.1-0.6,3.1-1,6.3-1.4c1.7,2.3,6.7,3,6.7,3c-3.1-1-4.9-2.6-5.5-3.2
			c0.2,0,4-0.3,5.5-0.9c2.2,1.4,5.2,0.7,5.2,0.7c0-0.1-1.7,0.1-3.9-1.1c4.2-1.9,5.9-4.9,5.9-4.9s-2.5,2.2-6.3,3.9
			c0.9-2.4,2.3-3.4,2.2-3.5c0,0-2.9,1.5-3.5,4c-1.9,0.6-4.4,0.6-5.3,0.7c0-0.2,0.7-2.8,3.4-5.7c0,0-4.4,3-4.5,5.9
			c-2,0.2-2.6,0.2-6.5,1.4c-2.9-7.1,5.9-11.3,10.8-10.5c5.1,0.8,6.5,2.2,13.9-1.6C48.7,14.1,42.6,22.5,35.9,24.8z M13.9,10.5
			c1.7,2.5,2.5,5,2.7,7.1c0,0,0.1-0.1,0.1-0.1c6.9-6.4-5.6-12.6-5.6-12.6s0.1,3.5-0.7,6.8c-0.9,3.8,1.8,9.1,5.7,6.3
			C15.9,15.8,15.3,13.2,13.9,10.5z M23.9,19c0,0-0.4-1.2-0.4-1.2c-3.4,1-5.4,2.4-7,4.7c0.2-1,0.4-2.7,0.1-4.8
			c-0.2,0.2-0.3,0.3-0.5,0.4c0.2,2.3-0.7,4.8-0.8,5.7c-1.2,2-1.6,3.1-2.5,4.9c0,0,0.7,1.3,1.7,0.3C14.6,27.6,18.2,20.2,23.9,19z"/>
	</g>
</g>
<g>
	<g>
		<ellipse class="st1" cx="18.3" cy="30.6" rx="15.1" ry="15.2"/>
		<path class="st2" d="M11.4,38.8c-0.2,0-0.4-0.1-0.6-0.2c-4.7-2.8-4.1-10.2-4-10.5c0.1-0.6,0.6-1.1,1.2-1c0.6,0.1,1.1,0.6,1,1.2
			c0,0.1-0.6,6.3,3,8.4c0.5,0.3,0.7,1,0.4,1.5C12.2,38.6,11.8,38.8,11.4,38.8z"/>
		<polygon class="st3" points="21.4,25.8 19.5,22.8 14.7,23.3 18.3,20.2 17.7,17.5 20.6,18.7 22.6,17.8 22.6,19.8 24.6,21.3 
			22.4,22.2 		"/>
		<polygon class="st4" points="21.6,23.5 20.6,21.9 18,22.1 19.9,20.4 19.6,19 21.2,19.6 22.3,19.1 22.3,20.2 23.3,21 22.1,21.5 		
			"/>
	</g>
</g>
</svg>
