<?xml version="1.0" encoding="utf-8"?>
<!-- Generator: Adobe Illustrator 19.0.1, SVG Export Plug-In . SVG Version: 6.00 Build 0)  -->
<svg version="1.1" id="blueberry_x5F_grow" xmlns="http://www.w3.org/2000/svg" xmlns:xlink="http://www.w3.org/1999/xlink" x="0px"
	 y="0px" viewBox="-223 225 512 512" style="enable-background:new -223 225 512 512;" xml:space="preserve">
<style type="text/css">
	.st0{fill:#71964D;}
</style>
<g>
	<g>
		<path class="st0" d="M236.7,517.7c-15.7,6.9-15.4,11-20.7,20.1c-5.2,8.9-23.4,17.4-31.1,3.6c6.9-4.7,7.7-5.5,10.7-8.5
			c4.8,3.4,15.4,0.4,15.4,0.4c-8.2,0.5-13.3-1.8-13.6-2c1.4-1.4,4.6-5.3,8.1-7.6c5,2.3,11.1-0.4,11.1-0.4c-0.1-0.2-3.7,0.7-8.6-1
			c7.8-4,14.5-5,14.5-5s-7.1-1.2-15.5,3c0.9-5,3.3-7.4,3.2-7.6c0,0-5.1,3.8-5.7,9.1c-2.9,1.6-8.4,7.3-8.7,7.6c-0.2-1.8-0.5-6.8,2-13
			c0,0-5.4,9-4,14.6c-5,4.6-6.9,5.7-10.6,8.2c-2.7-4.3-8.8-17.1,6.4-26.7C202.1,504.8,223.7,506.1,236.7,517.7z M165.1,530.3
			c5.8,2.6,9.7,6.2,12.5,9.6c0-0.1,0.1-0.2,0.1-0.3c5.2-18.7-23.4-16.1-23.4-16.1s4,6.1,6.2,12.7c2.6,7.7,13,14.1,16.7,5
			C174.5,537.5,170.6,533.5,165.1,530.3z M186.4,539.6c0,0-1.2-0.7-1.2-0.7c-3.1,2.2-4.3,4-4.6,6.3c-0.5-0.8-1.4-2.1-3.1-3.5
			c-0.1,0.2-0.2,0.3-0.3,0.5c1.8,1.6,2.5,3.7,3,4.4c0,1.9,0.3,2.9,0.6,4.5c0,0,1.7,0.6,2.1-0.5C181.9,549.6,181,542.9,186.4,539.6z"
			/>
	</g>
</g>
<g>
	<g>
		<path class="st0" d="M77.5,423.6c-15.7,6.9-15.4,11-20.7,20.1c-5.2,8.9-23.4,17.4-31.1,3.6c6.9-4.7,7.7-5.5,10.7-8.5
			c4.8,3.4,15.4,0.4,15.4,0.4c-8.2,0.5-13.3-1.8-13.6-2c1.4-1.4,4.6-5.3,8.1-7.6c5,2.3,11.1-0.4,11.1-0.4c-0.1-0.2-3.7,0.7-8.6-1
			c7.8-4,14.5-5,14.5-5s-7.1-1.2-15.5,3c0.9-5,3.3-7.4,3.2-7.6c0,0-5.1,3.8-5.7,9.1c-2.9,1.6-8.4,7.3-8.7,7.6c-0.2-1.8-0.5-6.8,2-13
			c0,0-5.4,9-4,14.6c-5,4.6-6.9,5.7-10.6,8.2c-2.7-4.3-8.8-17.1,6.4-26.7C42.9,410.6,64.5,411.9,77.5,423.6z M5.9,436.1
			c5.8,2.6,9.7,6.2,12.5,9.6c0-0.1,0.1-0.2,0.1-0.3c5.2-18.7-23.4-16.1-23.4-16.1s4,6.1,6.2,12.7c2.6,7.7,13,14.1,16.7,5
			C15.3,443.3,11.4,439.3,5.9,436.1z M27.2,445.4c0,0-1.2-0.7-1.2-0.7c-3.1,2.2-4.3,4-4.6,6.3c-0.5-0.8-1.4-2.1-3.1-3.5
			c-0.1,0.2-0.2,0.3-0.3,0.5c1.8,1.6,2.5,3.7,3,4.4c0,1.9,0.3,2.9,0.6,4.5c0,0,1.7,0.6,2.1-0.5C22.7,455.4,21.8,448.7,27.2,445.4z"
			/>
	</g>
</g>
<g>
	<g>
		<path class="st0" d="M77.5,612.1c-15.7,6.9-15.4,11-20.7,20.1c-5.2,8.9-23.4,17.4-31.1,3.6c6.9-4.7,7.7-5.5,10.7-8.5
			c4.8,3.4,15.4,0.4,15.4,0.4c-8.2,0.5-13.3-1.8-13.6-2c1.4-1.4,4.6-5.3,8.1-7.6c5,2.3,11.1-0.4,11.1-0.4c-0.1-0.2-3.7,0.7-8.6-1
			c7.8-4,14.5-5,14.5-5s-7.1-1.2-15.5,3c0.9-5,3.3-7.4,3.2-7.6c0,0-5.1,3.8-5.7,9.1c-2.9,1.6-8.4,7.3-8.7,7.6c-0.2-1.8-0.5-6.8,2-13
			c0,0-5.4,9-4,14.6c-5,4.6-6.9,5.7-10.6,8.2c-2.7-4.3-8.8-17.1,6.4-26.7C42.9,599.2,64.5,600.5,77.5,612.1z M5.9,624.6
			c5.8,2.6,9.7,6.2,12.5,9.6c0-0.1,0.1-0.2,0.1-0.3c5.2-18.7-23.4-16.1-23.4-16.1s4,6.1,6.2,12.7c2.6,7.7,13,14.1,16.7,5
			C15.3,631.9,11.4,627.9,5.9,624.6z M27.2,633.9c0,0-1.2-0.7-1.2-0.7c-3.1,2.2-4.3,4-4.6,6.3c-0.5-0.8-1.4-2.1-3.1-3.5
			c-0.1,0.2-0.2,0.3-0.3,0.5c1.8,1.6,2.5,3.7,3,4.4c0,1.9,0.3,2.9,0.6,4.5c0,0,1.7,0.6,2.1-0.5C22.7,644,21.8,637.3,27.2,633.9z"/>
	</g>
</g>
<g>
	<g>
		<path class="st0" d="M-86.1,518.1c-15.7,6.9-15.4,11-20.7,20.1c-5.2,8.9-23.4,17.4-31.1,3.6c6.9-4.7,7.7-5.5,10.7-8.5
			c4.8,3.4,15.4,0.4,15.4,0.4c-8.2,0.5-13.3-1.8-13.6-2c1.4-1.4,4.6-5.3,8.1-7.6c5,2.3,11.1-0.4,11.1-0.4c-0.1-0.2-3.7,0.7-8.6-1
			c7.8-4,14.5-5,14.5-5s-7.1-1.2-15.5,3c0.9-5,3.3-7.4,3.2-7.6c0,0-5.1,3.8-5.7,9.1c-2.9,1.6-8.4,7.3-8.7,7.6c-0.2-1.8-0.5-6.8,2-13
			c0,0-5.4,9-4,14.6c-5,4.6-6.9,5.7-10.6,8.2c-2.7-4.3-8.8-17.1,6.4-26.7C-120.7,505.2-99.1,506.5-86.1,518.1z M-157.7,530.7
			c5.8,2.6,9.7,6.2,12.5,9.6c0-0.1,0.1-0.2,0.1-0.3c5.2-18.7-23.4-16.1-23.4-16.1s4,6.1,6.2,12.7c2.6,7.7,13,14.1,16.7,5
			C-148.3,537.9-152.2,533.9-157.7,530.7z M-136.4,539.9c0,0-1.2-0.7-1.2-0.7c-3.1,2.2-4.3,4-4.6,6.3c-0.5-0.8-1.4-2.1-3.1-3.5
			c-0.1,0.2-0.2,0.3-0.3,0.5c1.8,1.6,2.5,3.7,3,4.4c0,1.9,0.3,2.9,0.6,4.5c0,0,1.7,0.6,2.1-0.5C-140.9,550-141.8,543.3-136.4,539.9z
			"/>
	</g>
</g>
</svg>
