<?xml version="1.0" encoding="utf-8"?>
<!-- Generator: Adobe Illustrator 19.0.1, SVG Export Plug-In . SVG Version: 6.00 Build 0)  -->
<svg version="1.1" id="cactus_x5F_warn" xmlns="http://www.w3.org/2000/svg" xmlns:xlink="http://www.w3.org/1999/xlink" x="0px"
	 y="0px" viewBox="-223 225 512 512" style="enable-background:new -223 225 512 512;" xml:space="preserve">
<style type="text/css">
	.st0{clip-path:url(#SVGID_2_);}
	.st1{fill:#FBD303;}
	.st2{fill:#646B79;}
	.st3{clip-path:url(#SVGID_4_);}
	.st4{fill:#A4E276;}
	.st5{fill:#64C37D;}
	.st6{clip-path:url(#SVGID_6_);}
	.st7{clip-path:url(#SVGID_8_);}
	.st8{font-family:'Arial-Black';}
	.st9{font-size:21.0661px;}
	.st10{font-size:20.1175px;}
</style>
<g>
	<defs>
		<polygon id="SVGID_1_" points="34.5,352.5 239.4,471.5 239.2,519.7 35,401.2 		"/>
	</defs>
	<clipPath id="SVGID_2_">
		<use xlink:href="#SVGID_1_"  style="overflow:visible;"/>
	</clipPath>
	<g class="st0">
		<polygon class="st1" points="34.5,326.5 239.4,445.5 239.2,493.7 35,375.2 		"/>
		<g>
			<polygon class="st2" points="239.4,445.5 227.7,438.7 188.5,464.3 218.4,481.7 239.3,468.2 			"/>
			<polygon class="st2" points="161.1,448.4 131.2,431.1 170.2,405.4 200.2,422.8 			"/>
			<polygon class="st2" points="103.9,415.2 74,397.8 112.8,372 142.8,389.4 			"/>
			<polygon class="st2" points="55.3,338.6 34.7,352.4 35,375.2 46.7,382 85.3,356.1 			"/>
		</g>
	</g>
</g>
<g>
	<defs>
		<polygon id="SVGID_3_" points="-169.8,445.7 34.4,327.1 34.6,375.3 -170.3,494.3 		"/>
	</defs>
	<clipPath id="SVGID_4_">
		<use xlink:href="#SVGID_3_"  style="overflow:visible;"/>
	</clipPath>
	<g class="st3">
		<polygon class="st1" points="-169.8,471.7 34.4,353.1 34.6,401.3 -170.3,520.3 		"/>
		<g>
			<polygon class="st2" points="34.5,378.7 13.6,365.2 -16.3,382.6 22.9,408.1 34.6,401.3 			"/>
			<polygon class="st2" points="-4.6,424.1 -34.6,441.5 -73.6,415.8 -43.7,398.4 			"/>
			<polygon class="st2" points="-62,457.4 -92,474.8 -130.8,449 -100.9,431.7 			"/>
			<polygon class="st2" points="-119.5,490.8 -158.1,464.9 -169.8,471.7 -170.1,494.4 -149.5,508.2 			"/>
		</g>
	</g>
</g>
<g>
	<path class="st4" d="M77.2,542.1c-7.1,0-12.8,5.7-12.8,12.8V572c0,11.9-7,22.2-17.1,27v-18.5V478.1c0-7.1-5.7-12.8-12.8-12.8
		s-12.8,5.7-12.8,12.8v86.7c-10.1-4.8-17.1-15.1-17.1-27v-17.1C4.7,513.7-1,508-8.1,508s-12.8,5.7-12.8,12.8v17.1
		c0,26.2,18.2,48.2,42.7,54v22.8v29.9h12.8h12.8V626c24.4-5.8,42.7-27.8,42.7-54V555C90,547.9,84.3,542.1,77.2,542.1z"/>
	<path class="st5" d="M21.8,477.1v86.7c-10.1-4.8-17.1-15.1-17.1-27v-17.1C4.7,512.7-1,507-8.1,507s-12.8,5.7-12.8,12.8v17.1
		c0,26.2,18.2,48.2,42.7,54v22.8v29.9h12.8V464.3C27.5,464.3,21.8,470.1,21.8,477.1z"/>
</g>
<g>
	<path class="st4" d="M77.2,357.1c-7.1,0-12.8,5.7-12.8,12.8V387c0,11.9-7,22.2-17.1,27v-18.5V293.1c0-7.1-5.7-12.8-12.8-12.8
		s-12.8,5.7-12.8,12.8v86.7c-10.1-4.8-17.1-15.1-17.1-27v-17.1c0-7.1-5.7-12.8-12.8-12.8s-12.8,5.7-12.8,12.8v17.1
		c0,26.2,18.2,48.2,42.7,54v22.8v29.9h12.8h12.8v-18.6c24.4-5.8,42.7-27.8,42.7-54v-17.1C90,362.8,84.3,357.1,77.2,357.1z"/>
	<path class="st5" d="M21.8,292.1v86.7c-10.1-4.8-17.1-15.1-17.1-27v-17.1c0-7.1-5.7-12.8-12.8-12.8s-12.8,5.7-12.8,12.8v17.1
		c0,26.2,18.2,48.2,42.7,54v22.8v29.9h12.8V279.3C27.5,279.3,21.8,285,21.8,292.1z"/>
</g>
<g>
	<path class="st4" d="M236.4,450.7c-7.1,0-12.8,5.7-12.8,12.8v17.1c0,11.9-7,22.2-17.1,27v-18.5V386.7c0-7.1-5.7-12.8-12.8-12.8
		c-7.1,0-12.8,5.7-12.8,12.8v86.7c-10.1-4.8-17.1-15.1-17.1-27v-17.1c0-7.1-5.7-12.8-12.8-12.8c-7.1,0-12.8,5.7-12.8,12.8v17.1
		c0,26.2,18.2,48.2,42.7,54v22.8v29.9h12.8h12.8v-18.6c24.4-5.8,42.7-27.8,42.7-54v-17.1C249.2,456.5,243.5,450.7,236.4,450.7z"/>
	<path class="st5" d="M180.9,385.7v86.7c-10.1-4.8-17.1-15.1-17.1-27v-17.1c0-7.1-5.7-12.8-12.8-12.8c-7.1,0-12.8,5.7-12.8,12.8
		v17.1c0,26.2,18.2,48.2,42.7,54v22.8v29.9h12.8V372.9C186.6,372.9,180.9,378.7,180.9,385.7z"/>
</g>
<g>
	<path class="st4" d="M-86,450.6c-7.1,0-12.8,5.7-12.8,12.8v17.1c0,11.9-7,22.2-17.1,27V489V386.6c0-7.1-5.7-12.8-12.8-12.8
		c-7.1,0-12.8,5.7-12.8,12.8v86.7c-10.1-4.8-17.1-15.1-17.1-27v-17.1c0-7.1-5.7-12.8-12.8-12.8s-12.8,5.7-12.8,12.8v17.1
		c0,26.2,18.2,48.2,42.7,54v22.8V553h12.8h12.8v-18.6c24.4-5.8,42.7-27.8,42.7-54v-17.1C-73.2,456.3-79,450.6-86,450.6z"/>
	<path class="st5" d="M-141.5,385.6v86.7c-10.1-4.8-17.1-15.1-17.1-27v-17.1c0-7.1-5.7-12.8-12.8-12.8s-12.8,5.7-12.8,12.8v17.1
		c0,26.2,18.2,48.2,42.7,54v22.8V552h12.8V372.8C-135.8,372.8-141.5,378.5-141.5,385.6z"/>
</g>
<g>
	<defs>
		<polygon id="SVGID_5_" points="-170.3,472.2 34.7,591.2 34.4,639.4 -169.7,520.8 		"/>
	</defs>
	<clipPath id="SVGID_6_">
		<use xlink:href="#SVGID_5_"  style="overflow:visible;"/>
	</clipPath>
	<g class="st6">
		<polygon class="st1" points="-170.3,446.2 34.7,565.2 34.4,613.4 -169.7,494.8 		"/>
		<g>
			<polygon class="st2" points="34.7,565.2 23,558.4 -16.2,584 13.6,601.3 34.6,587.8 			"/>
			<polygon class="st2" points="-149.4,458.3 -170,472.1 -169.7,494.8 -158.1,501.6 -119.4,475.7 			"/>
		</g>
	</g>
</g>
<g>
	<defs>
		<polygon id="SVGID_7_" points="35.1,565.3 239.2,446.8 239.5,495 34.5,614 		"/>
	</defs>
	<clipPath id="SVGID_8_">
		<use xlink:href="#SVGID_7_"  style="overflow:visible;"/>
	</clipPath>
	<g class="st7">
		<polygon class="st1" points="35.1,591.3 239.2,472.8 239.5,521 34.5,640 		"/>
		<g>
			<polygon class="st2" points="239.3,498.4 218.4,484.9 188.5,502.2 227.7,527.8 239.5,521 			"/>
			<polygon class="st2" points="85.4,610.4 46.7,584.6 35.1,591.3 34.8,614.1 55.4,627.9 			"/>
		</g>
	</g>
</g>
<text transform="matrix(0.5926 0.3431 -0.501 0.8654 -119.4406 521.64)" class="st8 st9">Crime Scene</text>
<text transform="matrix(0.5889 -0.3413 0.5015 0.8652 73.0619 588.9272)" class="st8 st10">Do Not Cross Line</text>
</svg>
