<?xml version="1.0" encoding="utf-8"?>
<!-- Generator: Adobe Illustrator 19.0.1, SVG Export Plug-In . SVG Version: 6.00 Build 0)  -->
<svg version="1.1" id="cactus" xmlns="http://www.w3.org/2000/svg" xmlns:xlink="http://www.w3.org/1999/xlink" x="0px" y="0px"
	 viewBox="0 0 50 50" style="enable-background:new 0 0 50 50;" xml:space="preserve">
<style type="text/css">
	.st0{fill:#A4E276;}
	.st1{fill:#64C37D;}
</style>
<path class="st0" d="M37.2,21.4c-2,0-3.6,1.6-3.6,3.6v4.8c0,3.3-1.9,6.2-4.8,7.5v-5.1V3.6c0-2-1.6-3.6-3.6-3.6s-3.6,1.6-3.6,3.6
	v24.2c-2.8-1.3-4.8-4.2-4.8-7.5v-4.8c0-2-1.6-3.6-3.6-3.6s-3.6,1.6-3.6,3.6v4.8c0,7.3,5.1,13.4,11.9,15.1v6.4V50h3.6h3.6v-5.2
	c6.8-1.6,11.9-7.8,11.9-15.1V25C40.8,23,39.2,21.4,37.2,21.4z"/>
<path class="st1" d="M21.7,3.6v24.2c-2.8-1.3-4.8-4.2-4.8-7.5v-4.8c0-2-1.6-3.6-3.6-3.6s-3.6,1.6-3.6,3.6v4.8
	c0,7.3,5.1,13.4,11.9,15.1v6.4V50h3.6V0C23.3,0,21.7,1.6,21.7,3.6z"/>
</svg>
