<?xml version="1.0" encoding="utf-8"?>
<!-- Generator: Adobe Illustrator 19.0.1, SVG Export Plug-In . SVG Version: 6.00 Build 0)  -->
<svg version="1.1" id="cactus_x5F_harvest" xmlns="http://www.w3.org/2000/svg" xmlns:xlink="http://www.w3.org/1999/xlink" x="0px"
	 y="0px" viewBox="-223 225 512 512" style="enable-background:new -223 225 512 512;" xml:space="preserve">
<style type="text/css">
	.st0{fill:#A4E276;}
	.st1{fill:#64C37D;}
</style>
<g>
	<path class="st0" d="M77.2,542.1c-7.1,0-12.8,5.7-12.8,12.8V572c0,11.9-7,22.2-17.1,27v-18.5V478.1c0-7.1-5.7-12.8-12.8-12.8
		s-12.8,5.7-12.8,12.8v86.7c-10.1-4.8-17.1-15.1-17.1-27v-17.1C4.7,513.7-1,508-8.1,508s-12.8,5.7-12.8,12.8v17.1
		c0,26.2,18.2,48.2,42.7,54v22.8v29.9h12.8h12.8V626c24.4-5.8,42.7-27.8,42.7-54V555C90,547.9,84.3,542.1,77.2,542.1z"/>
	<path class="st1" d="M21.8,477.1v86.7c-10.1-4.8-17.1-15.1-17.1-27v-17.1C4.7,512.7-1,507-8.1,507s-12.8,5.7-12.8,12.8v17.1
		c0,26.2,18.2,48.2,42.7,54v22.8v29.9h12.8V464.3C27.5,464.3,21.8,470.1,21.8,477.1z"/>
</g>
<g>
	<path class="st0" d="M77.2,357.1c-7.1,0-12.8,5.7-12.8,12.8V387c0,11.9-7,22.2-17.1,27v-18.5V293.1c0-7.1-5.7-12.8-12.8-12.8
		s-12.8,5.7-12.8,12.8v86.7c-10.1-4.8-17.1-15.1-17.1-27v-17.1c0-7.1-5.7-12.8-12.8-12.8s-12.8,5.7-12.8,12.8v17.1
		c0,26.2,18.2,48.2,42.7,54v22.8v29.9h12.8h12.8v-18.6c24.4-5.8,42.7-27.8,42.7-54v-17.1C90,362.8,84.3,357.1,77.2,357.1z"/>
	<path class="st1" d="M21.8,292.1v86.7c-10.1-4.8-17.1-15.1-17.1-27v-17.1c0-7.1-5.7-12.8-12.8-12.8s-12.8,5.7-12.8,12.8v17.1
		c0,26.2,18.2,48.2,42.7,54v22.8v29.9h12.8V279.3C27.5,279.3,21.8,285,21.8,292.1z"/>
</g>
<g>
	<path class="st0" d="M236.4,450.7c-7.1,0-12.8,5.7-12.8,12.8v17.1c0,11.9-7,22.2-17.1,27v-18.5V386.7c0-7.1-5.7-12.8-12.8-12.8
		c-7.1,0-12.8,5.7-12.8,12.8v86.7c-10.1-4.8-17.1-15.1-17.1-27v-17.1c0-7.1-5.7-12.8-12.8-12.8c-7.1,0-12.8,5.7-12.8,12.8v17.1
		c0,26.2,18.2,48.2,42.7,54v22.8v29.9h12.8h12.8v-18.6c24.4-5.8,42.7-27.8,42.7-54v-17.1C249.2,456.5,243.5,450.7,236.4,450.7z"/>
	<path class="st1" d="M180.9,385.7v86.7c-10.1-4.8-17.1-15.1-17.1-27v-17.1c0-7.1-5.7-12.8-12.8-12.8c-7.1,0-12.8,5.7-12.8,12.8
		v17.1c0,26.2,18.2,48.2,42.7,54v22.8v29.9h12.8V372.9C186.6,372.9,180.9,378.7,180.9,385.7z"/>
</g>
<g>
	<path class="st0" d="M-86,450.6c-7.1,0-12.8,5.7-12.8,12.8v17.1c0,11.9-7,22.2-17.1,27V489V386.6c0-7.1-5.7-12.8-12.8-12.8
		c-7.1,0-12.8,5.7-12.8,12.8v86.7c-10.1-4.8-17.1-15.1-17.1-27v-17.1c0-7.1-5.7-12.8-12.8-12.8s-12.8,5.7-12.8,12.8v17.1
		c0,26.2,18.2,48.2,42.7,54v22.8V553h12.8h12.8v-18.6c24.4-5.8,42.7-27.8,42.7-54v-17.1C-73.2,456.3-79,450.6-86,450.6z"/>
	<path class="st1" d="M-141.5,385.6v86.7c-10.1-4.8-17.1-15.1-17.1-27v-17.1c0-7.1-5.7-12.8-12.8-12.8s-12.8,5.7-12.8,12.8v17.1
		c0,26.2,18.2,48.2,42.7,54v22.8V552h12.8V372.8C-135.8,372.8-141.5,378.5-141.5,385.6z"/>
</g>
</svg>
