<?xml version="1.0" encoding="utf-8"?>
<!-- Generator: Adobe Illustrator 19.0.1, SVG Export Plug-In . SVG Version: 6.00 Build 0)  -->
<svg version="1.1" id="cactus_x5F_grow" xmlns="http://www.w3.org/2000/svg" xmlns:xlink="http://www.w3.org/1999/xlink" x="0px"
	 y="0px" viewBox="-223 225 512 512" style="enable-background:new -223 225 512 512;" xml:space="preserve">
<style type="text/css">
	.st0{fill:#A4E276;}
</style>
<path class="st0" d="M47.8,609c-2.6,0-4.6,2.1-4.6,4.6v6.2c0,4.3-2.5,8-6.2,9.8v-6.7v-37.1c0-2.6-2.1-4.6-4.6-4.6s-4.6,2.1-4.6,4.6
	v31.4c-3.7-1.7-6.2-5.5-6.2-9.8v-6.2c0-2.6-2.1-4.6-4.6-4.6s-4.6,2.1-4.6,4.6v6.2c0,9.5,6.6,17.5,15.5,19.6v8.3v10.8h4.6H37v-6.7
	c8.9-2.1,15.5-10.1,15.5-19.6v-6.2C52.4,611.1,50.3,609,47.8,609z"/>
<path class="st0" d="M209,516.5c-2.6,0-4.6,2.1-4.6,4.6v6.2c0,4.3-2.5,8-6.2,9.8v-6.7v-37.1c0-2.6-2.1-4.6-4.6-4.6
	c-2.6,0-4.6,2.1-4.6,4.6v31.4c-3.7-1.7-6.2-5.5-6.2-9.8v-6.2c0-2.6-2.1-4.6-4.6-4.6c-2.6,0-4.6,2.1-4.6,4.6v6.2
	c0,9.5,6.6,17.5,15.5,19.6v8.3v10.8h4.6h4.6v-6.7c8.9-2.1,15.5-10.1,15.5-19.6v-6.2C213.7,518.6,211.6,516.5,209,516.5z"/>
<path class="st0" d="M50,423.8c-2.6,0-4.6,2.1-4.6,4.6v6.2c0,4.3-2.5,8-6.2,9.8v-6.7v-37.1c0-2.6-2.1-4.6-4.6-4.6s-4.6,2.1-4.6,4.6
	V432c-3.7-1.7-6.2-5.5-6.2-9.8V416c0-2.6-2.1-4.6-4.6-4.6s-4.6,2.1-4.6,4.6v6.2c0,9.5,6.6,17.5,15.5,19.6v8.3v10.8h4.6h4.6v-6.7
	c8.9-2.1,15.5-10.1,15.5-19.6v-6.2C54.6,425.8,52.6,423.8,50,423.8z"/>
<path class="st0" d="M-113.6,516.5c-2.6,0-4.6,2.1-4.6,4.6v6.2c0,4.3-2.5,8-6.2,9.8v-6.7v-37.1c0-2.6-2.1-4.6-4.6-4.6
	c-2.6,0-4.6,2.1-4.6,4.6v31.4c-3.7-1.7-6.2-5.5-6.2-9.8v-6.2c0-2.6-2.1-4.6-4.6-4.6c-2.6,0-4.6,2.1-4.6,4.6v6.2
	c0,9.5,6.6,17.5,15.5,19.6v8.3v10.8h4.6h4.6v-6.7c8.9-2.1,15.5-10.1,15.5-19.6v-6.2C-109,518.6-111.1,516.5-113.6,516.5z"/>
</svg>
