<?xml version="1.0" encoding="utf-8"?>
<!-- Generator: Adobe Illustrator 19.0.1, SVG Export Plug-In . SVG Version: 6.00 Build 0)  -->
<svg version="1.1" id="carrot_x5F_grow" xmlns="http://www.w3.org/2000/svg" xmlns:xlink="http://www.w3.org/1999/xlink" x="0px"
	 y="0px" viewBox="-223 225 512 512" style="enable-background:new -223 225 512 512;" xml:space="preserve">
<style type="text/css">
	.st0{fill:#99CC33;}
</style>
<g>
	<path class="st0" d="M48.8,599.7c-3-4-8.1,0-11.1,6.1c2-8.1,2-18.2-5-18.2c-10.1,0-9.1,19.2-7.1,27.3c0,1,0,1,1,2c-1,0-2,0-3,0
		c-6.1,2-3,11.1,1,17.2c4,6.1,12.1,14.2,12.1,14.2s2-13.1,6.1-22.2S53.8,605.7,48.8,599.7z"/>
</g>
<g>
	<path class="st0" d="M209.6,505.7c-3-4-8.1,0-11.1,6.1c2-8.1,2-18.2-5-18.2c-10.1,0-9.1,19.2-7.1,27.3c0,1,0,1,1,2c-1,0-2,0-3,0
		c-6.1,2-3,11.1,1,17.2c4,6.1,12.1,14.2,12.1,14.2s2-13.1,6.1-22.2C207.6,522.9,214.7,511.8,209.6,505.7z"/>
</g>
<g>
	<path class="st0" d="M48,412.4c-3-4-8.1,0-11.1,6.1c2-8.1,2-18.2-5-18.2c-10.1,0-9.1,19.2-7.1,27.3c0,1,0,1,1,2c-1,0-2,0-3,0
		c-6.1,2-3,11.1,1,17.2S35.8,461,35.8,461s2-13.1,6.1-22.2C46,429.6,53,418.5,48,412.4z"/>
</g>
<g>
	<path class="st0" d="M-115.2,505.7c-3-4-8.1,0-11.1,6.1c2-8.1,2-18.2-5-18.2c-10.1,0-9.1,19.2-7.1,27.3c0,1,0,1,1,2c-1,0-2,0-3,0
		c-6.1,2-3,11.1,1,17.2c4,6.1,12.1,14.2,12.1,14.2s2-13.1,6.1-22.2C-117.3,522.9-110.2,511.8-115.2,505.7z"/>
</g>
</svg>
