<?xml version="1.0" encoding="utf-8"?>
<!-- Generator: Adobe Illustrator 19.0.1, SVG Export Plug-In . SVG Version: 6.00 Build 0)  -->
<svg version="1.1" id="carrot_x5F_seed" xmlns="http://www.w3.org/2000/svg" xmlns:xlink="http://www.w3.org/1999/xlink" x="0px"
	 y="0px" viewBox="-223 225 512 512" style="enable-background:new -223 225 512 512;" xml:space="preserve">
<style type="text/css">
	.st0{fill:#564520;}
	.st1{fill:#382A15;}
</style>
<g>
	<path class="st0" d="M38.1,643.4c-2.3,2.2-6.9,1.2-10.2-2.2s-4.1-8.1-1.8-10.3c2.3-2.2,6.9-1.2,10.2,2.2
		C39.6,636.6,40.4,641.2,38.1,643.4z"/>
	<g>
		<g>
			<g>
				<path class="st1" d="M38.5,633.8c-3.3-3.3-6.8-4.3-9.1-4.5c-2.5-0.2-4.3,0.3-4.3,0.4c-0.3,0.1-0.5,0.3-0.6,0.6
					c0,0.1-0.6,1.8-0.4,4.4c0.2,2.3,1.2,5.8,4.5,9.1c1.7,1.7,3.4,2.6,5,2.6c0.2,0,0.4,0,0.6,0c1.8-0.2,3.3-1.5,4.4-2.5
					c1.1-1.1,2.3-2.5,2.5-4.4C41.2,637.6,40.4,635.8,38.5,633.8z M39,639.2c-0.1,1-0.7,1.9-2,3.2c-1.2,1.2-2.2,1.9-3.2,2
					c-1.2,0.1-2.5-0.5-3.9-2c-2.3-2.3-3.6-4.9-3.9-7.8c-0.1-1.4,0-2.5,0.1-3.1c1.5-0.3,6.3-0.8,10.8,3.8
					C38.5,636.7,39.2,638,39,639.2z"/>
			</g>
		</g>
		<g>
			<g>
				<path class="st1" d="M32.2,640.4c-0.1-0.1-0.1-0.1-0.2-0.2c-0.4-0.4-1-0.4-1.4,0c-0.4,0.4-0.4,1,0,1.4c0.1,0.1,0.2,0.2,0.2,0.2
					c0.2,0.2,0.4,0.3,0.7,0.3c0.3,0,0.5-0.1,0.7-0.3C32.6,641.4,32.6,640.8,32.2,640.4z"/>
			</g>
		</g>
		<g>
			<g>
				<path class="st1" d="M36.4,640.3c-0.4-0.4-1-0.4-1.4,0c-0.5,0.5-0.8,0.7-1.2,0.8c-0.5,0.2-0.8,0.7-0.7,1.3
					c0.1,0.4,0.5,0.7,1,0.7c0.1,0,0.2,0,0.3,0c0.9-0.3,1.6-0.9,2-1.3C36.8,641.3,36.8,640.7,36.4,640.3z"/>
			</g>
		</g>
	</g>
</g>
<g>
	<path class="st0" d="M200.3,550.8c-2.3,2.2-6.9,1.2-10.2-2.2c-3.3-3.5-4.1-8.1-1.8-10.3c2.3-2.2,6.9-1.2,10.2,2.2
		S202.6,548.6,200.3,550.8z"/>
	<g>
		<g>
			<g>
				<path class="st1" d="M200.7,541.2c-3.3-3.3-6.8-4.3-9.1-4.5c-2.5-0.2-4.3,0.3-4.3,0.4c-0.3,0.1-0.5,0.3-0.6,0.6
					c0,0.1-0.6,1.8-0.4,4.4c0.2,2.3,1.2,5.8,4.5,9.1c1.7,1.7,3.4,2.6,5,2.6c0.2,0,0.4,0,0.6,0c1.8-0.2,3.3-1.5,4.4-2.5
					c1.1-1.1,2.3-2.5,2.5-4.4C203.5,545,202.6,543.2,200.7,541.2z M201.3,546.6c-0.1,1-0.7,1.9-2,3.2c-1.2,1.2-2.2,1.9-3.2,2
					c-1.2,0.1-2.5-0.5-3.9-2c-2.3-2.3-3.6-4.9-3.9-7.8c-0.1-1.4,0-2.5,0.1-3.1c1.5-0.3,6.3-0.8,10.8,3.8
					C200.8,544.1,201.4,545.4,201.3,546.6z"/>
			</g>
		</g>
		<g>
			<g>
				<path class="st1" d="M194.4,547.8c-0.1-0.1-0.1-0.1-0.2-0.2c-0.4-0.4-1-0.4-1.4,0c-0.4,0.4-0.4,1,0,1.4c0.1,0.1,0.2,0.2,0.2,0.2
					c0.2,0.2,0.4,0.3,0.7,0.3c0.3,0,0.5-0.1,0.7-0.3C194.8,548.8,194.8,548.2,194.4,547.8z"/>
			</g>
		</g>
		<g>
			<g>
				<path class="st1" d="M198.6,547.7c-0.4-0.4-1-0.4-1.4,0c-0.5,0.5-0.8,0.7-1.2,0.8c-0.5,0.2-0.8,0.7-0.7,1.3
					c0.1,0.4,0.5,0.7,1,0.7c0.1,0,0.2,0,0.3,0c0.9-0.3,1.6-0.9,2-1.3C199,548.7,199,548,198.6,547.7z"/>
			</g>
		</g>
	</g>
</g>
<g>
	<path class="st0" d="M-122.8,551.4c-2.3,2.2-6.9,1.2-10.2-2.2s-4.1-8.1-1.8-10.3c2.3-2.2,6.9-1.2,10.2,2.2
		C-121.3,544.6-120.5,549.2-122.8,551.4z"/>
	<g>
		<g>
			<g>
				<path class="st1" d="M-122.4,541.9c-3.3-3.3-6.8-4.3-9.1-4.5c-2.5-0.2-4.3,0.3-4.3,0.4c-0.3,0.1-0.5,0.3-0.6,0.6
					c0,0.1-0.6,1.8-0.4,4.4c0.2,2.3,1.2,5.8,4.5,9.1c1.7,1.7,3.4,2.6,5,2.6c0.2,0,0.4,0,0.6,0c1.8-0.2,3.3-1.5,4.4-2.5
					c1.1-1.1,2.3-2.5,2.5-4.4C-119.6,545.6-120.5,543.8-122.4,541.9z M-121.8,547.2c-0.1,1-0.7,1.9-2,3.2c-1.2,1.2-2.2,1.9-3.2,2
					c-1.2,0.1-2.5-0.5-3.9-2c-2.3-2.3-3.6-4.9-3.9-7.8c-0.1-1.4,0-2.5,0.1-3.1c1.5-0.3,6.3-0.8,10.8,3.8
					C-122.3,544.8-121.7,546-121.8,547.2z"/>
			</g>
		</g>
		<g>
			<g>
				<path class="st1" d="M-128.7,548.5c-0.1-0.1-0.1-0.1-0.2-0.2c-0.4-0.4-1-0.4-1.4,0c-0.4,0.4-0.4,1,0,1.4
					c0.1,0.1,0.2,0.2,0.2,0.2c0.2,0.2,0.4,0.3,0.7,0.3c0.3,0,0.5-0.1,0.7-0.3C-128.3,549.5-128.3,548.8-128.7,548.5z"/>
			</g>
		</g>
		<g>
			<g>
				<path class="st1" d="M-124.5,548.3c-0.4-0.4-1-0.4-1.4,0c-0.5,0.5-0.8,0.7-1.2,0.8c-0.5,0.2-0.8,0.7-0.7,1.3
					c0.1,0.4,0.5,0.7,1,0.7c0.1,0,0.2,0,0.3,0c0.9-0.3,1.6-0.9,2-1.3C-124.1,549.3-124.1,548.7-124.5,548.3z"/>
			</g>
		</g>
	</g>
</g>
<g>
	<path class="st0" d="M39.9,458.1c-2.3,2.2-6.9,1.2-10.2-2.2c-3.3-3.5-4.1-8.1-1.8-10.3s6.9-1.2,10.2,2.2S42.2,455.8,39.9,458.1z"/>
	<g>
		<g>
			<g>
				<path class="st1" d="M40.3,448.5c-3.3-3.3-6.8-4.3-9.1-4.5c-2.5-0.2-4.3,0.3-4.3,0.4c-0.3,0.1-0.5,0.3-0.6,0.6
					c0,0.1-0.6,1.8-0.4,4.4c0.2,2.3,1.2,5.8,4.5,9.1c1.7,1.7,3.4,2.6,5,2.6c0.2,0,0.4,0,0.6,0c1.8-0.2,3.3-1.5,4.4-2.5
					c1.1-1.1,2.3-2.5,2.5-4.4C43,452.2,42.2,450.4,40.3,448.5z M40.8,453.9c-0.1,1-0.7,1.9-2,3.2c-1.2,1.2-2.2,1.9-3.2,2
					c-1.2,0.1-2.5-0.5-3.9-2c-2.3-2.3-3.6-4.9-3.9-7.8c-0.1-1.4,0-2.5,0.1-3.1c1.5-0.3,6.3-0.8,10.8,3.8
					C40.3,451.4,41,452.7,40.8,453.9z"/>
			</g>
		</g>
		<g>
			<g>
				<path class="st1" d="M34,455.1c-0.1-0.1-0.1-0.1-0.2-0.2c-0.4-0.4-1-0.4-1.4,0c-0.4,0.4-0.4,1,0,1.4c0.1,0.1,0.2,0.2,0.2,0.2
					c0.2,0.2,0.4,0.3,0.7,0.3c0.3,0,0.5-0.1,0.7-0.3C34.4,456.1,34.4,455.5,34,455.1z"/>
			</g>
		</g>
		<g>
			<g>
				<path class="st1" d="M38.2,454.9c-0.4-0.4-1-0.4-1.4,0c-0.5,0.5-0.8,0.7-1.2,0.8c-0.5,0.2-0.8,0.7-0.7,1.3
					c0.1,0.4,0.5,0.7,1,0.7c0.1,0,0.2,0,0.3,0c0.9-0.3,1.6-0.9,2-1.3C38.6,456,38.6,455.3,38.2,454.9z"/>
			</g>
		</g>
	</g>
</g>
</svg>
