<?xml version="1.0" encoding="utf-8"?>
<!-- Generator: Adobe Illustrator 19.0.1, SVG Export Plug-In . SVG Version: 6.00 Build 0)  -->
<svg version="1.1" id="carrot_x5F_warn" xmlns="http://www.w3.org/2000/svg" xmlns:xlink="http://www.w3.org/1999/xlink" x="0px"
	 y="0px" viewBox="-223 225 512 512" style="enable-background:new -223 225 512 512;" xml:space="preserve">
<style type="text/css">
	.st0{clip-path:url(#SVGID_2_);}
	.st1{fill:#FBD303;}
	.st2{fill:#646B79;}
	.st3{clip-path:url(#SVGID_4_);}
	.st4{fill:#88C057;}
	.st5{fill:#A4E869;}
	.st6{fill:#659C35;}
	.st7{fill:#F2681C;}
	.st8{fill:#ED8F20;}
	.st9{fill:#DD7017;}
	.st10{clip-path:url(#SVGID_6_);}
	.st11{clip-path:url(#SVGID_8_);}
	.st12{font-family:'Arial-Black';}
	.st13{font-size:21.0661px;}
	.st14{font-size:20.1175px;}
</style>
<g>
	<defs>
		<polygon id="SVGID_1_" points="-174,464.3 30.2,345.8 30.4,393.9 -174.5,512.9 		"/>
	</defs>
	<clipPath id="SVGID_2_">
		<use xlink:href="#SVGID_1_"  style="overflow:visible;"/>
	</clipPath>
	<g class="st0">
		<polygon class="st1" points="-174,490.3 30.2,371.7 30.4,419.9 -174.5,538.9 		"/>
		<g>
			<polygon class="st2" points="30.3,397.3 9.4,383.8 -20.5,401.2 18.7,426.7 30.4,419.9 			"/>
			<polygon class="st2" points="-8.8,442.7 -38.8,460.1 -77.8,434.4 -47.9,417 			"/>
			<polygon class="st2" points="-66.2,476 -96.2,493.5 -135,467.6 -105.1,450.3 			"/>
			<polygon class="st2" points="-123.7,509.4 -162.3,483.5 -174,490.3 -174.3,513 -153.7,526.8 			"/>
		</g>
	</g>
</g>
<g>
	<defs>
		<polygon id="SVGID_3_" points="30.3,371.1 235.2,490.1 235,538.3 30.8,419.8 		"/>
	</defs>
	<clipPath id="SVGID_4_">
		<use xlink:href="#SVGID_3_"  style="overflow:visible;"/>
	</clipPath>
	<g class="st3">
		<polygon class="st1" points="30.3,345.1 235.2,464.1 235,512.3 30.8,393.8 		"/>
		<g>
			<polygon class="st2" points="235.2,464.1 223.5,457.3 184.3,482.9 214.2,500.3 235.1,486.8 			"/>
			<polygon class="st2" points="156.9,467 127,449.7 166,424 196,441.4 			"/>
			<polygon class="st2" points="99.7,433.8 69.8,416.4 108.6,390.6 138.6,408 			"/>
			<polygon class="st2" points="51.1,357.3 30.5,371 30.8,393.8 42.5,400.6 81.1,374.7 			"/>
		</g>
	</g>
</g>
<g>
	<path class="st4" d="M34.9,586.5c0,0,15.9-54.1,66.2-45.3c0,0,12.1,1.3,13.7,12c1.5,10.5-9.6,18.3-20.8,16.1
		C83.9,567.4,66,569.6,34.9,586.5z"/>
	<path class="st4" d="M34.9,586.5c0,0-10.9-55.1-57.9-49.8c0,0-16.8,0.3-22.4,10.9c-5.2,9.9,4.6,20.8,15.5,18.3
		C-17.9,563.2,3.1,564.4,34.9,586.5z"/>
	<path class="st4" d="M102.1,543.7c0,0,0.4,0.1,1,0.2c0.1-1.4,0.2-2.7,0.1-4.2C102,526.5,91.6,525,91.6,525
		c-42.7-10.2-57.1,57.4-57.1,57.4c2.1-1.7,4.2-3.3,6.1-4.8C48.5,562.3,66.8,537.6,102.1,543.7z"/>
	<path class="st5" d="M-22.9,536.7c36.2-4.1,51,27.8,55.8,42.6c0.2,0.2,0.4,0.4,0.7,0.6c0,0-8.5-68.5-48.6-61.3
		c0,0-14.4,0.6-19.3,13.9c-0.8,2.3-1.2,4.6-1.3,6.9C-29.4,536.8-22.9,536.7-22.9,536.7z"/>
	<path class="st6" d="M35.7,496.3c-16.8,3-20.6,25.6-20.6,25.6c0.3,4.7,0.9,9.4,1.8,14.1c10.6,15.1,15.3,37.7,17.1,48.2
		c0.6,1.1,1.1,2.1,1.5,2.8c1.9-8,8-30.8,20.2-46.5c1.4-5.7,2.4-11.5,2.7-17C60.1,493.6,35.7,496.3,35.7,496.3z"/>
	<path class="st5" d="M34.9,586.5c0,0,15.9-54.1,66.2-45.3c0,0,12.1,1.3,13.7,12c1.5,10.5-9.6,18.3-20.8,16.1
		C83.9,567.4,66,569.6,34.9,586.5z"/>
	<g>
		<path class="st7" d="M34,581.5c0.7,2.3,0.9,3.7,0.9,3.7s0.6-2,1.9-5.3C35.9,580.5,34.9,581,34,581.5z"/>
		<path class="st8" d="M30.4,646.6c11.3-0.7,22.6-1.3,33.9-0.9c5.8-30.3,8.7-55.5,5.8-62.4c-1.9-4.5-5.1-7.8-8.8-10.2
			c-7.5,2.8-16.2,6.7-26.4,12.3c-10.5-7.3-19.8-12.3-28-15.7c-5,2.2-9.5,5.5-12.3,10.9c-3.6,6.9-2.4,34.3,1.4,66.6
			C7.5,646.4,18.9,646.4,30.4,646.6z"/>
	</g>
	<g>
		<path class="st9" d="M61.2,589c-8,3.2-17.2,4.3-27.4,3.1c-2.2-0.2-4.1,1.3-4.4,3.5c-0.2,2.2,1.3,4.1,3.5,4.4
			c11.5,1.3,22,0.1,31.3-3.6c0.5-0.2,0.9-0.4,1.2-0.8c1.2-1.1,1.6-2.8,1-4.4C65.6,589.2,63.3,588.2,61.2,589z"/>
		<g>
			<path class="st9" d="M-7.2,610.3c1.4-0.8,3.2-0.6,4.4,0.5c4.9,4.2,13,8.1,20,7.1c2.2-0.3,4.1,1.2,4.4,3.4
				c0.2,1.3-0.3,2.6-1.2,3.4c-0.6,0.5-1.3,0.9-2.1,1c-9.5,1.3-19.2-3.3-25.1-8"/>
			<path class="st9" d="M18.4,625.7c0.8-0.1,1.6-0.5,2.1-1c0.9-0.8,1.4-2.1,1.2-3.4c-0.3-2.2-2.3-3.7-4.4-3.4
				c-7.1,1-15.2-2.9-20-7.1c-1.3-1.1-3.1-1.2-4.4-0.5c0.1,2.3,0.3,4.8,0.4,7.3C-0.8,622.3,8.8,627,18.4,625.7z"/>
		</g>
		<g>
			<path class="st9" d="M61.3,645.5c1.2-0.6,2.3-1.3,3.3-2l1.3-7.4c-1.3-0.9-3.2-1-4.6,0c-5.2,3.9-13.5,7.1-20.5,5.6
				c-2.1-0.4-4.2,0.9-4.7,3c-0.1,0.4-0.1,0.9,0,1.3C44.6,645.7,53,645.4,61.3,645.5z"/>
			<path class="st9" d="M61.3,645.5c1.2-0.6,2.3-1.3,3.3-2c0.5-2.5,0.9-4.9,1.3-7.4c-1.4-0.9-3.2-1-4.6,0
				c-5.2,3.9-13.5,7.1-20.5,5.6c-2.1-0.4-4.2,0.9-4.7,3c-0.1,0.4-0.1,0.9,0,1.3C44.6,645.7,53,645.4,61.3,645.5z"/>
		</g>
	</g>
</g>
<g>
	<path class="st4" d="M-125.7,494.2c0,0,15.9-54.1,66.2-45.3c0,0,12.1,1.3,13.7,12c1.5,10.5-9.6,18.3-20.8,16.1
		C-76.7,475.1-94.6,477.3-125.7,494.2z"/>
	<path class="st4" d="M-125.7,494.2c0,0-10.9-55.1-57.9-49.8c0,0-16.8,0.3-22.4,10.9c-5.2,9.9,4.6,20.8,15.5,18.3
		C-178.5,470.8-157.5,472.1-125.7,494.2z"/>
	<path class="st4" d="M-58.5,451.4c0,0,0.4,0.1,1,0.2c0.1-1.4,0.2-2.7,0.1-4.2c-1.1-13.3-11.5-14.7-11.5-14.7
		c-42.7-10.2-57.1,57.4-57.1,57.4c2.1-1.7,4.2-3.3,6.1-4.8C-112.1,470-93.7,445.3-58.5,451.4z"/>
	<path class="st5" d="M-183.5,444.4c36.2-4.1,51,27.8,55.8,42.6c0.2,0.2,0.4,0.4,0.7,0.6c0,0-8.5-68.5-48.6-61.3
		c0,0-14.4,0.6-19.3,13.9c-0.8,2.3-1.2,4.6-1.3,6.9C-190,444.5-183.5,444.4-183.5,444.4z"/>
	<path class="st6" d="M-124.9,404c-16.8,3-20.6,25.6-20.6,25.6c0.3,4.7,0.9,9.4,1.8,14.1c10.6,15.1,15.3,37.7,17.1,48.2
		c0.6,1.1,1.1,2.1,1.5,2.8c1.9-8,8-30.8,20.2-46.5c1.4-5.7,2.4-11.5,2.7-17C-100.5,401.3-124.9,404-124.9,404z"/>
	<path class="st5" d="M-125.7,494.2c0,0,15.9-54.1,66.2-45.3c0,0,12.1,1.3,13.7,12c1.5,10.5-9.6,18.3-20.8,16.1
		C-76.7,475.1-94.6,477.3-125.7,494.2z"/>
	<g>
		<path class="st7" d="M-126.6,489.2c0.7,2.3,0.9,3.7,0.9,3.7s0.6-2,1.9-5.3C-124.7,488.1-125.6,488.6-126.6,489.2z"/>
		<path class="st8" d="M-130.2,554.2c11.3-0.7,22.6-1.3,33.9-0.9c5.8-30.3,8.7-55.5,5.8-62.4c-1.9-4.5-5.1-7.8-8.8-10.2
			c-7.5,2.8-16.2,6.7-26.4,12.3c-10.5-7.3-19.8-12.3-28-15.7c-5,2.2-9.5,5.5-12.3,10.9c-3.6,6.9-2.4,34.3,1.4,66.6
			C-153.1,554.1-141.6,554-130.2,554.2z"/>
	</g>
	<g>
		<path class="st9" d="M-99.3,496.7c-8,3.2-17.2,4.3-27.4,3.1c-2.2-0.2-4.1,1.3-4.4,3.5c-0.2,2.2,1.3,4.1,3.5,4.4
			c11.5,1.3,22,0.1,31.3-3.6c0.5-0.2,0.9-0.4,1.2-0.8c1.2-1.1,1.6-2.8,1-4.4C-95,496.8-97.3,495.9-99.3,496.7z"/>
		<g>
			<path class="st9" d="M-167.8,518c1.4-0.8,3.2-0.6,4.4,0.5c4.9,4.2,13,8.1,20,7.1c2.2-0.3,4.1,1.2,4.4,3.4
				c0.2,1.3-0.3,2.6-1.2,3.4c-0.6,0.5-1.3,0.9-2.1,1c-9.5,1.3-19.2-3.3-25.1-8"/>
			<path class="st9" d="M-142.2,533.4c0.8-0.1,1.6-0.5,2.1-1c0.9-0.8,1.4-2.1,1.2-3.4c-0.3-2.2-2.3-3.7-4.4-3.4
				c-7.1,1-15.2-2.9-20-7.1c-1.3-1.1-3.1-1.2-4.4-0.5c0.1,2.3,0.3,4.8,0.4,7.3C-161.4,530-151.8,534.7-142.2,533.4z"/>
		</g>
		<g>
			<path class="st9" d="M-99.2,553.2c1.2-0.6,2.3-1.3,3.3-2l1.3-7.4c-1.3-0.9-3.2-1-4.6,0c-5.2,3.9-13.5,7.1-20.5,5.6
				c-2.1-0.4-4.2,0.9-4.7,3c-0.1,0.4-0.1,0.9,0,1.3C-116,553.4-107.6,553.1-99.2,553.2z"/>
			<path class="st9" d="M-99.2,553.2c1.2-0.6,2.3-1.3,3.3-2c0.5-2.5,0.9-4.9,1.3-7.4c-1.4-0.9-3.2-1-4.6,0
				c-5.2,3.9-13.5,7.1-20.5,5.6c-2.1-0.4-4.2,0.9-4.7,3c-0.1,0.4-0.1,0.9,0,1.3C-116,553.4-107.6,553.1-99.2,553.2z"/>
		</g>
	</g>
</g>
<g>
	<path class="st4" d="M197.6,494.2c0,0,15.9-54.1,66.2-45.3c0,0,12.1,1.3,13.7,12c1.5,10.5-9.6,18.3-20.8,16.1
		C246.5,475.1,228.6,477.3,197.6,494.2z"/>
	<path class="st4" d="M197.6,494.2c0,0-10.9-55.1-57.9-49.8c0,0-16.8,0.3-22.4,10.9c-5.2,9.9,4.6,20.8,15.5,18.3
		C144.7,470.8,165.7,472.1,197.6,494.2z"/>
	<path class="st4" d="M264.8,451.4c0,0,0.4,0.1,1,0.2c0.1-1.4,0.2-2.7,0.1-4.2c-1.1-13.3-11.5-14.7-11.5-14.7
		c-42.7-10.2-57.1,57.4-57.1,57.4c2.1-1.7,4.2-3.3,6.1-4.8C211.2,470,229.5,445.3,264.8,451.4z"/>
	<path class="st5" d="M139.7,444.4c36.2-4.1,51,27.8,55.8,42.6c0.2,0.2,0.4,0.4,0.7,0.6c0,0-8.5-68.5-48.6-61.3
		c0,0-14.4,0.6-19.3,13.9c-0.8,2.3-1.2,4.6-1.3,6.9C133.3,444.5,139.7,444.4,139.7,444.4z"/>
	<path class="st6" d="M198.4,404c-16.8,3-20.6,25.6-20.6,25.6c0.3,4.7,0.9,9.4,1.8,14.1c10.6,15.1,15.3,37.7,17.1,48.2
		c0.6,1.1,1.1,2.1,1.5,2.8c1.9-8,8-30.8,20.2-46.5c1.4-5.7,2.4-11.5,2.7-17C222.8,401.3,198.4,404,198.4,404z"/>
	<path class="st5" d="M197.6,494.2c0,0,15.9-54.1,66.2-45.3c0,0,12.1,1.3,13.7,12c1.5,10.5-9.6,18.3-20.8,16.1
		C246.5,475.1,228.6,477.3,197.6,494.2z"/>
	<g>
		<path class="st7" d="M196.6,489.2c0.7,2.3,0.9,3.7,0.9,3.7s0.6-2,1.9-5.3C198.6,488.1,197.6,488.6,196.6,489.2z"/>
		<path class="st8" d="M193.1,554.2c11.3-0.7,22.6-1.3,33.9-0.9c5.8-30.3,8.7-55.5,5.8-62.4c-1.9-4.5-5.1-7.8-8.8-10.2
			c-7.5,2.8-16.2,6.7-26.4,12.3c-10.5-7.3-19.8-12.3-28-15.7c-5,2.2-9.5,5.5-12.3,10.9c-3.6,6.9-2.4,34.3,1.4,66.6
			C170.2,554.1,181.6,554,193.1,554.2z"/>
	</g>
	<g>
		<path class="st9" d="M223.9,496.7c-8,3.2-17.2,4.3-27.4,3.1c-2.2-0.2-4.1,1.3-4.4,3.5c-0.2,2.2,1.3,4.1,3.5,4.4
			c11.5,1.3,22,0.1,31.3-3.6c0.5-0.2,0.9-0.4,1.2-0.8c1.2-1.1,1.6-2.8,1-4.4C228.2,496.8,225.9,495.9,223.9,496.7z"/>
		<g>
			<path class="st9" d="M155.5,518c1.4-0.8,3.2-0.6,4.4,0.5c4.9,4.2,13,8.1,20,7.1c2.2-0.3,4.1,1.2,4.4,3.4c0.2,1.3-0.3,2.6-1.2,3.4
				c-0.6,0.5-1.3,0.9-2.1,1c-9.5,1.3-19.2-3.3-25.1-8"/>
			<path class="st9" d="M181,533.4c0.8-0.1,1.6-0.5,2.1-1c0.9-0.8,1.4-2.1,1.2-3.4c-0.3-2.2-2.3-3.7-4.4-3.4c-7.1,1-15.2-2.9-20-7.1
				c-1.3-1.1-3.1-1.2-4.4-0.5c0.1,2.3,0.3,4.8,0.4,7.3C161.8,530,171.5,534.7,181,533.4z"/>
		</g>
		<g>
			<path class="st9" d="M224,553.2c1.2-0.6,2.3-1.3,3.3-2l1.3-7.4c-1.3-0.9-3.2-1-4.6,0c-5.2,3.9-13.5,7.1-20.5,5.6
				c-2.1-0.4-4.2,0.9-4.7,3c-0.1,0.4-0.1,0.9,0,1.3C207.3,553.4,215.7,553.1,224,553.2z"/>
			<path class="st9" d="M224,553.2c1.2-0.6,2.3-1.3,3.3-2c0.5-2.5,0.9-4.9,1.3-7.4c-1.4-0.9-3.2-1-4.6,0c-5.2,3.9-13.5,7.1-20.5,5.6
				c-2.1-0.4-4.2,0.9-4.7,3c-0.1,0.4-0.1,0.9,0,1.3C207.3,553.4,215.7,553.1,224,553.2z"/>
		</g>
	</g>
</g>
<g>
	<path class="st4" d="M36.8,400.9c0,0,15.9-54.1,66.2-45.3c0,0,12.1,1.3,13.7,12c1.5,10.5-9.6,18.3-20.8,16.1
		C85.7,381.7,67.8,383.9,36.8,400.9z"/>
	<path class="st4" d="M36.8,400.9c0,0-10.9-55.1-57.9-49.8c0,0-16.8,0.3-22.4,10.9c-5.2,9.9,4.6,20.8,15.5,18.3
		C-16.1,377.5,4.9,378.7,36.8,400.9z"/>
	<path class="st4" d="M103.9,358.1c0,0,0.4,0.1,1,0.2c0.1-1.4,0.2-2.7,0.1-4.2c-1.1-13.3-11.5-14.7-11.5-14.7
		c-42.7-10.2-57.1,57.4-57.1,57.4c2.1-1.7,4.2-3.3,6.1-4.8C50.4,376.7,68.7,351.9,103.9,358.1z"/>
	<path class="st5" d="M-21.1,351.1c36.2-4.1,51,27.8,55.8,42.6c0.2,0.2,0.4,0.4,0.7,0.6c0,0-8.5-68.5-48.6-61.3
		c0,0-14.4,0.6-19.3,13.9c-0.8,2.3-1.2,4.6-1.3,6.9C-27.5,351.2-21.1,351.1-21.1,351.1z"/>
	<path class="st6" d="M37.5,310.6c-16.8,3-20.6,25.6-20.6,25.6c0.3,4.7,0.9,9.4,1.8,14.1c10.6,15.1,15.3,37.7,17.1,48.2
		c0.6,1.1,1.1,2.1,1.5,2.8c1.9-8,8-30.8,20.2-46.5c1.4-5.7,2.4-11.5,2.7-17C62,307.9,37.5,310.6,37.5,310.6z"/>
	<path class="st5" d="M36.8,400.9c0,0,15.9-54.1,66.2-45.3c0,0,12.1,1.3,13.7,12c1.5,10.5-9.6,18.3-20.8,16.1
		C85.7,381.7,67.8,383.9,36.8,400.9z"/>
	<g>
		<path class="st7" d="M35.8,395.9c0.7,2.3,0.9,3.7,0.9,3.7s0.6-2,1.9-5.3C37.7,394.8,36.8,395.3,35.8,395.9z"/>
		<path class="st8" d="M32.3,460.9c11.3-0.7,22.6-1.3,33.9-0.9c5.8-30.3,8.7-55.5,5.8-62.4c-1.9-4.5-5.1-7.8-8.8-10.2
			c-7.5,2.8-16.2,6.7-26.4,12.3c-10.5-7.3-19.8-12.3-28-15.7c-5,2.2-9.5,5.5-12.3,10.9c-3.6,6.9-2.4,34.3,1.4,66.6
			C9.3,460.7,20.8,460.7,32.3,460.9z"/>
	</g>
	<g>
		<path class="st9" d="M63.1,403.3c-8,3.2-17.2,4.3-27.4,3.1c-2.2-0.2-4.1,1.3-4.4,3.5c-0.2,2.2,1.3,4.1,3.5,4.4
			c11.5,1.3,22,0.1,31.3-3.6c0.5-0.2,0.9-0.4,1.2-0.8c1.2-1.1,1.6-2.8,1-4.4C67.4,403.5,65.1,402.5,63.1,403.3z"/>
		<g>
			<path class="st9" d="M-5.3,424.7c1.4-0.8,3.2-0.6,4.4,0.5c4.9,4.2,13,8.1,20,7.1c2.2-0.3,4.1,1.2,4.4,3.4
				c0.2,1.3-0.3,2.6-1.2,3.4c-0.6,0.5-1.3,0.9-2.1,1c-9.5,1.3-19.2-3.3-25.1-8"/>
			<path class="st9" d="M20.2,440c0.8-0.1,1.6-0.5,2.1-1c0.9-0.8,1.4-2.1,1.2-3.4c-0.3-2.2-2.3-3.7-4.4-3.4c-7.1,1-15.2-2.9-20-7.1
				c-1.3-1.1-3.1-1.2-4.4-0.5c0.1,2.3,0.3,4.8,0.4,7.3C1,436.7,10.7,441.3,20.2,440z"/>
		</g>
		<g>
			<path class="st9" d="M63.2,459.9c1.2-0.6,2.3-1.3,3.3-2l1.3-7.4c-1.3-0.9-3.2-1-4.6,0c-5.2,3.9-13.5,7.1-20.5,5.6
				c-2.1-0.4-4.2,0.9-4.7,3c-0.1,0.4-0.1,0.9,0,1.3C46.5,460.1,54.8,459.8,63.2,459.9z"/>
			<path class="st9" d="M63.2,459.9c1.2-0.6,2.3-1.3,3.3-2c0.5-2.5,0.9-4.9,1.3-7.4c-1.4-0.9-3.2-1-4.6,0
				c-5.2,3.9-13.5,7.1-20.5,5.6c-2.1-0.4-4.2,0.9-4.7,3c-0.1,0.4-0.1,0.9,0,1.3C46.5,460.1,54.8,459.8,63.2,459.9z"/>
		</g>
	</g>
</g>
<g>
	<defs>
		<polygon id="SVGID_5_" points="-174.5,490.8 30.5,609.8 30.2,658 -173.9,539.4 		"/>
	</defs>
	<clipPath id="SVGID_6_">
		<use xlink:href="#SVGID_5_"  style="overflow:visible;"/>
	</clipPath>
	<g class="st10">
		<polygon class="st1" points="-174.5,464.8 30.5,583.8 30.2,632 -173.9,513.5 		"/>
		<g>
			<polygon class="st2" points="30.5,583.8 18.7,577 -20.5,602.6 9.4,619.9 30.3,606.4 			"/>
			<polygon class="st2" points="-153.6,476.9 -174.2,490.7 -173.9,513.5 -162.3,520.2 -123.6,494.3 			"/>
		</g>
	</g>
</g>
<g>
	<defs>
		<polygon id="SVGID_7_" points="30.9,584 235,465.4 235.3,513.6 30.3,632.6 		"/>
	</defs>
	<clipPath id="SVGID_8_">
		<use xlink:href="#SVGID_7_"  style="overflow:visible;"/>
	</clipPath>
	<g class="st11">
		<polygon class="st1" points="30.9,610 235,491.4 235.3,539.6 30.3,658.6 		"/>
		<g>
			<polygon class="st2" points="235.1,517 214.2,503.5 184.3,520.8 223.5,546.4 235.3,539.6 			"/>
			<polygon class="st2" points="81.2,629.1 42.5,603.2 30.9,610 30.6,632.7 51.2,646.5 			"/>
		</g>
	</g>
</g>
<text transform="matrix(0.5926 0.3431 -0.501 0.8654 -123.6441 540.2488)" class="st12 st13">Crime Scene</text>
<text transform="matrix(0.5889 -0.3413 0.5015 0.8652 68.8584 607.5359)" class="st12 st14">Do Not Cross Line</text>
</svg>
