<?xml version="1.0" encoding="utf-8"?>
<!-- Generator: Adobe Illustrator 19.0.1, SVG Export Plug-In . SVG Version: 6.00 Build 0)  -->
<svg version="1.1" id="cabbage" xmlns="http://www.w3.org/2000/svg" xmlns:xlink="http://www.w3.org/1999/xlink" x="0px" y="0px"
	 viewBox="0 0 50 50" style="enable-background:new 0 0 50 50;" xml:space="preserve">
<style type="text/css">
	.st0{fill:#82B236;}
	.st1{fill:#B4B56F;}
	.st2{fill:#D8D5A7;}
	.st3{display:none;fill:#D8D5A7;}
	.st4{display:none;fill:#E8E6BF;}
	.st5{fill:#E8E6BF;}
	.st6{fill:#7EA532;}
	.st7{fill:#C3C979;}
	.st8{fill:#BEBF77;}
</style>
<g>
	<g>
		<g>
			<path class="st0" d="M2.6,29.1c-0.3-0.7-0.6-1.4-0.9-2.2c0,0-2.7-5.3,0.4-6.6c3.1-1.3,13,7.1,15.8,4C17.8,24.3,9.1,43.6,2.6,29.1
				z"/>
			<path class="st1" d="M6.6,23.4c0.5,0.4,0.9,0.9,1.3,1.5c-0.6,0-1.2,0-1.8,0C6,25,5.8,25,5.6,25c-0.8-0.6-1.6-1-2.4-1
				c-0.2,0-0.4,0-0.6,0.1c0.6,0,1.3,0.2,1.9,0.6C4.8,24.8,5,25,5.2,25.1c-0.9,0.2-1.7,0.4-2.4,0.8c-0.2,0.1-0.4,0.2-0.6,0.3
				c-0.1,0.1-0.2,0.1-0.3,0.2c0,0-0.1,0.1-0.1,0.1c0,0-0.1,0-0.1,0.1c0,0.1,0.1,0,0.1,0c0.1,0,0.1,0,0.2,0c0.1,0,0.2,0,0.3-0.1
				c0.2,0,0.4-0.1,0.6-0.1c0.5-0.1,1-0.2,1.5-0.3c-0.1,0.4-0.2,0.7-0.3,1c-0.1,0.3-0.3,0.6-0.5,0.9c0.2-0.2,0.4-0.4,0.6-0.6
				c0.2-0.2,0.3-0.5,0.5-0.8c0.1-0.2,0.1-0.3,0.2-0.5c0.6-0.1,1.1-0.1,1.7-0.2c0.2,0,0.3,0,0.5,0c-0.1,0.8-0.3,1.5-0.6,2.1
				c-0.1,0.2-0.2,0.3-0.3,0.5c0.5-0.5,0.9-1.2,1.1-2c0.1-0.2,0.1-0.4,0.2-0.7c0.7,0,1.4,0,2.2,0.1c0.2,0,0.4,0.1,0.7,0.1
				c0,0.7,0,1.4-0.1,2c-0.1,0.6-0.2,1.2-0.5,1.7c-0.1,0.3-0.3,0.6-0.5,0.8c0.4-0.4,0.7-0.8,1-1.4c0.2-0.6,0.4-1.2,0.5-1.9
				c0-0.4,0.1-0.8,0.1-1.2c0.3,0.1,0.7,0.2,1.1,0.3c0,0,0.1,0,0.1,0c0.4,0.1,0.9,0.3,1.3,0.5c0.4,0.2,0.9,0.4,1.3,0.7
				c0.9,0.5,1.9,1,2.8,1.5c0.5,0.3,0.9,0.5,1.4,0.8c0,0,0.1,0.1,0.1,0c0-0.1-0.1-0.1-0.1-0.1c-0.1-0.1-0.2-0.2-0.3-0.2
				c-0.2-0.2-0.5-0.3-0.7-0.5c-0.9-0.6-1.9-1.2-2.8-1.7c-0.4-0.3-0.9-0.5-1.3-0.8c-0.4-0.2-0.9-0.4-1.3-0.6c-0.1,0-0.2-0.1-0.3-0.1
				c-0.1-0.3-0.3-0.5-0.5-0.7c-0.2-0.2-0.3-0.5-0.5-0.7c-0.1-0.2-0.3-0.3-0.4-0.5c-0.1-0.2-0.3-0.4-0.5-0.6
				c-0.4-0.4-0.7-0.8-1.1-1.1c-0.4-0.4-0.9-0.7-1.3-0.9c0.7,0.5,1.5,1.2,2.1,1.9c0.1,0.2,0.3,0.3,0.4,0.5c0.1,0.1,0.1,0.2,0.2,0.3
				c0.1,0.1,0.2,0.3,0.3,0.4c0.1,0.2,0.2,0.3,0.3,0.5c0.2,0.3,0.3,0.5,0.4,0.8c-0.4-0.1-0.8-0.3-1.2-0.3c-0.3-0.1-0.6-0.1-0.8-0.2
				C9,25.1,8.7,25,8.3,25c-0.8-1.1-1.8-2-2.9-2.6c-0.3-0.1-0.6-0.3-0.8-0.3C5.3,22.4,6,22.8,6.6,23.4z"/>
		</g>
		<path class="st2" d="M45.6,26.3c0-0.9-0.5-1.7-1.2-2.1c0.4-0.7,0.6-1.5,0.6-2.4c0-3-2.5-5.5-5.6-5.5c-0.8,0-1.6,0.2-2.3,0.5
			C36.3,15.7,35,15,33.5,15c-1.7,0-3.2,0.9-4,2.3c-0.8-0.6-1.9-0.9-3-0.9c-2.9,0-5.2,2.3-5.2,5.1c0,0.2,0,0.4,0,0.6
			c-2,0.7-3.5,2.6-3.5,4.8c0,1.7,0.9,3.3,2.3,4.2c-0.5,0.7-0.9,1.6-0.9,2.6c0,2.4,2,4.4,4.5,4.4c1,0,2-0.4,2.8-0.9
			c1,1.4,2.7,2.3,4.5,2.3c2,0,3.7-1,4.7-2.5c0.7,1.1,1.9,1.9,3.3,1.9c2.1,0,3.8-1.7,3.8-3.8c0-0.5-0.1-0.9-0.2-1.3
			c1.4-0.6,2.3-1.9,2.3-3.5c0-0.7-0.2-1.4-0.6-2C45.1,28,45.6,27.2,45.6,26.3z"/>
		<path class="st2" d="M33,23.9c0-0.9-0.5-1.7-1.2-2.1c0.4-0.7,0.6-1.5,0.6-2.4c0-3-2.5-5.5-5.6-5.5c-0.8,0-1.6,0.2-2.3,0.5
			c-0.8-1.1-2.1-1.8-3.7-1.8c-1.7,0-3.2,0.9-4,2.3c-0.8-0.6-1.9-0.9-3-0.9c-2.9,0-5.2,2.3-5.2,5.1c0,0.2,0,0.4,0,0.6
			c-2,0.7-3.5,2.6-3.5,4.8c0,1.7,0.9,3.3,2.3,4.2c-0.5,0.7-0.9,1.6-0.9,2.6c0,2.4,2,4.4,4.5,4.4c1,0,2-0.4,2.8-0.9
			c1,1.4,2.7,2.3,4.5,2.3c2,0,3.7-1,4.7-2.5c0.7,1.1,1.9,1.9,3.3,1.9c2.1,0,3.8-1.7,3.8-3.8c0-0.5-0.1-0.9-0.2-1.3
			c1.4-0.6,2.3-1.9,2.3-3.5c0-0.7-0.2-1.4-0.6-2C32.5,25.5,33,24.8,33,23.9z"/>
		<path class="st2" d="M23.4,26.3c-0.6,0.2-1.2,0.4-1.8,0.4c-2.5,0-4.5-2-4.5-4.4c0-1,0.3-1.9,0.9-2.6c-1.4-0.9-2.3-2.5-2.3-4.2
			c0-0.8,0.2-1.6,0.6-2.3c-1.5-0.9-3.5-0.7-4.7,0.6c-0.1,0.1-0.2,0.2-0.3,0.3c-1.4-0.7-3.2-0.5-4.4,0.7c-0.9,0.9-1.3,2.2-1.1,3.4
			c-0.7,0.1-1.3,0.4-1.9,0.9c-1.3,1.3-1.3,3.4,0,4.7c0.5,0.5,1.2,0.8,2,0.9C5.6,25.8,6,27.2,7,28.1c1,1,2.5,1.4,3.8,1.1
			c-0.2,0.9,0,2,0.7,2.7c1.1,1.1,2.9,1.1,4,0c0.2-0.2,0.4-0.5,0.6-0.8c1,0.4,2.2,0.2,3.1-0.6c0.4-0.4,0.6-0.9,0.8-1.4
			c0.6,0.2,1.3,0,1.8-0.4c0.5-0.5,0.6-1.1,0.5-1.7C22.7,26.8,23.1,26.5,23.4,26.3z"/>
		<path class="st2" d="M48.5,19.1c-0.1-0.1-0.2-0.2-0.4-0.3c0.7-1.4,0.5-3.2-0.7-4.4c-0.9-0.9-2.2-1.3-3.4-1.1
			c-0.1-0.7-0.4-1.3-0.9-1.8c-1.3-1.3-3.4-1.3-4.7,0c-0.1,0.1-0.2,0.2-0.2,0.3C38,11.9,38,12,38,12c0.7,0.4,1.2,1.2,1.2,2.1
			c0,0.9-0.5,1.7-1.3,2.1c0.4,0.6,0.6,1.3,0.6,2c0,1.6-1,2.9-2.3,3.5c0.2,0.4,0.2,0.9,0.2,1.3c0,2.1-1.7,3.8-3.8,3.8
			c-0.5,0-1-0.1-1.4-0.3c0,0.1,0.1,0.1,0.1,0.2c0.4,0.4,0.9,0.6,1.4,0.7c-0.2,0.6,0,1.3,0.4,1.8c0.5,0.5,1.2,0.6,1.8,0.4
			c0.2,0.6,0.5,1.1,1,1.5c1.6,1.6,4.2,1.6,5.8,0c0.4-0.4,0.7-0.9,0.9-1.4c1,0.2,2.1-0.1,2.9-0.9c0.9-0.9,1.2-2.1,0.9-3.3
			c0.8-0.1,1.5-0.5,2.1-1.1C50,23,50,20.6,48.5,19.1z"/>
		<path class="st3" d="M19.7,15.4c-0.1,0-0.2,0-0.3-0.1c-2.3-0.9-3.4-3.4-2.5-5.7c0.9-2.3,3.4-3.4,5.7-2.5c0.5,0.2,0.7,0.7,0.5,1.2
			C22.9,8.8,22.4,9,22,8.8c-1.3-0.5-2.9,0.1-3.4,1.5c-0.5,1.3,0.1,2.9,1.5,3.4c0.5,0.2,0.7,0.7,0.5,1.2
			C20.4,15.2,20.1,15.4,19.7,15.4z"/>
		<path class="st4" d="M42.8,24.8c-0.5,0-1.1-0.1-1.6-0.3c-1.1-0.4-2-1.3-2.4-2.3c-0.2-0.5,0-1,0.5-1.2c0.5-0.2,1,0,1.2,0.5
			c0.3,0.6,0.8,1.1,1.4,1.4c0.7,0.3,1.4,0.2,2,0c0.6-0.3,1.1-0.8,1.4-1.4c0.3-0.6,0.2-1.4,0-2c-0.2-0.5,0-1,0.5-1.2
			c0.5-0.2,1,0,1.2,0.5c0.5,1.1,0.5,2.3,0.1,3.4s-1.3,2-2.3,2.4C44,24.7,43.4,24.8,42.8,24.8z"/>
		<path class="st3" d="M30.4,22.6c-1.5,0-3-0.8-3.8-2.2c-0.2-0.4-0.1-1,0.3-1.2c0.4-0.2,1-0.1,1.2,0.3c0.3,0.6,0.9,1,1.6,1.2
			c0.7,0.2,1.4,0.1,2-0.2s1-0.9,1.2-1.6c0.2-0.7,0.1-1.4-0.2-2c-0.2-0.4-0.1-1,0.3-1.2c0.4-0.2,1-0.1,1.2,0.3c0.6,1,0.7,2.2,0.4,3.3
			c-0.3,1.1-1.1,2.1-2.1,2.7C31.9,22.4,31.2,22.6,30.4,22.6z"/>
		<path class="st3" d="M27.3,17.8c-0.6,0-1.3-0.1-1.9-0.4c-2.2-1.1-3.1-3.7-2-5.9c0.2-0.4,0.8-0.6,1.2-0.4c0.4,0.2,0.6,0.8,0.4,1.2
			c-0.6,1.3-0.1,2.9,1.2,3.5c1.3,0.6,2.9,0.1,3.5-1.2c0.2-0.4,0.8-0.6,1.2-0.4c0.4,0.2,0.6,0.8,0.4,1.2
			C30.5,16.9,28.9,17.8,27.3,17.8z"/>
		<path class="st3" d="M20.5,22.8c-0.6,0-1.2-0.1-1.8-0.4c-2.2-1-3.2-3.6-2.3-5.8c0.2-0.5,0.7-0.7,1.2-0.5c0.5,0.2,0.7,0.7,0.5,1.2
			c-0.6,1.3,0,2.9,1.3,3.4c0.6,0.3,1.3,0.3,2,0c0.6-0.3,1.2-0.7,1.4-1.4C23,19,23.6,18.8,24,19c0.5,0.2,0.7,0.7,0.5,1.2
			c-0.5,1.1-1.3,1.9-2.4,2.3C21.5,22.7,21,22.8,20.5,22.8z"/>
		<path class="st3" d="M30.5,13c-0.1,0-0.3,0-0.4,0c-1.2-0.1-2.2-0.7-3-1.6c-0.3-0.4-0.3-0.9,0.1-1.3c0.4-0.3,1-0.3,1.3,0.1
			c0.4,0.5,1.1,0.9,1.8,0.9c0.7,0.1,1.4-0.1,1.9-0.6c1.1-0.9,1.3-2.6,0.4-3.7c-0.3-0.4-0.3-0.9,0.1-1.3c0.4-0.3,1-0.3,1.3,0.1
			c1.5,1.9,1.3,4.7-0.6,6.2C32.5,12.7,31.5,13,30.5,13z"/>
		<path class="st5" d="M45.9,19.5c0-1.3-0.7-2.4-1.8-3c0.5-1,0.8-2.2,0.8-3.4c0-4.4-3.6-7.9-8-7.9c-1.2,0-2.3,0.2-3.2,0.7
			c-1.2-1.6-3.1-2.7-5.3-2.7c-2.5,0-4.6,1.3-5.7,3.3c-1.2-0.8-2.7-1.3-4.3-1.3c-4.2,0-7.5,3.3-7.5,7.4c0,0.3,0,0.6,0.1,0.9
			c-3,1-5.1,3.7-5.1,7c0,2.5,1.3,4.8,3.3,6.1c-0.8,1.1-1.3,2.4-1.3,3.8c0,3.5,2.9,6.4,6.5,6.4c1.5,0,2.9-0.5,4-1.3
			c1.5,2,3.8,3.3,6.5,3.3c2.9,0,5.4-1.5,6.8-3.7c1,1.6,2.7,2.7,4.8,2.7c3,0,5.5-2.4,5.5-5.4c0-0.7-0.1-1.3-0.4-1.9
			c2-0.8,3.4-2.7,3.4-5c0-1.1-0.3-2.1-0.9-2.9C45.2,22,45.9,20.9,45.9,19.5z"/>
		<path class="st2" d="M18.8,29.4c-0.6,0-1.1-0.1-1.7-0.3c-2.3-0.9-3.3-3.5-2.4-5.7c0.2-0.5,0.7-0.7,1.2-0.5
			c0.5,0.2,0.7,0.7,0.5,1.2c-0.5,1.3,0.1,2.9,1.4,3.4c1.3,0.5,2.9-0.1,3.4-1.4c0.2-0.5,0.7-0.7,1.2-0.5c0.5,0.2,0.7,0.7,0.5,1.2
			C22.2,28.3,20.5,29.4,18.8,29.4z"/>
		<path class="st2" d="M26.6,20.5c-0.5-0.2-1-0.5-1.4-0.9c-1.7-1.7-1.8-4.5-0.1-6.2c0.3-0.4,0.9-0.4,1.3,0c0.4,0.3,0.4,0.9,0,1.3
			c-1,1-1,2.7,0.1,3.7c1,1,2.7,1,3.7-0.1c0.3-0.4,0.9-0.4,1.3,0c0.4,0.3,0.4,0.9,0,1.3C30.1,20.8,28.2,21.1,26.6,20.5z"/>
		<path class="st2" d="M13.9,12.4c0.1-0.5,0.3-1.1,0.6-1.6c1.3-2,4.1-2.6,6.1-1.2c0.4,0.3,0.5,0.8,0.3,1.2c-0.3,0.4-0.8,0.5-1.2,0.3
			c-1.2-0.8-2.8-0.5-3.6,0.7c-0.8,1.2-0.5,2.8,0.7,3.6c0.4,0.3,0.5,0.8,0.3,1.2c-0.3,0.4-0.8,0.5-1.2,0.3
			C14.2,16,13.5,14.1,13.9,12.4z"/>
		<path class="st2" d="M38.7,13.9c-0.2,0.5-0.6,0.9-1,1.3c-1.8,1.6-4.6,1.4-6.2-0.4c-0.3-0.4-0.3-0.9,0.1-1.3
			c0.4-0.3,0.9-0.3,1.3,0.1c0.9,1.1,2.6,1.2,3.7,0.3c1.1-0.9,1.2-2.6,0.3-3.7c-0.3-0.4-0.3-0.9,0.1-1.3c0.4-0.3,0.9-0.3,1.3,0.1
			C39.3,10.4,39.5,12.3,38.7,13.9z"/>
		<path class="st2" d="M35.8,30.1c-0.4,0.4-0.8,0.8-1.3,1c-2.2,1.1-4.8,0.3-5.9-1.9c-0.2-0.4-0.1-1,0.4-1.2c0.4-0.2,1-0.1,1.2,0.4
			c0.7,1.3,2.2,1.8,3.5,1.1c1.3-0.7,1.8-2.2,1.1-3.5c-0.2-0.4-0.1-1,0.4-1.2c0.4-0.2,1-0.1,1.2,0.4C37.2,26.8,36.9,28.8,35.8,30.1z"
			/>
		<g>
			<path class="st0" d="M29.4,45.7c-0.5-0.1-1-0.2-1.5-0.3c0,0-3.8-0.5-3-2.8s9.5-4.9,9.3-7.7C34.2,35,39.4,47.5,29.4,45.7z"/>
		</g>
		<g>
			<path class="st0" d="M41.9,41.1c-0.5,0.5-1.1,1.1-1.6,1.7c0,0-4.1,4.5-4,2.5c0.1-2,8.3-13.7,7.2-14.6
				C43.4,30.7,52.8,29.6,41.9,41.1z"/>
		</g>
		<g>
			<path class="st0" d="M22.5,39.7c0.1-0.5,0.2-1,0.3-1.6c0,0,1.4-3.8-2.1-5.2c-3.5-1.5-11.5,3.5-15,0.7
				C5.7,33.6,19.5,50.1,22.5,39.7z"/>
		</g>
	</g>
	<g>
		<path class="st0" d="M22.2,45c-0.7-0.3-1.5-0.7-2.3-1.1c0,0-6-1.9-4.4-7.4s15.7-10.1,15.7-16.9C31.2,19.6,37.9,51.3,22.2,45z"/>
		<path class="st6" d="M22.2,45c11.2-1.7,9-25.4,9-25.4S37.9,51.3,22.2,45z"/>
	</g>
	<g>
		<path class="st0" d="M43.5,37.7c-0.2-0.3-0.4-0.6-0.6-1c0,0-1.6-1.8-0.4-5.8c1.2-4,6.2-6.8,7.1-12C49.7,18.9,47.6,43.4,43.5,37.7z
			"/>
		<path class="st6" d="M43.5,37.7c3.7-0.7,6.1-18.8,6.1-18.8c0.2,5.1-0.5,9-1.1,11.6c-0.4,1.8-1.9,8-3.8,8
			C44.2,38.6,43.8,38.1,43.5,37.7z"/>
	</g>
	<g>
		<path class="st0" d="M31.5,45.2c-0.2-0.4-0.3-0.8-0.4-1.3c0,0-1.5-2.7,1.3-5.9s10.1-3,12.8-7.4C45.2,30.6,34.9,53,31.5,45.2z"/>
		<path class="st6" d="M31.5,45.2c4.9,1.5,13.7-14.6,13.7-14.6S34.9,53,31.5,45.2z"/>
	</g>
	<g>
		<path class="st0" d="M16.3,38c0-0.3-0.1-0.7-0.3-1.1c0,0-0.1-2.3-3.5-4.6s-8.3-1.4-12.2-4.7C0.3,27.5,17.3,44.7,16.3,38z"/>
		<path class="st6" d="M16.3,38c-2.8,1.8-16-10.4-16-10.4S17.3,44.7,16.3,38z"/>
		<path class="st7" d="M10.2,33.1c-0.2,0-0.4,0.1-0.6,0.3c0.5,0.3,1,0.7,1.5,1.1c0.2,0.1,0.3,0.2,0.5,0.3c0.5,0.1,1.1,0.3,1.7,0.8
			c0.2,0.1,0.4,0.3,0.6,0.4c-0.5-0.4-1-0.6-1.5-0.8c-0.1,0-0.2-0.1-0.3-0.1c0.8,0.6,1.6,1.3,2.4,2c0.2,0.2,0.4,0.4,0.6,0.5
			c0.1,0.1,0.2,0.2,0.3,0.3c0,0,0.1,0.1,0.1,0.1c0,0,0.1,0.1,0.1,0.1c0,0-0.1,0-0.1-0.1c-0.1,0-0.1-0.1-0.2-0.1
			c-0.1-0.1-0.2-0.2-0.3-0.2c-0.2-0.2-0.4-0.3-0.6-0.5c-0.5-0.4-0.9-0.7-1.4-1.1c0.2,0.3,0.4,0.6,0.7,0.9c0.2,0.3,0.5,0.6,0.8,0.9
			c-0.3-0.3-0.5-0.5-0.8-0.8c-0.2-0.3-0.5-0.6-0.7-0.8c-0.1-0.2-0.2-0.3-0.4-0.5c-0.5-0.4-1-0.8-1.5-1.1c-0.1-0.1-0.3-0.2-0.4-0.3
			c0.4,0.6,0.8,1.2,1.3,1.8c0.1,0.2,0.3,0.3,0.4,0.5c-0.6-0.6-1.2-1.4-1.7-2.1c-0.1-0.2-0.3-0.4-0.4-0.6c-0.6-0.5-1.3-0.9-1.9-1.3
			c-0.2-0.1-0.4-0.2-0.5-0.3c0.2,0.5,0.5,1,0.8,1.5c0.3,0.5,0.7,1,1.1,1.5c0.2,0.3,0.5,0.6,0.7,0.9c-0.5-0.5-1-1-1.4-1.6
			c-0.4-0.5-0.8-1.1-1.1-1.6c-0.2-0.3-0.4-0.6-0.5-0.9c-0.3-0.2-0.6-0.3-0.8-0.4c0,0-0.1,0-0.1,0c-0.3-0.2-0.6-0.3-1-0.4
			c-0.3-0.1-0.6-0.2-0.9-0.3c-0.6-0.2-1.3-0.4-1.9-0.6c-0.3-0.1-0.6-0.2-0.9-0.3c0,0-0.1,0-0.1-0.1c0,0,0.1,0,0.1,0
			c0.1,0,0.1,0,0.2,0.1c0.1,0,0.3,0.1,0.4,0.1c0.6,0.1,1.2,0.3,1.8,0.5C4.7,30.9,5,31,5.3,31.1c0.3,0.1,0.6,0.2,0.9,0.4
			c0.1,0,0.2,0.1,0.2,0.1c0-0.1,0.1-0.2,0.1-0.2c0-0.1,0.1-0.1,0.2-0.2c0.1,0,0.1-0.1,0.2-0.1C7,31,7,30.9,7.1,30.9
			c0.2-0.1,0.4-0.1,0.6-0.1c0.2,0,0.5,0.1,0.8,0.2C8,30.8,7.6,30.9,7.3,31c-0.1,0-0.1,0.1-0.1,0.1c0,0,0,0.1-0.1,0.1
			c0,0-0.1,0.1-0.1,0.1c0,0-0.1,0.1-0.1,0.1c0,0.1-0.1,0.2-0.1,0.3c0.3,0.2,0.6,0.3,1,0.5c0.2,0.1,0.4,0.3,0.7,0.4
			c0.3,0.2,0.5,0.3,0.8,0.5c0.3-0.2,0.9-0.3,1.5,0c0.2,0.1,0.4,0.2,0.6,0.3C10.9,33.1,10.5,33.1,10.2,33.1z"/>
	</g>
	<path class="st7" d="M18.2,41.4c0.4,0.5,0.8,1.1,1.3,1.6c-0.2,0.2-0.4,0.3-0.5,0.5c0.3,0.2,0.6,0.3,0.9,0.5
		c0.6,0.3,1.2,0.6,1.8,0.8c0.1-0.1,0.2-0.4,0.3-0.6c0.4-0.8,0.7-1.4,1-2c0.3-0.5,0.7-1.3,1.2-2.3c1.3,0,3.3-0.3,5.3-1.6
		c0.5-0.3,1-0.7,1.3-1c-0.3,0.2-2.3,1.4-3.9,1.8c-0.6,0.2-1.4,0.3-1.4,0.3c-0.5,0.1-1,0.1-1.3,0.1c0.6-1,1.2-2.1,1.7-3.2
		c0.2-0.5,0.5-1,0.7-1.5c0.9-0.3,1.5-0.7,2-1c0.6-0.4,1.1-0.7,1.6-1.4c0.3-0.4,0.5-0.8,0.6-1.1c-0.7,1.1-1.7,2-2.9,2.6
		c-0.3,0.2-0.7,0.3-1.1,0.5c0.8-1.7,1.4-3.4,1.9-5.2c0.1-0.4,0.2-0.9,0.3-1.3c0-0.2,0.1-0.4,0.1-0.7c0-0.1,0-0.2,0.1-0.3
		c0-0.1,0.1-0.3,0-0.3c-0.1,0-0.1,0.1-0.2,0.2c-0.1,0.1-0.1,0.2-0.2,0.3c-0.1,0.2-0.2,0.4-0.3,0.6c-0.2,0.4-0.5,1.1-0.6,1.3
		c-0.5,1.1-1.3,2.5-1.5,2.8c-0.2-0.4-0.5-0.8-0.7-1.4c-0.3-0.9-0.4-1.7-0.4-2.3c-0.1,0.8-0.1,1.4,0,1.8c0.1,0.5,0.2,0.8,0.4,1.2
		c0.2,0.4,0.3,0.8,0.5,1c-0.5,1.1-1.1,2.4-1.8,3.6c-0.3,0.4-0.5,0.8-0.8,1.2c-0.6-1.1-1.1-2.4-1.5-3.9c-0.1-0.4-0.1-0.7-0.2-1.1
		c-0.1,1.5,0.3,2.9,0.9,4.3c0.2,0.4,0.3,0.8,0.5,1.2c-0.6,1.2-1.5,2.4-2.6,3.7c-0.4,0.5-0.8,0.9-1.2,1.3c-0.7-0.7-1.5-1.6-2.2-2.8
		c-0.7-1.3-1-2.4-1.1-3c-0.2-0.7-0.3-1.4-0.3-1.8c0,1.1,0.1,2.3,0.5,3.4C17,39.4,17.5,40.4,18.2,41.4z"/>
	<path class="st7" d="M32.3,44c0,0.4-0.1,0.8-0.1,1.3c-0.1,0.1-0.2,0.2-0.3,0.3c0,0.2,0.1,0.3,0.1,0.5c0.1,0.3,0.2,0.6,0.3,0.8
		c0.1-0.1,0.2-0.2,0.3-0.4c0.4-0.5,0.7-0.9,1-1.2c0.3-0.3,0.6-0.8,1.1-1.4c0.4,0.2,1.2,0.3,2.3-0.3c0.3-0.1,0.5-0.3,0.8-0.5
		c-0.1,0.1-1.2,0.6-1.9,0.7c-0.3,0-0.6,0-0.6,0c-0.2,0-0.4-0.1-0.5-0.1c0.5-0.6,1-1.2,1.6-1.9c0.2-0.3,0.5-0.6,0.7-0.9
		c0.4-0.1,0.7-0.2,1-0.4c0.3-0.2,0.6-0.3,1-0.7c0.2-0.2,0.4-0.5,0.6-0.7c-0.6,0.6-1.2,1.1-1.8,1.3c-0.2,0.1-0.3,0.1-0.5,0.2
		c0.8-1,1.5-2.1,2.3-3.2c0.2-0.3,0.4-0.6,0.5-0.9c0.1-0.1,0.2-0.3,0.2-0.4c0-0.1,0.1-0.1,0.1-0.2c0,0,0.1-0.2,0.1-0.2
		c0,0-0.1,0.1-0.1,0.1c-0.1,0.1-0.1,0.1-0.2,0.2c-0.1,0.1-0.2,0.3-0.3,0.4c-0.2,0.3-0.5,0.6-0.6,0.8c-0.5,0.7-1.2,1.5-1.4,1.7
		c0-0.3,0.1-0.6,0.2-1c0.2-0.7,0.4-1.2,0.6-1.6c-0.3,0.5-0.5,1-0.6,1.2c-0.1,0.3-0.2,0.6-0.3,0.9c-0.1,0.3-0.1,0.6-0.2,0.7
		c-0.5,0.7-1.1,1.4-1.7,2.2c-0.2,0.3-0.4,0.5-0.6,0.7c0.1-0.8,0.4-1.8,0.7-2.9c0.1-0.3,0.2-0.5,0.3-0.8c-0.5,1-0.8,2.1-1.1,3.1
		c-0.1,0.3-0.1,0.6-0.2,0.9c-0.6,0.7-1.3,1.4-2,2.2c-0.3,0.3-0.5,0.5-0.8,0.7c0-0.6,0-1.3,0.2-2.2c0.2-1,0.4-1.8,0.6-2.2
		c0.2-0.5,0.3-1,0.5-1.3c-0.4,0.8-0.7,1.6-0.9,2.4C32.5,42.5,32.4,43.3,32.3,44z"/>
	<path class="st8" d="M43.2,33.9c0.1,0.4,0.2,0.8,0.3,1.2c-0.1,0.1-0.2,0.2-0.3,0.4c0.1,0.1,0.2,0.3,0.3,0.4
		c0.2,0.3,0.4,0.5,0.6,0.7c0-0.1,0.1-0.3,0.2-0.4c0.2-0.6,0.4-1,0.6-1.4c0.2-0.4,0.4-0.9,0.7-1.6c0.5,0,1.2-0.1,2.1-0.9
		c0.2-0.2,0.4-0.4,0.6-0.7c-0.1,0.1-1,0.9-1.6,1.1c-0.3,0.1-0.5,0.1-0.5,0.1c-0.2,0-0.4,0-0.5,0c0.3-0.7,0.7-1.5,1-2.3
		c0.1-0.4,0.3-0.7,0.4-1c0.4-0.2,0.6-0.4,0.8-0.6c0.3-0.2,0.5-0.5,0.7-0.9c0.2-0.3,0.3-0.6,0.4-0.8c-0.4,0.8-0.8,1.4-1.3,1.8
		c-0.1,0.1-0.3,0.2-0.4,0.3c0.5-1.2,0.9-2.4,1.3-3.7c0.1-0.3,0.2-0.6,0.3-1c0-0.2,0.1-0.3,0.1-0.5c0-0.1,0-0.2,0.1-0.2
		c0,0,0.1-0.2,0-0.2c0,0-0.1,0.1-0.1,0.1c0,0.1-0.1,0.2-0.1,0.2c-0.1,0.2-0.1,0.3-0.2,0.5c-0.1,0.3-0.3,0.8-0.4,0.9
		c-0.3,0.8-0.8,1.8-0.9,2c0-0.3-0.1-0.6-0.1-1c0-0.7,0.1-1.3,0.1-1.7c-0.1,0.6-0.2,1.1-0.2,1.3c0,0.3,0,0.6,0,0.9c0,0.3,0,0.6,0,0.8
		c-0.3,0.8-0.7,1.7-1.1,2.6c-0.1,0.3-0.3,0.6-0.4,0.9c-0.1-0.8-0.1-1.8-0.1-3c0-0.3,0-0.6,0.1-0.8c-0.2,1.1-0.2,2.2-0.2,3.3
		c0,0.3,0,0.6,0.1,0.9c-0.4,0.8-0.8,1.7-1.4,2.6c-0.2,0.3-0.4,0.6-0.6,0.9c-0.2-0.5-0.4-1.3-0.5-2.2c-0.1-1-0.1-1.8,0-2.3
		c0-0.5,0.1-1,0.1-1.4c-0.1,0.8-0.2,1.7-0.2,2.5C43,32.4,43,33.2,43.2,33.9z"/>
</g>
</svg>
