<?xml version="1.0" encoding="utf-8"?>
<!-- Generator: Adobe Illustrator 19.0.1, SVG Export Plug-In . SVG Version: 6.00 Build 0)  -->
<svg version="1.1" id="cauliflower_x5F_harvest" xmlns="http://www.w3.org/2000/svg" xmlns:xlink="http://www.w3.org/1999/xlink"
	 x="0px" y="0px" viewBox="-223 225 512 512" style="enable-background:new -223 225 512 512;" xml:space="preserve">
<style type="text/css">
	.st0{display:none;}
	.st1{display:inline;}
	.st2{fill:#88C057;}
	.st3{fill:#659C35;}
	.st4{fill:#604A3B;}
	.st5{fill:#82B236;}
	.st6{fill:#B4B56F;}
	.st7{fill:#D8D5A7;}
	.st8{display:none;fill:#D8D5A7;}
	.st9{display:none;fill:#E8E6BF;}
	.st10{fill:#E8E6BF;}
	.st11{fill:#7EA532;}
	.st12{fill:#C3C979;}
	.st13{fill:#BEBF77;}
</style>
<g id="lettuce" class="st0">
	<g class="st1">
		<g>
			<g>
				<path class="st2" d="M68.6,569.5c4,1,8.4,0.9,13.1-1c8.1-3.4,13.8-11.1,14-19.9c0.2-9.8-6-18.2-14.7-21.2
					c-0.6-8.9-8-15.9-17.1-15.9c0,0-0.1,0-0.1,0c0.2-1.3,0.1-2.8-0.4-4.3c-1.2-4.2-4.9-7.4-9.2-7.9c-3.5-0.4-6.8,0.8-9.1,3.1
					c-2.2-2-5-3.2-8.2-3.2c-6.8,0-12.2,5.5-12.2,12.2c0,0,0,0,0,0.1c-8.2,0.6-14.7,7.5-14.7,15.8c0,1.3,0.2,2.5,0.5,3.7
					c-9.8,0.4-17.6,8.4-17.6,18.3c0,3.3,0.9,6.5,2.5,9.2c-3,2.5-4.9,6.2-4.9,10.4c0,5.9,3.8,10.8,9,12.7
					c-0.7,23.9,7.9,38.1,24.4,57.1c0.3,0.3,0.6,0.7,0.9,1c0.1,0.1,0.1,0.1,0.2,0.2c6.9,7.7,22.4,1.8,19-8
					C26.2,579.7,81,587.2,81,587.2s1.6-15.8-12.6-16.5c0-0.4,0-0.8,0.1-1.2C68.5,569.5,68.6,569.5,68.6,569.5z"/>
				<path class="st3" d="M24.9,639.9c-0.1-0.1-0.1-0.1-0.2-0.2c-0.3-0.3-0.6-0.7-0.9-1c-16.5-19-25.1-33.1-24.4-57.1
					c-5.2-1.8-9-6.8-9-12.7c0-4.2,1.9-7.9,4.9-10.4c-1.6-2.7-2.5-5.8-2.5-9.2c0-9.9,7.8-17.9,17.6-18.3c-0.3-1.2-0.5-2.4-0.5-3.7
					c0-6.7,4.1-12.3,9.9-14.7c-0.4-1.3-0.9-2.5-1.5-3.8c-3.2-6.3-8.8-10.3-14-9.5c-4.2,0.7-7.2,4.1-8.5,8.8
					c-3.6-2.4-7.5-3.3-11.1-2.1c-7.6,2.7-10,13.7-5.7,23.8c0,0,0,0.1,0,0.1c-8.3,4-10.5,15.7-5.2,26.3c0.8,1.5,1.7,3,2.6,4.3
					c-9.1,3.8-11.5,15.3-5.8,25.3c1.8,3.2,4.3,5.8,7,7.8c-1.3,3.1-1,6.9,1,10.4c2.8,4.7,7.9,7.5,12.8,7.5c8.5,16.7,19,23.2,34.8,30
					c0.2,0.1,0.3,0.1,0.5,0.2C26.3,641.2,25.6,640.6,24.9,639.9z"/>
				<path class="st3" d="M31.2,562.5c0.2-0.3,0.2-0.7,0.2-1c1.9-4.7,4.1-8.6,6.4-11.9c11.6-2.4,20.4,1.2,20.6,1.3
					c0.3,0.2,0.7,0.2,1,0.2c1,0,2-0.6,2.4-1.6c0.6-1.3,0-2.8-1.3-3.4c-0.4-0.2-7.5-3.2-17.8-2.5c5-5.2,9.4-7.6,10.1-8
					c3.8-1.8,9.3,0.5,11.1,1.6c0.4,0.2,0.9,0.4,1.3,0.4c0.9,0,1.8-0.5,2.2-1.3c0.7-1.2,0.3-2.8-0.9-3.6c-0.3-0.2-6.1-3.5-12.1-2.9
					c0.5-2.1,1.6-4,2.2-4.8c0.9-1.1,0.7-2.8-0.5-3.6c-1.1-0.9-2.8-0.7-3.6,0.5c-0.2,0.2-3.6,4.7-3.6,9.9
					c-3.8,2.3-13.5,9.3-20.4,23.4c-0.4,0.8-0.7,1.6-1.1,2.4c-7.1-4.8-5.9-13.5-5.9-13.9c0.2-1.4-0.7-2.7-2.2-3
					c-1.4-0.2-2.7,0.7-3,2.2c-0.8,4.7,0.3,14.4,9.1,19.6c-1.9,5.7-3.4,12.5-3.8,20.5c-0.1,0.3-0.1,0.5,0,0.7
					c-0.3,5.6,0,11.8,0.9,18.7c-3.3-1.8-4.8-4.5-4.9-4.6c-0.7-1.3-2.2-1.7-3.5-1.1c-1.3,0.7-1.8,2.2-1.1,3.5c0.1,0.3,3.2,6,10.4,8.2
					c1.9,10.3,5.2,21.8,10.6,34.8c1.8-0.1,3.5-0.6,5-1.4c0,0,0,0,0-0.1c-5.7-13.5-9.1-25.3-10.9-35.8c0-0.1,0-0.1,0-0.2
					c-1.4-7.9-1.8-14.9-1.5-21.3c3.6-6.2,14.3-6.4,14.4-6.5c1.4,0,2.6-1.2,2.6-2.6c0-1.4-1.2-2.6-2.6-2.6c0,0,0,0,0,0
					c-0.4,0-7.8,0.2-13.7,3.8c0.7-5.1,1.9-9.7,3.4-13.7C30.9,562.9,31.1,562.7,31.2,562.5z"/>
			</g>
		</g>
		<g>
			<path class="st4" d="M21.9,644.9c-0.1-1,1-3.2,2.2-3.3c0.8,0,0.9,0.9,1.9,0.8c0.9,0,1.1-1,1.8-0.8c0.9,0.3,1.8,2.3,1.6,3.3
				C29.4,645.7,22,645.5,21.9,644.9z"/>
			<path class="st4" d="M24.9,644.4c-0.1-1,1-3.2,2.2-3.3c0.8,0,0.9,0.9,1.9,0.8c0.9,0,1.1-1,1.8-0.8c0.9,0.3,1.8,2.3,1.6,3.3
				C32.3,645.1,25,645,24.9,644.4z"/>
			<path class="st4" d="M28.1,643.6c-0.1-1,1-3.2,2.2-3.3c0.8,0,0.9,0.9,1.9,0.8c0.9,0,1.1-1,1.8-0.8c0.9,0.3,1.8,2.3,1.6,3.3
				C35.5,644.4,28.2,644.2,28.1,643.6z"/>
			<path class="st4" d="M32.8,644.4c-0.1-1,1-3.2,2.2-3.3c0.8,0,0.9,0.9,1.9,0.8c0.9,0,1.1-1,1.8-0.8c0.9,0.3,1.8,2.3,1.6,3.3
				C40.3,645.1,32.9,645,32.8,644.4z"/>
			<path class="st4" d="M29.5,645.1c-0.1-1,1-3.2,2.2-3.3c0.8,0,0.9,0.9,1.9,0.8c0.9,0,1.1-1,1.8-0.8c0.9,0.3,1.8,2.3,1.6,3.3
				C36.9,645.9,29.6,645.7,29.5,645.1z"/>
			<path class="st4" d="M35.2,645.1c-0.1-1,1-3.2,2.2-3.3c0.8,0,0.9,0.9,1.9,0.8c0.9,0,1.1-1,1.8-0.8c0.9,0.3,1.8,2.3,1.6,3.3
				C42.6,645.9,35.3,645.7,35.2,645.1z"/>
		</g>
	</g>
	<g class="st1">
		<g>
			<g>
				<path class="st2" d="M-92.2,478.1c4,1,8.4,0.9,13.1-1c8.1-3.4,13.8-11.1,14-19.9c0.2-9.8-6-18.2-14.7-21.2
					c-0.6-8.9-8-15.9-17.1-15.9c0,0-0.1,0-0.1,0c0.2-1.3,0.1-2.8-0.4-4.3c-1.2-4.2-4.9-7.4-9.2-7.9c-3.5-0.4-6.8,0.8-9.1,3.1
					c-2.2-2-5-3.2-8.2-3.2c-6.8,0-12.2,5.5-12.2,12.2c0,0,0,0,0,0.1c-8.2,0.6-14.7,7.5-14.7,15.8c0,1.3,0.2,2.5,0.5,3.7
					c-9.8,0.4-17.6,8.4-17.6,18.3c0,3.3,0.9,6.5,2.5,9.2c-3,2.5-4.9,6.2-4.9,10.4c0,5.9,3.8,10.8,9,12.7
					c-0.7,23.9,7.9,38.1,24.4,57.1c0.3,0.3,0.6,0.7,0.9,1c0.1,0.1,0.1,0.1,0.2,0.2c6.9,7.7,22.4,1.8,19-8
					c-17.8-52.2,37.1-44.7,37.1-44.7s1.6-15.8-12.6-16.5c0-0.4,0-0.8,0.1-1.2C-92.3,478.1-92.2,478.1-92.2,478.1z"/>
				<path class="st3" d="M-135.9,548.5c-0.1-0.1-0.1-0.1-0.2-0.2c-0.3-0.3-0.6-0.7-0.9-1c-16.5-19-25.1-33.1-24.4-57.1
					c-5.2-1.8-9-6.8-9-12.7c0-4.2,1.9-7.9,4.9-10.4c-1.6-2.7-2.5-5.8-2.5-9.2c0-9.9,7.8-17.9,17.6-18.3c-0.3-1.2-0.5-2.4-0.5-3.7
					c0-6.7,4.1-12.3,9.9-14.7c-0.4-1.3-0.9-2.5-1.5-3.8c-3.2-6.3-8.8-10.3-14-9.5c-4.2,0.7-7.2,4.1-8.5,8.8
					c-3.6-2.4-7.5-3.3-11.1-2.1c-7.6,2.7-10,13.7-5.7,23.8c0,0,0,0.1,0,0.1c-8.3,4-10.5,15.7-5.2,26.3c0.8,1.5,1.7,3,2.6,4.3
					c-9.1,3.8-11.5,15.3-5.8,25.3c1.8,3.2,4.3,5.8,7,7.8c-1.3,3.1-1,6.9,1,10.4c2.8,4.7,7.9,7.5,12.8,7.5c8.5,16.7,19,23.2,34.8,30
					c0.2,0.1,0.3,0.1,0.5,0.2C-134.5,549.8-135.2,549.2-135.9,548.5z"/>
				<path class="st3" d="M-129.7,471.2c0.2-0.3,0.2-0.7,0.2-1c1.9-4.7,4.1-8.6,6.4-11.9c11.6-2.4,20.4,1.2,20.6,1.3
					c0.3,0.2,0.7,0.2,1,0.2c1,0,2-0.6,2.4-1.6c0.6-1.3,0-2.8-1.3-3.4c-0.4-0.2-7.5-3.2-17.8-2.5c5-5.2,9.4-7.6,10.1-8
					c3.8-1.8,9.3,0.5,11.1,1.6c0.4,0.2,0.9,0.4,1.3,0.4c0.9,0,1.8-0.5,2.2-1.3c0.7-1.2,0.3-2.8-0.9-3.6c-0.3-0.2-6.1-3.5-12.1-2.9
					c0.5-2.1,1.6-4,2.2-4.8c0.9-1.1,0.7-2.8-0.5-3.6c-1.1-0.9-2.8-0.7-3.6,0.5c-0.2,0.2-3.6,4.7-3.6,9.9
					c-3.8,2.3-13.5,9.3-20.4,23.4c-0.4,0.8-0.7,1.6-1.1,2.4c-7.1-4.8-5.9-13.5-5.9-13.9c0.2-1.4-0.7-2.7-2.2-3
					c-1.4-0.2-2.7,0.7-3,2.2c-0.8,4.7,0.3,14.4,9.1,19.6c-1.9,5.7-3.4,12.5-3.8,20.5c-0.1,0.3-0.1,0.5,0,0.7
					c-0.3,5.6,0,11.8,0.9,18.7c-3.3-1.8-4.8-4.5-4.9-4.6c-0.7-1.3-2.2-1.7-3.5-1.1c-1.3,0.7-1.8,2.2-1.1,3.5c0.1,0.3,3.2,6,10.4,8.2
					c1.9,10.3,5.2,21.8,10.6,34.8c1.8-0.1,3.5-0.6,5-1.4c0,0,0,0,0-0.1c-5.7-13.5-9.1-25.3-10.9-35.8c0-0.1,0-0.1,0-0.2
					c-1.4-7.9-1.8-14.9-1.5-21.3c3.6-6.2,14.3-6.4,14.4-6.5c1.4,0,2.6-1.2,2.6-2.6c0-1.4-1.2-2.6-2.6-2.6c0,0,0,0,0,0
					c-0.4,0-7.8,0.2-13.7,3.8c0.7-5.1,1.9-9.7,3.4-13.7C-129.9,471.6-129.8,471.4-129.7,471.2z"/>
			</g>
		</g>
		<g>
			<path class="st4" d="M-138.9,553.6c-0.1-1,1-3.2,2.2-3.3c0.8,0,0.9,0.9,1.9,0.8c0.9,0,1.1-1,1.8-0.8c0.9,0.3,1.8,2.3,1.6,3.3
				C-131.5,554.3-138.8,554.2-138.9,553.6z"/>
			<path class="st4" d="M-135.9,553c-0.1-1,1-3.2,2.2-3.3c0.8,0,0.9,0.9,1.9,0.8c0.9,0,1.1-1,1.8-0.8c0.9,0.3,1.8,2.3,1.6,3.3
				C-128.5,553.8-135.9,553.6-135.9,553z"/>
			<path class="st4" d="M-132.7,552.3c-0.1-1,1-3.2,2.2-3.3c0.8,0,0.9,0.9,1.9,0.8c0.9,0,1.1-1,1.8-0.8c0.9,0.3,1.8,2.3,1.6,3.3
				C-125.3,553-132.6,552.9-132.7,552.3z"/>
			<path class="st4" d="M-128,553c-0.1-1,1-3.2,2.2-3.3c0.8,0,0.9,0.9,1.9,0.8c0.9,0,1.1-1,1.8-0.8c0.9,0.3,1.8,2.3,1.6,3.3
				C-120.6,553.8-127.9,553.6-128,553z"/>
			<path class="st4" d="M-131.3,553.8c-0.1-1,1-3.2,2.2-3.3c0.8,0,0.9,0.9,1.9,0.8c0.9,0,1.1-1,1.8-0.8c0.9,0.3,1.8,2.3,1.6,3.3
				C-123.9,554.5-131.2,554.4-131.3,553.8z"/>
			<path class="st4" d="M-125.6,553.8c-0.1-1,1-3.2,2.2-3.3c0.8,0,0.9,0.9,1.9,0.8c0.9,0,1.1-1,1.8-0.8c0.9,0.3,1.8,2.3,1.6,3.3
				C-118.2,554.5-125.5,554.4-125.6,553.8z"/>
		</g>
	</g>
	<g class="st1">
		<g>
			<g>
				<path class="st2" d="M69.8,384.6c4,1,8.4,0.9,13.1-1c8.1-3.4,13.8-11.1,14-19.9c0.2-9.8-6-18.2-14.7-21.2
					c-0.6-8.9-8-15.9-17.1-15.9c0,0-0.1,0-0.1,0c0.2-1.3,0.1-2.8-0.4-4.3c-1.2-4.2-4.9-7.4-9.2-7.9c-3.5-0.4-6.8,0.8-9.1,3.1
					c-2.2-2-5-3.2-8.2-3.2c-6.8,0-12.2,5.5-12.2,12.2c0,0,0,0,0,0.1c-8.2,0.6-14.7,7.5-14.7,15.8c0,1.3,0.2,2.5,0.5,3.7
					c-9.8,0.4-17.6,8.4-17.6,18.3c0,3.3,0.9,6.5,2.5,9.2c-3,2.5-4.9,6.2-4.9,10.4c0,5.9,3.8,10.8,9,12.7
					c-0.7,23.9,7.9,38.1,24.4,57.1c0.3,0.3,0.6,0.7,0.9,1c0.1,0.1,0.1,0.1,0.2,0.2c6.9,7.7,22.4,1.8,19-8
					c-17.8-52.2,37.1-44.7,37.1-44.7s1.6-15.8-12.6-16.5c0-0.4,0-0.8,0.1-1.2C69.8,384.6,69.8,384.6,69.8,384.6z"/>
				<path class="st3" d="M26.2,455c-0.1-0.1-0.1-0.1-0.2-0.2c-0.3-0.3-0.6-0.7-0.9-1C8.6,434.7,0,420.6,0.7,396.7
					c-5.2-1.8-9-6.8-9-12.7c0-4.2,1.9-7.9,4.9-10.4c-1.6-2.7-2.5-5.8-2.5-9.2c0-9.9,7.8-17.9,17.6-18.3c-0.3-1.2-0.5-2.4-0.5-3.7
					c0-6.7,4.1-12.3,9.9-14.7c-0.4-1.3-0.9-2.5-1.5-3.8c-3.2-6.3-8.8-10.3-14-9.5c-4.2,0.7-7.2,4.1-8.5,8.8
					c-3.6-2.4-7.5-3.3-11.1-2.1c-7.6,2.7-10,13.7-5.7,23.8c0,0,0,0.1,0,0.1c-8.3,4-10.5,15.7-5.2,26.3c0.8,1.5,1.7,3,2.6,4.3
					c-9.1,3.8-11.5,15.3-5.8,25.3c1.8,3.2,4.3,5.8,7,7.8c-1.3,3.1-1,6.9,1,10.4c2.8,4.7,7.9,7.5,12.8,7.5c8.5,16.7,19,23.2,34.8,30
					c0.2,0.1,0.3,0.1,0.5,0.2C27.6,456.3,26.8,455.7,26.2,455z"/>
				<path class="st3" d="M32.4,377.6c0.2-0.3,0.2-0.7,0.2-1c1.9-4.7,4.1-8.6,6.4-11.9c11.6-2.4,20.4,1.2,20.6,1.3
					c0.3,0.2,0.7,0.2,1,0.2c1,0,2-0.6,2.4-1.6c0.6-1.3,0-2.8-1.3-3.4c-0.4-0.2-7.5-3.2-17.8-2.5c5-5.2,9.4-7.6,10.1-8
					c3.8-1.8,9.3,0.5,11.1,1.6c0.4,0.2,0.9,0.4,1.3,0.4c0.9,0,1.8-0.5,2.2-1.3c0.7-1.2,0.3-2.8-0.9-3.6c-0.3-0.2-6.1-3.5-12.1-2.9
					c0.5-2.1,1.6-4,2.2-4.8c0.9-1.1,0.7-2.8-0.5-3.6c-1.1-0.9-2.8-0.7-3.6,0.5c-0.2,0.2-3.6,4.7-3.6,9.9
					c-3.8,2.3-13.5,9.3-20.4,23.4c-0.4,0.8-0.7,1.6-1.1,2.4c-7.1-4.8-5.9-13.5-5.9-13.9c0.2-1.4-0.7-2.7-2.2-3
					c-1.4-0.2-2.7,0.7-3,2.2c-0.8,4.7,0.3,14.4,9.1,19.6c-1.9,5.7-3.4,12.5-3.8,20.5c-0.1,0.3-0.1,0.5,0,0.7
					c-0.3,5.6,0,11.8,0.9,18.7c-3.3-1.8-4.8-4.5-4.9-4.6c-0.7-1.3-2.2-1.7-3.5-1.1c-1.3,0.7-1.8,2.2-1.1,3.5c0.1,0.3,3.2,6,10.4,8.2
					c1.9,10.3,5.2,21.8,10.6,34.8c1.8-0.1,3.5-0.6,5-1.4c0,0,0,0,0-0.1c-5.7-13.5-9.1-25.3-10.9-35.8c0-0.1,0-0.1,0-0.2
					c-1.4-7.9-1.8-14.9-1.5-21.3c3.6-6.2,14.3-6.4,14.4-6.5c1.4,0,2.6-1.2,2.6-2.6c0-1.4-1.2-2.6-2.6-2.6c0,0,0,0,0,0
					c-0.4,0-7.8,0.2-13.7,3.8c0.7-5.1,1.9-9.7,3.4-13.7C32.1,378.1,32.3,377.9,32.4,377.6z"/>
			</g>
		</g>
		<g>
			<path class="st4" d="M23.2,460.1c-0.1-1,1-3.2,2.2-3.3c0.8,0,0.9,0.9,1.9,0.8c0.9,0,1.1-1,1.8-0.8c0.9,0.3,1.8,2.3,1.6,3.3
				C30.6,460.8,23.3,460.7,23.2,460.1z"/>
			<path class="st4" d="M26.1,459.5c-0.1-1,1-3.2,2.2-3.3c0.8,0,0.9,0.9,1.9,0.8c0.9,0,1.1-1,1.8-0.8c0.9,0.3,1.8,2.3,1.6,3.3
				C33.5,460.3,26.2,460.1,26.1,459.5z"/>
			<path class="st4" d="M29.3,458.8c-0.1-1,1-3.2,2.2-3.3c0.8,0,0.9,0.9,1.9,0.8c0.9,0,1.1-1,1.8-0.8c0.9,0.3,1.8,2.3,1.6,3.3
				C36.7,459.5,29.4,459.4,29.3,458.8z"/>
			<path class="st4" d="M34.1,459.5c-0.1-1,1-3.2,2.2-3.3c0.8,0,0.9,0.9,1.9,0.8c0.9,0,1.1-1,1.8-0.8c0.9,0.3,1.8,2.3,1.6,3.3
				C41.5,460.3,34.2,460.1,34.1,459.5z"/>
			<path class="st4" d="M30.7,460.2c-0.1-1,1-3.2,2.2-3.3c0.8,0,0.9,0.9,1.9,0.8c0.9,0,1.1-1,1.8-0.8c0.9,0.3,1.8,2.3,1.6,3.3
				C38.1,461,30.8,460.8,30.7,460.2z"/>
			<path class="st4" d="M36.4,460.2c-0.1-1,1-3.2,2.2-3.3c0.8,0,0.9,0.9,1.9,0.8c0.9,0,1.1-1,1.8-0.8c0.9,0.3,1.8,2.3,1.6,3.3
				C43.8,461,36.5,460.8,36.4,460.2z"/>
		</g>
	</g>
	<g class="st1">
		<g>
			<g>
				<path class="st2" d="M232,478.1c4,1,8.4,0.9,13.1-1c8.1-3.4,13.8-11.1,14-19.9c0.2-9.8-6-18.2-14.7-21.2
					c-0.6-8.9-8-15.9-17.1-15.9c0,0-0.1,0-0.1,0c0.2-1.3,0.1-2.8-0.4-4.3c-1.2-4.2-4.9-7.4-9.2-7.9c-3.5-0.4-6.8,0.8-9.1,3.1
					c-2.2-2-5-3.2-8.2-3.2c-6.8,0-12.2,5.5-12.2,12.2c0,0,0,0,0,0.1c-8.2,0.6-14.7,7.5-14.7,15.8c0,1.3,0.2,2.5,0.5,3.7
					c-9.8,0.4-17.6,8.4-17.6,18.3c0,3.3,0.9,6.5,2.5,9.2c-3,2.5-4.9,6.2-4.9,10.4c0,5.9,3.8,10.8,9,12.7
					c-0.7,23.9,7.9,38.1,24.4,57.1c0.3,0.3,0.6,0.7,0.9,1c0.1,0.1,0.1,0.1,0.2,0.2c6.9,7.7,22.4,1.8,19-8
					c-17.8-52.2,37.1-44.7,37.1-44.7s1.6-15.8-12.6-16.5c0-0.4,0-0.8,0.1-1.2C232,478.1,232,478.1,232,478.1z"/>
				<path class="st3" d="M188.3,548.5c-0.1-0.1-0.1-0.1-0.2-0.2c-0.3-0.3-0.6-0.7-0.9-1c-16.5-19-25.1-33.1-24.4-57.1
					c-5.2-1.8-9-6.8-9-12.7c0-4.2,1.9-7.9,4.9-10.4c-1.6-2.7-2.5-5.8-2.5-9.2c0-9.9,7.8-17.9,17.6-18.3c-0.3-1.2-0.5-2.4-0.5-3.7
					c0-6.7,4.1-12.3,9.9-14.7c-0.4-1.3-0.9-2.5-1.5-3.8c-3.2-6.3-8.8-10.3-14-9.5c-4.2,0.7-7.2,4.1-8.5,8.8
					c-3.6-2.4-7.5-3.3-11.1-2.1c-7.6,2.7-10,13.7-5.7,23.8c0,0,0,0.1,0,0.1c-8.3,4-10.5,15.7-5.2,26.3c0.8,1.5,1.7,3,2.6,4.3
					c-9.1,3.8-11.5,15.3-5.8,25.3c1.8,3.2,4.3,5.8,7,7.8c-1.3,3.1-1,6.9,1,10.4c2.8,4.7,7.9,7.5,12.8,7.5c8.5,16.7,19,23.2,34.8,30
					c0.2,0.1,0.3,0.1,0.5,0.2C189.7,549.8,189,549.2,188.3,548.5z"/>
				<path class="st3" d="M194.6,471.2c0.2-0.3,0.2-0.7,0.2-1c1.9-4.7,4.1-8.6,6.4-11.9c11.6-2.4,20.4,1.2,20.6,1.3
					c0.3,0.2,0.7,0.2,1,0.2c1,0,2-0.6,2.4-1.6c0.6-1.3,0-2.8-1.3-3.4c-0.4-0.2-7.5-3.2-17.8-2.5c5-5.2,9.4-7.6,10.1-8
					c3.8-1.8,9.3,0.5,11.1,1.6c0.4,0.2,0.9,0.4,1.3,0.4c0.9,0,1.8-0.5,2.2-1.3c0.7-1.2,0.3-2.8-0.9-3.6c-0.3-0.2-6.1-3.5-12.1-2.9
					c0.5-2.1,1.6-4,2.2-4.8c0.9-1.1,0.7-2.8-0.5-3.6c-1.1-0.9-2.8-0.7-3.6,0.5c-0.2,0.2-3.6,4.7-3.6,9.9
					c-3.8,2.3-13.5,9.3-20.4,23.4c-0.4,0.8-0.7,1.6-1.1,2.4c-7.1-4.8-5.9-13.5-5.9-13.9c0.2-1.4-0.7-2.7-2.2-3
					c-1.4-0.2-2.7,0.7-3,2.2c-0.8,4.7,0.3,14.4,9.1,19.6c-1.9,5.7-3.4,12.5-3.8,20.5c-0.1,0.3-0.1,0.5,0,0.7
					c-0.3,5.6,0,11.8,0.9,18.7c-3.3-1.8-4.8-4.5-4.9-4.6c-0.7-1.3-2.2-1.7-3.5-1.1c-1.3,0.7-1.8,2.2-1.1,3.5c0.1,0.3,3.2,6,10.4,8.2
					c1.9,10.3,5.2,21.8,10.6,34.8c1.8-0.1,3.5-0.6,5-1.4c0,0,0,0,0-0.1c-5.7-13.5-9.1-25.3-10.9-35.8c0-0.1,0-0.1,0-0.2
					c-1.4-7.9-1.8-14.9-1.5-21.3c3.6-6.2,14.3-6.4,14.4-6.5c1.4,0,2.6-1.2,2.6-2.6c0-1.4-1.2-2.6-2.6-2.6c0,0,0,0,0,0
					c-0.4,0-7.8,0.2-13.7,3.8c0.7-5.1,1.9-9.7,3.4-13.7C194.3,471.6,194.5,471.4,194.6,471.2z"/>
			</g>
		</g>
		<g>
			<path class="st4" d="M185.3,553.6c-0.1-1,1-3.2,2.2-3.3c0.8,0,0.9,0.9,1.9,0.8c0.9,0,1.1-1,1.8-0.8c0.9,0.3,1.8,2.3,1.6,3.3
				C192.8,554.3,185.4,554.2,185.3,553.6z"/>
			<path class="st4" d="M188.3,553c-0.1-1,1-3.2,2.2-3.3c0.8,0,0.9,0.9,1.9,0.8c0.9,0,1.1-1,1.8-0.8c0.9,0.3,1.8,2.3,1.6,3.3
				C195.7,553.8,188.4,553.6,188.3,553z"/>
			<path class="st4" d="M191.5,552.3c-0.1-1,1-3.2,2.2-3.3c0.8,0,0.9,0.9,1.9,0.8c0.9,0,1.1-1,1.8-0.8c0.9,0.3,1.8,2.3,1.6,3.3
				C198.9,553,191.6,552.9,191.5,552.3z"/>
			<path class="st4" d="M196.2,553c-0.1-1,1-3.2,2.2-3.3c0.8,0,0.9,0.9,1.9,0.8c0.9,0,1.1-1,1.8-0.8c0.9,0.3,1.8,2.3,1.6,3.3
				C203.7,553.8,196.3,553.6,196.2,553z"/>
			<path class="st4" d="M192.9,553.8c-0.1-1,1-3.2,2.2-3.3c0.8,0,0.9,0.9,1.9,0.8c0.9,0,1.1-1,1.8-0.8c0.9,0.3,1.8,2.3,1.6,3.3
				C200.3,554.5,193,554.4,192.9,553.8z"/>
			<path class="st4" d="M198.6,553.8c-0.1-1,1-3.2,2.2-3.3c0.8,0,0.9,0.9,1.9,0.8c0.9,0,1.1-1,1.8-0.8c0.9,0.3,1.8,2.3,1.6,3.3
				C206,554.5,198.7,554.4,198.6,553.8z"/>
		</g>
	</g>
</g>
<g>
	<g>
		<g>
			<g>
				<path class="st5" d="M-198.4,501.7c-0.8-1.9-1.7-3.9-2.5-6.2c0,0-7.5-14.9,1.1-18.4c8.7-3.5,36.5,19.8,44.1,11.2
					C-155.6,488.3-180.2,542.3-198.4,501.7z"/>
				<path class="st6" d="M-187.1,486c1.3,1.2,2.5,2.7,3.6,4.2c-1.7-0.1-3.3-0.1-4.9,0c-0.5,0-0.9,0.1-1.4,0.2
					c-2.2-1.7-4.5-2.7-6.6-2.7c-0.6,0-1.1,0.1-1.7,0.2c1.7-0.1,3.5,0.5,5.4,1.7c0.5,0.3,1,0.7,1.5,1.1c-2.4,0.5-4.7,1.3-6.8,2.3
					c-0.5,0.3-1.1,0.5-1.6,0.8c-0.3,0.1-0.5,0.3-0.8,0.4c-0.1,0.1-0.2,0.2-0.4,0.2c-0.1,0-0.3,0.1-0.3,0.3c0.1,0.2,0.3,0.1,0.3,0.1
					c0.2,0,0.3-0.1,0.5-0.1c0.3-0.1,0.6-0.1,0.9-0.2c0.6-0.1,1.2-0.2,1.8-0.4c1.3-0.3,2.7-0.5,4.1-0.7c-0.2,1-0.5,2-0.9,2.9
					c-0.4,0.9-0.9,1.7-1.4,2.4c0.6-0.5,1.2-1.1,1.7-1.8c0.5-0.7,0.9-1.4,1.3-2.3c0.2-0.5,0.4-0.9,0.5-1.4c1.5-0.2,3.1-0.4,4.7-0.5
					c0.4,0,0.9-0.1,1.4-0.1c-0.3,2.2-0.8,4.3-1.6,6c-0.2,0.5-0.5,0.9-0.8,1.4c1.5-1.3,2.4-3.3,3.2-5.5c0.2-0.6,0.4-1.3,0.5-1.9
					c2-0.1,4.1-0.1,6.2,0.1c0.6,0.1,1.2,0.2,1.8,0.3c0.1,2,0,3.9-0.2,5.7c-0.3,1.8-0.7,3.4-1.4,4.8c-0.4,0.8-0.9,1.6-1.4,2.2
					c1.1-1,2-2.4,2.7-4c0.6-1.6,1.1-3.3,1.3-5.2c0.1-1.1,0.2-2.2,0.2-3.3c1,0.2,2,0.5,3,0.8c0.1,0.1,0.2,0.1,0.3,0.1
					c1.2,0.4,2.4,0.8,3.6,1.4c1.2,0.5,2.4,1.2,3.7,1.8c2.6,1.4,5.2,2.8,7.8,4.3c1.3,0.7,2.6,1.5,3.9,2.3c0.1,0,0.3,0.2,0.3,0.1
					c0-0.2-0.3-0.3-0.4-0.3c-0.3-0.2-0.6-0.4-1-0.6c-0.6-0.4-1.3-0.8-1.9-1.3c-2.6-1.7-5.2-3.3-7.8-4.9c-1.2-0.8-2.5-1.5-3.7-2.2
					c-1.2-0.6-2.4-1.2-3.6-1.7c-0.3-0.1-0.6-0.2-0.9-0.3c-0.4-0.7-0.8-1.4-1.3-2.1c-0.4-0.6-0.9-1.3-1.3-1.9c-0.4-0.5-0.8-1-1.1-1.5
					c-0.4-0.5-0.8-1.1-1.3-1.6c-1-1.2-2.1-2.2-3.2-3.2c-1.2-1-2.4-1.9-3.6-2.5c2.1,1.3,4.1,3.2,5.9,5.4c0.4,0.4,0.7,0.9,1.1,1.4
					c0.2,0.3,0.4,0.5,0.6,0.8c0.3,0.4,0.5,0.7,0.8,1.1c0.3,0.4,0.6,0.9,0.9,1.3c0.4,0.7,0.9,1.4,1.3,2.2c-1.2-0.4-2.3-0.7-3.5-1
					c-0.8-0.2-1.6-0.3-2.3-0.5c-0.9-0.1-1.8-0.3-2.6-0.3c-2.4-3-5.2-5.6-8-7.2c-0.8-0.4-1.6-0.7-2.3-1
					C-190.6,483-188.8,484.3-187.1,486z"/>
			</g>
			<path class="st7" d="M-77.9,493.9c0-2.5-1.4-4.7-3.5-5.8c1-2,1.5-4.2,1.5-6.6c0-8.4-7-15.3-15.5-15.3c-2.2,0-4.4,0.5-6.3,1.3
				c-2.3-3.1-6-5.1-10.2-5.1c-4.8,0-8.9,2.6-11.1,6.4c-2.4-1.6-5.3-2.6-8.4-2.6c-8.1,0-14.6,6.4-14.6,14.3c0,0.6,0,1.2,0.1,1.7
				c-5.7,1.9-9.8,7.3-9.8,13.5c0,4.9,2.5,9.2,6.3,11.8c-1.5,2.1-2.4,4.6-2.4,7.3c0,6.9,5.7,12.4,12.6,12.4c2.9,0,5.6-1,7.7-2.6
				c2.8,3.9,7.4,6.4,12.7,6.4c5.5,0,10.4-2.8,13.1-7.1c1.9,3.1,5.3,5.2,9.2,5.2c5.9,0,10.7-4.7,10.7-10.5c0-1.3-0.3-2.5-0.7-3.7
				c3.8-1.6,6.5-5.3,6.5-9.7c0-2.1-0.6-4-1.7-5.6C-79.3,498.6-77.9,496.5-77.9,493.9z"/>
			<path class="st7" d="M-113.1,487.1c0-2.5-1.4-4.7-3.5-5.8c1-2,1.5-4.2,1.5-6.6c0-8.4-7-15.3-15.5-15.3c-2.2,0-4.4,0.5-6.3,1.3
				c-2.3-3.1-6-5.1-10.2-5.1c-4.8,0-8.9,2.6-11.1,6.4c-2.4-1.6-5.3-2.6-8.4-2.6c-8.1,0-14.6,6.4-14.6,14.3c0,0.6,0,1.2,0.1,1.7
				c-5.7,1.9-9.8,7.3-9.8,13.5c0,4.9,2.5,9.2,6.3,11.8c-1.5,2.1-2.4,4.6-2.4,7.3c0,6.9,5.7,12.4,12.6,12.4c2.9,0,5.6-1,7.7-2.6
				c2.8,3.9,7.4,6.4,12.7,6.4c5.5,0,10.4-2.8,13.1-7.1c1.9,3.1,5.3,5.2,9.2,5.2c5.9,0,10.7-4.7,10.7-10.5c0-1.3-0.3-2.5-0.7-3.7
				c3.8-1.6,6.5-5.3,6.5-9.7c0-2.1-0.6-4-1.7-5.6C-114.6,491.9-113.1,489.7-113.1,487.1z"/>
			<path class="st7" d="M-140,493.9c-1.6,0.7-3.3,1.1-5.1,1.1c-7,0-12.6-5.6-12.6-12.4c0-2.7,0.9-5.2,2.4-7.3
				c-3.8-2.6-6.3-6.9-6.3-11.8c0-2.4,0.6-4.6,1.6-6.6c-4.2-2.5-9.7-2-13.3,1.6c-0.3,0.3-0.6,0.6-0.9,1c-4-1.9-9.1-1.3-12.4,2
				c-2.6,2.6-3.6,6.1-3,9.5c-1.9,0.3-3.7,1.1-5.2,2.6c-3.7,3.6-3.7,9.4,0,13.1c1.5,1.5,3.5,2.4,5.5,2.6c-0.6,3.5,0.5,7.2,3.2,9.9
				c2.9,2.9,7,3.9,10.7,3c-0.7,2.6,0,5.5,2.1,7.5c3.1,3,8.1,3,11.2,0c0.7-0.7,1.2-1.5,1.6-2.3c2.9,1.1,6.3,0.6,8.6-1.7
				c1.1-1.1,1.8-2.4,2.1-3.8c1.7,0.5,3.7,0.1,5-1.2c1.3-1.3,1.7-3.2,1.3-4.9C-142.2,495.4-141,494.7-140,493.9z"/>
			<path class="st7" d="M-69.8,473.8c-0.3-0.3-0.7-0.6-1-0.9c2-4,1.3-8.9-2.1-12.2c-2.6-2.6-6.2-3.6-9.6-2.9
				c-0.3-1.9-1.2-3.7-2.6-5.1c-3.7-3.6-9.6-3.6-13.3,0c-0.2,0.2-0.4,0.5-0.6,0.8c-0.1,0.2-0.2,0.4-0.2,0.6c2.1,1.1,3.5,3.3,3.5,5.8
				c0,2.5-1.5,4.7-3.6,5.9c1,1.6,1.7,3.5,1.7,5.6c0,4.3-2.7,8.1-6.5,9.7c0.4,1.1,0.7,2.4,0.7,3.7c0,5.8-4.8,10.5-10.7,10.5
				c-1.4,0-2.7-0.3-3.9-0.7c0.1,0.1,0.2,0.3,0.3,0.5c1.1,1.1,2.4,1.8,3.9,2.1c-0.5,1.7-0.1,3.6,1.2,4.9c1.3,1.3,3.2,1.7,4.9,1.2
				c0.6,1.6,1.5,3,2.7,4.3c4.5,4.4,11.8,4.4,16.4,0c1.2-1.2,2-2.5,2.6-3.9c2.9,0.4,5.9-0.4,8.1-2.6c2.5-2.5,3.3-6,2.4-9.1
				c2.1-0.4,4.2-1.3,5.8-3C-65.6,484.7-65.6,478-69.8,473.8z"/>
			<path class="st8" d="M-150.4,463.6c-0.3,0-0.6-0.1-0.9-0.2c-6.3-2.5-9.5-9.6-7-16c2.5-6.3,9.6-9.5,16-7c1.3,0.5,1.9,2,1.4,3.3
				c-0.5,1.3-2,1.9-3.3,1.4c-3.8-1.5-8,0.4-9.5,4.1c-1.5,3.8,0.4,8,4.1,9.5c1.3,0.5,1.9,2,1.4,3.3
				C-148.4,463-149.4,463.6-150.4,463.6z"/>
			<path class="st9" d="M-85.9,489.9c-1.5,0-3-0.3-4.5-0.9c-3.1-1.2-5.5-3.5-6.8-6.5c-0.6-1.3,0-2.8,1.3-3.3c1.3-0.6,2.8,0,3.3,1.3
				c0.8,1.8,2.2,3.2,4,3.9c1.8,0.7,3.8,0.7,5.6-0.1c1.8-0.8,3.2-2.2,3.9-4c0.7-1.8,0.7-3.8-0.1-5.6c-0.6-1.3,0-2.8,1.3-3.3
				c1.3-0.6,2.8,0,3.3,1.3c1.3,3,1.4,6.4,0.2,9.4c-1.2,3.1-3.5,5.5-6.5,6.8C-82.5,489.6-84.2,489.9-85.9,489.9z"/>
			<path class="st8" d="M-120.4,483.7c-4.3,0-8.5-2.3-10.8-6.3c-0.7-1.2-0.3-2.7,1-3.4c1.2-0.7,2.7-0.3,3.4,1c1,1.7,2.5,2.9,4.4,3.4
				c1.9,0.5,3.8,0.3,5.5-0.7s2.9-2.5,3.4-4.4c0.5-1.9,0.3-3.8-0.7-5.5c-0.7-1.2-0.3-2.7,1-3.4c1.2-0.7,2.7-0.3,3.4,1
				c1.6,2.9,2,6.2,1.1,9.4c-0.9,3.2-2.9,5.8-5.8,7.4C-116.2,483.2-118.3,483.7-120.4,483.7z"/>
			<path class="st8" d="M-129.2,470.1c-1.8,0-3.6-0.4-5.4-1.2c-6.1-3-8.7-10.4-5.7-16.5c0.6-1.2,2.1-1.8,3.4-1.2
				c1.3,0.6,1.8,2.1,1.2,3.4c-1.8,3.6-0.2,8,3.4,9.8c3.6,1.7,8,0.2,9.8-3.4c0.6-1.2,2.1-1.8,3.4-1.2c1.3,0.6,1.8,2.1,1.2,3.4
				C-120.2,467.6-124.6,470.1-129.2,470.1z"/>
			<path class="st8" d="M-148.3,484.3c-1.7,0-3.4-0.3-4.9-1c-6.2-2.7-9.1-10-6.4-16.2c0.6-1.3,2-1.9,3.3-1.3c1.3,0.6,1.9,2,1.3,3.3
				c-1.6,3.7,0.1,8,3.8,9.6c1.8,0.8,3.8,0.8,5.6,0.1c1.8-0.7,3.2-2.1,4-3.9c0.6-1.3,2-1.9,3.3-1.3c1.3,0.6,1.9,2,1.3,3.3
				c-1.3,3-3.7,5.3-6.8,6.5C-145.3,484-146.8,484.3-148.3,484.3z"/>
			<path class="st8" d="M-120.3,456.8c-0.4,0-0.8,0-1.2-0.1c-3.3-0.3-6.2-1.9-8.3-4.4c-0.9-1.1-0.7-2.7,0.3-3.5
				c1.1-0.9,2.7-0.7,3.5,0.3c1.2,1.5,3,2.4,4.9,2.6c2,0.2,3.8-0.4,5.3-1.6c3.1-2.6,3.5-7.2,1-10.3c-0.9-1.1-0.7-2.7,0.3-3.5
				c1.1-0.9,2.7-0.7,3.5,0.3c4.3,5.2,3.6,13-1.7,17.4C-114.7,455.8-117.5,456.8-120.3,456.8z"/>
			<path class="st10" d="M-77.1,475.1c0-3.6-2-6.7-5-8.4c1.4-2.9,2.2-6.1,2.2-9.5c0-12.2-10-22-22.4-22c-3.2,0-6.3,0.7-9.1,1.9
				c-3.3-4.5-8.7-7.4-14.8-7.4c-6.9,0-12.9,3.7-16,9.3c-3.4-2.4-7.6-3.8-12.1-3.8c-11.6,0-21,9.3-21,20.7c0,0.9,0.1,1.7,0.2,2.5
				c-8.3,2.8-14.2,10.5-14.2,19.5c0,7.1,3.6,13.3,9.1,17c-2.2,3-3.5,6.6-3.5,10.5c0,9.9,8.2,17.9,18.2,17.9c4.2,0,8.1-1.4,11.2-3.8
				c4.1,5.6,10.7,9.3,18.3,9.3c8,0,15-4.1,19-10.3c2.7,4.5,7.6,7.5,13.3,7.5c8.5,0,15.4-6.8,15.4-15.2c0-1.9-0.4-3.7-1-5.3
				c5.5-2.3,9.4-7.7,9.4-14c0-3-0.9-5.7-2.4-8.1C-79.2,481.9-77.1,478.8-77.1,475.1z"/>
			<path class="st7" d="M-153.1,502.6c-1.5,0-3.1-0.3-4.6-0.9c-6.3-2.6-9.3-9.8-6.8-16.1c0.5-1.3,2-1.9,3.3-1.4
				c1.3,0.5,1.9,2,1.4,3.3c-1.5,3.7,0.3,8,4,9.5c3.7,1.5,8-0.3,9.5-4c0.5-1.3,2-1.9,3.3-1.4c1.3,0.5,1.9,2,1.4,3.3
				C-143.6,499.7-148.2,502.6-153.1,502.6z"/>
			<path class="st7" d="M-131.2,477.6c-1.4-0.6-2.8-1.4-3.9-2.6c-4.9-4.7-5-12.6-0.3-17.4c1-1,2.6-1,3.6-0.1c1,1,1,2.6,0.1,3.6
				c-2.8,2.9-2.7,7.5,0.2,10.3c2.9,2.8,7.5,2.7,10.3-0.2c1-1,2.6-1,3.6-0.1c1,1,1,2.6,0.1,3.6C-121.3,478.5-126.7,479.5-131.2,477.6
				z"/>
			<path class="st7" d="M-166.7,455.2c0.3-1.5,0.9-3,1.8-4.3c3.8-5.7,11.4-7.2,17.1-3.4c1.2,0.8,1.5,2.3,0.7,3.5
				c-0.8,1.2-2.3,1.5-3.5,0.7c-3.4-2.2-7.9-1.3-10.1,2c-2.2,3.4-1.3,7.9,2,10.1c1.2,0.8,1.5,2.3,0.7,3.5c-0.8,1.2-2.3,1.5-3.5,0.7
				C-165.8,465.1-167.7,460-166.7,455.2z"/>
			<path class="st7" d="M-97.3,459.3c-0.7,1.4-1.7,2.6-2.9,3.7c-5.1,4.5-12.9,3.9-17.4-1.2c-0.9-1-0.8-2.6,0.2-3.6
				c1-0.9,2.6-0.8,3.6,0.2c2.6,3,7.3,3.4,10.3,0.7c3-2.6,3.4-7.3,0.7-10.3c-0.9-1.1-0.8-2.6,0.2-3.6c1-0.9,2.6-0.8,3.6,0.2
				C-95.6,449.5-95.1,454.9-97.3,459.3z"/>
			<path class="st7" d="M-105.5,504.6c-1,1.2-2.2,2.2-3.7,2.9c-6,3.1-13.5,0.8-16.6-5.3c-0.6-1.2-0.2-2.7,1.1-3.4
				c1.2-0.6,2.8-0.2,3.4,1.1c1.8,3.6,6.3,5,9.8,3.1c3.6-1.9,5-6.3,3.1-9.8c-0.6-1.2-0.2-2.8,1.1-3.4c1.2-0.6,2.8-0.2,3.4,1.1
				C-101.5,495.5-102.3,500.9-105.5,504.6z"/>
			<g>
				<path class="st5" d="M-123.2,548.4c-1.3-0.2-2.7-0.5-4.2-1c0,0-10.7-1.3-8.4-7.8s26.5-13.7,25.9-21.4
					C-109.8,518.3-95.2,553.4-123.2,548.4z"/>
			</g>
			<g>
				<path class="st5" d="M-88.4,535.5c-1.4,1.5-2.9,3.1-4.6,4.7c0,0-11.5,12.6-11.1,7s23.2-38.3,20.1-40.8
					C-84,506.4-57.8,503.2-88.4,535.5z"/>
			</g>
			<g>
				<path class="st5" d="M-142.7,531.6c0.4-1.3,0.7-2.8,0.9-4.5c0,0,3.9-10.6-5.9-14.7s-32.2,9.9-42.1,1.9
					C-189.8,514.3-150.9,560.7-142.7,531.6z"/>
			</g>
		</g>
		<g>
			<path class="st5" d="M-143.5,546.3c-2-0.8-4.2-1.9-6.5-3.1c0,0-16.9-5.3-12.3-20.6c4.5-15.2,44-28.3,44-47.3
				C-118.3,475.3-99.5,564-143.5,546.3z"/>
			<path class="st11" d="M-143.5,546.3c31.3-4.7,25.2-71,25.2-71S-99.5,564-143.5,546.3z"/>
		</g>
		<g>
			<path class="st5" d="M-83.8,526c-0.5-0.7-1.1-1.6-1.6-2.7c0,0-4.5-5-1.1-16.3c3.4-11.3,17.3-19.1,19.9-33.6
				C-66.6,473.4-72.5,541.8-83.8,526z"/>
			<path class="st11" d="M-83.8,526c10.3-1.9,17.1-52.6,17.1-52.6c0.6,14.2-1.3,25.2-3,32.6c-1.2,5-5.4,22.4-10.7,22.4
				C-81.8,528.4-83,527.1-83.8,526z"/>
		</g>
		<g>
			<path class="st5" d="M-117.4,546.9c-0.4-1-0.8-2.2-1.2-3.6c0,0-4.3-7.5,3.6-16.4c7.9-8.9,28.2-8.3,35.9-20.8
				C-79.1,506.1-107.8,568.8-117.4,546.9z"/>
			<path class="st11" d="M-117.4,546.9c13.8,4.2,38.3-40.8,38.3-40.8S-107.8,568.8-117.4,546.9z"/>
		</g>
		<g>
			<path class="st5" d="M-160.1,526.7c-0.1-0.9-0.4-1.9-0.8-3.1c0,0-0.3-6.5-9.8-13c-9.4-6.5-23.2-3.8-34.1-13.2
				C-204.7,497.4-157,545.5-160.1,526.7z"/>
			<path class="st11" d="M-160.1,526.7c-7.8,4.9-44.6-29.2-44.6-29.2S-157,545.5-160.1,526.7z"/>
			<path class="st12" d="M-177,513c-0.6,0.1-1.2,0.3-1.6,0.7c1.4,0.9,2.9,1.9,4.3,3c0.4,0.3,0.8,0.6,1.3,1c1.3,0.2,3,0.9,4.8,2.1
				c0.5,0.3,1,0.7,1.5,1.1c-1.5-1.1-2.9-1.8-4.1-2.1c-0.3-0.1-0.7-0.1-0.9-0.2c2.3,1.8,4.6,3.7,6.8,5.7c0.6,0.5,1.1,1,1.7,1.5
				c0.3,0.3,0.6,0.5,0.8,0.8c0.1,0.1,0.3,0.3,0.4,0.4c0.1,0.1,0.3,0.3,0.4,0.4c0,0.1-0.2-0.1-0.3-0.2c-0.1-0.1-0.3-0.2-0.4-0.3
				c-0.3-0.2-0.6-0.5-0.9-0.7c-0.6-0.5-1.2-0.9-1.7-1.3c-1.3-1-2.6-2-3.9-3c0.6,0.8,1.2,1.7,1.8,2.5c0.7,0.9,1.4,1.7,2.1,2.5
				c-0.7-0.7-1.5-1.5-2.2-2.3c-0.7-0.8-1.4-1.6-2-2.4c-0.3-0.4-0.7-0.9-1-1.3c-1.4-1.1-2.9-2.2-4.3-3.2c-0.4-0.3-0.8-0.6-1.2-0.9
				c1.1,1.7,2.3,3.5,3.7,5.2c0.4,0.5,0.8,1,1.2,1.4c-1.8-1.8-3.4-3.8-4.9-5.7c-0.4-0.6-0.8-1.1-1.2-1.7c-1.8-1.3-3.6-2.5-5.4-3.7
				c-0.5-0.3-1-0.6-1.5-0.9c0.6,1.3,1.4,2.7,2.3,4.1c0.9,1.4,1.9,2.8,3,4.2c0.7,0.8,1.4,1.6,2.1,2.4c-1.4-1.4-2.7-2.9-3.9-4.4
				c-1.1-1.5-2.2-3-3.1-4.4c-0.5-0.8-1-1.6-1.4-2.4c-0.8-0.4-1.6-0.9-2.3-1.3c-0.1,0-0.1-0.1-0.2-0.1c-0.9-0.5-1.8-0.9-2.7-1.2
				c-0.9-0.4-1.7-0.7-2.5-0.9c-1.8-0.6-3.5-1.2-5.2-1.7c-0.9-0.3-1.7-0.5-2.6-0.8c-0.1,0-0.2,0-0.2-0.1c-0.1-0.1,0.1,0,0.2,0
				c0.2,0,0.4,0.1,0.6,0.1c0.4,0.1,0.8,0.2,1.2,0.3c1.7,0.4,3.3,0.9,5,1.3c0.8,0.2,1.6,0.5,2.5,0.7c0.8,0.3,1.7,0.6,2.5,1
				c0.2,0.1,0.4,0.2,0.6,0.3c0.1-0.2,0.2-0.5,0.4-0.7c0.1-0.2,0.3-0.4,0.5-0.5c0.2-0.1,0.3-0.2,0.5-0.3c0.2-0.1,0.3-0.2,0.5-0.3
				c0.5-0.2,1-0.3,1.6-0.3c0.7,0,1.4,0.2,2.2,0.4c-1.3-0.3-2.4-0.2-3.1,0.2c-0.2,0.1-0.3,0.2-0.4,0.3c-0.1,0.1-0.1,0.1-0.2,0.2
				c-0.1,0.1-0.2,0.2-0.3,0.3c-0.1,0.1-0.2,0.2-0.3,0.4c-0.1,0.2-0.2,0.5-0.3,0.7c0.9,0.4,1.8,0.9,2.7,1.4c0.6,0.4,1.3,0.7,1.9,1.1
				c0.7,0.4,1.4,0.9,2.2,1.3c0.9-0.7,2.4-0.8,4.3-0.1c0.5,0.2,1.1,0.4,1.7,0.7C-175,513.1-176.1,512.9-177,513z"/>
		</g>
		<path class="st12" d="M-154.7,536.1c1.1,1.5,2.2,3,3.5,4.4c-0.5,0.5-1,1-1.5,1.4c0.8,0.5,1.6,1,2.4,1.4c1.8,1,3.5,1.7,5.1,2.3
			c0.2-0.4,0.5-1,0.8-1.8c1.1-2.3,2-4,2.8-5.5c0.8-1.4,1.9-3.6,3.4-6.5c3.6-0.1,9.3-0.9,15-4.5c1.4-0.9,2.7-1.9,3.7-2.8
			c-0.8,0.5-6.3,4-10.8,5.2c-1.8,0.4-3.9,0.8-3.9,0.8c-1.5,0.2-2.8,0.3-3.7,0.4c1.6-2.8,3.2-5.8,4.8-9c0.7-1.4,1.3-2.7,2-4.1
			c2.4-0.9,4.3-2,5.6-2.8c1.6-1.1,3.1-2,4.4-3.8c0.9-1.2,1.4-2.3,1.7-3.1c-1.8,3-4.6,5.5-8,7.3c-1,0.5-2,1-3,1.3
			c2.2-4.7,3.9-9.5,5.2-14.5c0.3-1.2,0.6-2.5,0.9-3.7c0.1-0.6,0.3-1.2,0.4-1.8c0.1-0.3,0.1-0.6,0.2-0.9c0-0.2,0.2-0.7,0-0.8
			c-0.3-0.1-0.4,0.4-0.5,0.5c-0.1,0.3-0.3,0.6-0.4,0.9c-0.3,0.6-0.6,1.2-0.8,1.8c-0.6,1.2-1.4,3-1.7,3.6c-1.5,3.2-3.7,7.1-4.1,7.8
			c-0.6-1-1.3-2.2-1.9-3.8c-0.9-2.5-1.1-4.8-1.2-6.3c-0.4,2.2-0.2,4,0,5.1c0.3,1.3,0.7,2.4,1.1,3.4c0.5,1.2,0.9,2.1,1.3,2.8
			c-1.3,3.2-3,6.6-5.1,10.1c-0.7,1.2-1.4,2.3-2.1,3.4c-1.6-2.9-3.2-6.6-4.1-11c-0.2-1.1-0.4-2.1-0.6-3.1c-0.3,4.1,0.9,8.2,2.6,12.1
			c0.5,1.1,1,2.2,1.5,3.2c-1.8,3.3-4.1,6.9-7.2,10.5c-1.1,1.3-2.2,2.5-3.3,3.6c-2-1.9-4.2-4.4-6.1-7.9c-1.9-3.5-2.7-6.6-3.1-8.3
			c-0.5-2-0.7-3.8-0.9-5.1c-0.1,3.2,0.3,6.3,1.4,9.4C-158.1,530.6-156.6,533.4-154.7,536.1z"/>
		<path class="st12" d="M-115.1,543.6c-0.1,1.2-0.2,2.4-0.2,3.5c-0.3,0.3-0.6,0.5-0.9,0.8c0.1,0.4,0.2,0.9,0.4,1.3
			c0.3,0.9,0.6,1.7,1,2.4c0.2-0.3,0.5-0.6,0.8-1.1c1.1-1.4,1.9-2.4,2.7-3.3c0.7-0.9,1.8-2.2,3.2-3.9c1.2,0.5,3.4,0.8,6.4-0.8
			c0.8-0.4,1.5-0.9,2.1-1.3c-0.4,0.2-3.4,1.8-5.2,1.8c-0.7,0-1.5-0.1-1.5-0.1c-0.6-0.1-1-0.2-1.4-0.3c1.4-1.7,2.9-3.5,4.4-5.4
			c0.7-0.8,1.3-1.7,1.9-2.5c1.1-0.2,2-0.7,2.7-1c0.9-0.5,1.7-0.9,2.7-1.9c0.7-0.7,1.2-1.4,1.6-1.9c-1.6,1.7-3.3,3-5,3.7
			c-0.5,0.2-1,0.3-1.4,0.5c2.2-2.9,4.3-5.9,6.3-9c0.5-0.8,1-1.6,1.5-2.4c0.2-0.4,0.5-0.8,0.7-1.2c0.1-0.2,0.2-0.4,0.3-0.6
			c0.1-0.1,0.3-0.5,0.3-0.6c-0.1-0.1-0.2,0.2-0.3,0.3c-0.1,0.2-0.3,0.4-0.4,0.6c-0.3,0.4-0.6,0.7-0.8,1.1c-0.6,0.7-1.4,1.8-1.7,2.2
			c-1.5,1.9-3.5,4.2-3.8,4.7c0.1-0.8,0.3-1.7,0.6-2.9c0.5-1.9,1.1-3.4,1.6-4.5c-0.8,1.5-1.3,2.7-1.6,3.5c-0.3,0.9-0.5,1.7-0.7,2.5
			c-0.2,0.9-0.4,1.6-0.5,2.1c-1.5,2-3.1,4-4.9,6.1c-0.6,0.7-1.2,1.4-1.8,2c0.4-2.3,1-5,2.1-8.1c0.3-0.8,0.5-1.5,0.8-2.2
			c-1.4,2.8-2.3,5.7-3,8.6c-0.2,0.8-0.4,1.6-0.5,2.4c-1.6,1.9-3.5,4-5.7,6c-0.8,0.7-1.5,1.3-2.2,1.9c-0.1-1.6,0-3.7,0.5-6.3
			c0.5-2.7,1.2-4.9,1.6-6.1c0.5-1.5,0.9-2.7,1.3-3.6c-1,2.2-1.9,4.4-2.5,6.6C-114.5,539.3-114.9,541.5-115.1,543.6z"/>
		<path class="st13" d="M-84.8,515.3c0.2,1.2,0.5,2.3,0.8,3.4c-0.2,0.3-0.5,0.7-0.7,1c0.2,0.4,0.5,0.8,0.7,1.2
			c0.5,0.8,1.1,1.5,1.6,2c0.1-0.3,0.3-0.7,0.5-1.3c0.7-1.7,1.2-2.8,1.7-3.9c0.4-1,1.1-2.5,2-4.6c1.3,0.1,3.5-0.1,5.9-2.5
			c0.6-0.6,1.2-1.2,1.7-1.9c-0.3,0.3-2.8,2.6-4.5,3.2c-0.7,0.2-1.5,0.3-1.5,0.3c-0.6,0.1-1,0.1-1.4,0.1c0.9-2,1.9-4.1,2.8-6.4
			c0.4-1,0.8-2,1.2-2.9c1-0.5,1.8-1.2,2.3-1.7c0.7-0.7,1.4-1.3,2.1-2.6c0.5-0.8,0.8-1.6,1-2.2c-1,2.1-2.3,3.8-3.8,4.9
			c-0.4,0.3-0.8,0.6-1.2,0.8c1.3-3.4,2.6-6.8,3.6-10.4c0.3-0.9,0.5-1.8,0.8-2.7c0.1-0.4,0.2-0.9,0.3-1.3c0.1-0.2,0.1-0.4,0.2-0.7
			c0-0.1,0.2-0.5,0.1-0.6c-0.1-0.1-0.2,0.2-0.2,0.3c-0.1,0.2-0.2,0.4-0.3,0.7c-0.2,0.4-0.3,0.8-0.5,1.3c-0.4,0.9-0.9,2.1-1,2.5
			c-0.9,2.2-2.2,5-2.4,5.5c-0.1-0.8-0.2-1.7-0.2-2.9c0-1.9,0.2-3.6,0.3-4.8c-0.4,1.6-0.5,2.9-0.6,3.8c-0.1,0.9,0,1.8,0,2.6
			c0,0.9,0.1,1.6,0.1,2.1c-0.9,2.3-1.9,4.7-3,7.2c-0.4,0.8-0.8,1.6-1.2,2.4c-0.2-2.3-0.4-5.1-0.2-8.4c0-0.8,0.1-1.6,0.2-2.3
			c-0.6,3-0.6,6.2-0.5,9.1c0,0.8,0.1,1.7,0.2,2.5c-1,2.3-2.3,4.8-3.9,7.3c-0.6,0.9-1.1,1.7-1.6,2.4c-0.5-1.5-1-3.5-1.3-6.2
			c-0.3-2.7-0.2-5-0.1-6.3c0.1-1.5,0.2-2.9,0.3-3.9c-0.4,2.4-0.6,4.7-0.6,7.1C-85.4,511-85.2,513.2-84.8,515.3z"/>
	</g>
	<g>
		<path class="st4" d="M-145.6,553.3c-0.3-1.4,2-4.8,4.3-4.9c1.5-0.1,1.9,1.3,3.7,1.2c1.9-0.1,2.3-1.5,3.7-1.2
			c1.9,0.4,3.6,3.4,3.3,4.9C-130.8,554.4-145.4,554.1-145.6,553.3z"/>
		<path class="st4" d="M-139.8,552.4c-0.3-1.4,2-4.8,4.3-4.9c1.5-0.1,1.9,1.3,3.7,1.2c1.9-0.1,2.3-1.5,3.7-1.2
			c1.9,0.4,3.6,3.4,3.3,4.9C-125,553.6-139.6,553.3-139.8,552.4z"/>
		<path class="st4" d="M-133.3,551.3c-0.3-1.4,2-4.8,4.3-4.9c1.5-0.1,1.9,1.3,3.7,1.2c1.9-0.1,2.3-1.5,3.7-1.2
			c1.9,0.4,3.6,3.4,3.3,4.9C-118.5,552.4-133.1,552.2-133.3,551.3z"/>
		<path class="st4" d="M-123.8,552.4c-0.3-1.4,2-4.8,4.3-4.9c1.5-0.1,1.9,1.3,3.7,1.2c1.9-0.1,2.3-1.5,3.7-1.2
			c1.9,0.4,3.6,3.4,3.3,4.9C-109.1,553.6-123.7,553.3-123.8,552.4z"/>
		<path class="st4" d="M-130.5,553.5c-0.3-1.4,2-4.8,4.3-4.9c1.5-0.1,1.9,1.3,3.7,1.2c1.9-0.1,2.3-1.5,3.7-1.2
			c1.9,0.4,3.6,3.4,3.3,4.9C-115.7,554.6-130.3,554.4-130.5,553.5z"/>
		<path class="st4" d="M-119.1,553.5c-0.3-1.4,2-4.8,4.3-4.9c1.5-0.1,1.9,1.3,3.7,1.2c1.9-0.1,2.3-1.5,3.7-1.2
			c1.9,0.4,3.6,3.4,3.3,4.9C-104.3,554.6-118.9,554.4-119.1,553.5z"/>
	</g>
</g>
<g>
	<g>
		<g>
			<g>
				<path class="st5" d="M-40.2,592.4c-0.8-1.9-1.7-3.9-2.5-6.2c0,0-7.5-14.9,1.1-18.4S-5,587.5,2.6,578.9
					C2.6,578.9-22.1,632.9-40.2,592.4z"/>
				<path class="st6" d="M-28.9,576.7c1.3,1.2,2.5,2.7,3.6,4.2c-1.7-0.1-3.3-0.1-4.9,0c-0.5,0-0.9,0.1-1.4,0.2
					c-2.2-1.7-4.5-2.7-6.6-2.7c-0.6,0-1.1,0.1-1.7,0.2c1.7-0.1,3.5,0.5,5.4,1.7c0.5,0.3,1,0.7,1.5,1.1c-2.4,0.5-4.7,1.3-6.8,2.3
					c-0.5,0.3-1.1,0.5-1.6,0.8c-0.3,0.1-0.5,0.3-0.8,0.4c-0.1,0.1-0.2,0.2-0.4,0.2c-0.1,0-0.3,0.1-0.3,0.3c0.1,0.2,0.3,0.1,0.3,0.1
					c0.2,0,0.3-0.1,0.5-0.1c0.3-0.1,0.6-0.1,0.9-0.2c0.6-0.1,1.2-0.2,1.8-0.4c1.3-0.3,2.7-0.5,4.1-0.7c-0.2,1-0.5,2-0.9,2.9
					c-0.4,0.9-0.9,1.7-1.4,2.4c0.6-0.5,1.2-1.1,1.7-1.8c0.5-0.7,0.9-1.4,1.3-2.3c0.2-0.5,0.4-0.9,0.5-1.4c1.5-0.2,3.1-0.4,4.7-0.5
					c0.4,0,0.9-0.1,1.4-0.1c-0.3,2.2-0.8,4.3-1.6,6c-0.2,0.5-0.5,0.9-0.8,1.4c1.5-1.3,2.4-3.3,3.2-5.5c0.2-0.6,0.4-1.3,0.5-1.9
					c2-0.1,4.1-0.1,6.2,0.1c0.6,0.1,1.2,0.2,1.8,0.3c0.1,2,0,3.9-0.2,5.7c-0.3,1.8-0.7,3.4-1.4,4.8c-0.4,0.8-0.9,1.6-1.4,2.2
					c1.1-1,2-2.4,2.7-4c0.6-1.6,1.1-3.3,1.3-5.2c0.1-1.1,0.2-2.2,0.2-3.3c1,0.2,2,0.5,3,0.8c0.1,0.1,0.2,0.1,0.3,0.1
					c1.2,0.4,2.4,0.8,3.6,1.4c1.2,0.5,2.4,1.2,3.7,1.8c2.6,1.4,5.2,2.8,7.8,4.3c1.3,0.7,2.6,1.5,3.9,2.3c0.1,0,0.3,0.2,0.3,0.1
					c0-0.2-0.3-0.3-0.4-0.3c-0.3-0.2-0.6-0.4-1-0.6c-0.6-0.4-1.3-0.8-1.9-1.3c-2.6-1.7-5.2-3.3-7.8-4.9c-1.2-0.8-2.5-1.5-3.7-2.2
					c-1.2-0.6-2.4-1.2-3.6-1.7c-0.3-0.1-0.6-0.2-0.9-0.3c-0.4-0.7-0.8-1.4-1.3-2.1c-0.4-0.6-0.9-1.3-1.3-1.9c-0.4-0.5-0.8-1-1.1-1.5
					c-0.4-0.5-0.8-1.1-1.3-1.6c-1-1.2-2.1-2.2-3.2-3.2c-1.2-1-2.4-1.9-3.6-2.5c2.1,1.3,4.1,3.2,5.9,5.4c0.4,0.4,0.7,0.9,1.1,1.4
					c0.2,0.3,0.4,0.5,0.6,0.8c0.3,0.4,0.5,0.7,0.8,1.1c0.3,0.4,0.6,0.9,0.9,1.3c0.4,0.7,0.9,1.4,1.3,2.2c-1.2-0.4-2.3-0.7-3.5-1
					c-0.8-0.2-1.6-0.3-2.3-0.5c-0.9-0.1-1.8-0.3-2.6-0.3c-2.4-3-5.2-5.6-8-7.2c-0.8-0.4-1.6-0.7-2.3-1
					C-32.5,573.6-30.6,575-28.9,576.7z"/>
			</g>
			<path class="st7" d="M80.3,584.6c0-2.5-1.4-4.7-3.5-5.8c1-2,1.5-4.2,1.5-6.6c0-8.4-7-15.3-15.5-15.3c-2.2,0-4.4,0.5-6.3,1.3
				c-2.3-3.1-6-5.1-10.2-5.1c-4.8,0-8.9,2.6-11.1,6.4c-2.4-1.6-5.3-2.6-8.4-2.6c-8.1,0-14.6,6.4-14.6,14.3c0,0.6,0,1.2,0.1,1.7
				c-5.7,1.9-9.8,7.3-9.8,13.5c0,4.9,2.5,9.2,6.3,11.8c-1.5,2.1-2.4,4.6-2.4,7.3c0,6.9,5.7,12.4,12.6,12.4c2.9,0,5.6-1,7.7-2.6
				c2.8,3.9,7.4,6.4,12.7,6.4c5.5,0,10.4-2.8,13.1-7.1c1.9,3.1,5.3,5.2,9.2,5.2c5.9,0,10.7-4.7,10.7-10.5c0-1.3-0.3-2.5-0.7-3.7
				c3.8-1.6,6.5-5.3,6.5-9.7c0-2.1-0.6-4-1.7-5.6C78.8,589.3,80.3,587.1,80.3,584.6z"/>
			<path class="st7" d="M45.1,577.8c0-2.5-1.4-4.7-3.5-5.8c1-2,1.5-4.2,1.5-6.6c0-8.4-7-15.3-15.5-15.3c-2.2,0-4.4,0.5-6.3,1.3
				c-2.3-3.1-6-5.1-10.2-5.1c-4.8,0-8.9,2.6-11.1,6.4c-2.4-1.6-5.3-2.6-8.4-2.6c-8.1,0-14.6,6.4-14.6,14.3c0,0.6,0,1.2,0.1,1.7
				c-5.7,1.9-9.8,7.3-9.8,13.5c0,4.9,2.5,9.2,6.3,11.8c-1.5,2.1-2.4,4.6-2.4,7.3c0,6.9,5.7,12.4,12.6,12.4c2.9,0,5.6-1,7.7-2.6
				c2.8,3.9,7.4,6.4,12.7,6.4c5.5,0,10.4-2.8,13.1-7.1c1.9,3.1,5.3,5.2,9.2,5.2c5.9,0,10.7-4.7,10.7-10.5c0-1.3-0.3-2.5-0.7-3.7
				c3.8-1.6,6.5-5.3,6.5-9.7c0-2.1-0.6-4-1.7-5.6C43.6,582.5,45.1,580.3,45.1,577.8z"/>
			<path class="st7" d="M18.2,584.5c-1.6,0.7-3.3,1.1-5.1,1.1c-7,0-12.6-5.6-12.6-12.4c0-2.7,0.9-5.2,2.4-7.3
				c-3.8-2.6-6.3-6.9-6.3-11.8c0-2.4,0.6-4.6,1.6-6.6c-4.2-2.5-9.7-2-13.3,1.6c-0.3,0.3-0.6,0.6-0.9,1c-4-1.9-9.1-1.3-12.4,2
				c-2.6,2.6-3.6,6.1-3,9.5c-1.9,0.3-3.7,1.1-5.2,2.6c-3.7,3.6-3.7,9.4,0,13.1c1.5,1.5,3.5,2.4,5.5,2.6c-0.6,3.5,0.5,7.2,3.2,9.9
				c2.9,2.9,7,3.9,10.7,3c-0.7,2.6,0,5.5,2.1,7.5c3.1,3,8.1,3,11.2,0c0.7-0.7,1.2-1.5,1.6-2.3c2.9,1.1,6.3,0.6,8.6-1.7
				c1.1-1.1,1.8-2.4,2.1-3.8c1.7,0.5,3.7,0.1,5-1.2c1.3-1.3,1.7-3.2,1.3-4.9C16,586,17.1,585.3,18.2,584.5z"/>
			<path class="st7" d="M88.4,564.5c-0.3-0.3-0.7-0.6-1-0.9c2-4,1.3-8.9-2.1-12.2c-2.6-2.6-6.2-3.6-9.6-2.9
				c-0.3-1.9-1.2-3.7-2.6-5.1c-3.7-3.6-9.6-3.6-13.3,0c-0.2,0.2-0.4,0.5-0.6,0.8c-0.1,0.2-0.2,0.4-0.2,0.6c2.1,1.1,3.5,3.3,3.5,5.8
				c0,2.5-1.5,4.7-3.6,5.9c1,1.6,1.7,3.5,1.7,5.6c0,4.3-2.7,8.1-6.5,9.7c0.4,1.1,0.7,2.4,0.7,3.7c0,5.8-4.8,10.5-10.7,10.5
				c-1.4,0-2.7-0.3-3.9-0.7c0.1,0.1,0.2,0.3,0.3,0.5c1.1,1.1,2.4,1.8,3.9,2.1c-0.5,1.7-0.1,3.6,1.2,4.9c1.3,1.3,3.2,1.7,4.9,1.2
				c0.6,1.6,1.5,3,2.7,4.3c4.5,4.4,11.8,4.4,16.4,0c1.2-1.2,2-2.5,2.6-3.9c2.9,0.4,5.9-0.4,8.1-2.6c2.5-2.5,3.3-6,2.4-9.1
				c2.1-0.4,4.2-1.3,5.8-3C92.6,575.4,92.6,568.7,88.4,564.5z"/>
			<path class="st8" d="M7.8,554.3c-0.3,0-0.6-0.1-0.9-0.2c-6.3-2.5-9.5-9.6-7-16c2.5-6.3,9.6-9.5,16-7c1.3,0.5,1.9,2,1.4,3.3
				c-0.5,1.3-2,1.9-3.3,1.4c-3.8-1.5-8,0.4-9.5,4.1c-1.5,3.8,0.4,8,4.1,9.5c1.3,0.5,1.9,2,1.4,3.3C9.8,553.6,8.8,554.3,7.8,554.3z"
				/>
			<path class="st9" d="M72.3,580.6c-1.5,0-3-0.3-4.5-0.9c-3.1-1.2-5.5-3.5-6.8-6.5c-0.6-1.3,0-2.8,1.3-3.3c1.3-0.6,2.8,0,3.3,1.3
				c0.8,1.8,2.2,3.2,4,3.9c1.8,0.7,3.8,0.7,5.6-0.1c1.8-0.8,3.2-2.2,3.9-4c0.7-1.8,0.7-3.8-0.1-5.6c-0.6-1.3,0-2.8,1.3-3.3
				c1.3-0.6,2.8,0,3.3,1.3c1.3,3,1.4,6.4,0.2,9.4s-3.5,5.5-6.5,6.8C75.6,580.2,74,580.6,72.3,580.6z"/>
			<path class="st8" d="M37.8,574.4c-4.3,0-8.5-2.3-10.8-6.3c-0.7-1.2-0.3-2.7,1-3.4c1.2-0.7,2.7-0.3,3.4,1c1,1.7,2.5,2.9,4.4,3.4
				c1.9,0.5,3.8,0.3,5.5-0.7c1.7-1,2.9-2.5,3.4-4.4c0.5-1.9,0.3-3.8-0.7-5.5c-0.7-1.2-0.3-2.7,1-3.4c1.2-0.7,2.7-0.3,3.4,1
				c1.6,2.9,2,6.2,1.1,9.4c-0.9,3.2-2.9,5.8-5.8,7.4C42,573.9,39.9,574.4,37.8,574.4z"/>
			<path class="st8" d="M29,560.8c-1.8,0-3.6-0.4-5.4-1.2c-6.1-3-8.7-10.4-5.7-16.5c0.6-1.2,2.1-1.8,3.4-1.2
				c1.3,0.6,1.8,2.1,1.2,3.4c-1.8,3.6-0.2,8,3.4,9.8c3.6,1.7,8,0.2,9.8-3.4c0.6-1.2,2.1-1.8,3.4-1.2c1.3,0.6,1.8,2.1,1.2,3.4
				C38,558.2,33.6,560.8,29,560.8z"/>
			<path class="st8" d="M9.9,574.9c-1.7,0-3.4-0.3-4.9-1c-6.2-2.7-9.1-10-6.4-16.2c0.6-1.3,2-1.9,3.3-1.3c1.3,0.6,1.9,2,1.3,3.3
				c-1.6,3.7,0.1,8,3.8,9.6c1.8,0.8,3.8,0.8,5.6,0.1c1.8-0.7,3.2-2.1,4-3.9c0.6-1.3,2-1.9,3.3-1.3c1.3,0.6,1.9,2,1.3,3.3
				c-1.3,3-3.7,5.3-6.8,6.5C12.9,574.6,11.4,574.9,9.9,574.9z"/>
			<path class="st8" d="M37.9,547.5c-0.4,0-0.8,0-1.2-0.1c-3.3-0.3-6.2-1.9-8.3-4.4c-0.9-1.1-0.7-2.7,0.3-3.5
				c1.1-0.9,2.7-0.7,3.5,0.3c1.2,1.5,3,2.4,4.9,2.6c2,0.2,3.8-0.4,5.3-1.6c3.1-2.6,3.5-7.2,1-10.3c-0.9-1.1-0.7-2.7,0.3-3.5
				c1.1-0.9,2.7-0.7,3.5,0.3c4.3,5.2,3.6,13-1.7,17.4C43.5,546.5,40.7,547.5,37.9,547.5z"/>
			<path class="st10" d="M81.1,565.8c0-3.6-2-6.7-5-8.4c1.4-2.9,2.2-6.1,2.2-9.5c0-12.2-10-22-22.4-22c-3.2,0-6.3,0.7-9.1,1.9
				c-3.3-4.5-8.7-7.4-14.8-7.4c-6.9,0-12.9,3.7-16,9.3c-3.4-2.4-7.6-3.8-12.1-3.8c-11.6,0-21,9.3-21,20.7c0,0.9,0.1,1.7,0.2,2.5
				c-8.3,2.8-14.2,10.5-14.2,19.5c0,7.1,3.6,13.3,9.1,17c-2.2,3-3.5,6.6-3.5,10.5c0,9.9,8.2,17.9,18.2,17.9c4.2,0,8.1-1.4,11.2-3.8
				c4.1,5.6,10.7,9.3,18.3,9.3c8,0,15-4.1,19-10.3c2.7,4.5,7.6,7.5,13.3,7.5c8.5,0,15.4-6.8,15.4-15.2c0-1.9-0.4-3.7-1-5.3
				c5.5-2.3,9.4-7.7,9.4-14c0-3-0.9-5.7-2.4-8.1C79,572.6,81.1,569.4,81.1,565.8z"/>
			<path class="st7" d="M5.1,593.2c-1.5,0-3.1-0.3-4.6-0.9c-6.3-2.6-9.3-9.8-6.8-16.1c0.5-1.3,2-1.9,3.3-1.4c1.3,0.5,1.9,2,1.4,3.3
				c-1.5,3.7,0.3,8,4,9.5c3.7,1.5,8-0.3,9.5-4c0.5-1.3,2-1.9,3.3-1.4c1.3,0.5,1.9,2,1.4,3.3C14.6,590.3,10,593.2,5.1,593.2z"/>
			<path class="st7" d="M27,568.3c-1.4-0.6-2.8-1.4-3.9-2.6c-4.9-4.7-5-12.6-0.3-17.4c1-1,2.6-1,3.6-0.1c1,1,1,2.6,0.1,3.6
				c-2.8,2.9-2.7,7.5,0.2,10.3c2.9,2.8,7.5,2.7,10.3-0.2c1-1,2.6-1,3.6-0.1c1,1,1,2.6,0.1,3.6C36.9,569.2,31.5,570.1,27,568.3z"/>
			<path class="st7" d="M-8.6,545.9c0.3-1.5,0.9-3,1.8-4.3c3.8-5.7,11.4-7.2,17.1-3.4c1.2,0.8,1.5,2.3,0.7,3.5
				c-0.8,1.2-2.3,1.5-3.5,0.7c-3.4-2.2-7.9-1.3-10.1,2c-2.2,3.4-1.3,7.9,2,10.1c1.2,0.8,1.5,2.3,0.7,3.5c-0.8,1.2-2.3,1.5-3.5,0.7
				C-7.6,555.8-9.5,550.6-8.6,545.9z"/>
			<path class="st7" d="M60.9,549.9c-0.7,1.4-1.7,2.6-2.9,3.7c-5.1,4.5-12.9,3.9-17.4-1.2c-0.9-1-0.8-2.6,0.2-3.6
				c1-0.9,2.6-0.8,3.6,0.2c2.6,3,7.3,3.4,10.3,0.7c3-2.6,3.4-7.3,0.7-10.3c-0.9-1.1-0.8-2.6,0.2-3.6c1-0.9,2.6-0.8,3.6,0.2
				C62.6,540.1,63.1,545.6,60.9,549.9z"/>
			<path class="st7" d="M52.7,595.2c-1,1.2-2.2,2.2-3.7,2.9c-6,3.1-13.5,0.8-16.6-5.3c-0.6-1.2-0.2-2.7,1.1-3.4
				c1.2-0.6,2.8-0.2,3.4,1.1c1.8,3.6,6.3,5,9.8,3.1c3.6-1.9,5-6.3,3.1-9.8c-0.6-1.2-0.2-2.8,1.1-3.4c1.2-0.6,2.8-0.2,3.4,1.1
				C56.7,586.1,55.9,591.5,52.7,595.2z"/>
			<g>
				<path class="st5" d="M35,639.1c-1.3-0.2-2.7-0.5-4.2-1c0,0-10.7-1.3-8.4-7.8c2.3-6.4,26.5-13.7,25.9-21.4
					C48.4,608.9,63,644.1,35,639.1z"/>
			</g>
			<g>
				<path class="st5" d="M69.8,626.1c-1.4,1.5-2.9,3.1-4.6,4.7c0,0-11.5,12.6-11.1,7c0.4-5.5,23.2-38.3,20.1-40.8
					C74.2,597.1,100.4,593.8,69.8,626.1z"/>
			</g>
			<g>
				<path class="st5" d="M15.5,622.2c0.4-1.3,0.7-2.8,0.9-4.5c0,0,3.9-10.6-5.9-14.7s-32.2,9.9-42.1,1.9
					C-31.6,605,7.3,651.3,15.5,622.2z"/>
			</g>
		</g>
		<g>
			<path class="st5" d="M14.7,637c-2-0.8-4.2-1.9-6.5-3.1c0,0-16.9-5.3-12.3-20.6c4.5-15.2,44-28.3,44-47.3
				C39.9,565.9,58.7,654.7,14.7,637z"/>
			<path class="st11" d="M14.7,637c31.3-4.7,25.2-71,25.2-71S58.7,654.7,14.7,637z"/>
		</g>
		<g>
			<path class="st5" d="M74.4,616.7c-0.5-0.7-1.1-1.6-1.6-2.7c0,0-4.5-5-1.1-16.3c3.4-11.3,17.3-19.1,19.9-33.6
				C91.6,564.1,85.7,632.5,74.4,616.7z"/>
			<path class="st11" d="M74.4,616.7c10.3-1.9,17.1-52.6,17.1-52.6c0.6,14.2-1.3,25.2-3,32.6c-1.2,5-5.4,22.4-10.7,22.4
				C76.4,619,75.2,617.7,74.4,616.7z"/>
		</g>
		<g>
			<path class="st5" d="M40.8,637.5c-0.4-1-0.8-2.2-1.2-3.6c0,0-4.3-7.5,3.6-16.4c7.9-8.9,28.2-8.3,35.9-20.8
				C79.1,596.8,50.4,659.4,40.8,637.5z"/>
			<path class="st11" d="M40.8,637.5c13.8,4.2,38.3-40.8,38.3-40.8S50.4,659.4,40.8,637.5z"/>
		</g>
		<g>
			<path class="st5" d="M-1.9,617.3c-0.1-0.9-0.4-1.9-0.8-3.1c0,0-0.3-6.5-9.8-13s-23.2-3.8-34.1-13.2
				C-46.5,588.1,1.1,636.2-1.9,617.3z"/>
			<path class="st11" d="M-1.9,617.3c-7.8,4.9-44.6-29.2-44.6-29.2S1.1,636.2-1.9,617.3z"/>
			<path class="st12" d="M-18.8,603.7c-0.6,0.1-1.2,0.3-1.6,0.7c1.4,0.9,2.9,1.9,4.3,3c0.4,0.3,0.8,0.6,1.3,1c1.3,0.2,3,0.9,4.8,2.1
				c0.5,0.3,1,0.7,1.5,1.1c-1.5-1.1-2.9-1.8-4.1-2.1c-0.3-0.1-0.7-0.1-0.9-0.2c2.3,1.8,4.6,3.7,6.8,5.7c0.6,0.5,1.1,1,1.7,1.5
				c0.3,0.3,0.6,0.5,0.8,0.8c0.1,0.1,0.3,0.3,0.4,0.4c0.1,0.1,0.3,0.3,0.4,0.4c0,0.1-0.2-0.1-0.3-0.2c-0.1-0.1-0.3-0.2-0.4-0.3
				c-0.3-0.2-0.6-0.5-0.9-0.7c-0.6-0.5-1.2-0.9-1.7-1.3c-1.3-1-2.6-2-3.9-3c0.6,0.8,1.2,1.7,1.8,2.5c0.7,0.9,1.4,1.7,2.1,2.5
				c-0.7-0.7-1.5-1.5-2.2-2.3c-0.7-0.8-1.4-1.6-2-2.4c-0.3-0.4-0.7-0.9-1-1.3c-1.4-1.1-2.9-2.2-4.3-3.2c-0.4-0.3-0.8-0.6-1.2-0.9
				c1.1,1.7,2.3,3.5,3.7,5.2c0.4,0.5,0.8,1,1.2,1.4c-1.8-1.8-3.4-3.8-4.9-5.7c-0.4-0.6-0.8-1.1-1.2-1.7c-1.8-1.3-3.6-2.5-5.4-3.7
				c-0.5-0.3-1-0.6-1.5-0.9c0.6,1.3,1.4,2.7,2.3,4.1c0.9,1.4,1.9,2.8,3,4.2c0.7,0.8,1.4,1.6,2.1,2.4c-1.4-1.4-2.7-2.9-3.9-4.4
				c-1.1-1.5-2.2-3-3.1-4.4c-0.5-0.8-1-1.6-1.4-2.4c-0.8-0.4-1.6-0.9-2.3-1.3c-0.1,0-0.1-0.1-0.2-0.1c-0.9-0.5-1.8-0.9-2.7-1.2
				c-0.9-0.4-1.7-0.7-2.5-0.9c-1.8-0.6-3.5-1.2-5.2-1.7c-0.9-0.3-1.7-0.5-2.6-0.8c-0.1,0-0.2,0-0.2-0.1c-0.1-0.1,0.1,0,0.2,0
				c0.2,0,0.4,0.1,0.6,0.1c0.4,0.1,0.8,0.2,1.2,0.3c1.7,0.4,3.3,0.9,5,1.3c0.8,0.2,1.6,0.5,2.5,0.7c0.8,0.3,1.7,0.6,2.5,1
				c0.2,0.1,0.4,0.2,0.6,0.3c0.1-0.2,0.2-0.5,0.4-0.7c0.1-0.2,0.3-0.4,0.5-0.5c0.2-0.1,0.3-0.2,0.5-0.3c0.2-0.1,0.3-0.2,0.5-0.3
				c0.5-0.2,1-0.3,1.6-0.3c0.7,0,1.4,0.2,2.2,0.4c-1.3-0.3-2.4-0.2-3.1,0.2c-0.2,0.1-0.3,0.2-0.4,0.3c-0.1,0.1-0.1,0.1-0.2,0.2
				c-0.1,0.1-0.2,0.2-0.3,0.3c-0.1,0.1-0.2,0.2-0.3,0.4c-0.1,0.2-0.2,0.5-0.3,0.7c0.9,0.4,1.8,0.9,2.7,1.4c0.6,0.4,1.3,0.7,1.9,1.1
				c0.7,0.4,1.4,0.9,2.2,1.3c0.9-0.7,2.4-0.8,4.3-0.1c0.5,0.2,1.1,0.4,1.7,0.7C-16.8,603.8-18,603.6-18.8,603.7z"/>
		</g>
		<path class="st12" d="M3.5,626.8c1.1,1.5,2.2,3,3.5,4.4c-0.5,0.5-1,1-1.5,1.4c0.8,0.5,1.6,1,2.4,1.4c1.8,1,3.5,1.7,5.1,2.3
			c0.2-0.4,0.5-1,0.8-1.8c1.1-2.3,2-4,2.8-5.5c0.8-1.4,1.9-3.6,3.4-6.5c3.6-0.1,9.3-0.9,15-4.5c1.4-0.9,2.7-1.9,3.7-2.8
			c-0.8,0.5-6.3,4-10.8,5.2c-1.8,0.4-3.9,0.8-3.9,0.8c-1.5,0.2-2.8,0.3-3.7,0.4c1.6-2.8,3.2-5.8,4.8-9c0.7-1.4,1.3-2.7,2-4.1
			c2.4-0.9,4.3-2,5.6-2.8c1.6-1.1,3.1-2,4.4-3.8c0.9-1.2,1.4-2.3,1.7-3.1c-1.8,3-4.6,5.5-8,7.3c-1,0.5-2,1-3,1.3
			c2.2-4.7,3.9-9.5,5.2-14.5c0.3-1.2,0.6-2.5,0.9-3.7c0.1-0.6,0.3-1.2,0.4-1.8c0.1-0.3,0.1-0.6,0.2-0.9c0-0.2,0.2-0.7,0-0.8
			c-0.3-0.1-0.4,0.4-0.5,0.5c-0.1,0.3-0.3,0.6-0.4,0.9c-0.3,0.6-0.6,1.2-0.8,1.8c-0.6,1.2-1.4,3-1.7,3.6c-1.5,3.2-3.7,7.1-4.1,7.8
			c-0.6-1-1.3-2.2-1.9-3.8c-0.9-2.5-1.1-4.8-1.2-6.3c-0.4,2.2-0.2,4,0,5.1c0.3,1.3,0.7,2.4,1.1,3.4c0.5,1.2,0.9,2.1,1.3,2.8
			c-1.3,3.2-3,6.6-5.1,10.1c-0.7,1.2-1.4,2.3-2.1,3.4c-1.6-2.9-3.2-6.6-4.1-11c-0.2-1.1-0.4-2.1-0.6-3.1c-0.3,4.1,0.9,8.2,2.6,12.1
			c0.5,1.1,1,2.2,1.5,3.2c-1.8,3.3-4.1,6.9-7.2,10.5c-1.1,1.3-2.2,2.5-3.3,3.6c-2-1.9-4.2-4.4-6.1-7.9c-1.9-3.5-2.7-6.6-3.1-8.3
			c-0.5-2-0.7-3.8-0.9-5.1c-0.1,3.2,0.3,6.3,1.4,9.4C0.1,621.2,1.6,624.1,3.5,626.8z"/>
		<path class="st12" d="M43.1,634.3c-0.1,1.2-0.2,2.4-0.2,3.5c-0.3,0.3-0.6,0.5-0.9,0.8c0.1,0.4,0.2,0.9,0.4,1.3
			c0.3,0.9,0.6,1.7,1,2.4c0.2-0.3,0.5-0.6,0.8-1.1c1.1-1.4,1.9-2.4,2.7-3.3c0.7-0.9,1.8-2.2,3.2-3.9c1.2,0.5,3.4,0.8,6.4-0.8
			c0.8-0.4,1.5-0.9,2.1-1.3c-0.4,0.2-3.4,1.8-5.2,1.8c-0.7,0-1.5-0.1-1.5-0.1c-0.6-0.1-1-0.2-1.4-0.3c1.4-1.7,2.9-3.5,4.4-5.4
			c0.7-0.8,1.3-1.7,1.9-2.5c1.1-0.2,2-0.7,2.7-1c0.9-0.5,1.7-0.9,2.7-1.9c0.7-0.7,1.2-1.4,1.6-1.9c-1.6,1.7-3.3,3-5,3.7
			c-0.5,0.2-1,0.3-1.4,0.5c2.2-2.9,4.3-5.9,6.3-9c0.5-0.8,1-1.6,1.5-2.4c0.2-0.4,0.5-0.8,0.7-1.2c0.1-0.2,0.2-0.4,0.3-0.6
			c0.1-0.1,0.3-0.5,0.3-0.6c-0.1-0.1-0.2,0.2-0.3,0.3c-0.1,0.2-0.3,0.4-0.4,0.6c-0.3,0.4-0.6,0.7-0.8,1.1c-0.6,0.7-1.4,1.8-1.7,2.2
			c-1.5,1.9-3.5,4.2-3.8,4.7c0.1-0.8,0.3-1.7,0.6-2.9c0.5-1.9,1.1-3.4,1.6-4.5c-0.8,1.5-1.3,2.7-1.6,3.5c-0.3,0.9-0.5,1.7-0.7,2.5
			c-0.2,0.9-0.4,1.6-0.5,2.1c-1.5,2-3.1,4-4.9,6.1c-0.6,0.7-1.2,1.4-1.8,2c0.4-2.3,1-5,2.1-8.1c0.3-0.8,0.5-1.5,0.8-2.2
			c-1.4,2.8-2.3,5.7-3,8.6c-0.2,0.8-0.4,1.6-0.5,2.4c-1.6,1.9-3.5,4-5.7,6c-0.8,0.7-1.5,1.3-2.2,1.9c-0.1-1.6,0-3.7,0.5-6.3
			c0.5-2.7,1.2-4.9,1.6-6.1c0.5-1.5,0.9-2.7,1.3-3.6c-1,2.2-1.9,4.4-2.5,6.6C43.7,630,43.3,632.2,43.1,634.3z"/>
		<path class="st13" d="M73.4,605.9c0.2,1.2,0.5,2.3,0.8,3.4c-0.2,0.3-0.5,0.7-0.7,1c0.2,0.4,0.5,0.8,0.7,1.2c0.5,0.8,1.1,1.5,1.6,2
			c0.1-0.3,0.3-0.7,0.5-1.3c0.7-1.7,1.2-2.8,1.7-3.9c0.4-1,1.1-2.5,2-4.6c1.3,0.1,3.5-0.1,5.9-2.5c0.6-0.6,1.2-1.2,1.7-1.9
			c-0.3,0.3-2.8,2.6-4.5,3.2c-0.7,0.2-1.5,0.3-1.5,0.3c-0.6,0.1-1,0.1-1.4,0.1c0.9-2,1.9-4.1,2.8-6.4c0.4-1,0.8-2,1.2-2.9
			c1-0.5,1.8-1.2,2.3-1.7c0.7-0.7,1.4-1.3,2.1-2.6c0.5-0.8,0.8-1.6,1-2.2c-1,2.1-2.3,3.8-3.8,4.9c-0.4,0.3-0.8,0.6-1.2,0.8
			c1.3-3.4,2.6-6.8,3.6-10.4c0.3-0.9,0.5-1.8,0.8-2.7c0.1-0.4,0.2-0.9,0.3-1.3c0.1-0.2,0.1-0.4,0.2-0.7c0-0.1,0.2-0.5,0.1-0.6
			c-0.1-0.1-0.2,0.2-0.2,0.3c-0.1,0.2-0.2,0.4-0.3,0.7c-0.2,0.4-0.3,0.8-0.5,1.3c-0.4,0.9-0.9,2.1-1,2.5c-0.9,2.2-2.2,5-2.4,5.5
			c-0.1-0.8-0.2-1.7-0.2-2.9c0-1.9,0.2-3.6,0.3-4.8c-0.4,1.6-0.5,2.9-0.6,3.8c-0.1,0.9,0,1.8,0,2.6c0,0.9,0.1,1.6,0.1,2.1
			c-0.9,2.3-1.9,4.7-3,7.2c-0.4,0.8-0.8,1.6-1.2,2.4c-0.2-2.3-0.4-5.1-0.2-8.4c0-0.8,0.1-1.6,0.2-2.3c-0.6,3-0.6,6.2-0.5,9.1
			c0,0.8,0.1,1.7,0.2,2.5c-1,2.3-2.3,4.8-3.9,7.3c-0.6,0.9-1.1,1.7-1.6,2.4c-0.5-1.5-1-3.5-1.3-6.2c-0.3-2.7-0.2-5-0.1-6.3
			c0.1-1.5,0.2-2.9,0.3-3.9c-0.4,2.4-0.6,4.7-0.6,7.1C72.8,601.6,73,603.8,73.4,605.9z"/>
	</g>
	<g>
		<path class="st4" d="M12.6,643.9c-0.3-1.4,2-4.8,4.3-4.9c1.5-0.1,1.9,1.3,3.7,1.2c1.9-0.1,2.3-1.5,3.7-1.2
			c1.9,0.4,3.6,3.4,3.3,4.9C27.4,645,12.8,644.8,12.6,643.9z"/>
		<path class="st4" d="M18.4,643.1c-0.3-1.4,2-4.8,4.3-4.9c1.5-0.1,1.9,1.3,3.7,1.2c1.9-0.1,2.3-1.5,3.7-1.2
			c1.9,0.4,3.6,3.4,3.3,4.9C33.2,644.2,18.6,644,18.4,643.1z"/>
		<path class="st4" d="M24.9,642c-0.3-1.4,2-4.8,4.3-4.9c1.5-0.1,1.9,1.3,3.7,1.2c1.9-0.1,2.3-1.5,3.7-1.2c1.9,0.4,3.6,3.4,3.3,4.9
			C39.6,643.1,25,642.9,24.9,642z"/>
		<path class="st4" d="M34.3,643.1c-0.3-1.4,2-4.8,4.3-4.9c1.5-0.1,1.9,1.3,3.7,1.2c1.9-0.1,2.3-1.5,3.7-1.2
			c1.9,0.4,3.6,3.4,3.3,4.9C49.1,644.2,34.5,644,34.3,643.1z"/>
		<path class="st4" d="M27.7,644.2c-0.3-1.4,2-4.8,4.3-4.9c1.5-0.1,1.9,1.3,3.7,1.2c1.9-0.1,2.3-1.5,3.7-1.2
			c1.9,0.4,3.6,3.4,3.3,4.9C42.5,645.3,27.9,645.1,27.7,644.2z"/>
		<path class="st4" d="M39.1,644.2c-0.3-1.4,2-4.8,4.3-4.9c1.5-0.1,1.9,1.3,3.7,1.2c1.9-0.1,2.3-1.5,3.7-1.2
			c1.9,0.4,3.6,3.4,3.3,4.9C53.8,645.3,39.2,645.1,39.1,644.2z"/>
	</g>
</g>
<g>
	<g>
		<g>
			<g>
				<path class="st5" d="M123.5,501.4c-0.8-1.9-1.7-3.9-2.5-6.2c0,0-7.5-14.9,1.1-18.4c8.7-3.5,36.5,19.8,44.1,11.2
					C166.3,487.9,141.7,541.9,123.5,501.4z"/>
				<path class="st6" d="M134.9,485.6c1.3,1.2,2.5,2.7,3.6,4.2c-1.7-0.1-3.3-0.1-4.9,0c-0.5,0-0.9,0.1-1.4,0.2
					c-2.2-1.7-4.5-2.7-6.6-2.7c-0.6,0-1.1,0.1-1.7,0.2c1.7-0.1,3.5,0.5,5.4,1.7c0.5,0.3,1,0.7,1.5,1.1c-2.4,0.5-4.7,1.3-6.8,2.3
					c-0.5,0.3-1.1,0.5-1.6,0.8c-0.3,0.1-0.5,0.3-0.8,0.4c-0.1,0.1-0.2,0.2-0.4,0.2c-0.1,0-0.3,0.1-0.3,0.3c0.1,0.2,0.3,0.1,0.3,0.1
					c0.2,0,0.3-0.1,0.5-0.1c0.3-0.1,0.6-0.1,0.9-0.2c0.6-0.1,1.2-0.2,1.8-0.4c1.3-0.3,2.7-0.5,4.1-0.7c-0.2,1-0.5,2-0.9,2.9
					c-0.4,0.9-0.9,1.7-1.4,2.4c0.6-0.5,1.2-1.1,1.7-1.8c0.5-0.7,0.9-1.4,1.3-2.3c0.2-0.5,0.4-0.9,0.5-1.4c1.5-0.2,3.1-0.4,4.7-0.5
					c0.4,0,0.9-0.1,1.4-0.1c-0.3,2.2-0.8,4.3-1.6,6c-0.2,0.5-0.5,0.9-0.8,1.4c1.5-1.3,2.4-3.3,3.2-5.5c0.2-0.6,0.4-1.3,0.5-1.9
					c2-0.1,4.1-0.1,6.2,0.1c0.6,0.1,1.2,0.2,1.8,0.3c0.1,2,0,3.9-0.2,5.7c-0.3,1.8-0.7,3.4-1.4,4.8c-0.4,0.8-0.9,1.6-1.4,2.2
					c1.1-1,2-2.4,2.7-4c0.6-1.6,1.1-3.3,1.3-5.2c0.1-1.1,0.2-2.2,0.2-3.3c1,0.2,2,0.5,3,0.8c0.1,0.1,0.2,0.1,0.3,0.1
					c1.2,0.4,2.4,0.8,3.6,1.4c1.2,0.5,2.4,1.2,3.7,1.8c2.6,1.4,5.2,2.8,7.8,4.3c1.3,0.7,2.6,1.5,3.9,2.3c0.1,0,0.3,0.2,0.3,0.1
					c0-0.2-0.3-0.3-0.4-0.3c-0.3-0.2-0.6-0.4-1-0.6c-0.6-0.4-1.3-0.8-1.9-1.3c-2.6-1.7-5.2-3.3-7.8-4.9c-1.2-0.8-2.5-1.5-3.7-2.2
					c-1.2-0.6-2.4-1.2-3.6-1.7c-0.3-0.1-0.6-0.2-0.9-0.3c-0.4-0.7-0.8-1.4-1.3-2.1c-0.4-0.6-0.9-1.3-1.3-1.9c-0.4-0.5-0.8-1-1.1-1.5
					c-0.4-0.5-0.8-1.1-1.3-1.6c-1-1.2-2.1-2.2-3.2-3.2c-1.2-1-2.4-1.9-3.6-2.5c2.1,1.3,4.1,3.2,5.9,5.4c0.4,0.4,0.7,0.9,1.1,1.4
					c0.2,0.3,0.4,0.5,0.6,0.8c0.3,0.4,0.5,0.7,0.8,1.1c0.3,0.4,0.6,0.9,0.9,1.3c0.4,0.7,0.9,1.4,1.3,2.2c-1.2-0.4-2.3-0.7-3.5-1
					c-0.8-0.2-1.6-0.3-2.3-0.5c-0.9-0.1-1.8-0.3-2.6-0.3c-2.4-3-5.2-5.6-8-7.2c-0.8-0.4-1.6-0.7-2.3-1
					C131.3,482.6,133.1,483.9,134.9,485.6z"/>
			</g>
			<path class="st7" d="M244.1,493.5c0-2.5-1.4-4.7-3.5-5.8c1-2,1.5-4.2,1.5-6.6c0-8.4-7-15.3-15.5-15.3c-2.2,0-4.4,0.5-6.3,1.3
				c-2.3-3.1-6-5.1-10.2-5.1c-4.8,0-8.9,2.6-11.1,6.4c-2.4-1.6-5.3-2.6-8.4-2.6c-8.1,0-14.6,6.4-14.6,14.3c0,0.6,0,1.2,0.1,1.7
				c-5.7,1.9-9.8,7.3-9.8,13.5c0,4.9,2.5,9.2,6.3,11.8c-1.5,2.1-2.4,4.6-2.4,7.3c0,6.9,5.7,12.4,12.6,12.4c2.9,0,5.6-1,7.7-2.6
				c2.8,3.9,7.4,6.4,12.7,6.4c5.5,0,10.4-2.8,13.1-7.1c1.9,3.1,5.3,5.2,9.2,5.2c5.9,0,10.7-4.7,10.7-10.5c0-1.3-0.3-2.5-0.7-3.7
				c3.8-1.6,6.5-5.3,6.5-9.7c0-2.1-0.6-4-1.7-5.6C242.6,498.2,244.1,496.1,244.1,493.5z"/>
			<path class="st7" d="M208.9,486.8c0-2.5-1.4-4.7-3.5-5.8c1-2,1.5-4.2,1.5-6.6c0-8.4-7-15.3-15.5-15.3c-2.2,0-4.4,0.5-6.3,1.3
				c-2.3-3.1-6-5.1-10.2-5.1c-4.8,0-8.9,2.6-11.1,6.4c-2.4-1.6-5.3-2.6-8.4-2.6c-8.1,0-14.6,6.4-14.6,14.3c0,0.6,0,1.2,0.1,1.7
				c-5.7,1.9-9.8,7.3-9.8,13.5c0,4.9,2.5,9.2,6.3,11.8c-1.5,2.1-2.4,4.6-2.4,7.3c0,6.9,5.7,12.4,12.6,12.4c2.9,0,5.6-1,7.7-2.6
				c2.8,3.9,7.4,6.4,12.7,6.4c5.5,0,10.4-2.8,13.1-7.1c1.9,3.1,5.3,5.2,9.2,5.2c5.9,0,10.7-4.7,10.7-10.5c0-1.3-0.3-2.5-0.7-3.7
				c3.8-1.6,6.5-5.3,6.5-9.7c0-2.1-0.6-4-1.7-5.6C207.4,491.5,208.9,489.3,208.9,486.8z"/>
			<path class="st7" d="M181.9,493.5c-1.6,0.7-3.3,1.1-5.1,1.1c-7,0-12.6-5.6-12.6-12.4c0-2.7,0.9-5.2,2.4-7.3
				c-3.8-2.6-6.3-6.9-6.3-11.8c0-2.4,0.6-4.6,1.6-6.6c-4.2-2.5-9.7-2-13.3,1.6c-0.3,0.3-0.6,0.6-0.9,1c-4-1.9-9.1-1.3-12.4,2
				c-2.6,2.6-3.6,6.1-3,9.5c-1.9,0.3-3.7,1.1-5.2,2.6c-3.7,3.6-3.7,9.4,0,13.1c1.5,1.5,3.5,2.4,5.5,2.6c-0.6,3.5,0.5,7.2,3.2,9.9
				c2.9,2.9,7,3.9,10.7,3c-0.7,2.6,0,5.5,2.1,7.5c3.1,3,8.1,3,11.2,0c0.7-0.7,1.2-1.5,1.6-2.3c2.9,1.1,6.3,0.6,8.6-1.7
				c1.1-1.1,1.8-2.4,2.1-3.8c1.7,0.5,3.7,0.1,5-1.2c1.3-1.3,1.7-3.2,1.3-4.9C179.8,495,180.9,494.3,181.9,493.5z"/>
			<path class="st7" d="M252.1,473.4c-0.3-0.3-0.7-0.6-1-0.9c2-4,1.3-8.9-2.1-12.2c-2.6-2.6-6.2-3.6-9.6-2.9
				c-0.3-1.9-1.2-3.7-2.6-5.1c-3.7-3.6-9.6-3.6-13.3,0c-0.2,0.2-0.4,0.5-0.6,0.8c-0.1,0.2-0.2,0.4-0.2,0.6c2.1,1.1,3.5,3.3,3.5,5.8
				c0,2.5-1.5,4.7-3.6,5.9c1,1.6,1.7,3.5,1.7,5.6c0,4.3-2.7,8.1-6.5,9.7c0.4,1.1,0.7,2.4,0.7,3.7c0,5.8-4.8,10.5-10.7,10.5
				c-1.4,0-2.7-0.3-3.9-0.7c0.1,0.1,0.2,0.3,0.3,0.5c1.1,1.1,2.4,1.8,3.9,2.1c-0.5,1.7-0.1,3.6,1.2,4.9c1.3,1.3,3.2,1.7,4.9,1.2
				c0.6,1.6,1.5,3,2.7,4.3c4.5,4.4,11.8,4.4,16.4,0c1.2-1.2,2-2.5,2.6-3.9c2.9,0.4,5.9-0.4,8.1-2.6c2.5-2.5,3.3-6,2.4-9.1
				c2.1-0.4,4.2-1.3,5.8-3C256.4,484.3,256.4,477.6,252.1,473.4z"/>
			<path class="st8" d="M171.6,463.2c-0.3,0-0.6-0.1-0.9-0.2c-6.3-2.5-9.5-9.6-7-16c2.5-6.3,9.6-9.5,16-7c1.3,0.5,1.9,2,1.4,3.3
				c-0.5,1.3-2,1.9-3.3,1.4c-3.8-1.5-8,0.4-9.5,4.1c-1.5,3.8,0.4,8,4.1,9.5c1.3,0.5,1.9,2,1.4,3.3
				C173.5,462.6,172.6,463.2,171.6,463.2z"/>
			<path class="st9" d="M236,489.5c-1.5,0-3-0.3-4.5-0.9c-3.1-1.2-5.5-3.5-6.8-6.5c-0.6-1.3,0-2.8,1.3-3.3c1.3-0.6,2.8,0,3.3,1.3
				c0.8,1.8,2.2,3.2,4,3.9c1.8,0.7,3.8,0.7,5.6-0.1c1.8-0.8,3.2-2.2,3.9-4c0.7-1.8,0.7-3.8-0.1-5.6c-0.6-1.3,0-2.8,1.3-3.3
				c1.3-0.6,2.8,0,3.3,1.3c1.3,3,1.4,6.4,0.2,9.4c-1.2,3.1-3.5,5.5-6.5,6.8C239.4,489.2,237.7,489.5,236,489.5z"/>
			<path class="st8" d="M201.6,483.3c-4.3,0-8.5-2.3-10.8-6.3c-0.7-1.2-0.3-2.7,1-3.4c1.2-0.7,2.7-0.3,3.4,1c1,1.7,2.5,2.9,4.4,3.4
				c1.9,0.5,3.8,0.3,5.5-0.7c1.7-1,2.9-2.5,3.4-4.4c0.5-1.9,0.3-3.8-0.7-5.5c-0.7-1.2-0.3-2.7,1-3.4c1.2-0.7,2.7-0.3,3.4,1
				c1.6,2.9,2,6.2,1.1,9.4s-2.9,5.8-5.8,7.4C205.7,482.8,203.6,483.3,201.6,483.3z"/>
			<path class="st8" d="M192.8,469.7c-1.8,0-3.6-0.4-5.4-1.2c-6.1-3-8.7-10.4-5.7-16.5c0.6-1.2,2.1-1.8,3.4-1.2
				c1.3,0.6,1.8,2.1,1.2,3.4c-1.8,3.6-0.2,8,3.4,9.8c3.6,1.7,8,0.2,9.8-3.4c0.6-1.2,2.1-1.8,3.4-1.2c1.3,0.6,1.8,2.1,1.2,3.4
				C201.7,467.2,197.3,469.7,192.8,469.7z"/>
			<path class="st8" d="M173.6,483.9c-1.7,0-3.4-0.3-4.9-1c-6.2-2.7-9.1-10-6.4-16.2c0.6-1.3,2-1.9,3.3-1.3c1.3,0.6,1.9,2,1.3,3.3
				c-1.6,3.7,0.1,8,3.8,9.6c1.8,0.8,3.8,0.8,5.6,0.1c1.8-0.7,3.2-2.1,4-3.9c0.6-1.3,2-1.9,3.3-1.3c1.3,0.6,1.9,2,1.3,3.3
				c-1.3,3-3.7,5.3-6.8,6.5C176.7,483.6,175.1,483.9,173.6,483.9z"/>
			<path class="st8" d="M201.6,456.4c-0.4,0-0.8,0-1.2-0.1c-3.3-0.3-6.2-1.9-8.3-4.4c-0.9-1.1-0.7-2.7,0.3-3.5
				c1.1-0.9,2.7-0.7,3.5,0.3c1.2,1.5,3,2.4,4.9,2.6c2,0.2,3.8-0.4,5.3-1.6c3.1-2.6,3.5-7.2,1-10.3c-0.9-1.1-0.7-2.7,0.3-3.5
				c1.1-0.9,2.7-0.7,3.5,0.3c4.3,5.2,3.6,13-1.7,17.4C207.2,455.4,204.5,456.4,201.6,456.4z"/>
			<path class="st10" d="M244.9,474.7c0-3.6-2-6.7-5-8.4c1.4-2.9,2.2-6.1,2.2-9.5c0-12.2-10-22-22.4-22c-3.2,0-6.3,0.7-9.1,1.9
				c-3.3-4.5-8.7-7.4-14.8-7.4c-6.9,0-12.9,3.7-16,9.3c-3.4-2.4-7.6-3.8-12.1-3.8c-11.6,0-21,9.3-21,20.7c0,0.9,0.1,1.7,0.2,2.5
				c-8.3,2.8-14.2,10.5-14.2,19.5c0,7.1,3.6,13.3,9.1,17c-2.2,3-3.5,6.6-3.5,10.5c0,9.9,8.2,17.9,18.2,17.9c4.2,0,8.1-1.4,11.2-3.8
				c4.1,5.6,10.7,9.3,18.3,9.3c8,0,15-4.1,19-10.3c2.7,4.5,7.6,7.5,13.3,7.5c8.5,0,15.4-6.8,15.4-15.2c0-1.9-0.4-3.7-1-5.3
				c5.5-2.3,9.4-7.7,9.4-14c0-3-0.9-5.7-2.4-8.1C242.8,481.5,244.9,478.4,244.9,474.7z"/>
			<path class="st7" d="M168.9,502.2c-1.5,0-3.1-0.3-4.6-0.9c-6.3-2.6-9.3-9.8-6.8-16.1c0.5-1.3,2-1.9,3.3-1.4
				c1.3,0.5,1.9,2,1.4,3.3c-1.5,3.7,0.3,8,4,9.5c3.7,1.5,8-0.3,9.5-4c0.5-1.3,2-1.9,3.3-1.4c1.3,0.5,1.9,2,1.4,3.3
				C178.4,499.3,173.7,502.2,168.9,502.2z"/>
			<path class="st7" d="M190.8,477.2c-1.4-0.6-2.8-1.4-3.9-2.6c-4.9-4.7-5-12.6-0.3-17.4c1-1,2.6-1,3.6-0.1c1,1,1,2.6,0.1,3.6
				c-2.8,2.9-2.7,7.5,0.2,10.3c2.9,2.8,7.5,2.7,10.3-0.2c1-1,2.6-1,3.6-0.1c1,1,1,2.6,0.1,3.6C200.7,478.1,195.3,479.1,190.8,477.2z
				"/>
			<path class="st7" d="M155.2,454.8c0.3-1.5,0.9-3,1.8-4.3c3.8-5.7,11.4-7.2,17.1-3.4c1.2,0.8,1.5,2.3,0.7,3.5
				c-0.8,1.2-2.3,1.5-3.5,0.7c-3.4-2.2-7.9-1.3-10.1,2c-2.2,3.4-1.3,7.9,2,10.1c1.2,0.8,1.5,2.3,0.7,3.5c-0.8,1.2-2.3,1.5-3.5,0.7
				C156.2,464.7,154.2,459.6,155.2,454.8z"/>
			<path class="st7" d="M224.7,458.9c-0.7,1.4-1.7,2.6-2.9,3.7c-5.1,4.5-12.9,3.9-17.4-1.2c-0.9-1-0.8-2.6,0.2-3.6
				c1-0.9,2.6-0.8,3.6,0.2c2.6,3,7.3,3.4,10.3,0.7c3-2.6,3.4-7.3,0.7-10.3c-0.9-1.1-0.8-2.6,0.2-3.6c1-0.9,2.6-0.8,3.6,0.2
				C226.4,449.1,226.9,454.5,224.7,458.9z"/>
			<path class="st7" d="M216.5,504.2c-1,1.2-2.2,2.2-3.7,2.9c-6,3.1-13.5,0.8-16.6-5.3c-0.6-1.2-0.2-2.7,1.1-3.4
				c1.2-0.6,2.8-0.2,3.4,1.1c1.8,3.6,6.3,5,9.8,3.1c3.6-1.9,5-6.3,3.1-9.8c-0.6-1.2-0.2-2.8,1.1-3.4c1.2-0.6,2.8-0.2,3.4,1.1
				C220.4,495.1,219.6,500.5,216.5,504.2z"/>
			<g>
				<path class="st5" d="M198.7,548c-1.3-0.2-2.7-0.5-4.2-1c0,0-10.7-1.3-8.4-7.8c2.3-6.4,26.5-13.7,25.9-21.4
					C212.1,517.9,226.7,553,198.7,548z"/>
			</g>
			<g>
				<path class="st5" d="M233.6,535.1c-1.4,1.5-2.9,3.1-4.6,4.7c0,0-11.5,12.6-11.1,7c0.4-5.5,23.2-38.3,20.1-40.8
					C238,506,264.2,502.8,233.6,535.1z"/>
			</g>
			<g>
				<path class="st5" d="M179.2,531.2c0.4-1.3,0.7-2.8,0.9-4.5c0,0,3.9-10.6-5.9-14.7s-32.2,9.9-42.1,1.9
					C132.2,513.9,171.1,560.3,179.2,531.2z"/>
			</g>
		</g>
		<g>
			<path class="st5" d="M178.5,545.9c-2-0.8-4.2-1.9-6.5-3.1c0,0-16.9-5.3-12.3-20.6c4.5-15.2,44-28.3,44-47.3
				C203.7,474.9,222.5,563.6,178.5,545.9z"/>
			<path class="st11" d="M178.5,545.9c31.3-4.7,25.2-71,25.2-71S222.5,563.6,178.5,545.9z"/>
		</g>
		<g>
			<path class="st5" d="M238.2,525.6c-0.5-0.7-1.1-1.6-1.6-2.7c0,0-4.5-5-1.1-16.3c3.4-11.3,17.3-19.1,19.9-33.6
				C255.3,473,249.5,541.4,238.2,525.6z"/>
			<path class="st11" d="M238.2,525.6c10.3-1.9,17.1-52.6,17.1-52.6c0.6,14.2-1.3,25.2-3,32.6c-1.2,5-5.4,22.4-10.7,22.4
				C240.1,528,238.9,526.7,238.2,525.6z"/>
		</g>
		<g>
			<path class="st5" d="M204.5,546.5c-0.4-1-0.8-2.2-1.2-3.6c0,0-4.3-7.5,3.6-16.4c7.9-8.9,28.2-8.3,35.9-20.8
				C242.8,505.7,214.2,568.4,204.5,546.5z"/>
			<path class="st11" d="M204.5,546.5c13.8,4.2,38.3-40.8,38.3-40.8S214.2,568.4,204.5,546.5z"/>
		</g>
		<g>
			<path class="st5" d="M161.9,526.3c-0.1-0.9-0.4-1.9-0.8-3.1c0,0-0.3-6.5-9.8-13c-9.4-6.5-23.2-3.8-34.1-13.2
				C117.2,497.1,164.9,545.2,161.9,526.3z"/>
			<path class="st11" d="M161.9,526.3c-7.8,4.9-44.6-29.2-44.6-29.2S164.9,545.2,161.9,526.3z"/>
			<path class="st12" d="M144.9,512.6c-0.6,0.1-1.2,0.3-1.6,0.7c1.4,0.9,2.9,1.9,4.3,3c0.4,0.3,0.8,0.6,1.3,1c1.3,0.2,3,0.9,4.8,2.1
				c0.5,0.3,1,0.7,1.5,1.1c-1.5-1.1-2.9-1.8-4.1-2.1c-0.3-0.1-0.7-0.1-0.9-0.2c2.3,1.8,4.6,3.7,6.8,5.7c0.6,0.5,1.1,1,1.7,1.5
				c0.3,0.3,0.6,0.5,0.8,0.8c0.1,0.1,0.3,0.3,0.4,0.4c0.1,0.1,0.3,0.3,0.4,0.4c0,0.1-0.2-0.1-0.3-0.2c-0.1-0.1-0.3-0.2-0.4-0.3
				c-0.3-0.2-0.6-0.5-0.9-0.7c-0.6-0.5-1.2-0.9-1.7-1.3c-1.3-1-2.6-2-3.9-3c0.6,0.8,1.2,1.7,1.8,2.5c0.7,0.9,1.4,1.7,2.1,2.5
				c-0.7-0.7-1.5-1.5-2.2-2.3c-0.7-0.8-1.4-1.6-2-2.4c-0.3-0.4-0.7-0.9-1-1.3c-1.4-1.1-2.9-2.2-4.3-3.2c-0.4-0.3-0.8-0.6-1.2-0.9
				c1.1,1.7,2.3,3.5,3.7,5.2c0.4,0.5,0.8,1,1.2,1.4c-1.8-1.8-3.4-3.8-4.9-5.7c-0.4-0.6-0.8-1.1-1.2-1.7c-1.8-1.3-3.6-2.5-5.4-3.7
				c-0.5-0.3-1-0.6-1.5-0.9c0.6,1.3,1.4,2.7,2.3,4.1c0.9,1.4,1.9,2.8,3,4.2c0.7,0.8,1.4,1.6,2.1,2.4c-1.4-1.4-2.7-2.9-3.9-4.4
				c-1.1-1.5-2.2-3-3.1-4.4c-0.5-0.8-1-1.6-1.4-2.4c-0.8-0.4-1.6-0.9-2.3-1.3c-0.1,0-0.1-0.1-0.2-0.1c-0.9-0.5-1.8-0.9-2.7-1.2
				c-0.9-0.4-1.7-0.7-2.5-0.9c-1.8-0.6-3.5-1.2-5.2-1.7c-0.9-0.3-1.7-0.5-2.6-0.8c-0.1,0-0.2,0-0.2-0.1c-0.1-0.1,0.1,0,0.2,0
				c0.2,0,0.4,0.1,0.6,0.1c0.4,0.1,0.8,0.2,1.2,0.3c1.7,0.4,3.3,0.9,5,1.3c0.8,0.2,1.6,0.5,2.5,0.7c0.8,0.3,1.7,0.6,2.5,1
				c0.2,0.1,0.4,0.2,0.6,0.3c0.1-0.2,0.2-0.5,0.4-0.7c0.1-0.2,0.3-0.4,0.5-0.5c0.2-0.1,0.3-0.2,0.5-0.3c0.2-0.1,0.3-0.2,0.5-0.3
				c0.5-0.2,1-0.3,1.6-0.3c0.7,0,1.4,0.2,2.2,0.4c-1.3-0.3-2.4-0.2-3.1,0.2c-0.2,0.1-0.3,0.2-0.4,0.3c-0.1,0.1-0.1,0.1-0.2,0.2
				c-0.1,0.1-0.2,0.2-0.3,0.3c-0.1,0.1-0.2,0.2-0.3,0.4c-0.1,0.2-0.2,0.5-0.3,0.7c0.9,0.4,1.8,0.9,2.7,1.4c0.6,0.4,1.3,0.7,1.9,1.1
				c0.7,0.4,1.4,0.9,2.2,1.3c0.9-0.7,2.4-0.8,4.3-0.1c0.5,0.2,1.1,0.4,1.7,0.7C146.9,512.7,145.8,512.5,144.9,512.6z"/>
		</g>
		<path class="st12" d="M167.2,535.7c1.1,1.5,2.2,3,3.5,4.4c-0.5,0.5-1,1-1.5,1.4c0.8,0.5,1.6,1,2.4,1.4c1.8,1,3.5,1.7,5.1,2.3
			c0.2-0.4,0.5-1,0.8-1.8c1.1-2.3,2-4,2.8-5.5c0.8-1.4,1.9-3.6,3.4-6.5c3.6-0.1,9.3-0.9,15-4.5c1.4-0.9,2.7-1.9,3.7-2.8
			c-0.8,0.5-6.3,4-10.8,5.2c-1.8,0.4-3.9,0.8-3.9,0.8c-1.5,0.2-2.8,0.3-3.7,0.4c1.6-2.8,3.2-5.8,4.8-9c0.7-1.4,1.3-2.7,2-4.1
			c2.4-0.9,4.3-2,5.6-2.8c1.6-1.1,3.1-2,4.4-3.8c0.9-1.2,1.4-2.3,1.7-3.1c-1.8,3-4.6,5.5-8,7.3c-1,0.5-2,1-3,1.3
			c2.2-4.7,3.9-9.5,5.2-14.5c0.3-1.2,0.6-2.5,0.9-3.7c0.1-0.6,0.3-1.2,0.4-1.8c0.1-0.3,0.1-0.6,0.2-0.9c0-0.2,0.2-0.7,0-0.8
			c-0.3-0.1-0.4,0.4-0.5,0.5c-0.1,0.3-0.3,0.6-0.4,0.9c-0.3,0.6-0.6,1.2-0.8,1.8c-0.6,1.2-1.4,3-1.7,3.6c-1.5,3.2-3.7,7.1-4.1,7.8
			c-0.6-1-1.3-2.2-1.9-3.8c-0.9-2.5-1.1-4.8-1.2-6.3c-0.4,2.2-0.2,4,0,5.1c0.3,1.3,0.7,2.4,1.1,3.4c0.5,1.2,0.9,2.1,1.3,2.8
			c-1.3,3.2-3,6.6-5.1,10.1c-0.7,1.2-1.4,2.3-2.1,3.4c-1.6-2.9-3.2-6.6-4.1-11c-0.2-1.1-0.4-2.1-0.6-3.1c-0.3,4.1,0.9,8.2,2.6,12.1
			c0.5,1.1,1,2.2,1.5,3.2c-1.8,3.3-4.1,6.9-7.2,10.5c-1.1,1.3-2.2,2.5-3.3,3.6c-2-1.9-4.2-4.4-6.1-7.9c-1.9-3.5-2.7-6.6-3.1-8.3
			c-0.5-2-0.7-3.8-0.9-5.1c-0.1,3.2,0.3,6.3,1.4,9.4C163.9,530.2,165.4,533,167.2,535.7z"/>
		<path class="st12" d="M206.8,543.2c-0.1,1.2-0.2,2.4-0.2,3.5c-0.3,0.3-0.6,0.5-0.9,0.8c0.1,0.4,0.2,0.9,0.4,1.3
			c0.3,0.9,0.6,1.7,1,2.4c0.2-0.3,0.5-0.6,0.8-1.1c1.1-1.4,1.9-2.4,2.7-3.3c0.7-0.9,1.8-2.2,3.2-3.9c1.2,0.5,3.4,0.8,6.4-0.8
			c0.8-0.4,1.5-0.9,2.1-1.3c-0.4,0.2-3.4,1.8-5.2,1.8c-0.7,0-1.5-0.1-1.5-0.1c-0.6-0.1-1-0.2-1.4-0.3c1.4-1.7,2.9-3.5,4.4-5.4
			c0.7-0.8,1.3-1.7,1.9-2.5c1.1-0.2,2-0.7,2.7-1c0.9-0.5,1.7-0.9,2.7-1.9c0.7-0.7,1.2-1.4,1.6-1.9c-1.6,1.7-3.3,3-5,3.7
			c-0.5,0.2-1,0.3-1.4,0.5c2.2-2.9,4.3-5.9,6.3-9c0.5-0.8,1-1.6,1.5-2.4c0.2-0.4,0.5-0.8,0.7-1.2c0.1-0.2,0.2-0.4,0.3-0.6
			c0.1-0.1,0.3-0.5,0.3-0.6c-0.1-0.1-0.2,0.2-0.3,0.3c-0.1,0.2-0.3,0.4-0.4,0.6c-0.3,0.4-0.6,0.7-0.8,1.1c-0.6,0.7-1.4,1.8-1.7,2.2
			c-1.5,1.9-3.5,4.2-3.8,4.7c0.1-0.8,0.3-1.7,0.6-2.9c0.5-1.9,1.1-3.4,1.6-4.5c-0.8,1.5-1.3,2.7-1.6,3.5c-0.3,0.9-0.5,1.7-0.7,2.5
			c-0.2,0.9-0.4,1.6-0.5,2.1c-1.5,2-3.1,4-4.9,6.1c-0.6,0.7-1.2,1.4-1.8,2c0.4-2.3,1-5,2.1-8.1c0.3-0.8,0.5-1.5,0.8-2.2
			c-1.4,2.8-2.3,5.7-3,8.6c-0.2,0.8-0.4,1.6-0.5,2.4c-1.6,1.9-3.5,4-5.7,6c-0.8,0.7-1.5,1.3-2.2,1.9c-0.1-1.6,0-3.7,0.5-6.3
			c0.5-2.7,1.2-4.9,1.6-6.1c0.5-1.5,0.9-2.7,1.3-3.6c-1,2.2-1.9,4.4-2.5,6.6C207.4,538.9,207.1,541.1,206.8,543.2z"/>
		<path class="st13" d="M237.1,514.9c0.2,1.2,0.5,2.3,0.8,3.4c-0.2,0.3-0.5,0.7-0.7,1c0.2,0.4,0.5,0.8,0.7,1.2
			c0.5,0.8,1.1,1.5,1.6,2c0.1-0.3,0.3-0.7,0.5-1.3c0.7-1.7,1.2-2.8,1.7-3.9c0.4-1,1.1-2.5,2-4.6c1.3,0.1,3.5-0.1,5.9-2.5
			c0.6-0.6,1.2-1.2,1.7-1.9c-0.3,0.3-2.8,2.6-4.5,3.2c-0.7,0.2-1.5,0.3-1.5,0.3c-0.6,0.1-1,0.1-1.4,0.1c0.9-2,1.9-4.1,2.8-6.4
			c0.4-1,0.8-2,1.2-2.9c1-0.5,1.8-1.2,2.3-1.7c0.7-0.7,1.4-1.3,2.1-2.6c0.5-0.8,0.8-1.6,1-2.2c-1,2.1-2.3,3.8-3.8,4.9
			c-0.4,0.3-0.8,0.6-1.2,0.8c1.3-3.4,2.6-6.8,3.6-10.4c0.3-0.9,0.5-1.8,0.8-2.7c0.1-0.4,0.2-0.9,0.3-1.3c0.1-0.2,0.1-0.4,0.2-0.7
			c0-0.1,0.2-0.5,0.1-0.6c-0.1-0.1-0.2,0.2-0.2,0.3c-0.1,0.2-0.2,0.4-0.3,0.7c-0.2,0.4-0.3,0.8-0.5,1.3c-0.4,0.9-0.9,2.1-1,2.5
			c-0.9,2.2-2.2,5-2.4,5.5c-0.1-0.8-0.2-1.7-0.2-2.9c0-1.9,0.2-3.6,0.3-4.8c-0.4,1.6-0.5,2.9-0.6,3.8c-0.1,0.9,0,1.8,0,2.6
			c0,0.9,0.1,1.6,0.1,2.1c-0.9,2.3-1.9,4.7-3,7.2c-0.4,0.8-0.8,1.6-1.2,2.4c-0.2-2.3-0.4-5.1-0.2-8.4c0-0.8,0.1-1.6,0.2-2.3
			c-0.6,3-0.6,6.2-0.5,9.1c0,0.8,0.1,1.7,0.2,2.5c-1,2.3-2.3,4.8-3.9,7.3c-0.6,0.9-1.1,1.7-1.6,2.4c-0.5-1.5-1-3.5-1.3-6.2
			c-0.3-2.7-0.2-5-0.1-6.3c0.1-1.5,0.2-2.9,0.3-3.9c-0.4,2.4-0.6,4.7-0.6,7.1C236.6,510.6,236.8,512.8,237.1,514.9z"/>
	</g>
	<g>
		<path class="st4" d="M176.4,552.9c-0.3-1.4,2-4.8,4.3-4.9c1.5-0.1,1.9,1.3,3.7,1.2c1.9-0.1,2.3-1.5,3.7-1.2
			c1.9,0.4,3.6,3.4,3.3,4.9C191.1,554,176.5,553.8,176.4,552.9z"/>
		<path class="st4" d="M182.2,552.1c-0.3-1.4,2-4.8,4.3-4.9c1.5-0.1,1.9,1.3,3.7,1.2c1.9-0.1,2.3-1.5,3.7-1.2
			c1.9,0.4,3.6,3.4,3.3,4.9C197,553.2,182.4,552.9,182.2,552.1z"/>
		<path class="st4" d="M188.6,550.9c-0.3-1.4,2-4.8,4.3-4.9c1.5-0.1,1.9,1.3,3.7,1.2c1.9-0.1,2.3-1.5,3.7-1.2
			c1.9,0.4,3.6,3.4,3.3,4.9C203.4,552.1,188.8,551.8,188.6,550.9z"/>
		<path class="st4" d="M198.1,552.1c-0.3-1.4,2-4.8,4.3-4.9c1.5-0.1,1.9,1.3,3.7,1.2c1.9-0.1,2.3-1.5,3.7-1.2
			c1.9,0.4,3.6,3.4,3.3,4.9C212.9,553.2,198.3,552.9,198.1,552.1z"/>
		<path class="st4" d="M191.4,553.1c-0.3-1.4,2-4.8,4.3-4.9c1.5-0.1,1.9,1.3,3.7,1.2c1.9-0.1,2.3-1.5,3.7-1.2
			c1.9,0.4,3.6,3.4,3.3,4.9C206.2,554.2,191.6,554,191.4,553.1z"/>
		<path class="st4" d="M202.8,553.1c-0.3-1.4,2-4.8,4.3-4.9c1.5-0.1,1.9,1.3,3.7,1.2c1.9-0.1,2.3-1.5,3.7-1.2
			c1.9,0.4,3.6,3.4,3.3,4.9C217.6,554.2,203,554,202.8,553.1z"/>
	</g>
</g>
<g>
	<g>
		<g>
			<g>
				<path class="st5" d="M-40.1,407.7c-0.8-1.9-1.7-3.9-2.5-6.2c0,0-7.5-14.9,1.1-18.4S-5,402.8,2.6,394.2
					C2.6,394.2-22,448.2-40.1,407.7z"/>
				<path class="st6" d="M-28.8,391.9c1.3,1.2,2.5,2.7,3.6,4.2c-1.7-0.1-3.3-0.1-4.9,0c-0.5,0-0.9,0.1-1.4,0.2
					c-2.2-1.7-4.5-2.7-6.6-2.7c-0.6,0-1.1,0.1-1.7,0.2c1.7-0.1,3.5,0.5,5.4,1.7c0.5,0.3,1,0.7,1.5,1.1c-2.4,0.5-4.7,1.3-6.8,2.3
					c-0.5,0.3-1.1,0.5-1.6,0.8c-0.3,0.1-0.5,0.3-0.8,0.4c-0.1,0.1-0.2,0.2-0.4,0.2c-0.1,0-0.3,0.1-0.3,0.3c0.1,0.2,0.3,0.1,0.3,0.1
					c0.2,0,0.3-0.1,0.5-0.1c0.3-0.1,0.6-0.1,0.9-0.2c0.6-0.1,1.2-0.2,1.8-0.4c1.3-0.3,2.7-0.5,4.1-0.7c-0.2,1-0.5,2-0.9,2.9
					c-0.4,0.9-0.9,1.7-1.4,2.4c0.6-0.5,1.2-1.1,1.7-1.8c0.5-0.7,0.9-1.4,1.3-2.3c0.2-0.5,0.4-0.9,0.5-1.4c1.5-0.2,3.1-0.4,4.7-0.5
					c0.4,0,0.9-0.1,1.4-0.1c-0.3,2.2-0.8,4.3-1.6,6c-0.2,0.5-0.5,0.9-0.8,1.4c1.5-1.3,2.4-3.3,3.2-5.5c0.2-0.6,0.4-1.3,0.5-1.9
					c2-0.1,4.1-0.1,6.2,0.1c0.6,0.1,1.2,0.2,1.8,0.3c0.1,2,0,3.9-0.2,5.7c-0.3,1.8-0.7,3.4-1.4,4.8c-0.4,0.8-0.9,1.6-1.4,2.2
					c1.1-1,2-2.4,2.7-4c0.6-1.6,1.1-3.3,1.3-5.2c0.1-1.1,0.2-2.2,0.2-3.3c1,0.2,2,0.5,3,0.8c0.1,0.1,0.2,0.1,0.3,0.1
					c1.2,0.4,2.4,0.8,3.6,1.4c1.2,0.5,2.4,1.2,3.7,1.8c2.6,1.4,5.2,2.8,7.8,4.3c1.3,0.7,2.6,1.5,3.9,2.3c0.1,0,0.3,0.2,0.3,0.1
					c0-0.2-0.3-0.3-0.4-0.3c-0.3-0.2-0.6-0.4-1-0.6c-0.6-0.4-1.3-0.8-1.9-1.3c-2.6-1.7-5.2-3.3-7.8-4.9c-1.2-0.8-2.5-1.5-3.7-2.2
					c-1.2-0.6-2.4-1.2-3.6-1.7c-0.3-0.1-0.6-0.2-0.9-0.3c-0.4-0.7-0.8-1.4-1.3-2.1c-0.4-0.6-0.9-1.3-1.3-1.9c-0.4-0.5-0.8-1-1.1-1.5
					c-0.4-0.5-0.8-1.1-1.3-1.6c-1-1.2-2.1-2.2-3.2-3.2c-1.2-1-2.4-1.9-3.6-2.5c2.1,1.3,4.1,3.2,5.9,5.4c0.4,0.4,0.7,0.9,1.1,1.4
					c0.2,0.3,0.4,0.5,0.6,0.8c0.3,0.4,0.5,0.7,0.8,1.1c0.3,0.4,0.6,0.9,0.9,1.3c0.4,0.7,0.9,1.4,1.3,2.2c-1.2-0.4-2.3-0.7-3.5-1
					c-0.8-0.2-1.6-0.3-2.3-0.5c-0.9-0.1-1.8-0.3-2.6-0.3c-2.4-3-5.2-5.6-8-7.2c-0.8-0.4-1.6-0.7-2.3-1
					C-32.4,388.9-30.5,390.2-28.8,391.9z"/>
			</g>
			<path class="st7" d="M80.4,399.8c0-2.5-1.4-4.7-3.5-5.8c1-2,1.5-4.2,1.5-6.6c0-8.4-7-15.3-15.5-15.3c-2.2,0-4.4,0.5-6.3,1.3
				c-2.3-3.1-6-5.1-10.2-5.1c-4.8,0-8.9,2.6-11.1,6.4c-2.4-1.6-5.3-2.6-8.4-2.6c-8.1,0-14.6,6.4-14.6,14.3c0,0.6,0,1.2,0.1,1.7
				c-5.7,1.9-9.8,7.3-9.8,13.5c0,4.9,2.5,9.2,6.3,11.8c-1.5,2.1-2.4,4.6-2.4,7.3c0,6.9,5.7,12.4,12.6,12.4c2.9,0,5.6-1,7.7-2.6
				c2.8,3.9,7.4,6.4,12.7,6.4c5.5,0,10.4-2.8,13.1-7.1c1.9,3.1,5.3,5.2,9.2,5.2c5.9,0,10.7-4.7,10.7-10.5c0-1.3-0.3-2.5-0.7-3.7
				c3.8-1.6,6.5-5.3,6.5-9.7c0-2.1-0.6-4-1.7-5.6C78.9,404.6,80.4,402.4,80.4,399.8z"/>
			<path class="st7" d="M45.2,393.1c0-2.5-1.4-4.7-3.5-5.8c1-2,1.5-4.2,1.5-6.6c0-8.4-7-15.3-15.5-15.3c-2.2,0-4.4,0.5-6.3,1.3
				c-2.3-3.1-6-5.1-10.2-5.1c-4.8,0-8.9,2.6-11.1,6.4c-2.4-1.6-5.3-2.6-8.4-2.6c-8.1,0-14.6,6.4-14.6,14.3c0,0.6,0,1.2,0.1,1.7
				c-5.7,1.9-9.8,7.3-9.8,13.5c0,4.9,2.5,9.2,6.3,11.8c-1.5,2.1-2.4,4.6-2.4,7.3c0,6.9,5.7,12.4,12.6,12.4c2.9,0,5.6-1,7.7-2.6
				c2.8,3.9,7.4,6.4,12.7,6.4c5.5,0,10.4-2.8,13.1-7.1c1.9,3.1,5.3,5.2,9.2,5.2c5.9,0,10.7-4.7,10.7-10.5c0-1.3-0.3-2.5-0.7-3.7
				c3.8-1.6,6.5-5.3,6.5-9.7c0-2.1-0.6-4-1.7-5.6C43.7,397.8,45.2,395.6,45.2,393.1z"/>
			<path class="st7" d="M18.2,399.8c-1.6,0.7-3.3,1.1-5.1,1.1c-7,0-12.6-5.6-12.6-12.4c0-2.7,0.9-5.2,2.4-7.3
				c-3.8-2.6-6.3-6.9-6.3-11.8c0-2.4,0.6-4.6,1.6-6.6c-4.2-2.5-9.7-2-13.3,1.6c-0.3,0.3-0.6,0.6-0.9,1c-4-1.9-9.1-1.3-12.4,2
				c-2.6,2.6-3.6,6.1-3,9.5c-1.9,0.3-3.7,1.1-5.2,2.6c-3.7,3.6-3.7,9.4,0,13.1c1.5,1.5,3.5,2.4,5.5,2.6c-0.6,3.5,0.5,7.2,3.2,9.9
				c2.9,2.9,7,3.9,10.7,3c-0.7,2.6,0,5.5,2.1,7.5c3.1,3,8.1,3,11.2,0c0.7-0.7,1.2-1.5,1.6-2.3c2.9,1.1,6.3,0.6,8.6-1.7
				c1.1-1.1,1.8-2.4,2.1-3.8c1.7,0.5,3.7,0.1,5-1.2c1.3-1.3,1.7-3.2,1.3-4.9C16.1,401.3,17.2,400.6,18.2,399.8z"/>
			<path class="st7" d="M88.5,379.8c-0.3-0.3-0.7-0.6-1-0.9c2-4,1.3-8.9-2.1-12.2c-2.6-2.6-6.2-3.6-9.6-2.9
				c-0.3-1.9-1.2-3.7-2.6-5.1c-3.7-3.6-9.6-3.6-13.3,0c-0.2,0.2-0.4,0.5-0.6,0.8c-0.1,0.2-0.2,0.4-0.2,0.6c2.1,1.1,3.5,3.3,3.5,5.8
				c0,2.5-1.5,4.7-3.6,5.9c1,1.6,1.7,3.5,1.7,5.6c0,4.3-2.7,8.1-6.5,9.7c0.4,1.1,0.7,2.4,0.7,3.7c0,5.8-4.8,10.5-10.7,10.5
				c-1.4,0-2.7-0.3-3.9-0.7c0.1,0.1,0.2,0.3,0.3,0.5c1.1,1.1,2.4,1.8,3.9,2.1c-0.5,1.7-0.1,3.6,1.2,4.9c1.3,1.3,3.2,1.7,4.9,1.2
				c0.6,1.6,1.5,3,2.7,4.3c4.5,4.4,11.8,4.4,16.4,0c1.2-1.2,2-2.5,2.6-3.9c2.9,0.4,5.9-0.4,8.1-2.6c2.5-2.5,3.3-6,2.4-9.1
				c2.1-0.4,4.2-1.3,5.8-3C92.7,390.7,92.7,383.9,88.5,379.8z"/>
			<path class="st8" d="M7.9,369.5c-0.3,0-0.6-0.1-0.9-0.2c-6.3-2.5-9.5-9.6-7-16c2.5-6.3,9.6-9.5,16-7c1.3,0.5,1.9,2,1.4,3.3
				c-0.5,1.3-2,1.9-3.3,1.4c-3.8-1.5-8,0.4-9.5,4.1c-1.5,3.8,0.4,8,4.1,9.5c1.3,0.5,1.9,2,1.4,3.3C9.9,368.9,8.9,369.5,7.9,369.5z"
				/>
			<path class="st9" d="M72.3,395.9c-1.5,0-3-0.3-4.5-0.9c-3.1-1.2-5.5-3.5-6.8-6.5c-0.6-1.3,0-2.8,1.3-3.3c1.3-0.6,2.8,0,3.3,1.3
				c0.8,1.8,2.2,3.2,4,3.9c1.8,0.7,3.8,0.7,5.6-0.1c1.8-0.8,3.2-2.2,3.9-4c0.7-1.8,0.7-3.8-0.1-5.6c-0.6-1.3,0-2.8,1.3-3.3
				c1.3-0.6,2.8,0,3.3,1.3c1.3,3,1.4,6.4,0.2,9.4c-1.2,3.1-3.5,5.5-6.5,6.8C75.7,395.5,74,395.9,72.3,395.9z"/>
			<path class="st8" d="M37.9,389.6c-4.3,0-8.5-2.3-10.8-6.3c-0.7-1.2-0.3-2.7,1-3.4c1.2-0.7,2.7-0.3,3.4,1c1,1.7,2.5,2.9,4.4,3.4
				c1.9,0.5,3.8,0.3,5.5-0.7c1.7-1,2.9-2.5,3.4-4.4c0.5-1.9,0.3-3.8-0.7-5.5c-0.7-1.2-0.3-2.7,1-3.4c1.2-0.7,2.7-0.3,3.4,1
				c1.6,2.9,2,6.2,1.1,9.4c-0.9,3.2-2.9,5.8-5.8,7.4C42,389.1,39.9,389.6,37.9,389.6z"/>
			<path class="st8" d="M29.1,376.1c-1.8,0-3.6-0.4-5.4-1.2c-6.1-3-8.7-10.4-5.7-16.5c0.6-1.2,2.1-1.8,3.4-1.2
				c1.3,0.6,1.8,2.1,1.2,3.4c-1.8,3.6-0.2,8,3.4,9.8c3.6,1.7,8,0.2,9.8-3.4c0.6-1.2,2.1-1.8,3.4-1.2c1.3,0.6,1.8,2.1,1.2,3.4
				C38.1,373.5,33.6,376.1,29.1,376.1z"/>
			<path class="st8" d="M9.9,390.2c-1.7,0-3.4-0.3-4.9-1c-6.2-2.7-9.1-10-6.4-16.2c0.6-1.3,2-1.9,3.3-1.3c1.3,0.6,1.9,2,1.3,3.3
				c-1.6,3.7,0.1,8,3.8,9.6c1.8,0.8,3.8,0.8,5.6,0.1c1.8-0.7,3.2-2.1,4-3.9c0.6-1.3,2-1.9,3.3-1.3c1.3,0.6,1.9,2,1.3,3.3
				c-1.3,3-3.7,5.3-6.8,6.5C13,389.9,11.5,390.2,9.9,390.2z"/>
			<path class="st8" d="M37.9,362.7c-0.4,0-0.8,0-1.2-0.1c-3.3-0.3-6.2-1.9-8.3-4.4c-0.9-1.1-0.7-2.7,0.3-3.5
				c1.1-0.9,2.7-0.7,3.5,0.3c1.2,1.5,3,2.4,4.9,2.6c2,0.2,3.8-0.4,5.3-1.6c3.1-2.6,3.5-7.2,1-10.3c-0.9-1.1-0.7-2.7,0.3-3.5
				c1.1-0.9,2.7-0.7,3.5,0.3c4.3,5.2,3.6,13-1.7,17.4C43.5,361.8,40.8,362.7,37.9,362.7z"/>
			<path class="st10" d="M81.2,381c0-3.6-2-6.7-5-8.4c1.4-2.9,2.2-6.1,2.2-9.5c0-12.2-10-22-22.4-22c-3.2,0-6.3,0.7-9.1,1.9
				c-3.3-4.5-8.7-7.4-14.8-7.4c-6.9,0-12.9,3.7-16,9.3c-3.4-2.4-7.6-3.8-12.1-3.8c-11.6,0-21,9.3-21,20.7c0,0.9,0.1,1.7,0.2,2.5
				C-25.1,367-31,374.7-31,383.8c0,7.1,3.6,13.3,9.1,17c-2.2,3-3.5,6.6-3.5,10.5c0,9.9,8.2,17.9,18.2,17.9c4.2,0,8.1-1.4,11.2-3.8
				c4.1,5.6,10.7,9.3,18.3,9.3c8,0,15-4.1,19-10.3c2.7,4.5,7.6,7.5,13.3,7.5c8.5,0,15.4-6.8,15.4-15.2c0-1.9-0.4-3.7-1-5.3
				c5.5-2.3,9.4-7.7,9.4-14c0-3-0.9-5.7-2.4-8.1C79.1,387.9,81.2,384.7,81.2,381z"/>
			<path class="st7" d="M5.2,408.5c-1.5,0-3.1-0.3-4.6-0.9c-6.3-2.6-9.3-9.8-6.8-16.1c0.5-1.3,2-1.9,3.3-1.4c1.3,0.5,1.9,2,1.4,3.3
				c-1.5,3.7,0.3,8,4,9.5c3.7,1.5,8-0.3,9.5-4c0.5-1.3,2-1.9,3.3-1.4c1.3,0.5,1.9,2,1.4,3.3C14.7,405.6,10.1,408.5,5.2,408.5z"/>
			<path class="st7" d="M27.1,383.6c-1.4-0.6-2.8-1.4-3.9-2.6c-4.9-4.7-5-12.6-0.3-17.4c1-1,2.6-1,3.6-0.1c1,1,1,2.6,0.1,3.6
				c-2.8,2.9-2.7,7.5,0.2,10.3c2.9,2.8,7.5,2.7,10.3-0.2c1-1,2.6-1,3.6-0.1c1,1,1,2.6,0.1,3.6C37,384.4,31.6,385.4,27.1,383.6z"/>
			<path class="st7" d="M-8.5,361.1c0.3-1.5,0.9-3,1.8-4.3c3.8-5.7,11.4-7.2,17.1-3.4c1.2,0.8,1.5,2.3,0.7,3.5
				c-0.8,1.2-2.3,1.5-3.5,0.7c-3.4-2.2-7.9-1.3-10.1,2c-2.2,3.4-1.3,7.9,2,10.1c1.2,0.8,1.5,2.3,0.7,3.5c-0.8,1.2-2.3,1.5-3.5,0.7
				C-7.5,371-9.5,365.9-8.5,361.1z"/>
			<path class="st7" d="M61,365.2c-0.7,1.4-1.7,2.6-2.9,3.7c-5.1,4.5-12.9,3.9-17.4-1.2c-0.9-1-0.8-2.6,0.2-3.6
				c1-0.9,2.6-0.8,3.6,0.2c2.6,3,7.3,3.4,10.3,0.7c3-2.6,3.4-7.3,0.7-10.3c-0.9-1.1-0.8-2.6,0.2-3.6c1-0.9,2.6-0.8,3.6,0.2
				C62.7,355.4,63.2,360.8,61,365.2z"/>
			<path class="st7" d="M52.8,410.5c-1,1.2-2.2,2.2-3.7,2.9c-6,3.1-13.5,0.8-16.6-5.3c-0.6-1.2-0.2-2.7,1.1-3.4
				c1.2-0.6,2.8-0.2,3.4,1.1c1.8,3.6,6.3,5,9.8,3.1c3.6-1.9,5-6.3,3.1-9.8c-0.6-1.2-0.2-2.8,1.1-3.4c1.2-0.6,2.8-0.2,3.4,1.1
				C56.8,401.4,56,406.8,52.8,410.5z"/>
			<g>
				<path class="st5" d="M35,454.3c-1.3-0.2-2.7-0.5-4.2-1c0,0-10.7-1.3-8.4-7.8c2.3-6.4,26.5-13.7,25.9-21.4
					C48.5,424.2,63.1,459.3,35,454.3z"/>
			</g>
			<g>
				<path class="st5" d="M69.9,441.4c-1.4,1.5-2.9,3.1-4.6,4.7c0,0-11.5,12.6-11.1,7c0.4-5.5,23.2-38.3,20.1-40.8
					C74.3,412.4,100.5,409.1,69.9,441.4z"/>
			</g>
			<g>
				<path class="st5" d="M15.5,437.5c0.4-1.3,0.7-2.8,0.9-4.5c0,0,3.9-10.6-5.9-14.7c-9.7-4.1-32.2,9.9-42.1,1.9
					C-31.5,420.2,7.4,466.6,15.5,437.5z"/>
			</g>
		</g>
		<g>
			<path class="st5" d="M14.8,452.2c-2-0.8-4.2-1.9-6.5-3.1c0,0-16.9-5.3-12.3-20.6s44-28.3,44-47.3C40,381.2,58.8,469.9,14.8,452.2
				z"/>
			<path class="st11" d="M14.8,452.2c31.3-4.7,25.2-71,25.2-71S58.8,469.9,14.8,452.2z"/>
		</g>
		<g>
			<path class="st5" d="M74.5,431.9c-0.5-0.7-1.1-1.6-1.6-2.7c0,0-4.5-5-1.1-16.3c3.4-11.3,17.3-19.1,19.9-33.6
				C91.6,379.3,85.8,447.7,74.5,431.9z"/>
			<path class="st11" d="M74.5,431.9c10.3-1.9,17.1-52.6,17.1-52.6c0.6,14.2-1.3,25.2-3,32.6c-1.2,5-5.4,22.4-10.7,22.4
				C76.4,434.3,75.2,433,74.5,431.9z"/>
		</g>
		<g>
			<path class="st5" d="M40.9,452.8c-0.4-1-0.8-2.2-1.2-3.6c0,0-4.3-7.5,3.6-16.4c7.9-8.9,28.2-8.3,35.9-20.8
				C79.1,412,50.5,474.7,40.9,452.8z"/>
			<path class="st11" d="M40.9,452.8C54.7,457,79.1,412,79.1,412S50.5,474.7,40.9,452.8z"/>
		</g>
		<g>
			<path class="st5" d="M-1.8,432.6c-0.1-0.9-0.4-1.9-0.8-3.1c0,0-0.3-6.5-9.8-13c-9.4-6.5-23.2-3.8-34.1-13.2
				C-46.4,403.4,1.2,451.5-1.8,432.6z"/>
			<path class="st11" d="M-1.8,432.6c-7.8,4.9-44.6-29.2-44.6-29.2S1.2,451.5-1.8,432.6z"/>
			<path class="st12" d="M-18.8,419c-0.6,0.1-1.2,0.3-1.6,0.7c1.4,0.9,2.9,1.9,4.3,3c0.4,0.3,0.8,0.6,1.3,1c1.3,0.2,3,0.9,4.8,2.1
				c0.5,0.3,1,0.7,1.5,1.1c-1.5-1.1-2.9-1.8-4.1-2.1c-0.3-0.1-0.7-0.1-0.9-0.2c2.3,1.8,4.6,3.7,6.8,5.7c0.6,0.5,1.1,1,1.7,1.5
				c0.3,0.3,0.6,0.5,0.8,0.8c0.1,0.1,0.3,0.3,0.4,0.4c0.1,0.1,0.3,0.3,0.4,0.4c0,0.1-0.2-0.1-0.3-0.2c-0.1-0.1-0.3-0.2-0.4-0.3
				c-0.3-0.2-0.6-0.5-0.9-0.7c-0.6-0.5-1.2-0.9-1.7-1.3c-1.3-1-2.6-2-3.9-3c0.6,0.8,1.2,1.7,1.8,2.5c0.7,0.9,1.4,1.7,2.1,2.5
				c-0.7-0.7-1.5-1.5-2.2-2.3c-0.7-0.8-1.4-1.6-2-2.4c-0.3-0.4-0.7-0.9-1-1.3c-1.4-1.1-2.9-2.2-4.3-3.2c-0.4-0.3-0.8-0.6-1.2-0.9
				c1.1,1.7,2.3,3.5,3.7,5.2c0.4,0.5,0.8,1,1.2,1.4c-1.8-1.8-3.4-3.8-4.9-5.7c-0.4-0.6-0.8-1.1-1.2-1.7c-1.8-1.3-3.6-2.5-5.4-3.7
				c-0.5-0.3-1-0.6-1.5-0.9c0.6,1.3,1.4,2.7,2.3,4.1c0.9,1.4,1.9,2.8,3,4.2c0.7,0.8,1.4,1.6,2.1,2.4c-1.4-1.4-2.7-2.9-3.9-4.4
				c-1.1-1.5-2.2-3-3.1-4.4c-0.5-0.8-1-1.6-1.4-2.4c-0.8-0.4-1.6-0.9-2.3-1.3c-0.1,0-0.1-0.1-0.2-0.1c-0.9-0.5-1.8-0.9-2.7-1.2
				c-0.9-0.4-1.7-0.7-2.5-0.9c-1.8-0.6-3.5-1.2-5.2-1.7c-0.9-0.3-1.7-0.5-2.6-0.8c-0.1,0-0.2,0-0.2-0.1c-0.1-0.1,0.1,0,0.2,0
				c0.2,0,0.4,0.1,0.6,0.1c0.4,0.1,0.8,0.2,1.2,0.3c1.7,0.4,3.3,0.9,5,1.3c0.8,0.2,1.6,0.5,2.5,0.7c0.8,0.3,1.7,0.6,2.5,1
				c0.2,0.1,0.4,0.2,0.6,0.3c0.1-0.2,0.2-0.5,0.4-0.7c0.1-0.2,0.3-0.4,0.5-0.5c0.2-0.1,0.3-0.2,0.5-0.3c0.2-0.1,0.3-0.2,0.5-0.3
				c0.5-0.2,1-0.3,1.6-0.3c0.7,0,1.4,0.2,2.2,0.4c-1.3-0.3-2.4-0.2-3.1,0.2c-0.2,0.1-0.3,0.2-0.4,0.3c-0.1,0.1-0.1,0.1-0.2,0.2
				c-0.1,0.1-0.2,0.2-0.3,0.3c-0.1,0.1-0.2,0.2-0.3,0.4c-0.1,0.2-0.2,0.5-0.3,0.7c0.9,0.4,1.8,0.9,2.7,1.4c0.6,0.4,1.3,0.7,1.9,1.1
				c0.7,0.4,1.4,0.9,2.2,1.3c0.9-0.7,2.4-0.8,4.3-0.1c0.5,0.2,1.1,0.4,1.7,0.7C-16.8,419-17.9,418.8-18.8,419z"/>
		</g>
		<path class="st12" d="M3.5,442c1.1,1.5,2.2,3,3.5,4.4c-0.5,0.5-1,1-1.5,1.4c0.8,0.5,1.6,1,2.4,1.4c1.8,1,3.5,1.7,5.1,2.3
			c0.2-0.4,0.5-1,0.8-1.8c1.1-2.3,2-4,2.8-5.5c0.8-1.4,1.9-3.6,3.4-6.5c3.6-0.1,9.3-0.9,15-4.5c1.4-0.9,2.7-1.9,3.7-2.8
			c-0.8,0.5-6.3,4-10.8,5.2c-1.8,0.4-3.9,0.8-3.9,0.8c-1.5,0.2-2.8,0.3-3.7,0.4c1.6-2.8,3.2-5.8,4.8-9c0.7-1.4,1.3-2.7,2-4.1
			c2.4-0.9,4.3-2,5.6-2.8c1.6-1.1,3.1-2,4.4-3.8c0.9-1.2,1.4-2.3,1.7-3.1c-1.8,3-4.6,5.5-8,7.3c-1,0.5-2,1-3,1.3
			c2.2-4.7,3.9-9.5,5.2-14.5c0.3-1.2,0.6-2.5,0.9-3.7c0.1-0.6,0.3-1.2,0.4-1.8c0.1-0.3,0.1-0.6,0.2-0.9c0-0.2,0.2-0.7,0-0.8
			c-0.3-0.1-0.4,0.4-0.5,0.5c-0.1,0.3-0.3,0.6-0.4,0.9c-0.3,0.6-0.6,1.2-0.8,1.8c-0.6,1.2-1.4,3-1.7,3.6c-1.5,3.2-3.7,7.1-4.1,7.8
			c-0.6-1-1.3-2.2-1.9-3.8c-0.9-2.5-1.1-4.8-1.2-6.3c-0.4,2.2-0.2,4,0,5.1c0.3,1.3,0.7,2.4,1.1,3.4c0.5,1.2,0.9,2.1,1.3,2.8
			c-1.3,3.2-3,6.6-5.1,10.1c-0.7,1.2-1.4,2.3-2.1,3.4c-1.6-2.9-3.2-6.6-4.1-11c-0.2-1.1-0.4-2.1-0.6-3.1c-0.3,4.1,0.9,8.2,2.6,12.1
			c0.5,1.1,1,2.2,1.5,3.2c-1.8,3.3-4.1,6.9-7.2,10.5c-1.1,1.3-2.2,2.5-3.3,3.6c-2-1.9-4.2-4.4-6.1-7.9c-1.9-3.5-2.7-6.6-3.1-8.3
			c-0.5-2-0.7-3.8-0.9-5.1c-0.1,3.2,0.3,6.3,1.4,9.4C0.2,436.5,1.7,439.4,3.5,442z"/>
		<path class="st12" d="M43.1,449.5c-0.1,1.2-0.2,2.4-0.2,3.5c-0.3,0.3-0.6,0.5-0.9,0.8c0.1,0.4,0.2,0.9,0.4,1.3
			c0.3,0.9,0.6,1.7,1,2.4c0.2-0.3,0.5-0.6,0.8-1.1c1.1-1.4,1.9-2.4,2.7-3.3c0.7-0.9,1.8-2.2,3.2-3.9c1.2,0.5,3.4,0.8,6.4-0.8
			c0.8-0.4,1.5-0.9,2.1-1.3c-0.4,0.2-3.4,1.8-5.2,1.8c-0.7,0-1.5-0.1-1.5-0.1c-0.6-0.1-1-0.2-1.4-0.3c1.4-1.7,2.9-3.5,4.4-5.4
			c0.7-0.8,1.3-1.7,1.9-2.5c1.1-0.2,2-0.7,2.7-1c0.9-0.5,1.7-0.9,2.7-1.9c0.7-0.7,1.2-1.4,1.6-1.9c-1.6,1.7-3.3,3-5,3.7
			c-0.5,0.2-1,0.3-1.4,0.5c2.2-2.9,4.3-5.9,6.3-9c0.5-0.8,1-1.6,1.5-2.4c0.2-0.4,0.5-0.8,0.7-1.2c0.1-0.2,0.2-0.4,0.3-0.6
			c0.1-0.1,0.3-0.5,0.3-0.6c-0.1-0.1-0.2,0.2-0.3,0.3c-0.1,0.2-0.3,0.4-0.4,0.6c-0.3,0.4-0.6,0.7-0.8,1.1c-0.6,0.7-1.4,1.8-1.7,2.2
			c-1.5,1.9-3.5,4.2-3.8,4.7c0.1-0.8,0.3-1.7,0.6-2.9c0.5-1.9,1.1-3.4,1.6-4.5c-0.8,1.5-1.3,2.7-1.6,3.5c-0.3,0.9-0.5,1.7-0.7,2.5
			c-0.2,0.9-0.4,1.6-0.5,2.1c-1.5,2-3.1,4-4.9,6.1c-0.6,0.7-1.2,1.4-1.8,2c0.4-2.3,1-5,2.1-8.1c0.3-0.8,0.5-1.5,0.8-2.2
			c-1.4,2.8-2.3,5.7-3,8.6c-0.2,0.8-0.4,1.6-0.5,2.4c-1.6,1.9-3.5,4-5.7,6c-0.8,0.7-1.5,1.3-2.2,1.9c-0.1-1.6,0-3.7,0.5-6.3
			c0.5-2.7,1.2-4.9,1.6-6.1c0.5-1.5,0.9-2.7,1.3-3.6c-1,2.2-1.9,4.4-2.5,6.6C43.8,445.3,43.4,447.4,43.1,449.5z"/>
		<path class="st13" d="M73.5,421.2c0.2,1.2,0.5,2.3,0.8,3.4c-0.2,0.3-0.5,0.7-0.7,1c0.2,0.4,0.5,0.8,0.7,1.2c0.5,0.8,1.1,1.5,1.6,2
			c0.1-0.3,0.3-0.7,0.5-1.3c0.7-1.7,1.2-2.8,1.7-3.9c0.4-1,1.1-2.5,2-4.6c1.3,0.1,3.5-0.1,5.9-2.5c0.6-0.6,1.2-1.2,1.7-1.9
			c-0.3,0.3-2.8,2.6-4.5,3.2c-0.7,0.2-1.5,0.3-1.5,0.3c-0.6,0.1-1,0.1-1.4,0.1c0.9-2,1.9-4.1,2.8-6.4c0.4-1,0.8-2,1.2-2.9
			c1-0.5,1.8-1.2,2.3-1.7c0.7-0.7,1.4-1.3,2.1-2.6c0.5-0.8,0.8-1.6,1-2.2c-1,2.1-2.3,3.8-3.8,4.9c-0.4,0.3-0.8,0.6-1.2,0.8
			c1.3-3.4,2.6-6.8,3.6-10.4c0.3-0.9,0.5-1.8,0.8-2.7c0.1-0.4,0.2-0.9,0.3-1.3c0.1-0.2,0.1-0.4,0.2-0.7c0-0.1,0.2-0.5,0.1-0.6
			c-0.1-0.1-0.2,0.2-0.2,0.3c-0.1,0.2-0.2,0.4-0.3,0.7c-0.2,0.4-0.3,0.8-0.5,1.3c-0.4,0.9-0.9,2.1-1,2.5c-0.9,2.2-2.2,5-2.4,5.5
			c-0.1-0.8-0.2-1.7-0.2-2.9c0-1.9,0.2-3.6,0.3-4.8c-0.4,1.6-0.5,2.9-0.6,3.8c-0.1,0.9,0,1.8,0,2.6c0,0.9,0.1,1.6,0.1,2.1
			c-0.9,2.3-1.9,4.7-3,7.2c-0.4,0.8-0.8,1.6-1.2,2.4c-0.2-2.3-0.4-5.1-0.2-8.4c0-0.8,0.1-1.6,0.2-2.3c-0.6,3-0.6,6.2-0.5,9.1
			c0,0.8,0.1,1.7,0.2,2.5c-1,2.3-2.3,4.8-3.9,7.3c-0.6,0.9-1.1,1.7-1.6,2.4c-0.5-1.5-1-3.5-1.3-6.2c-0.3-2.7-0.2-5-0.1-6.3
			c0.1-1.5,0.2-2.9,0.3-3.9c-0.4,2.4-0.6,4.7-0.6,7.1C72.9,416.9,73.1,419.1,73.5,421.2z"/>
	</g>
	<g>
		<path class="st4" d="M12.7,459.2c-0.3-1.4,2-4.8,4.3-4.9c1.5-0.1,1.9,1.3,3.7,1.2c1.9-0.1,2.3-1.5,3.7-1.2
			c1.9,0.4,3.6,3.4,3.3,4.9C27.4,460.3,12.8,460.1,12.7,459.2z"/>
		<path class="st4" d="M18.5,458.4c-0.3-1.4,2-4.8,4.3-4.9c1.5-0.1,1.9,1.3,3.7,1.2c1.9-0.1,2.3-1.5,3.7-1.2
			c1.9,0.4,3.6,3.4,3.3,4.9C33.3,459.5,18.7,459.3,18.5,458.4z"/>
		<path class="st4" d="M24.9,457.3c-0.3-1.4,2-4.8,4.3-4.9c1.5-0.1,1.9,1.3,3.7,1.2c1.9-0.1,2.3-1.5,3.7-1.2
			c1.9,0.4,3.6,3.4,3.3,4.9C39.7,458.4,25.1,458.2,24.9,457.3z"/>
		<path class="st4" d="M34.4,458.4c-0.3-1.4,2-4.8,4.3-4.9c1.5-0.1,1.9,1.3,3.7,1.2c1.9-0.1,2.3-1.5,3.7-1.2
			c1.9,0.4,3.6,3.4,3.3,4.9C49.2,459.5,34.6,459.3,34.4,458.4z"/>
		<path class="st4" d="M27.8,459.4c-0.3-1.4,2-4.8,4.3-4.9c1.5-0.1,1.9,1.3,3.7,1.2c1.9-0.1,2.3-1.5,3.7-1.2
			c1.9,0.4,3.6,3.4,3.3,4.9C42.5,460.5,27.9,460.3,27.8,459.4z"/>
		<path class="st4" d="M39.1,459.4c-0.3-1.4,2-4.8,4.3-4.9c1.5-0.1,1.9,1.3,3.7,1.2c1.9-0.1,2.3-1.5,3.7-1.2
			c1.9,0.4,3.6,3.4,3.3,4.9C53.9,460.5,39.3,460.3,39.1,459.4z"/>
	</g>
</g>
</svg>
