<?xml version="1.0" encoding="utf-8"?>
<!-- Generator: Adobe Illustrator 19.0.1, SVG Export Plug-In . SVG Version: 6.00 Build 0)  -->
<svg version="1.1" id="cauliflower_x5F_grow" xmlns="http://www.w3.org/2000/svg" xmlns:xlink="http://www.w3.org/1999/xlink"
	 x="0px" y="0px" viewBox="-223 225 512 512" style="enable-background:new -223 225 512 512;" xml:space="preserve">
<style type="text/css">
	.st0{fill:#82B236;}
	.st1{fill:#C3C979;}
</style>
<g>
	<path class="st0" d="M48.1,599.4c-0.3-0.4-1-1.2-2.1-1.5c-2.9-0.8-6.6,2.7-9.1,7.6c2-8.1,2-18.2-5-18.2c-10.1,0-9.1,19.2-7.1,27.3
		c0,1,0,1,1,2c-1,0-2,0-3,0c-1.2,0.5-2.7,1.5-3.7,3.1c-2.3,4,0.6,9.3,4.2,15.8c3,5.4,6.5,11.5,12.6,12.5c0.5,0.1,1,0.1,1.3,0.1
		c0.5,0,1-0.1,1.5-0.1c0.3-3.6,0.8-8.3,1.9-13.8c0.4-2.2,1-4.9,2-8.3c2.1-7.1,3.5-8,5.4-14.6C50.1,603.7,49.3,601,48.1,599.4z"/>
	<path class="st1" d="M34.8,647.6c-0.8-0.2-1.6-0.7-2.3-1.1c0.2-3.3,0.2-6.4,0.2-9.2c-0.4-0.8-0.8-1.5-1.2-2.4
		c-1.4-2.9-2.7-6.1-3.5-9.7c0.3,0.8,0.6,1.6,0.9,2.5c1.3,3.5,2.6,6.2,3.9,8.3c0-1.2,0-2.4,0-3.6c0-3.7-0.2-7.2-0.4-10.3
		c-0.3-0.5-0.6-1.2-1.1-2c-0.4-0.8-0.8-1.6-1.1-2.6c-0.3-0.9-0.8-2.3-1.1-4.4c0.3,1.4,0.9,3.3,1.8,5.2c0.5,1.2,1.1,2.1,1.5,2.7
		c0-0.7-0.1-4.8-0.2-8c0-0.6-0.1-2.4-0.2-3.6c0-0.6-0.1-1.2-0.1-1.8c0-0.3,0-0.6,0-0.9c0-0.1-0.1-0.6,0.1-0.6c0.1,0,0.2,0.6,0.2,0.7
		c0,0.3,0.1,0.6,0.1,0.8c0.1,0.6,0.2,1.1,0.3,1.7c0.2,1.2,0.3,2.3,0.5,3.5c0.6,4.7,1,9.4,1.3,14.1c0.3-0.7,0.5-1.3,0.8-2.1
		c0.8-2.6,1.3-5.6,1.3-8.8c0.1,0.8,0.1,1.9,0.1,3.2c-0.1,2-0.4,3.3-0.7,4.7c-0.3,1.1-0.7,2.6-1.4,4.1c0.1,1.4,0.1,2.7,0.2,4.1
		c0.1,3.2,0.2,6.3,0.2,9.2c0.3-0.3,0.8-0.8,1.2-1.5c0,0,0.7-0.9,1.2-1.9c1.4-2.3,2.6-7.1,2.7-7.8c-0.2,1.1-0.4,2.4-0.7,3.6
		c-1.2,4.8-3.1,7.2-4.3,8.4C34.8,644.5,34.8,646.2,34.8,647.6z"/>
</g>
<g>
	<path class="st0" d="M-115.2,504.6c-0.3-0.4-1-1.2-2.1-1.5c-2.9-0.8-6.6,2.7-9.1,7.6c2-8.1,2-18.2-5-18.2
		c-10.1,0-9.1,19.2-7.1,27.3c0,1,0,1,1,2c-1,0-2,0-3,0c-1.2,0.5-2.7,1.5-3.7,3.1c-2.3,4,0.6,9.3,4.2,15.8c3,5.4,6.5,11.5,12.6,12.5
		c0.5,0.1,1,0.1,1.3,0.1c0.5,0,1-0.1,1.5-0.1c0.3-3.6,0.8-8.3,1.9-13.8c0.4-2.2,1-4.9,2-8.3c2.1-7.1,3.5-8,5.4-14.6
		C-113.1,508.9-113.9,506.2-115.2,504.6z"/>
	<path class="st1" d="M-128.4,552.8c-0.8-0.2-1.6-0.7-2.3-1.1c0.2-3.3,0.2-6.4,0.2-9.2c-0.4-0.8-0.8-1.5-1.2-2.4
		c-1.4-2.9-2.7-6.1-3.5-9.7c0.3,0.8,0.6,1.6,0.9,2.5c1.3,3.5,2.6,6.2,3.9,8.3c0-1.2,0-2.4,0-3.6c0-3.7-0.2-7.2-0.4-10.3
		c-0.3-0.5-0.6-1.2-1.1-2c-0.4-0.8-0.8-1.6-1.1-2.6c-0.3-0.9-0.8-2.3-1.1-4.4c0.3,1.4,0.9,3.3,1.8,5.2c0.5,1.2,1.1,2.1,1.5,2.7
		c0-0.7-0.1-4.8-0.2-8c0-0.6-0.1-2.4-0.2-3.6c0-0.6-0.1-1.2-0.1-1.8c0-0.3,0-0.6,0-0.9c0-0.1-0.1-0.6,0.1-0.6c0.1,0,0.2,0.6,0.2,0.7
		c0,0.3,0.1,0.6,0.1,0.8c0.1,0.6,0.2,1.1,0.3,1.7c0.2,1.2,0.3,2.3,0.5,3.5c0.6,4.7,1,9.4,1.3,14.1c0.3-0.7,0.5-1.3,0.8-2.1
		c0.8-2.6,1.3-5.6,1.3-8.8c0.1,0.8,0.1,1.9,0.1,3.2c-0.1,2-0.4,3.3-0.7,4.7c-0.3,1.1-0.7,2.6-1.4,4.1c0.1,1.4,0.1,2.7,0.2,4.1
		c0.1,3.2,0.2,6.3,0.2,9.2c0.3-0.3,0.8-0.8,1.2-1.5c0,0,0.7-0.9,1.2-1.9c1.4-2.3,2.6-7.1,2.7-7.8c-0.2,1.1-0.4,2.4-0.7,3.6
		c-1.2,4.8-3.1,7.2-4.3,8.4C-128.5,549.7-128.4,551.4-128.4,552.8z"/>
</g>
<g>
	<path class="st0" d="M47.3,412c-0.3-0.4-1-1.2-2.1-1.5c-2.9-0.8-6.6,2.7-9.1,7.6c2-8.1,2-18.2-5-18.2c-10.1,0-9.1,19.2-7.1,27.3
		c0,1,0,1,1,2c-1,0-2,0-3,0c-1.2,0.5-2.7,1.5-3.7,3.1c-2.3,4,0.6,9.3,4.2,15.8c3,5.4,6.5,11.5,12.6,12.5c0.5,0.1,1,0.1,1.3,0.1
		c0.5,0,1-0.1,1.5-0.1c0.3-3.6,0.8-8.3,1.9-13.8c0.4-2.2,1-4.9,2-8.3c2.1-7.1,3.5-8,5.4-14.6C49.3,416.4,48.5,413.6,47.3,412z"/>
	<path class="st1" d="M34,460.2c-0.8-0.2-1.6-0.7-2.3-1.1c0.2-3.3,0.2-6.4,0.2-9.2c-0.4-0.8-0.8-1.5-1.2-2.4
		c-1.4-2.9-2.7-6.1-3.5-9.7c0.3,0.8,0.6,1.6,0.9,2.5c1.3,3.5,2.6,6.2,3.9,8.3c0-1.2,0-2.4,0-3.6c0-3.7-0.2-7.2-0.4-10.3
		c-0.3-0.5-0.6-1.2-1.1-2c-0.4-0.8-0.8-1.6-1.1-2.6c-0.3-0.9-0.8-2.3-1.1-4.4c0.3,1.4,0.9,3.3,1.8,5.2c0.5,1.2,1.1,2.1,1.5,2.7
		c0-0.7-0.1-4.8-0.2-8c0-0.6-0.1-2.4-0.2-3.6c0-0.6-0.1-1.2-0.1-1.8c0-0.3,0-0.6,0-0.9c0-0.1-0.1-0.6,0.1-0.6c0.1,0,0.2,0.6,0.2,0.7
		c0,0.3,0.1,0.6,0.1,0.8c0.1,0.6,0.2,1.1,0.3,1.7c0.2,1.2,0.3,2.3,0.5,3.5c0.6,4.7,1,9.4,1.3,14.1c0.3-0.7,0.5-1.3,0.8-2.1
		c0.8-2.6,1.3-5.6,1.3-8.8c0.1,0.8,0.1,1.9,0.1,3.2c-0.1,2-0.4,3.3-0.7,4.7c-0.3,1.1-0.7,2.6-1.4,4.1c0.1,1.4,0.1,2.7,0.2,4.1
		c0.1,3.2,0.2,6.3,0.2,9.2c0.3-0.3,0.8-0.8,1.2-1.5c0,0,0.7-0.9,1.2-1.9c1.4-2.3,2.6-7.1,2.7-7.8c-0.2,1.1-0.4,2.4-0.7,3.6
		c-1.2,4.8-3.1,7.2-4.3,8.4C33.9,457.1,34,458.9,34,460.2z"/>
</g>
<g>
	<path class="st0" d="M209.7,504.6c-0.3-0.4-1-1.2-2.1-1.5c-2.9-0.8-6.6,2.7-9.1,7.6c2-8.1,2-18.2-5-18.2c-10.1,0-9.1,19.2-7.1,27.3
		c0,1,0,1,1,2c-1,0-2,0-3,0c-1.2,0.5-2.7,1.5-3.7,3.1c-2.3,4,0.6,9.3,4.2,15.8c3,5.4,6.5,11.5,12.6,12.5c0.5,0.1,1,0.1,1.3,0.1
		c0.5,0,1-0.1,1.5-0.1c0.3-3.6,0.8-8.3,1.9-13.8c0.4-2.2,1-4.9,2-8.3c2.1-7.1,3.5-8,5.4-14.6C211.7,508.9,211,506.2,209.7,504.6z"/>
	<path class="st1" d="M196.5,552.8c-0.8-0.2-1.6-0.7-2.3-1.1c0.2-3.3,0.2-6.4,0.2-9.2c-0.4-0.8-0.8-1.5-1.2-2.4
		c-1.4-2.9-2.7-6.1-3.5-9.7c0.3,0.8,0.6,1.6,0.9,2.5c1.3,3.5,2.6,6.2,3.9,8.3c0-1.2,0-2.4,0-3.6c0-3.7-0.2-7.2-0.4-10.3
		c-0.3-0.5-0.6-1.2-1.1-2c-0.4-0.8-0.8-1.6-1.1-2.6c-0.3-0.9-0.8-2.3-1.1-4.4c0.3,1.4,0.9,3.3,1.8,5.2c0.5,1.2,1.1,2.1,1.5,2.7
		c0-0.7-0.1-4.8-0.2-8c0-0.6-0.1-2.4-0.2-3.6c0-0.6-0.1-1.2-0.1-1.8c0-0.3,0-0.6,0-0.9c0-0.1-0.1-0.6,0.1-0.6c0.1,0,0.2,0.6,0.2,0.7
		c0,0.3,0.1,0.6,0.1,0.8c0.1,0.6,0.2,1.1,0.3,1.7c0.2,1.2,0.3,2.3,0.5,3.5c0.6,4.7,1,9.4,1.3,14.1c0.3-0.7,0.5-1.3,0.8-2.1
		c0.8-2.6,1.3-5.6,1.3-8.8c0.1,0.8,0.1,1.9,0.1,3.2c-0.1,2-0.4,3.3-0.7,4.7c-0.3,1.1-0.7,2.6-1.4,4.1c0.1,1.4,0.1,2.7,0.2,4.1
		c0.1,3.2,0.2,6.3,0.2,9.2c0.3-0.3,0.8-0.8,1.2-1.5c0,0,0.7-0.9,1.2-1.9c1.4-2.3,2.6-7.1,2.7-7.8c-0.2,1.1-0.4,2.4-0.7,3.6
		c-1.2,4.8-3.1,7.2-4.3,8.4C196.4,549.7,196.4,551.4,196.5,552.8z"/>
</g>
</svg>
