<?xml version="1.0" encoding="utf-8"?>
<!-- Generator: Adobe Illustrator 19.0.1, SVG Export Plug-In . SVG Version: 6.00 Build 0)  -->
<svg version="1.1" id="chicken_x5F_harvest" xmlns="http://www.w3.org/2000/svg" xmlns:xlink="http://www.w3.org/1999/xlink"
	 x="0px" y="0px" viewBox="-223 225 512 512" style="enable-background:new -223 225 512 512;" xml:space="preserve">
<style type="text/css">
	.st0{fill:#FF7B78;}
	.st1{opacity:0.1;}
	.st2{fill:#FFD77A;}
	.st3{fill:#FFA561;}
	.st4{fill:#43434D;}
	.st5{fill:#FF8D61;}
</style>
<g>
	<path class="st0" d="M39.1,377c26.9,1.4,10.3,26.3-5.1,25.2l-65.6-4.4c0.6-39,38-62.4,48.5-47.8c2.1,2.9,1.7,6.9-0.5,10.9
		C38.8,356,48.4,369.2,39.1,377z"/>
	<g class="st1">
		<path d="M-17.5,397.8c0.4-26,17.2-45.1,31.5-50.6c-13.2-8-45,14.7-45.5,50.6H-17.5z"/>
	</g>
	<path class="st2" d="M-38.3,404.9c0,0-19.3-1.2-25.2,9.5c0,0-0.7,15.8,10.4,21L-38.3,404.9z"/>
	<g class="st1">
		<path d="M-62.8,413.3c-0.2,0.4-0.5,0.7-0.7,1.1c0,0-0.7,15.8,10.4,21l2.9-6C-57.1,425.8-60.8,418.7-62.8,413.3z"/>
	</g>
	<path class="st3" d="M136.4,474.1c0,53.7-43.6,97.3-97.3,97.3s-97.3-43.6-97.3-97.3c0-40,15.3-90,63.6-90
		c43.4,0,34.7,73.8,58.8,73.8L136.4,474.1z"/>
	<path class="st4" d="M-14.9,427.8c-1.1,0-2.2-0.1-3.3-0.4c-5.6-1.4-9.8-6.2-10.5-11.9c-0.3-2.3,1.4-4.4,3.7-4.7
		c2.3-0.3,4.4,1.4,4.7,3.7c0.3,2.3,1.9,4.2,4.2,4.7c2.2,0.5,4.6-0.4,5.9-2.2c1.3-1.9,3.9-2.4,5.9-1.1c1.9,1.3,2.4,3.9,1.1,5.9
		C-5.9,425.6-10.3,427.8-14.9,427.8z"/>
	<path class="st5" d="M47.9,455.1c-19.9,0-36,16.1-36,36l0,0c0,19.9,16.1,36,36,36h21.6c39.8,0,72-32.2,72-72l0,0L47.9,455.1
		L47.9,455.1z"/>
</g>
</svg>
