<?xml version="1.0" encoding="utf-8"?>
<!-- Generator: Adobe Illustrator 19.0.1, SVG Export Plug-In . SVG Version: 6.00 Build 0)  -->
<svg version="1.1" id="chicken_x5F_grow" xmlns="http://www.w3.org/2000/svg" xmlns:xlink="http://www.w3.org/1999/xlink" x="0px"
	 y="0px" viewBox="-223 225 512 512" style="enable-background:new -223 225 512 512;" xml:space="preserve">
<style type="text/css">
	.st0{fill:#FCC447;}
	.st1{fill:#F2B844;}
	.st2{fill:#4D4D4D;}
	.st3{fill:#FC675B;}
	.st4{fill:#F2F2F2;}
	.st5{fill:#E6E6E6;}
	.st6{fill:#E8564F;}
</style>
<g>
	<g>
		<path class="st0" d="M39.5,438c-1.6,0.5-3.2,1.3-4.6,2.4c-1.1,0.9-2,1.9-2.8,3.1c-0.8-1.2-1.7-2.2-2.8-3.1c-1.4-1.1-3-1.9-4.6-2.4
			c-1.6-0.5-3.3-0.6-5-0.4c1.6,0.2,3.2,0.7,4.5,1.5c1.4,0.8,2.5,1.8,3.4,3c0.9,1.2,1.5,2.5,1.9,3.9c0.4,1.4,0.4,2.7,0.2,4.1l0,0.1
			c0,0,0,0,0,0.1c0,0.1,0,0.1,0,0.2c0,0,0,0.1,0,0.1c0,0,0,0.1,0,0.1c0,0,0,0.1,0,0.1c0,0,0,0,0,0c0,0,0,0,0,0c0,0.1,0,0.1,0,0.2
			c0,0,0,0,0,0c0,0.1,0,0.1,0.1,0.2c0,0,0,0,0,0c0,0.1,0,0.1,0.1,0.2c0,0,0,0,0,0c0,0.1,0.1,0.1,0.1,0.2c0,0,0,0,0,0
			c0,0.1,0.1,0.1,0.1,0.2c0,0,0,0,0,0c0,0,0.1,0.1,0.1,0.1c0,0,0,0,0,0c0,0,0.1,0.1,0.1,0.1c0,0,0,0,0,0c0,0,0.1,0.1,0.1,0.1
			c0,0,0,0,0,0c0,0,0.1,0.1,0.1,0.1c0,0,0,0,0.1,0c0,0,0.1,0.1,0.1,0.1c0,0,0,0,0.1,0c0,0,0.1,0,0.1,0.1c0,0,0.1,0,0.1,0
			c0,0,0.1,0,0.1,0c0,0,0.1,0,0.1,0c0,0,0.1,0,0.1,0c0,0,0.1,0,0.1,0c0,0,0.1,0,0.1,0c0,0,0.1,0,0.1,0c0,0,0.1,0,0.1,0
			c0,0,0.1,0,0.1,0c0,0,0,0,0.1,0c0,0,0,0,0,0c0,0,0,0,0.1,0c0,0,0.1,0,0.1,0c0,0,0.1,0,0.1,0c0,0,0.1,0,0.1,0c0,0,0.1,0,0.1,0
			c0,0,0.1,0,0.1,0c0,0,0.1,0,0.1,0c0,0,0.1,0,0.1-0.1c0,0,0,0,0.1,0c0,0,0.1-0.1,0.1-0.1c0,0,0,0,0.1,0c0,0,0.1-0.1,0.1-0.1
			c0,0,0,0,0,0c0,0,0.1-0.1,0.1-0.1c0,0,0,0,0,0c0,0,0.1-0.1,0.1-0.1c0,0,0,0,0,0c0,0,0.1-0.1,0.1-0.1c0,0,0,0,0,0
			c0-0.1,0.1-0.1,0.1-0.2c0,0,0,0,0,0c0-0.1,0.1-0.1,0.1-0.2c0,0,0,0,0,0c0-0.1,0-0.1,0.1-0.2c0,0,0,0,0,0c0-0.1,0-0.1,0-0.2
			c0,0,0,0,0,0c0-0.1,0-0.1,0-0.2c0,0,0,0,0,0c0-0.1,0-0.1,0-0.2c0,0,0,0,0,0c0-0.1,0-0.1,0-0.2c0,0,0,0,0,0l0-0.1
			c-0.2-1.3-0.1-2.7,0.2-4.1c0.4-1.4,1-2.7,1.9-3.9c0.9-1.2,2.1-2.2,3.4-3c1.4-0.8,2.9-1.3,4.5-1.5C42.9,437.4,41.2,437.5,39.5,438z
			"/>
		<path class="st0" d="M76.4,510c-1.3,0.7-2.7,1.3-4.2,1.9l0.5-19l3.5-2.6l9.4-7C85.6,483.3,95.2,500.2,76.4,510z"/>
	</g>
	<path class="st1" d="M77.1,500.8c0,3.2-0.2,6.3-0.7,9.2c-1.3,0.7-2.7,1.3-4.2,1.9l0.5-19l3.5-2.6C76.8,493.7,77.1,497.2,77.1,500.8
		z"/>
	<g>
		<path class="st0" d="M-7.8,511.9c-2.2-0.8-4-1.7-5.7-2.7c-16.9-9.9-7.8-25.9-7.8-25.9l8.3,6.1l4.7,3.5L-7.8,511.9z"/>
		<path class="st0" d="M69.5,521.8c2.7-5.9,4.1-13,4.1-21.1c0-28.6-18.6-52.4-41.5-52.4c-22.9,0-41.5,23.8-41.5,52.4
			c0,8.1,1.5,15.1,4.1,21.1"/>
	</g>
	<g>
		<path class="st1" d="M-7.8,511.9c-2.2-0.8-4-1.7-5.7-2.7c-0.4-2.7-0.6-5.5-0.6-8.4c0-3.9,0.3-7.7,1-11.4l4.7,3.5L-7.8,511.9z"/>
		<path class="st1" d="M37.1,448.8c-1.6-0.3-3.3-0.4-5-0.4c-22.9,0-41.5,23.8-41.5,52.4c0,8.1,1.5,15.1,4.1,21.1h10
			c-2.7-5.9-4.1-13-4.1-21.1C0.6,474.3,16.5,451.9,37.1,448.8z"/>
	</g>
	<g>
		<path class="st2" d="M52.7,494.3c-1.3,0-2.3-1-2.3-2.3v-4.7c0-1.3,1-2.3,2.3-2.3c1.3,0,2.3,1,2.3,2.3v4.7
			C55.1,493.3,54,494.3,52.7,494.3z"/>
		<path class="st2" d="M11.5,494.3c-1.3,0-2.3-1-2.3-2.3v-4.7c0-1.3,1-2.3,2.3-2.3s2.3,1,2.3,2.3v4.7
			C13.8,493.3,12.8,494.3,11.5,494.3z"/>
	</g>
	<path class="st3" d="M42.3,495.5l-10.2,12.1l-10.2-12.1c1.6-1.4,3.4-2.4,5.3-3.1c1.6-0.5,3.3-0.8,4.9-0.8
		C35.8,491.6,39.4,492.9,42.3,495.5z"/>
	<path class="st4" d="M82.2,518.3c0,34.5-22.4,53.1-50,53.1c-27.6,0-50-18.6-50-53.1c0-1,0-2.1,0.1-3.1l0.4,0.2l12,6l4-2l8.5-4.2
		l12.5,6.2l12.5-6.2l12.5,6.2l12.5-6.2l12.5,6.2l12.5-6.2C82.1,516.3,82.2,517.3,82.2,518.3z"/>
	<g>
		<path class="st5" d="M32.1,571.4c-27.4-0.2-49.6-18.8-49.6-53.1c0-1,0-1.9,0.1-2.9l12,6l4-2C-1.1,552.9,13.8,571.1,32.1,571.4z"/>
		<path class="st6" d="M32.1,507.5l-10.2-12.1c1.6-1.4,3.4-2.4,5.3-3.1L32.1,507.5z"/>
	</g>
</g>
</svg>
