<?xml version="1.0" encoding="utf-8"?>
<!-- Generator: Adobe Illustrator 19.0.1, SVG Export Plug-In . SVG Version: 6.00 Build 0)  -->
<svg version="1.1" id="chicken" xmlns="http://www.w3.org/2000/svg" xmlns:xlink="http://www.w3.org/1999/xlink" x="0px" y="0px"
	 viewBox="0 0 50 50" style="enable-background:new 0 0 50 50;" xml:space="preserve">
<style type="text/css">
	.st0{fill:#C0C9CC;}
	.st1{opacity:0.15;fill:#202020;enable-background:new    ;}
	.st2{fill:#FCE9C0;}
	.st3{fill:#C17727;}
	.st4{fill:#DCE0E2;}
	.st5{fill:#D78C33;}
	.st6{fill:#FFF1CE;}
</style>
<g>
	<path class="st0" d="M46.6,39.9H5.8c-0.3,0-0.5,0.2-0.5,0.5V44c0,0.3,0.2,0.5,0.5,0.5h40.8c0.3,0,0.5-0.2,0.5-0.5v-3.6
		C47.2,40.1,46.9,39.9,46.6,39.9z"/>
	<path class="st1" d="M7,44v-3.6c0-0.3,0.2-0.5,0.5-0.5H5.8c-0.3,0-0.5,0.2-0.5,0.5V44c0,0.3,0.2,0.5,0.5,0.5h1.7
		C7.2,44.6,7,44.3,7,44z"/>
	<path class="st2" d="M13.5,9C14.2,8,14,6.6,13,5.9c-1-0.7-2.4-0.5-3.1,0.5c-0.6,0.9-0.6,2,0.1,2.8C9.1,8.7,7.9,9,7.3,9.8
		C7.2,9.9,7.2,10,7.1,10.1c0.3,0.6,0.3,1.4-0.1,2c0.1,0.3,0.3,0.5,0.5,0.7L8,13.1c1,0.6,2.2,0.3,2.9-0.6l5.2,3.8l2.6-3.5L13.5,9z"/>
	<path class="st3" d="M31.8,16.9C31.8,16.9,31.8,16.9,31.8,16.9l-0.3-0.1c0,0,0,0,0,0c-0.4-0.2-0.8-0.4-1.2-0.5L19.7,12
		c-0.3-0.1-0.7,0-0.9,0.3L16.1,16c-0.1,0.2-0.2,0.4-0.1,0.7c0.1,0.2,0.2,0.4,0.4,0.5l5.8,2.3c0.1,0,0.2,0.1,0.3,0.1c0,0,0,0,0.1,0
		l0.2,0l0,0l7,1.3c0,0,2.6,1,4-0.7C35,18.4,31.8,16.9,31.8,16.9z"/>
	<path class="st1" d="M28.5,19.3l-0.2,0c0,0,0,0-0.1,0c-0.1,0-0.2,0-0.3-0.1l-2.4-0.9l-0.1,0c0,0,0,0-0.1,0c-0.1,0-0.2,0-0.3-0.1
		L19.4,16c-0.2-0.1-0.4-0.3-0.4-0.5c-0.1-0.2,0-0.5,0.1-0.7l1.8-2.4L19.7,12c-0.3-0.1-0.7,0-0.9,0.3L16.1,16
		c-0.1,0.2-0.2,0.4-0.1,0.7c0.1,0.2,0.2,0.4,0.4,0.5l5.8,2.3c0.1,0,0.2,0.1,0.3,0.1c0,0,0,0,0.1,0l0.2,0l0,0l7,1.3
		c0,0,2.4,0.9,3.8-0.5L28.5,19.3L28.5,19.3z"/>
	<path class="st4" d="M49.6,36.9c-0.1-0.2-0.3-0.3-0.6-0.3H3.4c-0.2,0-0.4,0.1-0.6,0.3c-0.1,0.2-0.1,0.4,0,0.6L5,41.3
		c0.1,0.2,0.3,0.3,0.6,0.3h41.3c0.2,0,0.4-0.1,0.6-0.3l2.2-3.8C49.7,37.3,49.7,37.1,49.6,36.9z"/>
	<path class="st1" d="M7,41.3l-2.2-3.8c-0.1-0.2-0.1-0.4,0-0.6c0.1-0.2,0.3-0.3,0.6-0.3H5.2H3.6H3.4c-0.2,0-0.4,0.1-0.6,0.3
		c-0.1,0.2-0.1,0.4,0,0.6L5,41.3c0.1,0.2,0.3,0.3,0.6,0.3h0.2h1.7h0.2C7.3,41.6,7.1,41.5,7,41.3z"/>
	<path class="st5" d="M35,18.4c-0.5,0-0.9,0-1.4,0.1l-11.2,0.8l1.3,0.5c0.4,0.1,0.8,0.3,1.2,0.5l0.3,0.1l0,0
		c0.2,0.1,0.4,0.2,0.6,0.4c2.9,2.1,3.5,6.2,1.4,9.1c-2.1,2.9-6.2,3.5-9.1,1.4c-0.2-0.1-0.4-0.3-0.5-0.4l0,0
		c-0.5-0.4-0.9-0.9-1.2-1.4l-5.9-7.2c-1.5,1.5-2.5,3.7-2.5,6c0,4.2,3,7.7,7.1,8.4h25.1c2.8-1.7,4.7-4.9,4.7-8.4
		C44.9,22.8,40.4,18.4,35,18.4z"/>
	<path class="st1" d="M9.7,28.2c0-1.9,0.6-3.6,1.6-5l-0.8-1c-1.5,1.5-2.5,3.7-2.5,6c0,4.2,3,7.7,7.1,8.4h1.7
		C12.8,36,9.7,32.5,9.7,28.2z"/>
	<path class="st6" d="M3.3,9.7c-0.6,0.9-0.6,2,0.1,2.8c-0.9-0.4-2.1-0.1-2.7,0.7c-0.7,1-0.5,2.4,0.5,3.1c1,0.7,2.4,0.5,3.1-0.5
		l5.2,3.8l2.6-3.5l-5.2-3.8c0.7-1,0.5-2.4-0.5-3.1C5.5,8.5,4.1,8.7,3.3,9.7z"/>
	<path class="st3" d="M28.6,25c-0.3-1.8-1.2-3.3-2.7-4.4c-0.2-0.1-0.4-0.3-0.6-0.4c0,0,0,0,0,0L25,20.1c0,0,0,0,0,0
		c-0.4-0.2-0.8-0.4-1.2-0.5l-10.6-4.3c-0.3-0.1-0.7,0-0.9,0.3L9.1,20c-0.2,0.3-0.2,0.7,0,0.9l7,8.6c0.3,0.5,0.7,1,1.2,1.5l0,0
		c0.2,0.2,0.4,0.3,0.6,0.5c1.2,0.9,2.5,1.3,4,1.3c2.1,0,4.2-1,5.4-2.7C28.4,28.6,28.8,26.8,28.6,25z"/>
	<path class="st1" d="M20.1,31.4c-0.2-0.1-0.4-0.3-0.6-0.5l0,0c-0.5-0.4-0.9-0.9-1.2-1.5l-7-8.6c-0.2-0.3-0.2-0.6,0-0.9l3-4.1
		l-1.1-0.4c-0.3-0.1-0.7,0-0.9,0.3L9.1,20c-0.2,0.3-0.2,0.7,0,0.9l7,8.6c0.3,0.5,0.7,1,1.2,1.5l0,0c0.2,0.2,0.4,0.3,0.6,0.5
		c1.2,0.9,2.5,1.3,4,1.3c0.4,0,0.8,0,1.3-0.1C22.1,32.5,21,32.1,20.1,31.4z"/>
</g>
</svg>
