<?xml version="1.0" encoding="utf-8"?>
<!-- Generator: Adobe Illustrator 19.0.1, SVG Export Plug-In . SVG Version: 6.00 Build 0)  -->
<svg version="1.1" id="chicken_x5F_warn" xmlns="http://www.w3.org/2000/svg" xmlns:xlink="http://www.w3.org/1999/xlink" x="0px"
	 y="0px" viewBox="-223 225 512 512" style="enable-background:new -223 225 512 512;" xml:space="preserve">
<style type="text/css">
	.st0{clip-path:url(#SVGID_2_);}
	.st1{fill:#FBD303;}
	.st2{fill:#646B79;}
	.st3{clip-path:url(#SVGID_4_);}
	.st4{fill:#FF7B78;}
	.st5{opacity:0.1;}
	.st6{fill:#FFD77A;}
	.st7{fill:#FFA561;}
	.st8{fill:#43434D;}
	.st9{fill:#FF8D61;}
	.st10{clip-path:url(#SVGID_6_);}
	.st11{clip-path:url(#SVGID_8_);}
	.st12{font-family:'Arial-Black';}
	.st13{font-size:21.0661px;}
	.st14{font-size:20.1175px;}
</style>
<g>
	<defs>
		<polygon id="SVGID_1_" points="34.6,364.5 239.5,483.5 239.3,531.6 35.1,413.1 		"/>
	</defs>
	<clipPath id="SVGID_2_">
		<use xlink:href="#SVGID_1_"  style="overflow:visible;"/>
	</clipPath>
	<g class="st0">
		<polygon class="st1" points="34.6,338.5 239.5,457.5 239.3,505.7 35.1,387.1 		"/>
		<g>
			<polygon class="st2" points="239.5,457.5 227.8,450.7 188.6,476.2 218.5,493.6 239.4,480.1 			"/>
			<polygon class="st2" points="161.3,460.4 131.4,443 170.4,417.3 200.4,434.7 			"/>
			<polygon class="st2" points="104,427.1 74.1,409.8 112.9,383.9 142.9,401.4 			"/>
			<polygon class="st2" points="55.5,350.6 34.9,364.4 35.1,387.1 46.8,393.9 85.5,368 			"/>
		</g>
	</g>
</g>
<g>
	<defs>
		<polygon id="SVGID_3_" points="-169.7,457.6 34.5,339.1 34.7,387.3 -170.2,506.3 		"/>
	</defs>
	<clipPath id="SVGID_4_">
		<use xlink:href="#SVGID_3_"  style="overflow:visible;"/>
	</clipPath>
	<g class="st3">
		<polygon class="st1" points="-169.7,483.6 34.5,365.1 34.7,413.3 -170.2,532.3 		"/>
		<g>
			<polygon class="st2" points="34.6,390.6 13.7,377.1 -16.2,394.5 23,420.1 34.7,413.3 			"/>
			<polygon class="st2" points="-4.4,436 -34.4,453.4 -73.4,427.7 -43.5,410.4 			"/>
			<polygon class="st2" points="-61.9,469.4 -91.9,486.8 -130.7,461 -100.8,443.6 			"/>
			<polygon class="st2" points="-119.3,502.7 -158,476.8 -169.7,483.6 -169.9,506.4 -149.3,520.1 			"/>
		</g>
	</g>
</g>
<g>
	<path class="st4" d="M39.1,377c26.9,1.4,10.3,26.3-5.1,25.2l-65.6-4.4c0.6-39,38-62.4,48.5-47.8c2.1,2.9,1.7,6.9-0.5,10.9
		C38.8,356,48.4,369.2,39.1,377z"/>
	<g class="st5">
		<path d="M-17.5,397.8c0.4-26,17.2-45.1,31.5-50.6c-13.2-8-45,14.7-45.5,50.6H-17.5z"/>
	</g>
	<path class="st6" d="M-38.3,404.9c0,0-19.3-1.2-25.2,9.5c0,0-0.7,15.8,10.4,21L-38.3,404.9z"/>
	<g class="st5">
		<path d="M-62.8,413.3c-0.2,0.4-0.5,0.7-0.7,1.1c0,0-0.7,15.8,10.4,21l2.9-6C-57.1,425.8-60.8,418.7-62.8,413.3z"/>
	</g>
	<path class="st7" d="M136.4,474.1c0,53.7-43.6,97.3-97.3,97.3s-97.3-43.6-97.3-97.3c0-40,15.3-90,63.6-90
		c43.4,0,34.7,73.8,58.8,73.8L136.4,474.1z"/>
	<path class="st8" d="M-14.9,427.8c-1.1,0-2.2-0.1-3.3-0.4c-5.6-1.4-9.8-6.2-10.5-11.9c-0.3-2.3,1.4-4.4,3.7-4.7
		c2.3-0.3,4.4,1.4,4.7,3.7c0.3,2.3,1.9,4.2,4.2,4.7c2.2,0.5,4.6-0.4,5.9-2.2c1.3-1.9,3.9-2.4,5.9-1.1c1.9,1.3,2.4,3.9,1.1,5.9
		C-5.9,425.6-10.3,427.8-14.9,427.8z"/>
	<path class="st9" d="M47.9,455.1c-19.9,0-36,16.1-36,36l0,0c0,19.9,16.1,36,36,36h21.6c39.8,0,72-32.2,72-72l0,0L47.9,455.1
		L47.9,455.1z"/>
</g>
<g>
	<defs>
		<polygon id="SVGID_5_" points="-170.1,484.1 34.8,603.1 34.6,651.3 -169.6,532.8 		"/>
	</defs>
	<clipPath id="SVGID_6_">
		<use xlink:href="#SVGID_5_"  style="overflow:visible;"/>
	</clipPath>
	<g class="st10">
		<polygon class="st1" points="-170.1,458.1 34.8,577.1 34.6,625.3 -169.6,506.8 		"/>
		<g>
			<polygon class="st2" points="34.8,577.1 23.1,570.3 -16.1,595.9 13.8,613.3 34.7,599.8 			"/>
			<polygon class="st2" points="-149.3,470.3 -169.8,484 -169.6,506.8 -157.9,513.6 -119.3,487.7 			"/>
		</g>
	</g>
</g>
<g>
	<defs>
		<polygon id="SVGID_7_" points="35.2,577.3 239.4,458.7 239.6,506.9 34.7,625.9 		"/>
	</defs>
	<clipPath id="SVGID_8_">
		<use xlink:href="#SVGID_7_"  style="overflow:visible;"/>
	</clipPath>
	<g class="st11">
		<polygon class="st1" points="35.2,603.3 239.4,484.7 239.6,532.9 34.7,651.9 		"/>
		<g>
			<polygon class="st2" points="239.5,510.3 218.6,496.8 188.7,514.2 227.9,539.7 239.6,532.9 			"/>
			<polygon class="st2" points="85.5,622.4 46.9,596.5 35.2,603.3 34.9,626 55.5,639.8 			"/>
		</g>
	</g>
</g>
<text transform="matrix(0.5926 0.3431 -0.501 0.8654 -119.3065 533.5786)" class="st12 st13">Crime Scene</text>
<text transform="matrix(0.5889 -0.3413 0.5015 0.8652 73.196 600.8657)" class="st12 st14">Do Not Cross Line</text>
</svg>
