<?xml version="1.0" encoding="utf-8"?>
<!-- Generator: Adobe Illustrator 19.0.1, SVG Export Plug-In . SVG Version: 6.00 Build 0)  -->
<svg version="1.1" id="chicken_x5F_seed" xmlns="http://www.w3.org/2000/svg" xmlns:xlink="http://www.w3.org/1999/xlink" x="0px"
	 y="0px" viewBox="-223 225 512 512" style="enable-background:new -223 225 512 512;" xml:space="preserve">
<style type="text/css">
	.st0{fill:#F2F2F2;}
	.st1{opacity:0.1;enable-background:new    ;}
</style>
<g>
	<path class="st0" d="M24.7,570.5c-10.4-2.9-19.2-13.8-14-32.6s20.4-30.7,30.7-27.8c10.3,2.8,17.3,20.8,12.1,39.6
		C48.2,568.5,35.1,573.4,24.7,570.5z"/>
	<path class="st1" d="M43.9,544.2c3.8-13.9,1-27.2-4.8-34.5c0.7,0.1,1.5,0.2,2.2,0.4c10.3,2.8,17.3,20.8,12.1,39.6
		c-5.2,18.8-18.3,23.7-28.8,20.8c-3.5-1-6.7-2.8-9.4-5.5C25.7,567.8,38.8,562.9,43.9,544.2z"/>
</g>
</svg>
