<?xml version="1.0" encoding="utf-8"?>
<!-- Generator: Adobe Illustrator 19.0.1, SVG Export Plug-In . SVG Version: 6.00 Build 0)  -->
<svg version="1.1" id="chili" xmlns="http://www.w3.org/2000/svg" xmlns:xlink="http://www.w3.org/1999/xlink" x="0px" y="0px"
	 viewBox="0 0 50 50" style="enable-background:new 0 0 50 50;" xml:space="preserve">
<style type="text/css">
	.st0{fill:#659C35;}
	.st1{fill:#D13834;}
	.st2{fill:#88C057;}
	.st3{fill:#F75B57;}
</style>
<g>
	<path class="st0" d="M43.4,7.9c-0.2,0-0.5-0.1-0.7-0.3c-0.4-0.4-0.4-1,0-1.4c1-1.1,1.6-2.3,1.4-3.1c-0.1-0.5-0.6-0.9-1.4-1.2
		c-0.5-0.2-0.8-0.8-0.6-1.3s0.8-0.8,1.3-0.6c1.8,0.7,2.4,1.8,2.6,2.6c0.3,1.5-0.4,3.3-1.9,4.9C43.9,7.8,43.7,7.9,43.4,7.9z"/>
	<path class="st1" d="M32.3,15.3c-0.1,0.5-0.3,1-0.4,1.5C28.4,32.2,15.6,40.4,1,48.4c-0.7,0.4-0.8,1.5-0.1,1.4
		c9.4-1.4,33.8,1,45.7-27c0,0,6.2-12.9-1.7-15C44.9,7.8,34,2.7,32.3,15.3z"/>
	<path class="st2" d="M49.1,17.6c0.9-4,0.9-8.9-3.8-10.1c0,0-10.6-5-13.2,6.3c2.5-0.2,5.8-0.7,6.8-2c0,0,2.2,2.2,1.1,5.4
		c0,0,4.7-0.5,4.3-4.3c0,0,2.9,2.5,2.1,6.4C46.3,19.3,47.7,18.8,49.1,17.6z"/>
	<path class="st3" d="M15,46c-0.4,0-0.8-0.3-1-0.7c-0.2-0.5,0.1-1.1,0.6-1.3c21.7-7,24-21.8,24.1-21.9c0.1-0.5,0.6-0.9,1.1-0.8
		c0.5,0.1,0.9,0.6,0.8,1.1c-0.1,0.7-2.6,16.2-25.4,23.6C15.2,46,15.1,46,15,46z"/>
</g>
</svg>
