<?xml version="1.0" encoding="utf-8"?>
<!-- Generator: Adobe Illustrator 19.0.1, SVG Export Plug-In . SVG Version: 6.00 Build 0)  -->
<svg version="1.1" id="chili_x5F_harvest" xmlns="http://www.w3.org/2000/svg" xmlns:xlink="http://www.w3.org/1999/xlink" x="0px"
	 y="0px" viewBox="-223 225 512 512" style="enable-background:new -223 225 512 512;" xml:space="preserve">
<style type="text/css">
	.st0{fill:#58822F;}
	.st1{fill:#A3CE76;}
	.st2{fill:#659C35;}
	.st3{fill:#D13834;}
	.st4{fill:#88C057;}
	.st5{fill:#F75B57;}
</style>
<g>
	<g>
		<g>
			<g>
				<g>
					<path class="st0" d="M-47.6,521.6c0.9,7.2,1.7,13.6,2.4,19.3c0.2,1.9,0.6,4.9,1.9,8.7c0.9,2.5,2,4.8,3.3,7
						c1.3,2.2,2.8,4.1,4.4,5.6c1.6,1.6,3.2,3,4.9,4.3c1.7,1.4,3.4,2.5,5,3.3c1.7,0.9,3.2,1.6,4.5,2.2c1.3,0.6,2.4,1.1,3.2,1.3
						l1.3,0.4c-0.5,12.7,1.2,24.8,5.2,36.7c4.1,12.3,10.5,23.7,19.7,34.5c0.9,1,1.8,1.7,2.7,2c1,0.3,1.7,0.2,2.2-0.4
						c0.5-0.6,0.6-1.5,0.4-2.6c-0.3-1.1-0.9-2.2-1.8-3.2C4,631.7-1.7,621.9-5.4,611.4c-2.1-5.8-3.1-10.6-3.6-13.2
						c-0.9-4.4-1.6-10.2-1.6-17c0.6,1.4,1.7,3.4,3.4,5.5c1.4,1.6,2.2,2.2,4.9,4.5c4.1,3.7,3.5,3.8,6.1,5.9c2.2,1.8,4.7,3.4,7.6,4.8
						c3,1.5,6.1,2.6,9.4,3.3c4.6,1,9.2,0.7,11.6,0.5c8-0.7,15.7-2.5,19-3.3c-9.3-8.7-16.1-15.5-20.8-20.2c-3-3-7.1-7.3-13.8-10.9
						C12.8,569,9,567.7,5.3,567c-3.8-0.7-7.2-0.5-8.8-0.4c-2.6,0.1-4.7,0.4-6.4,0.7c0.5-3.2,1.1-6.5,1.9-10.1
						c0.9-3.8,1.8-7.4,2.9-10.6c0.3,0.3,0.9,0.6,1.5,1.1c1.9,1.5,2.7,2.1,3.5,2.7c1.2,0.9,2.3,1.6,4.3,3c3.1,2.1,4.7,3.2,6.2,4.1
						c2.6,1.5,5.1,2.8,7.6,3.8c2.6,1.1,5.5,1.9,8.7,2.4c3.3,0.6,6.5,0.7,9.7,0.3c3.8-0.4,6.3-1.6,10.2-3.3c3.6-1.6,9-3.9,15.9-6.6
						c-4.4-3.6-9.8-8-16.6-13.5c-2.9-2.3-5.9-4.8-10.5-6.8c-3.2-1.4-6.4-2.4-9.5-2.9c-3-0.5-5.8-0.6-8.3-0.2
						c-2.4,0.4-4.7,0.9-6.9,1.6c-1.7,0.5-3.3,1.3-5.6,2.4c-0.7,0.3-1.2,0.6-3.6,1.6c-1.1,0.5-2.1,1-2.7,1.2
						c-0.1,0.1-0.2,0.2-0.3,0.2c-0.3-0.2,1.3-3.9,4.9-11.1c0.7-0.1,1.7-0.3,3-0.6c3.4-0.7,4.5-0.9,5-1c3.6-0.7,6.7-2,8.5-2.8
						c2-0.8,5.2-2.3,8.9-4.7c3.4-2.2,6.3-4.9,8.8-7.9c1.3-1.6,3.4-4.7,5.9-12.2c1.6-4.9,3.5-12,4.3-21.1c-7.8,2.5-14,3.9-18.3,4.8
						c-3.2,0.7-6.7,1.2-10.8,3.4c-2.8,1.5-5.3,3.3-7.5,5.4c-2.2,2-3.9,4.2-5.2,6.5c-1.3,2.3-2.4,4.6-3.4,6.8
						c-0.9,2.2-1.6,4.4-2.1,6.5c-0.4,2.1-0.8,3.9-1.1,5.5c-0.3,1.6-0.4,2.9-0.4,3.9l-0.1,1.4c-0.2,0.2-0.8,1.4-2,3.6
						c-1.1,2.1-2,3.8-2.5,5.1c0.2-0.1,0.6-0.3,0.9-0.6c0.9-1.1,0.1-3.1-0.6-5.5c-1.1-3.5-0.3-1.9-1.8-6.6c-1.1-3.3-1.6-5-2.5-7.1
						c-1.3-3-2.2-4.9-4.1-7c-1.6-1.8-1.9-1.4-5.2-4.3c-2.6-2.3-3-3.1-5.5-5.4c-1.4-1.3-3.4-3-6.1-5c0.6,7.4,0.3,12.9-0.2,16.6
						c-0.2,1.7-0.8,4.7-0.3,8.8c0.3,2.6,0.8,5,1.6,7.4c0.8,2.4,1.8,4.5,3,6.3c1.2,1.9,2.5,3.6,3.8,5.3c1.4,1.7,2.8,3.1,4.2,4.3
						c1.4,1.2,2.8,2.3,3.9,3.2c1.2,0.9,2.2,1.6,2.9,2l1.1,0.7c-1.5,3.7-2.9,8.2-3.6,13.3c-0.2,1.4-0.4,2.8-0.5,4.2
						c0,0-0.1,0.1-0.2,0.1c-0.6,0.1-1.5-2.3-2.1-3.8c-0.3-0.7-1.3-2.7-3.3-6.7c-1.3-2.5-2.4-4.7-4.2-7.4c-2.1-3.2-4.3-5.3-5.6-6.6
						c-1.5-1.5-3.6-3.6-6.7-5.8c-2.5-1.7-3.3-1.9-5.6-3.6C-44.9,524.4-46.5,522.7-47.6,521.6z"/>
				</g>
			</g>
		</g>
		<g>
			<g>
				<g>
					<path class="st1" d="M20.7,506.2c-2.8,6.7-5.2,12.7-7.3,18.1c-0.7,1.8-1.9,4.6-2.5,8.5c-0.4,2.6-0.6,5.2-0.5,7.7
						c0.1,2.6,0.5,4.9,1.1,7c0.6,2.1,1.4,4.2,2.2,6.2c0.8,2,1.8,3.8,2.8,5.3c1,1.6,2,3,2.9,4.1c0.9,1.2,1.6,2.1,2.2,2.7l0.9,1
						c-6.6,10.8-11,22.2-13.3,34.6c-2.4,12.7-2.3,25.8,0.4,39.8c0.3,1.3,0.7,2.4,1.4,3.1c0.7,0.7,1.4,1,2.1,0.7
						c0.7-0.3,1.3-1,1.6-2.1c0.3-1.1,0.3-2.3,0-3.7c-2.5-11.8-2.7-23.1-0.9-34.1c1-6.1,2.4-10.8,3.3-13.3c1.4-4.3,3.6-9.7,6.9-15.6
						c-0.1,1.5-0.2,3.8,0.3,6.4c0.4,2.1,0.9,3,2,6.3c1.8,5.3,1.2,5.1,2.5,8.1c1,2.6,2.5,5.2,4.3,7.9c1.9,2.8,4.1,5.3,6.6,7.5
						c3.5,3.1,7.7,5.1,9.9,6.1c7.3,3.3,14.9,5.5,18.2,6.3c-3.9-12.2-6.5-21.4-8.3-27.8c-1.1-4.1-2.7-9.9-6.7-16.3
						c-2.4-3.7-5-6.8-7.9-9.2c-3-2.5-6-3.9-7.5-4.7c-2.3-1.1-4.3-1.9-5.9-2.5c1.9-2.5,4.1-5.2,6.5-7.9c2.6-2.9,5.2-5.5,7.7-7.9
						c0.2,0.4,0.4,1,0.7,1.7c1,2.2,1.4,3.2,1.7,4c0.6,1.4,1.2,2.5,2.3,4.7c1.7,3.4,2.5,5.1,3.4,6.6c1.5,2.6,3.1,4.9,4.8,7.1
						c1.7,2.2,3.9,4.3,6.4,6.3c2.6,2.1,5.4,3.8,8.3,5c3.6,1.5,6.3,1.6,10.5,2c3.9,0.4,9.7,1,17.1,1.9c-2.1-5.3-4.7-11.8-8-19.9
						c-1.4-3.4-2.8-7-5.9-11.1c-2.1-2.8-4.4-5.2-6.9-7.1c-2.4-1.9-4.8-3.3-7.1-4.2c-2.3-0.8-4.6-1.5-6.8-2c-1.8-0.4-3.5-0.5-6-0.7
						c-0.8-0.1-1.3-0.1-3.9-0.3c-1.3-0.1-2.3-0.2-3-0.2c-0.2,0.1-0.3,0.1-0.3,0c-0.2-0.3,3-2.7,9.7-7.3c0.7,0.2,1.7,0.5,2.9,0.9
						c3.3,1.1,4.4,1.4,4.9,1.6c3.5,1.1,6.8,1.5,8.8,1.7c2.2,0.2,5.6,0.5,10.1,0.2c4.1-0.3,7.9-1.2,11.5-2.7
						c1.9-0.8,5.3-2.5,11.1-7.8c3.8-3.5,8.9-8.8,14-16.3c-8-1.7-14.2-3.4-18.4-4.7c-3.1-1-6.4-2.2-11.1-2.2c-3.2,0-6.3,0.3-9.2,1
						c-2.9,0.7-5.5,1.7-7.7,3.1c-2.3,1.4-4.4,2.8-6.3,4.3c-1.9,1.5-3.6,3-5,4.6c-1.4,1.6-2.6,3-3.6,4.3c-1,1.3-1.8,2.3-2.3,3.2
						l-0.8,1.2c-0.3,0.1-1.4,0.8-3.5,2.2c-2,1.3-3.6,2.4-4.7,3.2c0.3,0,0.6,0.1,1-0.1c1.4-0.5,1.6-2.6,2.1-5.1
						c0.7-3.6,0.7-1.8,1.7-6.7c0.7-3.4,1-5.1,1.3-7.4c0.3-3.2,0.4-5.4-0.2-8.1c-0.5-2.3-0.9-2.2-2.4-6.3c-1.2-3.3-1.1-4.1-2.2-7.4
						c-0.6-1.8-1.5-4.3-2.9-7.4c-3,6.8-6,11.4-8.3,14.4c-1,1.4-3,3.7-4.5,7.5c-1,2.4-1.7,4.8-2.2,7.2c-0.5,2.4-0.6,4.8-0.5,7
						c0.2,2.2,0.4,4.4,0.8,6.5c0.4,2.1,0.9,4,1.5,5.8c0.7,1.8,1.3,3.3,1.9,4.7c0.6,1.4,1.1,2.4,1.6,3.2l0.7,1.1
						c-3.1,2.5-6.5,5.8-9.6,9.9c-0.9,1.2-1.7,2.3-2.4,3.4c-0.1,0-0.1,0-0.2,0c-0.6-0.2-0.2-2.8,0-4.4c0.1-0.7,0.2-3,0.4-7.5
						c0.1-2.8,0.2-5.3-0.1-8.5c-0.3-3.9-1.2-6.7-1.7-8.5c-0.6-2-1.4-4.9-3.1-8.3c-1.4-2.7-2-3.3-3.2-5.9
						C21.7,510,21.1,507.7,20.7,506.2z"/>
				</g>
			</g>
		</g>
	</g>
	<g>
		<path class="st2" d="M54.2,555.7c0.3-6.3,1.8-13.1,3.9-18.3c1.2-2.9,3.1-6.8,5.8-8.5c0.8-0.5,1,0.6,0.6,2.6
			c-0.4,1.9-1.4,3.9-2.1,4.4c-1.1,0.8-2.1,2.1-2.8,3.8c-1.1,2.8-2,7.3-2.2,11.5c-0.1,1.6-0.8,3.8-1.7,5.1c-0.4,0.6-0.8,0.9-1,0.8
			C54.3,557,54.2,556.5,54.2,555.7z"/>
		<path class="st3" d="M53.1,556.5c-1.5-0.1-2.4,0.2-3,0.6c-3,1.8-3.6,7.9-1.1,15c1.4,9.4,3.5,17,5.4,22.6
			c4.4,13.4,8.3,18.4,12.5,21.7c1.9,1.5,5.3,3.7,6.1,3c0.9-0.8-2-4.5-4.4-9.7c-3.5-7.3-4.2-13.6-5-20c-1-7.9-0.6-14.6-0.3-19.6
			c0-0.7,0.1-1.3,0.1-1.7C65.9,554.9,53.1,556.5,53.1,556.5z"/>
		<path class="st4" d="M47.8,567.7c0.6-4.3,4.4-5.8,4.4-5.8c-1.7,3.7,2.9,5.8,2.9,5.8c-0.1-3.6,2.9-5.1,2.9-5.1
			c0.5,1.7,3.7,3.3,6.2,4.4c1.2-12.4-11.3-10.9-11.3-10.9c-5.2-0.3-6.9,4.6-7.3,9.1C46.5,566.8,47.8,567.7,47.8,567.7z"/>
		<path class="st5" d="M58,597.8c-1-2.5-1.1-3.1-2.6-7.9c-1.9-5.8-4.8-14.3-3.3-17.1c0.2-0.3,0.6-1.1,1.1-1.1c0.7,0,1.3,1.9,1.2,2
			c-0.1,0,1.3,6.3,1.3,6.3c1.4,4.8,1.8,9.3,3.9,16.5c1.9,6.6,3.7,10.2,3.4,10.3C62.6,607.1,60,602.6,58,597.8z"/>
	</g>
	<g>
		<path class="st2" d="M-10.5,576.5c-0.3,0-0.5-0.4-0.7-1.1c-0.4-1.4-0.4-3.8,0-5.3c1.1-4.1,1.7-8.6,1.5-11.6
			c-0.1-1.9-0.6-3.4-1.5-4.5c-0.6-0.7-0.8-2.9-0.6-4.8s0.8-3,1.4-2.3c2,2.5,2.6,6.8,2.8,9.9c0.4,5.6-0.4,12.5-2.1,18.6
			C-10,576.1-10.2,576.5-10.5,576.5z"/>
		<path class="st3" d="M-22.4,584.5c-0.1,0.4-0.2,1-0.4,1.6c-1.3,4.8-3,11.3-6.4,18.5c-2.7,5.8-5.4,11.6-11,17.4
			c-3.9,4.1-7.8,6.8-7.2,7.8c0.5,1,4.4-0.1,6.7-0.9c5-1.7,10.3-5.3,18.7-16.6c3.5-4.7,7.9-11.3,12.2-19.8c4.6-6,6-11.9,3.7-14.6
			c-0.5-0.5-1.2-1.2-2.7-1.5C-8.9,576.4-20.6,570.9-22.4,584.5z"/>
		<path class="st4" d="M-4.4,587c1-4.3,0.9-9.5-4.1-10.9c0,0-11.4-5.4-14.2,6.8c2.7-0.2,6.3-0.7,7.3-2.2c0,0,2.4,2.4,1.2,5.8
			c0,0,5-0.6,4.6-4.6c0,0,3.1,2.7,2.3,6.9C-7.4,588.7-5.9,588.3-4.4,587z"/>
		<path class="st5" d="M-34.1,621.3c-0.3-0.2,2.5-3.1,6.4-8.8c4.3-6.2,6.1-10.3,8.9-14.5c0,0,3.3-5.5,3.3-5.6
			c-0.1-0.1,1-1.7,1.7-1.5c0.5,0.1,0.6,1.1,0.7,1.4c0.6,3.2-4.8,10.3-8.5,15.2c-3,4.1-3.2,4.6-5,6.7
			C-29.9,618.1-33.8,621.5-34.1,621.3z"/>
	</g>
</g>
<g>
	<g>
		<g>
			<g>
				<g>
					<path class="st0" d="M-42.2,335.5c0.9,7.2,1.7,13.6,2.4,19.3c0.2,1.9,0.6,4.9,1.9,8.7c0.9,2.5,2,4.8,3.3,7
						c1.3,2.2,2.8,4.1,4.4,5.6c1.6,1.6,3.2,3,4.9,4.3c1.7,1.4,3.4,2.5,5,3.3c1.7,0.9,3.2,1.6,4.5,2.2c1.3,0.6,2.4,1.1,3.2,1.3
						l1.3,0.4c-0.5,12.7,1.2,24.8,5.2,36.7c4.1,12.3,10.5,23.7,19.7,34.5c0.9,1,1.8,1.7,2.7,2c1,0.3,1.7,0.2,2.2-0.4
						c0.5-0.6,0.6-1.5,0.4-2.6c-0.3-1.1-0.9-2.2-1.8-3.2C9.4,445.6,3.7,435.9,0,425.3c-2.1-5.8-3.1-10.6-3.6-13.2
						c-0.9-4.4-1.6-10.2-1.6-17c0.6,1.4,1.7,3.4,3.4,5.5c1.4,1.6,2.2,2.2,4.9,4.5c4.1,3.7,3.5,3.8,6.1,5.9c2.2,1.8,4.7,3.4,7.6,4.8
						c3,1.5,6.1,2.6,9.4,3.3c4.6,1,9.2,0.7,11.6,0.5c8-0.7,15.7-2.5,19-3.3c-9.3-8.7-16.1-15.5-20.8-20.2c-3-3-7.1-7.3-13.8-10.9
						c-3.9-2.1-7.7-3.5-11.4-4.2c-3.8-0.7-7.2-0.5-8.8-0.4c-2.6,0.1-4.7,0.4-6.4,0.7c0.5-3.2,1.1-6.5,1.9-10.1
						c0.9-3.8,1.8-7.4,2.9-10.6c0.3,0.3,0.9,0.6,1.5,1.1c1.9,1.5,2.7,2.1,3.5,2.7c1.2,0.9,2.3,1.6,4.3,3c3.1,2.1,4.7,3.2,6.2,4.1
						c2.6,1.5,5.1,2.8,7.6,3.8c2.6,1.1,5.5,1.9,8.7,2.4c3.3,0.6,6.5,0.7,9.7,0.3c3.8-0.4,6.3-1.6,10.2-3.3c3.6-1.6,9-3.9,15.9-6.6
						c-4.4-3.6-9.8-8-16.6-13.5c-2.9-2.3-5.9-4.8-10.5-6.8c-3.2-1.4-6.4-2.4-9.5-2.9c-3-0.5-5.8-0.6-8.3-0.2
						c-2.4,0.4-4.7,0.9-6.9,1.6c-1.7,0.5-3.3,1.3-5.6,2.4c-0.7,0.3-1.2,0.6-3.6,1.6c-1.1,0.5-2.1,1-2.7,1.2
						c-0.1,0.1-0.2,0.2-0.3,0.2c-0.3-0.2,1.3-3.9,4.9-11.1c0.7-0.1,1.7-0.3,3-0.6c3.4-0.7,4.5-0.9,5-1c3.6-0.7,6.7-2,8.5-2.8
						c2-0.8,5.2-2.3,8.9-4.7c3.4-2.2,6.3-4.9,8.8-7.9c1.3-1.6,3.4-4.7,5.9-12.2c1.6-4.9,3.5-12,4.3-21.1c-7.8,2.5-14,3.9-18.3,4.8
						c-3.2,0.7-6.7,1.2-10.8,3.4c-2.8,1.5-5.3,3.3-7.5,5.4c-2.2,2-3.9,4.2-5.2,6.5c-1.3,2.3-2.4,4.6-3.4,6.8
						c-0.9,2.2-1.6,4.4-2.1,6.5c-0.4,2.1-0.8,3.9-1.1,5.5c-0.3,1.6-0.4,2.9-0.4,3.9L4,334.7c-0.2,0.2-0.8,1.4-2,3.6
						c-1.1,2.1-2,3.8-2.5,5.1c0.2-0.1,0.6-0.3,0.9-0.6c0.9-1.1,0.1-3.1-0.6-5.5c-1.1-3.5-0.3-1.9-1.8-6.6c-1.1-3.3-1.6-5-2.5-7.1
						c-1.3-3-2.2-4.9-4.1-7c-1.6-1.8-1.9-1.4-5.2-4.3c-2.6-2.3-3-3.1-5.5-5.4c-1.4-1.3-3.4-3-6.1-5c0.6,7.4,0.3,12.9-0.2,16.6
						c-0.2,1.7-0.8,4.7-0.3,8.8c0.3,2.6,0.8,5,1.6,7.4c0.8,2.4,1.8,4.5,3,6.3c1.2,1.9,2.5,3.6,3.8,5.3c1.4,1.7,2.8,3.1,4.2,4.3
						c1.4,1.2,2.8,2.3,3.9,3.2c1.2,0.9,2.2,1.6,2.9,2l1.1,0.7c-1.5,3.7-2.9,8.2-3.6,13.3c-0.2,1.4-0.4,2.8-0.5,4.2
						c0,0-0.1,0.1-0.2,0.1c-0.6,0.1-1.5-2.3-2.1-3.8c-0.3-0.7-1.3-2.7-3.3-6.7c-1.3-2.5-2.4-4.7-4.2-7.4c-2.1-3.2-4.3-5.3-5.6-6.6
						c-1.5-1.5-3.6-3.6-6.7-5.8c-2.5-1.7-3.3-1.9-5.6-3.6C-39.5,338.3-41.1,336.6-42.2,335.5z"/>
				</g>
			</g>
		</g>
		<g>
			<g>
				<g>
					<path class="st1" d="M26.1,320.1c-2.8,6.7-5.2,12.7-7.3,18.1c-0.7,1.8-1.9,4.6-2.5,8.5c-0.4,2.6-0.6,5.2-0.5,7.7
						c0.1,2.6,0.5,4.9,1.1,7c0.6,2.1,1.4,4.2,2.2,6.2c0.8,2,1.8,3.8,2.8,5.3c1,1.6,2,3,2.9,4.1c0.9,1.2,1.6,2.1,2.2,2.7l0.9,1
						c-6.6,10.8-11,22.2-13.3,34.6c-2.4,12.7-2.3,25.8,0.4,39.8c0.3,1.3,0.7,2.4,1.4,3.1c0.7,0.7,1.4,1,2.1,0.7
						c0.7-0.3,1.3-1,1.6-2.1c0.3-1.1,0.3-2.3,0-3.7c-2.5-11.8-2.7-23.1-0.9-34.1c1-6.1,2.4-10.8,3.3-13.3c1.4-4.3,3.6-9.7,6.9-15.6
						c-0.1,1.5-0.2,3.8,0.3,6.4c0.4,2.1,0.9,3,2,6.3c1.8,5.3,1.2,5.1,2.5,8.1c1,2.6,2.5,5.2,4.3,7.9c1.9,2.8,4.1,5.3,6.6,7.5
						c3.5,3.1,7.7,5.1,9.9,6.1c7.3,3.3,14.9,5.5,18.2,6.3c-3.9-12.2-6.5-21.4-8.3-27.8c-1.1-4.1-2.7-9.9-6.7-16.3
						c-2.4-3.7-5-6.8-7.9-9.2c-3-2.5-6-3.9-7.5-4.7c-2.3-1.1-4.3-1.9-5.9-2.5c1.9-2.5,4.1-5.2,6.5-7.9c2.6-2.9,5.2-5.5,7.7-7.9
						c0.2,0.4,0.4,1,0.7,1.7c1,2.2,1.4,3.2,1.7,4c0.6,1.4,1.2,2.5,2.3,4.7c1.7,3.4,2.5,5.1,3.4,6.6c1.5,2.6,3.1,4.9,4.8,7.1
						c1.7,2.2,3.9,4.3,6.4,6.3c2.6,2.1,5.4,3.8,8.3,5c3.6,1.5,6.3,1.6,10.5,2c3.9,0.4,9.7,1,17.1,1.9c-2.1-5.3-4.7-11.8-8-19.9
						c-1.4-3.4-2.8-7-5.9-11.1c-2.1-2.8-4.4-5.2-6.9-7.1c-2.4-1.9-4.8-3.3-7.1-4.2c-2.3-0.8-4.6-1.5-6.8-2c-1.8-0.4-3.5-0.5-6-0.7
						c-0.8-0.1-1.3-0.1-3.9-0.3c-1.3-0.1-2.3-0.2-3-0.2c-0.2,0.1-0.3,0.1-0.3,0c-0.2-0.3,3-2.7,9.7-7.3c0.7,0.2,1.7,0.5,2.9,0.9
						c3.3,1.1,4.4,1.4,4.9,1.6c3.5,1.1,6.8,1.5,8.8,1.7c2.2,0.2,5.6,0.5,10.1,0.2c4.1-0.3,7.9-1.2,11.5-2.7
						c1.9-0.8,5.3-2.5,11.1-7.8c3.8-3.5,8.9-8.8,14-16.3c-8-1.7-14.2-3.4-18.4-4.7c-3.1-1-6.4-2.2-11.1-2.2c-3.2,0-6.3,0.3-9.2,1
						c-2.9,0.7-5.5,1.7-7.7,3.1c-2.3,1.4-4.4,2.8-6.3,4.3c-1.9,1.5-3.6,3-5,4.6c-1.4,1.6-2.6,3-3.6,4.3c-1,1.3-1.8,2.3-2.3,3.2
						l-0.8,1.2c-0.3,0.1-1.4,0.8-3.5,2.2c-2,1.3-3.6,2.4-4.7,3.2c0.3,0,0.6,0.1,1-0.1c1.4-0.5,1.6-2.6,2.1-5.1
						c0.7-3.6,0.7-1.8,1.7-6.7c0.7-3.4,1-5.1,1.3-7.4c0.3-3.2,0.4-5.4-0.2-8.1c-0.5-2.3-0.9-2.2-2.4-6.3c-1.2-3.3-1.1-4.1-2.2-7.4
						c-0.6-1.8-1.5-4.3-2.9-7.4c-3,6.8-6,11.4-8.3,14.4c-1,1.4-3,3.7-4.5,7.5c-1,2.4-1.7,4.8-2.2,7.2c-0.5,2.4-0.6,4.8-0.5,7
						c0.2,2.2,0.4,4.4,0.8,6.5c0.4,2.1,0.9,4,1.5,5.8c0.7,1.8,1.3,3.3,1.9,4.7c0.6,1.4,1.1,2.4,1.6,3.2l0.7,1.1
						c-3.1,2.5-6.5,5.8-9.6,9.9c-0.9,1.2-1.7,2.3-2.4,3.4c-0.1,0-0.1,0-0.2,0c-0.6-0.2-0.2-2.8,0-4.4c0.1-0.7,0.2-3,0.4-7.5
						c0.1-2.8,0.2-5.3-0.1-8.5c-0.3-3.9-1.2-6.7-1.7-8.5c-0.6-2-1.4-4.9-3.1-8.3c-1.4-2.7-2-3.3-3.2-5.9
						C27.1,323.9,26.5,321.6,26.1,320.1z"/>
				</g>
			</g>
		</g>
	</g>
	<g>
		<path class="st2" d="M59.6,369.7c0.3-6.3,1.8-13.1,3.9-18.3c1.2-2.9,3.1-6.8,5.8-8.5c0.8-0.5,1,0.6,0.6,2.6s-1.4,3.9-2.1,4.4
			c-1.1,0.8-2.1,2.1-2.8,3.8c-1.1,2.8-2,7.3-2.2,11.5c-0.1,1.6-0.8,3.8-1.7,5.1c-0.4,0.6-0.8,0.9-1,0.8
			C59.7,370.9,59.6,370.4,59.6,369.7z"/>
		<path class="st3" d="M58.5,370.4c-1.5-0.1-2.4,0.2-3,0.6c-3,1.8-3.6,7.9-1.1,15c1.4,9.4,3.5,17,5.4,22.6
			c4.4,13.4,8.3,18.4,12.5,21.7c1.9,1.5,5.3,3.7,6.1,3c0.9-0.8-2-4.5-4.4-9.7c-3.5-7.3-4.2-13.6-5-20c-1-7.9-0.6-14.6-0.3-19.6
			c0-0.7,0.1-1.3,0.1-1.7C71.3,368.8,58.5,370.4,58.5,370.4z"/>
		<path class="st4" d="M53.2,381.6c0.6-4.3,4.4-5.8,4.4-5.8c-1.7,3.7,2.9,5.8,2.9,5.8c-0.1-3.6,2.9-5.1,2.9-5.1
			c0.5,1.7,3.7,3.3,6.2,4.4c1.2-12.4-11.3-10.9-11.3-10.9c-5.2-0.3-6.9,4.6-7.3,9.1C51.9,380.7,53.2,381.6,53.2,381.6z"/>
		<path class="st5" d="M63.4,411.8c-1-2.5-1.1-3.1-2.6-7.9c-1.9-5.8-4.8-14.3-3.3-17.1c0.2-0.3,0.6-1.1,1.1-1.1c0.7,0,1.3,1.9,1.2,2
			c-0.1,0,1.3,6.3,1.3,6.3c1.4,4.8,1.8,9.3,3.9,16.5c1.9,6.6,3.7,10.2,3.4,10.3C68,421,65.4,416.6,63.4,411.8z"/>
	</g>
	<g>
		<path class="st2" d="M-5.1,390.5c-0.3,0-0.5-0.4-0.7-1.1c-0.4-1.4-0.4-3.8,0-5.3c1.1-4.1,1.7-8.6,1.5-11.6
			c-0.1-1.9-0.6-3.4-1.5-4.5c-0.6-0.7-0.8-2.9-0.6-4.8c0.2-2,0.8-3,1.4-2.3c2,2.5,2.6,6.8,2.8,9.9c0.4,5.6-0.4,12.5-2.1,18.6
			C-4.6,390.1-4.8,390.5-5.1,390.5z"/>
		<path class="st3" d="M-17,398.4c-0.1,0.4-0.2,1-0.4,1.6c-1.3,4.8-3,11.3-6.4,18.5c-2.7,5.8-5.4,11.6-11,17.4
			c-3.9,4.1-7.8,6.8-7.2,7.8c0.5,1,4.4-0.1,6.7-0.9c5-1.7,10.3-5.3,18.7-16.6c3.5-4.7,7.9-11.3,12.2-19.8c4.6-6,6-11.9,3.7-14.6
			c-0.5-0.5-1.2-1.2-2.7-1.5C-3.5,390.4-15.2,384.9-17,398.4z"/>
		<path class="st4" d="M1,400.9c1-4.3,0.9-9.5-4.1-10.9c0,0-11.4-5.4-14.2,6.8c2.7-0.2,6.3-0.7,7.3-2.2c0,0,2.4,2.4,1.2,5.8
			c0,0,5-0.6,4.6-4.6c0,0,3.1,2.7,2.3,6.9C-2,402.7-0.5,402.2,1,400.9z"/>
		<path class="st5" d="M-28.7,435.2c-0.3-0.2,2.5-3.1,6.4-8.8c4.3-6.2,6.1-10.3,8.9-14.5c0,0,3.3-5.5,3.3-5.6
			c-0.1-0.1,1-1.7,1.7-1.5c0.5,0.1,0.6,1.1,0.7,1.4c0.6,3.2-4.8,10.3-8.5,15.2c-3,4.1-3.2,4.6-5,6.7
			C-24.5,432.1-28.4,435.5-28.7,435.2z"/>
	</g>
</g>
<g>
	<g>
		<g>
			<g>
				<g>
					<path class="st0" d="M115.6,429.8c0.9,7.2,1.7,13.6,2.4,19.3c0.2,1.9,0.6,4.9,1.9,8.7c0.9,2.5,2,4.8,3.3,7
						c1.3,2.2,2.8,4.1,4.4,5.6c1.6,1.6,3.2,3,4.9,4.3c1.7,1.4,3.4,2.5,5,3.3c1.7,0.9,3.2,1.6,4.5,2.2c1.3,0.6,2.4,1.1,3.2,1.3
						l1.3,0.4c-0.5,12.7,1.2,24.8,5.2,36.7c4.1,12.3,10.5,23.7,19.7,34.5c0.9,1,1.8,1.7,2.7,2c1,0.3,1.7,0.2,2.2-0.4
						c0.5-0.6,0.6-1.5,0.4-2.6c-0.3-1.1-0.9-2.2-1.8-3.2c-7.9-9.1-13.6-18.8-17.3-29.4c-2.1-5.8-3.1-10.6-3.6-13.2
						c-0.9-4.4-1.6-10.2-1.6-17c0.6,1.4,1.7,3.4,3.4,5.5c1.4,1.6,2.2,2.2,4.9,4.5c4.1,3.7,3.5,3.8,6.1,5.9c2.2,1.8,4.7,3.4,7.6,4.8
						c3,1.5,6.1,2.6,9.4,3.3c4.6,1,9.2,0.7,11.6,0.5c8-0.7,15.7-2.5,19-3.3c-9.3-8.7-16.1-15.5-20.8-20.2c-3-3-7.1-7.3-13.8-10.9
						c-3.9-2.1-7.7-3.5-11.4-4.2c-3.8-0.7-7.2-0.5-8.8-0.4c-2.6,0.1-4.7,0.4-6.4,0.7c0.5-3.2,1.1-6.5,1.9-10.1
						c0.9-3.8,1.8-7.4,2.9-10.6c0.3,0.3,0.9,0.6,1.5,1.1c1.9,1.5,2.7,2.1,3.5,2.7c1.2,0.9,2.3,1.6,4.3,3c3.1,2.1,4.7,3.2,6.2,4.1
						c2.6,1.5,5.1,2.8,7.6,3.8c2.6,1.1,5.5,1.9,8.7,2.4c3.3,0.6,6.5,0.7,9.7,0.3c3.8-0.4,6.3-1.6,10.2-3.3c3.6-1.6,9-3.9,15.9-6.6
						c-4.4-3.6-9.8-8-16.6-13.5c-2.9-2.3-5.9-4.8-10.5-6.8c-3.2-1.4-6.4-2.4-9.5-2.9c-3-0.5-5.8-0.6-8.3-0.2
						c-2.4,0.4-4.7,0.9-6.9,1.6c-1.7,0.5-3.3,1.3-5.6,2.4c-0.7,0.3-1.2,0.6-3.6,1.6c-1.1,0.5-2.1,1-2.7,1.2
						c-0.1,0.1-0.2,0.2-0.3,0.2c-0.3-0.2,1.3-3.9,4.9-11.1c0.7-0.1,1.7-0.3,3-0.6c3.4-0.7,4.5-0.9,5-1c3.6-0.7,6.7-2,8.5-2.8
						c2-0.8,5.2-2.3,8.9-4.7c3.4-2.2,6.3-4.9,8.8-7.9c1.3-1.6,3.4-4.7,5.9-12.2c1.6-4.9,3.5-12,4.3-21.1c-7.8,2.5-14,3.9-18.3,4.8
						c-3.2,0.7-6.7,1.2-10.8,3.4c-2.8,1.5-5.3,3.3-7.5,5.4c-2.2,2-3.9,4.2-5.2,6.5c-1.3,2.3-2.4,4.6-3.4,6.8
						c-0.9,2.2-1.6,4.4-2.1,6.5c-0.4,2.1-0.8,3.9-1.1,5.5c-0.3,1.6-0.4,2.9-0.4,3.9l-0.1,1.4c-0.2,0.2-0.8,1.4-2,3.6
						c-1.1,2.1-2,3.8-2.5,5.1c0.2-0.1,0.6-0.3,0.9-0.6c0.9-1.1,0.1-3.1-0.6-5.5c-1.1-3.5-0.3-1.9-1.8-6.6c-1.1-3.3-1.6-5-2.5-7.1
						c-1.3-3-2.2-4.9-4.1-7c-1.6-1.8-1.9-1.4-5.2-4.3c-2.6-2.3-3-3.1-5.5-5.4c-1.4-1.3-3.4-3-6.1-5c0.6,7.4,0.3,12.9-0.2,16.6
						c-0.2,1.7-0.8,4.7-0.3,8.8c0.3,2.6,0.8,5,1.6,7.4c0.8,2.4,1.8,4.5,3,6.3c1.2,1.9,2.5,3.6,3.8,5.3c1.4,1.7,2.8,3.1,4.2,4.3
						c1.4,1.2,2.8,2.3,3.9,3.2c1.2,0.9,2.2,1.6,2.9,2l1.1,0.7c-1.5,3.7-2.9,8.2-3.6,13.3c-0.2,1.4-0.4,2.8-0.5,4.2
						c0,0-0.1,0.1-0.2,0.1c-0.6,0.1-1.5-2.3-2.1-3.8c-0.3-0.7-1.3-2.7-3.3-6.7c-1.3-2.5-2.4-4.7-4.2-7.4c-2.1-3.2-4.3-5.3-5.6-6.6
						c-1.5-1.5-3.6-3.6-6.7-5.8c-2.5-1.7-3.3-1.9-5.6-3.6C118.3,432.6,116.6,431,115.6,429.8z"/>
				</g>
			</g>
		</g>
		<g>
			<g>
				<g>
					<path class="st1" d="M183.9,414.5c-2.8,6.7-5.2,12.7-7.3,18.1c-0.7,1.8-1.9,4.6-2.5,8.5c-0.4,2.6-0.6,5.2-0.5,7.7
						c0.1,2.6,0.5,4.9,1.1,7c0.6,2.1,1.4,4.2,2.2,6.2c0.8,2,1.8,3.8,2.8,5.3c1,1.6,2,3,2.9,4.1c0.9,1.2,1.6,2.1,2.2,2.7l0.9,1
						c-6.6,10.8-11,22.2-13.3,34.6c-2.4,12.7-2.3,25.8,0.4,39.8c0.3,1.3,0.7,2.4,1.4,3.1c0.7,0.7,1.4,1,2.1,0.7
						c0.7-0.3,1.3-1,1.6-2.1c0.3-1.1,0.3-2.3,0-3.7c-2.5-11.8-2.7-23.1-0.9-34.1c1-6.1,2.4-10.8,3.3-13.3c1.4-4.3,3.6-9.7,6.9-15.6
						c-0.1,1.5-0.2,3.8,0.3,6.4c0.4,2.1,0.9,3,2,6.3c1.8,5.3,1.2,5.1,2.5,8.1c1,2.6,2.5,5.2,4.3,7.9c1.9,2.8,4.1,5.3,6.6,7.5
						c3.5,3.1,7.7,5.1,9.9,6.1c7.3,3.3,14.9,5.5,18.2,6.3c-3.9-12.2-6.5-21.4-8.3-27.8c-1.1-4.1-2.7-9.9-6.7-16.3
						c-2.4-3.7-5-6.8-7.9-9.2c-3-2.5-6-3.9-7.5-4.7c-2.3-1.1-4.3-1.9-5.9-2.5c1.9-2.5,4.1-5.2,6.5-7.9c2.6-2.9,5.2-5.5,7.7-7.9
						c0.2,0.4,0.4,1,0.7,1.7c1,2.2,1.4,3.2,1.7,4c0.6,1.4,1.2,2.5,2.3,4.7c1.7,3.4,2.5,5.1,3.4,6.6c1.5,2.6,3.1,4.9,4.8,7.1
						c1.7,2.2,3.9,4.3,6.4,6.3c2.6,2.1,5.4,3.8,8.3,5c3.6,1.5,6.3,1.6,10.5,2c3.9,0.4,9.7,1,17.1,1.9c-2.1-5.3-4.7-11.8-8-19.9
						c-1.4-3.4-2.8-7-5.9-11.1c-2.1-2.8-4.4-5.2-6.9-7.1c-2.4-1.9-4.8-3.3-7.1-4.2c-2.3-0.8-4.6-1.5-6.8-2c-1.8-0.4-3.5-0.5-6-0.7
						c-0.8-0.1-1.3-0.1-3.9-0.3c-1.3-0.1-2.3-0.2-3-0.2c-0.2,0.1-0.3,0.1-0.3,0c-0.2-0.3,3-2.7,9.7-7.3c0.7,0.2,1.7,0.5,2.9,0.9
						c3.3,1.1,4.4,1.4,4.9,1.6c3.5,1.1,6.8,1.5,8.8,1.7c2.2,0.2,5.6,0.5,10.1,0.2c4.1-0.3,7.9-1.2,11.5-2.7
						c1.9-0.8,5.3-2.5,11.1-7.8c3.8-3.5,8.9-8.8,14-16.3c-8-1.7-14.2-3.4-18.4-4.7c-3.1-1-6.4-2.2-11.1-2.2c-3.2,0-6.3,0.3-9.2,1
						c-2.9,0.7-5.5,1.7-7.7,3.1c-2.3,1.4-4.4,2.8-6.3,4.3c-1.9,1.5-3.6,3-5,4.6c-1.4,1.6-2.6,3-3.6,4.3c-1,1.3-1.8,2.3-2.3,3.2
						l-0.8,1.2c-0.3,0.1-1.4,0.8-3.5,2.2c-2,1.3-3.6,2.4-4.7,3.2c0.3,0,0.6,0.1,1-0.1c1.4-0.5,1.6-2.6,2.1-5.1
						c0.7-3.6,0.7-1.8,1.7-6.7c0.7-3.4,1-5.1,1.3-7.4c0.3-3.2,0.4-5.4-0.2-8.1c-0.5-2.3-0.9-2.2-2.4-6.3c-1.2-3.3-1.1-4.1-2.2-7.4
						c-0.6-1.8-1.5-4.3-2.9-7.4c-3,6.8-6,11.4-8.3,14.4c-1,1.4-3,3.7-4.5,7.5c-1,2.4-1.7,4.8-2.2,7.2c-0.5,2.4-0.6,4.8-0.5,7
						c0.2,2.2,0.4,4.4,0.8,6.5c0.4,2.1,0.9,4,1.5,5.8c0.7,1.8,1.3,3.3,1.9,4.7c0.6,1.4,1.1,2.4,1.6,3.2l0.7,1.1
						c-3.1,2.5-6.5,5.8-9.6,9.9c-0.9,1.2-1.7,2.3-2.4,3.4c-0.1,0-0.1,0-0.2,0c-0.6-0.2-0.2-2.8,0-4.4c0.1-0.7,0.2-3,0.4-7.5
						c0.1-2.8,0.2-5.3-0.1-8.5c-0.3-3.9-1.2-6.7-1.7-8.5c-0.6-2-1.4-4.9-3.1-8.3c-1.4-2.7-2-3.3-3.2-5.9
						C184.9,418.2,184.2,416,183.9,414.5z"/>
				</g>
			</g>
		</g>
	</g>
	<g>
		<path class="st2" d="M217.4,464c0.3-6.3,1.8-13.1,3.9-18.3c1.2-2.9,3.1-6.8,5.8-8.5c0.8-0.5,1,0.6,0.6,2.6
			c-0.4,1.9-1.4,3.9-2.1,4.4c-1.1,0.8-2.1,2.1-2.8,3.8c-1.1,2.8-2,7.3-2.2,11.5c-0.1,1.6-0.8,3.8-1.7,5.1c-0.4,0.6-0.8,0.9-1,0.8
			C217.5,465.2,217.4,464.8,217.4,464z"/>
		<path class="st3" d="M216.2,464.7c-1.5-0.1-2.4,0.2-3,0.6c-3,1.8-3.6,7.9-1.1,15c1.4,9.4,3.5,17,5.4,22.6
			c4.4,13.4,8.3,18.4,12.5,21.7c1.9,1.5,5.3,3.7,6.1,3c0.9-0.8-2-4.5-4.4-9.7c-3.5-7.3-4.2-13.6-5-20c-1-7.9-0.6-14.6-0.3-19.6
			c0-0.7,0.1-1.3,0.1-1.7C229.1,463.2,216.2,464.7,216.2,464.7z"/>
		<path class="st4" d="M211,476c0.6-4.3,4.4-5.8,4.4-5.8c-1.7,3.7,2.9,5.8,2.9,5.8c-0.1-3.6,2.9-5.1,2.9-5.1
			c0.5,1.7,3.7,3.3,6.2,4.4c1.2-12.4-11.3-10.9-11.3-10.9c-5.2-0.3-6.9,4.6-7.3,9.1C209.7,475.1,211,476,211,476z"/>
		<path class="st5" d="M221.2,506.1c-1-2.5-1.1-3.1-2.6-7.9c-1.9-5.8-4.8-14.3-3.3-17.1c0.2-0.3,0.6-1.1,1.1-1.1
			c0.7,0,1.3,1.9,1.2,2c-0.1,0,1.3,6.3,1.3,6.3c1.4,4.8,1.8,9.3,3.9,16.5c1.9,6.6,3.7,10.2,3.4,10.3
			C225.7,515.4,223.1,510.9,221.2,506.1z"/>
	</g>
	<g>
		<path class="st2" d="M152.6,484.8c-0.3,0-0.5-0.4-0.7-1.1c-0.4-1.4-0.4-3.8,0-5.3c1.1-4.1,1.7-8.6,1.5-11.6
			c-0.1-1.9-0.6-3.4-1.5-4.5c-0.6-0.7-0.8-2.9-0.6-4.8s0.8-3,1.4-2.3c2,2.5,2.6,6.8,2.8,9.9c0.4,5.6-0.4,12.5-2.1,18.6
			C153.2,484.4,152.9,484.8,152.6,484.8z"/>
		<path class="st3" d="M140.7,492.8c-0.1,0.4-0.2,1-0.4,1.6c-1.3,4.8-3,11.3-6.4,18.5c-2.7,5.8-5.4,11.6-11,17.4
			c-3.9,4.1-7.8,6.8-7.2,7.8c0.5,1,4.4-0.1,6.7-0.9c5-1.7,10.3-5.3,18.7-16.6c3.5-4.7,7.9-11.3,12.2-19.8c4.6-6,6-11.9,3.7-14.6
			c-0.5-0.5-1.2-1.2-2.7-1.5C154.3,484.7,142.6,479.2,140.7,492.8z"/>
		<path class="st4" d="M158.7,495.3c1-4.3,0.9-9.5-4.1-10.9c0,0-11.4-5.4-14.2,6.8c2.7-0.2,6.3-0.7,7.3-2.2c0,0,2.4,2.4,1.2,5.8
			c0,0,5-0.6,4.6-4.6c0,0,3.1,2.7,2.3,6.9C155.8,497,157.3,496.6,158.7,495.3z"/>
		<path class="st5" d="M129.1,529.5c-0.3-0.2,2.5-3.1,6.4-8.8c4.3-6.2,6.1-10.3,8.9-14.5c0,0,3.3-5.5,3.3-5.6
			c-0.1-0.1,1-1.7,1.7-1.5c0.5,0.1,0.6,1.1,0.7,1.4c0.6,3.2-4.8,10.3-8.5,15.2c-3,4.1-3.2,4.6-5,6.7
			C133.2,526.4,129.4,529.8,129.1,529.5z"/>
	</g>
</g>
<g>
	<g>
		<g>
			<g>
				<g>
					<path class="st0" d="M-206.3,428.9c0.9,7.2,1.7,13.6,2.4,19.3c0.2,1.9,0.6,4.9,1.9,8.7c0.9,2.5,2,4.8,3.3,7
						c1.3,2.2,2.8,4.1,4.4,5.6c1.6,1.6,3.2,3,4.9,4.3c1.7,1.4,3.4,2.5,5,3.3c1.7,0.9,3.2,1.6,4.5,2.2c1.3,0.6,2.4,1.1,3.2,1.3
						l1.3,0.4c-0.5,12.7,1.2,24.8,5.2,36.7c4.1,12.3,10.5,23.7,19.7,34.5c0.9,1,1.8,1.7,2.7,2c1,0.3,1.7,0.2,2.2-0.4
						c0.5-0.6,0.6-1.5,0.4-2.6c-0.3-1.1-0.9-2.2-1.8-3.2c-7.9-9.1-13.6-18.8-17.3-29.4c-2.1-5.8-3.1-10.6-3.6-13.2
						c-0.9-4.4-1.6-10.2-1.6-17c0.6,1.4,1.7,3.4,3.4,5.5c1.4,1.6,2.2,2.2,4.9,4.5c4.1,3.7,3.5,3.8,6.1,5.9c2.2,1.8,4.7,3.4,7.6,4.8
						c3,1.5,6.1,2.6,9.4,3.3c4.6,1,9.2,0.7,11.6,0.5c8-0.7,15.7-2.5,19-3.3c-9.3-8.7-16.1-15.5-20.8-20.2c-3-3-7.1-7.3-13.8-10.9
						c-3.9-2.1-7.7-3.5-11.4-4.2c-3.8-0.7-7.2-0.5-8.8-0.4c-2.6,0.1-4.7,0.4-6.4,0.7c0.5-3.2,1.1-6.5,1.9-10.1
						c0.9-3.8,1.8-7.4,2.9-10.6c0.3,0.3,0.9,0.6,1.5,1.1c1.9,1.5,2.7,2.1,3.5,2.7c1.2,0.9,2.3,1.6,4.3,3c3.1,2.1,4.7,3.2,6.2,4.1
						c2.6,1.5,5.1,2.8,7.6,3.8c2.6,1.1,5.5,1.9,8.7,2.4c3.3,0.6,6.5,0.7,9.7,0.3c3.8-0.4,6.3-1.6,10.2-3.3c3.6-1.6,9-3.9,15.9-6.6
						c-4.4-3.6-9.8-8-16.6-13.5c-2.9-2.3-5.9-4.8-10.5-6.8c-3.2-1.4-6.4-2.4-9.5-2.9c-3-0.5-5.8-0.6-8.3-0.2
						c-2.4,0.4-4.7,0.9-6.9,1.6c-1.7,0.5-3.3,1.3-5.6,2.4c-0.7,0.3-1.2,0.6-3.6,1.6c-1.1,0.5-2.1,1-2.7,1.2
						c-0.1,0.1-0.2,0.2-0.3,0.2c-0.3-0.2,1.3-3.9,4.9-11.1c0.7-0.1,1.7-0.3,3-0.6c3.4-0.7,4.5-0.9,5-1c3.6-0.7,6.7-2,8.5-2.8
						c2-0.8,5.2-2.3,8.9-4.7c3.4-2.2,6.3-4.9,8.8-7.9c1.3-1.6,3.4-4.7,5.9-12.2c1.6-4.9,3.5-12,4.3-21.1c-7.8,2.5-14,3.9-18.3,4.8
						c-3.2,0.7-6.7,1.2-10.8,3.4c-2.8,1.5-5.3,3.3-7.5,5.4c-2.2,2-3.9,4.2-5.2,6.5c-1.3,2.3-2.4,4.6-3.4,6.8
						c-0.9,2.2-1.6,4.4-2.1,6.5c-0.4,2.1-0.8,3.9-1.1,5.5c-0.3,1.6-0.4,2.9-0.4,3.9l-0.1,1.4c-0.2,0.2-0.8,1.4-2,3.6
						c-1.1,2.1-2,3.8-2.5,5.1c0.2-0.1,0.6-0.3,0.9-0.6c0.9-1.1,0.1-3.1-0.6-5.5c-1.1-3.5-0.3-1.9-1.8-6.6c-1.1-3.3-1.6-5-2.5-7.1
						c-1.3-3-2.2-4.9-4.1-7c-1.6-1.8-1.9-1.4-5.2-4.3c-2.6-2.3-3-3.1-5.5-5.4c-1.4-1.3-3.4-3-6.1-5c0.6,7.4,0.3,12.9-0.2,16.6
						c-0.2,1.7-0.8,4.7-0.3,8.8c0.3,2.6,0.8,5,1.6,7.4c0.8,2.4,1.8,4.5,3,6.3c1.2,1.9,2.5,3.6,3.8,5.3c1.4,1.7,2.8,3.1,4.2,4.3
						c1.4,1.2,2.8,2.3,3.9,3.2c1.2,0.9,2.2,1.6,2.9,2l1.1,0.7c-1.5,3.7-2.9,8.2-3.6,13.3c-0.2,1.4-0.4,2.8-0.5,4.2
						c0,0-0.1,0.1-0.2,0.1c-0.6,0.1-1.5-2.3-2.1-3.8c-0.3-0.7-1.3-2.7-3.3-6.7c-1.3-2.5-2.4-4.7-4.2-7.4c-2.1-3.2-4.3-5.3-5.6-6.6
						c-1.5-1.5-3.6-3.6-6.7-5.8c-2.5-1.7-3.3-1.9-5.6-3.6C-203.7,431.7-205.3,430-206.3,428.9z"/>
				</g>
			</g>
		</g>
		<g>
			<g>
				<g>
					<path class="st1" d="M-138.1,413.5c-2.8,6.7-5.2,12.7-7.3,18.1c-0.7,1.8-1.9,4.6-2.5,8.5c-0.4,2.6-0.6,5.2-0.5,7.7
						c0.1,2.6,0.5,4.9,1.1,7c0.6,2.1,1.4,4.2,2.2,6.2c0.8,2,1.8,3.8,2.8,5.3c1,1.6,2,3,2.9,4.1c0.9,1.2,1.6,2.1,2.2,2.7l0.9,1
						c-6.6,10.8-11,22.2-13.3,34.6c-2.4,12.7-2.3,25.8,0.4,39.8c0.3,1.3,0.7,2.4,1.4,3.1c0.7,0.7,1.4,1,2.1,0.7
						c0.7-0.3,1.3-1,1.6-2.1c0.3-1.1,0.3-2.3,0-3.7c-2.5-11.8-2.7-23.1-0.9-34.1c1-6.1,2.4-10.8,3.3-13.3c1.4-4.3,3.6-9.7,6.9-15.6
						c-0.1,1.5-0.2,3.8,0.3,6.4c0.4,2.1,0.9,3,2,6.3c1.8,5.3,1.2,5.1,2.5,8.1c1,2.6,2.5,5.2,4.3,7.9c1.9,2.8,4.1,5.3,6.6,7.5
						c3.5,3.1,7.7,5.1,9.9,6.1c7.3,3.3,14.9,5.5,18.2,6.3c-3.9-12.2-6.5-21.4-8.3-27.8c-1.1-4.1-2.7-9.9-6.7-16.3
						c-2.4-3.7-5-6.8-7.9-9.2c-3-2.5-6-3.9-7.5-4.7c-2.3-1.1-4.3-1.9-5.9-2.5c1.9-2.5,4.1-5.2,6.5-7.9c2.6-2.9,5.2-5.5,7.7-7.9
						c0.2,0.4,0.4,1,0.7,1.7c1,2.2,1.4,3.2,1.7,4c0.6,1.4,1.2,2.5,2.3,4.7c1.7,3.4,2.5,5.1,3.4,6.6c1.5,2.6,3.1,4.9,4.8,7.1
						c1.7,2.2,3.9,4.3,6.4,6.3c2.6,2.1,5.4,3.8,8.3,5c3.6,1.5,6.3,1.6,10.5,2c3.9,0.4,9.7,1,17.1,1.9c-2.1-5.3-4.7-11.8-8-19.9
						c-1.4-3.4-2.8-7-5.9-11.1c-2.1-2.8-4.4-5.2-6.9-7.1c-2.4-1.9-4.8-3.3-7.1-4.2c-2.3-0.8-4.6-1.5-6.8-2c-1.8-0.4-3.5-0.5-6-0.7
						c-0.8-0.1-1.3-0.1-3.9-0.3c-1.3-0.1-2.3-0.2-3-0.2c-0.2,0.1-0.3,0.1-0.3,0c-0.2-0.3,3-2.7,9.7-7.3c0.7,0.2,1.7,0.5,2.9,0.9
						c3.3,1.1,4.4,1.4,4.9,1.6c3.5,1.1,6.8,1.5,8.8,1.7c2.2,0.2,5.6,0.5,10.1,0.2c4.1-0.3,7.9-1.2,11.5-2.7
						c1.9-0.8,5.3-2.5,11.1-7.8c3.8-3.5,8.9-8.8,14-16.3c-8-1.7-14.2-3.4-18.4-4.7c-3.1-1-6.4-2.2-11.1-2.2c-3.2,0-6.3,0.3-9.2,1
						c-2.9,0.7-5.5,1.7-7.7,3.1c-2.3,1.4-4.4,2.8-6.3,4.3c-1.9,1.5-3.6,3-5,4.6c-1.4,1.6-2.6,3-3.6,4.3c-1,1.3-1.8,2.3-2.3,3.2
						l-0.8,1.2c-0.3,0.1-1.4,0.8-3.5,2.2c-2,1.3-3.6,2.4-4.7,3.2c0.3,0,0.6,0.1,1-0.1c1.4-0.5,1.6-2.6,2.1-5.1
						c0.7-3.6,0.7-1.8,1.7-6.7c0.7-3.4,1-5.1,1.3-7.4c0.3-3.2,0.4-5.4-0.2-8.1c-0.5-2.3-0.9-2.2-2.4-6.3c-1.2-3.3-1.1-4.1-2.2-7.4
						c-0.6-1.8-1.5-4.3-2.9-7.4c-3,6.8-6,11.4-8.3,14.4c-1,1.4-3,3.7-4.5,7.5c-1,2.4-1.7,4.8-2.2,7.2c-0.5,2.4-0.6,4.8-0.5,7
						c0.2,2.2,0.4,4.4,0.8,6.5c0.4,2.1,0.9,4,1.5,5.8c0.7,1.8,1.3,3.3,1.9,4.7c0.6,1.4,1.1,2.4,1.6,3.2l0.7,1.1
						c-3.1,2.5-6.5,5.8-9.6,9.9c-0.9,1.2-1.7,2.3-2.4,3.4c-0.1,0-0.1,0-0.2,0c-0.6-0.2-0.2-2.8,0-4.4c0.1-0.7,0.2-3,0.4-7.5
						c0.1-2.8,0.2-5.3-0.1-8.5c-0.3-3.9-1.2-6.7-1.7-8.5c-0.6-2-1.4-4.9-3.1-8.3c-1.4-2.7-2-3.3-3.2-5.9
						C-137.1,417.3-137.7,415-138.1,413.5z"/>
				</g>
			</g>
		</g>
	</g>
	<g>
		<path class="st2" d="M-104.5,463c0.3-6.3,1.8-13.1,3.9-18.3c1.2-2.9,3.1-6.8,5.8-8.5c0.8-0.5,1,0.6,0.6,2.6s-1.4,3.9-2.1,4.4
			c-1.1,0.8-2.1,2.1-2.8,3.8c-1.1,2.8-2,7.3-2.2,11.5c-0.1,1.6-0.8,3.8-1.7,5.1c-0.4,0.6-0.8,0.9-1,0.8
			C-104.4,464.3-104.6,463.8-104.5,463z"/>
		<path class="st3" d="M-105.7,463.8c-1.5-0.1-2.4,0.2-3,0.6c-3,1.8-3.6,7.9-1.1,15c1.4,9.4,3.5,17,5.4,22.6
			c4.4,13.4,8.3,18.4,12.5,21.7c1.9,1.5,5.3,3.7,6.1,3c0.9-0.8-2-4.5-4.4-9.7c-3.5-7.3-4.2-13.6-5-20c-1-7.9-0.6-14.6-0.3-19.6
			c0-0.7,0.1-1.3,0.1-1.7C-92.8,462.2-105.7,463.8-105.7,463.8z"/>
		<path class="st4" d="M-111,475c0.6-4.3,4.4-5.8,4.4-5.8c-1.7,3.7,2.9,5.8,2.9,5.8c-0.1-3.6,2.9-5.1,2.9-5.1
			c0.5,1.7,3.7,3.3,6.2,4.4c1.2-12.4-11.3-10.9-11.3-10.9c-5.2-0.3-6.9,4.6-7.3,9.1C-112.2,474.1-111,475-111,475z"/>
		<path class="st5" d="M-100.8,505.2c-1-2.5-1.1-3.1-2.6-7.9c-1.9-5.8-4.8-14.3-3.3-17.1c0.2-0.3,0.6-1.1,1.1-1.1
			c0.7,0,1.3,1.9,1.2,2c-0.1,0,1.3,6.3,1.3,6.3c1.4,4.8,1.8,9.3,3.9,16.5c1.9,6.6,3.7,10.2,3.4,10.3
			C-96.2,514.4-98.8,510-100.8,505.2z"/>
	</g>
	<g>
		<path class="st2" d="M-169.3,483.9c-0.3,0-0.5-0.4-0.7-1.1c-0.4-1.4-0.4-3.8,0-5.3c1.1-4.1,1.7-8.6,1.5-11.6
			c-0.1-1.9-0.6-3.4-1.5-4.5c-0.6-0.7-0.8-2.9-0.6-4.8c0.2-2,0.8-3,1.4-2.3c2,2.5,2.6,6.8,2.8,9.9c0.4,5.6-0.4,12.5-2.1,18.6
			C-168.7,483.5-169,483.9-169.3,483.9z"/>
		<path class="st3" d="M-181.2,491.8c-0.1,0.4-0.2,1-0.4,1.6c-1.3,4.8-3,11.3-6.4,18.5c-2.7,5.8-5.4,11.6-11,17.4
			c-3.9,4.1-7.8,6.8-7.2,7.8c0.5,1,4.4-0.1,6.7-0.9c5-1.7,10.3-5.3,18.7-16.6c3.5-4.7,7.9-11.3,12.2-19.8c4.6-6,6-11.9,3.7-14.6
			c-0.5-0.5-1.2-1.2-2.7-1.5C-167.6,483.8-179.4,478.3-181.2,491.8z"/>
		<path class="st4" d="M-163.2,494.3c1-4.3,0.9-9.5-4.1-10.9c0,0-11.4-5.4-14.2,6.8c2.7-0.2,6.3-0.7,7.3-2.2c0,0,2.4,2.4,1.2,5.8
			c0,0,5-0.6,4.6-4.6c0,0,3.1,2.7,2.3,6.9C-166.2,496.1-164.7,495.6-163.2,494.3z"/>
		<path class="st5" d="M-192.9,528.6c-0.3-0.2,2.5-3.1,6.4-8.8c4.3-6.2,6.1-10.3,8.9-14.5c0,0,3.3-5.5,3.3-5.6
			c-0.1-0.1,1-1.7,1.7-1.5c0.5,0.1,0.6,1.1,0.7,1.4c0.6,3.2-4.8,10.3-8.5,15.2c-3,4.1-3.2,4.6-5,6.7
			C-188.7,525.5-192.6,528.9-192.9,528.6z"/>
	</g>
</g>
</svg>
