<?xml version="1.0" encoding="utf-8"?>
<!-- Generator: Adobe Illustrator 19.0.1, SVG Export Plug-In . SVG Version: 6.00 Build 0)  -->
<svg version="1.1" id="chili_x5F_grow" xmlns="http://www.w3.org/2000/svg" xmlns:xlink="http://www.w3.org/1999/xlink" x="0px"
	 y="0px" viewBox="-223 225 512 512" style="enable-background:new -223 225 512 512;" xml:space="preserve">
<style type="text/css">
	.st0{fill:#659C35;}
	.st1{fill:#88BA58;}
</style>
<g>
	<g>
		<g>
			<g>
				<path class="st0" d="M13.2,412.3c0.3,2.7,0.6,5.2,0.9,7.3c0.1,0.7,0.2,1.9,0.7,3.3c0.3,0.9,0.8,1.8,1.3,2.6
					c0.5,0.8,1.1,1.5,1.7,2.1c0.6,0.6,1.2,1.1,1.9,1.6c0.6,0.5,1.3,0.9,1.9,1.3c0.6,0.3,1.2,0.6,1.7,0.8c0.5,0.2,0.9,0.4,1.2,0.5
					l0.5,0.1c-0.2,4.8,0.5,9.4,2,13.9c1.6,4.7,4,9,7.5,13.1c0.3,0.4,0.7,0.6,1,0.8c0.4,0.1,0.6,0.1,0.8-0.2c0.2-0.2,0.2-0.6,0.1-1
					c-0.1-0.4-0.3-0.8-0.7-1.2c-3-3.4-5.1-7.1-6.6-11.1c-0.8-2.2-1.2-4-1.4-5c-0.3-1.7-0.6-3.9-0.6-6.4c0.2,0.5,0.6,1.3,1.3,2.1
					c0.5,0.6,0.8,0.8,1.8,1.7c1.6,1.4,1.3,1.4,2.3,2.2c0.8,0.7,1.8,1.3,2.9,1.8c1.1,0.6,2.3,1,3.6,1.3c1.7,0.4,3.5,0.3,4.4,0.2
					c3-0.2,5.9-0.9,7.2-1.3c-3.5-3.3-6.1-5.9-7.9-7.7c-1.1-1.1-2.7-2.8-5.2-4.1c-1.5-0.8-2.9-1.3-4.3-1.6c-1.5-0.3-2.7-0.2-3.3-0.2
					c-1,0-1.8,0.2-2.4,0.3c0.2-1.2,0.4-2.5,0.7-3.8c0.3-1.4,0.7-2.8,1.1-4c0.1,0.1,0.3,0.2,0.6,0.4c0.7,0.6,1,0.8,1.3,1
					c0.5,0.4,0.9,0.6,1.6,1.1c1.2,0.8,1.8,1.2,2.3,1.5c1,0.6,1.9,1.1,2.9,1.5c1,0.4,2.1,0.7,3.3,0.9c1.3,0.2,2.5,0.3,3.7,0.1
					c1.5-0.2,2.4-0.6,3.9-1.3c1.4-0.6,3.4-1.5,6-2.5c-1.7-1.4-3.7-3-6.3-5.1c-1.1-0.9-2.2-1.8-4-2.6c-1.2-0.5-2.4-0.9-3.6-1.1
					c-1.1-0.2-2.2-0.2-3.1-0.1c-0.9,0.2-1.8,0.4-2.6,0.6c-0.7,0.2-1.2,0.5-2.1,0.9c-0.3,0.1-0.5,0.2-1.4,0.6c-0.4,0.2-0.8,0.4-1,0.5
					c-0.1,0.1-0.1,0.1-0.1,0.1c-0.1-0.1,0.5-1.5,1.9-4.2c0.3-0.1,0.6-0.1,1.1-0.2c1.3-0.3,1.7-0.3,1.9-0.4c1.4-0.3,2.5-0.8,3.2-1
					c0.8-0.3,2-0.9,3.4-1.8c1.3-0.8,2.4-1.8,3.3-3c0.5-0.6,1.3-1.8,2.2-4.6c0.6-1.9,1.3-4.6,1.6-8c-3,0.9-5.3,1.5-7,1.8
					c-1.2,0.3-2.5,0.5-4.1,1.3c-1.1,0.6-2,1.3-2.9,2c-0.8,0.8-1.5,1.6-2,2.5c-0.5,0.9-0.9,1.7-1.3,2.6c-0.4,0.8-0.6,1.7-0.8,2.5
					c-0.2,0.8-0.3,1.5-0.4,2.1c-0.1,0.6-0.2,1.1-0.2,1.5l0,0.5c-0.1,0.1-0.3,0.5-0.7,1.4c-0.4,0.8-0.7,1.5-1,1.9
					c0.1,0,0.2-0.1,0.3-0.2c0.4-0.4,0.1-1.2-0.2-2.1c-0.4-1.3-0.1-0.7-0.7-2.5c-0.4-1.3-0.6-1.9-1-2.7c-0.5-1.1-0.9-1.9-1.6-2.7
					c-0.6-0.7-0.7-0.5-2-1.6c-1-0.9-1.1-1.2-2.1-2c-0.5-0.5-1.3-1.2-2.3-1.9c0.2,2.8,0.1,4.9-0.1,6.3c-0.1,0.6-0.3,1.8-0.1,3.3
					c0.1,1,0.3,1.9,0.6,2.8c0.3,0.9,0.7,1.7,1.1,2.4c0.5,0.7,0.9,1.4,1.5,2c0.5,0.6,1,1.2,1.6,1.6c0.5,0.5,1,0.9,1.5,1.2
					c0.5,0.3,0.8,0.6,1.1,0.8l0.4,0.3c-0.6,1.4-1.1,3.1-1.4,5c-0.1,0.5-0.1,1.1-0.2,1.6c0,0,0,0-0.1,0c-0.2,0-0.6-0.9-0.8-1.4
					c-0.1-0.3-0.5-1-1.2-2.6c-0.5-1-0.9-1.8-1.6-2.8c-0.8-1.2-1.6-2-2.1-2.5c-0.6-0.6-1.4-1.4-2.6-2.2c-1-0.7-1.3-0.7-2.1-1.4
					C14.2,413.4,13.6,412.8,13.2,412.3z"/>
			</g>
		</g>
	</g>
	<g>
		<g>
			<g>
				<path class="st1" d="M39,406.5c-1,2.6-2,4.8-2.8,6.8c-0.3,0.7-0.7,1.7-1,3.2c-0.2,1-0.2,2-0.2,2.9c0,1,0.2,1.9,0.4,2.7
					c0.2,0.8,0.5,1.6,0.8,2.3c0.3,0.8,0.7,1.4,1.1,2c0.4,0.6,0.8,1.1,1.1,1.6c0.3,0.5,0.6,0.8,0.8,1l0.3,0.4
					c-2.5,4.1-4.2,8.4-5,13.1c-0.9,4.8-0.9,9.8,0.1,15.1c0.1,0.5,0.3,0.9,0.5,1.2c0.3,0.3,0.5,0.4,0.8,0.3c0.3-0.1,0.5-0.4,0.6-0.8
					c0.1-0.4,0.1-0.9,0-1.4c-0.9-4.5-1-8.7-0.3-12.9c0.4-2.3,0.9-4.1,1.2-5c0.5-1.6,1.3-3.7,2.6-5.9c0,0.6-0.1,1.4,0.1,2.4
					c0.2,0.8,0.3,1.1,0.8,2.4c0.7,2,0.5,1.9,0.9,3.1c0.4,1,0.9,2,1.6,3c0.7,1.1,1.5,2,2.5,2.8c1.3,1.2,2.9,1.9,3.7,2.3
					c2.8,1.3,5.6,2.1,6.9,2.4c-1.5-4.6-2.5-8.1-3.1-10.5c-0.4-1.6-1-3.7-2.6-6.2c-0.9-1.4-1.9-2.6-3-3.5c-1.1-0.9-2.3-1.5-2.8-1.8
					c-0.9-0.4-1.6-0.7-2.2-0.9c0.7-1,1.6-2,2.5-3c1-1.1,2-2.1,2.9-3c0.1,0.1,0.2,0.4,0.3,0.6c0.4,0.8,0.5,1.2,0.7,1.5
					c0.2,0.5,0.4,1,0.9,1.8c0.6,1.3,1,1.9,1.3,2.5c0.6,1,1.2,1.9,1.8,2.7c0.7,0.8,1.5,1.6,2.4,2.4c1,0.8,2,1.4,3.1,1.9
					c1.4,0.6,2.4,0.6,4,0.8c1.5,0.1,3.7,0.4,6.5,0.7c-0.8-2-1.8-4.5-3-7.5c-0.5-1.3-1.1-2.7-2.2-4.2c-0.8-1.1-1.7-2-2.6-2.7
					c-0.9-0.7-1.8-1.3-2.7-1.6c-0.9-0.3-1.7-0.6-2.6-0.8c-0.7-0.1-1.3-0.2-2.3-0.3c-0.3,0-0.5,0-1.5-0.1c-0.5,0-0.9-0.1-1.1-0.1
					c-0.1,0-0.1,0-0.1,0c-0.1-0.1,1.2-1,3.7-2.8c0.3,0.1,0.6,0.2,1.1,0.4c1.3,0.4,1.7,0.5,1.8,0.6c1.3,0.4,2.6,0.6,3.3,0.7
					c0.8,0.1,2.1,0.2,3.8,0.1c1.5-0.1,3-0.4,4.4-1c0.7-0.3,2-0.9,4.2-2.9c1.4-1.3,3.4-3.3,5.3-6.2c-3-0.6-5.4-1.3-7-1.8
					c-1.2-0.4-2.4-0.8-4.2-0.8c-1.2,0-2.4,0.1-3.5,0.4c-1.1,0.3-2.1,0.7-2.9,1.2c-0.9,0.5-1.7,1.1-2.4,1.6c-0.7,0.6-1.4,1.2-1.9,1.8
					c-0.5,0.6-1,1.1-1.4,1.6c-0.4,0.5-0.7,0.9-0.9,1.2l-0.3,0.5c-0.1,0-0.5,0.3-1.3,0.8c-0.8,0.5-1.4,0.9-1.8,1.2c0.1,0,0.2,0,0.4,0
					c0.5-0.2,0.6-1,0.8-1.9c0.3-1.4,0.3-0.7,0.6-2.5c0.3-1.3,0.4-1.9,0.5-2.8c0.1-1.2,0.2-2-0.1-3.1c-0.2-0.9-0.4-0.8-0.9-2.4
					c-0.4-1.3-0.4-1.6-0.8-2.8c-0.2-0.7-0.6-1.6-1.1-2.8c-1.2,2.6-2.3,4.3-3.1,5.5c-0.4,0.5-1.1,1.4-1.7,2.8
					c-0.4,0.9-0.7,1.8-0.8,2.7c-0.2,0.9-0.2,1.8-0.2,2.6c0.1,0.8,0.2,1.7,0.3,2.4c0.1,0.8,0.3,1.5,0.6,2.2c0.2,0.7,0.5,1.3,0.7,1.8
					c0.2,0.5,0.4,0.9,0.6,1.2l0.3,0.4c-1.2,1-2.5,2.2-3.7,3.7c-0.3,0.4-0.6,0.9-0.9,1.3c0,0-0.1,0-0.1,0c-0.2-0.1-0.1-1.1,0-1.7
					c0-0.3,0.1-1.1,0.2-2.8c0-1.1,0.1-2,0-3.2c-0.1-1.5-0.4-2.5-0.6-3.2c-0.2-0.8-0.5-1.9-1.2-3.2c-0.5-1-0.8-1.2-1.2-2.2
					C39.4,407.9,39.2,407.1,39,406.5z"/>
			</g>
		</g>
	</g>
</g>
<g>
	<g>
		<g>
			<g>
				<path class="st0" d="M172.1,504.8c0.3,2.7,0.6,5.2,0.9,7.3c0.1,0.7,0.2,1.9,0.7,3.3c0.3,0.9,0.8,1.8,1.3,2.6
					c0.5,0.8,1.1,1.5,1.7,2.1c0.6,0.6,1.2,1.1,1.9,1.6c0.6,0.5,1.3,0.9,1.9,1.3c0.6,0.3,1.2,0.6,1.7,0.8c0.5,0.2,0.9,0.4,1.2,0.5
					l0.5,0.1c-0.2,4.8,0.5,9.4,2,13.9c1.6,4.7,4,9,7.5,13.1c0.3,0.4,0.7,0.6,1,0.8c0.4,0.1,0.6,0.1,0.8-0.2c0.2-0.2,0.2-0.6,0.1-1
					c-0.1-0.4-0.3-0.8-0.7-1.2c-3-3.4-5.1-7.1-6.6-11.1c-0.8-2.2-1.2-4-1.4-5c-0.3-1.7-0.6-3.9-0.6-6.4c0.2,0.5,0.6,1.3,1.3,2.1
					c0.5,0.6,0.8,0.8,1.8,1.7c1.6,1.4,1.3,1.4,2.3,2.2c0.8,0.7,1.8,1.3,2.9,1.8c1.1,0.6,2.3,1,3.6,1.3c1.7,0.4,3.5,0.3,4.4,0.2
					c3-0.2,5.9-0.9,7.2-1.3c-3.5-3.3-6.1-5.9-7.9-7.7c-1.1-1.1-2.7-2.8-5.2-4.1c-1.5-0.8-2.9-1.3-4.3-1.6c-1.5-0.3-2.7-0.2-3.3-0.2
					c-1,0-1.8,0.2-2.4,0.3c0.2-1.2,0.4-2.5,0.7-3.8c0.3-1.4,0.7-2.8,1.1-4c0.1,0.1,0.3,0.2,0.6,0.4c0.7,0.6,1,0.8,1.3,1
					c0.5,0.4,0.9,0.6,1.6,1.1c1.2,0.8,1.8,1.2,2.3,1.5c1,0.6,1.9,1.1,2.9,1.5c1,0.4,2.1,0.7,3.3,0.9c1.3,0.2,2.5,0.3,3.7,0.1
					c1.5-0.2,2.4-0.6,3.9-1.3c1.4-0.6,3.4-1.5,6-2.5c-1.7-1.4-3.7-3-6.3-5.1c-1.1-0.9-2.2-1.8-4-2.6c-1.2-0.5-2.4-0.9-3.6-1.1
					c-1.1-0.2-2.2-0.2-3.1-0.1c-0.9,0.2-1.8,0.4-2.6,0.6c-0.7,0.2-1.2,0.5-2.1,0.9c-0.3,0.1-0.5,0.2-1.4,0.6c-0.4,0.2-0.8,0.4-1,0.5
					c-0.1,0.1-0.1,0.1-0.1,0.1c-0.1-0.1,0.5-1.5,1.9-4.2c0.3-0.1,0.6-0.1,1.1-0.2c1.3-0.3,1.7-0.3,1.9-0.4c1.4-0.3,2.5-0.8,3.2-1
					c0.8-0.3,2-0.9,3.4-1.8c1.3-0.8,2.4-1.8,3.3-3c0.5-0.6,1.3-1.8,2.2-4.6c0.6-1.9,1.3-4.6,1.6-8c-3,0.9-5.3,1.5-7,1.8
					c-1.2,0.3-2.5,0.5-4.1,1.3c-1.1,0.6-2,1.3-2.9,2c-0.8,0.8-1.5,1.6-2,2.5c-0.5,0.9-0.9,1.7-1.3,2.6c-0.4,0.8-0.6,1.7-0.8,2.5
					c-0.2,0.8-0.3,1.5-0.4,2.1c-0.1,0.6-0.2,1.1-0.2,1.5l0,0.5c-0.1,0.1-0.3,0.5-0.7,1.4c-0.4,0.8-0.7,1.5-1,1.9
					c0.1,0,0.2-0.1,0.3-0.2c0.4-0.4,0.1-1.2-0.2-2.1c-0.4-1.3-0.1-0.7-0.7-2.5c-0.4-1.3-0.6-1.9-1-2.7c-0.5-1.1-0.9-1.9-1.6-2.7
					c-0.6-0.7-0.7-0.5-2-1.6c-1-0.9-1.1-1.2-2.1-2c-0.5-0.5-1.3-1.2-2.3-1.9c0.2,2.8,0.1,4.9-0.1,6.3c-0.1,0.6-0.3,1.8-0.1,3.3
					c0.1,1,0.3,1.9,0.6,2.8c0.3,0.9,0.7,1.7,1.1,2.4c0.5,0.7,0.9,1.4,1.5,2c0.5,0.6,1,1.2,1.6,1.6c0.5,0.5,1,0.9,1.5,1.2
					c0.5,0.3,0.8,0.6,1.1,0.8l0.4,0.3c-0.6,1.4-1.1,3.1-1.4,5c-0.1,0.5-0.1,1.1-0.2,1.6c0,0,0,0-0.1,0c-0.2,0-0.6-0.9-0.8-1.4
					c-0.1-0.3-0.5-1-1.2-2.6c-0.5-1-0.9-1.8-1.6-2.8c-0.8-1.2-1.6-2-2.1-2.5c-0.6-0.6-1.4-1.4-2.6-2.2c-1-0.7-1.3-0.7-2.1-1.4
					C173.1,505.9,172.5,505.3,172.1,504.8z"/>
			</g>
		</g>
	</g>
	<g>
		<g>
			<g>
				<path class="st1" d="M198,499c-1,2.6-2,4.8-2.8,6.8c-0.3,0.7-0.7,1.7-1,3.2c-0.2,1-0.2,2-0.2,2.9c0,1,0.2,1.9,0.4,2.7
					c0.2,0.8,0.5,1.6,0.8,2.3c0.3,0.8,0.7,1.4,1.1,2c0.4,0.6,0.8,1.1,1.1,1.6c0.3,0.5,0.6,0.8,0.8,1l0.3,0.4
					c-2.5,4.1-4.2,8.4-5,13.1c-0.9,4.8-0.9,9.8,0.1,15.1c0.1,0.5,0.3,0.9,0.5,1.2c0.3,0.3,0.5,0.4,0.8,0.3c0.3-0.1,0.5-0.4,0.6-0.8
					c0.1-0.4,0.1-0.9,0-1.4c-0.9-4.5-1-8.7-0.3-12.9c0.4-2.3,0.9-4.1,1.2-5c0.5-1.6,1.3-3.7,2.6-5.9c0,0.6-0.1,1.4,0.1,2.4
					c0.2,0.8,0.3,1.1,0.8,2.4c0.7,2,0.5,1.9,0.9,3.1c0.4,1,0.9,2,1.6,3c0.7,1.1,1.5,2,2.5,2.8c1.3,1.2,2.9,1.9,3.7,2.3
					c2.8,1.3,5.6,2.1,6.9,2.4c-1.5-4.6-2.5-8.1-3.1-10.5c-0.4-1.6-1-3.7-2.6-6.2c-0.9-1.4-1.9-2.6-3-3.5c-1.1-0.9-2.3-1.5-2.8-1.8
					c-0.9-0.4-1.6-0.7-2.2-0.9c0.7-1,1.6-2,2.5-3c1-1.1,2-2.1,2.9-3c0.1,0.1,0.2,0.4,0.3,0.6c0.4,0.8,0.5,1.2,0.7,1.5
					c0.2,0.5,0.4,1,0.9,1.8c0.6,1.3,1,1.9,1.3,2.5c0.6,1,1.2,1.9,1.8,2.7c0.7,0.8,1.5,1.6,2.4,2.4c1,0.8,2,1.4,3.1,1.9
					c1.4,0.6,2.4,0.6,4,0.8c1.5,0.1,3.7,0.4,6.5,0.7c-0.8-2-1.8-4.5-3-7.5c-0.5-1.3-1.1-2.7-2.2-4.2c-0.8-1.1-1.7-2-2.6-2.7
					c-0.9-0.7-1.8-1.3-2.7-1.6c-0.9-0.3-1.7-0.6-2.6-0.8c-0.7-0.1-1.3-0.2-2.3-0.3c-0.3,0-0.5,0-1.5-0.1c-0.5,0-0.9-0.1-1.1-0.1
					c-0.1,0-0.1,0-0.1,0c-0.1-0.1,1.2-1,3.7-2.8c0.3,0.1,0.6,0.2,1.1,0.4c1.3,0.4,1.7,0.5,1.8,0.6c1.3,0.4,2.6,0.6,3.3,0.7
					c0.8,0.1,2.1,0.2,3.8,0.1c1.5-0.1,3-0.4,4.4-1c0.7-0.3,2-0.9,4.2-2.9c1.4-1.3,3.4-3.3,5.3-6.2c-3-0.6-5.4-1.3-7-1.8
					c-1.2-0.4-2.4-0.8-4.2-0.8c-1.2,0-2.4,0.1-3.5,0.4c-1.1,0.3-2.1,0.7-2.9,1.2c-0.9,0.5-1.6,1.1-2.4,1.6c-0.7,0.6-1.4,1.2-1.9,1.8
					c-0.5,0.6-1,1.1-1.4,1.6c-0.4,0.5-0.7,0.9-0.9,1.2l-0.3,0.5c-0.1,0-0.5,0.3-1.3,0.8c-0.8,0.5-1.4,0.9-1.8,1.2c0.1,0,0.2,0,0.4,0
					c0.5-0.2,0.6-1,0.8-1.9c0.3-1.4,0.3-0.7,0.6-2.5c0.3-1.3,0.4-1.9,0.5-2.8c0.1-1.2,0.2-2-0.1-3.1c-0.2-0.9-0.4-0.8-0.9-2.4
					c-0.4-1.3-0.4-1.6-0.8-2.8c-0.2-0.7-0.6-1.6-1.1-2.8c-1.2,2.6-2.3,4.3-3.1,5.5c-0.4,0.5-1.1,1.4-1.7,2.8
					c-0.4,0.9-0.7,1.8-0.8,2.7c-0.2,0.9-0.2,1.8-0.2,2.6c0.1,0.8,0.2,1.7,0.3,2.4c0.1,0.8,0.3,1.5,0.6,2.2c0.2,0.7,0.5,1.3,0.7,1.8
					c0.2,0.5,0.4,0.9,0.6,1.2l0.3,0.4c-1.2,1-2.5,2.2-3.7,3.7c-0.3,0.4-0.6,0.9-0.9,1.3c0,0-0.1,0-0.1,0c-0.2-0.1-0.1-1.1,0-1.7
					c0-0.3,0.1-1.1,0.2-2.8c0-1.1,0.1-2,0-3.2c-0.1-1.5-0.4-2.5-0.6-3.2c-0.2-0.8-0.5-1.9-1.2-3.2c-0.5-1-0.8-1.2-1.2-2.2
					C198.3,500.4,198.1,499.6,198,499z"/>
			</g>
		</g>
	</g>
</g>
<g>
	<g>
		<g>
			<g>
				<path class="st0" d="M9.9,598.2c0.3,2.7,0.6,5.2,0.9,7.3c0.1,0.7,0.2,1.9,0.7,3.3c0.3,0.9,0.8,1.8,1.3,2.6
					c0.5,0.8,1.1,1.5,1.7,2.1c0.6,0.6,1.2,1.1,1.9,1.6c0.6,0.5,1.3,0.9,1.9,1.3c0.6,0.3,1.2,0.6,1.7,0.8c0.5,0.2,0.9,0.4,1.2,0.5
					l0.5,0.1c-0.2,4.8,0.5,9.4,2,13.9c1.6,4.7,4,9,7.5,13.1c0.3,0.4,0.7,0.6,1,0.8c0.4,0.1,0.6,0.1,0.8-0.2c0.2-0.2,0.2-0.6,0.1-1
					c-0.1-0.4-0.3-0.8-0.7-1.2c-3-3.4-5.1-7.1-6.6-11.1c-0.8-2.2-1.2-4-1.4-5c-0.3-1.7-0.6-3.9-0.6-6.4c0.2,0.5,0.6,1.3,1.3,2.1
					c0.5,0.6,0.8,0.8,1.8,1.7c1.6,1.4,1.3,1.4,2.3,2.2c0.8,0.7,1.8,1.3,2.9,1.8c1.1,0.6,2.3,1,3.6,1.3c1.7,0.4,3.5,0.3,4.4,0.2
					c3-0.2,5.9-0.9,7.2-1.3c-3.5-3.3-6.1-5.9-7.9-7.7c-1.1-1.1-2.7-2.8-5.2-4.1c-1.5-0.8-2.9-1.3-4.3-1.6c-1.5-0.3-2.7-0.2-3.3-0.2
					c-1,0-1.8,0.2-2.4,0.3c0.2-1.2,0.4-2.5,0.7-3.8c0.3-1.5,0.7-2.8,1.1-4c0.1,0.1,0.3,0.2,0.6,0.4c0.7,0.6,1,0.8,1.3,1
					c0.5,0.4,0.9,0.6,1.6,1.1c1.2,0.8,1.8,1.2,2.3,1.5c1,0.6,1.9,1.1,2.9,1.5c1,0.4,2.1,0.7,3.3,0.9c1.3,0.2,2.5,0.3,3.7,0.1
					c1.5-0.2,2.4-0.6,3.9-1.3c1.4-0.6,3.4-1.5,6-2.5c-1.7-1.4-3.7-3-6.3-5.1c-1.1-0.9-2.2-1.8-4-2.6c-1.2-0.5-2.4-0.9-3.6-1.1
					c-1.1-0.2-2.2-0.2-3.1-0.1c-0.9,0.2-1.8,0.4-2.6,0.6c-0.7,0.2-1.2,0.5-2.1,0.9c-0.3,0.1-0.5,0.2-1.4,0.6c-0.4,0.2-0.8,0.4-1,0.5
					c-0.1,0.1-0.1,0.1-0.1,0.1c-0.1-0.1,0.5-1.5,1.9-4.2c0.3-0.1,0.6-0.1,1.1-0.2c1.3-0.3,1.7-0.3,1.9-0.4c1.4-0.3,2.5-0.8,3.2-1
					c0.8-0.3,2-0.9,3.4-1.8c1.3-0.8,2.4-1.8,3.3-3c0.5-0.6,1.3-1.8,2.2-4.6c0.6-1.9,1.3-4.6,1.6-8c-3,0.9-5.3,1.5-7,1.8
					c-1.2,0.3-2.5,0.5-4.1,1.3c-1.1,0.6-2,1.3-2.9,2c-0.8,0.8-1.5,1.6-2,2.5c-0.5,0.9-0.9,1.7-1.3,2.6c-0.4,0.8-0.6,1.7-0.8,2.5
					c-0.2,0.8-0.3,1.5-0.4,2.1c-0.1,0.6-0.2,1.1-0.2,1.5l0,0.5c-0.1,0.1-0.3,0.5-0.7,1.4c-0.4,0.8-0.7,1.5-1,1.9
					c0.1,0,0.2-0.1,0.3-0.2c0.4-0.4,0.1-1.2-0.2-2.1c-0.4-1.3-0.1-0.7-0.7-2.5c-0.4-1.3-0.6-1.9-1-2.7c-0.5-1.1-0.9-1.9-1.6-2.7
					c-0.6-0.7-0.7-0.5-2-1.6c-1-0.9-1.1-1.2-2.1-2c-0.5-0.5-1.3-1.2-2.3-1.9c0.2,2.8,0.1,4.9-0.1,6.3c-0.1,0.6-0.3,1.8-0.1,3.3
					c0.1,1,0.3,1.9,0.6,2.8c0.3,0.9,0.7,1.7,1.1,2.4c0.5,0.7,0.9,1.4,1.5,2c0.5,0.6,1,1.2,1.6,1.6c0.5,0.5,1,0.9,1.5,1.2
					c0.5,0.3,0.8,0.6,1.1,0.8l0.4,0.3c-0.6,1.4-1.1,3.1-1.4,5c-0.1,0.5-0.1,1.1-0.2,1.6c0,0,0,0-0.1,0c-0.2,0-0.6-0.9-0.8-1.4
					c-0.1-0.3-0.5-1-1.2-2.6c-0.5-1-0.9-1.8-1.6-2.8c-0.8-1.2-1.6-2-2.1-2.5c-0.6-0.6-1.4-1.4-2.6-2.2c-1-0.7-1.3-0.7-2.1-1.4
					C10.9,599.3,10.3,598.6,9.9,598.2z"/>
			</g>
		</g>
	</g>
	<g>
		<g>
			<g>
				<path class="st1" d="M35.8,592.4c-1,2.6-2,4.8-2.8,6.8c-0.3,0.7-0.7,1.7-1,3.2c-0.2,1-0.2,2-0.2,2.9c0,1,0.2,1.9,0.4,2.7
					c0.2,0.8,0.5,1.6,0.8,2.3c0.3,0.8,0.7,1.4,1.1,2c0.4,0.6,0.8,1.1,1.1,1.6c0.3,0.5,0.6,0.8,0.8,1l0.3,0.4
					c-2.5,4.1-4.2,8.4-5,13.1c-0.9,4.8-0.9,9.8,0.1,15.1c0.1,0.5,0.3,0.9,0.5,1.2c0.3,0.3,0.5,0.4,0.8,0.3c0.3-0.1,0.5-0.4,0.6-0.8
					c0.1-0.4,0.1-0.9,0-1.4c-0.9-4.5-1-8.7-0.3-12.9c0.4-2.3,0.9-4.1,1.2-5c0.5-1.6,1.3-3.7,2.6-5.9c0,0.6-0.1,1.4,0.1,2.4
					c0.2,0.8,0.3,1.1,0.8,2.4c0.7,2,0.5,1.9,0.9,3.1c0.4,1,0.9,2,1.6,3c0.7,1.1,1.5,2,2.5,2.8c1.3,1.2,2.9,1.9,3.7,2.3
					c2.8,1.3,5.6,2.1,6.9,2.4c-1.5-4.6-2.5-8.1-3.1-10.5c-0.4-1.6-1-3.7-2.6-6.2c-0.9-1.4-1.9-2.6-3-3.5c-1.1-0.9-2.3-1.5-2.8-1.8
					c-0.9-0.4-1.6-0.7-2.2-0.9c0.7-1,1.6-2,2.5-3c1-1.1,2-2.1,2.9-3c0.1,0.1,0.2,0.4,0.3,0.6c0.4,0.8,0.5,1.2,0.7,1.5
					c0.2,0.5,0.4,1,0.9,1.8c0.6,1.3,1,1.9,1.3,2.5c0.6,1,1.2,1.9,1.8,2.7c0.7,0.8,1.5,1.6,2.4,2.4c1,0.8,2,1.4,3.1,1.9
					c1.4,0.6,2.4,0.6,4,0.8c1.5,0.1,3.7,0.4,6.5,0.7c-0.8-2-1.8-4.5-3-7.5c-0.5-1.3-1.1-2.7-2.2-4.2c-0.8-1.1-1.7-2-2.6-2.7
					c-0.9-0.7-1.8-1.3-2.7-1.6c-0.9-0.3-1.7-0.6-2.6-0.8c-0.7-0.1-1.3-0.2-2.3-0.3c-0.3,0-0.5,0-1.5-0.1c-0.5,0-0.9-0.1-1.1-0.1
					c-0.1,0-0.1,0-0.1,0c-0.1-0.1,1.2-1,3.7-2.8c0.3,0.1,0.6,0.2,1.1,0.4c1.3,0.4,1.7,0.5,1.8,0.6c1.3,0.4,2.6,0.6,3.3,0.7
					c0.8,0.1,2.1,0.2,3.8,0.1c1.5-0.1,3-0.4,4.4-1c0.7-0.3,2-0.9,4.2-2.9c1.4-1.3,3.4-3.3,5.3-6.2c-3-0.6-5.4-1.3-7-1.8
					c-1.2-0.4-2.4-0.8-4.2-0.8c-1.2,0-2.4,0.1-3.5,0.4c-1.1,0.3-2.1,0.7-2.9,1.2c-0.9,0.5-1.7,1.1-2.4,1.6c-0.7,0.6-1.4,1.2-1.9,1.8
					c-0.5,0.6-1,1.1-1.4,1.6c-0.4,0.5-0.7,0.9-0.9,1.2l-0.3,0.5c-0.1,0-0.5,0.3-1.3,0.8c-0.8,0.5-1.4,0.9-1.8,1.2c0.1,0,0.2,0,0.4,0
					c0.5-0.2,0.6-1,0.8-1.9c0.3-1.4,0.3-0.7,0.6-2.5c0.3-1.3,0.4-1.9,0.5-2.8c0.1-1.2,0.2-2-0.1-3.1c-0.2-0.9-0.4-0.8-0.9-2.4
					c-0.4-1.3-0.4-1.6-0.8-2.8c-0.2-0.7-0.6-1.6-1.1-2.8c-1.2,2.6-2.3,4.3-3.1,5.5c-0.4,0.5-1.1,1.4-1.7,2.8
					c-0.4,0.9-0.7,1.8-0.8,2.7c-0.2,0.9-0.2,1.8-0.2,2.6c0.1,0.8,0.2,1.7,0.3,2.4c0.1,0.8,0.3,1.5,0.6,2.2c0.2,0.7,0.5,1.3,0.7,1.8
					c0.2,0.5,0.4,0.9,0.6,1.2l0.3,0.4c-1.2,1-2.5,2.2-3.7,3.7c-0.3,0.4-0.6,0.9-0.9,1.3c0,0-0.1,0-0.1,0c-0.2-0.1-0.1-1.1,0-1.7
					c0-0.3,0.1-1.1,0.2-2.8c0-1.1,0.1-2,0-3.2c-0.1-1.5-0.4-2.5-0.6-3.2c-0.2-0.8-0.5-1.9-1.2-3.2c-0.5-1-0.8-1.2-1.2-2.2
					C36.2,593.8,35.9,592.9,35.8,592.4z"/>
			</g>
		</g>
	</g>
</g>
<g>
	<g>
		<g>
			<g>
				<path class="st0" d="M-150.5,506c0.3,2.7,0.6,5.2,0.9,7.3c0.1,0.7,0.2,1.9,0.7,3.3c0.3,0.9,0.8,1.8,1.3,2.6
					c0.5,0.8,1.1,1.5,1.7,2.1c0.6,0.6,1.2,1.1,1.9,1.6c0.6,0.5,1.3,0.9,1.9,1.3c0.6,0.3,1.2,0.6,1.7,0.8c0.5,0.2,0.9,0.4,1.2,0.5
					l0.5,0.1c-0.2,4.8,0.5,9.4,2,13.9c1.6,4.7,4,9,7.5,13.1c0.3,0.4,0.7,0.6,1,0.8c0.4,0.1,0.6,0.1,0.8-0.2c0.2-0.2,0.2-0.6,0.1-1
					c-0.1-0.4-0.3-0.8-0.7-1.2c-3-3.4-5.1-7.1-6.6-11.1c-0.8-2.2-1.2-4-1.4-5c-0.3-1.7-0.6-3.9-0.6-6.4c0.2,0.5,0.6,1.3,1.3,2.1
					c0.5,0.6,0.8,0.8,1.8,1.7c1.6,1.4,1.3,1.4,2.3,2.2c0.8,0.7,1.8,1.3,2.9,1.8c1.1,0.6,2.3,1,3.6,1.3c1.7,0.4,3.5,0.3,4.4,0.2
					c3-0.2,5.9-0.9,7.2-1.3c-3.5-3.3-6.1-5.9-7.9-7.7c-1.1-1.1-2.7-2.8-5.2-4.1c-1.5-0.8-2.9-1.3-4.3-1.6c-1.5-0.3-2.7-0.2-3.3-0.2
					c-1,0-1.8,0.2-2.4,0.3c0.2-1.2,0.4-2.5,0.7-3.8c0.3-1.4,0.7-2.8,1.1-4c0.1,0.1,0.3,0.2,0.6,0.4c0.7,0.6,1,0.8,1.3,1
					c0.5,0.4,0.9,0.6,1.6,1.1c1.2,0.8,1.8,1.2,2.3,1.5c1,0.6,1.9,1.1,2.9,1.5c1,0.4,2.1,0.7,3.3,0.9c1.3,0.2,2.5,0.3,3.7,0.1
					c1.5-0.2,2.4-0.6,3.9-1.3c1.4-0.6,3.4-1.5,6-2.5c-1.7-1.4-3.7-3-6.3-5.1c-1.1-0.9-2.2-1.8-4-2.6c-1.2-0.5-2.4-0.9-3.6-1.1
					c-1.1-0.2-2.2-0.2-3.1-0.1c-0.9,0.2-1.8,0.4-2.6,0.6c-0.7,0.2-1.2,0.5-2.1,0.9c-0.3,0.1-0.5,0.2-1.4,0.6c-0.4,0.2-0.8,0.4-1,0.5
					c-0.1,0.1-0.1,0.1-0.1,0.1c-0.1-0.1,0.5-1.5,1.9-4.2c0.3-0.1,0.6-0.1,1.1-0.2c1.3-0.3,1.7-0.3,1.9-0.4c1.4-0.3,2.5-0.8,3.2-1
					c0.8-0.3,2-0.9,3.4-1.8c1.3-0.8,2.4-1.8,3.3-3c0.5-0.6,1.3-1.8,2.2-4.6c0.6-1.9,1.3-4.6,1.6-8c-3,0.9-5.3,1.5-7,1.8
					c-1.2,0.3-2.5,0.5-4.1,1.3c-1.1,0.6-2,1.3-2.9,2c-0.8,0.8-1.5,1.6-2,2.5c-0.5,0.9-0.9,1.7-1.3,2.6c-0.4,0.8-0.6,1.7-0.8,2.5
					c-0.2,0.8-0.3,1.5-0.4,2.1c-0.1,0.6-0.2,1.1-0.2,1.5l0,0.5c-0.1,0.1-0.3,0.5-0.7,1.4c-0.4,0.8-0.7,1.5-1,1.9
					c0.1,0,0.2-0.1,0.3-0.2c0.4-0.4,0.1-1.2-0.2-2.1c-0.4-1.3-0.1-0.7-0.7-2.5c-0.4-1.3-0.6-1.9-1-2.7c-0.5-1.1-0.9-1.9-1.6-2.7
					c-0.6-0.7-0.7-0.5-2-1.6c-1-0.9-1.1-1.2-2.1-2c-0.5-0.5-1.3-1.2-2.3-1.9c0.2,2.8,0.1,4.9-0.1,6.3c-0.1,0.6-0.3,1.8-0.1,3.3
					c0.1,1,0.3,1.9,0.6,2.8c0.3,0.9,0.7,1.7,1.1,2.4c0.5,0.7,0.9,1.4,1.5,2c0.5,0.6,1,1.2,1.6,1.6c0.5,0.5,1,0.9,1.5,1.2
					c0.5,0.3,0.8,0.6,1.1,0.8l0.4,0.3c-0.6,1.4-1.1,3.1-1.4,5c-0.1,0.5-0.1,1.1-0.2,1.6c0,0,0,0-0.1,0c-0.2,0-0.6-0.9-0.8-1.4
					c-0.1-0.3-0.5-1-1.2-2.6c-0.5-1-0.9-1.8-1.6-2.8c-0.8-1.2-1.6-2-2.1-2.5c-0.6-0.6-1.4-1.4-2.6-2.2c-1-0.7-1.3-0.7-2.1-1.4
					C-149.5,507.1-150.1,506.5-150.5,506z"/>
			</g>
		</g>
	</g>
	<g>
		<g>
			<g>
				<path class="st1" d="M-124.7,500.2c-1,2.6-2,4.8-2.8,6.8c-0.3,0.7-0.7,1.7-1,3.2c-0.2,1-0.2,2-0.2,2.9c0,1,0.2,1.9,0.4,2.7
					c0.2,0.8,0.5,1.6,0.8,2.3c0.3,0.8,0.7,1.4,1.1,2c0.4,0.6,0.8,1.1,1.1,1.6c0.3,0.5,0.6,0.8,0.8,1l0.3,0.4
					c-2.5,4.1-4.2,8.4-5,13.1c-0.9,4.8-0.9,9.8,0.1,15.1c0.1,0.5,0.3,0.9,0.5,1.2c0.3,0.3,0.5,0.4,0.8,0.3c0.3-0.1,0.5-0.4,0.6-0.8
					c0.1-0.4,0.1-0.9,0-1.4c-0.9-4.5-1-8.7-0.3-12.9c0.4-2.3,0.9-4.1,1.2-5c0.5-1.6,1.3-3.7,2.6-5.9c0,0.6-0.1,1.4,0.1,2.4
					c0.2,0.8,0.3,1.1,0.8,2.4c0.7,2,0.5,1.9,0.9,3.1c0.4,1,0.9,2,1.6,3c0.7,1.1,1.5,2,2.5,2.8c1.3,1.2,2.9,1.9,3.7,2.3
					c2.8,1.3,5.6,2.1,6.9,2.4c-1.5-4.6-2.5-8.1-3.1-10.5c-0.4-1.6-1-3.7-2.6-6.2c-0.9-1.4-1.9-2.6-3-3.5c-1.1-0.9-2.3-1.5-2.8-1.8
					c-0.9-0.4-1.6-0.7-2.2-0.9c0.7-1,1.6-2,2.5-3c1-1.1,2-2.1,2.9-3c0.1,0.1,0.2,0.4,0.3,0.6c0.4,0.8,0.5,1.2,0.7,1.5
					c0.2,0.5,0.4,1,0.9,1.8c0.6,1.3,1,1.9,1.3,2.5c0.6,1,1.2,1.9,1.8,2.7c0.7,0.8,1.5,1.6,2.4,2.4c1,0.8,2,1.4,3.1,1.9
					c1.4,0.6,2.4,0.6,4,0.8c1.5,0.1,3.7,0.4,6.5,0.7c-0.8-2-1.8-4.5-3-7.5c-0.5-1.3-1.1-2.7-2.2-4.2c-0.8-1.1-1.7-2-2.6-2.7
					c-0.9-0.7-1.8-1.3-2.7-1.6c-0.9-0.3-1.7-0.6-2.6-0.8c-0.7-0.1-1.3-0.2-2.3-0.3c-0.3,0-0.5,0-1.5-0.1c-0.5,0-0.9-0.1-1.1-0.1
					c-0.1,0-0.1,0-0.1,0c-0.1-0.1,1.2-1,3.7-2.8c0.3,0.1,0.6,0.2,1.1,0.4c1.3,0.4,1.7,0.5,1.8,0.6c1.3,0.4,2.6,0.6,3.3,0.7
					c0.8,0.1,2.1,0.2,3.8,0.1c1.5-0.1,3-0.4,4.4-1c0.7-0.3,2-0.9,4.2-2.9c1.4-1.3,3.4-3.3,5.3-6.2c-3-0.6-5.4-1.3-7-1.8
					c-1.2-0.4-2.4-0.8-4.2-0.8c-1.2,0-2.4,0.1-3.5,0.4c-1.1,0.3-2.1,0.7-2.9,1.2c-0.9,0.5-1.7,1.1-2.4,1.6c-0.7,0.6-1.4,1.2-1.9,1.8
					c-0.5,0.6-1,1.1-1.4,1.6c-0.4,0.5-0.7,0.9-0.9,1.2l-0.3,0.5c-0.1,0-0.5,0.3-1.3,0.8c-0.8,0.5-1.4,0.9-1.8,1.2c0.1,0,0.2,0,0.4,0
					c0.5-0.2,0.6-1,0.8-1.9c0.3-1.4,0.3-0.7,0.6-2.5c0.3-1.3,0.4-1.9,0.5-2.8c0.1-1.2,0.2-2-0.1-3.1c-0.2-0.9-0.4-0.8-0.9-2.4
					c-0.4-1.3-0.4-1.6-0.8-2.8c-0.2-0.7-0.6-1.6-1.1-2.8c-1.2,2.6-2.3,4.3-3.1,5.5c-0.4,0.5-1.1,1.4-1.7,2.8
					c-0.4,0.9-0.7,1.8-0.8,2.7c-0.2,0.9-0.2,1.8-0.2,2.6c0.1,0.8,0.2,1.7,0.3,2.4c0.1,0.8,0.3,1.5,0.6,2.2c0.2,0.7,0.5,1.3,0.7,1.8
					c0.2,0.5,0.4,0.9,0.6,1.2l0.3,0.4c-1.2,1-2.5,2.2-3.7,3.7c-0.3,0.4-0.6,0.9-0.9,1.3c0,0-0.1,0-0.1,0c-0.2-0.1-0.1-1.1,0-1.7
					c0-0.3,0.1-1.1,0.2-2.8c0-1.1,0.1-2,0-3.2c-0.1-1.5-0.4-2.5-0.6-3.2c-0.2-0.8-0.5-1.9-1.2-3.2c-0.5-1-0.8-1.2-1.2-2.2
					C-124.3,501.6-124.5,500.8-124.7,500.2z"/>
			</g>
		</g>
	</g>
</g>
</svg>
