<?xml version="1.0" encoding="utf-8"?>
<!-- Generator: Adobe Illustrator 19.0.1, SVG Export Plug-In . SVG Version: 6.00 Build 0)  -->
<svg version="1.1" id="corn_x5F_warn" xmlns="http://www.w3.org/2000/svg" xmlns:xlink="http://www.w3.org/1999/xlink" x="0px"
	 y="0px" viewBox="-223 225 512 512" style="enable-background:new -223 225 512 512;" xml:space="preserve">
<style type="text/css">
	.st0{clip-path:url(#SVGID_2_);}
	.st1{fill:#FBD303;}
	.st2{fill:#646B79;}
	.st3{clip-path:url(#SVGID_4_);}
	.st4{fill:#4CAF50;}
	.st5{fill:#81C784;}
	.st6{fill:#FEC24C;}
	.st7{fill:#BC8D2F;}
	.st8{clip-path:url(#SVGID_6_);}
	.st9{clip-path:url(#SVGID_8_);}
	.st10{font-family:'Arial-Black';}
	.st11{font-size:21.0661px;}
	.st12{font-size:20.1175px;}
</style>
<g>
	<defs>
		<polygon id="SVGID_1_" points="32.4,362.6 237.4,481.6 237.1,529.8 33,411.3 		"/>
	</defs>
	<clipPath id="SVGID_2_">
		<use xlink:href="#SVGID_1_"  style="overflow:visible;"/>
	</clipPath>
	<g class="st0">
		<polygon class="st1" points="32.4,336.6 237.4,455.6 237.1,503.8 33,385.3 		"/>
		<g>
			<polygon class="st2" points="237.4,455.6 225.7,448.8 186.5,474.4 216.3,491.8 237.3,478.3 			"/>
			<polygon class="st2" points="159.1,458.5 129.2,441.2 168.2,415.5 198.2,432.9 			"/>
			<polygon class="st2" points="101.9,425.3 72,407.9 110.7,382.1 140.8,399.5 			"/>
			<polygon class="st2" points="53.3,348.8 32.7,362.5 33,385.3 44.6,392.1 83.3,366.2 			"/>
		</g>
	</g>
</g>
<g>
	<defs>
		<polygon id="SVGID_3_" points="-171.8,455.8 32.3,337.3 32.6,385.4 -172.4,504.4 		"/>
	</defs>
	<clipPath id="SVGID_4_">
		<use xlink:href="#SVGID_3_"  style="overflow:visible;"/>
	</clipPath>
	<g class="st3">
		<polygon class="st1" points="-171.8,481.8 32.3,363.2 32.6,411.4 -172.4,530.4 		"/>
		<g>
			<polygon class="st2" points="32.5,388.8 11.6,375.3 -18.3,392.7 20.9,418.2 32.6,411.4 			"/>
			<polygon class="st2" points="-6.6,434.2 -36.6,451.6 -75.6,425.9 -45.7,408.5 			"/>
			<polygon class="st2" points="-64,467.5 -94,485 -132.8,459.1 -102.9,441.8 			"/>
			<polygon class="st2" points="-121.5,500.9 -160.2,475 -171.8,481.8 -172.1,504.5 -151.5,518.3 			"/>
		</g>
	</g>
</g>
<g>
	<g>
		<g>
			<path class="st4" d="M16.8,564.9c1.5-1.3,3-2.6,4.5-3.9c4,6.3,7.9,12.7,11.9,19c0.4-1.1,8.9-23.4,15.1-36.2
				c4.1-8.5,12.1-21.6,12.9-21.9c-0.4,2.3-0.7,4.6-1.1,6.9c-2,4.5-3.9,9.2-5.8,14c-7.8,19.8-13.4,38.9-17.4,56.7
				c4.8-3,8.2-5.4,10.6-7.2c1.8-1.4,4.1-3.1,7.7-4.5c1.7-0.6,3.1-1,4.1-1.2c1.6,0.8,3.3,1.6,4.9,2.5c-3.3,1.5-6.8,3.2-10.4,5.3
				c-6.7,3.8-12.1,7.9-16.5,11.6c-0.3,11-0.5,22-0.8,32.9c0,0.3,0.3,3.1-2,4.9c-1.1,0.9-2.3,1.1-2.9,1.2c-0.5-0.3-1-0.7-1.5-1.2
				c-2.5-2.7-1.8-6.2-1.6-7.2c-0.1-3.1-0.1-7.9-0.1-13.7c0.1-6.6,0.3-9,0.4-13.3c0.2-10.2,0.4-16.7-1.1-23.2
				C26.8,581.3,24.1,573.6,16.8,564.9z"/>
			<g>
				<g transform="translate(-1 -1)">
					<path class="st4" d="M25.6,513.6c-9.7,0.7-4,33.8-4,33.8s0.6,5.3-0.3,9.8c0.4,0.2,0.7,0.5,1.1,0.7c0.7,0.4,1.4,0.9,2,1.4
						c0.2-0.1,0.4-0.3,0.6-0.4c7.7-6.2,10.4-16.9,6.1-25.9c0-0.1-0.1-0.2-0.1-0.3c-2.8-5.9-4.6-12.2-5.2-18.6L25.6,513.6z"/>
					<path class="st5" d="M-17.3,520.3c0,0,8.2,8.2,10.7,17.2c2.3,8.4,3.9,16.4,18.9,24.3c2,1.1,3.3,3.1,3.2,5.4l0,0
						c-0.1,2,1.2,3.9,3.2,4.3c1.3,0.3,3.1,0.3,5.4-0.4c0,0,8.5-2.1,3.6-8.6c-1.4-1.9-3.2-3.5-5.3-4.7c-2.1-1.2-5.1-3.4-6.7-7
						c-1.3-3.1-2.8-6-4.9-8.6C5,535.5-5.4,523.9-17.3,520.3"/>
				</g>
			</g>
			<g>
				<g transform="translate(-1 -1)">
					<path class="st4" d="M98.6,531.1c-4.5-8.7-32.7,9.4-32.7,9.4s-4.7,2.6-9.1,3.5c-0.1,0.4-0.1,0.9-0.2,1.2
						c-0.1,0.8-0.3,1.6-0.5,2.4c0.2,0.1,0.4,0.3,0.6,0.4c8.7,4.7,19.6,3,26.2-4.4c0.1-0.1,0.1-0.1,0.2-0.2c4.4-4.8,9.4-9,15.1-12.1
						L98.6,531.1z"/>
					<path class="st5" d="M75.7,494.1c0,0-4.4,10.8-11.7,16.5c-6.8,5.4-13.6,10-15.1,26.8c-0.2,2.3-1.6,4.2-3.7,5l0,0
						c-1.9,0.7-3.1,2.6-2.8,4.6c0.2,1.4,0.9,3,2.5,4.8c0,0,5.2,7.1,9.3-0.1c1.2-2.1,2-4.3,2.3-6.7c0.3-2.3,1.1-6,3.9-8.9
						c2.3-2.4,4.5-4.9,6-7.9C70.4,520.5,77.1,506.5,75.7,494.1"/>
				</g>
			</g>
			<g>
				<g transform="translate(-1 -1)">
					<path class="st4" d="M65.1,567.2c3.8,1.3-6,17.6-6,17.6s-1.4,2.7-2.1,5c-0.2,0.1-0.4,0.2-0.6,0.2c-0.4,0.1-0.8,0.3-1.2,0.5
						c0-0.1-0.1-0.2-0.1-0.3c-1.8-3.9-0.4-9.6,3.4-13.8c0,0,0.1-0.1,0.1-0.1c2.5-2.7,4.7-5.8,6.4-9L65.1,567.2z"/>
					<path class="st5" d="M81.1,574.7c0,0-5.2,3.4-8.3,7.7c-2.8,4.1-5.3,8-13.3,10.6c-1.1,0.3-2,1.3-2.5,2.4l0,0
						c-0.4,1-1.4,1.9-2.3,1.9c-0.6,0-1.4-0.1-2.1-0.7c0,0-3-1.9,0.5-4.7c1-0.8,2.1-1.5,3.2-1.9c1.1-0.4,2.9-1.2,4.3-2.9
						c1.2-1.4,2.5-2.8,4-3.9C68.6,580.3,75.5,575.4,81.1,574.7"/>
				</g>
			</g>
			<path class="st4" d="M17.6,510.7c1.5-1.3,3-2.6,4.5-3.9c4,6.3,7.9,12.7,11.9,19c0.4-1.1,8.9-23.4,15.1-36.2
				c4.1-8.5,12.1-21.6,12.9-21.9c-0.4,2.3-0.7,4.6-1.1,6.9c-2,4.5-3.9,9.2-5.8,14c-7.8,19.8-13.4,38.9-17.4,56.7
				c4.8-3,8.2-5.4,10.6-7.2c1.8-1.4,4.1-3.1,7.7-4.5c1.7-0.6,3.1-1,4.1-1.2c1.6,0.8,3.3,1.6,4.9,2.5c-3.3,1.5-6.8,3.2-10.4,5.3
				c-6.7,3.8-12.1,7.9-16.5,11.6c-0.3,11-0.5,22-0.8,32.9c0,0.3,0.3,3.1-2,4.9c-1.1,0.9-2.3,1.1-2.9,1.2c-0.5-0.3-1-0.7-1.5-1.2
				c-2.5-2.7-1.8-6.2-1.6-7.2c-0.1-3.1-0.1-7.9-0.1-13.7c0.1-6.6,0.3-9,0.4-13.3c0.2-10.2,0.4-16.7-1.1-23.2
				C27.6,527.1,24.9,519.4,17.6,510.7z"/>
		</g>
		<g>
			<g transform="translate(-1 -1)">
				<path class="st4" d="M-6.6,529.2c4.9-4.5,19.4,16.7,19.4,16.7s2.5,3.2,5.2,5.3c0,0.3-0.1,0.6-0.2,0.9c-0.1,0.6-0.2,1.2-0.2,1.8
					c-0.2,0-0.3,0-0.5,0c-6.8,0.4-13.6-4.2-16.2-11.3c0-0.1,0-0.1-0.1-0.2c-1.8-4.6-4.1-9.1-7.2-12.9L-6.6,529.2z"/>
				<path class="st6" d="M17.9,551.2c-2.7-2-5.2-5.2-5.2-5.2s-8.5-12.4-14.6-16.2c-5.8-13-7.4-24.3-3.3-26.4c4-2.1,12.3,5.2,19.8,17
					c-0.7,6.3,0,12.9,0.6,17.3c0.3,2.5,1.1,4.9,2.1,7.2c0.9,2.2,0.9,4.5,0.7,6.1C18,551.1,17.9,551.1,17.9,551.2"/>
				<g>
					<path class="st7" d="M-1.6,510.1c0.5-0.3,0.6-0.9,0.3-1.4l-1-1.9c-0.3-0.5-0.9-0.8-1.4-0.5s-0.6,0.9-0.3,1.4l1,1.9
						C-2.7,510.1-2.1,510.4-1.6,510.1"/>
					<path class="st7" d="M3.1,512.6c0.5-0.3,0.6-0.9,0.3-1.4l-1-1.9c-0.3-0.5-0.9-0.8-1.4-0.5c-0.5,0.3-0.6,0.9-0.3,1.4l1,1.9
						C2,512.7,2.6,512.9,3.1,512.6"/>
					<path class="st7" d="M1.2,517.4c0.5-0.3,0.6-0.9,0.3-1.4l-1-1.9c-0.3-0.5-0.9-0.8-1.4-0.5c-0.5,0.3-0.6,0.9-0.3,1.4l1,1.9
						C0.1,517.4,0.7,517.6,1.2,517.4"/>
					<path class="st7" d="M-0.7,522.1c0.5-0.3,0.6-0.9,0.3-1.4l-1-1.9c-0.3-0.5-0.9-0.8-1.4-0.5c-0.5,0.3-0.6,0.9-0.3,1.4l1,1.9
						C-1.8,522.2-1.2,522.4-0.7,522.1"/>
					<path class="st7" d="M6.2,518.5c0.5-0.3,0.6-0.9,0.3-1.4l-1-1.9c-0.3-0.5-0.9-0.8-1.4-0.5c-0.5,0.3-0.6,0.9-0.3,1.4l1,1.9
						C5.1,518.5,5.7,518.7,6.2,518.5"/>
					<path class="st7" d="M11.3,522c0.5-0.3,0.6-0.9,0.3-1.4l-1-1.9c-0.3-0.5-0.9-0.8-1.4-0.5c-0.5,0.3-0.6,0.9-0.3,1.4l1,1.9
						C10.2,522,10.9,522.2,11.3,522"/>
					<path class="st7" d="M8.9,525.8c0.5-0.3,0.6-0.9,0.3-1.4l-1-1.9c-0.3-0.5-0.9-0.8-1.4-0.5c-0.5,0.3-0.6,0.9-0.3,1.4l1,1.9
						C7.9,525.8,8.5,526,8.9,525.8"/>
					<path class="st7" d="M4.3,523.2c0.5-0.3,0.6-0.9,0.3-1.4l-1-1.9c-0.3-0.5-0.9-0.8-1.4-0.5c-0.5,0.3-0.6,0.9-0.3,1.4l1,1.9
						C3.2,523.3,3.8,523.5,4.3,523.2"/>
					<path class="st7" d="M3.8,528.5c0.5-0.3,0.6-0.9,0.3-1.4l-1-1.9c-0.3-0.5-0.9-0.8-1.4-0.5c-0.5,0.3-0.6,0.9-0.3,1.4l1,1.9
						C2.7,528.5,3.3,528.8,3.8,528.5"/>
					<path class="st7" d="M9.8,531.6c0.5-0.3,0.6-0.9,0.3-1.4l-1-1.9c-0.3-0.5-0.9-0.8-1.4-0.5c-0.5,0.3-0.6,0.9-0.3,1.4l1,1.9
						C8.7,531.6,9.4,531.8,9.8,531.6"/>
					<path class="st7" d="M6.9,534.4c0.5-0.3,0.6-0.9,0.3-1.4l-1-1.9c-0.3-0.5-0.9-0.8-1.4-0.5c-0.5,0.3-0.6,0.9-0.3,1.4l1,1.9
						C5.8,534.4,6.4,534.6,6.9,534.4"/>
					<path class="st7" d="M12.6,538.8c0.5-0.3,0.6-0.9,0.3-1.4l-1-1.9c-0.3-0.5-0.9-0.8-1.4-0.5c-0.5,0.3-0.6,0.9-0.3,1.4l1,1.9
						C11.5,538.9,12.1,539.1,12.6,538.8"/>
					<path class="st7" d="M14.8,532.6c0.5-0.3,0.6-0.9,0.3-1.4l-1-1.9c-0.3-0.5-0.9-0.8-1.4-0.5c-0.5,0.3-0.6,0.9-0.3,1.4l1,1.9
						C13.7,532.7,14.3,532.9,14.8,532.6"/>
				</g>
				<path class="st5" d="M16.8,511.6c0,0,0.4,8.7,3.9,14.9c3.3,5.8,6.7,11.1,3.8,22.9c-0.4,1.6,0.1,3.4,1.3,4.6l0,0
					c1.1,1.1,1.4,2.8,0.8,4c-0.5,0.8-1.3,1.8-2.7,2.4c0,0-5.1,3.1-6.1-3c-0.3-1.8-0.3-3.6,0-5.3c0.4-1.7,0.6-4.4-0.5-7.2
					c-1-2.3-1.8-4.7-2.1-7.2C14.3,531.1,13.1,519.4,16.8,511.6"/>
			</g>
		</g>
		<g>
			<g transform="translate(-1 -1)">
				<path class="st4" d="M74.6,505.4c-2.9,4-6.5,7.5-10.6,10.4c-0.1,0-0.1,0.1-0.2,0.1c-6.3,4.3-8.6,12.4-5.8,19.5
					c0.1,0.2,0.1,0.3,0.2,0.5c0.6-0.1,1.2-0.2,1.9-0.1c0.3,0,0.6,0,1,0c1.1-3.3,3.5-6.6,3.5-6.6s16.4-19.8,10.2-24L74.6,505.4z"/>
				<path class="st6" d="M61.1,535.7c0.1,0,0.1,0,0.2,0c1.7-0.1,4-0.6,5.9-2.1c2-1.5,4.2-2.9,6.5-3.8c4.3-1.5,10.7-3.7,17.3-4.3
					c9.4-10.4,13.9-20.7,10.4-24.5c-3.6-3.8-14.4,0.3-25.5,9.2c-1.7,7.3-11.3,18.9-11.3,18.9S62.2,532.4,61.1,535.7"/>
				<g>
					<path class="st7" d="M95.8,506.3c-0.4-0.4-0.4-1.1,0-1.6l1.6-1.5c0.4-0.4,1.1-0.4,1.6,0c0.4,0.4,0.4,1.1,0,1.6l-1.6,1.5
						C96.9,506.8,96.2,506.7,95.8,506.3"/>
					<path class="st7" d="M94.9,511.7c-0.4-0.4-0.4-1.1,0-1.6l1.6-1.5c0.4-0.4,1.1-0.4,1.6,0c0.4,0.4,0.4,1.1,0,1.6l-1.6,1.5
						C96,512.2,95.3,512.2,94.9,511.7"/>
					<path class="st7" d="M89.4,510.8c-0.4-0.4-0.4-1.1,0-1.6l1.6-1.5c0.4-0.4,1.1-0.4,1.6,0s0.4,1.1,0,1.6l-1.6,1.5
						C90.5,511.2,89.8,511.2,89.4,510.8"/>
					<path class="st7" d="M84,509.8c-0.4-0.4-0.4-1.1,0-1.6l1.6-1.5c0.4-0.4,1.1-0.4,1.6,0c0.4,0.4,0.4,1.1,0,1.6l-1.6,1.5
						C85.1,510.3,84.4,510.3,84,509.8"/>
					<path class="st7" d="M90,516.3c-0.4-0.4-0.4-1.1,0-1.6l1.6-1.5c0.4-0.4,1.1-0.4,1.6,0c0.4,0.4,0.4,1.1,0,1.6l-1.6,1.5
						C91.2,516.7,90.5,516.7,90,516.3"/>
					<path class="st7" d="M88.3,522.5c-0.4-0.4-0.4-1.1,0-1.6l1.6-1.5c0.4-0.4,1.1-0.4,1.6,0c0.4,0.4,0.4,1.1,0,1.6l-1.6,1.5
						C89.4,522.9,88.7,522.9,88.3,522.5"/>
					<path class="st7" d="M83.6,520.8c-0.4-0.4-0.4-1.1,0-1.6l1.6-1.5c0.4-0.4,1.1-0.4,1.6,0c0.4,0.4,0.4,1.1,0,1.6l-1.6,1.5
						C84.8,521.2,84.1,521.2,83.6,520.8"/>
					<path class="st7" d="M84.6,515.3c-0.4-0.4-0.4-1.1,0-1.6l1.6-1.5c0.4-0.4,1.1-0.4,1.6,0c0.4,0.4,0.4,1.1,0,1.6l-1.6,1.5
						C85.7,515.8,85,515.8,84.6,515.3"/>
					<path class="st7" d="M79.1,515.9c-0.4-0.4-0.4-1.1,0-1.6l1.6-1.5c0.4-0.4,1.1-0.4,1.6,0c0.4,0.4,0.4,1.1,0,1.6l-1.6,1.5
						C80.2,516.4,79.5,516.4,79.1,515.9"/>
					<path class="st7" d="M78.1,522.9c-0.4-0.4-0.4-1.1,0-1.6l1.6-1.5c0.4-0.4,1.1-0.4,1.6,0c0.4,0.4,0.4,1.1,0,1.6l-1.6,1.5
						C79.2,523.4,78.5,523.4,78.1,522.9"/>
					<path class="st7" d="M74.3,520.5c-0.4-0.4-0.4-1.1,0-1.6l1.6-1.5c0.4-0.4,1.1-0.4,1.6,0c0.4,0.4,0.4,1.1,0,1.6l-1.6,1.5
						C75.4,520.9,74.7,520.9,74.3,520.5"/>
					<path class="st7" d="M71.7,527.4c-0.4-0.4-0.4-1.1,0-1.6l1.6-1.5c0.4-0.4,1.1-0.4,1.6,0c0.4,0.4,0.4,1.1,0,1.6l-1.6,1.5
						C72.8,527.9,72.1,527.9,71.7,527.4"/>
					<path class="st7" d="M78.7,528.4c-0.4-0.4-0.4-1.1,0-1.6l1.6-1.5c0.4-0.4,1.1-0.4,1.6,0c0.4,0.4,0.4,1.1,0,1.6l-1.6,1.5
						C79.8,528.9,79.1,528.9,78.7,528.4"/>
				</g>
				<path class="st5" d="M100.7,526c-9.2-2.2-20.5,1.5-26.9,3.8c-2.4,0.9-4.5,2.3-6.5,3.8c-2.4,1.8-5.3,2.1-7.1,2.1
					c-1.8,0-3.6,0.4-5.3,1.1c-5.8,2.4-0.9,7.1-0.9,7.1c1.2,1.4,2.4,2,3.4,2.3c1.5,0.4,3-0.3,3.8-1.7l0,0c0.8-1.5,2.4-2.4,4.2-2.4
					c12.9,0.4,17.1-4.3,21.8-8.9C92.1,528.3,100.7,526,100.7,526"/>
			</g>
		</g>
	</g>
	<g>
		<g transform="translate(-1 -1)">
			<path class="st4" d="M3.4,591.8c0.3-4,18.6,1.2,18.6,1.2s2.9,0.7,5.4,0.7c0.1,0.2,0.3,0.4,0.4,0.5c0.2,0.3,0.5,0.7,0.8,1
				c-0.1,0.1-0.2,0.1-0.2,0.2c-3.3,2.7-9.2,2.9-14.2,0.3c0,0-0.1-0.1-0.1-0.1c-3.3-1.7-6.8-3-10.3-3.8L3.4,591.8z"/>
			<path class="st5" d="M6.6,574.3c0,0,4.7,4.2,9.6,6c4.7,1.7,9.1,3.1,13.7,10.1c0.6,0.9,1.8,1.6,3,1.8l0,0c1.1,0.1,2.2,0.9,2.4,1.7
				c0.2,0.6,0.2,1.4-0.2,2.2c0,0-1,3.4-4.7,0.8c-1.1-0.8-2-1.7-2.7-2.6c-0.7-1-1.9-2.5-4-3.4c-1.7-0.8-3.4-1.7-4.8-2.8
				C15.2,585,8.7,579.6,6.6,574.3"/>
		</g>
	</g>
</g>
<g>
	<g>
		<g>
			<path class="st4" d="M18.5,380.4c1.5-1.3,3-2.6,4.5-3.9c4,6.3,7.9,12.7,11.9,19c0.4-1.1,8.9-23.4,15.1-36.2
				c4.1-8.5,12.1-21.6,12.9-21.9c-0.4,2.3-0.7,4.6-1.1,6.9c-2,4.5-3.9,9.2-5.8,14c-7.8,19.8-13.4,38.9-17.4,56.7
				c4.8-3,8.2-5.4,10.6-7.2c1.8-1.4,4.1-3.1,7.7-4.5c1.7-0.6,3.1-1,4.1-1.2c1.6,0.8,3.3,1.6,4.9,2.5c-3.3,1.5-6.8,3.2-10.4,5.3
				c-6.7,3.8-12.1,7.9-16.5,11.6c-0.3,11-0.5,22-0.8,32.9c0,0.3,0.3,3.1-2,4.9c-1.1,0.9-2.3,1.1-2.9,1.2c-0.5-0.3-1-0.7-1.5-1.2
				c-2.5-2.7-1.8-6.2-1.6-7.2c-0.1-3.1-0.1-7.9-0.1-13.7c0.1-6.6,0.3-9,0.4-13.3c0.2-10.2,0.4-16.7-1.1-23.2
				C28.4,396.8,25.7,389,18.5,380.4z"/>
			<g>
				<g transform="translate(-1 -1)">
					<path class="st4" d="M27.3,329c-9.7,0.7-4,33.8-4,33.8s0.6,5.3-0.3,9.8c0.4,0.2,0.7,0.5,1.1,0.7c0.7,0.4,1.4,0.9,2,1.4
						c0.2-0.1,0.4-0.3,0.6-0.4c7.7-6.2,10.4-16.9,6.1-25.9c0-0.1-0.1-0.2-0.1-0.3c-2.8-5.9-4.6-12.2-5.2-18.6L27.3,329z"/>
					<path class="st5" d="M-15.6,335.8c0,0,8.2,8.2,10.7,17.2c2.3,8.4,3.9,16.4,18.9,24.3c2,1.1,3.3,3.1,3.2,5.4l0,0
						c-0.1,2,1.2,3.9,3.2,4.3c1.3,0.3,3.1,0.3,5.4-0.4c0,0,8.5-2.1,3.6-8.6c-1.4-1.9-3.2-3.5-5.3-4.7c-2.1-1.2-5.1-3.4-6.7-7
						c-1.3-3.1-2.8-6-4.9-8.6C6.7,350.9-3.7,339.3-15.6,335.8"/>
				</g>
			</g>
			<g>
				<g transform="translate(-1 -1)">
					<path class="st4" d="M100.2,346.5c-4.5-8.7-32.7,9.4-32.7,9.4s-4.7,2.6-9.1,3.5c-0.1,0.4-0.1,0.9-0.2,1.2
						c-0.1,0.8-0.3,1.6-0.5,2.4c0.2,0.1,0.4,0.3,0.6,0.4c8.7,4.7,19.6,3,26.2-4.4c0.1-0.1,0.1-0.1,0.2-0.2c4.4-4.8,9.4-9,15.1-12.1
						L100.2,346.5z"/>
					<path class="st5" d="M77.4,309.6c0,0-4.4,10.8-11.7,16.5c-6.8,5.4-13.6,10-15.1,26.8c-0.2,2.3-1.6,4.2-3.7,5l0,0
						c-1.9,0.7-3.1,2.6-2.8,4.6c0.2,1.4,0.9,3,2.5,4.8c0,0,5.2,7.1,9.3-0.1c1.2-2.1,2-4.3,2.3-6.7c0.3-2.3,1.1-6,3.9-8.9
						c2.3-2.4,4.5-4.9,6-7.9C72.1,336,78.8,321.9,77.4,309.6"/>
				</g>
			</g>
			<g>
				<g transform="translate(-1 -1)">
					<path class="st4" d="M66.7,382.6c3.8,1.3-6,17.6-6,17.6s-1.4,2.7-2.1,5c-0.2,0.1-0.4,0.2-0.6,0.2c-0.4,0.1-0.8,0.3-1.2,0.5
						c0-0.1-0.1-0.2-0.1-0.3c-1.8-3.9-0.4-9.6,3.4-13.8c0,0,0.1-0.1,0.1-0.1c2.5-2.7,4.7-5.8,6.4-9L66.7,382.6z"/>
					<path class="st5" d="M82.8,390.1c0,0-5.2,3.4-8.3,7.7c-2.8,4.1-5.3,8-13.3,10.6c-1.1,0.3-2,1.3-2.5,2.4l0,0
						c-0.4,1-1.4,1.9-2.3,1.9c-0.6,0-1.4-0.1-2.1-0.7c0,0-3-1.9,0.5-4.7c1-0.8,2.1-1.5,3.2-1.9c1.1-0.4,2.9-1.2,4.3-2.9
						c1.2-1.4,2.5-2.8,4-3.9C70.2,395.7,77.1,390.8,82.8,390.1"/>
				</g>
			</g>
			<path class="st4" d="M19.2,326.2c1.5-1.3,3-2.6,4.5-3.9c4,6.3,7.9,12.7,11.9,19c0.4-1.1,8.9-23.4,15.1-36.2
				c4.1-8.5,12.1-21.6,12.9-21.9c-0.4,2.3-0.7,4.6-1.1,6.9c-2,4.5-3.9,9.2-5.8,14C48.9,324,43.3,343,39.3,360.8
				c4.8-3,8.2-5.4,10.6-7.2c1.8-1.4,4.1-3.1,7.7-4.5c1.7-0.6,3.1-1,4.1-1.2c1.6,0.8,3.3,1.6,4.9,2.5c-3.3,1.5-6.8,3.2-10.4,5.3
				c-6.7,3.8-12.1,7.9-16.5,11.6c-0.3,11-0.5,22-0.8,32.9c0,0.3,0.3,3.1-2,4.9c-1.1,0.9-2.3,1.1-2.9,1.2c-0.5-0.3-1-0.7-1.5-1.2
				c-2.5-2.7-1.8-6.2-1.6-7.2C31,394.8,31,390,31,384.2c0.1-6.6,0.3-9,0.4-13.3c0.2-10.2,0.4-16.7-1.1-23.2
				C29.2,342.6,26.5,334.8,19.2,326.2z"/>
		</g>
		<g>
			<g transform="translate(-1 -1)">
				<path class="st4" d="M-5,344.6c4.9-4.5,19.4,16.7,19.4,16.7s2.5,3.2,5.2,5.3c0,0.3-0.1,0.6-0.2,0.9c-0.1,0.6-0.2,1.2-0.2,1.8
					c-0.2,0-0.3,0-0.5,0c-6.8,0.4-13.6-4.2-16.2-11.3c0-0.1,0-0.1-0.1-0.2c-1.8-4.6-4.1-9.1-7.2-12.9L-5,344.6z"/>
				<path class="st6" d="M19.6,366.6c-2.7-2-5.2-5.2-5.2-5.2S5.9,349-0.2,345.2c-5.8-13-7.4-24.3-3.3-26.4c4-2.1,12.3,5.2,19.8,17
					c-0.7,6.3,0,12.9,0.6,17.3c0.3,2.5,1.1,4.9,2.1,7.2c0.9,2.2,0.9,4.5,0.7,6.1C19.6,366.5,19.6,366.6,19.6,366.6"/>
				<g>
					<path class="st7" d="M0,325.5c0.5-0.3,0.6-0.9,0.3-1.4l-1-1.9c-0.3-0.5-0.9-0.8-1.4-0.5s-0.6,0.9-0.3,1.4l1,1.9
						C-1,325.6-0.4,325.8,0,325.5"/>
					<path class="st7" d="M4.7,328.1c0.5-0.3,0.6-0.9,0.3-1.4l-1-1.9c-0.3-0.5-0.9-0.8-1.4-0.5s-0.6,0.9-0.3,1.4l1,1.9
						C3.6,328.1,4.2,328.3,4.7,328.1"/>
					<path class="st7" d="M2.8,332.8c0.5-0.3,0.6-0.9,0.3-1.4l-1-1.9c-0.3-0.5-0.9-0.8-1.4-0.5c-0.5,0.3-0.6,0.9-0.3,1.4l1,1.9
						C1.7,332.8,2.4,333.1,2.8,332.8"/>
					<path class="st7" d="M0.9,337.6c0.5-0.3,0.6-0.9,0.3-1.4l-1-1.9c-0.3-0.5-0.9-0.8-1.4-0.5c-0.5,0.3-0.6,0.9-0.3,1.4l1,1.9
						C-0.1,337.6,0.5,337.8,0.9,337.6"/>
					<path class="st7" d="M7.8,333.9c0.5-0.3,0.6-0.9,0.3-1.4l-1-1.9c-0.3-0.5-0.9-0.8-1.4-0.5c-0.5,0.3-0.6,0.9-0.3,1.4l1,1.9
						C6.7,333.9,7.3,334.2,7.8,333.9"/>
					<path class="st7" d="M13,337.4c0.5-0.3,0.6-0.9,0.3-1.4l-1-1.9c-0.3-0.5-0.9-0.8-1.4-0.5s-0.6,0.9-0.3,1.4l1,1.9
						C11.9,337.4,12.5,337.7,13,337.4"/>
					<path class="st7" d="M10.6,341.2c0.5-0.3,0.6-0.9,0.3-1.4l-1-1.9c-0.3-0.5-0.9-0.8-1.4-0.5c-0.5,0.3-0.6,0.9-0.3,1.4l1,1.9
						C9.5,341.2,10.1,341.4,10.6,341.2"/>
					<path class="st7" d="M5.9,338.7c0.5-0.3,0.6-0.9,0.3-1.4l-1-1.9c-0.3-0.5-0.9-0.8-1.4-0.5c-0.5,0.3-0.6,0.9-0.3,1.4l1,1.9
						C4.9,338.7,5.5,338.9,5.9,338.7"/>
					<path class="st7" d="M5.4,343.9c0.5-0.3,0.6-0.9,0.3-1.4l-1-1.9c-0.3-0.5-0.9-0.8-1.4-0.5c-0.5,0.3-0.6,0.9-0.3,1.4l1,1.9
						C4.4,344,5,344.2,5.4,343.9"/>
					<path class="st7" d="M11.5,347c0.5-0.3,0.6-0.9,0.3-1.4l-1-1.9c-0.3-0.5-0.9-0.8-1.4-0.5s-0.6,0.9-0.3,1.4l1,1.9
						C10.4,347,11,347.2,11.5,347"/>
					<path class="st7" d="M8.6,349.8c0.5-0.3,0.6-0.9,0.3-1.4l-1-1.9c-0.3-0.5-0.9-0.8-1.4-0.5c-0.5,0.3-0.6,0.9-0.3,1.4l1,1.9
						C7.5,349.8,8.1,350,8.6,349.8"/>
					<path class="st7" d="M14.3,354.3c0.5-0.3,0.6-0.9,0.3-1.4l-1-1.9c-0.3-0.5-0.9-0.8-1.4-0.5c-0.5,0.3-0.6,0.9-0.3,1.4l1,1.9
						C13.2,354.3,13.8,354.5,14.3,354.3"/>
					<path class="st7" d="M16.5,348.1c0.5-0.3,0.6-0.9,0.3-1.4l-1-1.9c-0.3-0.5-0.9-0.8-1.4-0.5c-0.5,0.3-0.6,0.9-0.3,1.4l1,1.9
						C15.4,348.1,16,348.3,16.5,348.1"/>
				</g>
				<path class="st5" d="M18.5,327c0,0,0.4,8.7,3.9,14.9c3.3,5.8,6.7,11.1,3.8,22.9c-0.4,1.6,0.1,3.4,1.3,4.6l0,0
					c1.1,1.1,1.4,2.8,0.8,4c-0.5,0.8-1.3,1.8-2.7,2.4c0,0-5.1,3.1-6.1-3c-0.3-1.8-0.3-3.6,0-5.3c0.4-1.7,0.6-4.4-0.5-7.2
					c-1-2.3-1.8-4.7-2.1-7.2C15.9,346.5,14.8,334.9,18.5,327"/>
			</g>
		</g>
		<g>
			<g transform="translate(-1 -1)">
				<path class="st4" d="M76.3,320.8c-2.9,4-6.5,7.5-10.6,10.4c-0.1,0-0.1,0.1-0.2,0.1c-6.3,4.3-8.6,12.4-5.8,19.5
					c0.1,0.2,0.1,0.3,0.2,0.5c0.6-0.1,1.2-0.2,1.9-0.1c0.3,0,0.6,0,1,0c1.1-3.3,3.5-6.6,3.5-6.6s16.4-19.8,10.2-24L76.3,320.8z"/>
				<path class="st6" d="M62.7,351.1c0.1,0,0.1,0,0.2,0c1.7-0.1,4-0.6,5.9-2.1c2-1.5,4.2-2.9,6.5-3.8c4.3-1.5,10.7-3.7,17.3-4.3
					c9.4-10.4,13.9-20.7,10.4-24.5c-3.6-3.8-14.4,0.3-25.5,9.2c-1.7,7.3-11.3,18.9-11.3,18.9S63.8,347.8,62.7,351.1"/>
				<g>
					<path class="st7" d="M97.5,321.7c-0.4-0.4-0.4-1.1,0-1.6l1.6-1.5c0.4-0.4,1.1-0.4,1.6,0c0.4,0.4,0.4,1.1,0,1.6l-1.6,1.5
						C98.6,322.2,97.9,322.2,97.5,321.7"/>
					<path class="st7" d="M96.5,327.2c-0.4-0.4-0.4-1.1,0-1.6l1.6-1.5c0.4-0.4,1.1-0.4,1.6,0c0.4,0.4,0.4,1.1,0,1.6l-1.6,1.5
						C97.6,327.6,96.9,327.6,96.5,327.2"/>
					<path class="st7" d="M91.1,326.2c-0.4-0.4-0.4-1.1,0-1.6l1.6-1.5c0.4-0.4,1.1-0.4,1.6,0s0.4,1.1,0,1.6l-1.6,1.5
						C92.2,326.7,91.5,326.7,91.1,326.2"/>
					<path class="st7" d="M85.6,325.3c-0.4-0.4-0.4-1.1,0-1.6l1.6-1.5c0.4-0.4,1.1-0.4,1.6,0c0.4,0.4,0.4,1.1,0,1.6l-1.6,1.5
						C86.8,325.7,86.1,325.7,85.6,325.3"/>
					<path class="st7" d="M91.7,331.7c-0.4-0.4-0.4-1.1,0-1.6l1.6-1.5c0.4-0.4,1.1-0.4,1.6,0c0.4,0.4,0.4,1.1,0,1.6l-1.6,1.5
						C92.8,332.2,92.1,332.1,91.7,331.7"/>
					<path class="st7" d="M89.9,337.9c-0.4-0.4-0.4-1.1,0-1.6l1.6-1.5c0.4-0.4,1.1-0.4,1.6,0s0.4,1.1,0,1.6l-1.6,1.5
						C91,338.4,90.3,338.3,89.9,337.9"/>
					<path class="st7" d="M85.3,336.2c-0.4-0.4-0.4-1.1,0-1.6l1.6-1.5c0.4-0.4,1.1-0.4,1.6,0s0.4,1.1,0,1.6l-1.6,1.5
						C86.4,336.7,85.7,336.6,85.3,336.2"/>
					<path class="st7" d="M86.2,330.8c-0.4-0.4-0.4-1.1,0-1.6l1.6-1.5c0.4-0.4,1.1-0.4,1.6,0c0.4,0.4,0.4,1.1,0,1.6l-1.6,1.5
						C87.4,331.2,86.7,331.2,86.2,330.8"/>
					<path class="st7" d="M80.8,331.4c-0.4-0.4-0.4-1.1,0-1.6l1.6-1.5c0.4-0.4,1.1-0.4,1.6,0s0.4,1.1,0,1.6l-1.6,1.5
						C81.9,331.8,81.2,331.8,80.8,331.4"/>
					<path class="st7" d="M79.8,338.4c-0.4-0.4-0.4-1.1,0-1.6l1.6-1.5c0.4-0.4,1.1-0.4,1.6,0c0.4,0.4,0.4,1.1,0,1.6l-1.6,1.5
						C80.9,338.8,80.2,338.8,79.8,338.4"/>
					<path class="st7" d="M75.9,335.9c-0.4-0.4-0.4-1.1,0-1.6l1.6-1.5c0.4-0.4,1.1-0.4,1.6,0c0.4,0.4,0.4,1.1,0,1.6l-1.6,1.5
						C77,336.4,76.3,336.3,75.9,335.9"/>
					<path class="st7" d="M73.4,342.9c-0.4-0.4-0.4-1.1,0-1.6l1.6-1.5c0.4-0.4,1.1-0.4,1.6,0c0.4,0.4,0.4,1.1,0,1.6l-1.6,1.5
						C74.5,343.3,73.8,343.3,73.4,342.9"/>
					<path class="st7" d="M80.4,343.9c-0.4-0.4-0.4-1.1,0-1.6l1.6-1.5c0.4-0.4,1.1-0.4,1.6,0c0.4,0.4,0.4,1.1,0,1.6l-1.6,1.5
						C81.5,344.3,80.8,344.3,80.4,343.9"/>
				</g>
				<path class="st5" d="M102.3,341.4c-9.2-2.2-20.5,1.5-26.9,3.8c-2.4,0.9-4.5,2.3-6.5,3.8c-2.4,1.8-5.3,2.1-7.1,2.1
					c-1.8,0-3.6,0.4-5.3,1.1c-5.8,2.4-0.9,7.1-0.9,7.1c1.2,1.4,2.4,2,3.4,2.3c1.5,0.4,3-0.3,3.8-1.7l0,0c0.8-1.5,2.4-2.4,4.2-2.4
					c12.9,0.4,17.1-4.3,21.8-8.9C93.7,343.7,102.3,341.4,102.3,341.4"/>
			</g>
		</g>
	</g>
	<g>
		<g transform="translate(-1 -1)">
			<path class="st4" d="M3.4,423.4c-0.2-4,18.6-0.9,18.6-0.9s3,0.4,5.4,0.1c0.2,0.2,0.3,0.3,0.4,0.5c0.3,0.3,0.6,0.6,0.9,0.9
				c-0.1,0.1-0.1,0.2-0.2,0.2c-3,3.1-8.8,3.9-14,1.9c-0.1,0-0.1,0-0.2-0.1c-3.5-1.3-7.1-2.2-10.7-2.6L3.4,423.4z"/>
			<path class="st5" d="M4.5,405.6c0,0,5.1,3.6,10.3,4.9c4.8,1.2,9.4,2,14.7,8.5c0.7,0.9,2,1.4,3.2,1.5l0,0c1.1,0,2.2,0.6,2.6,1.4
				c0.3,0.6,0.4,1.3,0.1,2.2c0,0-0.6,3.5-4.6,1.3c-1.2-0.6-2.2-1.4-3-2.3c-0.8-0.9-2.2-2.2-4.3-2.9c-1.8-0.6-3.5-1.3-5.1-2.3
				C14.3,415.3,7.2,410.7,4.5,405.6"/>
		</g>
	</g>
</g>
<g>
	<g>
		<g>
			<path class="st4" d="M-144,473.9c1.5-1.3,3-2.6,4.5-3.9c4,6.3,7.9,12.7,11.9,19c0.4-1.1,8.9-23.4,15.1-36.2
				c4.1-8.5,12.1-21.6,12.9-21.9c-0.4,2.3-0.7,4.6-1.1,6.9c-2,4.5-3.9,9.2-5.8,14c-7.8,19.8-13.4,38.9-17.4,56.7
				c4.8-3,8.2-5.4,10.6-7.2c1.8-1.4,4.1-3.1,7.7-4.5c1.7-0.6,3.1-1,4.1-1.2c1.6,0.8,3.3,1.6,4.9,2.5c-3.3,1.5-6.8,3.2-10.4,5.3
				c-6.7,3.8-12.1,7.9-16.5,11.6c-0.3,11-0.5,22-0.8,32.9c0,0.3,0.3,3.1-2,4.9c-1.1,0.9-2.3,1.1-2.9,1.2c-0.5-0.3-1-0.7-1.5-1.2
				c-2.5-2.7-1.8-6.2-1.6-7.2c-0.1-3.1-0.1-7.9-0.1-13.7c0.1-6.6,0.3-9,0.4-13.3c0.2-10.2,0.4-16.7-1.1-23.2
				C-134,490.3-136.7,482.6-144,473.9z"/>
			<g>
				<g transform="translate(-1 -1)">
					<path class="st4" d="M-135.2,422.6c-9.7,0.7-4,33.8-4,33.8s0.6,5.3-0.3,9.8c0.4,0.2,0.7,0.5,1.1,0.7c0.7,0.4,1.4,0.9,2,1.4
						c0.2-0.1,0.4-0.3,0.6-0.4c7.7-6.2,10.4-16.9,6.1-25.9c0-0.1-0.1-0.2-0.1-0.3c-2.8-5.9-4.6-12.2-5.2-18.6L-135.2,422.6z"/>
					<path class="st5" d="M-178.1,429.3c0,0,8.2,8.2,10.7,17.2c2.3,8.4,3.9,16.4,18.9,24.3c2,1.1,3.3,3.1,3.2,5.4l0,0
						c-0.1,2,1.2,3.9,3.2,4.3c1.3,0.3,3.1,0.3,5.4-0.4c0,0,8.5-2.1,3.6-8.6c-1.4-1.9-3.2-3.5-5.3-4.7c-2.1-1.2-5.1-3.4-6.7-7
						c-1.3-3.1-2.8-6-4.9-8.6C-155.8,444.4-166.2,432.9-178.1,429.3"/>
				</g>
			</g>
			<g>
				<g transform="translate(-1 -1)">
					<path class="st4" d="M-62.2,440.1c-4.5-8.7-32.7,9.4-32.7,9.4s-4.7,2.6-9.1,3.5c-0.1,0.4-0.1,0.9-0.2,1.2
						c-0.1,0.8-0.3,1.6-0.5,2.4c0.2,0.1,0.4,0.3,0.6,0.4c8.7,4.7,19.6,3,26.2-4.4c0.1-0.1,0.1-0.1,0.2-0.2c4.4-4.8,9.4-9,15.1-12.1
						L-62.2,440.1z"/>
					<path class="st5" d="M-85.1,403.1c0,0-4.4,10.8-11.7,16.5c-6.8,5.4-13.6,10-15.1,26.8c-0.2,2.3-1.6,4.2-3.7,5l0,0
						c-1.9,0.7-3.1,2.6-2.8,4.6c0.2,1.4,0.9,3,2.5,4.8c0,0,5.2,7.1,9.3-0.1c1.2-2.1,2-4.3,2.3-6.7c0.3-2.3,1.1-6,3.9-8.9
						c2.3-2.4,4.5-4.9,6-7.9C-90.4,429.5-83.7,415.5-85.1,403.1"/>
				</g>
			</g>
			<g>
				<g transform="translate(-1 -1)">
					<path class="st4" d="M-95.8,476.2c3.8,1.3-6,17.6-6,17.6s-1.4,2.7-2.1,5c-0.2,0.1-0.4,0.2-0.6,0.2c-0.4,0.1-0.8,0.3-1.2,0.5
						c0-0.1-0.1-0.2-0.1-0.3c-1.8-3.9-0.4-9.6,3.4-13.8c0,0,0.1-0.1,0.1-0.1c2.5-2.7,4.7-5.8,6.4-9L-95.8,476.2z"/>
					<path class="st5" d="M-79.7,483.7c0,0-5.2,3.4-8.3,7.7c-2.8,4.1-5.3,8-13.3,10.6c-1.1,0.3-2,1.3-2.5,2.4l0,0
						c-0.4,1-1.4,1.9-2.3,1.9c-0.6,0-1.4-0.1-2.1-0.7c0,0-3-1.9,0.5-4.7c1-0.8,2.1-1.5,3.2-1.9c1.1-0.4,2.9-1.2,4.3-2.9
						c1.2-1.4,2.5-2.8,4-3.9C-92.3,489.3-85.4,484.4-79.7,483.7"/>
				</g>
			</g>
			<path class="st4" d="M-143.3,419.7c1.5-1.3,3-2.6,4.5-3.9c4,6.3,7.9,12.7,11.9,19c0.4-1.1,8.9-23.4,15.1-36.2
				c4.1-8.5,12.1-21.6,12.9-21.9c-0.4,2.3-0.7,4.6-1.1,6.9c-2,4.5-3.9,9.2-5.8,14c-7.8,19.8-13.4,38.9-17.4,56.7
				c4.8-3,8.2-5.4,10.6-7.2c1.8-1.4,4.1-3.1,7.7-4.5c1.7-0.6,3.1-1,4.1-1.2c1.6,0.8,3.3,1.6,4.9,2.5c-3.3,1.5-6.8,3.2-10.4,5.3
				c-6.7,3.8-12.1,7.9-16.5,11.6c-0.3,11-0.5,22-0.8,32.9c0,0.3,0.3,3.1-2,4.9c-1.1,0.9-2.3,1.1-2.9,1.2c-0.5-0.3-1-0.7-1.5-1.2
				c-2.5-2.7-1.8-6.2-1.6-7.2c-0.1-3.1-0.1-7.9-0.1-13.7c0.1-6.6,0.3-9,0.4-13.3c0.2-10.2,0.4-16.7-1.1-23.2
				C-133.3,436.1-136,428.4-143.3,419.7z"/>
		</g>
		<g>
			<g transform="translate(-1 -1)">
				<path class="st4" d="M-167.5,438.2c4.9-4.5,19.4,16.7,19.4,16.7s2.5,3.2,5.2,5.3c0,0.3-0.1,0.6-0.2,0.9
					c-0.1,0.6-0.2,1.2-0.2,1.8c-0.2,0-0.3,0-0.5,0c-6.8,0.4-13.6-4.2-16.2-11.3c0-0.1,0-0.1-0.1-0.2c-1.8-4.6-4.1-9.1-7.2-12.9
					L-167.5,438.2z"/>
				<path class="st6" d="M-142.9,460.2c-2.7-2-5.2-5.2-5.2-5.2s-8.5-12.4-14.6-16.2c-5.8-13-7.4-24.3-3.3-26.4
					c4-2.1,12.3,5.2,19.8,17c-0.7,6.3,0,12.9,0.6,17.3c0.3,2.5,1.1,4.9,2.1,7.2c0.9,2.2,0.9,4.5,0.7,6.1
					C-142.9,460.1-142.9,460.1-142.9,460.2"/>
				<g>
					<path class="st7" d="M-162.4,419.1c0.5-0.3,0.6-0.9,0.3-1.4l-1-1.9c-0.3-0.5-0.9-0.8-1.4-0.5c-0.5,0.3-0.6,0.9-0.3,1.4l1,1.9
						C-163.5,419.1-162.9,419.4-162.4,419.1"/>
					<path class="st7" d="M-157.8,421.6c0.5-0.3,0.6-0.9,0.3-1.4l-1-1.9c-0.3-0.5-0.9-0.8-1.4-0.5s-0.6,0.9-0.3,1.4l1,1.9
						C-158.9,421.7-158.3,421.9-157.8,421.6"/>
					<path class="st7" d="M-159.7,426.4c0.5-0.3,0.6-0.9,0.3-1.4l-1-1.9c-0.3-0.5-0.9-0.8-1.4-0.5s-0.6,0.9-0.3,1.4l1,1.9
						C-160.7,426.4-160.1,426.6-159.7,426.4"/>
					<path class="st7" d="M-161.5,431.1c0.5-0.3,0.6-0.9,0.3-1.4l-1-1.9c-0.3-0.5-0.9-0.8-1.4-0.5s-0.6,0.9-0.3,1.4l1,1.9
						C-162.6,431.2-162,431.4-161.5,431.1"/>
					<path class="st7" d="M-154.7,427.5c0.5-0.3,0.6-0.9,0.3-1.4l-1-1.9c-0.3-0.5-0.9-0.8-1.4-0.5s-0.6,0.9-0.3,1.4l1,1.9
						C-155.8,427.5-155.1,427.7-154.7,427.5"/>
					<path class="st7" d="M-149.5,431c0.5-0.3,0.6-0.9,0.3-1.4l-1-1.9c-0.3-0.5-0.9-0.8-1.4-0.5s-0.6,0.9-0.3,1.4l1,1.9
						C-150.6,431-150,431.2-149.5,431"/>
					<path class="st7" d="M-151.9,434.8c0.5-0.3,0.6-0.9,0.3-1.4l-1-1.9c-0.3-0.5-0.9-0.8-1.4-0.5s-0.6,0.9-0.3,1.4l1,1.9
						C-153,434.8-152.4,435-151.9,434.8"/>
					<path class="st7" d="M-156.5,432.2c0.5-0.3,0.6-0.9,0.3-1.4l-1-1.9c-0.3-0.5-0.9-0.8-1.4-0.5c-0.5,0.3-0.6,0.9-0.3,1.4l1,1.9
						C-157.6,432.3-157,432.5-156.5,432.2"/>
					<path class="st7" d="M-157,437.5c0.5-0.3,0.6-0.9,0.3-1.4l-1-1.9c-0.3-0.5-0.9-0.8-1.4-0.5c-0.5,0.3-0.6,0.9-0.3,1.4l1,1.9
						C-158.1,437.5-157.5,437.8-157,437.5"/>
					<path class="st7" d="M-151,440.6c0.5-0.3,0.6-0.9,0.3-1.4l-1-1.9c-0.3-0.5-0.9-0.8-1.4-0.5c-0.5,0.3-0.6,0.9-0.3,1.4l1,1.9
						C-152.1,440.6-151.5,440.8-151,440.6"/>
					<path class="st7" d="M-153.9,443.4c0.5-0.3,0.6-0.9,0.3-1.4l-1-1.9c-0.3-0.5-0.9-0.8-1.4-0.5c-0.5,0.3-0.6,0.9-0.3,1.4l1,1.9
						C-155,443.4-154.4,443.6-153.9,443.4"/>
					<path class="st7" d="M-148.2,447.8c0.5-0.3,0.6-0.9,0.3-1.4l-1-1.9c-0.3-0.5-0.9-0.8-1.4-0.5s-0.6,0.9-0.3,1.4l1,1.9
						C-149.3,447.9-148.7,448.1-148.2,447.8"/>
					<path class="st7" d="M-146,441.6c0.5-0.3,0.6-0.9,0.3-1.4l-1-1.9c-0.3-0.5-0.9-0.8-1.4-0.5s-0.6,0.9-0.3,1.4l1,1.9
						C-147.1,441.7-146.5,441.9-146,441.6"/>
				</g>
				<path class="st5" d="M-144,420.6c0,0,0.4,8.7,3.9,14.9c3.3,5.8,6.7,11.1,3.8,22.9c-0.4,1.6,0.1,3.4,1.3,4.6l0,0
					c1.1,1.1,1.4,2.8,0.8,4c-0.5,0.8-1.3,1.8-2.7,2.4c0,0-5.1,3.1-6.1-3c-0.3-1.8-0.3-3.6,0-5.3c0.4-1.7,0.6-4.4-0.5-7.2
					c-1-2.3-1.8-4.7-2.1-7.2C-146.6,440-147.7,428.4-144,420.6"/>
			</g>
		</g>
		<g>
			<g transform="translate(-1 -1)">
				<path class="st4" d="M-86.2,414.4c-2.9,4-6.5,7.5-10.6,10.4c-0.1,0-0.1,0.1-0.2,0.1c-6.3,4.3-8.6,12.4-5.8,19.5
					c0.1,0.2,0.1,0.3,0.2,0.5c0.6-0.1,1.2-0.2,1.9-0.1c0.3,0,0.6,0,1,0c1.1-3.3,3.5-6.6,3.5-6.6s16.4-19.8,10.2-24L-86.2,414.4z"/>
				<path class="st6" d="M-99.7,444.7c0.1,0,0.1,0,0.2,0c1.7-0.1,4-0.6,5.9-2.1c2-1.5,4.2-2.9,6.5-3.8c4.3-1.5,10.7-3.7,17.3-4.3
					c9.4-10.4,13.9-20.7,10.4-24.5c-3.6-3.8-14.4,0.3-25.5,9.2c-1.7,7.3-11.3,18.9-11.3,18.9S-98.6,441.4-99.7,444.7"/>
				<g>
					<path class="st7" d="M-65,415.3c-0.4-0.4-0.4-1.1,0-1.6l1.6-1.5c0.4-0.4,1.1-0.4,1.6,0s0.4,1.1,0,1.6l-1.6,1.5
						C-63.9,415.8-64.6,415.7-65,415.3"/>
					<path class="st7" d="M-66,420.7c-0.4-0.4-0.4-1.1,0-1.6l1.6-1.5c0.4-0.4,1.1-0.4,1.6,0c0.4,0.4,0.4,1.1,0,1.6l-1.6,1.5
						C-64.8,421.2-65.5,421.2-66,420.7"/>
					<path class="st7" d="M-71.4,419.8c-0.4-0.4-0.4-1.1,0-1.6l1.6-1.5c0.4-0.4,1.1-0.4,1.6,0c0.4,0.4,0.4,1.1,0,1.6l-1.6,1.5
						C-70.3,420.2-71,420.2-71.4,419.8"/>
					<path class="st7" d="M-76.8,418.8c-0.4-0.4-0.4-1.1,0-1.6l1.6-1.5c0.4-0.4,1.1-0.4,1.6,0c0.4,0.4,0.4,1.1,0,1.6l-1.6,1.5
						C-75.7,419.3-76.4,419.3-76.8,418.8"/>
					<path class="st7" d="M-70.8,425.3c-0.4-0.4-0.4-1.1,0-1.6l1.6-1.5c0.4-0.4,1.1-0.4,1.6,0c0.4,0.4,0.4,1.1,0,1.6l-1.6,1.5
						C-69.7,425.7-70.4,425.7-70.8,425.3"/>
					<path class="st7" d="M-72.5,431.5c-0.4-0.4-0.4-1.1,0-1.6l1.6-1.5c0.4-0.4,1.1-0.4,1.6,0s0.4,1.1,0,1.6l-1.6,1.5
						C-71.4,431.9-72.1,431.9-72.5,431.5"/>
					<path class="st7" d="M-77.2,429.8c-0.4-0.4-0.4-1.1,0-1.6l1.6-1.5c0.4-0.4,1.1-0.4,1.6,0c0.4,0.4,0.4,1.1,0,1.6l-1.6,1.5
						C-76.1,430.2-76.8,430.2-77.2,429.8"/>
					<path class="st7" d="M-76.2,424.3c-0.4-0.4-0.4-1.1,0-1.6l1.6-1.5c0.4-0.4,1.1-0.4,1.6,0c0.4,0.4,0.4,1.1,0,1.6l-1.6,1.5
						C-75.1,424.8-75.8,424.8-76.2,424.3"/>
					<path class="st7" d="M-81.7,424.9c-0.4-0.4-0.4-1.1,0-1.6l1.6-1.5c0.4-0.4,1.1-0.4,1.6,0c0.4,0.4,0.4,1.1,0,1.6l-1.6,1.5
						C-80.6,425.4-81.3,425.4-81.7,424.9"/>
					<path class="st7" d="M-82.7,431.9c-0.4-0.4-0.4-1.1,0-1.6l1.6-1.5c0.4-0.4,1.1-0.4,1.6,0c0.4,0.4,0.4,1.1,0,1.6l-1.6,1.5
						C-81.6,432.4-82.3,432.4-82.7,431.9"/>
					<path class="st7" d="M-86.6,429.5c-0.4-0.4-0.4-1.1,0-1.6l1.6-1.5c0.4-0.4,1.1-0.4,1.6,0c0.4,0.4,0.4,1.1,0,1.6l-1.6,1.5
						C-85.4,429.9-86.1,429.9-86.6,429.5"/>
					<path class="st7" d="M-89.1,436.4c-0.4-0.4-0.4-1.1,0-1.6l1.6-1.5c0.4-0.4,1.1-0.4,1.6,0c0.4,0.4,0.4,1.1,0,1.6l-1.6,1.5
						C-88,436.9-88.7,436.9-89.1,436.4"/>
					<path class="st7" d="M-82.1,437.4c-0.4-0.4-0.4-1.1,0-1.6l1.6-1.5c0.4-0.4,1.1-0.4,1.6,0c0.4,0.4,0.4,1.1,0,1.6l-1.6,1.5
						C-81,437.9-81.7,437.9-82.1,437.4"/>
				</g>
				<path class="st5" d="M-60.2,435c-9.2-2.2-20.5,1.5-26.9,3.8c-2.4,0.9-4.5,2.3-6.5,3.8c-2.4,1.8-5.3,2.1-7.1,2.1
					c-1.8,0-3.6,0.4-5.3,1.1c-5.8,2.4-0.9,7.1-0.9,7.1c1.2,1.4,2.4,2,3.4,2.3c1.5,0.4,3-0.3,3.8-1.7l0,0c0.8-1.5,2.4-2.4,4.2-2.4
					c12.9,0.4,17.1-4.3,21.8-8.9C-68.7,437.3-60.2,435-60.2,435"/>
			</g>
		</g>
	</g>
	<g>
		<g transform="translate(-1 -1)">
			<path class="st4" d="M-156.3,525c-0.2-4,18.6-0.9,18.6-0.9s3,0.4,5.4,0.1c0.2,0.2,0.3,0.3,0.4,0.5c0.3,0.3,0.6,0.6,0.9,0.9
				c-0.1,0.1-0.1,0.2-0.2,0.2c-3,3.1-8.8,3.9-14,1.9c-0.1,0-0.1,0-0.2-0.1c-3.5-1.3-7.1-2.2-10.7-2.6L-156.3,525z"/>
			<path class="st5" d="M-155.2,507.2c0,0,5.1,3.6,10.3,4.9c4.8,1.2,9.4,2,14.7,8.5c0.7,0.9,2,1.4,3.2,1.5l0,0
				c1.1,0,2.2,0.6,2.6,1.4c0.3,0.6,0.4,1.3,0.1,2.2c0,0-0.6,3.5-4.6,1.3c-1.2-0.6-2.2-1.4-3-2.3c-0.8-0.9-2.2-2.2-4.3-2.9
				c-1.8-0.6-3.5-1.3-5.1-2.3C-145.4,516.9-152.5,512.3-155.2,507.2"/>
		</g>
	</g>
</g>
<g>
	<g>
		<g>
			<path class="st4" d="M177.4,473.9c1.5-1.3,3-2.6,4.5-3.9c4,6.3,7.9,12.7,11.9,19c0.4-1.1,8.9-23.4,15.1-36.2
				c4.1-8.5,12.1-21.6,12.9-21.9c-0.4,2.3-0.7,4.6-1.1,6.9c-2,4.5-3.9,9.2-5.8,14c-7.8,19.8-13.4,38.9-17.4,56.7
				c4.8-3,8.2-5.4,10.6-7.2c1.8-1.4,4.1-3.1,7.7-4.5c1.7-0.6,3.1-1,4.1-1.2c1.6,0.8,3.3,1.6,4.9,2.5c-3.3,1.5-6.8,3.2-10.4,5.3
				c-6.7,3.8-12.1,7.9-16.5,11.6c-0.3,11-0.5,22-0.8,32.9c0,0.3,0.3,3.1-2,4.9c-1.1,0.9-2.3,1.1-2.9,1.2c-0.5-0.3-1-0.7-1.5-1.2
				c-2.5-2.7-1.8-6.2-1.6-7.2c-0.1-3.1-0.1-7.9-0.1-13.7c0.1-6.6,0.3-9,0.4-13.3c0.2-10.2,0.4-16.7-1.1-23.2
				C187.4,490.3,184.7,482.5,177.4,473.9z"/>
			<g>
				<g transform="translate(-1 -1)">
					<path class="st4" d="M186.2,422.5c-9.7,0.7-4,33.8-4,33.8s0.6,5.3-0.3,9.8c0.4,0.2,0.7,0.5,1.1,0.7c0.7,0.4,1.4,0.9,2,1.4
						c0.2-0.1,0.4-0.3,0.6-0.4c7.7-6.2,10.4-16.9,6.1-25.9c0-0.1-0.1-0.2-0.1-0.3c-2.8-5.9-4.6-12.2-5.2-18.6L186.2,422.5z"/>
					<path class="st5" d="M143.4,429.3c0,0,8.2,8.2,10.7,17.2c2.3,8.4,3.9,16.4,18.9,24.3c2,1.1,3.3,3.1,3.2,5.4l0,0
						c-0.1,2,1.2,3.9,3.2,4.3c1.3,0.3,3.1,0.3,5.4-0.4c0,0,8.5-2.1,3.6-8.6c-1.4-1.9-3.2-3.5-5.3-4.7c-2.1-1.2-5.1-3.4-6.7-7
						c-1.3-3.1-2.8-6-4.9-8.6C165.6,444.4,155.2,432.8,143.4,429.3"/>
				</g>
			</g>
			<g>
				<g transform="translate(-1 -1)">
					<path class="st4" d="M259.2,440c-4.5-8.7-32.7,9.4-32.7,9.4s-4.7,2.6-9.1,3.5c-0.1,0.4-0.1,0.9-0.2,1.2
						c-0.1,0.8-0.3,1.6-0.5,2.4c0.2,0.1,0.4,0.3,0.6,0.4c8.7,4.7,19.6,3,26.2-4.4c0.1-0.1,0.1-0.1,0.2-0.2c4.4-4.8,9.4-9,15.1-12.1
						L259.2,440z"/>
					<path class="st5" d="M236.4,403.1c0,0-4.4,10.8-11.7,16.5c-6.8,5.4-13.6,10-15.1,26.8c-0.2,2.3-1.6,4.2-3.7,5l0,0
						c-1.9,0.7-3.1,2.6-2.8,4.6c0.2,1.4,0.9,3,2.5,4.8c0,0,5.2,7.1,9.3-0.1c1.2-2.1,2-4.3,2.3-6.7c0.3-2.3,1.1-6,3.9-8.9
						c2.3-2.4,4.5-4.9,6-7.9C231.1,429.5,237.7,415.4,236.4,403.1"/>
				</g>
			</g>
			<g>
				<g transform="translate(-1 -1)">
					<path class="st4" d="M225.7,476.1c3.8,1.3-6,17.6-6,17.6s-1.4,2.7-2.1,5c-0.2,0.1-0.4,0.2-0.6,0.2c-0.4,0.1-0.8,0.3-1.2,0.5
						c0-0.1-0.1-0.2-0.1-0.3c-1.8-3.9-0.4-9.6,3.4-13.8c0,0,0.1-0.1,0.1-0.1c2.5-2.7,4.7-5.8,6.4-9L225.7,476.1z"/>
					<path class="st5" d="M241.8,483.7c0,0-5.2,3.4-8.3,7.7c-2.8,4.1-5.3,8-13.3,10.6c-1.1,0.3-2,1.3-2.5,2.4l0,0
						c-0.4,1-1.4,1.9-2.3,1.9c-0.6,0-1.4-0.1-2.1-0.7c0,0-3-1.9,0.5-4.7c1-0.8,2.1-1.5,3.2-1.9c1.1-0.4,2.9-1.2,4.3-2.9
						c1.2-1.4,2.5-2.8,4-3.9C229.2,489.2,236.1,484.3,241.8,483.7"/>
				</g>
			</g>
			<path class="st4" d="M178.2,419.7c1.5-1.3,3-2.6,4.5-3.9c4,6.3,7.9,12.7,11.9,19c0.4-1.1,8.9-23.4,15.1-36.2
				c4.1-8.5,12.1-21.6,12.9-21.9c-0.4,2.3-0.7,4.6-1.1,6.9c-2,4.5-3.9,9.2-5.8,14c-7.8,19.8-13.4,38.9-17.4,56.7
				c4.8-3,8.2-5.4,10.6-7.2c1.8-1.4,4.1-3.1,7.7-4.5c1.7-0.6,3.1-1,4.1-1.2c1.6,0.8,3.3,1.6,4.9,2.5c-3.3,1.5-6.8,3.2-10.4,5.3
				c-6.7,3.8-12.1,7.9-16.5,11.6c-0.3,11-0.5,22-0.8,32.9c0,0.3,0.3,3.1-2,4.9c-1.1,0.9-2.3,1.1-2.9,1.2c-0.5-0.3-1-0.7-1.5-1.2
				c-2.5-2.7-1.8-6.2-1.6-7.2c-0.1-3.1-0.1-7.9-0.1-13.7c0.1-6.6,0.3-9,0.4-13.3c0.2-10.2,0.4-16.7-1.1-23.2
				C188.2,436.1,185.5,428.3,178.2,419.7z"/>
		</g>
		<g>
			<g transform="translate(-1 -1)">
				<path class="st4" d="M154,438.2c4.9-4.5,19.4,16.7,19.4,16.7s2.5,3.2,5.2,5.3c0,0.3-0.1,0.6-0.2,0.9c-0.1,0.6-0.2,1.2-0.2,1.8
					c-0.2,0-0.3,0-0.5,0c-6.8,0.4-13.6-4.2-16.2-11.3c0-0.1,0-0.1-0.1-0.2c-1.8-4.6-4.1-9.1-7.2-12.9L154,438.2z"/>
				<path class="st6" d="M178.6,460.1c-2.7-2-5.2-5.2-5.2-5.2s-8.5-12.4-14.6-16.2c-5.8-13-7.4-24.3-3.3-26.4
					c4-2.1,12.3,5.2,19.8,17c-0.7,6.3,0,12.9,0.6,17.3c0.3,2.5,1.1,4.9,2.1,7.2c0.9,2.2,0.9,4.5,0.7,6.1
					C178.6,460,178.6,460.1,178.6,460.1"/>
				<g>
					<path class="st7" d="M159,419.1c0.5-0.3,0.6-0.9,0.3-1.4l-1-1.9c-0.3-0.5-0.9-0.8-1.4-0.5s-0.6,0.9-0.3,1.4l1,1.9
						C157.9,419.1,158.5,419.3,159,419.1"/>
					<path class="st7" d="M163.7,421.6c0.5-0.3,0.6-0.9,0.3-1.4l-1-1.9c-0.3-0.5-0.9-0.8-1.4-0.5s-0.6,0.9-0.3,1.4l1,1.9
						C162.6,421.6,163.2,421.8,163.7,421.6"/>
					<path class="st7" d="M161.8,426.3c0.5-0.3,0.6-0.9,0.3-1.4l-1-1.9c-0.3-0.5-0.9-0.8-1.4-0.5s-0.6,0.9-0.3,1.4l1,1.9
						C160.7,426.4,161.3,426.6,161.8,426.3"/>
					<path class="st7" d="M159.9,431.1c0.5-0.3,0.6-0.9,0.3-1.4l-1-1.9c-0.3-0.5-0.9-0.8-1.4-0.5c-0.5,0.3-0.6,0.9-0.3,1.4l1,1.9
						C158.8,431.1,159.4,431.3,159.9,431.1"/>
					<path class="st7" d="M166.8,427.4c0.5-0.3,0.6-0.9,0.3-1.4l-1-1.9c-0.3-0.5-0.9-0.8-1.4-0.5s-0.6,0.9-0.3,1.4l1,1.9
						C165.7,427.5,166.3,427.7,166.8,427.4"/>
					<path class="st7" d="M172,430.9c0.5-0.3,0.6-0.9,0.3-1.4l-1-1.9c-0.3-0.5-0.9-0.8-1.4-0.5s-0.6,0.9-0.3,1.4l1,1.9
						C170.9,431,171.5,431.2,172,430.9"/>
					<path class="st7" d="M169.6,434.7c0.5-0.3,0.6-0.9,0.3-1.4l-1-1.9c-0.3-0.5-0.9-0.8-1.4-0.5s-0.6,0.9-0.3,1.4l1,1.9
						C168.5,434.7,169.1,435,169.6,434.7"/>
					<path class="st7" d="M164.9,432.2c0.5-0.3,0.6-0.9,0.3-1.4l-1-1.9c-0.3-0.5-0.9-0.8-1.4-0.5s-0.6,0.9-0.3,1.4l1,1.9
						C163.8,432.2,164.4,432.4,164.9,432.2"/>
					<path class="st7" d="M164.4,437.5c0.5-0.3,0.6-0.9,0.3-1.4l-1-1.9c-0.3-0.5-0.9-0.8-1.4-0.5s-0.6,0.9-0.3,1.4l1,1.9
						C163.3,437.5,163.9,437.7,164.4,437.5"/>
					<path class="st7" d="M170.4,440.5c0.5-0.3,0.6-0.9,0.3-1.4l-1-1.9c-0.3-0.5-0.9-0.8-1.4-0.5s-0.6,0.9-0.3,1.4l1,1.9
						C169.4,440.5,170,440.8,170.4,440.5"/>
					<path class="st7" d="M167.5,443.3c0.5-0.3,0.6-0.9,0.3-1.4l-1-1.9c-0.3-0.5-0.9-0.8-1.4-0.5s-0.6,0.9-0.3,1.4l1,1.9
						C166.4,443.3,167.1,443.6,167.5,443.3"/>
					<path class="st7" d="M173.2,447.8c0.5-0.3,0.6-0.9,0.3-1.4l-1-1.9c-0.3-0.5-0.9-0.8-1.4-0.5s-0.6,0.9-0.3,1.4l1,1.9
						C172.1,447.8,172.7,448,173.2,447.8"/>
					<path class="st7" d="M175.4,441.6c0.5-0.3,0.6-0.9,0.3-1.4l-1-1.9c-0.3-0.5-0.9-0.8-1.4-0.5s-0.6,0.9-0.3,1.4l1,1.9
						C174.3,441.6,175,441.8,175.4,441.6"/>
				</g>
				<path class="st5" d="M177.4,420.5c0,0,0.4,8.7,3.9,14.9c3.3,5.8,6.7,11.1,3.8,22.9c-0.4,1.6,0.1,3.4,1.3,4.6l0,0
					c1.1,1.1,1.4,2.8,0.8,4c-0.5,0.8-1.3,1.8-2.7,2.4c0,0-5.1,3.1-6.1-3c-0.3-1.8-0.3-3.6,0-5.3c0.4-1.7,0.6-4.4-0.5-7.2
					c-1-2.3-1.8-4.7-2.1-7.2C174.9,440,173.7,428.4,177.4,420.5"/>
			</g>
		</g>
		<g>
			<g transform="translate(-1 -1)">
				<path class="st4" d="M235.2,414.4c-2.9,4-6.5,7.5-10.6,10.4c-0.1,0-0.1,0.1-0.2,0.1c-6.3,4.3-8.6,12.4-5.8,19.5
					c0.1,0.2,0.1,0.3,0.2,0.5c0.6-0.1,1.2-0.2,1.9-0.1c0.3,0,0.6,0,1,0c1.1-3.3,3.5-6.6,3.5-6.6s16.4-19.8,10.2-24L235.2,414.4z"/>
				<path class="st6" d="M221.7,444.6c0.1,0,0.1,0,0.2,0c1.7-0.1,4-0.6,5.9-2.1c2-1.5,4.2-2.9,6.5-3.8c4.3-1.5,10.7-3.7,17.3-4.3
					c9.4-10.4,13.9-20.7,10.4-24.5c-3.6-3.8-14.4,0.3-25.5,9.2c-1.7,7.3-11.3,18.9-11.3,18.9S222.8,441.3,221.7,444.6"/>
				<g>
					<path class="st7" d="M256.4,415.2c-0.4-0.4-0.4-1.1,0-1.6l1.6-1.5c0.4-0.4,1.1-0.4,1.6,0s0.4,1.1,0,1.6l-1.6,1.5
						C257.5,415.7,256.8,415.7,256.4,415.2"/>
					<path class="st7" d="M255.5,420.7c-0.4-0.4-0.4-1.1,0-1.6l1.6-1.5c0.4-0.4,1.1-0.4,1.6,0s0.4,1.1,0,1.6l-1.6,1.5
						C256.6,421.1,255.9,421.1,255.5,420.7"/>
					<path class="st7" d="M250,419.7c-0.4-0.4-0.4-1.1,0-1.6l1.6-1.5c0.4-0.4,1.1-0.4,1.6,0s0.4,1.1,0,1.6l-1.6,1.5
						C251.2,420.2,250.5,420.2,250,419.7"/>
					<path class="st7" d="M244.6,418.8c-0.4-0.4-0.4-1.1,0-1.6l1.6-1.5c0.4-0.4,1.1-0.4,1.6,0s0.4,1.1,0,1.6l-1.6,1.5
						C245.7,419.2,245,419.2,244.6,418.8"/>
					<path class="st7" d="M250.7,425.2c-0.4-0.4-0.4-1.1,0-1.6l1.6-1.5c0.4-0.4,1.1-0.4,1.6,0s0.4,1.1,0,1.6l-1.6,1.5
						C251.8,425.7,251.1,425.7,250.7,425.2"/>
					<path class="st7" d="M248.9,431.4c-0.4-0.4-0.4-1.1,0-1.6l1.6-1.5c0.4-0.4,1.1-0.4,1.6,0c0.4,0.4,0.4,1.1,0,1.6l-1.6,1.5
						C250,431.9,249.3,431.9,248.9,431.4"/>
					<path class="st7" d="M244.3,429.7c-0.4-0.4-0.4-1.1,0-1.6l1.6-1.5c0.4-0.4,1.1-0.4,1.6,0s0.4,1.1,0,1.6l-1.6,1.5
						C245.4,430.2,244.7,430.1,244.3,429.7"/>
					<path class="st7" d="M245.2,424.3c-0.4-0.4-0.4-1.1,0-1.6l1.6-1.5c0.4-0.4,1.1-0.4,1.6,0s0.4,1.1,0,1.6l-1.6,1.5
						C246.3,424.7,245.6,424.7,245.2,424.3"/>
					<path class="st7" d="M239.7,424.9c-0.4-0.4-0.4-1.1,0-1.6l1.6-1.5c0.4-0.4,1.1-0.4,1.6,0s0.4,1.1,0,1.6l-1.6,1.5
						C240.8,425.3,240.1,425.3,239.7,424.9"/>
					<path class="st7" d="M238.7,431.9c-0.4-0.4-0.4-1.1,0-1.6l1.6-1.5c0.4-0.4,1.1-0.4,1.6,0s0.4,1.1,0,1.6l-1.6,1.5
						C239.8,432.3,239.1,432.3,238.7,431.9"/>
					<path class="st7" d="M234.9,429.4c-0.4-0.4-0.4-1.1,0-1.6l1.6-1.5c0.4-0.4,1.1-0.4,1.6,0s0.4,1.1,0,1.6l-1.6,1.5
						C236,429.9,235.3,429.9,234.9,429.4"/>
					<path class="st7" d="M232.3,436.4c-0.4-0.4-0.4-1.1,0-1.6l1.6-1.5c0.4-0.4,1.1-0.4,1.6,0c0.4,0.4,0.4,1.1,0,1.6l-1.6,1.5
						C233.5,436.8,232.8,436.8,232.3,436.4"/>
					<path class="st7" d="M239.3,437.4c-0.4-0.4-0.4-1.1,0-1.6l1.6-1.5c0.4-0.4,1.1-0.4,1.6,0c0.4,0.4,0.4,1.1,0,1.6l-1.6,1.5
						C240.5,437.8,239.8,437.8,239.3,437.4"/>
				</g>
				<path class="st5" d="M261.3,434.9c-9.2-2.2-20.5,1.5-26.9,3.8c-2.4,0.9-4.5,2.3-6.5,3.8c-2.4,1.8-5.3,2.1-7.1,2.1
					c-1.8,0-3.6,0.4-5.3,1.1c-5.8,2.4-0.9,7.1-0.9,7.1c1.2,1.4,2.4,2,3.4,2.3c1.5,0.4,3-0.3,3.8-1.7l0,0c0.8-1.5,2.4-2.4,4.2-2.4
					c12.9,0.4,17.1-4.3,21.8-8.9C252.7,437.2,261.3,434.9,261.3,434.9"/>
			</g>
		</g>
	</g>
	<g>
		<g transform="translate(-1 -1)">
			<path class="st4" d="M163.1,516.2c-0.2-4,18.6-0.9,18.6-0.9s3,0.4,5.4,0.1c0.2,0.2,0.3,0.3,0.4,0.5c0.3,0.3,0.6,0.6,0.9,0.9
				c-0.1,0.1-0.1,0.2-0.2,0.2c-3,3.1-8.8,3.9-14,1.9c-0.1,0-0.1,0-0.2-0.1c-3.5-1.3-7.1-2.2-10.7-2.6L163.1,516.2z"/>
			<path class="st5" d="M164.2,498.5c0,0,5.1,3.6,10.3,4.9c4.8,1.2,9.4,2,14.7,8.5c0.7,0.9,2,1.4,3.2,1.5l0,0c1.1,0,2.2,0.6,2.6,1.4
				c0.3,0.6,0.4,1.3,0.1,2.2c0,0-0.6,3.5-4.6,1.3c-1.2-0.6-2.2-1.4-3-2.3c-0.8-0.9-2.2-2.2-4.3-2.9c-1.8-0.6-3.5-1.3-5.1-2.3
				C174,508.2,166.9,503.5,164.2,498.5"/>
		</g>
	</g>
	<g>
		<g transform="translate(-1 -1)">
			<path class="st4" d="M165.1,498.2c-0.2-4,18.6-0.9,18.6-0.9s3,0.4,5.4,0.1c0.2,0.2,0.3,0.3,0.4,0.5c0.3,0.3,0.6,0.6,0.9,0.9
				c-0.1,0.1-0.1,0.2-0.2,0.2c-3,3.1-8.8,3.9-14,1.9c-0.1,0-0.1,0-0.2-0.1c-3.5-1.3-7.1-2.2-10.7-2.6L165.1,498.2z"/>
			<path class="st5" d="M166.2,480.5c0,0,5.1,3.6,10.3,4.9c4.8,1.2,9.4,2,14.7,8.5c0.7,0.9,2,1.4,3.2,1.5l0,0c1.1,0,2.2,0.6,2.6,1.4
				c0.3,0.6,0.4,1.3,0.1,2.2c0,0-0.6,3.5-4.6,1.3c-1.2-0.6-2.2-1.4-3-2.3c-0.8-0.9-2.2-2.2-4.3-2.9c-1.8-0.6-3.5-1.3-5.1-2.3
				C176,490.1,168.9,485.5,166.2,480.5"/>
		</g>
	</g>
</g>
<g>
	<defs>
		<polygon id="SVGID_5_" points="-172.3,482.3 32.6,601.3 32.4,649.5 -171.8,530.9 		"/>
	</defs>
	<clipPath id="SVGID_6_">
		<use xlink:href="#SVGID_5_"  style="overflow:visible;"/>
	</clipPath>
	<g class="st8">
		<polygon class="st1" points="-172.3,456.3 32.6,575.3 32.4,623.5 -171.8,505 		"/>
		<g>
			<polygon class="st2" points="32.6,575.3 20.9,568.5 -18.3,594.1 11.6,611.4 32.5,597.9 			"/>
			<polygon class="st2" points="-151.4,468.4 -172,482.2 -171.8,505 -160.1,511.7 -121.4,485.8 			"/>
		</g>
	</g>
</g>
<g>
	<defs>
		<polygon id="SVGID_7_" points="33,575.5 237.2,456.9 237.4,505.1 32.5,624.1 		"/>
	</defs>
	<clipPath id="SVGID_8_">
		<use xlink:href="#SVGID_7_"  style="overflow:visible;"/>
	</clipPath>
	<g class="st9">
		<polygon class="st1" points="33,601.5 237.2,482.9 237.4,531.1 32.5,650.1 		"/>
		<g>
			<polygon class="st2" points="237.3,508.5 216.4,495 186.5,512.3 225.7,537.9 237.4,531.1 			"/>
			<polygon class="st2" points="83.4,620.6 44.7,594.7 33,601.5 32.8,624.2 53.4,638 			"/>
		</g>
	</g>
</g>
<text transform="matrix(0.5926 0.3431 -0.501 0.8654 -121.4651 531.7487)" class="st10 st11">Crime Scene</text>
<text transform="matrix(0.5889 -0.3413 0.5015 0.8652 71.0375 599.0359)" class="st10 st12">Do Not Cross Line</text>
</svg>
