<?xml version="1.0" encoding="utf-8"?>
<!-- Generator: Adobe Illustrator 19.0.1, SVG Export Plug-In . SVG Version: 6.00 Build 0)  -->
<svg version="1.1" id="corn" xmlns="http://www.w3.org/2000/svg" xmlns:xlink="http://www.w3.org/1999/xlink" x="0px" y="0px"
	 viewBox="0 0 50 50" style="enable-background:new 0 0 50 50;" xml:space="preserve">
<style type="text/css">
	.st0{fill:#4CAF50;}
	.st1{fill:#FEC24C;}
	.st2{fill:#BC8D2F;}
	.st3{fill:#81C784;}
</style>
<g>
	<g transform="translate(-1 -1)">
		<path class="st0" d="M40.8,22.9C35.8,19.5,26,37.6,26,37.6s-1.7,2.8-3.9,4.6c0.1,0.3,0.2,0.5,0.3,0.7c0.2,0.5,0.3,1,0.5,1.4
			c0.1,0,0.3,0,0.4,0c6.1,0,11.4-4.2,12.8-10.2c0-0.1,0-0.1,0-0.2c0.9-3.9,2.4-7.6,4.5-11L40.8,22.9z"/>
		<path class="st1" d="M22.1,42.2c2.1-1.8,3.9-4.6,3.9-4.6S31.7,27,36.6,23.5c3.3-11,3.2-20.2-0.8-21.7c-3.9-1.5-10.2,5-15.1,15
			c1.5,5.1,1.8,10.5,1.9,14.2c0.1,2-0.3,4-0.9,6c-0.5,1.9-0.2,3.7,0.2,5C22.1,42.1,22.1,42.1,22.1,42.2"/>
		<g>
			<path class="st2" d="M33.6,7.6c-0.5-0.2-0.7-0.7-0.5-1.1l0.6-1.6c0.2-0.5,0.7-0.7,1.1-0.5s0.7,0.7,0.5,1.1l-0.6,1.6
				C34.6,7.5,34.1,7.7,33.6,7.6"/>
			<path class="st2" d="M29.9,9.9c-0.5-0.2-0.7-0.7-0.5-1.1L30,7.1c0.2-0.5,0.7-0.7,1.1-0.5c0.5,0.2,0.7,0.7,0.5,1.1L31,9.4
				C30.8,9.9,30.3,10.1,29.9,9.9"/>
			<path class="st2" d="M32.2,13.7c-0.5-0.2-0.7-0.7-0.5-1.1l0.6-1.6c0.2-0.5,0.7-0.7,1.1-0.5c0.5,0.2,0.7,0.7,0.5,1.1l-0.6,1.6
				C33.2,13.6,32.6,13.8,32.2,13.7"/>
			<path class="st2" d="M34.5,17.4c-0.5-0.2-0.7-0.7-0.5-1.1l0.6-1.6c0.2-0.5,0.7-0.7,1.1-0.5s0.7,0.7,0.5,1.1l-0.6,1.6
				C35.5,17.4,35,17.6,34.5,17.4"/>
			<path class="st2" d="M27.9,14.8c-0.5-0.2-0.7-0.7-0.5-1.1l0.6-1.6c0.2-0.5,0.7-0.7,1.1-0.5c0.5,0.2,0.7,0.7,0.5,1.1l-0.6,1.6
				C28.9,14.8,28.4,15,27.9,14.8"/>
			<path class="st2" d="M23.8,18c-0.5-0.2-0.7-0.7-0.5-1.1l0.6-1.6c0.2-0.5,0.7-0.7,1.1-0.5c0.5,0.2,0.7,0.7,0.5,1.1L25,17.5
				C24.8,18,24.3,18.2,23.8,18"/>
			<path class="st2" d="M26.5,20.9c-0.5-0.2-0.7-0.7-0.5-1.1l0.6-1.6c0.2-0.5,0.7-0.7,1.1-0.5c0.5,0.2,0.7,0.7,0.5,1.1l-0.6,1.6
				C27.5,20.9,26.9,21.1,26.5,20.9"/>
			<path class="st2" d="M30.3,18.6c-0.5-0.2-0.7-0.7-0.5-1.1l0.6-1.6c0.2-0.5,0.7-0.7,1.1-0.5c0.5,0.2,0.7,0.7,0.5,1.1l-0.6,1.6
				C31.2,18.6,30.7,18.8,30.3,18.6"/>
			<path class="st2" d="M31.4,22.9c-0.5-0.2-0.7-0.7-0.5-1.1l0.6-1.6c0.2-0.5,0.7-0.7,1.1-0.5s0.7,0.7,0.5,1.1l-0.6,1.6
				C32.4,22.8,31.9,23.1,31.4,22.9"/>
			<path class="st2" d="M26.5,25.7c-0.5-0.2-0.7-0.7-0.5-1.1l0.6-1.6c0.2-0.5,0.7-0.7,1.1-0.5s0.7,0.7,0.5,1.1l-0.6,1.6
				C27.5,25.7,27,25.9,26.5,25.7"/>
			<path class="st2" d="M29.5,27.8c-0.5-0.2-0.7-0.7-0.5-1.1l0.6-1.6c0.2-0.5,0.7-0.7,1.1-0.5c0.5,0.2,0.7,0.7,0.5,1.1l-0.6,1.6
				C30.5,27.8,30,28,29.5,27.8"/>
			<path class="st2" d="M25.1,31.8c-0.5-0.2-0.7-0.7-0.5-1.1l0.6-1.6c0.2-0.5,0.7-0.7,1.1-0.5c0.5,0.2,0.7,0.7,0.5,1.1l-0.6,1.6
				C26.1,31.8,25.5,32,25.1,31.8"/>
			<path class="st2" d="M22.3,26.9c-0.5-0.2-0.7-0.7-0.5-1.1l0.6-1.6c0.2-0.5,0.7-0.7,1.1-0.5c0.5,0.2,0.7,0.7,0.5,1.1l-0.6,1.6
				C23.2,26.9,22.7,27.1,22.3,26.9"/>
		</g>
		<path class="st3" d="M17.5,9.8c0,0,0.8,7.1-1.4,12.3c-2.1,4.9-4.3,9.4-0.1,18.9c0.6,1.3,0.4,2.7-0.5,3.8l0,0
			c-0.8,0.9-0.9,2.3-0.1,3.3c0.5,0.7,1.4,1.4,2.8,1.8c0,0,4.9,2.2,5-2.8c0-1.5-0.2-2.9-0.8-4.3c-0.6-1.3-1.2-3.6-0.5-5.9
			c0.5-2,0.9-4,0.9-6C22.5,25.6,21.9,16,17.5,9.8"/>
	</g>
</g>
</svg>
