<?xml version="1.0" encoding="utf-8"?>
<!-- Generator: Adobe Illustrator 19.0.1, SVG Export Plug-In . SVG Version: 6.00 Build 0)  -->
<svg version="1.1" id="corn_x5F_grow" xmlns="http://www.w3.org/2000/svg" xmlns:xlink="http://www.w3.org/1999/xlink" x="0px"
	 y="0px" viewBox="-223 225 512 512" style="enable-background:new -223 225 512 512;" xml:space="preserve">
<style type="text/css">
	.st0{fill:#4CAF50;}
	.st1{fill:#81C784;}
</style>
<g>
	<path class="st0" d="M-136.1,520.6c0.6-0.5,1.3-1.1,1.9-1.6c1.6,2.6,3.3,5.3,4.9,7.9c0.2-0.5,3.7-9.8,6.3-15.1
		c1.7-3.5,5.1-9,5.4-9.1c-0.1,1-0.3,1.9-0.4,2.9c-0.8,1.9-1.6,3.8-2.4,5.8c-3.2,8.3-5.6,16.2-7.3,23.6c2-1.2,3.4-2.3,4.4-3
		c0.8-0.6,1.7-1.3,3.2-1.9c0.7-0.3,1.3-0.4,1.7-0.5c0.7,0.3,1.4,0.7,2.1,1c-1.4,0.6-2.8,1.3-4.3,2.2c-2.8,1.6-5.1,3.3-6.9,4.8
		c-0.1,4.6-0.2,9.1-0.3,13.7c0,0.1,0.1,1.3-0.8,2c-0.5,0.4-1,0.5-1.2,0.5c-0.2-0.1-0.4-0.3-0.6-0.5c-1-1.1-0.8-2.6-0.7-3
		c0-1.3-0.1-3.3,0-5.7c0-2.7,0.1-3.7,0.2-5.5c0.1-4.2,0.2-7-0.4-9.7C-132,527.4-133.1,524.2-136.1,520.6z"/>
	<g>
		<g transform="translate(-1 -1)">
			<path class="st0" d="M-131.9,499.8c-4.1,0.3-1.7,14.1-1.7,14.1s0.2,2.2-0.1,4.1c0.2,0.1,0.3,0.2,0.4,0.3c0.3,0.2,0.6,0.4,0.8,0.6
				c0.1-0.1,0.2-0.1,0.2-0.2c3.2-2.6,4.3-7.1,2.5-10.8c0,0,0-0.1-0.1-0.1c-1.1-2.5-1.9-5.1-2.2-7.8L-131.9,499.8z"/>
			<path class="st1" d="M-149.8,502.6c0,0,3.4,3.4,4.5,7.2c1,3.5,1.6,6.8,7.9,10.1c0.8,0.4,1.4,1.3,1.3,2.2l0,0
				c0,0.8,0.5,1.6,1.3,1.8c0.6,0.1,1.3,0.1,2.2-0.2c0,0,3.6-0.9,1.5-3.6c-0.6-0.8-1.3-1.5-2.2-2c-0.9-0.5-2.1-1.4-2.8-2.9
				c-0.5-1.3-1.2-2.5-2.1-3.6C-140.5,508.9-144.8,504.1-149.8,502.6"/>
		</g>
	</g>
	<g>
		<g transform="translate(-1 -1)">
			<path class="st0" d="M-101.5,507.1c-1.9-3.6-13.6,3.9-13.6,3.9s-2,1.1-3.8,1.4c0,0.2-0.1,0.4-0.1,0.5c0,0.3-0.1,0.7-0.2,1
				c0.1,0.1,0.2,0.1,0.3,0.2c3.6,2,8.2,1.3,10.9-1.8c0,0,0.1-0.1,0.1-0.1c1.8-2,3.9-3.7,6.3-5L-101.5,507.1z"/>
			<path class="st1" d="M-111,491.7c0,0-1.8,4.5-4.9,6.9c-2.8,2.2-5.7,4.2-6.3,11.2c-0.1,0.9-0.7,1.8-1.6,2.1l0,0
				c-0.8,0.3-1.3,1.1-1.2,1.9c0.1,0.6,0.4,1.3,1,2c0,0,2.2,2.9,3.9,0c0.5-0.9,0.8-1.8,1-2.8c0.1-1,0.5-2.5,1.6-3.7
				c1-1,1.9-2,2.5-3.3C-113.2,502.7-110.4,496.8-111,491.7"/>
		</g>
	</g>
	<g>
		<g transform="translate(-1 -1)">
			<path class="st0" d="M-115.5,522.1c1.6,0.5-2.5,7.3-2.5,7.3s-0.6,1.1-0.9,2.1c-0.1,0-0.2,0.1-0.2,0.1c-0.2,0.1-0.3,0.1-0.5,0.2
				c0,0,0-0.1-0.1-0.1c-0.7-1.6-0.2-4,1.4-5.7c0,0,0,0,0-0.1C-117.1,524.8-116.2,523.5-115.5,522.1L-115.5,522.1z"/>
			<path class="st1" d="M-108.8,525.2c0,0-2.2,1.4-3.5,3.2c-1.2,1.7-2.2,3.3-5.5,4.4c-0.4,0.1-0.9,0.5-1.1,1l0,0
				c-0.2,0.4-0.6,0.8-1,0.8c-0.3,0-0.6-0.1-0.9-0.3c0,0-1.3-0.8,0.2-2c0.4-0.3,0.9-0.6,1.4-0.8c0.5-0.2,1.2-0.5,1.8-1.2
				c0.5-0.6,1-1.2,1.7-1.6C-114,527.6-111.1,525.5-108.8,525.2"/>
		</g>
	</g>
</g>
<g>
	<path class="st0" d="M26.6,612.6c0.6-0.5,1.3-1.1,1.9-1.6c1.6,2.6,3.3,5.3,4.9,7.9c0.2-0.5,3.7-9.8,6.3-15.1c1.7-3.5,5.1-9,5.4-9.1
		c-0.1,1-0.3,1.9-0.4,2.9c-0.8,1.9-1.6,3.8-2.4,5.8c-3.2,8.3-5.6,16.2-7.3,23.6c2-1.2,3.4-2.3,4.4-3c0.8-0.6,1.7-1.3,3.2-1.9
		c0.7-0.3,1.3-0.4,1.7-0.5c0.7,0.3,1.4,0.7,2.1,1c-1.4,0.6-2.8,1.3-4.3,2.2c-2.8,1.6-5.1,3.3-6.9,4.8c-0.1,4.6-0.2,9.1-0.3,13.7
		c0,0.1,0.1,1.3-0.8,2c-0.5,0.4-1,0.5-1.2,0.5c-0.2-0.1-0.4-0.3-0.6-0.5c-1-1.1-0.8-2.6-0.7-3c0-1.3-0.1-3.3,0-5.7
		c0-2.7,0.1-3.7,0.2-5.5c0.1-4.2,0.2-7-0.4-9.7C30.8,619.4,29.7,616.2,26.6,612.6z"/>
	<g>
		<g transform="translate(-1 -1)">
			<path class="st0" d="M30.9,591.7c-4.1,0.3-1.7,14.1-1.7,14.1s0.2,2.2-0.1,4.1c0.2,0.1,0.3,0.2,0.4,0.3c0.3,0.2,0.6,0.4,0.8,0.6
				c0.1-0.1,0.2-0.1,0.2-0.2c3.2-2.6,4.3-7.1,2.5-10.8c0,0,0-0.1-0.1-0.1c-1.1-2.5-1.9-5.1-2.2-7.8L30.9,591.7z"/>
			<path class="st1" d="M13,594.6c0,0,3.4,3.4,4.5,7.2c1,3.5,1.6,6.8,7.9,10.1c0.8,0.4,1.4,1.3,1.3,2.2l0,0c0,0.8,0.5,1.6,1.3,1.8
				c0.6,0.1,1.3,0.1,2.2-0.2c0,0,3.6-0.9,1.5-3.6c-0.6-0.8-1.3-1.5-2.2-2c-0.9-0.5-2.1-1.4-2.8-2.9c-0.5-1.3-1.2-2.5-2.1-3.6
				C22.3,600.9,18,596,13,594.6"/>
		</g>
	</g>
	<g>
		<g transform="translate(-1 -1)">
			<path class="st0" d="M61.3,599c-1.9-3.6-13.6,3.9-13.6,3.9s-2,1.1-3.8,1.4c0,0.2-0.1,0.4-0.1,0.5c0,0.3-0.1,0.7-0.2,1
				c0.1,0.1,0.2,0.1,0.3,0.2c3.6,2,8.2,1.3,10.9-1.8c0,0,0.1-0.1,0.1-0.1c1.8-2,3.9-3.7,6.3-5L61.3,599z"/>
			<path class="st1" d="M51.8,583.7c0,0-1.8,4.5-4.9,6.9c-2.8,2.2-5.7,4.2-6.3,11.2c-0.1,0.9-0.7,1.8-1.6,2.1l0,0
				c-0.8,0.3-1.3,1.1-1.2,1.9c0.1,0.6,0.4,1.3,1,2c0,0,2.2,2.9,3.9,0c0.5-0.9,0.8-1.8,1-2.8c0.1-1,0.5-2.5,1.6-3.7
				c1-1,1.9-2,2.5-3.3C49.6,594.7,52.3,588.8,51.8,583.7"/>
		</g>
	</g>
	<g>
		<g transform="translate(-1 -1)">
			<path class="st0" d="M47.3,614.1c1.6,0.5-2.5,7.3-2.5,7.3s-0.6,1.1-0.9,2.1c-0.1,0-0.2,0.1-0.2,0.1c-0.2,0.1-0.3,0.1-0.5,0.2
				c0,0,0-0.1-0.1-0.1c-0.7-1.6-0.2-4,1.4-5.7c0,0,0,0,0-0.1C45.6,616.8,46.6,615.5,47.3,614.1L47.3,614.1z"/>
			<path class="st1" d="M54,617.2c0,0-2.2,1.4-3.5,3.2c-1.2,1.7-2.2,3.3-5.5,4.4c-0.4,0.1-0.9,0.5-1.1,1l0,0c-0.2,0.4-0.6,0.8-1,0.8
				c-0.3,0-0.6-0.1-0.9-0.3c0,0-1.3-0.8,0.2-2c0.4-0.3,0.9-0.6,1.4-0.8c0.5-0.2,1.2-0.5,1.8-1.2c0.5-0.6,1-1.2,1.7-1.6
				C48.8,619.5,51.7,617.5,54,617.2"/>
		</g>
	</g>
</g>
<g>
	<path class="st0" d="M28,427.3c0.6-0.5,1.3-1.1,1.9-1.6c1.6,2.6,3.3,5.3,4.9,7.9c0.2-0.5,3.7-9.8,6.3-15.1c1.7-3.5,5.1-9,5.4-9.1
		c-0.1,1-0.3,1.9-0.4,2.9c-0.8,1.9-1.6,3.8-2.4,5.8c-3.2,8.3-5.6,16.2-7.3,23.6c2-1.2,3.4-2.3,4.4-3c0.8-0.6,1.7-1.3,3.2-1.9
		c0.7-0.3,1.3-0.4,1.7-0.5c0.7,0.3,1.4,0.7,2.1,1c-1.4,0.6-2.8,1.3-4.3,2.2c-2.8,1.6-5.1,3.3-6.9,4.8c-0.1,4.6-0.2,9.1-0.3,13.7
		c0,0.1,0.1,1.3-0.8,2c-0.5,0.4-1,0.5-1.2,0.5c-0.2-0.1-0.4-0.3-0.6-0.5c-1-1.1-0.8-2.6-0.7-3c0-1.3-0.1-3.3,0-5.7
		c0-2.7,0.1-3.7,0.2-5.5c0.1-4.2,0.2-7-0.4-9.7C32.1,434.1,31,430.9,28,427.3z"/>
	<g>
		<g transform="translate(-1 -1)">
			<path class="st0" d="M32.2,406.4c-4.1,0.3-1.7,14.1-1.7,14.1s0.2,2.2-0.1,4.1c0.2,0.1,0.3,0.2,0.4,0.3c0.3,0.2,0.6,0.4,0.8,0.6
				c0.1-0.1,0.2-0.1,0.2-0.2c3.2-2.6,4.3-7.1,2.5-10.8c0,0,0-0.1-0.1-0.1c-1.1-2.5-1.9-5.1-2.2-7.8L32.2,406.4z"/>
			<path class="st1" d="M14.3,409.3c0,0,3.4,3.4,4.5,7.2c1,3.5,1.6,6.8,7.9,10.1c0.8,0.4,1.4,1.3,1.3,2.2l0,0c0,0.8,0.5,1.6,1.3,1.8
				c0.6,0.1,1.3,0.1,2.2-0.2c0,0,3.6-0.9,1.5-3.6c-0.6-0.8-1.3-1.5-2.2-2c-0.9-0.5-2.1-1.4-2.8-2.9c-0.5-1.3-1.2-2.5-2.1-3.6
				C23.6,415.6,19.3,410.7,14.3,409.3"/>
		</g>
	</g>
	<g>
		<g transform="translate(-1 -1)">
			<path class="st0" d="M62.6,413.7c-1.9-3.6-13.6,3.9-13.6,3.9s-2,1.1-3.8,1.4c0,0.2-0.1,0.4-0.1,0.5c0,0.3-0.1,0.7-0.2,1
				c0.1,0.1,0.2,0.1,0.3,0.2c3.6,2,8.2,1.3,10.9-1.8c0,0,0.1-0.1,0.1-0.1c1.8-2,3.9-3.7,6.3-5L62.6,413.7z"/>
			<path class="st1" d="M53.1,398.3c0,0-1.8,4.5-4.9,6.9c-2.8,2.2-5.7,4.2-6.3,11.2c-0.1,0.9-0.7,1.8-1.6,2.1l0,0
				c-0.8,0.3-1.3,1.1-1.2,1.9c0.1,0.6,0.4,1.3,1,2c0,0,2.2,2.9,3.9,0c0.5-0.9,0.8-1.8,1-2.8c0.1-1,0.5-2.5,1.6-3.7
				c1-1,1.9-2,2.5-3.3C50.9,409.3,53.7,403.5,53.1,398.3"/>
		</g>
	</g>
	<g>
		<g transform="translate(-1 -1)">
			<path class="st0" d="M48.6,428.8c1.6,0.5-2.5,7.3-2.5,7.3s-0.6,1.1-0.9,2.1c-0.1,0-0.2,0.1-0.2,0.1c-0.2,0.1-0.3,0.1-0.5,0.2
				c0,0,0-0.1-0.1-0.1c-0.7-1.6-0.2-4,1.4-5.7c0,0,0,0,0-0.1C47,431.5,47.9,430.2,48.6,428.8L48.6,428.8z"/>
			<path class="st1" d="M55.3,431.9c0,0-2.2,1.4-3.5,3.2c-1.2,1.7-2.2,3.3-5.5,4.4c-0.4,0.1-0.9,0.5-1.1,1l0,0
				c-0.2,0.4-0.6,0.8-1,0.8c-0.3,0-0.6-0.1-0.9-0.3c0,0-1.3-0.8,0.2-2c0.4-0.3,0.9-0.6,1.4-0.8c0.5-0.2,1.2-0.5,1.8-1.2
				c0.5-0.6,1-1.2,1.7-1.6C50.1,434.2,53,432.2,55.3,431.9"/>
		</g>
	</g>
</g>
<g>
	<path class="st0" d="M187.3,521c0.6-0.5,1.3-1.1,1.9-1.6c1.6,2.6,3.3,5.3,4.9,7.9c0.2-0.5,3.7-9.8,6.3-15.1c1.7-3.5,5.1-9,5.4-9.1
		c-0.1,1-0.3,1.9-0.4,2.9c-0.8,1.9-1.6,3.8-2.4,5.8c-3.2,8.3-5.6,16.2-7.3,23.6c2-1.2,3.4-2.3,4.4-3c0.8-0.6,1.7-1.3,3.2-1.9
		c0.7-0.3,1.3-0.4,1.7-0.5c0.7,0.3,1.4,0.7,2.1,1c-1.4,0.6-2.8,1.3-4.3,2.2c-2.8,1.6-5.1,3.3-6.9,4.8c-0.1,4.6-0.2,9.1-0.3,13.7
		c0,0.1,0.1,1.3-0.8,2c-0.5,0.4-1,0.5-1.2,0.5c-0.2-0.1-0.4-0.3-0.6-0.5c-1-1.1-0.8-2.6-0.7-3c0-1.3-0.1-3.3,0-5.7
		c0-2.7,0.1-3.7,0.2-5.5c0.1-4.2,0.2-7-0.4-9.7C191.4,527.9,190.3,524.6,187.3,521z"/>
	<g>
		<g transform="translate(-1 -1)">
			<path class="st0" d="M191.5,500.2c-4.1,0.3-1.7,14.1-1.7,14.1s0.2,2.2-0.1,4.1c0.2,0.1,0.3,0.2,0.4,0.3c0.3,0.2,0.6,0.4,0.8,0.6
				c0.1-0.1,0.2-0.1,0.2-0.2c3.2-2.6,4.3-7.1,2.5-10.8c0,0,0-0.1-0.1-0.1c-1.1-2.5-1.9-5.1-2.2-7.8L191.5,500.2z"/>
			<path class="st1" d="M173.6,503c0,0,3.4,3.4,4.5,7.2c1,3.5,1.6,6.8,7.9,10.1c0.8,0.4,1.4,1.3,1.3,2.2l0,0c0,0.8,0.5,1.6,1.3,1.8
				c0.6,0.1,1.3,0.1,2.2-0.2c0,0,3.6-0.9,1.5-3.6c-0.6-0.8-1.3-1.5-2.2-2c-0.9-0.5-2.1-1.4-2.8-2.9c-0.5-1.3-1.2-2.5-2.1-3.6
				C182.9,509.3,178.6,504.5,173.6,503"/>
		</g>
	</g>
	<g>
		<g transform="translate(-1 -1)">
			<path class="st0" d="M221.9,507.5c-1.9-3.6-13.6,3.9-13.6,3.9s-2,1.1-3.8,1.4c0,0.2-0.1,0.4-0.1,0.5c0,0.3-0.1,0.7-0.2,1
				c0.1,0.1,0.2,0.1,0.3,0.2c3.6,2,8.2,1.3,10.9-1.8c0,0,0.1-0.1,0.1-0.1c1.8-2,3.9-3.7,6.3-5L221.9,507.5z"/>
			<path class="st1" d="M212.4,492.1c0,0-1.8,4.5-4.9,6.9c-2.8,2.2-5.7,4.2-6.3,11.2c-0.1,0.9-0.7,1.8-1.6,2.1l0,0
				c-0.8,0.3-1.3,1.1-1.2,1.9c0.1,0.6,0.4,1.3,1,2c0,0,2.2,2.9,3.9,0c0.5-0.9,0.8-1.8,1-2.8c0.1-1,0.5-2.5,1.6-3.7
				c1-1,1.9-2,2.5-3.3C210.2,503.1,213,497.3,212.4,492.1"/>
		</g>
	</g>
	<g>
		<g transform="translate(-1 -1)">
			<path class="st0" d="M207.9,522.5c1.6,0.5-2.5,7.3-2.5,7.3s-0.6,1.1-0.9,2.1c-0.1,0-0.2,0.1-0.2,0.1c-0.2,0.1-0.3,0.1-0.5,0.2
				c0,0,0-0.1-0.1-0.1c-0.7-1.6-0.2-4,1.4-5.7c0,0,0,0,0-0.1C206.3,525.3,207.2,524,207.9,522.5L207.9,522.5z"/>
			<path class="st1" d="M214.6,525.7c0,0-2.2,1.4-3.5,3.2c-1.2,1.7-2.2,3.3-5.5,4.4c-0.4,0.1-0.9,0.5-1.1,1l0,0
				c-0.2,0.4-0.6,0.8-1,0.8c-0.3,0-0.6-0.1-0.9-0.3c0,0-1.3-0.8,0.2-2c0.4-0.3,0.9-0.6,1.4-0.8c0.5-0.2,1.2-0.5,1.8-1.2
				c0.5-0.6,1-1.2,1.7-1.6C209.4,528,212.3,526,214.6,525.7"/>
		</g>
	</g>
</g>
</svg>
