<?xml version="1.0" encoding="utf-8"?>
<!-- Generator: Adobe Illustrator 19.0.1, SVG Export Plug-In . SVG Version: 6.00 Build 0)  -->
<svg version="1.1" id="corn_x5F_seed" xmlns="http://www.w3.org/2000/svg" xmlns:xlink="http://www.w3.org/1999/xlink" x="0px"
	 y="0px" viewBox="-223 225 512 512" style="enable-background:new -223 225 512 512;" xml:space="preserve">
<style type="text/css">
	.st0{fill:#EDE594;}
	.st1{fill:#F2D43D;}
	.st2{fill:#EDEAD9;}
</style>
<g>
	<path class="st0" d="M-119.9,547c-0.4,1.5-1.3,2.4-3,4.1c-1.9,1.8-3.9,3.7-6.4,3.7c-3.1,0-5.2-3.1-6.4-4.7
		c-3.8-5.3-4.8-13.6-1.8-15.5c0.9-0.6,2.2-0.4,4.8,0.1c2.5,0.5,5.6,1.1,8.5,3.6C-123.4,539-118.9,542.9-119.9,547z"/>
	<path class="st1" d="M-133.2,548.3c-0.3,1-0.1,1.7,0.2,3c0.4,1.4,0.8,3,2.1,3.4c1.6,0.6,3.7-0.8,4.8-1.5c3.7-2.4,7-7,6.1-8.7
		c-0.3-0.5-1-0.6-2.5-0.8c-1.4-0.2-3.3-0.5-5.6,0.5C-128.7,544.3-132.3,545.7-133.2,548.3z"/>
	<path class="st2" d="M-127,541.6c-0.2,0.7-0.7,1.2-1.6,2c-1,0.9-2.1,1.9-3.4,1.9c-1.6,0-2.7-1.5-3.3-2.3c-1.9-2.6-2.4-6.7-0.8-7.6
		c0.5-0.3,1.2-0.2,2.5,0c1.3,0.2,2.9,0.5,4.4,1.7C-128.8,537.7-126.4,539.6-127,541.6z"/>
</g>
<g>
	<path class="st0" d="M44.3,453.3c-0.4,1.5-1.3,2.4-3,4.1c-1.9,1.8-3.9,3.7-6.4,3.7c-3.1,0-5.2-3.1-6.4-4.7
		c-3.8-5.3-4.8-13.6-1.8-15.5c0.9-0.6,2.2-0.4,4.8,0.1c2.5,0.5,5.6,1.1,8.5,3.6C40.7,445.3,45.2,449.3,44.3,453.3z"/>
	<path class="st1" d="M31,454.6c-0.3,1-0.1,1.7,0.2,3c0.4,1.4,0.8,3,2.1,3.4c1.6,0.6,3.7-0.8,4.8-1.5c3.7-2.4,7-7,6.1-8.7
		c-0.3-0.5-1-0.6-2.5-0.8c-1.4-0.2-3.3-0.5-5.6,0.5C35.4,450.6,31.8,452,31,454.6z"/>
	<path class="st2" d="M37.1,447.9c-0.2,0.7-0.7,1.2-1.6,2c-1,0.9-2.1,1.9-3.4,1.9c-1.6,0-2.7-1.5-3.3-2.3c-1.9-2.6-2.4-6.7-0.8-7.6
		c0.5-0.3,1.2-0.2,2.5,0c1.3,0.2,2.9,0.5,4.4,1.7C35.4,444,37.7,445.9,37.1,447.9z"/>
</g>
<g>
	<path class="st0" d="M41.7,639.4c-0.4,1.5-1.3,2.4-3,4.1c-1.9,1.8-3.9,3.7-6.4,3.7c-3.1,0-5.2-3.1-6.4-4.7
		c-3.8-5.3-4.8-13.6-1.8-15.5c0.9-0.6,2.2-0.4,4.8,0.1c2.5,0.5,5.6,1.1,8.5,3.6C38.1,631.4,42.7,635.4,41.7,639.4z"/>
	<path class="st1" d="M28.4,640.7c-0.3,1-0.1,1.7,0.2,3c0.4,1.4,0.8,3,2.1,3.4c1.6,0.6,3.7-0.8,4.8-1.5c3.7-2.4,7-7,6.1-8.7
		c-0.3-0.5-1-0.6-2.5-0.8c-1.4-0.2-3.3-0.5-5.6,0.5C32.9,636.7,29.3,638.1,28.4,640.7z"/>
	<path class="st2" d="M34.6,634c-0.2,0.7-0.7,1.2-1.6,2c-1,0.9-2.1,1.9-3.4,1.9c-1.6,0-2.7-1.5-3.3-2.3c-1.9-2.6-2.4-6.7-0.8-7.6
		c0.5-0.3,1.2-0.2,2.5,0c1.3,0.2,2.9,0.5,4.4,1.7C32.8,630.1,35.1,632,34.6,634z"/>
</g>
<g>
	<path class="st0" d="M204.3,546.1c-0.4,1.5-1.3,2.4-3,4.1c-1.9,1.8-3.9,3.7-6.4,3.7c-3.1,0-5.2-3.1-6.4-4.7
		c-3.8-5.3-4.8-13.6-1.8-15.5c0.9-0.6,2.2-0.4,4.8,0.1c2.5,0.5,5.6,1.1,8.5,3.6C200.7,538.1,205.2,542,204.3,546.1z"/>
	<path class="st1" d="M191,547.4c-0.3,1-0.1,1.7,0.2,3c0.4,1.4,0.8,3,2.1,3.4c1.6,0.6,3.7-0.8,4.8-1.5c3.7-2.4,7-7,6.1-8.7
		c-0.3-0.5-1-0.6-2.5-0.8c-1.4-0.2-3.3-0.5-5.6,0.5C195.5,543.4,191.8,544.8,191,547.4z"/>
	<path class="st2" d="M197.2,540.7c-0.2,0.7-0.7,1.2-1.6,2c-1,0.9-2.1,1.9-3.4,1.9c-1.6,0-2.7-1.5-3.3-2.3c-1.9-2.6-2.4-6.7-0.8-7.6
		c0.5-0.3,1.2-0.2,2.5,0c1.3,0.2,2.9,0.5,4.4,1.7C195.4,536.8,197.7,538.7,197.2,540.7z"/>
</g>
</svg>
