<?xml version="1.0" encoding="utf-8"?>
<!-- Generator: Adobe Illustrator 19.0.1, SVG Export Plug-In . SVG Version: 6.00 Build 0)  -->
<svg version="1.1" id="cupcake_x5F_grow" xmlns="http://www.w3.org/2000/svg" xmlns:xlink="http://www.w3.org/1999/xlink" x="0px"
	 y="0px" viewBox="-223 225 512 512" style="enable-background:new -223 225 512 512;" xml:space="preserve">
<style type="text/css">
	.st0{fill:#6B5B4B;}
	.st1{fill:#BFA380;}
	.st2{fill:#DD352E;}
	.st3{fill:#EFCE4A;}
	.st4{fill:#AFB9D2;}
	.st5{fill:#959CB3;}
	.st6{fill:#707487;}
	.st7{fill:#FFD764;}
	.st8{fill:#E4EAF6;}
	.st9{fill:#FFE678;}
	.st10{fill:#FFF08C;}
	.st11{fill:#FFBE5A;}
</style>
<g>
	<rect x="-90.7" y="510.6" class="st0" width="21.2" height="23.2"/>
	<rect x="133.7" y="510.6" class="st0" width="21.2" height="23.2"/>
	<rect x="-86.5" y="533.8" class="st1" width="12.7" height="111.2"/>
	<rect x="138" y="533.8" class="st1" width="12.7" height="111.2"/>
	<path class="st2" d="M-73.7,492.1c0,0.4,122.8,64.9,122.8,64.9l93.2-64.9H-73.7z"/>
	<g>
		<polygon class="st1" points="142.2,492.1 115.6,510.6 154.9,510.6 154.9,492.1 		"/>
		<path class="st1" d="M-73.7,492.1h-16.9v18.5H-39C-58.6,500.2-73.7,492.2-73.7,492.1z"/>
	</g>
	<path class="st3" d="M108.9,492.1H-30.2c35.3,18.6,79.3,41.7,79.3,41.7L108.9,492.1z"/>
</g>
<g>
	<path class="st4" d="M109.4,492.9H-38.7c-3,0-5.5-2.5-5.5-5.5V366.7c0-3,2.5-5.5,5.5-5.5h148.1c3,0,5.5,2.5,5.5,5.5v120.7
		C114.9,490.4,112.5,492.9,109.4,492.9z"/>
	<rect x="-16.8" y="361.2" class="st5" width="104.2" height="27.4"/>
	<g>
		<path class="st6" d="M103.9,481.9H-33.2c-3,0-5.5-2.5-5.5-5.5v-82.3c0-3,2.5-5.5,5.5-5.5h137.1c3,0,5.5,2.5,5.5,5.5v82.3
			C109.4,479.4,107,481.9,103.9,481.9z"/>
		<circle class="st6" cx="2.4" cy="374.9" r="8.2"/>
	</g>
	<path class="st7" d="M95.7,470.9H-25c-1.5,0-2.7-1.2-2.7-2.7v-54.9c0-1.5,1.2-2.7,2.7-2.7H95.7c1.5,0,2.7,1.2,2.7,2.7v54.9
		C98.4,469.7,97.2,470.9,95.7,470.9z"/>
	<path class="st8" d="M95.7,405.1H-25c-1.5,0-2.7-1.2-2.7-2.7s1.2-2.7,2.7-2.7H95.7c1.5,0,2.7,1.2,2.7,2.7S97.2,405.1,95.7,405.1z"
		/>
	<path class="st7" d="M51.8,380.4H18.9c-1.5,0-2.7-1.2-2.7-2.7v-5.5c0-1.5,1.2-2.7,2.7-2.7h32.9c1.5,0,2.7,1.2,2.7,2.7v5.5
		C54.6,379.2,53.3,380.4,51.8,380.4z"/>
	<g>
		<path class="st9" d="M32.3,452.1c-0.7,0-1.4-0.3-1.9-0.8l-27-27c-1.1-1.1-1.1-2.8,0-3.9c1.1-1.1,2.8-1.1,3.9,0l27,27
			c1.1,1.1,1.1,2.8,0,3.9C33.7,451.8,33,452.1,32.3,452.1z"/>
		<path class="st9" d="M62.8,466.8c-0.7,0-1.4-0.3-1.9-0.8l-15.1-15.1c-1.1-1.1-1.1-2.8,0-3.9c1.1-1.1,2.8-1.1,3.9,0l15.1,15.1
			c1.1,1.1,1.1,2.8,0,3.9C64.2,466.5,63.5,466.8,62.8,466.8z"/>
	</g>
	<path class="st10" d="M39.5,443.5c-0.7,0-1.4-0.3-1.9-0.8l-6.2-6.2c-1.1-1.1-1.1-2.8,0-3.9c1.1-1.1,2.8-1.1,3.9,0l6.2,6.2
		c1.1,1.1,1.1,2.8,0,3.9C40.9,443.2,40.2,443.5,39.5,443.5z"/>
	<path class="st11" d="M95.7,410.6H-25c-1.5,0-2.7,1.2-2.7,2.7v5.5c0-1.5,1.2-2.7,2.7-2.7H95.7c1.5,0,2.7,1.2,2.7,2.7v-5.5
		C98.4,411.8,97.2,410.6,95.7,410.6z"/>
	<path class="st4" d="M7.9,383.1c-0.7,0-1.4-0.3-1.9-0.8l-11-11c-1.1-1.1-1.1-2.8,0-3.9c1.1-1.1,2.8-1.1,3.9,0l11,11
		c1.1,1.1,1.1,2.8,0,3.9C9.3,382.9,8.6,383.1,7.9,383.1z"/>
	<circle class="st6" cx="68.3" cy="374.9" r="8.2"/>
	<path class="st4" d="M73.8,383.1c-0.7,0-1.4-0.3-1.9-0.8l-11-11c-1.1-1.1-1.1-2.8,0-3.9c1.1-1.1,2.8-1.1,3.9,0l11,11
		c1.1,1.1,1.1,2.8,0,3.9C75.2,382.9,74.5,383.1,73.8,383.1z"/>
</g>
</svg>
