<?xml version="1.0" encoding="utf-8"?>
<!-- Generator: Adobe Illustrator 19.0.1, SVG Export Plug-In . SVG Version: 6.00 Build 0)  -->
<svg version="1.1" id="cupcake_x5F_warn" xmlns="http://www.w3.org/2000/svg" xmlns:xlink="http://www.w3.org/1999/xlink" x="0px"
	 y="0px" viewBox="-223 225 512 512" style="enable-background:new -223 225 512 512;" xml:space="preserve">
<style type="text/css">
	.st0{clip-path:url(#SVGID_2_);}
	.st1{fill:#FBD303;}
	.st2{fill:#646B79;}
	.st3{clip-path:url(#SVGID_4_);}
	.st4{fill:#6B5B4B;}
	.st5{fill:#BFA380;}
	.st6{fill:#DD352E;}
	.st7{fill:#EFCE4A;}
	.st8{fill:#AFB9D2;}
	.st9{fill:#959CB3;}
	.st10{fill:#707487;}
	.st11{fill:#D87D2B;}
	.st12{fill:#E4EAF6;}
	.st13{fill:#E27C20;}
	.st14{fill:#EABA96;}
	.st15{fill:#FF9BA9;}
	.st16{fill:#FF8B9B;}
	.st17{clip-path:url(#SVGID_6_);}
	.st18{clip-path:url(#SVGID_8_);}
	.st19{font-family:'Arial-Black';}
	.st20{font-size:21.0661px;}
	.st21{font-size:20.1175px;}
</style>
<g>
	<defs>
		<polygon id="SVGID_1_" points="33.4,374.8 238.3,493.8 238.1,542 33.9,423.5 		"/>
	</defs>
	<clipPath id="SVGID_2_">
		<use xlink:href="#SVGID_1_"  style="overflow:visible;"/>
	</clipPath>
	<g class="st0">
		<polygon class="st1" points="33.4,348.8 238.3,467.8 238.1,516 33.9,397.5 		"/>
		<g>
			<polygon class="st2" points="238.3,467.8 226.6,461 187.4,486.6 217.3,504 238.2,490.5 			"/>
			<polygon class="st2" points="160.1,470.7 130.2,453.4 169.1,427.7 199.2,445.1 			"/>
			<polygon class="st2" points="102.8,437.5 72.9,420.1 111.7,394.3 141.7,411.7 			"/>
			<polygon class="st2" points="54.2,361 33.7,374.7 33.9,397.5 45.6,404.3 84.2,378.4 			"/>
		</g>
	</g>
</g>
<g>
	<defs>
		<polygon id="SVGID_3_" points="-170.9,468 33.3,349.4 33.5,397.6 -171.4,516.6 		"/>
	</defs>
	<clipPath id="SVGID_4_">
		<use xlink:href="#SVGID_3_"  style="overflow:visible;"/>
	</clipPath>
	<g class="st3">
		<polygon class="st1" points="-170.9,494 33.3,375.4 33.5,423.6 -171.4,542.6 		"/>
		<g>
			<polygon class="st2" points="33.4,401 12.5,387.5 -17.4,404.9 21.8,430.4 33.5,423.6 			"/>
			<polygon class="st2" points="-5.6,446.4 -35.7,463.8 -74.6,438.1 -44.7,420.7 			"/>
			<polygon class="st2" points="-63.1,479.7 -93.1,497.1 -131.9,471.3 -102,454 			"/>
			<polygon class="st2" points="-120.6,513.1 -159.2,487.2 -170.9,494 -171.1,516.7 -150.6,530.5 			"/>
		</g>
	</g>
</g>
<g>
	<rect x="-89.8" y="508.8" class="st4" width="21.2" height="23.2"/>
	<rect x="134.6" y="508.8" class="st4" width="21.2" height="23.2"/>
	<rect x="-85.6" y="532" class="st5" width="12.7" height="111.2"/>
	<rect x="138.9" y="532" class="st5" width="12.7" height="111.2"/>
	<path class="st6" d="M-72.9,490.3c0,0.4,122.8,64.9,122.8,64.9l93.2-64.9H-72.9z"/>
	<g>
		<polygon class="st5" points="143.1,490.3 116.5,508.8 155.8,508.8 155.8,490.3 		"/>
		<path class="st5" d="M-72.9,490.3h-16.9v18.5h51.7C-57.7,498.5-72.9,490.4-72.9,490.3z"/>
	</g>
	<path class="st7" d="M109.8,490.3H-29.3C6,508.9,49.9,532,49.9,532L109.8,490.3z"/>
</g>
<g>
	<path class="st8" d="M55.1,490.4H-77.6c-2.7,0-4.9-2.2-4.9-4.9V377.4c0-2.7,2.2-4.9,4.9-4.9H55.1c2.7,0,4.9,2.2,4.9,4.9v108.1
		C60.1,488.2,57.9,490.4,55.1,490.4z"/>
	<rect x="-57.9" y="372.5" class="st9" width="93.4" height="24.6"/>
	<g>
		<path class="st10" d="M50.2,480.6H-72.6c-2.7,0-4.9-2.2-4.9-4.9v-73.7c0-2.7,2.2-4.9,4.9-4.9H50.2c2.7,0,4.9,2.2,4.9,4.9v73.7
			C55.1,478.4,52.9,480.6,50.2,480.6z"/>
		<circle class="st10" cx="-40.7" cy="384.7" r="7.4"/>
	</g>
	<path class="st11" d="M42.9,470.8H-65.3c-1.4,0-2.5-1.1-2.5-2.5v-49.1c0-1.4,1.1-2.5,2.5-2.5H42.9c1.4,0,2.5,1.1,2.5,2.5v49.1
		C45.3,469.7,44.2,470.8,42.9,470.8z"/>
	<path class="st12" d="M42.9,411.8H-65.3c-1.4,0-2.5-1.1-2.5-2.5c0-1.4,1.1-2.5,2.5-2.5H42.9c1.4,0,2.5,1.1,2.5,2.5
		C45.3,410.7,44.2,411.8,42.9,411.8z"/>
	<path class="st13" d="M3.5,389.7h-29.5c-1.4,0-2.5-1.1-2.5-2.5v-4.9c0-1.4,1.1-2.5,2.5-2.5H3.5c1.4,0,2.5,1.1,2.5,2.5v4.9
		C6,388.6,4.9,389.7,3.5,389.7z"/>
	<g>
		<path class="st14" d="M-14,453.9c-0.6,0-1.3-0.2-1.7-0.7l-24.2-24.2c-1-1-1-2.5,0-3.5c1-1,2.5-1,3.5,0l24.2,24.2c1,1,1,2.5,0,3.5
			C-12.7,453.6-13.3,453.9-14,453.9z"/>
		<path class="st14" d="M13.4,467.1c-0.6,0-1.3-0.2-1.7-0.7l-13.5-13.5c-1-1-1-2.5,0-3.5c1-1,2.5-1,3.5,0l13.5,13.5c1,1,1,2.5,0,3.5
			C14.6,466.8,14,467.1,13.4,467.1z"/>
	</g>
	<path class="st14" d="M-7.5,446.2c-0.6,0-1.3-0.2-1.7-0.7l-5.5-5.5c-1-1-1-2.5,0-3.5c1-1,2.5-1,3.5,0l5.5,5.5c1,1,1,2.5,0,3.5
		C-6.2,445.9-6.9,446.2-7.5,446.2z"/>
	<path class="st14" d="M42.9,416.7H-65.3c-1.4,0-2.5,1.1-2.5,2.5v4.9c0-1.4,1.1-2.5,2.5-2.5H42.9c1.4,0,2.5,1.1,2.5,2.5v-4.9
		C45.3,417.8,44.2,416.7,42.9,416.7z"/>
	<path class="st8" d="M-47.9,389.9c0-0.6,0.2-1.3,0.7-1.8l9.5-10.2c0.9-1,2.5-1,3.5-0.1c1,0.9,1,2.5,0.1,3.5l-9.5,10.2
		c-0.9,1-2.5,1-3.5,0.1C-47.6,391.2-47.9,390.5-47.9,389.9z"/>
	<circle class="st10" cx="18.3" cy="384.7" r="7.4"/>
	<path class="st8" d="M10.9,389.7c0-0.6,0.2-1.3,0.7-1.7l9.8-9.9c1-1,2.5-1,3.5,0c1,1,1,2.5,0,3.5l-9.8,9.9c-1,1-2.5,1-3.5,0
		C11.2,391,11,390.3,10.9,389.7z"/>
</g>
<g>
	<path class="st15" d="M95.7,363.1c-4.6,1.2-6.9,5.4-7,9.9l-0.2,11.7c-0.1,4-4.9,5.9-7.7,3.1l-24.7-25.4c-11.7-12-31.6-9.6-40.2,4.8
		l-8.8,15c-6.6,11.1-4.9,25.3,4.1,34.5l21,21.6c8.3,8.6,17.7,16.1,27.9,22.4l4.8,3c8.8,5.5,17,12,24.2,19.5l5.6,5.8l43.3-42.2
		l-33-78.3C103.9,364.5,99.8,362,95.7,363.1z"/>
	<path class="st16" d="M88.3,482.1c0.3,0.3,0.7,0.7,1,1l5.6,5.8l43.3-42.2l-4-9.4L88.3,482.1L88.3,482.1z"/>
	<path class="st15" d="M153.9,462.7l-43.3,42.2c-1.3,1.2-3.3,1.2-4.5-0.1l-13.3-13.7c-1.2-1.3-1.2-3.3,0.1-4.5l43.3-42.2
		c1.3-1.2,3.3-1.2,4.5,0.1l13.3,13.7C155.1,459.5,155.1,461.5,153.9,462.7z"/>
	<g>
		
			<rect x="87.7" y="469.2" transform="matrix(-0.7168 0.6973 -0.6973 -0.7168 537.2851 726.5083)" class="st16" width="66.8" height="6.4"/>
		<path class="st16" d="M15,391.2l10.4-19.7c3.9-7.3,9.6-13,15.9-16.6c-9.7-1.3-19.8,3-25.3,12.3l-8.8,15
			c-6.4,10.8-4.9,24.4,3.4,33.7C9.2,408.3,10.6,399.5,15,391.2z"/>
		<path class="st16" d="M95.7,363.1c-4.6,1.2-6.9,5.4-7,9.9l0,3.3c3.7-4.2,10-7.9,17.8-5.1l-1.2-2.8
			C103.9,364.5,99.8,362,95.7,363.1z"/>
	</g>
	<g>
	</g>
	<g>
	</g>
	<g>
	</g>
	<g>
	</g>
	<g>
	</g>
	<g>
	</g>
	<g>
	</g>
	<g>
	</g>
	<g>
	</g>
	<g>
	</g>
	<g>
	</g>
	<g>
	</g>
	<g>
	</g>
	<g>
	</g>
	<g>
	</g>
</g>
<g>
	<defs>
		<polygon id="SVGID_5_" points="-171.3,494.5 33.6,613.5 33.3,661.7 -170.8,543.1 		"/>
	</defs>
	<clipPath id="SVGID_6_">
		<use xlink:href="#SVGID_5_"  style="overflow:visible;"/>
	</clipPath>
	<g class="st17">
		<polygon class="st1" points="-171.4,468.5 33.6,587.5 33.3,635.7 -170.8,517.1 		"/>
		<g>
			<polygon class="st2" points="33.6,587.5 21.9,580.7 -17.3,606.3 12.6,623.6 33.5,610.1 			"/>
			<polygon class="st2" points="-150.5,480.6 -171.1,494.4 -170.8,517.1 -159.1,523.9 -120.5,498 			"/>
		</g>
	</g>
</g>
<g>
	<defs>
		<polygon id="SVGID_7_" points="34,587.6 238.1,469.1 238.4,517.3 33.4,636.3 		"/>
	</defs>
	<clipPath id="SVGID_8_">
		<use xlink:href="#SVGID_7_"  style="overflow:visible;"/>
	</clipPath>
	<g class="st18">
		<polygon class="st1" points="34,613.6 238.1,495.1 238.4,543.3 33.4,662.3 		"/>
		<g>
			<polygon class="st2" points="238.3,520.7 217.4,507.2 187.5,524.5 226.7,550.1 238.4,543.3 			"/>
			<polygon class="st2" points="84.3,632.7 45.7,606.9 34,613.6 33.7,636.4 54.3,650.2 			"/>
		</g>
	</g>
</g>
<text transform="matrix(0.5926 0.3431 -0.501 0.8654 -120.5214 543.9409)" class="st19 st20">Crime Scene</text>
<text transform="matrix(0.5889 -0.3413 0.5015 0.8652 71.9812 611.2281)" class="st19 st21">Do Not Cross Line</text>
</svg>
