<?xml version="1.0" encoding="utf-8"?>
<!-- Generator: Adobe Illustrator 19.0.1, SVG Export Plug-In . SVG Version: 6.00 Build 0)  -->
<svg version="1.1" id="cupcake" xmlns="http://www.w3.org/2000/svg" xmlns:xlink="http://www.w3.org/1999/xlink" x="0px" y="0px"
	 viewBox="0 0 50 50" style="enable-background:new 0 0 50 50;" xml:space="preserve">
<style type="text/css">
	.st0{fill:#F75B57;}
	.st1{fill:#F98282;}
	.st2{fill:#A46F3E;}
	.st3{fill:#C18B5F;}
	.st4{fill:#FFF5BB;}
	.st5{fill:#6A3311;}
	.st6{fill:#F9DA49;}
</style>
<g>
	<g>
		<path class="st0" d="M8.9,18.5c-3-3-3.4-7.5-0.8-10.1l0.8-0.8C11.4,5.1,16,5.4,19,8.4c2.8,2.8,2.8,7.3,0,10.1S11.7,21.3,8.9,18.5z
			"/>
		<path class="st1" d="M12.6,11c-0.9,0-1.8-0.4-2.5-1.1c-0.3-0.3-0.3-0.9,0-1.2c0.3-0.3,0.9-0.3,1.2,0c0.7,0.7,1.9,0.7,2.7,0
			c0.3-0.3,0.9-0.3,1.2,0c0.3,0.3,0.3,0.9,0,1.2C14.4,10.7,13.5,11,12.6,11z"/>
		<path class="st2" d="M7.3,30.4l3.8,9.4c2.5,4.6,4.6,5.9,9.5,7.7c3.2,1.2,9.3,1.2,12.5,0c4.9-1.9,6.9-3.1,9.4-7.7l3.9-9.5
			c-2.2-2.1-5.7,0.2-7.8,2.4c-2.2-2.1-5.6-0.6-7.8,1.5c-2.2-2.1-5.6-2.1-7.8,0c-2.2-2.1-5.7-3.7-7.9-1.5C13,30.6,9.5,28.2,7.3,30.4z
			"/>
		<path class="st3" d="M18.3,43.2c-0.3,0-0.6-0.2-0.8-0.5l-2.3-5c-0.2-0.4,0-0.9,0.4-1.1c0.4-0.2,0.9,0,1.1,0.4l2.3,5
			c0.2,0.4,0,0.9-0.4,1.1C18.5,43.2,18.4,43.2,18.3,43.2z"/>
		<path class="st3" d="M35.5,43.2c-0.1,0-0.2,0-0.4-0.1c-0.4-0.2-0.6-0.7-0.4-1.1l2.3-5c0.2-0.4,0.7-0.6,1.1-0.4
			c0.4,0.2,0.6,0.7,0.4,1.1l-2.3,5C36.1,43,35.8,43.2,35.5,43.2z"/>
		<path class="st3" d="M30,45c0,0-0.1,0-0.1,0c-0.5-0.1-0.8-0.5-0.7-1l0.8-5c0.1-0.5,0.5-0.8,1-0.7c0.5,0.1,0.8,0.5,0.7,1l-0.8,5
			C30.8,44.7,30.5,45,30,45z"/>
		<path class="st3" d="M23.8,45c-0.4,0-0.8-0.3-0.8-0.7l-0.8-5c-0.1-0.5,0.2-0.9,0.7-1c0.5-0.1,0.9,0.2,1,0.7l0.8,5
			c0.1,0.5-0.2,0.9-0.7,1C23.9,45,23.8,45,23.8,45z"/>
		<path class="st4" d="M43.8,23c0.1-0.4,0.2-0.9,0.2-1.3c0-2.4-1.9-4.5-4.9-6.1c0,0,0.1-13.6-11-12.5c0,0,3.6,5.8-1.4,5.8
			C24.3,9,22,9.3,20,9.8c1.6,2.7,1.3,6.3-1.1,8.7c-2.4,2.4-6.2,2.7-9,0.9c-0.4,0.7-0.6,1.5-0.6,2.3c0,0.4,0.1,0.9,0.2,1.3
			c-2,1.5-3.2,3.3-3.2,5.2c0,1.3,0.5,2.5,1.5,3.7l-0.6-1.4c2.2-2.1,5.7,0.2,7.9,2.4c2.2-2.1,5.7-0.6,7.9,1.5c2.2-2.1,5.6-2.1,7.8,0
			c2.2-2.1,5.6-3.7,7.8-1.5c2.2-2.1,5.6-4.5,7.8-2.4c0.4-0.7,0.6-1.5,0.6-2.2C47,26.2,45.9,24.5,43.8,23z"/>
		<path class="st5" d="M12.3,8.5c-0.4,0-0.8-0.3-0.8-0.8c0,0-0.2-2.1-1.9-3.3C8.3,3.3,6.4,3,4,3.4C3.5,3.4,3.1,3.1,3,2.7
			c-0.1-0.5,0.2-0.9,0.7-1c2.9-0.4,5.3,0,7,1.4c2.2,1.8,2.5,4.4,2.5,4.5C13.2,8,12.9,8.4,12.3,8.5C12.4,8.5,12.3,8.5,12.3,8.5z"/>
		<path class="st6" d="M26.9,18.6c-0.5,0-0.8-0.4-0.8-0.8s0.4-0.8,0.8-0.8c3.5,0,6.8-0.4,9.6-1.3c0.4-0.1,0.9,0.1,1.1,0.6
			c0.1,0.4-0.1,0.9-0.6,1.1C34.1,18.2,30.6,18.6,26.9,18.6z"/>
		<path class="st6" d="M14.3,26.2c-0.1,0-0.2,0-0.3-0.1c-0.9-0.3-1.9-0.7-2.7-1.2c-0.4-0.2-0.6-0.7-0.4-1.1c0.2-0.4,0.7-0.6,1.1-0.4
			c0.8,0.4,1.6,0.8,2.5,1.1c0.4,0.2,0.7,0.6,0.5,1.1C15,26,14.7,26.2,14.3,26.2z"/>
		<path class="st6" d="M26.7,28.2c-1.7,0-3.5-0.1-5.2-0.3c-0.5-0.1-0.8-0.5-0.7-0.9c0.1-0.5,0.5-0.8,0.9-0.7
			c3.4,0.4,6.9,0.4,10.4-0.1c0.5-0.1,0.9,0.3,1,0.7c0.1,0.5-0.3,0.9-0.7,1C30.5,28.1,28.6,28.2,26.7,28.2z"/>
		<path class="st6" d="M37,26.9c-0.4,0-0.7-0.2-0.8-0.6c-0.1-0.5,0.1-0.9,0.6-1c1.8-0.5,3.3-1.1,4.7-1.8c0.4-0.2,0.9-0.1,1.1,0.4
			c0.2,0.4,0.1,0.9-0.4,1.1c-1.4,0.8-3.1,1.4-5,1.9C37.1,26.9,37,26.9,37,26.9z"/>
	</g>
	<g>
	</g>
	<g>
	</g>
	<g>
	</g>
	<g>
	</g>
	<g>
	</g>
	<g>
	</g>
	<g>
	</g>
	<g>
	</g>
	<g>
	</g>
	<g>
	</g>
	<g>
	</g>
	<g>
	</g>
	<g>
	</g>
	<g>
	</g>
	<g>
	</g>
</g>
</svg>
