<?xml version="1.0" encoding="utf-8"?>
<!-- Generator: Adobe Illustrator 19.0.1, SVG Export Plug-In . SVG Version: 6.00 Build 0)  -->
<svg version="1.1" id="doughnut" xmlns="http://www.w3.org/2000/svg" xmlns:xlink="http://www.w3.org/1999/xlink" x="0px" y="0px"
	 viewBox="0 0 50 50" style="enable-background:new 0 0 50 50;" xml:space="preserve">
<style type="text/css">
	.st0{fill:#E89C25;}
	.st1{fill:#F8BEB6;}
	.st2{fill:#EBAB45;}
	.st3{fill:#FACEC8;}
	.st4{fill:#E4776E;}
	.st5{fill:#51B8DA;}
	.st6{fill:#75C9BA;}
	.st7{fill:#F4F4F4;}
	.st8{fill:#D08C21;}
	.st9{fill:#D69022;}
	.st10{fill:#64AB9E;}
	.st11{fill:#459DBA;}
	.st12{fill:#D3D3D3;}
	.st13{fill:#C5675F;}
	.st14{fill:#DFABA3;}
	.st15{fill:#BB7E1E;}
</style>
<g>
	<path class="st0" d="M25,1.4C12,1.4,1.4,12,1.4,25S12,48.6,25,48.6S48.6,38,48.6,25S38,1.4,25,1.4z M25,32.6
		c-4.2,0-7.6-3.4-7.6-7.6c0-4.2,3.4-7.6,7.6-7.6s7.6,3.4,7.6,7.6C32.6,29.2,29.2,32.6,25,32.6z"/>
	<path class="st1" d="M25,1.4C12,1.4,1.4,12,1.4,25c0,1.5,0.2,3.1,0.4,4.5c1.5,0.7,3.3,1.3,4.8,3.5c3.3,4.8,7.4-1.3,7.6-4.7
		c0.1-2.4,2.1-3.3,3.3-3.6c0.2-4,3.5-7.3,7.5-7.3c4.2,0,7.6,3.4,7.6,7.6c0,0.9-0.2,1.8-0.5,2.6c1.5,0.5,3.1-0.6,3.3-1.7
		c0.4-2,2.1-3.7,6.6,2.8c3,4.3,5.4-0.4,6.6-3.4l0-0.4C48.6,12,38,1.4,25,1.4L25,1.4z"/>
	<path class="st2" d="M25,37.2c-3.2,0-6.5-1.6-8.5-4.2c1.6,3.3,4.8,5.7,8.5,5.7c3.7,0,6.9-2.4,8.5-5.7C31.5,35.5,28.2,37.2,25,37.2
		L25,37.2z"/>
	<path class="st3" d="M25,6c5.9,0,11.8,2.8,15.6,7.1c-3.1-5.4-8.9-9-15.6-9c-6.7,0-12.5,3.6-15.6,9C13.2,8.8,19.1,6,25,6L25,6z"/>
	<path class="st4" d="M9.8,27.4c-0.3-0.4-0.8-0.6-1.3-0.3c-0.4,0.3-0.6,0.8-0.3,1.3l1.4,2.4c0.3,0.4,0.8,0.6,1.3,0.3
		s0.6-0.8,0.3-1.3L9.8,27.4z M20.7,3.9c-0.1-0.5-0.6-0.7-1.1-0.6L17.1,4c-0.5,0.1-0.7,0.6-0.6,1c0.1,0.5,0.6,0.7,1.1,0.6L20.1,5
		C20.6,4.8,20.8,4.4,20.7,3.9z"/>
	<path class="st5" d="M17.1,10.9l-2.8,0.7c-0.5,0.1-0.8,0.7-0.7,1.3c0.2,0.6,0.7,0.9,1.2,0.8l2.8-0.7c0.5-0.1,0.8-0.7,0.7-1.3
		C18.2,11.1,17.7,10.7,17.1,10.9z M37.7,14.6c0-0.5-0.4-0.9-0.9-0.9c-0.5,0-0.9,0.4-0.9,0.9l0,2.8c0,0.5,0.4,0.9,0.9,0.9
		c0.5,0,0.9-0.4,0.9-0.9L37.7,14.6L37.7,14.6z"/>
	<path class="st6" d="M46.2,21.9l-0.8-2.8c-0.1-0.5-0.7-0.8-1.2-0.7c-0.5,0.1-0.9,0.7-0.7,1.2l0.8,2.8c0.1,0.5,0.7,0.8,1.2,0.7
		C46,22.9,46.3,22.4,46.2,21.9z M6.8,10.1C6.3,9.9,5.7,10,5.5,10.5L4.1,13c-0.3,0.5-0.1,1.1,0.4,1.4s1.1,0.1,1.3-0.3l1.4-2.5
		C7.5,11,7.3,10.4,6.8,10.1z M29.3,10l-2.4,1.4c-0.4,0.3-0.6,0.8-0.3,1.3c0.3,0.5,0.8,0.6,1.3,0.4l2.4-1.4c0.4-0.3,0.6-0.8,0.3-1.3
		C30.3,9.9,29.7,9.8,29.3,10z"/>
	<path class="st7" d="M8.9,18c-0.4-0.3-1-0.1-1.3,0.3l-1.4,2.4c-0.3,0.4-0.1,1,0.3,1.3c0.4,0.3,1,0.1,1.3-0.3l1.4-2.4
		C9.6,18.9,9.4,18.3,8.9,18L8.9,18z M36.8,7.2l-2.4-1.4c-0.4-0.3-1-0.1-1.3,0.3c-0.3,0.5-0.1,1,0.3,1.3l2.4,1.4
		c0.4,0.3,1,0.1,1.3-0.3C37.4,8,37.3,7.5,36.8,7.2L36.8,7.2z"/>
	<path class="st8" d="M25,14.6c-5.2,0-9.4,4.2-9.4,9.4s4.2,9.4,9.4,9.4s9.4-4.2,9.4-9.4S30.2,14.6,25,14.6z M25,32.6
		c-4.2,0-7.6-3.4-7.6-7.6c0-4.2,3.4-7.6,7.6-7.6s7.6,3.4,7.6,7.6C32.6,29.2,29.2,32.6,25,32.6z"/>
	<path class="st9" d="M25,46.1c-12.6,0-22.9-9.9-23.6-22.3c0,0.4,0,0.8,0,1.3C1.4,38,12,48.6,25,48.6S48.6,38,48.6,25
		c0-0.4,0-0.8,0-1.3C47.9,36.2,37.6,46.1,25,46.1z"/>
	<g>
		<path class="st10" d="M30.2,11.2l-2.4,1.4c-0.4,0.3-1,0.1-1.3-0.4c0-0.1-0.1-0.2-0.1-0.3c-0.1,0.2,0,0.5,0.1,0.7
			c0.3,0.5,0.8,0.6,1.3,0.4l2.4-1.4c0.4-0.2,0.5-0.6,0.4-1C30.6,10.9,30.4,11.1,30.2,11.2z M7.2,11l-1.4,2.5C5.6,14,5,14.2,4.5,13.9
			C4.2,13.7,4,13.5,4,13.2c-0.1,0.4,0.1,0.9,0.5,1.1C5,14.7,5.6,14.5,5.8,14l1.4-2.5c0.1-0.2,0.1-0.5,0.1-0.7
			C7.3,10.9,7.3,11,7.2,11z M45.5,22.6c-0.5,0.1-1.1-0.2-1.2-0.7l-0.8-2.8l0,0c0,0.2,0,0.3,0,0.5l0.8,2.8c0.1,0.5,0.7,0.8,1.2,0.7
			c0.5-0.1,0.9-0.7,0.7-1.2C46.1,22.2,45.9,22.5,45.5,22.6z"/>
	</g>
	<g>
		<path class="st11" d="M17.7,12.4l-2.8,0.7c-0.5,0.1-1-0.2-1.2-0.8l0-0.1c0,0.2,0,0.3,0,0.5c0.2,0.6,0.7,0.9,1.2,0.8l2.8-0.7
			c0.5-0.1,0.8-0.7,0.7-1.2C18.3,12.1,18,12.3,17.7,12.4z M36.8,17.9c-0.5,0-0.9-0.4-0.9-0.9l0-2.4l0,0l0,2.8c0,0.5,0.4,0.9,0.9,0.9
			c0.5,0,0.9-0.4,0.9-0.9l0-0.5C37.7,17.5,37.3,17.9,36.8,17.9L36.8,17.9z"/>
	</g>
	<g>
		<path class="st12" d="M37.2,8c-0.3,0.5-0.8,0.6-1.3,0.3l-2.4-1.4c-0.2-0.1-0.4-0.3-0.4-0.6c-0.1,0.4,0.1,0.8,0.4,1l2.4,1.4
			c0.4,0.3,1,0.1,1.3-0.3c0.1-0.2,0.2-0.5,0.1-0.7C37.2,7.9,37.2,7.9,37.2,8L37.2,8z M9.3,18.8l-1.4,2.4c-0.3,0.4-0.8,0.6-1.3,0.3
			c-0.2-0.1-0.4-0.3-0.4-0.6c-0.1,0.4,0.1,0.8,0.4,1c0.4,0.3,1,0.1,1.3-0.3l1.4-2.4c0.1-0.2,0.2-0.5,0.1-0.7
			C9.4,18.7,9.3,18.8,9.3,18.8L9.3,18.8z"/>
	</g>
	<g>
		<path class="st13" d="M10.8,30.5c-0.4,0.3-1,0.1-1.3-0.3l-1.4-2.4c0-0.1-0.1-0.2-0.1-0.2c-0.1,0.2,0,0.5,0.1,0.7l1.4,2.4
			c0.3,0.4,0.8,0.6,1.3,0.3c0.4-0.2,0.5-0.6,0.4-1C11.2,30.2,11.1,30.4,10.8,30.5L10.8,30.5z M20.7,3.9c-0.1,0.3-0.3,0.5-0.6,0.6
			l-2.5,0.7c-0.5,0.1-0.9-0.1-1.1-0.6c0,0.1,0,0.3,0,0.5c0.1,0.5,0.6,0.7,1.1,0.6L20.1,5C20.6,4.8,20.8,4.4,20.7,3.9
			C20.7,3.9,20.7,3.9,20.7,3.9z"/>
	</g>
	<g>
		<path class="st14" d="M48.6,23.7c0,0.7-0.1,1.5-0.2,2.2c0.1-0.2,0.2-0.4,0.2-0.6l0-0.4C48.6,24.6,48.6,24.2,48.6,23.7L48.6,23.7
			L48.6,23.7z M1.5,27.1l0,0.2c0.1,0.8,0.2,1.5,0.3,2.2l0.7,0.3c-0.6-1.9-1-4-1.1-6.1c0,0.4,0,0.8,0,1.3c0,0.4,0,0.8,0,1.2
			C1.4,26.5,1.5,26.8,1.5,27.1L1.5,27.1z"/>
	</g>
	<path class="st14" d="M25,14.6c-5.2,0-9.4,4.2-9.4,9.4c0,0.5,0,1,0.1,1.5c0.6-0.4,1.3-0.7,1.8-0.8c0.2-4,3.5-7.3,7.5-7.3
		c4.2,0,7.6,3.4,7.6,7.6c0,0.9-0.2,1.8-0.5,2.6c0.6,0.2,1.2,0.1,1.7,0c0.4-1.1,0.7-2.3,0.7-3.5C34.4,18.8,30.2,14.6,25,14.6z"/>
	<g>
		<path class="st9" d="M17.5,24.7c-1.2,0.3-3.2,1.2-3.3,3.6C14,31.7,9.9,37.8,6.6,33c-1.5-2.2-3.2-2.8-4.8-3.5L1.9,30
			c1.5,0.7,3.2,1.3,4.7,3.5c3.3,4.8,7.4-1.3,7.6-4.7c0.1-2.4,2.1-3.3,3.3-3.6L17.5,24.7L17.5,24.7z M48.6,25.4
			c-1.2,3-3.6,7.7-6.6,3.4c-4.5-6.5-6.2-4.9-6.6-2.8c-0.2,1-1.8,2-3.3,1.7c0,0.1-0.1,0.3-0.2,0.4c1.5,0.5,3.3-0.6,3.5-1.6
			c0.4-2,2.1-3.7,6.6,2.8c3,4.3,5.4-0.4,6.6-3.4V25.4l0-0.1L48.6,25.4L48.6,25.4z"/>
	</g>
	<path class="st15" d="M17.4,25l0-0.3c-0.5,0.1-1.2,0.4-1.8,0.8c0,0.1,0,0.3,0.1,0.4c0.6-0.4,1.2-0.6,1.7-0.7L17.4,25L17.4,25z
		 M2.8,30.4c-0.1-0.2-0.1-0.4-0.2-0.5l-0.7-0.3l0.1,0.4l0,0.1L2.8,30.4L2.8,30.4z M32.1,27.6c0,0.1-0.1,0.2-0.1,0.3l0,0.1l0,0.1
		c0.5,0.2,1.1,0.1,1.6,0c0.1-0.2,0.2-0.4,0.2-0.5C33.3,27.7,32.7,27.8,32.1,27.6L32.1,27.6z M48.6,25.2l0,0.1
		c-0.1,0.2-0.2,0.4-0.2,0.6c0,0.3-0.1,0.5-0.1,0.8c0.1-0.3,0.3-0.6,0.4-0.9C48.6,25.7,48.6,25.5,48.6,25.2L48.6,25.2L48.6,25.2z"/>
	<g>
	</g>
	<g>
	</g>
	<g>
	</g>
	<g>
	</g>
	<g>
	</g>
	<g>
	</g>
	<g>
	</g>
	<g>
	</g>
	<g>
	</g>
	<g>
	</g>
	<g>
	</g>
	<g>
	</g>
	<g>
	</g>
	<g>
	</g>
	<g>
	</g>
</g>
</svg>
