<?xml version="1.0" encoding="utf-8"?>
<!-- Generator: Adobe Illustrator 19.0.1, SVG Export Plug-In . SVG Version: 6.00 Build 0)  -->
<svg version="1.1" id="doughnut_x5F_grow" xmlns="http://www.w3.org/2000/svg" xmlns:xlink="http://www.w3.org/1999/xlink" x="0px"
	 y="0px" viewBox="-223 225 512 512" style="enable-background:new -223 225 512 512;" xml:space="preserve">
<style type="text/css">
	.st0{fill:#6B5B4B;}
	.st1{fill:#BFA380;}
	.st2{fill:#6EC9E5;}
	.st3{fill:#F277BA;}
	.st4{fill:#E6E6E6;}
	.st5{fill:#E89C25;}
	.st6{fill:#D2D5D7;}
	.st7{fill:#FFFFFF;}
	.st8{fill:#EF771D;}
	.st9{fill:#F9DA49;}
	.st10{fill:#EBAB45;}
	.st11{fill:#D08C21;}
	.st12{fill:#D69022;}
	.st13{fill:#BB7E1E;}
</style>
<g>
	<rect x="-90" y="510.4" class="st0" width="21.2" height="23.2"/>
	<rect x="134.4" y="510.4" class="st0" width="21.2" height="23.2"/>
	<rect x="-85.8" y="533.5" class="st1" width="12.7" height="111.2"/>
	<rect x="138.7" y="533.5" class="st1" width="12.7" height="111.2"/>
	<path class="st2" d="M-73.1,491.8c0,0.4,122.8,64.9,122.8,64.9l93.2-64.9H-73.1z"/>
	<g>
		<polygon class="st1" points="142.9,491.8 116.3,510.4 155.6,510.4 155.6,491.8 		"/>
		<path class="st1" d="M-73.1,491.8H-90v18.5h51.7C-57.9,500-73.1,492-73.1,491.8z"/>
	</g>
	<path class="st3" d="M109.6,491.8H-29.5c35.3,18.6,79.3,41.7,79.3,41.7L109.6,491.8z"/>
</g>
<g>
	<g>
		<path class="st4" d="M118.8,430.1h-16.2v-19.4h16.2c5.4,0,9.7,4.4,9.7,9.7C128.5,425.7,124.2,430.1,118.8,430.1z M109.1,423.6h9.7
			c1.8,0,3.2-1.4,3.2-3.2c0-1.8-1.4-3.2-3.2-3.2h-9.7V423.6z"/>
		<path class="st4" d="M-30.1,430.1h-16.2c-5.4,0-9.7-4.4-9.7-9.7c0-5.4,4.4-9.7,9.7-9.7h16.2V430.1z M-46.2,417.1
			c-1.8,0-3.2,1.4-3.2,3.2c0,1.8,1.4,3.2,3.2,3.2h9.7v-6.5H-46.2z"/>
		<path class="st5" d="M83.2,378.3c-3.6,0-6.5-2.9-6.5-6.5c0-3.6,2.9-6.5,6.5-6.5c3.6,0,6.5,2.9,6.5,6.5
			C89.7,375.4,86.8,378.3,83.2,378.3z M83.2,371.8L83.2,371.8L83.2,371.8z"/>
		<path class="st5" d="M-13.8,384.8L-13.8,384.8c-2.8,0-5.4-0.8-7.6-2.4c-1.4-1-1.8-3.1-0.7-4.5c1-1.4,3.1-1.8,4.5-0.7
			c1.1,0.8,2.4,1.2,3.8,1.2c1.8,0,3.2,1.4,3.2,3.2S-12.1,384.8-13.8,384.8z M-6,380.7c-0.7,0-1.3-0.2-1.9-0.6
			c-1.4-1-1.8-3.1-0.7-4.5c0.8-1.1,1.2-2.4,1.2-3.8c0-1.8,1.4-3.3,3.2-3.3c1.8,0,3.2,1.4,3.2,3.2v0.1c0,2.8-0.9,5.4-2.5,7.6
			C-4,380.3-5,380.7-6,380.7z M-23.6,375.1c-1.8,0-3.2-1.4-3.2-3.2v-0.1c0-2.7,0.8-5.3,2.4-7.5c1-1.5,3.1-1.8,4.5-0.8
			c1.5,1,1.8,3.1,0.7,4.5c-0.8,1.1-1.2,2.4-1.2,3.8C-20.4,373.6-21.8,375.1-23.6,375.1z M-8.3,367.1c-0.7,0-1.3-0.2-1.9-0.6
			c-1.1-0.8-2.4-1.2-3.7-1.2c-1.8,0-3.3-1.4-3.3-3.2c0-1.8,1.4-3.2,3.2-3.2h0.1c2.7,0,5.3,0.8,7.5,2.4c1.5,1,1.8,3.1,0.8,4.5
			C-6.2,366.7-7.2,367.1-8.3,367.1z"/>
		<path class="st5" d="M34.6,394.5H18.5l-1-1.3c-1.5-2-2.3-4.4-2.3-6.8c0-6.2,5.1-11.3,11.3-11.3s11.3,5.1,11.3,11.3
			c0,2.5-0.8,4.8-2.3,6.8L34.6,394.5z M22,388h9.1c0.2-0.5,0.3-1,0.3-1.6c0-2.7-2.2-4.9-4.9-4.9s-4.9,2.2-4.9,4.9
			C21.7,387,21.8,387.5,22,388z"/>
		<path class="st6" d="M111.3,391.2H-38.7c-1.9,0-3,2-2,3.6l5.3,8.8c1.4,2.4,2.2,5.2,2.2,8v40.3c0,9.3,7.5,16.8,16.7,16.8h6.7
			c-2.1-4.2-0.3-6.9,7.7-12.9c4.8,6.4,8,9.9,8.4,12.9H31c-10.2-13.2-11.4-16.2,5.7-29.1c12.1,16.1,17.6,20.2,8.8,29.1H67
			c-2.1-4.2-0.3-6.9,7.7-12.9c4.8,6.4,8,9.9,8.4,12.9h6c9.3,0,16.7-7.5,16.7-16.8v-40.3c0-2.8,0.8-5.6,2.2-8l5.3-8.8
			C114.3,393.3,113.2,391.2,111.3,391.2z"/>
		<path class="st4" d="M76.7,491.6H-7.4c-1.8,0-3.2-1.4-3.2-3.2c0-1.8,1.4-3.2,3.2-3.2h84.1c1.8,0,3.2,1.4,3.2,3.2
			C80,490.1,78.5,491.6,76.7,491.6z"/>
		<path class="st7" d="M92.9,410.6H9c-1.8,0-3.2-1.4-3.2-3.2s1.4-3.2,3.2-3.2h83.9c1.8,0,3.2,1.4,3.2,3.2S94.7,410.6,92.9,410.6z"/>
		<g>
			<g>
				<path class="st8" d="M-2.1,479.6c12.8-9.7,9.7-10.8,0-23.6C-15,465.7-11.8,466.7-2.1,479.6z"/>
				<path class="st8" d="M-2.8,484.1l-2-2.6c-1-1.3-1.9-2.5-2.7-3.6c-4.3-5.5-6.9-8.9-6.3-13c0.5-3.9,3.8-7.1,9.7-11.5l2.6-2l2,2.6
					c1,1.3,1.9,2.5,2.7,3.6c4.3,5.5,6.9,8.9,6.3,13c-0.5,3.9-3.8,7.1-9.7,11.5L-2.8,484.1z M-2.7,460.5c-2.4,1.9-4.5,3.9-4.7,5.2
					c-0.2,1.5,2,4.3,5,8.2c0.3,0.3,0.5,0.7,0.8,1c2.4-1.9,4.5-3.9,4.7-5.2c0.2-1.5-2-4.3-5-8.2C-2.2,461.2-2.5,460.9-2.7,460.5z"/>
			</g>
			<g>
				<path class="st9" d="M36.7,476.3c19.9-15,15-16.7,0-36.6C16.8,454.8,21.7,456.4,36.7,476.3z"/>
				<path class="st9" d="M36.1,480.9l-2-2.6c-1.5-2-3-3.9-4.2-5.5c-6.4-8.2-10.2-13.2-9.5-18.9c0.7-5.5,5.6-10.1,14.4-16.7l2.6-2
					l2,2.6c1.5,2,3,3.9,4.2,5.5c6.4,8.2,10.2,13.2,9.5,18.9c-0.7,5.5-5.6,10.1-14.4,16.7L36.1,480.9z M36.1,444.3
					c-5.4,4.2-8.9,7.7-9.3,10.4c-0.4,3,2.8,7.2,8.2,14.1c0.7,0.9,1.5,1.9,2.3,3c5.4-4.2,8.9-7.7,9.3-10.4c0.4-3-2.8-7.2-8.2-14.1
					C37.7,446.4,36.9,445.4,36.1,444.3z"/>
			</g>
			<g>
				<path class="st8" d="M74.7,456c-12.8,9.7-9.7,10.8,0,23.6C87.6,469.9,84.4,468.8,74.7,456z"/>
				<path class="st8" d="M74.1,484.1l-2-2.6c-1-1.3-1.9-2.5-2.7-3.6c-4.3-5.5-6.9-8.9-6.3-13c0.5-3.9,3.8-7.1,9.7-11.5l2.6-2l2,2.6
					c1,1.3,1.9,2.5,2.7,3.6c4.3,5.5,6.9,8.9,6.3,13c-0.5,3.9-3.8,7.1-9.7,11.5L74.1,484.1z M74.1,460.5c-2.4,1.9-4.5,3.9-4.7,5.2
					c-0.2,1.5,2,4.3,5,8.2c0.3,0.3,0.5,0.7,0.8,1c2.4-1.9,4.5-3.9,4.7-5.2c0.2-1.5-2-4.3-5-8.2C74.7,461.2,74.4,460.9,74.1,460.5z"
					/>
			</g>
		</g>
		<path class="st7" d="M-4.7,410.6h-15.6c-1.8,0-3.2-1.4-3.2-3.2s1.4-3.2,3.2-3.2h15.6c1.8,0,3.2,1.4,3.2,3.2S-2.9,410.6-4.7,410.6z
			"/>
	</g>
	<g>
	</g>
	<g>
	</g>
	<g>
	</g>
	<g>
	</g>
	<g>
	</g>
	<g>
	</g>
	<g>
	</g>
	<g>
	</g>
	<g>
	</g>
	<g>
	</g>
	<g>
	</g>
	<g>
	</g>
	<g>
	</g>
	<g>
	</g>
	<g>
	</g>
</g>
<g>
	<path class="st5" d="M51,334.6c-6.1,0-11.1,5-11.1,11.1s5,11.1,11.1,11.1s11.1-5,11.1-11.1S57.1,334.6,51,334.6z M51,349.3
		c-2,0-3.5-1.6-3.5-3.5c0-2,1.6-3.5,3.5-3.5c2,0,3.5,1.6,3.5,3.5C54.5,347.7,52.9,349.3,51,349.3z"/>
	<path class="st10" d="M51,351.4c-1.5,0-3-0.8-4-2c0.7,1.5,2.3,2.7,4,2.7c1.7,0,3.2-1.1,4-2.7C54,350.7,52.5,351.4,51,351.4
		L51,351.4z"/>
	<path class="st11" d="M51,340.8c-2.4,0-4.4,2-4.4,4.4c0,2.4,2,4.4,4.4,4.4c2.4,0,4.4-2,4.4-4.4C55.4,342.8,53.4,340.8,51,340.8z
		 M51,349.3c-2,0-3.5-1.6-3.5-3.5c0-2,1.6-3.5,3.5-3.5c2,0,3.5,1.6,3.5,3.5C54.5,347.7,52.9,349.3,51,349.3z"/>
	<path class="st12" d="M51,355.6c-5.9,0-10.8-4.6-11.1-10.5c0,0.2,0,0.4,0,0.6c0,6.1,5,11.1,11.1,11.1s11.1-5,11.1-11.1
		c0-0.2,0-0.4,0-0.6C61.7,351,56.9,355.6,51,355.6z"/>
	<path class="st13" d="M47.4,345.7l0-0.1c-0.2,0.1-0.6,0.2-0.8,0.4c0,0.1,0,0.1,0,0.2C46.9,346,47.2,345.9,47.4,345.7L47.4,345.7
		L47.4,345.7z M40.5,348.2c0-0.1-0.1-0.2-0.1-0.3l-0.3-0.2l0,0.2l0,0.1L40.5,348.2L40.5,348.2z M54.3,346.9c0,0,0,0.1-0.1,0.1l0,0
		l0,0c0.3,0.1,0.5,0.1,0.8,0c0-0.1,0.1-0.2,0.1-0.3C54.8,347,54.6,347,54.3,346.9L54.3,346.9z M62.1,345.8L62.1,345.8
		c0,0.2-0.1,0.2-0.1,0.3c0,0.1,0,0.2-0.1,0.4c0.1-0.1,0.1-0.3,0.2-0.4C62,346,62.1,345.9,62.1,345.8L62.1,345.8L62.1,345.8z"/>
	<g>
	</g>
	<g>
	</g>
	<g>
	</g>
	<g>
	</g>
	<g>
	</g>
	<g>
	</g>
	<g>
	</g>
	<g>
	</g>
	<g>
	</g>
	<g>
	</g>
	<g>
	</g>
	<g>
	</g>
	<g>
	</g>
	<g>
	</g>
	<g>
	</g>
</g>
</svg>
