<?xml version="1.0" encoding="utf-8"?>
<!-- Generator: Adobe Illustrator 19.0.1, SVG Export Plug-In . SVG Version: 6.00 Build 0)  -->
<svg version="1.1" id="doughnut_x5F_warn" xmlns="http://www.w3.org/2000/svg" xmlns:xlink="http://www.w3.org/1999/xlink" x="0px"
	 y="0px" viewBox="-223 225 512 512" style="enable-background:new -223 225 512 512;" xml:space="preserve">
<style type="text/css">
	.st0{clip-path:url(#SVGID_2_);}
	.st1{fill:#FBD303;}
	.st2{fill:#646B79;}
	.st3{clip-path:url(#SVGID_4_);}
	.st4{fill:#6B5B4B;}
	.st5{fill:#BFA380;}
	.st6{fill:#6EC9E5;}
	.st7{fill:#F277BA;}
	.st8{fill:#E6E6E6;}
	.st9{fill:#D2D5D7;}
	.st10{fill:#FFFFFF;}
	.st11{fill:#EF771D;}
	.st12{fill:#F9DA49;}
	.st13{fill:#EE2712;}
	.st14{fill:#FF5D3D;}
	.st15{fill:#B5CDDF;}
	.st16{fill:#C9E5F9;}
	.st17{fill:#088690;}
	.st18{fill:#787878;}
	.st19{clip-path:url(#SVGID_6_);}
	.st20{clip-path:url(#SVGID_8_);}
	.st21{font-family:'Arial-Black';}
	.st22{font-size:21.0661px;}
	.st23{font-size:20.1175px;}
</style>
<g>
	<defs>
		<polygon id="SVGID_1_" points="32.4,372.6 237.3,491.6 237.1,539.7 33,421.2 		"/>
	</defs>
	<clipPath id="SVGID_2_">
		<use xlink:href="#SVGID_1_"  style="overflow:visible;"/>
	</clipPath>
	<g class="st0">
		<polygon class="st1" points="32.4,346.6 237.3,465.6 237.1,513.8 33,395.2 		"/>
		<g>
			<polygon class="st2" points="237.3,465.6 225.6,458.8 186.4,484.3 216.3,501.7 237.2,488.2 			"/>
			<polygon class="st2" points="159.1,468.5 129.2,451.1 168.2,425.4 198.2,442.8 			"/>
			<polygon class="st2" points="101.9,435.2 72,417.9 110.7,392 140.7,409.5 			"/>
			<polygon class="st2" points="53.3,358.7 32.7,372.5 33,395.2 44.6,402 83.3,376.1 			"/>
		</g>
	</g>
</g>
<g>
	<defs>
		<polygon id="SVGID_3_" points="-171.8,465.7 32.3,347.2 32.6,395.4 -172.4,514.4 		"/>
	</defs>
	<clipPath id="SVGID_4_">
		<use xlink:href="#SVGID_3_"  style="overflow:visible;"/>
	</clipPath>
	<g class="st3">
		<polygon class="st1" points="-171.8,491.7 32.3,373.2 32.5,421.4 -172.4,540.4 		"/>
		<g>
			<polygon class="st2" points="32.4,398.7 11.5,385.2 -18.4,402.6 20.8,428.2 32.5,421.4 			"/>
			<polygon class="st2" points="-6.6,444.1 -36.6,461.5 -75.6,435.8 -45.7,418.5 			"/>
			<polygon class="st2" points="-64.1,477.5 -94.1,494.9 -132.8,469.1 -102.9,451.7 			"/>
			<polygon class="st2" points="-121.5,510.8 -160.2,484.9 -171.8,491.7 -172.1,514.5 -151.5,528.2 			"/>
		</g>
	</g>
</g>
<g>
	<rect x="-89.8" y="510.2" class="st4" width="21.2" height="23.2"/>
	<rect x="134.6" y="510.2" class="st4" width="21.2" height="23.2"/>
	<rect x="-85.6" y="533.4" class="st5" width="12.7" height="111.2"/>
	<rect x="138.9" y="533.4" class="st5" width="12.7" height="111.2"/>
	<path class="st6" d="M-72.9,491.7c0,0.4,122.8,64.9,122.8,64.9l93.2-64.9H-72.9z"/>
	<g>
		<polygon class="st5" points="143.1,491.7 116.5,510.2 155.8,510.2 155.8,491.7 		"/>
		<path class="st5" d="M-72.9,491.7h-16.9v18.5h51.7C-57.7,499.9-72.9,491.8-72.9,491.7z"/>
	</g>
	<path class="st7" d="M109.8,491.7H-29.3c35.3,18.6,79.3,41.7,79.3,41.7L109.8,491.7z"/>
</g>
<g>
	<g>
		<path class="st8" d="M25.1,449.4h-11v-13.2h11c3.6,0,6.6,3,6.6,6.6C31.7,446.4,28.8,449.4,25.1,449.4z M18.5,445h6.6
			c1.2,0,2.2-1,2.2-2.2c0-1.2-1-2.2-2.2-2.2h-6.6V445z"/>
		<path class="st8" d="M-76.1,449.4h-11c-3.6,0-6.6-3-6.6-6.6c0-3.6,3-6.6,6.6-6.6h11V449.4z M-87.1,440.6c-1.2,0-2.2,1-2.2,2.2
			c0,1.2,1,2.2,2.2,2.2h6.6v-4.4H-87.1z"/>
		<path class="st9" d="M20,423H-82c-1.3,0-2,1.4-1.4,2.5l3.6,6c1,1.7,1.5,3.5,1.5,5.5v27.4c0,6.3,5.1,11.4,11.4,11.4h4.6
			c-1.4-2.9-0.2-4.7,5.2-8.8c3.3,4.3,5.5,6.7,5.7,8.8h16.8c-6.9-9-7.7-11,3.9-19.8c8.2,10.9,12,13.7,6,19.8h14.6
			c-1.4-2.9-0.2-4.7,5.2-8.8c3.3,4.3,5.5,6.7,5.7,8.8H5c6.3,0,11.4-5.1,11.4-11.4v-27.4c0-1.9,0.5-3.8,1.5-5.5l3.6-6
			C22.1,424.4,21.3,423,20,423z"/>
		<path class="st8" d="M-3.5,491.2h-57.2c-1.2,0-2.2-1-2.2-2.2s1-2.2,2.2-2.2h57.2c1.2,0,2.2,1,2.2,2.2S-2.2,491.2-3.5,491.2z"/>
		<path class="st10" d="M7.5,436.2h-57c-1.2,0-2.2-1-2.2-2.2s1-2.2,2.2-2.2h57c1.2,0,2.2,1,2.2,2.2S8.8,436.2,7.5,436.2z"/>
		<g>
			<g>
				<path class="st11" d="M-57.1,483c8.7-6.6,6.6-7.3,0-16C-65.8,473.6-63.7,474.3-57.1,483z"/>
				<path class="st11" d="M-57.5,486.1l-1.3-1.8c-0.7-0.9-1.3-1.7-1.9-2.4c-2.9-3.8-4.7-6-4.3-8.9c0.4-2.7,2.6-4.8,6.6-7.8l1.8-1.3
					l1.3,1.8c0.7,0.9,1.3,1.7,1.9,2.4c2.9,3.8,4.7,6,4.3,8.9c-0.4,2.7-2.6,4.8-6.6,7.8L-57.5,486.1z M-57.5,470.1
					c-1.6,1.3-3.1,2.7-3.2,3.6c-0.1,1,1.4,2.9,3.4,5.6c0.2,0.2,0.4,0.5,0.5,0.7c1.6-1.3,3.1-2.7,3.2-3.6c0.1-1-1.4-2.9-3.4-5.6
					C-57.1,470.5-57.3,470.3-57.5,470.1z"/>
			</g>
			<g>
				<path class="st12" d="M-30.7,480.8c13.5-10.2,10.2-11.3,0-24.8C-44.2,466.2-40.9,467.3-30.7,480.8z"/>
				<path class="st12" d="M-31.1,483.9l-1.3-1.8c-1-1.4-2-2.6-2.9-3.8c-4.3-5.6-7-9-6.4-12.8c0.5-3.7,3.8-6.8,9.8-11.3l1.8-1.3
					l1.3,1.8c1,1.4,2,2.6,2.9,3.8c4.3,5.6,7,9,6.4,12.8c-0.5,3.7-3.8,6.8-9.8,11.3L-31.1,483.9z M-31.1,459.1
					c-3.7,2.9-6.1,5.2-6.3,7.1c-0.3,2.1,1.9,4.9,5.6,9.6c0.5,0.6,1,1.3,1.6,2c3.7-2.9,6.1-5.2,6.3-7.1c0.3-2.1-1.9-4.9-5.5-9.6
					C-30,460.5-30.5,459.8-31.1,459.1z"/>
			</g>
			<g>
				<path class="st11" d="M-4.8,467c-8.7,6.6-6.6,7.3,0,16C3.9,476.4,1.8,475.7-4.8,467z"/>
				<path class="st11" d="M-5.3,486.1l-1.3-1.8c-0.7-0.9-1.3-1.7-1.9-2.4c-2.9-3.8-4.7-6-4.3-8.9c0.4-2.7,2.6-4.8,6.6-7.8l1.8-1.3
					l1.3,1.8c0.7,0.9,1.3,1.7,1.9,2.4c2.9,3.8,4.7,6,4.3,8.9c-0.4,2.7-2.6,4.8-6.6,7.8L-5.3,486.1z M-5.2,470.1
					c-1.6,1.3-3.1,2.7-3.2,3.6c-0.1,1,1.4,2.9,3.4,5.6c0.2,0.2,0.4,0.5,0.5,0.7c1.6-1.3,3.1-2.7,3.2-3.6c0.1-1-1.4-2.9-3.4-5.6
					C-4.9,470.5-5.1,470.3-5.2,470.1z"/>
			</g>
		</g>
		<path class="st10" d="M-58.8,436.2h-10.6c-1.2,0-2.2-1-2.2-2.2s1-2.2,2.2-2.2h10.6c1.2,0,2.2,1,2.2,2.2S-57.6,436.2-58.8,436.2z"
			/>
	</g>
	<g>
	</g>
	<g>
	</g>
	<g>
	</g>
	<g>
	</g>
	<g>
	</g>
	<g>
	</g>
	<g>
	</g>
	<g>
	</g>
	<g>
	</g>
	<g>
	</g>
	<g>
	</g>
	<g>
	</g>
	<g>
	</g>
	<g>
	</g>
	<g>
	</g>
</g>
<g>
	<path class="st13" d="M105.4,356.3l-47.8,16.6l2.7,7.9c0.4,1.2,0.8,2.4,1.1,3.7l48-16.6c3.2-1.1,4.9-4.6,3.8-7.7
		C112,356.9,108.6,355.2,105.4,356.3z"/>
	<path class="st14" d="M90.6,361.4l-33,11.5l2.7,7.9c0.4,1.2,0.8,2.4,1.1,3.7l33.2-11.5L90.6,361.4L90.6,361.4z"/>
	<path class="st15" d="M-12.6,397.2l2.7,7.9c7.9,22.8,32.9,34.9,55.7,27s35-32.9,27-55.7l-2.7-7.9L-12.6,397.2L-12.6,397.2z"/>
	<path class="st16" d="M28.8,382.8l-41.4,14.3l2.7,7.9c7.9,22.8,32.9,34.9,55.7,27L28.8,382.8z"/>
	<g>
		
			<rect x="4" y="399.9" transform="matrix(-0.9448 0.3276 -0.3276 -0.9448 147.582 781.6255)" class="st17" width="8" height="6.8"/>
		
			<rect x="16.4" y="395.5" transform="matrix(-0.9448 0.3276 -0.3276 -0.9448 170.3984 769.1435)" class="st17" width="8" height="6.8"/>
		
			<rect x="28.9" y="391.2" transform="matrix(-0.9448 0.3276 -0.3276 -0.9448 193.2154 756.6613)" class="st17" width="8" height="6.8"/>
		
			<rect x="14" y="408.7" transform="matrix(-0.9448 0.3276 -0.3276 -0.9448 170.0473 795.5989)" class="st17" width="8" height="6.8"/>
		
			<rect x="26.5" y="404.4" transform="matrix(-0.9448 0.3276 -0.3276 -0.9448 192.8629 783.1174)" class="st17" width="8" height="6.8"/>
		
			<rect x="41.3" y="386.9" transform="matrix(-0.9448 0.3276 -0.3276 -0.9448 216.0323 744.1791)" class="st17" width="8" height="6.8"/>
		
			<rect x="53.8" y="382.6" transform="matrix(-0.9448 0.3276 -0.3276 -0.9448 238.8443 731.6995)" class="st17" width="8" height="6.8"/>
		
			<rect x="38.9" y="400.1" transform="matrix(-0.9448 0.3276 -0.3276 -0.9448 215.6798 770.6352)" class="st17" width="8" height="6.8"/>
		
			<rect x="51.4" y="395.8" transform="matrix(-0.9448 0.3276 -0.3276 -0.9448 238.4963 758.1532)" class="st17" width="8" height="6.8"/>
		
			<rect x="24.1" y="417.6" transform="matrix(-0.9448 0.3276 -0.3276 -0.9448 192.512 809.566)" class="st17" width="8" height="6.8"/>
		
			<rect x="36.5" y="413.3" transform="matrix(-0.9448 0.3276 -0.3276 -0.9448 215.3289 797.0838)" class="st17" width="8" height="6.8"/>
		
			<rect x="49" y="409" transform="matrix(-0.9448 0.3276 -0.3276 -0.9448 238.1458 784.6016)" class="st17" width="8" height="6.8"/>
	</g>
</g>
<path class="st18" d="M159.9,465.5c-0.3-0.9-1.1-1.6-2-1.6H22.6c-0.9,0-1.7,0.6-2,1.6c-0.3,0.9-0.2,2,0.5,2.7
	c8.3,9.6,19.4,14.8,31.2,14.8h11.1v6.1c0,1.4,1,2.5,2.2,2.5h49.2c1.2,0,2.2-1.1,2.2-2.5v-6.1h11.1c11.8,0,22.9-5.3,31.2-14.8
	C160.1,467.5,160.3,466.5,159.9,465.5z M128.2,478h-18.6c-1.2,0-2.2,1.1-2.2,2.5s1,2.5,2.2,2.5h3.1v3.6H67.9v-3.6h28.5
	c1.2,0,2.2-1.1,2.2-2.5s-1-2.5-2.2-2.5H52.3c-8.7,0-17-3.2-23.8-9H152C145.2,474.9,136.9,478,128.2,478z"/>
<g>
	<defs>
		<polygon id="SVGID_5_" points="-172.3,492.2 32.6,611.2 32.4,659.4 -171.8,540.9 		"/>
	</defs>
	<clipPath id="SVGID_6_">
		<use xlink:href="#SVGID_5_"  style="overflow:visible;"/>
	</clipPath>
	<g class="st19">
		<polygon class="st1" points="-172.3,466.2 32.6,585.2 32.4,633.4 -171.8,514.9 		"/>
		<g>
			<polygon class="st2" points="32.6,585.2 20.9,578.4 -18.3,604 11.6,621.4 32.5,607.9 			"/>
			<polygon class="st2" points="-151.5,478.4 -172,492.1 -171.8,514.9 -160.1,521.7 -121.4,495.8 			"/>
		</g>
	</g>
</g>
<g>
	<defs>
		<polygon id="SVGID_7_" points="33,585.4 237.2,466.8 237.4,515 32.5,634 		"/>
	</defs>
	<clipPath id="SVGID_8_">
		<use xlink:href="#SVGID_7_"  style="overflow:visible;"/>
	</clipPath>
	<g class="st20">
		<polygon class="st1" points="33,611.4 237.2,492.8 237.4,541 32.5,660 		"/>
		<g>
			<polygon class="st2" points="237.3,518.4 216.4,504.9 186.5,522.3 225.7,547.8 237.4,541 			"/>
			<polygon class="st2" points="83.3,630.5 44.7,604.6 33,611.4 32.8,634.1 53.3,647.9 			"/>
		</g>
	</g>
</g>
<text transform="matrix(0.5926 0.3431 -0.501 0.8654 -121.4872 541.6746)" class="st21 st22">Crime Scene</text>
<text transform="matrix(0.5889 -0.3413 0.5015 0.8652 71.0153 608.9617)" class="st21 st23">Do Not Cross Line</text>
</svg>
