<?xml version="1.0" encoding="utf-8"?>
<!-- Generator: Adobe Illustrator 19.0.1, SVG Export Plug-In . SVG Version: 6.00 Build 0)  -->
<svg version="1.1" id="doughnut_x5F_seed" xmlns="http://www.w3.org/2000/svg" xmlns:xlink="http://www.w3.org/1999/xlink" x="0px"
	 y="0px" viewBox="-223 225 512 512" style="enable-background:new -223 225 512 512;" xml:space="preserve">
<style type="text/css">
	.st0{fill:#6B5B4B;}
	.st1{fill:#BFA380;}
	.st2{fill:#6EC9E5;}
	.st3{fill:#F277BA;}
	.st4{fill:#BFBFBF;}
</style>
<g>
	<rect x="-90.1" y="511" class="st0" width="21.2" height="23.2"/>
	<rect x="134.3" y="511" class="st0" width="21.2" height="23.2"/>
	<rect x="-85.9" y="534.2" class="st1" width="12.7" height="111.2"/>
	<rect x="138.5" y="534.2" class="st1" width="12.7" height="111.2"/>
	<path class="st2" d="M-73.2,492.5c0,0.4,122.8,64.9,122.8,64.9l93.2-64.9H-73.2z"/>
	<g>
		<polygon class="st1" points="142.8,492.5 116.2,511 155.5,511 155.5,492.5 		"/>
		<path class="st1" d="M-73.2,492.5h-16.9V511h51.7C-58.1,500.7-73.2,492.6-73.2,492.5z"/>
	</g>
	<path class="st3" d="M109.5,492.5H-29.6c35.3,18.6,79.3,41.7,79.3,41.7L109.5,492.5z"/>
</g>
<g>
	<g>
		<path class="st4" d="M66.4,374.4c1.4,2.6,4,4.1,6.8,4.1c1.2,0,2.4-0.3,3.6-0.9l21.4-11.3c3.7-2,5.2-6.6,3.2-10.4l-0.2-0.4
			c-1.4-2.6-4-4.1-6.8-4.1c-1.2,0-2.4,0.3-3.6,0.9l-21.4,11.3c-3.7,2-5.2,6.6-3.2,10.4L66.4,374.4z"/>
		<path class="st4" d="M-19.5,419.7c0.1,0.1,0.1,0.2,0.2,0.3c3.9,7.1,11.4,11.6,19.6,11.6c3.6,0,7.2-0.9,10.5-2.6
			c15.7-8.3,32.6-34.7,36-40.1l15.8-8.4c-0.8-0.9-1.5-1.9-2.1-3l-0.2-0.4c-0.6-1.1-1-2.2-1.3-3.4l-15.8,8.4
			c-1.4-0.1-4.1-0.1-7.7-0.1c-14.5,0-34.2,1.3-45.7,7.4C-21.1,395.2-25.3,408.8-19.5,419.7C-19.5,419.7-19.5,419.7-19.5,419.7z
			 M7.2,422.2c-2.2,1.1-4.5,1.7-6.9,1.7c-2.3,0-4.5-0.5-6.4-1.5c3.4-0.9,7.2-2.4,11.1-4.4c6.6-3.5,14.4-8.7,21.5-13.8
			C20.6,411.5,13.6,418.8,7.2,422.2z M1.4,411.3c-5.9,3.1-10.7,4.3-13.3,4.4c1.4-2,5-5.3,11.1-8.5c6.8-3.6,16-7.2,24.5-10.3
			C16.4,402.1,8.2,407.7,1.4,411.3z M-6.6,396.2c6.4-3.4,16.4-5.1,25.7-5.9c-8.1,3-16.9,6.5-23.5,10c-3.5,1.9-7,4.2-9.9,6.7
			C-13.6,402.6-10.9,398.5-6.6,396.2z"/>
		<path class="st4" d="M98,436.4H-28.4c-2.6,0-4.8,2.1-4.8,4.8c0,13,7.4,26.2,20.4,36.3c13.1,10.2,30.1,15.9,47.6,15.9
			c17.6,0,34.5-5.6,47.6-15.9c12.9-10.1,20.4-23.3,20.4-36.3C102.8,438.5,100.6,436.4,98,436.4z"/>
	</g>
	<g>
	</g>
	<g>
	</g>
	<g>
	</g>
	<g>
	</g>
	<g>
	</g>
	<g>
	</g>
	<g>
	</g>
	<g>
	</g>
	<g>
	</g>
	<g>
	</g>
	<g>
	</g>
	<g>
	</g>
	<g>
	</g>
	<g>
	</g>
	<g>
	</g>
</g>
</svg>
