<?xml version="1.0" encoding="utf-8"?>
<!-- Generator: Adobe Illustrator 19.0.1, SVG Export Plug-In . SVG Version: 6.00 Build 0)  -->
<svg version="1.1" id="doughnut_x5F_harvest" xmlns="http://www.w3.org/2000/svg" xmlns:xlink="http://www.w3.org/1999/xlink"
	 x="0px" y="0px" viewBox="-223 225 512 512" style="enable-background:new -223 225 512 512;" xml:space="preserve">
<style type="text/css">
	.st0{fill:#6B5B4B;}
	.st1{fill:#BFA380;}
	.st2{fill:#6EC9E5;}
	.st3{fill:#F277BA;}
	.st4{fill:#E6E6E6;}
	.st5{fill:#D2D5D7;}
	.st6{fill:#FFFFFF;}
	.st7{fill:#EF771D;}
	.st8{fill:#F9DA49;}
	.st9{fill:#EE2712;}
	.st10{fill:#FF5D3D;}
	.st11{fill:#B5CDDF;}
	.st12{fill:#C9E5F9;}
	.st13{fill:#088690;}
	.st14{fill:#787878;}
</style>
<g>
	<rect x="-89.8" y="510.2" class="st0" width="21.2" height="23.2"/>
	<rect x="134.6" y="510.2" class="st0" width="21.2" height="23.2"/>
	<rect x="-85.6" y="533.4" class="st1" width="12.7" height="111.2"/>
	<rect x="138.9" y="533.4" class="st1" width="12.7" height="111.2"/>
	<path class="st2" d="M-72.9,491.7c0,0.4,122.8,64.9,122.8,64.9l93.2-64.9H-72.9z"/>
	<g>
		<polygon class="st1" points="143.1,491.7 116.5,510.2 155.8,510.2 155.8,491.7 		"/>
		<path class="st1" d="M-72.9,491.7h-16.9v18.5h51.7C-57.7,499.9-72.9,491.8-72.9,491.7z"/>
	</g>
	<path class="st3" d="M109.8,491.7H-29.3c35.3,18.6,79.3,41.7,79.3,41.7L109.8,491.7z"/>
</g>
<g>
	<g>
		<path class="st4" d="M25.1,449.4h-11v-13.2h11c3.6,0,6.6,3,6.6,6.6C31.7,446.4,28.8,449.4,25.1,449.4z M18.5,445h6.6
			c1.2,0,2.2-1,2.2-2.2c0-1.2-1-2.2-2.2-2.2h-6.6V445z"/>
		<path class="st4" d="M-76.1,449.4h-11c-3.6,0-6.6-3-6.6-6.6c0-3.6,3-6.6,6.6-6.6h11V449.4z M-87.1,440.6c-1.2,0-2.2,1-2.2,2.2
			c0,1.2,1,2.2,2.2,2.2h6.6v-4.4H-87.1z"/>
		<path class="st5" d="M20,423H-82c-1.3,0-2,1.4-1.4,2.5l3.6,6c1,1.7,1.5,3.5,1.5,5.5v27.4c0,6.3,5.1,11.4,11.4,11.4h4.6
			c-1.4-2.9-0.2-4.7,5.2-8.8c3.3,4.3,5.5,6.7,5.7,8.8h16.8c-6.9-9-7.7-11,3.9-19.8c8.2,10.9,12,13.7,6,19.8h14.6
			c-1.4-2.9-0.2-4.7,5.2-8.8c3.3,4.3,5.5,6.7,5.7,8.8H5c6.3,0,11.4-5.1,11.4-11.4v-27.4c0-1.9,0.5-3.8,1.5-5.5l3.6-6
			C22.1,424.4,21.3,423,20,423z"/>
		<path class="st4" d="M-3.5,491.2h-57.2c-1.2,0-2.2-1-2.2-2.2s1-2.2,2.2-2.2h57.2c1.2,0,2.2,1,2.2,2.2S-2.2,491.2-3.5,491.2z"/>
		<path class="st6" d="M7.5,436.2h-57c-1.2,0-2.2-1-2.2-2.2s1-2.2,2.2-2.2h57c1.2,0,2.2,1,2.2,2.2S8.8,436.2,7.5,436.2z"/>
		<g>
			<g>
				<path class="st7" d="M-57.1,483c8.7-6.6,6.6-7.3,0-16C-65.8,473.6-63.7,474.3-57.1,483z"/>
				<path class="st7" d="M-57.5,486.1l-1.3-1.8c-0.7-0.9-1.3-1.7-1.9-2.4c-2.9-3.8-4.7-6-4.3-8.9c0.4-2.7,2.6-4.8,6.6-7.8l1.8-1.3
					l1.3,1.8c0.7,0.9,1.3,1.7,1.9,2.4c2.9,3.8,4.7,6,4.3,8.9c-0.4,2.7-2.6,4.8-6.6,7.8L-57.5,486.1z M-57.5,470.1
					c-1.6,1.3-3.1,2.7-3.2,3.6c-0.1,1,1.4,2.9,3.4,5.6c0.2,0.2,0.4,0.5,0.5,0.7c1.6-1.3,3.1-2.7,3.2-3.6c0.1-1-1.4-2.9-3.4-5.6
					C-57.1,470.5-57.3,470.3-57.5,470.1z"/>
			</g>
			<g>
				<path class="st8" d="M-30.7,480.8c13.5-10.2,10.2-11.3,0-24.8C-44.2,466.2-40.9,467.3-30.7,480.8z"/>
				<path class="st8" d="M-31.1,483.9l-1.3-1.8c-1-1.4-2-2.6-2.9-3.8c-4.3-5.6-7-9-6.4-12.8c0.5-3.7,3.8-6.8,9.8-11.3l1.8-1.3
					l1.3,1.8c1,1.4,2,2.6,2.9,3.8c4.3,5.6,7,9,6.4,12.8c-0.5,3.7-3.8,6.8-9.8,11.3L-31.1,483.9z M-31.1,459.1
					c-3.7,2.9-6.1,5.2-6.3,7.1c-0.3,2.1,1.9,4.9,5.6,9.6c0.5,0.6,1,1.3,1.6,2c3.7-2.9,6.1-5.2,6.3-7.1c0.3-2.1-1.9-4.9-5.5-9.6
					C-30,460.5-30.5,459.8-31.1,459.1z"/>
			</g>
			<g>
				<path class="st7" d="M-4.8,467c-8.7,6.6-6.6,7.3,0,16C3.9,476.4,1.8,475.7-4.8,467z"/>
				<path class="st7" d="M-5.3,486.1l-1.3-1.8c-0.7-0.9-1.3-1.7-1.9-2.4c-2.9-3.8-4.7-6-4.3-8.9c0.4-2.7,2.6-4.8,6.6-7.8l1.8-1.3
					l1.3,1.8c0.7,0.9,1.3,1.7,1.9,2.4c2.9,3.8,4.7,6,4.3,8.9c-0.4,2.7-2.6,4.8-6.6,7.8L-5.3,486.1z M-5.2,470.1
					c-1.6,1.3-3.1,2.7-3.2,3.6c-0.1,1,1.4,2.9,3.4,5.6c0.2,0.2,0.4,0.5,0.5,0.7c1.6-1.3,3.1-2.7,3.2-3.6c0.1-1-1.4-2.9-3.4-5.6
					C-4.9,470.5-5.1,470.3-5.2,470.1z"/>
			</g>
		</g>
		<path class="st6" d="M-58.8,436.2h-10.6c-1.2,0-2.2-1-2.2-2.2s1-2.2,2.2-2.2h10.6c1.2,0,2.2,1,2.2,2.2S-57.6,436.2-58.8,436.2z"/>
	</g>
	<g>
	</g>
	<g>
	</g>
	<g>
	</g>
	<g>
	</g>
	<g>
	</g>
	<g>
	</g>
	<g>
	</g>
	<g>
	</g>
	<g>
	</g>
	<g>
	</g>
	<g>
	</g>
	<g>
	</g>
	<g>
	</g>
	<g>
	</g>
	<g>
	</g>
</g>
<g>
	<path class="st9" d="M105.4,356.3l-47.8,16.6l2.7,7.9c0.4,1.2,0.8,2.4,1.1,3.7l48-16.6c3.2-1.1,4.9-4.6,3.8-7.7
		C112,356.9,108.6,355.2,105.4,356.3z"/>
	<path class="st10" d="M90.6,361.4l-33,11.5l2.7,7.9c0.4,1.2,0.8,2.4,1.1,3.7l33.2-11.5L90.6,361.4L90.6,361.4z"/>
	<path class="st11" d="M-12.6,397.2l2.7,7.9c7.9,22.8,32.9,34.9,55.7,27s35-32.9,27-55.7l-2.7-7.9L-12.6,397.2L-12.6,397.2z"/>
	<path class="st12" d="M28.8,382.8l-41.4,14.3l2.7,7.9c7.9,22.8,32.9,34.9,55.7,27L28.8,382.8z"/>
	<g>
		
			<rect x="4" y="399.9" transform="matrix(-0.9448 0.3276 -0.3276 -0.9448 147.582 781.6255)" class="st13" width="8" height="6.8"/>
		
			<rect x="16.4" y="395.5" transform="matrix(-0.9448 0.3276 -0.3276 -0.9448 170.3984 769.1435)" class="st13" width="8" height="6.8"/>
		
			<rect x="28.9" y="391.2" transform="matrix(-0.9448 0.3276 -0.3276 -0.9448 193.2154 756.6613)" class="st13" width="8" height="6.8"/>
		
			<rect x="14" y="408.7" transform="matrix(-0.9448 0.3276 -0.3276 -0.9448 170.0473 795.5989)" class="st13" width="8" height="6.8"/>
		
			<rect x="26.5" y="404.4" transform="matrix(-0.9448 0.3276 -0.3276 -0.9448 192.8629 783.1174)" class="st13" width="8" height="6.8"/>
		
			<rect x="41.3" y="386.9" transform="matrix(-0.9448 0.3276 -0.3276 -0.9448 216.0323 744.1791)" class="st13" width="8" height="6.8"/>
		
			<rect x="53.8" y="382.6" transform="matrix(-0.9448 0.3276 -0.3276 -0.9448 238.8443 731.6995)" class="st13" width="8" height="6.8"/>
		
			<rect x="38.9" y="400.1" transform="matrix(-0.9448 0.3276 -0.3276 -0.9448 215.6798 770.6352)" class="st13" width="8" height="6.8"/>
		
			<rect x="51.4" y="395.8" transform="matrix(-0.9448 0.3276 -0.3276 -0.9448 238.4963 758.1532)" class="st13" width="8" height="6.8"/>
		
			<rect x="24.1" y="417.6" transform="matrix(-0.9448 0.3276 -0.3276 -0.9448 192.512 809.566)" class="st13" width="8" height="6.8"/>
		
			<rect x="36.5" y="413.3" transform="matrix(-0.9448 0.3276 -0.3276 -0.9448 215.3289 797.0838)" class="st13" width="8" height="6.8"/>
		
			<rect x="49" y="409" transform="matrix(-0.9448 0.3276 -0.3276 -0.9448 238.1458 784.6016)" class="st13" width="8" height="6.8"/>
	</g>
</g>
<path class="st14" d="M159.9,465.5c-0.3-0.9-1.1-1.6-2-1.6H22.6c-0.9,0-1.7,0.6-2,1.6c-0.3,0.9-0.2,2,0.5,2.7
	c8.3,9.6,19.4,14.8,31.2,14.8h11.1v6.1c0,1.4,1,2.5,2.2,2.5h49.2c1.2,0,2.2-1.1,2.2-2.5v-6.1h11.1c11.8,0,22.9-5.3,31.2-14.8
	C160.1,467.5,160.3,466.5,159.9,465.5z M128.2,478h-18.6c-1.2,0-2.2,1.1-2.2,2.5s1,2.5,2.2,2.5h3.1v3.6H67.9v-3.6h28.5
	c1.2,0,2.2-1.1,2.2-2.5s-1-2.5-2.2-2.5H52.3c-8.7,0-17-3.2-23.8-9H152C145.2,474.9,136.9,478,128.2,478z"/>
</svg>
