<?xml version="1.0" encoding="utf-8"?>
<!-- Generator: Adobe Illustrator 19.0.1, SVG Export Plug-In . SVG Version: 6.00 Build 0)  -->
<svg version="1.1" id="egg" xmlns="http://www.w3.org/2000/svg" xmlns:xlink="http://www.w3.org/1999/xlink" x="0px" y="0px"
	 viewBox="0 0 50 50" style="enable-background:new 0 0 50 50;" xml:space="preserve">
<style type="text/css">
	.st0{fill:#F2F2F2;}
	.st1{opacity:0.1;enable-background:new    ;}
	.st2{fill:#C9C3A7;}
	.st3{fill:#ECE8D8;}
</style>
<g>
	<g>
		<path class="st0" d="M11.3,34.6c-3.8-0.1-7.8-3.1-7.6-10.1c0.2-7,4.4-12.4,8.2-12.3c3.8,0.1,7.7,5.7,7.6,12.7
			C19.2,31.9,15.1,34.7,11.3,34.6z"/>
		<path class="st1" d="M15.6,23.8c0.1-5.1-2-9.5-4.6-11.5c0.3,0,0.5-0.1,0.8-0.1c3.8,0.1,7.7,5.7,7.6,12.7s-4.3,9.8-8.1,9.7
			c-1.3,0-2.6-0.4-3.7-1.1C11.4,33.6,15.5,30.7,15.6,23.8z"/>
	</g>
	<g>
		<path class="st0" d="M24.7,34.6c-3.8-0.1-7.8-3.1-7.6-10.1c0.2-7,4.4-12.4,8.2-12.3c3.8,0.1,7.7,5.7,7.6,12.7
			C32.7,31.9,28.6,34.7,24.7,34.6z"/>
		<path class="st1" d="M29.1,23.8c0.1-5.1-2-9.5-4.6-11.5c0.3,0,0.5-0.1,0.8-0.1c3.8,0.1,7.7,5.7,7.6,12.7s-4.3,9.8-8.1,9.7
			c-1.3,0-2.6-0.4-3.7-1.1C24.9,33.6,28.9,30.7,29.1,23.8z"/>
	</g>
	<g>
		<path class="st0" d="M37.8,34.6c-3.8-0.1-7.8-3.1-7.6-10.1s4.4-12.4,8.2-12.3c3.8,0.1,7.7,5.7,7.6,12.7
			C45.7,31.9,41.6,34.7,37.8,34.6z"/>
		<path class="st1" d="M42.1,23.8c0.1-5.1-2-9.5-4.6-11.5c0.3,0,0.5-0.1,0.8-0.1c3.8,0.1,7.7,5.7,7.6,12.7s-4.3,9.8-8.1,9.7
			c-1.3,0-2.6-0.4-3.7-1.1C37.9,33.6,42,30.7,42.1,23.8z"/>
	</g>
	<g>
		<g>
			<path class="st2" d="M47.8,26.8H2.2c-0.9,0-1.7-0.8-1.7-1.7l0,0c0-0.9,0.8-1.7,1.7-1.7h45.5c0.9,0,1.7,0.8,1.7,1.7l0,0
				C49.4,26,48.7,26.8,47.8,26.8"/>
			<path class="st1" d="M8.1,20c-0.1,0-0.2,0-0.3,0c-0.4-0.1-0.7-0.6-0.5-1.1c0.7-2.2,1.6-3.6,2.8-4.6c0.4-0.3,0.9-0.2,1.2,0.1
				c0.3,0.4,0.2,0.9-0.1,1.2c-0.9,0.8-1.7,2-2.3,3.8C8.8,19.8,8.5,20,8.1,20"/>
			<path class="st3" d="M4.8,31c0,2.1,0.4,3.9,1.2,5.7c0.3,0.6,0.9,1,1.6,1h8c0.7,0,1.3-0.4,1.6-1c0.8-1.8,1.2-3.6,1.2-5.7
				c0,2.1,0.4,3.9,1.2,5.7c0.3,0.6,0.9,1,1.6,1h8c0.7,0,1.3-0.4,1.6-1c0.8-1.8,1.2-3.6,1.2-5.7c0,2.1,0.4,3.9,1.2,5.7
				c0.3,0.6,0.9,1,1.6,1h8c0.7,0,1.3-0.4,1.6-1c0.8-1.8,1.2-3.6,1.2-5.7v-1.7c1.4,0,2.5-1.1,2.5-2.5H2.2c0,1.4,1.1,2.5,2.5,2.5V31z"
				/>
			<g class="st1">
				<path d="M21.6,20c-0.1,0-0.2,0-0.3,0c-0.4-0.1-0.7-0.6-0.5-1.1c0.7-2.2,1.6-3.6,2.8-4.6c0.4-0.3,0.9-0.2,1.2,0.1
					c0.3,0.4,0.2,0.9-0.1,1.2c-0.9,0.8-1.7,2-2.3,3.8C22.3,19.8,22,20,21.6,20"/>
				<path d="M35.1,20c-0.1,0-0.2,0-0.3,0c-0.4-0.1-0.7-0.6-0.5-1.1c0.7-2.2,1.6-3.6,2.8-4.6c0.4-0.3,0.9-0.2,1.2,0.1
					c0.3,0.4,0.2,0.9-0.1,1.2c-0.9,0.8-1.7,2-2.3,3.8C35.8,19.8,35.5,20,35.1,20"/>
			</g>
		</g>
	</g>
</g>
</svg>
