<?xml version="1.0" encoding="utf-8"?>
<!-- Generator: Adobe Illustrator 19.0.1, SVG Export Plug-In . SVG Version: 6.00 Build 0)  -->
<svg version="1.1" id="egg_x5F_harvest" xmlns="http://www.w3.org/2000/svg" xmlns:xlink="http://www.w3.org/1999/xlink" x="0px"
	 y="0px" viewBox="-223 225 512 512" style="enable-background:new -223 225 512 512;" xml:space="preserve">
<style type="text/css">
	.st0{fill:#FF7B78;}
	.st1{opacity:0.1;}
	.st2{fill:#FFD77A;}
	.st3{fill:#FFA561;}
	.st4{fill:#43434D;}
	.st5{fill:#FF8D61;}
	.st6{fill:#F2F2F2;}
	.st7{opacity:0.1;enable-background:new    ;}
</style>
<g>
	<path class="st0" d="M34,360.4c24.5,1.3,9.4,23.4-4.6,22.5l-59.8-3.9c0.5-34.7,34.6-55.6,44.1-42.6c1.9,2.6,1.5,6.2-0.5,9.7
		C33.7,341.7,42.5,353.5,34,360.4z"/>
	<g class="st1">
		<path d="M-17.6,379c0.4-23.2,15.7-40.2,28.6-45.1C-1,326.8-29.9,347-30.4,379H-17.6z"/>
	</g>
	<path class="st2" d="M-36.5,385.3c0,0-17.6-1.1-22.9,8.5c0,0-0.7,14.1,9.4,18.8L-36.5,385.3z"/>
	<g class="st1">
		<path d="M-58.8,392.8c-0.2,0.3-0.4,0.6-0.6,1c0,0-0.7,14.1,9.4,18.8l2.7-5.4C-53.6,403.9-57,397.6-58.8,392.8z"/>
	</g>
	<path class="st3" d="M122.6,447c0,47.9-39.7,86.7-88.6,86.7s-88.6-38.8-88.6-86.7c0-35.6,13.9-80.2,58-80.2
		c39.5,0,31.6,65.8,53.6,65.8L122.6,447z"/>
	<path class="st4" d="M-15.2,405.7c-1,0-2-0.1-3-0.4c-5.1-1.2-9-5.5-9.6-10.6c-0.3-2.1,1.2-3.9,3.4-4.2c2.1-0.2,4,1.2,4.3,3.3
		c0.2,2,1.8,3.7,3.8,4.2c2,0.5,4.2-0.3,5.4-2c1.2-1.7,3.6-2.1,5.3-1c1.7,1.2,2.2,3.5,1,5.2C-7.1,403.7-11,405.7-15.2,405.7z"/>
	<path class="st5" d="M42,430.1c-18.1,0-32.8,14.4-32.8,32.1l0,0c0,17.7,14.7,32.1,32.8,32.1h19.6c36.2,0,65.6-28.7,65.6-64.2l0,0
		L42,430.1L42,430.1z"/>
	<path class="st6" d="M100.4,553.8c-10.6-4.4-18.2-16.8-10.1-35.5c8.1-18.7,25.7-28.7,36.2-24.4c10.4,4.4,15.2,23.8,7.1,42.4
		C125.4,555,110.9,558.2,100.4,553.8z"/>
	<path class="st7" d="M123.3,531.3c6.6-15.1,4.7-30.7-1.8-38.4c1.8,0,3.4,0.4,4.9,1c10.4,4.4,15.2,23.8,7.1,42.4
		c-8.1,18.7-22.6,21.8-33.2,17.5c-2.2-0.9-4.2-2.1-6-3.7C104.3,552.1,116.3,547.6,123.3,531.3z"/>
	<path class="st6" d="M64.6,568.8c-10.6-4.4-18.2-16.8-10.1-35.5c8.1-18.7,25.7-28.7,36.2-24.4c10.4,4.4,15.2,23.8,7.1,42.4
		C89.7,570,75.2,573.2,64.6,568.8z"/>
	<path class="st6" d="M-26.9,553.8c10.6-4.4,18.2-16.8,10.1-35.5c-8.1-18.7-25.7-28.7-36.2-24.4c-10.4,4.4-15.2,23.8-7.1,42.4
		C-52,555-37.5,558.2-26.9,553.8z"/>
	<path class="st7" d="M-49.9,531.3c-6.6-15.1-4.7-30.7,1.8-38.4c-1.8,0-3.4,0.4-4.9,1c-10.4,4.4-15.2,23.8-7.1,42.4
		c8.1,18.7,22.6,21.8,33.2,17.5c2.2-0.9,4.2-2.1,6-3.7C-30.8,552.1-42.8,547.6-49.9,531.3z"/>
	<path class="st6" d="M8.9,568.8c10.6-4.4,18.2-16.8,10.1-35.5c-8.1-18.7-25.7-28.7-36.2-24.4c-10.4,4.4-15.2,23.8-7.1,42.4
		C-16.2,570-1.7,573.2,8.9,568.8z"/>
	<path class="st7" d="M-15.1,544.4c-6-13.7-5-27.9,0.2-36.1c-0.8,0.2-1.5,0.4-2.3,0.7c-10.4,4.4-15.2,23.8-7.1,42.4
		c8.1,18.7,22.6,21.8,33.2,17.5c3.5-1.5,6.7-3.8,9.1-7C7.4,566.2-7,562.9-15.1,544.4z"/>
	<path class="st7" d="M88.6,544.4c6-13.7,5-27.9-0.2-36.1c0.8,0.2,1.5,0.4,2.3,0.7c10.4,4.4,15.2,23.8,7.1,42.4
		c-8.1,18.7-22.6,21.8-33.2,17.5c-3.5-1.5-6.7-3.8-9.1-7C66.1,566.2,80.5,562.9,88.6,544.4z"/>
	<path class="st6" d="M36.7,571.4c11.5,0,23.5-8.5,23.5-28.8c0-20.3-12.2-36.3-23.5-36.3s-23.5,16-23.5,36.3
		C13.2,562.9,25.3,571.4,36.7,571.4z"/>
	<path class="st7" d="M24.5,542.6c0-16.9,8.5-30.9,17.9-35c-1.9-0.8-3.8-1.3-5.6-1.3c-11.3,0-23.5,16-23.5,36.3
		c0,20.3,12.1,28.8,23.5,28.8c1.9,0,3.8-0.2,5.6-0.7C32.9,568.3,24.5,559.6,24.5,542.6z"/>
</g>
</svg>
