<?xml version="1.0" encoding="utf-8"?>
<!-- Generator: Adobe Illustrator 19.0.1, SVG Export Plug-In . SVG Version: 6.00 Build 0)  -->
<svg version="1.1" id="egg_x5F_warn" xmlns="http://www.w3.org/2000/svg" xmlns:xlink="http://www.w3.org/1999/xlink" x="0px"
	 y="0px" viewBox="-223 225 512 512" style="enable-background:new -223 225 512 512;" xml:space="preserve">
<style type="text/css">
	.st0{clip-path:url(#SVGID_2_);}
	.st1{fill:#FBD303;}
	.st2{fill:#646B79;}
	.st3{clip-path:url(#SVGID_4_);}
	.st4{fill:#FF7B78;}
	.st5{opacity:0.1;}
	.st6{fill:#FFD77A;}
	.st7{fill:#FFA561;}
	.st8{fill:#43434D;}
	.st9{fill:#FF8D61;}
	.st10{fill:#F2F2F2;}
	.st11{opacity:0.1;enable-background:new    ;}
	.st12{clip-path:url(#SVGID_6_);}
	.st13{clip-path:url(#SVGID_8_);}
	.st14{font-family:'Arial-Black';}
	.st15{font-size:21.0661px;}
	.st16{font-size:20.1175px;}
</style>
<g>
	<defs>
		<polygon id="SVGID_1_" points="36.6,349.5 241.5,468.5 241.3,516.6 37.1,398.1 		"/>
	</defs>
	<clipPath id="SVGID_2_">
		<use xlink:href="#SVGID_1_"  style="overflow:visible;"/>
	</clipPath>
	<g class="st0">
		<polygon class="st1" points="36.6,323.5 241.5,442.5 241.3,490.7 37.1,372.1 		"/>
		<g>
			<polygon class="st2" points="241.5,442.5 229.8,435.7 190.6,461.2 220.5,478.6 241.4,465.1 			"/>
			<polygon class="st2" points="163.3,445.4 133.4,428 172.4,402.3 202.4,419.7 			"/>
			<polygon class="st2" points="106,412.1 76.1,394.8 114.9,368.9 144.9,386.4 			"/>
			<polygon class="st2" points="57.5,335.6 36.9,349.4 37.1,372.1 48.8,378.9 87.5,353 			"/>
		</g>
	</g>
</g>
<g>
	<defs>
		<polygon id="SVGID_3_" points="-167.7,442.6 36.5,324.1 36.7,372.3 -168.2,491.3 		"/>
	</defs>
	<clipPath id="SVGID_4_">
		<use xlink:href="#SVGID_3_"  style="overflow:visible;"/>
	</clipPath>
	<g class="st3">
		<polygon class="st1" points="-167.7,468.6 36.5,350.1 36.7,398.3 -168.2,517.3 		"/>
		<g>
			<polygon class="st2" points="36.6,375.6 15.7,362.1 -14.2,379.5 25,405.1 36.7,398.3 			"/>
			<polygon class="st2" points="-2.4,421 -32.4,438.4 -71.4,412.7 -41.5,395.4 			"/>
			<polygon class="st2" points="-59.9,454.4 -89.9,471.8 -128.7,446 -98.8,428.6 			"/>
			<polygon class="st2" points="-117.3,487.7 -156,461.8 -167.7,468.6 -167.9,491.4 -147.3,505.1 			"/>
		</g>
	</g>
</g>
<g>
	<path class="st4" d="M34,360.4c24.5,1.3,9.4,23.4-4.6,22.5l-59.8-3.9c0.5-34.7,34.6-55.6,44.1-42.6c1.9,2.6,1.5,6.2-0.5,9.7
		C33.7,341.7,42.5,353.5,34,360.4z"/>
	<g class="st5">
		<path d="M-17.6,379c0.4-23.2,15.7-40.2,28.6-45.1C-1,326.8-29.9,347-30.4,379H-17.6z"/>
	</g>
	<path class="st6" d="M-36.5,385.3c0,0-17.6-1.1-22.9,8.5c0,0-0.7,14.1,9.4,18.8L-36.5,385.3z"/>
	<g class="st5">
		<path d="M-58.8,392.8c-0.2,0.3-0.4,0.6-0.6,1c0,0-0.7,14.1,9.4,18.8l2.7-5.4C-53.6,403.9-57,397.6-58.8,392.8z"/>
	</g>
	<path class="st7" d="M122.6,447c0,47.9-39.7,86.7-88.6,86.7s-88.6-38.8-88.6-86.7c0-35.6,13.9-80.2,58-80.2
		c39.5,0,31.6,65.8,53.6,65.8L122.6,447z"/>
	<path class="st8" d="M-15.2,405.7c-1,0-2-0.1-3-0.4c-5.1-1.2-9-5.5-9.6-10.6c-0.3-2.1,1.2-3.9,3.4-4.2c2.1-0.2,4,1.2,4.3,3.3
		c0.2,2,1.8,3.7,3.8,4.2c2,0.5,4.2-0.3,5.4-2c1.2-1.7,3.6-2.1,5.3-1c1.7,1.2,2.2,3.5,1,5.2C-7.1,403.7-11,405.7-15.2,405.7z"/>
	<path class="st9" d="M42,430.1c-18.1,0-32.8,14.4-32.8,32.1l0,0c0,17.7,14.7,32.1,32.8,32.1h19.6c36.2,0,65.6-28.7,65.6-64.2l0,0
		L42,430.1L42,430.1z"/>
	<path class="st10" d="M100.4,553.8c-10.6-4.4-18.2-16.8-10.1-35.5c8.1-18.7,25.7-28.7,36.2-24.4c10.4,4.4,15.2,23.8,7.1,42.4
		C125.4,555,110.9,558.2,100.4,553.8z"/>
	<path class="st11" d="M123.3,531.3c6.6-15.1,4.7-30.7-1.8-38.4c1.8,0,3.4,0.4,4.9,1c10.4,4.4,15.2,23.8,7.1,42.4
		c-8.1,18.7-22.6,21.8-33.2,17.5c-2.2-0.9-4.2-2.1-6-3.7C104.3,552.1,116.3,547.6,123.3,531.3z"/>
	<path class="st10" d="M64.6,568.8c-10.6-4.4-18.2-16.8-10.1-35.5c8.1-18.7,25.7-28.7,36.2-24.4c10.4,4.4,15.2,23.8,7.1,42.4
		C89.7,570,75.2,573.2,64.6,568.8z"/>
	<path class="st10" d="M-26.9,553.8c10.6-4.4,18.2-16.8,10.1-35.5c-8.1-18.7-25.7-28.7-36.2-24.4c-10.4,4.4-15.2,23.8-7.1,42.4
		C-52,555-37.5,558.2-26.9,553.8z"/>
	<path class="st11" d="M-49.9,531.3c-6.6-15.1-4.7-30.7,1.8-38.4c-1.8,0-3.4,0.4-4.9,1c-10.4,4.4-15.2,23.8-7.1,42.4
		c8.1,18.7,22.6,21.8,33.2,17.5c2.2-0.9,4.2-2.1,6-3.7C-30.8,552.1-42.8,547.6-49.9,531.3z"/>
	<path class="st10" d="M8.9,568.8c10.6-4.4,18.2-16.8,10.1-35.5c-8.1-18.7-25.7-28.7-36.2-24.4c-10.4,4.4-15.2,23.8-7.1,42.4
		C-16.2,570-1.7,573.2,8.9,568.8z"/>
	<path class="st11" d="M-15.1,544.4c-6-13.7-5-27.9,0.2-36.1c-0.8,0.2-1.5,0.4-2.3,0.7c-10.4,4.4-15.2,23.8-7.1,42.4
		c8.1,18.7,22.6,21.8,33.2,17.5c3.5-1.5,6.7-3.8,9.1-7C7.4,566.2-7,562.9-15.1,544.4z"/>
	<path class="st11" d="M88.6,544.4c6-13.7,5-27.9-0.2-36.1c0.8,0.2,1.5,0.4,2.3,0.7c10.4,4.4,15.2,23.8,7.1,42.4
		c-8.1,18.7-22.6,21.8-33.2,17.5c-3.5-1.5-6.7-3.8-9.1-7C66.1,566.2,80.5,562.9,88.6,544.4z"/>
	<path class="st10" d="M36.7,571.4c11.5,0,23.5-8.5,23.5-28.8c0-20.3-12.2-36.3-23.5-36.3s-23.5,16-23.5,36.3
		C13.2,562.9,25.3,571.4,36.7,571.4z"/>
	<path class="st11" d="M24.5,542.6c0-16.9,8.5-30.9,17.9-35c-1.9-0.8-3.8-1.3-5.6-1.3c-11.3,0-23.5,16-23.5,36.3
		c0,20.3,12.1,28.8,23.5,28.8c1.9,0,3.8-0.2,5.6-0.7C32.9,568.3,24.5,559.6,24.5,542.6z"/>
</g>
<g>
	<defs>
		<polygon id="SVGID_5_" points="-168.1,469.1 36.8,588.1 36.6,636.3 -167.6,517.8 		"/>
	</defs>
	<clipPath id="SVGID_6_">
		<use xlink:href="#SVGID_5_"  style="overflow:visible;"/>
	</clipPath>
	<g class="st12">
		<polygon class="st1" points="-168.1,443.1 36.8,562.1 36.6,610.3 -167.6,491.8 		"/>
		<g>
			<polygon class="st2" points="36.8,562.1 25.1,555.3 -14.1,580.9 15.8,598.3 36.7,584.8 			"/>
			<polygon class="st2" points="-147.3,455.3 -167.8,469 -167.6,491.8 -155.9,498.6 -117.3,472.7 			"/>
		</g>
	</g>
</g>
<g>
	<defs>
		<polygon id="SVGID_7_" points="37.2,562.3 241.4,443.7 241.6,491.9 36.7,610.9 		"/>
	</defs>
	<clipPath id="SVGID_8_">
		<use xlink:href="#SVGID_7_"  style="overflow:visible;"/>
	</clipPath>
	<g class="st13">
		<polygon class="st1" points="37.2,588.3 241.4,469.7 241.6,517.9 36.7,636.9 		"/>
		<g>
			<polygon class="st2" points="241.5,495.3 220.6,481.8 190.7,499.2 229.9,524.7 241.6,517.9 			"/>
			<polygon class="st2" points="87.5,607.4 48.9,581.5 37.2,588.3 36.9,611 57.5,624.8 			"/>
		</g>
	</g>
</g>
<text transform="matrix(0.5926 0.3431 -0.501 0.8654 -117.3065 518.5786)" class="st14 st15">Crime Scene</text>
<text transform="matrix(0.5889 -0.3413 0.5015 0.8652 75.196 585.8657)" class="st14 st16">Do Not Cross Line</text>
</svg>
