<?xml version="1.0" encoding="utf-8"?>
<!-- Generator: Adobe Illustrator 19.0.1, SVG Export Plug-In . SVG Version: 6.00 Build 0)  -->
<svg version="1.1" id="aubergine" xmlns="http://www.w3.org/2000/svg" xmlns:xlink="http://www.w3.org/1999/xlink" x="0px" y="0px"
	 viewBox="0 0 50 50" style="enable-background:new 0 0 50 50;" xml:space="preserve">
<style type="text/css">
	.st0{fill:#583E68;}
	.st1{fill:#6A3311;}
	.st2{fill:#659C35;}
	.st3{fill:#6F58A8;}
</style>
<g>
	<g>
		<path class="st0" d="M42.9,16.1C42.9,16.1,43,16.1,42.9,16.1L42.9,16.1C42.9,16.1,42.9,16.1,42.9,16.1c-0.9-0.6-1.3-1.7-0.8-2.4
			c-0.5,0.7-1.6,0.7-2.5,0c-0.9-0.6-1.3-1.7-0.8-2.4c-0.5,0.7-1.6,0.7-2.5,0c-0.9-0.6-1.3-1.7-0.8-2.4C35,9.7,34,9.8,33.2,9.3
			c-1.3,0.9-2.7,2.2-4.3,4c0,0-6.9,6.4-16.5,8.2c-0.9,0.2-1.8,0.4-2.6,0.7c-0.4,0.2-1.2,0.6-1.2,0.6c-5.7,3.2-8.7,9.9-7,16.4
			c1.6,5.9,6.6,9.9,12.4,10.6c2.6,0.3,5.3-0.3,7.7-1.4c5.3-2.5,16.2-9.7,20.7-28.2c0,0,0.7-1.7,1.2-3.8
			C43.2,16.3,43.1,16.2,42.9,16.1z"/>
		<path class="st1" d="M42.7,6.5c-0.5,0-0.9-0.4-0.9-0.9s0.4-0.9,0.9-0.9c1.6,0,3-0.5,3.5-1.3c0.4-0.6,0.4-1.4,0-2.3
			c-0.2-0.4,0-0.9,0.5-1.1c0.4-0.2,0.9,0,1.1,0.5c0.8,1.9,0.4,3.2-0.1,3.9C46.8,5.7,44.9,6.5,42.7,6.5z"/>
		<path class="st2" d="M32.9,9.1c-0.8-0.6-1.1-1.7-0.5-2.5c0.6-0.8,1.7-1,2.6-0.4c1.8-2.6,5.1-2.4,7.8-0.5c2.7,1.9,3.9,4.8,2.1,7.4
			c0.8,0.6,1.1,1.7,0.5,2.5c-0.6,0.8-1.6,1-2.5,0.5l0,0c-0.9-0.6-1.3-1.7-0.8-2.4c-0.5,0.7-1.6,0.7-2.5,0c-0.9-0.6-1.3-1.7-0.8-2.4
			c-0.5,0.7-1.6,0.7-2.5,0c-0.9-0.6-1.3-1.7-0.8-2.4C35,9.8,33.9,9.8,32.9,9.1"/>
		<path class="st3" d="M7.6,42.8c-0.3,0-0.6-0.1-0.7-0.4c-2-3.3-2.3-7.8-0.6-11.6c0.2-0.4,0.7-0.6,1.1-0.4s0.6,0.7,0.4,1.1
			c-1.4,3.3-1.2,7.1,0.5,10c0.2,0.4,0.1,0.9-0.3,1.2C7.9,42.8,7.7,42.8,7.6,42.8z"/>
		<path class="st3" d="M8.7,29.3c-0.2,0-0.4-0.1-0.6-0.2c-0.4-0.3-0.4-0.8-0.1-1.2c1-1.2,2.4-2.2,3.8-2.7c0.4-0.2,0.9,0,1.1,0.5
			c0.2,0.4,0,0.9-0.5,1.1c-1.2,0.5-2.3,1.3-3.1,2.3C9.2,29.2,9,29.3,8.7,29.3z"/>
	</g>
</g>
</svg>
