<?xml version="1.0" encoding="utf-8"?>
<!-- Generator: Adobe Illustrator 19.0.1, SVG Export Plug-In . SVG Version: 6.00 Build 0)  -->
<svg version="1.1" id="eggplant_x5F_warn" xmlns="http://www.w3.org/2000/svg" xmlns:xlink="http://www.w3.org/1999/xlink" x="0px"
	 y="0px" viewBox="-223 225 512 512" style="enable-background:new -223 225 512 512;" xml:space="preserve">
<style type="text/css">
	.st0{clip-path:url(#SVGID_2_);}
	.st1{fill:#FBD303;}
	.st2{fill:#646B79;}
	.st3{clip-path:url(#SVGID_4_);}
	.st4{fill:#2C702F;}
	.st5{fill:#583E68;}
	.st6{fill:#6A3311;}
	.st7{fill:#659C35;}
	.st8{fill:#6F58A8;}
	.st9{clip-path:url(#SVGID_6_);}
	.st10{clip-path:url(#SVGID_8_);}
	.st11{font-family:'Arial-Black';}
	.st12{font-size:21.0661px;}
	.st13{font-size:20.1175px;}
</style>
<g>
	<defs>
		<polygon id="SVGID_1_" points="19.7,362.8 224.6,481.8 224.4,530 20.2,411.4 		"/>
	</defs>
	<clipPath id="SVGID_2_">
		<use xlink:href="#SVGID_1_"  style="overflow:visible;"/>
	</clipPath>
	<g class="st0">
		<polygon class="st1" points="19.7,336.8 224.6,455.8 224.4,504 20.2,385.4 		"/>
		<g>
			<polygon class="st2" points="224.6,455.8 212.9,449 173.7,474.6 203.6,491.9 224.5,478.4 			"/>
			<polygon class="st2" points="146.4,458.7 116.5,441.3 155.4,415.6 185.5,433.1 			"/>
			<polygon class="st2" points="89.1,425.5 59.2,408.1 98,382.3 128,399.7 			"/>
			<polygon class="st2" points="40.5,348.9 20,362.7 20.2,385.4 31.9,392.2 70.5,366.3 			"/>
		</g>
	</g>
</g>
<g>
	<defs>
		<polygon id="SVGID_3_" points="-184.6,455.9 19.6,337.4 19.8,385.6 -185.1,504.6 		"/>
	</defs>
	<clipPath id="SVGID_4_">
		<use xlink:href="#SVGID_3_"  style="overflow:visible;"/>
	</clipPath>
	<g class="st3">
		<polygon class="st1" points="-184.6,481.9 19.6,363.4 19.8,411.6 -185.1,530.6 		"/>
		<g>
			<polygon class="st2" points="19.7,389 -1.2,375.5 -31.1,392.8 8.1,418.4 19.8,411.6 			"/>
			<polygon class="st2" points="-19.3,434.3 -49.3,451.8 -88.3,426.1 -58.4,408.7 			"/>
			<polygon class="st2" points="-76.8,467.7 -106.8,485.1 -145.6,459.3 -115.7,441.9 			"/>
			<polygon class="st2" points="-134.2,501 -172.9,475.2 -184.6,481.9 -184.8,504.7 -164.3,518.5 			"/>
		</g>
	</g>
</g>
<g>
	<g>
		<g>
			<path class="st4" d="M81.7,584.1c-17.2,11.2-27.6-1.3-30.8-6.1c4.4-2.6,6.5-4.1,13.6-7c5.2,4.2,17.1,2.9,17.1,2.9
				c-7.7-0.3-12.8-3-14.5-4.1c0.5-0.2,9.1-3.1,12.1-5.4c5.8,2,12.2-1.6,12.2-1.6c-0.1-0.2-3.8,1.2-9.5-0.3
				c8.4-6.7,10.5-14.7,10.5-14.7s-4.3,6.5-12.2,12.7c0.6-5.9,3.2-9.3,3-9.4c0,0-5.7,5.1-5.7,11.4c-4,2.5-9.6,4-11.8,4.8
				c0-0.4,0-6.9,4.4-15.1c0,0-8.2,9.6-6.9,16.2c-4.5,1.7-5.7,2.1-13.9,7.1c-10.7-14.6,6.9-29.5,18.6-30.6c12-1.2,16.2,1.1,30.9-11.9
				C104.7,551.8,95.8,574.9,81.7,584.1z M24.1,566.2c6,5.6,9.4,11.7,11.4,17.1c0.1-0.1,0.2-0.2,0.2-0.4
				c13.8-22.4-22.2-29.7-22.2-29.7s2.4,9.4,2.5,18.8c0.1,10.9,10.2,23.1,18.4,12.7C32.6,579.1,29.5,572.5,24.1,566.2z M50.3,580.1
				c0-0.1-0.9-4.7-0.9-4.8c-9.1,10.7-14.5,20.6-19.1,33.9c0.6-4.9,1.2-12.8,0.6-21.5c-0.5,1-0.9,1.9-1.3,2.7
				c0.4,9.9-2,22.5-2.5,26.7c-3.4,11.2-4.5,16.9-6.9,26.4c0,0,1.8,4.4,4.6-1.9C24.9,635.4,35.1,596.4,50.3,580.1z"/>
		</g>
	</g>
	<g>
		<g>
			<path class="st5" d="M17.9,566.4c-0.7,2-1,3.8-1,3.8c-5.7,17.3,1.5,31.2,5.6,37.2c1.8,2.7,4.3,5.2,7.2,7c6.3,4,13.8,4.9,18.8,1.7
				c5.6-3.5,6.2-10.9,2-17.7c0,0-0.6-1-0.9-1.4c-0.7-0.9-1.5-1.8-2.3-2.6c-9.1-8.9-12.6-19-12.6-19c-0.7-2.5-1.4-4.6-2.3-6.4
				c-1.2-0.3-2.2-1.1-2.3-1.9c0.1,0.9-0.9,1.4-2.2,1.1c-1.3-0.2-2.5-1.1-2.6-2c0.1,0.9-0.9,1.4-2.2,1.1c-1.3-0.2-2.5-1.1-2.6-2
				c0.1,0.8-0.9,1.3-2.2,1.1c0,0,0,0,0,0l0,0c0,0,0,0,0,0C18.2,566.5,18.1,566.4,17.9,566.4z"/>
			<path class="st6" d="M20.1,554.1c-0.1-0.9,0.2-2.2,2.1-3c0.4-0.2,1.1,0.1,1.4,0.5c0.3,0.5,0.3,1-0.2,1.2c-1,0.4-1.4,1-1.3,1.7
				c0.1,1,1.2,2.4,2.9,3.7c0.5,0.4,0.7,0.9,0.4,1.3c-0.3,0.4-0.9,0.3-1.4,0C21.8,557.8,20.3,555.7,20.1,554.1z"/>
			<path class="st7" d="M32.7,569.1c-1.3-0.2-2.5-1.1-2.6-2c0.1,0.9-0.9,1.4-2.2,1.1c-1.3-0.2-2.5-1.1-2.6-2
				c0.1,0.9-0.9,1.4-2.2,1.1c-1.3-0.2-2.5-1.1-2.6-2c0.1,0.9-0.9,1.4-2.2,1.1l0,0c-1.2-0.2-2.2-1.2-2.3-2.3c-0.1-1,0.7-1.7,2-1.5
				c-0.4-3.4,2.5-4.6,6.4-3.9c3.9,0.7,7.4,3.1,7.8,6.4c1.2,0.2,2.3,1.2,2.4,2.3C34.9,568.6,34,569.3,32.7,569.1"/>
			<path class="st8" d="M39.7,613.7c-0.3-0.5-0.1-1,0.4-1.1c3.4-0.8,5.8-3.5,6.1-7.1c0-0.5,0.5-0.7,1.1-0.5c0.6,0.2,1,0.7,0.9,1.2
				c-0.4,4.1-3.2,7.3-7.1,8.2c-0.3,0.1-0.7,0-1-0.3C40,614,39.8,613.8,39.7,613.7z"/>
			<path class="st8" d="M46,602.4c-0.3-1.4-1-2.9-2-4.2c-0.4-0.5-0.3-1,0.1-1.2c0.4-0.2,1.1,0,1.4,0.5c1.2,1.6,2,3.3,2.4,5
				c0.1,0.5-0.2,0.9-0.8,0.8c-0.2,0-0.5-0.1-0.7-0.3C46.3,602.9,46.1,602.6,46,602.4z"/>
		</g>
	</g>
	<g>
		<g>
			<path class="st4" d="M46.2,544.9c-10.9,22.3-29.5,15.7-35.8,12.7c3-5.4,4.2-8.2,9.8-15.7c8,1.2,19.5-7.6,19.5-7.6
				c-8.1,4.4-15.1,4.8-17.6,4.7c0.4-0.5,7.5-8.8,9.2-13.1c7.2-1.5,11.7-9.2,11.7-9.2c-0.2-0.1-3.2,3.6-10,5.6
				c4.6-12.2,1.9-21.8,1.9-21.8s-0.5,9.4-4.8,20.7c-3-6.5-2.4-11.6-2.7-11.7c0,0-2.8,8.8,1.1,15.4c-2.6,5.1-7.5,10.1-9.2,12.2
				c-0.3-0.4-4.3-7.1-4.8-18.4c0,0-2.5,15,2.9,21.1c-3.6,4.6-4.6,5.7-10.1,15.9c-20.1-8.5-11.1-34.9,0.3-43.3
				c11.7-8.7,17.5-8.9,24.6-31.5C50.1,497.2,55.1,526.7,46.2,544.9z M-24.7,562.1c9.6,2.1,17,6.3,22.5,10.7c0-0.2,0-0.3,0-0.5
				c0.5-31.8-41.4-17.1-41.4-17.1s8.3,8.2,14.2,18c6.8,11.3,24.9,17.7,27,1.7C-7.9,570.2-15.3,565.2-24.7,562.1z M11.1,560.3
				c-0.1-0.1-3.9-4.3-3.9-4.4c-2.9,16.8-2.3,30.4,1.2,47c-2.4-5.4-6.6-14-12.6-22.7c0.1,1.3,0.2,2.5,0.3,3.6
				c6.6,10,11.8,24.6,13.9,29.3c3.4,13.7,5.8,20.4,9.1,31.7c0,0,4.6,3.5,3.6-4.9C18.9,633.4,5.3,586.6,11.1,560.3z"/>
		</g>
	</g>
</g>
<g>
	<g>
		<g>
			<path class="st4" d="M-75.3,492.7c-17.2,11.2-27.6-1.3-30.8-6.1c4.4-2.6,6.5-4.1,13.6-7c5.2,4.2,17.1,2.9,17.1,2.9
				c-7.7-0.3-12.8-3-14.5-4.1c0.5-0.2,9.1-3.1,12.1-5.4c5.8,2,12.2-1.6,12.2-1.6c-0.1-0.2-3.8,1.2-9.5-0.3
				c8.4-6.7,10.5-14.7,10.5-14.7s-4.3,6.5-12.2,12.7c0.6-5.9,3.2-9.3,3-9.4c0,0-5.7,5.1-5.7,11.4c-4,2.5-9.6,4-11.8,4.8
				c0-0.4,0-6.9,4.4-15.1c0,0-8.2,9.6-6.9,16.2c-4.5,1.7-5.7,2.1-13.9,7.1c-10.7-14.6,6.9-29.5,18.6-30.6c12-1.2,16.2,1.1,30.9-11.9
				C-52.3,460.4-61.3,483.5-75.3,492.7z M-133,474.8c6,5.6,9.4,11.7,11.4,17.1c0.1-0.1,0.2-0.2,0.2-0.4
				c13.8-22.4-22.2-29.7-22.2-29.7s2.4,9.4,2.5,18.8c0.1,10.9,10.2,23.1,18.4,12.7C-124.4,487.7-127.6,481.1-133,474.8z
				 M-106.7,488.7c0-0.1-0.9-4.7-0.9-4.8c-9.1,10.7-14.5,20.6-19.1,33.9c0.6-4.9,1.2-12.8,0.6-21.5c-0.5,1-0.9,1.9-1.3,2.7
				c0.4,9.9-2,22.5-2.5,26.7c-3.4,11.2-4.5,16.9-6.9,26.4c0,0,1.8,4.4,4.6-1.9C-132.2,544-122,505-106.7,488.7z"/>
		</g>
	</g>
	<g>
		<g>
			<path class="st5" d="M-139.1,475c-0.7,2-1,3.8-1,3.8c-5.7,17.3,1.5,31.2,5.6,37.2c1.8,2.7,4.3,5.2,7.2,7c6.3,4,13.8,4.9,18.8,1.7
				c5.6-3.5,6.2-10.9,2-17.7c0,0-0.6-1-0.9-1.4c-0.7-0.9-1.5-1.8-2.3-2.6c-9.1-8.9-12.6-19-12.6-19c-0.7-2.5-1.4-4.6-2.3-6.4
				c-1.2-0.3-2.2-1.1-2.3-1.9c0.1,0.9-0.9,1.4-2.2,1.1c-1.3-0.2-2.5-1.1-2.6-2c0.1,0.9-0.9,1.4-2.2,1.1c-1.3-0.2-2.5-1.1-2.6-2
				c0.1,0.8-0.9,1.3-2.2,1.1c0,0,0,0,0,0l0,0c0,0,0,0,0,0C-138.8,475.1-139,475-139.1,475z"/>
			<path class="st6" d="M-136.9,462.7c-0.1-0.9,0.2-2.2,2.1-3c0.4-0.2,1.1,0.1,1.4,0.5c0.3,0.5,0.3,1-0.2,1.2c-1,0.4-1.4,1-1.3,1.7
				c0.1,1,1.2,2.4,2.9,3.7c0.5,0.4,0.7,0.9,0.4,1.3c-0.3,0.4-0.9,0.3-1.4,0C-135.2,466.4-136.7,464.3-136.9,462.7z"/>
			<path class="st7" d="M-124.3,477.7c-1.3-0.2-2.5-1.1-2.6-2c0.1,0.9-0.9,1.4-2.2,1.1c-1.3-0.2-2.5-1.1-2.6-2
				c0.1,0.9-0.9,1.4-2.2,1.1c-1.3-0.2-2.5-1.1-2.6-2c0.1,0.9-0.9,1.4-2.2,1.1l0,0c-1.2-0.2-2.2-1.2-2.3-2.3s0.7-1.7,2-1.5
				c-0.4-3.4,2.5-4.6,6.4-3.9c3.9,0.7,7.4,3.1,7.8,6.4c1.2,0.2,2.3,1.2,2.4,2.3C-122.2,477.2-123,477.9-124.3,477.7"/>
			<path class="st8" d="M-117.3,522.2c-0.3-0.5-0.1-1,0.4-1.1c3.4-0.8,5.8-3.5,6.1-7.1c0-0.5,0.5-0.7,1.1-0.5s1,0.7,0.9,1.2
				c-0.4,4.1-3.2,7.3-7.1,8.2c-0.3,0.1-0.7,0-1-0.3C-117.1,522.6-117.2,522.4-117.3,522.2z"/>
			<path class="st8" d="M-111,511c-0.3-1.4-1-2.9-2-4.2c-0.4-0.5-0.3-1,0.1-1.2c0.4-0.2,1.1,0,1.4,0.5c1.2,1.6,2,3.3,2.4,5
				c0.1,0.5-0.2,0.9-0.8,0.8c-0.2,0-0.5-0.1-0.7-0.3C-110.7,511.5-110.9,511.2-111,511z"/>
		</g>
	</g>
	<g>
		<g>
			<path class="st4" d="M-110.8,453.5c-10.9,22.3-29.5,15.7-35.8,12.7c3-5.4,4.2-8.2,9.8-15.7c8,1.2,19.5-7.6,19.5-7.6
				c-8.1,4.4-15.1,4.8-17.6,4.7c0.4-0.5,7.5-8.8,9.2-13.1c7.2-1.5,11.7-9.2,11.7-9.2c-0.2-0.1-3.2,3.6-10,5.6
				c4.6-12.2,1.9-21.8,1.9-21.8s-0.5,9.4-4.8,20.7c-3-6.5-2.4-11.6-2.7-11.7c0,0-2.8,8.8,1.1,15.4c-2.6,5.1-7.5,10.1-9.2,12.2
				c-0.3-0.4-4.3-7.1-4.8-18.4c0,0-2.5,15,2.9,21.1c-3.6,4.6-4.6,5.7-10.1,15.9c-20.1-8.5-11.1-34.9,0.3-43.3
				c11.7-8.7,17.5-8.9,24.6-31.5C-106.9,405.8-102,435.3-110.8,453.5z M-181.7,470.7c9.6,2.1,17,6.3,22.5,10.7c0-0.2,0-0.3,0-0.5
				c0.5-31.8-41.4-17.1-41.4-17.1s8.3,8.2,14.2,18c6.8,11.3,24.9,17.7,27,1.7C-164.9,478.8-172.3,473.8-181.7,470.7z M-146,468.9
				c-0.1-0.1-3.9-4.3-3.9-4.4c-2.9,16.8-2.3,30.4,1.2,47c-2.4-5.4-6.6-14-12.6-22.7c0.1,1.3,0.2,2.5,0.3,3.6
				c6.6,10,11.8,24.6,13.9,29.3c3.4,13.7,5.8,20.4,9.1,31.7c0,0,4.6,3.5,3.6-4.9C-138.1,542-151.7,495.2-146,468.9z"/>
		</g>
	</g>
</g>
<g>
	<g>
		<g>
			<path class="st4" d="M88,398.8c-17.2,11.2-27.6-1.3-30.8-6.1c4.4-2.6,6.5-4.1,13.6-7c5.2,4.2,17.1,2.9,17.1,2.9
				c-7.7-0.3-12.8-3-14.5-4.1c0.5-0.2,9.1-3.1,12.1-5.4c5.8,2,12.2-1.6,12.2-1.6c-0.1-0.2-3.8,1.2-9.5-0.3
				c8.4-6.7,10.5-14.7,10.5-14.7s-4.3,6.5-12.2,12.7c0.6-5.9,3.2-9.3,3-9.4c0,0-5.7,5.1-5.7,11.4c-4,2.5-9.6,4-11.8,4.8
				c0-0.4,0-6.9,4.4-15.1c0,0-8.2,9.6-6.9,16.2c-4.5,1.7-5.7,2.1-13.9,7.1c-10.7-14.6,6.9-29.5,18.6-30.6c12-1.2,16.2,1.1,30.9-11.9
				C111,366.5,102,389.6,88,398.8z M30.3,380.9c6,5.6,9.4,11.7,11.4,17.1c0.1-0.1,0.2-0.2,0.2-0.4C55.7,375.3,19.8,368,19.8,368
				s2.4,9.4,2.5,18.8c0.1,10.9,10.2,23.1,18.4,12.7C38.8,393.8,35.7,387.2,30.3,380.9z M56.5,394.8c0-0.1-0.9-4.7-0.9-4.8
				c-9.1,10.7-14.5,20.6-19.1,33.9c0.6-4.9,1.2-12.8,0.6-21.5c-0.5,1-0.9,1.9-1.3,2.7c0.4,9.9-2,22.5-2.5,26.7
				c-3.4,11.2-4.5,16.9-6.9,26.4c0,0,1.8,4.4,4.6-1.9C31.1,450.1,41.3,411.1,56.5,394.8z"/>
		</g>
	</g>
	<g>
		<g>
			<path class="st5" d="M24.1,381c-0.7,2-1,3.8-1,3.8c-5.7,17.3,1.5,31.2,5.6,37.2c1.8,2.7,4.3,5.2,7.2,7c6.3,4,13.8,4.9,18.8,1.7
				c5.6-3.5,6.2-10.9,2-17.7c0,0-0.6-1-0.9-1.4c-0.7-0.9-1.5-1.8-2.3-2.6c-9.1-8.9-12.6-19-12.6-19c-0.7-2.5-1.4-4.6-2.3-6.4
				c-1.2-0.3-2.2-1.1-2.3-1.9c0.1,0.9-0.9,1.4-2.2,1.1c-1.3-0.2-2.5-1.1-2.6-2c0.1,0.9-0.9,1.4-2.2,1.1c-1.3-0.2-2.5-1.1-2.6-2
				c0.1,0.8-0.9,1.3-2.2,1.1c0,0,0,0,0,0l0,0c0,0,0,0,0,0C24.5,381.2,24.3,381.1,24.1,381z"/>
			<path class="st6" d="M26.4,368.8c-0.1-0.9,0.2-2.2,2.1-3c0.4-0.2,1.1,0.1,1.4,0.5c0.3,0.5,0.3,1-0.2,1.2c-1,0.4-1.4,1-1.3,1.7
				c0.1,1,1.2,2.4,2.9,3.7c0.5,0.4,0.7,0.9,0.4,1.3c-0.3,0.4-0.9,0.3-1.4,0C28,372.5,26.5,370.4,26.4,368.8z"/>
			<path class="st7" d="M39,383.8c-1.3-0.2-2.5-1.1-2.6-2c0.1,0.9-0.9,1.4-2.2,1.1c-1.3-0.2-2.5-1.1-2.6-2c0.1,0.9-0.9,1.4-2.2,1.1
				c-1.3-0.2-2.5-1.1-2.6-2c0.1,0.9-0.9,1.4-2.2,1.1l0,0c-1.2-0.2-2.2-1.2-2.3-2.3c-0.1-1,0.7-1.7,2-1.5c-0.4-3.4,2.5-4.6,6.4-3.9
				c3.9,0.7,7.4,3.1,7.8,6.4c1.2,0.2,2.3,1.2,2.4,2.3C41.1,383.3,40.2,384,39,383.8"/>
			<path class="st8" d="M46,428.3c-0.3-0.5-0.1-1,0.4-1.1c3.4-0.8,5.8-3.5,6.1-7.1c0-0.5,0.5-0.7,1.1-0.5c0.6,0.2,1,0.7,0.9,1.2
				c-0.4,4.1-3.2,7.3-7.1,8.2c-0.3,0.1-0.7,0-1-0.3C46.2,428.7,46,428.5,46,428.3z"/>
			<path class="st8" d="M52.3,417c-0.3-1.4-1-2.9-2-4.2c-0.4-0.5-0.3-1,0.1-1.2c0.4-0.2,1.1,0,1.4,0.5c1.2,1.6,2,3.3,2.4,5
				c0.1,0.5-0.2,0.9-0.8,0.8c-0.2,0-0.5-0.1-0.7-0.3C52.5,417.6,52.3,417.3,52.3,417z"/>
		</g>
	</g>
	<g>
		<g>
			<path class="st4" d="M52.4,359.6c-10.9,22.3-29.5,15.7-35.8,12.7c3-5.4,4.2-8.2,9.8-15.7c8,1.2,19.5-7.6,19.5-7.6
				c-8.1,4.4-15.1,4.8-17.6,4.7c0.4-0.5,7.5-8.8,9.2-13.1c7.2-1.5,11.7-9.2,11.7-9.2c-0.2-0.1-3.2,3.6-10,5.6
				c4.6-12.2,1.9-21.8,1.9-21.8s-0.5,9.4-4.8,20.7c-3-6.5-2.4-11.6-2.7-11.7c0,0-2.8,8.8,1.1,15.4c-2.6,5.1-7.5,10.1-9.2,12.2
				c-0.3-0.4-4.3-7.1-4.8-18.4c0,0-2.5,15,2.9,21.1c-3.6,4.6-4.6,5.7-10.1,15.9c-20.1-8.5-11.1-34.9,0.3-43.3
				c11.7-8.7,17.5-8.9,24.6-31.5C56.3,311.9,61.3,341.4,52.4,359.6z M-18.5,376.8c9.6,2.1,17,6.3,22.5,10.7c0-0.2,0-0.3,0-0.5
				c0.5-31.8-41.4-17.1-41.4-17.1s8.3,8.2,14.2,18c6.8,11.3,24.9,17.7,27,1.7C-1.7,384.8-9,379.9-18.5,376.8z M17.3,375
				c-0.1-0.1-3.9-4.3-3.9-4.4c-2.9,16.8-2.3,30.4,1.2,47c-2.4-5.4-6.6-14-12.6-22.7c0.1,1.3,0.2,2.5,0.3,3.6
				c6.6,10,11.8,24.6,13.9,29.3c3.4,13.7,5.8,20.4,9.1,31.7c0,0,4.6,3.5,3.6-4.9C25.2,448.1,11.6,401.3,17.3,375z"/>
		</g>
	</g>
</g>
<g>
	<g>
		<g>
			<path class="st4" d="M248.9,491.7c-17.2,11.2-27.6-1.3-30.8-6.1c4.4-2.6,6.5-4.1,13.6-7c5.2,4.2,17.1,2.9,17.1,2.9
				c-7.7-0.3-12.8-3-14.5-4.1c0.5-0.2,9.1-3.1,12.1-5.4c5.8,2,12.2-1.6,12.2-1.6c-0.1-0.2-3.8,1.2-9.5-0.3
				c8.4-6.7,10.5-14.7,10.5-14.7s-4.3,6.5-12.2,12.7c0.6-5.9,3.2-9.3,3-9.4c0,0-5.7,5.1-5.7,11.4c-4,2.5-9.6,4-11.8,4.8
				c0-0.4,0-6.9,4.4-15.1c0,0-8.2,9.6-6.9,16.2c-4.5,1.7-5.7,2.1-13.9,7.1c-10.7-14.6,6.9-29.5,18.6-30.6c12-1.2,16.2,1.1,30.9-11.9
				C271.9,459.4,263,482.5,248.9,491.7z M191.3,473.8c6,5.6,9.4,11.7,11.4,17.1c0.1-0.1,0.2-0.2,0.2-0.4
				c13.8-22.4-22.2-29.7-22.2-29.7s2.4,9.4,2.5,18.8c0.1,10.9,10.2,23.1,18.4,12.7C199.8,486.7,196.6,480.1,191.3,473.8z
				 M217.5,487.7c0-0.1-0.9-4.7-0.9-4.8c-9.1,10.7-14.5,20.6-19.1,33.9c0.6-4.9,1.2-12.8,0.6-21.5c-0.5,1-0.9,1.9-1.3,2.7
				c0.4,9.9-2,22.5-2.5,26.7c-3.4,11.2-4.5,16.9-6.9,26.4c0,0,1.8,4.4,4.6-1.9C192,543,202.3,504,217.5,487.7z"/>
		</g>
	</g>
	<g>
		<g>
			<path class="st5" d="M185.1,474c-0.7,2-1,3.8-1,3.8c-5.7,17.3,1.5,31.2,5.6,37.2c1.8,2.7,4.3,5.2,7.2,7c6.3,4,13.8,4.9,18.8,1.7
				c5.6-3.5,6.2-10.9,2-17.7c0,0-0.6-1-0.9-1.4c-0.7-0.9-1.5-1.8-2.3-2.6c-9.1-8.9-12.6-19-12.6-19c-0.7-2.5-1.4-4.6-2.3-6.4
				c-1.2-0.3-2.2-1.1-2.3-1.9c0.1,0.9-0.9,1.4-2.2,1.1c-1.3-0.2-2.5-1.1-2.6-2c0.1,0.9-0.9,1.4-2.2,1.1c-1.3-0.2-2.5-1.1-2.6-2
				c0.1,0.8-0.9,1.3-2.2,1.1c0,0,0,0,0,0l0,0c0,0,0,0,0,0C185.4,474.1,185.3,474,185.1,474z"/>
			<path class="st6" d="M187.3,461.7c-0.1-0.9,0.2-2.2,2.1-3c0.4-0.2,1.1,0.1,1.4,0.5c0.3,0.5,0.3,1-0.2,1.2c-1,0.4-1.4,1-1.3,1.7
				c0.1,1,1.2,2.4,2.9,3.7c0.5,0.4,0.7,0.9,0.4,1.3c-0.3,0.4-0.9,0.3-1.4,0C189,465.4,187.5,463.3,187.3,461.7z"/>
			<path class="st7" d="M199.9,476.7c-1.3-0.2-2.5-1.1-2.6-2c0.1,0.9-0.9,1.4-2.2,1.1c-1.3-0.2-2.5-1.1-2.6-2
				c0.1,0.9-0.9,1.4-2.2,1.1c-1.3-0.2-2.5-1.1-2.6-2c0.1,0.9-0.9,1.4-2.2,1.1l0,0c-1.2-0.2-2.2-1.2-2.3-2.3s0.7-1.7,2-1.5
				c-0.4-3.4,2.5-4.6,6.4-3.9c3.9,0.7,7.4,3.1,7.8,6.4c1.2,0.2,2.3,1.2,2.4,2.3C202.1,476.2,201.2,476.9,199.9,476.7"/>
			<path class="st8" d="M206.9,521.2c-0.3-0.5-0.1-1,0.4-1.1c3.4-0.8,5.8-3.5,6.1-7.1c0-0.5,0.5-0.7,1.1-0.5c0.6,0.2,1,0.7,0.9,1.2
				c-0.4,4.1-3.2,7.3-7.1,8.2c-0.3,0.1-0.7,0-1-0.3C207.1,521.6,207,521.4,206.9,521.2z"/>
			<path class="st8" d="M213.2,510c-0.3-1.4-1-2.9-2-4.2c-0.4-0.5-0.3-1,0.1-1.2c0.4-0.2,1.1,0,1.4,0.5c1.2,1.6,2,3.3,2.4,5
				c0.1,0.5-0.2,0.9-0.8,0.8c-0.2,0-0.5-0.1-0.7-0.3C213.5,510.5,213.3,510.2,213.2,510z"/>
		</g>
	</g>
	<g>
		<g>
			<path class="st4" d="M213.4,452.5c-10.9,22.3-29.5,15.7-35.8,12.7c3-5.4,4.2-8.2,9.8-15.7c8,1.2,19.5-7.6,19.5-7.6
				c-8.1,4.4-15.1,4.8-17.6,4.7c0.4-0.5,7.5-8.8,9.2-13.1c7.2-1.5,11.7-9.2,11.7-9.2c-0.2-0.1-3.2,3.6-10,5.6
				c4.6-12.2,1.9-21.8,1.9-21.8s-0.5,9.4-4.8,20.7c-3-6.5-2.4-11.6-2.7-11.7c0,0-2.8,8.8,1.1,15.4c-2.6,5.1-7.5,10.1-9.2,12.2
				c-0.3-0.4-4.3-7.1-4.8-18.4c0,0-2.5,15,2.9,21.1c-3.6,4.6-4.6,5.7-10.1,15.9c-20.1-8.5-11.1-34.9,0.3-43.3
				c11.7-8.7,17.5-8.9,24.6-31.5C217.3,404.8,222.3,434.3,213.4,452.5z M142.5,469.7c9.6,2.1,17,6.3,22.5,10.7c0-0.2,0-0.3,0-0.5
				c0.5-31.8-41.4-17.1-41.4-17.1s8.3,8.2,14.2,18c6.8,11.3,24.9,17.7,27,1.7C159.3,477.8,151.9,472.8,142.5,469.7z M178.3,467.9
				c-0.1-0.1-3.9-4.3-3.9-4.4c-2.9,16.8-2.3,30.4,1.2,47c-2.4-5.4-6.6-14-12.6-22.7c0.1,1.3,0.2,2.5,0.3,3.6
				c6.6,10,11.8,24.6,13.9,29.3c3.4,13.7,5.8,20.4,9.1,31.7c0,0,4.6,3.5,3.6-4.9C186.1,541,172.5,494.2,178.3,467.9z"/>
		</g>
	</g>
</g>
<g>
	<defs>
		<polygon id="SVGID_5_" points="-185,482.5 19.9,601.5 19.7,649.6 -184.5,531.1 		"/>
	</defs>
	<clipPath id="SVGID_6_">
		<use xlink:href="#SVGID_5_"  style="overflow:visible;"/>
	</clipPath>
	<g class="st9">
		<polygon class="st1" points="-185,456.5 19.9,575.5 19.7,623.6 -184.5,505.1 		"/>
		<g>
			<polygon class="st2" points="19.9,575.5 8.2,568.7 -31,594.2 -1.1,611.6 19.8,598.1 			"/>
			<polygon class="st2" points="-164.2,468.6 -184.8,482.4 -184.5,505.1 -172.8,511.9 -134.2,486 			"/>
		</g>
	</g>
</g>
<g>
	<defs>
		<polygon id="SVGID_7_" points="20.3,575.6 224.4,457.1 224.7,505.3 19.8,624.3 		"/>
	</defs>
	<clipPath id="SVGID_8_">
		<use xlink:href="#SVGID_7_"  style="overflow:visible;"/>
	</clipPath>
	<g class="st10">
		<polygon class="st1" points="20.3,601.6 224.4,483.1 224.7,531.3 19.7,650.2 		"/>
		<g>
			<polygon class="st2" points="224.6,508.6 203.7,495.1 173.8,512.5 213,538.1 224.7,531.3 			"/>
			<polygon class="st2" points="70.6,620.7 32,594.8 20.3,601.6 20,624.4 40.6,638.1 			"/>
		</g>
	</g>
</g>
<text transform="matrix(0.5926 0.3431 -0.501 0.8654 -134.218 531.9053)" class="st11 st12">Crime Scene</text>
<text transform="matrix(0.5889 -0.3413 0.5015 0.8652 58.2846 599.1924)" class="st11 st13">Do Not Cross Line</text>
</svg>
