<?xml version="1.0" encoding="utf-8"?>
<!-- Generator: Adobe Illustrator 19.0.1, SVG Export Plug-In . SVG Version: 6.00 Build 0)  -->
<svg version="1.1" id="eggplant_x5F_grow" xmlns="http://www.w3.org/2000/svg" xmlns:xlink="http://www.w3.org/1999/xlink" x="0px"
	 y="0px" viewBox="-223 225 512 512" style="enable-background:new -223 225 512 512;" xml:space="preserve">
<style type="text/css">
	.st0{fill:#2C702F;}
</style>
<g>
	<g>
		<path class="st0" d="M63.4,615.5c-10.7,12.9-21.9,5.6-25.5,2.6c2.8-3.1,4.1-4.7,8.9-8.7c5,2.1,14-1.8,14-1.8
			c-6.1,1.6-10.7,0.7-12.3,0.3c0.3-0.3,6.3-4.6,8.1-7.1c5,0.2,9.1-4.1,9.1-4.1c-0.1-0.1-2.7,1.8-7.4,2.1c5-7.3,4.7-14,4.7-14
			s-1.8,6.1-6.5,12.8c-1-4.8,0.3-8,0.1-8.1c0,0-3.2,5.3-1.7,10.2c-2.5,2.9-6.6,5.4-8,6.5c-0.1-0.3-1.7-5.4-0.2-12.9
			c0,0-4.1,9.4-1.5,14.3c-3.1,2.4-4,3-9.2,8.8c-11.8-8.8-1.7-24.6,7.2-28.3c9.1-3.8,12.9-3,21.2-16.7
			C73.7,584.9,72.2,605,63.4,615.5z M13,614.1c5.4,2.5,9.1,5.8,11.7,9c0-0.1,0.1-0.2,0.1-0.3c4.9-17.5-21.9-15.1-21.9-15.1
			s3.7,5.7,5.8,11.9c2.4,7.2,12.1,13.2,15.6,4.6C21.8,620.9,18.1,617.2,13,614.1z M37.9,618.1c0,0-1.8-1.7-1.8-1.7
			c-4.6,5-6.4,9.4-6.8,14.8c-0.7-1.9-2.1-4.9-4.6-8.1c-0.1,0.4-0.3,0.8-0.4,1.2c2.7,3.7,3.8,8.6,4.4,10.3c0,4.6,0.5,6.8,0.9,10.6
			c0,0,2.5,1.5,3.1-1.3C31.3,641.6,30,625.9,37.9,618.1z"/>
	</g>
</g>
<g>
	<g>
		<path class="st0" d="M-99.9,521.5c-10.7,12.9-21.9,5.6-25.5,2.6c2.8-3.1,4.1-4.7,8.9-8.7c5,2.1,14-1.8,14-1.8
			c-6.1,1.6-10.7,0.7-12.3,0.3c0.3-0.3,6.3-4.6,8.1-7.1c5,0.2,9.1-4.1,9.1-4.1c-0.1-0.1-2.7,1.8-7.4,2.1c5-7.3,4.7-14,4.7-14
			s-1.8,6.1-6.5,12.8c-1-4.8,0.3-8,0.1-8.1c0,0-3.2,5.3-1.7,10.2c-2.5,2.9-6.6,5.4-8,6.5c-0.1-0.3-1.7-5.4-0.2-12.9
			c0,0-4.1,9.4-1.5,14.3c-3.1,2.4-4,3-9.2,8.8c-11.8-8.8-1.7-24.6,7.2-28.3c9.1-3.8,12.9-3,21.2-16.7
			C-89.7,490.9-91.1,511-99.9,521.5z M-150.3,520.1c5.4,2.5,9.1,5.8,11.7,9c0-0.1,0.1-0.2,0.1-0.3c4.9-17.5-21.9-15.1-21.9-15.1
			s3.7,5.7,5.8,11.9c2.4,7.2,12.1,13.2,15.6,4.6C-141.6,526.9-145.2,523.2-150.3,520.1z M-125.4,524.1c0,0-1.8-1.7-1.8-1.7
			c-4.6,5-6.4,9.4-6.8,14.8c-0.7-1.9-2.1-4.9-4.6-8.1c-0.1,0.4-0.3,0.8-0.4,1.2c2.7,3.7,3.8,8.6,4.4,10.3c0,4.6,0.5,6.8,0.9,10.6
			c0,0,2.5,1.5,3.1-1.3C-132,547.7-133.4,531.9-125.4,524.1z"/>
	</g>
</g>
<g>
	<g>
		<path class="st0" d="M62.3,428.3c-10.7,12.9-21.9,5.6-25.5,2.6c2.8-3.1,4.1-4.7,8.9-8.7c5,2.1,14-1.8,14-1.8
			c-6.1,1.6-10.7,0.7-12.3,0.3c0.3-0.3,6.3-4.6,8.1-7.1c5,0.2,9.1-4.1,9.1-4.1c-0.1-0.1-2.7,1.8-7.4,2.1c5-7.3,4.7-14,4.7-14
			s-1.8,6.1-6.5,12.8c-1-4.8,0.3-8,0.1-8.1c0,0-3.2,5.3-1.7,10.2c-2.5,2.9-6.6,5.4-8,6.5c-0.1-0.3-1.7-5.4-0.2-12.9
			c0,0-4.1,9.4-1.5,14.3c-3.1,2.4-4,3-9.2,8.8c-11.8-8.8-1.7-24.6,7.2-28.3c9.1-3.8,12.9-3,21.2-16.7
			C72.6,397.6,71.1,417.8,62.3,428.3z M11.9,426.9c5.4,2.5,9.1,5.8,11.7,9c0-0.1,0.1-0.2,0.1-0.3c4.9-17.5-21.9-15.1-21.9-15.1
			s3.7,5.7,5.8,11.9c2.4,7.2,12.1,13.2,15.6,4.6C20.7,433.6,17.1,429.9,11.9,426.9z M36.9,430.8c0,0-1.8-1.7-1.8-1.7
			c-4.6,5-6.4,9.4-6.8,14.8c-0.7-1.9-2.1-4.9-4.6-8.1c-0.1,0.4-0.3,0.8-0.4,1.2c2.7,3.7,3.8,8.6,4.4,10.3c0,4.6,0.5,6.8,0.9,10.6
			c0,0,2.5,1.5,3.1-1.3C30.2,454.4,28.9,438.6,36.9,430.8z"/>
	</g>
</g>
<g>
	<g>
		<path class="st0" d="M223,521.5c-10.7,12.9-21.9,5.6-25.5,2.6c2.8-3.1,4.1-4.7,8.9-8.7c5,2.1,14-1.8,14-1.8
			c-6.1,1.6-10.7,0.7-12.3,0.3c0.3-0.3,6.3-4.6,8.1-7.1c5,0.2,9.1-4.1,9.1-4.1c-0.1-0.1-2.7,1.8-7.4,2.1c5-7.3,4.7-14,4.7-14
			s-1.8,6.1-6.5,12.8c-1-4.8,0.3-8,0.1-8.1c0,0-3.2,5.3-1.7,10.2c-2.5,2.9-6.6,5.4-8,6.5c-0.1-0.3-1.7-5.4-0.2-12.9
			c0,0-4.1,9.4-1.5,14.3c-3.1,2.4-4,3-9.2,8.8c-11.8-8.8-1.7-24.6,7.2-28.3c9.1-3.8,12.9-3,21.2-16.7
			C233.3,490.9,231.8,511,223,521.5z M172.6,520.1c5.4,2.5,9.1,5.8,11.7,9c0-0.1,0.1-0.2,0.1-0.3c4.9-17.5-21.9-15.1-21.9-15.1
			s3.7,5.7,5.8,11.9c2.4,7.2,12.1,13.2,15.6,4.6C181.4,526.9,177.7,523.2,172.6,520.1z M197.5,524.1c0,0-1.8-1.7-1.8-1.7
			c-4.6,5-6.4,9.4-6.8,14.8c-0.7-1.9-2.1-4.9-4.6-8.1c-0.1,0.4-0.3,0.8-0.4,1.2c2.7,3.7,3.8,8.6,4.4,10.3c0,4.6,0.5,6.8,0.9,10.6
			c0,0,2.5,1.5,3.1-1.3C190.9,547.7,189.6,531.9,197.5,524.1z"/>
	</g>
</g>
</svg>
