<?xml version="1.0" encoding="utf-8"?>
<!-- Generator: Adobe Illustrator 19.0.1, SVG Export Plug-In . SVG Version: 6.00 Build 0)  -->
<svg version="1.1" id="gingerbread_x5F_man" xmlns="http://www.w3.org/2000/svg" xmlns:xlink="http://www.w3.org/1999/xlink"
	 x="0px" y="0px" viewBox="0 0 50 50" style="enable-background:new 0 0 50 50;" xml:space="preserve">
<style type="text/css">
	.st0{fill:#C69C6D;}
	.st1{fill:#FFFFFF;}
	.st2{fill:#FCEE21;}
	.st3{opacity:0.1;fill:#414042;enable-background:new    ;}
</style>
<g>
	<path class="st0" d="M40.6,20.2h-8.7c2.4-2,4-5.1,4-8.5c0-6.1-4.9-11.1-11.1-11.1s-11.1,5-11.1,11.1c0,3.4,1.6,6.5,4,8.5H9.1
		c-2.2,0-4,1.8-4,4s1.8,4,4,4h6.7v17.1c0,2.2,1.8,4,4,4s4-1.8,4-4v-8.5H26v8.5c0,2.2,1.8,4,4,4s4-1.8,4-4V28.2h6.7c2.2,0,4-1.8,4-4
		C44.6,22,42.8,20.2,40.6,20.2z"/>
	<g>
		<circle class="st1" cx="21.1" cy="9.2" r="1.2"/>
		<circle class="st1" cx="28.6" cy="9.2" r="1.2"/>
		<path class="st1" d="M24.8,18.9c-3.7,0-6.7-3-6.7-6.7c0-0.4,0.3-0.8,0.8-0.8s0.8,0.3,0.8,0.8c0,2.8,2.3,5.2,5.2,5.2
			s5.2-2.3,5.2-5.2c0-0.4,0.3-0.8,0.8-0.8c0.4,0,0.8,0.3,0.8,0.8C31.5,15.9,28.5,18.9,24.8,18.9z"/>
	</g>
	<g>
		<circle class="st2" cx="24.8" cy="25" r="1.4"/>
		<circle class="st2" cx="24.8" cy="30.1" r="1.4"/>
	</g>
	<g>
		<path class="st1" d="M12.4,20.2h-1.8l-0.9,1.4l1,1.6l-1,1.6l1,1.6L10,27.8c-0.1,0.1-0.1,0.3-0.1,0.4h1.7l1-1.6l-1-1.6l1-1.6
			l-1-1.6l0.8-1.2C12.3,20.3,12.4,20.3,12.4,20.2z"/>
		<path class="st1" d="M23.7,43l-1.9-1.2l-1.6,1l-1.6-1l-1.6,1L15.9,42c-0.1,0-0.1-0.1-0.2-0.1v1.8l1.4,0.9l1.6-1l1.6,1l1.6-1
			l1.1,0.7c0.2,0.2,0.5,0.2,0.8,0L23.7,43L23.7,43z"/>
		<path class="st1" d="M33.9,42.8l-1.7-1l-1.6,1l-1.6-1l-1.6,1L26.2,42C26.1,42,26,42,26,41.9v1.8l1.4,0.9l1.6-1l1.6,1l1.6-1
			l1.2,0.8c0.1,0.1,0.3,0.1,0.4,0.1V42.8z"/>
		<path class="st1" d="M40.2,20.2h-1.8l-0.9,1.4l1,1.6l-1,1.6l1,1.6l-0.8,1.2c-0.1,0.1-0.1,0.3-0.1,0.4h1.7l1-1.6l-1-1.6l1-1.6
			l-1-1.6l0.8-1.2C40.1,20.3,40.1,20.3,40.2,20.2z"/>
	</g>
	<g>
		<path class="st3" d="M14.8,12.8c0-6.1,4.9-11.1,11.1-11.1c2.8,0,5.4,1.1,7.4,2.8c-2-2.4-5-3.9-8.4-3.9c-6.1,0-11.1,5-11.1,11.1
			c0,3.3,1.4,6.2,3.7,8.2C15.8,18,14.8,15.5,14.8,12.8z"/>
		<path class="st3" d="M21,47.8c-2.2,0-4-1.8-4-4V26.7h-6.7c-2.2,0-4-1.8-4-4c0-0.7,0.2-1.3,0.5-1.9c-1.1,0.7-1.8,1.9-1.8,3.3
			c0,2.2,1.8,4,4,4h6.7v17.1c0,2.2,1.8,4,4,4c1.5,0,2.8-0.8,3.5-2.1C22.6,47.6,21.8,47.8,21,47.8z"/>
	</g>
	<g>
	</g>
	<g>
	</g>
	<g>
	</g>
	<g>
	</g>
	<g>
	</g>
	<g>
	</g>
	<g>
	</g>
	<g>
	</g>
	<g>
	</g>
	<g>
	</g>
	<g>
	</g>
	<g>
	</g>
	<g>
	</g>
	<g>
	</g>
	<g>
	</g>
</g>
</svg>
