<?xml version="1.0" encoding="utf-8"?>
<!-- Generator: Adobe Illustrator 19.0.1, SVG Export Plug-In . SVG Version: 6.00 Build 0)  -->
<svg version="1.1" id="gingerbread_x5F_man_x5F_grow"
	 xmlns="http://www.w3.org/2000/svg" xmlns:xlink="http://www.w3.org/1999/xlink" x="0px" y="0px" viewBox="-223 225 512 512"
	 style="enable-background:new -223 225 512 512;" xml:space="preserve">
<style type="text/css">
	.st0{fill:#6B5B4B;}
	.st1{fill:#BFA380;}
	.st2{fill:#AA2FF2;}
	.st3{fill:#E5E4BD;}
	.st4{fill:#AFB9D2;}
	.st5{fill:#959CB3;}
	.st6{fill:#707487;}
	.st7{fill:#FFD764;}
	.st8{fill:#E4EAF6;}
	.st9{fill:#FFE678;}
	.st10{fill:#FFF08C;}
	.st11{fill:#FFBE5A;}
	.st12{opacity:0.24;}
	.st13{fill:#C69C6D;}
	.st14{fill:#FFFFFF;}
	.st15{fill:#FCEE21;}
	.st16{opacity:0.1;fill:#414042;enable-background:new    ;}
</style>
<g>
	<rect x="-89.8" y="510.3" class="st0" width="21.2" height="23.2"/>
	<rect x="134.6" y="510.3" class="st0" width="21.2" height="23.2"/>
	<rect x="-85.6" y="533.4" class="st1" width="12.7" height="111.2"/>
	<rect x="138.9" y="533.4" class="st1" width="12.7" height="111.2"/>
	<path class="st2" d="M-72.9,491.7c0,0.4,122.8,64.9,122.8,64.9l93.2-64.9H-72.9z"/>
	<g>
		<polygon class="st1" points="143.1,491.7 116.5,510.3 155.8,510.3 155.8,491.7 		"/>
		<path class="st1" d="M-72.9,491.7h-16.9v18.5h51.7C-57.7,499.9-72.9,491.8-72.9,491.7z"/>
	</g>
	<path class="st3" d="M109.8,491.7H-29.3c35.3,18.6,79.3,41.7,79.3,41.7L109.8,491.7z"/>
</g>
<g>
	<path class="st4" d="M115.6,491.7H-41.6c-3.2,0-5.8-2.6-5.8-5.8V357.8c0-3.2,2.6-5.8,5.8-5.8h157.2c3.2,0,5.8,2.6,5.8,5.8v128.1
		C121.4,489.1,118.8,491.7,115.6,491.7z"/>
	<rect x="-18.3" y="352" class="st5" width="110.6" height="29.1"/>
	<g>
		<path class="st6" d="M109.8,480.1H-35.8c-3.2,0-5.8-2.6-5.8-5.8v-87.3c0-3.2,2.6-5.8,5.8-5.8h145.5c3.2,0,5.8,2.6,5.8,5.8v87.3
			C115.6,477.5,113,480.1,109.8,480.1z"/>
		<circle class="st6" cx="2.1" cy="366.6" r="8.7"/>
	</g>
	<path class="st7" d="M101,468.4H-27c-1.6,0-2.9-1.3-2.9-2.9v-58.2c0-1.6,1.3-2.9,2.9-2.9H101c1.6,0,2.9,1.3,2.9,2.9v58.2
		C103.9,467.1,102.6,468.4,101,468.4z"/>
	<path class="st8" d="M101,398.6H-27c-1.6,0-2.9-1.3-2.9-2.9s1.3-2.9,2.9-2.9H101c1.6,0,2.9,1.3,2.9,2.9S102.6,398.6,101,398.6z"/>
	<path class="st7" d="M54.5,372.4H19.5c-1.6,0-2.9-1.3-2.9-2.9v-5.8c0-1.6,1.3-2.9,2.9-2.9h34.9c1.6,0,2.9,1.3,2.9,2.9v5.8
		C57.4,371.1,56.1,372.4,54.5,372.4z"/>
	<g>
		<path class="st9" d="M33.7,448.4c-0.7,0-1.5-0.3-2.1-0.9L3,418.9c-1.1-1.1-1.1-3,0-4.1c1.1-1.1,3-1.1,4.1,0l28.7,28.7
			c1.1,1.1,1.1,3,0,4.1C35.2,448.1,34.5,448.4,33.7,448.4z"/>
		<path class="st9" d="M66.1,464.1c-0.7,0-1.5-0.3-2.1-0.9l-16-16c-1.1-1.1-1.1-3,0-4.1c1.1-1.1,3-1.1,4.1,0l16,16
			c1.1,1.1,1.1,3,0,4.1C67.6,463.8,66.8,464.1,66.1,464.1z"/>
	</g>
	<path class="st10" d="M41.4,439.3c-0.7,0-1.5-0.3-2.1-0.9l-6.6-6.6c-1.1-1.1-1.1-3,0-4.1c1.1-1.1,3-1.1,4.1,0l6.6,6.6
		c1.1,1.1,1.1,3,0,4.1C42.9,439,42.1,439.3,41.4,439.3z"/>
	<path class="st11" d="M101,404.4H-27c-1.6,0-2.9,1.3-2.9,2.9v5.8c0-1.6,1.3-2.9,2.9-2.9H101c1.6,0,2.9,1.3,2.9,2.9v-5.8
		C103.9,405.7,102.6,404.4,101,404.4z"/>
	<path class="st4" d="M7.9,375.3c-0.7,0-1.5-0.3-2.1-0.9l-11.6-11.6c-1.1-1.1-1.1-3,0-4.1s3-1.1,4.1,0L10,370.3c1.1,1.1,1.1,3,0,4.1
		C9.4,375,8.6,375.3,7.9,375.3z"/>
	<circle class="st6" cx="71.9" cy="366.6" r="8.7"/>
	<path class="st4" d="M77.7,375.3c-0.7,0-1.5-0.3-2.1-0.9L64,362.8c-1.1-1.1-1.1-3,0-4.1c1.1-1.1,3-1.1,4.1,0l11.6,11.6
		c1.1,1.1,1.1,3,0,4.1C79.2,375,78.5,375.3,77.7,375.3z"/>
</g>
<g class="st12">
	<path class="st13" d="M6.2,439.6h-8.7c2.4-2,4-5.1,4-8.5C1.5,425-3.5,420-9.6,420s-11.1,5-11.1,11.1c0,3.4,1.6,6.5,4,8.5h-8.7
		c-2.2,0-4,1.8-4,4c0,2.2,1.8,4,4,4h6.7v17.1c0,2.2,1.8,4,4,4s4-1.8,4-4v-8.5h2.3v8.5c0,2.2,1.8,4,4,4s4-1.8,4-4v-17.1h6.7
		c2.2,0,4-1.8,4-4C10.1,441.4,8.4,439.6,6.2,439.6z"/>
	<g>
		<circle class="st14" cx="-13.3" cy="428.6" r="1.2"/>
		<circle class="st14" cx="-5.9" cy="428.6" r="1.2"/>
		<path class="st14" d="M-9.6,438.3c-3.7,0-6.7-3-6.7-6.7c0-0.4,0.3-0.8,0.8-0.8s0.8,0.3,0.8,0.8c0,2.8,2.3,5.2,5.2,5.2
			s5.2-2.3,5.2-5.2c0-0.4,0.3-0.8,0.8-0.8c0.4,0,0.8,0.3,0.8,0.8C-2.9,435.3-5.9,438.3-9.6,438.3z"/>
	</g>
	<g>
		<circle class="st15" cx="-9.6" cy="444.4" r="1.4"/>
		<circle class="st15" cx="-9.6" cy="449.5" r="1.4"/>
	</g>
	<g>
		<path class="st14" d="M-22,439.6h-1.8l-0.9,1.4l1,1.6l-1,1.6l1,1.6l-0.8,1.2c-0.1,0.1-0.1,0.3-0.1,0.4h1.7l1-1.6l-1-1.6l1-1.6
			l-1-1.6l0.8-1.2C-22.1,439.7-22,439.7-22,439.6z"/>
		<path class="st14" d="M-10.7,462.4l-1.9-1.2l-1.6,1l-1.6-1l-1.6,1l-1.1-0.7c-0.1,0-0.1-0.1-0.2-0.1v1.8l1.4,0.9l1.6-1l1.6,1l1.6-1
			l1.1,0.7c0.2,0.2,0.5,0.2,0.8,0L-10.7,462.4L-10.7,462.4z"/>
		<path class="st14" d="M-0.5,462.2l-1.7-1l-1.6,1l-1.6-1l-1.6,1l-1.2-0.8c-0.1,0-0.1-0.1-0.2-0.1v1.8L-7,464l1.6-1l1.6,1l1.6-1
			l1.2,0.8c0.1,0.1,0.3,0.1,0.4,0.1V462.2z"/>
		<path class="st14" d="M5.8,439.6H4L3.1,441l1,1.6l-1,1.6l1,1.6l-0.8,1.2c-0.1,0.1-0.1,0.3-0.1,0.4h1.7l1-1.6l-1-1.6l1-1.6l-1-1.6
			l0.8-1.2C5.7,439.7,5.7,439.7,5.8,439.6z"/>
	</g>
	<g>
		<path class="st16" d="M-19.6,432.2c0-6.1,4.9-11.1,11.1-11.1c2.8,0,5.4,1.1,7.4,2.8c-2-2.4-5-3.9-8.4-3.9c-6.1,0-11.1,5-11.1,11.1
			c0,3.3,1.4,6.2,3.7,8.2C-18.6,437.4-19.6,434.9-19.6,432.2z"/>
		<path class="st16" d="M-13.4,467.2c-2.2,0-4-1.8-4-4v-17.1H-24c-2.2,0-4-1.8-4-4c0-0.7,0.2-1.3,0.5-1.9c-1.1,0.7-1.8,1.9-1.8,3.3
			c0,2.2,1.8,4,4,4h6.7v17.1c0,2.2,1.8,4,4,4c1.5,0,2.8-0.8,3.5-2.1C-11.8,467-12.6,467.2-13.4,467.2z"/>
	</g>
	<g>
	</g>
	<g>
	</g>
	<g>
	</g>
	<g>
	</g>
	<g>
	</g>
	<g>
	</g>
	<g>
	</g>
	<g>
	</g>
	<g>
	</g>
	<g>
	</g>
	<g>
	</g>
	<g>
	</g>
	<g>
	</g>
	<g>
	</g>
	<g>
	</g>
</g>
<g class="st12">
	<path class="st13" d="M30.4,439.7h-8.7c2.4-2,4-5.1,4-8.5c0-6.1-4.9-11.1-11.1-11.1s-11.1,5-11.1,11.1c0,3.4,1.6,6.5,4,8.5h-8.7
		c-2.2,0-4,1.8-4,4c0,2.2,1.8,4,4,4h6.7v17.1c0,2.2,1.8,4,4,4s4-1.8,4-4v-8.5h2.3v8.5c0,2.2,1.8,4,4,4s4-1.8,4-4v-17.1h6.7
		c2.2,0,4-1.8,4-4C34.4,441.5,32.6,439.7,30.4,439.7z"/>
	<g>
		<circle class="st14" cx="10.9" cy="428.6" r="1.2"/>
		<circle class="st14" cx="18.4" cy="428.6" r="1.2"/>
		<path class="st14" d="M14.6,438.4c-3.7,0-6.7-3-6.7-6.7c0-0.4,0.3-0.8,0.8-0.8s0.8,0.3,0.8,0.8c0,2.8,2.3,5.2,5.2,5.2
			s5.2-2.3,5.2-5.2c0-0.4,0.3-0.8,0.8-0.8c0.4,0,0.8,0.3,0.8,0.8C21.3,435.4,18.3,438.4,14.6,438.4z"/>
	</g>
	<g>
		<circle class="st15" cx="14.6" cy="444.5" r="1.4"/>
		<circle class="st15" cx="14.6" cy="449.6" r="1.4"/>
	</g>
	<g>
		<path class="st14" d="M2.2,439.7H0.4l-0.9,1.4l1,1.6l-1,1.6l1,1.6l-0.8,1.2c-0.1,0.1-0.1,0.3-0.1,0.4h1.7l1-1.6l-1-1.6l1-1.6
			l-1-1.6l0.8-1.2C2.1,439.8,2.2,439.8,2.2,439.7z"/>
		<path class="st14" d="M13.5,462.5l-1.9-1.2l-1.6,1l-1.6-1l-1.6,1l-1.1-0.7c-0.1,0-0.1-0.1-0.2-0.1v1.8l1.4,0.9l1.6-1l1.6,1l1.6-1
			l1.1,0.7c0.2,0.2,0.5,0.2,0.8,0L13.5,462.5L13.5,462.5z"/>
		<path class="st14" d="M23.7,462.3l-1.7-1l-1.6,1l-1.6-1l-1.6,1l-1.2-0.8c-0.1,0-0.1-0.1-0.2-0.1v1.8l1.4,0.9l1.6-1l1.6,1l1.6-1
			l1.2,0.8c0.1,0.1,0.3,0.1,0.4,0.1V462.3z"/>
		<path class="st14" d="M30,439.7h-1.8l-0.9,1.4l1,1.6l-1,1.6l1,1.6l-0.8,1.2c-0.1,0.1-0.1,0.3-0.1,0.4h1.7l1-1.6l-1-1.6l1-1.6
			l-1-1.6l0.8-1.2C29.9,439.8,29.9,439.8,30,439.7z"/>
	</g>
	<g>
		<path class="st16" d="M4.6,432.2c0-6.1,4.9-11.1,11.1-11.1c2.8,0,5.4,1.1,7.4,2.8c-2-2.4-5-3.9-8.4-3.9c-6.1,0-11.1,5-11.1,11.1
			c0,3.3,1.4,6.2,3.7,8.2C5.6,437.5,4.6,435,4.6,432.2z"/>
		<path class="st16" d="M10.8,467.3c-2.2,0-4-1.8-4-4v-17.1H0.2c-2.2,0-4-1.8-4-4c0-0.7,0.2-1.3,0.5-1.9c-1.1,0.7-1.8,1.9-1.8,3.3
			c0,2.2,1.8,4,4,4h6.7v17.1c0,2.2,1.8,4,4,4c1.5,0,2.8-0.8,3.5-2.1C12.4,467,11.6,467.3,10.8,467.3z"/>
	</g>
	<g>
	</g>
	<g>
	</g>
	<g>
	</g>
	<g>
	</g>
	<g>
	</g>
	<g>
	</g>
	<g>
	</g>
	<g>
	</g>
	<g>
	</g>
	<g>
	</g>
	<g>
	</g>
	<g>
	</g>
	<g>
	</g>
	<g>
	</g>
	<g>
	</g>
</g>
<g class="st12">
	<path class="st13" d="M54.3,439.9h-8.7c2.4-2,4-5.1,4-8.5c0-6.1-4.9-11.1-11.1-11.1s-11.1,5-11.1,11.1c0,3.4,1.6,6.5,4,8.5h-8.7
		c-2.2,0-4,1.8-4,4c0,2.2,1.8,4,4,4h6.7v17.1c0,2.2,1.8,4,4,4s4-1.8,4-4v-8.5h2.3v8.5c0,2.2,1.8,4,4,4s4-1.8,4-4v-17.1h6.7
		c2.2,0,4-1.8,4-4C58.3,441.7,56.5,439.9,54.3,439.9z"/>
	<g>
		<circle class="st14" cx="34.8" cy="428.8" r="1.2"/>
		<circle class="st14" cx="42.3" cy="428.8" r="1.2"/>
		<path class="st14" d="M38.6,438.6c-3.7,0-6.7-3-6.7-6.7c0-0.4,0.3-0.8,0.8-0.8s0.8,0.3,0.8,0.8c0,2.8,2.3,5.2,5.2,5.2
			s5.2-2.3,5.2-5.2c0-0.4,0.3-0.8,0.8-0.8c0.4,0,0.8,0.3,0.8,0.8C45.3,435.6,42.3,438.6,38.6,438.6z"/>
	</g>
	<g>
		<circle class="st15" cx="38.6" cy="444.7" r="1.4"/>
		<circle class="st15" cx="38.6" cy="449.8" r="1.4"/>
	</g>
	<g>
		<path class="st14" d="M26.1,439.9h-1.8l-0.9,1.4l1,1.6l-1,1.6l1,1.6l-0.8,1.2c-0.1,0.1-0.1,0.3-0.1,0.4h1.7l1-1.6l-1-1.6l1-1.6
			l-1-1.6L26,440C26.1,440,26.1,439.9,26.1,439.9z"/>
		<path class="st14" d="M37.4,462.6l-1.9-1.2l-1.6,1l-1.6-1l-1.6,1l-1.1-0.7c-0.1,0-0.1-0.1-0.2-0.1v1.8l1.4,0.9l1.6-1l1.6,1l1.6-1
			l1.1,0.7c0.2,0.2,0.5,0.2,0.8,0L37.4,462.6L37.4,462.6z"/>
		<path class="st14" d="M47.7,462.5l-1.7-1l-1.6,1l-1.6-1l-1.6,1l-1.2-0.8c-0.1,0-0.1-0.1-0.2-0.1v1.8l1.4,0.9l1.6-1l1.6,1l1.6-1
			l1.2,0.8c0.1,0.1,0.3,0.1,0.4,0.1V462.5z"/>
		<path class="st14" d="M53.9,439.9h-1.8l-0.9,1.4l1,1.6l-1,1.6l1,1.6l-0.8,1.2c-0.1,0.1-0.1,0.3-0.1,0.4h1.7l1-1.6l-1-1.6l1-1.6
			l-1-1.6l0.8-1.2C53.9,440,53.9,439.9,53.9,439.9z"/>
	</g>
	<g>
		<path class="st16" d="M28.6,432.4c0-6.1,4.9-11.1,11.1-11.1c2.8,0,5.4,1.1,7.4,2.8c-2-2.4-5-3.9-8.4-3.9c-6.1,0-11.1,5-11.1,11.1
			c0,3.3,1.4,6.2,3.7,8.2C29.5,437.7,28.6,435.2,28.6,432.4z"/>
		<path class="st16" d="M34.8,467.5c-2.2,0-4-1.8-4-4v-17.1h-6.7c-2.2,0-4-1.8-4-4c0-0.7,0.2-1.3,0.5-1.9c-1.1,0.7-1.8,1.9-1.8,3.3
			c0,2.2,1.8,4,4,4h6.7v17.1c0,2.2,1.8,4,4,4c1.5,0,2.8-0.8,3.5-2.1C36.3,467.2,35.6,467.5,34.8,467.5z"/>
	</g>
	<g>
	</g>
	<g>
	</g>
	<g>
	</g>
	<g>
	</g>
	<g>
	</g>
	<g>
	</g>
	<g>
	</g>
	<g>
	</g>
	<g>
	</g>
	<g>
	</g>
	<g>
	</g>
	<g>
	</g>
	<g>
	</g>
	<g>
	</g>
	<g>
	</g>
</g>
<g class="st12">
	<path class="st13" d="M78.7,439.6H70c2.4-2,4-5.1,4-8.5C74,425,69,420,62.9,420s-11.1,5-11.1,11.1c0,3.4,1.6,6.5,4,8.5h-8.7
		c-2.2,0-4,1.8-4,4c0,2.2,1.8,4,4,4h6.7v17.1c0,2.2,1.8,4,4,4s4-1.8,4-4v-8.5h2.3v8.5c0,2.2,1.8,4,4,4s4-1.8,4-4v-17.1h6.7
		c2.2,0,4-1.8,4-4C82.7,441.4,80.9,439.6,78.7,439.6z"/>
	<g>
		<circle class="st14" cx="59.2" cy="428.6" r="1.2"/>
		<circle class="st14" cx="66.7" cy="428.6" r="1.2"/>
		<path class="st14" d="M62.9,438.3c-3.7,0-6.7-3-6.7-6.7c0-0.4,0.3-0.8,0.8-0.8s0.8,0.3,0.8,0.8c0,2.8,2.3,5.2,5.2,5.2
			c2.8,0,5.2-2.3,5.2-5.2c0-0.4,0.3-0.8,0.8-0.8c0.4,0,0.8,0.3,0.8,0.8C69.6,435.3,66.6,438.3,62.9,438.3z"/>
	</g>
	<g>
		<circle class="st15" cx="62.9" cy="444.4" r="1.4"/>
		<circle class="st15" cx="62.9" cy="449.5" r="1.4"/>
	</g>
	<g>
		<path class="st14" d="M50.5,439.6h-1.8l-0.9,1.4l1,1.6l-1,1.6l1,1.6l-0.8,1.2c-0.1,0.1-0.1,0.3-0.1,0.4h1.7l1-1.6l-1-1.6l1-1.6
			l-1-1.6l0.8-1.2C50.4,439.7,50.5,439.7,50.5,439.6z"/>
		<path class="st14" d="M61.8,462.4l-1.9-1.2l-1.6,1l-1.6-1l-1.6,1l-1.1-0.7c-0.1,0-0.1-0.1-0.2-0.1v1.8l1.4,0.9l1.6-1l1.6,1l1.6-1
			l1.1,0.7c0.2,0.2,0.5,0.2,0.8,0L61.8,462.4L61.8,462.4z"/>
		<path class="st14" d="M72,462.2l-1.7-1l-1.6,1l-1.6-1l-1.6,1l-1.2-0.8c-0.1,0-0.1-0.1-0.2-0.1v1.8l1.4,0.9l1.6-1l1.6,1l1.6-1
			l1.2,0.8c0.1,0.1,0.3,0.1,0.4,0.1V462.2z"/>
		<path class="st14" d="M78.3,439.6h-1.8l-0.9,1.4l1,1.6l-1,1.6l1,1.6l-0.8,1.2c-0.1,0.1-0.1,0.3-0.1,0.4h1.7l1-1.6l-1-1.6l1-1.6
			l-1-1.6l0.8-1.2C78.2,439.7,78.2,439.7,78.3,439.6z"/>
	</g>
	<g>
		<path class="st16" d="M52.9,432.2c0-6.1,4.9-11.1,11.1-11.1c2.8,0,5.4,1.1,7.4,2.8c-2-2.4-5-3.9-8.4-3.9c-6.1,0-11.1,5-11.1,11.1
			c0,3.3,1.4,6.2,3.7,8.2C53.9,437.4,52.9,434.9,52.9,432.2z"/>
		<path class="st16" d="M59.1,467.2c-2.2,0-4-1.8-4-4v-17.1h-6.7c-2.2,0-4-1.8-4-4c0-0.7,0.2-1.3,0.5-1.9c-1.1,0.7-1.8,1.9-1.8,3.3
			c0,2.2,1.8,4,4,4h6.7v17.1c0,2.2,1.8,4,4,4c1.5,0,2.8-0.8,3.5-2.1C60.7,467,59.9,467.2,59.1,467.2z"/>
	</g>
	<g>
	</g>
	<g>
	</g>
	<g>
	</g>
	<g>
	</g>
	<g>
	</g>
	<g>
	</g>
	<g>
	</g>
	<g>
	</g>
	<g>
	</g>
	<g>
	</g>
	<g>
	</g>
	<g>
	</g>
	<g>
	</g>
	<g>
	</g>
	<g>
	</g>
</g>
<g class="st12">
	<path class="st13" d="M100.1,439.9h-8.7c2.4-2,4-5.1,4-8.5c0-6.1-4.9-11.1-11.1-11.1s-11.1,5-11.1,11.1c0,3.4,1.6,6.5,4,8.5h-8.7
		c-2.2,0-4,1.8-4,4c0,2.2,1.8,4,4,4h6.7V465c0,2.2,1.8,4,4,4c2.2,0,4-1.8,4-4v-8.5h2.3v8.5c0,2.2,1.8,4,4,4s4-1.8,4-4v-17.1h6.7
		c2.2,0,4-1.8,4-4C104.1,441.7,102.3,439.9,100.1,439.9z"/>
	<g>
		<circle class="st14" cx="80.7" cy="428.9" r="1.2"/>
		<circle class="st14" cx="88.1" cy="428.9" r="1.2"/>
		<path class="st14" d="M84.4,438.6c-3.7,0-6.7-3-6.7-6.7c0-0.4,0.3-0.8,0.8-0.8c0.4,0,0.8,0.3,0.8,0.8c0,2.8,2.3,5.2,5.2,5.2
			s5.2-2.3,5.2-5.2c0-0.4,0.3-0.8,0.8-0.8c0.4,0,0.8,0.3,0.8,0.8C91.1,435.6,88.1,438.6,84.4,438.6z"/>
	</g>
	<g>
		<circle class="st15" cx="84.4" cy="444.7" r="1.4"/>
		<circle class="st15" cx="84.4" cy="449.8" r="1.4"/>
	</g>
	<g>
		<path class="st14" d="M71.9,439.9h-1.8l-0.9,1.4l1,1.6l-1,1.6l1,1.6l-0.8,1.2c-0.1,0.1-0.1,0.3-0.1,0.4h1.7l1-1.6l-1-1.6l1-1.6
			l-1-1.6l0.8-1.2C71.9,440.1,71.9,440,71.9,439.9z"/>
		<path class="st14" d="M83.2,462.7l-1.9-1.2l-1.6,1l-1.6-1l-1.6,1l-1.1-0.7c-0.1,0-0.1-0.1-0.2-0.1v1.8l1.4,0.9l1.6-1l1.6,1l1.6-1
			l1.1,0.7c0.2,0.2,0.5,0.2,0.8,0L83.2,462.7L83.2,462.7z"/>
		<path class="st14" d="M93.5,462.5l-1.7-1l-1.6,1l-1.6-1l-1.6,1l-1.2-0.8c-0.1,0-0.1-0.1-0.2-0.1v1.8l1.4,0.9l1.6-1l1.6,1l1.6-1
			l1.2,0.8c0.1,0.1,0.3,0.1,0.4,0.1V462.5z"/>
		<path class="st14" d="M99.7,439.9h-1.8l-0.9,1.4l1,1.6l-1,1.6l1,1.6l-0.8,1.2c-0.1,0.1-0.1,0.3-0.1,0.4h1.7l1-1.6l-1-1.6l1-1.6
			l-1-1.6l0.8-1.2C99.7,440.1,99.7,440,99.7,439.9z"/>
	</g>
	<g>
		<path class="st16" d="M74.4,432.5c0-6.1,4.9-11.1,11.1-11.1c2.8,0,5.4,1.1,7.4,2.8c-2-2.4-5-3.9-8.4-3.9c-6.1,0-11.1,5-11.1,11.1
			c0,3.3,1.4,6.2,3.7,8.2C75.4,437.7,74.4,435.2,74.4,432.5z"/>
		<path class="st16" d="M80.6,467.5c-2.2,0-4-1.8-4-4v-17.1H70c-2.2,0-4-1.8-4-4c0-0.7,0.2-1.3,0.5-1.9c-1.1,0.7-1.8,1.9-1.8,3.3
			c0,2.2,1.8,4,4,4h6.7V465c0,2.2,1.8,4,4,4c1.5,0,2.8-0.8,3.5-2.1C82.1,467.3,81.4,467.5,80.6,467.5z"/>
	</g>
	<g>
	</g>
	<g>
	</g>
	<g>
	</g>
	<g>
	</g>
	<g>
	</g>
	<g>
	</g>
	<g>
	</g>
	<g>
	</g>
	<g>
	</g>
	<g>
	</g>
	<g>
	</g>
	<g>
	</g>
	<g>
	</g>
	<g>
	</g>
	<g>
	</g>
</g>
</svg>
