<?xml version="1.0" encoding="utf-8"?>
<!-- Generator: Adobe Illustrator 19.0.1, SVG Export Plug-In . SVG Version: 6.00 Build 0)  -->
<svg version="1.1" id="gingerbread_x5F_man_x5F_seed"
	 xmlns="http://www.w3.org/2000/svg" xmlns:xlink="http://www.w3.org/1999/xlink" x="0px" y="0px" viewBox="-223 225 512 512"
	 style="enable-background:new -223 225 512 512;" xml:space="preserve">
<style type="text/css">
	.st0{fill:#6B5B4B;}
	.st1{fill:#BFA380;}
	.st2{fill:#AA2FF2;}
	.st3{fill:#E5E4BD;}
	.st4{fill:none;stroke:#556080;stroke-width:2;stroke-linecap:round;stroke-linejoin:round;stroke-miterlimit:10;}
	.st5{fill:#C7CAC7;}
	.st6{fill:#839594;}
	.st7{fill:#694F87;}
	.st8{fill:none;}
	.st9{fill:#6C797A;}
	.st10{fill:#F0AEB0;}
	.st11{fill:#E99398;}
	.st12{fill:#F7CAC9;}
</style>
<g>
	<rect x="-89.8" y="510.5" class="st0" width="21.2" height="23.2"/>
	<rect x="134.6" y="510.5" class="st0" width="21.2" height="23.2"/>
	<rect x="-85.6" y="533.7" class="st1" width="12.7" height="111.2"/>
	<rect x="138.9" y="533.7" class="st1" width="12.7" height="111.2"/>
	<path class="st2" d="M-72.9,492c0,0.4,122.8,64.9,122.8,64.9l93.2-64.9H-72.9z"/>
	<g>
		<polygon class="st1" points="143.1,492 116.5,510.5 155.8,510.5 155.8,492 		"/>
		<path class="st1" d="M-72.9,492h-16.9v18.5h51.7C-57.7,500.2-72.9,492.1-72.9,492z"/>
	</g>
	<path class="st3" d="M109.8,492H-29.3c35.3,18.6,79.3,41.7,79.3,41.7L109.8,492z"/>
</g>
<g>
	<path class="st4" d="M104,331.3c4.7,0,8.4,3.8,8.4,8.4s-3.8,8.4-8.4,8.4"/>
	<line class="st4" x1="104" y1="348.2" x2="97.7" y2="348.2"/>
	<path class="st4" d="M28.4,449.7L28.4,449.7c-14.6-14.9,10.2-34,10.2-34s24.7,19.2,10.2,34l0,0C43.2,455,34.1,455,28.4,449.7z"/>
	<path class="st4" d="M38.6,453.7c-1.6,0-3.2-1.1-4.3-3.2c-2-4.3-2.1-7.7-2-10.2c0.3-7.6,3.2-17.5,6.3-24.5
		c3.1,7.1,6.1,17.2,6.3,24.7c0.1,2.6-0.1,5.9-2,10C41.8,452.5,40.3,453.7,38.6,453.7z"/>
	<line class="st4" x1="38.6" y1="415.7" x2="38.6" y2="394.6"/>
	<path class="st5" d="M99,352.4h2.9v-6.3h-3.1c-7.2,0-14.3-1-21.2-2.9c-3.2-0.9-6.5-1.3-9.9-1.3H36.4c-10.4,0-18.9,8.5-18.9,18.9
		v19.5c0,3.3,2.6,5.9,5.9,5.9h76.8c3.2,0,5.9-2.6,5.9-5.8c0-9.3-3.3-17.8-8.8-24.5C96.2,354.5,97.2,352.4,99,352.4z M88.5,363H34.4
		c-3.5,0-6.3-2.8-6.3-6.3c0-3.5,2.8-6.3,6.3-6.3h30.7c7.5,0,14.8,2.2,21,6.4l3.5,2.3C91.4,360.2,90.6,363,88.5,363z"/>
	<rect x="36.5" y="335.5" class="st6" width="6.3" height="6.3"/>
	<rect x="49.1" y="335.5" class="st6" width="6.3" height="6.3"/>
	<rect x="30.2" y="386.2" class="st7" width="16.9" height="8.4"/>
	<g>
		<line class="st8" x1="63.9" y1="373.5" x2="63.9" y2="377.7"/>
		<path class="st9" d="M63.9,379.8c-1.2,0-2.1-0.9-2.1-2.1v-4.2c0-1.2,0.9-2.1,2.1-2.1c1.2,0,2.1,0.9,2.1,2.1v4.2
			C66,378.9,65.1,379.8,63.9,379.8z"/>
	</g>
	<g>
		<line class="st8" x1="72.4" y1="373.5" x2="72.4" y2="377.7"/>
		<path class="st9" d="M72.4,379.8c-1.2,0-2.1-0.9-2.1-2.1v-4.2c0-1.2,0.9-2.1,2.1-2.1s2.1,0.9,2.1,2.1v4.2
			C74.5,378.9,73.5,379.8,72.4,379.8z"/>
	</g>
	<g>
		<line class="st8" x1="80.8" y1="373.5" x2="80.8" y2="377.7"/>
		<path class="st9" d="M80.8,379.8c-1.2,0-2.1-0.9-2.1-2.1v-4.2c0-1.2,0.9-2.1,2.1-2.1s2.1,0.9,2.1,2.1v4.2
			C82.9,378.9,82,379.8,80.8,379.8z"/>
	</g>
	<g>
		<line class="st8" x1="89.2" y1="373.5" x2="89.2" y2="377.7"/>
		<path class="st9" d="M89.2,379.8c-1.2,0-2.1-0.9-2.1-2.1v-4.2c0-1.2,0.9-2.1,2.1-2.1c1.2,0,2.1,0.9,2.1,2.1v4.2
			C91.3,378.9,90.4,379.8,89.2,379.8z"/>
	</g>
	<g>
	</g>
	<g>
	</g>
	<g>
	</g>
	<g>
	</g>
	<g>
	</g>
	<g>
	</g>
	<g>
	</g>
	<g>
	</g>
	<g>
	</g>
	<g>
	</g>
	<g>
	</g>
	<g>
	</g>
	<g>
	</g>
	<g>
	</g>
	<g>
	</g>
</g>
<g>
	<path class="st10" d="M21.7,488.1c-1.1,0-2,0.9-2,2s0.9,2,2,2h21.7v-3.9L21.7,488.1L21.7,488.1z"/>
	<path class="st11" d="M65,488.1H43.3v3.9H65c1.1,0,2-0.9,2-2C67,488.9,66.1,488.1,65,488.1z"/>
	<g>
		<path class="st10" d="M88,439.5L43.3,492c29,0,52.5-23.5,52.5-52.5H88L88,439.5z"/>
	</g>
	<g>
		<path class="st12" d="M-23.6,439.5c0,11.2,8.3,20.4,19.1,21.9v-0.2C3.8,479.4,22.1,492,43.3,492C68,492,88,468.5,88,439.5H-23.6
			L-23.6,439.5z"/>
	</g>
	<g>
	</g>
	<g>
	</g>
	<g>
	</g>
	<g>
	</g>
	<g>
	</g>
	<g>
	</g>
	<g>
	</g>
	<g>
	</g>
	<g>
	</g>
	<g>
	</g>
	<g>
	</g>
	<g>
	</g>
	<g>
	</g>
	<g>
	</g>
	<g>
	</g>
</g>
</svg>
