<?xml version="1.0" encoding="utf-8"?>
<!-- Generator: Adobe Illustrator 19.0.1, SVG Export Plug-In . SVG Version: 6.00 Build 0)  -->
<svg version="1.1" id="gingerbread_x5F_man_x5F_harvest"
	 xmlns="http://www.w3.org/2000/svg" xmlns:xlink="http://www.w3.org/1999/xlink" x="0px" y="0px" viewBox="-223 225 512 512"
	 style="enable-background:new -223 225 512 512;" xml:space="preserve">
<style type="text/css">
	.st0{fill:#6B5B4B;}
	.st1{fill:#BFA380;}
	.st2{fill:#AA2FF2;}
	.st3{fill:#E5E4BD;}
	.st4{fill:#AFB9D2;}
	.st5{fill:#959CB3;}
	.st6{fill:#707487;}
	.st7{fill:#DD942A;}
	.st8{fill:#E4EAF6;}
	.st9{fill:#FFE678;}
	.st10{fill:#FFF08C;}
	.st11{fill:#FFBE5A;}
	.st12{opacity:0.84;}
	.st13{fill:#C69C6D;}
	.st14{fill:#FFFFFF;}
	.st15{fill:#FCEE21;}
	.st16{opacity:0.1;fill:#414042;enable-background:new    ;}
	.st17{fill:#FBD490;}
	.st18{fill:#F75B57;}
	.st19{fill:#FAF5E5;}
</style>
<g>
	<rect x="-89.8" y="510.2" class="st0" width="21.2" height="23.2"/>
	<rect x="134.6" y="510.2" class="st0" width="21.2" height="23.2"/>
	<rect x="-85.6" y="533.4" class="st1" width="12.7" height="111.2"/>
	<rect x="138.9" y="533.4" class="st1" width="12.7" height="111.2"/>
	<path class="st2" d="M-72.9,491.6c0,0.4,122.8,64.9,122.8,64.9l93.2-64.9H-72.9z"/>
	<g>
		<polygon class="st1" points="143.1,491.6 116.5,510.2 155.8,510.2 155.8,491.6 		"/>
		<path class="st1" d="M-72.9,491.6h-16.9v18.5h51.7C-57.7,499.8-72.9,491.8-72.9,491.6z"/>
	</g>
	<path class="st3" d="M109.8,491.6H-29.3c35.3,18.6,79.3,41.7,79.3,41.7L109.8,491.6z"/>
</g>
<g>
	<path class="st4" d="M48.4,492H-80.5c-2.6,0-4.8-2.1-4.8-4.8V382.2c0-2.6,2.1-4.8,4.8-4.8H48.4c2.6,0,4.8,2.1,4.8,4.8v105.1
		C53.2,489.8,51,492,48.4,492z"/>
	<rect x="-61.4" y="377.4" class="st5" width="90.7" height="23.9"/>
	<g>
		<path class="st6" d="M43.6,482.4H-75.8c-2.6,0-4.8-2.1-4.8-4.8V406c0-2.6,2.1-4.8,4.8-4.8H43.6c2.6,0,4.8,2.1,4.8,4.8v71.6
			C48.4,480.3,46.2,482.4,43.6,482.4z"/>
		<circle class="st6" cx="-44.7" cy="389.3" r="7.2"/>
	</g>
	<path class="st7" d="M36.4,472.9H-68.6c-1.3,0-2.4-1.1-2.4-2.4v-47.8c0-1.3,1.1-2.4,2.4-2.4H36.4c1.3,0,2.4,1.1,2.4,2.4v47.8
		C38.8,471.8,37.8,472.9,36.4,472.9z"/>
	<path class="st8" d="M36.4,415.6H-68.6c-1.3,0-2.4-1.1-2.4-2.4c0-1.3,1.1-2.4,2.4-2.4H36.4c1.3,0,2.4,1.1,2.4,2.4
		C38.8,414.5,37.8,415.6,36.4,415.6z"/>
	<path class="st7" d="M-1.8,394.1h-28.7c-1.3,0-2.4-1.1-2.4-2.4v-4.8c0-1.3,1.1-2.4,2.4-2.4h28.7c1.3,0,2.4,1.1,2.4,2.4v4.8
		C0.6,393-0.4,394.1-1.8,394.1z"/>
	<g>
		<path class="st9" d="M-18.8,456.5c-0.6,0-1.2-0.2-1.7-0.7L-44,432.2c-0.9-0.9-0.9-2.4,0-3.4c0.9-0.9,2.4-0.9,3.4,0l23.5,23.5
			c0.9,0.9,0.9,2.4,0,3.4C-17.5,456.2-18.2,456.5-18.8,456.5z"/>
		<path class="st9" d="M7.8,469.3c-0.6,0-1.2-0.2-1.7-0.7L-7,455.5c-0.9-0.9-0.9-2.4,0-3.4c0.9-0.9,2.4-0.9,3.4,0l13.1,13.1
			c0.9,0.9,0.9,2.4,0,3.4C9,469.1,8.4,469.3,7.8,469.3z"/>
	</g>
	<path class="st10" d="M-12.5,449c-0.6,0-1.2-0.2-1.7-0.7l-5.4-5.4c-0.9-0.9-0.9-2.4,0-3.4c0.9-0.9,2.4-0.9,3.4,0l5.4,5.4
		c0.9,0.9,0.9,2.4,0,3.4C-11.3,448.8-11.9,449-12.5,449z"/>
	<path class="st11" d="M36.4,420.4H-68.6c-1.3,0-2.4,1.1-2.4,2.4v4.8c0-1.3,1.1-2.4,2.4-2.4H36.4c1.3,0,2.4,1.1,2.4,2.4v-4.8
		C38.8,421.4,37.8,420.4,36.4,420.4z"/>
	<path class="st4" d="M-51.7,394.4c0-0.6,0.2-1.2,0.6-1.7l9.2-9.9c0.9-1,2.4-1,3.4-0.1c1,0.9,1,2.4,0.1,3.4l-9.2,9.9
		c-0.9,1-2.4,1-3.4,0.1C-51.4,395.6-51.7,395-51.7,394.4z"/>
	<circle class="st6" cx="12.6" cy="389.3" r="7.2"/>
	<path class="st4" d="M5,393.3c0.1-0.6,0.4-1.2,0.9-1.6l10.5-8.5c1-0.8,2.5-0.7,3.4,0.3c0.8,1,0.7,2.5-0.3,3.4l-10.5,8.5
		c-1,0.8-2.5,0.7-3.4-0.3C5.1,394.6,4.9,393.9,5,393.3z"/>
</g>
<g class="st12">
	<path class="st13" d="M-41.4,449.3h-7.1c2-1.7,3.3-4.2,3.3-7c0-5-4.1-9.1-9.1-9.1s-9.1,4.1-9.1,9.1c0,2.8,1.3,5.3,3.3,7h-7.1
		c-1.8,0-3.3,1.5-3.3,3.3c0,1.8,1.5,3.3,3.3,3.3h5.5v14c0,1.8,1.5,3.3,3.3,3.3s3.3-1.5,3.3-3.3v-7h1.9v7c0,1.8,1.5,3.3,3.3,3.3
		s3.3-1.5,3.3-3.3v-14h5.5c1.8,0,3.3-1.5,3.3-3.3C-38.1,450.7-39.6,449.3-41.4,449.3z"/>
	<g>
		<circle class="st14" cx="-57.3" cy="440.2" r="1"/>
		<circle class="st14" cx="-51.2" cy="440.2" r="1"/>
		<path class="st14" d="M-54.3,448.2c-3,0-5.5-2.5-5.5-5.5c0-0.3,0.3-0.6,0.6-0.6s0.6,0.3,0.6,0.6c0,2.3,1.9,4.2,4.2,4.2
			c2.3,0,4.2-1.9,4.2-4.2c0-0.3,0.3-0.6,0.6-0.6c0.3,0,0.6,0.3,0.6,0.6C-48.8,445.7-51.3,448.2-54.3,448.2z"/>
	</g>
	<g>
		<circle class="st15" cx="-54.3" cy="453.2" r="1.2"/>
		<circle class="st15" cx="-54.3" cy="457.4" r="1.2"/>
	</g>
	<g>
		<path class="st14" d="M-64.5,449.3H-66l-0.7,1.1l0.8,1.3l-0.8,1.3l0.8,1.3l-0.6,1c-0.1,0.1-0.1,0.2-0.1,0.3h1.4l0.8-1.3l-0.8-1.3
			l0.8-1.3l-0.8-1.3l0.6-1C-64.5,449.4-64.5,449.3-64.5,449.3z"/>
		<path class="st14" d="M-55.2,467.9l-1.6-1l-1.3,0.8l-1.3-0.8l-1.3,0.8l-0.9-0.6c-0.1,0-0.1-0.1-0.2-0.1v1.5l1.1,0.7l1.3-0.8
			l1.3,0.8l1.3-0.8l0.9,0.6c0.2,0.1,0.4,0.1,0.6,0L-55.2,467.9L-55.2,467.9z"/>
		<path class="st14" d="M-46.8,467.8l-1.4-0.9l-1.3,0.8l-1.3-0.8l-1.3,0.8l-1-0.6c0,0-0.1,0-0.1-0.1v1.5l1.1,0.7l1.3-0.8l1.3,0.8
			l1.3-0.8l1,0.6c0.1,0.1,0.2,0.1,0.4,0.1V467.8z"/>
		<path class="st14" d="M-41.7,449.3h-1.5l-0.7,1.1l0.8,1.3l-0.8,1.3l0.8,1.3l-0.6,1c-0.1,0.1-0.1,0.2-0.1,0.3h1.4l0.8-1.3l-0.8-1.3
			l0.8-1.3l-0.8-1.3l0.6-1C-41.7,449.4-41.7,449.3-41.7,449.3z"/>
	</g>
	<g>
		<path class="st16" d="M-62.5,443.1c0-5,4.1-9.1,9.1-9.1c2.3,0,4.4,0.9,6,2.3c-1.7-2-4.1-3.2-6.9-3.2c-5,0-9.1,4.1-9.1,9.1
			c0,2.7,1.2,5.1,3,6.8C-61.7,447.4-62.5,445.4-62.5,443.1z"/>
		<path class="st16" d="M-57.4,471.9c-1.8,0-3.3-1.5-3.3-3.3v-14h-5.5c-1.8,0-3.3-1.5-3.3-3.3c0-0.6,0.1-1.1,0.4-1.6
			c-0.9,0.6-1.5,1.6-1.5,2.7c0,1.8,1.5,3.3,3.3,3.3h5.5v14c0,1.8,1.5,3.3,3.3,3.3c1.2,0,2.3-0.7,2.9-1.7
			C-56.1,471.7-56.7,471.9-57.4,471.9z"/>
	</g>
	<g>
	</g>
	<g>
	</g>
	<g>
	</g>
	<g>
	</g>
	<g>
	</g>
	<g>
	</g>
	<g>
	</g>
	<g>
	</g>
	<g>
	</g>
	<g>
	</g>
	<g>
	</g>
	<g>
	</g>
	<g>
	</g>
	<g>
	</g>
	<g>
	</g>
</g>
<g class="st12">
	<path class="st13" d="M-21.5,449.3h-7.1c2-1.7,3.3-4.2,3.3-7c0-5-4.1-9.1-9.1-9.1s-9.1,4.1-9.1,9.1c0,2.8,1.3,5.3,3.3,7h-7.1
		c-1.8,0-3.3,1.5-3.3,3.3c0,1.8,1.5,3.3,3.3,3.3h5.5v14c0,1.8,1.5,3.3,3.3,3.3s3.3-1.5,3.3-3.3v-7h1.9v7c0,1.8,1.5,3.3,3.3,3.3
		s3.3-1.5,3.3-3.3v-14h5.5c1.8,0,3.3-1.5,3.3-3.3C-18.2,450.8-19.7,449.3-21.5,449.3z"/>
	<g>
		<circle class="st14" cx="-37.5" cy="440.2" r="1"/>
		<circle class="st14" cx="-31.4" cy="440.2" r="1"/>
		<path class="st14" d="M-34.4,448.2c-3,0-5.5-2.5-5.5-5.5c0-0.3,0.3-0.6,0.6-0.6s0.6,0.3,0.6,0.6c0,2.3,1.9,4.2,4.2,4.2
			c2.3,0,4.2-1.9,4.2-4.2c0-0.3,0.3-0.6,0.6-0.6c0.3,0,0.6,0.3,0.6,0.6C-28.9,445.8-31.4,448.2-34.4,448.2z"/>
	</g>
	<g>
		<circle class="st15" cx="-34.4" cy="453.2" r="1.2"/>
		<circle class="st15" cx="-34.4" cy="457.4" r="1.2"/>
	</g>
	<g>
		<path class="st14" d="M-44.6,449.3h-1.5l-0.7,1.1l0.8,1.3l-0.8,1.3l0.8,1.3l-0.6,1c-0.1,0.1-0.1,0.2-0.1,0.3h1.4l0.8-1.3l-0.8-1.3
			l0.8-1.3l-0.8-1.3l0.6-1C-44.7,449.4-44.7,449.4-44.6,449.3z"/>
		<path class="st14" d="M-35.4,468l-1.6-1l-1.3,0.8l-1.3-0.8l-1.3,0.8l-0.9-0.6c-0.1,0-0.1-0.1-0.2-0.1v1.5l1.1,0.7l1.3-0.8l1.3,0.8
			l1.3-0.8l0.9,0.6c0.2,0.1,0.4,0.1,0.6,0L-35.4,468L-35.4,468z"/>
		<path class="st14" d="M-27,467.8l-1.4-0.9l-1.3,0.8L-31,467l-1.3,0.8l-1-0.6c0,0-0.1,0-0.1-0.1v1.5l1.1,0.7l1.3-0.8l1.3,0.8
			l1.3-0.8l1,0.6c0.1,0.1,0.2,0.1,0.4,0.1V467.8z"/>
		<path class="st14" d="M-21.9,449.3h-1.5l-0.7,1.1l0.8,1.3l-0.8,1.3l0.8,1.3l-0.6,1c-0.1,0.1-0.1,0.2-0.1,0.3h1.4l0.8-1.3l-0.8-1.3
			l0.8-1.3l-0.8-1.3l0.6-1C-21.9,449.4-21.9,449.4-21.9,449.3z"/>
	</g>
	<g>
		<path class="st16" d="M-42.6,443.2c0-5,4.1-9.1,9.1-9.1c2.3,0,4.4,0.9,6,2.3c-1.7-2-4.1-3.2-6.9-3.2c-5,0-9.1,4.1-9.1,9.1
			c0,2.7,1.2,5.1,3,6.8C-41.8,447.5-42.6,445.4-42.6,443.2z"/>
		<path class="st16" d="M-37.5,471.9c-1.8,0-3.3-1.5-3.3-3.3v-14h-5.5c-1.8,0-3.3-1.5-3.3-3.3c0-0.6,0.1-1.1,0.4-1.6
			c-0.9,0.6-1.5,1.6-1.5,2.7c0,1.8,1.5,3.3,3.3,3.3h5.5v14c0,1.8,1.5,3.3,3.3,3.3c1.2,0,2.3-0.7,2.9-1.7
			C-36.3,471.7-36.9,471.9-37.5,471.9z"/>
	</g>
	<g>
	</g>
	<g>
	</g>
	<g>
	</g>
	<g>
	</g>
	<g>
	</g>
	<g>
	</g>
	<g>
	</g>
	<g>
	</g>
	<g>
	</g>
	<g>
	</g>
	<g>
	</g>
	<g>
	</g>
	<g>
	</g>
	<g>
	</g>
	<g>
	</g>
</g>
<g class="st12">
	<path class="st13" d="M-1.9,449.5H-9c2-1.7,3.3-4.2,3.3-7c0-5-4.1-9.1-9.1-9.1s-9.1,4.1-9.1,9.1c0,2.8,1.3,5.3,3.3,7h-7.1
		c-1.8,0-3.3,1.5-3.3,3.3c0,1.8,1.5,3.3,3.3,3.3h5.5v14c0,1.8,1.5,3.3,3.3,3.3c1.8,0,3.3-1.5,3.3-3.3v-7h1.9v7
		c0,1.8,1.5,3.3,3.3,3.3s3.3-1.5,3.3-3.3v-14h5.5c1.8,0,3.3-1.5,3.3-3.3C1.4,450.9-0.1,449.5-1.9,449.5z"/>
	<g>
		<circle class="st14" cx="-17.9" cy="440.4" r="1"/>
		<circle class="st14" cx="-11.7" cy="440.4" r="1"/>
		<path class="st14" d="M-14.8,448.4c-3,0-5.5-2.5-5.5-5.5c0-0.3,0.3-0.6,0.6-0.6s0.6,0.3,0.6,0.6c0,2.3,1.9,4.2,4.2,4.2
			s4.2-1.9,4.2-4.2c0-0.3,0.3-0.6,0.6-0.6c0.3,0,0.6,0.3,0.6,0.6C-9.3,445.9-11.8,448.4-14.8,448.4z"/>
	</g>
	<g>
		<circle class="st15" cx="-14.8" cy="453.4" r="1.2"/>
		<circle class="st15" cx="-14.8" cy="457.6" r="1.2"/>
	</g>
	<g>
		<path class="st14" d="M-25,449.5h-1.5l-0.7,1.1l0.8,1.3l-0.8,1.3l0.8,1.3l-0.6,1c-0.1,0.1-0.1,0.2-0.1,0.3h1.4l0.8-1.3l-0.8-1.3
			l0.8-1.3l-0.8-1.3l0.6-1C-25,449.6-25,449.5-25,449.5z"/>
		<path class="st14" d="M-15.7,468.1l-1.6-1l-1.3,0.8l-1.3-0.8l-1.3,0.8l-0.9-0.6c-0.1,0-0.1-0.1-0.2-0.1v1.5l1.1,0.7l1.3-0.8
			l1.3,0.8l1.3-0.8l0.9,0.6c0.2,0.1,0.4,0.1,0.6,0L-15.7,468.1L-15.7,468.1z"/>
		<path class="st14" d="M-7.3,468l-1.4-0.9L-10,468l-1.3-0.8l-1.3,0.8l-1-0.6c0,0-0.1,0-0.1-0.1v1.5l1.1,0.7l1.3-0.8l1.3,0.8
			l1.3-0.8l1,0.6c0.1,0.1,0.2,0.1,0.4,0.1V468z"/>
		<path class="st14" d="M-2.2,449.5h-1.5l-0.7,1.1l0.8,1.3l-0.8,1.3l0.8,1.3l-0.6,1c-0.1,0.1-0.1,0.2-0.1,0.3h1.4l0.8-1.3l-0.8-1.3
			l0.8-1.3l-0.8-1.3l0.6-1C-2.3,449.6-2.2,449.5-2.2,449.5z"/>
	</g>
	<g>
		<path class="st16" d="M-23,443.4c0-5,4.1-9.1,9.1-9.1c2.3,0,4.4,0.9,6,2.3c-1.7-2-4.1-3.2-6.9-3.2c-5,0-9.1,4.1-9.1,9.1
			c0,2.7,1.2,5.1,3,6.8C-22.2,447.6-23,445.6-23,443.4z"/>
		<path class="st16" d="M-17.9,472.1c-1.8,0-3.3-1.5-3.3-3.3v-14h-5.5c-1.8,0-3.3-1.5-3.3-3.3c0-0.6,0.1-1.1,0.4-1.6
			c-0.9,0.6-1.5,1.6-1.5,2.7c0,1.8,1.5,3.3,3.3,3.3h5.5v14c0,1.8,1.5,3.3,3.3,3.3c1.2,0,2.3-0.7,2.9-1.7
			C-16.6,471.9-17.3,472.1-17.9,472.1z"/>
	</g>
	<g>
	</g>
	<g>
	</g>
	<g>
	</g>
	<g>
	</g>
	<g>
	</g>
	<g>
	</g>
	<g>
	</g>
	<g>
	</g>
	<g>
	</g>
	<g>
	</g>
	<g>
	</g>
	<g>
	</g>
	<g>
	</g>
	<g>
	</g>
	<g>
	</g>
</g>
<g class="st12">
	<path class="st13" d="M18.1,449.3H11c2-1.7,3.3-4.2,3.3-7c0-5-4.1-9.1-9.1-9.1s-9.1,4.1-9.1,9.1c0,2.8,1.3,5.3,3.3,7h-7.1
		c-1.8,0-3.3,1.5-3.3,3.3s1.5,3.3,3.3,3.3h5.5v14c0,1.8,1.5,3.3,3.3,3.3s3.3-1.5,3.3-3.3v-7h1.9v7c0,1.8,1.5,3.3,3.3,3.3
		s3.3-1.5,3.3-3.3v-14h5.5c1.8,0,3.3-1.5,3.3-3.3C21.4,450.7,19.9,449.3,18.1,449.3z"/>
	<g>
		<circle class="st14" cx="2.1" cy="440.2" r="1"/>
		<circle class="st14" cx="8.2" cy="440.2" r="1"/>
		<path class="st14" d="M5.2,448.2c-3,0-5.5-2.5-5.5-5.5c0-0.3,0.3-0.6,0.6-0.6s0.6,0.3,0.6,0.6c0,2.3,1.9,4.2,4.2,4.2
			s4.2-1.9,4.2-4.2c0-0.3,0.3-0.6,0.6-0.6c0.3,0,0.6,0.3,0.6,0.6C10.7,445.7,8.2,448.2,5.2,448.2z"/>
	</g>
	<g>
		<circle class="st15" cx="5.2" cy="453.2" r="1.2"/>
		<circle class="st15" cx="5.2" cy="457.4" r="1.2"/>
	</g>
	<g>
		<path class="st14" d="M-5,449.3h-1.5l-0.7,1.1l0.8,1.3l-0.8,1.3l0.8,1.3l-0.6,1c-0.1,0.1-0.1,0.2-0.1,0.3h1.4l0.8-1.3l-0.8-1.3
			l0.8-1.3l-0.8-1.3l0.6-1C-5.1,449.4-5,449.3-5,449.3z"/>
		<path class="st14" d="M4.2,467.9l-1.6-1l-1.3,0.8l-1.3-0.8l-1.3,0.8l-0.9-0.6c-0.1,0-0.1-0.1-0.2-0.1v1.5l1.1,0.7l1.3-0.8l1.3,0.8
			l1.3-0.8l0.9,0.6c0.2,0.1,0.4,0.1,0.6,0L4.2,467.9L4.2,467.9z"/>
		<path class="st14" d="M12.7,467.8l-1.4-0.9l-1.3,0.8l-1.3-0.8l-1.3,0.8l-1-0.6c0,0-0.1,0-0.1-0.1v1.5l1.1,0.7l1.3-0.8l1.3,0.8
			l1.3-0.8l1,0.6c0.1,0.1,0.2,0.1,0.4,0.1V467.8z"/>
		<path class="st14" d="M17.8,449.3h-1.5l-0.7,1.1l0.8,1.3l-0.8,1.3l0.8,1.3l-0.6,1c-0.1,0.1-0.1,0.2-0.1,0.3h1.4l0.8-1.3l-0.8-1.3
			l0.8-1.3l-0.8-1.3l0.6-1C17.7,449.4,17.8,449.3,17.8,449.3z"/>
	</g>
	<g>
		<path class="st16" d="M-3,443.1c0-5,4.1-9.1,9.1-9.1c2.3,0,4.4,0.9,6,2.3c-1.7-2-4.1-3.2-6.9-3.2c-5,0-9.1,4.1-9.1,9.1
			c0,2.7,1.2,5.1,3,6.8C-2.2,447.4-3,445.4-3,443.1z"/>
		<path class="st16" d="M2.1,471.9c-1.8,0-3.3-1.5-3.3-3.3v-14h-5.5c-1.8,0-3.3-1.5-3.3-3.3c0-0.6,0.1-1.1,0.4-1.6
			c-0.9,0.6-1.5,1.6-1.5,2.7c0,1.8,1.5,3.3,3.3,3.3h5.5v14c0,1.8,1.5,3.3,3.3,3.3c1.2,0,2.3-0.7,2.9-1.7
			C3.3,471.7,2.7,471.9,2.1,471.9z"/>
	</g>
	<g>
	</g>
	<g>
	</g>
	<g>
	</g>
	<g>
	</g>
	<g>
	</g>
	<g>
	</g>
	<g>
	</g>
	<g>
	</g>
	<g>
	</g>
	<g>
	</g>
	<g>
	</g>
	<g>
	</g>
	<g>
	</g>
	<g>
	</g>
	<g>
	</g>
</g>
<g class="st12">
	<path class="st13" d="M35.7,449.5h-7.1c2-1.7,3.3-4.2,3.3-7c0-5-4.1-9.1-9.1-9.1s-9.1,4.1-9.1,9.1c0,2.8,1.3,5.3,3.3,7H9.9
		c-1.8,0-3.3,1.5-3.3,3.3s1.5,3.3,3.3,3.3h5.5v14c0,1.8,1.5,3.3,3.3,3.3c1.8,0,3.3-1.5,3.3-3.3v-7h1.9v7c0,1.8,1.5,3.3,3.3,3.3
		s3.3-1.5,3.3-3.3v-14h5.5c1.8,0,3.3-1.5,3.3-3.3C39,451,37.5,449.5,35.7,449.5z"/>
	<g>
		<circle class="st14" cx="19.7" cy="440.4" r="1"/>
		<circle class="st14" cx="25.8" cy="440.4" r="1"/>
		<path class="st14" d="M22.8,448.4c-3,0-5.5-2.5-5.5-5.5c0-0.3,0.3-0.6,0.6-0.6s0.6,0.3,0.6,0.6c0,2.3,1.9,4.2,4.2,4.2
			s4.2-1.9,4.2-4.2c0-0.3,0.3-0.6,0.6-0.6c0.3,0,0.6,0.3,0.6,0.6C28.3,446,25.8,448.4,22.8,448.4z"/>
	</g>
	<g>
		<circle class="st15" cx="22.8" cy="453.4" r="1.2"/>
		<circle class="st15" cx="22.8" cy="457.6" r="1.2"/>
	</g>
	<g>
		<path class="st14" d="M12.6,449.5h-1.5l-0.7,1.1l0.8,1.3l-0.8,1.3l0.8,1.3l-0.6,1c-0.1,0.1-0.1,0.2-0.1,0.3h1.4l0.8-1.3l-0.8-1.3
			l0.8-1.3l-0.8-1.3l0.6-1C12.5,449.6,12.6,449.6,12.6,449.5z"/>
		<path class="st14" d="M21.8,468.2l-1.6-1L19,468l-1.3-0.8l-1.3,0.8l-0.9-0.6c-0.1,0-0.1-0.1-0.2-0.1v1.5l1.1,0.7l1.3-0.8l1.3,0.8
			l1.3-0.8l0.9,0.6c0.2,0.1,0.4,0.1,0.6,0L21.8,468.2L21.8,468.2z"/>
		<path class="st14" d="M30.3,468l-1.4-0.9l-1.3,0.8l-1.3-0.8l-1.3,0.8l-1-0.6c0,0-0.1,0-0.1-0.1v1.5l1.1,0.7l1.3-0.8l1.3,0.8
			l1.3-0.8l1,0.6c0.1,0.1,0.2,0.1,0.4,0.1V468z"/>
		<path class="st14" d="M35.4,449.5h-1.5l-0.7,1.1L34,452l-0.8,1.3l0.8,1.3l-0.6,1c-0.1,0.1-0.1,0.2-0.1,0.3h1.4l0.8-1.3l-0.8-1.3
			l0.8-1.3l-0.8-1.3l0.6-1C35.3,449.6,35.4,449.6,35.4,449.5z"/>
	</g>
	<g>
		<path class="st16" d="M14.6,443.4c0-5,4.1-9.1,9.1-9.1c2.3,0,4.4,0.9,6,2.3c-1.7-2-4.1-3.2-6.9-3.2c-5,0-9.1,4.1-9.1,9.1
			c0,2.7,1.2,5.1,3,6.8C15.4,447.7,14.6,445.6,14.6,443.4z"/>
		<path class="st16" d="M19.7,472.1c-1.8,0-3.3-1.5-3.3-3.3v-14H11c-1.8,0-3.3-1.5-3.3-3.3c0-0.6,0.1-1.1,0.4-1.6
			c-0.9,0.6-1.5,1.6-1.5,2.7c0,1.8,1.5,3.3,3.3,3.3h5.5v14c0,1.8,1.5,3.3,3.3,3.3c1.2,0,2.3-0.7,2.9-1.7
			C20.9,471.9,20.3,472.1,19.7,472.1z"/>
	</g>
	<g>
	</g>
	<g>
	</g>
	<g>
	</g>
	<g>
	</g>
	<g>
	</g>
	<g>
	</g>
	<g>
	</g>
	<g>
	</g>
	<g>
	</g>
	<g>
	</g>
	<g>
	</g>
	<g>
	</g>
	<g>
	</g>
	<g>
	</g>
	<g>
	</g>
</g>
<g>
	<g>
		<path class="st17" d="M76.4,472.2l15.9,19.1l73.2-60.8L102,354c-16.9-20.4-48.1-24-68.3-6.8C14,364,11.4,393.8,28,413.8l9.9,11.9
			c0.7,0.8,0,2.1-1,2l0,0c-9.2-0.9-18,4.9-20.1,13.9c-2.5,10.9,5.3,21.2,16,22.2c0,0,20.9,1.8,32.2,2.5
			C69.4,466.6,73.6,468.8,76.4,472.2z"/>
		
			<rect x="76" y="446.1" transform="matrix(-0.7695 0.6387 -0.6387 -0.7695 508.9138 725.2983)" class="st18" width="95.2" height="16.8"/>
		
			<rect x="143.9" y="395.9" transform="matrix(-0.7695 0.6387 -0.6387 -0.7695 525.9897 613.1763)" class="st18" width="16.8" height="11.2"/>
		
			<rect x="79.4" y="418.9" transform="matrix(-0.9957 -9.249673e-02 9.249673e-02 -0.9957 124.4346 863.3397)" class="st19" width="5.6" height="19.8"/>
		
			<rect x="72.3" y="426" transform="matrix(-0.9957 -9.249673e-02 9.249673e-02 -0.9957 124.4314 863.342)" class="st19" width="19.8" height="5.6"/>
		
			<rect x="103.1" y="399.2" transform="matrix(-0.9957 -9.249673e-02 9.249673e-02 -0.9957 173.5308 826.2897)" class="st19" width="5.6" height="19.8"/>
		
			<rect x="96" y="406.3" transform="matrix(-0.9957 -9.249673e-02 9.249673e-02 -0.9957 173.5276 826.2921)" class="st19" width="19.8" height="5.6"/>
		
			<rect x="85.1" y="443.3" transform="matrix(-0.9957 -9.249673e-02 9.249673e-02 -0.9957 133.5261 912.5188)" class="st19" width="5.6" height="19.8"/>
		
			<rect x="78" y="450.4" transform="matrix(-0.9957 -9.249673e-02 9.249673e-02 -0.9957 133.5229 912.5212)" class="st19" width="19.8" height="5.6"/>
		
			<rect x="106.6" y="425.4" transform="matrix(-0.9957 -9.249673e-02 9.249673e-02 -0.9957 178.1597 878.8372)" class="st19" width="5.6" height="19.8"/>
		
			<rect x="99.5" y="432.5" transform="matrix(-0.9957 -9.249673e-02 9.249673e-02 -0.9957 178.1566 878.8395)" class="st19" width="19.8" height="5.6"/>
		
			<rect x="128.2" y="407.5" transform="matrix(-0.9957 -9.249673e-02 9.249673e-02 -0.9957 222.7925 845.1554)" class="st19" width="5.6" height="19.8"/>
		
			<rect x="121.1" y="414.6" transform="matrix(-0.9957 -9.249673e-02 9.249673e-02 -0.9957 222.7894 845.1578)" class="st19" width="19.8" height="5.6"/>
		<path class="st19" d="M53.3,430.2c-0.5,0.4-1.2,0.7-1.9,0.6l-13.8-0.6c-1.5-0.1-2.7-1.4-2.7-2.9c0.1-1.5,1.4-2.7,2.9-2.7l13.8,0.6
			c1.5,0.1,2.7,1.4,2.7,2.9C54.3,429,53.9,429.7,53.3,430.2z"/>
	</g>
	<g>
	</g>
	<g>
	</g>
	<g>
	</g>
	<g>
	</g>
	<g>
	</g>
	<g>
	</g>
	<g>
	</g>
	<g>
	</g>
	<g>
	</g>
	<g>
	</g>
	<g>
	</g>
	<g>
	</g>
	<g>
	</g>
	<g>
	</g>
	<g>
	</g>
</g>
</svg>
