<?xml version="1.0" encoding="utf-8"?>
<!-- Generator: Adobe Illustrator 19.0.1, SVG Export Plug-In . SVG Version: 6.00 Build 0)  -->
<svg version="1.1" id="grape_x5F_grow" xmlns="http://www.w3.org/2000/svg" xmlns:xlink="http://www.w3.org/1999/xlink" x="0px"
	 y="0px" viewBox="-223 225 512 512" style="enable-background:new -223 225 512 512;" xml:space="preserve">
<style type="text/css">
	.st0{fill:#5C3715;}
	.st1{fill:#326B37;}
	.st2{fill:none;stroke:#245529;stroke-width:3;stroke-miterlimit:10;}
	.st3{fill:#48824A;}
</style>
<g>
	<g>
		
			<rect x="-45.7" y="370.1" transform="matrix(0.5085 -0.8611 0.8611 0.5085 -443.2071 202.9664)" class="st0" width="3.8" height="239.1"/>
		<g>
			<path class="st0" d="M-152.1,553.1l-1.9-0.5c-1.1-0.3-1.8-1.5-1.5-2.6l13.8-52.4l21.5-81.6c0.3-1.1,1.5-1.8,2.6-1.5l1.9,0.5
				c1.1,0.3,1.8,1.5,1.5,2.6l-35.4,134C-149.8,552.7-151,553.4-152.1,553.1z"/>
			<path class="st0" d="M-104.3,552.4l-3.5,0.9c-0.7,0.2-1.4-0.2-1.6-0.9l-35.9-135.6c-0.2-0.7,0.2-1.4,0.9-1.6l3.5-0.9
				c0.7-0.2,1.4,0.2,1.6,0.9l35.9,135.6C-103.2,551.5-103.6,552.2-104.3,552.4z"/>
			<g>
				<g>
					<path class="st1" d="M-105.1,475.3c-5.7-4.3-3.7-9.9-2.8-11.7c1.4,1.1,2.1,1.6,4,3.7c-0.4,2.5,1.7,6.4,1.7,6.4
						c-1-2.7-1-4.9-1-5.7c0.1,0.1,2.2,2.7,3.3,3.4c0.3,2.3,2.2,4,2.2,4c0-0.1-0.9-1.1-1.3-3.4c3.1,1.9,5.7,1.4,5.7,1.4
						s-2.5-0.5-5.4-2.3c1.7-0.7,3.1-0.3,3.1-0.4c0,0-2.3-1.2-4-0.2c-1.3-1-2.5-2.7-3.1-3.4c0.1-0.1,1.9-1.1,4.9-0.8
						c0,0-3.9-1.3-5.6,0.1c-1.1-1.3-1.4-1.7-4-3.8c2.5-6,9.3-2.2,11.3,1.7c2.1,4,2.1,5.8,7.9,8.9
						C-92.6,478.3-100.4,478.8-105.1,475.3z M-108.1,451.7c-0.6,2.6-1.6,4.6-2.6,6c0,0,0.1,0,0.1,0c7,1.2,4.2-11.1,4.2-11.1
						s-1.9,2.1-4.1,3.4c-2.6,1.5-4.2,6.4-0.7,7.6C-110.1,456.2-108.9,454.3-108.1,451.7z M-107.9,463.5c0,0,0.5-1,0.5-0.9
						c-2.3-1.8-4-2.4-6.2-2.3c0.7-0.4,1.7-1.3,2.8-2.6c-0.2,0-0.3-0.1-0.5-0.1c-1.2,1.5-3,2.3-3.6,2.6c-1.7,0.3-2.6,0.6-4,1
						c0,0-0.4,1.2,0.7,1.4C-117.3,461.8-111.4,460.3-107.9,463.5z"/>
				</g>
			</g>
			<g>
				<g>
					<path class="st1" d="M-171,479.7c5.8-3.1,5.8-4.9,7.9-8.9c2-3.9,8.8-7.7,11.3-1.7c-2.6,2.1-2.9,2.4-4,3.8
						c-1.7-1.5-5.6-0.1-5.6-0.1c3-0.3,4.8,0.8,4.9,0.8c-0.5,0.6-1.8,2.3-3.1,3.4c-1.8-1-4,0.2-4,0.2c0,0.1,1.4-0.3,3.1,0.4
						c-2.9,1.8-5.4,2.3-5.4,2.3s2.5,0.5,5.7-1.4c-0.4,2.2-1.4,3.3-1.3,3.4c0,0,1.9-1.7,2.2-4c1.1-0.7,3.2-3.2,3.3-3.4
						c0,0.8,0.1,3-1,5.7c0,0,2.1-4,1.7-6.4c1.9-2,2.6-2.5,4-3.7c0.9,1.9,2.9,7.5-2.8,11.7C-158.7,485.2-166.5,484.7-171,479.7z
						 M-147.9,464c3.5-1.1,1.9-6-0.7-7.6c-2.2-1.3-4.1-3.4-4.1-3.4s-2.8,12.3,4.2,11.1c0,0,0.1,0,0.1,0c-1-1.4-2-3.3-2.6-6
						C-150.2,460.7-149,462.6-147.9,464z M-141,469c1.1-0.2,0.7-1.4,0.7-1.4c-1.4-0.4-2.3-0.8-4-1c-0.6-0.4-2.4-1.2-3.6-2.6
						c-0.1,0-0.3,0.1-0.5,0.1c1,1.4,2.1,2.2,2.8,2.6c-2.1-0.1-3.9,0.5-6.2,2.3c0,0,0.5,0.9,0.5,0.9
						C-147.7,466.7-141.7,468.3-141,469z"/>
				</g>
			</g>
			<path class="st2" d="M-118.6,545.1c0,0,14.1-11.3,10-30.3c-2.7-12.3-15-18-17.2-18.5c-0.3-0.1-1.6-0.3-3.4-1.2
				c-1.2-0.6-2.1-1.2-2.7-1.7c-1.8-1.5-7.1-6.4-8.6-15c-0.4-2.3-0.9-7,1.5-14.8c0.9-3,8.6-30.1,20.3-29.9c2.9,0.1,6,1.7,6.2,3.5
				c0.3,4.5-18.3,15.5-27.9,7c-4.8-4.2-6.2-12.1-3.7-19.6"/>
			<path class="st2" d="M-154.6,539.2c8.1,2.7,14.5,2.3,15.7-1.3c0.7-2,0.1-5.9-1.1-8.4c-0.7-1.4-1.5-2.3-2-2.8
				c-1.1-1.2-3.8-4.5-4.7-10.6c-1.6-11.1,4.4-21,4.8-21.7c0.3-0.5,1-1.4,1.8-2.3c9.5-10.9,21.3-2.1,24.3-8.3
				c1.5-3.2-0.5-7.8-1.9-12.9c-2.3-8.8-3.8-22.7,0.6-44.9"/>
			<g>
				<g>
					<path class="st3" d="M-116.8,501.8c-5.7-4.3-3.7-9.9-2.8-11.7c1.4,1.1,2.1,1.6,4,3.7c-0.4,2.5,1.7,6.4,1.7,6.4
						c-1-2.7-1-4.9-1-5.7c0.1,0.1,2.2,2.7,3.3,3.4c0.3,2.3,2.2,4,2.2,4c0-0.1-0.9-1.1-1.3-3.4c3.1,1.9,5.7,1.4,5.7,1.4
						s-2.5-0.5-5.4-2.3c1.7-0.7,3.1-0.3,3.1-0.4c0,0-2.3-1.2-4-0.2c-1.3-1-2.5-2.7-3.1-3.4c0.1-0.1,1.9-1.1,4.9-0.8
						c0,0-3.9-1.3-5.6,0.1c-1.1-1.3-1.4-1.7-4-3.8c2.5-6,9.3-2.2,11.3,1.7c2.1,4,2.1,5.8,7.9,8.9
						C-104.4,504.8-112.2,505.3-116.8,501.8z M-119.9,478.2c-0.6,2.6-1.6,4.6-2.6,6c0,0,0.1,0,0.1,0c7,1.2,4.2-11.1,4.2-11.1
						s-1.9,2.1-4.1,3.4c-2.6,1.5-4.2,6.4-0.7,7.6C-121.9,482.7-120.7,480.8-119.9,478.2z M-119.6,490.1c0,0,0.5-1,0.5-0.9
						c-2.3-1.8-4-2.4-6.2-2.3c0.7-0.4,1.7-1.3,2.8-2.6c-0.2,0-0.3-0.1-0.5-0.1c-1.2,1.5-3,2.3-3.6,2.6c-1.7,0.3-2.6,0.6-4,1
						c0,0-0.4,1.2,0.7,1.4C-129.1,488.4-123.2,486.8-119.6,490.1z"/>
				</g>
			</g>
			<g>
				<g>
					<path class="st3" d="M-160.5,491.6c6.5,2.8,5.9,8.7,5.5,10.8c-1.6-0.8-2.4-1.1-4.7-2.6c-0.2-2.5-3.2-5.9-3.2-5.9
						c1.6,2.4,2.2,4.6,2.3,5.3c-0.2-0.1-2.8-2.1-4-2.5c-0.8-2.2-3.1-3.4-3.1-3.4c0,0.1,1.1,0.9,2.1,3c-3.5-1.1-5.8,0-5.8,0
						s2.5-0.1,5.7,1c-1.5,1.1-2.9,1.1-2.9,1.1c0,0,2.5,0.6,4-0.7c1.5,0.7,3.1,2.1,3.8,2.5c-0.1,0.1-1.6,1.5-4.6,2
						c0,0,4.1,0.4,5.4-1.4c1.4,1,1.8,1.3,4.8,2.7c-1.1,6.5-8.5,4.3-11.4,1c-3-3.4-3.4-5.2-9.8-6.8
						C-173.2,491.6-165.8,489.3-160.5,491.6z M-151.9,513.8c-0.1-2.7,0.4-4.8,1.1-6.4c0,0-0.1,0-0.1,0c-7.1,0.4-1.5,11.8-1.5,11.8
						s1.4-2.4,3.2-4.3c2.1-2.1,2.5-7.2-1.1-7.5C-151.1,509-151.8,511.2-151.9,513.8z M-155,502.4c0,0-0.3,1.1-0.3,1
						c2.6,1.3,4.5,1.4,6.5,0.8c-0.6,0.6-1.4,1.6-2.1,3.2c0.2,0,0.3,0,0.5,0c0.8-1.7,2.4-2.9,2.9-3.4c1.6-0.7,2.4-1.2,3.7-2
						c0,0,0.1-1.3-1-1.2C-145.3,501.8-150.8,504.7-155,502.4z"/>
				</g>
			</g>
			<path class="st2" d="M-121.3,444.1c0,0,4.9,13.2,22.3,21.4c11.2,5.3,20,2.1,21.1,1.2c0.1-0.1,0.8-0.7,2.1-1.1
				c0.9-0.3,1.7-0.4,2.3-0.4c1.9-0.1,7.7-0.2,15.4,3.7c2.1,1,6.1,3.3,12,8.8c2.3,2.1,22.6,20.6,18.6,26.4c-1,1.4-3.4,2.1-5,1.2
				c-3.9-2.2-7.1-17.6,3.1-18c5.1-0.2,12.2,3.4,17.7,8.7"/>
		</g>
	</g>
	<g>
		<path class="st0" d="M9.7,644.8l-1.9-0.5c-1.1-0.3-1.8-1.5-1.5-2.6l13.8-52.4l21.5-81.6c0.3-1.1,1.5-1.8,2.6-1.5l1.9,0.5
			c1.1,0.3,1.8,1.5,1.5,2.6l-35.4,134C12,644.4,10.8,645.1,9.7,644.8z"/>
		<path class="st0" d="M57.5,644.1L54,645c-0.7,0.2-1.4-0.2-1.6-0.9L16.6,508.5c-0.2-0.7,0.2-1.4,0.9-1.6L21,506
			c0.7-0.2,1.4,0.2,1.6,0.9l35.9,135.6C58.6,643.2,58.2,643.9,57.5,644.1z"/>
		<g>
			<g>
				<path class="st1" d="M56.7,567c-5.7-4.3-3.7-9.9-2.8-11.7c1.4,1.1,2.1,1.6,4,3.7c-0.4,2.5,1.7,6.4,1.7,6.4c-1-2.7-1-4.9-1-5.7
					c0.1,0.1,2.2,2.7,3.3,3.4c0.3,2.3,2.2,4,2.2,4c0-0.1-0.9-1.1-1.3-3.4c3.1,1.9,5.7,1.4,5.7,1.4s-2.5-0.5-5.4-2.3
					c1.7-0.7,3.1-0.3,3.1-0.4c0,0-2.3-1.2-4-0.2c-1.3-1-2.5-2.7-3.1-3.4c0.1-0.1,1.9-1.1,4.9-0.8c0,0-3.9-1.3-5.6,0.1
					c-1.1-1.3-1.4-1.7-4-3.8c2.5-6,9.3-2.2,11.3,1.7c2.1,4,2.1,5.8,7.9,8.9C69.2,570,61.4,570.5,56.7,567z M53.7,543.4
					c-0.6,2.6-1.6,4.6-2.6,6c0,0,0.1,0,0.1,0c7,1.2,4.2-11.1,4.2-11.1s-1.9,2.1-4.1,3.4c-2.6,1.5-4.2,6.4-0.7,7.6
					C51.7,547.9,52.9,546,53.7,543.4z M53.9,555.3c0,0,0.5-1,0.5-0.9c-2.3-1.8-4-2.4-6.2-2.3c0.7-0.4,1.7-1.3,2.8-2.6
					c-0.2,0-0.3-0.1-0.5-0.1c-1.2,1.5-3,2.3-3.6,2.6c-1.7,0.3-2.6,0.6-4,1c0,0-0.4,1.2,0.7,1.4C44.5,553.5,50.4,552,53.9,555.3z"/>
			</g>
		</g>
		<g>
			<g>
				<path class="st1" d="M-9.2,571.4c5.8-3.1,5.8-4.9,7.9-8.9c2-3.9,8.8-7.7,11.3-1.7c-2.6,2.1-2.9,2.4-4,3.8
					c-1.7-1.5-5.6-0.1-5.6-0.1c3-0.3,4.8,0.8,4.9,0.8c-0.5,0.6-1.8,2.3-3.1,3.4c-1.8-1-4,0.2-4,0.2c0,0.1,1.4-0.3,3.1,0.4
					c-2.9,1.8-5.4,2.3-5.4,2.3s2.5,0.5,5.7-1.4c-0.4,2.2-1.4,3.3-1.3,3.4c0,0,1.9-1.7,2.2-4c1.1-0.7,3.2-3.2,3.3-3.4
					c0,0.8,0.1,3-1,5.7c0,0,2.1-4,1.7-6.4c1.9-2,2.6-2.5,4-3.7c0.9,1.9,2.9,7.5-2.8,11.7C3.1,576.9-4.7,576.4-9.2,571.4z
					 M13.9,555.7c3.5-1.1,1.9-6-0.7-7.6c-2.2-1.3-4.1-3.4-4.1-3.4s-2.8,12.3,4.2,11.1c0,0,0.1,0,0.1,0c-1-1.4-2-3.3-2.6-6
					C11.6,552.4,12.8,554.3,13.9,555.7z M20.8,560.8c1.1-0.2,0.7-1.4,0.7-1.4c-1.4-0.4-2.3-0.8-4-1c-0.6-0.4-2.4-1.2-3.6-2.6
					c-0.1,0-0.3,0.1-0.5,0.1c1,1.4,2.1,2.2,2.8,2.6c-2.1-0.1-3.9,0.5-6.2,2.3c0,0,0.5,0.9,0.5,0.9C14.1,558.4,20,560,20.8,560.8z"/>
			</g>
		</g>
		<path class="st2" d="M43.2,636.8c0,0,14.1-11.3,10-30.3c-2.7-12.3-15-18-17.2-18.5c-0.3-0.1-1.6-0.3-3.4-1.2
			c-1.2-0.6-2.1-1.2-2.7-1.7c-1.8-1.5-7.1-6.4-8.6-15c-0.4-2.3-0.9-7,1.5-14.8c0.9-3,8.6-30.1,20.3-29.9c2.9,0.1,6,1.7,6.2,3.5
			c0.3,4.5-18.3,15.5-27.9,7c-4.8-4.2-6.2-12.1-3.7-19.6"/>
		<path class="st2" d="M7.2,630.9c8.1,2.7,14.5,2.3,15.7-1.3c0.7-2,0.1-5.9-1.1-8.4c-0.7-1.4-1.5-2.3-2-2.8
			c-1.1-1.2-3.8-4.5-4.7-10.6c-1.6-11.1,4.4-21,4.8-21.7c0.3-0.5,1-1.4,1.8-2.3c9.5-10.9,21.3-2.1,24.3-8.3
			c1.5-3.2-0.5-7.8-1.9-12.9c-2.3-8.8-3.8-22.7,0.6-44.9"/>
		<g>
			<g>
				<path class="st3" d="M45,593.5c-5.7-4.3-3.7-9.9-2.8-11.7c1.4,1.1,2.1,1.6,4,3.7c-0.4,2.5,1.7,6.4,1.7,6.4c-1-2.7-1-4.9-1-5.7
					c0.1,0.1,2.2,2.7,3.3,3.4c0.3,2.3,2.2,4,2.2,4c0-0.1-0.9-1.1-1.3-3.4c3.1,1.9,5.7,1.4,5.7,1.4s-2.5-0.5-5.4-2.3
					c1.7-0.7,3.1-0.3,3.1-0.4c0,0-2.3-1.2-4-0.2c-1.3-1-2.5-2.7-3.1-3.4c0.1-0.1,1.9-1.1,4.9-0.8c0,0-3.9-1.3-5.6,0.1
					c-1.1-1.3-1.4-1.7-4-3.8c2.5-6,9.3-2.2,11.3,1.7c2.1,4,2.1,5.8,7.9,8.9C57.4,596.5,49.6,597,45,593.5z M41.9,569.9
					c-0.6,2.6-1.6,4.6-2.6,6c0,0,0.1,0,0.1,0c7,1.2,4.2-11.1,4.2-11.1s-1.9,2.1-4.1,3.4c-2.6,1.5-4.2,6.4-0.7,7.6
					C39.9,574.4,41.1,572.5,41.9,569.9z M42.2,581.8c0,0,0.5-1,0.5-0.9c-2.3-1.8-4-2.4-6.2-2.3c0.7-0.4,1.7-1.3,2.8-2.6
					c-0.2,0-0.3-0.1-0.5-0.1c-1.2,1.5-3,2.3-3.6,2.6c-1.7,0.3-2.6,0.6-4,1c0,0-0.4,1.2,0.7,1.4C32.7,580.1,38.6,578.5,42.2,581.8z"
					/>
			</g>
		</g>
		<g>
			<g>
				<path class="st3" d="M1.3,583.3c6.5,2.8,5.9,8.7,5.5,10.8c-1.6-0.8-2.4-1.1-4.7-2.6c-0.2-2.5-3.2-5.9-3.2-5.9
					c1.6,2.4,2.2,4.6,2.3,5.3c-0.2-0.1-2.8-2.1-4-2.5c-0.8-2.2-3.1-3.4-3.1-3.4c0,0.1,1.1,0.9,2.1,3c-3.5-1.1-5.8,0-5.8,0
					s2.5-0.1,5.7,1c-1.5,1.1-2.9,1.1-2.9,1.1c0,0,2.5,0.6,4-0.7c1.5,0.7,3.1,2.1,3.8,2.5c-0.1,0.1-1.6,1.5-4.6,2
					c0,0,4.1,0.4,5.4-1.4c1.4,1,1.8,1.3,4.8,2.7c-1.1,6.5-8.5,4.3-11.4,1c-3-3.4-3.4-5.2-9.8-6.8C-11.5,583.4-4,581.1,1.3,583.3z
					 M9.9,605.6c-0.1-2.7,0.4-4.8,1.1-6.4c0,0-0.1,0-0.1,0c-7.1,0.4-1.5,11.8-1.5,11.8s1.4-2.4,3.2-4.3c2.1-2.1,2.5-7.2-1.1-7.5
					C10.7,600.8,10,602.9,9.9,605.6z M6.8,594.1c0,0-0.3,1.1-0.3,1c2.6,1.3,4.5,1.4,6.5,0.8c-0.6,0.6-1.4,1.6-2.1,3.2
					c0.2,0,0.3,0,0.5,0c0.8-1.7,2.4-2.9,2.9-3.4c1.6-0.7,2.4-1.2,3.7-2c0,0,0.1-1.3-1-1.2C16.4,593.5,11,596.4,6.8,594.1z"/>
			</g>
		</g>
	</g>
	<path class="st2" d="M-76.7,470.1c0,0,4.9,13.2,22.3,21.4c11.2,5.3,20,2.1,21.1,1.2c0.1-0.1,0.8-0.7,2.1-1.1
		c0.9-0.3,1.7-0.4,2.3-0.4c1.9-0.1,7.7-0.2,15.4,3.7c2.1,1,6.1,3.3,12,8.8c2.3,2.1,22.6,20.6,18.6,26.4c-1,1.4-3.4,2.1-5,1.2
		c-3.9-2.2-7.1-17.6,3.1-18c5.1-0.2,12.2,3.4,17.7,8.7"/>
	<path class="st2" d="M-102.5,455.2c0,0,4.9,13.2,22.3,21.4c11.2,5.3,20,2.1,21.1,1.2c0.1-0.1,0.8-0.7,2.1-1.1
		c0.9-0.3,1.7-0.4,2.3-0.4c1.9-0.1,7.7-0.2,15.4,3.7c2.1,1,6.1,3.3,12,8.8c2.3,2.1,22.6,20.6,18.6,26.4c-1,1.4-3.4,2.1-5,1.2
		c-3.9-2.2-7.1-17.6,3.1-18c5.1-0.2,12.2,3.4,17.7,8.7"/>
	<path class="st2" d="M-39.7,507.4c4.9-7,6.4-13.2,3.3-15.4c-1.7-1.2-5.6-1.8-8.3-1.4c-1.6,0.2-2.6,0.7-3.2,1.1
		c-1.4,0.7-5.4,2.3-11.5,1.4c-11.1-1.7-18.9-10.2-19.4-10.8c-0.4-0.5-1-1.3-1.7-2.4c-7.7-12.3,4.1-21.1-0.9-25.6
		c-2.6-2.3-7.6-1.8-12.9-2c-9.1-0.3-22.8-2.9-42.8-13.5"/>
	<g>
		<g>
			<path class="st1" d="M-87.5,465.4c-5.7-4.3-3.7-9.9-2.8-11.7c1.4,1.1,2.1,1.6,4,3.7c-0.4,2.5,1.7,6.4,1.7,6.4c-1-2.7-1-4.9-1-5.7
				c0.1,0.1,2.2,2.7,3.3,3.4c0.3,2.3,2.2,4,2.2,4c0-0.1-0.9-1.1-1.3-3.4c3.1,1.9,5.7,1.4,5.7,1.4s-2.5-0.5-5.4-2.3
				c1.7-0.7,3.1-0.3,3.1-0.4c0,0-2.3-1.2-4-0.2c-1.3-1-2.5-2.7-3.1-3.4c0.1-0.1,1.9-1.1,4.9-0.8c0,0-3.9-1.3-5.6,0.1
				c-1.1-1.3-1.4-1.7-4-3.8c2.5-6,9.3-2.2,11.3,1.7c2.1,4,2.1,5.8,7.9,8.9C-75.1,468.4-82.9,468.9-87.5,465.4z M-90.6,441.8
				c-0.6,2.6-1.6,4.6-2.6,6c0,0,0.1,0,0.1,0c7,1.2,4.2-11.1,4.2-11.1s-1.9,2.1-4.1,3.4c-2.6,1.5-4.2,6.4-0.7,7.6
				C-92.6,446.3-91.4,444.4-90.6,441.8z M-90.3,453.7c0,0,0.5-1,0.5-0.9c-2.3-1.8-4-2.4-6.2-2.3c0.7-0.4,1.7-1.3,2.8-2.6
				c-0.2,0-0.3-0.1-0.5-0.1c-1.2,1.5-3,2.3-3.6,2.6c-1.7,0.3-2.6,0.6-4,1c0,0-0.4,1.2,0.7,1.4C-99.8,452-93.9,450.4-90.3,453.7z"/>
		</g>
	</g>
	<g>
		<g>
			<path class="st1" d="M-52.6,490.7c-5.7-4.3-3.7-9.9-2.8-11.7c1.4,1.1,2.1,1.6,4,3.7c-0.4,2.5,1.7,6.4,1.7,6.4c-1-2.7-1-4.9-1-5.7
				c0.1,0.1,2.2,2.7,3.3,3.4c0.3,2.3,2.2,4,2.2,4c0-0.1-0.9-1.1-1.3-3.4c3.1,1.9,5.7,1.4,5.7,1.4s-2.5-0.5-5.4-2.3
				c1.7-0.7,3.1-0.3,3.1-0.4c0,0-2.3-1.2-4-0.2c-1.3-1-2.5-2.7-3.1-3.4c0.1-0.1,1.9-1.1,4.9-0.8c0,0-3.9-1.3-5.6,0.1
				c-1.1-1.3-1.4-1.7-4-3.8c2.5-6,9.3-2.2,11.3,1.7c2.1,4,2.1,5.8,7.9,8.9C-40.2,493.7-48,494.2-52.6,490.7z M-55.7,467.1
				c-0.6,2.6-1.6,4.6-2.6,6c0,0,0.1,0,0.1,0c7,1.2,4.2-11.1,4.2-11.1s-1.9,2.1-4.1,3.4c-2.6,1.5-4.2,6.4-0.7,7.6
				C-57.6,471.6-56.5,469.7-55.7,467.1z M-55.4,479c0,0,0.5-1,0.5-0.9c-2.3-1.8-4-2.4-6.2-2.3c0.7-0.4,1.7-1.3,2.8-2.6
				c-0.2,0-0.3-0.1-0.5-0.1c-1.2,1.5-3,2.3-3.6,2.6c-1.7,0.3-2.6,0.6-4,1c0,0-0.4,1.2,0.7,1.4C-64.9,477.3-59,475.7-55.4,479z"/>
		</g>
	</g>
	<g>
		<g>
			<path class="st1" d="M-7.1,494.1c-7.1,0.4-9.2-5.2-9.7-7.2c1.8,0,2.7-0.1,5.4,0.3c1.3,2.2,5.4,3.9,5.4,3.9
				c-2.5-1.4-3.9-3.1-4.4-3.8c0.2,0,3.4,0.6,4.7,0.5c1.7,1.6,4.3,1.7,4.3,1.7c0-0.1-1.4-0.3-3.2-1.7c3.6-0.6,5.2-2.6,5.2-2.6
				s-2.2,1.2-5.6,1.7c0.9-1.7,2.1-2.2,2.1-2.3c0,0-2.5,0.5-3.2,2.4c-1.6,0-3.7-0.5-4.5-0.6c0-0.1,0.8-2.1,3.2-3.8
				c0,0-3.9,1.5-4.2,3.7c-1.7-0.3-2.2-0.4-5.5-0.3c-1.9-6.3,5.7-7.7,9.8-6c4.2,1.7,5.3,3.2,11.8,1.8C4.4,488.4-1.3,493.8-7.1,494.1z
				 M-24.6,477.9c1.3,2.4,1.7,4.5,1.8,6.2c0,0,0.1,0,0.1-0.1c6.2-3.5-3.9-11.2-3.9-11.2s-0.2,2.8-1,5.2c-1,2.8,0.9,7.6,4.3,6.2
				C-23.2,482.6-23.5,480.4-24.6,477.9z M-16.8,486.8c0,0-0.2-1.1-0.2-1.1c-2.9,0-4.7,0.7-6.2,2.2c0.2-0.8,0.5-2.1,0.4-3.8
				c-0.1,0.1-0.3,0.1-0.4,0.2c0,1.9-0.9,3.7-1.1,4.3c-1.2,1.3-1.6,2.1-2.4,3.4c0,0,0.5,1.2,1.4,0.6
				C-25.2,491.6-21.6,486.6-16.8,486.8z"/>
		</g>
	</g>
	<g>
		<g>
			<path class="st3" d="M16.5,520.7c-5.7-4.3-3.7-9.9-2.8-11.7c1.4,1.1,2.1,1.6,4,3.7c-0.4,2.5,1.7,6.4,1.7,6.4c-1-2.7-1-4.9-1-5.7
				c0.1,0.1,2.2,2.7,3.3,3.4c0.3,2.3,2.2,4,2.2,4c0-0.1-0.9-1.1-1.3-3.4c3.1,1.9,5.7,1.4,5.7,1.4s-2.5-0.5-5.4-2.3
				c1.7-0.7,3.1-0.3,3.1-0.4c0,0-2.3-1.2-4-0.2c-1.3-1-2.5-2.7-3.1-3.4c0.1-0.1,1.9-1.1,4.9-0.8c0,0-3.9-1.3-5.6,0.1
				c-1.1-1.3-1.4-1.7-4-3.8c2.5-6,9.3-2.2,11.3,1.7c2.1,4,2.1,5.8,7.9,8.9C28.9,523.6,21.1,524.1,16.5,520.7z M13.4,497.1
				c-0.6,2.6-1.6,4.6-2.6,6c0,0,0.1,0,0.1,0c7,1.2,4.2-11.1,4.2-11.1s-1.9,2.1-4.1,3.4c-2.6,1.5-4.2,6.4-0.7,7.6
				C11.4,501.5,12.6,499.6,13.4,497.1z M13.7,508.9c0,0,0.5-1,0.5-0.9c-2.3-1.8-4-2.4-6.2-2.3c0.7-0.4,1.7-1.3,2.8-2.6
				c-0.2,0-0.3-0.1-0.5-0.1c-1.2,1.5-3,2.3-3.6,2.6c-1.7,0.3-2.6,0.6-4,1c0,0-0.4,1.2,0.7,1.4C4.2,507.2,10.1,505.7,13.7,508.9z"/>
		</g>
	</g>
	<g>
		<g>
			<path class="st3" d="M-76.3,490c7.1-0.2,9,5.5,9.5,7.5c-1.8,0-2.7,0-5.4-0.4c-1.2-2.2-5.3-4-5.3-4c2.5,1.5,3.9,3.2,4.3,3.9
				c-0.2,0-3.4-0.7-4.7-0.6c-1.7-1.7-4.2-1.8-4.2-1.8c0,0.1,1.4,0.3,3.1,1.8c-3.6,0.5-5.3,2.4-5.3,2.4s2.2-1.1,5.6-1.5
				c-0.9,1.7-2.2,2.2-2.2,2.3c0,0,2.5-0.5,3.3-2.3c1.6,0,3.7,0.6,4.5,0.7c0,0.1-0.8,2.1-3.3,3.7c0,0,3.9-1.4,4.3-3.6
				c1.7,0.3,2.2,0.4,5.5,0.5c1.7,6.3-5.9,7.5-10,5.7c-4.1-1.9-5.2-3.3-11.7-2.1C-87.9,495.4-82.1,490.2-76.3,490z M-59.3,506.7
				c-1.2-2.4-1.6-4.6-1.7-6.3c0,0-0.1,0-0.1,0c-6.3,3.4,3.6,11.3,3.6,11.3s0.2-2.8,1.2-5.2c1.1-2.8-0.7-7.6-4.2-6.3
				C-60.5,502-60.2,504.2-59.3,506.7z M-66.8,497.5c0,0,0.2,1.1,0.2,1.1c2.9,0,4.7-0.6,6.3-2c-0.3,0.8-0.6,2.1-0.5,3.8
				c0.2-0.1,0.3-0.1,0.4-0.2c0-1.9,1-3.7,1.2-4.3c1.2-1.3,1.6-2.1,2.5-3.3c0,0-0.5-1.2-1.4-0.7C-58.3,493-62,497.9-66.8,497.5z"/>
		</g>
	</g>
	<g>
		<g>
			<path class="st3" d="M-19.9,521c4.1-4.1,8.6-2,10.1-1.2c-1.1,1-1.6,1.5-3.4,2.8c-2-0.6-5.5,0.8-5.5,0.8c2.4-0.6,4.2-0.4,4.9-0.3
				c-0.1,0.1-2.4,1.5-3.1,2.3c-2,0-3.6,1.4-3.6,1.4c0.1,0,1-0.6,2.9-0.7c-1.9,2.3-1.7,4.3-1.7,4.3s0.7-1.9,2.4-4
				c0.4,1.4,0,2.4,0,2.5c0,0,1.2-1.7,0.6-3.2c1-0.9,2.5-1.8,3.1-2.1c0,0.1,0.7,1.6,0.2,3.9c0,0,1.5-2.9,0.4-4.4
				c1.2-0.8,1.5-1,3.5-2.8c4.8,2.5,1,7.5-2.5,8.8c-3.6,1.3-5.1,1.1-8.2,5.4C-23.6,530.5-23.3,524.3-19.9,521z M0,520.6
				c-2.2-0.7-3.7-1.6-4.7-2.6c0,0,0,0.1,0,0.1c-1.7,5.4,8.8,4.3,8.8,4.3s-1.5-1.7-2.4-3.5c-1-2.2-4.9-3.8-6.2-1.2
				C-3.5,518.7-2,519.8,0,520.6z M-9.9,519.8c0,0,0.8,0.5,0.7,0.5c1.8-1.6,2.4-3,2.5-4.6c0.3,0.6,0.9,1.5,1.9,2.4
				c0-0.1,0.1-0.2,0.1-0.4c-1.1-1.1-1.6-2.6-1.9-3.1c-0.1-1.4-0.3-2.1-0.5-3.2c0,0-1-0.4-1.2,0.4C-7.5,512.5-6.8,517.3-9.9,519.8z"
				/>
		</g>
	</g>
	<g>
		<g>
			<path class="st3" d="M-2.5,533.9c3.2-4.8,8-3.7,9.6-3.2c-0.9,1.2-1.2,1.8-2.8,3.4C2.2,534-1,536-1,536c2.2-1,4.1-1.2,4.7-1.2
				c-0.1,0.1-2.1,2-2.6,2.9c-1.9,0.4-3.2,2.1-3.2,2.1c0.1,0,0.9-0.8,2.7-1.3c-1.4,2.6-0.8,4.6-0.8,4.6s0.3-2,1.6-4.4
				c0.7,1.3,0.5,2.4,0.5,2.4c0,0,0.9-1.9-0.1-3.2c0.8-1.1,2.1-2.2,2.6-2.7c0.1,0.1,1,1.4,1,3.8c0,0,0.9-3.2-0.5-4.4
				c1-1,1.3-1.3,2.9-3.5c5.2,1.5,2.4,7.2-0.7,9.1c-3.2,2-4.7,2.1-6.9,7C-4.2,544-5.1,537.8-2.5,533.9z M17,529.5
				c-2.2-0.2-3.9-0.9-5.1-1.6c0,0,0,0.1,0,0.1c-0.6,5.7,9.5,2.4,9.5,2.4s-1.8-1.3-3.1-3c-1.4-1.9-5.6-2.8-6.3,0.1
				C13.1,528.4,14.8,529.1,17,529.5z M7.1,530.7c0,0,0.8,0.3,0.8,0.3c1.4-1.9,1.8-3.4,1.5-5.1c0.4,0.5,1.2,1.3,2.4,2
				c0-0.1,0-0.3,0.1-0.4c-1.3-0.8-2.1-2.2-2.4-2.6c-0.3-1.4-0.7-2-1.1-3.1c0,0-1-0.2-1.1,0.7C7.9,523.1,9.6,527.7,7.1,530.7z"/>
		</g>
	</g>
</g>
<g>
	<g>
		
			<rect x="116.1" y="277.5" transform="matrix(0.5085 -0.8611 0.8611 0.5085 -283.9 296.8301)" class="st0" width="3.8" height="239.1"/>
		<g>
			<path class="st0" d="M9.7,460.5L7.8,460c-1.1-0.3-1.8-1.5-1.5-2.6L20.2,405l21.5-81.6c0.3-1.1,1.5-1.8,2.6-1.5l1.9,0.5
				c1.1,0.3,1.8,1.5,1.5,2.6L12.3,459C12,460.1,10.9,460.8,9.7,460.5z"/>
			<path class="st0" d="M57.6,459.8l-3.5,0.9c-0.7,0.2-1.4-0.2-1.6-0.9L16.6,324.2c-0.2-0.7,0.2-1.4,0.9-1.6l3.5-0.9
				c0.7-0.2,1.4,0.2,1.6,0.9l35.9,135.6C58.7,458.9,58.3,459.6,57.6,459.8z"/>
			<g>
				<g>
					<path class="st1" d="M56.8,382.7c-5.7-4.3-3.7-9.9-2.8-11.7c1.4,1.1,2.1,1.6,4,3.7c-0.4,2.5,1.7,6.4,1.7,6.4
						c-1-2.7-1-4.9-1-5.7c0.1,0.1,2.2,2.7,3.3,3.4c0.3,2.3,2.2,4,2.2,4c0-0.1-0.9-1.1-1.3-3.4c3.1,1.9,5.7,1.4,5.7,1.4
						s-2.5-0.5-5.4-2.3c1.7-0.7,3.1-0.3,3.1-0.4c0,0-2.3-1.2-4-0.2c-1.3-1-2.5-2.7-3.1-3.4c0.1-0.1,1.9-1.1,4.9-0.8
						c0,0-3.9-1.3-5.6,0.1c-1.1-1.3-1.4-1.7-4-3.8c2.5-6,9.3-2.2,11.3,1.7c2.1,4,2.1,5.8,7.9,8.9C69.3,385.7,61.5,386.1,56.8,382.7z
						 M53.7,359.1c-0.6,2.6-1.6,4.6-2.6,6c0,0,0.1,0,0.1,0c7,1.2,4.2-11.1,4.2-11.1s-1.9,2.1-4.1,3.4c-2.6,1.5-4.2,6.4-0.7,7.6
						C51.8,363.5,53,361.6,53.7,359.1z M54,370.9c0,0,0.5-1,0.5-0.9c-2.3-1.8-4-2.4-6.2-2.3c0.7-0.4,1.7-1.3,2.8-2.6
						c-0.2,0-0.3-0.1-0.5-0.1c-1.2,1.5-3,2.3-3.6,2.6c-1.7,0.3-2.6,0.6-4,1c0,0-0.4,1.2,0.7,1.4C44.5,369.2,50.5,367.7,54,370.9z"/>
				</g>
			</g>
			<g>
				<g>
					<path class="st1" d="M-9.1,387c5.8-3.1,5.8-4.9,7.9-8.9c2-3.9,8.8-7.7,11.3-1.7c-2.6,2.1-2.9,2.4-4,3.8
						c-1.7-1.5-5.6-0.1-5.6-0.1c3-0.3,4.8,0.8,4.9,0.8c-0.5,0.6-1.8,2.3-3.1,3.4c-1.8-1-4,0.2-4,0.2c0,0.1,1.4-0.3,3.1,0.4
						c-2.9,1.8-5.4,2.3-5.4,2.3s2.5,0.5,5.7-1.4c-0.4,2.2-1.4,3.3-1.3,3.4c0,0,1.9-1.7,2.2-4c1.1-0.7,3.2-3.2,3.3-3.4
						c0,0.8,0.1,3-1,5.7c0,0,2.1-4,1.7-6.4c1.9-2,2.6-2.5,4-3.7c0.9,1.9,2.9,7.5-2.8,11.7C3.2,392.6-4.6,392.1-9.1,387z M14,371.4
						c3.5-1.1,1.9-6-0.7-7.6c-2.2-1.3-4.1-3.4-4.1-3.4s-2.8,12.3,4.2,11.1c0,0,0.1,0,0.1,0c-1-1.4-2-3.3-2.6-6
						C11.7,368.1,12.9,370,14,371.4z M20.9,376.4c1.1-0.2,0.7-1.4,0.7-1.4c-1.4-0.4-2.3-0.8-4-1c-0.6-0.4-2.4-1.2-3.6-2.6
						c-0.1,0-0.3,0.1-0.5,0.1c1,1.4,2.1,2.2,2.8,2.6c-2.1-0.1-3.9,0.5-6.2,2.3c0,0,0.5,0.9,0.5,0.9
						C14.2,374.1,20.1,375.7,20.9,376.4z"/>
				</g>
			</g>
			<path class="st2" d="M43.3,452.5c0,0,14.1-11.3,10-30.3c-2.7-12.3-15-18-17.2-18.5c-0.3-0.1-1.6-0.3-3.4-1.2
				c-1.2-0.6-2.1-1.2-2.7-1.7c-1.8-1.5-7.1-6.4-8.6-15c-0.4-2.3-0.9-7,1.5-14.8c0.9-3,8.6-30.1,20.3-29.9c2.9,0.1,6,1.7,6.2,3.5
				c0.3,4.5-18.3,15.5-27.9,7c-4.8-4.2-6.2-12.1-3.7-19.6"/>
			<path class="st2" d="M7.2,446.6c8.1,2.7,14.5,2.3,15.7-1.3c0.7-2,0.1-5.9-1.1-8.4c-0.7-1.4-1.5-2.3-2-2.8
				c-1.1-1.2-3.8-4.5-4.7-10.6c-1.6-11.1,4.4-21,4.8-21.7c0.3-0.5,1-1.4,1.8-2.3c9.5-10.9,21.3-2.1,24.3-8.3
				c1.5-3.2-0.5-7.8-1.9-12.9c-2.3-8.8-3.8-22.7,0.6-44.9"/>
			<g>
				<g>
					<path class="st3" d="M45,409.2c-5.7-4.3-3.7-9.9-2.8-11.7c1.4,1.1,2.1,1.6,4,3.7c-0.4,2.5,1.7,6.4,1.7,6.4c-1-2.7-1-4.9-1-5.7
						c0.1,0.1,2.2,2.7,3.3,3.4c0.3,2.3,2.2,4,2.2,4c0-0.1-0.9-1.1-1.3-3.4c3.1,1.9,5.7,1.4,5.7,1.4s-2.5-0.5-5.4-2.3
						c1.7-0.7,3.1-0.3,3.1-0.4c0,0-2.3-1.2-4-0.2c-1.3-1-2.5-2.7-3.1-3.4c0.1-0.1,1.9-1.1,4.9-0.8c0,0-3.9-1.3-5.6,0.1
						c-1.1-1.3-1.4-1.7-4-3.8c2.5-6,9.3-2.2,11.3,1.7c2.1,4,2.1,5.8,7.9,8.9C57.5,412.2,49.7,412.7,45,409.2z M42,385.6
						c-0.6,2.6-1.6,4.6-2.6,6c0,0,0.1,0,0.1,0c7,1.2,4.2-11.1,4.2-11.1s-1.9,2.1-4.1,3.4c-2.6,1.5-4.2,6.4-0.7,7.6
						C40,390.1,41.2,388.2,42,385.6z M42.2,397.5c0,0,0.5-1,0.5-0.9c-2.3-1.8-4-2.4-6.2-2.3c0.7-0.4,1.7-1.3,2.8-2.6
						c-0.2,0-0.3-0.1-0.5-0.1c-1.2,1.5-3,2.3-3.6,2.6c-1.7,0.3-2.6,0.6-4,1c0,0-0.4,1.2,0.7,1.4C32.7,395.8,38.7,394.2,42.2,397.5z"
						/>
				</g>
			</g>
			<g>
				<g>
					<path class="st3" d="M1.4,399c6.5,2.8,5.9,8.7,5.5,10.8c-1.6-0.8-2.4-1.1-4.7-2.6C2,404.7-1,401.3-1,401.3
						c1.6,2.4,2.2,4.6,2.3,5.3c-0.2-0.1-2.8-2.1-4-2.5c-0.8-2.2-3.1-3.4-3.1-3.4c0,0.1,1.1,0.9,2.1,3c-3.5-1.1-5.8,0-5.8,0
						s2.5-0.1,5.7,1c-1.5,1.1-2.9,1.1-2.9,1.1c0,0,2.5,0.6,4-0.7c1.5,0.7,3.1,2.1,3.8,2.5c-0.1,0.1-1.6,1.5-4.6,2
						c0,0,4.1,0.4,5.4-1.4c1.4,1,1.8,1.3,4.8,2.7c-1.1,6.5-8.5,4.3-11.4,1c-3-3.4-3.4-5.2-9.8-6.8C-11.4,399-3.9,396.7,1.4,399z
						 M9.9,421.2c-0.1-2.7,0.4-4.8,1.1-6.4c0,0-0.1,0-0.1,0c-7.1,0.4-1.5,11.8-1.5,11.8s1.4-2.4,3.2-4.3c2.1-2.1,2.5-7.2-1.1-7.5
						C10.8,416.4,10.1,418.6,9.9,421.2z M6.9,409.8c0,0-0.3,1.1-0.3,1c2.6,1.3,4.5,1.4,6.5,0.8c-0.6,0.6-1.4,1.6-2.1,3.2
						c0.2,0,0.3,0,0.5,0c0.8-1.7,2.4-2.9,2.9-3.4c1.6-0.7,2.4-1.2,3.7-2c0,0,0.1-1.3-1-1.2C16.5,409.2,11.1,412.1,6.9,409.8z"/>
				</g>
			</g>
			<path class="st2" d="M40.5,351.5c0,0,4.9,13.2,22.3,21.4c11.2,5.3,20,2.1,21.1,1.2c0.1-0.1,0.8-0.7,2.1-1.1
				c0.9-0.3,1.7-0.4,2.3-0.4c1.9-0.1,7.7-0.2,15.4,3.7c2.1,1,6.1,3.3,12,8.8c2.3,2.1,22.6,20.6,18.6,26.4c-1,1.4-3.4,2.1-5,1.2
				c-3.9-2.2-7.1-17.6,3.1-18c5.1-0.2,12.2,3.4,17.7,8.7"/>
		</g>
	</g>
	<g>
		<path class="st0" d="M171.5,552.2l-1.9-0.5c-1.1-0.3-1.8-1.5-1.5-2.6l13.8-52.4l21.5-81.6c0.3-1.1,1.5-1.8,2.6-1.5l1.9,0.5
			c1.1,0.3,1.8,1.5,1.5,2.6l-35.4,134C173.8,551.8,172.7,552.5,171.5,552.2z"/>
		<path class="st0" d="M219.4,551.5l-3.5,0.9c-0.7,0.2-1.4-0.2-1.6-0.9l-35.9-135.6c-0.2-0.7,0.2-1.4,0.9-1.6l3.5-0.9
			c0.7-0.2,1.4,0.2,1.6,0.9l35.9,135.6C220.5,550.6,220.1,551.3,219.4,551.5z"/>
		<g>
			<g>
				<path class="st1" d="M218.6,474.4c-5.7-4.3-3.7-9.9-2.8-11.7c1.4,1.1,2.1,1.6,4,3.7c-0.4,2.5,1.7,6.4,1.7,6.4
					c-1-2.7-1-4.9-1-5.7c0.1,0.1,2.2,2.7,3.3,3.4c0.3,2.3,2.2,4,2.2,4c0-0.1-0.9-1.1-1.3-3.4c3.1,1.9,5.7,1.4,5.7,1.4
					s-2.5-0.5-5.4-2.3c1.7-0.7,3.1-0.3,3.1-0.4c0,0-2.3-1.2-4-0.2c-1.3-1-2.5-2.7-3.1-3.4c0.1-0.1,1.9-1.1,4.9-0.8
					c0,0-3.9-1.3-5.6,0.1c-1.1-1.3-1.4-1.7-4-3.8c2.5-6,9.3-2.2,11.3,1.7c2.1,4,2.1,5.8,7.9,8.9
					C231.1,477.4,223.3,477.9,218.6,474.4z M215.5,450.8c-0.6,2.6-1.6,4.6-2.6,6c0,0,0.1,0,0.1,0c7,1.2,4.2-11.1,4.2-11.1
					s-1.9,2.1-4.1,3.4c-2.6,1.5-4.2,6.4-0.7,7.6C213.6,455.3,214.7,453.4,215.5,450.8z M215.8,462.7c0,0,0.5-1,0.5-0.9
					c-2.3-1.8-4-2.4-6.2-2.3c0.7-0.4,1.7-1.3,2.8-2.6c-0.2,0-0.3-0.1-0.5-0.1c-1.2,1.5-3,2.3-3.6,2.6c-1.7,0.3-2.6,0.6-4,1
					c0,0-0.4,1.2,0.7,1.4C206.3,460.9,212.3,459.4,215.8,462.7z"/>
			</g>
		</g>
		<g>
			<g>
				<path class="st1" d="M152.7,478.8c5.8-3.1,5.8-4.9,7.9-8.9c2-3.9,8.8-7.7,11.3-1.7c-2.6,2.1-2.9,2.4-4,3.8
					c-1.7-1.5-5.6-0.1-5.6-0.1c3-0.3,4.8,0.8,4.9,0.8c-0.5,0.6-1.8,2.3-3.1,3.4c-1.8-1-4,0.2-4,0.2c0,0.1,1.4-0.3,3.1,0.4
					c-2.9,1.8-5.4,2.3-5.4,2.3s2.5,0.5,5.7-1.4c-0.4,2.2-1.4,3.3-1.3,3.4c0,0,1.9-1.7,2.2-4c1.1-0.7,3.2-3.2,3.3-3.4
					c0,0.8,0.1,3-1,5.7c0,0,2.1-4,1.7-6.4c1.9-2,2.6-2.5,4-3.7c0.9,1.9,2.9,7.5-2.8,11.7C165,484.3,157.2,483.8,152.7,478.8z
					 M175.8,463.1c3.5-1.1,1.9-6-0.7-7.6c-2.2-1.3-4.1-3.4-4.1-3.4s-2.8,12.3,4.2,11.1c0,0,0.1,0,0.1,0c-1-1.4-2-3.3-2.6-6
					C173.5,459.8,174.7,461.7,175.8,463.1z M182.7,468.1c1.1-0.2,0.7-1.4,0.7-1.4c-1.4-0.4-2.3-0.8-4-1c-0.6-0.4-2.4-1.2-3.6-2.6
					c-0.1,0-0.3,0.1-0.5,0.1c1,1.4,2.1,2.2,2.8,2.6c-2.1-0.1-3.9,0.5-6.2,2.3c0,0,0.5,0.9,0.5,0.9
					C176,465.8,181.9,467.4,182.7,468.1z"/>
			</g>
		</g>
		<path class="st2" d="M205.1,544.2c0,0,14.1-11.3,10-30.3c-2.7-12.3-15-18-17.2-18.5c-0.3-0.1-1.6-0.3-3.4-1.2
			c-1.2-0.6-2.1-1.2-2.7-1.7c-1.8-1.5-7.1-6.4-8.6-15c-0.4-2.3-0.9-7,1.5-14.8c0.9-3,8.6-30.1,20.3-29.9c2.9,0.1,6,1.7,6.2,3.5
			c0.3,4.5-18.3,15.5-27.9,7c-4.8-4.2-6.2-12.1-3.7-19.6"/>
		<path class="st2" d="M169,538.3c8.1,2.7,14.5,2.3,15.7-1.3c0.7-2,0.1-5.9-1.1-8.4c-0.7-1.4-1.5-2.3-2-2.8
			c-1.1-1.2-3.8-4.5-4.7-10.6c-1.6-11.1,4.4-21,4.8-21.7c0.3-0.5,1-1.4,1.8-2.3c9.5-10.9,21.3-2.1,24.3-8.3
			c1.5-3.2-0.5-7.8-1.9-12.9c-2.3-8.8-3.8-22.7,0.6-44.9"/>
		<g>
			<g>
				<path class="st3" d="M206.8,500.9c-5.7-4.3-3.7-9.9-2.8-11.7c1.4,1.1,2.1,1.6,4,3.7c-0.4,2.5,1.7,6.4,1.7,6.4
					c-1-2.7-1-4.9-1-5.7c0.1,0.1,2.2,2.7,3.3,3.4c0.3,2.3,2.2,4,2.2,4c0-0.1-0.9-1.1-1.3-3.4c3.1,1.9,5.7,1.4,5.7,1.4
					s-2.5-0.5-5.4-2.3c1.7-0.7,3.1-0.3,3.1-0.4c0,0-2.3-1.2-4-0.2c-1.3-1-2.5-2.7-3.1-3.4c0.1-0.1,1.9-1.1,4.9-0.8
					c0,0-3.9-1.3-5.6,0.1c-1.1-1.3-1.4-1.7-4-3.8c2.5-6,9.3-2.2,11.3,1.7c2.1,4,2.1,5.8,7.9,8.9
					C219.3,503.9,211.5,504.4,206.8,500.9z M203.8,477.3c-0.6,2.6-1.6,4.6-2.6,6c0,0,0.1,0,0.1,0c7,1.2,4.2-11.1,4.2-11.1
					s-1.9,2.1-4.1,3.4c-2.6,1.5-4.2,6.4-0.7,7.6C201.8,481.8,203,479.9,203.8,477.3z M204,489.2c0,0,0.5-1,0.5-0.9
					c-2.3-1.8-4-2.4-6.2-2.3c0.7-0.4,1.7-1.3,2.8-2.6c-0.2,0-0.3-0.1-0.5-0.1c-1.2,1.5-3,2.3-3.6,2.6c-1.7,0.3-2.6,0.6-4,1
					c0,0-0.4,1.2,0.7,1.4C194.5,487.5,200.5,485.9,204,489.2z"/>
			</g>
		</g>
		<g>
			<g>
				<path class="st3" d="M163.2,490.7c6.5,2.8,5.9,8.7,5.5,10.8c-1.6-0.8-2.4-1.1-4.7-2.6c-0.2-2.5-3.2-5.9-3.2-5.9
					c1.6,2.4,2.2,4.6,2.3,5.3c-0.2-0.1-2.8-2.1-4-2.5c-0.8-2.2-3.1-3.4-3.1-3.4c0,0.1,1.1,0.9,2.1,3c-3.5-1.1-5.8,0-5.8,0
					s2.5-0.1,5.7,1c-1.5,1.1-2.9,1.1-2.9,1.1c0,0,2.5,0.6,4-0.7c1.5,0.7,3.1,2.1,3.8,2.5c-0.1,0.1-1.6,1.5-4.6,2
					c0,0,4.1,0.4,5.4-1.4c1.4,1,1.8,1.3,4.8,2.7c-1.1,6.5-8.5,4.3-11.4,1c-3-3.4-3.4-5.2-9.8-6.8
					C150.4,490.8,157.9,488.5,163.2,490.7z M171.7,513c-0.1-2.7,0.4-4.8,1.1-6.4c0,0-0.1,0-0.1,0c-7.1,0.4-1.5,11.8-1.5,11.8
					s1.4-2.4,3.2-4.3c2.1-2.1,2.5-7.2-1.1-7.5C172.6,508.2,171.9,510.3,171.7,513z M168.7,501.5c0,0-0.3,1.1-0.3,1
					c2.6,1.3,4.5,1.4,6.5,0.8c-0.6,0.6-1.4,1.6-2.1,3.2c0.2,0,0.3,0,0.5,0c0.8-1.7,2.4-2.9,2.9-3.4c1.6-0.7,2.4-1.2,3.7-2
					c0,0,0.1-1.3-1-1.2C178.3,500.9,172.9,503.8,168.7,501.5z"/>
			</g>
		</g>
	</g>
	<path class="st2" d="M85.1,377.5c0,0,4.9,13.2,22.3,21.4c11.2,5.3,20,2.1,21.1,1.2c0.1-0.1,0.8-0.7,2.1-1.1
		c0.9-0.3,1.7-0.4,2.3-0.4c1.9-0.1,7.7-0.2,15.4,3.7c2.1,1,6.1,3.3,12,8.8c2.3,2.1,22.6,20.6,18.6,26.4c-1,1.4-3.4,2.1-5,1.2
		c-3.9-2.2-7.1-17.6,3.1-18c5.1-0.2,12.2,3.4,17.7,8.7"/>
	<path class="st2" d="M59.4,362.6c0,0,4.9,13.2,22.3,21.4c11.2,5.3,20,2.1,21.1,1.2c0.1-0.1,0.8-0.7,2.1-1.1
		c0.9-0.3,1.7-0.4,2.3-0.4c1.9-0.1,7.7-0.2,15.4,3.7c2.1,1,6.1,3.3,12,8.8c2.3,2.1,22.6,20.6,18.6,26.4c-1,1.4-3.4,2.1-5,1.2
		c-3.9-2.2-7.1-17.6,3.1-18c5.1-0.2,12.2,3.4,17.7,8.7"/>
	<path class="st2" d="M122.2,414.8c4.9-7,6.4-13.2,3.3-15.4c-1.7-1.2-5.6-1.8-8.3-1.4c-1.6,0.2-2.6,0.7-3.2,1.1
		c-1.4,0.7-5.4,2.3-11.5,1.4c-11.1-1.7-18.9-10.2-19.4-10.8c-0.4-0.5-1-1.3-1.7-2.4c-7.7-12.3,4.1-21.1-0.9-25.6
		c-2.6-2.3-7.6-1.8-12.9-2c-9.1-0.3-22.8-2.9-42.8-13.5"/>
	<g>
		<g>
			<path class="st1" d="M74.3,372.8c-5.7-4.3-3.7-9.9-2.8-11.7c1.4,1.1,2.1,1.6,4,3.7c-0.4,2.5,1.7,6.4,1.7,6.4c-1-2.7-1-4.9-1-5.7
				c0.1,0.1,2.2,2.7,3.3,3.4c0.3,2.3,2.2,4,2.2,4c0-0.1-0.9-1.1-1.3-3.4c3.1,1.9,5.7,1.4,5.7,1.4s-2.5-0.5-5.4-2.3
				c1.7-0.7,3.1-0.3,3.1-0.4c0,0-2.3-1.2-4-0.2c-1.3-1-2.5-2.7-3.1-3.4c0.1-0.1,1.9-1.1,4.9-0.8c0,0-3.9-1.3-5.6,0.1
				c-1.1-1.3-1.4-1.7-4-3.8c2.5-6,9.3-2.2,11.3,1.7c2.1,4,2.1,5.8,7.9,8.9C86.8,375.8,79,376.3,74.3,372.8z M71.2,349.2
				c-0.6,2.6-1.6,4.6-2.6,6c0,0,0.1,0,0.1,0c7,1.2,4.2-11.1,4.2-11.1s-1.9,2.1-4.1,3.4c-2.6,1.5-4.2,6.4-0.7,7.6
				C69.3,353.7,70.5,351.8,71.2,349.2z M71.5,361.1c0,0,0.5-1,0.5-0.9c-2.3-1.8-4-2.4-6.2-2.3c0.7-0.4,1.7-1.3,2.8-2.6
				c-0.2,0-0.3-0.1-0.5-0.1c-1.2,1.5-3,2.3-3.6,2.6c-1.7,0.3-2.6,0.6-4,1c0,0-0.4,1.2,0.7,1.4C62,359.4,68,357.8,71.5,361.1z"/>
		</g>
	</g>
	<g>
		<g>
			<path class="st1" d="M109.3,398.1c-5.7-4.3-3.7-9.9-2.8-11.7c1.4,1.1,2.1,1.6,4,3.7c-0.4,2.5,1.7,6.4,1.7,6.4c-1-2.7-1-4.9-1-5.7
				c0.1,0.1,2.2,2.7,3.3,3.4c0.3,2.3,2.2,4,2.2,4c0-0.1-0.9-1.1-1.3-3.4c3.1,1.9,5.7,1.4,5.7,1.4s-2.5-0.5-5.4-2.3
				c1.7-0.7,3.1-0.3,3.1-0.4c0,0-2.3-1.2-4-0.2c-1.3-1-2.5-2.7-3.1-3.4c0.1-0.1,1.9-1.1,4.9-0.8c0,0-3.9-1.3-5.6,0.1
				c-1.1-1.3-1.4-1.7-4-3.8c2.5-6,9.3-2.2,11.3,1.7c2.1,4,2.1,5.8,7.9,8.9C121.7,401.1,113.9,401.6,109.3,398.1z M106.2,374.5
				c-0.6,2.6-1.6,4.6-2.6,6c0,0,0.1,0,0.1,0c7,1.2,4.2-11.1,4.2-11.1s-1.9,2.1-4.1,3.4c-2.6,1.5-4.2,6.4-0.7,7.6
				C104.2,379,105.4,377.1,106.2,374.5z M106.5,386.4c0,0,0.5-1,0.5-0.9c-2.3-1.8-4-2.4-6.2-2.3c0.7-0.4,1.7-1.3,2.8-2.6
				c-0.2,0-0.3-0.1-0.5-0.1c-1.2,1.5-3,2.3-3.6,2.6c-1.7,0.3-2.6,0.6-4,1c0,0-0.4,1.2,0.7,1.4C97,384.7,102.9,383.1,106.5,386.4z"/>
		</g>
	</g>
	<g>
		<g>
			<path class="st1" d="M154.8,401.5c-7.1,0.4-9.2-5.2-9.7-7.2c1.8,0,2.7-0.1,5.4,0.3c1.3,2.2,5.4,3.9,5.4,3.9
				c-2.5-1.4-3.9-3.1-4.4-3.8c0.2,0,3.4,0.6,4.7,0.5c1.7,1.6,4.3,1.7,4.3,1.7c0-0.1-1.4-0.3-3.2-1.7c3.6-0.6,5.2-2.6,5.2-2.6
				s-2.2,1.2-5.6,1.7c0.9-1.7,2.1-2.2,2.1-2.3c0,0-2.5,0.5-3.2,2.4c-1.6,0-3.7-0.5-4.5-0.6c0-0.1,0.8-2.1,3.2-3.8
				c0,0-3.9,1.5-4.2,3.7c-1.7-0.3-2.2-0.4-5.5-0.3c-1.9-6.3,5.7-7.7,9.8-6c4.2,1.7,5.3,3.2,11.8,1.8
				C166.2,395.8,160.6,401.2,154.8,401.5z M137.3,385.3c1.3,2.4,1.7,4.5,1.8,6.2c0,0,0.1,0,0.1-0.1c6.2-3.5-3.9-11.2-3.9-11.2
				s-0.2,2.8-1,5.2c-1,2.8,0.9,7.6,4.3,6.2C138.7,390,138.3,387.8,137.3,385.3z M145.1,394.2c0,0-0.2-1.1-0.2-1.1
				c-2.9,0-4.7,0.7-6.2,2.2c0.2-0.8,0.5-2.1,0.4-3.8c-0.1,0.1-0.3,0.1-0.4,0.2c0,1.9-0.9,3.7-1.1,4.3c-1.2,1.3-1.6,2.1-2.4,3.4
				c0,0,0.5,1.2,1.4,0.6C136.7,399,140.3,394,145.1,394.2z"/>
		</g>
	</g>
	<g>
		<g>
			<path class="st3" d="M178.3,428.1c-5.7-4.3-3.7-9.9-2.8-11.7c1.4,1.1,2.1,1.6,4,3.7c-0.4,2.5,1.7,6.4,1.7,6.4c-1-2.7-1-4.9-1-5.7
				c0.1,0.1,2.2,2.7,3.3,3.4c0.3,2.3,2.2,4,2.2,4c0-0.1-0.9-1.1-1.3-3.4c3.1,1.9,5.7,1.4,5.7,1.4s-2.5-0.5-5.4-2.3
				c1.7-0.7,3.1-0.3,3.1-0.4c0,0-2.3-1.2-4-0.2c-1.3-1-2.5-2.7-3.1-3.4c0.1-0.1,1.9-1.1,4.9-0.8c0,0-3.9-1.3-5.6,0.1
				c-1.1-1.3-1.4-1.7-4-3.8c2.5-6,9.3-2.2,11.3,1.7c2.1,4,2.1,5.8,7.9,8.9C190.8,431,183,431.5,178.3,428.1z M175.3,404.5
				c-0.6,2.6-1.6,4.6-2.6,6c0,0,0.1,0,0.1,0c7,1.2,4.2-11.1,4.2-11.1s-1.9,2.1-4.1,3.4c-2.6,1.5-4.2,6.4-0.7,7.6
				C173.3,408.9,174.5,407,175.3,404.5z M175.5,416.3c0,0,0.5-1,0.5-0.9c-2.3-1.8-4-2.4-6.2-2.3c0.7-0.4,1.7-1.3,2.8-2.6
				c-0.2,0-0.3-0.1-0.5-0.1c-1.2,1.5-3,2.3-3.6,2.6c-1.7,0.3-2.6,0.6-4,1c0,0-0.4,1.2,0.7,1.4C166,414.6,172,413,175.5,416.3z"/>
		</g>
	</g>
	<g>
		<g>
			<path class="st3" d="M85.6,397.4c7.1-0.2,9,5.5,9.5,7.5c-1.8,0-2.7,0-5.4-0.4c-1.2-2.2-5.3-4-5.3-4c2.5,1.5,3.9,3.2,4.3,3.9
				c-0.2,0-3.4-0.7-4.7-0.6c-1.7-1.7-4.2-1.8-4.2-1.8c0,0.1,1.4,0.3,3.1,1.8c-3.6,0.5-5.3,2.4-5.3,2.4s2.2-1.1,5.6-1.5
				c-0.9,1.7-2.2,2.2-2.2,2.3c0,0,2.5-0.5,3.3-2.3c1.6,0,3.7,0.6,4.5,0.7c0,0.1-0.8,2.1-3.3,3.7c0,0,3.9-1.4,4.3-3.6
				c1.7,0.3,2.2,0.4,5.5,0.5c1.7,6.3-5.9,7.5-10,5.7c-4.1-1.9-5.2-3.3-11.7-2.1C73.9,402.8,79.8,397.6,85.6,397.4z M102.6,414.1
				c-1.2-2.4-1.6-4.6-1.7-6.3c0,0-0.1,0-0.1,0c-6.3,3.4,3.6,11.3,3.6,11.3s0.2-2.8,1.2-5.2c1.1-2.8-0.7-7.6-4.2-6.3
				C101.4,409.3,101.6,411.6,102.6,414.1z M95,404.9c0,0,0.2,1.1,0.2,1.1c2.9,0,4.7-0.6,6.3-2c-0.3,0.8-0.6,2.1-0.5,3.8
				c0.2-0.1,0.3-0.1,0.4-0.2c0-1.9,1-3.7,1.2-4.3c1.2-1.3,1.6-2.1,2.5-3.3c0,0-0.5-1.2-1.4-0.7C103.6,400.4,99.9,405.3,95,404.9z"/>
		</g>
	</g>
	<g>
		<g>
			<path class="st3" d="M141.9,428.4c4.1-4.1,8.6-2,10.1-1.2c-1.1,1-1.6,1.5-3.4,2.8c-2-0.6-5.5,0.8-5.5,0.8
				c2.4-0.6,4.2-0.4,4.9-0.3c-0.1,0.1-2.4,1.5-3.1,2.3c-2,0-3.6,1.4-3.6,1.4c0.1,0,1-0.6,2.9-0.7c-1.9,2.3-1.7,4.3-1.7,4.3
				s0.7-1.9,2.4-4c0.4,1.4,0,2.4,0,2.5c0,0,1.2-1.7,0.6-3.2c1-0.9,2.5-1.8,3.1-2.1c0,0.1,0.7,1.6,0.2,3.9c0,0,1.5-2.9,0.4-4.4
				c1.2-0.8,1.5-1,3.5-2.8c4.8,2.5,1,7.5-2.5,8.8c-3.6,1.3-5.1,1.1-8.2,5.4C138.3,437.9,138.6,431.7,141.9,428.4z M161.9,428
				c-2.2-0.7-3.7-1.6-4.7-2.6c0,0,0,0.1,0,0.1c-1.7,5.4,8.8,4.3,8.8,4.3s-1.5-1.7-2.4-3.5c-1-2.2-4.9-3.8-6.2-1.2
				C158.4,426.1,159.9,427.2,161.9,428z M152,427.2c0,0,0.8,0.5,0.7,0.5c1.8-1.6,2.4-3,2.5-4.6c0.3,0.6,0.9,1.5,1.9,2.4
				c0-0.1,0.1-0.2,0.1-0.4c-1.1-1.1-1.6-2.6-1.9-3.1c-0.1-1.4-0.3-2.1-0.5-3.2c0,0-1-0.4-1.2,0.4C154.3,419.9,155.1,424.7,152,427.2
				z"/>
		</g>
	</g>
	<g>
		<g>
			<path class="st3" d="M159.4,441.3c3.2-4.8,8-3.7,9.6-3.2c-0.9,1.2-1.2,1.8-2.8,3.4c-2.1-0.1-5.3,1.9-5.3,1.9
				c2.2-1,4.1-1.2,4.7-1.2c-0.1,0.1-2.1,2-2.6,2.9c-1.9,0.4-3.2,2.1-3.2,2.1c0.1,0,0.9-0.8,2.7-1.3c-1.4,2.6-0.8,4.6-0.8,4.6
				s0.3-2,1.6-4.4c0.7,1.3,0.5,2.4,0.5,2.4c0,0,0.9-1.9-0.1-3.2c0.8-1.1,2.1-2.2,2.6-2.7c0.1,0.1,1,1.4,1,3.8c0,0,0.9-3.2-0.5-4.4
				c1-1,1.3-1.3,2.9-3.5c5.2,1.5,2.4,7.2-0.7,9.1c-3.2,2-4.7,2.1-6.9,7C157.6,451.4,156.8,445.2,159.4,441.3z M178.8,436.9
				c-2.2-0.2-3.9-0.9-5.1-1.6c0,0,0,0.1,0,0.1c-0.6,5.7,9.5,2.4,9.5,2.4s-1.8-1.3-3.1-3c-1.4-1.9-5.6-2.8-6.3,0.1
				C175,435.8,176.6,436.5,178.8,436.9z M169,438.1c0,0,0.8,0.3,0.8,0.3c1.4-1.9,1.8-3.4,1.5-5.1c0.4,0.5,1.2,1.3,2.4,2
				c0-0.1,0-0.3,0.1-0.4c-1.3-0.8-2.1-2.2-2.4-2.6c-0.3-1.4-0.7-2-1.1-3.1c0,0-1-0.2-1.1,0.7C169.8,430.5,171.5,435,169,438.1z"/>
		</g>
	</g>
</g>
</svg>
