<?xml version="1.0" encoding="utf-8"?>
<!-- Generator: Adobe Illustrator 19.0.1, SVG Export Plug-In . SVG Version: 6.00 Build 0)  -->
<svg version="1.1" id="grape" xmlns="http://www.w3.org/2000/svg" xmlns:xlink="http://www.w3.org/1999/xlink" x="0px" y="0px"
	 viewBox="0 0 50 50" style="enable-background:new 0 0 50 50;" xml:space="preserve">
<style type="text/css">
	.st0{fill:#B27214;}
	.st1{fill:#564C89;}
	.st2{opacity:0.2;fill:#FFFFFF;enable-background:new    ;}
	.st3{fill:#423D72;}
	.st4{display:none;}
	.st5{display:inline;fill:#90BC42;}
	.st6{display:inline;}
	.st7{clip-path:url(#SVGID_2_);fill:#9AD14B;}
	.st8{fill:#90BC42;}
	.st9{clip-path:url(#SVGID_4_);fill:#9AD14B;}
</style>
<g>
	<path class="st0" d="M37.1,2.8c0.2-0.6-0.1-1.2-0.6-1.4c-0.1-0.1-0.3-0.1-0.4-0.1c-0.2,0-1.6,0.1-3.5,1.4c-2.4,1.6-4.4,4.5-5.9,8.4
		l2.1,0.8c0.9-2.3,2.5-5.5,4.9-7.3c1.4-1,2.4-1.1,2.4-1.1l0,0C36.5,3.4,36.9,3.2,37.1,2.8z"/>
	<path class="st1" d="M20,46c1.1-2.8-0.3-6.1-3.1-7.2c-2.8-1.1-6.1,0.3-7.2,3.1c-1.1,2.8,0.3,6.1,3.1,7.2C15.6,50.2,18.9,48.8,20,46
		z"/>
	<path class="st2" d="M14.6,41.5c-0.2,0.6-0.9,0.8-1.4,0.6c-0.6-0.2-0.8-0.9-0.6-1.4c0.2-0.6,0.9-0.8,1.4-0.6
		C14.6,40.2,14.8,40.9,14.6,41.5z"/>
	<path class="st3" d="M26.9,40.4c1.1-2.8-0.3-6.1-3.1-7.2c-2.8-1.1-6.1,0.3-7.2,3.1c-1.1,2.8,0.3,6.1,3.1,7.2
		C22.6,44.6,25.8,43.2,26.9,40.4z"/>
	<path class="st2" d="M21.6,35.9c-0.2,0.6-0.9,0.8-1.4,0.6c-0.6-0.2-0.8-0.9-0.6-1.4c0.2-0.6,0.9-0.8,1.4-0.6
		C21.5,34.7,21.8,35.3,21.6,35.9z"/>
	<path class="st3" d="M18.7,37.1c1.1-2.8-0.3-6.1-3.1-7.2c-2.8-1.1-6.1,0.3-7.2,3.1c-1.1,2.8,0.3,6.1,3.1,7.2
		C14.4,41.4,17.6,40,18.7,37.1z"/>
	<path class="st2" d="M13.4,32.6c-0.2,0.6-0.9,0.8-1.4,0.6c-0.6-0.2-0.8-0.9-0.6-1.4c0.2-0.6,0.9-0.8,1.4-0.6
		C13.3,31.4,13.6,32.1,13.4,32.6z"/>
	<path class="st3" d="M16.2,19.5c1.1-2.8-0.3-6.1-3.1-7.2c-2.8-1.1-6.1,0.3-7.2,3.1c-1.1,2.8,0.3,6.1,3.1,7.2
		C11.9,23.7,15.1,22.3,16.2,19.5z"/>
	<path class="st2" d="M10.8,15c-0.2,0.6-0.9,0.8-1.4,0.6c-0.6-0.2-0.8-0.9-0.6-1.4c0.2-0.6,0.9-0.8,1.4-0.6S11.1,14.4,10.8,15z"/>
	<path class="st3" d="M40.9,29.2c1.1-2.8-0.3-6.1-3.1-7.2c-2.8-1.1-6.1,0.3-7.2,3.1c-1.1,2.8,0.3,6.1,3.1,7.2
		C36.5,33.5,39.8,32.1,40.9,29.2z"/>
	<path class="st2" d="M35.5,24.7c-0.2,0.6-0.9,0.8-1.4,0.6c-0.6-0.2-0.8-0.9-0.6-1.4c0.2-0.6,0.9-0.8,1.4-0.6
		C35.5,23.5,35.7,24.2,35.5,24.7z"/>
	<path class="st1" d="M33.9,34.8c1.1-2.8-0.3-6.1-3.1-7.2c-2.8-1.1-6.1,0.3-7.2,3.1c-1.1,2.8,0.3,6.1,3.1,7.2
		C29.6,39,32.8,37.7,33.9,34.8z"/>
	<path class="st2" d="M28.6,30.3c-0.2,0.6-0.9,0.8-1.4,0.6c-0.6-0.2-0.8-0.9-0.6-1.4c0.2-0.6,0.9-0.8,1.4-0.6
		C28.5,29.1,28.8,29.7,28.6,30.3z"/>
	<path class="st1" d="M17.5,28.3c1.1-2.8-0.3-6.1-3.1-7.2c-2.8-1.1-6.1,0.3-7.2,3.1c-1.1,2.8,0.3,6.1,3.1,7.2
		C13.1,32.5,16.3,31.1,17.5,28.3z"/>
	<path class="st2" d="M12.1,23.8c-0.2,0.6-0.9,0.8-1.4,0.6c-0.6-0.2-0.8-0.9-0.6-1.4c0.2-0.6,0.9-0.8,1.4-0.6
		C12,22.6,12.3,23.2,12.1,23.8z"/>
	<path class="st3" d="M25.7,31.6c1.1-2.8-0.3-6.1-3.1-7.2c-2.8-1.1-6.1,0.3-7.2,3.1c-1.1,2.8,0.3,6.1,3.1,7.2
		C21.3,35.8,24.6,34.4,25.7,31.6z"/>
	<path class="st2" d="M20.3,27c-0.2,0.6-0.9,0.8-1.4,0.6c-0.6-0.2-0.8-0.9-0.6-1.4c0.2-0.6,0.9-0.8,1.4-0.6
		C20.3,25.8,20.6,26.5,20.3,27z"/>
	<path class="st1" d="M24.4,22.7c1.1-2.8-0.3-6.1-3.1-7.2c-2.8-1.1-6.1,0.3-7.2,3.1c-1.1,2.8,0.3,6.1,3.1,7.2
		C20.1,27,23.3,25.6,24.4,22.7z"/>
	<path class="st2" d="M19.1,18.2c-0.2,0.6-0.9,0.8-1.4,0.6c-0.6-0.2-0.8-0.9-0.6-1.4c0.2-0.6,0.9-0.8,1.4-0.6
		C19,17,19.3,17.7,19.1,18.2z"/>
	<path class="st1" d="M32.7,26c1.1-2.8-0.3-6.1-3.1-7.2c-2.8-1.1-6.1,0.3-7.2,3.1c-1.1,2.8,0.3,6.1,3.1,7.2
		C28.3,30.2,31.5,28.8,32.7,26z"/>
	<path class="st2" d="M27.3,21.5c-0.2,0.6-0.9,0.8-1.4,0.6c-0.6-0.2-0.8-0.9-0.6-1.4c0.2-0.6,0.9-0.8,1.4-0.6
		C27.2,20.3,27.5,20.9,27.3,21.5z"/>
	<path class="st1" d="M23.2,13.9c1.1-2.8-0.3-6.1-3.1-7.2S14,7,12.9,9.8c-1.1,2.8,0.3,6.1,3.1,7.2S22,16.7,23.2,13.9z"/>
	<path class="st2" d="M17.8,9.4c-0.2,0.6-0.9,0.8-1.4,0.6c-0.6-0.2-0.8-0.9-0.6-1.4C16,8,16.6,7.7,17.2,8C17.8,8.2,18,8.8,17.8,9.4z
		"/>
	<path class="st1" d="M39.6,20.4c1.1-2.8-0.3-6.1-3.1-7.2c-2.8-1.1-6.1,0.3-7.2,3.1c-1.1,2.8,0.3,6.1,3.1,7.2
		C35.3,24.6,38.5,23.3,39.6,20.4z"/>
	<path class="st2" d="M34.3,15.9c-0.2,0.6-0.9,0.8-1.4,0.6c-0.6-0.2-0.8-0.9-0.6-1.4c0.2-0.6,0.9-0.8,1.4-0.6
		C34.2,14.7,34.5,15.3,34.3,15.9z"/>
	<path class="st3" d="M31.4,17.2c1.1-2.8-0.3-6.1-3.1-7.2c-2.8-1.1-6.1,0.3-7.2,3.1c-1.1,2.8,0.3,6.1,3.1,7.2
		C27.1,21.4,30.3,20,31.4,17.2z"/>
	<path class="st2" d="M26,12.6c-0.2,0.6-0.9,0.8-1.4,0.6s-0.8-0.9-0.6-1.4s0.9-0.8,1.4-0.6C26,11.4,26.3,12.1,26,12.6z"/>
	<g class="st4">
		<path class="st5" d="M28.5,8.7L25.1,7c-3.6-1.8-5.6-5.7-5-9.7l0.6-3.8l3.4,1.7c3.6,1.8,5.6,5.7,5,9.7L28.5,8.7z"/>
		<g class="st6">
			<defs>
				<path id="SVGID_1_" d="M28.5,8.7L25.1,7c-3.6-1.8-5.6-5.7-5-9.7l0.6-3.8l3.4,1.7c3.6,1.8,5.6,5.7,5,9.7L28.5,8.7z"/>
			</defs>
			<clipPath id="SVGID_2_">
				<use xlink:href="#SVGID_1_"  style="overflow:visible;"/>
			</clipPath>
			
				<rect x="14.1" y="-0.1" transform="matrix(-0.4545 -0.8907 0.8907 -0.4545 31.3841 23.1079)" class="st7" width="17.2" height="4.1"/>
		</g>
	</g>
	<g>
		<g>
			<path class="st8" d="M30.2,9l3.3,1.8c3.5,1.9,7.9,1.3,10.8-1.5l2.7-2.7l-3.3-1.8C40.2,3,35.8,3.6,32.9,6.4L30.2,9z"/>
			<g>
				<defs>
					<path id="SVGID_3_" d="M30.2,9l3.3,1.8c3.5,1.9,7.9,1.3,10.8-1.5l2.7-2.7l-3.3-1.8C40.2,3,35.8,3.6,32.9,6.4L30.2,9z"/>
				</defs>
				<clipPath id="SVGID_4_">
					<use xlink:href="#SVGID_3_"  style="overflow:visible;"/>
				</clipPath>
				
					<rect x="30.4" y="7.8" transform="matrix(0.9907 -0.1363 0.1363 0.9907 -0.9815 5.4116)" class="st9" width="17.2" height="4.1"/>
			</g>
		</g>
	</g>
</g>
</svg>
