<?xml version="1.0" encoding="utf-8"?>
<!-- Generator: Adobe Illustrator 19.0.1, SVG Export Plug-In . SVG Version: 6.00 Build 0)  -->
<svg version="1.1" id="grape_x5F_seed" xmlns="http://www.w3.org/2000/svg" xmlns:xlink="http://www.w3.org/1999/xlink" x="0px"
	 y="0px" viewBox="-223 225 512 512" style="enable-background:new -223 225 512 512;" xml:space="preserve">
<style type="text/css">
	.st0{fill:#89412B;}
	.st1{fill:#602E22;stroke:#D3B092;stroke-width:0.25;stroke-miterlimit:10;}
	.st2{fill:#89412B;stroke:#D3B092;stroke-width:0.25;stroke-miterlimit:10;}
</style>
<g>
	<g>
		<g>
			<path class="st0" d="M39.8,627c0,0.5,0.1,1.2-0.4,1.7c-0.7,0.9-2.2,0.6-2.4,0.6c-0.3-0.1-1.3-0.3-2.5-1.7
				c-1.7-2.1-2.7-5.2-1.9-5.7c0.3-0.2,0.6,0.2,2.6,1c2.2,1,2.6,0.8,3.3,1.5C38.7,624.6,39.6,625.5,39.8,627z"/>
			<line class="st1" x1="34.1" y1="624.6" x2="37.1" y2="628"/>
			<line class="st1" x1="35.1" y1="624.4" x2="38.1" y2="627.8"/>
		</g>
		<g>
			<path class="st0" d="M37.1,635.4c0,0.5,0.1,1.2-0.4,1.7c-0.7,0.9-2.2,0.6-2.4,0.6c-0.3-0.1-1.3-0.3-2.5-1.7
				c-1.7-2.1-2.7-5.2-1.9-5.7c0.3-0.2,0.6,0.2,2.6,1c2.2,1,2.6,0.8,3.3,1.5C36,633,37,634,37.1,635.4z"/>
			<line class="st2" x1="31.4" y1="633" x2="34.4" y2="636.5"/>
			<line class="st2" x1="32.5" y1="632.8" x2="35.4" y2="636.2"/>
		</g>
		<g>
			<path class="st0" d="M47.2,635.4c0,0.5,0.1,1.2-0.4,1.7c-0.7,0.9-2.2,0.6-2.4,0.6c-0.3-0.1-1.3-0.3-2.5-1.7
				c-1.7-2.1-2.7-5.2-1.9-5.7c0.3-0.2,0.6,0.2,2.6,1c2.2,1,2.6,0.8,3.3,1.5C46.1,633,47.1,634,47.2,635.4z"/>
			<line class="st2" x1="41.6" y1="633" x2="44.6" y2="636.5"/>
			<line class="st2" x1="42.6" y1="632.8" x2="45.6" y2="636.2"/>
		</g>
	</g>
	<g>
		<g>
			<path class="st0" d="M28.9,635c0,0.5,0.1,1.2-0.4,1.7c-0.7,0.9-2.2,0.6-2.4,0.6c-0.3-0.1-1.3-0.3-2.5-1.7
				c-1.7-2.1-2.7-5.2-1.9-5.7c0.3-0.2,0.6,0.2,2.6,1c2.2,1,2.6,0.8,3.3,1.5C27.8,632.6,28.8,633.5,28.9,635z"/>
			<line class="st1" x1="23.2" y1="632.6" x2="26.2" y2="636"/>
			<line class="st1" x1="24.3" y1="632.4" x2="27.3" y2="635.8"/>
		</g>
		<g>
			<path class="st0" d="M26.2,643.4c0,0.5,0.1,1.2-0.4,1.7c-0.7,0.9-2.2,0.6-2.4,0.6c-0.3-0.1-1.3-0.3-2.5-1.7
				c-1.7-2.1-2.7-5.2-1.9-5.7c0.3-0.2,0.6,0.2,2.6,1c2.2,1,2.6,0.8,3.3,1.5C25.1,641,26.1,642,26.2,643.4z"/>
			<line class="st2" x1="20.6" y1="641" x2="23.5" y2="644.5"/>
			<line class="st2" x1="21.6" y1="640.8" x2="24.6" y2="644.2"/>
		</g>
		<g>
			<path class="st0" d="M36.3,643.4c0,0.5,0.1,1.2-0.4,1.7c-0.7,0.9-2.2,0.6-2.4,0.6c-0.3-0.1-1.3-0.3-2.5-1.7
				c-1.7-2.1-2.7-5.2-1.9-5.7c0.3-0.2,0.6,0.2,2.6,1c2.2,1,2.6,0.8,3.3,1.5C35.3,641,36.2,642,36.3,643.4z"/>
			<line class="st2" x1="30.7" y1="641" x2="33.7" y2="644.5"/>
			<line class="st2" x1="31.7" y1="640.8" x2="34.7" y2="644.2"/>
		</g>
	</g>
</g>
<g>
	<g>
		<g>
			<path class="st0" d="M202.1,535c0,0.5,0.1,1.2-0.4,1.7c-0.7,0.9-2.2,0.6-2.4,0.6c-0.3-0.1-1.3-0.3-2.5-1.7
				c-1.7-2.1-2.7-5.2-1.9-5.7c0.3-0.2,0.6,0.2,2.6,1c2.2,1,2.6,0.8,3.3,1.5C201,532.6,201.9,533.5,202.1,535z"/>
			<line class="st1" x1="196.4" y1="532.6" x2="199.4" y2="536"/>
			<line class="st1" x1="197.4" y1="532.4" x2="200.4" y2="535.8"/>
		</g>
		<g>
			<path class="st0" d="M199.4,543.4c0,0.5,0.1,1.2-0.4,1.7c-0.7,0.9-2.2,0.6-2.4,0.6c-0.3-0.1-1.3-0.3-2.5-1.7
				c-1.7-2.1-2.7-5.2-1.9-5.7c0.3-0.2,0.6,0.2,2.6,1c2.2,1,2.6,0.8,3.3,1.5C198.3,541,199.3,542,199.4,543.4z"/>
			<line class="st2" x1="193.7" y1="541" x2="196.7" y2="544.5"/>
			<line class="st2" x1="194.8" y1="540.8" x2="197.7" y2="544.2"/>
		</g>
		<g>
			<path class="st0" d="M209.5,543.4c0,0.5,0.1,1.2-0.4,1.7c-0.7,0.9-2.2,0.6-2.4,0.6c-0.3-0.1-1.3-0.3-2.5-1.7
				c-1.7-2.1-2.7-5.2-1.9-5.7c0.3-0.2,0.6,0.2,2.6,1c2.2,1,2.6,0.8,3.3,1.5C208.4,541,209.4,542,209.5,543.4z"/>
			<line class="st2" x1="203.9" y1="541" x2="206.9" y2="544.5"/>
			<line class="st2" x1="204.9" y1="540.8" x2="207.9" y2="544.2"/>
		</g>
	</g>
	<g>
		<g>
			<path class="st0" d="M191.2,543c0,0.5,0.1,1.2-0.4,1.7c-0.7,0.9-2.2,0.6-2.4,0.6c-0.3-0.1-1.3-0.3-2.5-1.7
				c-1.7-2.1-2.7-5.2-1.9-5.7c0.3-0.2,0.6,0.2,2.6,1c2.2,1,2.6,0.8,3.3,1.5C190.1,540.6,191.1,541.5,191.2,543z"/>
			<line class="st1" x1="185.5" y1="540.6" x2="188.5" y2="544"/>
			<line class="st1" x1="186.6" y1="540.4" x2="189.6" y2="543.8"/>
		</g>
		<g>
			<path class="st0" d="M188.5,551.4c0,0.5,0.1,1.2-0.4,1.7c-0.7,0.9-2.2,0.6-2.4,0.6c-0.3-0.1-1.3-0.3-2.5-1.7
				c-1.7-2.1-2.7-5.2-1.9-5.7c0.3-0.2,0.6,0.2,2.6,1c2.2,1,2.6,0.8,3.3,1.5C187.4,549,188.4,550,188.5,551.4z"/>
			<line class="st2" x1="182.9" y1="549" x2="185.8" y2="552.5"/>
			<line class="st2" x1="183.9" y1="548.8" x2="186.9" y2="552.2"/>
		</g>
		<g>
			<path class="st0" d="M198.6,551.4c0,0.5,0.1,1.2-0.4,1.7c-0.7,0.9-2.2,0.6-2.4,0.6c-0.3-0.1-1.3-0.3-2.5-1.7
				c-1.7-2.1-2.7-5.2-1.9-5.7c0.3-0.2,0.6,0.2,2.6,1c2.2,1,2.6,0.8,3.3,1.5C197.6,549,198.5,550,198.6,551.4z"/>
			<line class="st2" x1="193" y1="549" x2="196" y2="552.5"/>
			<line class="st2" x1="194" y1="548.8" x2="197" y2="552.2"/>
		</g>
	</g>
</g>
<g>
	<g>
		<g>
			<path class="st0" d="M41,441.5c0,0.5,0.1,1.2-0.4,1.7c-0.7,0.9-2.2,0.6-2.4,0.6c-0.3-0.1-1.3-0.3-2.5-1.7
				c-1.7-2.1-2.7-5.2-1.9-5.7c0.3-0.2,0.6,0.2,2.6,1c2.2,1,2.6,0.8,3.3,1.5C39.9,439.1,40.8,440.1,41,441.5z"/>
			<line class="st1" x1="35.3" y1="439.1" x2="38.3" y2="442.6"/>
			<line class="st1" x1="36.4" y1="438.9" x2="39.3" y2="442.3"/>
		</g>
		<g>
			<path class="st0" d="M38.3,450c0,0.5,0.1,1.2-0.4,1.7c-0.7,0.9-2.2,0.6-2.4,0.6c-0.3-0.1-1.3-0.3-2.5-1.7
				c-1.7-2.1-2.7-5.2-1.9-5.7c0.3-0.2,0.6,0.2,2.6,1c2.2,1,2.6,0.8,3.3,1.5C37.2,447.5,38.2,448.5,38.3,450z"/>
			<line class="st2" x1="32.6" y1="447.5" x2="35.6" y2="451"/>
			<line class="st2" x1="33.7" y1="447.3" x2="36.7" y2="450.8"/>
		</g>
		<g>
			<path class="st0" d="M48.4,450c0,0.5,0.1,1.2-0.4,1.7c-0.7,0.9-2.2,0.6-2.4,0.6c-0.3-0.1-1.3-0.3-2.5-1.7
				c-1.7-2.1-2.7-5.2-1.9-5.7c0.3-0.2,0.6,0.2,2.6,1c2.2,1,2.6,0.8,3.3,1.5C47.3,447.5,48.3,448.5,48.4,450z"/>
			<line class="st2" x1="42.8" y1="447.5" x2="45.8" y2="451"/>
			<line class="st2" x1="43.8" y1="447.3" x2="46.8" y2="450.8"/>
		</g>
	</g>
	<g>
		<g>
			<path class="st0" d="M30.1,449.5c0,0.5,0.1,1.2-0.4,1.7c-0.7,0.9-2.2,0.6-2.4,0.6c-0.3-0.1-1.3-0.3-2.5-1.7
				c-1.7-2.1-2.7-5.2-1.9-5.7c0.3-0.2,0.6,0.2,2.6,1c2.2,1,2.6,0.8,3.3,1.5C29,447.1,30,448.1,30.1,449.5z"/>
			<line class="st1" x1="24.5" y1="447.1" x2="27.4" y2="450.6"/>
			<line class="st1" x1="25.5" y1="446.9" x2="28.5" y2="450.3"/>
		</g>
		<g>
			<path class="st0" d="M27.4,458c0,0.5,0.1,1.2-0.4,1.7c-0.7,0.9-2.2,0.6-2.4,0.6c-0.3-0.1-1.3-0.3-2.5-1.7
				c-1.7-2.1-2.7-5.2-1.9-5.7c0.3-0.2,0.6,0.2,2.6,1c2.2,1,2.6,0.8,3.3,1.5C26.3,455.5,27.3,456.5,27.4,458z"/>
			<line class="st2" x1="21.8" y1="455.5" x2="24.8" y2="459"/>
			<line class="st2" x1="22.8" y1="455.3" x2="25.8" y2="458.8"/>
		</g>
		<g>
			<path class="st0" d="M37.6,458c0,0.5,0.1,1.2-0.4,1.7c-0.7,0.9-2.2,0.6-2.4,0.6c-0.3-0.1-1.3-0.3-2.5-1.7
				c-1.7-2.1-2.7-5.2-1.9-5.7c0.3-0.2,0.6,0.2,2.6,1c2.2,1,2.6,0.8,3.3,1.5C36.5,455.5,37.4,456.5,37.6,458z"/>
			<line class="st2" x1="31.9" y1="455.5" x2="34.9" y2="459"/>
			<line class="st2" x1="32.9" y1="455.3" x2="35.9" y2="458.8"/>
		</g>
	</g>
</g>
<g>
	<g>
		<g>
			<path class="st0" d="M-121.9,535c0,0.5,0.1,1.2-0.4,1.7c-0.7,0.9-2.2,0.6-2.4,0.6c-0.3-0.1-1.3-0.3-2.5-1.7
				c-1.7-2.1-2.7-5.2-1.9-5.7c0.3-0.2,0.6,0.2,2.6,1c2.2,1,2.6,0.8,3.3,1.5C-123,532.6-122,533.5-121.9,535z"/>
			<line class="st1" x1="-127.6" y1="532.6" x2="-124.6" y2="536"/>
			<line class="st1" x1="-126.5" y1="532.4" x2="-123.5" y2="535.8"/>
		</g>
		<g>
			<path class="st0" d="M-124.6,543.4c0,0.5,0.1,1.2-0.4,1.7c-0.7,0.9-2.2,0.6-2.4,0.6c-0.3-0.1-1.3-0.3-2.5-1.7
				c-1.7-2.1-2.7-5.2-1.9-5.7c0.3-0.2,0.6,0.2,2.6,1c2.2,1,2.6,0.8,3.3,1.5C-125.7,541-124.7,542-124.6,543.4z"/>
			<line class="st2" x1="-130.2" y1="541" x2="-127.3" y2="544.5"/>
			<line class="st2" x1="-129.2" y1="540.8" x2="-126.2" y2="544.2"/>
		</g>
		<g>
			<path class="st0" d="M-114.5,543.4c0,0.5,0.1,1.2-0.4,1.7c-0.7,0.9-2.2,0.6-2.4,0.6c-0.3-0.1-1.3-0.3-2.5-1.7
				c-1.7-2.1-2.7-5.2-1.9-5.7c0.3-0.2,0.6,0.2,2.6,1c2.2,1,2.6,0.8,3.3,1.5C-115.5,541-114.6,542-114.5,543.4z"/>
			<line class="st2" x1="-120.1" y1="541" x2="-117.1" y2="544.5"/>
			<line class="st2" x1="-119.1" y1="540.8" x2="-116.1" y2="544.2"/>
		</g>
	</g>
	<g>
		<g>
			<path class="st0" d="M-132.8,543c0,0.5,0.1,1.2-0.4,1.7c-0.7,0.9-2.2,0.6-2.4,0.6c-0.3-0.1-1.3-0.3-2.5-1.7
				c-1.7-2.1-2.7-5.2-1.9-5.7c0.3-0.2,0.6,0.2,2.6,1c2.2,1,2.6,0.8,3.3,1.5C-133.9,540.6-132.9,541.5-132.8,543z"/>
			<line class="st1" x1="-138.4" y1="540.6" x2="-135.4" y2="544"/>
			<line class="st1" x1="-137.4" y1="540.4" x2="-134.4" y2="543.8"/>
		</g>
		<g>
			<path class="st0" d="M-135.5,551.4c0,0.5,0.1,1.2-0.4,1.7c-0.7,0.9-2.2,0.6-2.4,0.6c-0.3-0.1-1.3-0.3-2.5-1.7
				c-1.7-2.1-2.7-5.2-1.9-5.7c0.3-0.2,0.6,0.2,2.6,1c2.2,1,2.6,0.8,3.3,1.5C-136.6,549-135.6,550-135.5,551.4z"/>
			<line class="st2" x1="-141.1" y1="549" x2="-138.1" y2="552.5"/>
			<line class="st2" x1="-140.1" y1="548.8" x2="-137.1" y2="552.2"/>
		</g>
		<g>
			<path class="st0" d="M-125.3,551.4c0,0.5,0.1,1.2-0.4,1.7c-0.7,0.9-2.2,0.6-2.4,0.6c-0.3-0.1-1.3-0.3-2.5-1.7
				c-1.7-2.1-2.7-5.2-1.9-5.7c0.3-0.2,0.6,0.2,2.6,1c2.2,1,2.6,0.8,3.3,1.5C-126.4,549-125.4,550-125.3,551.4z"/>
			<line class="st2" x1="-131" y1="549" x2="-128" y2="552.5"/>
			<line class="st2" x1="-129.9" y1="548.8" x2="-127" y2="552.2"/>
		</g>
	</g>
</g>
</svg>
