<?xml version="1.0" encoding="utf-8"?>
<!-- Generator: Adobe Illustrator 19.0.1, SVG Export Plug-In . SVG Version: 6.00 Build 0)  -->
<svg version="1.1" id="grape_x5F_harvest" xmlns="http://www.w3.org/2000/svg" xmlns:xlink="http://www.w3.org/1999/xlink" x="0px"
	 y="0px" viewBox="-223 225 512 512" style="enable-background:new -223 225 512 512;" xml:space="preserve">
<style type="text/css">
	.st0{fill:#5C3715;}
	.st1{fill:#326B37;}
	.st2{fill:none;stroke:#245529;stroke-width:3;stroke-miterlimit:10;}
	.st3{fill:#48824A;}
	.st4{fill:#564C89;}
	.st5{opacity:0.2;fill:#FFFFFF;enable-background:new    ;}
	.st6{fill:#423D72;}
	.st7{display:none;}
	.st8{display:inline;fill:#90BC42;}
	.st9{display:inline;}
	.st10{clip-path:url(#SVGID_2_);fill:#9AD14B;}
	.st11{fill:#90BC42;}
	.st12{clip-path:url(#SVGID_4_);fill:#9AD14B;}
	.st13{clip-path:url(#SVGID_6_);fill:#9AD14B;}
	.st14{clip-path:url(#SVGID_8_);fill:#9AD14B;}
	.st15{clip-path:url(#SVGID_10_);fill:#9AD14B;}
	.st16{clip-path:url(#SVGID_12_);fill:#9AD14B;}
	.st17{clip-path:url(#SVGID_14_);fill:#9AD14B;}
	.st18{clip-path:url(#SVGID_16_);fill:#9AD14B;}
	.st19{clip-path:url(#SVGID_18_);fill:#9AD14B;}
	.st20{clip-path:url(#SVGID_20_);fill:#9AD14B;}
	.st21{clip-path:url(#SVGID_22_);fill:#9AD14B;}
	.st22{clip-path:url(#SVGID_24_);fill:#9AD14B;}
	.st23{clip-path:url(#SVGID_26_);fill:#9AD14B;}
	.st24{clip-path:url(#SVGID_28_);fill:#9AD14B;}
	.st25{clip-path:url(#SVGID_30_);fill:#9AD14B;}
	.st26{clip-path:url(#SVGID_32_);fill:#9AD14B;}
</style>
<g>
	<g>
		
			<rect x="-45.7" y="370.1" transform="matrix(0.5085 -0.8611 0.8611 0.5085 -443.2071 202.9664)" class="st0" width="3.8" height="239.1"/>
		<g>
			<path class="st0" d="M-152.1,553.1l-1.9-0.5c-1.1-0.3-1.8-1.5-1.5-2.6l13.8-52.4l21.5-81.6c0.3-1.1,1.5-1.8,2.6-1.5l1.9,0.5
				c1.1,0.3,1.8,1.5,1.5,2.6l-35.4,134C-149.8,552.7-151,553.4-152.1,553.1z"/>
			<path class="st0" d="M-104.3,552.4l-3.5,0.9c-0.7,0.2-1.4-0.2-1.6-0.9l-35.9-135.6c-0.2-0.7,0.2-1.4,0.9-1.6l3.5-0.9
				c0.7-0.2,1.4,0.2,1.6,0.9l35.9,135.6C-103.2,551.5-103.6,552.2-104.3,552.4z"/>
			<g>
				<g>
					<path class="st1" d="M-105.1,475.3c-5.7-4.3-3.7-9.9-2.8-11.7c1.4,1.1,2.1,1.6,4,3.7c-0.4,2.5,1.7,6.4,1.7,6.4
						c-1-2.7-1-4.9-1-5.7c0.1,0.1,2.2,2.7,3.3,3.4c0.3,2.3,2.2,4,2.2,4c0-0.1-0.9-1.1-1.3-3.4c3.1,1.9,5.7,1.4,5.7,1.4
						s-2.5-0.5-5.4-2.3c1.7-0.7,3.1-0.3,3.1-0.4c0,0-2.3-1.2-4-0.2c-1.3-1-2.5-2.7-3.1-3.4c0.1-0.1,1.9-1.1,4.9-0.8
						c0,0-3.9-1.3-5.6,0.1c-1.1-1.3-1.4-1.7-4-3.8c2.5-6,9.3-2.2,11.3,1.7c2.1,4,2.1,5.8,7.9,8.9
						C-92.6,478.3-100.4,478.8-105.1,475.3z M-108.1,451.7c-0.6,2.6-1.6,4.6-2.6,6c0,0,0.1,0,0.1,0c7,1.2,4.2-11.1,4.2-11.1
						s-1.9,2.1-4.1,3.4c-2.6,1.5-4.2,6.4-0.7,7.6C-110.1,456.2-108.9,454.3-108.1,451.7z M-107.9,463.5c0,0,0.5-1,0.5-0.9
						c-2.3-1.8-4-2.4-6.2-2.3c0.7-0.4,1.7-1.3,2.8-2.6c-0.2,0-0.3-0.1-0.5-0.1c-1.2,1.5-3,2.3-3.6,2.6c-1.7,0.3-2.6,0.6-4,1
						c0,0-0.4,1.2,0.7,1.4C-117.3,461.8-111.4,460.3-107.9,463.5z"/>
				</g>
			</g>
			<g>
				<g>
					<path class="st1" d="M-171,479.7c5.8-3.1,5.8-4.9,7.9-8.9c2-3.9,8.8-7.7,11.3-1.7c-2.6,2.1-2.9,2.4-4,3.8
						c-1.7-1.5-5.6-0.1-5.6-0.1c3-0.3,4.8,0.8,4.9,0.8c-0.5,0.6-1.8,2.3-3.1,3.4c-1.8-1-4,0.2-4,0.2c0,0.1,1.4-0.3,3.1,0.4
						c-2.9,1.8-5.4,2.3-5.4,2.3s2.5,0.5,5.7-1.4c-0.4,2.2-1.4,3.3-1.3,3.4c0,0,1.9-1.7,2.2-4c1.1-0.7,3.2-3.2,3.3-3.4
						c0,0.8,0.1,3-1,5.7c0,0,2.1-4,1.7-6.4c1.9-2,2.6-2.5,4-3.7c0.9,1.9,2.9,7.5-2.8,11.7C-158.7,485.2-166.5,484.7-171,479.7z
						 M-147.9,464c3.5-1.1,1.9-6-0.7-7.6c-2.2-1.3-4.1-3.4-4.1-3.4s-2.8,12.3,4.2,11.1c0,0,0.1,0,0.1,0c-1-1.4-2-3.3-2.6-6
						C-150.2,460.7-149,462.6-147.9,464z M-141,469c1.1-0.2,0.7-1.4,0.7-1.4c-1.4-0.4-2.3-0.8-4-1c-0.6-0.4-2.4-1.2-3.6-2.6
						c-0.1,0-0.3,0.1-0.5,0.1c1,1.4,2.1,2.2,2.8,2.6c-2.1-0.1-3.9,0.5-6.2,2.3c0,0,0.5,0.9,0.5,0.9
						C-147.7,466.7-141.7,468.3-141,469z"/>
				</g>
			</g>
			<path class="st2" d="M-118.6,545.1c0,0,14.1-11.3,10-30.3c-2.7-12.3-15-18-17.2-18.5c-0.3-0.1-1.6-0.3-3.4-1.2
				c-1.2-0.6-2.1-1.2-2.7-1.7c-1.8-1.5-7.1-6.4-8.6-15c-0.4-2.3-0.9-7,1.5-14.8c0.9-3,8.6-30.1,20.3-29.9c2.9,0.1,6,1.7,6.2,3.5
				c0.3,4.5-18.3,15.5-27.9,7c-4.8-4.2-6.2-12.1-3.7-19.6"/>
			<path class="st2" d="M-154.6,539.2c8.1,2.7,14.5,2.3,15.7-1.3c0.7-2,0.1-5.9-1.1-8.4c-0.7-1.4-1.5-2.3-2-2.8
				c-1.1-1.2-3.8-4.5-4.7-10.6c-1.6-11.1,4.4-21,4.8-21.7c0.3-0.5,1-1.4,1.8-2.3c9.5-10.9,21.3-2.1,24.3-8.3
				c1.5-3.2-0.5-7.8-1.9-12.9c-2.3-8.8-3.8-22.7,0.6-44.9"/>
			<g>
				<g>
					<path class="st3" d="M-116.8,501.8c-5.7-4.3-3.7-9.9-2.8-11.7c1.4,1.1,2.1,1.6,4,3.7c-0.4,2.5,1.7,6.4,1.7,6.4
						c-1-2.7-1-4.9-1-5.7c0.1,0.1,2.2,2.7,3.3,3.4c0.3,2.3,2.2,4,2.2,4c0-0.1-0.9-1.1-1.3-3.4c3.1,1.9,5.7,1.4,5.7,1.4
						s-2.5-0.5-5.4-2.3c1.7-0.7,3.1-0.3,3.1-0.4c0,0-2.3-1.2-4-0.2c-1.3-1-2.5-2.7-3.1-3.4c0.1-0.1,1.9-1.1,4.9-0.8
						c0,0-3.9-1.3-5.6,0.1c-1.1-1.3-1.4-1.7-4-3.8c2.5-6,9.3-2.2,11.3,1.7c2.1,4,2.1,5.8,7.9,8.9
						C-104.4,504.8-112.2,505.3-116.8,501.8z M-119.9,478.2c-0.6,2.6-1.6,4.6-2.6,6c0,0,0.1,0,0.1,0c7,1.2,4.2-11.1,4.2-11.1
						s-1.9,2.1-4.1,3.4c-2.6,1.5-4.2,6.4-0.7,7.6C-121.9,482.7-120.7,480.8-119.9,478.2z M-119.6,490.1c0,0,0.5-1,0.5-0.9
						c-2.3-1.8-4-2.4-6.2-2.3c0.7-0.4,1.7-1.3,2.8-2.6c-0.2,0-0.3-0.1-0.5-0.1c-1.2,1.5-3,2.3-3.6,2.6c-1.7,0.3-2.6,0.6-4,1
						c0,0-0.4,1.2,0.7,1.4C-129.1,488.4-123.2,486.8-119.6,490.1z"/>
				</g>
			</g>
			<g>
				<g>
					<path class="st3" d="M-160.5,491.6c6.5,2.8,5.9,8.7,5.5,10.8c-1.6-0.8-2.4-1.1-4.7-2.6c-0.2-2.5-3.2-5.9-3.2-5.9
						c1.6,2.4,2.2,4.6,2.3,5.3c-0.2-0.1-2.8-2.1-4-2.5c-0.8-2.2-3.1-3.4-3.1-3.4c0,0.1,1.1,0.9,2.1,3c-3.5-1.1-5.8,0-5.8,0
						s2.5-0.1,5.7,1c-1.5,1.1-2.9,1.1-2.9,1.1c0,0,2.5,0.6,4-0.7c1.5,0.7,3.1,2.1,3.8,2.5c-0.1,0.1-1.6,1.5-4.6,2
						c0,0,4.1,0.4,5.4-1.4c1.4,1,1.8,1.3,4.8,2.7c-1.1,6.5-8.5,4.3-11.4,1c-3-3.4-3.4-5.2-9.8-6.8
						C-173.2,491.6-165.8,489.3-160.5,491.6z M-151.9,513.8c-0.1-2.7,0.4-4.8,1.1-6.4c0,0-0.1,0-0.1,0c-7.1,0.4-1.5,11.8-1.5,11.8
						s1.4-2.4,3.2-4.3c2.1-2.1,2.5-7.2-1.1-7.5C-151.1,509-151.8,511.2-151.9,513.8z M-155,502.4c0,0-0.3,1.1-0.3,1
						c2.6,1.3,4.5,1.4,6.5,0.8c-0.6,0.6-1.4,1.6-2.1,3.2c0.2,0,0.3,0,0.5,0c0.8-1.7,2.4-2.9,2.9-3.4c1.6-0.7,2.4-1.2,3.7-2
						c0,0,0.1-1.3-1-1.2C-145.3,501.8-150.8,504.7-155,502.4z"/>
				</g>
			</g>
			<path class="st2" d="M-121.3,444.1c0,0,4.9,13.2,22.3,21.4c11.2,5.3,20,2.1,21.1,1.2c0.1-0.1,0.8-0.7,2.1-1.1
				c0.9-0.3,1.7-0.4,2.3-0.4c1.9-0.1,7.7-0.2,15.4,3.7c2.1,1,6.1,3.3,12,8.8c2.3,2.1,22.6,20.6,18.6,26.4c-1,1.4-3.4,2.1-5,1.2
				c-3.9-2.2-7.1-17.6,3.1-18c5.1-0.2,12.2,3.4,17.7,8.7"/>
		</g>
	</g>
	<g>
		<path class="st0" d="M9.7,644.8l-1.9-0.5c-1.1-0.3-1.8-1.5-1.5-2.6l13.8-52.4l21.5-81.6c0.3-1.1,1.5-1.8,2.6-1.5l1.9,0.5
			c1.1,0.3,1.8,1.5,1.5,2.6l-35.4,134C12,644.4,10.8,645.1,9.7,644.8z"/>
		<path class="st0" d="M57.5,644.1L54,645c-0.7,0.2-1.4-0.2-1.6-0.9L16.6,508.5c-0.2-0.7,0.2-1.4,0.9-1.6L21,506
			c0.7-0.2,1.4,0.2,1.6,0.9l35.9,135.6C58.6,643.2,58.2,643.9,57.5,644.1z"/>
		<g>
			<g>
				<path class="st1" d="M56.7,567c-5.7-4.3-3.7-9.9-2.8-11.7c1.4,1.1,2.1,1.6,4,3.7c-0.4,2.5,1.7,6.4,1.7,6.4c-1-2.7-1-4.9-1-5.7
					c0.1,0.1,2.2,2.7,3.3,3.4c0.3,2.3,2.2,4,2.2,4c0-0.1-0.9-1.1-1.3-3.4c3.1,1.9,5.7,1.4,5.7,1.4s-2.5-0.5-5.4-2.3
					c1.7-0.7,3.1-0.3,3.1-0.4c0,0-2.3-1.2-4-0.2c-1.3-1-2.5-2.7-3.1-3.4c0.1-0.1,1.9-1.1,4.9-0.8c0,0-3.9-1.3-5.6,0.1
					c-1.1-1.3-1.4-1.7-4-3.8c2.5-6,9.3-2.2,11.3,1.7c2.1,4,2.1,5.8,7.9,8.9C69.2,570,61.4,570.5,56.7,567z M53.7,543.4
					c-0.6,2.6-1.6,4.6-2.6,6c0,0,0.1,0,0.1,0c7,1.2,4.2-11.1,4.2-11.1s-1.9,2.1-4.1,3.4c-2.6,1.5-4.2,6.4-0.7,7.6
					C51.7,547.9,52.9,546,53.7,543.4z M53.9,555.3c0,0,0.5-1,0.5-0.9c-2.3-1.8-4-2.4-6.2-2.3c0.7-0.4,1.7-1.3,2.8-2.6
					c-0.2,0-0.3-0.1-0.5-0.1c-1.2,1.5-3,2.3-3.6,2.6c-1.7,0.3-2.6,0.6-4,1c0,0-0.4,1.2,0.7,1.4C44.5,553.5,50.4,552,53.9,555.3z"/>
			</g>
		</g>
		<g>
			<g>
				<path class="st1" d="M-9.2,571.4c5.8-3.1,5.8-4.9,7.9-8.9c2-3.9,8.8-7.7,11.3-1.7c-2.6,2.1-2.9,2.4-4,3.8
					c-1.7-1.5-5.6-0.1-5.6-0.1c3-0.3,4.8,0.8,4.9,0.8c-0.5,0.6-1.8,2.3-3.1,3.4c-1.8-1-4,0.2-4,0.2c0,0.1,1.4-0.3,3.1,0.4
					c-2.9,1.8-5.4,2.3-5.4,2.3s2.5,0.5,5.7-1.4c-0.4,2.2-1.4,3.3-1.3,3.4c0,0,1.9-1.7,2.2-4c1.1-0.7,3.2-3.2,3.3-3.4
					c0,0.8,0.1,3-1,5.7c0,0,2.1-4,1.7-6.4c1.9-2,2.6-2.5,4-3.7c0.9,1.9,2.9,7.5-2.8,11.7C3.1,576.9-4.7,576.4-9.2,571.4z
					 M13.9,555.7c3.5-1.1,1.9-6-0.7-7.6c-2.2-1.3-4.1-3.4-4.1-3.4s-2.8,12.3,4.2,11.1c0,0,0.1,0,0.1,0c-1-1.4-2-3.3-2.6-6
					C11.6,552.4,12.8,554.3,13.9,555.7z M20.8,560.8c1.1-0.2,0.7-1.4,0.7-1.4c-1.4-0.4-2.3-0.8-4-1c-0.6-0.4-2.4-1.2-3.6-2.6
					c-0.1,0-0.3,0.1-0.5,0.1c1,1.4,2.1,2.2,2.8,2.6c-2.1-0.1-3.9,0.5-6.2,2.3c0,0,0.5,0.9,0.5,0.9C14.1,558.4,20,560,20.8,560.8z"/>
			</g>
		</g>
		<path class="st2" d="M43.2,636.8c0,0,14.1-11.3,10-30.3c-2.7-12.3-15-18-17.2-18.5c-0.3-0.1-1.6-0.3-3.4-1.2
			c-1.2-0.6-2.1-1.2-2.7-1.7c-1.8-1.5-7.1-6.4-8.6-15c-0.4-2.3-0.9-7,1.5-14.8c0.9-3,8.6-30.1,20.3-29.9c2.9,0.1,6,1.7,6.2,3.5
			c0.3,4.5-18.3,15.5-27.9,7c-4.8-4.2-6.2-12.1-3.7-19.6"/>
		<path class="st2" d="M7.2,630.9c8.1,2.7,14.5,2.3,15.7-1.3c0.7-2,0.1-5.9-1.1-8.4c-0.7-1.4-1.5-2.3-2-2.8
			c-1.1-1.2-3.8-4.5-4.7-10.6c-1.6-11.1,4.4-21,4.8-21.7c0.3-0.5,1-1.4,1.8-2.3c9.5-10.9,21.3-2.1,24.3-8.3
			c1.5-3.2-0.5-7.8-1.9-12.9c-2.3-8.8-3.8-22.7,0.6-44.9"/>
		<g>
			<g>
				<path class="st3" d="M45,593.5c-5.7-4.3-3.7-9.9-2.8-11.7c1.4,1.1,2.1,1.6,4,3.7c-0.4,2.5,1.7,6.4,1.7,6.4c-1-2.7-1-4.9-1-5.7
					c0.1,0.1,2.2,2.7,3.3,3.4c0.3,2.3,2.2,4,2.2,4c0-0.1-0.9-1.1-1.3-3.4c3.1,1.9,5.7,1.4,5.7,1.4s-2.5-0.5-5.4-2.3
					c1.7-0.7,3.1-0.3,3.1-0.4c0,0-2.3-1.2-4-0.2c-1.3-1-2.5-2.7-3.1-3.4c0.1-0.1,1.9-1.1,4.9-0.8c0,0-3.9-1.3-5.6,0.1
					c-1.1-1.3-1.4-1.7-4-3.8c2.5-6,9.3-2.2,11.3,1.7c2.1,4,2.1,5.8,7.9,8.9C57.4,596.5,49.6,597,45,593.5z M41.9,569.9
					c-0.6,2.6-1.6,4.6-2.6,6c0,0,0.1,0,0.1,0c7,1.2,4.2-11.1,4.2-11.1s-1.9,2.1-4.1,3.4c-2.6,1.5-4.2,6.4-0.7,7.6
					C39.9,574.4,41.1,572.5,41.9,569.9z M42.2,581.8c0,0,0.5-1,0.5-0.9c-2.3-1.8-4-2.4-6.2-2.3c0.7-0.4,1.7-1.3,2.8-2.6
					c-0.2,0-0.3-0.1-0.5-0.1c-1.2,1.5-3,2.3-3.6,2.6c-1.7,0.3-2.6,0.6-4,1c0,0-0.4,1.2,0.7,1.4C32.7,580.1,38.6,578.5,42.2,581.8z"
					/>
			</g>
		</g>
		<g>
			<g>
				<path class="st3" d="M1.3,583.3c6.5,2.8,5.9,8.7,5.5,10.8c-1.6-0.8-2.4-1.1-4.7-2.6c-0.2-2.5-3.2-5.9-3.2-5.9
					c1.6,2.4,2.2,4.6,2.3,5.3c-0.2-0.1-2.8-2.1-4-2.5c-0.8-2.2-3.1-3.4-3.1-3.4c0,0.1,1.1,0.9,2.1,3c-3.5-1.1-5.8,0-5.8,0
					s2.5-0.1,5.7,1c-1.5,1.1-2.9,1.1-2.9,1.1c0,0,2.5,0.6,4-0.7c1.5,0.7,3.1,2.1,3.8,2.5c-0.1,0.1-1.6,1.5-4.6,2
					c0,0,4.1,0.4,5.4-1.4c1.4,1,1.8,1.3,4.8,2.7c-1.1,6.5-8.5,4.3-11.4,1c-3-3.4-3.4-5.2-9.8-6.8C-11.5,583.4-4,581.1,1.3,583.3z
					 M9.9,605.6c-0.1-2.7,0.4-4.8,1.1-6.4c0,0-0.1,0-0.1,0c-7.1,0.4-1.5,11.8-1.5,11.8s1.4-2.4,3.2-4.3c2.1-2.1,2.5-7.2-1.1-7.5
					C10.7,600.8,10,602.9,9.9,605.6z M6.8,594.1c0,0-0.3,1.1-0.3,1c2.6,1.3,4.5,1.4,6.5,0.8c-0.6,0.6-1.4,1.6-2.1,3.2
					c0.2,0,0.3,0,0.5,0c0.8-1.7,2.4-2.9,2.9-3.4c1.6-0.7,2.4-1.2,3.7-2c0,0,0.1-1.3-1-1.2C16.4,593.5,11,596.4,6.8,594.1z"/>
			</g>
		</g>
	</g>
	<path class="st2" d="M-76.7,470.1c0,0,4.9,13.2,22.3,21.4c11.2,5.3,20,2.1,21.1,1.2c0.1-0.1,0.8-0.7,2.1-1.1
		c0.9-0.3,1.7-0.4,2.3-0.4c1.9-0.1,7.7-0.2,15.4,3.7c2.1,1,6.1,3.3,12,8.8c2.3,2.1,22.6,20.6,18.6,26.4c-1,1.4-3.4,2.1-5,1.2
		c-3.9-2.2-7.1-17.6,3.1-18c5.1-0.2,12.2,3.4,17.7,8.7"/>
	<path class="st2" d="M-102.5,455.2c0,0,4.9,13.2,22.3,21.4c11.2,5.3,20,2.1,21.1,1.2c0.1-0.1,0.8-0.7,2.1-1.1
		c0.9-0.3,1.7-0.4,2.3-0.4c1.9-0.1,7.7-0.2,15.4,3.7c2.1,1,6.1,3.3,12,8.8c2.3,2.1,22.6,20.6,18.6,26.4c-1,1.4-3.4,2.1-5,1.2
		c-3.9-2.2-7.1-17.6,3.1-18c5.1-0.2,12.2,3.4,17.7,8.7"/>
	<path class="st2" d="M-39.7,507.4c4.9-7,6.4-13.2,3.3-15.4c-1.7-1.2-5.6-1.8-8.3-1.4c-1.6,0.2-2.6,0.7-3.2,1.1
		c-1.4,0.7-5.4,2.3-11.5,1.4c-11.1-1.7-18.9-10.2-19.4-10.8c-0.4-0.5-1-1.3-1.7-2.4c-7.7-12.3,4.1-21.1-0.9-25.6
		c-2.6-2.3-7.6-1.8-12.9-2c-9.1-0.3-22.8-2.9-42.8-13.5"/>
	<g>
		<g>
			<path class="st1" d="M-87.5,465.4c-5.7-4.3-3.7-9.9-2.8-11.7c1.4,1.1,2.1,1.6,4,3.7c-0.4,2.5,1.7,6.4,1.7,6.4c-1-2.7-1-4.9-1-5.7
				c0.1,0.1,2.2,2.7,3.3,3.4c0.3,2.3,2.2,4,2.2,4c0-0.1-0.9-1.1-1.3-3.4c3.1,1.9,5.7,1.4,5.7,1.4s-2.5-0.5-5.4-2.3
				c1.7-0.7,3.1-0.3,3.1-0.4c0,0-2.3-1.2-4-0.2c-1.3-1-2.5-2.7-3.1-3.4c0.1-0.1,1.9-1.1,4.9-0.8c0,0-3.9-1.3-5.6,0.1
				c-1.1-1.3-1.4-1.7-4-3.8c2.5-6,9.3-2.2,11.3,1.7c2.1,4,2.1,5.8,7.9,8.9C-75.1,468.4-82.9,468.9-87.5,465.4z M-90.6,441.8
				c-0.6,2.6-1.6,4.6-2.6,6c0,0,0.1,0,0.1,0c7,1.2,4.2-11.1,4.2-11.1s-1.9,2.1-4.1,3.4c-2.6,1.5-4.2,6.4-0.7,7.6
				C-92.6,446.3-91.4,444.4-90.6,441.8z M-90.3,453.7c0,0,0.5-1,0.5-0.9c-2.3-1.8-4-2.4-6.2-2.3c0.7-0.4,1.7-1.3,2.8-2.6
				c-0.2,0-0.3-0.1-0.5-0.1c-1.2,1.5-3,2.3-3.6,2.6c-1.7,0.3-2.6,0.6-4,1c0,0-0.4,1.2,0.7,1.4C-99.8,452-93.9,450.4-90.3,453.7z"/>
		</g>
	</g>
	<g>
		<g>
			<path class="st1" d="M-52.6,490.7c-5.7-4.3-3.7-9.9-2.8-11.7c1.4,1.1,2.1,1.6,4,3.7c-0.4,2.5,1.7,6.4,1.7,6.4c-1-2.7-1-4.9-1-5.7
				c0.1,0.1,2.2,2.7,3.3,3.4c0.3,2.3,2.2,4,2.2,4c0-0.1-0.9-1.1-1.3-3.4c3.1,1.9,5.7,1.4,5.7,1.4s-2.5-0.5-5.4-2.3
				c1.7-0.7,3.1-0.3,3.1-0.4c0,0-2.3-1.2-4-0.2c-1.3-1-2.5-2.7-3.1-3.4c0.1-0.1,1.9-1.1,4.9-0.8c0,0-3.9-1.3-5.6,0.1
				c-1.1-1.3-1.4-1.7-4-3.8c2.5-6,9.3-2.2,11.3,1.7c2.1,4,2.1,5.8,7.9,8.9C-40.2,493.7-48,494.2-52.6,490.7z M-55.7,467.1
				c-0.6,2.6-1.6,4.6-2.6,6c0,0,0.1,0,0.1,0c7,1.2,4.2-11.1,4.2-11.1s-1.9,2.1-4.1,3.4c-2.6,1.5-4.2,6.4-0.7,7.6
				C-57.6,471.6-56.5,469.7-55.7,467.1z M-55.4,479c0,0,0.5-1,0.5-0.9c-2.3-1.8-4-2.4-6.2-2.3c0.7-0.4,1.7-1.3,2.8-2.6
				c-0.2,0-0.3-0.1-0.5-0.1c-1.2,1.5-3,2.3-3.6,2.6c-1.7,0.3-2.6,0.6-4,1c0,0-0.4,1.2,0.7,1.4C-64.9,477.3-59,475.7-55.4,479z"/>
		</g>
	</g>
	<g>
		<g>
			<path class="st1" d="M-7.1,494.1c-7.1,0.4-9.2-5.2-9.7-7.2c1.8,0,2.7-0.1,5.4,0.3c1.3,2.2,5.4,3.9,5.4,3.9
				c-2.5-1.4-3.9-3.1-4.4-3.8c0.2,0,3.4,0.6,4.7,0.5c1.7,1.6,4.3,1.7,4.3,1.7c0-0.1-1.4-0.3-3.2-1.7c3.6-0.6,5.2-2.6,5.2-2.6
				s-2.2,1.2-5.6,1.7c0.9-1.7,2.1-2.2,2.1-2.3c0,0-2.5,0.5-3.2,2.4c-1.6,0-3.7-0.5-4.5-0.6c0-0.1,0.8-2.1,3.2-3.8
				c0,0-3.9,1.5-4.2,3.7c-1.7-0.3-2.2-0.4-5.5-0.3c-1.9-6.3,5.7-7.7,9.8-6c4.2,1.7,5.3,3.2,11.8,1.8C4.4,488.4-1.3,493.8-7.1,494.1z
				 M-24.6,477.9c1.3,2.4,1.7,4.5,1.8,6.2c0,0,0.1,0,0.1-0.1c6.2-3.5-3.9-11.2-3.9-11.2s-0.2,2.8-1,5.2c-1,2.8,0.9,7.6,4.3,6.2
				C-23.2,482.6-23.5,480.4-24.6,477.9z M-16.8,486.8c0,0-0.2-1.1-0.2-1.1c-2.9,0-4.7,0.7-6.2,2.2c0.2-0.8,0.5-2.1,0.4-3.8
				c-0.1,0.1-0.3,0.1-0.4,0.2c0,1.9-0.9,3.7-1.1,4.3c-1.2,1.3-1.6,2.1-2.4,3.4c0,0,0.5,1.2,1.4,0.6
				C-25.2,491.6-21.6,486.6-16.8,486.8z"/>
		</g>
	</g>
	<g>
		<g>
			<path class="st3" d="M16.5,520.7c-5.7-4.3-3.7-9.9-2.8-11.7c1.4,1.1,2.1,1.6,4,3.7c-0.4,2.5,1.7,6.4,1.7,6.4c-1-2.7-1-4.9-1-5.7
				c0.1,0.1,2.2,2.7,3.3,3.4c0.3,2.3,2.2,4,2.2,4c0-0.1-0.9-1.1-1.3-3.4c3.1,1.9,5.7,1.4,5.7,1.4s-2.5-0.5-5.4-2.3
				c1.7-0.7,3.1-0.3,3.1-0.4c0,0-2.3-1.2-4-0.2c-1.3-1-2.5-2.7-3.1-3.4c0.1-0.1,1.9-1.1,4.9-0.8c0,0-3.9-1.3-5.6,0.1
				c-1.1-1.3-1.4-1.7-4-3.8c2.5-6,9.3-2.2,11.3,1.7c2.1,4,2.1,5.8,7.9,8.9C28.9,523.6,21.1,524.1,16.5,520.7z M13.4,497.1
				c-0.6,2.6-1.6,4.6-2.6,6c0,0,0.1,0,0.1,0c7,1.2,4.2-11.1,4.2-11.1s-1.9,2.1-4.1,3.4c-2.6,1.5-4.2,6.4-0.7,7.6
				C11.4,501.5,12.6,499.6,13.4,497.1z M13.7,508.9c0,0,0.5-1,0.5-0.9c-2.3-1.8-4-2.4-6.2-2.3c0.7-0.4,1.7-1.3,2.8-2.6
				c-0.2,0-0.3-0.1-0.5-0.1c-1.2,1.5-3,2.3-3.6,2.6c-1.7,0.3-2.6,0.6-4,1c0,0-0.4,1.2,0.7,1.4C4.2,507.2,10.1,505.7,13.7,508.9z"/>
		</g>
	</g>
	<g>
		<g>
			<path class="st3" d="M-76.3,490c7.1-0.2,9,5.5,9.5,7.5c-1.8,0-2.7,0-5.4-0.4c-1.2-2.2-5.3-4-5.3-4c2.5,1.5,3.9,3.2,4.3,3.9
				c-0.2,0-3.4-0.7-4.7-0.6c-1.7-1.7-4.2-1.8-4.2-1.8c0,0.1,1.4,0.3,3.1,1.8c-3.6,0.5-5.3,2.4-5.3,2.4s2.2-1.1,5.6-1.5
				c-0.9,1.7-2.2,2.2-2.2,2.3c0,0,2.5-0.5,3.3-2.3c1.6,0,3.7,0.6,4.5,0.7c0,0.1-0.8,2.1-3.3,3.7c0,0,3.9-1.4,4.3-3.6
				c1.7,0.3,2.2,0.4,5.5,0.5c1.7,6.3-5.9,7.5-10,5.7c-4.1-1.9-5.2-3.3-11.7-2.1C-87.9,495.4-82.1,490.2-76.3,490z M-59.3,506.7
				c-1.2-2.4-1.6-4.6-1.7-6.3c0,0-0.1,0-0.1,0c-6.3,3.4,3.6,11.3,3.6,11.3s0.2-2.8,1.2-5.2c1.1-2.8-0.7-7.6-4.2-6.3
				C-60.5,502-60.2,504.2-59.3,506.7z M-66.8,497.5c0,0,0.2,1.1,0.2,1.1c2.9,0,4.7-0.6,6.3-2c-0.3,0.8-0.6,2.1-0.5,3.8
				c0.2-0.1,0.3-0.1,0.4-0.2c0-1.9,1-3.7,1.2-4.3c1.2-1.3,1.6-2.1,2.5-3.3c0,0-0.5-1.2-1.4-0.7C-58.3,493-62,497.9-66.8,497.5z"/>
		</g>
	</g>
	<g>
		<g>
			<path class="st3" d="M-19.9,521c4.1-4.1,8.6-2,10.1-1.2c-1.1,1-1.6,1.5-3.4,2.8c-2-0.6-5.5,0.8-5.5,0.8c2.4-0.6,4.2-0.4,4.9-0.3
				c-0.1,0.1-2.4,1.5-3.1,2.3c-2,0-3.6,1.4-3.6,1.4c0.1,0,1-0.6,2.9-0.7c-1.9,2.3-1.7,4.3-1.7,4.3s0.7-1.9,2.4-4
				c0.4,1.4,0,2.4,0,2.5c0,0,1.2-1.7,0.6-3.2c1-0.9,2.5-1.8,3.1-2.1c0,0.1,0.7,1.6,0.2,3.9c0,0,1.5-2.9,0.4-4.4
				c1.2-0.8,1.5-1,3.5-2.8c4.8,2.5,1,7.5-2.5,8.8c-3.6,1.3-5.1,1.1-8.2,5.4C-23.6,530.5-23.3,524.3-19.9,521z M0,520.6
				c-2.2-0.7-3.7-1.6-4.7-2.6c0,0,0,0.1,0,0.1c-1.7,5.4,8.8,4.3,8.8,4.3s-1.5-1.7-2.4-3.5c-1-2.2-4.9-3.8-6.2-1.2
				C-3.5,518.7-2,519.8,0,520.6z M-9.9,519.8c0,0,0.8,0.5,0.7,0.5c1.8-1.6,2.4-3,2.5-4.6c0.3,0.6,0.9,1.5,1.9,2.4
				c0-0.1,0.1-0.2,0.1-0.4c-1.1-1.1-1.6-2.6-1.9-3.1c-0.1-1.4-0.3-2.1-0.5-3.2c0,0-1-0.4-1.2,0.4C-7.5,512.5-6.8,517.3-9.9,519.8z"
				/>
		</g>
	</g>
	<g>
		<g>
			<path class="st3" d="M-2.5,533.9c3.2-4.8,8-3.7,9.6-3.2c-0.9,1.2-1.2,1.8-2.8,3.4C2.2,534-1,536-1,536c2.2-1,4.1-1.2,4.7-1.2
				c-0.1,0.1-2.1,2-2.6,2.9c-1.9,0.4-3.2,2.1-3.2,2.1c0.1,0,0.9-0.8,2.7-1.3c-1.4,2.6-0.8,4.6-0.8,4.6s0.3-2,1.6-4.4
				c0.7,1.3,0.5,2.4,0.5,2.4c0,0,0.9-1.9-0.1-3.2c0.8-1.1,2.1-2.2,2.6-2.7c0.1,0.1,1,1.4,1,3.8c0,0,0.9-3.2-0.5-4.4
				c1-1,1.3-1.3,2.9-3.5c5.2,1.5,2.4,7.2-0.7,9.1c-3.2,2-4.7,2.1-6.9,7C-4.2,544-5.1,537.8-2.5,533.9z M17,529.5
				c-2.2-0.2-3.9-0.9-5.1-1.6c0,0,0,0.1,0,0.1c-0.6,5.7,9.5,2.4,9.5,2.4s-1.8-1.3-3.1-3c-1.4-1.9-5.6-2.8-6.3,0.1
				C13.1,528.4,14.8,529.1,17,529.5z M7.1,530.7c0,0,0.8,0.3,0.8,0.3c1.4-1.9,1.8-3.4,1.5-5.1c0.4,0.5,1.2,1.3,2.4,2
				c0-0.1,0-0.3,0.1-0.4c-1.3-0.8-2.1-2.2-2.4-2.6c-0.3-1.4-0.7-2-1.1-3.1c0,0-1-0.2-1.1,0.7C7.9,523.1,9.6,527.7,7.1,530.7z"/>
		</g>
	</g>
	<g>
		<path class="st3" d="M-60.7,498c0.1-0.5-0.1-0.9-0.6-1.1c-0.1,0-0.2,0-0.3,0c-0.1,0-1.2,0.2-2.6,1.3c-1.7,1.4-3.1,3.8-4,6.9
			l1.7,0.5c0.6-1.9,1.6-4.5,3.4-6c1-0.9,1.8-1,1.8-1l0,0C-61.1,498.5-60.8,498.3-60.7,498z"/>
		<path class="st4" d="M-71.2,532.8c0.7-2.3-0.6-4.7-2.9-5.4c-2.3-0.7-4.7,0.6-5.4,2.9c-0.7,2.3,0.6,4.7,2.9,5.4
			C-74.3,536.3-71.9,535-71.2,532.8z"/>
		<path class="st5" d="M-75.6,529.6c-0.1,0.5-0.6,0.7-1.1,0.6s-0.7-0.6-0.6-1.1c0.1-0.5,0.6-0.7,1.1-0.6
			C-75.8,528.7-75.5,529.1-75.6,529.6z"/>
		<path class="st6" d="M-66.1,528c0.7-2.3-0.6-4.7-2.9-5.4c-2.3-0.7-4.7,0.6-5.4,2.9c-0.7,2.3,0.6,4.7,2.9,5.4
			C-69.2,531.5-66.8,530.2-66.1,528z"/>
		<path class="st5" d="M-70.6,524.8c-0.1,0.5-0.6,0.7-1.1,0.6c-0.5-0.1-0.7-0.6-0.6-1.1c0.1-0.5,0.6-0.7,1.1-0.6
			C-70.7,523.9-70.4,524.3-70.6,524.8z"/>
		<path class="st6" d="M-72.7,526c0.7-2.3-0.6-4.7-2.9-5.4c-2.3-0.7-4.7,0.6-5.4,2.9c-0.7,2.3,0.6,4.7,2.9,5.4
			C-75.8,529.5-73.4,528.3-72.7,526z"/>
		<path class="st5" d="M-77.2,522.8c-0.1,0.5-0.6,0.7-1.1,0.6c-0.5-0.1-0.7-0.6-0.6-1.1c0.1-0.5,0.6-0.7,1.1-0.6
			S-77.1,522.4-77.2,522.8z"/>
		<path class="st6" d="M-75.9,512.4c0.7-2.3-0.6-4.7-2.9-5.4c-2.3-0.7-4.7,0.6-5.4,2.9c-0.7,2.3,0.6,4.7,2.9,5.4
			C-79,516-76.6,514.7-75.9,512.4z"/>
		<path class="st5" d="M-80.4,509.2c-0.1,0.5-0.6,0.7-1.1,0.6c-0.5-0.1-0.7-0.6-0.6-1.1c0.1-0.5,0.6-0.7,1.1-0.6
			C-80.5,508.3-80.2,508.8-80.4,509.2z"/>
		<path class="st6" d="M-56,518.4c0.7-2.3-0.6-4.7-2.9-5.4c-2.3-0.7-4.7,0.6-5.4,2.9c-0.7,2.3,0.6,4.7,2.9,5.4
			C-59.1,521.9-56.7,520.6-56,518.4z"/>
		<path class="st5" d="M-60.5,515.2c-0.1,0.5-0.6,0.7-1.1,0.6s-0.7-0.6-0.6-1.1c0.1-0.5,0.6-0.7,1.1-0.6
			C-60.6,514.3-60.3,514.7-60.5,515.2z"/>
		<path class="st4" d="M-61.1,523.2c0.7-2.3-0.6-4.7-2.9-5.4c-2.3-0.7-4.7,0.6-5.4,2.9c-0.7,2.3,0.6,4.7,2.9,5.4
			C-64.2,526.7-61.7,525.4-61.1,523.2z"/>
		<path class="st5" d="M-65.5,520c-0.1,0.5-0.6,0.7-1.1,0.6c-0.5-0.1-0.7-0.6-0.6-1.1c0.1-0.5,0.6-0.7,1.1-0.6
			C-65.7,519.1-65.4,519.5-65.5,520z"/>
		<path class="st4" d="M-74.3,519.2c0.7-2.3-0.6-4.7-2.9-5.4c-2.3-0.7-4.7,0.6-5.4,2.9c-0.7,2.3,0.6,4.7,2.9,5.4
			C-77.4,522.8-75,521.5-74.3,519.2z"/>
		<path class="st5" d="M-78.8,516c-0.1,0.5-0.6,0.7-1.1,0.6c-0.5-0.1-0.7-0.6-0.6-1.1c0.1-0.5,0.6-0.7,1.1-0.6S-78.6,515.6-78.8,516
			z"/>
		<path class="st6" d="M-67.7,521.2c0.7-2.3-0.6-4.7-2.9-5.4c-2.3-0.7-4.7,0.6-5.4,2.9c-0.7,2.3,0.6,4.7,2.9,5.4
			C-70.8,524.7-68.4,523.4-67.7,521.2z"/>
		<path class="st5" d="M-72.2,518c-0.1,0.5-0.6,0.7-1.1,0.6c-0.5-0.1-0.7-0.6-0.6-1.1c0.1-0.5,0.6-0.7,1.1-0.6S-72,517.6-72.2,518z"
			/>
		<path class="st4" d="M-69.3,514.4c0.7-2.3-0.6-4.7-2.9-5.4c-2.3-0.7-4.7,0.6-5.4,2.9c-0.7,2.3,0.6,4.7,2.9,5.4
			C-72.4,518-69.9,516.7-69.3,514.4z"/>
		<path class="st5" d="M-73.7,511.2c-0.1,0.5-0.6,0.7-1.1,0.6s-0.7-0.6-0.6-1.1c0.1-0.5,0.6-0.7,1.1-0.6
			C-73.8,510.3-73.6,510.8-73.7,511.2z"/>
		<path class="st4" d="M-62.6,516.4c0.7-2.3-0.6-4.7-2.9-5.4c-2.3-0.7-4.7,0.6-5.4,2.9c-0.7,2.3,0.6,4.7,2.9,5.4
			C-65.7,519.9-63.3,518.6-62.6,516.4z"/>
		<path class="st5" d="M-67.1,513.2c-0.1,0.5-0.6,0.7-1.1,0.6c-0.5-0.1-0.7-0.6-0.6-1.1c0.1-0.5,0.6-0.7,1.1-0.6
			C-67.2,512.3-67,512.8-67.1,513.2z"/>
		<path class="st4" d="M-70.8,507.6c0.7-2.3-0.6-4.7-2.9-5.4c-2.3-0.7-4.7,0.6-5.4,2.9c-0.7,2.3,0.6,4.7,2.9,5.4
			C-73.9,511.2-71.5,509.9-70.8,507.6z"/>
		<path class="st5" d="M-75.3,504.4c-0.1,0.5-0.6,0.7-1.1,0.6c-0.5-0.1-0.7-0.6-0.6-1.1s0.6-0.7,1.1-0.6
			C-75.4,503.5-75.2,504-75.3,504.4z"/>
		<path class="st4" d="M-57.6,511.6c0.7-2.3-0.6-4.7-2.9-5.4c-2.3-0.7-4.7,0.6-5.4,2.9c-0.7,2.3,0.6,4.7,2.9,5.4
			C-60.7,515.1-58.3,513.8-57.6,511.6z"/>
		<path class="st5" d="M-62,508.4c-0.1,0.5-0.6,0.7-1.1,0.6c-0.5-0.1-0.7-0.6-0.6-1.1c0.1-0.5,0.6-0.7,1.1-0.6
			C-62.2,507.5-61.9,508-62,508.4z"/>
		<path class="st6" d="M-64.2,509.6c0.7-2.3-0.6-4.7-2.9-5.4c-2.3-0.7-4.7,0.6-5.4,2.9c-0.7,2.3,0.6,4.7,2.9,5.4
			C-67.3,513.2-64.9,511.9-64.2,509.6z"/>
		<path class="st5" d="M-68.7,506.4c-0.1,0.5-0.6,0.7-1.1,0.6c-0.5-0.1-0.7-0.6-0.6-1.1c0.1-0.5,0.6-0.7,1.1-0.6
			C-68.8,505.5-68.5,506-68.7,506.4z"/>
		<g class="st7">
			<path class="st8" d="M-67,503.2l-2.8-1.1c-2.9-1.2-4.8-4.1-4.5-7.2l0.2-3l2.8,1.1c2.9,1.2,4.8,4.1,4.5,7.2L-67,503.2z"/>
			<g class="st9">
				<defs>
					<path id="SVGID_1_" d="M-67,503.2l-2.8-1.1c-2.9-1.2-4.8-4.1-4.5-7.2l0.2-3l2.8,1.1c2.9,1.2,4.8,4.1,4.5,7.2L-67,503.2z"/>
				</defs>
				<clipPath id="SVGID_2_">
					<use xlink:href="#SVGID_1_"  style="overflow:visible;"/>
				</clipPath>
				
					<rect x="-78.7" y="496.7" transform="matrix(-0.5287 -0.8488 0.8488 -0.5287 -532.9155 700.7141)" class="st10" width="13.5" height="3.2"/>
			</g>
		</g>
		<g>
			<g>
				<path class="st11" d="M-65.7,503.3l2.7,1.2c2.9,1.3,6.2,0.5,8.3-1.9l1.9-2.3l-2.7-1.2c-2.9-1.3-6.2-0.5-8.3,1.9L-65.7,503.3z"/>
				<g>
					<defs>
						<path id="SVGID_3_" d="M-65.7,503.3l2.7,1.2c2.9,1.3,6.2,0.5,8.3-1.9l1.9-2.3l-2.7-1.2c-2.9-1.3-6.2-0.5-8.3,1.9L-65.7,503.3z
							"/>
					</defs>
					<clipPath id="SVGID_4_">
						<use xlink:href="#SVGID_3_"  style="overflow:visible;"/>
					</clipPath>
					
						<rect x="-65.5" y="501.8" transform="matrix(0.9755 -0.2202 0.2202 0.9755 -112.2768 -0.5812)" class="st12" width="13.5" height="3.2"/>
				</g>
			</g>
		</g>
	</g>
	<g>
		<path class="st3" d="M-112.9,461.6c0-0.5-0.3-0.9-0.8-0.9c-0.1,0-0.2,0-0.3,0.1c-0.1,0.1-1.2,0.5-2.2,1.9
			c-1.3,1.8-2.1,4.4-2.2,7.7l1.7,0.1c0.1-2,0.5-4.7,1.8-6.6c0.8-1.1,1.5-1.4,1.5-1.4l0,0C-113.1,462.2-112.9,461.9-112.9,461.6z"/>
		<path class="st4" d="M-114.5,497.8c0.1-2.4-1.7-4.4-4.1-4.5c-2.4-0.1-4.4,1.7-4.5,4.1c-0.1,2.4,1.7,4.4,4.1,4.5
			C-116.7,502.1-114.6,500.2-114.5,497.8z"/>
		<path class="st5" d="M-119.6,495.9c0,0.5-0.4,0.8-0.9,0.8c-0.5,0-0.8-0.4-0.8-0.9c0-0.5,0.4-0.8,0.9-0.8
			C-120,495-119.6,495.4-119.6,495.9z"/>
		<path class="st6" d="M-110.8,491.9c0.1-2.4-1.7-4.4-4.1-4.5c-2.4-0.1-4.4,1.7-4.5,4.1c-0.1,2.4,1.7,4.4,4.1,4.5
			C-112.9,496.2-110.9,494.3-110.8,491.9z"/>
		<path class="st5" d="M-115.9,490c0,0.5-0.4,0.8-0.9,0.8c-0.5,0-0.8-0.4-0.8-0.9c0-0.5,0.4-0.8,0.9-0.8
			C-116.2,489.1-115.9,489.5-115.9,490z"/>
		<path class="st6" d="M-117.7,491.6c0.1-2.4-1.7-4.4-4.1-4.5c-2.4-0.1-4.4,1.7-4.5,4.1c-0.1,2.4,1.7,4.4,4.1,4.5
			C-119.8,495.9-117.8,494-117.7,491.6z"/>
		<path class="st5" d="M-122.8,489.7c0,0.5-0.4,0.8-0.9,0.8c-0.5,0-0.8-0.4-0.8-0.9c0-0.5,0.4-0.8,0.9-0.8S-122.8,489.2-122.8,489.7
			z"/>
		<path class="st6" d="M-124.1,479.2c0.1-2.4-1.7-4.4-4.1-4.5c-2.4-0.1-4.4,1.7-4.5,4.1c-0.1,2.4,1.7,4.4,4.1,4.5
			C-126.2,483.4-124.2,481.6-124.1,479.2z"/>
		<path class="st5" d="M-129.2,477.3c0,0.5-0.4,0.8-0.9,0.8c-0.5,0-0.8-0.4-0.8-0.9c0-0.5,0.4-0.8,0.9-0.8
			C-129.5,476.4-129.1,476.8-129.2,477.3z"/>
		<path class="st6" d="M-103.3,480.2c0.1-2.4-1.7-4.4-4.1-4.5c-2.4-0.1-4.4,1.7-4.5,4.1c-0.1,2.4,1.7,4.4,4.1,4.5
			C-105.5,484.4-103.4,482.5-103.3,480.2z"/>
		<path class="st5" d="M-108.4,478.2c0,0.5-0.4,0.8-0.9,0.8c-0.5,0-0.8-0.4-0.8-0.9c0-0.5,0.4-0.8,0.9-0.8
			C-108.8,477.3-108.4,477.7-108.4,478.2z"/>
		<path class="st4" d="M-107.1,486.1c0.1-2.4-1.7-4.4-4.1-4.5c-2.4-0.1-4.4,1.7-4.5,4.1c-0.1,2.4,1.7,4.4,4.1,4.5
			C-109.2,490.3-107.2,488.4-107.1,486.1z"/>
		<path class="st5" d="M-112.2,484.1c0,0.5-0.4,0.8-0.9,0.8c-0.5,0-0.8-0.4-0.8-0.9c0-0.5,0.4-0.8,0.9-0.8
			C-112.5,483.2-112.2,483.6-112.2,484.1z"/>
		<path class="st4" d="M-120.9,485.4c0.1-2.4-1.7-4.4-4.1-4.5c-2.4-0.1-4.4,1.7-4.5,4.1c-0.1,2.4,1.7,4.4,4.1,4.5
			C-123,489.7-121,487.8-120.9,485.4z"/>
		<path class="st5" d="M-126,483.5c0,0.5-0.4,0.8-0.9,0.8c-0.5,0-0.8-0.4-0.8-0.9c0-0.5,0.4-0.8,0.9-0.8
			C-126.3,482.6-126,483-126,483.5z"/>
		<path class="st6" d="M-114,485.7c0.1-2.4-1.7-4.4-4.1-4.5c-2.4-0.1-4.4,1.7-4.5,4.1c-0.1,2.4,1.7,4.4,4.1,4.5
			C-116.1,490-114.1,488.1-114,485.7z"/>
		<path class="st5" d="M-119.1,483.8c0,0.5-0.4,0.8-0.9,0.8c-0.5,0-0.8-0.4-0.8-0.9c0-0.5,0.4-0.8,0.9-0.8S-119.1,483.3-119.1,483.8
			z"/>
		<path class="st4" d="M-117.2,479.5c0.1-2.4-1.7-4.4-4.1-4.5c-2.4-0.1-4.4,1.7-4.5,4.1c-0.1,2.4,1.7,4.4,4.1,4.5
			C-119.3,483.8-117.3,481.9-117.2,479.5z"/>
		<path class="st5" d="M-122.3,477.6c0,0.5-0.4,0.8-0.9,0.8c-0.5,0-0.8-0.4-0.8-0.9c0-0.5,0.4-0.8,0.9-0.8
			C-122.6,476.7-122.2,477.1-122.3,477.6z"/>
		<path class="st4" d="M-110.2,479.8c0.1-2.4-1.7-4.4-4.1-4.5c-2.4-0.1-4.4,1.7-4.5,4.1c-0.1,2.4,1.7,4.4,4.1,4.5
			C-112.4,484.1-110.4,482.2-110.2,479.8z"/>
		<path class="st5" d="M-115.4,477.9c0,0.5-0.4,0.8-0.9,0.8c-0.5,0-0.8-0.4-0.8-0.9c0-0.5,0.4-0.8,0.9-0.8
			C-115.7,477-115.3,477.4-115.4,477.9z"/>
		<path class="st4" d="M-120.3,473.3c0.1-2.4-1.7-4.4-4.1-4.5c-2.4-0.1-4.4,1.7-4.5,4.1c-0.1,2.4,1.7,4.4,4.1,4.5
			C-122.5,477.6-120.4,475.7-120.3,473.3z"/>
		<path class="st5" d="M-125.4,471.4c0,0.5-0.4,0.8-0.9,0.8c-0.5,0-0.8-0.4-0.8-0.9c0-0.5,0.4-0.8,0.9-0.8
			C-125.8,470.5-125.4,470.9-125.4,471.4z"/>
		<path class="st4" d="M-106.5,474c0.1-2.4-1.7-4.4-4.1-4.5c-2.4-0.1-4.4,1.7-4.5,4.1c-0.1,2.4,1.7,4.4,4.1,4.5
			C-108.6,478.2-106.6,476.3-106.5,474z"/>
		<path class="st5" d="M-111.6,472c0,0.5-0.4,0.8-0.9,0.8c-0.5,0-0.8-0.4-0.8-0.9c0-0.5,0.4-0.8,0.9-0.8
			C-112,471.1-111.6,471.5-111.6,472z"/>
		<path class="st6" d="M-113.4,473.6c0.1-2.4-1.7-4.4-4.1-4.5c-2.4-0.1-4.4,1.7-4.5,4.1c-0.1,2.4,1.7,4.4,4.1,4.5
			C-115.6,477.9-113.5,476-113.4,473.6z"/>
		<path class="st5" d="M-118.5,471.7c0,0.5-0.4,0.8-0.9,0.8c-0.5,0-0.8-0.4-0.8-0.9s0.4-0.8,0.9-0.8
			C-118.9,470.8-118.5,471.2-118.5,471.7z"/>
		<g class="st7">
			<path class="st8" d="M-117.7,468.1l-3-0.4c-3.1-0.4-5.6-2.8-6.1-5.9l-0.5-2.9l3,0.4c3.1,0.4,5.6,2.8,6.1,5.9L-117.7,468.1z"/>
			<g class="st9">
				<defs>
					<path id="SVGID_5_" d="M-117.7,468.1l-3-0.4c-3.1-0.4-5.6-2.8-6.1-5.9l-0.5-2.9l3,0.4c3.1,0.4,5.6,2.8,6.1,5.9L-117.7,468.1z"
						/>
				</defs>
				<clipPath id="SVGID_6_">
					<use xlink:href="#SVGID_5_"  style="overflow:visible;"/>
				</clipPath>
				
					<rect x="-130.4" y="463" transform="matrix(-0.7198 -0.6942 0.6942 -0.7198 -535.1932 713.1898)" class="st13" width="13.5" height="3.2"/>
			</g>
		</g>
		<g>
			<g>
				<path class="st11" d="M-116.4,467.9l2.9,0.5c3.1,0.5,6.2-1,7.6-3.8l1.3-2.7l-2.9-0.5c-3.1-0.5-6.2,1-7.6,3.8L-116.4,467.9z"/>
				<g>
					<defs>
						<path id="SVGID_7_" d="M-116.4,467.9l2.9,0.5c3.1,0.5,6.2-1,7.6-3.8l1.3-2.7l-2.9-0.5c-3.1-0.5-6.2,1-7.6,3.8L-116.4,467.9z"
							/>
					</defs>
					<clipPath id="SVGID_8_">
						<use xlink:href="#SVGID_7_"  style="overflow:visible;"/>
					</clipPath>
					
						<rect x="-116.4" y="464.7" transform="matrix(0.8923 -0.4515 0.4515 0.8923 -222.3599 0.734)" class="st14" width="13.5" height="3.2"/>
				</g>
			</g>
		</g>
	</g>
	<g>
		<path class="st3" d="M-21.7,489.1c0.2-0.4,0-0.9-0.5-1.1c-0.1,0-0.2-0.1-0.3-0.1c-0.2,0-1.3,0-2.7,1c-1.9,1.2-3.5,3.4-4.8,6.4
			l1.6,0.7c0.8-1.8,2.1-4.2,4-5.6c1.1-0.8,1.9-0.8,1.9-0.8l0,0C-22.2,489.6-21.8,489.4-21.7,489.1z"/>
		<path class="st4" d="M-36,522.5c0.9-2.2-0.1-4.7-2.3-5.7c-2.2-0.9-4.7,0.1-5.7,2.3c-0.9,2.2,0.1,4.7,2.3,5.7
			C-39.5,525.7-37,524.7-36,522.5z"/>
		<path class="st5" d="M-40.1,518.8c-0.2,0.4-0.7,0.6-1.1,0.5c-0.4-0.2-0.6-0.7-0.5-1.1c0.2-0.4,0.7-0.6,1.1-0.5
			C-40.1,517.9-39.9,518.4-40.1,518.8z"/>
		<path class="st6" d="M-30.5,518.3c0.9-2.2-0.1-4.7-2.3-5.7c-2.2-0.9-4.7,0.1-5.7,2.3c-0.9,2.2,0.1,4.7,2.3,5.7
			C-33.9,521.5-31.4,520.5-30.5,518.3z"/>
		<path class="st5" d="M-34.5,514.6c-0.2,0.4-0.7,0.6-1.1,0.5c-0.4-0.2-0.6-0.7-0.5-1.1c0.2-0.4,0.7-0.6,1.1-0.5
			C-34.6,513.7-34.4,514.2-34.5,514.6z"/>
		<path class="st6" d="M-36.8,515.5c0.9-2.2-0.1-4.7-2.3-5.7c-2.2-0.9-4.7,0.1-5.7,2.3c-0.9,2.2,0.1,4.7,2.3,5.7
			C-40.3,518.8-37.8,517.7-36.8,515.5z"/>
		<path class="st5" d="M-40.9,511.9c-0.2,0.4-0.7,0.6-1.1,0.5c-0.4-0.2-0.6-0.7-0.5-1.1c0.2-0.4,0.7-0.6,1.1-0.5
			C-40.9,511-40.7,511.5-40.9,511.9z"/>
		<path class="st6" d="M-38.4,501.7c0.9-2.2-0.1-4.7-2.3-5.7c-2.2-0.9-4.7,0.1-5.7,2.3c-0.9,2.2,0.1,4.7,2.3,5.7
			C-41.9,504.9-39.3,503.9-38.4,501.7z"/>
		<path class="st5" d="M-42.5,498.1c-0.2,0.4-0.7,0.6-1.1,0.5c-0.4-0.2-0.6-0.7-0.5-1.1c0.2-0.4,0.7-0.6,1.1-0.5
			C-42.5,497.1-42.3,497.6-42.5,498.1z"/>
		<path class="st6" d="M-19.3,509.9c0.9-2.2-0.1-4.7-2.3-5.7c-2.2-0.9-4.7,0.1-5.7,2.3c-0.9,2.2,0.1,4.7,2.3,5.7
			C-22.8,513.1-20.3,512.1-19.3,509.9z"/>
		<path class="st5" d="M-23.4,506.2c-0.2,0.4-0.7,0.6-1.1,0.5c-0.4-0.2-0.6-0.7-0.5-1.1c0.2-0.4,0.7-0.6,1.1-0.5
			S-23.2,505.8-23.4,506.2z"/>
		<path class="st4" d="M-24.9,514.1c0.9-2.2-0.1-4.7-2.3-5.7c-2.2-0.9-4.7,0.1-5.7,2.3c-0.9,2.2,0.1,4.7,2.3,5.7
			C-28.4,517.3-25.8,516.3-24.9,514.1z"/>
		<path class="st5" d="M-29,510.4c-0.2,0.4-0.7,0.6-1.1,0.5c-0.4-0.2-0.6-0.7-0.5-1.1c0.2-0.4,0.7-0.6,1.1-0.5
			C-29,509.5-28.8,510-29,510.4z"/>
		<path class="st4" d="M-37.6,508.6c0.9-2.2-0.1-4.7-2.3-5.7c-2.2-0.9-4.7,0.1-5.7,2.3c-0.9,2.2,0.1,4.7,2.3,5.7
			C-41.1,511.8-38.5,510.8-37.6,508.6z"/>
		<path class="st5" d="M-41.7,505c-0.2,0.4-0.7,0.6-1.1,0.5c-0.4-0.2-0.6-0.7-0.5-1.1c0.2-0.4,0.7-0.6,1.1-0.5
			C-41.7,504-41.5,504.5-41.7,505z"/>
		<path class="st6" d="M-31.3,511.3c0.9-2.2-0.1-4.7-2.3-5.7c-2.2-0.9-4.7,0.1-5.7,2.3c-0.9,2.2,0.1,4.7,2.3,5.7
			C-34.7,514.6-32.2,513.5-31.3,511.3z"/>
		<path class="st5" d="M-35.3,507.7c-0.2,0.4-0.7,0.6-1.1,0.5c-0.4-0.2-0.6-0.7-0.5-1.1c0.2-0.4,0.7-0.6,1.1-0.5
			C-35.4,506.8-35.1,507.3-35.3,507.7z"/>
		<path class="st4" d="M-32,504.4c0.9-2.2-0.1-4.7-2.3-5.7c-2.2-0.9-4.7,0.1-5.7,2.3c-0.9,2.2,0.1,4.7,2.3,5.7
			C-35.5,507.6-33,506.6-32,504.4z"/>
		<path class="st5" d="M-36.1,500.8c-0.2,0.4-0.7,0.6-1.1,0.5c-0.4-0.2-0.6-0.7-0.5-1.1c0.2-0.4,0.7-0.6,1.1-0.5
			C-36.1,499.8-35.9,500.3-36.1,500.8z"/>
		<path class="st4" d="M-25.7,507.1c0.9-2.2-0.1-4.7-2.3-5.7c-2.2-0.9-4.7,0.1-5.7,2.3c-0.9,2.2,0.1,4.7,2.3,5.7
			C-29.2,510.4-26.6,509.3-25.7,507.1z"/>
		<path class="st5" d="M-29.8,503.5c-0.2,0.4-0.7,0.6-1.1,0.5c-0.4-0.2-0.6-0.7-0.5-1.1c0.2-0.4,0.7-0.6,1.1-0.5
			C-29.8,502.6-29.6,503.1-29.8,503.5z"/>
		<path class="st4" d="M-32.8,497.5c0.9-2.2-0.1-4.7-2.3-5.7s-4.7,0.1-5.7,2.3c-0.9,2.2,0.1,4.7,2.3,5.7S-33.8,499.7-32.8,497.5z"/>
		<path class="st5" d="M-36.9,493.9c-0.2,0.4-0.7,0.6-1.1,0.5c-0.4-0.2-0.6-0.7-0.5-1.1c0.2-0.4,0.7-0.6,1.1-0.5
			C-36.9,492.9-36.7,493.4-36.9,493.9z"/>
		<path class="st4" d="M-20.1,503c0.9-2.2-0.1-4.7-2.3-5.7c-2.2-0.9-4.7,0.1-5.7,2.3c-0.9,2.2,0.1,4.7,2.3,5.7
			C-23.6,506.2-21.1,505.1-20.1,503z"/>
		<path class="st5" d="M-24.2,499.3c-0.2,0.4-0.7,0.6-1.1,0.5c-0.4-0.2-0.6-0.7-0.5-1.1c0.2-0.4,0.7-0.6,1.1-0.5
			C-24.2,498.4-24,498.9-24.2,499.3z"/>
		<path class="st6" d="M-26.5,500.2c0.9-2.2-0.1-4.7-2.3-5.7c-2.2-0.9-4.7,0.1-5.7,2.3c-0.9,2.2,0.1,4.7,2.3,5.7
			C-30,503.4-27.4,502.4-26.5,500.2z"/>
		<path class="st5" d="M-30.6,496.6c-0.2,0.4-0.7,0.6-1.1,0.5c-0.4-0.2-0.6-0.7-0.5-1.1c0.2-0.4,0.7-0.6,1.1-0.5
			S-30.4,496.1-30.6,496.6z"/>
		<g class="st7">
			<path class="st8" d="M-28.5,493.6l-2.6-1.4c-2.8-1.5-4.3-4.6-3.7-7.7l0.6-2.9l2.6,1.4c2.8,1.5,4.3,4.6,3.7,7.7L-28.5,493.6z"/>
			<g class="st9">
				<defs>
					<path id="SVGID_9_" d="M-28.5,493.6l-2.6-1.4c-2.8-1.5-4.3-4.6-3.7-7.7l0.6-2.9l2.6,1.4c2.8,1.5,4.3,4.6,3.7,7.7L-28.5,493.6z"
						/>
				</defs>
				<clipPath id="SVGID_10_">
					<use xlink:href="#SVGID_9_"  style="overflow:visible;"/>
				</clipPath>
				
					<rect x="-39.6" y="486.6" transform="matrix(-0.4291 -0.9033 0.9033 -0.4291 -487.9062 667.9238)" class="st15" width="13.5" height="3.2"/>
			</g>
		</g>
		<g>
			<g>
				<path class="st11" d="M-27.2,493.9l2.6,1.5c2.7,1.6,6.2,1.2,8.5-0.9l2.2-2l-2.6-1.5c-2.7-1.6-6.2-1.2-8.5,0.9L-27.2,493.9z"/>
				<g>
					<defs>
						<path id="SVGID_11_" d="M-27.2,493.9l2.6,1.5c2.7,1.6,6.2,1.2,8.5-0.9l2.2-2l-2.6-1.5c-2.7-1.6-6.2-1.2-8.5,0.9L-27.2,493.9z"
							/>
					</defs>
					<clipPath id="SVGID_12_">
						<use xlink:href="#SVGID_11_"  style="overflow:visible;"/>
					</clipPath>
					
						<rect x="-27.1" y="493.1" transform="matrix(0.9941 -0.1082 0.1082 0.9941 -53.6385 0.7016)" class="st16" width="13.5" height="3.2"/>
				</g>
			</g>
		</g>
	</g>
	<g>
		<path class="st3" d="M11.4,517.4c-0.1-0.5-0.6-0.8-1-0.6c-0.1,0-0.2,0.1-0.3,0.1c-0.1,0.1-1,0.8-1.6,2.4c-0.8,2.1-0.8,4.8,0,8
			l1.7-0.4c-0.5-1.9-0.8-4.7-0.1-6.9c0.4-1.3,1.1-1.8,1.1-1.8l0,0C11.3,518.1,11.5,517.8,11.4,517.4z"/>
		<path class="st4" d="M19.7,552.8c-0.5-2.3-2.9-3.8-5.2-3.2c-2.3,0.5-3.8,2.9-3.2,5.2c0.5,2.3,2.9,3.8,5.2,3.2
			C18.8,557.4,20.2,555.1,19.7,552.8z"/>
		<path class="st5" d="M14.2,552.3c0.1,0.5-0.2,0.9-0.6,1c-0.5,0.1-0.9-0.2-1-0.6c-0.1-0.5,0.2-0.9,0.6-1
			C13.7,551.5,14.1,551.8,14.2,552.3z"/>
		<path class="st6" d="M21.7,546.1c-0.5-2.3-2.9-3.8-5.2-3.2c-2.3,0.5-3.8,2.9-3.2,5.2c0.5,2.3,2.9,3.8,5.2,3.2
			C20.8,550.8,22.2,548.4,21.7,546.1z"/>
		<path class="st5" d="M16.2,545.6c0.1,0.5-0.2,0.9-0.6,1c-0.5,0.1-0.9-0.2-1-0.6c-0.1-0.5,0.2-0.9,0.6-1
			C15.7,544.9,16.1,545.1,16.2,545.6z"/>
		<path class="st6" d="M14.9,547.7c-0.5-2.3-2.9-3.8-5.2-3.2c-2.3,0.5-3.8,2.9-3.2,5.2c0.5,2.3,2.9,3.8,5.2,3.2
			C14,552.3,15.5,550,14.9,547.7z"/>
		<path class="st5" d="M9.5,547.2c0.1,0.5-0.2,0.9-0.6,1c-0.5,0.1-0.9-0.2-1-0.6c-0.1-0.5,0.2-0.9,0.6-1
			C8.9,546.4,9.4,546.7,9.5,547.2z"/>
		<path class="st6" d="M5.4,537.5c-0.5-2.3-2.9-3.8-5.2-3.2c-2.3,0.5-3.8,2.9-3.2,5.2c0.5,2.3,2.9,3.8,5.2,3.2
			C4.6,542.1,6,539.8,5.4,537.5z"/>
		<path class="st5" d="M0,537c0.1,0.5-0.2,0.9-0.6,1s-0.9-0.2-1-0.6c-0.1-0.5,0.2-0.9,0.6-1C-0.6,536.2-0.1,536.5,0,537z"/>
		<path class="st6" d="M25.7,532.7c-0.5-2.3-2.9-3.8-5.2-3.2c-2.3,0.5-3.8,2.9-3.2,5.2c0.5,2.3,2.9,3.8,5.2,3.2
			C24.8,537.4,26.2,535.1,25.7,532.7z"/>
		<path class="st5" d="M20.2,532.2c0.1,0.5-0.2,0.9-0.6,1c-0.5,0.1-0.9-0.2-1-0.6c-0.1-0.5,0.2-0.9,0.6-1
			C19.6,531.5,20.1,531.8,20.2,532.2z"/>
		<path class="st4" d="M23.7,539.4c-0.5-2.3-2.9-3.8-5.2-3.2c-2.3,0.5-3.8,2.9-3.2,5.2c0.5,2.3,2.9,3.8,5.2,3.2
			C22.8,544.1,24.2,541.7,23.7,539.4z"/>
		<path class="st5" d="M18.2,538.9c0.1,0.5-0.2,0.9-0.6,1c-0.5,0.1-0.9-0.2-1-0.6c-0.1-0.5,0.2-0.9,0.6-1
			C17.6,538.2,18.1,538.5,18.2,538.9z"/>
		<path class="st4" d="M10.2,542.6c-0.5-2.3-2.9-3.8-5.2-3.2c-2.3,0.5-3.8,2.9-3.2,5.2c0.5,2.3,2.9,3.8,5.2,3.2
			C9.3,547.2,10.7,544.9,10.2,542.6z"/>
		<path class="st5" d="M4.8,542.1c0.1,0.5-0.2,0.9-0.6,1c-0.5,0.1-0.9-0.2-1-0.6c-0.1-0.5,0.2-0.9,0.6-1
			C4.2,541.3,4.6,541.6,4.8,542.1z"/>
		<path class="st6" d="M16.9,541c-0.5-2.3-2.9-3.8-5.2-3.2c-2.3,0.5-3.8,2.9-3.2,5.2c0.5,2.3,2.9,3.8,5.2,3.2
			C16,545.7,17.5,543.3,16.9,541z"/>
		<path class="st5" d="M11.5,540.5c0.1,0.5-0.2,0.9-0.6,1c-0.5,0.1-0.9-0.2-1-0.6c-0.1-0.5,0.2-0.9,0.6-1
			C10.9,539.7,11.4,540,11.5,540.5z"/>
		<path class="st4" d="M12.2,535.9c-0.5-2.3-2.9-3.8-5.2-3.2c-2.3,0.5-3.8,2.9-3.2,5.2c0.5,2.3,2.9,3.8,5.2,3.2
			C11.3,540.5,12.7,538.2,12.2,535.9z"/>
		<path class="st5" d="M6.7,535.4c0.1,0.5-0.2,0.9-0.6,1s-0.9-0.2-1-0.6c-0.1-0.5,0.2-0.9,0.6-1C6.2,534.6,6.6,534.9,6.7,535.4z"/>
		<path class="st4" d="M18.9,534.3c-0.5-2.3-2.9-3.8-5.2-3.2c-2.3,0.5-3.8,2.9-3.2,5.2c0.5,2.3,2.9,3.8,5.2,3.2
			C18,539,19.5,536.6,18.9,534.3z"/>
		<path class="st5" d="M13.5,533.8c0.1,0.5-0.2,0.9-0.6,1c-0.5,0.1-0.9-0.2-1-0.6c-0.1-0.5,0.2-0.9,0.6-1
			C12.9,533.1,13.4,533.4,13.5,533.8z"/>
		<path class="st4" d="M7.4,530.8c-0.5-2.3-2.9-3.8-5.2-3.2c-2.3,0.5-3.8,2.9-3.2,5.2c0.5,2.3,2.9,3.8,5.2,3.2S8,533.1,7.4,530.8z"
			/>
		<path class="st5" d="M2,530.3c0.1,0.5-0.2,0.9-0.6,1c-0.5,0.1-0.9-0.2-1-0.6c-0.1-0.5,0.2-0.9,0.6-1C1.4,529.5,1.9,529.8,2,530.3z
			"/>
		<path class="st4" d="M20.9,527.6c-0.5-2.3-2.9-3.8-5.2-3.2c-2.3,0.5-3.8,2.9-3.2,5.2c0.5,2.3,2.9,3.8,5.2,3.2
			C20,532.3,21.4,530,20.9,527.6z"/>
		<path class="st5" d="M15.5,527.1c0.1,0.5-0.2,0.9-0.6,1c-0.5,0.1-0.9-0.2-1-0.6s0.2-0.9,0.6-1C14.9,526.4,15.3,526.7,15.5,527.1z"
			/>
		<path class="st6" d="M14.2,529.2c-0.5-2.3-2.9-3.8-5.2-3.2c-2.3,0.5-3.8,2.9-3.2,5.2c0.5,2.3,2.9,3.8,5.2,3.2
			C13.3,533.9,14.7,531.5,14.2,529.2z"/>
		<path class="st5" d="M8.7,528.7c0.1,0.5-0.2,0.9-0.6,1c-0.5,0.1-0.9-0.2-1-0.6s0.2-0.9,0.6-1C8.1,528,8.6,528.2,8.7,528.7z"/>
		<g class="st7">
			<path class="st8" d="M8.5,525.1l-2.9,0.4c-3.1,0.5-6.2-1.2-7.5-4l-1.3-2.7l2.9-0.4c3.1-0.5,6.2,1.2,7.5,4L8.5,525.1z"/>
			<g class="st9">
				<defs>
					<path id="SVGID_13_" d="M8.5,525.1l-2.9,0.4c-3.1,0.5-6.2-1.2-7.5-4l-1.3-2.7l2.9-0.4c3.1-0.5,6.2,1.2,7.5,4L8.5,525.1z"/>
				</defs>
				<clipPath id="SVGID_14_">
					<use xlink:href="#SVGID_13_"  style="overflow:visible;"/>
				</clipPath>
				
					<rect x="-4.9" y="521.7" transform="matrix(-0.8817 -0.4719 0.4719 -0.8817 -243.4601 985.5488)" class="st17" width="13.5" height="3.2"/>
			</g>
		</g>
		<g>
			<g>
				<path class="st11" d="M9.8,524.5l3-0.3c3.1-0.3,5.7-2.7,6.3-5.8l0.6-2.9l-3,0.3c-3.1,0.3-5.7,2.7-6.3,5.8L9.8,524.5z"/>
				<g>
					<defs>
						<path id="SVGID_15_" d="M9.8,524.5l3-0.3c3.1-0.3,5.7-2.7,6.3-5.8l0.6-2.9l-3,0.3c-3.1,0.3-5.7,2.7-6.3,5.8L9.8,524.5z"/>
					</defs>
					<clipPath id="SVGID_16_">
						<use xlink:href="#SVGID_15_"  style="overflow:visible;"/>
					</clipPath>
					
						<rect x="9.1" y="519.6" transform="matrix(0.7356 -0.6774 0.6774 0.7356 -348.8489 148.5076)" class="st18" width="13.5" height="3.2"/>
				</g>
			</g>
		</g>
	</g>
</g>
<g>
	<g>
		
			<rect x="116.1" y="277.5" transform="matrix(0.5085 -0.8611 0.8611 0.5085 -283.9 296.8301)" class="st0" width="3.8" height="239.1"/>
		<g>
			<path class="st0" d="M9.7,460.5L7.8,460c-1.1-0.3-1.8-1.5-1.5-2.6L20.2,405l21.5-81.6c0.3-1.1,1.5-1.8,2.6-1.5l1.9,0.5
				c1.1,0.3,1.8,1.5,1.5,2.6L12.3,459C12,460.1,10.9,460.8,9.7,460.5z"/>
			<path class="st0" d="M57.6,459.8l-3.5,0.9c-0.7,0.2-1.4-0.2-1.6-0.9L16.6,324.2c-0.2-0.7,0.2-1.4,0.9-1.6l3.5-0.9
				c0.7-0.2,1.4,0.2,1.6,0.9l35.9,135.6C58.7,458.9,58.3,459.6,57.6,459.8z"/>
			<g>
				<g>
					<path class="st1" d="M56.8,382.7c-5.7-4.3-3.7-9.9-2.8-11.7c1.4,1.1,2.1,1.6,4,3.7c-0.4,2.5,1.7,6.4,1.7,6.4
						c-1-2.7-1-4.9-1-5.7c0.1,0.1,2.2,2.7,3.3,3.4c0.3,2.3,2.2,4,2.2,4c0-0.1-0.9-1.1-1.3-3.4c3.1,1.9,5.7,1.4,5.7,1.4
						s-2.5-0.5-5.4-2.3c1.7-0.7,3.1-0.3,3.1-0.4c0,0-2.3-1.2-4-0.2c-1.3-1-2.5-2.7-3.1-3.4c0.1-0.1,1.9-1.1,4.9-0.8
						c0,0-3.9-1.3-5.6,0.1c-1.1-1.3-1.4-1.7-4-3.8c2.5-6,9.3-2.2,11.3,1.7c2.1,4,2.1,5.8,7.9,8.9C69.3,385.7,61.5,386.1,56.8,382.7z
						 M53.7,359.1c-0.6,2.6-1.6,4.6-2.6,6c0,0,0.1,0,0.1,0c7,1.2,4.2-11.1,4.2-11.1s-1.9,2.1-4.1,3.4c-2.6,1.5-4.2,6.4-0.7,7.6
						C51.8,363.5,53,361.6,53.7,359.1z M54,370.9c0,0,0.5-1,0.5-0.9c-2.3-1.8-4-2.4-6.2-2.3c0.7-0.4,1.7-1.3,2.8-2.6
						c-0.2,0-0.3-0.1-0.5-0.1c-1.2,1.5-3,2.3-3.6,2.6c-1.7,0.3-2.6,0.6-4,1c0,0-0.4,1.2,0.7,1.4C44.5,369.2,50.5,367.7,54,370.9z"/>
				</g>
			</g>
			<g>
				<g>
					<path class="st1" d="M-9.1,387c5.8-3.1,5.8-4.9,7.9-8.9c2-3.9,8.8-7.7,11.3-1.7c-2.6,2.1-2.9,2.4-4,3.8
						c-1.7-1.5-5.6-0.1-5.6-0.1c3-0.3,4.8,0.8,4.9,0.8c-0.5,0.6-1.8,2.3-3.1,3.4c-1.8-1-4,0.2-4,0.2c0,0.1,1.4-0.3,3.1,0.4
						c-2.9,1.8-5.4,2.3-5.4,2.3s2.5,0.5,5.7-1.4c-0.4,2.2-1.4,3.3-1.3,3.4c0,0,1.9-1.7,2.2-4c1.1-0.7,3.2-3.2,3.3-3.4
						c0,0.8,0.1,3-1,5.7c0,0,2.1-4,1.7-6.4c1.9-2,2.6-2.5,4-3.7c0.9,1.9,2.9,7.5-2.8,11.7C3.2,392.6-4.6,392.1-9.1,387z M14,371.4
						c3.5-1.1,1.9-6-0.7-7.6c-2.2-1.3-4.1-3.4-4.1-3.4s-2.8,12.3,4.2,11.1c0,0,0.1,0,0.1,0c-1-1.4-2-3.3-2.6-6
						C11.7,368.1,12.9,370,14,371.4z M20.9,376.4c1.1-0.2,0.7-1.4,0.7-1.4c-1.4-0.4-2.3-0.8-4-1c-0.6-0.4-2.4-1.2-3.6-2.6
						c-0.1,0-0.3,0.1-0.5,0.1c1,1.4,2.1,2.2,2.8,2.6c-2.1-0.1-3.9,0.5-6.2,2.3c0,0,0.5,0.9,0.5,0.9
						C14.2,374.1,20.1,375.7,20.9,376.4z"/>
				</g>
			</g>
			<path class="st2" d="M43.3,452.5c0,0,14.1-11.3,10-30.3c-2.7-12.3-15-18-17.2-18.5c-0.3-0.1-1.6-0.3-3.4-1.2
				c-1.2-0.6-2.1-1.2-2.7-1.7c-1.8-1.5-7.1-6.4-8.6-15c-0.4-2.3-0.9-7,1.5-14.8c0.9-3,8.6-30.1,20.3-29.9c2.9,0.1,6,1.7,6.2,3.5
				c0.3,4.5-18.3,15.5-27.9,7c-4.8-4.2-6.2-12.1-3.7-19.6"/>
			<path class="st2" d="M7.2,446.6c8.1,2.7,14.5,2.3,15.7-1.3c0.7-2,0.1-5.9-1.1-8.4c-0.7-1.4-1.5-2.3-2-2.8
				c-1.1-1.2-3.8-4.5-4.7-10.6c-1.6-11.1,4.4-21,4.8-21.7c0.3-0.5,1-1.4,1.8-2.3c9.5-10.9,21.3-2.1,24.3-8.3
				c1.5-3.2-0.5-7.8-1.9-12.9c-2.3-8.8-3.8-22.7,0.6-44.9"/>
			<g>
				<g>
					<path class="st3" d="M45,409.2c-5.7-4.3-3.7-9.9-2.8-11.7c1.4,1.1,2.1,1.6,4,3.7c-0.4,2.5,1.7,6.4,1.7,6.4c-1-2.7-1-4.9-1-5.7
						c0.1,0.1,2.2,2.7,3.3,3.4c0.3,2.3,2.2,4,2.2,4c0-0.1-0.9-1.1-1.3-3.4c3.1,1.9,5.7,1.4,5.7,1.4s-2.5-0.5-5.4-2.3
						c1.7-0.7,3.1-0.3,3.1-0.4c0,0-2.3-1.2-4-0.2c-1.3-1-2.5-2.7-3.1-3.4c0.1-0.1,1.9-1.1,4.9-0.8c0,0-3.9-1.3-5.6,0.1
						c-1.1-1.3-1.4-1.7-4-3.8c2.5-6,9.3-2.2,11.3,1.7c2.1,4,2.1,5.8,7.9,8.9C57.5,412.2,49.7,412.7,45,409.2z M42,385.6
						c-0.6,2.6-1.6,4.6-2.6,6c0,0,0.1,0,0.1,0c7,1.2,4.2-11.1,4.2-11.1s-1.9,2.1-4.1,3.4c-2.6,1.5-4.2,6.4-0.7,7.6
						C40,390.1,41.2,388.2,42,385.6z M42.2,397.5c0,0,0.5-1,0.5-0.9c-2.3-1.8-4-2.4-6.2-2.3c0.7-0.4,1.7-1.3,2.8-2.6
						c-0.2,0-0.3-0.1-0.5-0.1c-1.2,1.5-3,2.3-3.6,2.6c-1.7,0.3-2.6,0.6-4,1c0,0-0.4,1.2,0.7,1.4C32.7,395.8,38.7,394.2,42.2,397.5z"
						/>
				</g>
			</g>
			<g>
				<g>
					<path class="st3" d="M1.4,399c6.5,2.8,5.9,8.7,5.5,10.8c-1.6-0.8-2.4-1.1-4.7-2.6C2,404.7-1,401.3-1,401.3
						c1.6,2.4,2.2,4.6,2.3,5.3c-0.2-0.1-2.8-2.1-4-2.5c-0.8-2.2-3.1-3.4-3.1-3.4c0,0.1,1.1,0.9,2.1,3c-3.5-1.1-5.8,0-5.8,0
						s2.5-0.1,5.7,1c-1.5,1.1-2.9,1.1-2.9,1.1c0,0,2.5,0.6,4-0.7c1.5,0.7,3.1,2.1,3.8,2.5c-0.1,0.1-1.6,1.5-4.6,2
						c0,0,4.1,0.4,5.4-1.4c1.4,1,1.8,1.3,4.8,2.7c-1.1,6.5-8.5,4.3-11.4,1c-3-3.4-3.4-5.2-9.8-6.8C-11.4,399-3.9,396.7,1.4,399z
						 M9.9,421.2c-0.1-2.7,0.4-4.8,1.1-6.4c0,0-0.1,0-0.1,0c-7.1,0.4-1.5,11.8-1.5,11.8s1.4-2.4,3.2-4.3c2.1-2.1,2.5-7.2-1.1-7.5
						C10.8,416.4,10.1,418.6,9.9,421.2z M6.9,409.8c0,0-0.3,1.1-0.3,1c2.6,1.3,4.5,1.4,6.5,0.8c-0.6,0.6-1.4,1.6-2.1,3.2
						c0.2,0,0.3,0,0.5,0c0.8-1.7,2.4-2.9,2.9-3.4c1.6-0.7,2.4-1.2,3.7-2c0,0,0.1-1.3-1-1.2C16.5,409.2,11.1,412.1,6.9,409.8z"/>
				</g>
			</g>
			<path class="st2" d="M40.5,351.5c0,0,4.9,13.2,22.3,21.4c11.2,5.3,20,2.1,21.1,1.2c0.1-0.1,0.8-0.7,2.1-1.1
				c0.9-0.3,1.7-0.4,2.3-0.4c1.9-0.1,7.7-0.2,15.4,3.7c2.1,1,6.1,3.3,12,8.8c2.3,2.1,22.6,20.6,18.6,26.4c-1,1.4-3.4,2.1-5,1.2
				c-3.9-2.2-7.1-17.6,3.1-18c5.1-0.2,12.2,3.4,17.7,8.7"/>
		</g>
	</g>
	<g>
		<path class="st0" d="M171.5,552.2l-1.9-0.5c-1.1-0.3-1.8-1.5-1.5-2.6l13.8-52.4l21.5-81.6c0.3-1.1,1.5-1.8,2.6-1.5l1.9,0.5
			c1.1,0.3,1.8,1.5,1.5,2.6l-35.4,134C173.8,551.8,172.7,552.5,171.5,552.2z"/>
		<path class="st0" d="M219.4,551.5l-3.5,0.9c-0.7,0.2-1.4-0.2-1.6-0.9l-35.9-135.6c-0.2-0.7,0.2-1.4,0.9-1.6l3.5-0.9
			c0.7-0.2,1.4,0.2,1.6,0.9l35.9,135.6C220.5,550.6,220.1,551.3,219.4,551.5z"/>
		<g>
			<g>
				<path class="st1" d="M218.6,474.4c-5.7-4.3-3.7-9.9-2.8-11.7c1.4,1.1,2.1,1.6,4,3.7c-0.4,2.5,1.7,6.4,1.7,6.4
					c-1-2.7-1-4.9-1-5.7c0.1,0.1,2.2,2.7,3.3,3.4c0.3,2.3,2.2,4,2.2,4c0-0.1-0.9-1.1-1.3-3.4c3.1,1.9,5.7,1.4,5.7,1.4
					s-2.5-0.5-5.4-2.3c1.7-0.7,3.1-0.3,3.1-0.4c0,0-2.3-1.2-4-0.2c-1.3-1-2.5-2.7-3.1-3.4c0.1-0.1,1.9-1.1,4.9-0.8
					c0,0-3.9-1.3-5.6,0.1c-1.1-1.3-1.4-1.7-4-3.8c2.5-6,9.3-2.2,11.3,1.7c2.1,4,2.1,5.8,7.9,8.9
					C231.1,477.4,223.3,477.9,218.6,474.4z M215.5,450.8c-0.6,2.6-1.6,4.6-2.6,6c0,0,0.1,0,0.1,0c7,1.2,4.2-11.1,4.2-11.1
					s-1.9,2.1-4.1,3.4c-2.6,1.5-4.2,6.4-0.7,7.6C213.6,455.3,214.7,453.4,215.5,450.8z M215.8,462.7c0,0,0.5-1,0.5-0.9
					c-2.3-1.8-4-2.4-6.2-2.3c0.7-0.4,1.7-1.3,2.8-2.6c-0.2,0-0.3-0.1-0.5-0.1c-1.2,1.5-3,2.3-3.6,2.6c-1.7,0.3-2.6,0.6-4,1
					c0,0-0.4,1.2,0.7,1.4C206.3,460.9,212.3,459.4,215.8,462.7z"/>
			</g>
		</g>
		<g>
			<g>
				<path class="st1" d="M152.7,478.8c5.8-3.1,5.8-4.9,7.9-8.9c2-3.9,8.8-7.7,11.3-1.7c-2.6,2.1-2.9,2.4-4,3.8
					c-1.7-1.5-5.6-0.1-5.6-0.1c3-0.3,4.8,0.8,4.9,0.8c-0.5,0.6-1.8,2.3-3.1,3.4c-1.8-1-4,0.2-4,0.2c0,0.1,1.4-0.3,3.1,0.4
					c-2.9,1.8-5.4,2.3-5.4,2.3s2.5,0.5,5.7-1.4c-0.4,2.2-1.4,3.3-1.3,3.4c0,0,1.9-1.7,2.2-4c1.1-0.7,3.2-3.2,3.3-3.4
					c0,0.8,0.1,3-1,5.7c0,0,2.1-4,1.7-6.4c1.9-2,2.6-2.5,4-3.7c0.9,1.9,2.9,7.5-2.8,11.7C165,484.3,157.2,483.8,152.7,478.8z
					 M175.8,463.1c3.5-1.1,1.9-6-0.7-7.6c-2.2-1.3-4.1-3.4-4.1-3.4s-2.8,12.3,4.2,11.1c0,0,0.1,0,0.1,0c-1-1.4-2-3.3-2.6-6
					C173.5,459.8,174.7,461.7,175.8,463.1z M182.7,468.1c1.1-0.2,0.7-1.4,0.7-1.4c-1.4-0.4-2.3-0.8-4-1c-0.6-0.4-2.4-1.2-3.6-2.6
					c-0.1,0-0.3,0.1-0.5,0.1c1,1.4,2.1,2.2,2.8,2.6c-2.1-0.1-3.9,0.5-6.2,2.3c0,0,0.5,0.9,0.5,0.9
					C176,465.8,181.9,467.4,182.7,468.1z"/>
			</g>
		</g>
		<path class="st2" d="M205.1,544.2c0,0,14.1-11.3,10-30.3c-2.7-12.3-15-18-17.2-18.5c-0.3-0.1-1.6-0.3-3.4-1.2
			c-1.2-0.6-2.1-1.2-2.7-1.7c-1.8-1.5-7.1-6.4-8.6-15c-0.4-2.3-0.9-7,1.5-14.8c0.9-3,8.6-30.1,20.3-29.9c2.9,0.1,6,1.7,6.2,3.5
			c0.3,4.5-18.3,15.5-27.9,7c-4.8-4.2-6.2-12.1-3.7-19.6"/>
		<path class="st2" d="M169,538.3c8.1,2.7,14.5,2.3,15.7-1.3c0.7-2,0.1-5.9-1.1-8.4c-0.7-1.4-1.5-2.3-2-2.8
			c-1.1-1.2-3.8-4.5-4.7-10.6c-1.6-11.1,4.4-21,4.8-21.7c0.3-0.5,1-1.4,1.8-2.3c9.5-10.9,21.3-2.1,24.3-8.3
			c1.5-3.2-0.5-7.8-1.9-12.9c-2.3-8.8-3.8-22.7,0.6-44.9"/>
		<g>
			<g>
				<path class="st3" d="M206.8,500.9c-5.7-4.3-3.7-9.9-2.8-11.7c1.4,1.1,2.1,1.6,4,3.7c-0.4,2.5,1.7,6.4,1.7,6.4
					c-1-2.7-1-4.9-1-5.7c0.1,0.1,2.2,2.7,3.3,3.4c0.3,2.3,2.2,4,2.2,4c0-0.1-0.9-1.1-1.3-3.4c3.1,1.9,5.7,1.4,5.7,1.4
					s-2.5-0.5-5.4-2.3c1.7-0.7,3.1-0.3,3.1-0.4c0,0-2.3-1.2-4-0.2c-1.3-1-2.5-2.7-3.1-3.4c0.1-0.1,1.9-1.1,4.9-0.8
					c0,0-3.9-1.3-5.6,0.1c-1.1-1.3-1.4-1.7-4-3.8c2.5-6,9.3-2.2,11.3,1.7c2.1,4,2.1,5.8,7.9,8.9
					C219.3,503.9,211.5,504.4,206.8,500.9z M203.8,477.3c-0.6,2.6-1.6,4.6-2.6,6c0,0,0.1,0,0.1,0c7,1.2,4.2-11.1,4.2-11.1
					s-1.9,2.1-4.1,3.4c-2.6,1.5-4.2,6.4-0.7,7.6C201.8,481.8,203,479.9,203.8,477.3z M204,489.2c0,0,0.5-1,0.5-0.9
					c-2.3-1.8-4-2.4-6.2-2.3c0.7-0.4,1.7-1.3,2.8-2.6c-0.2,0-0.3-0.1-0.5-0.1c-1.2,1.5-3,2.3-3.6,2.6c-1.7,0.3-2.6,0.6-4,1
					c0,0-0.4,1.2,0.7,1.4C194.5,487.5,200.5,485.9,204,489.2z"/>
			</g>
		</g>
		<g>
			<g>
				<path class="st3" d="M163.2,490.7c6.5,2.8,5.9,8.7,5.5,10.8c-1.6-0.8-2.4-1.1-4.7-2.6c-0.2-2.5-3.2-5.9-3.2-5.9
					c1.6,2.4,2.2,4.6,2.3,5.3c-0.2-0.1-2.8-2.1-4-2.5c-0.8-2.2-3.1-3.4-3.1-3.4c0,0.1,1.1,0.9,2.1,3c-3.5-1.1-5.8,0-5.8,0
					s2.5-0.1,5.7,1c-1.5,1.1-2.9,1.1-2.9,1.1c0,0,2.5,0.6,4-0.7c1.5,0.7,3.1,2.1,3.8,2.5c-0.1,0.1-1.6,1.5-4.6,2
					c0,0,4.1,0.4,5.4-1.4c1.4,1,1.8,1.3,4.8,2.7c-1.1,6.5-8.5,4.3-11.4,1c-3-3.4-3.4-5.2-9.8-6.8
					C150.4,490.8,157.9,488.5,163.2,490.7z M171.7,513c-0.1-2.7,0.4-4.8,1.1-6.4c0,0-0.1,0-0.1,0c-7.1,0.4-1.5,11.8-1.5,11.8
					s1.4-2.4,3.2-4.3c2.1-2.1,2.5-7.2-1.1-7.5C172.6,508.2,171.9,510.3,171.7,513z M168.7,501.5c0,0-0.3,1.1-0.3,1
					c2.6,1.3,4.5,1.4,6.5,0.8c-0.6,0.6-1.4,1.6-2.1,3.2c0.2,0,0.3,0,0.5,0c0.8-1.7,2.4-2.9,2.9-3.4c1.6-0.7,2.4-1.2,3.7-2
					c0,0,0.1-1.3-1-1.2C178.3,500.9,172.9,503.8,168.7,501.5z"/>
			</g>
		</g>
	</g>
	<path class="st2" d="M85.1,377.5c0,0,4.9,13.2,22.3,21.4c11.2,5.3,20,2.1,21.1,1.2c0.1-0.1,0.8-0.7,2.1-1.1
		c0.9-0.3,1.7-0.4,2.3-0.4c1.9-0.1,7.7-0.2,15.4,3.7c2.1,1,6.1,3.3,12,8.8c2.3,2.1,22.6,20.6,18.6,26.4c-1,1.4-3.4,2.1-5,1.2
		c-3.9-2.2-7.1-17.6,3.1-18c5.1-0.2,12.2,3.4,17.7,8.7"/>
	<path class="st2" d="M59.4,362.6c0,0,4.9,13.2,22.3,21.4c11.2,5.3,20,2.1,21.1,1.2c0.1-0.1,0.8-0.7,2.1-1.1
		c0.9-0.3,1.7-0.4,2.3-0.4c1.9-0.1,7.7-0.2,15.4,3.7c2.1,1,6.1,3.3,12,8.8c2.3,2.1,22.6,20.6,18.6,26.4c-1,1.4-3.4,2.1-5,1.2
		c-3.9-2.2-7.1-17.6,3.1-18c5.1-0.2,12.2,3.4,17.7,8.7"/>
	<path class="st2" d="M122.2,414.8c4.9-7,6.4-13.2,3.3-15.4c-1.7-1.2-5.6-1.8-8.3-1.4c-1.6,0.2-2.6,0.7-3.2,1.1
		c-1.4,0.7-5.4,2.3-11.5,1.4c-11.1-1.7-18.9-10.2-19.4-10.8c-0.4-0.5-1-1.3-1.7-2.4c-7.7-12.3,4.1-21.1-0.9-25.6
		c-2.6-2.3-7.6-1.8-12.9-2c-9.1-0.3-22.8-2.9-42.8-13.5"/>
	<g>
		<g>
			<path class="st1" d="M74.3,372.8c-5.7-4.3-3.7-9.9-2.8-11.7c1.4,1.1,2.1,1.6,4,3.7c-0.4,2.5,1.7,6.4,1.7,6.4c-1-2.7-1-4.9-1-5.7
				c0.1,0.1,2.2,2.7,3.3,3.4c0.3,2.3,2.2,4,2.2,4c0-0.1-0.9-1.1-1.3-3.4c3.1,1.9,5.7,1.4,5.7,1.4s-2.5-0.5-5.4-2.3
				c1.7-0.7,3.1-0.3,3.1-0.4c0,0-2.3-1.2-4-0.2c-1.3-1-2.5-2.7-3.1-3.4c0.1-0.1,1.9-1.1,4.9-0.8c0,0-3.9-1.3-5.6,0.1
				c-1.1-1.3-1.4-1.7-4-3.8c2.5-6,9.3-2.2,11.3,1.7c2.1,4,2.1,5.8,7.9,8.9C86.8,375.8,79,376.3,74.3,372.8z M71.2,349.2
				c-0.6,2.6-1.6,4.6-2.6,6c0,0,0.1,0,0.1,0c7,1.2,4.2-11.1,4.2-11.1s-1.9,2.1-4.1,3.4c-2.6,1.5-4.2,6.4-0.7,7.6
				C69.3,353.7,70.5,351.8,71.2,349.2z M71.5,361.1c0,0,0.5-1,0.5-0.9c-2.3-1.8-4-2.4-6.2-2.3c0.7-0.4,1.7-1.3,2.8-2.6
				c-0.2,0-0.3-0.1-0.5-0.1c-1.2,1.5-3,2.3-3.6,2.6c-1.7,0.3-2.6,0.6-4,1c0,0-0.4,1.2,0.7,1.4C62,359.4,68,357.8,71.5,361.1z"/>
		</g>
	</g>
	<g>
		<g>
			<path class="st1" d="M109.3,398.1c-5.7-4.3-3.7-9.9-2.8-11.7c1.4,1.1,2.1,1.6,4,3.7c-0.4,2.5,1.7,6.4,1.7,6.4c-1-2.7-1-4.9-1-5.7
				c0.1,0.1,2.2,2.7,3.3,3.4c0.3,2.3,2.2,4,2.2,4c0-0.1-0.9-1.1-1.3-3.4c3.1,1.9,5.7,1.4,5.7,1.4s-2.5-0.5-5.4-2.3
				c1.7-0.7,3.1-0.3,3.1-0.4c0,0-2.3-1.2-4-0.2c-1.3-1-2.5-2.7-3.1-3.4c0.1-0.1,1.9-1.1,4.9-0.8c0,0-3.9-1.3-5.6,0.1
				c-1.1-1.3-1.4-1.7-4-3.8c2.5-6,9.3-2.2,11.3,1.7c2.1,4,2.1,5.8,7.9,8.9C121.7,401.1,113.9,401.6,109.3,398.1z M106.2,374.5
				c-0.6,2.6-1.6,4.6-2.6,6c0,0,0.1,0,0.1,0c7,1.2,4.2-11.1,4.2-11.1s-1.9,2.1-4.1,3.4c-2.6,1.5-4.2,6.4-0.7,7.6
				C104.2,379,105.4,377.1,106.2,374.5z M106.5,386.4c0,0,0.5-1,0.5-0.9c-2.3-1.8-4-2.4-6.2-2.3c0.7-0.4,1.7-1.3,2.8-2.6
				c-0.2,0-0.3-0.1-0.5-0.1c-1.2,1.5-3,2.3-3.6,2.6c-1.7,0.3-2.6,0.6-4,1c0,0-0.4,1.2,0.7,1.4C97,384.7,102.9,383.1,106.5,386.4z"/>
		</g>
	</g>
	<g>
		<g>
			<path class="st1" d="M154.8,401.5c-7.1,0.4-9.2-5.2-9.7-7.2c1.8,0,2.7-0.1,5.4,0.3c1.3,2.2,5.4,3.9,5.4,3.9
				c-2.5-1.4-3.9-3.1-4.4-3.8c0.2,0,3.4,0.6,4.7,0.5c1.7,1.6,4.3,1.7,4.3,1.7c0-0.1-1.4-0.3-3.2-1.7c3.6-0.6,5.2-2.6,5.2-2.6
				s-2.2,1.2-5.6,1.7c0.9-1.7,2.1-2.2,2.1-2.3c0,0-2.5,0.5-3.2,2.4c-1.6,0-3.7-0.5-4.5-0.6c0-0.1,0.8-2.1,3.2-3.8
				c0,0-3.9,1.5-4.2,3.7c-1.7-0.3-2.2-0.4-5.5-0.3c-1.9-6.3,5.7-7.7,9.8-6c4.2,1.7,5.3,3.2,11.8,1.8
				C166.2,395.8,160.6,401.2,154.8,401.5z M137.3,385.3c1.3,2.4,1.7,4.5,1.8,6.2c0,0,0.1,0,0.1-0.1c6.2-3.5-3.9-11.2-3.9-11.2
				s-0.2,2.8-1,5.2c-1,2.8,0.9,7.6,4.3,6.2C138.7,390,138.3,387.8,137.3,385.3z M145.1,394.2c0,0-0.2-1.1-0.2-1.1
				c-2.9,0-4.7,0.7-6.2,2.2c0.2-0.8,0.5-2.1,0.4-3.8c-0.1,0.1-0.3,0.1-0.4,0.2c0,1.9-0.9,3.7-1.1,4.3c-1.2,1.3-1.6,2.1-2.4,3.4
				c0,0,0.5,1.2,1.4,0.6C136.7,399,140.3,394,145.1,394.2z"/>
		</g>
	</g>
	<g>
		<g>
			<path class="st3" d="M178.3,428.1c-5.7-4.3-3.7-9.9-2.8-11.7c1.4,1.1,2.1,1.6,4,3.7c-0.4,2.5,1.7,6.4,1.7,6.4c-1-2.7-1-4.9-1-5.7
				c0.1,0.1,2.2,2.7,3.3,3.4c0.3,2.3,2.2,4,2.2,4c0-0.1-0.9-1.1-1.3-3.4c3.1,1.9,5.7,1.4,5.7,1.4s-2.5-0.5-5.4-2.3
				c1.7-0.7,3.1-0.3,3.1-0.4c0,0-2.3-1.2-4-0.2c-1.3-1-2.5-2.7-3.1-3.4c0.1-0.1,1.9-1.1,4.9-0.8c0,0-3.9-1.3-5.6,0.1
				c-1.1-1.3-1.4-1.7-4-3.8c2.5-6,9.3-2.2,11.3,1.7c2.1,4,2.1,5.8,7.9,8.9C190.8,431,183,431.5,178.3,428.1z M175.3,404.5
				c-0.6,2.6-1.6,4.6-2.6,6c0,0,0.1,0,0.1,0c7,1.2,4.2-11.1,4.2-11.1s-1.9,2.1-4.1,3.4c-2.6,1.5-4.2,6.4-0.7,7.6
				C173.3,408.9,174.5,407,175.3,404.5z M175.5,416.3c0,0,0.5-1,0.5-0.9c-2.3-1.8-4-2.4-6.2-2.3c0.7-0.4,1.7-1.3,2.8-2.6
				c-0.2,0-0.3-0.1-0.5-0.1c-1.2,1.5-3,2.3-3.6,2.6c-1.7,0.3-2.6,0.6-4,1c0,0-0.4,1.2,0.7,1.4C166,414.6,172,413,175.5,416.3z"/>
		</g>
	</g>
	<g>
		<g>
			<path class="st3" d="M85.6,397.4c7.1-0.2,9,5.5,9.5,7.5c-1.8,0-2.7,0-5.4-0.4c-1.2-2.2-5.3-4-5.3-4c2.5,1.5,3.9,3.2,4.3,3.9
				c-0.2,0-3.4-0.7-4.7-0.6c-1.7-1.7-4.2-1.8-4.2-1.8c0,0.1,1.4,0.3,3.1,1.8c-3.6,0.5-5.3,2.4-5.3,2.4s2.2-1.1,5.6-1.5
				c-0.9,1.7-2.2,2.2-2.2,2.3c0,0,2.5-0.5,3.3-2.3c1.6,0,3.7,0.6,4.5,0.7c0,0.1-0.8,2.1-3.3,3.7c0,0,3.9-1.4,4.3-3.6
				c1.7,0.3,2.2,0.4,5.5,0.5c1.7,6.3-5.9,7.5-10,5.7c-4.1-1.9-5.2-3.3-11.7-2.1C73.9,402.8,79.8,397.6,85.6,397.4z M102.6,414.1
				c-1.2-2.4-1.6-4.6-1.7-6.3c0,0-0.1,0-0.1,0c-6.3,3.4,3.6,11.3,3.6,11.3s0.2-2.8,1.2-5.2c1.1-2.8-0.7-7.6-4.2-6.3
				C101.4,409.3,101.6,411.6,102.6,414.1z M95,404.9c0,0,0.2,1.1,0.2,1.1c2.9,0,4.7-0.6,6.3-2c-0.3,0.8-0.6,2.1-0.5,3.8
				c0.2-0.1,0.3-0.1,0.4-0.2c0-1.9,1-3.7,1.2-4.3c1.2-1.3,1.6-2.1,2.5-3.3c0,0-0.5-1.2-1.4-0.7C103.6,400.4,99.9,405.3,95,404.9z"/>
		</g>
	</g>
	<g>
		<g>
			<path class="st3" d="M141.9,428.4c4.1-4.1,8.6-2,10.1-1.2c-1.1,1-1.6,1.5-3.4,2.8c-2-0.6-5.5,0.8-5.5,0.8
				c2.4-0.6,4.2-0.4,4.9-0.3c-0.1,0.1-2.4,1.5-3.1,2.3c-2,0-3.6,1.4-3.6,1.4c0.1,0,1-0.6,2.9-0.7c-1.9,2.3-1.7,4.3-1.7,4.3
				s0.7-1.9,2.4-4c0.4,1.4,0,2.4,0,2.5c0,0,1.2-1.7,0.6-3.2c1-0.9,2.5-1.8,3.1-2.1c0,0.1,0.7,1.6,0.2,3.9c0,0,1.5-2.9,0.4-4.4
				c1.2-0.8,1.5-1,3.5-2.8c4.8,2.5,1,7.5-2.5,8.8c-3.6,1.3-5.1,1.1-8.2,5.4C138.3,437.9,138.6,431.7,141.9,428.4z M161.9,428
				c-2.2-0.7-3.7-1.6-4.7-2.6c0,0,0,0.1,0,0.1c-1.7,5.4,8.8,4.3,8.8,4.3s-1.5-1.7-2.4-3.5c-1-2.2-4.9-3.8-6.2-1.2
				C158.4,426.1,159.9,427.2,161.9,428z M152,427.2c0,0,0.8,0.5,0.7,0.5c1.8-1.6,2.4-3,2.5-4.6c0.3,0.6,0.9,1.5,1.9,2.4
				c0-0.1,0.1-0.2,0.1-0.4c-1.1-1.1-1.6-2.6-1.9-3.1c-0.1-1.4-0.3-2.1-0.5-3.2c0,0-1-0.4-1.2,0.4C154.3,419.9,155.1,424.7,152,427.2
				z"/>
		</g>
	</g>
	<g>
		<g>
			<path class="st3" d="M159.4,441.3c3.2-4.8,8-3.7,9.6-3.2c-0.9,1.2-1.2,1.8-2.8,3.4c-2.1-0.1-5.3,1.9-5.3,1.9
				c2.2-1,4.1-1.2,4.7-1.2c-0.1,0.1-2.1,2-2.6,2.9c-1.9,0.4-3.2,2.1-3.2,2.1c0.1,0,0.9-0.8,2.7-1.3c-1.4,2.6-0.8,4.6-0.8,4.6
				s0.3-2,1.6-4.4c0.7,1.3,0.5,2.4,0.5,2.4c0,0,0.9-1.9-0.1-3.2c0.8-1.1,2.1-2.2,2.6-2.7c0.1,0.1,1,1.4,1,3.8c0,0,0.9-3.2-0.5-4.4
				c1-1,1.3-1.3,2.9-3.5c5.2,1.5,2.4,7.2-0.7,9.1c-3.2,2-4.7,2.1-6.9,7C157.6,451.4,156.8,445.2,159.4,441.3z M178.8,436.9
				c-2.2-0.2-3.9-0.9-5.1-1.6c0,0,0,0.1,0,0.1c-0.6,5.7,9.5,2.4,9.5,2.4s-1.8-1.3-3.1-3c-1.4-1.9-5.6-2.8-6.3,0.1
				C175,435.8,176.6,436.5,178.8,436.9z M169,438.1c0,0,0.8,0.3,0.8,0.3c1.4-1.9,1.8-3.4,1.5-5.1c0.4,0.5,1.2,1.3,2.4,2
				c0-0.1,0-0.3,0.1-0.4c-1.3-0.8-2.1-2.2-2.4-2.6c-0.3-1.4-0.7-2-1.1-3.1c0,0-1-0.2-1.1,0.7C169.8,430.5,171.5,435,169,438.1z"/>
		</g>
	</g>
	<g>
		<path class="st3" d="M101.2,405.4c0.1-0.5-0.1-0.9-0.6-1.1c-0.1,0-0.2,0-0.3,0c-0.1,0-1.2,0.2-2.6,1.3c-1.7,1.4-3.1,3.8-4,6.9
			l1.7,0.5c0.6-1.9,1.6-4.5,3.4-6c1-0.9,1.8-1,1.8-1l0,0C100.8,405.9,101,405.7,101.2,405.4z"/>
		<path class="st4" d="M90.7,440.1c0.7-2.3-0.6-4.7-2.9-5.4c-2.3-0.7-4.7,0.6-5.4,2.9c-0.7,2.3,0.6,4.7,2.9,5.4
			C87.6,443.7,90,442.4,90.7,440.1z"/>
		<path class="st5" d="M86.2,437c-0.1,0.5-0.6,0.7-1.1,0.6s-0.7-0.6-0.6-1.1s0.6-0.7,1.1-0.6C86.1,436.1,86.4,436.5,86.2,437z"/>
		<path class="st6" d="M95.8,435.3c0.7-2.3-0.6-4.7-2.9-5.4c-2.3-0.7-4.7,0.6-5.4,2.9c-0.7,2.3,0.6,4.7,2.9,5.4
			C92.7,438.9,95.1,437.6,95.8,435.3z"/>
		<path class="st5" d="M91.3,432.2c-0.1,0.5-0.6,0.7-1.1,0.6c-0.5-0.1-0.7-0.6-0.6-1.1c0.1-0.5,0.6-0.7,1.1-0.6
			C91.2,431.3,91.4,431.7,91.3,432.2z"/>
		<path class="st6" d="M89.1,433.4c0.7-2.3-0.6-4.7-2.9-5.4c-2.3-0.7-4.7,0.6-5.4,2.9c-0.7,2.3,0.6,4.7,2.9,5.4
			C86,436.9,88.4,435.6,89.1,433.4z"/>
		<path class="st5" d="M84.7,430.2c-0.1,0.5-0.6,0.7-1.1,0.6c-0.5-0.1-0.7-0.6-0.6-1.1c0.1-0.5,0.6-0.7,1.1-0.6
			C84.5,429.3,84.8,429.8,84.7,430.2z"/>
		<path class="st6" d="M86,419.8c0.7-2.3-0.6-4.7-2.9-5.4c-2.3-0.7-4.7,0.6-5.4,2.9c-0.7,2.3,0.6,4.7,2.9,5.4
			C82.9,423.4,85.3,422.1,86,419.8z"/>
		<path class="st5" d="M81.5,416.6c-0.1,0.5-0.6,0.7-1.1,0.6s-0.7-0.6-0.6-1.1c0.1-0.5,0.6-0.7,1.1-0.6
			C81.4,415.7,81.7,416.2,81.5,416.6z"/>
		<path class="st6" d="M105.9,425.7c0.7-2.3-0.6-4.7-2.9-5.4c-2.3-0.7-4.7,0.6-5.4,2.9c-0.7,2.3,0.6,4.7,2.9,5.4
			C102.8,429.3,105.2,428,105.9,425.7z"/>
		<path class="st5" d="M101.4,422.6c-0.1,0.5-0.6,0.7-1.1,0.6c-0.5-0.1-0.7-0.6-0.6-1.1c0.1-0.5,0.6-0.7,1.1-0.6
			S101.5,422.1,101.4,422.6z"/>
		<path class="st4" d="M100.8,430.5c0.7-2.3-0.6-4.7-2.9-5.4c-2.3-0.7-4.7,0.6-5.4,2.9c-0.7,2.3,0.6,4.7,2.9,5.4
			C97.7,434.1,100.1,432.8,100.8,430.5z"/>
		<path class="st5" d="M96.3,427.4c-0.1,0.5-0.6,0.7-1.1,0.6c-0.5-0.1-0.7-0.6-0.6-1.1c0.1-0.5,0.6-0.7,1.1-0.6
			C96.2,426.5,96.5,426.9,96.3,427.4z"/>
		<path class="st4" d="M87.6,426.6c0.7-2.3-0.6-4.7-2.9-5.4c-2.3-0.7-4.7,0.6-5.4,2.9c-0.7,2.3,0.6,4.7,2.9,5.4
			C84.5,430.1,86.9,428.9,87.6,426.6z"/>
		<path class="st5" d="M83.1,423.4c-0.1,0.5-0.6,0.7-1.1,0.6c-0.5-0.1-0.7-0.6-0.6-1.1c0.1-0.5,0.6-0.7,1.1-0.6S83.2,423,83.1,423.4
			z"/>
		<path class="st6" d="M94.2,428.6c0.7-2.3-0.6-4.7-2.9-5.4c-2.3-0.7-4.7,0.6-5.4,2.9c-0.7,2.3,0.6,4.7,2.9,5.4
			C91.1,432.1,93.5,430.8,94.2,428.6z"/>
		<path class="st5" d="M89.7,425.4c-0.1,0.5-0.6,0.7-1.1,0.6c-0.5-0.1-0.7-0.6-0.6-1.1c0.1-0.5,0.6-0.7,1.1-0.6
			C89.6,424.5,89.8,424.9,89.7,425.4z"/>
		<path class="st4" d="M92.6,421.8c0.7-2.3-0.6-4.7-2.9-5.4c-2.3-0.7-4.7,0.6-5.4,2.9c-0.7,2.3,0.6,4.7,2.9,5.4
			C89.5,425.3,91.9,424.1,92.6,421.8z"/>
		<path class="st5" d="M88.1,418.6c-0.1,0.5-0.6,0.7-1.1,0.6c-0.5-0.1-0.7-0.6-0.6-1.1c0.1-0.5,0.6-0.7,1.1-0.6
			C88,417.7,88.3,418.2,88.1,418.6z"/>
		<path class="st4" d="M99.2,423.8c0.7-2.3-0.6-4.7-2.9-5.4c-2.3-0.7-4.7,0.6-5.4,2.9c-0.7,2.3,0.6,4.7,2.9,5.4
			C96.1,427.3,98.5,426,99.2,423.8z"/>
		<path class="st5" d="M94.8,420.6c-0.1,0.5-0.6,0.7-1.1,0.6c-0.5-0.1-0.7-0.6-0.6-1.1c0.1-0.5,0.6-0.7,1.1-0.6
			C94.6,419.7,94.9,420.1,94.8,420.6z"/>
		<path class="st4" d="M91,415c0.7-2.3-0.6-4.7-2.9-5.4c-2.3-0.7-4.7,0.6-5.4,2.9c-0.7,2.3,0.6,4.7,2.9,5.4
			C87.9,418.6,90.4,417.3,91,415z"/>
		<path class="st5" d="M86.6,411.8c-0.1,0.5-0.6,0.7-1.1,0.6c-0.5-0.1-0.7-0.6-0.6-1.1c0.1-0.5,0.6-0.7,1.1-0.6
			C86.5,410.9,86.7,411.4,86.6,411.8z"/>
		<path class="st4" d="M104.3,419c0.7-2.3-0.6-4.7-2.9-5.4c-2.3-0.7-4.7,0.6-5.4,2.9c-0.7,2.3,0.6,4.7,2.9,5.4
			C101.2,422.5,103.6,421.2,104.3,419z"/>
		<path class="st5" d="M99.8,415.8c-0.1,0.5-0.6,0.7-1.1,0.6c-0.5-0.1-0.7-0.6-0.6-1.1c0.1-0.5,0.6-0.7,1.1-0.6
			C99.7,414.9,100,415.3,99.8,415.8z"/>
		<path class="st6" d="M97.7,417c0.7-2.3-0.6-4.7-2.9-5.4c-2.3-0.7-4.7,0.6-5.4,2.9c-0.7,2.3,0.6,4.7,2.9,5.4
			C94.6,420.5,97,419.3,97.7,417z"/>
		<path class="st5" d="M93.2,413.8c-0.1,0.5-0.6,0.7-1.1,0.6c-0.5-0.1-0.7-0.6-0.6-1.1s0.6-0.7,1.1-0.6
			C93.1,412.9,93.3,413.4,93.2,413.8z"/>
		<g class="st7">
			<path class="st8" d="M94.9,410.6l-2.8-1.1c-2.9-1.2-4.8-4.1-4.5-7.2l0.2-3l2.8,1.1c2.9,1.2,4.8,4.1,4.5,7.2L94.9,410.6z"/>
			<g class="st9">
				<defs>
					<path id="SVGID_17_" d="M94.9,410.6l-2.8-1.1c-2.9-1.2-4.8-4.1-4.5-7.2l0.2-3l2.8,1.1c2.9,1.2,4.8,4.1,4.5,7.2L94.9,410.6z"/>
				</defs>
				<clipPath id="SVGID_18_">
					<use xlink:href="#SVGID_17_"  style="overflow:visible;"/>
				</clipPath>
				
					<rect x="83.2" y="404.1" transform="matrix(-0.5287 -0.8488 0.8488 -0.5287 -206.8601 696.54)" class="st19" width="13.5" height="3.2"/>
			</g>
		</g>
		<g>
			<g>
				<path class="st11" d="M96.2,410.7l2.7,1.2c2.9,1.3,6.2,0.5,8.3-1.9l1.9-2.3l-2.7-1.2c-2.9-1.3-6.2-0.5-8.3,1.9L96.2,410.7z"/>
				<g>
					<defs>
						<path id="SVGID_19_" d="M96.2,410.7l2.7,1.2c2.9,1.3,6.2,0.5,8.3-1.9l1.9-2.3l-2.7-1.2c-2.9-1.3-6.2-0.5-8.3,1.9L96.2,410.7z"
							/>
					</defs>
					<clipPath id="SVGID_20_">
						<use xlink:href="#SVGID_19_"  style="overflow:visible;"/>
					</clipPath>
					
						<rect x="96.4" y="409.2" transform="matrix(0.9755 -0.2202 0.2202 0.9755 -87.9151 32.7859)" class="st20" width="13.5" height="3.2"/>
				</g>
			</g>
		</g>
	</g>
	<g>
		<path class="st3" d="M49,368.9c0-0.5-0.3-0.9-0.8-0.9c-0.1,0-0.2,0-0.3,0.1c-0.1,0.1-1.2,0.5-2.2,1.9c-1.3,1.8-2.1,4.4-2.2,7.7
			l1.7,0.1c0.1-2,0.5-4.7,1.8-6.6c0.8-1.1,1.5-1.4,1.5-1.4l0,0C48.7,369.6,49,369.3,49,368.9z"/>
		<path class="st4" d="M47.3,405.2c0.1-2.4-1.7-4.4-4.1-4.5c-2.4-0.1-4.4,1.7-4.5,4.1c-0.1,2.4,1.7,4.4,4.1,4.5
			C45.2,409.5,47.2,407.6,47.3,405.2z"/>
		<path class="st5" d="M42.2,403.3c0,0.5-0.4,0.8-0.9,0.8s-0.8-0.4-0.8-0.9c0-0.5,0.4-0.8,0.9-0.8S42.3,402.8,42.2,403.3z"/>
		<path class="st6" d="M51.1,399.3c0.1-2.4-1.7-4.4-4.1-4.5c-2.4-0.1-4.4,1.7-4.5,4.1c-0.1,2.4,1.7,4.4,4.1,4.5
			C48.9,403.6,51,401.7,51.1,399.3z"/>
		<path class="st5" d="M46,397.4c0,0.5-0.4,0.8-0.9,0.8c-0.5,0-0.8-0.4-0.8-0.9c0-0.5,0.4-0.8,0.9-0.8C45.6,396.5,46,396.9,46,397.4
			z"/>
		<path class="st6" d="M44.2,399c0.1-2.4-1.7-4.4-4.1-4.5c-2.4-0.1-4.4,1.7-4.5,4.1c-0.1,2.4,1.7,4.4,4.1,4.5
			C42,403.3,44.1,401.4,44.2,399z"/>
		<path class="st5" d="M39.1,397.1c0,0.5-0.4,0.8-0.9,0.8s-0.8-0.4-0.8-0.9c0-0.5,0.4-0.8,0.9-0.8C38.7,396.2,39.1,396.6,39.1,397.1
			z"/>
		<path class="st6" d="M37.8,386.6c0.1-2.4-1.7-4.4-4.1-4.5c-2.4-0.1-4.4,1.7-4.5,4.1c-0.1,2.4,1.7,4.4,4.1,4.5
			C35.7,390.8,37.7,389,37.8,386.6z"/>
		<path class="st5" d="M32.7,384.6c0,0.5-0.4,0.8-0.9,0.8c-0.5,0-0.8-0.4-0.8-0.9c0-0.5,0.4-0.8,0.9-0.8S32.7,384.2,32.7,384.6z"/>
		<path class="st6" d="M58.5,387.6c0.1-2.4-1.7-4.4-4.1-4.5c-2.4-0.1-4.4,1.7-4.5,4.1c-0.1,2.4,1.7,4.4,4.1,4.5
			C56.4,391.8,58.4,389.9,58.5,387.6z"/>
		<path class="st5" d="M53.4,385.6c0,0.5-0.4,0.8-0.9,0.8c-0.5,0-0.8-0.4-0.8-0.9c0-0.5,0.4-0.8,0.9-0.8
			C53.1,384.7,53.4,385.1,53.4,385.6z"/>
		<path class="st4" d="M54.8,393.4c0.1-2.4-1.7-4.4-4.1-4.5c-2.4-0.1-4.4,1.7-4.5,4.1c-0.1,2.4,1.7,4.4,4.1,4.5
			C52.7,397.7,54.7,395.8,54.8,393.4z"/>
		<path class="st5" d="M49.7,391.5c0,0.5-0.4,0.8-0.9,0.8c-0.5,0-0.8-0.4-0.8-0.9c0-0.5,0.4-0.8,0.9-0.8
			C49.4,390.6,49.7,391,49.7,391.5z"/>
		<path class="st4" d="M41,392.8c0.1-2.4-1.7-4.4-4.1-4.5c-2.4-0.1-4.4,1.7-4.5,4.1c-0.1,2.4,1.7,4.4,4.1,4.5
			C38.9,397,40.9,395.2,41,392.8z"/>
		<path class="st5" d="M35.9,390.9c0,0.5-0.4,0.8-0.9,0.8c-0.5,0-0.8-0.4-0.8-0.9c0-0.5,0.4-0.8,0.9-0.8
			C35.5,390,35.9,390.4,35.9,390.9z"/>
		<path class="st6" d="M47.9,393.1c0.1-2.4-1.7-4.4-4.1-4.5c-2.4-0.1-4.4,1.7-4.5,4.1c-0.1,2.4,1.7,4.4,4.1,4.5
			C45.8,397.4,47.8,395.5,47.9,393.1z"/>
		<path class="st5" d="M42.8,391.2c0,0.5-0.4,0.8-0.9,0.8s-0.8-0.4-0.8-0.9c0-0.5,0.4-0.8,0.9-0.8C42.4,390.3,42.8,390.7,42.8,391.2
			z"/>
		<path class="st4" d="M44.7,386.9c0.1-2.4-1.7-4.4-4.1-4.5c-2.4-0.1-4.4,1.7-4.5,4.1c-0.1,2.4,1.7,4.4,4.1,4.5
			C42.6,391.2,44.6,389.3,44.7,386.9z"/>
		<path class="st5" d="M39.6,385c0,0.5-0.4,0.8-0.9,0.8s-0.8-0.4-0.8-0.9c0-0.5,0.4-0.8,0.9-0.8C39.3,384.1,39.6,384.5,39.6,385z"/>
		<path class="st4" d="M51.6,387.2c0.1-2.4-1.7-4.4-4.1-4.5c-2.4-0.1-4.4,1.7-4.5,4.1c-0.1,2.4,1.7,4.4,4.1,4.5
			C49.5,391.5,51.5,389.6,51.6,387.2z"/>
		<path class="st5" d="M46.5,385.3c0,0.5-0.4,0.8-0.9,0.8c-0.5,0-0.8-0.4-0.8-0.9c0-0.5,0.4-0.8,0.9-0.8
			C46.2,384.4,46.5,384.8,46.5,385.3z"/>
		<path class="st4" d="M41.5,380.7c0.1-2.4-1.7-4.4-4.1-4.5s-4.4,1.7-4.5,4.1c-0.1,2.4,1.7,4.4,4.1,4.5
			C39.4,385,41.4,383.1,41.5,380.7z"/>
		<path class="st5" d="M36.4,378.8c0,0.5-0.4,0.8-0.9,0.8c-0.5,0-0.8-0.4-0.8-0.9c0-0.5,0.4-0.8,0.9-0.8
			C36.1,377.9,36.5,378.3,36.4,378.8z"/>
		<path class="st4" d="M55.4,381.4c0.1-2.4-1.7-4.4-4.1-4.5c-2.4-0.1-4.4,1.7-4.5,4.1c-0.1,2.4,1.7,4.4,4.1,4.5
			C53.2,385.6,55.2,383.7,55.4,381.4z"/>
		<path class="st5" d="M50.2,379.4c0,0.5-0.4,0.8-0.9,0.8c-0.5,0-0.8-0.4-0.8-0.9c0-0.5,0.4-0.8,0.9-0.8
			C49.9,378.5,50.3,378.9,50.2,379.4z"/>
		<path class="st6" d="M48.4,381c0.1-2.4-1.7-4.4-4.1-4.5c-2.4-0.1-4.4,1.7-4.5,4.1c-0.1,2.4,1.7,4.4,4.1,4.5
			C46.3,385.3,48.3,383.4,48.4,381z"/>
		<path class="st5" d="M43.3,379.1c0,0.5-0.4,0.8-0.9,0.8s-0.8-0.4-0.8-0.9s0.4-0.8,0.9-0.8C43,378.2,43.4,378.6,43.3,379.1z"/>
		<g class="st7">
			<path class="st8" d="M44.2,375.5l-3-0.4c-3.1-0.4-5.6-2.8-6.1-5.9l-0.5-2.9l3,0.4c3.1,0.4,5.6,2.8,6.1,5.9L44.2,375.5z"/>
			<g class="st9">
				<defs>
					<path id="SVGID_21_" d="M44.2,375.5l-3-0.4c-3.1-0.4-5.6-2.8-6.1-5.9l-0.5-2.9l3,0.4c3.1,0.4,5.6,2.8,6.1,5.9L44.2,375.5z"/>
				</defs>
				<clipPath id="SVGID_22_">
					<use xlink:href="#SVGID_21_"  style="overflow:visible;"/>
				</clipPath>
				
					<rect x="31.5" y="370.4" transform="matrix(-0.7198 -0.6942 0.6942 -0.7198 -192.5245 666.2867)" class="st21" width="13.5" height="3.2"/>
			</g>
		</g>
		<g>
			<g>
				<path class="st11" d="M45.5,375.3l2.9,0.5c3.1,0.5,6.2-1,7.6-3.8l1.3-2.7l-2.9-0.5c-3.1-0.5-6.2,1-7.6,3.8L45.5,375.3z"/>
				<g>
					<defs>
						<path id="SVGID_23_" d="M45.5,375.3l2.9,0.5c3.1,0.5,6.2-1,7.6-3.8l1.3-2.7l-2.9-0.5c-3.1-0.5-6.2,1-7.6,3.8L45.5,375.3z"/>
					</defs>
					<clipPath id="SVGID_24_">
						<use xlink:href="#SVGID_23_"  style="overflow:visible;"/>
					</clipPath>
					
						<rect x="45.5" y="372.1" transform="matrix(0.8923 -0.4515 0.4515 0.8923 -163.1095 63.8422)" class="st22" width="13.5" height="3.2"/>
				</g>
			</g>
		</g>
	</g>
	<g>
		<path class="st3" d="M140.2,396.5c0.2-0.4,0-0.9-0.5-1.1c-0.1,0-0.2-0.1-0.3-0.1c-0.2,0-1.3,0-2.7,1c-1.9,1.2-3.5,3.4-4.8,6.4
			l1.6,0.7c0.8-1.8,2.1-4.2,4-5.6c1.1-0.8,1.9-0.8,1.9-0.8l0,0C139.7,397,140,396.8,140.2,396.5z"/>
		<path class="st4" d="M125.8,429.9c0.9-2.2-0.1-4.7-2.3-5.7c-2.2-0.9-4.7,0.1-5.7,2.3c-0.9,2.2,0.1,4.7,2.3,5.7
			C122.4,433.1,124.9,432.1,125.8,429.9z"/>
		<path class="st5" d="M121.8,426.2c-0.2,0.4-0.7,0.6-1.1,0.5c-0.4-0.2-0.6-0.7-0.5-1.1c0.2-0.4,0.7-0.6,1.1-0.5
			C121.7,425.3,121.9,425.8,121.8,426.2z"/>
		<path class="st6" d="M131.4,425.7c0.9-2.2-0.1-4.7-2.3-5.7c-2.2-0.9-4.7,0.1-5.7,2.3c-0.9,2.2,0.1,4.7,2.3,5.7
			C127.9,428.9,130.5,427.9,131.4,425.7z"/>
		<path class="st5" d="M127.3,422c-0.2,0.4-0.7,0.6-1.1,0.5c-0.4-0.2-0.6-0.7-0.5-1.1c0.2-0.4,0.7-0.6,1.1-0.5
			C127.3,421.1,127.5,421.6,127.3,422z"/>
		<path class="st6" d="M125.1,422.9c0.9-2.2-0.1-4.7-2.3-5.7c-2.2-0.9-4.7,0.1-5.7,2.3c-0.9,2.2,0.1,4.7,2.3,5.7
			C121.6,426.1,124.1,425.1,125.1,422.9z"/>
		<path class="st5" d="M121,419.3c-0.2,0.4-0.7,0.6-1.1,0.5c-0.4-0.2-0.6-0.7-0.5-1.1c0.2-0.4,0.7-0.6,1.1-0.5
			C121,418.4,121.2,418.9,121,419.3z"/>
		<path class="st6" d="M123.5,409.1c0.9-2.2-0.1-4.7-2.3-5.7c-2.2-0.9-4.7,0.1-5.7,2.3c-0.9,2.2,0.1,4.7,2.3,5.7
			C120,412.3,122.5,411.3,123.5,409.1z"/>
		<path class="st5" d="M119.4,405.4c-0.2,0.4-0.7,0.6-1.1,0.5s-0.6-0.7-0.5-1.1c0.2-0.4,0.7-0.6,1.1-0.5
			C119.4,404.5,119.6,405,119.4,405.4z"/>
		<path class="st6" d="M142.5,417.3c0.9-2.2-0.1-4.7-2.3-5.7c-2.2-0.9-4.7,0.1-5.7,2.3c-0.9,2.2,0.1,4.7,2.3,5.7
			C139.1,420.5,141.6,419.5,142.5,417.3z"/>
		<path class="st5" d="M138.5,413.6c-0.2,0.4-0.7,0.6-1.1,0.5c-0.4-0.2-0.6-0.7-0.5-1.1c0.2-0.4,0.7-0.6,1.1-0.5
			C138.4,412.7,138.6,413.2,138.5,413.6z"/>
		<path class="st4" d="M137,421.5c0.9-2.2-0.1-4.7-2.3-5.7c-2.2-0.9-4.7,0.1-5.7,2.3c-0.9,2.2,0.1,4.7,2.3,5.7
			C133.5,424.7,136,423.7,137,421.5z"/>
		<path class="st5" d="M132.9,417.8c-0.2,0.4-0.7,0.6-1.1,0.5c-0.4-0.2-0.6-0.7-0.5-1.1c0.2-0.4,0.7-0.6,1.1-0.5
			C132.9,416.9,133.1,417.4,132.9,417.8z"/>
		<path class="st4" d="M124.3,416c0.9-2.2-0.1-4.7-2.3-5.7c-2.2-0.9-4.7,0.1-5.7,2.3c-0.9,2.2,0.1,4.7,2.3,5.7
			C120.8,419.2,123.3,418.2,124.3,416z"/>
		<path class="st5" d="M120.2,412.4c-0.2,0.4-0.7,0.6-1.1,0.5c-0.4-0.2-0.6-0.7-0.5-1.1c0.2-0.4,0.7-0.6,1.1-0.5
			C120.2,411.4,120.4,411.9,120.2,412.4z"/>
		<path class="st6" d="M130.6,418.7c0.9-2.2-0.1-4.7-2.3-5.7c-2.2-0.9-4.7,0.1-5.7,2.3c-0.9,2.2,0.1,4.7,2.3,5.7
			C127.1,421.9,129.7,420.9,130.6,418.7z"/>
		<path class="st5" d="M126.5,415.1c-0.2,0.4-0.7,0.6-1.1,0.5c-0.4-0.2-0.6-0.7-0.5-1.1c0.2-0.4,0.7-0.6,1.1-0.5
			C126.5,414.2,126.7,414.7,126.5,415.1z"/>
		<path class="st4" d="M129.8,411.8c0.9-2.2-0.1-4.7-2.3-5.7c-2.2-0.9-4.7,0.1-5.7,2.3c-0.9,2.2,0.1,4.7,2.3,5.7
			C126.3,415,128.9,414,129.8,411.8z"/>
		<path class="st5" d="M125.7,408.2c-0.2,0.4-0.7,0.6-1.1,0.5c-0.4-0.2-0.6-0.7-0.5-1.1c0.2-0.4,0.7-0.6,1.1-0.5
			C125.7,407.2,125.9,407.7,125.7,408.2z"/>
		<path class="st4" d="M136.2,414.5c0.9-2.2-0.1-4.7-2.3-5.7c-2.2-0.9-4.7,0.1-5.7,2.3c-0.9,2.2,0.1,4.7,2.3,5.7
			C132.7,417.8,135.2,416.7,136.2,414.5z"/>
		<path class="st5" d="M132.1,410.9c-0.2,0.4-0.7,0.6-1.1,0.5c-0.4-0.2-0.6-0.7-0.5-1.1c0.2-0.4,0.7-0.6,1.1-0.5
			C132.1,410,132.3,410.5,132.1,410.9z"/>
		<path class="st4" d="M129,404.9c0.9-2.2-0.1-4.7-2.3-5.7s-4.7,0.1-5.7,2.3c-0.9,2.2,0.1,4.7,2.3,5.7
			C125.6,408.1,128.1,407.1,129,404.9z"/>
		<path class="st5" d="M125,401.3c-0.2,0.4-0.7,0.6-1.1,0.5c-0.4-0.2-0.6-0.7-0.5-1.1s0.7-0.6,1.1-0.5
			C124.9,400.3,125.1,400.8,125,401.3z"/>
		<path class="st4" d="M141.8,410.3c0.9-2.2-0.1-4.7-2.3-5.7c-2.2-0.9-4.7,0.1-5.7,2.3c-0.9,2.2,0.1,4.7,2.3,5.7
			C138.3,413.6,140.8,412.5,141.8,410.3z"/>
		<path class="st5" d="M137.7,406.7c-0.2,0.4-0.7,0.6-1.1,0.5c-0.4-0.2-0.6-0.7-0.5-1.1c0.2-0.4,0.7-0.6,1.1-0.5
			C137.7,405.8,137.9,406.3,137.7,406.7z"/>
		<path class="st6" d="M135.4,407.6c0.9-2.2-0.1-4.7-2.3-5.7c-2.2-0.9-4.7,0.1-5.7,2.3c-0.9,2.2,0.1,4.7,2.3,5.7
			C131.9,410.8,134.5,409.8,135.4,407.6z"/>
		<path class="st5" d="M131.3,404c-0.2,0.4-0.7,0.6-1.1,0.5c-0.4-0.2-0.6-0.7-0.5-1.1c0.2-0.4,0.7-0.6,1.1-0.5
			C131.3,403,131.5,403.5,131.3,404z"/>
		<g class="st7">
			<path class="st8" d="M133.3,400.9l-2.6-1.4c-2.8-1.5-4.3-4.6-3.7-7.7l0.6-2.9l2.6,1.4c2.8,1.5,4.3,4.6,3.7,7.7L133.3,400.9z"/>
			<g class="st9">
				<defs>
					<path id="SVGID_25_" d="M133.3,400.9l-2.6-1.4c-2.8-1.5-4.3-4.6-3.7-7.7l0.6-2.9l2.6,1.4c2.8,1.5,4.3,4.6,3.7,7.7L133.3,400.9z
						"/>
				</defs>
				<clipPath id="SVGID_26_">
					<use xlink:href="#SVGID_25_"  style="overflow:visible;"/>
				</clipPath>
				
					<rect x="122.3" y="394" transform="matrix(-0.4291 -0.9033 0.9033 -0.4291 -172.9332 681.7909)" class="st23" width="13.5" height="3.2"/>
			</g>
		</g>
		<g>
			<g>
				<path class="st11" d="M134.6,401.2l2.6,1.5c2.7,1.6,6.2,1.2,8.5-0.9l2.2-2l-2.6-1.5c-2.7-1.6-6.2-1.2-8.5,0.9L134.6,401.2z"/>
				<g>
					<defs>
						<path id="SVGID_27_" d="M134.6,401.2l2.6,1.5c2.7,1.6,6.2,1.2,8.5-0.9l2.2-2l-2.6-1.5c-2.7-1.6-6.2-1.2-8.5,0.9L134.6,401.2z"
							/>
					</defs>
					<clipPath id="SVGID_28_">
						<use xlink:href="#SVGID_27_"  style="overflow:visible;"/>
					</clipPath>
					
						<rect x="134.8" y="400.5" transform="matrix(0.9941 -0.1082 0.1082 0.9941 -42.6701 17.6697)" class="st24" width="13.5" height="3.2"/>
				</g>
			</g>
		</g>
	</g>
	<g>
		<path class="st3" d="M173.3,424.8c-0.1-0.5-0.6-0.8-1-0.6c-0.1,0-0.2,0.1-0.3,0.1c-0.1,0.1-1,0.8-1.6,2.4c-0.8,2.1-0.8,4.8,0,8
			l1.7-0.4c-0.5-1.9-0.8-4.7-0.1-6.9c0.4-1.3,1.1-1.8,1.1-1.8l0,0C173.2,425.5,173.4,425.2,173.3,424.8z"/>
		<path class="st4" d="M181.6,460.2c-0.5-2.3-2.9-3.8-5.2-3.2c-2.3,0.5-3.8,2.9-3.2,5.2c0.5,2.3,2.9,3.8,5.2,3.2
			C180.7,464.8,182.1,462.5,181.6,460.2z"/>
		<path class="st5" d="M176.1,459.7c0.1,0.5-0.2,0.9-0.6,1s-0.9-0.2-1-0.6c-0.1-0.5,0.2-0.9,0.6-1S176,459.2,176.1,459.7z"/>
		<path class="st6" d="M183.6,453.5c-0.5-2.3-2.9-3.8-5.2-3.2c-2.3,0.5-3.8,2.9-3.2,5.2c0.5,2.3,2.9,3.8,5.2,3.2
			C182.7,458.1,184.1,455.8,183.6,453.5z"/>
		<path class="st5" d="M178.1,453c0.1,0.5-0.2,0.9-0.6,1c-0.5,0.1-0.9-0.2-1-0.6c-0.1-0.5,0.2-0.9,0.6-1
			C177.5,452.2,178,452.5,178.1,453z"/>
		<path class="st6" d="M176.8,455.1c-0.5-2.3-2.9-3.8-5.2-3.2c-2.3,0.5-3.8,2.9-3.2,5.2c0.5,2.3,2.9,3.8,5.2,3.2
			C175.9,459.7,177.4,457.4,176.8,455.1z"/>
		<path class="st5" d="M171.4,454.6c0.1,0.5-0.2,0.9-0.6,1c-0.5,0.1-0.9-0.2-1-0.6c-0.1-0.5,0.2-0.9,0.6-1
			C170.8,453.8,171.3,454.1,171.4,454.6z"/>
		<path class="st6" d="M167.3,444.9c-0.5-2.3-2.9-3.8-5.2-3.2c-2.3,0.5-3.8,2.9-3.2,5.2c0.5,2.3,2.9,3.8,5.2,3.2
			C166.4,449.5,167.9,447.2,167.3,444.9z"/>
		<path class="st5" d="M161.9,444.4c0.1,0.5-0.2,0.9-0.6,1c-0.5,0.1-0.9-0.2-1-0.6c-0.1-0.5,0.2-0.9,0.6-1
			C161.3,443.6,161.8,443.9,161.9,444.4z"/>
		<path class="st6" d="M187.5,440.1c-0.5-2.3-2.9-3.8-5.2-3.2c-2.3,0.5-3.8,2.9-3.2,5.2c0.5,2.3,2.9,3.8,5.2,3.2
			C186.6,444.8,188.1,442.5,187.5,440.1z"/>
		<path class="st5" d="M182.1,439.6c0.1,0.5-0.2,0.9-0.6,1c-0.5,0.1-0.9-0.2-1-0.6c-0.1-0.5,0.2-0.9,0.6-1S182,439.2,182.1,439.6z"
			/>
		<path class="st4" d="M185.5,446.8c-0.5-2.3-2.9-3.8-5.2-3.2c-2.3,0.5-3.8,2.9-3.2,5.2c0.5,2.3,2.9,3.8,5.2,3.2
			C184.6,451.5,186.1,449.1,185.5,446.8z"/>
		<path class="st5" d="M180.1,446.3c0.1,0.5-0.2,0.9-0.6,1c-0.5,0.1-0.9-0.2-1-0.6c-0.1-0.5,0.2-0.9,0.6-1
			C179.5,445.6,180,445.9,180.1,446.3z"/>
		<path class="st4" d="M172.1,450c-0.5-2.3-2.9-3.8-5.2-3.2c-2.3,0.5-3.8,2.9-3.2,5.2c0.5,2.3,2.9,3.8,5.2,3.2
			C171.2,454.6,172.6,452.3,172.1,450z"/>
		<path class="st5" d="M166.6,449.5c0.1,0.5-0.2,0.9-0.6,1c-0.5,0.1-0.9-0.2-1-0.6c-0.1-0.5,0.2-0.9,0.6-1S166.5,449,166.6,449.5z"
			/>
		<path class="st6" d="M178.8,448.4c-0.5-2.3-2.9-3.8-5.2-3.2c-2.3,0.5-3.8,2.9-3.2,5.2c0.5,2.3,2.9,3.8,5.2,3.2
			C177.9,453,179.3,450.7,178.8,448.4z"/>
		<path class="st5" d="M173.4,447.9c0.1,0.5-0.2,0.9-0.6,1s-0.9-0.2-1-0.6c-0.1-0.5,0.2-0.9,0.6-1S173.2,447.4,173.4,447.9z"/>
		<path class="st4" d="M174.1,443.3c-0.5-2.3-2.9-3.8-5.2-3.2c-2.3,0.5-3.8,2.9-3.2,5.2c0.5,2.3,2.9,3.8,5.2,3.2
			C173.2,447.9,174.6,445.6,174.1,443.3z"/>
		<path class="st5" d="M168.6,442.8c0.1,0.5-0.2,0.9-0.6,1c-0.5,0.1-0.9-0.2-1-0.6c-0.1-0.5,0.2-0.9,0.6-1
			C168,442,168.5,442.3,168.6,442.8z"/>
		<path class="st4" d="M180.8,441.7c-0.5-2.3-2.9-3.8-5.2-3.2c-2.3,0.5-3.8,2.9-3.2,5.2c0.5,2.3,2.9,3.8,5.2,3.2
			C179.9,446.4,181.3,444,180.8,441.7z"/>
		<path class="st5" d="M175.3,441.2c0.1,0.5-0.2,0.9-0.6,1c-0.5,0.1-0.9-0.2-1-0.6c-0.1-0.5,0.2-0.9,0.6-1
			C174.8,440.5,175.2,440.7,175.3,441.2z"/>
		<path class="st4" d="M169.3,438.2c-0.5-2.3-2.9-3.8-5.2-3.2c-2.3,0.5-3.8,2.9-3.2,5.2c0.5,2.3,2.9,3.8,5.2,3.2
			C168.4,442.8,169.8,440.5,169.3,438.2z"/>
		<path class="st5" d="M163.9,437.7c0.1,0.5-0.2,0.9-0.6,1c-0.5,0.1-0.9-0.2-1-0.6s0.2-0.9,0.6-1
			C163.3,436.9,163.7,437.2,163.9,437.7z"/>
		<path class="st4" d="M182.8,435c-0.5-2.3-2.9-3.8-5.2-3.2c-2.3,0.5-3.8,2.9-3.2,5.2c0.5,2.3,2.9,3.8,5.2,3.2
			C181.9,439.7,183.3,437.4,182.8,435z"/>
		<path class="st5" d="M177.3,434.5c0.1,0.5-0.2,0.9-0.6,1c-0.5,0.1-0.9-0.2-1-0.6s0.2-0.9,0.6-1
			C176.8,433.8,177.2,434.1,177.3,434.5z"/>
		<path class="st6" d="M176,436.6c-0.5-2.3-2.9-3.8-5.2-3.2c-2.3,0.5-3.8,2.9-3.2,5.2c0.5,2.3,2.9,3.8,5.2,3.2
			C175.1,441.3,176.6,438.9,176,436.6z"/>
		<path class="st5" d="M170.6,436.1c0.1,0.5-0.2,0.9-0.6,1c-0.5,0.1-0.9-0.2-1-0.6c-0.1-0.5,0.2-0.9,0.6-1
			C170,435.4,170.5,435.6,170.6,436.1z"/>
		<g class="st7">
			<path class="st8" d="M170.4,432.5l-2.9,0.4c-3.1,0.5-6.2-1.2-7.5-4l-1.3-2.7l2.9-0.4c3.1-0.5,6.2,1.2,7.5,4L170.4,432.5z"/>
			<g class="st9">
				<defs>
					<path id="SVGID_29_" d="M170.4,432.5l-2.9,0.4c-3.1,0.5-6.2-1.2-7.5-4l-1.3-2.7l2.9-0.4c3.1-0.5,6.2,1.2,7.5,4L170.4,432.5z"/>
				</defs>
				<clipPath id="SVGID_30_">
					<use xlink:href="#SVGID_29_"  style="overflow:visible;"/>
				</clipPath>
				
					<rect x="157" y="429.1" transform="matrix(-0.8817 -0.4719 0.4719 -0.8817 104.8213 887.684)" class="st25" width="13.5" height="3.2"/>
			</g>
		</g>
		<g>
			<g>
				<path class="st11" d="M171.7,431.9l3-0.3c3.1-0.3,5.7-2.7,6.3-5.8l0.6-2.9l-3,0.3c-3.1,0.3-5.7,2.7-6.3,5.8L171.7,431.9z"/>
				<g>
					<defs>
						<path id="SVGID_31_" d="M171.7,431.9l3-0.3c3.1-0.3,5.7-2.7,6.3-5.8l0.6-2.9l-3,0.3c-3.1,0.3-5.7,2.7-6.3,5.8L171.7,431.9z"/>
					</defs>
					<clipPath id="SVGID_32_">
						<use xlink:href="#SVGID_31_"  style="overflow:visible;"/>
					</clipPath>
					
						<rect x="171" y="426.9" transform="matrix(0.7356 -0.6774 0.6774 0.7356 -243.3171 233.6756)" class="st26" width="13.5" height="3.2"/>
				</g>
			</g>
		</g>
	</g>
</g>
</svg>
