<?xml version="1.0" encoding="utf-8"?>
<!-- Generator: Adobe Illustrator 19.0.1, SVG Export Plug-In . SVG Version: 6.00 Build 0)  -->
<svg version="1.1" id="greenPepper_x5F_seed" xmlns="http://www.w3.org/2000/svg" xmlns:xlink="http://www.w3.org/1999/xlink"
	 x="0px" y="0px" viewBox="-223 225 512 512" style="enable-background:new -223 225 512 512;" xml:space="preserve">
<style type="text/css">
	.st0{fill:#EDE594;}
	.st1{fill:#EFE856;}
</style>
<g>
	<path class="st0" d="M43,453.1c-0.1,3-1.9,5.1-2.3,5.5c-0.4,0.4-2.6,2.7-6.1,2.7c-3.6,0-5.8-2.6-6.8-3.7c-3.6-4.1-5-11.3-1.9-14.1
		c1.4-1.2,3.2-1.2,4.8-1.2c4.4,0,7.4,2.6,8.5,3.6C40.5,447.1,43,449.5,43,453.1z"/>
	<g>
		<path class="st1" d="M41.2,452.3c0.3,1,1.4,4.7-0.7,7c-1.1,1.3-2.8,1.6-3.7,1.8c-0.6,0.1-2.7,0.5-4.6-0.5
			c-2.9-1.4-3.7-4.8-4.1-6.4c-0.3-1.3-1.5-6.1,1.2-8.3c1.4-1.1,3.1-1,3.7-1c2.6,0.1,4.4,1.8,5.4,2.9C39.1,448.5,40.5,450,41.2,452.3
			z"/>
	</g>
</g>
<g>
	<path class="st0" d="M-120.1,546.6c-0.1,3-1.9,5.1-2.3,5.5c-0.4,0.4-2.6,2.7-6.1,2.7c-3.6,0-5.8-2.6-6.8-3.7
		c-3.6-4.1-5-11.3-1.9-14.1c1.4-1.2,3.2-1.2,4.8-1.2c4.4,0,7.4,2.6,8.5,3.6C-122.6,540.6-120.1,543-120.1,546.6z"/>
	<g>
		<path class="st1" d="M-121.9,545.9c0.3,1,1.4,4.7-0.7,7c-1.1,1.3-2.8,1.6-3.7,1.8c-0.6,0.1-2.7,0.5-4.6-0.5
			c-2.9-1.4-3.7-4.8-4.1-6.4c-0.3-1.3-1.5-6.1,1.2-8.3c1.4-1.1,3.1-1,3.7-1c2.6,0.1,4.4,1.8,5.4,2.9
			C-124,542-122.6,543.5-121.9,545.9z"/>
	</g>
</g>
<g>
	<path class="st0" d="M203,545.9c-0.1,3-1.9,5.1-2.3,5.5c-0.4,0.4-2.6,2.7-6.1,2.7c-3.6,0-5.8-2.6-6.8-3.7c-3.6-4.1-5-11.3-1.9-14.1
		c1.4-1.2,3.2-1.2,4.8-1.2c4.4,0,7.4,2.6,8.5,3.6C200.6,539.9,203,542.3,203,545.9z"/>
	<g>
		<path class="st1" d="M201.2,545.1c0.3,1,1.4,4.7-0.7,7c-1.1,1.3-2.8,1.6-3.7,1.8c-0.6,0.1-2.7,0.5-4.6-0.5
			c-2.9-1.4-3.7-4.8-4.1-6.4c-0.3-1.3-1.5-6.1,1.2-8.3c1.4-1.1,3.1-1,3.7-1c2.6,0.1,4.4,1.8,5.4,2.9
			C199.1,541.3,200.5,542.8,201.2,545.1z"/>
	</g>
</g>
<g>
	<path class="st0" d="M40.4,638.2c-0.1,3-1.9,5.1-2.3,5.5c-0.4,0.4-2.6,2.7-6.1,2.7c-3.6,0-5.8-2.6-6.8-3.7
		c-3.6-4.1-5-11.3-1.9-14.1c1.4-1.2,3.2-1.2,4.8-1.2c4.4,0,7.4,2.6,8.5,3.6C38,632.2,40.5,634.6,40.4,638.2z"/>
	<g>
		<path class="st1" d="M38.7,637.4c0.3,1,1.4,4.7-0.7,7c-1.1,1.3-2.8,1.6-3.7,1.8c-0.6,0.1-2.7,0.5-4.6-0.5
			c-2.9-1.4-3.7-4.8-4.1-6.4c-0.3-1.3-1.5-6.1,1.2-8.3c1.4-1.1,3.1-1,3.7-1c2.6,0.1,4.4,1.8,5.4,2.9C36.5,633.6,38,635.1,38.7,637.4
			z"/>
	</g>
</g>
</svg>
