<?xml version="1.0" encoding="utf-8"?>
<!-- Generator: Adobe Illustrator 19.0.1, SVG Export Plug-In . SVG Version: 6.00 Build 0)  -->
<svg version="1.1" id="green_x5F_pepper" xmlns="http://www.w3.org/2000/svg" xmlns:xlink="http://www.w3.org/1999/xlink" x="0px"
	 y="0px" viewBox="0 0 50 50" style="enable-background:new 0 0 50 50;" xml:space="preserve">
<style type="text/css">
	.st0{fill:#538C28;}
</style>
<g>
	<g>
		<path class="st0" d="M27.9,9.6c0.1-0.8,0.2-1.5,0.4-2.3c0.2-0.9,0.5-1.8,1.1-2.4c1.2-1.3,2.3-0.4,2.9,0.2c0.4,0.3,0.7,0.9,1.1,1.2
			C34,6.5,34.7,6.4,35.1,6c0.9-1-0.3-2.4-1-3.1c-1-1.1-2.4-1.8-3.9-1.7c-4,0.2-5.8,4.5-6.5,8.4c0.6-0.1,1.1-0.1,1.8-0.1
			C26.4,9.5,27.2,9.5,27.9,9.6z"/>
		<path class="st0" d="M43.3,22.3c0.3-1.6,0.6-3,0.4-4.5c-0.1-1.4-0.8-6.3-5-7.4c-0.7-0.2-1.4-0.3-2.2-0.3c-1.8,0-3.1,0.4-4.5,1.4
			L31.5,12L31,11.6c-1.1-0.9-3-1.4-5.5-1.4s-4.4,0.5-5.5,1.4L19.5,12l-0.5-0.4c-1.4-1-2.7-1.4-4.5-1.4c-0.8,0-1.5,0.1-2.2,0.3
			c-4.2,1.2-4.9,6-5,7.4c-0.1,1.5,0.1,2.9,0.4,4.5c0.7,3.2,1.1,6.3,1.3,9.2c0,1,0,2.1,0,3.1c-0.1,2-0.1,3.9,0.4,5.7
			c0.7,2.5,2.2,4.7,4.2,6.1c1.5,1,3.3,1.6,5.2,1.6c0.6,0,1.3-0.1,1.9-0.2c0.5-0.1,0.9-0.3,1.3-0.6l0.7-0.5l0.5,0.7
			c0.7,0.9,1.6,1.5,2.4,1.5s1.7-0.5,2.4-1.5l0.5-0.7l0.7,0.5c0.4,0.3,0.8,0.5,1.3,0.6C31,48,31.7,48,32.3,48c1.8,0,3.7-0.6,5.2-1.6
			c2-1.4,3.5-3.6,4.2-6.1c0.5-1.8,0.5-3.7,0.4-5.7c0-1-0.1-2.1,0-3.1C42.2,28.6,42.6,25.5,43.3,22.3z M18.8,29.9
			c-0.2-2.2-0.3-4.5-0.1-6.8c0.1-1.9,0.3-3.9,0.8-5.8c0.2,4.1,0.3,8.2,0.7,12.2c0.2,2.2,0.4,4.3,0.8,6.4c0.3,2,0.7,4.1,1.1,6.1
			C20.1,38.3,19.2,34.1,18.8,29.9z M32.2,29.9c-0.4,4.2-1.3,8.4-3.2,12.2c0.3-2,0.7-3.9,1-5.9c0.3-2.1,0.6-4.3,0.8-6.4
			c0.5-4.1,0.6-8.3,0.7-12.5c0.5,1.8,0.7,3.7,0.8,5.6C32.5,25.2,32.4,27.6,32.2,29.9z"/>
	</g>
</g>
</svg>
