<?xml version="1.0" encoding="utf-8"?>
<!-- Generator: Adobe Illustrator 19.0.1, SVG Export Plug-In . SVG Version: 6.00 Build 0)  -->
<svg version="1.1" id="greenPepper_x5F_grow" xmlns="http://www.w3.org/2000/svg" xmlns:xlink="http://www.w3.org/1999/xlink"
	 x="0px" y="0px" viewBox="-223 225 512 512" style="enable-background:new -223 225 512 512;" xml:space="preserve">
<style type="text/css">
	.st0{fill:#AA8863;}
	.st1{fill:#73D84A;}
	.st2{fill:#9BE877;}
</style>
<g>
	<path class="st0" d="M-130.6,553L-130.6,553c0.3,0,0.5-0.2,0.5-0.5v-55.8c0-0.3-0.2-0.5-0.5-0.5l0,0c-0.3,0-0.5,0.2-0.5,0.5v55.8
		C-131.1,552.8-130.9,553-130.6,553z"/>
	<path class="st1" d="M-144,501.3c0.9-0.8,1.8-1.6,2.7-2.4c2.1,4.3,4.3,8.6,6.4,12.8c0.3-0.7,5.6-15.1,9.4-23.2
		c2.5-5.4,7.4-13.8,7.9-14c-0.3,1.5-0.5,3-0.8,4.5c-1.2,2.9-2.4,5.9-3.6,9c-4.9,12.8-8.5,25-11.2,36.6c2.8-1.8,4.8-3.3,6.2-4.4
		c1.1-0.8,2.4-1.9,4.5-2.7c1-0.4,1.8-0.5,2.4-0.6c0.9,0.6,1.8,1.2,2.8,1.8c-1.9,0.9-3.9,1.9-6,3.2c-3.9,2.3-7.1,4.8-9.7,7.1
		c-0.4,7.2-0.8,14.4-1.1,21.5c0,0.2,0.1,2-1.3,3.2c-0.6,0.5-1.3,0.7-1.7,0.7c-0.3-0.2-0.6-0.5-0.8-0.8c-1.3-1.8-0.9-4.1-0.8-4.8
		c0-2.1,0.1-5.2,0.3-8.9c0.2-4.3,0.4-5.9,0.5-8.7c0.3-6.7,0.6-10.9-0.1-15.2C-138.6,512.3-140,507.2-144,501.3z"/>
	<g>
		<path class="st2" d="M-105.5,486.5c0,0-2.7,0.7-5,0.3c-16.8-2.8-16.5,10.4-16.3,10.5c0,0,1.6-0.9,3-1.1c9.5-1.2,14.1-6.1,14.1-6.1
			s-5.4,6-13.7,6.9c-1.8,0.2-4,2-5.7,4.1c0,0,1.1,0.1,1.6,0.3c0.7-0.9,1.6-1.7,2.7-2.3c7.8,5.7,14.3,0.5,16-1.7
			C-104.8,492.4-105.5,486.5-105.5,486.5z"/>
	</g>
</g>
<g>
	<path class="st0" d="M34.8,646.9L34.8,646.9c0.3,0,0.5-0.2,0.5-0.5v-55.8c0-0.3-0.2-0.5-0.5-0.5h0c-0.3,0-0.5,0.2-0.5,0.5v55.8
		C34.3,646.7,34.5,646.9,34.8,646.9z"/>
	<path class="st1" d="M21.4,595.2c0.9-0.8,1.8-1.6,2.7-2.4c2.1,4.3,4.3,8.6,6.4,12.8c0.3-0.7,5.6-15.1,9.4-23.2
		c2.5-5.4,7.4-13.8,7.9-14c-0.3,1.5-0.5,3-0.8,4.5c-1.2,2.9-2.4,5.9-3.6,9c-4.9,12.8-8.5,25-11.2,36.6c2.8-1.8,4.8-3.3,6.2-4.4
		c1.1-0.8,2.4-1.9,4.5-2.7c1-0.4,1.8-0.5,2.4-0.6c0.9,0.6,1.8,1.2,2.8,1.8c-1.9,0.9-3.9,1.9-6,3.2c-3.9,2.3-7.1,4.8-9.7,7.1
		c-0.4,7.2-0.8,14.4-1.1,21.5c0,0.2,0.1,2-1.3,3.2c-0.6,0.5-1.3,0.7-1.7,0.7c-0.3-0.2-0.6-0.5-0.8-0.8c-1.3-1.8-0.9-4.1-0.8-4.8
		c0-2.1,0.1-5.2,0.3-8.9c0.2-4.3,0.4-5.9,0.5-8.7c0.3-6.7,0.6-10.9-0.1-15.2C26.8,606.3,25.4,601.1,21.4,595.2z"/>
	<g>
		<path class="st2" d="M59.9,580.5c0,0-2.7,0.7-5,0.3c-16.8-2.8-16.5,10.4-16.3,10.5c0,0,1.6-0.9,3-1.1c9.5-1.2,14.1-6.1,14.1-6.1
			s-5.4,6-13.7,6.9c-1.8,0.2-4,2-5.7,4.1c0,0,1.1,0.1,1.6,0.3c0.7-0.9,1.6-1.7,2.7-2.3c7.8,5.7,14.3,0.5,16-1.7
			C60.5,586.4,59.9,580.5,59.9,580.5z"/>
	</g>
</g>
<g>
	<path class="st0" d="M34.8,460.1L34.8,460.1c0.3,0,0.5-0.2,0.5-0.5v-55.8c0-0.3-0.2-0.5-0.5-0.5h0c-0.3,0-0.5,0.2-0.5,0.5v55.8
		C34.3,459.9,34.5,460.1,34.8,460.1z"/>
	<path class="st1" d="M21.4,408.4c0.9-0.8,1.8-1.6,2.7-2.4c2.1,4.3,4.3,8.6,6.4,12.8c0.3-0.7,5.6-15.1,9.4-23.2
		c2.5-5.4,7.4-13.8,7.9-14c-0.3,1.5-0.5,3-0.8,4.5c-1.2,2.9-2.4,5.9-3.6,9c-4.9,12.8-8.5,25-11.2,36.6c2.8-1.8,4.8-3.3,6.2-4.4
		c1.1-0.8,2.4-1.9,4.5-2.7c1-0.4,1.8-0.5,2.4-0.6c0.9,0.6,1.8,1.2,2.8,1.8c-1.9,0.9-3.9,1.9-6,3.2c-3.9,2.3-7.1,4.8-9.7,7.1
		c-0.4,7.2-0.8,14.4-1.1,21.5c0,0.2,0.1,2-1.3,3.2c-0.6,0.5-1.3,0.7-1.7,0.7c-0.3-0.2-0.6-0.5-0.8-0.8c-1.3-1.8-0.9-4.1-0.8-4.8
		c0-2.1,0.1-5.2,0.3-8.9c0.2-4.3,0.4-5.9,0.5-8.7c0.3-6.7,0.6-10.9-0.1-15.2C26.8,419.5,25.4,414.3,21.4,408.4z"/>
	<g>
		<path class="st2" d="M59.9,393.7c0,0-2.7,0.7-5,0.3c-16.8-2.8-16.5,10.4-16.3,10.5c0,0,1.6-0.9,3-1.1c9.5-1.2,14.1-6.1,14.1-6.1
			s-5.4,6-13.7,6.9c-1.8,0.2-4,2-5.7,4.1c0,0,1.1,0.1,1.6,0.3c0.7-0.9,1.6-1.7,2.7-2.3c7.8,5.7,14.3,0.5,16-1.7
			C60.5,399.6,59.9,393.7,59.9,393.7z"/>
	</g>
</g>
<g>
	<path class="st0" d="M194.3,553L194.3,553c0.3,0,0.5-0.2,0.5-0.5v-55.8c0-0.3-0.2-0.5-0.5-0.5l0,0c-0.3,0-0.5,0.2-0.5,0.5v55.8
		C193.8,552.8,194,553,194.3,553z"/>
	<path class="st1" d="M180.9,501.3c0.9-0.8,1.8-1.6,2.7-2.4c2.1,4.3,4.3,8.6,6.4,12.8c0.3-0.7,5.6-15.1,9.4-23.2
		c2.5-5.4,7.4-13.8,7.9-14c-0.3,1.5-0.5,3-0.8,4.5c-1.2,2.9-2.4,5.9-3.6,9c-4.9,12.8-8.5,25-11.2,36.6c2.8-1.8,4.8-3.3,6.2-4.4
		c1.1-0.8,2.4-1.9,4.5-2.7c1-0.4,1.8-0.5,2.4-0.6c0.9,0.6,1.8,1.2,2.8,1.8c-1.9,0.9-3.9,1.9-6,3.2c-3.9,2.3-7.1,4.8-9.7,7.1
		c-0.4,7.2-0.8,14.4-1.1,21.5c0,0.2,0.1,2-1.3,3.2c-0.6,0.5-1.3,0.7-1.7,0.7c-0.3-0.2-0.6-0.5-0.8-0.8c-1.3-1.8-0.9-4.1-0.8-4.8
		c0-2.1,0.1-5.2,0.3-8.9c0.2-4.3,0.4-5.9,0.5-8.7c0.3-6.7,0.6-10.9-0.1-15.2C186.3,512.3,184.9,507.2,180.9,501.3z"/>
	<g>
		<path class="st2" d="M219.4,486.5c0,0-2.7,0.7-5,0.3c-16.8-2.8-16.5,10.4-16.3,10.5c0,0,1.6-0.9,3-1.1c9.5-1.2,14.1-6.1,14.1-6.1
			s-5.4,6-13.7,6.9c-1.8,0.2-4,2-5.7,4.1c0,0,1.1,0.1,1.6,0.3c0.7-0.9,1.6-1.7,2.7-2.3c7.8,5.7,14.3,0.5,16-1.7
			C220,492.4,219.4,486.5,219.4,486.5z"/>
	</g>
</g>
</svg>
