<?xml version="1.0" encoding="utf-8"?>
<!-- Generator: Adobe Illustrator 19.0.1, SVG Export Plug-In . SVG Version: 6.00 Build 0)  -->
<svg version="1.1" id="圖層_2" xmlns="http://www.w3.org/2000/svg" xmlns:xlink="http://www.w3.org/1999/xlink" x="0px" y="0px"
	 viewBox="-193 285 512 512" style="enable-background:new -193 285 512 512;" xml:space="preserve">
<style type="text/css">
	.st0{fill:#223F91;}
	.st1{fill:#1A1782;}
	.st2{clip-path:url(#SVGID_2_);}
	.st3{fill:#172C65;}
	.st4{fill:#F7F2B0;}
	.st5{fill:#F9EC06;}
	.st6{fill:#474747;}
	.st7{font-family:'TimesNewRomanPSMT';}
	.st8{font-size:120px;}
</style>
<g>
	<g id="bright_1_">
		<g>
			<g>
				<path class="st0" d="M-103.1,542.3c26.8,74.9,165.2,65.6,165.2,65.6s138.4,9.3,165.2-65.6c-38-20.4-98.5-33.9-165.2-33.9
					S-65.2,521.8-103.1,542.3z"/>
				<path class="st0" d="M227,354.4c-30.2-3.1-79.2-5.2-118-39.3c-38.9-34.3-47-28.2-47-28.2s-8.2-6.1-47.1,28.2
					s-87.9,36.3-118.1,39.3s-28.1,15.4-35.7,49.5c-7.6,34.2-33.2,43.4-25,51.6c5.8,5.6,32,27.4,47.7,40
					c40-24.2,104.4-40.3,178.3-40.3s138.3,16.1,178.3,40.3c15.6-12.8,41.8-34.4,47.5-40c8.2-8.2-17.5-17.4-25.1-51.6
					C255.2,369.6,257.2,357.4,227,354.4z M99.5,436.7L62,409.6l-37.6,27.4l14.3-44.6L1.2,364.5h46.4l14.3-44.1l14.3,44.1h46.4
					L85,392.3L99.5,436.7z"/>
				<path class="st0" d="M228.7,505.2c-37.9-20.9-99.1-34.7-166.7-34.7c-67.5,0-128.8,13.9-166.7,34.7v21.8
					c40.3-20.5,99.5-33.8,166.7-33.8s126.3,13.3,166.7,33.8V505.2z"/>
			</g>
		</g>
	</g>
	<g>
		<path class="st1" d="M60.3,792.9c-108.5,0-196.6-108.1-196.6-240.9c2.6,2.5,5.3,4.8,7.9,7.3c0.5,19.3,4.6,88.5,53.4,147.9
			c11.7,14.3,57.9,70.3,133.5,72.3c78.5,2.1,128.4-55.8,137.9-67.4c50.6-61.3,49.4-134.5,48.9-149.4c3.9-3.5,7.7-7,11.6-10.6
			C257,684.9,168.8,792.9,60.3,792.9z"/>
	</g>
	<g>
		<g>
			<defs>
				<rect id="SVGID_1_" x="-165.5" y="286.4" width="227.5" height="321.4"/>
			</defs>
			<clipPath id="SVGID_2_">
				<use xlink:href="#SVGID_1_"  style="overflow:visible;"/>
			</clipPath>
			<g id="dark_1_" class="st2">
				<g>
					<g>
						<path class="st3" d="M-103.1,541.8c26.8,74.9,165.2,65.6,165.2,65.6s138.4,9.3,165.2-65.6c-38-20.4-98.5-33.9-165.2-33.9
							C-4.6,507.9-65.2,521.4-103.1,541.8z"/>
						<path class="st3" d="M227,353.9c-30.2-3.1-79.2-5.2-118-39.3c-38.9-34.3-47-28.2-47-28.2s-8.2-6.1-47.1,28.2
							s-87.9,36.3-118.1,39.3c-30.2,3.1-28.1,15.4-35.7,49.5c-7.6,34.3-33.2,43.4-25,51.6c5.8,5.6,32,27.4,47.7,40
							c40-24.2,104.4-40.3,178.3-40.3s138.3,16.1,178.3,40.3c15.6-12.8,41.8-34.4,47.5-40c8.2-8.2-17.5-17.4-25.1-51.6
							C255.2,369.3,257.2,357,227,353.9z M99.5,436.2L62,409.1l-37.6,27.4l14.3-44.6L1.2,364h46.4l14.3-44.1L76.2,364h46.4L85,391.8
							L99.5,436.2z"/>
						<path class="st3" d="M228.7,504.9C190.7,484,129.6,470.1,62,470.1c-67.5,0-128.8,13.9-166.7,34.7v21.8
							c40.3-20.5,99.5-33.8,166.7-33.8s126.3,13.3,166.7,33.8V504.9z"/>
					</g>
				</g>
			</g>
		</g>
	</g>
</g>
<polygon class="st4" points="201.4,571.4 238,645.6 320,657.5 260.7,715.4 274.7,797 201.4,758.5 128.1,797 142.1,715.4 82.7,657.5 
	164.7,645.6 "/>
<polygon class="st5" points="201.2,587.2 233.1,651.8 304.4,662.2 252.8,712.5 264.9,783.5 201.2,750 137.4,783.5 149.6,712.5 
	97.9,662.2 169.3,651.8 "/>
<text transform="matrix(1 0 0 1 158.3423 745.9962)" class="st6 st7 st8">X</text>
</svg>
