<?xml version="1.0" encoding="utf-8"?>
<!-- Generator: Adobe Illustrator 19.0.1, SVG Export Plug-In . SVG Version: 6.00 Build 0)  -->
<svg version="1.1" id="hamimelon_x5F_grow" xmlns="http://www.w3.org/2000/svg" xmlns:xlink="http://www.w3.org/1999/xlink" x="0px"
	 y="0px" viewBox="-223 225 512 512" style="enable-background:new -223 225 512 512;" xml:space="preserve">
<style type="text/css">
	.st0{fill:#2C733F;}
	.st1{fill:#3FA45A;}
	.st2{fill:#368B4C;}
	.st3{fill:#378A4C;}
	.st4{fill:#317F46;}
	.st5{fill:none;stroke:#245529;stroke-width:3;stroke-miterlimit:10;}
	.st6{fill:#5C3715;}
</style>
<g>
	<g>
		<path class="st0" d="M-123,478.2c-0.5,0.3-0.8-0.3-0.8-0.3c0.4-0.7,0.6-1.2,0.8-1.4c0.1-0.2,0.2-0.3,0.2-0.3
			c0.1-0.1,0.1-0.2,0.1-0.2c0.3-0.3,0.8-0.7,1.4-0.9c0.9-0.4,1.8-0.6,2.5-0.7l0.2,0.6C-121.4,474.8-123,477.5-123,478.2z"/>
		<g>
			<path class="st1" d="M-112,479.4c0.1-0.1,0.1-0.3,0.1-0.4c0,0-0.2-0.6-0.5-1.4c1.8-0.9,3.4-2.5,3.5-2.6c0.1-0.1,0.2-0.3,0.2-0.4
				c0-0.2-0.1-0.3-0.2-0.4c0,0-0.5-0.5-1.2-1.1c1.6-1.8,2.6-5.2,2.6-5.3c0-0.1,0-0.3-0.1-0.4c-0.1-0.1-0.2-0.2-0.4-0.3
				c-0.2,0-3.5-0.9-5.9-0.4c-0.1-0.9-0.3-1.6-0.3-1.6c0-0.1-0.1-0.3-0.3-0.3c-0.1-0.1-0.3-0.1-0.4-0.1c-0.1,0-2.3,0.7-4,1.8
				c-0.6-0.7-1-1.1-1-1.1c-0.1-0.1-0.3-0.2-0.4-0.2c-0.2,0-0.3,0.1-0.4,0.2c0,0-0.8,0.9-1.5,2c-1.1,1.5-1.6,2.8-1.6,3.9
				c0,0.9,0.3,1.8,0.7,2.5c0.4,0.8,1.1,1.3,1.8,1.6c-0.1,0.8,0.1,1.6,0.5,2.3c0,0,0,0,0,0c0.4,0.7,1.1,1.4,1.8,1.8
				c0.9,0.5,2.3,0.7,4.1,0.6c1.3-0.1,2.4-0.4,2.5-0.4C-112.2,479.7-112.1,479.6-112,479.4z"/>
			<path class="st2" d="M-112,479.4c0.1-0.1,0.1-0.3,0.1-0.4c0,0-0.2-0.6-0.5-1.4c1.8-0.9,3.4-2.5,3.5-2.6c0.1-0.1,0.2-0.3,0.2-0.4
				c0-0.2-0.1-0.3-0.2-0.4c0,0-0.5-0.5-1.2-1.1c1.6-1.8,2.6-5.2,2.6-5.3c0-0.1,0-0.3-0.1-0.4l-13.7,8c-0.1,0.8,0.1,1.6,0.5,2.3
				c0,0,0,0,0,0c0.4,0.7,1.1,1.4,1.8,1.8c0.9,0.5,2.3,0.7,4.1,0.6c1.3-0.1,2.4-0.4,2.5-0.4C-112.2,479.7-112.1,479.6-112,479.4z"/>
			<g>
				<path class="st3" d="M-112.9,466.6c-0.3,0-0.9,0.1-0.9,0.1s0.3,1.6,0.1,2.7L-112.9,466.6z"/>
				<path class="st3" d="M-118.3,466.2c-0.2,0.1-0.5,0.3-0.5,0.3s0.6,0.6,1.2,1.6C-117.6,468-118,466.9-118.3,466.2z"/>
			</g>
			<g>
				<path class="st4" d="M-109.5,472.4c-0.2,0.3-0.6,0.7-0.6,0.7s-1.3-1-2.3-1.4L-109.5,472.4z"/>
				<path class="st4" d="M-111.9,477.3c-0.2,0.1-0.5,0.3-0.5,0.3s-0.3-0.8-0.8-1.8C-113.1,475.7-112.3,476.6-111.9,477.3z"/>
			</g>
			<path class="st0" d="M-119.2,474.4c0.1-0.1,0.2-0.1,0.3-0.2c0.2-0.1,0.5-0.3,0.8-0.5l7.1,1l-6.4-1.4c0.3-0.2,0.5-0.3,0.8-0.5
				c0.4-0.2,0.8-0.5,1.2-0.7c0.4-0.2,0.8-0.5,1.2-0.7c0.4-0.2,0.8-0.5,1.2-0.7c0.4-0.2,0.8-0.5,1.1-0.7c0.4-0.2,0.7-0.4,1-0.6
				c0.2-0.1,0.3-0.2,0.4-0.3c0.1-0.1,0.3-0.2,0.4-0.3c0.1-0.1,0.2-0.2,0.3-0.2c0.1-0.1,0.2-0.1,0.3-0.2c0.2-0.1,0.3-0.2,0.4-0.3
				c0.1-0.1,0.1-0.1,0.1-0.1s-0.1,0-0.2,0.1c-0.1,0-0.2,0.1-0.4,0.2c-0.1,0-0.2,0.1-0.3,0.2c-0.1,0.1-0.2,0.1-0.4,0.2
				c-0.1,0.1-0.3,0.1-0.4,0.2c-0.1,0.1-0.3,0.2-0.5,0.2c-0.3,0.2-0.7,0.4-1,0.5c-0.4,0.2-0.7,0.4-1.1,0.6c-0.4,0.2-0.8,0.4-1.2,0.7
				c-0.4,0.2-0.8,0.5-1.2,0.7c-0.4,0.2-0.8,0.5-1.2,0.7c-0.3,0.2-0.6,0.3-0.8,0.5l2-6.2l-2.7,6.6c-0.3,0.2-0.5,0.3-0.8,0.4
				c-0.1,0.1-0.2,0.1-0.3,0.2l-1.4-5.7l0.9,6c-0.1,0-0.2,0.1-0.2,0.1c-0.3,0.2-0.6,0.3-0.8,0.5c-0.2,0.1-0.4,0.2-0.5,0.3
				c0.1,0.1,0.2,0.1,0.3,0.2c0,0.1,0,0.2,0,0.3c0.2-0.1,0.3-0.2,0.5-0.3c0.3-0.1,0.5-0.3,0.8-0.5c0.1,0,0.2-0.1,0.2-0.1l4.7,3.7
				L-119.2,474.4z"/>
		</g>
	</g>
	<g>
		<path class="st0" d="M-131.5,517.4c0.6,0.2,0.2,0.9,0.2,0.9c-0.7,0.1-1.3,0.2-1.5,0.3c-0.2,0-0.4,0-0.4,0c-0.1,0-0.2,0-0.2,0
			c-0.5-0.1-1-0.2-1.6-0.5c-0.9-0.4-1.6-1-2.1-1.5l0.3-0.5C-135.2,518.2-132,517.8-131.5,517.4z"/>
		<g>
			<path class="st1" d="M-137.4,508c-0.2,0-0.3,0.1-0.4,0.2c0,0-0.4,0.5-0.8,1.3c-1.8-0.8-4.1-1.1-4.2-1.1c-0.2,0-0.3,0-0.4,0.1
				c-0.1,0.1-0.2,0.2-0.2,0.4c0,0-0.1,0.7-0.1,1.6c-2.4-0.1-5.6,1.2-5.8,1.3c-0.1,0.1-0.3,0.2-0.3,0.3c-0.1,0.1,0,0.3,0,0.4
				c0.1,0.1,1.5,3.3,3.4,4.8c-0.6,0.7-1,1.2-1,1.3c-0.1,0.1-0.1,0.3-0.1,0.4c0,0.2,0.1,0.3,0.2,0.4c0.1,0.1,2,1.4,3.8,2
				c-0.2,0.8-0.2,1.5-0.2,1.5c0,0.2,0,0.3,0.1,0.4c0.1,0.1,0.2,0.2,0.4,0.2c0,0,1.2,0.1,2.5,0c1.9-0.1,3.2-0.5,4-1.2
				c0.7-0.6,1.2-1.3,1.5-2.1c0.3-0.8,0.4-1.7,0.2-2.4c0.6-0.4,1.2-1.1,1.5-1.9l0,0c0.3-0.8,0.4-1.7,0.3-2.6c-0.1-1-0.9-2.2-2.1-3.6
				c-0.9-1-1.8-1.7-1.8-1.7C-137.1,508-137.3,508-137.4,508z"/>
			<path class="st2" d="M-137.4,508c-0.2,0-0.3,0.1-0.4,0.2c0,0-0.4,0.5-0.8,1.3c-1.8-0.8-4.1-1.1-4.2-1.1c-0.2,0-0.3,0-0.4,0.1
				c-0.1,0.1-0.2,0.2-0.2,0.4c0,0-0.1,0.7-0.1,1.6c-2.4-0.1-5.6,1.2-5.8,1.3c-0.1,0.1-0.3,0.2-0.3,0.3l14.8,5.7
				c0.6-0.4,1.2-1.1,1.5-1.9l0,0c0.3-0.8,0.4-1.7,0.3-2.6c-0.1-1-0.9-2.2-2.1-3.6c-0.9-1-1.8-1.7-1.8-1.7
				C-137.1,508-137.3,508-137.4,508z"/>
			<g>
				<path class="st3" d="M-146.8,516.7c0.2,0.2,0.7,0.6,0.7,0.6s1.1-1.2,2-1.7L-146.8,516.7z"/>
				<path class="st3" d="M-143.8,521.2c0.2,0.1,0.5,0.2,0.5,0.2s0.2-0.8,0.5-1.9C-142.8,519.5-143.4,520.5-143.8,521.2z"/>
			</g>
			<g>
				<path class="st4" d="M-144.4,510.5c0.3,0,0.9,0,0.9,0s0,1.6,0.4,2.6L-144.4,510.5z"/>
				<path class="st4" d="M-139.1,509.2c0.2,0.1,0.5,0.2,0.5,0.2s-0.4,0.7-1,1.7C-139.6,511.2-139.4,510-139.1,509.2z"/>
			</g>
			<path class="st0" d="M-136.8,516.7c-0.1,0-0.2-0.1-0.3-0.1c-0.3-0.1-0.6-0.2-0.8-0.3l-3.7-6.1l2.9,5.8c-0.3-0.1-0.6-0.2-0.9-0.3
				c-0.4-0.2-0.9-0.3-1.3-0.5c-0.4-0.2-0.9-0.3-1.3-0.5c-0.4-0.2-0.9-0.3-1.3-0.5c-0.4-0.2-0.8-0.3-1.2-0.4
				c-0.4-0.1-0.8-0.3-1.1-0.4c-0.2-0.1-0.3-0.1-0.5-0.2c-0.2-0.1-0.3-0.1-0.4-0.1c-0.1,0-0.3-0.1-0.4-0.1c-0.1,0-0.2-0.1-0.3-0.1
				c-0.2-0.1-0.4-0.1-0.5-0.1c-0.1,0-0.2,0-0.2,0s0.1,0,0.2,0.1c0.1,0,0.2,0.1,0.4,0.2c0.1,0,0.2,0.1,0.3,0.1
				c0.1,0.1,0.2,0.1,0.4,0.2c0.1,0.1,0.3,0.1,0.4,0.2c0.1,0.1,0.3,0.1,0.5,0.2c0.3,0.1,0.7,0.3,1.1,0.4c0.4,0.2,0.8,0.3,1.2,0.5
				c0.4,0.2,0.8,0.3,1.3,0.5c0.4,0.2,0.9,0.4,1.3,0.5c0.4,0.2,0.9,0.4,1.3,0.5c0.3,0.1,0.6,0.2,0.9,0.3l-6.1,2.4l6.8-2.1
				c0.3,0.1,0.6,0.2,0.8,0.3c0.1,0,0.2,0.1,0.3,0.1l-3.6,4.6l4.1-4.4c0.1,0,0.2,0.1,0.3,0.1c0.3,0.1,0.6,0.2,0.9,0.4
				c0.2,0.1,0.4,0.2,0.6,0.2c0-0.1,0-0.2-0.1-0.3c0.1-0.1,0.2-0.1,0.3-0.2c-0.2-0.1-0.4-0.1-0.6-0.2c-0.3-0.1-0.6-0.2-0.9-0.4
				c-0.1,0-0.2-0.1-0.3-0.1l-0.1-6L-136.8,516.7z"/>
		</g>
	</g>
	<g>
		<path class="st5" d="M-123.9,549.2c0,0,5-12.1,2.3-32c-1.8-12.8-7-18.5-7.9-19c-0.1-0.1-0.7-0.3-1.4-1.2c-0.5-0.6-0.9-1.2-1.2-1.7
			c-0.8-1.5-3.2-6.6-4.3-15.5c-0.3-2.4-0.8-7.3-0.2-15.5c0.2-3.2,1.7-31.7,6.4-31.8c1.2,0,2.5,1.7,2.7,3.5
			c0.4,4.7-6.4,16.6-10.7,7.9c-2.1-4.3-3.2-12.5-2.6-20.5"/>
		<path class="st6" d="M-129.5,553.1l-1.8,0c-1,0-1.9-0.9-1.9-2l0.8-49.6l1.2-77.2c0-1,0.9-1.9,2-1.9l1.8,0c1,0,1.9,0.9,1.9,2
			l-2.1,126.8C-127.5,552.3-128.4,553.2-129.5,553.1z"/>
		<path class="st5" d="M-134.9,540.2c8.5,0.7,14.6-1.2,14.9-5c0.2-2.1-1.3-5.8-3.1-7.9c-1-1.2-2-1.9-2.6-2.2
			c-1.4-0.9-4.8-3.5-7.1-9.2c-4.2-10.4-0.7-21.4-0.5-22.2c0,0,0.4-1.4,1.2-2.7c1.3-2.2,8.5-8.2,9.1-12.2c0.6-4.8-8.3-5.8-10.4-12.6
			c-2.5-8,7.8-13.6,9.9-27.2c1.2-7.3-0.6-13.7-2.1-17.7"/>
	</g>
	<g>
		<path class="st0" d="M-126.8,522.6c-0.5-0.2-0.2-0.9-0.2-0.9c0.8-0.1,1.3-0.1,1.5-0.2c0.2,0,0.4,0,0.4,0c0.1,0,0.2,0,0.2,0
			c0.5,0.1,1,0.3,1.6,0.6c0.9,0.5,1.5,1.1,2,1.6l-0.4,0.5C-123.1,522-126.3,522.2-126.8,522.6z"/>
		<g>
			<path class="st1" d="M-121.5,532.4c0.2,0,0.3-0.1,0.4-0.2c0,0,0.4-0.5,0.9-1.2c1.8,0.9,4,1.4,4.1,1.4c0.1,0,0.3,0,0.4-0.1
				c0.1-0.1,0.2-0.2,0.2-0.4c0,0,0.1-0.7,0.2-1.6c2.4,0.3,5.7-0.9,5.8-0.9c0.1-0.1,0.3-0.2,0.3-0.3c0.1-0.1,0.1-0.3,0-0.4
				c-0.1-0.1-1.3-3.4-3.1-5.1c0.7-0.6,1.1-1.2,1.1-1.2c0.1-0.1,0.1-0.3,0.1-0.4c0-0.2-0.1-0.3-0.2-0.4c-0.1-0.1-1.9-1.5-3.7-2.2
				c0.2-0.8,0.3-1.4,0.3-1.5c0-0.2,0-0.3-0.1-0.4c-0.1-0.1-0.2-0.2-0.4-0.2c0,0-1.2-0.2-2.5-0.1c-1.9,0-3.2,0.3-4,0.9
				c-0.7,0.5-1.3,1.2-1.7,2c-0.4,0.8-0.5,1.6-0.3,2.4c-0.7,0.4-1.2,1-1.6,1.8l0,0c-0.4,0.8-0.5,1.7-0.5,2.6c0.1,1,0.7,2.3,1.9,3.7
				c0.9,1,1.7,1.8,1.7,1.8C-121.8,532.3-121.6,532.4-121.5,532.4z"/>
			<path class="st2" d="M-121.5,532.4c0.2,0,0.3-0.1,0.4-0.2c0,0,0.4-0.5,0.9-1.2c1.8,0.9,4,1.4,4.1,1.4c0.1,0,0.3,0,0.4-0.1
				c0.1-0.1,0.2-0.2,0.2-0.4c0,0,0.1-0.7,0.2-1.6c2.4,0.3,5.7-0.9,5.8-0.9c0.1-0.1,0.3-0.2,0.3-0.3l-14.4-6.7
				c-0.7,0.4-1.2,1-1.6,1.8l0,0c-0.4,0.8-0.5,1.7-0.5,2.6c0.1,1,0.7,2.3,1.9,3.7c0.9,1,1.7,1.8,1.7,1.8
				C-121.8,532.3-121.6,532.4-121.5,532.4z"/>
			<g>
				<path class="st3" d="M-111.5,524.2c-0.2-0.2-0.6-0.7-0.6-0.7s-1.2,1.1-2.2,1.6L-111.5,524.2z"/>
				<path class="st3" d="M-114.3,519.5c-0.2-0.1-0.5-0.2-0.5-0.2s-0.2,0.8-0.6,1.9C-115.4,521.2-114.7,520.3-114.3,519.5z"/>
			</g>
			<g>
				<path class="st4" d="M-114.3,530.3c-0.3,0-0.9,0-0.9,0s0.1-1.6-0.2-2.7L-114.3,530.3z"/>
				<path class="st4" d="M-119.7,531.2c-0.2-0.1-0.5-0.2-0.5-0.2s0.5-0.7,1.1-1.7C-119.1,529.3-119.4,530.4-119.7,531.2z"/>
			</g>
			<path class="st0" d="M-121.6,523.6c0.1,0,0.2,0.1,0.3,0.1c0.3,0.1,0.5,0.2,0.8,0.4l3.3,6.4l-2.5-6c0.3,0.1,0.6,0.3,0.9,0.4
				c0.4,0.2,0.9,0.4,1.3,0.6c0.4,0.2,0.9,0.4,1.3,0.6c0.4,0.2,0.9,0.4,1.3,0.6c0.4,0.2,0.8,0.4,1.2,0.5c0.4,0.2,0.7,0.3,1.1,0.5
				c0.2,0.1,0.3,0.1,0.5,0.2c0.2,0.1,0.3,0.1,0.4,0.2c0.1,0.1,0.3,0.1,0.4,0.2c0.1,0,0.2,0.1,0.3,0.1c0.2,0.1,0.3,0.1,0.5,0.2
				c0.1,0,0.2,0.1,0.2,0.1s-0.1,0-0.1-0.1c-0.1-0.1-0.2-0.1-0.4-0.2c-0.1-0.1-0.2-0.1-0.3-0.2c-0.1-0.1-0.2-0.1-0.4-0.2
				c-0.1-0.1-0.3-0.1-0.4-0.2c-0.1-0.1-0.3-0.2-0.5-0.2c-0.3-0.2-0.7-0.3-1-0.5c-0.4-0.2-0.8-0.4-1.2-0.6c-0.4-0.2-0.8-0.4-1.2-0.6
				c-0.4-0.2-0.9-0.4-1.3-0.6c-0.4-0.2-0.9-0.4-1.3-0.6c-0.3-0.1-0.6-0.3-0.9-0.4l6.2-2l-7,1.6c-0.3-0.1-0.6-0.3-0.8-0.4
				c-0.1,0-0.2-0.1-0.3-0.1l3.9-4.4l-4.4,4.1c-0.1,0-0.2-0.1-0.2-0.1c-0.3-0.2-0.6-0.3-0.9-0.4c-0.2-0.1-0.4-0.2-0.6-0.3
				c0,0.1,0,0.2,0,0.3c-0.1,0.1-0.2,0.1-0.3,0.2c0.2,0.1,0.3,0.2,0.6,0.3c0.3,0.1,0.6,0.3,0.9,0.4c0.1,0,0.2,0.1,0.2,0.1l-0.3,6
				L-121.6,523.6z"/>
		</g>
	</g>
	<g>
		<path class="st0" d="M-134.6,501.6c-0.8,0.2-0.9-0.8-0.9-0.8c0.8-0.7,1.3-1.2,1.6-1.4c0.2-0.2,0.4-0.3,0.4-0.3
			c0.1-0.1,0.2-0.1,0.3-0.2c0.6-0.3,1.3-0.5,2.2-0.6c1.3-0.2,2.5,0,3.5,0.2l0,0.8C-131,498.1-134.3,500.8-134.6,501.6z"/>
		<g>
			<path class="st1" d="M-121.1,508.2c0.2-0.1,0.3-0.3,0.3-0.5c0,0,0.1-0.9,0.1-2c2.7-0.4,5.5-1.6,5.6-1.7c0.2-0.1,0.3-0.2,0.4-0.4
				c0.1-0.2,0.1-0.4,0-0.6c0,0-0.4-0.9-1.1-1.9c2.9-1.6,5.6-5.4,5.7-5.6c0.1-0.2,0.2-0.4,0.1-0.6c0-0.2-0.2-0.4-0.3-0.5
				c-0.2-0.1-4.1-2.7-7.3-3.2c0.2-1.2,0.3-2.1,0.3-2.2c0-0.2,0-0.4-0.2-0.6c-0.1-0.2-0.3-0.3-0.5-0.3c-0.1,0-3.2-0.2-5.8,0.4
				c-0.4-1.1-0.8-1.8-0.8-1.9c-0.1-0.2-0.3-0.3-0.4-0.4c-0.2-0.1-0.4,0-0.6,0c-0.1,0-1.4,0.7-2.9,1.8c-2,1.5-3.3,2.9-3.7,4.2
				c-0.4,1.2-0.5,2.4-0.3,3.5c0.2,1.2,0.7,2.2,1.5,2.9c-0.4,0.9-0.6,2.1-0.4,3.2l0,0c0.2,1.1,0.7,2.2,1.5,3.2c0.9,1.1,2.6,1.9,5,2.6
				c1.7,0.5,3.2,0.6,3.3,0.6C-121.5,508.4-121.3,508.4-121.1,508.2z"/>
			<path class="st2" d="M-121.1,508.2c0.2-0.1,0.3-0.3,0.3-0.5c0,0,0.1-0.9,0.1-2c2.7-0.4,5.5-1.6,5.6-1.7c0.2-0.1,0.3-0.2,0.4-0.4
				c0.1-0.2,0.1-0.4,0-0.6c0,0-0.4-0.9-1.1-1.9c2.9-1.6,5.6-5.4,5.7-5.6c0.1-0.2,0.2-0.4,0.1-0.6l-21.1,3.9
				c-0.4,0.9-0.6,2.1-0.4,3.2l0,0c0.2,1.1,0.7,2.2,1.5,3.2c0.9,1.1,2.6,1.9,5,2.6c1.7,0.5,3.2,0.6,3.3,0.6
				C-121.5,508.4-121.3,508.4-121.1,508.2z"/>
			<g>
				<path class="st3" d="M-116.5,491.5c-0.4-0.1-1.2-0.3-1.2-0.3s-0.4,2.2-1.1,3.4L-116.5,491.5z"/>
				<path class="st3" d="M-123.2,488.5c-0.2,0-0.7,0.2-0.7,0.2s0.4,1.1,0.8,2.5C-123.1,491.2-123.1,489.6-123.2,488.5z"/>
			</g>
			<g>
				<path class="st4" d="M-114.9,500.4c-0.3,0.3-1,0.7-1,0.7s-1.1-1.9-2.3-2.8L-114.9,500.4z"/>
				<path class="st4" d="M-120.1,505.6c-0.2,0-0.7,0.1-0.7,0.1s0-1.2-0.1-2.7C-120.9,503-120.3,504.5-120.1,505.6z"/>
			</g>
			<path class="st0" d="M-128.1,498.6c0.1,0,0.3-0.1,0.4-0.1c0.4-0.1,0.8-0.2,1.2-0.2l8.6,4.4l-7.5-4.6c0.4-0.1,0.8-0.2,1.3-0.2
				c0.6-0.1,1.3-0.2,1.9-0.4c0.6-0.1,1.3-0.3,1.9-0.4c0.6-0.1,1.2-0.3,1.8-0.4c0.6-0.1,1.2-0.2,1.7-0.4c0.5-0.1,1.1-0.2,1.5-0.3
				c0.2-0.1,0.5-0.1,0.7-0.2c0.2-0.1,0.4-0.1,0.6-0.1c0.2,0,0.4-0.1,0.5-0.1c0.2,0,0.3-0.1,0.5-0.1c0.3-0.1,0.5-0.1,0.6-0.2
				c0.1,0,0.2-0.1,0.2-0.1s-0.1,0-0.2,0c-0.2,0-0.4,0-0.7,0.1c-0.1,0-0.3,0-0.5,0.1c-0.2,0-0.4,0-0.5,0.1c-0.2,0-0.4,0.1-0.6,0.1
				c-0.2,0-0.4,0.1-0.7,0.1c-0.5,0.1-1,0.1-1.5,0.2c-0.5,0.1-1.1,0.2-1.7,0.3c-0.6,0.1-1.2,0.2-1.8,0.3c-0.6,0.1-1.3,0.2-1.9,0.3
				c-0.6,0.1-1.3,0.2-1.9,0.3c-0.4,0.1-0.8,0.2-1.3,0.2l5.3-7l-6.4,7.2c-0.4,0.1-0.8,0.1-1.2,0.2c-0.1,0-0.3,0.1-0.4,0.1l0.8-7.9
				l-1.6,8c-0.1,0-0.2,0-0.4,0.1c-0.5,0.1-0.9,0.2-1.3,0.2c-0.3,0.1-0.6,0.1-0.8,0.2c0.1,0.1,0.2,0.2,0.3,0.3
				c-0.1,0.1-0.1,0.3-0.2,0.4c0.2,0,0.5-0.1,0.8-0.2c0.4-0.1,0.8-0.2,1.3-0.2c0.1,0,0.2,0,0.4-0.1l4.4,6.9L-128.1,498.6z"/>
		</g>
	</g>
	<g>
		<path class="st0" d="M-133.6,466.8c0.5-0.3,0.8,0.4,0.8,0.4c-0.4,0.7-0.7,1.2-0.8,1.3c-0.1,0.2-0.2,0.3-0.2,0.3
			c-0.1,0.1-0.1,0.2-0.1,0.2c-0.4,0.3-0.8,0.6-1.4,0.9c-0.9,0.4-1.8,0.6-2.5,0.7l-0.2-0.6C-135.3,470.1-133.6,467.4-133.6,466.8z"/>
		<g>
			<path class="st1" d="M-144.7,465.3c-0.1,0.1-0.1,0.3-0.1,0.4c0,0,0.2,0.6,0.4,1.4c-1.8,0.9-3.4,2.4-3.5,2.5
				c-0.1,0.1-0.2,0.2-0.2,0.4c0,0.2,0.1,0.3,0.2,0.4c0,0,0.5,0.5,1.2,1.1c-1.6,1.8-2.6,5.1-2.7,5.3c0,0.1,0,0.3,0,0.4
				c0.1,0.1,0.2,0.2,0.3,0.3c0.2,0,3.5,0.9,5.9,0.5c0.1,0.9,0.3,1.6,0.3,1.6c0,0.1,0.1,0.3,0.3,0.4s0.3,0.1,0.4,0.1
				c0.1,0,2.3-0.6,4-1.7c0.5,0.7,1,1.1,1,1.1c0.1,0.1,0.3,0.2,0.4,0.2c0.2,0,0.3-0.1,0.4-0.2c0,0,0.8-0.8,1.6-1.9
				c1.1-1.5,1.6-2.8,1.6-3.8c0-0.9-0.2-1.8-0.7-2.5c-0.4-0.8-1-1.3-1.7-1.7c0.1-0.8-0.1-1.6-0.5-2.3l0,0c-0.4-0.7-1-1.4-1.8-1.9
				c-0.9-0.5-2.2-0.7-4.1-0.6c-1.3,0.1-2.4,0.3-2.5,0.3C-144.4,465.1-144.6,465.2-144.7,465.3z"/>
			<path class="st2" d="M-144.7,465.3c-0.1,0.1-0.1,0.3-0.1,0.4c0,0,0.2,0.6,0.4,1.4c-1.8,0.9-3.4,2.4-3.5,2.5
				c-0.1,0.1-0.2,0.2-0.2,0.4c0,0.2,0.1,0.3,0.2,0.4c0,0,0.5,0.5,1.2,1.1c-1.6,1.8-2.6,5.1-2.7,5.3c0,0.1,0,0.3,0,0.4l13.8-7.8
				c0.1-0.8-0.1-1.6-0.5-2.3l0,0c-0.4-0.7-1-1.4-1.8-1.9c-0.9-0.5-2.2-0.7-4.1-0.6c-1.3,0.1-2.4,0.3-2.5,0.3
				C-144.4,465.1-144.6,465.2-144.7,465.3z"/>
			<g>
				<path class="st3" d="M-143.9,478.2c0.3,0,0.9-0.1,0.9-0.1s-0.2-1.6,0-2.7L-143.9,478.2z"/>
				<path class="st3" d="M-138.5,478.7c0.2-0.1,0.5-0.3,0.5-0.3s-0.5-0.7-1.2-1.6C-139.2,476.8-138.8,477.9-138.5,478.7z"/>
			</g>
			<g>
				<path class="st4" d="M-147.2,472.3c0.2-0.3,0.6-0.7,0.6-0.7s1.2,1,2.3,1.4L-147.2,472.3z"/>
				<path class="st4" d="M-144.8,467.5c0.2-0.1,0.5-0.3,0.5-0.3s0.3,0.8,0.7,1.8C-143.6,469-144.3,468.1-144.8,467.5z"/>
			</g>
			<path class="st0" d="M-137.5,470.4c-0.1,0.1-0.2,0.1-0.3,0.2c-0.3,0.1-0.5,0.3-0.8,0.4l-7.1-1.1l6.4,1.5
				c-0.3,0.2-0.5,0.3-0.8,0.5c-0.4,0.2-0.8,0.5-1.2,0.7c-0.4,0.2-0.8,0.5-1.2,0.7c-0.4,0.2-0.8,0.5-1.2,0.7
				c-0.4,0.2-0.8,0.4-1.1,0.7c-0.4,0.2-0.7,0.4-1,0.6c-0.2,0.1-0.3,0.2-0.4,0.3c-0.1,0.1-0.3,0.2-0.4,0.2c-0.1,0.1-0.2,0.2-0.3,0.2
				c-0.1,0.1-0.2,0.1-0.3,0.2c-0.2,0.1-0.3,0.2-0.4,0.3c-0.1,0.1-0.1,0.1-0.1,0.1s0.1,0,0.2-0.1c0.1,0,0.3-0.1,0.4-0.2
				c0.1,0,0.2-0.1,0.3-0.1c0.1-0.1,0.2-0.1,0.4-0.2c0.1-0.1,0.3-0.1,0.4-0.2c0.1-0.1,0.3-0.1,0.5-0.2c0.3-0.2,0.7-0.3,1-0.5
				c0.4-0.2,0.7-0.4,1.1-0.6c0.4-0.2,0.8-0.4,1.2-0.7c0.4-0.2,0.8-0.5,1.2-0.7c0.4-0.2,0.8-0.5,1.2-0.7c0.3-0.2,0.6-0.3,0.8-0.5
				l-2.1,6.2l2.8-6.6c0.3-0.1,0.5-0.3,0.8-0.4c0.1-0.1,0.2-0.1,0.3-0.2l1.3,5.7l-0.8-6c0.1,0,0.2-0.1,0.2-0.1
				c0.3-0.2,0.6-0.3,0.9-0.5c0.2-0.1,0.4-0.2,0.5-0.3c-0.1-0.1-0.2-0.1-0.3-0.2c0-0.1,0-0.2,0-0.3c-0.2,0.1-0.3,0.2-0.5,0.3
				c-0.3,0.1-0.5,0.3-0.8,0.5c-0.1,0-0.2,0.1-0.2,0.1l-4.7-3.8L-137.5,470.4z"/>
		</g>
	</g>
</g>
<g>
	<g>
		<path class="st0" d="M37.8,570.5c-0.5,0.3-0.8-0.3-0.8-0.3c0.4-0.7,0.6-1.2,0.8-1.4c0.1-0.2,0.2-0.3,0.2-0.3
			c0.1-0.1,0.1-0.2,0.1-0.2c0.3-0.3,0.8-0.7,1.4-0.9c0.9-0.4,1.8-0.6,2.5-0.7l0.2,0.6C39.5,567.1,37.8,569.8,37.8,570.5z"/>
		<g>
			<path class="st1" d="M48.9,571.7c0.1-0.1,0.1-0.3,0.1-0.4c0,0-0.2-0.6-0.5-1.4c1.8-0.9,3.4-2.5,3.5-2.6c0.1-0.1,0.2-0.3,0.2-0.4
				c0-0.2-0.1-0.3-0.2-0.4c0,0-0.5-0.5-1.2-1.1c1.6-1.8,2.6-5.2,2.6-5.3c0-0.1,0-0.3-0.1-0.4c-0.1-0.1-0.2-0.2-0.4-0.3
				c-0.2,0-3.5-0.9-5.9-0.4c-0.1-0.9-0.3-1.6-0.3-1.6c0-0.1-0.1-0.3-0.3-0.3c-0.1-0.1-0.3-0.1-0.4-0.1c-0.1,0-2.3,0.7-4,1.8
				c-0.6-0.7-1-1.1-1-1.1c-0.1-0.1-0.3-0.2-0.4-0.2c-0.2,0-0.3,0.1-0.4,0.2c0,0-0.8,0.9-1.5,2c-1.1,1.5-1.6,2.8-1.6,3.9
				c0,0.9,0.3,1.8,0.7,2.5c0.4,0.8,1.1,1.3,1.8,1.6c-0.1,0.8,0.1,1.6,0.5,2.3l0,0c0.4,0.7,1.1,1.4,1.8,1.8c0.9,0.5,2.3,0.7,4.1,0.6
				c1.3-0.1,2.4-0.4,2.5-0.4C48.7,572,48.8,571.9,48.9,571.7z"/>
			<path class="st2" d="M48.9,571.7c0.1-0.1,0.1-0.3,0.1-0.4c0,0-0.2-0.6-0.5-1.4c1.8-0.9,3.4-2.5,3.5-2.6c0.1-0.1,0.2-0.3,0.2-0.4
				c0-0.2-0.1-0.3-0.2-0.4c0,0-0.5-0.5-1.2-1.1c1.6-1.8,2.6-5.2,2.6-5.3c0-0.1,0-0.3-0.1-0.4l-13.7,8c-0.1,0.8,0.1,1.6,0.5,2.3l0,0
				c0.4,0.7,1.1,1.4,1.8,1.8c0.9,0.5,2.3,0.7,4.1,0.6c1.3-0.1,2.4-0.4,2.5-0.4C48.7,572,48.8,571.9,48.9,571.7z"/>
			<g>
				<path class="st3" d="M48,558.9c-0.3,0-0.9,0.1-0.9,0.1s0.3,1.6,0.1,2.7L48,558.9z"/>
				<path class="st3" d="M42.5,558.5c-0.2,0.1-0.5,0.3-0.5,0.3s0.6,0.6,1.2,1.6C43.3,560.4,42.9,559.2,42.5,558.5z"/>
			</g>
			<g>
				<path class="st4" d="M51.3,564.7c-0.2,0.3-0.6,0.7-0.6,0.7s-1.3-1-2.3-1.4L51.3,564.7z"/>
				<path class="st4" d="M49,569.6c-0.2,0.1-0.5,0.3-0.5,0.3s-0.3-0.8-0.8-1.8C47.7,568,48.5,568.9,49,569.6z"/>
			</g>
			<path class="st0" d="M41.7,566.8c0.1-0.1,0.2-0.1,0.3-0.2c0.2-0.1,0.5-0.3,0.8-0.5l7.1,1l-6.4-1.4c0.3-0.2,0.5-0.3,0.8-0.5
				c0.4-0.2,0.8-0.5,1.2-0.7c0.4-0.2,0.8-0.5,1.2-0.7c0.4-0.2,0.8-0.5,1.2-0.7c0.4-0.2,0.8-0.5,1.1-0.7c0.4-0.2,0.7-0.4,1-0.6
				c0.2-0.1,0.3-0.2,0.4-0.3c0.1-0.1,0.3-0.2,0.4-0.3c0.1-0.1,0.2-0.2,0.3-0.2c0.1-0.1,0.2-0.1,0.3-0.2c0.2-0.1,0.3-0.2,0.4-0.3
				c0.1-0.1,0.1-0.1,0.1-0.1s-0.1,0-0.2,0.1c-0.1,0-0.2,0.1-0.4,0.2c-0.1,0-0.2,0.1-0.3,0.2c-0.1,0.1-0.2,0.1-0.4,0.2
				c-0.1,0.1-0.3,0.1-0.4,0.2c-0.1,0.1-0.3,0.2-0.5,0.2c-0.3,0.2-0.7,0.4-1,0.5c-0.4,0.2-0.7,0.4-1.1,0.6c-0.4,0.2-0.8,0.4-1.2,0.7
				c-0.4,0.2-0.8,0.5-1.2,0.7c-0.4,0.2-0.8,0.5-1.2,0.7c-0.3,0.2-0.6,0.3-0.8,0.5l2-6.2l-2.7,6.6c-0.3,0.2-0.5,0.3-0.8,0.4
				c-0.1,0.1-0.2,0.1-0.3,0.2l-1.4-5.7l0.9,6c-0.1,0-0.2,0.1-0.2,0.1c-0.3,0.2-0.6,0.3-0.8,0.5c-0.2,0.1-0.4,0.2-0.5,0.3
				c0.1,0.1,0.2,0.1,0.3,0.2c0,0.1,0,0.2,0,0.3c0.2-0.1,0.3-0.2,0.5-0.3c0.3-0.1,0.5-0.3,0.8-0.5c0.1,0,0.2-0.1,0.2-0.1l4.7,3.7
				L41.7,566.8z"/>
		</g>
	</g>
	<g>
		<path class="st0" d="M29.4,609.7c0.6,0.2,0.2,0.9,0.2,0.9c-0.7,0.1-1.3,0.2-1.5,0.3c-0.2,0-0.4,0-0.4,0c-0.1,0-0.2,0-0.2,0
			c-0.5-0.1-1-0.2-1.6-0.5c-0.9-0.4-1.6-1-2.1-1.5l0.3-0.5C25.7,610.5,28.9,610.1,29.4,609.7z"/>
		<g>
			<path class="st1" d="M23.4,600.3c-0.2,0-0.3,0.1-0.4,0.2c0,0-0.4,0.5-0.8,1.3c-1.8-0.8-4.1-1.1-4.2-1.1c-0.2,0-0.3,0-0.4,0.1
				c-0.1,0.1-0.2,0.2-0.2,0.4c0,0-0.1,0.7-0.1,1.6c-2.4-0.1-5.6,1.2-5.8,1.3c-0.1,0.1-0.3,0.2-0.3,0.3c-0.1,0.1,0,0.3,0,0.4
				c0.1,0.1,1.5,3.3,3.4,4.8c-0.6,0.7-1,1.2-1,1.3c-0.1,0.1-0.1,0.3-0.1,0.4c0,0.2,0.1,0.3,0.2,0.4c0.1,0.1,2,1.4,3.8,2
				c-0.2,0.8-0.2,1.5-0.2,1.5c0,0.2,0,0.3,0.1,0.4c0.1,0.1,0.2,0.2,0.4,0.2c0,0,1.2,0.1,2.5,0c1.9-0.1,3.2-0.5,4-1.2
				c0.7-0.6,1.2-1.3,1.5-2.1c0.3-0.8,0.4-1.7,0.2-2.4c0.6-0.4,1.2-1.1,1.5-1.9l0,0c0.3-0.8,0.4-1.7,0.3-2.6c-0.1-1-0.9-2.2-2.1-3.6
				c-0.9-1-1.8-1.7-1.8-1.7C23.8,600.3,23.6,600.3,23.4,600.3z"/>
			<path class="st2" d="M23.4,600.3c-0.2,0-0.3,0.1-0.4,0.2c0,0-0.4,0.5-0.8,1.3c-1.8-0.8-4.1-1.1-4.2-1.1c-0.2,0-0.3,0-0.4,0.1
				c-0.1,0.1-0.2,0.2-0.2,0.4c0,0-0.1,0.7-0.1,1.6c-2.4-0.1-5.6,1.2-5.8,1.3c-0.1,0.1-0.3,0.2-0.3,0.3l14.8,5.7
				c0.6-0.4,1.2-1.1,1.5-1.9l0,0c0.3-0.8,0.4-1.7,0.3-2.6c-0.1-1-0.9-2.2-2.1-3.6c-0.9-1-1.8-1.7-1.8-1.7
				C23.8,600.3,23.6,600.3,23.4,600.3z"/>
			<g>
				<path class="st3" d="M14,609.1c0.2,0.2,0.7,0.6,0.7,0.6s1.1-1.2,2-1.7L14,609.1z"/>
				<path class="st3" d="M17.1,613.5c0.2,0.1,0.5,0.2,0.5,0.2s0.2-0.8,0.5-1.9C18.1,611.8,17.5,612.8,17.1,613.5z"/>
			</g>
			<g>
				<path class="st4" d="M16.4,602.8c0.3,0,0.9,0,0.9,0s0,1.6,0.4,2.6L16.4,602.8z"/>
				<path class="st4" d="M21.7,601.6c0.2,0.1,0.5,0.2,0.5,0.2s-0.4,0.7-1,1.7C21.3,603.5,21.5,602.3,21.7,601.6z"/>
			</g>
			<path class="st0" d="M24.1,609c-0.1,0-0.2-0.1-0.3-0.1c-0.3-0.1-0.6-0.2-0.8-0.3l-3.7-6.1l2.9,5.8c-0.3-0.1-0.6-0.2-0.9-0.3
				c-0.4-0.2-0.9-0.3-1.3-0.5c-0.4-0.2-0.9-0.3-1.3-0.5c-0.4-0.2-0.9-0.3-1.3-0.5c-0.4-0.2-0.8-0.3-1.2-0.4
				c-0.4-0.1-0.8-0.3-1.1-0.4c-0.2-0.1-0.3-0.1-0.5-0.2c-0.2-0.1-0.3-0.1-0.4-0.1c-0.1,0-0.3-0.1-0.4-0.1c-0.1,0-0.2-0.1-0.3-0.1
				c-0.2-0.1-0.4-0.1-0.5-0.1c-0.1,0-0.2,0-0.2,0s0.1,0,0.2,0.1c0.1,0,0.2,0.1,0.4,0.2c0.1,0,0.2,0.1,0.3,0.1
				c0.1,0.1,0.2,0.1,0.4,0.2c0.1,0.1,0.3,0.1,0.4,0.2c0.1,0.1,0.3,0.1,0.5,0.2c0.3,0.1,0.7,0.3,1.1,0.4c0.4,0.2,0.8,0.3,1.2,0.5
				c0.4,0.2,0.8,0.3,1.3,0.5c0.4,0.2,0.9,0.4,1.3,0.5c0.4,0.2,0.9,0.4,1.3,0.5c0.3,0.1,0.6,0.2,0.9,0.3l-6.1,2.4l6.8-2.1
				c0.3,0.1,0.6,0.2,0.8,0.3c0.1,0,0.2,0.1,0.3,0.1l-3.6,4.6l4.1-4.4c0.1,0,0.2,0.1,0.3,0.1c0.3,0.1,0.6,0.2,0.9,0.4
				c0.2,0.1,0.4,0.2,0.6,0.2c0-0.1,0-0.2-0.1-0.3c0.1-0.1,0.2-0.1,0.3-0.2c-0.2-0.1-0.4-0.1-0.6-0.2c-0.3-0.1-0.6-0.2-0.9-0.4
				c-0.1,0-0.2-0.1-0.3-0.1l-0.1-6L24.1,609z"/>
		</g>
	</g>
	<g>
		<path class="st5" d="M36.9,641.5c0,0,5-12.1,2.3-32c-1.8-12.8-7-18.5-7.9-19c-0.1-0.1-0.7-0.3-1.4-1.2c-0.5-0.6-0.9-1.2-1.2-1.7
			c-0.8-1.5-3.2-6.6-4.3-15.5c-0.3-2.4-0.8-7.3-0.2-15.5c0.2-3.2,1.7-31.7,6.4-31.8c1.2,0,2.5,1.7,2.7,3.5
			c0.4,4.7-6.4,16.6-10.7,7.9c-2.1-4.3-3.2-12.5-2.6-20.5"/>
		<path class="st6" d="M31.4,645.5l-1.8,0c-1,0-1.9-0.9-1.9-2l0.8-49.6l1.2-77.2c0-1,0.9-1.9,2-1.9l1.8,0c1,0,1.9,0.9,1.9,2
			l-2.1,126.8C33.3,644.6,32.4,645.5,31.4,645.5z"/>
		<path class="st5" d="M25.9,632.5c8.5,0.7,14.6-1.2,14.9-5c0.2-2.1-1.3-5.8-3.1-7.9c-1-1.2-2-1.9-2.6-2.2c-1.4-0.9-4.8-3.5-7.1-9.2
			c-4.2-10.4-0.7-21.4-0.5-22.2c0,0,0.4-1.4,1.2-2.7c1.3-2.2,8.5-8.2,9.1-12.2c0.6-4.8-8.3-5.8-10.4-12.6c-2.5-8,7.8-13.6,9.9-27.2
			c1.2-7.3-0.6-13.7-2.1-17.7"/>
	</g>
	<g>
		<path class="st0" d="M34.1,614.9c-0.5-0.2-0.2-0.9-0.2-0.9c0.8-0.1,1.3-0.1,1.5-0.2c0.2,0,0.4,0,0.4,0c0.1,0,0.2,0,0.2,0
			c0.5,0.1,1,0.3,1.6,0.6c0.9,0.5,1.5,1.1,2,1.6l-0.4,0.5C37.8,614.3,34.6,614.5,34.1,614.9z"/>
		<g>
			<path class="st1" d="M39.4,624.7c0.2,0,0.3-0.1,0.4-0.2c0,0,0.4-0.5,0.9-1.2c1.8,0.9,4,1.4,4.1,1.4c0.1,0,0.3,0,0.4-0.1
				c0.1-0.1,0.2-0.2,0.2-0.4c0,0,0.1-0.7,0.2-1.6c2.4,0.3,5.7-0.9,5.8-0.9c0.1-0.1,0.3-0.2,0.3-0.3c0.1-0.1,0.1-0.3,0-0.4
				c-0.1-0.1-1.3-3.4-3.1-5.1c0.7-0.6,1.1-1.2,1.1-1.2c0.1-0.1,0.1-0.3,0.1-0.4c0-0.2-0.1-0.3-0.2-0.4c-0.1-0.1-1.9-1.5-3.7-2.2
				c0.2-0.8,0.3-1.4,0.3-1.5c0-0.2,0-0.3-0.1-0.4c-0.1-0.1-0.2-0.2-0.4-0.2c0,0-1.2-0.2-2.5-0.1c-1.9,0-3.2,0.3-4,0.9
				c-0.7,0.5-1.3,1.2-1.7,2c-0.4,0.8-0.5,1.6-0.3,2.4c-0.7,0.4-1.2,1-1.6,1.8l0,0c-0.4,0.8-0.5,1.7-0.5,2.6c0.1,1,0.7,2.3,1.9,3.7
				c0.9,1,1.7,1.8,1.7,1.8C39.1,624.6,39.2,624.7,39.4,624.7z"/>
			<path class="st2" d="M39.4,624.7c0.2,0,0.3-0.1,0.4-0.2c0,0,0.4-0.5,0.9-1.2c1.8,0.9,4,1.4,4.1,1.4c0.1,0,0.3,0,0.4-0.1
				c0.1-0.1,0.2-0.2,0.2-0.4c0,0,0.1-0.7,0.2-1.6c2.4,0.3,5.7-0.9,5.8-0.9c0.1-0.1,0.3-0.2,0.3-0.3l-14.4-6.7
				c-0.7,0.4-1.2,1-1.6,1.8l0,0c-0.4,0.8-0.5,1.7-0.5,2.6c0.1,1,0.7,2.3,1.9,3.7c0.9,1,1.7,1.8,1.7,1.8
				C39.1,624.6,39.2,624.7,39.4,624.7z"/>
			<g>
				<path class="st3" d="M49.4,616.5c-0.2-0.2-0.6-0.7-0.6-0.7s-1.2,1.1-2.2,1.6L49.4,616.5z"/>
				<path class="st3" d="M46.6,611.9c-0.2-0.1-0.5-0.2-0.5-0.2s-0.2,0.8-0.6,1.9C45.5,613.5,46.2,612.6,46.6,611.9z"/>
			</g>
			<g>
				<path class="st4" d="M46.5,622.6c-0.3,0-0.9,0-0.9,0s0.1-1.6-0.2-2.7L46.5,622.6z"/>
				<path class="st4" d="M41.2,623.5c-0.2-0.1-0.5-0.2-0.5-0.2s0.5-0.7,1.1-1.7C41.7,621.6,41.5,622.8,41.2,623.5z"/>
			</g>
			<path class="st0" d="M39.3,615.9c0.1,0,0.2,0.1,0.3,0.1c0.3,0.1,0.5,0.2,0.8,0.4l3.3,6.4l-2.5-6c0.3,0.1,0.6,0.3,0.9,0.4
				c0.4,0.2,0.9,0.4,1.3,0.6c0.4,0.2,0.9,0.4,1.3,0.6c0.4,0.2,0.9,0.4,1.3,0.6c0.4,0.2,0.8,0.4,1.2,0.5c0.4,0.2,0.7,0.3,1.1,0.5
				c0.2,0.1,0.3,0.1,0.5,0.2c0.2,0.1,0.3,0.1,0.4,0.2c0.1,0.1,0.3,0.1,0.4,0.2c0.1,0,0.2,0.1,0.3,0.1c0.2,0.1,0.3,0.1,0.5,0.2
				c0.1,0,0.2,0.1,0.2,0.1s-0.1,0-0.1-0.1c-0.1-0.1-0.2-0.1-0.4-0.2c-0.1-0.1-0.2-0.1-0.3-0.2c-0.1-0.1-0.2-0.1-0.4-0.2
				c-0.1-0.1-0.3-0.1-0.4-0.2c-0.1-0.1-0.3-0.2-0.5-0.2c-0.3-0.2-0.7-0.3-1-0.5c-0.4-0.2-0.8-0.4-1.2-0.6c-0.4-0.2-0.8-0.4-1.2-0.6
				c-0.4-0.2-0.9-0.4-1.3-0.6c-0.4-0.2-0.9-0.4-1.3-0.6c-0.3-0.1-0.6-0.3-0.9-0.4l6.2-2l-7,1.6c-0.3-0.1-0.6-0.3-0.8-0.4
				c-0.1,0-0.2-0.1-0.3-0.1l3.9-4.4l-4.4,4.1c-0.1,0-0.2-0.1-0.2-0.1c-0.3-0.2-0.6-0.3-0.9-0.4c-0.2-0.1-0.4-0.2-0.6-0.3
				c0,0.1,0,0.2,0,0.3c-0.1,0.1-0.2,0.1-0.3,0.2c0.2,0.1,0.3,0.2,0.6,0.3c0.3,0.1,0.6,0.3,0.9,0.4c0.1,0,0.2,0.1,0.2,0.1l-0.3,6
				L39.3,615.9z"/>
		</g>
	</g>
	<g>
		<path class="st0" d="M26.3,593.9c-0.8,0.2-0.9-0.8-0.9-0.8c0.8-0.7,1.3-1.2,1.6-1.4c0.2-0.2,0.4-0.3,0.4-0.3
			c0.1-0.1,0.2-0.1,0.3-0.2c0.6-0.3,1.3-0.5,2.2-0.6c1.3-0.2,2.5,0,3.5,0.2l0,0.8C29.9,590.4,26.5,593.1,26.3,593.9z"/>
		<g>
			<path class="st1" d="M39.7,600.6c0.2-0.1,0.3-0.3,0.3-0.5c0,0,0.1-0.9,0.1-2c2.7-0.4,5.5-1.6,5.6-1.7c0.2-0.1,0.3-0.2,0.4-0.4
				c0.1-0.2,0.1-0.4,0-0.6c0,0-0.4-0.9-1.1-1.9c2.9-1.6,5.6-5.4,5.7-5.6c0.1-0.2,0.2-0.4,0.1-0.6c0-0.2-0.2-0.4-0.3-0.5
				c-0.2-0.1-4.1-2.7-7.3-3.2c0.2-1.2,0.3-2.1,0.3-2.2c0-0.2,0-0.4-0.2-0.6c-0.1-0.2-0.3-0.3-0.5-0.3c-0.1,0-3.2-0.2-5.8,0.4
				c-0.4-1.1-0.8-1.8-0.8-1.9c-0.1-0.2-0.3-0.3-0.4-0.4c-0.2-0.1-0.4,0-0.6,0c-0.1,0-1.4,0.7-2.9,1.8c-2,1.5-3.3,2.9-3.7,4.2
				c-0.4,1.2-0.5,2.4-0.3,3.5c0.2,1.2,0.7,2.2,1.5,2.9c-0.4,0.9-0.6,2.1-0.4,3.2l0,0c0.2,1.1,0.7,2.2,1.5,3.2c0.9,1.1,2.6,1.9,5,2.6
				c1.7,0.5,3.2,0.6,3.3,0.6C39.4,600.7,39.6,600.7,39.7,600.6z"/>
			<path class="st2" d="M39.7,600.6c0.2-0.1,0.3-0.3,0.3-0.5c0,0,0.1-0.9,0.1-2c2.7-0.4,5.5-1.6,5.6-1.7c0.2-0.1,0.3-0.2,0.4-0.4
				c0.1-0.2,0.1-0.4,0-0.6c0,0-0.4-0.9-1.1-1.9c2.9-1.6,5.6-5.4,5.7-5.6c0.1-0.2,0.2-0.4,0.1-0.6l-21.1,3.9
				c-0.4,0.9-0.6,2.1-0.4,3.2l0,0c0.2,1.1,0.7,2.2,1.5,3.2c0.9,1.1,2.6,1.9,5,2.6c1.7,0.5,3.2,0.6,3.3,0.6
				C39.4,600.7,39.6,600.7,39.7,600.6z"/>
			<g>
				<path class="st3" d="M44.4,583.8c-0.4-0.1-1.2-0.3-1.2-0.3s-0.4,2.2-1.1,3.4L44.4,583.8z"/>
				<path class="st3" d="M37.6,580.8c-0.2,0-0.7,0.2-0.7,0.2s0.4,1.1,0.8,2.5C37.7,583.5,37.7,581.9,37.6,580.8z"/>
			</g>
			<g>
				<path class="st4" d="M46,592.7c-0.3,0.3-1,0.7-1,0.7s-1.1-1.9-2.3-2.8L46,592.7z"/>
				<path class="st4" d="M40.8,597.9c-0.2,0-0.7,0.1-0.7,0.1s0-1.2-0.1-2.7C40,595.3,40.5,596.8,40.8,597.9z"/>
			</g>
			<path class="st0" d="M32.8,590.9c0.1,0,0.3-0.1,0.4-0.1c0.4-0.1,0.8-0.2,1.2-0.2L43,595l-7.5-4.6c0.4-0.1,0.8-0.2,1.3-0.2
				c0.6-0.1,1.3-0.2,1.9-0.4c0.6-0.1,1.3-0.3,1.9-0.4c0.6-0.1,1.2-0.3,1.8-0.4c0.6-0.1,1.2-0.2,1.7-0.4c0.5-0.1,1.1-0.2,1.5-0.3
				c0.2-0.1,0.5-0.1,0.7-0.2c0.2-0.1,0.4-0.1,0.6-0.1c0.2,0,0.4-0.1,0.5-0.1c0.2,0,0.3-0.1,0.5-0.1c0.3-0.1,0.5-0.1,0.6-0.2
				c0.1,0,0.2-0.1,0.2-0.1s-0.1,0-0.2,0c-0.2,0-0.4,0-0.7,0.1c-0.1,0-0.3,0-0.5,0.1c-0.2,0-0.4,0-0.5,0.1c-0.2,0-0.4,0.1-0.6,0.1
				c-0.2,0-0.4,0.1-0.7,0.1c-0.5,0.1-1,0.1-1.5,0.2c-0.5,0.1-1.1,0.2-1.7,0.3c-0.6,0.1-1.2,0.2-1.8,0.3c-0.6,0.1-1.3,0.2-1.9,0.3
				c-0.6,0.1-1.3,0.2-1.9,0.3c-0.4,0.1-0.8,0.2-1.3,0.2l5.3-7l-6.4,7.2c-0.4,0.1-0.8,0.1-1.2,0.2c-0.1,0-0.3,0.1-0.4,0.1l0.8-7.9
				l-1.6,8c-0.1,0-0.2,0-0.4,0.1c-0.5,0.1-0.9,0.2-1.3,0.2c-0.3,0.1-0.6,0.1-0.8,0.2c0.1,0.1,0.2,0.2,0.3,0.3
				c-0.1,0.1-0.1,0.3-0.2,0.4c0.2,0,0.5-0.1,0.8-0.2c0.4-0.1,0.8-0.2,1.3-0.2c0.1,0,0.2,0,0.4-0.1l4.4,6.9L32.8,590.9z"/>
		</g>
	</g>
	<g>
		<path class="st0" d="M27.2,559.1c0.5-0.3,0.8,0.4,0.8,0.4c-0.4,0.7-0.7,1.2-0.8,1.3c-0.1,0.2-0.2,0.3-0.2,0.3
			c-0.1,0.1-0.1,0.2-0.1,0.2c-0.4,0.3-0.8,0.6-1.4,0.9c-0.9,0.4-1.8,0.6-2.5,0.7l-0.2-0.6C25.5,562.4,27.2,559.7,27.2,559.1z"/>
		<g>
			<path class="st1" d="M16.2,557.6c-0.1,0.1-0.1,0.3-0.1,0.4c0,0,0.2,0.6,0.4,1.4c-1.8,0.9-3.4,2.4-3.5,2.5
				c-0.1,0.1-0.2,0.2-0.2,0.4c0,0.2,0.1,0.3,0.2,0.4c0,0,0.5,0.5,1.2,1.1c-1.6,1.8-2.6,5.1-2.7,5.3c0,0.1,0,0.3,0,0.4
				c0.1,0.1,0.2,0.2,0.3,0.3c0.2,0,3.5,0.9,5.9,0.5c0.1,0.9,0.3,1.6,0.3,1.6c0,0.1,0.1,0.3,0.3,0.4c0.1,0.1,0.3,0.1,0.4,0.1
				c0.1,0,2.3-0.6,4-1.7c0.5,0.7,1,1.1,1,1.1c0.1,0.1,0.3,0.2,0.4,0.2c0.2,0,0.3-0.1,0.4-0.2c0,0,0.8-0.8,1.6-1.9
				c1.1-1.5,1.6-2.8,1.6-3.8c0-0.9-0.2-1.8-0.7-2.5c-0.4-0.8-1-1.3-1.7-1.7c0.1-0.8-0.1-1.6-0.5-2.3l0,0c-0.4-0.7-1-1.4-1.8-1.9
				c-0.9-0.5-2.2-0.7-4.1-0.6c-1.3,0.1-2.4,0.3-2.5,0.3C16.4,557.4,16.3,557.5,16.2,557.6z"/>
			<path class="st2" d="M16.2,557.6c-0.1,0.1-0.1,0.3-0.1,0.4c0,0,0.2,0.6,0.4,1.4c-1.8,0.9-3.4,2.4-3.5,2.5
				c-0.1,0.1-0.2,0.2-0.2,0.4c0,0.2,0.1,0.3,0.2,0.4c0,0,0.5,0.5,1.2,1.1c-1.6,1.8-2.6,5.1-2.7,5.3c0,0.1,0,0.3,0,0.4l13.8-7.8
				c0.1-0.8-0.1-1.6-0.5-2.3l0,0c-0.4-0.7-1-1.4-1.8-1.9c-0.9-0.5-2.2-0.7-4.1-0.6c-1.3,0.1-2.4,0.3-2.5,0.3
				C16.4,557.4,16.3,557.5,16.2,557.6z"/>
			<g>
				<path class="st3" d="M17,570.5c0.3,0,0.9-0.1,0.9-0.1s-0.2-1.6,0-2.7L17,570.5z"/>
				<path class="st3" d="M22.4,571c0.2-0.1,0.5-0.3,0.5-0.3s-0.5-0.7-1.2-1.6C21.7,569.1,22.1,570.2,22.4,571z"/>
			</g>
			<g>
				<path class="st4" d="M13.7,564.7c0.2-0.3,0.6-0.7,0.6-0.7s1.2,1,2.3,1.4L13.7,564.7z"/>
				<path class="st4" d="M16.1,559.8c0.2-0.1,0.5-0.3,0.5-0.3s0.3,0.8,0.7,1.8C17.3,561.4,16.5,560.4,16.1,559.8z"/>
			</g>
			<path class="st0" d="M23.4,562.7c-0.1,0.1-0.2,0.1-0.3,0.2c-0.3,0.1-0.5,0.3-0.8,0.4l-7.1-1.1l6.4,1.5c-0.3,0.2-0.5,0.3-0.8,0.5
				c-0.4,0.2-0.8,0.5-1.2,0.7c-0.4,0.2-0.8,0.5-1.2,0.7c-0.4,0.2-0.8,0.5-1.2,0.7c-0.4,0.2-0.8,0.4-1.1,0.7c-0.4,0.2-0.7,0.4-1,0.6
				c-0.2,0.1-0.3,0.2-0.4,0.3c-0.1,0.1-0.3,0.2-0.4,0.2c-0.1,0.1-0.2,0.2-0.3,0.2c-0.1,0.1-0.2,0.1-0.3,0.2
				c-0.2,0.1-0.3,0.2-0.4,0.3c-0.1,0.1-0.1,0.1-0.1,0.1s0.1,0,0.2-0.1c0.1,0,0.3-0.1,0.4-0.2c0.1,0,0.2-0.1,0.3-0.1
				c0.1-0.1,0.2-0.1,0.4-0.2c0.1-0.1,0.3-0.1,0.4-0.2c0.1-0.1,0.3-0.1,0.5-0.2c0.3-0.2,0.7-0.3,1-0.5c0.4-0.2,0.7-0.4,1.1-0.6
				c0.4-0.2,0.8-0.4,1.2-0.7c0.4-0.2,0.8-0.5,1.2-0.7c0.4-0.2,0.8-0.5,1.2-0.7c0.3-0.2,0.6-0.3,0.8-0.5l-2.1,6.2l2.8-6.6
				c0.3-0.1,0.5-0.3,0.8-0.4c0.1-0.1,0.2-0.1,0.3-0.2l1.3,5.7l-0.8-6c0.1,0,0.2-0.1,0.2-0.1c0.3-0.2,0.6-0.3,0.9-0.5
				c0.2-0.1,0.4-0.2,0.5-0.3c-0.1-0.1-0.2-0.1-0.3-0.2c0-0.1,0-0.2,0-0.3c-0.2,0.1-0.3,0.2-0.5,0.3c-0.3,0.1-0.5,0.3-0.8,0.5
				c-0.1,0-0.2,0.1-0.2,0.1l-4.7-3.8L23.4,562.7z"/>
		</g>
	</g>
</g>
<g>
	<g>
		<path class="st0" d="M40,385.4c-0.5,0.3-0.8-0.3-0.8-0.3c0.4-0.7,0.6-1.2,0.8-1.4c0.1-0.2,0.2-0.3,0.2-0.3
			c0.1-0.1,0.1-0.2,0.1-0.2c0.3-0.3,0.8-0.7,1.4-0.9c0.9-0.4,1.8-0.6,2.5-0.7l0.2,0.6C41.6,382,40,384.8,40,385.4z"/>
		<g>
			<path class="st1" d="M51,386.7c0.1-0.1,0.1-0.3,0.1-0.4c0,0-0.2-0.6-0.5-1.4c1.8-0.9,3.4-2.5,3.5-2.6c0.1-0.1,0.2-0.3,0.2-0.4
				c0-0.2-0.1-0.3-0.2-0.4c0,0-0.5-0.5-1.2-1.1c1.6-1.8,2.6-5.2,2.6-5.3c0-0.1,0-0.3-0.1-0.4c-0.1-0.1-0.2-0.2-0.4-0.3
				c-0.2,0-3.5-0.9-5.9-0.4c-0.1-0.9-0.3-1.6-0.3-1.6c0-0.1-0.1-0.3-0.3-0.3c-0.1-0.1-0.3-0.1-0.4-0.1c-0.1,0-2.3,0.7-4,1.8
				c-0.6-0.7-1-1.1-1-1.1c-0.1-0.1-0.3-0.2-0.4-0.2c-0.2,0-0.3,0.1-0.4,0.2c0,0-0.8,0.9-1.5,2c-1.1,1.5-1.6,2.8-1.6,3.9
				c0,0.9,0.3,1.8,0.7,2.5c0.4,0.8,1.1,1.3,1.8,1.6c-0.1,0.8,0.1,1.6,0.5,2.3c0,0,0,0,0,0c0.4,0.7,1.1,1.4,1.8,1.8
				c0.9,0.5,2.3,0.7,4.1,0.6c1.3-0.1,2.4-0.4,2.5-0.4C50.8,386.9,51,386.8,51,386.7z"/>
			<path class="st2" d="M51,386.7c0.1-0.1,0.1-0.3,0.1-0.4c0,0-0.2-0.6-0.5-1.4c1.8-0.9,3.4-2.5,3.5-2.6c0.1-0.1,0.2-0.3,0.2-0.4
				c0-0.2-0.1-0.3-0.2-0.4c0,0-0.5-0.5-1.2-1.1c1.6-1.8,2.6-5.2,2.6-5.3c0-0.1,0-0.3-0.1-0.4l-13.7,8c-0.1,0.8,0.1,1.6,0.5,2.3
				c0,0,0,0,0,0c0.4,0.7,1.1,1.4,1.8,1.8c0.9,0.5,2.3,0.7,4.1,0.6c1.3-0.1,2.4-0.4,2.5-0.4C50.8,386.9,51,386.8,51,386.7z"/>
			<g>
				<path class="st3" d="M50.1,373.8c-0.3,0-0.9,0.1-0.9,0.1s0.3,1.6,0.1,2.7L50.1,373.8z"/>
				<path class="st3" d="M44.7,373.4c-0.2,0.1-0.5,0.3-0.5,0.3s0.6,0.6,1.2,1.6C45.4,375.3,45,374.2,44.7,373.4z"/>
			</g>
			<g>
				<path class="st4" d="M53.5,379.6c-0.2,0.3-0.6,0.7-0.6,0.7s-1.3-1-2.3-1.4L53.5,379.6z"/>
				<path class="st4" d="M51.1,384.5c-0.2,0.1-0.5,0.3-0.5,0.3s-0.3-0.8-0.8-1.8C49.9,383,50.7,383.9,51.1,384.5z"/>
			</g>
			<path class="st0" d="M43.8,381.7c0.1-0.1,0.2-0.1,0.3-0.2c0.2-0.1,0.5-0.3,0.8-0.5l7.1,1l-6.4-1.4c0.3-0.2,0.5-0.3,0.8-0.5
				c0.4-0.2,0.8-0.5,1.2-0.7c0.4-0.2,0.8-0.5,1.2-0.7c0.4-0.2,0.8-0.5,1.2-0.7c0.4-0.2,0.8-0.5,1.1-0.7c0.4-0.2,0.7-0.4,1-0.6
				c0.2-0.1,0.3-0.2,0.4-0.3c0.1-0.1,0.3-0.2,0.4-0.3c0.1-0.1,0.2-0.2,0.3-0.2c0.1-0.1,0.2-0.1,0.3-0.2c0.2-0.1,0.3-0.2,0.4-0.3
				c0.1-0.1,0.1-0.1,0.1-0.1s-0.1,0-0.2,0.1c-0.1,0-0.2,0.1-0.4,0.2c-0.1,0-0.2,0.1-0.3,0.2c-0.1,0.1-0.2,0.1-0.4,0.2
				c-0.1,0.1-0.3,0.1-0.4,0.2c-0.1,0.1-0.3,0.2-0.5,0.2c-0.3,0.2-0.7,0.4-1,0.5c-0.4,0.2-0.7,0.4-1.1,0.6c-0.4,0.2-0.8,0.4-1.2,0.7
				c-0.4,0.2-0.8,0.5-1.2,0.7c-0.4,0.2-0.8,0.5-1.2,0.7c-0.3,0.2-0.6,0.3-0.8,0.5l2-6.2l-2.7,6.6c-0.3,0.2-0.5,0.3-0.8,0.4
				c-0.1,0.1-0.2,0.1-0.3,0.2l-1.4-5.7l0.9,6c-0.1,0-0.2,0.1-0.2,0.1c-0.3,0.2-0.6,0.3-0.8,0.5c-0.2,0.1-0.4,0.2-0.5,0.3
				c0.1,0.1,0.2,0.1,0.3,0.2c0,0.1,0,0.2,0,0.3c0.2-0.1,0.3-0.2,0.5-0.3c0.3-0.1,0.5-0.3,0.8-0.5c0.1,0,0.2-0.1,0.2-0.1l4.7,3.7
				L43.8,381.7z"/>
		</g>
	</g>
	<g>
		<path class="st0" d="M31.5,424.6c0.6,0.2,0.2,0.9,0.2,0.9c-0.7,0.1-1.3,0.2-1.5,0.3c-0.2,0-0.4,0-0.4,0c-0.1,0-0.2,0-0.2,0
			c-0.5-0.1-1-0.2-1.6-0.5c-0.9-0.4-1.6-1-2.1-1.5l0.3-0.5C27.8,425.4,31,425,31.5,424.6z"/>
		<g>
			<path class="st1" d="M25.6,415.2c-0.2,0-0.3,0.1-0.4,0.2c0,0-0.4,0.5-0.8,1.3c-1.8-0.8-4.1-1.1-4.2-1.1c-0.2,0-0.3,0-0.4,0.1
				c-0.1,0.1-0.2,0.2-0.2,0.4c0,0-0.1,0.7-0.1,1.6c-2.4-0.1-5.6,1.2-5.8,1.3c-0.1,0.1-0.3,0.2-0.3,0.3c-0.1,0.1,0,0.3,0,0.4
				c0.1,0.1,1.5,3.3,3.4,4.8c-0.6,0.7-1,1.2-1,1.3c-0.1,0.1-0.1,0.3-0.1,0.4c0,0.2,0.1,0.3,0.2,0.4c0.1,0.1,2,1.4,3.8,2
				c-0.2,0.8-0.2,1.5-0.2,1.5c0,0.2,0,0.3,0.1,0.4c0.1,0.1,0.2,0.2,0.4,0.2c0,0,1.2,0.1,2.5,0c1.9-0.1,3.2-0.5,4-1.2
				c0.7-0.6,1.2-1.3,1.5-2.1c0.3-0.8,0.4-1.7,0.2-2.4c0.6-0.4,1.2-1.1,1.5-1.9l0,0c0.3-0.8,0.4-1.7,0.3-2.6c-0.1-1-0.9-2.2-2.1-3.6
				c-0.9-1-1.8-1.7-1.8-1.7C25.9,415.2,25.7,415.2,25.6,415.2z"/>
			<path class="st2" d="M25.6,415.2c-0.2,0-0.3,0.1-0.4,0.2c0,0-0.4,0.5-0.8,1.3c-1.8-0.8-4.1-1.1-4.2-1.1c-0.2,0-0.3,0-0.4,0.1
				c-0.1,0.1-0.2,0.2-0.2,0.4c0,0-0.1,0.7-0.1,1.6c-2.4-0.1-5.6,1.2-5.8,1.3c-0.1,0.1-0.3,0.2-0.3,0.3l14.8,5.7
				c0.6-0.4,1.2-1.1,1.5-1.9l0,0c0.3-0.8,0.4-1.7,0.3-2.6c-0.1-1-0.9-2.2-2.1-3.6c-0.9-1-1.8-1.7-1.8-1.7
				C25.9,415.2,25.7,415.2,25.6,415.2z"/>
			<g>
				<path class="st3" d="M16.2,424c0.2,0.2,0.7,0.6,0.7,0.6s1.1-1.2,2-1.7L16.2,424z"/>
				<path class="st3" d="M19.3,428.5c0.2,0.1,0.5,0.2,0.5,0.2s0.2-0.8,0.5-1.9C20.2,426.7,19.6,427.7,19.3,428.5z"/>
			</g>
			<g>
				<path class="st4" d="M18.6,417.7c0.3,0,0.9,0,0.9,0s0,1.6,0.4,2.6L18.6,417.7z"/>
				<path class="st4" d="M23.9,416.5c0.2,0.1,0.5,0.2,0.5,0.2s-0.4,0.7-1,1.7C23.4,418.4,23.6,417.3,23.9,416.5z"/>
			</g>
			<path class="st0" d="M26.2,424c-0.1,0-0.2-0.1-0.3-0.1c-0.3-0.1-0.6-0.2-0.8-0.3l-3.7-6.1l2.9,5.8c-0.3-0.1-0.6-0.2-0.9-0.3
				c-0.4-0.2-0.9-0.3-1.3-0.5c-0.4-0.2-0.9-0.3-1.3-0.5c-0.4-0.2-0.9-0.3-1.3-0.5c-0.4-0.2-0.8-0.3-1.2-0.4
				c-0.4-0.1-0.8-0.3-1.1-0.4c-0.2-0.1-0.3-0.1-0.5-0.2c-0.2-0.1-0.3-0.1-0.4-0.1c-0.1,0-0.3-0.1-0.4-0.1c-0.1,0-0.2-0.1-0.3-0.1
				c-0.2-0.1-0.4-0.1-0.5-0.1c-0.1,0-0.2,0-0.2,0s0.1,0,0.2,0.1c0.1,0,0.2,0.1,0.4,0.2c0.1,0,0.2,0.1,0.3,0.1
				c0.1,0.1,0.2,0.1,0.4,0.2c0.1,0.1,0.3,0.1,0.4,0.2c0.1,0.1,0.3,0.1,0.5,0.2c0.3,0.1,0.7,0.3,1.1,0.4c0.4,0.2,0.8,0.3,1.2,0.5
				c0.4,0.2,0.8,0.3,1.3,0.5c0.4,0.2,0.9,0.4,1.3,0.5c0.4,0.2,0.9,0.4,1.3,0.5c0.3,0.1,0.6,0.2,0.9,0.3l-6.1,2.4l6.8-2.1
				c0.3,0.1,0.6,0.2,0.8,0.3c0.1,0,0.2,0.1,0.3,0.1l-3.6,4.6l4.1-4.4c0.1,0,0.2,0.1,0.3,0.1c0.3,0.1,0.6,0.2,0.9,0.4
				c0.2,0.1,0.4,0.2,0.6,0.2c0-0.1,0-0.2-0.1-0.3c0.1-0.1,0.2-0.1,0.3-0.2c-0.2-0.1-0.4-0.1-0.6-0.2c-0.3-0.1-0.6-0.2-0.9-0.4
				c-0.1,0-0.2-0.1-0.3-0.1l-0.1-6L26.2,424z"/>
		</g>
	</g>
	<g>
		<path class="st5" d="M39.1,456.4c0,0,5-12.1,2.3-32c-1.8-12.8-7-18.5-7.9-19c-0.1-0.1-0.7-0.3-1.4-1.2c-0.5-0.6-0.9-1.2-1.2-1.7
			c-0.8-1.5-3.2-6.6-4.3-15.5c-0.3-2.4-0.8-7.3-0.2-15.5c0.2-3.2,1.7-31.7,6.4-31.8c1.2,0,2.5,1.7,2.7,3.5
			c0.4,4.7-6.4,16.6-10.7,7.9c-2.1-4.3-3.2-12.5-2.6-20.5"/>
		<path class="st6" d="M33.5,460.4l-1.8,0c-1,0-1.9-0.9-1.9-2l0.8-49.6l1.2-77.2c0-1,0.9-1.9,2-1.9l1.8,0c1,0,1.9,0.9,1.9,2
			l-2.1,126.8C35.5,459.5,34.6,460.4,33.5,460.4z"/>
		<path class="st5" d="M28.1,447.4c8.5,0.7,14.6-1.2,14.9-5c0.2-2.1-1.3-5.8-3.1-7.9c-1-1.2-2-1.9-2.6-2.2c-1.4-0.9-4.8-3.5-7.1-9.2
			c-4.2-10.4-0.7-21.4-0.5-22.2c0,0,0.4-1.4,1.2-2.7c1.3-2.2,8.5-8.2,9.1-12.2c0.6-4.8-8.3-5.8-10.4-12.6c-2.5-8,7.8-13.6,9.9-27.2
			c1.2-7.3-0.6-13.7-2.1-17.7"/>
	</g>
	<g>
		<path class="st0" d="M36.2,429.8c-0.5-0.2-0.2-0.9-0.2-0.9c0.8-0.1,1.3-0.1,1.5-0.2c0.2,0,0.4,0,0.4,0c0.1,0,0.2,0,0.2,0
			c0.5,0.1,1,0.3,1.6,0.6c0.9,0.5,1.5,1.1,2,1.6l-0.4,0.5C39.9,429.2,36.7,429.4,36.2,429.8z"/>
		<g>
			<path class="st1" d="M41.5,439.6c0.2,0,0.3-0.1,0.4-0.2c0,0,0.4-0.5,0.9-1.2c1.8,0.9,4,1.4,4.1,1.4c0.1,0,0.3,0,0.4-0.1
				c0.1-0.1,0.2-0.2,0.2-0.4c0,0,0.1-0.7,0.2-1.6c2.4,0.3,5.7-0.9,5.8-0.9c0.1-0.1,0.3-0.2,0.3-0.3c0.1-0.1,0.1-0.3,0-0.4
				c-0.1-0.1-1.3-3.4-3.1-5.1c0.7-0.6,1.1-1.2,1.1-1.2c0.1-0.1,0.1-0.3,0.1-0.4c0-0.2-0.1-0.3-0.2-0.4c-0.1-0.1-1.9-1.5-3.7-2.2
				c0.2-0.8,0.3-1.4,0.3-1.5c0-0.2,0-0.3-0.1-0.4c-0.1-0.1-0.2-0.2-0.4-0.2c0,0-1.2-0.2-2.5-0.1c-1.9,0-3.2,0.3-4,0.9
				c-0.7,0.5-1.3,1.2-1.7,2c-0.4,0.8-0.5,1.6-0.3,2.4c-0.7,0.4-1.2,1-1.6,1.8l0,0c-0.4,0.8-0.5,1.7-0.5,2.6c0.1,1,0.7,2.3,1.9,3.7
				c0.9,1,1.7,1.8,1.7,1.8C41.2,439.6,41.4,439.6,41.5,439.6z"/>
			<path class="st2" d="M41.5,439.6c0.2,0,0.3-0.1,0.4-0.2c0,0,0.4-0.5,0.9-1.2c1.8,0.9,4,1.4,4.1,1.4c0.1,0,0.3,0,0.4-0.1
				c0.1-0.1,0.2-0.2,0.2-0.4c0,0,0.1-0.7,0.2-1.6c2.4,0.3,5.7-0.9,5.8-0.9c0.1-0.1,0.3-0.2,0.3-0.3l-14.4-6.7
				c-0.7,0.4-1.2,1-1.6,1.8l0,0c-0.4,0.8-0.5,1.7-0.5,2.6c0.1,1,0.7,2.3,1.9,3.7c0.9,1,1.7,1.8,1.7,1.8
				C41.2,439.6,41.4,439.6,41.5,439.6z"/>
			<g>
				<path class="st3" d="M51.5,431.5c-0.2-0.2-0.6-0.7-0.6-0.7s-1.2,1.1-2.2,1.6L51.5,431.5z"/>
				<path class="st3" d="M48.7,426.8c-0.2-0.1-0.5-0.2-0.5-0.2s-0.2,0.8-0.6,1.9C47.6,428.5,48.3,427.5,48.7,426.8z"/>
			</g>
			<g>
				<path class="st4" d="M48.7,437.5c-0.3,0-0.9,0-0.9,0s0.1-1.6-0.2-2.7L48.7,437.5z"/>
				<path class="st4" d="M43.3,438.4c-0.2-0.1-0.5-0.2-0.5-0.2s0.5-0.7,1.1-1.7C43.9,436.5,43.6,437.7,43.3,438.4z"/>
			</g>
			<path class="st0" d="M41.4,430.8c0.1,0,0.2,0.1,0.3,0.1c0.3,0.1,0.5,0.2,0.8,0.4l3.3,6.4l-2.5-6c0.3,0.1,0.6,0.3,0.9,0.4
				c0.4,0.2,0.9,0.4,1.3,0.6c0.4,0.2,0.9,0.4,1.3,0.6c0.4,0.2,0.9,0.4,1.3,0.6c0.4,0.2,0.8,0.4,1.2,0.5c0.4,0.2,0.7,0.3,1.1,0.5
				c0.2,0.1,0.3,0.1,0.5,0.2c0.2,0.1,0.3,0.1,0.4,0.2c0.1,0.1,0.3,0.1,0.4,0.2c0.1,0,0.2,0.1,0.3,0.1c0.2,0.1,0.3,0.1,0.5,0.2
				c0.1,0,0.2,0.1,0.2,0.1s-0.1,0-0.1-0.1c-0.1-0.1-0.2-0.1-0.4-0.2c-0.1-0.1-0.2-0.1-0.3-0.2c-0.1-0.1-0.2-0.1-0.4-0.2
				c-0.1-0.1-0.3-0.1-0.4-0.2c-0.1-0.1-0.3-0.2-0.5-0.2c-0.3-0.2-0.7-0.3-1-0.5c-0.4-0.2-0.8-0.4-1.2-0.6c-0.4-0.2-0.8-0.4-1.2-0.6
				c-0.4-0.2-0.9-0.4-1.3-0.6c-0.4-0.2-0.9-0.4-1.3-0.6c-0.3-0.1-0.6-0.3-0.9-0.4l6.2-2l-7,1.6c-0.3-0.1-0.6-0.3-0.8-0.4
				c-0.1,0-0.2-0.1-0.3-0.1l3.9-4.4l-4.4,4.1c-0.1,0-0.2-0.1-0.2-0.1c-0.3-0.2-0.6-0.3-0.9-0.4c-0.2-0.1-0.4-0.2-0.6-0.3
				c0,0.1,0,0.2,0,0.3c-0.1,0.1-0.2,0.1-0.3,0.2c0.2,0.1,0.3,0.2,0.6,0.3c0.3,0.1,0.6,0.3,0.9,0.4c0.1,0,0.2,0.1,0.2,0.1l-0.3,6
				L41.4,430.8z"/>
		</g>
	</g>
	<g>
		<path class="st0" d="M28.4,408.9c-0.8,0.2-0.9-0.8-0.9-0.8c0.8-0.7,1.3-1.2,1.6-1.4c0.2-0.2,0.4-0.3,0.4-0.3
			c0.1-0.1,0.2-0.1,0.3-0.2c0.6-0.3,1.3-0.5,2.2-0.6c1.3-0.2,2.5,0,3.5,0.2l0,0.8C32,405.3,28.7,408.1,28.4,408.9z"/>
		<g>
			<path class="st1" d="M41.9,415.5c0.2-0.1,0.3-0.3,0.3-0.5c0,0,0.1-0.9,0.1-2c2.7-0.4,5.5-1.6,5.6-1.7c0.2-0.1,0.3-0.2,0.4-0.4
				c0.1-0.2,0.1-0.4,0-0.6c0,0-0.4-0.9-1.1-1.9c2.9-1.6,5.6-5.4,5.7-5.6c0.1-0.2,0.2-0.4,0.1-0.6c0-0.2-0.2-0.4-0.3-0.5
				c-0.2-0.1-4.1-2.7-7.3-3.2c0.2-1.2,0.3-2.1,0.3-2.2c0-0.2,0-0.4-0.2-0.6c-0.1-0.2-0.3-0.3-0.5-0.3c-0.1,0-3.2-0.2-5.8,0.4
				c-0.4-1.1-0.8-1.8-0.8-1.9c-0.1-0.2-0.3-0.3-0.4-0.4c-0.2-0.1-0.4,0-0.6,0c-0.1,0-1.4,0.7-2.9,1.8c-2,1.5-3.3,2.9-3.7,4.2
				c-0.4,1.2-0.5,2.4-0.3,3.5c0.2,1.2,0.7,2.2,1.5,2.9c-0.4,0.9-0.6,2.1-0.4,3.2c0,0,0,0,0,0c0.2,1.1,0.7,2.2,1.5,3.2
				c0.9,1.1,2.6,1.9,5,2.6c1.7,0.5,3.2,0.6,3.3,0.6C41.5,415.7,41.7,415.6,41.9,415.5z"/>
			<path class="st2" d="M41.9,415.5c0.2-0.1,0.3-0.3,0.3-0.5c0,0,0.1-0.9,0.1-2c2.7-0.4,5.5-1.6,5.6-1.7c0.2-0.1,0.3-0.2,0.4-0.4
				c0.1-0.2,0.1-0.4,0-0.6c0,0-0.4-0.9-1.1-1.9c2.9-1.6,5.6-5.4,5.7-5.6c0.1-0.2,0.2-0.4,0.1-0.6L31.9,406c-0.4,0.9-0.6,2.1-0.4,3.2
				c0,0,0,0,0,0c0.2,1.1,0.7,2.2,1.5,3.2c0.9,1.1,2.6,1.9,5,2.6c1.7,0.5,3.2,0.6,3.3,0.6C41.5,415.7,41.7,415.6,41.9,415.5z"/>
			<g>
				<path class="st3" d="M46.5,398.7c-0.4-0.1-1.2-0.3-1.2-0.3s-0.4,2.2-1.1,3.4L46.5,398.7z"/>
				<path class="st3" d="M39.8,395.7c-0.2,0-0.7,0.2-0.7,0.2s0.4,1.1,0.8,2.5C39.9,398.4,39.9,396.8,39.8,395.7z"/>
			</g>
			<g>
				<path class="st4" d="M48.2,407.6c-0.3,0.3-1,0.7-1,0.7s-1.1-1.9-2.3-2.8L48.2,407.6z"/>
				<path class="st4" d="M42.9,412.8c-0.2,0-0.7,0.1-0.7,0.1s0-1.2-0.1-2.7C42.1,410.2,42.7,411.7,42.9,412.8z"/>
			</g>
			<path class="st0" d="M34.9,405.9c0.1,0,0.3-0.1,0.4-0.1c0.4-0.1,0.8-0.2,1.2-0.2l8.6,4.4l-7.5-4.6c0.4-0.1,0.8-0.2,1.3-0.2
				c0.6-0.1,1.3-0.2,1.9-0.4c0.6-0.1,1.3-0.3,1.9-0.4c0.6-0.1,1.2-0.3,1.8-0.4c0.6-0.1,1.2-0.2,1.7-0.4c0.5-0.1,1.1-0.2,1.5-0.3
				c0.2-0.1,0.5-0.1,0.7-0.2c0.2-0.1,0.4-0.1,0.6-0.1c0.2,0,0.4-0.1,0.5-0.1c0.2,0,0.3-0.1,0.5-0.1c0.3-0.1,0.5-0.1,0.6-0.2
				c0.1,0,0.2-0.1,0.2-0.1s-0.1,0-0.2,0c-0.2,0-0.4,0-0.7,0.1c-0.1,0-0.3,0-0.5,0.1c-0.2,0-0.4,0-0.5,0.1c-0.2,0-0.4,0.1-0.6,0.1
				c-0.2,0-0.4,0.1-0.7,0.1c-0.5,0.1-1,0.1-1.5,0.2c-0.5,0.1-1.1,0.2-1.7,0.3c-0.6,0.1-1.2,0.2-1.8,0.3c-0.6,0.1-1.3,0.2-1.9,0.3
				c-0.6,0.1-1.3,0.2-1.9,0.3c-0.4,0.1-0.8,0.2-1.3,0.2l5.3-7l-6.4,7.2c-0.4,0.1-0.8,0.1-1.2,0.2c-0.1,0-0.3,0.1-0.4,0.1l0.8-7.9
				l-1.6,8c-0.1,0-0.2,0-0.4,0.1c-0.5,0.1-0.9,0.2-1.3,0.2c-0.3,0.1-0.6,0.1-0.8,0.2c0.1,0.1,0.2,0.2,0.3,0.3
				c-0.1,0.1-0.1,0.3-0.2,0.4c0.2,0,0.5-0.1,0.8-0.2c0.4-0.1,0.8-0.2,1.3-0.2c0.1,0,0.2,0,0.4-0.1l4.4,6.9L34.9,405.9z"/>
		</g>
	</g>
	<g>
		<path class="st0" d="M29.4,374c0.5-0.3,0.8,0.4,0.8,0.4c-0.4,0.7-0.7,1.2-0.8,1.3c-0.1,0.2-0.2,0.3-0.2,0.3
			c-0.1,0.1-0.1,0.2-0.1,0.2c-0.4,0.3-0.8,0.6-1.4,0.9c-0.9,0.4-1.8,0.6-2.5,0.7l-0.2-0.6C27.7,377.3,29.4,374.6,29.4,374z"/>
		<g>
			<path class="st1" d="M18.3,372.6c-0.1,0.1-0.1,0.3-0.1,0.4c0,0,0.2,0.6,0.4,1.4c-1.8,0.9-3.4,2.4-3.5,2.5
				c-0.1,0.1-0.2,0.2-0.2,0.4c0,0.2,0.1,0.3,0.2,0.4c0,0,0.5,0.5,1.2,1.1c-1.6,1.8-2.6,5.1-2.7,5.3c0,0.1,0,0.3,0,0.4
				c0.1,0.1,0.2,0.2,0.3,0.3c0.2,0,3.5,0.9,5.9,0.5c0.1,0.9,0.3,1.6,0.3,1.6c0,0.1,0.1,0.3,0.3,0.4c0.1,0.1,0.3,0.1,0.4,0.1
				c0.1,0,2.3-0.6,4-1.7c0.5,0.7,1,1.1,1,1.1c0.1,0.1,0.3,0.2,0.4,0.2c0.2,0,0.3-0.1,0.4-0.2c0,0,0.8-0.8,1.6-1.9
				c1.1-1.5,1.6-2.8,1.6-3.8c0-0.9-0.2-1.8-0.7-2.5c-0.4-0.8-1-1.3-1.7-1.7c0.1-0.8-0.1-1.6-0.5-2.3l0,0c-0.4-0.7-1-1.4-1.8-1.9
				c-0.9-0.5-2.2-0.7-4.1-0.6c-1.3,0.1-2.4,0.3-2.5,0.3C18.6,372.3,18.4,372.4,18.3,372.6z"/>
			<path class="st2" d="M18.3,372.6c-0.1,0.1-0.1,0.3-0.1,0.4c0,0,0.2,0.6,0.4,1.4c-1.8,0.9-3.4,2.4-3.5,2.5
				c-0.1,0.1-0.2,0.2-0.2,0.4c0,0.2,0.1,0.3,0.2,0.4c0,0,0.5,0.5,1.2,1.1c-1.6,1.8-2.6,5.1-2.7,5.3c0,0.1,0,0.3,0,0.4l13.8-7.8
				c0.1-0.8-0.1-1.6-0.5-2.3l0,0c-0.4-0.7-1-1.4-1.8-1.9c-0.9-0.5-2.2-0.7-4.1-0.6c-1.3,0.1-2.4,0.3-2.5,0.3
				C18.6,372.3,18.4,372.4,18.3,372.6z"/>
			<g>
				<path class="st3" d="M19.1,385.4c0.3,0,0.9-0.1,0.9-0.1s-0.2-1.6,0-2.7L19.1,385.4z"/>
				<path class="st3" d="M24.5,385.9c0.2-0.1,0.5-0.3,0.5-0.3s-0.5-0.7-1.2-1.6C23.8,384,24.2,385.2,24.5,385.9z"/>
			</g>
			<g>
				<path class="st4" d="M15.8,379.6c0.2-0.3,0.6-0.7,0.6-0.7s1.2,1,2.3,1.4L15.8,379.6z"/>
				<path class="st4" d="M18.2,374.7c0.2-0.1,0.5-0.3,0.5-0.3s0.3,0.8,0.7,1.8C19.4,376.3,18.7,375.4,18.2,374.7z"/>
			</g>
			<path class="st0" d="M25.5,377.7c-0.1,0.1-0.2,0.1-0.3,0.2c-0.3,0.1-0.5,0.3-0.8,0.4l-7.1-1.1l6.4,1.5c-0.3,0.2-0.5,0.3-0.8,0.5
				c-0.4,0.2-0.8,0.5-1.2,0.7c-0.4,0.2-0.8,0.5-1.2,0.7c-0.4,0.2-0.8,0.5-1.2,0.7c-0.4,0.2-0.8,0.4-1.1,0.7c-0.4,0.2-0.7,0.4-1,0.6
				c-0.2,0.1-0.3,0.2-0.4,0.3c-0.1,0.1-0.3,0.2-0.4,0.2c-0.1,0.1-0.2,0.2-0.3,0.2c-0.1,0.1-0.2,0.1-0.3,0.2
				c-0.2,0.1-0.3,0.2-0.4,0.3c-0.1,0.1-0.1,0.1-0.1,0.1s0.1,0,0.2-0.1c0.1,0,0.3-0.1,0.4-0.2c0.1,0,0.2-0.1,0.3-0.1
				c0.1-0.1,0.2-0.1,0.4-0.2c0.1-0.1,0.3-0.1,0.4-0.2c0.1-0.1,0.3-0.1,0.5-0.2c0.3-0.2,0.7-0.3,1-0.5c0.4-0.2,0.7-0.4,1.1-0.6
				c0.4-0.2,0.8-0.4,1.2-0.7c0.4-0.2,0.8-0.5,1.2-0.7c0.4-0.2,0.8-0.5,1.2-0.7c0.3-0.2,0.6-0.3,0.8-0.5l-2.1,6.2l2.8-6.6
				c0.3-0.1,0.5-0.3,0.8-0.4c0.1-0.1,0.2-0.1,0.3-0.2l1.3,5.7l-0.8-6c0.1,0,0.2-0.1,0.2-0.1c0.3-0.2,0.6-0.3,0.9-0.5
				c0.2-0.1,0.4-0.2,0.5-0.3c-0.1-0.1-0.2-0.1-0.3-0.2c0-0.1,0-0.2,0-0.3c-0.2,0.1-0.3,0.2-0.5,0.3c-0.3,0.1-0.5,0.3-0.8,0.5
				c-0.1,0-0.2,0.1-0.2,0.1l-4.7-3.8L25.5,377.7z"/>
		</g>
	</g>
</g>
<g>
	<g>
		<path class="st0" d="M202,478.2c-0.5,0.3-0.8-0.3-0.8-0.3c0.4-0.7,0.6-1.2,0.8-1.4c0.1-0.2,0.2-0.3,0.2-0.3
			c0.1-0.1,0.1-0.2,0.1-0.2c0.3-0.3,0.8-0.7,1.4-0.9c0.9-0.4,1.8-0.6,2.5-0.7l0.2,0.6C203.6,474.8,202,477.6,202,478.2z"/>
		<g>
			<path class="st1" d="M213,479.5c0.1-0.1,0.1-0.3,0.1-0.4c0,0-0.2-0.6-0.5-1.4c1.8-0.9,3.4-2.5,3.5-2.6c0.1-0.1,0.2-0.3,0.2-0.4
				c0-0.2-0.1-0.3-0.2-0.4c0,0-0.5-0.5-1.2-1.1c1.6-1.8,2.6-5.2,2.6-5.3c0-0.1,0-0.3-0.1-0.4c-0.1-0.1-0.2-0.2-0.4-0.3
				c-0.2,0-3.5-0.9-5.9-0.4c-0.1-0.9-0.3-1.6-0.3-1.6c0-0.1-0.1-0.3-0.3-0.3s-0.3-0.1-0.4-0.1c-0.1,0-2.3,0.7-4,1.8
				c-0.6-0.7-1-1.1-1-1.1c-0.1-0.1-0.3-0.2-0.4-0.2c-0.2,0-0.3,0.1-0.4,0.2c0,0-0.8,0.9-1.5,2c-1.1,1.5-1.6,2.8-1.6,3.9
				c0,0.9,0.3,1.8,0.7,2.5c0.4,0.8,1.1,1.3,1.8,1.6c-0.1,0.8,0.1,1.6,0.5,2.3l0,0c0.4,0.7,1.1,1.4,1.8,1.8c0.9,0.5,2.3,0.7,4.1,0.6
				c1.3-0.1,2.4-0.4,2.5-0.4C212.8,479.7,213,479.6,213,479.5z"/>
			<path class="st2" d="M213,479.5c0.1-0.1,0.1-0.3,0.1-0.4c0,0-0.2-0.6-0.5-1.4c1.8-0.9,3.4-2.5,3.5-2.6c0.1-0.1,0.2-0.3,0.2-0.4
				c0-0.2-0.1-0.3-0.2-0.4c0,0-0.5-0.5-1.2-1.1c1.6-1.8,2.6-5.2,2.6-5.3c0-0.1,0-0.3-0.1-0.4l-13.7,8c-0.1,0.8,0.1,1.6,0.5,2.3l0,0
				c0.4,0.7,1.1,1.4,1.8,1.8c0.9,0.5,2.3,0.7,4.1,0.6c1.3-0.1,2.4-0.4,2.5-0.4C212.8,479.7,213,479.6,213,479.5z"/>
			<g>
				<path class="st3" d="M212.1,466.7c-0.3,0-0.9,0.1-0.9,0.1s0.3,1.6,0.1,2.7L212.1,466.7z"/>
				<path class="st3" d="M206.7,466.2c-0.2,0.1-0.5,0.3-0.5,0.3s0.6,0.6,1.2,1.6C207.4,468.1,207,467,206.7,466.2z"/>
			</g>
			<g>
				<path class="st4" d="M215.5,472.4c-0.2,0.3-0.6,0.7-0.6,0.7s-1.3-1-2.3-1.4L215.5,472.4z"/>
				<path class="st4" d="M213.1,477.4c-0.2,0.1-0.5,0.3-0.5,0.3s-0.3-0.8-0.8-1.8C211.9,475.8,212.7,476.7,213.1,477.4z"/>
			</g>
			<path class="st0" d="M205.8,474.5c0.1-0.1,0.2-0.1,0.3-0.2c0.2-0.1,0.5-0.3,0.8-0.5l7.1,1l-6.4-1.4c0.3-0.2,0.5-0.3,0.8-0.5
				c0.4-0.2,0.8-0.5,1.2-0.7c0.4-0.2,0.8-0.5,1.2-0.7c0.4-0.2,0.8-0.5,1.2-0.7c0.4-0.2,0.8-0.5,1.1-0.7c0.4-0.2,0.7-0.4,1-0.6
				c0.2-0.1,0.3-0.2,0.4-0.3c0.1-0.1,0.3-0.2,0.4-0.3c0.1-0.1,0.2-0.2,0.3-0.2c0.1-0.1,0.2-0.1,0.3-0.2c0.2-0.1,0.3-0.2,0.4-0.3
				c0.1-0.1,0.1-0.1,0.1-0.1s-0.1,0-0.2,0.1c-0.1,0-0.2,0.1-0.4,0.2c-0.1,0-0.2,0.1-0.3,0.2c-0.1,0.1-0.2,0.1-0.4,0.2
				c-0.1,0.1-0.3,0.1-0.4,0.2c-0.1,0.1-0.3,0.2-0.5,0.2c-0.3,0.2-0.7,0.4-1,0.5c-0.4,0.2-0.7,0.4-1.1,0.6c-0.4,0.2-0.8,0.4-1.2,0.7
				c-0.4,0.2-0.8,0.5-1.2,0.7c-0.4,0.2-0.8,0.5-1.2,0.7c-0.3,0.2-0.6,0.3-0.8,0.5l2-6.2l-2.7,6.6c-0.3,0.2-0.5,0.3-0.8,0.4
				c-0.1,0.1-0.2,0.1-0.3,0.2l-1.4-5.7l0.9,6c-0.1,0-0.2,0.1-0.2,0.1c-0.3,0.2-0.6,0.3-0.8,0.5c-0.2,0.1-0.4,0.2-0.5,0.3
				c0.1,0.1,0.2,0.1,0.3,0.2c0,0.1,0,0.2,0,0.3c0.2-0.1,0.3-0.2,0.5-0.3c0.3-0.1,0.5-0.3,0.8-0.5c0.1,0,0.2-0.1,0.2-0.1l4.7,3.7
				L205.8,474.5z"/>
		</g>
	</g>
	<g>
		<path class="st0" d="M193.5,517.4c0.6,0.2,0.2,0.9,0.2,0.9c-0.7,0.1-1.3,0.2-1.5,0.3c-0.2,0-0.4,0-0.4,0c-0.1,0-0.2,0-0.2,0
			c-0.5-0.1-1-0.2-1.6-0.5c-0.9-0.4-1.6-1-2.1-1.5l0.3-0.5C189.8,518.3,193,517.8,193.5,517.4z"/>
		<g>
			<path class="st1" d="M187.6,508c-0.2,0-0.3,0.1-0.4,0.2c0,0-0.4,0.5-0.8,1.3c-1.8-0.8-4.1-1.1-4.2-1.1c-0.2,0-0.3,0-0.4,0.1
				c-0.1,0.1-0.2,0.2-0.2,0.4c0,0-0.1,0.7-0.1,1.6c-2.4-0.1-5.6,1.2-5.8,1.3c-0.1,0.1-0.3,0.2-0.3,0.3c-0.1,0.1,0,0.3,0,0.4
				c0.1,0.1,1.5,3.3,3.4,4.8c-0.6,0.7-1,1.2-1,1.3c-0.1,0.1-0.1,0.3-0.1,0.4c0,0.2,0.1,0.3,0.2,0.4c0.1,0.1,2,1.4,3.8,2
				c-0.2,0.8-0.2,1.5-0.2,1.5c0,0.2,0,0.3,0.1,0.4c0.1,0.1,0.2,0.2,0.4,0.2c0,0,1.2,0.1,2.5,0c1.9-0.1,3.2-0.5,4-1.2
				c0.7-0.6,1.2-1.3,1.5-2.1c0.3-0.8,0.4-1.7,0.2-2.4c0.6-0.4,1.2-1.1,1.5-1.9c0,0,0,0,0,0c0.3-0.8,0.4-1.7,0.3-2.6
				c-0.1-1-0.9-2.2-2.1-3.6c-0.9-1-1.8-1.7-1.8-1.7C187.9,508.1,187.7,508,187.6,508z"/>
			<path class="st2" d="M187.6,508c-0.2,0-0.3,0.1-0.4,0.2c0,0-0.4,0.5-0.8,1.3c-1.8-0.8-4.1-1.1-4.2-1.1c-0.2,0-0.3,0-0.4,0.1
				c-0.1,0.1-0.2,0.2-0.2,0.4c0,0-0.1,0.7-0.1,1.6c-2.4-0.1-5.6,1.2-5.8,1.3c-0.1,0.1-0.3,0.2-0.3,0.3l14.8,5.7
				c0.6-0.4,1.2-1.1,1.5-1.9c0,0,0,0,0,0c0.3-0.8,0.4-1.7,0.3-2.6c-0.1-1-0.9-2.2-2.1-3.6c-0.9-1-1.8-1.7-1.8-1.7
				C187.9,508.1,187.7,508,187.6,508z"/>
			<g>
				<path class="st3" d="M178.2,516.8c0.2,0.2,0.7,0.6,0.7,0.6s1.1-1.2,2-1.7L178.2,516.8z"/>
				<path class="st3" d="M181.3,521.3c0.2,0.1,0.5,0.2,0.5,0.2s0.2-0.8,0.5-1.9C182.2,519.5,181.6,520.6,181.3,521.3z"/>
			</g>
			<g>
				<path class="st4" d="M180.6,510.6c0.3,0,0.9,0,0.9,0s0,1.6,0.4,2.6L180.6,510.6z"/>
				<path class="st4" d="M185.9,509.3c0.2,0.1,0.5,0.2,0.5,0.2s-0.4,0.7-1,1.7C185.4,511.3,185.6,510.1,185.9,509.3z"/>
			</g>
			<path class="st0" d="M188.2,516.8c-0.1,0-0.2-0.1-0.3-0.1c-0.3-0.1-0.6-0.2-0.8-0.3l-3.7-6.1l2.9,5.8c-0.3-0.1-0.6-0.2-0.9-0.3
				c-0.4-0.2-0.9-0.3-1.3-0.5c-0.4-0.2-0.9-0.3-1.3-0.5c-0.4-0.2-0.9-0.3-1.3-0.5c-0.4-0.2-0.8-0.3-1.2-0.4
				c-0.4-0.1-0.8-0.3-1.1-0.4c-0.2-0.1-0.3-0.1-0.5-0.2c-0.2-0.1-0.3-0.1-0.4-0.1c-0.1,0-0.3-0.1-0.4-0.1c-0.1,0-0.2-0.1-0.3-0.1
				c-0.2-0.1-0.4-0.1-0.5-0.1c-0.1,0-0.2,0-0.2,0s0.1,0,0.2,0.1c0.1,0,0.2,0.1,0.4,0.2c0.1,0,0.2,0.1,0.3,0.1
				c0.1,0.1,0.2,0.1,0.4,0.2c0.1,0.1,0.3,0.1,0.4,0.2c0.1,0.1,0.3,0.1,0.5,0.2c0.3,0.1,0.7,0.3,1.1,0.4c0.4,0.2,0.8,0.3,1.2,0.5
				c0.4,0.2,0.8,0.3,1.3,0.5c0.4,0.2,0.9,0.4,1.3,0.5c0.4,0.2,0.9,0.4,1.3,0.5c0.3,0.1,0.6,0.2,0.9,0.3l-6.1,2.4l6.8-2.1
				c0.3,0.1,0.6,0.2,0.8,0.3c0.1,0,0.2,0.1,0.3,0.1l-3.6,4.6l4.1-4.4c0.1,0,0.2,0.1,0.3,0.1c0.3,0.1,0.6,0.2,0.9,0.4
				c0.2,0.1,0.4,0.2,0.6,0.2c0-0.1,0-0.2-0.1-0.3c0.1-0.1,0.2-0.1,0.3-0.2c-0.2-0.1-0.4-0.1-0.6-0.2c-0.3-0.1-0.6-0.2-0.9-0.4
				c-0.1,0-0.2-0.1-0.3-0.1l-0.1-6L188.2,516.8z"/>
		</g>
	</g>
	<g>
		<path class="st5" d="M201.1,549.2c0,0,5-12.1,2.3-32c-1.8-12.8-7-18.5-7.9-19c-0.1-0.1-0.7-0.3-1.4-1.2c-0.5-0.6-0.9-1.2-1.2-1.7
			c-0.8-1.5-3.2-6.6-4.3-15.5c-0.3-2.4-0.8-7.3-0.2-15.5c0.2-3.2,1.7-31.7,6.4-31.8c1.2,0,2.5,1.7,2.7,3.5
			c0.4,4.7-6.4,16.6-10.7,7.9c-2.1-4.3-3.2-12.5-2.6-20.5"/>
		<path class="st6" d="M195.5,553.2l-1.8,0c-1,0-1.9-0.9-1.9-2l0.8-49.6l1.2-77.2c0-1,0.9-1.9,2-1.9l1.8,0c1,0,1.9,0.9,1.9,2
			l-2.1,126.8C197.5,552.3,196.6,553.2,195.5,553.2z"/>
		<path class="st5" d="M190.1,540.2c8.5,0.7,14.6-1.2,14.9-5c0.2-2.1-1.3-5.8-3.1-7.9c-1-1.2-2-1.9-2.6-2.2
			c-1.4-0.9-4.8-3.5-7.1-9.2c-4.2-10.4-0.7-21.4-0.5-22.2c0,0,0.4-1.4,1.2-2.7c1.3-2.2,8.5-8.2,9.1-12.2c0.6-4.8-8.3-5.8-10.4-12.6
			c-2.5-8,7.8-13.6,9.9-27.2c1.2-7.3-0.6-13.7-2.1-17.7"/>
	</g>
	<g>
		<path class="st0" d="M198.2,522.6c-0.5-0.2-0.2-0.9-0.2-0.9c0.8-0.1,1.3-0.1,1.5-0.2c0.2,0,0.4,0,0.4,0c0.1,0,0.2,0,0.2,0
			c0.5,0.1,1,0.3,1.6,0.6c0.9,0.5,1.5,1.1,2,1.6l-0.4,0.5C201.9,522.1,198.7,522.3,198.2,522.6z"/>
		<g>
			<path class="st1" d="M203.5,532.4c0.2,0,0.3-0.1,0.4-0.2c0,0,0.4-0.5,0.9-1.2c1.8,0.9,4,1.4,4.1,1.4c0.1,0,0.3,0,0.4-0.1
				c0.1-0.1,0.2-0.2,0.2-0.4c0,0,0.1-0.7,0.2-1.6c2.4,0.3,5.7-0.9,5.8-0.9c0.1-0.1,0.3-0.2,0.3-0.3c0.1-0.1,0.1-0.3,0-0.4
				c-0.1-0.1-1.3-3.4-3.1-5.1c0.7-0.6,1.1-1.2,1.1-1.2c0.1-0.1,0.1-0.3,0.1-0.4c0-0.2-0.1-0.3-0.2-0.4c-0.1-0.1-1.9-1.5-3.7-2.2
				c0.2-0.8,0.3-1.4,0.3-1.5c0-0.2,0-0.3-0.1-0.4c-0.1-0.1-0.2-0.2-0.4-0.2c0,0-1.2-0.2-2.5-0.1c-1.9,0-3.2,0.3-4,0.9
				c-0.7,0.5-1.3,1.2-1.7,2c-0.4,0.8-0.5,1.6-0.3,2.4c-0.7,0.4-1.2,1-1.6,1.8l0,0c-0.4,0.8-0.5,1.7-0.5,2.6c0.1,1,0.7,2.3,1.9,3.7
				c0.9,1,1.7,1.8,1.7,1.8C203.2,532.4,203.4,532.4,203.5,532.4z"/>
			<path class="st2" d="M203.5,532.4c0.2,0,0.3-0.1,0.4-0.2c0,0,0.4-0.5,0.9-1.2c1.8,0.9,4,1.4,4.1,1.4c0.1,0,0.3,0,0.4-0.1
				c0.1-0.1,0.2-0.2,0.2-0.4c0,0,0.1-0.7,0.2-1.6c2.4,0.3,5.7-0.9,5.8-0.9c0.1-0.1,0.3-0.2,0.3-0.3l-14.4-6.7
				c-0.7,0.4-1.2,1-1.6,1.8l0,0c-0.4,0.8-0.5,1.7-0.5,2.6c0.1,1,0.7,2.3,1.9,3.7c0.9,1,1.7,1.8,1.7,1.8
				C203.2,532.4,203.4,532.4,203.5,532.4z"/>
			<g>
				<path class="st3" d="M213.5,524.3c-0.2-0.2-0.6-0.7-0.6-0.7s-1.2,1.1-2.2,1.6L213.5,524.3z"/>
				<path class="st3" d="M210.7,519.6c-0.2-0.1-0.5-0.2-0.5-0.2s-0.2,0.8-0.6,1.9C209.6,521.3,210.3,520.3,210.7,519.6z"/>
			</g>
			<g>
				<path class="st4" d="M210.7,530.4c-0.3,0-0.9,0-0.9,0s0.1-1.6-0.2-2.7L210.7,530.4z"/>
				<path class="st4" d="M205.3,531.3c-0.2-0.1-0.5-0.2-0.5-0.2s0.5-0.7,1.1-1.7C205.9,529.4,205.6,530.5,205.3,531.3z"/>
			</g>
			<path class="st0" d="M203.4,523.6c0.1,0,0.2,0.1,0.3,0.1c0.3,0.1,0.5,0.2,0.8,0.4l3.3,6.4l-2.5-6c0.3,0.1,0.6,0.3,0.9,0.4
				c0.4,0.2,0.9,0.4,1.3,0.6c0.4,0.2,0.9,0.4,1.3,0.6c0.4,0.2,0.9,0.4,1.3,0.6c0.4,0.2,0.8,0.4,1.2,0.5c0.4,0.2,0.7,0.3,1.1,0.5
				c0.2,0.1,0.3,0.1,0.5,0.2c0.2,0.1,0.3,0.1,0.4,0.2c0.1,0.1,0.3,0.1,0.4,0.2c0.1,0,0.2,0.1,0.3,0.1c0.2,0.1,0.3,0.1,0.5,0.2
				c0.1,0,0.2,0.1,0.2,0.1s-0.1,0-0.1-0.1c-0.1-0.1-0.2-0.1-0.4-0.2c-0.1-0.1-0.2-0.1-0.3-0.2c-0.1-0.1-0.2-0.1-0.4-0.2
				c-0.1-0.1-0.3-0.1-0.4-0.2c-0.1-0.1-0.3-0.2-0.5-0.2c-0.3-0.2-0.7-0.3-1-0.5c-0.4-0.2-0.8-0.4-1.2-0.6c-0.4-0.2-0.8-0.4-1.2-0.6
				c-0.4-0.2-0.9-0.4-1.3-0.6c-0.4-0.2-0.9-0.4-1.3-0.6c-0.3-0.1-0.6-0.3-0.9-0.4l6.2-2l-7,1.6c-0.3-0.1-0.6-0.3-0.8-0.4
				c-0.1,0-0.2-0.1-0.3-0.1l3.9-4.4l-4.4,4.1c-0.1,0-0.2-0.1-0.2-0.1c-0.3-0.2-0.6-0.3-0.9-0.4c-0.2-0.1-0.4-0.2-0.6-0.3
				c0,0.1,0,0.2,0,0.3c-0.1,0.1-0.2,0.1-0.3,0.2c0.2,0.1,0.3,0.2,0.6,0.3c0.3,0.1,0.6,0.3,0.9,0.4c0.1,0,0.2,0.1,0.2,0.1l-0.3,6
				L203.4,523.6z"/>
		</g>
	</g>
	<g>
		<path class="st0" d="M190.4,501.7c-0.8,0.2-0.9-0.8-0.9-0.8c0.8-0.7,1.3-1.2,1.6-1.4c0.2-0.2,0.4-0.3,0.4-0.3
			c0.1-0.1,0.2-0.1,0.3-0.2c0.6-0.3,1.3-0.5,2.2-0.6c1.3-0.2,2.5,0,3.5,0.2l0,0.8C194,498.1,190.7,500.9,190.4,501.7z"/>
		<g>
			<path class="st1" d="M203.9,508.3c0.2-0.1,0.3-0.3,0.3-0.5c0,0,0.1-0.9,0.1-2c2.7-0.4,5.5-1.6,5.6-1.7c0.2-0.1,0.3-0.2,0.4-0.4
				c0.1-0.2,0.1-0.4,0-0.6c0,0-0.4-0.9-1.1-1.9c2.9-1.6,5.6-5.4,5.7-5.6c0.1-0.2,0.2-0.4,0.1-0.6c0-0.2-0.2-0.4-0.3-0.5
				c-0.2-0.1-4.1-2.7-7.3-3.2c0.2-1.2,0.3-2.1,0.3-2.2c0-0.2,0-0.4-0.2-0.6c-0.1-0.2-0.3-0.3-0.5-0.3c-0.1,0-3.2-0.2-5.8,0.4
				c-0.4-1.1-0.8-1.8-0.8-1.9c-0.1-0.2-0.3-0.3-0.4-0.4c-0.2-0.1-0.4,0-0.6,0c-0.1,0-1.4,0.7-2.9,1.8c-2,1.5-3.3,2.9-3.7,4.2
				c-0.4,1.2-0.5,2.4-0.3,3.5c0.2,1.2,0.7,2.2,1.5,2.9c-0.4,0.9-0.6,2.1-0.4,3.2l0,0c0.2,1.1,0.7,2.2,1.5,3.2c0.9,1.1,2.6,1.9,5,2.6
				c1.7,0.5,3.2,0.6,3.3,0.6C203.5,508.5,203.7,508.4,203.9,508.3z"/>
			<path class="st2" d="M203.9,508.3c0.2-0.1,0.3-0.3,0.3-0.5c0,0,0.1-0.9,0.1-2c2.7-0.4,5.5-1.6,5.6-1.7c0.2-0.1,0.3-0.2,0.4-0.4
				c0.1-0.2,0.1-0.4,0-0.6c0,0-0.4-0.9-1.1-1.9c2.9-1.6,5.6-5.4,5.7-5.6c0.1-0.2,0.2-0.4,0.1-0.6l-21.1,3.9
				c-0.4,0.9-0.6,2.1-0.4,3.2l0,0c0.2,1.1,0.7,2.2,1.5,3.2c0.9,1.1,2.6,1.9,5,2.6c1.7,0.5,3.2,0.6,3.3,0.6
				C203.5,508.5,203.7,508.4,203.9,508.3z"/>
			<g>
				<path class="st3" d="M208.5,491.5c-0.4-0.1-1.2-0.3-1.2-0.3s-0.4,2.2-1.1,3.4L208.5,491.5z"/>
				<path class="st3" d="M201.8,488.6c-0.2,0-0.7,0.2-0.7,0.2s0.4,1.1,0.8,2.5C201.9,491.3,201.9,489.6,201.8,488.6z"/>
			</g>
			<g>
				<path class="st4" d="M210.2,500.4c-0.3,0.3-1,0.7-1,0.7s-1.1-1.9-2.3-2.8L210.2,500.4z"/>
				<path class="st4" d="M204.9,505.6c-0.2,0-0.7,0.1-0.7,0.1s0-1.2-0.1-2.7C204.1,503.1,204.7,504.6,204.9,505.6z"/>
			</g>
			<path class="st0" d="M196.9,498.7c0.1,0,0.3-0.1,0.4-0.1c0.4-0.1,0.8-0.2,1.2-0.2l8.6,4.4l-7.5-4.6c0.4-0.1,0.8-0.2,1.3-0.2
				c0.6-0.1,1.3-0.2,1.9-0.4c0.6-0.1,1.3-0.3,1.9-0.4c0.6-0.1,1.2-0.3,1.8-0.4c0.6-0.1,1.2-0.2,1.7-0.4c0.5-0.1,1.1-0.2,1.5-0.3
				c0.2-0.1,0.5-0.1,0.7-0.2c0.2-0.1,0.4-0.1,0.6-0.1c0.2,0,0.4-0.1,0.5-0.1c0.2,0,0.3-0.1,0.5-0.1c0.3-0.1,0.5-0.1,0.6-0.2
				c0.1,0,0.2-0.1,0.2-0.1s-0.1,0-0.2,0c-0.2,0-0.4,0-0.7,0.1c-0.1,0-0.3,0-0.5,0.1c-0.2,0-0.4,0-0.5,0.1c-0.2,0-0.4,0.1-0.6,0.1
				c-0.2,0-0.4,0.1-0.7,0.1c-0.5,0.1-1,0.1-1.5,0.2c-0.5,0.1-1.1,0.2-1.7,0.3c-0.6,0.1-1.2,0.2-1.8,0.3c-0.6,0.1-1.3,0.2-1.9,0.3
				c-0.6,0.1-1.3,0.2-1.9,0.3c-0.4,0.1-0.8,0.2-1.3,0.2l5.3-7l-6.4,7.2c-0.4,0.1-0.8,0.1-1.2,0.2c-0.1,0-0.3,0.1-0.4,0.1l0.8-7.9
				l-1.6,8c-0.1,0-0.2,0-0.4,0.1c-0.5,0.1-0.9,0.2-1.3,0.2c-0.3,0.1-0.6,0.1-0.8,0.2c0.1,0.1,0.2,0.2,0.3,0.3
				c-0.1,0.1-0.1,0.3-0.2,0.4c0.2,0,0.5-0.1,0.8-0.2c0.4-0.1,0.8-0.2,1.3-0.2c0.1,0,0.2,0,0.4-0.1l4.4,6.9L196.9,498.7z"/>
		</g>
	</g>
	<g>
		<path class="st0" d="M191.4,466.8c0.5-0.3,0.8,0.4,0.8,0.4c-0.4,0.7-0.7,1.2-0.8,1.3c-0.1,0.2-0.2,0.3-0.2,0.3
			c-0.1,0.1-0.1,0.2-0.1,0.2c-0.4,0.3-0.8,0.6-1.4,0.9c-0.9,0.4-1.8,0.6-2.5,0.7L187,470C189.7,470.2,191.4,467.4,191.4,466.8z"/>
		<g>
			<path class="st1" d="M180.3,465.4c-0.1,0.1-0.1,0.3-0.1,0.4c0,0,0.2,0.6,0.4,1.4c-1.8,0.9-3.4,2.4-3.5,2.5
				c-0.1,0.1-0.2,0.2-0.2,0.4c0,0.2,0.1,0.3,0.2,0.4c0,0,0.5,0.5,1.2,1.1c-1.6,1.8-2.6,5.1-2.7,5.3c0,0.1,0,0.3,0,0.4
				c0.1,0.1,0.2,0.2,0.3,0.3c0.2,0,3.5,0.9,5.9,0.5c0.1,0.9,0.3,1.6,0.3,1.6c0,0.1,0.1,0.3,0.3,0.4s0.3,0.1,0.4,0.1
				c0.1,0,2.3-0.6,4-1.7c0.5,0.7,1,1.1,1,1.1c0.1,0.1,0.3,0.2,0.4,0.2c0.2,0,0.3-0.1,0.4-0.2c0,0,0.8-0.8,1.6-1.9
				c1.1-1.5,1.6-2.8,1.6-3.8c0-0.9-0.2-1.8-0.7-2.5c-0.4-0.8-1-1.3-1.7-1.7c0.1-0.8-0.1-1.6-0.5-2.3l0,0c-0.4-0.7-1-1.4-1.8-1.9
				c-0.9-0.5-2.2-0.7-4.1-0.6c-1.3,0.1-2.4,0.3-2.5,0.3C180.6,465.2,180.4,465.3,180.3,465.4z"/>
			<path class="st2" d="M180.3,465.4c-0.1,0.1-0.1,0.3-0.1,0.4c0,0,0.2,0.6,0.4,1.4c-1.8,0.9-3.4,2.4-3.5,2.5
				c-0.1,0.1-0.2,0.2-0.2,0.4c0,0.2,0.1,0.3,0.2,0.4c0,0,0.5,0.5,1.2,1.1c-1.6,1.8-2.6,5.1-2.7,5.3c0,0.1,0,0.3,0,0.4l13.8-7.8
				c0.1-0.8-0.1-1.6-0.5-2.3l0,0c-0.4-0.7-1-1.4-1.8-1.9c-0.9-0.5-2.2-0.7-4.1-0.6c-1.3,0.1-2.4,0.3-2.5,0.3
				C180.6,465.2,180.4,465.3,180.3,465.4z"/>
			<g>
				<path class="st3" d="M181.1,478.2c0.3,0,0.9-0.1,0.9-0.1s-0.2-1.6,0-2.7L181.1,478.2z"/>
				<path class="st3" d="M186.5,478.7c0.2-0.1,0.5-0.3,0.5-0.3s-0.5-0.7-1.2-1.6C185.8,476.9,186.2,478,186.5,478.7z"/>
			</g>
			<g>
				<path class="st4" d="M177.8,472.4c0.2-0.3,0.6-0.7,0.6-0.7s1.2,1,2.3,1.4L177.8,472.4z"/>
				<path class="st4" d="M180.2,467.5c0.2-0.1,0.5-0.3,0.5-0.3s0.3,0.8,0.7,1.8C181.4,469.1,180.7,468.2,180.2,467.5z"/>
			</g>
			<path class="st0" d="M187.5,470.5c-0.1,0.1-0.2,0.1-0.3,0.2c-0.3,0.1-0.5,0.3-0.8,0.4l-7.1-1.1l6.4,1.5c-0.3,0.2-0.5,0.3-0.8,0.5
				c-0.4,0.2-0.8,0.5-1.2,0.7c-0.4,0.2-0.8,0.5-1.2,0.7c-0.4,0.2-0.8,0.5-1.2,0.7c-0.4,0.2-0.8,0.4-1.1,0.7c-0.4,0.2-0.7,0.4-1,0.6
				c-0.2,0.1-0.3,0.2-0.4,0.3c-0.1,0.1-0.3,0.2-0.4,0.2c-0.1,0.1-0.2,0.2-0.3,0.2c-0.1,0.1-0.2,0.1-0.3,0.2
				c-0.2,0.1-0.3,0.2-0.4,0.3c-0.1,0.1-0.1,0.1-0.1,0.1s0.1,0,0.2-0.1c0.1,0,0.3-0.1,0.4-0.2c0.1,0,0.2-0.1,0.3-0.1
				c0.1-0.1,0.2-0.1,0.4-0.2c0.1-0.1,0.3-0.1,0.4-0.2c0.1-0.1,0.3-0.1,0.5-0.2c0.3-0.2,0.7-0.3,1-0.5c0.4-0.2,0.7-0.4,1.1-0.6
				c0.4-0.2,0.8-0.4,1.2-0.7c0.4-0.2,0.8-0.5,1.2-0.7c0.4-0.2,0.8-0.5,1.2-0.7c0.3-0.2,0.6-0.3,0.8-0.5l-2.1,6.2l2.8-6.6
				c0.3-0.1,0.5-0.3,0.8-0.4c0.1-0.1,0.2-0.1,0.3-0.2l1.3,5.7l-0.8-6c0.1,0,0.2-0.1,0.2-0.1c0.3-0.2,0.6-0.3,0.9-0.5
				c0.2-0.1,0.4-0.2,0.5-0.3c-0.1-0.1-0.2-0.1-0.3-0.2c0-0.1,0-0.2,0-0.3c-0.2,0.1-0.3,0.2-0.5,0.3c-0.3,0.1-0.5,0.3-0.8,0.5
				c-0.1,0-0.2,0.1-0.2,0.1l-4.7-3.8L187.5,470.5z"/>
		</g>
	</g>
</g>
</svg>
