<?xml version="1.0" encoding="utf-8"?>
<!-- Generator: Adobe Illustrator 19.0.1, SVG Export Plug-In . SVG Version: 6.00 Build 0)  -->
<svg version="1.1" id="hamimelon_x5F_harvest" xmlns="http://www.w3.org/2000/svg" xmlns:xlink="http://www.w3.org/1999/xlink"
	 x="0px" y="0px" viewBox="-223 225 512 512" style="enable-background:new -223 225 512 512;" xml:space="preserve">
<style type="text/css">
	.st0{fill:#4B6853;}
	.st1{filter:url(#Adobe_OpacityMaskFilter);}
	.st2{fill:#FFFFFF;}
	.st3{mask:url(#SVGID_1_);fill:#89A893;}
	.st4{fill:#BCB89F;}
	.st5{fill:none;stroke:#D6CCAF;stroke-miterlimit:10;}
	.st6{fill:#2C733F;}
	.st7{fill:#3FA45A;}
	.st8{fill:#368B4C;}
	.st9{fill:#378A4C;}
	.st10{fill:#317F46;}
	.st11{fill:none;stroke:#245529;stroke-width:3;stroke-miterlimit:10;}
	.st12{fill:#5C3715;}
	.st13{filter:url(#Adobe_OpacityMaskFilter_1_);}
	.st14{mask:url(#SVGID_2_);fill:#89A893;}
	.st15{filter:url(#Adobe_OpacityMaskFilter_2_);}
	.st16{mask:url(#SVGID_3_);fill:#89A893;}
	.st17{filter:url(#Adobe_OpacityMaskFilter_3_);}
	.st18{mask:url(#SVGID_4_);fill:#89A893;}
</style>
<g>
	<g>
		<g>
			<path class="st0" d="M33.2,375.3c2.8-0.5,5.8-1,8.9-1.4c4.1-0.5,7.9-0.8,11.5-0.9c2.7-1.1,5.5-2.3,8.4-3.4c3.5-1.4,7-2.7,10.4-4
				c0.2,0,0.7,0.2,1,0.7c0.4,0.6,0.4,1.3,0,1.9c0,0-13.7,5.4-14.4,7c-0.2,0.6-0.3,1.3-0.4,2.1c-0.1,1.4,0.1,2.6,0.3,3.5
				c-1.9,0-3.7,0-5.6,0.1c0.1-0.8,0.1-1.9,0-3.1c-0.1-0.8-0.3-1.5-0.4-2.1c-2.6,0.1-5.2,0.2-7.9,0.4c-4,0.3-7.9,0.7-11.5,1.2
				C33.5,377.3,32.6,376.6,33.2,375.3z"/>
			<defs>
				<filter id="Adobe_OpacityMaskFilter" filterUnits="userSpaceOnUse" x="33" y="365.6" width="40.7" height="15.3">
					
						<feColorMatrix  type="matrix" values="-1 0 0 0 1  0 -1 0 0 1  0 0 -1 0 1  0 0 0 1 0" color-interpolation-filters="sRGB" result="source"/>
					<feFlood  style="flood-color:white;flood-opacity:1" result="back"/>
					<feBlend  in="source" in2="back" mode="normal"/>
				</filter>
			</defs>
			<mask maskUnits="userSpaceOnUse" x="33" y="365.6" width="40.7" height="15.3" id="SVGID_1_">
				<g class="st1">
					
						<rect x="31.7" y="365.4" transform="matrix(0.8185 -0.5745 0.5745 0.8185 -204.8858 95.6884)" class="st2" width="34.7" height="13.3"/>
				</g>
			</mask>
			<path class="st3" d="M33.2,375.3c2.8-0.5,5.8-1,8.9-1.4c4.1-0.5,7.9-0.8,11.5-0.9c2.7-1.1,5.5-2.3,8.4-3.4c3.5-1.4,7-2.7,10.4-4
				c0.2,0,0.7,0.2,1,0.7c0.4,0.6,0.4,1.3,0,1.9c0,0-13.7,5.4-14.4,7c-0.2,0.6-0.3,1.3-0.4,2.1c-0.1,1.4,0.1,2.6,0.3,3.5
				c-1.9,0-3.7,0-5.6,0.1c0.1-0.8,0.1-1.9,0-3.1c-0.1-0.8-0.3-1.5-0.4-2.1c-2.6,0.1-5.2,0.2-7.9,0.4c-4,0.3-7.9,0.7-11.5,1.2
				C33.5,377.3,32.6,376.6,33.2,375.3z"/>
		</g>
		<g>
			<path class="st4" d="M56,424.9c-6,0-11.6-2.3-15.8-6.5c-4.2-4.2-6.5-9.8-6.5-15.8c0-6,2.3-11.6,6.5-15.8
				c4.2-4.2,9.8-6.5,15.8-6.5c6,0,11.6,2.3,15.8,6.5c4.2,4.2,6.5,9.8,6.5,15.8c0,6-2.3,11.6-6.5,15.8C67.6,422.5,62,424.9,56,424.9z
				"/>
			<path class="st5" d="M37.4,393.3c1.3,0.7,3.4,1.6,5.9,2c3.8,0.6,5.8-0.4,8-0.2c2.8,0.2,6.4,2.4,10.4,10.9
				c0.3,0.4,0.8,0.9,1.3,1.7c0.6,1.1,0.8,2,0.9,2.7c0.5,2.5,0.8,4.8,0.9,6.1"/>
			<path class="st5" d="M41.8,387.4c0.7,0.4,1.6,0.7,2.6,1c3.4,1,6.4,0.5,8.1,0c2.8,0.2,5,0.4,6.4,0.6c5.5,0.5,6.1,0.7,7.5,0.3
				c0.9-0.2,2-0.6,3.9-0.7c1.1,0,2,0,2.6,0.1"/>
			<path class="st5" d="M43.3,416.4c0.8,0.3,2.6,0.9,4.7,0.5c2.1-0.5,3.3-1.8,4.4-3c1.6-1.6,1.6-2.4,3.2-4.3
				c1.5-1.8,2.3-2.7,3.6-3.4c1.1-0.6,1.7-0.6,2.2-1.3c0.8-1.2-0.2-2.6-0.2-4c0-1.5,1.1-3.8,6.5-6.6c0.2,0,2.1,0.3,3.5-1
				c1.4-1.2,1.4-2.9,1.4-3.2"/>
			<path class="st5" d="M34.5,405c0.7,0.3,1.7,0.5,2.4,0c0.5-0.4,0.4-0.8,0.8-1.3c0.7-0.7,1.8-0.4,5.1-0.1c2.4,0.2,3.1,0.2,3.8-0.2
				c0.6-0.4,0.7-0.9,1.3-1.7c0.8-1.1,1.5-1.4,3.6-2.7c3.8-2.4,3.6-2.9,5.2-3.4c2-0.6,3.4-0.3,3.5-0.8c0.2-0.7-2.4-1.2-2.7-2.7
				c-0.5-2.4,5-5.4,5.9-5.9c1.6-0.9,3.1-1.4,4.1-1.7"/>
			<path class="st5" d="M43.7,398.8c0.8,1,2,2.2,3.8,2.7c2.6,0.8,3.9-0.6,5.5,0.3c2.1,1.3,2.7,5.7,1.3,8.1c-0.4,0.6-0.8,0.9-0.7,1.4
				c0.2,1.2,2.8,1,5.7,2.7c1.1,0.6,3.6,2.1,4,4.7c0.3,2.1-0.9,3.8-1.4,4.4"/>
			<path class="st5" d="M36,410.5c0.5,0.4,1.6,1,2.9,0.5c1.3-0.5,2.1-2,2.7-3.2c1-1.8,1-2.7,2-4.7c0.9-2,1.4-2.9,2.3-3.7
				c0.7-0.7,1.1-0.6,1.3-1.4c0.5-1.3-0.1-2.8-0.1-4.3c0-1.7,0.7-4.1,4-7.2c0.1,0,1.3,0.3,2.2-1.1c0.8-1.4,0.8-3.2,0.8-3.5"/>
			<path class="st5" d="M47.8,422.3c0.8,0.3,2.6,0.9,4.7,0.5c2.1-0.5,3.3-1.8,4.4-3c1.6-1.6,1.6-2.4,3.2-4.3
				c1.5-1.8,2.3-2.7,3.6-3.4c1.1-0.6,1.7-0.6,2.2-1.3c0.8-1.2-0.2-2.6-0.2-4c0-1.5,1.1-3.8,6.5-6.6c0.2,0,2.1,0.3,3.5-1
				C77,398,77,396.3,77,396"/>
			<path class="st5" d="M76,396c-0.6,1.1-1.3,2.7-1.2,4.5c0.2,2.7,2,3.4,1.7,5.2c-0.5,2.4-4.3,4.6-7.1,4.1c-0.7-0.1-1.1-0.4-1.5-0.1
				c-1.1,0.6,0.1,3-0.5,6.3c-0.2,1.2-0.7,4.1-2.9,5.4c-1.8,1.1-3.9,0.6-4.6,0.3"/>
			<path class="st5" d="M54,381.1c0.8,1,2,2.2,3.8,2.7c2.6,0.8,3.9-0.6,5.5,0.3c2.1,1.3,2.7,5.7,1.3,8.1c-0.4,0.6-0.8,0.9-0.7,1.4
				c0.2,1.2,2.8,1,5.7,2.7c1.1,0.6,3.6,2.1,4,4.7c0.3,2.1-0.9,3.8-1.4,4.4"/>
			<path class="st5" d="M46.6,388.4c0.8,1,2,2.2,3.8,2.7c2.6,0.8,3.9-0.6,5.5,0.3c2.1,1.3,2.7,5.7,1.3,8.1c-0.4,0.6-0.8,0.9-0.7,1.4
				c0.2,1.2,2.8,1,5.7,2.7c1.1,0.6,3.6,2.1,4,4.7c0.3,2.1-0.9,3.8-1.4,4.4"/>
			<path class="st5" d="M34.8,400.3c0.8,1,2,2.2,3.8,2.7c2.6,0.8,3.9-0.6,5.5,0.3c2.1,1.3,2.7,5.7,1.3,8.1c-0.4,0.6-0.8,0.9-0.7,1.4
				c0.2,1.2,2.8,1,5.7,2.7c1.1,0.6,3.6,2.1,4,4.7c0.3,2.1-0.9,3.8-1.4,4.4"/>
			<path class="st5" d="M37.8,395.8c0.8,1,2,2.2,3.8,2.7c2.6,0.8,3.9-0.6,5.5,0.3c2.1,1.3,2.7,5.7,1.3,8.1c-0.4,0.6-0.8,0.9-0.7,1.4
				c0.2,1.2,2.8,1,5.7,2.7c1.1,0.6,3.6,2.1,4,4.7c0.3,2.1-0.9,3.8-1.4,4.4"/>
			<path class="st5" d="M39.3,389.9c0.8,1,2,2.2,3.8,2.7c2.6,0.8,3.9-0.6,5.5,0.3c2.1,1.3,2.7,5.7,1.3,8.1c-0.4,0.6-0.8,0.9-0.7,1.4
				c0.2,1.2,2.8,1,5.7,2.7c1.1,0.6,3.6,2.1,4,4.7c0.3,2.1-0.9,3.8-1.4,4.4"/>
			<path class="st5" d="M52.5,384c0.8,1,2,2.2,3.8,2.7c2.6,0.8,3.9-0.6,5.5,0.3c2.1,1.3,2.7,5.7,1.3,8.1c-0.4,0.6-0.8,0.9-0.7,1.4
				c0.2,1.2,2.8,1,5.7,2.7c1.1,0.6,3.6,2.1,4,4.7c0.3,2.1-0.9,3.8-1.4,4.4"/>
			<path class="st5" d="M46.6,388.4c0.8,1,2,2.2,3.8,2.7c2.6,0.8,3.9-0.6,5.5,0.3c2.1,1.3,2.7,5.7,1.3,8.1c-0.4,0.6-0.8,0.9-0.7,1.4
				c0.2,1.2,2.8,1,5.7,2.7c1.1,0.6,3.6,2.1,4,4.7c0.3,2.1-0.9,3.8-1.4,4.4"/>
			<path class="st5" d="M58.5,381.1c0.8,1,2,2.2,3.8,2.7c2.6,0.8,3.9-0.6,5.5,0.3c2.1,1.3,2.7,5.7,1.3,8.1c-0.4,0.6-0.8,0.9-0.7,1.4
				c0.2,1.2,2.8,1,5.7,2.7c1.1,0.6,3.6,2.1,4,4.7c0.3,2.1-0.9,3.8-1.4,4.4"/>
			<path class="st5" d="M48.1,420.1c-0.4-0.4-1.1-0.8-2.1-1c-1.4-0.3-2.1,0.2-3-0.1c-1.1-0.5-1.5-2-0.7-2.9c0.2-0.2,0.4-0.3,0.4-0.5
				c-0.1-0.4-1.5-0.4-3.1-1c-0.6-0.2-2-0.8-2.2-1.7c-0.2-0.7,0.5-1.4,0.7-1.6"/>
			<path class="st5" d="M48.1,414.2c-0.4-0.4-1.1-0.8-2.1-1c-1.4-0.3-2.1,0.2-3-0.1c-1.1-0.5-1.5-2-0.7-2.9c0.2-0.2,0.4-0.3,0.4-0.5
				c-0.1-0.4-1.5-0.4-3.1-1c-0.6-0.2-2-0.8-2.2-1.7c-0.2-0.7,0.5-1.4,0.7-1.6"/>
			<path class="st5" d="M46.6,405.3c-0.4-0.4-1.1-0.8-2.1-1c-1.4-0.3-2.1,0.2-3-0.1c-1.1-0.5-1.5-2-0.7-2.9c0.2-0.2,0.4-0.3,0.4-0.5
				c-0.1-0.4-1.5-0.4-3.1-1c-0.6-0.2-2-0.8-2.2-1.7c-0.2-0.7,0.5-1.4,0.7-1.6"/>
			<path class="st5" d="M55.5,393.5c-0.4-0.4-1.1-0.8-2.1-1c-1.4-0.3-2.1,0.2-3-0.1c-1.1-0.5-1.5-2-0.7-2.9c0.2-0.2,0.4-0.3,0.4-0.5
				c-0.1-0.4-1.5-0.4-3.1-1c-0.6-0.2-2-0.8-2.2-1.7c-0.2-0.7,0.5-1.4,0.7-1.6"/>
			<path class="st5" d="M74.7,412.7c-0.4-0.4-1.1-0.8-2.1-1c-1.4-0.3-2.1,0.2-3-0.1c-1.1-0.5-1.5-2-0.7-2.9c0.2-0.2,0.4-0.3,0.4-0.5
				c-0.1-0.4-1.5-0.4-3.1-1c-0.6-0.2-2-0.8-2.2-1.7c-0.2-0.7,0.5-1.4,0.7-1.6"/>
			<path class="st5" d="M71.7,417.1c-0.4-0.4-1.1-0.8-2.1-1c-1.4-0.3-2.1,0.2-3-0.1c-1.1-0.5-1.5-2-0.7-2.9c0.2-0.2,0.4-0.3,0.4-0.5
				c-0.1-0.4-1.5-0.4-3.1-1c-0.6-0.2-2-0.8-2.2-1.7c-0.2-0.7,0.5-1.4,0.7-1.6"/>
			<path class="st5" d="M62.9,423c-0.4-0.4-1.1-0.8-2.1-1c-1.4-0.3-2.1,0.2-3-0.1c-1.1-0.5-1.5-2-0.7-2.9c0.2-0.2,0.4-0.3,0.4-0.5
				c-0.1-0.4-1.5-0.4-3.1-1c-0.6-0.2-2-0.8-2.2-1.7c-0.2-0.7,0.5-1.4,0.7-1.6"/>
			<path class="st5" d="M40.4,413.4c0.7,0.4,2.2,1,3.9,0.5c1.7-0.5,2.8-2,3.7-3.2c1.3-1.8,1.4-2.7,2.7-4.7c1.3-2,1.9-2.9,3-3.7
				c0.9-0.7,1.4-0.6,1.8-1.4c0.7-1.3-0.2-2.8-0.2-4.3c0-1.7,0.9-4.1,5.4-7.2c0.2,0,1.7,0.3,2.9-1.1c1.1-1.4,1.1-3.2,1.1-3.5"/>
			<path class="st5" d="M52.2,419.3c0.5,0.4,1.6,1,2.9,0.5c1.3-0.5,2.1-2,2.7-3.2c1-1.8,1-2.7,2-4.7c0.9-2,1.4-2.9,2.3-3.7
				c0.7-0.7,1.1-0.6,1.3-1.4c0.5-1.3-0.1-2.8-0.1-4.3c0-1.7,0.7-4.1,4-7.2c0.1,0,1.3,0.3,2.2-1.1c0.8-1.4,0.8-3.2,0.8-3.5"/>
			<path class="st5" d="M47.8,416.4c0.5,0.4,1.6,1,2.9,0.5c1.3-0.5,2.1-2,2.7-3.2c1-1.8,1-2.7,2-4.7c0.9-2,1.4-2.9,2.3-3.7
				c0.7-0.7,1.1-0.6,1.3-1.4c0.5-1.3-0.1-2.8-0.1-4.3c0-1.7,0.7-4.1,4-7.2c0.1,0,1.3,0.3,2.2-1.1c0.8-1.4,0.8-3.2,0.8-3.5"/>
			<path class="st5" d="M40.4,413.4c0.5,0.4,1.6,1,2.9,0.5c1.3-0.5,2.1-2,2.7-3.2c1-1.8,1-2.7,2-4.7c0.9-2,1.4-2.9,2.3-3.7
				c0.7-0.7,1.1-0.6,1.3-1.4c0.5-1.3-0.1-2.8-0.1-4.3c0-1.7,0.7-4.1,4-7.2c0.1,0,1.3,0.3,2.2-1.1c0.8-1.4,0.8-3.2,0.8-3.5"/>
			<path class="st5" d="M46.3,419.4c0.8,0.3,2.6,0.9,4.7,0.5c2.1-0.5,3.3-1.8,4.4-3c1.6-1.6,1.6-2.4,3.2-4.3
				c1.5-1.8,2.3-2.7,3.6-3.4c1.1-0.6,1.7-0.6,2.2-1.3c0.8-1.2-0.2-2.6-0.2-4c0-1.5,1.1-3.8,6.5-6.6c0.2,0,2.1,0.3,3.5-1
				c1.4-1.2,1.4-2.9,1.4-3.2"/>
			<path class="st5" d="M76.2,409.7c-0.4-0.4-1.1-0.8-2.1-1c-1.4-0.3-2.1,0.2-3-0.1c-1.1-0.5-1.5-2-0.7-2.9c0.2-0.2,0.4-0.3,0.4-0.5
				c-0.1-0.4-1.5-0.4-3.1-1c-0.6-0.2-2-0.8-2.2-1.7c-0.2-0.7,0.5-1.4,0.7-1.6"/>
			<path class="st5" d="M58.5,390.5c-0.4-0.4-1.1-0.8-2.1-1c-1.4-0.3-2.1,0.2-3-0.1c-1.1-0.5-1.5-2-0.7-2.9c0.2-0.2,0.4-0.3,0.4-0.5
				c-0.1-0.4-1.5-0.4-3.1-1c-0.6-0.2-2-0.8-2.2-1.7c-0.2-0.7,0.5-1.4,0.7-1.6"/>
			<path class="st5" d="M38,398.2c0.3-0.5,0.6-1.2,0.6-2.2c0-1.5-0.6-2.1-0.5-3c0.2-1.2,1.7-1.9,2.7-1.2c0.3,0.2,0.4,0.3,0.6,0.3
				c0.4-0.2,0.1-1.6,0.4-3.2c0.1-0.6,0.4-2.1,1.2-2.5c0.7-0.3,1.4,0.2,1.7,0.4"/>
			<path class="st5" d="M39.8,398.9c0.4-0.4,0.8-1.1,1-2c0.3-1.4-0.2-2.1,0.1-3c0.5-1.1,2-1.5,2.9-0.7c0.2,0.2,0.3,0.4,0.5,0.4
				c0.4-0.1,0.4-1.5,1-3.1c0.2-0.6,0.8-2,1.7-2.2c0.7-0.2,1.4,0.5,1.6,0.8"/>
			<path class="st5" d="M41.3,403.3c0.4-0.4,0.8-1.1,1-2c0.3-1.4-0.2-2.1,0.1-3c0.5-1.1,2-1.5,2.9-0.7c0.2,0.2,0.3,0.4,0.5,0.4
				c0.4-0.1,0.4-1.5,1-3.1c0.2-0.6,0.8-2,1.7-2.2c0.7-0.2,1.4,0.5,1.6,0.8"/>
			<path class="st5" d="M48.7,415.1c0.4-0.4,0.8-1.1,1-2c0.3-1.4-0.2-2.1,0.1-3c0.5-1.1,2-1.5,2.9-0.7c0.2,0.2,0.3,0.4,0.5,0.4
				c0.4-0.1,0.4-1.5,1-3.1c0.2-0.6,0.8-2,1.7-2.2c0.7-0.2,1.4,0.5,1.6,0.8"/>
			<path class="st5" d="M66.4,421c0.4-0.4,0.8-1.1,1-2c0.3-1.4-0.2-2.1,0.1-3c0.5-1.1,2-1.5,2.9-0.7c0.2,0.2,0.3,0.4,0.5,0.4
				c0.4-0.1,0.4-1.5,1-3.1c0.2-0.6,0.8-2,1.7-2.2c0.7-0.2,1.4,0.5,1.6,0.8"/>
			<path class="st5" d="M57.6,424c0.4-0.4,0.8-1.1,1-2c0.3-1.4-0.2-2.1,0.1-3c0.5-1.1,2-1.5,2.9-0.7c0.2,0.2,0.3,0.4,0.5,0.4
				c0.4-0.1,0.4-1.5,1-3.1c0.2-0.6,0.8-2,1.7-2.2c0.7-0.2,1.4,0.5,1.6,0.8"/>
		</g>
	</g>
	<g>
		<g>
			<path class="st6" d="M37.6,366.1c-0.6,0.4-1-0.4-1-0.4c0.5-0.8,0.8-1.5,1-1.7c0.1-0.2,0.2-0.4,0.3-0.4c0.1-0.1,0.1-0.2,0.2-0.2
				c0.4-0.4,1-0.8,1.7-1.2c1.1-0.6,2.2-0.8,3.1-0.9L43,362C39.6,361.9,37.5,365.3,37.6,366.1z"/>
			<g>
				<path class="st7" d="M51.5,367.7c0.1-0.2,0.1-0.4,0.1-0.5c0,0-0.2-0.8-0.6-1.8c2.2-1.2,4.3-3.1,4.4-3.2c0.1-0.1,0.2-0.3,0.2-0.5
					c0-0.2-0.1-0.4-0.2-0.5c0,0-0.6-0.6-1.5-1.4c2-2.3,3.2-6.5,3.3-6.7c0.1-0.2,0-0.4-0.1-0.5c-0.1-0.2-0.3-0.3-0.4-0.3
					c-0.2,0-4.4-1.1-7.4-0.5c-0.2-1.1-0.4-2-0.4-2c0-0.2-0.2-0.3-0.3-0.4c-0.2-0.1-0.4-0.1-0.5-0.1c-0.1,0-2.9,0.8-5,2.2
					c-0.7-0.8-1.3-1.4-1.3-1.4c-0.1-0.1-0.3-0.2-0.5-0.2c-0.2,0-0.4,0.1-0.5,0.2c0,0-1,1.1-1.9,2.5c-1.3,1.9-2,3.6-2,4.8
					c0,1.1,0.3,2.2,0.9,3.1c0.6,1,1.3,1.7,2.2,2.1c-0.1,1,0.1,2,0.7,2.9l0,0c0.5,0.9,1.3,1.7,2.3,2.3c1.1,0.7,2.8,0.9,5.2,0.7
					c1.7-0.1,3-0.5,3.1-0.5C51.2,368,51.4,367.9,51.5,367.7z"/>
				<path class="st8" d="M51.5,367.7c0.1-0.2,0.1-0.4,0.1-0.5c0,0-0.2-0.8-0.6-1.8c2.2-1.2,4.3-3.1,4.4-3.2c0.1-0.1,0.2-0.3,0.2-0.5
					c0-0.2-0.1-0.4-0.2-0.5c0,0-0.6-0.6-1.5-1.4c2-2.3,3.2-6.5,3.3-6.7c0.1-0.2,0-0.4-0.1-0.5l-17.3,10c-0.1,1,0.1,2,0.7,2.9l0,0
					c0.5,0.9,1.3,1.7,2.3,2.3c1.1,0.7,2.8,0.9,5.2,0.7c1.7-0.1,3-0.5,3.1-0.5C51.2,368,51.4,367.9,51.5,367.7z"/>
				<g>
					<path class="st9" d="M50.3,351.6c-0.4,0-1.1,0.2-1.1,0.2s0.3,2,0.1,3.4L50.3,351.6z"/>
					<path class="st9" d="M43.5,351c-0.2,0.1-0.6,0.4-0.6,0.4s0.7,0.8,1.5,2C44.4,353.4,43.9,352,43.5,351z"/>
				</g>
				<g>
					<path class="st10" d="M54.5,358.8c-0.2,0.3-0.7,0.9-0.7,0.9s-1.6-1.3-2.9-1.7L54.5,358.8z"/>
					<path class="st10" d="M51.6,365c-0.2,0.1-0.6,0.3-0.6,0.3s-0.4-1-1-2.3C50,363,51,364.2,51.6,365z"/>
				</g>
				<path class="st6" d="M42.4,361.4c0.1-0.1,0.2-0.1,0.3-0.2c0.3-0.2,0.6-0.4,1-0.6l8.9,1.2l-8-1.7c0.3-0.2,0.7-0.4,1-0.6
					c0.5-0.3,1-0.6,1.5-0.9c0.5-0.3,1-0.6,1.5-0.9c0.5-0.3,1-0.6,1.5-0.9c0.5-0.3,0.9-0.6,1.4-0.8c0.4-0.3,0.9-0.5,1.2-0.8
					c0.2-0.1,0.4-0.2,0.5-0.3c0.2-0.1,0.3-0.2,0.5-0.3c0.2-0.1,0.3-0.2,0.4-0.3c0.1-0.1,0.3-0.2,0.4-0.2c0.2-0.1,0.4-0.3,0.5-0.3
					c0.1-0.1,0.2-0.1,0.2-0.1s-0.1,0-0.2,0.1c-0.1,0.1-0.3,0.1-0.5,0.3c-0.1,0.1-0.2,0.1-0.4,0.2c-0.1,0.1-0.3,0.1-0.5,0.2
					c-0.2,0.1-0.3,0.2-0.5,0.3c-0.2,0.1-0.4,0.2-0.6,0.3c-0.4,0.2-0.8,0.4-1.3,0.7c-0.5,0.2-0.9,0.5-1.4,0.8c-0.5,0.3-1,0.6-1.5,0.8
					c-0.5,0.3-1,0.6-1.6,0.9c-0.5,0.3-1,0.6-1.6,0.9c-0.3,0.2-0.7,0.4-1,0.6l2.5-7.8l-3.4,8.3c-0.3,0.2-0.7,0.4-1,0.6
					c-0.1,0.1-0.2,0.1-0.3,0.2l-1.7-7.1l1.1,7.5c-0.1,0.1-0.2,0.1-0.3,0.2c-0.4,0.2-0.7,0.4-1.1,0.6c-0.2,0.1-0.5,0.3-0.7,0.4
					c0.1,0.1,0.3,0.1,0.4,0.2c0,0.1,0,0.3,0,0.4c0.2-0.1,0.4-0.2,0.7-0.4c0.3-0.2,0.7-0.4,1.1-0.6c0.1-0.1,0.2-0.1,0.3-0.2l6,4.7
					L42.4,361.4z"/>
			</g>
		</g>
		<g>
			<path class="st6" d="M26.9,415.4c0.7,0.2,0.3,1.1,0.3,1.1c-0.9,0.2-1.6,0.3-1.9,0.3c-0.2,0-0.5,0-0.5,0c-0.1,0-0.2,0-0.3,0
				c-0.6-0.1-1.3-0.3-2-0.6c-1.1-0.5-2-1.2-2.6-1.9l0.4-0.6C22.3,416.4,26.3,415.9,26.9,415.4z"/>
			<g>
				<path class="st7" d="M19.5,403.6c-0.2,0-0.4,0.1-0.5,0.3c0,0-0.5,0.7-1,1.6c-2.3-1-5.1-1.4-5.3-1.4c-0.2,0-0.4,0-0.5,0.1
					c-0.1,0.1-0.2,0.3-0.3,0.5c0,0-0.1,0.9-0.1,2.1c-3.1-0.1-7.1,1.6-7.3,1.6c-0.2,0.1-0.3,0.2-0.4,0.4c-0.1,0.2-0.1,0.4,0,0.6
					c0.1,0.2,1.9,4.1,4.3,6.1c-0.8,0.9-1.3,1.5-1.3,1.6C7,417.1,7,417.3,7,417.5c0,0.2,0.1,0.4,0.3,0.5c0.1,0.1,2.5,1.7,4.8,2.5
					c-0.2,1.1-0.3,1.8-0.3,1.9c0,0.2,0,0.4,0.2,0.5c0.1,0.1,0.3,0.2,0.5,0.3c0.1,0,1.5,0.1,3.1,0c2.3-0.2,4-0.7,5-1.5
					c0.9-0.7,1.5-1.6,1.9-2.6c0.4-1,0.5-2.1,0.2-3c0.8-0.5,1.5-1.3,1.9-2.4l0,0c0.4-1,0.5-2.1,0.4-3.2c-0.2-1.3-1.1-2.8-2.7-4.5
					c-1.2-1.2-2.3-2.1-2.3-2.1C19.8,403.6,19.6,403.6,19.5,403.6z"/>
				<path class="st8" d="M19.5,403.6c-0.2,0-0.4,0.1-0.5,0.3c0,0-0.5,0.7-1,1.6c-2.3-1-5.1-1.4-5.3-1.4c-0.2,0-0.4,0-0.5,0.1
					c-0.1,0.1-0.2,0.3-0.3,0.5c0,0-0.1,0.9-0.1,2.1c-3.1-0.1-7.1,1.6-7.3,1.6c-0.2,0.1-0.3,0.2-0.4,0.4l18.6,7.2
					c0.8-0.5,1.5-1.3,1.9-2.4l0,0c0.4-1,0.5-2.1,0.4-3.2c-0.2-1.3-1.1-2.8-2.7-4.5c-1.2-1.2-2.3-2.1-2.3-2.1
					C19.8,403.6,19.6,403.6,19.5,403.6z"/>
				<g>
					<path class="st9" d="M7.6,414.6c0.3,0.3,0.8,0.8,0.8,0.8s1.4-1.5,2.6-2.2L7.6,414.6z"/>
					<path class="st9" d="M11.5,420.3c0.2,0.1,0.6,0.2,0.6,0.2s0.2-1.1,0.6-2.4C12.7,418.1,11.9,419.3,11.5,420.3z"/>
				</g>
				<g>
					<path class="st10" d="M10.6,406.8c0.4,0,1.2,0,1.2,0s0,2,0.5,3.3L10.6,406.8z"/>
					<path class="st10" d="M17.3,405.2c0.2,0.1,0.6,0.3,0.6,0.3s-0.6,0.9-1.2,2.2C16.7,407.6,17,406.2,17.3,405.2z"/>
				</g>
				<path class="st6" d="M20.3,414.6c-0.1,0-0.2-0.1-0.4-0.1c-0.3-0.1-0.7-0.3-1.1-0.4l-4.6-7.7l3.7,7.3c-0.4-0.1-0.7-0.3-1.1-0.4
					c-0.6-0.2-1.1-0.4-1.7-0.6c-0.6-0.2-1.1-0.4-1.7-0.6c-0.6-0.2-1.1-0.4-1.6-0.6c-0.5-0.2-1-0.4-1.5-0.6c-0.5-0.2-0.9-0.3-1.4-0.5
					c-0.2-0.1-0.4-0.1-0.6-0.2c-0.2-0.1-0.4-0.1-0.6-0.2c-0.2-0.1-0.3-0.1-0.5-0.2c-0.2,0-0.3-0.1-0.4-0.1c-0.3-0.1-0.4-0.1-0.6-0.2
					c-0.1,0-0.2-0.1-0.2-0.1s0.1,0,0.2,0.1c0.1,0.1,0.3,0.2,0.6,0.3c0.1,0.1,0.3,0.1,0.4,0.2c0.1,0.1,0.3,0.1,0.5,0.2
					c0.2,0.1,0.3,0.2,0.5,0.2c0.2,0.1,0.4,0.2,0.6,0.3c0.4,0.2,0.9,0.4,1.3,0.6c0.5,0.2,1,0.4,1.5,0.6c0.5,0.2,1.1,0.4,1.6,0.7
					c0.5,0.2,1.1,0.4,1.7,0.7c0.6,0.2,1.1,0.4,1.7,0.7c0.4,0.1,0.7,0.3,1.1,0.4l-7.6,3l8.6-2.6c0.4,0.1,0.7,0.3,1.1,0.4
					c0.1,0,0.2,0.1,0.4,0.1l-4.5,5.8l5.2-5.6c0.1,0,0.2,0.1,0.3,0.1c0.4,0.2,0.8,0.3,1.1,0.4c0.3,0.1,0.5,0.2,0.7,0.3
					c0-0.1-0.1-0.3-0.1-0.4c0.1-0.1,0.2-0.2,0.3-0.3c-0.2-0.1-0.5-0.2-0.7-0.3c-0.3-0.1-0.7-0.3-1.1-0.4c-0.1,0-0.2-0.1-0.3-0.1
					l-0.1-7.6L20.3,414.6z"/>
			</g>
		</g>
		<g>
			<path class="st11" d="M36.4,455.4c0,0,6.3-15.3,2.8-40.2c-2.2-16.1-8.8-23.3-9.9-23.9c-0.2-0.1-0.8-0.4-1.8-1.5
				c-0.6-0.8-1.1-1.5-1.5-2.2c-1-1.9-4-8.2-5.4-19.5c-0.4-3-0.9-9.2-0.3-19.5c0.2-4,2.2-39.9,8-39.9c1.5,0.1,3.1,2.1,3.4,4.4
				c0.5,5.9-8.1,20.9-13.5,10c-2.7-5.4-4-15.8-3.2-25.7"/>
			<path class="st12" d="M29.4,460.4l-2.2,0c-1.3,0-2.4-1.2-2.4-2.5l1-62.4l1.5-97.1c0-1.3,1.2-2.4,2.5-2.4l2.2,0
				c1.3,0,2.4,1.2,2.4,2.5L31.8,458C31.9,459.3,30.7,460.4,29.4,460.4z"/>
			<path class="st11" d="M22.6,444.1c10.7,0.9,18.4-1.5,18.8-6.3c0.3-2.7-1.6-7.2-3.9-9.9c-1.3-1.5-2.5-2.4-3.3-2.8
				c-1.7-1.1-6-4.4-8.9-11.5c-5.3-13.1-0.9-27-0.6-27.9c0,0,0.5-1.7,1.5-3.3c1.7-2.8,10.7-10.3,11.4-15.4c0.8-6.1-10.4-7.3-13-15.8
				c-3.1-10.1,9.8-17.1,12.5-34.1c1.5-9.2-0.7-17.2-2.6-22.2"/>
		</g>
		<g>
			<path class="st6" d="M32.8,421.9c-0.7-0.3-0.2-1.1-0.2-1.1c1-0.1,1.7-0.2,1.9-0.2c0.2,0,0.5,0,0.5,0c0.1,0,0.2,0,0.3,0
				c0.6,0.1,1.2,0.3,2,0.7c1.1,0.6,1.9,1.4,2.5,2.1l-0.5,0.6C37.5,421.2,33.5,421.5,32.8,421.9z"/>
			<g>
				<path class="st7" d="M39.5,434.3c0.2,0,0.4-0.1,0.5-0.2c0,0,0.5-0.6,1.1-1.5c2.2,1.2,5,1.7,5.2,1.7c0.2,0,0.4,0,0.5-0.1
					c0.2-0.1,0.3-0.3,0.3-0.5c0,0,0.1-0.9,0.2-2c3,0.3,7.2-1.1,7.3-1.2c0.2-0.1,0.3-0.2,0.4-0.4c0.1-0.2,0.1-0.4,0-0.6
					c-0.1-0.2-1.6-4.2-3.9-6.4c0.8-0.8,1.4-1.5,1.4-1.5c0.1-0.1,0.2-0.3,0.2-0.5c0-0.2-0.1-0.4-0.3-0.5c-0.1-0.1-2.3-1.9-4.7-2.8
					c0.3-1,0.4-1.8,0.4-1.8c0-0.2,0-0.4-0.1-0.5c-0.1-0.2-0.3-0.3-0.5-0.3c-0.1,0-1.4-0.2-3.1-0.2c-2.3,0-4.1,0.4-5.1,1.2
					c-0.9,0.7-1.6,1.5-2.1,2.5c-0.5,1-0.6,2-0.4,3c-0.8,0.5-1.5,1.2-2,2.2c0,0,0,0,0,0c-0.4,1-0.6,2.1-0.6,3.2
					c0.1,1.3,0.9,2.8,2.4,4.6c1.1,1.3,2.1,2.2,2.2,2.3C39.1,434.2,39.3,434.3,39.5,434.3z"/>
				<path class="st8" d="M39.5,434.3c0.2,0,0.4-0.1,0.5-0.2c0,0,0.5-0.6,1.1-1.5c2.2,1.2,5,1.7,5.2,1.7c0.2,0,0.4,0,0.5-0.1
					c0.2-0.1,0.3-0.3,0.3-0.5c0,0,0.1-0.9,0.2-2c3,0.3,7.2-1.1,7.3-1.2c0.2-0.1,0.3-0.2,0.4-0.4L37,421.7c-0.8,0.5-1.5,1.2-2,2.2
					c0,0,0,0,0,0c-0.4,1-0.6,2.1-0.6,3.2c0.1,1.3,0.9,2.8,2.4,4.6c1.1,1.3,2.1,2.2,2.2,2.3C39.1,434.2,39.3,434.3,39.5,434.3z"/>
				<g>
					<path class="st9" d="M52,424c-0.3-0.3-0.8-0.9-0.8-0.9s-1.5,1.4-2.7,2L52,424z"/>
					<path class="st9" d="M48.5,418.1c-0.2-0.1-0.6-0.3-0.6-0.3s-0.3,1-0.7,2.4C47.2,420.2,48,419,48.5,418.1z"/>
				</g>
				<g>
					<path class="st10" d="M48.5,431.7c-0.4,0-1.2,0-1.2,0s0.1-2-0.2-3.4L48.5,431.7z"/>
					<path class="st10" d="M41.7,432.8c-0.2-0.1-0.6-0.3-0.6-0.3s0.6-0.9,1.3-2.1C42.5,430.4,42.1,431.8,41.7,432.8z"/>
				</g>
				<path class="st6" d="M39.4,423.2c0.1,0.1,0.2,0.1,0.4,0.2c0.3,0.2,0.7,0.3,1,0.5l4.1,8l-3.2-7.6c0.4,0.2,0.7,0.3,1.1,0.5
					c0.5,0.2,1.1,0.5,1.6,0.7c0.5,0.2,1.1,0.5,1.6,0.7c0.5,0.2,1.1,0.5,1.6,0.7c0.5,0.2,1,0.4,1.5,0.7c0.5,0.2,0.9,0.4,1.3,0.6
					c0.2,0.1,0.4,0.2,0.6,0.2c0.2,0.1,0.4,0.2,0.5,0.2c0.2,0.1,0.3,0.1,0.5,0.2c0.1,0.1,0.3,0.1,0.4,0.2c0.2,0.1,0.4,0.2,0.6,0.2
					c0.1,0,0.2,0.1,0.2,0.1s-0.1,0-0.2-0.1c-0.1-0.1-0.3-0.2-0.5-0.3c-0.1-0.1-0.2-0.1-0.4-0.2c-0.1-0.1-0.3-0.2-0.5-0.2
					c-0.2-0.1-0.3-0.2-0.5-0.3c-0.2-0.1-0.4-0.2-0.6-0.3c-0.4-0.2-0.8-0.4-1.3-0.7c-0.5-0.2-1-0.5-1.5-0.7c-0.5-0.2-1-0.5-1.6-0.8
					c-0.5-0.3-1.1-0.5-1.6-0.8c-0.5-0.3-1.1-0.5-1.6-0.8c-0.4-0.2-0.7-0.3-1.1-0.5l7.8-2.5l-8.8,2c-0.4-0.2-0.7-0.3-1-0.5
					c-0.1-0.1-0.2-0.1-0.4-0.2l4.9-5.5l-5.5,5.2c-0.1,0-0.2-0.1-0.3-0.1c-0.4-0.2-0.8-0.4-1.1-0.5c-0.3-0.1-0.5-0.2-0.7-0.3
					c0,0.1,0,0.3,0.1,0.4c-0.1,0.1-0.2,0.1-0.4,0.2c0.2,0.1,0.4,0.2,0.7,0.3c0.3,0.2,0.7,0.3,1.1,0.5c0.1,0,0.2,0.1,0.3,0.1
					l-0.4,7.6L39.4,423.2z"/>
			</g>
		</g>
		<g>
			<path class="st6" d="M23,395.6c-1,0.2-1.1-1-1.1-1c1-0.9,1.7-1.5,2-1.7c0.3-0.2,0.5-0.4,0.5-0.4c0.1-0.1,0.3-0.2,0.3-0.2
				c0.7-0.3,1.6-0.6,2.7-0.7c1.7-0.2,3.2,0,4.4,0.3l-0.1,1C27.6,391.1,23.3,394.6,23,395.6z"/>
			<g>
				<path class="st7" d="M39.9,403.9c0.2-0.2,0.3-0.4,0.3-0.7c0-0.1,0.1-1.1,0.1-2.6c3.4-0.5,6.9-2,7-2.1c0.2-0.1,0.4-0.3,0.5-0.5
					c0.1-0.2,0.1-0.5,0-0.7c0-0.1-0.5-1.1-1.4-2.4c3.6-2,7-6.8,7.2-7c0.1-0.2,0.2-0.5,0.2-0.7c0-0.3-0.2-0.5-0.4-0.6
					c-0.2-0.1-5.1-3.4-9.2-4c0.3-1.5,0.4-2.7,0.4-2.7c0-0.3-0.1-0.5-0.2-0.7c-0.2-0.2-0.4-0.3-0.7-0.3c-0.2,0-4-0.2-7.3,0.6
					c-0.5-1.4-1-2.3-1-2.4c-0.1-0.2-0.3-0.4-0.6-0.5c-0.2-0.1-0.5-0.1-0.7,0.1c-0.1,0-1.7,0.9-3.6,2.3c-2.6,1.9-4.1,3.6-4.7,5.3
					c-0.5,1.5-0.6,3-0.3,4.4c0.3,1.5,0.9,2.7,1.9,3.6c-0.6,1.2-0.7,2.6-0.4,4c0,0,0,0,0,0c0.3,1.4,0.9,2.8,1.9,4
					c1.1,1.3,3.2,2.4,6.3,3.2c2.2,0.6,4.1,0.8,4.2,0.8C39.5,404.2,39.7,404.1,39.9,403.9z"/>
				<path class="st8" d="M39.9,403.9c0.2-0.2,0.3-0.4,0.3-0.7c0-0.1,0.1-1.1,0.1-2.6c3.4-0.5,6.9-2,7-2.1c0.2-0.1,0.4-0.3,0.5-0.5
					c0.1-0.2,0.1-0.5,0-0.7c0-0.1-0.5-1.1-1.4-2.4c3.6-2,7-6.8,7.2-7c0.1-0.2,0.2-0.5,0.2-0.7l-26.5,5c-0.6,1.2-0.7,2.6-0.4,4
					c0,0,0,0,0,0c0.3,1.4,0.9,2.8,1.9,4c1.1,1.3,3.2,2.4,6.3,3.2c2.2,0.6,4.1,0.8,4.2,0.8C39.5,404.2,39.7,404.1,39.9,403.9z"/>
				<g>
					<path class="st9" d="M45.7,382.8c-0.5-0.1-1.5-0.3-1.5-0.3s-0.5,2.7-1.4,4.3L45.7,382.8z"/>
					<path class="st9" d="M37.3,379.1c-0.3,0.1-0.9,0.2-0.9,0.2s0.5,1.4,1.1,3.2C37.4,382.5,37.4,380.5,37.3,379.1z"/>
				</g>
				<g>
					<path class="st10" d="M47.8,394c-0.4,0.3-1.3,0.9-1.3,0.9s-1.4-2.3-2.9-3.5L47.8,394z"/>
					<path class="st10" d="M41.3,400.6c-0.3,0.1-0.9,0.2-0.9,0.2s0-1.4-0.2-3.4C40.2,397.3,40.9,399.2,41.3,400.6z"/>
				</g>
				<path class="st6" d="M31.2,391.8c0.2,0,0.3-0.1,0.5-0.1c0.5-0.1,1-0.2,1.5-0.3L44,397l-9.4-5.8c0.5-0.1,1-0.2,1.6-0.3
					c0.8-0.2,1.6-0.3,2.4-0.5c0.8-0.2,1.6-0.3,2.4-0.5c0.8-0.2,1.5-0.3,2.3-0.5c0.7-0.2,1.5-0.3,2.1-0.4c0.7-0.1,1.3-0.3,1.9-0.4
					c0.3-0.1,0.6-0.1,0.8-0.2c0.3-0.1,0.5-0.1,0.8-0.2c0.2-0.1,0.5-0.1,0.7-0.2c0.2-0.1,0.4-0.1,0.6-0.1c0.3-0.1,0.6-0.2,0.8-0.2
					c0.2-0.1,0.3-0.1,0.3-0.1s-0.1,0-0.3,0c-0.2,0-0.5,0-0.8,0.1c-0.2,0-0.4,0-0.6,0.1c-0.2,0-0.4,0.1-0.7,0.1
					c-0.2,0-0.5,0.1-0.8,0.1c-0.3,0-0.6,0.1-0.9,0.1c-0.6,0.1-1.3,0.2-1.9,0.3c-0.7,0.1-1.4,0.2-2.2,0.4c-0.7,0.1-1.5,0.3-2.3,0.4
					c-0.8,0.1-1.6,0.3-2.4,0.4c-0.8,0.1-1.6,0.3-2.4,0.4c-0.5,0.1-1.1,0.2-1.6,0.3l6.7-8.8l-8.1,9.1c-0.5,0.1-1,0.2-1.5,0.3
					c-0.2,0-0.3,0.1-0.5,0.1l1-9.9l-2,10c-0.2,0-0.3,0.1-0.5,0.1c-0.6,0.1-1.1,0.2-1.6,0.3c-0.4,0.1-0.7,0.1-1,0.2
					c0.1,0.1,0.3,0.3,0.4,0.4c-0.1,0.2-0.2,0.4-0.2,0.5c0.3-0.1,0.6-0.1,1-0.2c0.5-0.1,1-0.2,1.6-0.3c0.1,0,0.3-0.1,0.5-0.1l5.5,8.6
					L31.2,391.8z"/>
			</g>
		</g>
		<g>
			<path class="st6" d="M24.2,351.8c0.6-0.4,1,0.5,1,0.5c-0.5,0.8-0.8,1.5-1,1.7c-0.1,0.2-0.3,0.4-0.3,0.4c-0.1,0.1-0.1,0.2-0.2,0.2
				c-0.4,0.4-1,0.8-1.7,1.2c-1.1,0.5-2.2,0.8-3.1,0.8l-0.2-0.7C22.1,356,24.2,352.5,24.2,351.8z"/>
			<g>
				<path class="st7" d="M10.4,350c-0.1,0.2-0.1,0.4-0.1,0.5c0,0,0.2,0.8,0.6,1.8c-2.2,1.1-4.3,3.1-4.4,3.2
					c-0.1,0.1-0.2,0.3-0.2,0.5c0,0.2,0.1,0.4,0.2,0.5c0,0,0.6,0.6,1.5,1.4c-2,2.3-3.3,6.4-3.3,6.6c-0.1,0.2,0,0.4,0.1,0.5
					c0.1,0.2,0.3,0.3,0.4,0.3c0.2,0.1,4.4,1.1,7.4,0.6c0.2,1.2,0.4,2,0.4,2c0,0.2,0.2,0.3,0.3,0.4c0.2,0.1,0.4,0.1,0.5,0.1
					c0.1,0,2.9-0.8,5-2.1c0.7,0.8,1.2,1.4,1.3,1.4c0.1,0.1,0.3,0.2,0.5,0.2c0.2,0,0.4-0.1,0.5-0.2c0,0,1-1.1,2-2.4
					c1.4-1.9,2-3.5,2-4.8c0-1.1-0.3-2.2-0.8-3.2c-0.5-1-1.3-1.7-2.2-2.1c0.1-1-0.1-2-0.7-2.9l0,0c-0.5-0.9-1.3-1.7-2.3-2.3
					c-1.1-0.7-2.8-0.9-5.2-0.8c-1.7,0.1-3,0.4-3.1,0.4C10.6,349.7,10.5,349.8,10.4,350z"/>
				<path class="st8" d="M10.4,350c-0.1,0.2-0.1,0.4-0.1,0.5c0,0,0.2,0.8,0.6,1.8c-2.2,1.1-4.3,3.1-4.4,3.2
					c-0.1,0.1-0.2,0.3-0.2,0.5c0,0.2,0.1,0.4,0.2,0.5c0,0,0.6,0.6,1.5,1.4c-2,2.3-3.3,6.4-3.3,6.6c-0.1,0.2,0,0.4,0.1,0.5l17.4-9.8
					c0.1-1-0.1-2-0.7-2.9l0,0c-0.5-0.9-1.3-1.7-2.3-2.3c-1.1-0.7-2.8-0.9-5.2-0.8c-1.7,0.1-3,0.4-3.1,0.4
					C10.6,349.7,10.5,349.8,10.4,350z"/>
				<g>
					<path class="st9" d="M11.3,366.1c0.4,0,1.2-0.1,1.2-0.1s-0.3-2,0-3.4L11.3,366.1z"/>
					<path class="st9" d="M18.1,366.7c0.2-0.1,0.6-0.3,0.6-0.3s-0.7-0.8-1.5-2C17.2,364.4,17.7,365.8,18.1,366.7z"/>
				</g>
				<g>
					<path class="st10" d="M7.2,358.8c0.2-0.3,0.7-0.9,0.7-0.9s1.6,1.3,2.9,1.8L7.2,358.8z"/>
					<path class="st10" d="M10.2,352.6c0.2-0.1,0.6-0.3,0.6-0.3s0.4,1,0.9,2.3C11.7,354.6,10.8,353.5,10.2,352.6z"/>
				</g>
				<path class="st6" d="M19.4,356.4c-0.1,0.1-0.2,0.1-0.3,0.2c-0.3,0.2-0.6,0.4-1,0.6l-8.9-1.3l8,1.8c-0.3,0.2-0.7,0.4-1,0.6
					c-0.5,0.3-1,0.6-1.5,0.9c-0.5,0.3-1,0.6-1.5,0.9c-0.5,0.3-1,0.6-1.5,0.9c-0.5,0.3-1,0.6-1.4,0.8c-0.4,0.3-0.9,0.5-1.2,0.7
					c-0.2,0.1-0.4,0.2-0.5,0.3c-0.2,0.1-0.3,0.2-0.5,0.3c-0.2,0.1-0.3,0.2-0.4,0.3c-0.1,0.1-0.3,0.2-0.4,0.2
					c-0.2,0.1-0.4,0.3-0.5,0.3c-0.1,0.1-0.2,0.1-0.2,0.1s0.1,0,0.2-0.1c0.1-0.1,0.3-0.1,0.6-0.3c0.1-0.1,0.2-0.1,0.4-0.2
					c0.1-0.1,0.3-0.1,0.5-0.2c0.2-0.1,0.3-0.2,0.5-0.3c0.2-0.1,0.4-0.2,0.6-0.3c0.4-0.2,0.8-0.4,1.3-0.7c0.5-0.2,0.9-0.5,1.4-0.8
					c0.5-0.3,1-0.5,1.5-0.8c0.5-0.3,1-0.6,1.6-0.9c0.5-0.3,1.1-0.6,1.6-0.9c0.4-0.2,0.7-0.4,1-0.6l-2.6,7.8l3.5-8.3
					c0.3-0.2,0.7-0.4,1-0.5c0.1-0.1,0.2-0.1,0.3-0.2l1.6,7.2l-1-7.5c0.1-0.1,0.2-0.1,0.3-0.2c0.4-0.2,0.8-0.4,1.1-0.6
					c0.3-0.1,0.5-0.3,0.7-0.4c-0.1-0.1-0.3-0.1-0.4-0.2c0-0.1,0-0.3,0-0.4c-0.2,0.1-0.4,0.2-0.7,0.4c-0.3,0.2-0.7,0.4-1.1,0.6
					c-0.1,0.1-0.2,0.1-0.3,0.2l-5.9-4.8L19.4,356.4z"/>
			</g>
		</g>
	</g>
</g>
<g>
	<g>
		<g>
			<path class="st0" d="M185.8,441.1c-3-0.5-6.2-1-9.5-1.4c-4.3-0.5-8.5-0.8-12.3-0.9c-2.9-1.2-5.9-2.3-8.9-3.5
				c-3.7-1.4-7.4-2.8-11-4.1c-0.2,0-0.7,0.2-1.1,0.8c-0.4,0.6-0.4,1.3,0,2c0,0,14.5,5.5,15.3,7.2c0.2,0.6,0.3,1.3,0.4,2.1
				c0.1,1.5-0.1,2.7-0.3,3.6c2,0,3.9,0,5.9,0.1c-0.1-0.8-0.2-1.9,0-3.1c0.1-0.8,0.3-1.6,0.5-2.2c2.7,0.1,5.6,0.2,8.5,0.4
				c4.3,0.3,8.4,0.7,12.3,1.2C185.4,443.2,186.4,442.5,185.8,441.1z"/>
			<defs>
				<filter id="Adobe_OpacityMaskFilter_1_" filterUnits="userSpaceOnUse" x="142.6" y="431.2" width="43.4" height="15.7">
					
						<feColorMatrix  type="matrix" values="-1 0 0 0 1  0 -1 0 0 1  0 0 -1 0 1  0 0 0 1 0" color-interpolation-filters="sRGB" result="source"/>
					<feFlood  style="flood-color:white;flood-opacity:1" result="back"/>
					<feBlend  in="source" in2="back" mode="normal"/>
				</filter>
			</defs>
			<mask maskUnits="userSpaceOnUse" x="142.6" y="431.2" width="43.4" height="15.7" id="SVGID_2_">
				<g class="st13">
					<polygon class="st2" points="149.7,433.2 180,453.6 188.1,442.4 157.9,422 					"/>
				</g>
			</mask>
			<path class="st14" d="M185.8,441.1c-3-0.5-6.2-1-9.5-1.4c-4.3-0.5-8.5-0.8-12.3-0.9c-2.9-1.2-5.9-2.3-8.9-3.5
				c-3.7-1.4-7.4-2.8-11-4.1c-0.2,0-0.7,0.2-1.1,0.8c-0.4,0.6-0.4,1.3,0,2c0,0,14.5,5.5,15.3,7.2c0.2,0.6,0.3,1.3,0.4,2.1
				c0.1,1.5-0.1,2.7-0.3,3.6c2,0,3.9,0,5.9,0.1c-0.1-0.8-0.2-1.9,0-3.1c0.1-0.8,0.3-1.6,0.5-2.2c2.7,0.1,5.6,0.2,8.5,0.4
				c4.3,0.3,8.4,0.7,12.3,1.2C185.4,443.2,186.4,442.5,185.8,441.1z"/>
		</g>
		<g>
			<path class="st4" d="M161.5,491.9c6.4,0,12.3-2.4,16.8-6.7c4.5-4.3,7-10.1,7-16.2c0-6.1-2.5-11.9-7-16.2
				c-4.5-4.3-10.5-6.7-16.8-6.7c-6.4,0-12.3,2.4-16.8,6.7c-4.5,4.3-7,10.1-7,16.2c0,6.1,2.5,11.9,7,16.2
				C149.1,489.5,155.1,491.9,161.5,491.9z"/>
			<path class="st5" d="M181.2,459.6c-1.4,0.8-3.6,1.7-6.3,2.1c-4.1,0.6-6.2-0.4-8.5-0.2c-2.9,0.2-6.8,2.5-11,11.2
				c-0.4,0.4-0.9,1-1.3,1.7c-0.6,1.1-0.8,2.1-1,2.8c-0.5,2.5-0.8,4.9-1,6.3"/>
			<path class="st5" d="M176.6,453.5c-0.8,0.4-1.7,0.8-2.8,1c-3.6,1-6.8,0.5-8.6,0c-3,0.2-5.3,0.4-6.8,0.6c-5.8,0.5-6.5,0.7-8,0.3
				c-0.9-0.2-2.2-0.6-4.1-0.7c-1.2-0.1-2.2,0-2.8,0.1"/>
			<path class="st5" d="M174.9,483.2c-0.9,0.4-2.8,1-5,0.5c-2.2-0.5-3.6-1.9-4.7-3c-1.7-1.7-1.8-2.5-3.4-4.4
				c-1.6-1.9-2.4-2.8-3.9-3.5c-1.2-0.6-1.8-0.6-2.3-1.3c-0.8-1.2,0.2-2.7,0.2-4.1c0-1.6-1.2-3.9-6.9-6.8c-0.2,0-2.2,0.3-3.8-1
				c-1.5-1.3-1.5-3-1.5-3.3"/>
			<path class="st5" d="M184.4,471.5c-0.8,0.3-1.8,0.5-2.5,0c-0.6-0.4-0.4-0.9-0.9-1.3c-0.7-0.7-1.9-0.4-5.5-0.1
				c-2.6,0.2-3.3,0.2-4-0.2c-0.7-0.4-0.7-0.9-1.3-1.7c-0.8-1.1-1.6-1.4-3.9-2.8c-4.1-2.5-3.8-3-5.6-3.5c-2.1-0.6-3.6-0.3-3.8-0.8
				c-0.2-0.7,2.6-1.2,2.9-2.8c0.5-2.5-5.4-5.6-6.3-6.1c-1.8-0.9-3.3-1.4-4.4-1.7"/>
			<path class="st5" d="M174.6,465.2c-0.8,1-2.1,2.2-4,2.8c-2.8,0.8-4.2-0.7-5.8,0.3c-2.2,1.3-2.9,5.8-1.3,8.3
				c0.4,0.6,0.8,0.9,0.7,1.4c-0.2,1.2-3,1-6.1,2.8c-1.1,0.7-3.8,2.2-4.2,4.8c-0.4,2.1,0.9,3.9,1.5,4.5"/>
			<path class="st5" d="M182.8,477.1c-0.5,0.4-1.7,1.1-3.1,0.5c-1.4-0.5-2.2-2-2.9-3.3c-1-1.8-1.1-2.7-2.1-4.8c-1-2-1.5-3-2.4-3.8
				c-0.8-0.7-1.1-0.6-1.4-1.4c-0.5-1.3,0.1-2.9,0.1-4.4c0-1.7-0.7-4.2-4.3-7.3c-0.1,0-1.4,0.4-2.3-1.1c-0.9-1.4-0.9-3.3-0.9-3.5"/>
			<path class="st5" d="M170.2,489.3c-0.9,0.4-2.8,1-5,0.5c-2.2-0.5-3.6-1.9-4.7-3c-1.7-1.7-1.8-2.5-3.4-4.4
				c-1.6-1.9-2.4-2.8-3.9-3.5c-1.2-0.6-1.8-0.6-2.3-1.3c-0.8-1.2,0.2-2.7,0.2-4.1c0-1.6-1.2-3.9-6.9-6.8c-0.2,0-2.2,0.3-3.8-1
				c-1.5-1.3-1.5-3-1.5-3.3"/>
			<path class="st5" d="M140.2,462.3c0.7,1.1,1.4,2.7,1.3,4.6c-0.2,2.8-2.1,3.5-1.8,5.3c0.5,2.4,4.5,4.7,7.5,4.2
				c0.8-0.1,1.2-0.4,1.6-0.1c1.1,0.6-0.1,3,0.5,6.4c0.2,1.3,0.7,4.2,3.1,5.5c1.9,1.1,4.1,0.6,4.9,0.4"/>
			<path class="st5" d="M163.6,447c-0.8,1-2.1,2.2-4,2.8c-2.8,0.8-4.2-0.7-5.8,0.3c-2.2,1.3-2.9,5.8-1.3,8.3
				c0.4,0.6,0.8,0.9,0.7,1.4c-0.2,1.2-3,1-6.1,2.8c-1.1,0.7-3.8,2.2-4.2,4.8c-0.4,2.1,0.9,3.9,1.5,4.5"/>
			<path class="st5" d="M171.4,454.6c-0.8,1-2.1,2.2-4,2.8c-2.8,0.8-4.2-0.7-5.8,0.3c-2.2,1.3-2.9,5.8-1.3,8.3
				c0.4,0.6,0.8,0.9,0.7,1.4c-0.2,1.2-3,1-6.1,2.8c-1.1,0.7-3.8,2.2-4.2,4.8c-0.4,2.1,0.9,3.9,1.5,4.5"/>
			<path class="st5" d="M184,466.7c-0.8,1-2.1,2.2-4,2.8c-2.8,0.8-4.2-0.7-5.8,0.3c-2.2,1.3-2.9,5.8-1.3,8.3
				c0.4,0.6,0.8,0.9,0.7,1.4c-0.2,1.2-3,1-6.1,2.8c-1.1,0.7-3.8,2.2-4.2,4.8c-0.4,2.1,0.9,3.9,1.5,4.5"/>
			<path class="st5" d="M180.9,462.1c-0.8,1-2.1,2.2-4,2.8c-2.8,0.8-4.2-0.7-5.8,0.3c-2.2,1.3-2.9,5.8-1.3,8.3
				c0.4,0.6,0.8,0.9,0.7,1.4c-0.2,1.2-3,1-6.1,2.8c-1.1,0.7-3.8,2.2-4.2,4.8c-0.4,2.1,0.9,3.9,1.5,4.5"/>
			<path class="st5" d="M179.3,456.1c-0.8,1-2.1,2.2-4,2.8c-2.8,0.8-4.2-0.7-5.8,0.3c-2.2,1.3-2.9,5.8-1.3,8.3
				c0.4,0.6,0.8,0.9,0.7,1.4c-0.2,1.2-3,1-6.1,2.8c-1.1,0.7-3.8,2.2-4.2,4.8c-0.4,2.1,0.9,3.9,1.5,4.5"/>
			<path class="st5" d="M165.1,450c-0.8,1-2.1,2.2-4,2.8c-2.8,0.8-4.2-0.7-5.8,0.3c-2.2,1.3-2.9,5.8-1.3,8.3
				c0.4,0.6,0.8,0.9,0.7,1.4c-0.2,1.2-3,1-6.1,2.8c-1.1,0.7-3.8,2.2-4.2,4.8c-0.4,2.1,0.9,3.9,1.5,4.5"/>
			<path class="st5" d="M171.4,454.6c-0.8,1-2.1,2.2-4,2.8c-2.8,0.8-4.2-0.7-5.8,0.3c-2.2,1.3-2.9,5.8-1.3,8.3
				c0.4,0.6,0.8,0.9,0.7,1.4c-0.2,1.2-3,1-6.1,2.8c-1.1,0.7-3.8,2.2-4.2,4.8c-0.4,2.1,0.9,3.9,1.5,4.5"/>
			<path class="st5" d="M158.9,447c-0.8,1-2.1,2.2-4,2.8c-2.8,0.8-4.2-0.7-5.8,0.3c-2.2,1.3-2.9,5.8-1.3,8.3
				c0.4,0.6,0.8,0.9,0.7,1.4c-0.2,1.2-3,1-6.1,2.8c-1.1,0.7-3.8,2.2-4.2,4.8c-0.4,2.1,0.9,3.9,1.5,4.5"/>
			<path class="st5" d="M169.9,487c0.5-0.4,1.2-0.8,2.2-1c1.5-0.3,2.3,0.2,3.2-0.1c1.2-0.5,1.6-2.1,0.7-3c-0.2-0.2-0.4-0.3-0.4-0.5
				c0.1-0.4,1.6-0.4,3.3-1c0.6-0.2,2.1-0.8,2.3-1.7c0.2-0.8-0.5-1.4-0.8-1.6"/>
			<path class="st5" d="M169.9,480.9c0.5-0.4,1.2-0.8,2.2-1c1.5-0.3,2.3,0.2,3.2-0.1c1.2-0.5,1.6-2.1,0.7-3
				c-0.2-0.2-0.4-0.3-0.4-0.5c0.1-0.4,1.6-0.4,3.3-1c0.6-0.2,2.1-0.8,2.3-1.7c0.2-0.8-0.5-1.4-0.8-1.6"/>
			<path class="st5" d="M171.4,471.8c0.5-0.4,1.2-0.8,2.2-1c1.5-0.3,2.3,0.2,3.2-0.1c1.2-0.5,1.6-2.1,0.7-3
				c-0.2-0.2-0.4-0.3-0.4-0.5c0.1-0.4,1.6-0.4,3.3-1c0.6-0.2,2.1-0.8,2.3-1.7c0.2-0.8-0.5-1.4-0.8-1.6"/>
			<path class="st5" d="M162,459.7c0.5-0.4,1.2-0.8,2.2-1c1.5-0.3,2.3,0.2,3.2-0.1c1.2-0.5,1.6-2.1,0.7-3c-0.2-0.2-0.4-0.3-0.4-0.5
				c0.1-0.4,1.6-0.4,3.3-1c0.6-0.2,2.1-0.8,2.3-1.7c0.2-0.8-0.5-1.4-0.8-1.6"/>
			<path class="st5" d="M141.5,479.4c0.5-0.4,1.2-0.8,2.2-1c1.5-0.3,2.3,0.2,3.2-0.1c1.2-0.5,1.6-2.1,0.7-3
				c-0.2-0.2-0.4-0.3-0.4-0.5c0.1-0.4,1.6-0.4,3.3-1c0.6-0.2,2.1-0.8,2.3-1.7c0.2-0.8-0.5-1.4-0.8-1.6"/>
			<path class="st5" d="M144.7,483.9c0.5-0.4,1.2-0.8,2.2-1c1.5-0.3,2.3,0.2,3.2-0.1c1.2-0.5,1.6-2.1,0.7-3
				c-0.2-0.2-0.4-0.3-0.4-0.5c0.1-0.4,1.6-0.4,3.3-1c0.6-0.2,2.1-0.8,2.3-1.7c0.2-0.8-0.5-1.4-0.8-1.6"/>
			<path class="st5" d="M154.1,490c0.5-0.4,1.2-0.8,2.2-1c1.5-0.3,2.3,0.2,3.2-0.1c1.2-0.5,1.6-2.1,0.7-3c-0.2-0.2-0.4-0.3-0.4-0.5
				c0.1-0.4,1.6-0.4,3.3-1c0.6-0.2,2.1-0.8,2.3-1.7c0.2-0.8-0.5-1.4-0.8-1.6"/>
			<path class="st5" d="M178.1,480.1c-0.7,0.4-2.3,1.1-4.1,0.5c-1.8-0.5-3-2-3.9-3.3c-1.4-1.8-1.5-2.7-2.8-4.8c-1.3-2-2-3-3.2-3.8
				c-1-0.7-1.5-0.6-1.9-1.4c-0.7-1.3,0.2-2.9,0.2-4.4c0-1.7-1-4.2-5.8-7.3c-0.2,0-1.8,0.4-3.1-1.1c-1.2-1.4-1.2-3.3-1.2-3.5"/>
			<path class="st5" d="M165.5,486.2c-0.5,0.4-1.7,1.1-3.1,0.5c-1.4-0.5-2.2-2-2.9-3.3c-1-1.8-1.1-2.7-2.1-4.8c-1-2-1.5-3-2.4-3.8
				c-0.8-0.7-1.1-0.6-1.4-1.4c-0.5-1.3,0.1-2.9,0.1-4.4c0-1.7-0.7-4.2-4.3-7.3c-0.1,0-1.4,0.4-2.3-1.1c-0.9-1.4-0.9-3.3-0.9-3.5"/>
			<path class="st5" d="M170.2,483.2c-0.5,0.4-1.7,1.1-3.1,0.5c-1.4-0.5-2.2-2-2.9-3.3c-1-1.8-1.1-2.7-2.1-4.8c-1-2-1.5-3-2.4-3.8
				c-0.8-0.7-1.1-0.6-1.4-1.4c-0.5-1.3,0.1-2.9,0.1-4.4c0-1.7-0.7-4.2-4.3-7.3c-0.1,0-1.4,0.4-2.3-1.1c-0.9-1.4-0.9-3.3-0.9-3.5"/>
			<path class="st5" d="M178.1,480.1c-0.5,0.4-1.7,1.1-3.1,0.5c-1.4-0.5-2.2-2-2.9-3.3c-1-1.8-1.1-2.7-2.1-4.8c-1-2-1.5-3-2.4-3.8
				c-0.8-0.7-1.1-0.6-1.4-1.4c-0.5-1.3,0.1-2.9,0.1-4.4c0-1.7-0.7-4.2-4.3-7.3c-0.1,0-1.4,0.4-2.3-1.1c-0.9-1.4-0.9-3.3-0.9-3.5"/>
			<path class="st5" d="M171.8,486.2c-0.9,0.4-2.8,1-5,0.5c-2.2-0.5-3.6-1.9-4.7-3c-1.7-1.7-1.8-2.5-3.4-4.4
				c-1.6-1.9-2.4-2.8-3.9-3.5c-1.2-0.6-1.8-0.6-2.3-1.3c-0.8-1.2,0.2-2.7,0.2-4.1c0-1.6-1.2-3.9-6.9-6.8c-0.2,0-2.2,0.3-3.8-1
				c-1.5-1.3-1.5-3-1.5-3.3"/>
			<path class="st5" d="M140,476.4c0.5-0.4,1.2-0.8,2.2-1c1.5-0.3,2.3,0.2,3.2-0.1c1.2-0.5,1.6-2.1,0.7-3c-0.2-0.2-0.4-0.3-0.4-0.5
				c0.1-0.4,1.6-0.4,3.3-1c0.6-0.2,2.1-0.8,2.3-1.7c0.2-0.8-0.5-1.4-0.8-1.6"/>
			<path class="st5" d="M158.9,456.7c0.5-0.4,1.2-0.8,2.2-1c1.5-0.3,2.3,0.2,3.2-0.1c1.2-0.5,1.6-2.1,0.7-3
				c-0.2-0.2-0.4-0.3-0.4-0.5c0.1-0.4,1.6-0.4,3.3-1c0.6-0.2,2.1-0.8,2.3-1.7c0.2-0.8-0.5-1.4-0.8-1.6"/>
			<path class="st5" d="M180.6,464.5c-0.3-0.5-0.6-1.3-0.6-2.3c0-1.5,0.7-2.1,0.5-3c-0.3-1.2-1.8-1.9-2.9-1.3
				c-0.3,0.2-0.4,0.4-0.6,0.3c-0.4-0.2-0.1-1.6-0.4-3.3c-0.1-0.6-0.4-2.1-1.3-2.5c-0.7-0.3-1.5,0.2-1.8,0.4"/>
			<path class="st5" d="M178.7,465.2c-0.4-0.4-0.8-1.1-1.1-2.1c-0.3-1.5,0.2-2.2-0.2-3.1c-0.5-1.2-2.2-1.5-3.1-0.7
				c-0.2,0.2-0.3,0.4-0.5,0.4c-0.5-0.1-0.4-1.6-1.1-3.2c-0.3-0.6-0.8-2-1.8-2.2c-0.8-0.2-1.5,0.5-1.7,0.8"/>
			<path class="st5" d="M177.1,469.8c-0.4-0.4-0.8-1.1-1.1-2.1c-0.3-1.5,0.2-2.2-0.2-3.1c-0.5-1.2-2.2-1.5-3.1-0.7
				c-0.2,0.2-0.3,0.4-0.5,0.4c-0.5-0.1-0.4-1.6-1.1-3.2c-0.3-0.6-0.8-2-1.8-2.2c-0.8-0.2-1.5,0.5-1.7,0.8"/>
			<path class="st5" d="M169.2,481.9c-0.4-0.4-0.8-1.1-1.1-2.1c-0.3-1.5,0.2-2.2-0.2-3.1c-0.5-1.2-2.2-1.5-3.1-0.7
				c-0.2,0.2-0.3,0.4-0.5,0.4c-0.5-0.1-0.4-1.6-1.1-3.2c-0.3-0.6-0.8-2-1.8-2.2c-0.8-0.2-1.5,0.5-1.7,0.8"/>
			<path class="st5" d="M150.4,487.9c-0.4-0.4-0.8-1.1-1.1-2.1c-0.3-1.5,0.2-2.2-0.2-3.1c-0.5-1.2-2.2-1.5-3.1-0.7
				c-0.2,0.2-0.3,0.4-0.5,0.4c-0.5-0.1-0.4-1.6-1.1-3.2c-0.3-0.6-0.8-2-1.8-2.2c-0.8-0.2-1.5,0.5-1.7,0.8"/>
			<path class="st5" d="M159.8,490.9c-0.4-0.4-0.8-1.1-1.1-2.1c-0.3-1.5,0.2-2.2-0.2-3.1c-0.5-1.2-2.2-1.5-3.1-0.7
				c-0.2,0.2-0.3,0.4-0.5,0.4c-0.5-0.1-0.4-1.6-1.1-3.2c-0.3-0.6-0.8-2-1.8-2.2c-0.8-0.2-1.5,0.5-1.7,0.8"/>
		</g>
	</g>
	<g>
		<g>
			<path class="st6" d="M203.2,460c-0.6,0.4-1-0.4-1-0.4c0.5-0.8,0.8-1.4,0.9-1.7c0.1-0.2,0.2-0.4,0.3-0.4c0.1-0.1,0.1-0.2,0.2-0.2
				c0.4-0.4,1-0.8,1.7-1.2c1.1-0.6,2.2-0.8,3.1-0.9l0.2,0.7C205.3,455.8,203.2,459.2,203.2,460z"/>
			<g>
				<path class="st7" d="M216.9,461.6c0.1-0.2,0.1-0.4,0.1-0.5c0,0-0.2-0.8-0.6-1.8c2.2-1.1,4.2-3.1,4.3-3.2
					c0.1-0.1,0.2-0.3,0.2-0.5c0-0.2-0.1-0.4-0.2-0.5c0,0-0.6-0.6-1.5-1.3c2-2.3,3.2-6.4,3.2-6.6c0.1-0.2,0-0.4-0.1-0.5
					c-0.1-0.2-0.3-0.3-0.4-0.3c-0.2,0-4.4-1.1-7.3-0.5c-0.2-1.1-0.4-1.9-0.4-2c0-0.2-0.2-0.3-0.3-0.4c-0.2-0.1-0.4-0.1-0.5-0.1
					c-0.1,0-2.8,0.8-4.9,2.2c-0.7-0.8-1.2-1.4-1.3-1.4c-0.1-0.1-0.3-0.2-0.5-0.2c-0.2,0-0.4,0.1-0.5,0.2c0,0-1,1.1-1.9,2.4
					c-1.3,1.9-2,3.5-1.9,4.8c0,1.1,0.3,2.2,0.8,3.1c0.5,0.9,1.3,1.6,2.2,2c-0.1,0.9,0.1,2,0.7,2.9l0,0c0.5,0.9,1.3,1.7,2.3,2.3
					c1.1,0.7,2.8,0.9,5.1,0.7c1.7-0.1,3-0.4,3.1-0.5C216.7,461.9,216.8,461.8,216.9,461.6z"/>
				<path class="st8" d="M216.9,461.6c0.1-0.2,0.1-0.4,0.1-0.5c0,0-0.2-0.8-0.6-1.8c2.2-1.1,4.2-3.1,4.3-3.2
					c0.1-0.1,0.2-0.3,0.2-0.5c0-0.2-0.1-0.4-0.2-0.5c0,0-0.6-0.6-1.5-1.3c2-2.3,3.2-6.4,3.2-6.6c0.1-0.2,0-0.4-0.1-0.5l-17.1,9.9
					c-0.1,0.9,0.1,2,0.7,2.9l0,0c0.5,0.9,1.3,1.7,2.3,2.3c1.1,0.7,2.8,0.9,5.1,0.7c1.7-0.1,3-0.4,3.1-0.5
					C216.7,461.9,216.8,461.8,216.9,461.6z"/>
				<g>
					<path class="st9" d="M215.8,445.7c-0.4,0-1.1,0.1-1.1,0.1s0.3,2,0.1,3.3L215.8,445.7z"/>
					<path class="st9" d="M209,445.2c-0.2,0.1-0.6,0.4-0.6,0.4s0.7,0.8,1.5,1.9C210,447.5,209.5,446.1,209,445.2z"/>
				</g>
				<g>
					<path class="st10" d="M220,452.9c-0.2,0.3-0.7,0.9-0.7,0.9s-1.6-1.3-2.8-1.7L220,452.9z"/>
					<path class="st10" d="M217,459c-0.2,0.1-0.6,0.3-0.6,0.3s-0.4-1-0.9-2.3C215.5,457,216.5,458.1,217,459z"/>
				</g>
				<path class="st6" d="M208,455.4c0.1-0.1,0.2-0.1,0.3-0.2c0.3-0.2,0.6-0.4,1-0.6l8.8,1.2l-7.9-1.7c0.3-0.2,0.7-0.4,1-0.6
					c0.5-0.3,1-0.6,1.5-0.9c0.5-0.3,1-0.6,1.5-0.9c0.5-0.3,1-0.6,1.5-0.9c0.5-0.3,0.9-0.6,1.4-0.8c0.4-0.3,0.8-0.5,1.2-0.8
					c0.2-0.1,0.4-0.2,0.5-0.3c0.2-0.1,0.3-0.2,0.5-0.3c0.2-0.1,0.3-0.2,0.4-0.3c0.1-0.1,0.2-0.2,0.4-0.2c0.2-0.1,0.4-0.3,0.5-0.3
					c0.1-0.1,0.2-0.1,0.2-0.1s-0.1,0-0.2,0.1c-0.1,0.1-0.3,0.1-0.5,0.3c-0.1,0.1-0.2,0.1-0.4,0.2c-0.1,0.1-0.3,0.1-0.5,0.2
					c-0.2,0.1-0.3,0.2-0.5,0.3c-0.2,0.1-0.4,0.2-0.6,0.3c-0.4,0.2-0.8,0.4-1.3,0.7c-0.4,0.2-0.9,0.5-1.4,0.8c-0.5,0.3-1,0.5-1.5,0.8
					c-0.5,0.3-1,0.6-1.5,0.9c-0.5,0.3-1,0.6-1.5,0.9c-0.3,0.2-0.7,0.4-1,0.6l2.5-7.7l-3.3,8.2c-0.3,0.2-0.7,0.4-1,0.6
					c-0.1,0.1-0.2,0.1-0.3,0.2l-1.7-7.1l1.1,7.4c-0.1,0.1-0.2,0.1-0.3,0.2c-0.4,0.2-0.7,0.4-1,0.6c-0.2,0.1-0.5,0.3-0.7,0.4
					c0.1,0.1,0.2,0.1,0.4,0.2c0,0.1,0,0.3,0,0.4c0.2-0.1,0.4-0.2,0.7-0.4c0.3-0.2,0.7-0.4,1-0.6c0.1-0.1,0.2-0.1,0.3-0.2l5.9,4.6
					L208,455.4z"/>
			</g>
		</g>
		<g>
			<path class="st6" d="M192.7,508.8c0.7,0.2,0.3,1.1,0.3,1.1c-0.9,0.2-1.6,0.3-1.9,0.3c-0.2,0-0.4,0-0.5,0c-0.1,0-0.2,0-0.3,0
				c-0.6-0.1-1.3-0.3-2-0.6c-1.1-0.5-2-1.2-2.6-1.9l0.4-0.6C188.1,509.8,192.1,509.3,192.7,508.8z"/>
			<g>
				<path class="st7" d="M185.3,497.1c-0.2,0-0.4,0.1-0.5,0.3c0,0-0.5,0.6-1,1.6c-2.3-1-5.1-1.4-5.2-1.4c-0.2,0-0.4,0-0.5,0.1
					c-0.1,0.1-0.2,0.3-0.3,0.5c0,0-0.1,0.9-0.1,2c-3-0.1-7,1.5-7.2,1.6c-0.2,0.1-0.3,0.2-0.4,0.4c-0.1,0.2-0.1,0.4,0,0.5
					c0.1,0.2,1.9,4.1,4.2,6c-0.8,0.9-1.3,1.5-1.3,1.6c-0.1,0.2-0.2,0.3-0.1,0.5c0,0.2,0.1,0.4,0.3,0.5c0.1,0.1,2.4,1.7,4.8,2.5
					c-0.2,1-0.3,1.8-0.3,1.8c0,0.2,0,0.4,0.2,0.5c0.1,0.1,0.3,0.2,0.5,0.2c0.1,0,1.4,0.1,3.1,0c2.3-0.2,4-0.7,4.9-1.5
					c0.9-0.7,1.5-1.6,1.9-2.6c0.4-1,0.5-2.1,0.2-3c0.8-0.5,1.4-1.3,1.8-2.3l0,0c0.4-1,0.5-2.1,0.4-3.2c-0.2-1.3-1.1-2.7-2.7-4.4
					c-1.1-1.2-2.2-2.1-2.3-2.1C185.7,497.1,185.5,497.1,185.3,497.1z"/>
				<path class="st8" d="M185.3,497.1c-0.2,0-0.4,0.1-0.5,0.3c0,0-0.5,0.6-1,1.6c-2.3-1-5.1-1.4-5.2-1.4c-0.2,0-0.4,0-0.5,0.1
					c-0.1,0.1-0.2,0.3-0.3,0.5c0,0-0.1,0.9-0.1,2c-3-0.1-7,1.5-7.2,1.6c-0.2,0.1-0.3,0.2-0.4,0.4l18.4,7.1c0.8-0.5,1.4-1.3,1.8-2.3
					l0,0c0.4-1,0.5-2.1,0.4-3.2c-0.2-1.3-1.1-2.7-2.7-4.4c-1.1-1.2-2.2-2.1-2.3-2.1C185.7,497.1,185.5,497.1,185.3,497.1z"/>
				<g>
					<path class="st9" d="M173.6,508c0.3,0.3,0.8,0.8,0.8,0.8s1.3-1.5,2.5-2.1L173.6,508z"/>
					<path class="st9" d="M177.5,513.6c0.2,0.1,0.6,0.2,0.6,0.2s0.2-1,0.6-2.4C178.7,511.4,177.9,512.6,177.5,513.6z"/>
				</g>
				<g>
					<path class="st10" d="M176.6,500.2c0.4,0,1.1,0,1.1,0s0,2,0.5,3.3L176.6,500.2z"/>
					<path class="st10" d="M183.2,498.7c0.2,0.1,0.6,0.3,0.6,0.3s-0.6,0.9-1.2,2.2C182.6,501.1,182.9,499.6,183.2,498.7z"/>
				</g>
				<path class="st6" d="M186.1,508c-0.1,0-0.2-0.1-0.4-0.1c-0.3-0.1-0.7-0.3-1-0.4l-4.6-7.6l3.6,7.3c-0.4-0.1-0.7-0.3-1.1-0.4
					c-0.5-0.2-1.1-0.4-1.7-0.6c-0.6-0.2-1.1-0.4-1.7-0.6c-0.5-0.2-1.1-0.4-1.6-0.6c-0.5-0.2-1-0.4-1.5-0.5c-0.5-0.2-0.9-0.3-1.4-0.5
					c-0.2-0.1-0.4-0.1-0.6-0.2c-0.2-0.1-0.4-0.1-0.5-0.2c-0.2-0.1-0.3-0.1-0.5-0.2c-0.1,0-0.3-0.1-0.4-0.1c-0.2-0.1-0.4-0.1-0.6-0.2
					c-0.1,0-0.2-0.1-0.2-0.1s0.1,0,0.2,0.1c0.1,0.1,0.3,0.1,0.5,0.3c0.1,0.1,0.2,0.1,0.4,0.2c0.1,0.1,0.3,0.1,0.5,0.2
					c0.2,0.1,0.3,0.2,0.5,0.2c0.2,0.1,0.4,0.2,0.6,0.3c0.4,0.2,0.9,0.4,1.3,0.6c0.5,0.2,1,0.4,1.5,0.6c0.5,0.2,1,0.4,1.6,0.6
					c0.5,0.2,1.1,0.4,1.6,0.7c0.5,0.2,1.1,0.4,1.6,0.7c0.4,0.1,0.7,0.3,1.1,0.4l-7.6,2.9l8.5-2.6c0.4,0.1,0.7,0.3,1,0.4
					c0.1,0,0.2,0.1,0.4,0.1l-4.4,5.7l5.1-5.5c0.1,0,0.2,0.1,0.3,0.1c0.4,0.2,0.8,0.3,1.1,0.4c0.3,0.1,0.5,0.2,0.7,0.3
					c0-0.1-0.1-0.3-0.1-0.4c0.1-0.1,0.2-0.2,0.3-0.2c-0.2-0.1-0.4-0.2-0.7-0.3c-0.3-0.1-0.7-0.3-1.1-0.4c-0.1,0-0.2-0.1-0.3-0.1
					l-0.1-7.5L186.1,508z"/>
			</g>
		</g>
		<g>
			<path class="st11" d="M202.1,548.3c0,0,6.2-15.1,2.8-39.7c-2.2-15.9-8.7-23-9.8-23.6c-0.2-0.1-0.8-0.3-1.8-1.5
				c-0.6-0.7-1.1-1.5-1.5-2.1c-1-1.9-4-8.1-5.3-19.3c-0.4-3-0.9-9.1-0.3-19.3c0.2-3.9,2.1-39.4,7.9-39.5c1.4,0.1,3.1,2.1,3.3,4.4
				c0.5,5.8-8,20.7-13.3,9.9c-2.7-5.3-3.9-15.6-3.2-25.4"/>
			<path class="st12" d="M195.2,553.2l-2.2,0c-1.3,0-2.4-1.2-2.4-2.5l0.9-61.6l1.5-96c0-1.3,1.2-2.4,2.4-2.4l2.2,0
				c1.3,0,2.4,1.2,2.4,2.5l-2.5,157.6C197.6,552.1,196.5,553.2,195.2,553.2z"/>
			<path class="st11" d="M188.4,537.1c10.6,0.9,18.2-1.5,18.6-6.2c0.3-2.6-1.6-7.1-3.8-9.8c-1.3-1.5-2.5-2.3-3.2-2.8
				c-1.7-1.1-5.9-4.3-8.8-11.4c-5.2-12.9-0.9-26.6-0.6-27.6c0,0,0.5-1.7,1.5-3.3c1.7-2.8,10.6-10.2,11.3-15.2
				c0.8-6-10.3-7.2-12.9-15.6c-3.1-10,9.7-16.9,12.3-33.7c1.5-9.1-0.7-17-2.6-22"/>
		</g>
		<g>
			<path class="st6" d="M198.5,515.2c-0.7-0.3-0.2-1.1-0.2-1.1c0.9-0.1,1.6-0.2,1.9-0.2c0.2,0,0.4,0,0.5,0c0.1,0,0.2,0,0.3,0
				c0.6,0.1,1.2,0.3,1.9,0.7c1.1,0.6,1.9,1.4,2.5,2l-0.5,0.6C203.1,514.5,199.2,514.8,198.5,515.2z"/>
			<g>
				<path class="st7" d="M205.1,527.4c0.2,0,0.4-0.1,0.5-0.2c0,0,0.5-0.6,1.1-1.5c2.2,1.2,5,1.7,5.1,1.7c0.2,0,0.4,0,0.5-0.1
					c0.2-0.1,0.3-0.3,0.3-0.5c0,0,0.1-0.9,0.2-2c3,0.3,7.1-1.1,7.3-1.2c0.2-0.1,0.3-0.2,0.4-0.4c0.1-0.2,0.1-0.4,0-0.5
					c-0.1-0.2-1.6-4.2-3.8-6.3c0.8-0.8,1.4-1.4,1.4-1.5c0.1-0.1,0.2-0.3,0.2-0.5s-0.1-0.4-0.3-0.5c-0.1-0.1-2.3-1.8-4.6-2.8
					c0.3-1,0.4-1.8,0.4-1.8c0-0.2,0-0.4-0.1-0.5c-0.1-0.2-0.3-0.3-0.5-0.3c-0.1,0-1.4-0.2-3.1-0.2c-2.3,0-4,0.4-5,1.2
					c-0.9,0.7-1.6,1.5-2.1,2.5c-0.5,1-0.6,2-0.4,3c-0.8,0.5-1.5,1.2-2,2.2l0,0c-0.4,1-0.6,2.1-0.6,3.2c0.1,1.3,0.9,2.8,2.4,4.6
					c1.1,1.3,2.1,2.2,2.1,2.2C204.7,527.3,204.9,527.4,205.1,527.4z"/>
				<path class="st8" d="M205.1,527.4c0.2,0,0.4-0.1,0.5-0.2c0,0,0.5-0.6,1.1-1.5c2.2,1.2,5,1.7,5.1,1.7c0.2,0,0.4,0,0.5-0.1
					c0.2-0.1,0.3-0.3,0.3-0.5c0,0,0.1-0.9,0.2-2c3,0.3,7.1-1.1,7.3-1.2c0.2-0.1,0.3-0.2,0.4-0.4l-17.9-8.3c-0.8,0.5-1.5,1.2-2,2.2
					l0,0c-0.4,1-0.6,2.1-0.6,3.2c0.1,1.3,0.9,2.8,2.4,4.6c1.1,1.3,2.1,2.2,2.1,2.2C204.7,527.3,204.9,527.4,205.1,527.4z"/>
				<g>
					<path class="st9" d="M217.5,517.3c-0.2-0.3-0.8-0.8-0.8-0.8s-1.4,1.4-2.7,2L217.5,517.3z"/>
					<path class="st9" d="M214.1,511.5c-0.2-0.1-0.6-0.3-0.6-0.3s-0.3,1-0.7,2.4C212.7,513.5,213.6,512.3,214.1,511.5z"/>
				</g>
				<g>
					<path class="st10" d="M214,524.8c-0.4,0-1.1,0-1.1,0s0.1-2-0.2-3.3L214,524.8z"/>
					<path class="st10" d="M207.3,525.9c-0.2-0.1-0.6-0.3-0.6-0.3s0.6-0.9,1.3-2.1C208.1,523.6,207.7,525,207.3,525.9z"/>
				</g>
				<path class="st6" d="M205,516.5c0.1,0.1,0.2,0.1,0.4,0.2c0.3,0.1,0.7,0.3,1,0.5l4.1,7.9l-3.1-7.5c0.4,0.2,0.7,0.3,1.1,0.5
					c0.5,0.2,1.1,0.5,1.6,0.7c0.5,0.2,1.1,0.5,1.6,0.7c0.5,0.2,1.1,0.5,1.6,0.7c0.5,0.2,1,0.4,1.5,0.6c0.5,0.2,0.9,0.4,1.3,0.6
					c0.2,0.1,0.4,0.2,0.6,0.2c0.2,0.1,0.4,0.2,0.5,0.2c0.2,0.1,0.3,0.1,0.5,0.2c0.1,0.1,0.3,0.1,0.4,0.2c0.2,0.1,0.4,0.2,0.6,0.2
					c0.1,0,0.2,0.1,0.2,0.1s-0.1,0-0.2-0.1c-0.1-0.1-0.3-0.2-0.5-0.3c-0.1-0.1-0.2-0.1-0.4-0.2c-0.1-0.1-0.3-0.2-0.4-0.2
					c-0.2-0.1-0.3-0.2-0.5-0.3c-0.2-0.1-0.4-0.2-0.6-0.3c-0.4-0.2-0.8-0.4-1.3-0.6c-0.5-0.2-0.9-0.5-1.4-0.7c-0.5-0.2-1-0.5-1.5-0.7
					c-0.5-0.3-1.1-0.5-1.6-0.8c-0.5-0.3-1.1-0.5-1.6-0.8c-0.4-0.2-0.7-0.3-1.1-0.5l7.7-2.4l-8.7,2c-0.3-0.2-0.7-0.3-1-0.5
					c-0.1-0.1-0.2-0.1-0.4-0.2l4.8-5.4l-5.4,5.1c-0.1,0-0.2-0.1-0.3-0.1c-0.4-0.2-0.8-0.4-1.1-0.5c-0.3-0.1-0.5-0.2-0.7-0.3
					c0,0.1,0,0.3,0.1,0.4c-0.1,0.1-0.2,0.1-0.4,0.2c0.2,0.1,0.4,0.2,0.7,0.3c0.3,0.2,0.7,0.3,1.1,0.5c0.1,0,0.2,0.1,0.3,0.1
					l-0.4,7.5L205,516.5z"/>
			</g>
		</g>
		<g>
			<path class="st6" d="M188.8,489.2c-1,0.2-1.1-1-1.1-1c1-0.9,1.7-1.5,2-1.7c0.3-0.2,0.5-0.4,0.5-0.4c0.1-0.1,0.3-0.2,0.3-0.2
				c0.7-0.3,1.6-0.6,2.7-0.7c1.6-0.2,3.2,0,4.3,0.3l-0.1,1C193.3,484.8,189.1,488.2,188.8,489.2z"/>
			<g>
				<path class="st7" d="M205.6,497.4c0.2-0.2,0.3-0.4,0.3-0.7c0-0.1,0.1-1.1,0.1-2.5c3.3-0.5,6.8-2,7-2.1c0.2-0.1,0.4-0.3,0.5-0.5
					c0.1-0.2,0.1-0.5,0-0.7c0-0.1-0.5-1.1-1.3-2.4c3.6-2,6.9-6.7,7.1-7c0.1-0.2,0.2-0.5,0.2-0.7c0-0.3-0.2-0.5-0.4-0.6
					c-0.2-0.1-5.1-3.3-9.1-3.9c0.3-1.5,0.4-2.7,0.4-2.7c0-0.3-0.1-0.5-0.2-0.7c-0.2-0.2-0.4-0.3-0.7-0.3c-0.2,0-4-0.2-7.2,0.6
					c-0.5-1.3-1-2.3-1-2.3c-0.1-0.2-0.3-0.4-0.6-0.5c-0.2-0.1-0.5-0.1-0.7,0.1c-0.1,0-1.7,0.9-3.5,2.2c-2.5,1.8-4.1,3.6-4.6,5.2
					c-0.5,1.4-0.6,2.9-0.3,4.3c0.3,1.5,0.9,2.7,1.9,3.6c-0.6,1.2-0.7,2.6-0.4,4l0,0c0.3,1.4,0.9,2.8,1.9,3.9
					c1.1,1.3,3.2,2.4,6.2,3.2c2.2,0.6,4,0.8,4.1,0.8C205.1,497.6,205.4,497.6,205.6,497.4z"/>
				<path class="st8" d="M205.6,497.4c0.2-0.2,0.3-0.4,0.3-0.7c0-0.1,0.1-1.1,0.1-2.5c3.3-0.5,6.8-2,7-2.1c0.2-0.1,0.4-0.3,0.5-0.5
					c0.1-0.2,0.1-0.5,0-0.7c0-0.1-0.5-1.1-1.3-2.4c3.6-2,6.9-6.7,7.1-7c0.1-0.2,0.2-0.5,0.2-0.7l-26.2,4.9c-0.6,1.2-0.7,2.6-0.4,4
					l0,0c0.3,1.4,0.9,2.8,1.9,3.9c1.1,1.3,3.2,2.4,6.2,3.2c2.2,0.6,4,0.8,4.1,0.8C205.1,497.6,205.4,497.6,205.6,497.4z"/>
				<g>
					<path class="st9" d="M211.3,476.6c-0.5-0.1-1.5-0.3-1.5-0.3s-0.5,2.7-1.4,4.3L211.3,476.6z"/>
					<path class="st9" d="M202.9,472.9c-0.3,0.1-0.9,0.2-0.9,0.2s0.5,1.3,1,3.2C203.1,476.2,203.1,474.2,202.9,472.9z"/>
				</g>
				<g>
					<path class="st10" d="M213.4,487.6c-0.4,0.3-1.3,0.8-1.3,0.8s-1.4-2.3-2.9-3.5L213.4,487.6z"/>
					<path class="st10" d="M206.9,494.1c-0.3,0.1-0.9,0.1-0.9,0.1s0-1.4-0.2-3.3C205.8,490.9,206.5,492.8,206.9,494.1z"/>
				</g>
				<path class="st6" d="M196.9,485.5c0.2,0,0.3-0.1,0.5-0.1c0.5-0.1,1-0.2,1.5-0.3l10.7,5.5l-9.3-5.8c0.5-0.1,1-0.2,1.6-0.3
					c0.8-0.2,1.6-0.3,2.3-0.5c0.8-0.2,1.6-0.3,2.3-0.5c0.8-0.2,1.5-0.3,2.3-0.5c0.7-0.2,1.4-0.3,2.1-0.4c0.7-0.1,1.3-0.3,1.9-0.4
					c0.3-0.1,0.6-0.1,0.8-0.2c0.3-0.1,0.5-0.1,0.8-0.2c0.2-0.1,0.5-0.1,0.7-0.2c0.2-0.1,0.4-0.1,0.6-0.1c0.3-0.1,0.6-0.2,0.8-0.2
					c0.2-0.1,0.3-0.1,0.3-0.1s-0.1,0-0.3,0c-0.2,0-0.5,0-0.8,0.1c-0.2,0-0.4,0-0.6,0.1c-0.2,0-0.4,0.1-0.7,0.1
					c-0.2,0-0.5,0.1-0.8,0.1c-0.3,0-0.6,0.1-0.9,0.1c-0.6,0.1-1.2,0.2-1.9,0.3c-0.7,0.1-1.4,0.2-2.1,0.4c-0.7,0.1-1.5,0.3-2.3,0.4
					c-0.8,0.1-1.6,0.3-2.4,0.4c-0.8,0.1-1.6,0.3-2.4,0.4c-0.5,0.1-1.1,0.2-1.6,0.3l6.6-8.7l-8,9c-0.5,0.1-1,0.2-1.5,0.3
					c-0.2,0-0.3,0.1-0.5,0.1l1-9.8l-2,9.9c-0.2,0-0.3,0.1-0.5,0.1c-0.6,0.1-1.1,0.2-1.6,0.3c-0.4,0.1-0.7,0.1-1,0.2
					c0.1,0.1,0.3,0.3,0.4,0.4c-0.1,0.2-0.2,0.3-0.2,0.5c0.3-0.1,0.6-0.1,1-0.2c0.5-0.1,1-0.2,1.6-0.3c0.1,0,0.3-0.1,0.5-0.1l5.4,8.5
					L196.9,485.5z"/>
			</g>
		</g>
		<g>
			<path class="st6" d="M190,445.9c0.6-0.4,1,0.4,1,0.4c-0.5,0.8-0.8,1.4-1,1.7c-0.1,0.2-0.2,0.4-0.3,0.4c-0.1,0.1-0.1,0.2-0.2,0.2
				c-0.4,0.4-1,0.8-1.7,1.2c-1.1,0.5-2.2,0.7-3.1,0.8l-0.2-0.7C187.9,450,190,446.6,190,445.9z"/>
			<g>
				<path class="st7" d="M176.3,444.1c-0.1,0.2-0.1,0.4-0.1,0.5c0,0,0.2,0.8,0.5,1.8c-2.2,1.1-4.3,3-4.4,3.1
					c-0.1,0.1-0.2,0.3-0.2,0.5c0,0.2,0.1,0.4,0.2,0.5c0,0,0.6,0.6,1.5,1.4c-2,2.3-3.3,6.4-3.3,6.6c-0.1,0.2,0,0.4,0.1,0.5
					c0.1,0.2,0.2,0.3,0.4,0.3c0.2,0.1,4.3,1.1,7.3,0.6c0.2,1.1,0.4,2,0.4,2c0,0.2,0.2,0.3,0.3,0.4c0.2,0.1,0.4,0.1,0.5,0.1
					c0.1,0,2.8-0.8,4.9-2.1c0.7,0.8,1.2,1.4,1.2,1.4c0.1,0.1,0.3,0.2,0.5,0.2c0.2,0,0.4-0.1,0.5-0.2c0,0,1-1,2-2.4
					c1.3-1.9,2-3.5,2-4.8c0-1.1-0.3-2.2-0.8-3.1c-0.5-1-1.3-1.7-2.2-2.1c0.1-0.9-0.1-2-0.6-2.9l0,0c-0.5-0.9-1.3-1.7-2.2-2.3
					c-1.1-0.7-2.8-0.9-5.1-0.8c-1.7,0.1-3,0.4-3.1,0.4C176.6,443.8,176.4,443.9,176.3,444.1z"/>
				<path class="st8" d="M176.3,444.1c-0.1,0.2-0.1,0.4-0.1,0.5c0,0,0.2,0.8,0.5,1.8c-2.2,1.1-4.3,3-4.4,3.1
					c-0.1,0.1-0.2,0.3-0.2,0.5c0,0.2,0.1,0.4,0.2,0.5c0,0,0.6,0.6,1.5,1.4c-2,2.3-3.3,6.4-3.3,6.6c-0.1,0.2,0,0.4,0.1,0.5l17.2-9.7
					c0.1-0.9-0.1-2-0.6-2.9l0,0c-0.5-0.9-1.3-1.7-2.2-2.3c-1.1-0.7-2.8-0.9-5.1-0.8c-1.7,0.1-3,0.4-3.1,0.4
					C176.6,443.8,176.4,443.9,176.3,444.1z"/>
				<g>
					<path class="st9" d="M177.3,460.1c0.4,0,1.1-0.1,1.1-0.1s-0.3-2,0-3.3L177.3,460.1z"/>
					<path class="st9" d="M184,460.7c0.2-0.1,0.6-0.3,0.6-0.3s-0.7-0.8-1.5-2C183.1,458.3,183.6,459.7,184,460.7z"/>
				</g>
				<g>
					<path class="st10" d="M173.2,452.8c0.2-0.3,0.7-0.9,0.7-0.9s1.5,1.3,2.8,1.7L173.2,452.8z"/>
					<path class="st10" d="M176.2,446.7c0.2-0.1,0.6-0.3,0.6-0.3s0.3,1,0.9,2.3C177.7,448.7,176.7,447.6,176.2,446.7z"/>
				</g>
				<path class="st6" d="M185.2,450.4c-0.1,0.1-0.2,0.1-0.3,0.2c-0.3,0.2-0.6,0.4-1,0.6l-8.8-1.3l7.9,1.8c-0.3,0.2-0.7,0.4-1,0.6
					c-0.5,0.3-1,0.6-1.5,0.9c-0.5,0.3-1,0.6-1.5,0.9c-0.5,0.3-1,0.6-1.5,0.9c-0.5,0.3-0.9,0.6-1.4,0.8c-0.4,0.3-0.8,0.5-1.2,0.7
					c-0.2,0.1-0.4,0.2-0.5,0.3c-0.2,0.1-0.3,0.2-0.5,0.3c-0.2,0.1-0.3,0.2-0.4,0.3c-0.1,0.1-0.3,0.2-0.4,0.2
					c-0.2,0.1-0.4,0.3-0.5,0.3c-0.1,0.1-0.2,0.1-0.2,0.1s0.1,0,0.2-0.1c0.1-0.1,0.3-0.1,0.5-0.3c0.1-0.1,0.2-0.1,0.4-0.2
					c0.1-0.1,0.3-0.1,0.5-0.2c0.2-0.1,0.3-0.2,0.5-0.3c0.2-0.1,0.4-0.2,0.6-0.3c0.4-0.2,0.8-0.4,1.3-0.7c0.5-0.2,0.9-0.5,1.4-0.8
					c0.5-0.3,1-0.5,1.5-0.8c0.5-0.3,1-0.6,1.6-0.8c0.5-0.3,1-0.6,1.6-0.8c0.3-0.2,0.7-0.4,1-0.6l-2.5,7.7l3.4-8.2
					c0.3-0.2,0.7-0.4,1-0.5c0.1-0.1,0.2-0.1,0.3-0.2l1.6,7.1l-1-7.4c0.1-0.1,0.2-0.1,0.3-0.2c0.4-0.2,0.7-0.4,1.1-0.6
					c0.2-0.1,0.5-0.3,0.7-0.4c-0.1-0.1-0.2-0.1-0.4-0.2c0-0.1,0-0.3,0-0.4c-0.2,0.1-0.4,0.2-0.7,0.4c-0.3,0.2-0.7,0.4-1.1,0.6
					c-0.1,0.1-0.2,0.1-0.3,0.2l-5.8-4.7L185.2,450.4z"/>
			</g>
		</g>
	</g>
</g>
<g>
	<g>
		<g>
			<path class="st6" d="M36.2,551.3c-0.6,0.4-1-0.4-1-0.4c0.5-0.8,0.8-1.5,1-1.7c0.1-0.2,0.2-0.4,0.3-0.4c0.1-0.1,0.1-0.2,0.2-0.2
				c0.4-0.4,1-0.8,1.7-1.2c1.1-0.6,2.2-0.8,3.1-0.9l0.2,0.7C38.3,547.1,36.2,550.5,36.2,551.3z"/>
			<g>
				<path class="st7" d="M50.1,552.9c0.1-0.2,0.1-0.4,0.1-0.5c0,0-0.2-0.8-0.6-1.8c2.2-1.2,4.3-3.1,4.4-3.2c0.1-0.1,0.2-0.3,0.2-0.5
					c0-0.2-0.1-0.4-0.2-0.5c0,0-0.6-0.6-1.5-1.4c2-2.3,3.2-6.5,3.3-6.7c0.1-0.2,0-0.4-0.1-0.5c-0.1-0.2-0.3-0.3-0.4-0.3
					c-0.2,0-4.4-1.1-7.4-0.5c-0.2-1.1-0.4-2-0.4-2c0-0.2-0.2-0.3-0.3-0.4c-0.2-0.1-0.4-0.1-0.5-0.1c-0.1,0-2.9,0.8-5,2.2
					c-0.7-0.8-1.2-1.4-1.3-1.4c-0.1-0.1-0.3-0.2-0.5-0.2c-0.2,0-0.4,0.1-0.5,0.2c0,0-1,1.1-1.9,2.5c-1.3,1.9-2,3.6-2,4.8
					c0,1.1,0.3,2.2,0.9,3.1c0.6,1,1.3,1.7,2.2,2.1c-0.1,1,0.1,2,0.7,2.9l0,0c0.5,0.9,1.3,1.7,2.3,2.3c1.1,0.7,2.8,0.9,5.2,0.7
					c1.7-0.1,3-0.5,3.1-0.5C49.8,553.2,50,553.1,50.1,552.9z"/>
				<path class="st8" d="M50.1,552.9c0.1-0.2,0.1-0.4,0.1-0.5c0,0-0.2-0.8-0.6-1.8c2.2-1.2,4.3-3.1,4.4-3.2c0.1-0.1,0.2-0.3,0.2-0.5
					c0-0.2-0.1-0.4-0.2-0.5c0,0-0.6-0.6-1.5-1.4c2-2.3,3.2-6.5,3.3-6.7c0.1-0.2,0-0.4-0.1-0.5l-17.2,10c-0.1,1,0.1,2,0.7,2.9l0,0
					c0.5,0.9,1.3,1.7,2.3,2.3c1.1,0.7,2.8,0.9,5.2,0.7c1.7-0.1,3-0.5,3.1-0.5C49.8,553.2,50,553.1,50.1,552.9z"/>
				<g>
					<path class="st9" d="M48.9,536.8c-0.4,0-1.1,0.2-1.1,0.2s0.3,2,0.1,3.4L48.9,536.8z"/>
					<path class="st9" d="M42.1,536.3c-0.2,0.1-0.6,0.4-0.6,0.4s0.7,0.8,1.5,2C43,538.6,42.5,537.2,42.1,536.3z"/>
				</g>
				<g>
					<path class="st10" d="M53.1,544.1c-0.2,0.3-0.7,0.9-0.7,0.9s-1.6-1.3-2.9-1.7L53.1,544.1z"/>
					<path class="st10" d="M50.2,550.3c-0.2,0.1-0.6,0.3-0.6,0.3s-0.4-1-0.9-2.3C48.6,548.3,49.6,549.4,50.2,550.3z"/>
				</g>
				<path class="st6" d="M41,546.7c0.1-0.1,0.2-0.1,0.3-0.2c0.3-0.2,0.6-0.4,1-0.6l8.9,1.2l-8-1.7c0.3-0.2,0.7-0.4,1-0.6
					c0.5-0.3,1-0.6,1.5-0.9c0.5-0.3,1-0.6,1.5-0.9c0.5-0.3,1-0.6,1.5-0.9c0.5-0.3,0.9-0.6,1.4-0.8c0.4-0.3,0.9-0.5,1.2-0.8
					c0.2-0.1,0.4-0.2,0.5-0.3c0.2-0.1,0.3-0.2,0.5-0.3c0.2-0.1,0.3-0.2,0.4-0.3c0.1-0.1,0.3-0.2,0.4-0.2c0.2-0.1,0.4-0.3,0.5-0.3
					c0.1-0.1,0.2-0.1,0.2-0.1s-0.1,0-0.2,0.1c-0.1,0.1-0.3,0.1-0.5,0.3c-0.1,0.1-0.2,0.1-0.4,0.2c-0.1,0.1-0.3,0.1-0.5,0.2
					c-0.2,0.1-0.3,0.2-0.5,0.3c-0.2,0.1-0.4,0.2-0.6,0.3c-0.4,0.2-0.8,0.4-1.3,0.7c-0.5,0.2-0.9,0.5-1.4,0.8c-0.5,0.3-1,0.6-1.5,0.8
					c-0.5,0.3-1,0.6-1.6,0.9c-0.5,0.3-1,0.6-1.6,0.9c-0.3,0.2-0.7,0.4-1,0.6l2.5-7.8l-3.4,8.3c-0.3,0.2-0.7,0.4-1,0.6
					c-0.1,0.1-0.2,0.1-0.3,0.2l-1.7-7.1l1.1,7.5c-0.1,0.1-0.2,0.1-0.3,0.2c-0.4,0.2-0.7,0.4-1.1,0.6c-0.2,0.1-0.5,0.3-0.7,0.4
					c0.1,0.1,0.3,0.1,0.4,0.2c0,0.1,0,0.3,0,0.4c0.2-0.1,0.4-0.2,0.7-0.4c0.3-0.2,0.7-0.4,1.1-0.6c0.1-0.1,0.2-0.1,0.3-0.2l6,4.7
					L41,546.7z"/>
			</g>
		</g>
		<g>
			<path class="st6" d="M25.6,600.6c0.7,0.2,0.3,1.1,0.3,1.1c-0.9,0.2-1.6,0.3-1.9,0.3c-0.2,0-0.5,0-0.5,0c-0.1,0-0.2,0-0.3,0
				c-0.6-0.1-1.3-0.3-2-0.6c-1.1-0.5-2-1.2-2.6-1.9l0.4-0.6C21,601.6,25,601.1,25.6,600.6z"/>
			<g>
				<path class="st7" d="M18.2,588.8c-0.2,0-0.4,0.1-0.5,0.3c0,0-0.5,0.7-1,1.6c-2.3-1-5.1-1.4-5.3-1.4c-0.2,0-0.4,0-0.5,0.1
					c-0.1,0.1-0.2,0.3-0.3,0.5c0,0-0.1,0.9-0.1,2c-3.1-0.1-7.1,1.6-7.2,1.6c-0.2,0.1-0.3,0.2-0.4,0.4c-0.1,0.2-0.1,0.4,0,0.6
					c0.1,0.2,1.9,4.1,4.3,6.1c-0.8,0.9-1.3,1.5-1.3,1.6c-0.1,0.2-0.2,0.3-0.1,0.5c0,0.2,0.1,0.4,0.3,0.5c0.1,0.1,2.4,1.7,4.8,2.5
					c-0.2,1.1-0.3,1.8-0.3,1.9c0,0.2,0,0.4,0.2,0.5c0.1,0.1,0.3,0.2,0.5,0.2c0.1,0,1.5,0.1,3.1,0c2.3-0.2,4-0.7,5-1.5
					c0.9-0.7,1.5-1.6,1.9-2.6c0.4-1,0.5-2.1,0.2-3c0.8-0.5,1.5-1.3,1.9-2.4l0,0c0.4-1,0.5-2.1,0.4-3.2c-0.2-1.3-1.1-2.8-2.7-4.5
					c-1.2-1.2-2.3-2.1-2.3-2.1C18.5,588.8,18.3,588.7,18.2,588.8z"/>
				<path class="st8" d="M18.2,588.8c-0.2,0-0.4,0.1-0.5,0.3c0,0-0.5,0.7-1,1.6c-2.3-1-5.1-1.4-5.3-1.4c-0.2,0-0.4,0-0.5,0.1
					c-0.1,0.1-0.2,0.3-0.3,0.5c0,0-0.1,0.9-0.1,2c-3.1-0.1-7.1,1.6-7.2,1.6c-0.2,0.1-0.3,0.2-0.4,0.4l18.6,7.2
					c0.8-0.5,1.5-1.3,1.9-2.4l0,0c0.4-1,0.5-2.1,0.4-3.2c-0.2-1.3-1.1-2.8-2.7-4.5c-1.2-1.2-2.3-2.1-2.3-2.1
					C18.5,588.8,18.3,588.7,18.2,588.8z"/>
				<g>
					<path class="st9" d="M6.3,599.8c0.3,0.3,0.8,0.8,0.8,0.8s1.4-1.5,2.6-2.2L6.3,599.8z"/>
					<path class="st9" d="M10.2,605.4c0.2,0.1,0.6,0.2,0.6,0.2s0.2-1.1,0.6-2.4C11.4,603.2,10.6,604.5,10.2,605.4z"/>
				</g>
				<g>
					<path class="st10" d="M9.3,591.9c0.4,0,1.2,0,1.2,0s0,2,0.5,3.3L9.3,591.9z"/>
					<path class="st10" d="M16,590.4c0.2,0.1,0.6,0.3,0.6,0.3s-0.6,0.9-1.2,2.2C15.4,592.8,15.7,591.3,16,590.4z"/>
				</g>
				<path class="st6" d="M19,599.8c-0.1,0-0.2-0.1-0.4-0.1c-0.3-0.1-0.7-0.3-1.1-0.4l-4.6-7.7l3.7,7.3c-0.4-0.1-0.7-0.3-1.1-0.4
					c-0.6-0.2-1.1-0.4-1.7-0.6c-0.6-0.2-1.1-0.4-1.7-0.6c-0.6-0.2-1.1-0.4-1.6-0.6c-0.5-0.2-1-0.4-1.5-0.6c-0.5-0.2-0.9-0.3-1.4-0.5
					c-0.2-0.1-0.4-0.1-0.6-0.2c-0.2-0.1-0.4-0.1-0.6-0.2c-0.2-0.1-0.3-0.1-0.5-0.2c-0.2,0-0.3-0.1-0.4-0.1c-0.3-0.1-0.4-0.1-0.6-0.2
					c-0.1,0-0.2-0.1-0.2-0.1s0.1,0,0.2,0.1c0.1,0.1,0.3,0.2,0.6,0.3c0.1,0.1,0.3,0.1,0.4,0.2c0.1,0.1,0.3,0.1,0.5,0.2
					c0.2,0.1,0.3,0.2,0.5,0.2c0.2,0.1,0.4,0.2,0.6,0.3c0.4,0.2,0.9,0.4,1.3,0.6c0.5,0.2,1,0.4,1.5,0.6c0.5,0.2,1.1,0.4,1.6,0.6
					c0.5,0.2,1.1,0.4,1.7,0.7c0.6,0.2,1.1,0.4,1.7,0.7c0.4,0.1,0.7,0.3,1.1,0.4l-7.6,3l8.6-2.6c0.4,0.1,0.7,0.3,1.1,0.4
					c0.1,0,0.2,0.1,0.4,0.1l-4.5,5.8l5.1-5.5c0.1,0,0.2,0.1,0.3,0.1c0.4,0.2,0.8,0.3,1.1,0.4c0.3,0.1,0.5,0.2,0.7,0.3
					c0-0.1-0.1-0.3-0.1-0.4c0.1-0.1,0.2-0.2,0.3-0.3c-0.2-0.1-0.5-0.2-0.7-0.3c-0.3-0.1-0.7-0.3-1.1-0.4c-0.1,0-0.2-0.1-0.3-0.1
					l-0.1-7.6L19,599.8z"/>
			</g>
		</g>
		<g>
			<path class="st11" d="M35.1,640.5c0,0,6.2-15.2,2.8-40.1c-2.2-16.1-8.8-23.3-9.9-23.9c-0.2-0.1-0.8-0.4-1.8-1.5
				c-0.6-0.8-1.1-1.5-1.5-2.2c-1-1.9-4-8.2-5.4-19.5c-0.4-3-0.9-9.2-0.3-19.5c0.2-4,2.2-39.8,8-39.9c1.5,0.1,3.1,2.1,3.3,4.4
				c0.5,5.9-8,20.9-13.4,10c-2.7-5.4-4-15.7-3.2-25.7"/>
			<path class="st12" d="M28.1,645.5l-2.2,0c-1.3,0-2.4-1.2-2.4-2.5l1-62.2l1.5-96.9c0-1.3,1.2-2.4,2.5-2.4l2.2,0
				c1.3,0,2.4,1.2,2.4,2.5l-2.6,159.2C30.5,644.4,29.4,645.5,28.1,645.5z"/>
			<path class="st11" d="M21.3,629.2c10.7,0.9,18.4-1.5,18.7-6.3c0.3-2.6-1.6-7.2-3.9-9.9c-1.3-1.5-2.5-2.4-3.3-2.8
				c-1.7-1.1-6-4.3-8.9-11.5c-5.3-13.1-0.9-26.9-0.6-27.9c0,0,0.5-1.7,1.5-3.3c1.7-2.8,10.7-10.3,11.4-15.4
				c0.8-6.1-10.4-7.2-13-15.8c-3.1-10.1,9.8-17.1,12.5-34.1c1.5-9.2-0.7-17.2-2.6-22.2"/>
		</g>
		<g>
			<path class="st6" d="M31.5,607.1c-0.7-0.3-0.2-1.1-0.2-1.1c0.9-0.1,1.7-0.2,1.9-0.2c0.2,0,0.5,0,0.5,0c0.1,0,0.2,0,0.3,0
				c0.6,0.1,1.2,0.3,2,0.7c1.1,0.6,1.9,1.4,2.5,2l-0.5,0.6C36.2,606.4,32.1,606.6,31.5,607.1z"/>
			<g>
				<path class="st7" d="M38.1,619.4c0.2,0,0.4-0.1,0.5-0.2c0,0,0.5-0.6,1.1-1.5c2.2,1.2,5,1.7,5.1,1.7c0.2,0,0.4,0,0.5-0.1
					c0.2-0.1,0.3-0.3,0.3-0.5c0,0,0.1-0.9,0.2-2c3,0.3,7.1-1.1,7.3-1.2c0.2-0.1,0.3-0.2,0.4-0.4c0.1-0.2,0.1-0.4,0-0.6
					c-0.1-0.2-1.6-4.2-3.8-6.3c0.8-0.8,1.4-1.5,1.4-1.5c0.1-0.1,0.2-0.3,0.2-0.5c0-0.2-0.1-0.4-0.3-0.5c-0.1-0.1-2.3-1.9-4.7-2.8
					c0.3-1,0.4-1.8,0.4-1.8c0-0.2,0-0.4-0.1-0.5c-0.1-0.2-0.3-0.3-0.5-0.3c-0.1,0-1.4-0.2-3.1-0.2c-2.3,0-4,0.4-5.1,1.2
					c-0.9,0.7-1.6,1.5-2.1,2.5c-0.5,1-0.6,2-0.4,3c-0.8,0.5-1.5,1.2-2,2.2l0,0c-0.4,1-0.6,2.1-0.6,3.2c0.1,1.3,0.9,2.8,2.4,4.6
					c1.1,1.3,2.1,2.2,2.2,2.3C37.8,619.3,37.9,619.4,38.1,619.4z"/>
				<path class="st8" d="M38.1,619.4c0.2,0,0.4-0.1,0.5-0.2c0,0,0.5-0.6,1.1-1.5c2.2,1.2,5,1.7,5.1,1.7c0.2,0,0.4,0,0.5-0.1
					c0.2-0.1,0.3-0.3,0.3-0.5c0,0,0.1-0.9,0.2-2c3,0.3,7.1-1.1,7.3-1.2c0.2-0.1,0.3-0.2,0.4-0.4l-18.1-8.4c-0.8,0.5-1.5,1.2-2,2.2
					l0,0c-0.4,1-0.6,2.1-0.6,3.2c0.1,1.3,0.9,2.8,2.4,4.6c1.1,1.3,2.1,2.2,2.2,2.3C37.8,619.3,37.9,619.4,38.1,619.4z"/>
				<g>
					<path class="st9" d="M50.7,609.2c-0.3-0.3-0.8-0.9-0.8-0.9s-1.4,1.4-2.7,2L50.7,609.2z"/>
					<path class="st9" d="M47.2,603.3c-0.2-0.1-0.6-0.3-0.6-0.3s-0.3,1-0.7,2.4C45.8,605.4,46.7,604.2,47.2,603.3z"/>
				</g>
				<g>
					<path class="st10" d="M47.1,616.8c-0.4,0-1.2,0-1.2,0s0.1-2-0.2-3.3L47.1,616.8z"/>
					<path class="st10" d="M40.4,617.9c-0.2-0.1-0.6-0.3-0.6-0.3s0.6-0.9,1.3-2.1C41.1,615.5,40.7,617,40.4,617.9z"/>
				</g>
				<path class="st6" d="M38.1,608.3c0.1,0.1,0.2,0.1,0.4,0.2c0.3,0.2,0.7,0.3,1,0.5l4.1,8l-3.2-7.6c0.4,0.2,0.7,0.3,1.1,0.5
					c0.5,0.2,1.1,0.5,1.6,0.7c0.5,0.2,1.1,0.5,1.6,0.7c0.5,0.2,1.1,0.5,1.6,0.7c0.5,0.2,1,0.4,1.5,0.7c0.5,0.2,0.9,0.4,1.3,0.6
					c0.2,0.1,0.4,0.2,0.6,0.2c0.2,0.1,0.4,0.2,0.5,0.2c0.2,0.1,0.3,0.1,0.5,0.2c0.1,0.1,0.3,0.1,0.4,0.2c0.2,0.1,0.4,0.2,0.6,0.2
					c0.1,0,0.2,0.1,0.2,0.1s-0.1,0-0.2-0.1c-0.1-0.1-0.3-0.2-0.5-0.3c-0.1-0.1-0.2-0.1-0.4-0.2c-0.1-0.1-0.3-0.2-0.5-0.2
					c-0.2-0.1-0.3-0.2-0.5-0.3c-0.2-0.1-0.4-0.2-0.6-0.3c-0.4-0.2-0.8-0.4-1.3-0.6c-0.5-0.2-0.9-0.5-1.5-0.7c-0.5-0.2-1-0.5-1.6-0.8
					c-0.5-0.3-1.1-0.5-1.6-0.8c-0.5-0.3-1.1-0.5-1.6-0.8c-0.4-0.2-0.7-0.3-1.1-0.5l7.8-2.5l-8.7,2c-0.4-0.2-0.7-0.3-1-0.5
					c-0.1-0.1-0.2-0.1-0.4-0.2l4.9-5.5l-5.5,5.2c-0.1,0-0.2-0.1-0.3-0.1c-0.4-0.2-0.8-0.4-1.1-0.5c-0.3-0.1-0.5-0.2-0.7-0.3
					c0,0.1,0,0.3,0.1,0.4c-0.1,0.1-0.2,0.1-0.4,0.2c0.2,0.1,0.4,0.2,0.7,0.3c0.3,0.2,0.7,0.3,1.1,0.5c0.1,0,0.2,0.1,0.3,0.1
					l-0.4,7.6L38.1,608.3z"/>
			</g>
		</g>
		<g>
			<path class="st6" d="M21.7,580.8c-1,0.2-1.1-1-1.1-1c1-0.9,1.7-1.5,2-1.7c0.3-0.2,0.5-0.4,0.5-0.4c0.1-0.1,0.3-0.2,0.3-0.2
				c0.7-0.3,1.6-0.6,2.7-0.7c1.7-0.2,3.2,0,4.4,0.3l-0.1,1C26.2,576.3,22,579.8,21.7,580.8z"/>
			<g>
				<path class="st7" d="M38.6,589.1c0.2-0.2,0.3-0.4,0.3-0.7c0-0.1,0.1-1.1,0.1-2.5c3.4-0.5,6.9-2,7-2.1c0.2-0.1,0.4-0.3,0.5-0.5
					c0.1-0.2,0.1-0.5,0-0.7c0-0.1-0.5-1.1-1.4-2.4c3.6-2,7-6.8,7.2-7c0.1-0.2,0.2-0.5,0.2-0.7c0-0.3-0.2-0.5-0.4-0.6
					c-0.2-0.1-5.1-3.4-9.2-4c0.3-1.5,0.4-2.7,0.4-2.7c0-0.3-0.1-0.5-0.2-0.7c-0.2-0.2-0.4-0.3-0.7-0.3c-0.2,0-4-0.2-7.3,0.6
					c-0.5-1.4-1-2.3-1-2.3c-0.1-0.2-0.3-0.4-0.6-0.5c-0.2-0.1-0.5-0.1-0.7,0.1c-0.1,0-1.7,0.9-3.6,2.2c-2.6,1.9-4.1,3.6-4.7,5.3
					c-0.5,1.5-0.6,3-0.3,4.4c0.3,1.5,0.9,2.7,1.9,3.6c-0.6,1.2-0.7,2.6-0.4,4l0,0c0.3,1.4,0.9,2.8,1.9,4c1.1,1.3,3.2,2.4,6.3,3.2
					c2.2,0.6,4.1,0.8,4.2,0.8C38.1,589.3,38.4,589.3,38.6,589.1z"/>
				<path class="st8" d="M38.6,589.1c0.2-0.2,0.3-0.4,0.3-0.7c0-0.1,0.1-1.1,0.1-2.5c3.4-0.5,6.9-2,7-2.1c0.2-0.1,0.4-0.3,0.5-0.5
					c0.1-0.2,0.1-0.5,0-0.7c0-0.1-0.5-1.1-1.4-2.4c3.6-2,7-6.8,7.2-7c0.1-0.2,0.2-0.5,0.2-0.7L26,577.3c-0.6,1.2-0.7,2.6-0.4,4l0,0
					c0.3,1.4,0.9,2.8,1.9,4c1.1,1.3,3.2,2.4,6.3,3.2c2.2,0.6,4.1,0.8,4.2,0.8C38.1,589.3,38.4,589.3,38.6,589.1z"/>
				<g>
					<path class="st9" d="M44.4,568c-0.5-0.1-1.5-0.3-1.5-0.3s-0.5,2.7-1.4,4.3L44.4,568z"/>
					<path class="st9" d="M35.9,564.3c-0.3,0.1-0.9,0.2-0.9,0.2s0.5,1.4,1.1,3.2C36.1,567.7,36.1,565.7,35.9,564.3z"/>
				</g>
				<g>
					<path class="st10" d="M46.5,579.2c-0.4,0.3-1.3,0.9-1.3,0.9s-1.4-2.3-2.9-3.5L46.5,579.2z"/>
					<path class="st10" d="M39.9,585.7c-0.3,0.1-0.9,0.1-0.9,0.1s0-1.4-0.2-3.4C38.9,582.5,39.6,584.4,39.9,585.7z"/>
				</g>
				<path class="st6" d="M29.9,577c0.2,0,0.3-0.1,0.5-0.1c0.5-0.1,1-0.2,1.5-0.3l10.8,5.6l-9.4-5.8c0.5-0.1,1-0.2,1.6-0.3
					c0.8-0.2,1.6-0.3,2.4-0.5c0.8-0.2,1.6-0.3,2.4-0.5c0.8-0.2,1.5-0.3,2.3-0.5c0.7-0.2,1.5-0.3,2.1-0.4c0.7-0.1,1.3-0.3,1.9-0.4
					c0.3-0.1,0.6-0.1,0.8-0.2c0.3-0.1,0.5-0.1,0.8-0.2c0.2-0.1,0.5-0.1,0.7-0.2c0.2-0.1,0.4-0.1,0.6-0.1c0.3-0.1,0.6-0.2,0.8-0.2
					c0.2-0.1,0.3-0.1,0.3-0.1s-0.1,0-0.3,0c-0.2,0-0.5,0-0.8,0.1c-0.2,0-0.4,0-0.6,0.1c-0.2,0-0.4,0.1-0.7,0.1
					c-0.2,0-0.5,0.1-0.8,0.1c-0.3,0-0.6,0.1-0.9,0.1c-0.6,0.1-1.2,0.2-1.9,0.3c-0.7,0.1-1.4,0.2-2.2,0.4c-0.7,0.1-1.5,0.3-2.3,0.4
					c-0.8,0.1-1.6,0.3-2.4,0.4c-0.8,0.1-1.6,0.3-2.4,0.4c-0.5,0.1-1.1,0.2-1.6,0.3l6.7-8.8l-8,9.1c-0.5,0.1-1,0.2-1.5,0.3
					c-0.2,0-0.3,0.1-0.5,0.1l1-9.9l-2,10c-0.2,0-0.3,0.1-0.5,0.1c-0.6,0.1-1.1,0.2-1.6,0.3c-0.4,0.1-0.7,0.1-1,0.2
					c0.1,0.1,0.3,0.3,0.4,0.4c-0.1,0.2-0.2,0.4-0.2,0.5c0.3-0.1,0.6-0.1,1-0.2c0.5-0.1,1-0.2,1.6-0.3c0.1,0,0.3-0.1,0.5-0.1l5.5,8.6
					L29.9,577z"/>
			</g>
		</g>
		<g>
			<path class="st6" d="M22.9,537c0.6-0.4,1,0.4,1,0.4c-0.5,0.8-0.8,1.4-1,1.7c-0.1,0.2-0.3,0.4-0.3,0.4c-0.1,0.1-0.1,0.2-0.2,0.2
				c-0.4,0.4-1,0.8-1.7,1.2c-1.1,0.5-2.2,0.8-3.1,0.8l-0.2-0.7C20.8,541.2,22.9,537.8,22.9,537z"/>
			<g>
				<path class="st7" d="M9.1,535.2c-0.1,0.2-0.1,0.4-0.1,0.5c0,0,0.2,0.8,0.5,1.8c-2.2,1.1-4.3,3.1-4.4,3.2
					c-0.1,0.1-0.2,0.3-0.2,0.5c0,0.2,0.1,0.4,0.2,0.5c0,0,0.6,0.6,1.5,1.4c-2,2.3-3.3,6.4-3.3,6.6c-0.1,0.2,0,0.4,0.1,0.5
					c0.1,0.2,0.3,0.3,0.4,0.3c0.2,0.1,4.4,1.1,7.4,0.6c0.2,1.1,0.4,2,0.4,2c0,0.2,0.2,0.3,0.3,0.4c0.2,0.1,0.4,0.1,0.5,0.1
					c0.1,0,2.9-0.8,5-2.1c0.7,0.8,1.2,1.4,1.3,1.4c0.1,0.1,0.3,0.2,0.5,0.2c0.2,0,0.4-0.1,0.5-0.2c0,0,1-1.1,2-2.4
					c1.4-1.9,2-3.5,2-4.8c0-1.1-0.3-2.2-0.8-3.2c-0.5-1-1.3-1.7-2.2-2.1c0.1-1-0.1-2-0.7-2.9l0,0c-0.5-0.9-1.3-1.7-2.3-2.3
					c-1.1-0.7-2.8-0.9-5.2-0.8c-1.7,0.1-3,0.4-3.1,0.4C9.3,535,9.2,535.1,9.1,535.2z"/>
				<path class="st8" d="M9.1,535.2c-0.1,0.2-0.1,0.4-0.1,0.5c0,0,0.2,0.8,0.5,1.8c-2.2,1.1-4.3,3.1-4.4,3.2
					c-0.1,0.1-0.2,0.3-0.2,0.5c0,0.2,0.1,0.4,0.2,0.5c0,0,0.6,0.6,1.5,1.4c-2,2.3-3.3,6.4-3.3,6.6c-0.1,0.2,0,0.4,0.1,0.5l17.4-9.8
					c0.1-1-0.1-2-0.7-2.9l0,0c-0.5-0.9-1.3-1.7-2.3-2.3c-1.1-0.7-2.8-0.9-5.2-0.8c-1.7,0.1-3,0.4-3.1,0.4
					C9.3,535,9.2,535.1,9.1,535.2z"/>
				<g>
					<path class="st9" d="M10,551.4c0.4,0,1.1-0.1,1.1-0.1s-0.3-2,0-3.4L10,551.4z"/>
					<path class="st9" d="M16.8,552c0.2-0.1,0.6-0.3,0.6-0.3s-0.7-0.8-1.5-2C15.9,549.6,16.4,551,16.8,552z"/>
				</g>
				<g>
					<path class="st10" d="M5.9,544c0.2-0.3,0.7-0.9,0.7-0.9s1.6,1.3,2.9,1.8L5.9,544z"/>
					<path class="st10" d="M8.9,537.9c0.2-0.1,0.6-0.3,0.6-0.3s0.3,1,0.9,2.3C10.4,539.9,9.5,538.8,8.9,537.9z"/>
				</g>
				<path class="st6" d="M18.1,541.6c-0.1,0.1-0.2,0.1-0.3,0.2c-0.3,0.2-0.6,0.4-1,0.6L7.9,541l8,1.8c-0.3,0.2-0.7,0.4-1,0.6
					c-0.5,0.3-1,0.6-1.5,0.9c-0.5,0.3-1,0.6-1.5,0.9c-0.5,0.3-1,0.6-1.5,0.9c-0.5,0.3-1,0.6-1.4,0.8c-0.4,0.3-0.9,0.5-1.2,0.7
					c-0.2,0.1-0.4,0.2-0.5,0.3c-0.2,0.1-0.3,0.2-0.5,0.3c-0.2,0.1-0.3,0.2-0.4,0.3c-0.1,0.1-0.3,0.2-0.4,0.2
					c-0.2,0.1-0.4,0.3-0.5,0.3c-0.1,0.1-0.2,0.1-0.2,0.1s0.1,0,0.2-0.1c0.1-0.1,0.3-0.1,0.6-0.3c0.1-0.1,0.2-0.1,0.4-0.2
					c0.1-0.1,0.3-0.1,0.5-0.2c0.2-0.1,0.3-0.2,0.5-0.3c0.2-0.1,0.4-0.2,0.6-0.3c0.4-0.2,0.8-0.4,1.3-0.7c0.5-0.2,0.9-0.5,1.4-0.8
					c0.5-0.3,1-0.5,1.5-0.8c0.5-0.3,1-0.6,1.6-0.9c0.5-0.3,1-0.6,1.6-0.9c0.4-0.2,0.7-0.4,1-0.6l-2.6,7.8l3.5-8.3
					c0.3-0.2,0.7-0.4,1-0.5c0.1-0.1,0.2-0.1,0.3-0.2l1.6,7.2l-1-7.5c0.1-0.1,0.2-0.1,0.3-0.2c0.4-0.2,0.7-0.4,1.1-0.6
					c0.3-0.1,0.5-0.3,0.7-0.4c-0.1-0.1-0.3-0.1-0.4-0.2c0-0.1,0-0.3,0-0.4c-0.2,0.1-0.4,0.2-0.7,0.4c-0.3,0.2-0.7,0.4-1.1,0.6
					c-0.1,0.1-0.2,0.1-0.3,0.2l-5.9-4.7L18.1,541.6z"/>
			</g>
		</g>
	</g>
	<g>
		<g>
			<path class="st0" d="M28.2,519.6c3-0.6,6.1-1.1,9.4-1.5c4.3-0.5,8.4-0.8,12.2-1c2.9-1.2,5.8-2.4,8.8-3.6c3.7-1.5,7.4-2.9,11-4.2
				c0.2,0.1,0.7,0.2,1.1,0.8c0.4,0.6,0.4,1.4,0,2c0,0-14.4,5.7-15.2,7.4c-0.2,0.6-0.3,1.3-0.4,2.2c-0.1,1.5,0.1,2.8,0.3,3.7
				c-2,0-3.9,0.1-5.9,0.1c0.1-0.9,0.2-2,0-3.2c-0.1-0.9-0.3-1.6-0.5-2.2c-2.7,0.1-5.5,0.2-8.4,0.5c-4.2,0.3-8.3,0.7-12.2,1.2
				C28.6,521.7,27.6,521,28.2,519.6z"/>
			<defs>
				<filter id="Adobe_OpacityMaskFilter_2_" filterUnits="userSpaceOnUse" x="28" y="509.3" width="43.1" height="16.2">
					
						<feColorMatrix  type="matrix" values="-1 0 0 0 1  0 -1 0 0 1  0 0 -1 0 1  0 0 0 1 0" color-interpolation-filters="sRGB" result="source"/>
					<feFlood  style="flood-color:white;flood-opacity:1" result="back"/>
					<feBlend  in="source" in2="back" mode="normal"/>
				</filter>
			</defs>
			<mask maskUnits="userSpaceOnUse" x="28" y="509.3" width="43.1" height="16.2" id="SVGID_3_">
				<g class="st15">
					
						<rect x="26.7" y="509.1" transform="matrix(0.8185 -0.5745 0.5745 0.8185 -288.4076 119.5468)" class="st2" width="36.7" height="14.1"/>
				</g>
			</mask>
			<path class="st16" d="M28.2,519.6c3-0.6,6.1-1.1,9.4-1.5c4.3-0.5,8.4-0.8,12.2-1c2.9-1.2,5.8-2.4,8.8-3.6c3.7-1.5,7.4-2.9,11-4.2
				c0.2,0.1,0.7,0.2,1.1,0.8c0.4,0.6,0.4,1.4,0,2c0,0-14.4,5.7-15.2,7.4c-0.2,0.6-0.3,1.3-0.4,2.2c-0.1,1.5,0.1,2.8,0.3,3.7
				c-2,0-3.9,0.1-5.9,0.1c0.1-0.9,0.2-2,0-3.2c-0.1-0.9-0.3-1.6-0.5-2.2c-2.7,0.1-5.5,0.2-8.4,0.5c-4.2,0.3-8.3,0.7-12.2,1.2
				C28.6,521.7,27.6,521,28.2,519.6z"/>
		</g>
		<g>
			<path class="st4" d="M52.4,572c-6.3,0-12.2-2.5-16.7-6.9c-4.5-4.5-6.9-10.4-6.9-16.7c0-6.3,2.5-12.2,6.9-16.7
				c4.5-4.5,10.4-6.9,16.7-6.9c6.3,0,12.3,2.5,16.7,6.9c4.5,4.5,6.9,10.4,6.9,16.7c0,6.3-2.5,12.3-6.9,16.7
				C64.7,569.6,58.7,572,52.4,572z"/>
			<path class="st5" d="M32.8,538.6c1.4,0.8,3.6,1.7,6.3,2.2c4,0.6,6.1-0.4,8.4-0.2c2.9,0.2,6.8,2.6,10.9,11.6
				c0.4,0.4,0.9,1,1.3,1.8c0.6,1.1,0.8,2.1,1,2.9c0.5,2.6,0.8,5,1,6.5"/>
			<path class="st5" d="M37.3,532.4c0.8,0.4,1.7,0.8,2.8,1.1c3.6,1,6.7,0.5,8.5,0c3,0.2,5.3,0.5,6.7,0.6c5.8,0.6,6.4,0.7,7.9,0.4
				c0.9-0.2,2.2-0.6,4.1-0.7c1.2-0.1,2.1,0,2.8,0.1"/>
			<path class="st5" d="M39,563.1c0.9,0.4,2.8,1,4.9,0.5c2.2-0.5,3.5-1.9,4.7-3.1c1.6-1.7,1.7-2.6,3.4-4.6c1.6-1.9,2.4-2.9,3.9-3.6
				c1.2-0.6,1.8-0.6,2.3-1.3c0.8-1.3-0.2-2.8-0.2-4.2c0-1.6,1.2-4,6.9-7c0.2,0,2.2,0.3,3.7-1.1c1.5-1.3,1.4-3.1,1.4-3.4"/>
			<path class="st5" d="M29.6,551c0.8,0.3,1.8,0.5,2.5,0c0.6-0.4,0.4-0.9,0.9-1.4c0.7-0.8,1.9-0.5,5.4-0.1c2.6,0.3,3.3,0.2,4-0.2
				c0.7-0.5,0.7-1,1.3-1.8c0.8-1.2,1.6-1.4,3.9-2.9c4.1-2.6,3.8-3.1,5.5-3.6c2.1-0.6,3.6-0.3,3.7-0.8c0.2-0.8-2.6-1.3-2.9-2.9
				c-0.5-2.6,5.3-5.7,6.3-6.3c1.7-1,3.3-1.5,4.3-1.8"/>
			<path class="st5" d="M39.4,544.4c0.8,1,2.1,2.3,4,2.9c2.8,0.9,4.1-0.7,5.8,0.4c2.2,1.4,2.9,6,1.3,8.5c-0.4,0.7-0.8,0.9-0.7,1.4
				c0.2,1.3,3,1.1,6,2.9c1.1,0.7,3.8,2.3,4.2,4.9c0.4,2.2-0.9,4-1.4,4.7"/>
			<path class="st5" d="M31.2,556.8c0.5,0.4,1.7,1.1,3,0.5c1.3-0.6,2.2-2.1,2.9-3.4c1-1.9,1.1-2.8,2.1-5c1-2.1,1.5-3.1,2.4-3.9
				c0.7-0.7,1.1-0.7,1.4-1.4c0.5-1.4-0.1-3-0.1-4.6c0-1.8,0.7-4.3,4.2-7.6c0.1,0,1.3,0.4,2.3-1.2c0.9-1.4,0.9-3.4,0.9-3.7"/>
			<path class="st5" d="M43.7,569.3c0.9,0.4,2.8,1,4.9,0.5c2.2-0.5,3.5-1.9,4.7-3.1c1.6-1.7,1.7-2.6,3.4-4.6
				c1.6-1.9,2.4-2.9,3.9-3.6c1.2-0.6,1.8-0.6,2.3-1.3c0.8-1.3-0.2-2.8-0.2-4.2c0-1.6,1.2-4,6.9-7c0.2,0,2.2,0.3,3.7-1.1
				c1.5-1.3,1.4-3.1,1.4-3.4"/>
			<path class="st5" d="M73.5,541.4c-0.7,1.2-1.4,2.8-1.2,4.7c0.2,2.9,2.1,3.6,1.8,5.5c-0.5,2.5-4.5,4.9-7.5,4.3
				c-0.8-0.1-1.2-0.4-1.6-0.1c-1.1,0.6,0.1,3.1-0.5,6.7c-0.2,1.3-0.7,4.3-3.1,5.7c-1.9,1.1-4.1,0.6-4.9,0.4"/>
			<path class="st5" d="M50.3,525.7c0.8,1,2.1,2.3,4,2.9c2.8,0.9,4.1-0.7,5.8,0.4c2.2,1.4,2.9,6,1.3,8.5c-0.4,0.7-0.8,0.9-0.7,1.4
				c0.2,1.3,3,1.1,6,2.9c1.1,0.7,3.8,2.3,4.2,4.9c0.4,2.2-0.9,4-1.4,4.7"/>
			<path class="st5" d="M42.5,533.5c0.8,1,2.1,2.3,4,2.9c2.8,0.9,4.1-0.7,5.8,0.4c2.2,1.4,2.9,6,1.3,8.5c-0.4,0.7-0.8,0.9-0.7,1.4
				c0.2,1.3,3,1.1,6,2.9c1.1,0.7,3.8,2.3,4.2,4.9c0.4,2.2-0.9,4-1.4,4.7"/>
			<path class="st5" d="M30,546c0.8,1,2.1,2.3,4,2.9c2.8,0.9,4.1-0.7,5.8,0.4c2.2,1.4,2.9,6,1.3,8.5c-0.4,0.7-0.8,0.9-0.7,1.4
				c0.2,1.3,3,1.1,6,2.9c1.1,0.7,3.8,2.3,4.2,4.9c0.4,2.2-0.9,4-1.4,4.7"/>
			<path class="st5" d="M33.1,541.3c0.8,1,2.1,2.3,4,2.9c2.8,0.9,4.1-0.7,5.8,0.4c2.2,1.4,2.9,6,1.3,8.5c-0.4,0.7-0.8,0.9-0.7,1.4
				c0.2,1.3,3,1.1,6,2.9c1.1,0.7,3.8,2.3,4.2,4.9c0.4,2.2-0.9,4-1.4,4.7"/>
			<path class="st5" d="M34.7,535.1c0.8,1,2.1,2.3,4,2.9c2.8,0.9,4.1-0.7,5.8,0.4c2.2,1.4,2.9,6,1.3,8.5c-0.4,0.7-0.8,0.9-0.7,1.4
				c0.2,1.3,3,1.1,6,2.9c1.1,0.7,3.8,2.3,4.2,4.9c0.4,2.2-0.9,4-1.4,4.7"/>
			<path class="st5" d="M48.7,528.8c0.8,1,2.1,2.3,4,2.9c2.8,0.9,4.1-0.7,5.8,0.4c2.2,1.4,2.9,6,1.3,8.5c-0.4,0.7-0.8,0.9-0.7,1.4
				c0.2,1.3,3,1.1,6,2.9c1.1,0.7,3.8,2.3,4.2,4.9c0.4,2.2-0.9,4-1.4,4.7"/>
			<path class="st5" d="M42.5,533.5c0.8,1,2.1,2.3,4,2.9c2.8,0.9,4.1-0.7,5.8,0.4c2.2,1.4,2.9,6,1.3,8.5c-0.4,0.7-0.8,0.9-0.7,1.4
				c0.2,1.3,3,1.1,6,2.9c1.1,0.7,3.8,2.3,4.2,4.9c0.4,2.2-0.9,4-1.4,4.7"/>
			<path class="st5" d="M55,525.7c0.8,1,2.1,2.3,4,2.9c2.8,0.9,4.1-0.7,5.8,0.4c2.2,1.4,2.9,6,1.3,8.5c-0.4,0.7-0.8,0.9-0.7,1.4
				c0.2,1.3,3,1.1,6,2.9c1.1,0.7,3.8,2.3,4.2,4.9c0.4,2.2-0.9,4-1.4,4.7"/>
			<path class="st5" d="M44.1,566.9c-0.5-0.4-1.2-0.8-2.2-1c-1.5-0.3-2.3,0.2-3.2-0.1c-1.2-0.5-1.6-2.1-0.7-3.1
				c0.2-0.2,0.4-0.3,0.4-0.5c-0.1-0.5-1.6-0.4-3.3-1c-0.6-0.2-2.1-0.8-2.3-1.8c-0.2-0.8,0.5-1.4,0.8-1.7"/>
			<path class="st5" d="M44.1,560.7c-0.5-0.4-1.2-0.8-2.2-1c-1.5-0.3-2.3,0.2-3.2-0.1c-1.2-0.5-1.6-2.1-0.7-3.1
				c0.2-0.2,0.4-0.3,0.4-0.5c-0.1-0.5-1.6-0.4-3.3-1c-0.6-0.2-2.1-0.8-2.3-1.8c-0.2-0.8,0.5-1.4,0.8-1.7"/>
			<path class="st5" d="M42.5,551.3c-0.5-0.4-1.2-0.8-2.2-1c-1.5-0.3-2.3,0.2-3.2-0.1c-1.2-0.5-1.6-2.1-0.7-3.1
				c0.2-0.2,0.4-0.3,0.4-0.5c-0.1-0.5-1.6-0.4-3.3-1c-0.6-0.2-2.1-0.8-2.3-1.8c-0.2-0.8,0.5-1.4,0.8-1.7"/>
			<path class="st5" d="M51.9,538.8c-0.5-0.4-1.2-0.8-2.2-1c-1.5-0.3-2.3,0.2-3.2-0.1c-1.2-0.5-1.6-2.1-0.7-3.1
				c0.2-0.2,0.4-0.3,0.4-0.5c-0.1-0.5-1.6-0.4-3.3-1c-0.6-0.2-2.1-0.8-2.3-1.8c-0.2-0.8,0.5-1.4,0.8-1.7"/>
			<path class="st5" d="M72.2,559.1c-0.5-0.4-1.2-0.8-2.2-1c-1.5-0.3-2.3,0.2-3.2-0.1c-1.2-0.5-1.6-2.1-0.7-3.1
				c0.2-0.2,0.4-0.3,0.4-0.5c-0.1-0.5-1.6-0.4-3.3-1c-0.6-0.2-2.1-0.8-2.3-1.8c-0.2-0.8,0.5-1.4,0.8-1.7"/>
			<path class="st5" d="M69.1,563.8c-0.5-0.4-1.2-0.8-2.2-1c-1.5-0.3-2.3,0.2-3.2-0.1c-1.2-0.5-1.6-2.1-0.7-3.1
				c0.2-0.2,0.4-0.3,0.4-0.5c-0.1-0.5-1.6-0.4-3.3-1c-0.6-0.2-2.1-0.8-2.3-1.8c-0.2-0.8,0.5-1.4,0.8-1.7"/>
			<path class="st5" d="M59.7,570.1c-0.5-0.4-1.2-0.8-2.2-1c-1.5-0.3-2.3,0.2-3.2-0.1c-1.2-0.5-1.6-2.1-0.7-3.1
				c0.2-0.2,0.4-0.3,0.4-0.5c-0.1-0.5-1.6-0.4-3.3-1c-0.6-0.2-2.1-0.8-2.3-1.8c-0.2-0.8,0.5-1.4,0.8-1.7"/>
			<path class="st5" d="M35.9,559.9c0.7,0.4,2.3,1.1,4.1,0.5c1.8-0.6,2.9-2.1,3.9-3.4c1.4-1.9,1.4-2.8,2.8-5c1.3-2.1,2-3.1,3.2-3.9
				c1-0.7,1.5-0.7,1.9-1.4c0.7-1.4-0.2-3-0.2-4.6c0-1.8,1-4.3,5.7-7.6c0.2,0,1.8,0.4,3.1-1.2c1.2-1.4,1.2-3.4,1.2-3.7"/>
			<path class="st5" d="M48.4,566.1c0.5,0.4,1.7,1.1,3,0.5c1.3-0.6,2.2-2.1,2.9-3.4c1-1.9,1.1-2.8,2.1-5c1-2.1,1.5-3.1,2.4-3.9
				c0.7-0.7,1.1-0.7,1.4-1.4c0.5-1.4-0.1-3-0.1-4.6c0-1.8,0.7-4.3,4.2-7.6c0.1,0,1.3,0.4,2.3-1.2c0.9-1.4,0.9-3.4,0.9-3.7"/>
			<path class="st5" d="M43.7,563c0.5,0.4,1.7,1.1,3,0.5c1.3-0.6,2.2-2.1,2.9-3.4c1-1.9,1.1-2.8,2.1-5c1-2.1,1.5-3.1,2.4-3.9
				c0.7-0.7,1.1-0.7,1.4-1.4c0.5-1.4-0.1-3-0.1-4.6c0-1.8,0.7-4.3,4.2-7.6c0.1,0,1.3,0.4,2.3-1.2c0.9-1.4,0.9-3.4,0.9-3.7"/>
			<path class="st5" d="M35.9,559.9c0.5,0.4,1.7,1.1,3,0.5c1.3-0.6,2.2-2.1,2.9-3.4c1-1.9,1.1-2.8,2.1-5c1-2.1,1.5-3.1,2.4-3.9
				c0.7-0.7,1.1-0.7,1.4-1.4c0.5-1.4-0.1-3-0.1-4.6c0-1.8,0.7-4.3,4.2-7.6c0.1,0,1.3,0.4,2.3-1.2c0.9-1.4,0.9-3.4,0.9-3.7"/>
			<path class="st5" d="M42.1,566.2c0.9,0.4,2.8,1,4.9,0.5c2.2-0.5,3.5-1.9,4.7-3.1c1.6-1.7,1.7-2.6,3.4-4.6
				c1.6-1.9,2.4-2.9,3.9-3.6c1.2-0.6,1.8-0.6,2.3-1.3c0.8-1.3-0.2-2.8-0.2-4.2c0-1.6,1.2-4,6.9-7c0.2,0,2.2,0.3,3.7-1.1
				c1.5-1.3,1.4-3.1,1.4-3.4"/>
			<path class="st5" d="M73.7,556c-0.5-0.4-1.2-0.8-2.2-1c-1.5-0.3-2.3,0.2-3.2-0.1c-1.2-0.5-1.6-2.1-0.7-3.1
				c0.2-0.2,0.4-0.3,0.4-0.5c-0.1-0.5-1.6-0.4-3.3-1c-0.6-0.2-2.1-0.8-2.3-1.8c-0.2-0.8,0.5-1.4,0.8-1.7"/>
			<path class="st5" d="M55,535.7c-0.5-0.4-1.2-0.8-2.2-1c-1.5-0.3-2.3,0.2-3.2-0.1c-1.2-0.5-1.6-2.1-0.7-3.1
				c0.2-0.2,0.4-0.3,0.4-0.5c-0.1-0.5-1.6-0.4-3.3-1c-0.6-0.2-2.1-0.8-2.3-1.8c-0.2-0.8,0.5-1.4,0.8-1.7"/>
			<path class="st5" d="M33.4,543.8c0.3-0.5,0.6-1.3,0.6-2.3c0-1.5-0.7-2.2-0.5-3.1c0.3-1.3,1.8-2,2.9-1.3c0.3,0.2,0.4,0.4,0.6,0.3
				c0.4-0.2,0.1-1.7,0.4-3.4c0.1-0.7,0.4-2.2,1.3-2.6c0.7-0.3,1.5,0.2,1.8,0.4"/>
			<path class="st5" d="M35.3,544.5c0.4-0.5,0.8-1.2,1.1-2.2c0.3-1.5-0.2-2.3,0.1-3.2c0.5-1.2,2.2-1.6,3.1-0.7
				c0.2,0.2,0.3,0.4,0.5,0.4c0.5-0.1,0.4-1.6,1.1-3.3c0.2-0.6,0.8-2.1,1.8-2.3c0.8-0.2,1.4,0.5,1.7,0.8"/>
			<path class="st5" d="M36.9,549.2c0.4-0.5,0.8-1.2,1.1-2.2c0.3-1.5-0.2-2.3,0.1-3.2c0.5-1.2,2.2-1.6,3.1-0.7
				c0.2,0.2,0.3,0.4,0.5,0.4c0.5-0.1,0.4-1.6,1.1-3.3c0.2-0.6,0.8-2.1,1.8-2.3c0.8-0.2,1.4,0.5,1.7,0.8"/>
			<path class="st5" d="M44.7,561.7c0.4-0.5,0.8-1.2,1.1-2.2c0.3-1.5-0.2-2.3,0.1-3.2c0.5-1.2,2.2-1.6,3.1-0.7
				c0.2,0.2,0.3,0.4,0.5,0.4c0.5-0.1,0.4-1.6,1.1-3.3c0.2-0.6,0.8-2.1,1.8-2.3c0.8-0.2,1.4,0.5,1.7,0.8"/>
			<path class="st5" d="M63.4,567.9c0.4-0.5,0.8-1.2,1.1-2.2c0.3-1.5-0.2-2.3,0.1-3.2c0.5-1.2,2.2-1.6,3.1-0.7
				c0.2,0.2,0.3,0.4,0.5,0.4c0.5-0.1,0.4-1.6,1.1-3.3c0.2-0.6,0.8-2.1,1.8-2.3c0.8-0.2,1.4,0.5,1.7,0.8"/>
			<path class="st5" d="M54.1,571c0.4-0.5,0.8-1.2,1.1-2.2c0.3-1.5-0.2-2.3,0.1-3.2c0.5-1.2,2.2-1.6,3.1-0.7
				c0.2,0.2,0.3,0.4,0.5,0.4c0.5-0.1,0.4-1.6,1.1-3.3c0.2-0.6,0.8-2.1,1.8-2.3c0.8-0.2,1.4,0.5,1.7,0.8"/>
		</g>
	</g>
</g>
<g>
	<g>
		<g>
			<path class="st6" d="M-122,458.8c-0.6,0.4-1-0.4-1-0.4c0.5-0.8,0.8-1.5,1-1.7c0.1-0.2,0.2-0.4,0.3-0.4c0.1-0.1,0.1-0.2,0.2-0.2
				c0.4-0.4,1-0.8,1.7-1.2c1.1-0.6,2.2-0.8,3.1-0.9l0.2,0.7C-119.9,454.5-122,458-122,458.8z"/>
			<g>
				<path class="st7" d="M-108.1,460.4c0.1-0.2,0.1-0.4,0.1-0.5c0,0-0.2-0.8-0.6-1.8c2.2-1.2,4.3-3.1,4.4-3.2
					c0.1-0.1,0.2-0.3,0.2-0.5c0-0.2-0.1-0.4-0.2-0.5c0,0-0.6-0.6-1.5-1.4c2-2.3,3.2-6.5,3.3-6.7c0.1-0.2,0-0.4-0.1-0.5
					c-0.1-0.2-0.3-0.3-0.4-0.3c-0.2,0-4.4-1.1-7.4-0.5c-0.2-1.1-0.4-2-0.4-2c0-0.2-0.2-0.3-0.3-0.4c-0.2-0.1-0.4-0.1-0.5-0.1
					c-0.1,0-2.9,0.8-5,2.2c-0.7-0.8-1.3-1.4-1.3-1.4c-0.1-0.1-0.3-0.2-0.5-0.2c-0.2,0-0.4,0.1-0.5,0.2c0,0-1,1.1-1.9,2.5
					c-1.3,1.9-2,3.6-2,4.8c0,1.1,0.3,2.2,0.9,3.2c0.6,1,1.3,1.7,2.2,2.1c-0.1,1,0.1,2,0.7,2.9l0,0c0.5,0.9,1.3,1.7,2.3,2.3
					c1.1,0.7,2.8,0.9,5.2,0.7c1.7-0.1,3-0.5,3.1-0.5C-108.4,460.7-108.2,460.5-108.1,460.4z"/>
				<path class="st8" d="M-108.1,460.4c0.1-0.2,0.1-0.4,0.1-0.5c0,0-0.2-0.8-0.6-1.8c2.2-1.2,4.3-3.1,4.4-3.2
					c0.1-0.1,0.2-0.3,0.2-0.5c0-0.2-0.1-0.4-0.2-0.5c0,0-0.6-0.6-1.5-1.4c2-2.3,3.2-6.5,3.3-6.7c0.1-0.2,0-0.4-0.1-0.5l-17.3,10
					c-0.1,1,0.1,2,0.7,2.9l0,0c0.5,0.9,1.3,1.7,2.3,2.3c1.1,0.7,2.8,0.9,5.2,0.7c1.7-0.1,3-0.5,3.1-0.5
					C-108.4,460.7-108.2,460.5-108.1,460.4z"/>
				<g>
					<path class="st9" d="M-109.3,444.2c-0.4,0-1.2,0.2-1.2,0.2s0.3,2,0.1,3.4L-109.3,444.2z"/>
					<path class="st9" d="M-116.1,443.7c-0.2,0.1-0.6,0.4-0.6,0.4s0.7,0.8,1.5,2C-115.2,446-115.7,444.6-116.1,443.7z"/>
				</g>
				<g>
					<path class="st10" d="M-105.1,451.5c-0.2,0.3-0.7,0.9-0.7,0.9s-1.6-1.3-2.9-1.7L-105.1,451.5z"/>
					<path class="st10" d="M-108,457.7c-0.2,0.1-0.6,0.3-0.6,0.3s-0.4-1-1-2.3C-109.6,455.7-108.6,456.8-108,457.7z"/>
				</g>
				<path class="st6" d="M-117.2,454.1c0.1-0.1,0.2-0.1,0.3-0.2c0.3-0.2,0.6-0.4,1-0.6l8.9,1.2l-8-1.7c0.3-0.2,0.7-0.4,1-0.6
					c0.5-0.3,1-0.6,1.5-0.9c0.5-0.3,1-0.6,1.5-0.9c0.5-0.3,1-0.6,1.5-0.9c0.5-0.3,0.9-0.6,1.4-0.8c0.4-0.3,0.9-0.5,1.2-0.8
					c0.2-0.1,0.4-0.2,0.5-0.3c0.2-0.1,0.3-0.2,0.5-0.3c0.2-0.1,0.3-0.2,0.4-0.3c0.1-0.1,0.3-0.2,0.4-0.2c0.2-0.1,0.4-0.3,0.5-0.3
					c0.1-0.1,0.2-0.1,0.2-0.1s-0.1,0-0.2,0.1c-0.1,0.1-0.3,0.1-0.6,0.3c-0.1,0.1-0.2,0.1-0.4,0.2c-0.1,0.1-0.3,0.1-0.5,0.2
					c-0.2,0.1-0.3,0.2-0.5,0.3c-0.2,0.1-0.4,0.2-0.6,0.3c-0.4,0.2-0.8,0.4-1.3,0.7c-0.5,0.2-0.9,0.5-1.4,0.8c-0.5,0.3-1,0.6-1.5,0.8
					c-0.5,0.3-1,0.6-1.6,0.9c-0.5,0.3-1,0.6-1.6,0.9c-0.4,0.2-0.7,0.4-1,0.6l2.5-7.8l-3.4,8.3c-0.3,0.2-0.7,0.4-1,0.6
					c-0.1,0.1-0.2,0.1-0.3,0.2l-1.7-7.1l1.1,7.5c-0.1,0.1-0.2,0.1-0.3,0.2c-0.4,0.2-0.7,0.4-1.1,0.6c-0.2,0.1-0.5,0.3-0.7,0.4
					c0.1,0.1,0.3,0.1,0.4,0.2c0,0.1,0,0.3,0,0.4c0.2-0.1,0.4-0.2,0.7-0.4c0.3-0.2,0.7-0.4,1.1-0.6c0.1-0.1,0.2-0.1,0.3-0.2l6,4.7
					L-117.2,454.1z"/>
			</g>
		</g>
		<g>
			<path class="st6" d="M-132.7,508.1c0.7,0.2,0.3,1.1,0.3,1.1c-0.9,0.2-1.7,0.3-1.9,0.3c-0.2,0-0.5,0-0.5,0c-0.1,0-0.2,0-0.3,0
				c-0.6-0.1-1.3-0.3-2-0.6c-1.1-0.5-2-1.2-2.6-1.9l0.4-0.6C-137.3,509.2-133.3,508.6-132.7,508.1z"/>
			<g>
				<path class="st7" d="M-140.2,496.3c-0.2,0-0.4,0.1-0.5,0.3c0,0-0.5,0.7-1,1.6c-2.3-1-5.1-1.4-5.3-1.4c-0.2,0-0.4,0-0.5,0.1
					c-0.1,0.1-0.2,0.3-0.3,0.5c0,0-0.1,0.9-0.1,2.1c-3.1-0.1-7.1,1.6-7.3,1.6c-0.2,0.1-0.3,0.2-0.4,0.4c-0.1,0.2-0.1,0.4,0,0.6
					c0.1,0.2,1.9,4.1,4.3,6.1c-0.8,0.9-1.3,1.5-1.3,1.6c-0.1,0.2-0.2,0.3-0.1,0.5c0,0.2,0.1,0.4,0.3,0.5c0.1,0.1,2.5,1.7,4.8,2.5
					c-0.2,1.1-0.3,1.8-0.3,1.9c0,0.2,0,0.4,0.2,0.5c0.1,0.1,0.3,0.2,0.5,0.3c0.1,0,1.5,0.1,3.1,0c2.3-0.2,4-0.7,5-1.5
					c0.9-0.7,1.5-1.6,1.9-2.6c0.4-1,0.5-2.1,0.2-3c0.8-0.5,1.5-1.3,1.9-2.4l0,0c0.4-1,0.5-2.1,0.4-3.2c-0.2-1.3-1.1-2.8-2.7-4.5
					c-1.2-1.2-2.3-2.1-2.3-2.1C-139.8,496.3-140,496.3-140.2,496.3z"/>
				<path class="st8" d="M-140.2,496.3c-0.2,0-0.4,0.1-0.5,0.3c0,0-0.5,0.7-1,1.6c-2.3-1-5.1-1.4-5.3-1.4c-0.2,0-0.4,0-0.5,0.1
					c-0.1,0.1-0.2,0.3-0.3,0.5c0,0-0.1,0.9-0.1,2.1c-3.1-0.1-7.1,1.6-7.3,1.6c-0.2,0.1-0.3,0.2-0.4,0.4l18.6,7.2
					c0.8-0.5,1.5-1.3,1.9-2.4l0,0c0.4-1,0.5-2.1,0.4-3.2c-0.2-1.3-1.1-2.8-2.7-4.5c-1.2-1.2-2.3-2.1-2.3-2.1
					C-139.8,496.3-140,496.3-140.2,496.3z"/>
				<g>
					<path class="st9" d="M-152,507.3c0.3,0.3,0.8,0.8,0.8,0.8s1.4-1.5,2.6-2.2L-152,507.3z"/>
					<path class="st9" d="M-148.1,513c0.2,0.1,0.6,0.2,0.6,0.2s0.2-1.1,0.6-2.4C-146.9,510.8-147.7,512.1-148.1,513z"/>
				</g>
				<g>
					<path class="st10" d="M-149,499.5c0.4,0,1.2,0,1.2,0s0,2,0.5,3.3L-149,499.5z"/>
					<path class="st10" d="M-142.3,497.9c0.2,0.1,0.6,0.3,0.6,0.3s-0.6,0.9-1.2,2.2C-142.9,500.3-142.6,498.9-142.3,497.9z"/>
				</g>
				<path class="st6" d="M-139.3,507.3c-0.1,0-0.2-0.1-0.4-0.1c-0.3-0.1-0.7-0.3-1.1-0.4l-4.6-7.7l3.7,7.3c-0.4-0.1-0.7-0.3-1.1-0.4
					c-0.6-0.2-1.1-0.4-1.7-0.6c-0.6-0.2-1.1-0.4-1.7-0.6c-0.6-0.2-1.1-0.4-1.6-0.6c-0.5-0.2-1-0.4-1.5-0.6c-0.5-0.2-0.9-0.3-1.4-0.5
					c-0.2-0.1-0.4-0.1-0.6-0.2c-0.2-0.1-0.4-0.1-0.6-0.2c-0.2-0.1-0.3-0.1-0.5-0.2c-0.2,0-0.3-0.1-0.4-0.1c-0.3-0.1-0.4-0.1-0.6-0.2
					c-0.1,0-0.2-0.1-0.2-0.1s0.1,0,0.2,0.1c0.1,0.1,0.3,0.2,0.6,0.3c0.1,0.1,0.3,0.1,0.4,0.2c0.1,0.1,0.3,0.1,0.5,0.2
					c0.2,0.1,0.3,0.2,0.5,0.2c0.2,0.1,0.4,0.2,0.6,0.3c0.4,0.2,0.9,0.4,1.3,0.6c0.5,0.2,1,0.4,1.5,0.6c0.5,0.2,1.1,0.4,1.6,0.7
					c0.5,0.2,1.1,0.4,1.7,0.7c0.6,0.2,1.1,0.4,1.7,0.7c0.4,0.1,0.7,0.3,1.1,0.4l-7.7,3l8.6-2.6c0.4,0.1,0.7,0.3,1.1,0.4
					c0.1,0,0.2,0.1,0.4,0.1l-4.5,5.8l5.2-5.6c0.1,0,0.2,0.1,0.3,0.1c0.4,0.2,0.8,0.3,1.1,0.4c0.3,0.1,0.5,0.2,0.7,0.3
					c0-0.1-0.1-0.3-0.1-0.4c0.1-0.1,0.2-0.2,0.3-0.3c-0.2-0.1-0.5-0.2-0.7-0.3c-0.3-0.1-0.7-0.3-1.1-0.4c-0.1,0-0.2-0.1-0.3-0.1
					l-0.1-7.6L-139.3,507.3z"/>
			</g>
		</g>
		<g>
			<path class="st11" d="M-123.2,548.2c0,0,6.3-15.3,2.9-40.2c-2.2-16.1-8.8-23.3-9.9-23.9c-0.2-0.1-0.8-0.4-1.8-1.5
				c-0.6-0.8-1.1-1.5-1.5-2.2c-1-1.9-4-8.2-5.4-19.5c-0.4-3-0.9-9.2-0.3-19.6c0.2-4,2.2-39.9,8-40c1.5,0.1,3.1,2.1,3.4,4.4
				c0.5,5.9-8.1,20.9-13.5,10c-2.7-5.4-4-15.8-3.2-25.7"/>
			<path class="st12" d="M-130.2,553.1l-2.3,0c-1.3,0-2.4-1.2-2.4-2.5l1-62.4l1.5-97.2c0-1.3,1.2-2.4,2.5-2.4l2.3,0
				c1.3,0,2.4,1.2,2.4,2.5l-2.6,159.6C-127.7,552.1-128.9,553.2-130.2,553.1z"/>
			<path class="st11" d="M-137,536.8c10.7,0.9,18.4-1.5,18.8-6.3c0.3-2.7-1.6-7.2-3.9-9.9c-1.3-1.5-2.5-2.4-3.3-2.8
				c-1.7-1.1-6-4.4-8.9-11.5c-5.3-13.1-0.9-27-0.6-28c0,0,0.5-1.7,1.5-3.4c1.7-2.8,10.8-10.3,11.4-15.4c0.8-6.1-10.4-7.3-13.1-15.8
				c-3.1-10.1,9.8-17.1,12.5-34.2c1.5-9.2-0.7-17.2-2.6-22.3"/>
		</g>
		<g>
			<path class="st6" d="M-126.8,514.7c-0.7-0.3-0.2-1.1-0.2-1.1c1-0.1,1.7-0.2,1.9-0.2c0.2,0,0.5,0,0.5,0c0.1,0,0.2,0,0.3,0
				c0.6,0.1,1.3,0.3,2,0.7c1.1,0.6,1.9,1.4,2.5,2.1l-0.5,0.6C-122.1,514-126.1,514.2-126.8,514.7z"/>
			<g>
				<path class="st7" d="M-120.1,527c0.2,0,0.4-0.1,0.5-0.2c0,0,0.5-0.6,1.1-1.5c2.2,1.2,5,1.7,5.2,1.7c0.2,0,0.4,0,0.5-0.1
					c0.2-0.1,0.3-0.3,0.3-0.5c0,0,0.1-0.9,0.2-2c3.1,0.3,7.2-1.1,7.4-1.2c0.2-0.1,0.3-0.2,0.4-0.4c0.1-0.2,0.1-0.4,0-0.6
					c-0.1-0.2-1.6-4.2-3.9-6.4c0.8-0.8,1.4-1.5,1.4-1.5c0.1-0.1,0.2-0.3,0.2-0.5c0-0.2-0.1-0.4-0.3-0.5c-0.1-0.1-2.3-1.9-4.7-2.8
					c0.3-1,0.4-1.8,0.4-1.8c0-0.2,0-0.4-0.1-0.5c-0.1-0.2-0.3-0.3-0.5-0.3c-0.1,0-1.4-0.2-3.1-0.2c-2.3,0-4.1,0.4-5.1,1.2
					c-0.9,0.7-1.6,1.5-2.1,2.5c-0.5,1-0.6,2-0.4,3c-0.8,0.5-1.5,1.2-2,2.3c0,0,0,0,0,0c-0.4,1-0.6,2.1-0.6,3.2
					c0.1,1.3,0.9,2.8,2.4,4.7c1.1,1.3,2.1,2.2,2.2,2.3C-120.5,526.9-120.3,527-120.1,527z"/>
				<path class="st8" d="M-120.1,527c0.2,0,0.4-0.1,0.5-0.2c0,0,0.5-0.6,1.1-1.5c2.2,1.2,5,1.7,5.2,1.7c0.2,0,0.4,0,0.5-0.1
					c0.2-0.1,0.3-0.3,0.3-0.5c0,0,0.1-0.9,0.2-2c3.1,0.3,7.2-1.1,7.4-1.2c0.2-0.1,0.3-0.2,0.4-0.4l-18.1-8.4c-0.8,0.5-1.5,1.2-2,2.3
					c0,0,0,0,0,0c-0.4,1-0.6,2.1-0.6,3.2c0.1,1.3,0.9,2.8,2.4,4.7c1.1,1.3,2.1,2.2,2.2,2.3C-120.5,526.9-120.3,527-120.1,527z"/>
				<g>
					<path class="st9" d="M-107.6,516.8c-0.3-0.3-0.8-0.9-0.8-0.9s-1.5,1.4-2.7,2L-107.6,516.8z"/>
					<path class="st9" d="M-111.1,510.9c-0.2-0.1-0.6-0.3-0.6-0.3s-0.3,1-0.7,2.4C-112.4,513-111.6,511.8-111.1,510.9z"/>
				</g>
				<g>
					<path class="st10" d="M-111.1,524.4c-0.4,0-1.2,0-1.2,0s0.1-2-0.2-3.4L-111.1,524.4z"/>
					<path class="st10" d="M-117.9,525.5c-0.2-0.1-0.6-0.3-0.6-0.3s0.6-0.9,1.3-2.1C-117.1,523.1-117.5,524.6-117.9,525.5z"/>
				</g>
				<path class="st6" d="M-120.2,515.9c0.1,0.1,0.2,0.1,0.4,0.2c0.3,0.2,0.7,0.3,1,0.5l4.1,8l-3.2-7.6c0.4,0.2,0.7,0.3,1.1,0.5
					c0.5,0.2,1.1,0.5,1.6,0.7c0.5,0.2,1.1,0.5,1.6,0.7c0.5,0.2,1.1,0.5,1.6,0.7c0.5,0.2,1,0.4,1.5,0.7c0.5,0.2,0.9,0.4,1.3,0.6
					c0.2,0.1,0.4,0.2,0.6,0.2c0.2,0.1,0.4,0.2,0.5,0.2c0.2,0.1,0.3,0.1,0.5,0.2c0.1,0.1,0.3,0.1,0.4,0.2c0.2,0.1,0.4,0.2,0.6,0.2
					c0.1,0,0.2,0.1,0.2,0.1s-0.1,0-0.2-0.1c-0.1-0.1-0.3-0.2-0.5-0.3c-0.1-0.1-0.2-0.1-0.4-0.2c-0.1-0.1-0.3-0.2-0.5-0.2
					c-0.2-0.1-0.3-0.2-0.5-0.3c-0.2-0.1-0.4-0.2-0.6-0.3c-0.4-0.2-0.8-0.4-1.3-0.7c-0.5-0.2-1-0.5-1.5-0.7c-0.5-0.2-1-0.5-1.6-0.8
					c-0.5-0.3-1.1-0.5-1.6-0.8c-0.5-0.3-1.1-0.5-1.6-0.8c-0.4-0.2-0.7-0.3-1.1-0.5l7.8-2.5l-8.8,2c-0.4-0.2-0.7-0.3-1-0.5
					c-0.1-0.1-0.2-0.1-0.4-0.2l4.9-5.5l-5.5,5.2c-0.1,0-0.2-0.1-0.3-0.1c-0.4-0.2-0.8-0.4-1.1-0.5c-0.3-0.1-0.5-0.2-0.7-0.3
					c0,0.1,0,0.3,0.1,0.4c-0.1,0.1-0.2,0.1-0.4,0.2c0.2,0.1,0.4,0.2,0.7,0.3c0.3,0.2,0.7,0.3,1.1,0.5c0.1,0,0.2,0.1,0.3,0.1
					l-0.4,7.6L-120.2,515.9z"/>
			</g>
		</g>
		<g>
			<path class="st6" d="M-136.6,488.3c-1,0.2-1.1-1-1.1-1c1-0.9,1.7-1.5,2-1.7c0.3-0.2,0.5-0.4,0.5-0.4c0.1-0.1,0.3-0.2,0.3-0.2
				c0.7-0.3,1.6-0.6,2.7-0.7c1.7-0.2,3.2,0,4.4,0.3l-0.1,1C-132.1,483.8-136.3,487.3-136.6,488.3z"/>
			<g>
				<path class="st7" d="M-119.7,496.6c0.2-0.2,0.3-0.4,0.3-0.7c0-0.1,0.1-1.1,0.1-2.6c3.4-0.5,6.9-2,7-2.1c0.2-0.1,0.4-0.3,0.5-0.5
					c0.1-0.2,0.1-0.5,0-0.7c0-0.1-0.5-1.1-1.4-2.4c3.6-2,7-6.8,7.2-7c0.1-0.2,0.2-0.5,0.2-0.7c0-0.3-0.2-0.5-0.4-0.6
					c-0.2-0.2-5.1-3.4-9.2-4c0.3-1.5,0.4-2.7,0.4-2.8c0-0.3-0.1-0.5-0.2-0.7c-0.2-0.2-0.4-0.3-0.7-0.3c-0.2,0-4-0.2-7.3,0.6
					c-0.5-1.4-1-2.3-1-2.4c-0.1-0.2-0.3-0.4-0.6-0.5c-0.2-0.1-0.5-0.1-0.7,0.1c-0.1,0-1.7,0.9-3.6,2.3c-2.6,1.9-4.1,3.6-4.7,5.3
					c-0.5,1.5-0.6,3-0.3,4.4c0.3,1.5,0.9,2.7,1.9,3.6c-0.6,1.2-0.7,2.6-0.4,4.1l0,0c0.3,1.4,0.9,2.8,1.9,4c1.1,1.3,3.2,2.4,6.3,3.2
					c2.2,0.6,4.1,0.8,4.2,0.8C-120.1,496.9-119.9,496.8-119.7,496.6z"/>
				<path class="st8" d="M-119.7,496.6c0.2-0.2,0.3-0.4,0.3-0.7c0-0.1,0.1-1.1,0.1-2.6c3.4-0.5,6.9-2,7-2.1c0.2-0.1,0.4-0.3,0.5-0.5
					c0.1-0.2,0.1-0.5,0-0.7c0-0.1-0.5-1.1-1.4-2.4c3.6-2,7-6.8,7.2-7c0.1-0.2,0.2-0.5,0.2-0.7l-26.5,5c-0.6,1.2-0.7,2.6-0.4,4.1l0,0
					c0.3,1.4,0.9,2.8,1.9,4c1.1,1.3,3.2,2.4,6.3,3.2c2.2,0.6,4.1,0.8,4.2,0.8C-120.1,496.9-119.9,496.8-119.7,496.6z"/>
				<g>
					<path class="st9" d="M-113.8,475.5c-0.5-0.1-1.5-0.3-1.5-0.3s-0.5,2.7-1.4,4.3L-113.8,475.5z"/>
					<path class="st9" d="M-122.3,471.8c-0.3,0.1-0.9,0.2-0.9,0.2s0.5,1.4,1.1,3.2C-122.2,475.2-122.2,473.1-122.3,471.8z"/>
				</g>
				<g>
					<path class="st10" d="M-111.8,486.7c-0.4,0.3-1.3,0.9-1.3,0.9s-1.4-2.4-2.9-3.5L-111.8,486.7z"/>
					<path class="st10" d="M-118.3,493.3c-0.3,0.1-0.9,0.2-0.9,0.2s0-1.5-0.2-3.4C-119.4,490-118.7,491.9-118.3,493.3z"/>
				</g>
				<path class="st6" d="M-128.4,484.5c0.2,0,0.3-0.1,0.5-0.1c0.5-0.1,1-0.2,1.5-0.3l10.8,5.6l-9.4-5.8c0.5-0.1,1-0.2,1.6-0.3
					c0.8-0.2,1.6-0.3,2.4-0.5c0.8-0.2,1.6-0.3,2.4-0.5c0.8-0.2,1.6-0.3,2.3-0.5c0.7-0.2,1.5-0.3,2.1-0.4c0.7-0.1,1.3-0.3,1.9-0.4
					c0.3-0.1,0.6-0.1,0.9-0.2c0.3-0.1,0.5-0.1,0.8-0.2c0.2-0.1,0.5-0.1,0.7-0.2c0.2-0.1,0.4-0.1,0.6-0.1c0.3-0.1,0.6-0.2,0.8-0.2
					c0.2-0.1,0.3-0.1,0.3-0.1s-0.1,0-0.3,0c-0.2,0-0.5,0-0.8,0.1c-0.2,0-0.4,0-0.6,0.1c-0.2,0-0.4,0.1-0.7,0.1
					c-0.2,0-0.5,0.1-0.8,0.1c-0.3,0-0.6,0.1-0.9,0.1c-0.6,0.1-1.3,0.2-1.9,0.3c-0.7,0.1-1.4,0.2-2.2,0.4c-0.7,0.1-1.5,0.3-2.3,0.4
					c-0.8,0.1-1.6,0.3-2.4,0.4c-0.8,0.1-1.6,0.3-2.4,0.4c-0.5,0.1-1.1,0.2-1.6,0.3l6.7-8.9l-8.1,9.1c-0.5,0.1-1,0.2-1.5,0.3
					c-0.2,0-0.3,0.1-0.5,0.1l1-9.9l-2,10.1c-0.2,0-0.3,0.1-0.5,0.1c-0.6,0.1-1.1,0.2-1.6,0.3c-0.4,0.1-0.7,0.1-1,0.2
					c0.1,0.1,0.3,0.3,0.4,0.4c-0.1,0.2-0.2,0.4-0.2,0.5c0.3-0.1,0.6-0.1,1-0.2c0.5-0.1,1-0.2,1.6-0.3c0.2,0,0.3-0.1,0.5-0.1l5.5,8.7
					L-128.4,484.5z"/>
			</g>
		</g>
		<g>
			<path class="st6" d="M-135.4,444.4c0.6-0.4,1,0.5,1,0.5c-0.5,0.8-0.8,1.5-1,1.7c-0.1,0.2-0.3,0.4-0.3,0.4
				c-0.1,0.1-0.1,0.2-0.2,0.2c-0.4,0.4-1,0.8-1.7,1.2c-1.1,0.5-2.2,0.8-3.1,0.8l-0.2-0.7C-137.5,448.6-135.4,445.2-135.4,444.4z"/>
			<g>
				<path class="st7" d="M-149.3,442.6c-0.1,0.2-0.1,0.4-0.1,0.5c0,0,0.2,0.8,0.6,1.8c-2.2,1.1-4.3,3.1-4.4,3.2
					c-0.1,0.1-0.2,0.3-0.2,0.5c0,0.2,0.1,0.4,0.2,0.5c0,0,0.6,0.6,1.5,1.4c-2,2.3-3.3,6.5-3.4,6.6c-0.1,0.2,0,0.4,0.1,0.5
					c0.1,0.2,0.3,0.3,0.4,0.3c0.2,0.1,4.4,1.1,7.4,0.6c0.2,1.2,0.4,2,0.4,2c0,0.2,0.2,0.3,0.3,0.4c0.2,0.1,0.4,0.1,0.5,0.1
					c0.1,0,2.9-0.8,5-2.1c0.7,0.8,1.2,1.4,1.3,1.4c0.1,0.1,0.3,0.2,0.5,0.2c0.2,0,0.4-0.1,0.5-0.2c0,0,1-1.1,2-2.4
					c1.4-1.9,2-3.5,2-4.8c0-1.1-0.3-2.2-0.8-3.2c-0.5-1-1.3-1.7-2.2-2.1c0.1-1-0.1-2-0.7-2.9c0,0,0,0,0,0c-0.5-0.9-1.3-1.7-2.3-2.3
					c-1.1-0.7-2.8-0.9-5.2-0.8c-1.7,0.1-3.1,0.4-3.1,0.4C-149,442.3-149.2,442.5-149.3,442.6z"/>
				<path class="st8" d="M-149.3,442.6c-0.1,0.2-0.1,0.4-0.1,0.5c0,0,0.2,0.8,0.6,1.8c-2.2,1.1-4.3,3.1-4.4,3.2
					c-0.1,0.1-0.2,0.3-0.2,0.5c0,0.2,0.1,0.4,0.2,0.5c0,0,0.6,0.6,1.5,1.4c-2,2.3-3.3,6.5-3.4,6.6c-0.1,0.2,0,0.4,0.1,0.5l17.4-9.8
					c0.1-1-0.1-2-0.7-2.9c0,0,0,0,0,0c-0.5-0.9-1.3-1.7-2.3-2.3c-1.1-0.7-2.8-0.9-5.2-0.8c-1.7,0.1-3.1,0.4-3.1,0.4
					C-149,442.3-149.2,442.5-149.3,442.6z"/>
				<g>
					<path class="st9" d="M-148.3,458.8c0.4,0,1.2-0.1,1.2-0.1s-0.3-2,0-3.4L-148.3,458.8z"/>
					<path class="st9" d="M-141.5,459.4c0.2-0.1,0.6-0.3,0.6-0.3s-0.7-0.8-1.5-2C-142.4,457.1-141.9,458.5-141.5,459.4z"/>
				</g>
				<g>
					<path class="st10" d="M-152.4,451.5c0.2-0.3,0.7-0.9,0.7-0.9s1.6,1.3,2.9,1.8L-152.4,451.5z"/>
					<path class="st10" d="M-149.4,445.3c0.2-0.1,0.6-0.3,0.6-0.3s0.4,1,0.9,2.3C-147.9,447.3-148.8,446.2-149.4,445.3z"/>
				</g>
				<path class="st6" d="M-140.2,449c-0.1,0.1-0.2,0.1-0.3,0.2c-0.3,0.2-0.6,0.4-1,0.6l-8.9-1.3l8,1.8c-0.3,0.2-0.7,0.4-1,0.6
					c-0.5,0.3-1,0.6-1.5,0.9c-0.5,0.3-1,0.6-1.5,0.9c-0.5,0.3-1,0.6-1.5,0.9c-0.5,0.3-1,0.6-1.4,0.8c-0.4,0.3-0.9,0.5-1.2,0.8
					c-0.2,0.1-0.4,0.2-0.5,0.3c-0.2,0.1-0.3,0.2-0.5,0.3c-0.2,0.1-0.3,0.2-0.4,0.3c-0.1,0.1-0.3,0.2-0.4,0.2
					c-0.2,0.1-0.4,0.3-0.5,0.3c-0.1,0.1-0.2,0.1-0.2,0.1s0.1,0,0.2-0.1c0.1-0.1,0.3-0.1,0.6-0.3c0.1-0.1,0.2-0.1,0.4-0.2
					c0.1-0.1,0.3-0.1,0.5-0.2c0.2-0.1,0.3-0.2,0.5-0.3c0.2-0.1,0.4-0.2,0.6-0.3c0.4-0.2,0.8-0.4,1.3-0.7c0.5-0.2,0.9-0.5,1.4-0.8
					c0.5-0.3,1-0.5,1.5-0.8c0.5-0.3,1-0.6,1.6-0.9c0.5-0.3,1.1-0.6,1.6-0.9c0.4-0.2,0.7-0.4,1-0.6l-2.6,7.8l3.5-8.3
					c0.3-0.2,0.7-0.4,1-0.5c0.1-0.1,0.2-0.1,0.3-0.2l1.6,7.2l-1-7.5c0.1-0.1,0.2-0.1,0.3-0.2c0.4-0.2,0.8-0.4,1.1-0.6
					c0.3-0.1,0.5-0.3,0.7-0.4c-0.1-0.1-0.3-0.1-0.4-0.2c0-0.1,0-0.3,0-0.4c-0.2,0.1-0.4,0.2-0.7,0.4c-0.3,0.2-0.7,0.4-1.1,0.6
					c-0.1,0.1-0.2,0.1-0.3,0.2l-5.9-4.8L-140.2,449z"/>
			</g>
		</g>
	</g>
	<g>
		<g>
			<path class="st0" d="M-137.6,462.7c-3-0.6-6.2-1.1-9.6-1.5c-4.4-0.5-8.5-0.8-12.4-1c-2.9-1.2-5.9-2.4-9-3.6
				c-3.8-1.5-7.5-2.9-11.1-4.3c-0.2,0.1-0.7,0.2-1.1,0.8c-0.4,0.6-0.4,1.4,0,2.1c0,0,14.6,5.8,15.4,7.5c0.2,0.6,0.3,1.4,0.4,2.2
				c0.1,1.5-0.1,2.8-0.3,3.7c2,0,4,0.1,6,0.1c-0.1-0.9-0.2-2,0-3.3c0.1-0.9,0.3-1.6,0.5-2.3c2.8,0.1,5.6,0.3,8.5,0.5
				c4.3,0.3,8.4,0.7,12.4,1.3C-137.9,464.8-136.9,464.1-137.6,462.7z"/>
			<defs>
				<filter id="Adobe_OpacityMaskFilter_3_" filterUnits="userSpaceOnUse" x="-181" y="452.3" width="43.7" height="16.4">
					
						<feColorMatrix  type="matrix" values="-1 0 0 0 1  0 -1 0 0 1  0 0 -1 0 1  0 0 0 1 0" color-interpolation-filters="sRGB" result="source"/>
					<feFlood  style="flood-color:white;flood-opacity:1" result="back"/>
					<feBlend  in="source" in2="back" mode="normal"/>
				</filter>
			</defs>
			<mask maskUnits="userSpaceOnUse" x="-181" y="452.3" width="43.7" height="16.4" id="SVGID_4_">
				<g class="st17">
					
						<rect x="-173.1" y="452.1" transform="matrix(-0.8185 -0.5745 0.5745 -0.8185 -544.8513 746.3234)" class="st2" width="37.2" height="14.3"/>
				</g>
			</mask>
			<path class="st18" d="M-137.6,462.7c-3-0.6-6.2-1.1-9.6-1.5c-4.4-0.5-8.5-0.8-12.4-1c-2.9-1.2-5.9-2.4-9-3.6
				c-3.8-1.5-7.5-2.9-11.1-4.3c-0.2,0.1-0.7,0.2-1.1,0.8c-0.4,0.6-0.4,1.4,0,2.1c0,0,14.6,5.8,15.4,7.5c0.2,0.6,0.3,1.4,0.4,2.2
				c0.1,1.5-0.1,2.8-0.3,3.7c2,0,4,0.1,6,0.1c-0.1-0.9-0.2-2,0-3.3c0.1-0.9,0.3-1.6,0.5-2.3c2.8,0.1,5.6,0.3,8.5,0.5
				c4.3,0.3,8.4,0.7,12.4,1.3C-137.9,464.8-136.9,464.1-137.6,462.7z"/>
		</g>
		<g>
			<path class="st4" d="M-162.1,515.8c6.4,0,12.4-2.5,16.9-7c4.5-4.5,7-10.5,7-16.9c0-6.4-2.5-12.4-7-16.9c-4.5-4.5-10.5-7-16.9-7
				c-6.4,0-12.4,2.5-16.9,7c-4.5,4.5-7,10.5-7,16.9c0,6.4,2.5,12.4,7,16.9C-174.5,513.3-168.5,515.8-162.1,515.8z"/>
			<path class="st5" d="M-142.1,482c-1.4,0.8-3.6,1.8-6.3,2.2c-4.1,0.6-6.2-0.4-8.5-0.2c-3,0.2-6.9,2.6-11.1,11.7
				c-0.4,0.4-0.9,1-1.3,1.8c-0.6,1.2-0.8,2.2-1,2.9c-0.5,2.7-0.8,5.1-1,6.6"/>
			<path class="st5" d="M-146.8,475.7c-0.8,0.4-1.7,0.8-2.8,1.1c-3.6,1-6.8,0.5-8.7,0c-3,0.2-5.4,0.5-6.8,0.6
				c-5.9,0.6-6.5,0.7-8.1,0.4c-0.9-0.2-2.2-0.6-4.1-0.7c-1.2-0.1-2.2,0-2.8,0.1"/>
			<path class="st5" d="M-148.5,506.8c-0.9,0.4-2.8,1-5,0.5c-2.2-0.5-3.6-2-4.8-3.2c-1.7-1.7-1.8-2.6-3.4-4.6
				c-1.6-2-2.5-2.9-3.9-3.7c-1.2-0.6-1.8-0.6-2.3-1.3c-0.8-1.3,0.2-2.8,0.2-4.3c0-1.7-1.2-4-7-7.1c-0.2,0-2.2,0.3-3.8-1.1
				c-1.5-1.3-1.5-3.1-1.5-3.4"/>
			<path class="st5" d="M-139,494.5c-0.8,0.3-1.8,0.5-2.5,0c-0.6-0.4-0.4-0.9-0.9-1.4c-0.7-0.8-1.9-0.5-5.5-0.1
				c-2.6,0.3-3.3,0.2-4-0.2c-0.7-0.5-0.7-1-1.3-1.8c-0.8-1.2-1.6-1.5-3.9-2.9c-4.1-2.6-3.8-3.1-5.6-3.7c-2.1-0.6-3.6-0.3-3.8-0.9
				c-0.2-0.8,2.6-1.3,2.9-2.9c0.5-2.6-5.4-5.8-6.3-6.3c-1.8-1-3.3-1.5-4.4-1.8"/>
			<path class="st5" d="M-148.8,487.9c-0.8,1.1-2.1,2.3-4,2.9c-2.8,0.9-4.2-0.7-5.9,0.4c-2.2,1.4-2.9,6.1-1.3,8.7
				c0.4,0.7,0.8,0.9,0.7,1.5c-0.2,1.3-3,1.1-6.1,2.9c-1.2,0.7-3.8,2.3-4.3,5c-0.4,2.2,0.9,4.1,1.5,4.8"/>
			<path class="st5" d="M-140.6,500.4c-0.5,0.4-1.7,1.1-3.1,0.5c-1.4-0.6-2.2-2.1-2.9-3.4c-1-1.9-1.1-2.8-2.1-5
				c-1-2.1-1.5-3.1-2.4-4c-0.8-0.7-1.1-0.7-1.4-1.5c-0.5-1.4,0.1-3.1,0.2-4.6c0-1.8-0.7-4.4-4.3-7.7c-0.1,0-1.4,0.4-2.3-1.2
				c-0.9-1.5-0.9-3.4-0.9-3.7"/>
			<path class="st5" d="M-153.2,513.1c-0.9,0.4-2.8,1-5,0.5c-2.2-0.5-3.6-2-4.8-3.2c-1.7-1.7-1.8-2.6-3.4-4.6
				c-1.6-2-2.5-2.9-3.9-3.7c-1.2-0.6-1.8-0.6-2.3-1.3c-0.8-1.3,0.2-2.8,0.2-4.3c0-1.7-1.2-4-7-7.1c-0.2,0-2.2,0.3-3.8-1.1
				c-1.5-1.3-1.5-3.1-1.5-3.4"/>
			<path class="st5" d="M-183.5,484.8c0.7,1.2,1.4,2.9,1.3,4.8c-0.2,2.9-2.2,3.6-1.8,5.6c0.5,2.6,4.6,4.9,7.6,4.4
				c0.8-0.1,1.2-0.4,1.6-0.1c1.1,0.7-0.1,3.2,0.5,6.7c0.2,1.3,0.7,4.4,3.1,5.8c1.9,1.1,4.1,0.6,5,0.4"/>
			<path class="st5" d="M-159.9,468.9c-0.8,1.1-2.1,2.3-4,2.9c-2.8,0.9-4.2-0.7-5.9,0.4c-2.2,1.4-2.9,6.1-1.3,8.7
				c0.4,0.7,0.8,0.9,0.7,1.5c-0.2,1.3-3,1.1-6.1,2.9c-1.2,0.7-3.8,2.3-4.3,5c-0.4,2.2,0.9,4.1,1.5,4.8"/>
			<path class="st5" d="M-152,476.8c-0.8,1.1-2.1,2.3-4,2.9c-2.8,0.9-4.2-0.7-5.9,0.4c-2.2,1.4-2.9,6.1-1.3,8.7
				c0.4,0.7,0.8,0.9,0.7,1.5c-0.2,1.3-3,1.1-6.1,2.9c-1.2,0.7-3.8,2.3-4.3,5c-0.4,2.2,0.9,4.1,1.5,4.8"/>
			<path class="st5" d="M-139.3,489.4c-0.8,1.1-2.1,2.3-4,2.9c-2.8,0.9-4.2-0.7-5.9,0.4c-2.2,1.4-2.9,6.1-1.3,8.7
				c0.4,0.7,0.8,0.9,0.7,1.5c-0.2,1.3-3,1.1-6.1,2.9c-1.2,0.7-3.8,2.3-4.3,5c-0.4,2.2,0.9,4.1,1.5,4.8"/>
			<path class="st5" d="M-142.5,484.7c-0.8,1.1-2.1,2.3-4,2.9c-2.8,0.9-4.2-0.7-5.9,0.4c-2.2,1.4-2.9,6.1-1.3,8.7
				c0.4,0.7,0.8,0.9,0.7,1.5c-0.2,1.3-3,1.1-6.1,2.9c-1.2,0.7-3.8,2.3-4.3,5c-0.4,2.2,0.9,4.1,1.5,4.8"/>
			<path class="st5" d="M-144.1,478.4c-0.8,1.1-2.1,2.3-4,2.9c-2.8,0.9-4.2-0.7-5.9,0.4c-2.2,1.4-2.9,6.1-1.3,8.7
				c0.4,0.7,0.8,0.9,0.7,1.5c-0.2,1.3-3,1.1-6.1,2.9c-1.2,0.7-3.8,2.3-4.3,5c-0.4,2.2,0.9,4.1,1.5,4.8"/>
			<path class="st5" d="M-158.3,472c-0.8,1.1-2.1,2.3-4,2.9c-2.8,0.9-4.2-0.7-5.9,0.4c-2.2,1.4-2.9,6.1-1.3,8.7
				c0.4,0.7,0.8,0.9,0.7,1.5c-0.2,1.3-3,1.1-6.1,2.9c-1.2,0.7-3.8,2.3-4.3,5c-0.4,2.2,0.9,4.1,1.5,4.8"/>
			<path class="st5" d="M-152,476.8c-0.8,1.1-2.1,2.3-4,2.9c-2.8,0.9-4.2-0.7-5.9,0.4c-2.2,1.4-2.9,6.1-1.3,8.7
				c0.4,0.7,0.8,0.9,0.7,1.5c-0.2,1.3-3,1.1-6.1,2.9c-1.2,0.7-3.8,2.3-4.3,5c-0.4,2.2,0.9,4.1,1.5,4.8"/>
			<path class="st5" d="M-164.7,468.9c-0.8,1.1-2.1,2.3-4,2.9c-2.8,0.9-4.2-0.7-5.9,0.4c-2.2,1.4-2.9,6.1-1.3,8.7
				c0.4,0.7,0.8,0.9,0.7,1.5c-0.2,1.3-3,1.1-6.1,2.9c-1.2,0.7-3.8,2.3-4.3,5c-0.4,2.2,0.9,4.1,1.5,4.8"/>
			<path class="st5" d="M-153.6,510.7c0.5-0.4,1.2-0.8,2.2-1.1c1.5-0.3,2.3,0.2,3.2-0.1c1.2-0.5,1.6-2.2,0.7-3.1
				c-0.2-0.2-0.4-0.3-0.4-0.5c0.1-0.5,1.6-0.4,3.3-1.1c0.6-0.2,2.1-0.8,2.3-1.8c0.2-0.8-0.5-1.5-0.8-1.7"/>
			<path class="st5" d="M-153.6,504.3c0.5-0.4,1.2-0.8,2.2-1.1c1.5-0.3,2.3,0.2,3.2-0.1c1.2-0.5,1.6-2.2,0.7-3.1
				c-0.2-0.2-0.4-0.3-0.4-0.5c0.1-0.5,1.6-0.4,3.3-1.1c0.6-0.2,2.1-0.8,2.3-1.8c0.2-0.8-0.5-1.5-0.8-1.7"/>
			<path class="st5" d="M-152,494.8c0.5-0.4,1.2-0.8,2.2-1.1c1.5-0.3,2.3,0.2,3.2-0.1c1.2-0.5,1.6-2.2,0.7-3.1
				c-0.2-0.2-0.4-0.3-0.4-0.5c0.1-0.5,1.6-0.4,3.3-1.1c0.6-0.2,2.1-0.8,2.3-1.8c0.2-0.8-0.5-1.5-0.8-1.7"/>
			<path class="st5" d="M-161.5,482.2c0.5-0.4,1.2-0.8,2.2-1.1c1.5-0.3,2.3,0.2,3.2-0.1c1.2-0.5,1.6-2.2,0.7-3.1
				c-0.2-0.2-0.4-0.3-0.4-0.5c0.1-0.5,1.6-0.4,3.3-1.1c0.6-0.2,2.1-0.8,2.3-1.8c0.2-0.8-0.5-1.5-0.8-1.7"/>
			<path class="st5" d="M-182.1,502.8c0.5-0.4,1.2-0.8,2.2-1.1c1.5-0.3,2.3,0.2,3.2-0.1c1.2-0.5,1.6-2.2,0.7-3.1
				c-0.2-0.2-0.4-0.3-0.4-0.5c0.1-0.5,1.6-0.4,3.3-1.1c0.6-0.2,2.1-0.8,2.3-1.8c0.2-0.8-0.5-1.5-0.8-1.7"/>
			<path class="st5" d="M-178.9,507.5c0.5-0.4,1.2-0.8,2.2-1.1c1.5-0.3,2.3,0.2,3.2-0.1c1.2-0.5,1.6-2.2,0.7-3.1
				c-0.2-0.2-0.4-0.3-0.4-0.5c0.1-0.5,1.6-0.4,3.3-1.1c0.6-0.2,2.1-0.8,2.3-1.8c0.2-0.8-0.5-1.5-0.8-1.7"/>
			<path class="st5" d="M-169.4,513.8c0.5-0.4,1.2-0.8,2.2-1.1c1.5-0.3,2.3,0.2,3.2-0.1c1.2-0.5,1.6-2.2,0.7-3.1
				c-0.2-0.2-0.4-0.3-0.4-0.5c0.1-0.5,1.6-0.4,3.3-1.1c0.6-0.2,2.1-0.8,2.3-1.8c0.2-0.8-0.5-1.5-0.8-1.7"/>
			<path class="st5" d="M-145.3,503.5c-0.7,0.4-2.3,1.1-4.2,0.5c-1.8-0.6-3-2.1-4-3.4c-1.4-1.9-1.5-2.8-2.8-5
				c-1.3-2.1-2.1-3.1-3.3-4c-1-0.7-1.5-0.7-1.9-1.5c-0.7-1.4,0.2-3.1,0.2-4.6c0-1.8-1-4.4-5.8-7.7c-0.2,0-1.8,0.4-3.1-1.2
				c-1.2-1.5-1.2-3.4-1.2-3.7"/>
			<path class="st5" d="M-158,509.9c-0.5,0.4-1.7,1.1-3.1,0.5c-1.4-0.6-2.2-2.1-2.9-3.4c-1-1.9-1.1-2.8-2.1-5c-1-2.1-1.5-3.1-2.4-4
				c-0.8-0.7-1.1-0.7-1.4-1.5c-0.5-1.4,0.1-3.1,0.2-4.6c0-1.8-0.7-4.4-4.3-7.7c-0.1,0-1.4,0.4-2.3-1.2c-0.9-1.5-0.9-3.4-0.9-3.7"/>
			<path class="st5" d="M-153.2,506.7c-0.5,0.4-1.7,1.1-3.1,0.5c-1.4-0.6-2.2-2.1-2.9-3.4c-1-1.9-1.1-2.8-2.1-5
				c-1-2.1-1.5-3.1-2.4-4c-0.8-0.7-1.1-0.7-1.4-1.5c-0.5-1.4,0.1-3.1,0.2-4.6c0-1.8-0.7-4.4-4.3-7.7c-0.1,0-1.4,0.4-2.3-1.2
				c-0.9-1.5-0.9-3.4-0.9-3.7"/>
			<path class="st5" d="M-145.3,503.5c-0.5,0.4-1.7,1.1-3.1,0.5c-1.4-0.6-2.2-2.1-2.9-3.4c-1-1.9-1.1-2.8-2.1-5
				c-1-2.1-1.5-3.1-2.4-4c-0.8-0.7-1.1-0.7-1.4-1.5c-0.5-1.4,0.1-3.1,0.2-4.6c0-1.8-0.7-4.4-4.3-7.7c-0.1,0-1.4,0.4-2.3-1.2
				c-0.9-1.5-0.9-3.4-0.9-3.7"/>
			<path class="st5" d="M-151.6,509.9c-0.9,0.4-2.8,1-5,0.5c-2.2-0.5-3.6-2-4.8-3.2c-1.7-1.7-1.8-2.6-3.4-4.6
				c-1.6-2-2.5-2.9-3.9-3.7c-1.2-0.6-1.8-0.6-2.3-1.3c-0.8-1.3,0.2-2.8,0.2-4.3c0-1.7-1.2-4-7-7.1c-0.2,0-2.2,0.3-3.8-1.1
				c-1.5-1.3-1.5-3.1-1.5-3.4"/>
			<path class="st5" d="M-183.7,499.6c0.5-0.4,1.2-0.8,2.2-1.1c1.5-0.3,2.3,0.2,3.2-0.1c1.2-0.5,1.6-2.2,0.7-3.1
				c-0.2-0.2-0.4-0.3-0.4-0.5c0.1-0.5,1.6-0.4,3.3-1.1c0.6-0.2,2.1-0.8,2.3-1.8c0.2-0.8-0.5-1.5-0.8-1.7"/>
			<path class="st5" d="M-164.7,479c0.5-0.4,1.2-0.8,2.2-1.1c1.5-0.3,2.3,0.2,3.2-0.1c1.2-0.5,1.6-2.2,0.7-3.1
				c-0.2-0.2-0.4-0.3-0.4-0.5c0.1-0.5,1.6-0.4,3.3-1.1c0.6-0.2,2.1-0.8,2.3-1.8c0.2-0.8-0.5-1.5-0.8-1.7"/>
			<path class="st5" d="M-142.8,487.2c-0.3-0.5-0.6-1.3-0.6-2.4c0-1.6,0.7-2.2,0.5-3.2c-0.3-1.3-1.8-2-2.9-1.3
				c-0.3,0.2-0.4,0.4-0.6,0.3c-0.4-0.2-0.1-1.7-0.4-3.5c-0.1-0.7-0.4-2.2-1.3-2.6c-0.7-0.3-1.5,0.2-1.8,0.5"/>
			<path class="st5" d="M-144.7,487.9c-0.4-0.5-0.9-1.2-1.1-2.2c-0.3-1.5,0.2-2.3-0.2-3.2c-0.5-1.2-2.2-1.6-3.1-0.7
				c-0.2,0.2-0.3,0.4-0.5,0.4c-0.5-0.1-0.4-1.6-1.1-3.3c-0.3-0.6-0.8-2.1-1.8-2.3c-0.8-0.2-1.5,0.5-1.7,0.8"/>
			<path class="st5" d="M-146.3,492.7c-0.4-0.5-0.9-1.2-1.1-2.2c-0.3-1.5,0.2-2.3-0.2-3.2c-0.5-1.2-2.2-1.6-3.1-0.7
				c-0.2,0.2-0.3,0.4-0.5,0.4c-0.5-0.1-0.4-1.6-1.1-3.3c-0.3-0.6-0.8-2.1-1.8-2.3c-0.8-0.2-1.5,0.5-1.7,0.8"/>
			<path class="st5" d="M-154.2,505.4c-0.4-0.5-0.9-1.2-1.1-2.2c-0.3-1.5,0.2-2.3-0.2-3.2c-0.5-1.2-2.2-1.6-3.1-0.7
				c-0.2,0.2-0.3,0.4-0.5,0.4c-0.5-0.1-0.4-1.6-1.1-3.3c-0.3-0.6-0.8-2.1-1.8-2.3c-0.8-0.2-1.5,0.5-1.7,0.8"/>
			<path class="st5" d="M-173.2,511.7c-0.4-0.5-0.9-1.2-1.1-2.2c-0.3-1.5,0.2-2.3-0.2-3.2c-0.5-1.2-2.2-1.6-3.1-0.7
				c-0.2,0.2-0.3,0.4-0.5,0.4c-0.5-0.1-0.4-1.6-1.1-3.3c-0.3-0.6-0.8-2.1-1.8-2.3c-0.8-0.2-1.5,0.5-1.7,0.8"/>
			<path class="st5" d="M-163.7,514.9c-0.4-0.5-0.9-1.2-1.1-2.2c-0.3-1.5,0.2-2.3-0.2-3.2c-0.5-1.2-2.2-1.6-3.1-0.7
				c-0.2,0.2-0.3,0.4-0.5,0.4c-0.5-0.1-0.4-1.6-1.1-3.3c-0.3-0.6-0.8-2.1-1.8-2.3c-0.8-0.2-1.5,0.5-1.7,0.8"/>
		</g>
	</g>
</g>
</svg>
