<?xml version="1.0" encoding="utf-8"?>
<!-- Generator: Adobe Illustrator 19.0.1, SVG Export Plug-In . SVG Version: 6.00 Build 0)  -->
<svg version="1.1" id="hamimelon" xmlns="http://www.w3.org/2000/svg" xmlns:xlink="http://www.w3.org/1999/xlink" x="0px" y="0px"
	 viewBox="0 0 50 50" style="enable-background:new 0 0 50 50;" xml:space="preserve">
<style type="text/css">
	.st0{fill:#8D9872;}
	.st1{filter:url(#Adobe_OpacityMaskFilter);}
	.st2{fill:#FFFFFF;}
	.st3{mask:url(#SVGID_1_);fill:#5F624E;}
	.st4{fill:#BCB89F;}
	.st5{fill:none;stroke:#D6CCAF;stroke-miterlimit:10;}
</style>
<g>
	<g>
		<path class="st0" d="M7.6,9c2.2-0.4,4.6-0.8,7.1-1.1C18,7.5,21.1,7.2,24,7.1c2.2-0.9,4.4-1.8,6.7-2.7c2.8-1.1,5.6-2.2,8.3-3.2
			c0.1,0,0.5,0.2,0.8,0.6c0.3,0.4,0.3,1,0,1.5c0,0-10.9,4.3-11.5,5.6c-0.1,0.5-0.3,1-0.3,1.6c-0.1,1.1,0.1,2.1,0.2,2.8
			c-1.5,0-3,0-4.4,0.1c0.1-0.7,0.1-1.5,0-2.5c-0.1-0.6-0.2-1.2-0.4-1.7c-2.1,0.1-4.2,0.2-6.3,0.3c-3.2,0.2-6.3,0.6-9.2,0.9
			C7.9,10.6,7.1,10,7.6,9z"/>
		<defs>
			<filter id="Adobe_OpacityMaskFilter" filterUnits="userSpaceOnUse" x="7.4" y="1.2" width="32.6" height="12.2">
				
					<feColorMatrix  type="matrix" values="-1 0 0 0 1  0 -1 0 0 1  0 0 -1 0 1  0 0 0 1 0" color-interpolation-filters="sRGB" result="source"/>
				<feFlood  style="flood-color:white;flood-opacity:1" result="back"/>
				<feBlend  in="source" in2="back" mode="normal"/>
			</filter>
		</defs>
		<mask maskUnits="userSpaceOnUse" x="7.4" y="1.2" width="32.6" height="12.2" id="SVGID_1_">
			<g class="st1">
				
					<rect x="6.4" y="1.1" transform="matrix(0.8185 -0.5745 0.5745 0.8185 -1.161727e-02 12.7935)" class="st2" width="27.7" height="10.7"/>
			</g>
		</mask>
		<path class="st3" d="M7.6,9c2.2-0.4,4.6-0.8,7.1-1.1C18,7.5,21.1,7.2,24,7.1c2.2-0.9,4.4-1.8,6.7-2.7c2.8-1.1,5.6-2.2,8.3-3.2
			c0.1,0,0.5,0.2,0.8,0.6c0.3,0.4,0.3,1,0,1.5c0,0-10.9,4.3-11.5,5.6c-0.1,0.5-0.3,1-0.3,1.6c-0.1,1.1,0.1,2.1,0.2,2.8
			c-1.5,0-3,0-4.4,0.1c0.1-0.7,0.1-1.5,0-2.5c-0.1-0.6-0.2-1.2-0.4-1.7c-2.1,0.1-4.2,0.2-6.3,0.3c-3.2,0.2-6.3,0.6-9.2,0.9
			C7.9,10.6,7.1,10,7.6,9z"/>
	</g>
	<g>
		<path class="st4" d="M25.9,48.6c-4.8,0-9.3-1.9-12.6-5.2C9.8,40,8,35.5,8,30.8c0-4.8,1.9-9.3,5.2-12.6c3.4-3.4,7.9-5.2,12.6-5.2
			c4.8,0,9.3,1.9,12.6,5.2c3.4,3.4,5.2,7.9,5.2,12.6c0,4.8-1.9,9.3-5.2,12.6C35.1,46.8,30.6,48.6,25.9,48.6z"/>
		<path class="st5" d="M11,23.4c1.1,0.6,2.7,1.3,4.7,1.6c3,0.5,4.6-0.3,6.4-0.2c2.2,0.2,5.1,1.9,8.3,8.7c0.3,0.3,0.7,0.7,1,1.4
			c0.5,0.9,0.6,1.6,0.7,2.2c0.4,2,0.6,3.8,0.7,4.9"/>
		<path class="st5" d="M14.5,18.7c0.6,0.3,1.3,0.6,2.1,0.8c2.7,0.8,5.1,0.4,6.5,0c2.2,0.2,4,0.3,5.1,0.5c4.4,0.4,4.9,0.5,6,0.3
			c0.7-0.2,1.6-0.5,3.1-0.5c0.9,0,1.6,0,2.1,0.1"/>
		<path class="st5" d="M15.7,41.9c0.7,0.3,2.1,0.8,3.7,0.4c1.6-0.4,2.7-1.5,3.5-2.4c1.2-1.3,1.3-2,2.5-3.5c1.2-1.5,1.8-2.2,2.9-2.7
			c0.9-0.5,1.4-0.5,1.7-1c0.6-1-0.2-2.1-0.2-3.2c0-1.2,0.9-3,5.2-5.3c0.2,0,1.6,0.3,2.8-0.8c1.1-1,1.1-2.3,1.1-2.5"/>
		<path class="st5" d="M8.6,32.7c0.6,0.2,1.4,0.4,1.9,0c0.4-0.3,0.3-0.7,0.6-1c0.5-0.6,1.4-0.4,4.1-0.1c1.9,0.2,2.5,0.2,3-0.2
			c0.5-0.3,0.5-0.7,1-1.4c0.6-0.9,1.2-1.1,2.9-2.2c3.1-1.9,2.8-2.3,4.2-2.7c1.6-0.5,2.7-0.2,2.8-0.6c0.1-0.6-1.9-0.9-2.2-2.2
			c-0.4-1.9,4-4.3,4.7-4.7c1.3-0.7,2.5-1.1,3.3-1.4"/>
		<path class="st5" d="M16,27.8c0.6,0.8,1.6,1.8,3,2.2c2.1,0.6,3.1-0.5,4.4,0.3c1.6,1,2.2,4.5,1,6.5c-0.3,0.5-0.6,0.7-0.5,1.1
			c0.1,1,2.2,0.8,4.5,2.2c0.9,0.5,2.9,1.7,3.2,3.7c0.3,1.6-0.7,3-1.1,3.5"/>
		<path class="st5" d="M9.8,37.1c0.4,0.3,1.3,0.8,2.3,0.4c1-0.4,1.7-1.6,2.2-2.6c0.8-1.4,0.8-2.1,1.6-3.8c0.7-1.6,1.1-2.3,1.8-3
			c0.6-0.5,0.9-0.5,1.1-1.1c0.4-1-0.1-2.3-0.1-3.5c0-1.3,0.5-3.3,3.2-5.7c0.1,0,1,0.3,1.7-0.9c0.7-1.1,0.7-2.5,0.7-2.8"/>
		<path class="st5" d="M19.3,46.6c0.7,0.3,2.1,0.8,3.7,0.4c1.6-0.4,2.7-1.5,3.5-2.4c1.2-1.3,1.3-2,2.5-3.5c1.2-1.5,1.8-2.2,2.9-2.7
			c0.9-0.5,1.4-0.5,1.7-1c0.6-1-0.2-2.1-0.2-3.2c0-1.2,0.9-3,5.2-5.3c0.2,0,1.6,0.3,2.8-0.8c1.1-1,1.1-2.3,1.1-2.5"/>
		<path class="st5" d="M41.8,25.5c-0.5,0.9-1,2.1-0.9,3.6c0.2,2.2,1.6,2.7,1.3,4.2c-0.4,1.9-3.4,3.7-5.7,3.3
			c-0.6-0.1-0.9-0.3-1.2-0.1c-0.8,0.5,0.1,2.4-0.4,5c-0.2,1-0.5,3.3-2.3,4.3c-1.4,0.8-3.1,0.5-3.7,0.3"/>
		<path class="st5" d="M24.3,13.6c0.6,0.8,1.6,1.8,3,2.2c2.1,0.6,3.1-0.5,4.4,0.3c1.6,1,2.2,4.5,1,6.5c-0.3,0.5-0.6,0.7-0.5,1.1
			c0.1,1,2.2,0.8,4.5,2.2c0.9,0.5,2.9,1.7,3.2,3.7c0.3,1.6-0.7,3-1.1,3.5"/>
		<path class="st5" d="M18.4,19.5c0.6,0.8,1.6,1.8,3,2.2c2.1,0.6,3.1-0.5,4.4,0.3c1.6,1,2.2,4.5,1,6.5c-0.3,0.5-0.6,0.7-0.5,1.1
			c0.1,1,2.2,0.8,4.5,2.2c0.9,0.5,2.9,1.7,3.2,3.7c0.3,1.6-0.7,3-1.1,3.5"/>
		<path class="st5" d="M8.9,28.9c0.6,0.8,1.6,1.8,3,2.2c2.1,0.6,3.1-0.5,4.4,0.3c1.6,1,2.2,4.5,1,6.5c-0.3,0.5-0.6,0.7-0.5,1.1
			c0.1,1,2.2,0.8,4.5,2.2c0.9,0.5,2.9,1.7,3.2,3.7c0.3,1.6-0.7,3-1.1,3.5"/>
		<path class="st5" d="M11.3,25.4c0.6,0.8,1.6,1.8,3,2.2c2.1,0.6,3.1-0.5,4.4,0.3c1.6,1,2.2,4.5,1,6.5c-0.3,0.5-0.6,0.7-0.5,1.1
			c0.1,1,2.2,0.8,4.5,2.2c0.9,0.5,2.9,1.7,3.2,3.7c0.3,1.6-0.7,3-1.1,3.5"/>
		<path class="st5" d="M12.5,20.7c0.6,0.8,1.6,1.8,3,2.2c2.1,0.6,3.1-0.5,4.4,0.3c1.6,1,2.2,4.5,1,6.5c-0.3,0.5-0.6,0.7-0.5,1.1
			c0.1,1,2.2,0.8,4.5,2.2c0.9,0.5,2.9,1.7,3.2,3.7c0.3,1.6-0.7,3-1.1,3.5"/>
		<path class="st5" d="M23.1,16c0.6,0.8,1.6,1.8,3,2.2c2.1,0.6,3.1-0.5,4.4,0.3c1.6,1,2.2,4.5,1,6.5c-0.3,0.5-0.6,0.7-0.5,1.1
			c0.1,1,2.2,0.8,4.5,2.2c0.9,0.5,2.9,1.7,3.2,3.7c0.3,1.6-0.7,3-1.1,3.5"/>
		<path class="st5" d="M18.4,19.5c0.6,0.8,1.6,1.8,3,2.2c2.1,0.6,3.1-0.5,4.4,0.3c1.6,1,2.2,4.5,1,6.5c-0.3,0.5-0.6,0.7-0.5,1.1
			c0.1,1,2.2,0.8,4.5,2.2c0.9,0.5,2.9,1.7,3.2,3.7c0.3,1.6-0.7,3-1.1,3.5"/>
		<path class="st5" d="M27.8,13.6c0.6,0.8,1.6,1.8,3,2.2c2.1,0.6,3.1-0.5,4.4,0.3c1.6,1,2.2,4.5,1,6.5c-0.3,0.5-0.6,0.7-0.5,1.1
			c0.1,1,2.2,0.8,4.5,2.2c0.9,0.5,2.9,1.7,3.2,3.7c0.3,1.6-0.7,3-1.1,3.5"/>
		<path class="st5" d="M19.5,44.8c-0.3-0.3-0.9-0.6-1.6-0.8c-1.1-0.2-1.7,0.2-2.4-0.1c-0.9-0.4-1.2-1.6-0.5-2.3
			c0.2-0.2,0.3-0.3,0.3-0.4c-0.1-0.3-1.2-0.3-2.5-0.8c-0.5-0.2-1.6-0.6-1.7-1.3c-0.1-0.6,0.4-1.1,0.6-1.3"/>
		<path class="st5" d="M19.5,40.1c-0.3-0.3-0.9-0.6-1.6-0.8c-1.1-0.2-1.7,0.2-2.4-0.1c-0.9-0.4-1.2-1.6-0.5-2.3
			c0.2-0.2,0.3-0.3,0.3-0.4c-0.1-0.3-1.2-0.3-2.5-0.8c-0.5-0.2-1.6-0.6-1.7-1.3c-0.1-0.6,0.4-1.1,0.6-1.3"/>
		<path class="st5" d="M18.4,33c-0.3-0.3-0.9-0.6-1.6-0.8c-1.1-0.2-1.7,0.2-2.4-0.1c-0.9-0.4-1.2-1.6-0.5-2.3
			c0.2-0.2,0.3-0.3,0.3-0.4c-0.1-0.3-1.2-0.3-2.5-0.8c-0.5-0.2-1.6-0.6-1.7-1.3c-0.1-0.6,0.4-1.1,0.6-1.3"/>
		<path class="st5" d="M25.4,23.5c-0.3-0.3-0.9-0.6-1.6-0.8c-1.1-0.2-1.7,0.2-2.4-0.1c-0.9-0.4-1.2-1.6-0.5-2.3
			c0.2-0.2,0.3-0.3,0.3-0.4c-0.1-0.3-1.2-0.3-2.5-0.8c-0.5-0.2-1.6-0.6-1.7-1.3c-0.1-0.6,0.4-1.1,0.6-1.3"/>
		<path class="st5" d="M40.8,38.9c-0.3-0.3-0.9-0.6-1.6-0.8c-1.1-0.2-1.7,0.2-2.4-0.1c-0.9-0.4-1.2-1.6-0.5-2.3
			c0.2-0.2,0.3-0.3,0.3-0.4c-0.1-0.3-1.2-0.3-2.5-0.8c-0.5-0.2-1.6-0.6-1.7-1.3c-0.1-0.6,0.4-1.1,0.6-1.3"/>
		<path class="st5" d="M38.4,42.4c-0.3-0.3-0.9-0.6-1.6-0.8c-1.1-0.2-1.7,0.2-2.4-0.1c-0.9-0.4-1.2-1.6-0.5-2.3
			c0.2-0.2,0.3-0.3,0.3-0.4c-0.1-0.3-1.2-0.3-2.5-0.8c-0.5-0.2-1.6-0.6-1.7-1.3c-0.1-0.6,0.4-1.1,0.6-1.3"/>
		<path class="st5" d="M31.4,47.2c-0.3-0.3-0.9-0.6-1.6-0.8c-1.1-0.2-1.7,0.2-2.4-0.1c-0.9-0.4-1.2-1.6-0.5-2.3
			c0.2-0.2,0.3-0.3,0.3-0.4c-0.1-0.3-1.2-0.3-2.5-0.8c-0.5-0.2-1.6-0.6-1.7-1.3c-0.1-0.6,0.4-1.1,0.6-1.3"/>
		<path class="st5" d="M13.4,39.5c0.5,0.3,1.7,0.8,3.1,0.4c1.4-0.4,2.2-1.6,3-2.6c1-1.4,1.1-2.1,2.1-3.8c1-1.6,1.5-2.3,2.4-3
			c0.8-0.5,1.1-0.5,1.4-1.1c0.5-1-0.1-2.3-0.2-3.5c0-1.3,0.7-3.3,4.3-5.7c0.1,0,1.4,0.3,2.3-0.9c0.9-1.1,0.9-2.5,0.9-2.8"/>
		<path class="st5" d="M22.8,44.2c0.4,0.3,1.3,0.8,2.3,0.4c1-0.4,1.7-1.6,2.2-2.6c0.8-1.4,0.8-2.1,1.6-3.8c0.7-1.6,1.1-2.3,1.8-3
			c0.6-0.5,0.9-0.5,1.1-1.1c0.4-1-0.1-2.3-0.1-3.5c0-1.3,0.5-3.3,3.2-5.7c0.1,0,1,0.3,1.7-0.9c0.7-1.1,0.7-2.5,0.7-2.8"/>
		<path class="st5" d="M19.3,41.8c0.4,0.3,1.3,0.8,2.3,0.4c1-0.4,1.7-1.6,2.2-2.6c0.8-1.4,0.8-2.1,1.6-3.8c0.7-1.6,1.1-2.3,1.8-3
			c0.6-0.5,0.9-0.5,1.1-1.1c0.4-1-0.1-2.3-0.1-3.5c0-1.3,0.5-3.3,3.2-5.7c0.1,0,1,0.3,1.7-0.9c0.7-1.1,0.7-2.5,0.7-2.8"/>
		<path class="st5" d="M13.4,39.5c0.4,0.3,1.3,0.8,2.3,0.4c1-0.4,1.7-1.6,2.2-2.6c0.8-1.4,0.8-2.1,1.6-3.8c0.7-1.6,1.1-2.3,1.8-3
			c0.6-0.5,0.9-0.5,1.1-1.1c0.4-1-0.1-2.3-0.1-3.5c0-1.3,0.5-3.3,3.2-5.7c0.1,0,1,0.3,1.7-0.9c0.7-1.1,0.7-2.5,0.7-2.8"/>
		<path class="st5" d="M18.1,44.2c0.7,0.3,2.1,0.8,3.7,0.4c1.6-0.4,2.7-1.5,3.5-2.4c1.2-1.3,1.3-2,2.5-3.5c1.2-1.5,1.8-2.2,2.9-2.7
			c0.9-0.5,1.4-0.5,1.7-1c0.6-1-0.2-2.1-0.2-3.2c0-1.2,0.9-3,5.2-5.3c0.2,0,1.6,0.3,2.8-0.8c1.1-1,1.1-2.3,1.1-2.5"/>
		<path class="st5" d="M42,36.5c-0.3-0.3-0.9-0.6-1.6-0.8c-1.1-0.2-1.7,0.2-2.4-0.1c-0.9-0.4-1.2-1.6-0.5-2.3
			c0.2-0.2,0.3-0.3,0.3-0.4c-0.1-0.3-1.2-0.3-2.5-0.8c-0.5-0.2-1.6-0.6-1.7-1.3c-0.1-0.6,0.4-1.1,0.6-1.3"/>
		<path class="st5" d="M27.8,21.2c-0.3-0.3-0.9-0.6-1.6-0.8c-1.1-0.2-1.7,0.2-2.4-0.1c-0.9-0.4-1.2-1.6-0.5-2.3
			c0.2-0.2,0.3-0.3,0.3-0.4c-0.1-0.3-1.2-0.3-2.5-0.8c-0.5-0.2-1.6-0.6-1.7-1.3c-0.1-0.6,0.4-1.1,0.6-1.3"/>
		<path class="st5" d="M11.5,27.3c0.2-0.4,0.4-1,0.5-1.8c0-1.2-0.5-1.6-0.4-2.4c0.2-1,1.4-1.5,2.2-1c0.2,0.1,0.3,0.3,0.4,0.2
			c0.3-0.1,0-1.3,0.3-2.6c0.1-0.5,0.3-1.7,1-2c0.6-0.3,1.1,0.2,1.4,0.3"/>
		<path class="st5" d="M12.9,27.8c0.3-0.3,0.6-0.9,0.8-1.6c0.2-1.1-0.2-1.7,0.1-2.4c0.4-0.9,1.6-1.2,2.3-0.5
			c0.2,0.2,0.3,0.3,0.4,0.3c0.3-0.1,0.3-1.2,0.8-2.5c0.2-0.5,0.6-1.6,1.4-1.7c0.6-0.1,1.1,0.4,1.3,0.6"/>
		<path class="st5" d="M14.1,31.4c0.3-0.3,0.6-0.9,0.8-1.6c0.2-1.1-0.2-1.7,0.1-2.4c0.4-0.9,1.6-1.2,2.3-0.5
			c0.2,0.2,0.3,0.3,0.4,0.3c0.3-0.1,0.3-1.2,0.8-2.5c0.2-0.5,0.6-1.6,1.4-1.7c0.6-0.1,1.1,0.4,1.3,0.6"/>
		<path class="st5" d="M20,40.8c0.3-0.3,0.6-0.9,0.8-1.6c0.2-1.1-0.2-1.7,0.1-2.4c0.4-0.9,1.6-1.2,2.3-0.5c0.2,0.2,0.3,0.3,0.4,0.3
			c0.3-0.1,0.3-1.2,0.8-2.5c0.2-0.5,0.6-1.6,1.4-1.7c0.6-0.1,1.1,0.4,1.3,0.6"/>
		<path class="st5" d="M34.2,45.5c0.3-0.3,0.6-0.9,0.8-1.6c0.2-1.1-0.2-1.7,0.1-2.4c0.4-0.9,1.6-1.2,2.3-0.5
			c0.2,0.2,0.3,0.3,0.4,0.3c0.3-0.1,0.3-1.2,0.8-2.5c0.2-0.5,0.6-1.6,1.4-1.7c0.6-0.1,1.1,0.4,1.3,0.6"/>
		<path class="st5" d="M27.1,47.9c0.3-0.3,0.6-0.9,0.8-1.6c0.2-1.1-0.2-1.7,0.1-2.4c0.4-0.9,1.6-1.2,2.3-0.5
			c0.2,0.2,0.3,0.3,0.4,0.3c0.3-0.1,0.3-1.2,0.8-2.5c0.2-0.5,0.6-1.6,1.4-1.7c0.6-0.1,1.1,0.4,1.3,0.6"/>
	</g>
</g>
</svg>
