<?xml version="1.0" encoding="utf-8"?>
<!-- Generator: Adobe Illustrator 19.0.1, SVG Export Plug-In . SVG Version: 6.00 Build 0)  -->
<svg version="1.1" id="圖層_1" xmlns="http://www.w3.org/2000/svg" xmlns:xlink="http://www.w3.org/1999/xlink" x="0px" y="0px"
	 viewBox="455 -455 960 960" style="enable-background:new 455 -455 960 960;" xml:space="preserve">
<style type="text/css">
	.st0{fill:#825012;}
	.st1{opacity:0.15;fill:#FFFFFF;enable-background:new    ;}
</style>
<g id="basex3">
	<rect x="455" y="-455" class="st0" width="960" height="960"/>
</g>
<g id="灰土x2">
	<g>
		<g>
			<polygon class="st1" points="782.7,226 755.7,188.6 784.3,136.2 757.3,98.8 730.3,61.5 758.7,24 787.1,-13.5 760.1,-50.9 
				788.8,-103.3 761.8,-140.7 734.8,-178 763.1,-215.5 791.5,-253 764.5,-290.4 793.2,-342.8 766.2,-380.2 739.2,-417.5 767.6,-455 
				656.8,-454.7 628.4,-417.1 655.1,-364.8 654.3,-319.9 653.5,-275 680.7,-252.7 652.3,-215.2 623.9,-177.7 650.7,-125.4 
				649.8,-80.4 649,-35.5 676.3,-13.2 647.9,24.3 619.5,61.8 646.2,114.1 645.4,159 644.6,203.9 671.9,226.3 643.5,263.8 
				615.1,301.3 641.8,353.6 641,398.5 640.1,443.4 667.4,465.8 639,503.3 749.8,503 778.2,465.5 751.2,428.1 779.9,375.6 
				752.9,338.3 725.9,301 754.3,263.5 			"/>
		</g>
		<g>
			<polygon class="st1" points="854.4,226 827.4,188.6 856.1,136.2 829,98.8 802,61.5 830.4,24 858.8,-13.5 831.8,-50.9 
				860.5,-103.3 833.5,-140.7 806.5,-178 834.9,-215.5 863.3,-253 836.2,-290.4 864.9,-342.8 837.9,-380.2 810.9,-417.5 839.3,-455 
				728.5,-454.7 700.1,-417.1 726.8,-364.8 726,-319.9 725.2,-275 752.5,-252.7 724.1,-215.2 695.7,-177.7 722.4,-125.4 
				721.6,-80.4 720.7,-35.5 748,-13.2 719.6,24.3 691.2,61.8 718,114.1 717.1,159 716.3,203.9 743.6,226.3 715.2,263.8 686.8,301.3 
				713.5,353.6 712.7,398.5 711.9,443.4 739.1,465.8 710.8,503.3 821.6,503 850,465.5 822.9,428.1 851.6,375.6 824.6,338.3 
				797.6,301 826,263.5 			"/>
		</g>
	</g>
	<g>
		<g>
			<polygon class="st1" points="1166.5,227.3 1139.5,190 1168.2,137.5 1141.2,100.2 1114.2,62.8 1142.6,25.3 1171,-12.2 1144,-49.5 
				1172.6,-102 1145.6,-139.3 1118.6,-176.7 1147,-214.2 1175.4,-251.7 1148.4,-289 1177.1,-341.5 1150.1,-378.8 1123,-416.1 
				1151.4,-453.7 1040.6,-453.3 1012.2,-415.8 1039,-363.5 1038.1,-318.6 1037.3,-273.7 1064.6,-251.3 1036.2,-213.8 1007.8,-176.3 
				1034.5,-124 1033.7,-79.1 1032.9,-34.2 1060.2,-11.8 1031.8,25.7 1003.4,63.2 1030.1,115.5 1029.3,160.4 1028.4,205.3 
				1055.7,227.7 1027.3,265.2 998.9,302.7 1025.7,355 1024.8,399.9 1024,444.8 1051.3,467.1 1022.9,504.7 1133.7,504.3 
				1162.1,466.8 1135.1,429.5 1163.8,377 1136.7,339.7 1109.7,302.3 1138.1,264.8 			"/>
		</g>
		<g>
			<polygon class="st1" points="1238.2,227.3 1211.2,190 1239.9,137.5 1212.9,100.2 1185.9,62.8 1214.3,25.3 1242.7,-12.2 
				1215.7,-49.5 1244.3,-102 1217.3,-139.3 1190.3,-176.7 1218.7,-214.2 1247.1,-251.7 1220.1,-289 1248.8,-341.5 1221.8,-378.8 
				1194.8,-416.1 1223.2,-453.7 1112.4,-453.3 1084,-415.8 1110.7,-363.5 1109.9,-318.6 1109,-273.7 1136.3,-251.3 1107.9,-213.8 
				1079.5,-176.3 1106.3,-124 1105.4,-79.1 1104.6,-34.2 1131.9,-11.8 1103.5,25.7 1075.1,63.2 1101.8,115.5 1101,160.4 
				1100.2,205.3 1127.4,227.7 1099,265.2 1070.7,302.7 1097.4,355 1096.6,399.9 1095.7,444.8 1123,467.1 1094.6,504.7 1205.4,504.3 
				1233.8,466.8 1206.8,429.5 1235.5,377 1208.5,339.7 1181.5,302.3 1209.9,264.8 			"/>
		</g>
	</g>
</g>
</svg>
