<?xml version="1.0" encoding="utf-8"?>
<!-- Generator: Adobe Illustrator 19.0.1, SVG Export Plug-In . SVG Version: 6.00 Build 0)  -->
<svg version="1.1" id="lemon_x5F_seed" xmlns="http://www.w3.org/2000/svg" xmlns:xlink="http://www.w3.org/1999/xlink" x="0px"
	 y="0px" viewBox="-223 225 512 512" style="enable-background:new -223 225 512 512;" xml:space="preserve">
<style type="text/css">
	.st0{fill:#D39C62;}
	.st1{fill:#A07547;stroke:#D3B092;stroke-width:0.25;stroke-miterlimit:10;}
</style>
<g>
	<path class="st0" d="M43.9,453.8c0.1,1.4,0.3,3.5-1.1,5.1c-2.1,2.6-6.4,1.8-7,1.7c-1-0.2-3.9-0.9-7.5-5.1
		c-5.1-6.2-7.8-15.3-5.5-16.8c0.9-0.6,1.8,0.5,7.7,3c6.6,2.8,7.7,2.4,9.8,4.5C40.7,446.6,43.6,449.5,43.9,453.8z"/>
	<line class="st1" x1="27.3" y1="446.7" x2="36.1" y2="456.8"/>
	<line class="st1" x1="30.4" y1="446.1" x2="39.1" y2="456.2"/>
</g>
<g>
	<path class="st0" d="M41.5,638.9c0.1,1.4,0.3,3.5-1.1,5.1c-2.1,2.6-6.4,1.8-7,1.7c-1-0.2-3.9-0.9-7.5-5.1
		c-5.1-6.2-7.8-15.3-5.5-16.8c0.9-0.6,1.8,0.5,7.7,3c6.6,2.8,7.7,2.4,9.8,4.5C38.3,631.7,41.2,634.6,41.5,638.9z"/>
	<line class="st1" x1="24.9" y1="631.8" x2="33.7" y2="641.9"/>
	<line class="st1" x1="28" y1="631.2" x2="36.7" y2="641.3"/>
</g>
<g>
	<path class="st0" d="M204.6,546.7c0.1,1.4,0.3,3.5-1.1,5.1c-2.1,2.6-6.4,1.8-7,1.7c-1-0.2-3.9-0.9-7.5-5.1
		c-5.1-6.2-7.8-15.3-5.5-16.8c0.9-0.6,1.8,0.5,7.7,3c6.6,2.8,7.7,2.4,9.8,4.5C201.4,539.4,204.3,542.3,204.6,546.7z"/>
	<line class="st1" x1="188" y1="539.6" x2="196.8" y2="549.7"/>
	<line class="st1" x1="191.1" y1="538.9" x2="199.8" y2="549"/>
</g>
<g>
	<path class="st0" d="M-120.1,546.7c0.1,1.4,0.3,3.5-1.1,5.1c-2.1,2.6-6.4,1.8-7,1.7c-1-0.2-3.9-0.9-7.5-5.1
		c-5.1-6.2-7.8-15.3-5.5-16.8c0.9-0.6,1.8,0.5,7.7,3c6.6,2.8,7.7,2.4,9.8,4.5C-123.2,539.5-120.4,542.3-120.1,546.7z"/>
	<line class="st1" x1="-136.6" y1="539.6" x2="-127.9" y2="549.7"/>
	<line class="st1" x1="-133.6" y1="538.9" x2="-124.8" y2="549"/>
</g>
</svg>
