<?xml version="1.0" encoding="utf-8"?>
<!-- Generator: Adobe Illustrator 19.0.1, SVG Export Plug-In . SVG Version: 6.00 Build 0)  -->
<svg version="1.1" id="lemon_x5F_harvest" xmlns="http://www.w3.org/2000/svg" xmlns:xlink="http://www.w3.org/1999/xlink" x="0px"
	 y="0px" viewBox="-223 225 512 512" style="enable-background:new -223 225 512 512;" xml:space="preserve">
<style type="text/css">
	.st0{fill:#81C784;}
	.st1{fill:#4CAF50;}
	.st2{fill:#A2E0A2;}
	.st3{fill:#58BC58;}
	.st4{fill:#63963C;}
	.st5{fill:#91DC5A;}
</style>
<g>
	<g>
		<g>
			<g>
				<path class="st0" d="M-144,503.6c-6-37.6-23.2-43.9-56.8-38.6C-194.9,501.3-171.1,508-144,503.6"/>
				<path class="st0" d="M-110.6,507.2c-5-31.6,8.2-40,34.6-44.2C-70.6,493.6-83.3,502.9-110.6,507.2"/>
				<path class="st0" d="M-121.4,383.9c11,21.6-5.1,37.7-19,41.7C-153.4,411.7-149.1,392.3-121.4,383.9"/>
				<path class="st0" d="M-148.9,453.8c-24.3,3.9-30.9-7-34.1-27.3C-159.5,422.4-152.3,432.8-148.9,453.8"/>
				<path class="st0" d="M-123.9,461.7c26.5-4.2,37.3-9,31.7-43.8C-118.6,422.2-129.4,427-123.9,461.7"/>
			</g>
			<path class="st1" d="M-93.5,485.5c-0.9-1.4-2.7-1.8-4.1-0.9c-8.3,5.3-12.6,13.7-15.7,21.3c-3.2,4.8-6.7,10.3-9.8,16.7l-6.2-39.1
				c-0.6-3.9,2.6-12,7.9-20.1c0.3-0.4,0.6-1,1.1-1.7c2.6-4.1,8.1-12.5,13.2-18.1c1.1-1.2,1-3.1-0.2-4.2c-1.2-1.1-3.1-1-4.2,0.2
				c-5.5,6-11.2,14.7-13.9,18.9l-1.1,1.6c-1.1,1.7-3.3,5.2-5.3,9.3l-5.2-32.3c-1.6-10.5-0.8-17.2,3-25.7c0.7-1.5,0-3.2-1.5-3.9
				c-1.5-0.7-3.2,0-3.9,1.5c-4.3,9.5-5.2,17.3-3.5,29c0,0,0,0,0,0c0,0,0,0,0,0l3.3,20.4c-3.6-3.7-7.1-6.3-7.8-6.8l-13.6-10.7
				c-1.3-1-3.1-0.8-4.1,0.5c-1,1.3-0.8,3.1,0.5,4.1l13.7,10.8c3.5,2.5,12.7,10.4,13.7,16.5l5.9,36.9c-3.2-2.9-6-4.8-8.4-6.4
				c-1-0.6-1.8-1.2-2.5-1.8c-9.9-11-19.1-17.6-28.1-20.1c-1.6-0.4-3.2,0.5-3.6,2c-0.4,1.6,0.5,3.2,2,3.6c8,2.2,16.3,8.3,25.5,18.6
				c0.1,0.1,0.2,0.2,0.3,0.3c0,0,0.1,0.1,0.1,0.1c0.9,0.7,1.9,1.3,3,2.1c3.5,2.4,8.2,5.6,13.3,11.9l5,31.1c0.3,1.6,1.8,2.7,3.4,2.4
				c1.6-0.3,2.7-1.8,2.4-3.4l-2.7-16.7c3.5-10.1,8.6-18,13.1-24.6c0,0,0-0.1,0.1-0.1c0.1-0.1,0.2-0.3,0.2-0.4
				c2.7-6.8,6.5-14.3,13.5-18.8C-93.1,488.6-92.7,486.8-93.5,485.5"/>
		</g>
	</g>
	<g>
		<g>
			<g>
				<path class="st2" d="M-141.9,502.9c5.9-33.6-6.9-44-36.9-49.3C-184.5,486.1-166.3,498.6-141.9,502.9"/>
				<path class="st2" d="M-114.7,515.6c4.9-28.3,18.6-31.5,42.3-27.4C-76.8,515.7-90.3,519.9-114.7,515.6"/>
				<path class="st2" d="M-87.9,407.9c3.1,21.6-15.3,30.5-28.3,29.9C-123.2,422.1-113.8,406.9-87.9,407.9"/>
				<path class="st2" d="M-131.6,459.2c-21.8-3.8-24.2-14.9-21-33.1C-131.5,429.4-128.4,440.3-131.6,459.2"/>
				<path class="st2" d="M-112.7,473.2c23.7,4.1,34.2,3.2,39.7-27.9C-96.7,441.2-107.3,442.1-112.7,473.2"/>
			</g>
			<path class="st3" d="M-93.9,502.2c-0.3-1.4-1.8-2.3-3.2-1.9c-8.6,2.1-14.7,8-19.5,13.5c-4.1,3.1-8.7,6.7-13.2,11.3l6.1-35
				c0.6-3.5,5.7-9.4,12.6-14.7c0.3-0.3,0.8-0.7,1.4-1.1c3.4-2.7,10.5-8.3,16.5-11.5c1.3-0.7,1.8-2.3,1.1-3.6
				c-0.7-1.3-2.3-1.8-3.6-1.1c-6.4,3.4-13.8,9.2-17.3,12l-1.4,1.1c-1.4,1.1-4.3,3.4-7.2,6.3l5.1-28.9c1.7-9.4,4.3-14.8,10-20.9
				c1-1.1,0.9-2.7-0.1-3.7c-1.1-1-2.7-1-3.7,0.1c-6.4,6.8-9.5,13.2-11.4,23.6c0,0,0,0,0,0c0,0,0,0,0,0l-3.2,18.3
				c-2-4.2-4.2-7.5-4.7-8.1l-8.4-13.1c-0.8-1.2-2.4-1.6-3.6-0.8c-1.2,0.8-1.6,2.4-0.8,3.6l8.5,13.2c2.2,3.1,7.7,12.5,6.8,18l-5.8,33
				c-1.8-3.4-3.7-5.9-5.2-7.9c-0.6-0.8-1.2-1.6-1.6-2.2c-5.1-12.2-11-20.5-18-25.3c-1.2-0.8-2.8-0.5-3.7,0.7
				c-0.8,1.2-0.5,2.8,0.7,3.7c6.1,4.2,11.4,11.8,16.2,23.3c0,0.1,0.1,0.2,0.2,0.3c0,0,0,0.1,0,0.1c0.5,0.8,1.2,1.7,1.9,2.7
				c2.3,3,5.4,7.2,7.8,14l-4.9,27.9c-0.3,1.4,0.7,2.8,2.1,3.1s2.8-0.7,3.1-2.1l2.6-14.9c5.9-7.5,12.6-12.8,18.3-17.1
				c0,0,0-0.1,0.1-0.1c0.1-0.1,0.2-0.2,0.3-0.3c4.3-5,9.7-10.3,16.9-12C-94.4,505-93.5,503.6-93.9,502.2"/>
		</g>
	</g>
	<g>
		<g>
			<path class="st4" d="M-110.4,474.9c0,0-5.6-2.9-13.8,2.3c0,0-7.7,3.5-9.1,13.9c0,0-1.3,6.9,3.5,13.4c0,0,0.9,3.1,1.4,2.6
				c0,0,0.6,0.7,2.6,0.1c0,0,5.8,1.7,10.1-0.3c0,0,11.2-2.8,13.3-15.8c0,0,1.3-8-3.8-13.7c0,0-0.1-1.6-1.1-2.3
				C-107.3,475-108.3,474.3-110.4,474.9z"/>
			<path class="st5" d="M-101,488.5c0-4.5-1.2-8.4-3.6-11.1c-0.2-0.3-0.4-0.6-0.4-0.9c-0.1-1.1-0.6-2.1-1.6-2.7
				c-0.9-0.6-2-0.7-3.1-0.4c-0.3,0.1-0.6,0.1-1,0c-3.4-1.1-7.5-0.7-11.6,1.1c-3.8,1.7-7.2,4.4-9.2,7.5c-2,3.1-3.2,7.2-3.2,11.4
				c0,4.5,1.2,8.4,3.6,11.1c0.2,0.3,0.4,0.6,0.4,0.9c0.1,1.1,0.6,2.1,1.6,2.7c0.9,0.6,2,0.7,3.1,0.4c0.3-0.1,0.6-0.1,1,0
				c3.4,1.1,7.5,0.7,11.6-1.1c3.8-1.7,7.2-4.4,9.2-7.5S-101,492.7-101,488.5z M-114,506.2c-3.8,1.7-7.6,2-10.6,1
				c-0.6-0.2-1.2-0.2-1.8,0c-0.6,0.2-1.3,0.1-1.9-0.2c-0.6-0.4-0.9-1-1-1.7c0-0.6-0.3-1.2-0.7-1.7c-2.1-2.4-3.3-6.1-3.3-10.2
				c0-3.9,1.1-7.8,3-10.7c1.9-2.9,5-5.4,8.6-7c3.8-1.7,7.6-2,10.6-1c0.6,0.2,1.2,0.2,1.8,0c0.6-0.2,1.3-0.1,1.9,0.2
				c0.6,0.4,0.9,1,1,1.7c0,0.6,0.3,1.2,0.7,1.7c2.1,2.4,3.3,6.1,3.3,10.2c0,3.9-1.1,7.8-3,10.7C-107.2,502.1-110.4,504.6-114,506.2z
				"/>
			<path class="st5" d="M-128.8,500.6c-0.3-0.4-0.5-0.9-0.7-1.4c-0.1-0.3-0.5-0.5-0.9-0.4c-0.3,0.1-0.5,0.5-0.4,0.9
				c0.2,0.6,0.5,1.1,0.8,1.6c0.1,0.1,0.1,0.2,0.2,0.2c0.2,0.1,0.5,0.2,0.7,0C-128.7,501.3-128.6,500.9-128.8,500.6z"/>
			<path class="st5" d="M-105.2,481.7c-0.2-0.5-0.5-1-0.8-1.4c-0.2-0.3-0.6-0.4-0.9-0.2c-0.3,0.2-0.4,0.6-0.2,0.9
				c0.3,0.4,0.5,0.8,0.7,1.3c0.1,0.1,0.1,0.2,0.2,0.3c0.2,0.1,0.4,0.1,0.6,0C-105.2,482.4-105,482-105.2,481.7z"/>
			<path class="st5" d="M-129.6,488.1c0.1-0.4-0.1-0.7-0.4-0.8c-0.4-0.1-0.7,0.1-0.8,0.4c-0.9,3-1.1,6.4-0.6,9.3
				c0,0.2,0.1,0.3,0.3,0.4c0.1,0.1,0.3,0.1,0.5,0.1c0.4-0.1,0.6-0.4,0.5-0.8C-130.7,494.1-130.5,490.9-129.6,488.1z"/>
			<path class="st5" d="M-104.7,494.3c1-3.3,1.2-7,0.4-10.1c-0.1-0.4-0.4-0.6-0.8-0.5c-0.4,0.1-0.6,0.4-0.5,0.8
				c0.7,2.9,0.6,6.3-0.4,9.4c-0.1,0.3,0,0.6,0.3,0.7c0.1,0,0.1,0.1,0.2,0.1C-105.2,494.9-104.8,494.7-104.7,494.3z"/>
			<path class="st5" d="M-115.3,480.8c-0.1-0.1-0.3-0.1-0.5-0.1c-0.2,0-0.3,0.1-0.4,0.3c-0.1,0.1-0.1,0.3-0.1,0.5
				c0,0.2,0.1,0.3,0.3,0.4s0.3,0.1,0.5,0.1c0.2,0,0.3-0.1,0.4-0.3c0.1-0.1,0.1-0.3,0.1-0.5C-115.1,481.1-115.2,480.9-115.3,480.8z"
				/>
			<path class="st5" d="M-110,486.9c-0.1-0.1-0.3-0.1-0.5-0.1c-0.2,0-0.3,0.1-0.4,0.3c-0.1,0.1-0.1,0.3-0.1,0.5
				c0,0.2,0.1,0.3,0.3,0.4c0.1,0.1,0.3,0.1,0.5,0.1c0.2,0,0.3-0.1,0.4-0.3c0.1-0.1,0.1-0.3,0.1-0.5
				C-109.8,487.1-109.9,487-110,486.9z"/>
			<path class="st5" d="M-123,486c-0.1-0.1-0.3-0.1-0.5-0.1c-0.2,0-0.3,0.1-0.4,0.3c-0.1,0.1-0.1,0.3-0.1,0.5c0,0.2,0.1,0.3,0.3,0.4
				c0.1,0.1,0.3,0.1,0.5,0.1c0.2,0,0.3-0.1,0.4-0.3c0.1-0.1,0.1-0.3,0.1-0.5C-122.7,486.2-122.8,486.1-123,486z"/>
			<path class="st5" d="M-113.9,497.9c-0.1-0.1-0.3-0.1-0.5-0.1c-0.2,0-0.3,0.1-0.4,0.3c-0.1,0.1-0.1,0.3-0.1,0.5
				c0,0.2,0.1,0.3,0.3,0.4c0.1,0.1,0.3,0.1,0.5,0.1c0.2,0,0.3-0.1,0.4-0.3c0.1-0.1,0.1-0.3,0.1-0.5
				C-113.6,498.2-113.7,498-113.9,497.9z"/>
			<path class="st5" d="M-121.3,498.9c-0.1-0.1-0.3-0.1-0.5-0.1c-0.2,0-0.3,0.1-0.4,0.3c-0.1,0.1-0.1,0.3-0.1,0.5
				c0,0.2,0.1,0.3,0.3,0.4c0.1,0.1,0.3,0.1,0.5,0.1c0.2,0,0.3-0.1,0.4-0.3c0.1-0.1,0.1-0.3,0.1-0.5
				C-121.1,499.2-121.2,499-121.3,498.9z"/>
		</g>
	</g>
	<g>
		<g>
			<path class="st4" d="M-158,445.3c0,0,5-2.9,12.6,2.3c0,0,7,3.5,8.2,13.9c0,0,1.2,6.9-3.2,13.4c0,0-0.8,3.1-1.3,2.6
				c0,0-0.5,0.7-2.4,0.1c0,0-5.3,1.7-9.2-0.3c0,0-10.2-2.8-12-15.8c0,0-1.2-8,3.5-13.7c0,0,0.1-1.6,1-2.3
				C-160.8,445.4-159.9,444.6-158,445.3z"/>
			<path class="st5" d="M-166.5,458.9c0-4.5,1.1-8.4,3.2-11.1c0.2-0.3,0.3-0.6,0.4-0.9c0.1-1.1,0.6-2.1,1.4-2.7
				c0.8-0.6,1.9-0.7,2.8-0.4c0.3,0.1,0.6,0.1,0.9,0c3.1-1.1,6.8-0.7,10.5,1.1c3.5,1.7,6.5,4.4,8.4,7.5c1.8,3.1,2.9,7.2,2.9,11.4
				c0,4.5-1.1,8.4-3.2,11.1c-0.2,0.3-0.3,0.6-0.4,0.9c-0.1,1.1-0.6,2.1-1.4,2.7s-1.9,0.7-2.8,0.4c-0.3-0.1-0.6-0.1-0.9,0
				c-3.1,1.1-6.8,0.7-10.5-1.1c-3.5-1.7-6.5-4.4-8.4-7.5S-166.5,463.1-166.5,458.9z M-154.7,476.6c3.4,1.7,6.9,2,9.7,1
				c0.6-0.2,1.1-0.2,1.6,0c0.6,0.2,1.2,0.1,1.7-0.2c0.5-0.4,0.8-1,0.9-1.7c0-0.6,0.3-1.2,0.6-1.7c1.9-2.4,3-6.1,3-10.2
				c0-3.9-1-7.8-2.7-10.7c-1.7-2.9-4.6-5.4-7.8-7c-3.4-1.7-6.9-2-9.7-1c-0.6,0.2-1.1,0.2-1.6,0c-0.6-0.2-1.2-0.1-1.7,0.2
				s-0.8,1-0.9,1.7c0,0.6-0.3,1.2-0.6,1.7c-1.9,2.4-3,6.1-3,10.2c0,3.9,1,7.8,2.7,10.7S-158,475-154.7,476.6z"/>
			<path class="st5" d="M-141.3,470.9c0.2-0.4,0.4-0.9,0.6-1.4c0.1-0.3,0.5-0.5,0.8-0.4c0.3,0.1,0.5,0.5,0.3,0.9
				c-0.2,0.6-0.4,1.1-0.7,1.6c0,0.1-0.1,0.2-0.2,0.2c-0.2,0.1-0.4,0.2-0.6,0C-141.3,471.6-141.4,471.2-141.3,470.9z"/>
			<path class="st5" d="M-162.7,452.1c0.2-0.5,0.5-1,0.7-1.4c0.2-0.3,0.6-0.4,0.8-0.2s0.3,0.6,0.2,0.9c-0.2,0.4-0.5,0.8-0.7,1.3
				c0,0.1-0.1,0.2-0.2,0.3c-0.2,0.1-0.4,0.1-0.6,0C-162.7,452.8-162.8,452.4-162.7,452.1z"/>
			<path class="st5" d="M-140.5,458.5c-0.1-0.4,0.1-0.7,0.4-0.8c0.3-0.1,0.7,0.1,0.8,0.4c0.8,3,1,6.4,0.5,9.3c0,0.2-0.1,0.3-0.3,0.4
				c-0.1,0.1-0.3,0.1-0.4,0.1c-0.3-0.1-0.5-0.4-0.5-0.8C-139.6,464.4-139.8,461.3-140.5,458.5z"/>
			<path class="st5" d="M-163.1,464.7c-0.9-3.3-1.1-7-0.4-10.1c0.1-0.4,0.4-0.6,0.7-0.5c0.3,0.1,0.5,0.4,0.4,0.8
				c-0.6,2.9-0.5,6.3,0.4,9.4c0.1,0.3,0,0.6-0.2,0.7c0,0-0.1,0.1-0.2,0.1C-162.7,465.2-163,465-163.1,464.7z"/>
			<path class="st5" d="M-153.5,451.2c0.1-0.1,0.3-0.1,0.5-0.1c0.2,0,0.3,0.1,0.4,0.3c0.1,0.1,0.1,0.3,0.1,0.5
				c0,0.2-0.1,0.3-0.3,0.4c-0.1,0.1-0.3,0.1-0.5,0.1c-0.2,0-0.3-0.1-0.4-0.3c-0.1-0.1-0.1-0.3-0.1-0.5
				C-153.7,451.4-153.6,451.3-153.5,451.2z"/>
			<path class="st5" d="M-158.3,457.3c0.1-0.1,0.3-0.1,0.5-0.1c0.2,0,0.3,0.1,0.4,0.3c0.1,0.1,0.1,0.3,0.1,0.5
				c0,0.2-0.1,0.3-0.3,0.4s-0.3,0.1-0.5,0.1c-0.2,0-0.3-0.1-0.4-0.3c-0.1-0.1-0.1-0.3-0.1-0.5C-158.5,457.5-158.5,457.3-158.3,457.3
				z"/>
			<path class="st5" d="M-146.6,456.3c0.1-0.1,0.3-0.1,0.5-0.1c0.2,0,0.3,0.1,0.4,0.3c0.1,0.1,0.1,0.3,0.1,0.5
				c0,0.2-0.1,0.3-0.3,0.4c-0.1,0.1-0.3,0.1-0.5,0.1c-0.2,0-0.3-0.1-0.4-0.3c-0.1-0.1-0.1-0.3-0.1-0.5
				C-146.8,456.6-146.7,456.4-146.6,456.3z"/>
			<path class="st5" d="M-154.8,468.3c0.1-0.1,0.3-0.1,0.5-0.1c0.2,0,0.3,0.1,0.4,0.3c0.1,0.1,0.1,0.3,0.1,0.5
				c0,0.2-0.1,0.3-0.3,0.4c-0.1,0.1-0.3,0.1-0.5,0.1c-0.2,0-0.3-0.1-0.4-0.3c-0.1-0.1-0.1-0.3-0.1-0.5
				C-155,468.5-154.9,468.4-154.8,468.3z"/>
			<path class="st5" d="M-148.1,469.3c0.1-0.1,0.3-0.1,0.5-0.1c0.2,0,0.3,0.1,0.4,0.3c0.1,0.1,0.1,0.3,0.1,0.5
				c0,0.2-0.1,0.3-0.3,0.4s-0.3,0.1-0.5,0.1c-0.2,0-0.3-0.1-0.4-0.3c-0.1-0.1-0.1-0.3-0.1-0.5C-148.3,469.5-148.2,469.4-148.1,469.3
				z"/>
		</g>
	</g>
	<g>
		<g>
			<path class="st4" d="M-107.9,424.3c0,0-5.6-2.9-13.8,2.3c0,0-7.7,3.5-9.1,13.9c0,0-1.3,6.9,3.5,13.4c0,0,0.9,3.1,1.4,2.6
				c0,0,0.6,0.7,2.6,0.1c0,0,5.8,1.7,10.1-0.3c0,0,11.2-2.8,13.3-15.8c0,0,1.3-8-3.8-13.7c0,0-0.1-1.6-1.1-2.3
				C-104.8,424.4-105.8,423.6-107.9,424.3z"/>
			<path class="st5" d="M-98.5,437.9c0-4.5-1.2-8.4-3.6-11.1c-0.2-0.3-0.4-0.6-0.4-0.9c-0.1-1.1-0.6-2.1-1.6-2.7
				c-0.9-0.6-2-0.7-3.1-0.4c-0.3,0.1-0.6,0.1-1,0c-3.4-1.1-7.5-0.7-11.6,1.1c-3.8,1.7-7.2,4.4-9.2,7.5c-2,3.1-3.2,7.2-3.2,11.4
				c0,4.5,1.2,8.4,3.6,11.1c0.2,0.3,0.4,0.6,0.4,0.9c0.1,1.1,0.6,2.1,1.6,2.7c0.9,0.6,2,0.7,3.1,0.4c0.3-0.1,0.6-0.1,1,0
				c3.4,1.1,7.5,0.7,11.6-1.1c3.8-1.7,7.2-4.4,9.2-7.5S-98.6,442.1-98.5,437.9z M-111.5,455.6c-3.8,1.7-7.6,2-10.6,1
				c-0.6-0.2-1.2-0.2-1.8,0c-0.6,0.2-1.3,0.1-1.9-0.2c-0.6-0.4-0.9-1-1-1.7c0-0.6-0.3-1.2-0.7-1.7c-2.1-2.4-3.3-6.1-3.3-10.2
				c0-3.9,1.1-7.8,3-10.7c1.9-2.9,5-5.4,8.6-7c3.8-1.7,7.6-2,10.6-1c0.6,0.2,1.2,0.2,1.8,0c0.6-0.2,1.3-0.1,1.9,0.2
				c0.6,0.4,0.9,1,1,1.7c0,0.6,0.3,1.2,0.7,1.7c2.1,2.4,3.3,6.1,3.3,10.2c0,3.9-1.1,7.8-3,10.7C-104.8,451.5-107.9,454-111.5,455.6z
				"/>
			<path class="st5" d="M-126.3,449.9c-0.3-0.4-0.5-0.9-0.7-1.4c-0.1-0.3-0.5-0.5-0.9-0.4c-0.3,0.1-0.5,0.5-0.4,0.9
				c0.2,0.6,0.5,1.1,0.8,1.6c0.1,0.1,0.1,0.2,0.2,0.2c0.2,0.1,0.5,0.2,0.7,0C-126.3,450.6-126.2,450.2-126.3,449.9z"/>
			<path class="st5" d="M-102.7,431.1c-0.2-0.5-0.5-1-0.8-1.4c-0.2-0.3-0.6-0.4-0.9-0.2c-0.3,0.2-0.4,0.6-0.2,0.9
				c0.3,0.4,0.5,0.8,0.7,1.3c0.1,0.1,0.1,0.2,0.2,0.3c0.2,0.1,0.4,0.1,0.6,0C-102.7,431.8-102.6,431.4-102.7,431.1z"/>
			<path class="st5" d="M-127.1,437.5c0.1-0.4-0.1-0.7-0.4-0.8c-0.4-0.1-0.7,0.1-0.8,0.4c-0.9,3-1.1,6.4-0.6,9.3
				c0,0.2,0.1,0.3,0.3,0.4c0.1,0.1,0.3,0.1,0.5,0.1c0.4-0.1,0.6-0.4,0.5-0.8C-128.2,443.4-128,440.3-127.1,437.5z"/>
			<path class="st5" d="M-102.3,443.7c1-3.3,1.2-7,0.4-10.1c-0.1-0.4-0.4-0.6-0.8-0.5c-0.4,0.1-0.6,0.4-0.5,0.8
				c0.7,2.9,0.6,6.3-0.4,9.4c-0.1,0.3,0,0.6,0.3,0.7c0.1,0,0.1,0.1,0.2,0.1C-102.7,444.2-102.4,444-102.3,443.7z"/>
			<path class="st5" d="M-112.9,430.2c-0.1-0.1-0.3-0.1-0.5-0.1c-0.2,0-0.3,0.1-0.4,0.3c-0.1,0.1-0.1,0.3-0.1,0.5
				c0,0.2,0.1,0.3,0.3,0.4c0.1,0.1,0.3,0.1,0.5,0.1c0.2,0,0.3-0.1,0.4-0.3c0.1-0.1,0.1-0.3,0.1-0.5
				C-112.6,430.4-112.7,430.3-112.9,430.2z"/>
			<path class="st5" d="M-107.5,436.3c-0.1-0.1-0.3-0.1-0.5-0.1c-0.2,0-0.3,0.1-0.4,0.3c-0.1,0.1-0.1,0.3-0.1,0.5
				c0,0.2,0.1,0.3,0.3,0.4c0.1,0.1,0.3,0.1,0.5,0.1c0.2,0,0.3-0.1,0.4-0.3c0.1-0.1,0.1-0.3,0.1-0.5
				C-107.3,436.5-107.4,436.3-107.5,436.3z"/>
			<path class="st5" d="M-120.5,435.3c-0.1-0.1-0.3-0.1-0.5-0.1c-0.2,0-0.3,0.1-0.4,0.3c-0.1,0.1-0.1,0.3-0.1,0.5
				c0,0.2,0.1,0.3,0.3,0.4c0.1,0.1,0.3,0.1,0.5,0.1c0.2,0,0.3-0.1,0.4-0.3c0.1-0.1,0.1-0.3,0.1-0.5
				C-120.2,435.6-120.4,435.4-120.5,435.3z"/>
			<path class="st5" d="M-111.4,447.3c-0.1-0.1-0.3-0.1-0.5-0.1c-0.2,0-0.3,0.1-0.4,0.3c-0.1,0.1-0.1,0.3-0.1,0.5
				c0,0.2,0.1,0.3,0.3,0.4c0.1,0.1,0.3,0.1,0.5,0.1c0.2,0,0.3-0.1,0.4-0.3c0.1-0.1,0.1-0.3,0.1-0.5
				C-111.1,447.5-111.2,447.4-111.4,447.3z"/>
			<path class="st5" d="M-118.9,448.3c-0.1-0.1-0.3-0.1-0.5-0.1c-0.2,0-0.3,0.1-0.4,0.3c-0.1,0.1-0.1,0.3-0.1,0.5
				c0,0.2,0.1,0.3,0.3,0.4c0.1,0.1,0.3,0.1,0.5,0.1c0.2,0,0.3-0.1,0.4-0.3c0.1-0.1,0.1-0.3,0.1-0.5
				C-118.6,448.5-118.7,448.4-118.9,448.3z"/>
		</g>
	</g>
</g>
<g>
	<g>
		<g>
			<g>
				<path class="st0" d="M16,596.6c-6-37.6-23.2-43.9-56.8-38.6C-34.9,594.3-11.1,601,16,596.6"/>
				<path class="st0" d="M49.4,600.2c-5-31.6,8.2-40,34.6-44.2C89.4,586.6,76.7,595.9,49.4,600.2"/>
				<path class="st0" d="M38.6,476.9c11,21.6-5.1,37.7-19,41.7C6.6,504.7,10.9,485.3,38.6,476.9"/>
				<path class="st0" d="M11.1,546.8c-24.3,3.9-30.9-7-34.1-27.3C0.5,515.4,7.7,525.8,11.1,546.8"/>
				<path class="st0" d="M36.1,554.7c26.5-4.2,37.3-9,31.7-43.8C41.4,515.2,30.6,520,36.1,554.7"/>
			</g>
			<path class="st1" d="M66.5,578.5c-0.9-1.4-2.7-1.8-4.1-0.9c-8.3,5.3-12.6,13.7-15.7,21.3c-3.2,4.8-6.7,10.3-9.8,16.7l-6.2-39.1
				c-0.6-3.9,2.6-12,7.9-20.1c0.3-0.4,0.6-1,1.1-1.7c2.6-4.1,8.1-12.5,13.2-18.1c1.1-1.2,1-3.1-0.2-4.2c-1.2-1.1-3.1-1-4.2,0.2
				c-5.5,6-11.2,14.7-13.9,18.9l-1.1,1.6c-1.1,1.7-3.3,5.2-5.3,9.3L23.3,530c-1.6-10.5-0.8-17.2,3-25.7c0.7-1.5,0-3.2-1.5-3.9
				c-1.5-0.7-3.2,0-3.9,1.5c-4.3,9.5-5.2,17.3-3.5,29c0,0,0,0,0,0c0,0,0,0,0,0l3.3,20.4c-3.6-3.7-7.1-6.3-7.8-6.8l-13.6-10.7
				c-1.3-1-3.1-0.8-4.1,0.5c-1,1.3-0.8,3.1,0.5,4.1l13.7,10.8c3.5,2.5,12.7,10.4,13.7,16.5l5.9,36.9c-3.2-2.9-6-4.8-8.4-6.4
				c-1-0.6-1.8-1.2-2.5-1.8c-9.9-11-19.1-17.6-28.1-20.1c-1.6-0.4-3.2,0.5-3.6,2c-0.4,1.6,0.5,3.2,2,3.6c8,2.2,16.3,8.3,25.5,18.6
				c0.1,0.1,0.2,0.2,0.3,0.3c0,0,0.1,0.1,0.1,0.1c0.9,0.7,1.9,1.3,3,2.1c3.5,2.4,8.2,5.6,13.3,11.9l5,31.1c0.3,1.6,1.8,2.7,3.4,2.4
				c1.6-0.3,2.7-1.8,2.4-3.4l-2.7-16.7c3.5-10.1,8.6-18,13.1-24.6c0,0,0-0.1,0.1-0.1c0.1-0.1,0.2-0.3,0.2-0.4
				c2.7-6.8,6.5-14.3,13.5-18.8C66.9,581.6,67.3,579.8,66.5,578.5"/>
		</g>
	</g>
	<g>
		<g>
			<g>
				<path class="st2" d="M18.1,595.9c5.9-33.6-6.9-44-36.9-49.3C-24.5,579.1-6.3,591.6,18.1,595.9"/>
				<path class="st2" d="M45.3,608.6c4.9-28.3,18.6-31.5,42.3-27.4C83.2,608.7,69.7,612.9,45.3,608.6"/>
				<path class="st2" d="M72.1,500.9c3.1,21.6-15.3,30.5-28.3,29.9C36.8,515.1,46.2,499.9,72.1,500.9"/>
				<path class="st2" d="M28.4,552.2c-21.8-3.8-24.2-14.9-21-33.1C28.5,522.4,31.6,533.3,28.4,552.2"/>
				<path class="st2" d="M47.3,566.2c23.7,4.1,34.2,3.2,39.7-27.9C63.3,534.2,52.7,535.1,47.3,566.2"/>
			</g>
			<path class="st3" d="M66.1,595.2c-0.3-1.4-1.8-2.3-3.2-1.9c-8.6,2.1-14.7,8-19.5,13.5c-4.1,3.1-8.7,6.7-13.2,11.3l6.1-35
				c0.6-3.5,5.7-9.4,12.6-14.7c0.3-0.3,0.8-0.7,1.4-1.1c3.4-2.7,10.5-8.3,16.5-11.5c1.3-0.7,1.8-2.3,1.1-3.6
				c-0.7-1.3-2.3-1.8-3.6-1.1c-6.4,3.4-13.8,9.2-17.3,12l-1.4,1.1c-1.4,1.1-4.3,3.4-7.2,6.3l5.1-28.9c1.7-9.4,4.3-14.8,10-20.9
				c1-1.1,0.9-2.7-0.1-3.7c-1.1-1-2.7-1-3.7,0.1c-6.4,6.8-9.5,13.2-11.4,23.6c0,0,0,0,0,0c0,0,0,0,0,0l-3.2,18.3
				c-2-4.2-4.2-7.5-4.7-8.1l-8.4-13.1c-0.8-1.2-2.4-1.6-3.6-0.8c-1.2,0.8-1.6,2.4-0.8,3.6l8.5,13.2c2.2,3.1,7.7,12.5,6.8,18l-5.8,33
				c-1.8-3.4-3.7-5.9-5.2-7.9c-0.6-0.8-1.2-1.6-1.6-2.2c-5.1-12.2-11-20.5-18-25.3c-1.2-0.8-2.8-0.5-3.7,0.7
				c-0.8,1.2-0.5,2.8,0.7,3.7c6.1,4.2,11.4,11.8,16.2,23.3c0,0.1,0.1,0.2,0.2,0.3c0,0,0,0.1,0,0.1c0.5,0.8,1.2,1.7,1.9,2.7
				c2.3,3,5.4,7.2,7.8,14l-4.9,27.9c-0.3,1.4,0.7,2.8,2.1,3.1s2.8-0.7,3.1-2.1l2.6-14.9c5.9-7.5,12.6-12.8,18.3-17.1
				c0,0,0-0.1,0.1-0.1c0.1-0.1,0.2-0.2,0.3-0.3c4.3-5,9.7-10.3,16.9-12C65.6,598,66.5,596.6,66.1,595.2"/>
		</g>
	</g>
	<g>
		<g>
			<path class="st4" d="M49.6,567.9c0,0-5.6-2.9-13.8,2.3c0,0-7.7,3.5-9.1,13.9c0,0-1.3,6.9,3.5,13.4c0,0,0.9,3.1,1.4,2.6
				c0,0,0.6,0.7,2.6,0.1c0,0,5.8,1.7,10.1-0.3c0,0,11.2-2.8,13.3-15.8c0,0,1.3-8-3.8-13.7c0,0-0.1-1.6-1.1-2.3
				C52.7,568,51.7,567.3,49.6,567.9z"/>
			<path class="st5" d="M59,581.5c0-4.5-1.2-8.4-3.6-11.1c-0.2-0.3-0.4-0.6-0.4-0.9c-0.1-1.1-0.6-2.1-1.6-2.7s-2-0.7-3.1-0.4
				c-0.3,0.1-0.6,0.1-1,0c-3.4-1.1-7.5-0.7-11.6,1.1c-3.8,1.7-7.2,4.4-9.2,7.5s-3.2,7.2-3.2,11.4c0,4.5,1.2,8.4,3.6,11.1
				c0.2,0.3,0.4,0.6,0.4,0.9c0.1,1.1,0.6,2.1,1.6,2.7c0.9,0.6,2,0.7,3.1,0.4c0.3-0.1,0.6-0.1,1,0c3.4,1.1,7.5,0.7,11.6-1.1
				c3.8-1.7,7.2-4.4,9.2-7.5S59,585.7,59,581.5z M46,599.2c-3.8,1.7-7.6,2-10.6,1c-0.6-0.2-1.2-0.2-1.8,0c-0.6,0.2-1.3,0.1-1.9-0.2
				c-0.6-0.4-0.9-1-1-1.7c0-0.6-0.3-1.2-0.7-1.7c-2.1-2.4-3.3-6.1-3.3-10.2c0-3.9,1.1-7.8,3-10.7s5-5.4,8.6-7c3.8-1.7,7.6-2,10.6-1
				c0.6,0.2,1.2,0.2,1.8,0c0.6-0.2,1.3-0.1,1.9,0.2c0.6,0.4,0.9,1,1,1.7c0,0.6,0.3,1.2,0.7,1.7c2.1,2.4,3.3,6.1,3.3,10.2
				c0,3.9-1.1,7.8-3,10.7C52.8,595.1,49.6,597.6,46,599.2z"/>
			<path class="st5" d="M31.2,593.6c-0.3-0.4-0.5-0.9-0.7-1.4c-0.1-0.3-0.5-0.5-0.9-0.4c-0.3,0.1-0.5,0.5-0.4,0.9
				c0.2,0.6,0.5,1.1,0.8,1.6c0.1,0.1,0.1,0.2,0.2,0.2c0.2,0.1,0.5,0.2,0.7,0C31.3,594.3,31.4,593.9,31.2,593.6z"/>
			<path class="st5" d="M54.8,574.7c-0.2-0.5-0.5-1-0.8-1.4c-0.2-0.3-0.6-0.4-0.9-0.2c-0.3,0.2-0.4,0.6-0.2,0.9
				c0.3,0.4,0.5,0.8,0.7,1.3c0.1,0.1,0.1,0.2,0.2,0.3c0.2,0.1,0.4,0.1,0.6,0C54.8,575.4,55,575,54.8,574.7z"/>
			<path class="st5" d="M30.4,581.1c0.1-0.4-0.1-0.7-0.4-0.8c-0.4-0.1-0.7,0.1-0.8,0.4c-0.9,3-1.1,6.4-0.6,9.3
				c0,0.2,0.1,0.3,0.3,0.4c0.1,0.1,0.3,0.1,0.5,0.1c0.4-0.1,0.6-0.4,0.5-0.8C29.3,587.1,29.5,583.9,30.4,581.1z"/>
			<path class="st5" d="M55.3,587.3c1-3.3,1.2-7,0.4-10.1c-0.1-0.4-0.4-0.6-0.8-0.5c-0.4,0.1-0.6,0.4-0.5,0.8
				c0.7,2.9,0.6,6.3-0.4,9.4c-0.1,0.3,0,0.6,0.3,0.7c0.1,0,0.1,0.1,0.2,0.1C54.8,587.9,55.2,587.7,55.3,587.3z"/>
			<path class="st5" d="M44.7,573.8c-0.1-0.1-0.3-0.1-0.5-0.1c-0.2,0-0.3,0.1-0.4,0.3s-0.1,0.3-0.1,0.5c0,0.2,0.1,0.3,0.3,0.4
				c0.1,0.1,0.3,0.1,0.5,0.1c0.2,0,0.3-0.1,0.4-0.3c0.1-0.1,0.1-0.3,0.1-0.5C44.9,574.1,44.8,573.9,44.7,573.8z"/>
			<path class="st5" d="M50,579.9c-0.1-0.1-0.3-0.1-0.5-0.1c-0.2,0-0.3,0.1-0.4,0.3c-0.1,0.1-0.1,0.3-0.1,0.5c0,0.2,0.1,0.3,0.3,0.4
				c0.1,0.1,0.3,0.1,0.5,0.1c0.2,0,0.3-0.1,0.4-0.3c0.1-0.1,0.1-0.3,0.1-0.5C50.2,580.1,50.1,580,50,579.9z"/>
			<path class="st5" d="M37,579c-0.1-0.1-0.3-0.1-0.5-0.1c-0.2,0-0.3,0.1-0.4,0.3s-0.1,0.3-0.1,0.5c0,0.2,0.1,0.3,0.3,0.4
				c0.1,0.1,0.3,0.1,0.5,0.1c0.2,0,0.3-0.1,0.4-0.3c0.1-0.1,0.1-0.3,0.1-0.5C37.3,579.2,37.2,579.1,37,579z"/>
			<path class="st5" d="M46.1,590.9c-0.1-0.1-0.3-0.1-0.5-0.1c-0.2,0-0.3,0.1-0.4,0.3c-0.1,0.1-0.1,0.3-0.1,0.5
				c0,0.2,0.1,0.3,0.3,0.4c0.1,0.1,0.3,0.1,0.5,0.1c0.2,0,0.3-0.1,0.4-0.3c0.1-0.1,0.1-0.3,0.1-0.5C46.4,591.2,46.3,591,46.1,590.9z
				"/>
			<path class="st5" d="M38.7,591.9c-0.1-0.1-0.3-0.1-0.5-0.1c-0.2,0-0.3,0.1-0.4,0.3c-0.1,0.1-0.1,0.3-0.1,0.5
				c0,0.2,0.1,0.3,0.3,0.4c0.1,0.1,0.3,0.1,0.5,0.1c0.2,0,0.3-0.1,0.4-0.3c0.1-0.1,0.1-0.3,0.1-0.5C38.9,592.2,38.8,592,38.7,591.9z
				"/>
		</g>
	</g>
	<g>
		<g>
			<path class="st4" d="M2,538.3c0,0,5-2.9,12.6,2.3c0,0,7,3.5,8.2,13.9c0,0,1.2,6.9-3.2,13.4c0,0-0.8,3.1-1.3,2.6
				c0,0-0.5,0.7-2.4,0.1c0,0-5.3,1.7-9.2-0.3c0,0-10.2-2.8-12-15.8c0,0-1.2-8,3.5-13.7c0,0,0.1-1.6,1-2.3
				C-0.8,538.4,0.1,537.6,2,538.3z"/>
			<path class="st5" d="M-6.5,551.9c0-4.5,1.1-8.4,3.2-11.1c0.2-0.3,0.3-0.6,0.4-0.9c0.1-1.1,0.6-2.1,1.4-2.7s1.9-0.7,2.8-0.4
				c0.3,0.1,0.6,0.1,0.9,0c3.1-1.1,6.8-0.7,10.5,1.1c3.5,1.7,6.5,4.4,8.4,7.5c1.8,3.1,2.9,7.2,2.9,11.4c0,4.5-1.1,8.4-3.2,11.1
				c-0.2,0.3-0.3,0.6-0.4,0.9c-0.1,1.1-0.6,2.1-1.4,2.7c-0.8,0.6-1.9,0.7-2.8,0.4c-0.3-0.1-0.6-0.1-0.9,0c-3.1,1.1-6.8,0.7-10.5-1.1
				c-3.5-1.7-6.5-4.4-8.4-7.5S-6.5,556.1-6.5,551.9z M5.3,569.6c3.4,1.7,6.9,2,9.7,1c0.6-0.2,1.1-0.2,1.6,0c0.6,0.2,1.2,0.1,1.7-0.2
				c0.5-0.4,0.8-1,0.9-1.7c0-0.6,0.3-1.2,0.6-1.7c1.9-2.4,3-6.1,3-10.2c0-3.9-1-7.8-2.7-10.7c-1.7-2.9-4.6-5.4-7.8-7
				c-3.4-1.7-6.9-2-9.7-1c-0.6,0.2-1.1,0.2-1.6,0c-0.6-0.2-1.2-0.1-1.7,0.2s-0.8,1-0.9,1.7c0,0.6-0.3,1.2-0.6,1.7
				c-1.9,2.4-3,6.1-3,10.2c0,3.9,1,7.8,2.7,10.7S2,568,5.3,569.6z"/>
			<path class="st5" d="M18.7,563.9c0.2-0.4,0.4-0.9,0.6-1.4c0.1-0.3,0.5-0.5,0.8-0.4c0.3,0.1,0.5,0.5,0.3,0.9
				c-0.2,0.6-0.4,1.1-0.7,1.6c0,0.1-0.1,0.2-0.2,0.2c-0.2,0.1-0.4,0.2-0.6,0C18.7,564.6,18.6,564.2,18.7,563.9z"/>
			<path class="st5" d="M-2.7,545.1c0.2-0.5,0.5-1,0.7-1.4c0.2-0.3,0.6-0.4,0.8-0.2c0.3,0.2,0.3,0.6,0.2,0.9
				c-0.2,0.4-0.5,0.8-0.7,1.3c0,0.1-0.1,0.2-0.2,0.3c-0.2,0.1-0.4,0.1-0.6,0C-2.7,545.8-2.8,545.4-2.7,545.1z"/>
			<path class="st5" d="M19.5,551.5c-0.1-0.4,0.1-0.7,0.4-0.8c0.3-0.1,0.7,0.1,0.8,0.4c0.8,3,1,6.4,0.5,9.3c0,0.2-0.1,0.3-0.3,0.4
				c-0.1,0.1-0.3,0.1-0.4,0.1c-0.3-0.1-0.5-0.4-0.5-0.8C20.4,557.4,20.2,554.3,19.5,551.5z"/>
			<path class="st5" d="M-3.1,557.7c-0.9-3.3-1.1-7-0.4-10.1c0.1-0.4,0.4-0.6,0.7-0.5c0.3,0.1,0.5,0.4,0.4,0.8
				c-0.6,2.9-0.5,6.3,0.4,9.4c0.1,0.3,0,0.6-0.2,0.7c0,0-0.1,0.1-0.2,0.1C-2.7,558.2-3,558-3.1,557.7z"/>
			<path class="st5" d="M6.5,544.2c0.1-0.1,0.3-0.1,0.5-0.1c0.2,0,0.3,0.1,0.4,0.3c0.1,0.1,0.1,0.3,0.1,0.5c0,0.2-0.1,0.3-0.3,0.4
				c-0.1,0.1-0.3,0.1-0.5,0.1c-0.2,0-0.3-0.1-0.4-0.3c-0.1-0.1-0.1-0.3-0.1-0.5C6.3,544.4,6.4,544.3,6.5,544.2z"/>
			<path class="st5" d="M1.7,550.3c0.1-0.1,0.3-0.1,0.5-0.1c0.2,0,0.3,0.1,0.4,0.3c0.1,0.1,0.1,0.3,0.1,0.5c0,0.2-0.1,0.3-0.3,0.4
				c-0.1,0.1-0.3,0.1-0.5,0.1c-0.2,0-0.3-0.1-0.4-0.3s-0.1-0.3-0.1-0.5C1.5,550.5,1.5,550.3,1.7,550.3z"/>
			<path class="st5" d="M13.4,549.3c0.1-0.1,0.3-0.1,0.5-0.1c0.2,0,0.3,0.1,0.4,0.3c0.1,0.1,0.1,0.3,0.1,0.5c0,0.2-0.1,0.3-0.3,0.4
				c-0.1,0.1-0.3,0.1-0.5,0.1c-0.2,0-0.3-0.1-0.4-0.3c-0.1-0.1-0.1-0.3-0.1-0.5C13.2,549.6,13.3,549.4,13.4,549.3z"/>
			<path class="st5" d="M5.2,561.3c0.1-0.1,0.3-0.1,0.5-0.1c0.2,0,0.3,0.1,0.4,0.3c0.1,0.1,0.1,0.3,0.1,0.5c0,0.2-0.1,0.3-0.3,0.4
				c-0.1,0.1-0.3,0.1-0.5,0.1c-0.2,0-0.3-0.1-0.4-0.3c-0.1-0.1-0.1-0.3-0.1-0.5C5,561.5,5.1,561.4,5.2,561.3z"/>
			<path class="st5" d="M11.9,562.3c0.1-0.1,0.3-0.1,0.5-0.1c0.2,0,0.3,0.1,0.4,0.3c0.1,0.1,0.1,0.3,0.1,0.5c0,0.2-0.1,0.3-0.3,0.4
				c-0.1,0.1-0.3,0.1-0.5,0.1c-0.2,0-0.3-0.1-0.4-0.3c-0.1-0.1-0.1-0.3-0.1-0.5C11.7,562.5,11.8,562.4,11.9,562.3z"/>
		</g>
	</g>
	<g>
		<g>
			<path class="st4" d="M52.1,517.3c0,0-5.6-2.9-13.8,2.3c0,0-7.7,3.5-9.1,13.9c0,0-1.3,6.9,3.5,13.4c0,0,0.9,3.1,1.4,2.6
				c0,0,0.6,0.7,2.6,0.1c0,0,5.8,1.7,10.1-0.3c0,0,11.2-2.8,13.3-15.8c0,0,1.3-8-3.8-13.7c0,0-0.1-1.6-1.1-2.3
				C55.2,517.4,54.2,516.6,52.1,517.3z"/>
			<path class="st5" d="M61.5,530.9c0-4.5-1.2-8.4-3.6-11.1c-0.2-0.3-0.4-0.6-0.4-0.9c-0.1-1.1-0.6-2.1-1.6-2.7s-2-0.7-3.1-0.4
				c-0.3,0.1-0.6,0.1-1,0c-3.4-1.1-7.5-0.7-11.6,1.1c-3.8,1.7-7.2,4.4-9.2,7.5s-3.2,7.2-3.2,11.4c0,4.5,1.2,8.4,3.6,11.1
				c0.2,0.3,0.4,0.6,0.4,0.9c0.1,1.1,0.6,2.1,1.6,2.7c0.9,0.6,2,0.7,3.1,0.4c0.3-0.1,0.6-0.1,1,0c3.4,1.1,7.5,0.7,11.6-1.1
				c3.8-1.7,7.2-4.4,9.2-7.5S61.4,535.1,61.5,530.9z M48.5,548.6c-3.8,1.7-7.6,2-10.6,1c-0.6-0.2-1.2-0.2-1.8,0
				c-0.6,0.2-1.3,0.1-1.9-0.2c-0.6-0.4-0.9-1-1-1.7c0-0.6-0.3-1.2-0.7-1.7c-2.1-2.4-3.3-6.1-3.3-10.2c0-3.9,1.1-7.8,3-10.7
				c1.9-2.9,5-5.4,8.6-7c3.8-1.7,7.6-2,10.6-1c0.6,0.2,1.2,0.2,1.8,0c0.6-0.2,1.3-0.1,1.9,0.2c0.6,0.4,0.9,1,1,1.7
				c0,0.6,0.3,1.2,0.7,1.7c2.1,2.4,3.3,6.1,3.3,10.2c0,3.9-1.1,7.8-3,10.7C55.2,544.5,52.1,547,48.5,548.6z"/>
			<path class="st5" d="M33.7,542.9c-0.3-0.4-0.5-0.9-0.7-1.4c-0.1-0.3-0.5-0.5-0.9-0.4c-0.3,0.1-0.5,0.5-0.4,0.9
				c0.2,0.6,0.5,1.1,0.8,1.6c0.1,0.1,0.1,0.2,0.2,0.2c0.2,0.1,0.5,0.2,0.7,0C33.7,543.6,33.8,543.2,33.7,542.9z"/>
			<path class="st5" d="M57.3,524.1c-0.2-0.5-0.5-1-0.8-1.4c-0.2-0.3-0.6-0.4-0.9-0.2c-0.3,0.2-0.4,0.6-0.2,0.9
				c0.3,0.4,0.5,0.8,0.7,1.3c0.1,0.1,0.1,0.2,0.2,0.3c0.2,0.1,0.4,0.1,0.6,0C57.3,524.8,57.4,524.4,57.3,524.1z"/>
			<path class="st5" d="M32.9,530.5c0.1-0.4-0.1-0.7-0.4-0.8c-0.4-0.1-0.7,0.1-0.8,0.4c-0.9,3-1.1,6.4-0.6,9.3
				c0,0.2,0.1,0.3,0.3,0.4c0.1,0.1,0.3,0.1,0.5,0.1c0.4-0.1,0.6-0.4,0.5-0.8C31.8,536.4,32,533.3,32.9,530.5z"/>
			<path class="st5" d="M57.7,536.7c1-3.3,1.2-7,0.4-10.1c-0.1-0.4-0.4-0.6-0.8-0.5c-0.4,0.1-0.6,0.4-0.5,0.8
				c0.7,2.9,0.6,6.3-0.4,9.4c-0.1,0.3,0,0.6,0.3,0.7c0.1,0,0.1,0.1,0.2,0.1C57.3,537.2,57.6,537,57.7,536.7z"/>
			<path class="st5" d="M47.1,523.2c-0.1-0.1-0.3-0.1-0.5-0.1c-0.2,0-0.3,0.1-0.4,0.3c-0.1,0.1-0.1,0.3-0.1,0.5
				c0,0.2,0.1,0.3,0.3,0.4c0.1,0.1,0.3,0.1,0.5,0.1c0.2,0,0.3-0.1,0.4-0.3c0.1-0.1,0.1-0.3,0.1-0.5
				C47.4,523.4,47.3,523.3,47.1,523.2z"/>
			<path class="st5" d="M52.5,529.3c-0.1-0.1-0.3-0.1-0.5-0.1c-0.2,0-0.3,0.1-0.4,0.3c-0.1,0.1-0.1,0.3-0.1,0.5
				c0,0.2,0.1,0.3,0.3,0.4c0.1,0.1,0.3,0.1,0.5,0.1c0.2,0,0.3-0.1,0.4-0.3c0.1-0.1,0.1-0.3,0.1-0.5
				C52.7,529.5,52.6,529.3,52.5,529.3z"/>
			<path class="st5" d="M39.5,528.3c-0.1-0.1-0.3-0.1-0.5-0.1c-0.2,0-0.3,0.1-0.4,0.3c-0.1,0.1-0.1,0.3-0.1,0.5
				c0,0.2,0.1,0.3,0.3,0.4c0.1,0.1,0.3,0.1,0.5,0.1c0.2,0,0.3-0.1,0.4-0.3c0.1-0.1,0.1-0.3,0.1-0.5
				C39.8,528.6,39.6,528.4,39.5,528.3z"/>
			<path class="st5" d="M48.6,540.3c-0.1-0.1-0.3-0.1-0.5-0.1c-0.2,0-0.3,0.1-0.4,0.3c-0.1,0.1-0.1,0.3-0.1,0.5
				c0,0.2,0.1,0.3,0.3,0.4c0.1,0.1,0.3,0.1,0.5,0.1c0.2,0,0.3-0.1,0.4-0.3c0.1-0.1,0.1-0.3,0.1-0.5
				C48.9,540.5,48.8,540.4,48.6,540.3z"/>
			<path class="st5" d="M41.1,541.3c-0.1-0.1-0.3-0.1-0.5-0.1c-0.2,0-0.3,0.1-0.4,0.3c-0.1,0.1-0.1,0.3-0.1,0.5
				c0,0.2,0.1,0.3,0.3,0.4c0.1,0.1,0.3,0.1,0.5,0.1c0.2,0,0.3-0.1,0.4-0.3c0.1-0.1,0.1-0.3,0.1-0.5
				C41.4,541.5,41.3,541.4,41.1,541.3z"/>
		</g>
	</g>
</g>
<g>
	<g>
		<g>
			<g>
				<path class="st0" d="M18,410.6c-6-37.6-23.2-43.9-56.8-38.6C-32.9,408.3-9.1,415,18,410.6"/>
				<path class="st0" d="M51.4,414.2c-5-31.6,8.2-40,34.6-44.2C91.4,400.6,78.7,409.9,51.4,414.2"/>
				<path class="st0" d="M40.6,290.9c11,21.6-5.1,37.7-19,41.7C8.6,318.7,12.9,299.3,40.6,290.9"/>
				<path class="st0" d="M13.1,360.8c-24.3,3.9-30.9-7-34.1-27.3C2.5,329.4,9.7,339.8,13.1,360.8"/>
				<path class="st0" d="M38.1,368.7c26.5-4.2,37.3-9,31.7-43.8C43.4,329.2,32.6,334,38.1,368.7"/>
			</g>
			<path class="st1" d="M68.5,392.5c-0.9-1.4-2.7-1.8-4.1-0.9c-8.3,5.3-12.6,13.7-15.7,21.3c-3.2,4.8-6.7,10.3-9.8,16.7l-6.2-39.1
				c-0.6-3.9,2.6-12,7.9-20.1c0.3-0.4,0.6-1,1.1-1.7c2.6-4.1,8.1-12.5,13.2-18.1c1.1-1.2,1-3.1-0.2-4.2c-1.2-1.1-3.1-1-4.2,0.2
				c-5.5,6-11.2,14.7-13.9,18.9l-1.1,1.6c-1.1,1.7-3.3,5.2-5.3,9.3L25.3,344c-1.6-10.5-0.8-17.2,3-25.7c0.7-1.5,0-3.2-1.5-3.9
				c-1.5-0.7-3.2,0-3.9,1.5c-4.3,9.5-5.2,17.3-3.5,29c0,0,0,0,0,0c0,0,0,0,0,0l3.3,20.4c-3.6-3.7-7.1-6.3-7.8-6.8L1.3,347.8
				c-1.3-1-3.1-0.8-4.1,0.5c-1,1.3-0.8,3.1,0.5,4.1l13.7,10.8c3.5,2.5,12.7,10.4,13.7,16.5l5.9,36.9c-3.2-2.9-6-4.8-8.4-6.4
				c-1-0.6-1.8-1.2-2.5-1.8c-9.9-11-19.1-17.6-28.1-20.1c-1.6-0.4-3.2,0.5-3.6,2c-0.4,1.6,0.5,3.2,2,3.6c8,2.2,16.3,8.3,25.5,18.6
				c0.1,0.1,0.2,0.2,0.3,0.3c0,0,0.1,0.1,0.1,0.1c0.9,0.7,1.9,1.3,3,2.1c3.5,2.4,8.2,5.6,13.3,11.9l5,31.1c0.3,1.6,1.8,2.7,3.4,2.4
				s2.7-1.8,2.4-3.4l-2.7-16.7c3.5-10.1,8.6-18,13.1-24.6c0,0,0-0.1,0.1-0.1c0.1-0.1,0.2-0.3,0.2-0.4c2.7-6.8,6.5-14.3,13.5-18.8
				C68.9,395.6,69.3,393.8,68.5,392.5"/>
		</g>
	</g>
	<g>
		<g>
			<g>
				<path class="st2" d="M20.1,409.9c5.9-33.6-6.9-44-36.9-49.3C-22.5,393.1-4.3,405.6,20.1,409.9"/>
				<path class="st2" d="M47.3,422.6c4.9-28.3,18.6-31.5,42.3-27.4C85.2,422.7,71.7,426.9,47.3,422.6"/>
				<path class="st2" d="M74.1,314.9c3.1,21.6-15.3,30.5-28.3,29.9C38.8,329.1,48.2,313.9,74.1,314.9"/>
				<path class="st2" d="M30.4,366.2c-21.8-3.8-24.2-14.9-21-33.1C30.5,336.4,33.6,347.3,30.4,366.2"/>
				<path class="st2" d="M49.3,380.2c23.7,4.1,34.2,3.2,39.7-27.9C65.3,348.2,54.7,349.1,49.3,380.2"/>
			</g>
			<path class="st3" d="M68.1,409.2c-0.3-1.4-1.8-2.3-3.2-1.9c-8.6,2.1-14.7,8-19.5,13.5c-4.1,3.1-8.7,6.7-13.2,11.3l6.1-35
				c0.6-3.5,5.7-9.4,12.6-14.7c0.3-0.3,0.8-0.7,1.4-1.1c3.4-2.7,10.5-8.3,16.5-11.5c1.3-0.7,1.8-2.3,1.1-3.6
				c-0.7-1.3-2.3-1.8-3.6-1.1c-6.4,3.4-13.8,9.2-17.3,12l-1.4,1.1c-1.4,1.1-4.3,3.4-7.2,6.3l5.1-28.9c1.7-9.4,4.3-14.8,10-20.9
				c1-1.1,0.9-2.7-0.1-3.7c-1.1-1-2.7-1-3.7,0.1c-6.4,6.8-9.5,13.2-11.4,23.6c0,0,0,0,0,0c0,0,0,0,0,0l-3.2,18.3
				c-2-4.2-4.2-7.5-4.7-8.1l-8.4-13.1c-0.8-1.2-2.4-1.6-3.6-0.8c-1.2,0.8-1.6,2.4-0.8,3.6l8.5,13.2c2.2,3.1,7.7,12.5,6.8,18l-5.8,33
				c-1.8-3.4-3.7-5.9-5.2-7.9c-0.6-0.8-1.2-1.6-1.6-2.2c-5.1-12.2-11-20.5-18-25.3c-1.2-0.8-2.8-0.5-3.7,0.7
				c-0.8,1.2-0.5,2.8,0.7,3.7c6.1,4.2,11.4,11.8,16.2,23.3c0,0.1,0.1,0.2,0.2,0.3c0,0,0,0.1,0,0.1c0.5,0.8,1.2,1.7,1.9,2.7
				c2.3,3,5.4,7.2,7.8,14l-4.9,27.9c-0.3,1.4,0.7,2.8,2.1,3.1c1.4,0.3,2.8-0.7,3.1-2.1l2.6-14.9c5.9-7.5,12.6-12.8,18.3-17.1
				c0,0,0-0.1,0.1-0.1c0.1-0.1,0.2-0.2,0.3-0.3c4.3-5,9.7-10.3,16.9-12C67.6,412,68.5,410.6,68.1,409.2"/>
		</g>
	</g>
	<g>
		<g>
			<path class="st4" d="M51.6,381.9c0,0-5.6-2.9-13.8,2.3c0,0-7.7,3.5-9.1,13.9c0,0-1.3,6.9,3.5,13.4c0,0,0.9,3.1,1.4,2.6
				c0,0,0.6,0.7,2.6,0.1c0,0,5.8,1.7,10.1-0.3c0,0,11.2-2.8,13.3-15.8c0,0,1.3-8-3.8-13.7c0,0-0.1-1.6-1.1-2.3
				C54.7,382,53.7,381.3,51.6,381.9z"/>
			<path class="st5" d="M61,395.5c0-4.5-1.2-8.4-3.6-11.1c-0.2-0.3-0.4-0.6-0.4-0.9c-0.1-1.1-0.6-2.1-1.6-2.7
				c-0.9-0.6-2-0.7-3.1-0.4c-0.3,0.1-0.6,0.1-1,0c-3.4-1.1-7.5-0.7-11.6,1.1c-3.8,1.7-7.2,4.4-9.2,7.5c-2,3.1-3.2,7.2-3.2,11.4
				c0,4.5,1.2,8.4,3.6,11.1c0.2,0.3,0.4,0.6,0.4,0.9c0.1,1.1,0.6,2.1,1.6,2.7c0.9,0.6,2,0.7,3.1,0.4c0.3-0.1,0.6-0.1,1,0
				c3.4,1.1,7.5,0.7,11.6-1.1c3.8-1.7,7.2-4.4,9.2-7.5S61,399.7,61,395.5z M48,413.2c-3.8,1.7-7.6,2-10.6,1c-0.6-0.2-1.2-0.2-1.8,0
				c-0.6,0.2-1.3,0.1-1.9-0.2c-0.6-0.4-0.9-1-1-1.7c0-0.6-0.3-1.2-0.7-1.7c-2.1-2.4-3.3-6.1-3.3-10.2c0-3.9,1.1-7.8,3-10.7
				c1.9-2.9,5-5.4,8.6-7c3.8-1.7,7.6-2,10.6-1c0.6,0.2,1.2,0.2,1.8,0c0.6-0.2,1.3-0.1,1.9,0.2s0.9,1,1,1.7c0,0.6,0.3,1.2,0.7,1.7
				c2.1,2.4,3.3,6.1,3.3,10.2c0,3.9-1.1,7.8-3,10.7S51.6,411.6,48,413.2z"/>
			<path class="st5" d="M33.2,407.6c-0.3-0.4-0.5-0.9-0.7-1.4c-0.1-0.3-0.5-0.5-0.9-0.4c-0.3,0.1-0.5,0.5-0.4,0.9
				c0.2,0.6,0.5,1.1,0.8,1.6c0.1,0.1,0.1,0.2,0.2,0.2c0.2,0.1,0.5,0.2,0.7,0C33.3,408.3,33.4,407.9,33.2,407.6z"/>
			<path class="st5" d="M56.8,388.7c-0.2-0.5-0.5-1-0.8-1.4c-0.2-0.3-0.6-0.4-0.9-0.2c-0.3,0.2-0.4,0.6-0.2,0.9
				c0.3,0.4,0.5,0.8,0.7,1.3c0.1,0.1,0.1,0.2,0.2,0.3c0.2,0.1,0.4,0.1,0.6,0C56.8,389.4,57,389,56.8,388.7z"/>
			<path class="st5" d="M32.4,395.1c0.1-0.4-0.1-0.7-0.4-0.8c-0.4-0.1-0.7,0.1-0.8,0.4c-0.9,3-1.1,6.4-0.6,9.3
				c0,0.2,0.1,0.3,0.3,0.4c0.1,0.1,0.3,0.1,0.5,0.1c0.4-0.1,0.6-0.4,0.5-0.8C31.3,401.1,31.5,397.9,32.4,395.1z"/>
			<path class="st5" d="M57.3,401.3c1-3.3,1.2-7,0.4-10.1c-0.1-0.4-0.4-0.6-0.8-0.5c-0.4,0.1-0.6,0.4-0.5,0.8
				c0.7,2.9,0.6,6.3-0.4,9.4c-0.1,0.3,0,0.6,0.3,0.7c0.1,0,0.1,0.1,0.2,0.1C56.8,401.9,57.2,401.7,57.3,401.3z"/>
			<path class="st5" d="M46.7,387.8c-0.1-0.1-0.3-0.1-0.5-0.1c-0.2,0-0.3,0.1-0.4,0.3c-0.1,0.1-0.1,0.3-0.1,0.5
				c0,0.2,0.1,0.3,0.3,0.4s0.3,0.1,0.5,0.1c0.2,0,0.3-0.1,0.4-0.3c0.1-0.1,0.1-0.3,0.1-0.5C46.9,388.1,46.8,387.9,46.7,387.8z"/>
			<path class="st5" d="M52,393.9c-0.1-0.1-0.3-0.1-0.5-0.1c-0.2,0-0.3,0.1-0.4,0.3c-0.1,0.1-0.1,0.3-0.1,0.5c0,0.2,0.1,0.3,0.3,0.4
				s0.3,0.1,0.5,0.1c0.2,0,0.3-0.1,0.4-0.3c0.1-0.1,0.1-0.3,0.1-0.5C52.2,394.1,52.1,394,52,393.9z"/>
			<path class="st5" d="M39,393c-0.1-0.1-0.3-0.1-0.5-0.1c-0.2,0-0.3,0.1-0.4,0.3c-0.1,0.1-0.1,0.3-0.1,0.5c0,0.2,0.1,0.3,0.3,0.4
				s0.3,0.1,0.5,0.1c0.2,0,0.3-0.1,0.4-0.3c0.1-0.1,0.1-0.3,0.1-0.5C39.3,393.2,39.2,393.1,39,393z"/>
			<path class="st5" d="M48.1,404.9c-0.1-0.1-0.3-0.1-0.5-0.1c-0.2,0-0.3,0.1-0.4,0.3c-0.1,0.1-0.1,0.3-0.1,0.5
				c0,0.2,0.1,0.3,0.3,0.4s0.3,0.1,0.5,0.1c0.2,0,0.3-0.1,0.4-0.3c0.1-0.1,0.1-0.3,0.1-0.5C48.4,405.2,48.3,405,48.1,404.9z"/>
			<path class="st5" d="M40.7,405.9c-0.1-0.1-0.3-0.1-0.5-0.1c-0.2,0-0.3,0.1-0.4,0.3c-0.1,0.1-0.1,0.3-0.1,0.5
				c0,0.2,0.1,0.3,0.3,0.4s0.3,0.1,0.5,0.1c0.2,0,0.3-0.1,0.4-0.3c0.1-0.1,0.1-0.3,0.1-0.5C40.9,406.2,40.8,406,40.7,405.9z"/>
		</g>
	</g>
	<g>
		<g>
			<path class="st4" d="M4,352.3c0,0,5-2.9,12.6,2.3c0,0,7,3.5,8.2,13.9c0,0,1.2,6.9-3.2,13.4c0,0-0.8,3.1-1.3,2.6
				c0,0-0.5,0.7-2.4,0.1c0,0-5.3,1.7-9.2-0.3c0,0-10.2-2.8-12-15.8c0,0-1.2-8,3.5-13.7c0,0,0.1-1.6,1-2.3
				C1.2,352.4,2.1,351.6,4,352.3z"/>
			<path class="st5" d="M-4.5,365.9c0-4.5,1.1-8.4,3.2-11.1c0.2-0.3,0.3-0.6,0.4-0.9c0.1-1.1,0.6-2.1,1.4-2.7s1.9-0.7,2.8-0.4
				c0.3,0.1,0.6,0.1,0.9,0c3.1-1.1,6.8-0.7,10.5,1.1c3.5,1.7,6.5,4.4,8.4,7.5c1.8,3.1,2.9,7.2,2.9,11.4c0,4.5-1.1,8.4-3.2,11.1
				c-0.2,0.3-0.3,0.6-0.4,0.9c-0.1,1.1-0.6,2.1-1.4,2.7s-1.9,0.7-2.8,0.4c-0.3-0.1-0.6-0.1-0.9,0c-3.1,1.1-6.8,0.7-10.5-1.1
				c-3.5-1.7-6.5-4.4-8.4-7.5S-4.5,370.1-4.5,365.9z M7.3,383.6c3.4,1.7,6.9,2,9.7,1c0.6-0.2,1.1-0.2,1.6,0c0.6,0.2,1.2,0.1,1.7-0.2
				c0.5-0.4,0.8-1,0.9-1.7c0-0.6,0.3-1.2,0.6-1.7c1.9-2.4,3-6.1,3-10.2c0-3.9-1-7.8-2.7-10.7c-1.7-2.9-4.6-5.4-7.8-7
				c-3.4-1.7-6.9-2-9.7-1c-0.6,0.2-1.1,0.2-1.6,0c-0.6-0.2-1.2-0.1-1.7,0.2s-0.8,1-0.9,1.7c0,0.6-0.3,1.2-0.6,1.7
				c-1.9,2.4-3,6.1-3,10.2c0,3.9,1,7.8,2.7,10.7S4,382,7.3,383.6z"/>
			<path class="st5" d="M20.7,377.9c0.2-0.4,0.4-0.9,0.6-1.4c0.1-0.3,0.5-0.5,0.8-0.4c0.3,0.1,0.5,0.5,0.3,0.9
				c-0.2,0.6-0.4,1.1-0.7,1.6c0,0.1-0.1,0.2-0.2,0.2c-0.2,0.1-0.4,0.2-0.6,0C20.7,378.6,20.6,378.2,20.7,377.9z"/>
			<path class="st5" d="M-0.7,359.1c0.2-0.5,0.5-1,0.7-1.4c0.2-0.3,0.6-0.4,0.8-0.2c0.3,0.2,0.3,0.6,0.2,0.9
				c-0.2,0.4-0.5,0.8-0.7,1.3c0,0.1-0.1,0.2-0.2,0.3c-0.2,0.1-0.4,0.1-0.6,0C-0.7,359.8-0.8,359.4-0.7,359.1z"/>
			<path class="st5" d="M21.5,365.5c-0.1-0.4,0.1-0.7,0.4-0.8c0.3-0.1,0.7,0.1,0.8,0.4c0.8,3,1,6.4,0.5,9.3c0,0.2-0.1,0.3-0.3,0.4
				c-0.1,0.1-0.3,0.1-0.4,0.1c-0.3-0.1-0.5-0.4-0.5-0.8C22.4,371.4,22.2,368.3,21.5,365.5z"/>
			<path class="st5" d="M-1.1,371.7c-0.9-3.3-1.1-7-0.4-10.1c0.1-0.4,0.4-0.6,0.7-0.5c0.3,0.1,0.5,0.4,0.4,0.8
				c-0.6,2.9-0.5,6.3,0.4,9.4c0.1,0.3,0,0.6-0.2,0.7c0,0-0.1,0.1-0.2,0.1C-0.7,372.2-1,372-1.1,371.7z"/>
			<path class="st5" d="M8.5,358.2c0.1-0.1,0.3-0.1,0.5-0.1c0.2,0,0.3,0.1,0.4,0.3c0.1,0.1,0.1,0.3,0.1,0.5c0,0.2-0.1,0.3-0.3,0.4
				s-0.3,0.1-0.5,0.1c-0.2,0-0.3-0.1-0.4-0.3c-0.1-0.1-0.1-0.3-0.1-0.5C8.3,358.4,8.4,358.3,8.5,358.2z"/>
			<path class="st5" d="M3.7,364.3c0.1-0.1,0.3-0.1,0.5-0.1c0.2,0,0.3,0.1,0.4,0.3c0.1,0.1,0.1,0.3,0.1,0.5c0,0.2-0.1,0.3-0.3,0.4
				c-0.1,0.1-0.3,0.1-0.5,0.1c-0.2,0-0.3-0.1-0.4-0.3s-0.1-0.3-0.1-0.5C3.5,364.5,3.5,364.3,3.7,364.3z"/>
			<path class="st5" d="M15.4,363.3c0.1-0.1,0.3-0.1,0.5-0.1c0.2,0,0.3,0.1,0.4,0.3c0.1,0.1,0.1,0.3,0.1,0.5c0,0.2-0.1,0.3-0.3,0.4
				c-0.1,0.1-0.3,0.1-0.5,0.1c-0.2,0-0.3-0.1-0.4-0.3c-0.1-0.1-0.1-0.3-0.1-0.5C15.2,363.6,15.3,363.4,15.4,363.3z"/>
			<path class="st5" d="M7.2,375.3c0.1-0.1,0.3-0.1,0.5-0.1c0.2,0,0.3,0.1,0.4,0.3c0.1,0.1,0.1,0.3,0.1,0.5c0,0.2-0.1,0.3-0.3,0.4
				c-0.1,0.1-0.3,0.1-0.5,0.1c-0.2,0-0.3-0.1-0.4-0.3c-0.1-0.1-0.1-0.3-0.1-0.5C7,375.5,7.1,375.4,7.2,375.3z"/>
			<path class="st5" d="M13.9,376.3c0.1-0.1,0.3-0.1,0.5-0.1c0.2,0,0.3,0.1,0.4,0.3c0.1,0.1,0.1,0.3,0.1,0.5c0,0.2-0.1,0.3-0.3,0.4
				s-0.3,0.1-0.5,0.1c-0.2,0-0.3-0.1-0.4-0.3c-0.1-0.1-0.1-0.3-0.1-0.5C13.7,376.5,13.8,376.4,13.9,376.3z"/>
		</g>
	</g>
	<g>
		<g>
			<path class="st4" d="M54.1,331.3c0,0-5.6-2.9-13.8,2.3c0,0-7.7,3.5-9.1,13.9c0,0-1.3,6.9,3.5,13.4c0,0,0.9,3.1,1.4,2.6
				c0,0,0.6,0.7,2.6,0.1c0,0,5.8,1.7,10.1-0.3c0,0,11.2-2.8,13.3-15.8c0,0,1.3-8-3.8-13.7c0,0-0.1-1.6-1.1-2.3
				C57.2,331.4,56.2,330.6,54.1,331.3z"/>
			<path class="st5" d="M63.5,344.9c0-4.5-1.2-8.4-3.6-11.1c-0.2-0.3-0.4-0.6-0.4-0.9c-0.1-1.1-0.6-2.1-1.6-2.7
				c-0.9-0.6-2-0.7-3.1-0.4c-0.3,0.1-0.6,0.1-1,0c-3.4-1.1-7.5-0.7-11.6,1.1c-3.8,1.7-7.2,4.4-9.2,7.5c-2,3.1-3.2,7.2-3.2,11.4
				c0,4.5,1.2,8.4,3.6,11.1c0.2,0.3,0.4,0.6,0.4,0.9c0.1,1.1,0.6,2.1,1.6,2.7c0.9,0.6,2,0.7,3.1,0.4c0.3-0.1,0.6-0.1,1,0
				c3.4,1.1,7.5,0.7,11.6-1.1c3.8-1.7,7.2-4.4,9.2-7.5S63.4,349.1,63.5,344.9z M50.5,362.6c-3.8,1.7-7.6,2-10.6,1
				c-0.6-0.2-1.2-0.2-1.8,0c-0.6,0.2-1.3,0.1-1.9-0.2c-0.6-0.4-0.9-1-1-1.7c0-0.6-0.3-1.2-0.7-1.7c-2.1-2.4-3.3-6.1-3.3-10.2
				c0-3.9,1.1-7.8,3-10.7c1.9-2.9,5-5.4,8.6-7c3.8-1.7,7.6-2,10.6-1c0.6,0.2,1.2,0.2,1.8,0c0.6-0.2,1.3-0.1,1.9,0.2s0.9,1,1,1.7
				c0,0.6,0.3,1.2,0.7,1.7c2.1,2.4,3.3,6.1,3.3,10.2c0,3.9-1.1,7.8-3,10.7C57.2,358.5,54.1,361,50.5,362.6z"/>
			<path class="st5" d="M35.7,356.9c-0.3-0.4-0.5-0.9-0.7-1.4c-0.1-0.3-0.5-0.5-0.9-0.4c-0.3,0.1-0.5,0.5-0.4,0.9
				c0.2,0.6,0.5,1.1,0.8,1.6c0.1,0.1,0.1,0.2,0.2,0.2c0.2,0.1,0.5,0.2,0.7,0C35.7,357.6,35.8,357.2,35.7,356.9z"/>
			<path class="st5" d="M59.3,338.1c-0.2-0.5-0.5-1-0.8-1.4c-0.2-0.3-0.6-0.4-0.9-0.2c-0.3,0.2-0.4,0.6-0.2,0.9
				c0.3,0.4,0.5,0.8,0.7,1.3c0.1,0.1,0.1,0.2,0.2,0.3c0.2,0.1,0.4,0.1,0.6,0C59.3,338.8,59.4,338.4,59.3,338.1z"/>
			<path class="st5" d="M34.9,344.5c0.1-0.4-0.1-0.7-0.4-0.8c-0.4-0.1-0.7,0.1-0.8,0.4c-0.9,3-1.1,6.4-0.6,9.3
				c0,0.2,0.1,0.3,0.3,0.4c0.1,0.1,0.3,0.1,0.5,0.1c0.4-0.1,0.6-0.4,0.5-0.8C33.8,350.4,34,347.3,34.9,344.5z"/>
			<path class="st5" d="M59.7,350.7c1-3.3,1.2-7,0.4-10.1c-0.1-0.4-0.4-0.6-0.8-0.5c-0.4,0.1-0.6,0.4-0.5,0.8
				c0.7,2.9,0.6,6.3-0.4,9.4c-0.1,0.3,0,0.6,0.3,0.7c0.1,0,0.1,0.1,0.2,0.1C59.3,351.2,59.6,351,59.7,350.7z"/>
			<path class="st5" d="M49.1,337.2c-0.1-0.1-0.3-0.1-0.5-0.1c-0.2,0-0.3,0.1-0.4,0.3c-0.1,0.1-0.1,0.3-0.1,0.5
				c0,0.2,0.1,0.3,0.3,0.4s0.3,0.1,0.5,0.1c0.2,0,0.3-0.1,0.4-0.3c0.1-0.1,0.1-0.3,0.1-0.5C49.4,337.4,49.3,337.3,49.1,337.2z"/>
			<path class="st5" d="M54.5,343.3c-0.1-0.1-0.3-0.1-0.5-0.1c-0.2,0-0.3,0.1-0.4,0.3c-0.1,0.1-0.1,0.3-0.1,0.5
				c0,0.2,0.1,0.3,0.3,0.4s0.3,0.1,0.5,0.1c0.2,0,0.3-0.1,0.4-0.3c0.1-0.1,0.1-0.3,0.1-0.5C54.7,343.5,54.6,343.3,54.5,343.3z"/>
			<path class="st5" d="M41.5,342.3c-0.1-0.1-0.3-0.1-0.5-0.1c-0.2,0-0.3,0.1-0.4,0.3c-0.1,0.1-0.1,0.3-0.1,0.5
				c0,0.2,0.1,0.3,0.3,0.4s0.3,0.1,0.5,0.1c0.2,0,0.3-0.1,0.4-0.3c0.1-0.1,0.1-0.3,0.1-0.5C41.8,342.6,41.6,342.4,41.5,342.3z"/>
			<path class="st5" d="M50.6,354.3c-0.1-0.1-0.3-0.1-0.5-0.1c-0.2,0-0.3,0.1-0.4,0.3c-0.1,0.1-0.1,0.3-0.1,0.5
				c0,0.2,0.1,0.3,0.3,0.4s0.3,0.1,0.5,0.1c0.2,0,0.3-0.1,0.4-0.3c0.1-0.1,0.1-0.3,0.1-0.5C50.9,354.5,50.8,354.4,50.6,354.3z"/>
			<path class="st5" d="M43.1,355.3c-0.1-0.1-0.3-0.1-0.5-0.1c-0.2,0-0.3,0.1-0.4,0.3c-0.1,0.1-0.1,0.3-0.1,0.5
				c0,0.2,0.1,0.3,0.3,0.4s0.3,0.1,0.5,0.1c0.2,0,0.3-0.1,0.4-0.3c0.1-0.1,0.1-0.3,0.1-0.5C43.4,355.5,43.3,355.4,43.1,355.3z"/>
		</g>
	</g>
</g>
<g>
	<g>
		<g>
			<g>
				<path class="st0" d="M179,503.6c-6-37.6-23.2-43.9-56.8-38.6C128.1,501.3,151.9,508,179,503.6"/>
				<path class="st0" d="M212.4,507.2c-5-31.6,8.2-40,34.6-44.2C252.4,493.6,239.7,502.9,212.4,507.2"/>
				<path class="st0" d="M201.6,383.9c11,21.6-5.1,37.7-19,41.7C169.6,411.7,173.9,392.3,201.6,383.9"/>
				<path class="st0" d="M174.1,453.8c-24.3,3.9-30.9-7-34.1-27.3C163.5,422.4,170.7,432.8,174.1,453.8"/>
				<path class="st0" d="M199.1,461.7c26.5-4.2,37.3-9,31.7-43.8C204.4,422.2,193.6,427,199.1,461.7"/>
			</g>
			<path class="st1" d="M229.5,485.5c-0.9-1.4-2.7-1.8-4.1-0.9c-8.3,5.3-12.6,13.7-15.7,21.3c-3.2,4.8-6.7,10.3-9.8,16.7l-6.2-39.1
				c-0.6-3.9,2.6-12,7.9-20.1c0.3-0.4,0.6-1,1.1-1.7c2.6-4.1,8.1-12.5,13.2-18.1c1.1-1.2,1-3.1-0.2-4.2c-1.2-1.1-3.1-1-4.2,0.2
				c-5.5,6-11.2,14.7-13.9,18.9l-1.1,1.6c-1.1,1.7-3.3,5.2-5.3,9.3l-5.2-32.3c-1.6-10.5-0.8-17.2,3-25.7c0.7-1.5,0-3.2-1.5-3.9
				c-1.5-0.7-3.2,0-3.9,1.5c-4.3,9.5-5.2,17.3-3.5,29c0,0,0,0,0,0c0,0,0,0,0,0l3.3,20.4c-3.6-3.7-7.1-6.3-7.8-6.8l-13.6-10.7
				c-1.3-1-3.1-0.8-4.1,0.5c-1,1.3-0.8,3.1,0.5,4.1l13.7,10.8c3.5,2.5,12.7,10.4,13.7,16.5l5.9,36.9c-3.2-2.9-6-4.8-8.4-6.4
				c-1-0.6-1.8-1.2-2.5-1.8c-9.9-11-19.1-17.6-28.1-20.1c-1.6-0.4-3.2,0.5-3.6,2c-0.4,1.6,0.5,3.2,2,3.6c8,2.2,16.3,8.3,25.5,18.6
				c0.1,0.1,0.2,0.2,0.3,0.3c0,0,0.1,0.1,0.1,0.1c0.9,0.7,1.9,1.3,3,2.1c3.5,2.4,8.2,5.6,13.3,11.9l5,31.1c0.3,1.6,1.8,2.7,3.4,2.4
				c1.6-0.3,2.7-1.8,2.4-3.4l-2.7-16.7c3.5-10.1,8.6-18,13.1-24.6c0,0,0-0.1,0.1-0.1c0.1-0.1,0.2-0.3,0.2-0.4
				c2.7-6.8,6.5-14.3,13.5-18.8C229.9,488.6,230.3,486.8,229.5,485.5"/>
		</g>
	</g>
	<g>
		<g>
			<g>
				<path class="st2" d="M181.1,502.9c5.9-33.6-6.9-44-36.9-49.3C138.5,486.1,156.7,498.6,181.1,502.9"/>
				<path class="st2" d="M208.3,515.6c4.9-28.3,18.6-31.5,42.3-27.4C246.2,515.7,232.7,519.9,208.3,515.6"/>
				<path class="st2" d="M235.1,407.9c3.1,21.6-15.3,30.5-28.3,29.9C199.8,422.1,209.2,406.9,235.1,407.9"/>
				<path class="st2" d="M191.4,459.2c-21.8-3.8-24.2-14.9-21-33.1C191.5,429.4,194.6,440.3,191.4,459.2"/>
				<path class="st2" d="M210.3,473.2c23.7,4.1,34.2,3.2,39.7-27.9C226.3,441.2,215.7,442.1,210.3,473.2"/>
			</g>
			<path class="st3" d="M229.1,502.2c-0.3-1.4-1.8-2.3-3.2-1.9c-8.6,2.1-14.7,8-19.5,13.5c-4.1,3.1-8.7,6.7-13.2,11.3l6.1-35
				c0.6-3.5,5.7-9.4,12.6-14.7c0.3-0.3,0.8-0.7,1.4-1.1c3.4-2.7,10.5-8.3,16.5-11.5c1.3-0.7,1.8-2.3,1.1-3.6
				c-0.7-1.3-2.3-1.8-3.6-1.1c-6.4,3.4-13.8,9.2-17.3,12l-1.4,1.1c-1.4,1.1-4.3,3.4-7.2,6.3l5.1-28.9c1.7-9.4,4.3-14.8,10-20.9
				c1-1.1,0.9-2.7-0.1-3.7c-1.1-1-2.7-1-3.7,0.1c-6.4,6.8-9.5,13.2-11.4,23.6c0,0,0,0,0,0c0,0,0,0,0,0l-3.2,18.3
				c-2-4.2-4.2-7.5-4.7-8.1l-8.4-13.1c-0.8-1.2-2.4-1.6-3.6-0.8c-1.2,0.8-1.6,2.4-0.8,3.6l8.5,13.2c2.2,3.1,7.7,12.5,6.8,18l-5.8,33
				c-1.8-3.4-3.7-5.9-5.2-7.9c-0.6-0.8-1.2-1.6-1.6-2.2c-5.1-12.2-11-20.5-18-25.3c-1.2-0.8-2.8-0.5-3.7,0.7
				c-0.8,1.2-0.5,2.8,0.7,3.7c6.1,4.2,11.4,11.8,16.2,23.3c0,0.1,0.1,0.2,0.2,0.3c0,0,0,0.1,0,0.1c0.5,0.8,1.2,1.7,1.9,2.7
				c2.3,3,5.4,7.2,7.8,14l-4.9,27.9c-0.3,1.4,0.7,2.8,2.1,3.1s2.8-0.7,3.1-2.1l2.6-14.9c5.9-7.5,12.6-12.8,18.3-17.1
				c0,0,0-0.1,0.1-0.1c0.1-0.1,0.2-0.2,0.3-0.3c4.3-5,9.7-10.3,16.9-12C228.6,505,229.5,503.6,229.1,502.2"/>
		</g>
	</g>
	<g>
		<g>
			<path class="st4" d="M212.6,474.9c0,0-5.6-2.9-13.8,2.3c0,0-7.7,3.5-9.1,13.9c0,0-1.3,6.9,3.5,13.4c0,0,0.9,3.1,1.4,2.6
				c0,0,0.6,0.7,2.6,0.1c0,0,5.8,1.7,10.1-0.3c0,0,11.2-2.8,13.3-15.8c0,0,1.3-8-3.8-13.7c0,0-0.1-1.6-1.1-2.3
				C215.7,475,214.7,474.3,212.6,474.9z"/>
			<path class="st5" d="M222,488.5c0-4.5-1.2-8.4-3.6-11.1c-0.2-0.3-0.4-0.6-0.4-0.9c-0.1-1.1-0.6-2.1-1.6-2.7
				c-0.9-0.6-2-0.7-3.1-0.4c-0.3,0.1-0.6,0.1-1,0c-3.4-1.1-7.5-0.7-11.6,1.1c-3.8,1.7-7.2,4.4-9.2,7.5c-2,3.1-3.2,7.2-3.2,11.4
				c0,4.5,1.2,8.4,3.6,11.1c0.2,0.3,0.4,0.6,0.4,0.9c0.1,1.1,0.6,2.1,1.6,2.7c0.9,0.6,2,0.7,3.1,0.4c0.3-0.1,0.6-0.1,1,0
				c3.4,1.1,7.5,0.7,11.6-1.1c3.8-1.7,7.2-4.4,9.2-7.5S222,492.7,222,488.5z M209,506.2c-3.8,1.7-7.6,2-10.6,1
				c-0.6-0.2-1.2-0.2-1.8,0c-0.6,0.2-1.3,0.1-1.9-0.2c-0.6-0.4-0.9-1-1-1.7c0-0.6-0.3-1.2-0.7-1.7c-2.1-2.4-3.3-6.1-3.3-10.2
				c0-3.9,1.1-7.8,3-10.7c1.9-2.9,5-5.4,8.6-7c3.8-1.7,7.6-2,10.6-1c0.6,0.2,1.2,0.2,1.8,0c0.6-0.2,1.3-0.1,1.9,0.2s0.9,1,1,1.7
				c0,0.6,0.3,1.2,0.7,1.7c2.1,2.4,3.3,6.1,3.3,10.2c0,3.9-1.1,7.8-3,10.7C215.8,502.1,212.6,504.6,209,506.2z"/>
			<path class="st5" d="M194.2,500.6c-0.3-0.4-0.5-0.9-0.7-1.4c-0.1-0.3-0.5-0.5-0.9-0.4c-0.3,0.1-0.5,0.5-0.4,0.9
				c0.2,0.6,0.5,1.1,0.8,1.6c0.1,0.1,0.1,0.2,0.2,0.2c0.2,0.1,0.5,0.2,0.7,0C194.3,501.3,194.4,500.9,194.2,500.6z"/>
			<path class="st5" d="M217.8,481.7c-0.2-0.5-0.5-1-0.8-1.4c-0.2-0.3-0.6-0.4-0.9-0.2c-0.3,0.2-0.4,0.6-0.2,0.9
				c0.3,0.4,0.5,0.8,0.7,1.3c0.1,0.1,0.1,0.2,0.2,0.3c0.2,0.1,0.4,0.1,0.6,0C217.8,482.4,218,482,217.8,481.7z"/>
			<path class="st5" d="M193.4,488.1c0.1-0.4-0.1-0.7-0.4-0.8c-0.4-0.1-0.7,0.1-0.8,0.4c-0.9,3-1.1,6.4-0.6,9.3
				c0,0.2,0.1,0.3,0.3,0.4c0.1,0.1,0.3,0.1,0.5,0.1c0.4-0.1,0.6-0.4,0.5-0.8C192.3,494.1,192.5,490.9,193.4,488.1z"/>
			<path class="st5" d="M218.3,494.3c1-3.3,1.2-7,0.4-10.1c-0.1-0.4-0.4-0.6-0.8-0.5c-0.4,0.1-0.6,0.4-0.5,0.8
				c0.7,2.9,0.6,6.3-0.4,9.4c-0.1,0.3,0,0.6,0.3,0.7c0.1,0,0.1,0.1,0.2,0.1C217.8,494.9,218.2,494.7,218.3,494.3z"/>
			<path class="st5" d="M207.7,480.8c-0.1-0.1-0.3-0.1-0.5-0.1c-0.2,0-0.3,0.1-0.4,0.3c-0.1,0.1-0.1,0.3-0.1,0.5
				c0,0.2,0.1,0.3,0.3,0.4s0.3,0.1,0.5,0.1c0.2,0,0.3-0.1,0.4-0.3c0.1-0.1,0.1-0.3,0.1-0.5C207.9,481.1,207.8,480.9,207.7,480.8z"/>
			<path class="st5" d="M213,486.9c-0.1-0.1-0.3-0.1-0.5-0.1c-0.2,0-0.3,0.1-0.4,0.3c-0.1,0.1-0.1,0.3-0.1,0.5
				c0,0.2,0.1,0.3,0.3,0.4s0.3,0.1,0.5,0.1c0.2,0,0.3-0.1,0.4-0.3c0.1-0.1,0.1-0.3,0.1-0.5C213.2,487.1,213.1,487,213,486.9z"/>
			<path class="st5" d="M200,486c-0.1-0.1-0.3-0.1-0.5-0.1c-0.2,0-0.3,0.1-0.4,0.3c-0.1,0.1-0.1,0.3-0.1,0.5c0,0.2,0.1,0.3,0.3,0.4
				s0.3,0.1,0.5,0.1c0.2,0,0.3-0.1,0.4-0.3c0.1-0.1,0.1-0.3,0.1-0.5C200.3,486.2,200.2,486.1,200,486z"/>
			<path class="st5" d="M209.1,497.9c-0.1-0.1-0.3-0.1-0.5-0.1c-0.2,0-0.3,0.1-0.4,0.3c-0.1,0.1-0.1,0.3-0.1,0.5
				c0,0.2,0.1,0.3,0.3,0.4s0.3,0.1,0.5,0.1c0.2,0,0.3-0.1,0.4-0.3c0.1-0.1,0.1-0.3,0.1-0.5C209.4,498.2,209.3,498,209.1,497.9z"/>
			<path class="st5" d="M201.7,498.9c-0.1-0.1-0.3-0.1-0.5-0.1c-0.2,0-0.3,0.1-0.4,0.3c-0.1,0.1-0.1,0.3-0.1,0.5
				c0,0.2,0.1,0.3,0.3,0.4c0.1,0.1,0.3,0.1,0.5,0.1c0.2,0,0.3-0.1,0.4-0.3c0.1-0.1,0.1-0.3,0.1-0.5
				C201.9,499.2,201.8,499,201.7,498.9z"/>
		</g>
	</g>
	<g>
		<g>
			<path class="st4" d="M165,445.3c0,0,5-2.9,12.6,2.3c0,0,7,3.5,8.2,13.9c0,0,1.2,6.9-3.2,13.4c0,0-0.8,3.1-1.3,2.6
				c0,0-0.5,0.7-2.4,0.1c0,0-5.3,1.7-9.2-0.3c0,0-10.2-2.8-12-15.8c0,0-1.2-8,3.5-13.7c0,0,0.1-1.6,1-2.3
				C162.2,445.4,163.1,444.6,165,445.3z"/>
			<path class="st5" d="M156.5,458.9c0-4.5,1.1-8.4,3.2-11.1c0.2-0.3,0.3-0.6,0.4-0.9c0.1-1.1,0.6-2.1,1.4-2.7
				c0.8-0.6,1.9-0.7,2.8-0.4c0.3,0.1,0.6,0.1,0.9,0c3.1-1.1,6.8-0.7,10.5,1.1c3.5,1.7,6.5,4.4,8.4,7.5c1.8,3.1,2.9,7.2,2.9,11.4
				c0,4.5-1.1,8.4-3.2,11.1c-0.2,0.3-0.3,0.6-0.4,0.9c-0.1,1.1-0.6,2.1-1.4,2.7s-1.9,0.7-2.8,0.4c-0.3-0.1-0.6-0.1-0.9,0
				c-3.1,1.1-6.8,0.7-10.5-1.1c-3.5-1.7-6.5-4.4-8.4-7.5S156.5,463.1,156.5,458.9z M168.3,476.6c3.4,1.7,6.9,2,9.7,1
				c0.6-0.2,1.1-0.2,1.6,0c0.6,0.2,1.2,0.1,1.7-0.2c0.5-0.4,0.8-1,0.9-1.7c0-0.6,0.3-1.2,0.6-1.7c1.9-2.4,3-6.1,3-10.2
				c0-3.9-1-7.8-2.7-10.7c-1.7-2.9-4.6-5.4-7.8-7c-3.4-1.7-6.9-2-9.7-1c-0.6,0.2-1.1,0.2-1.6,0c-0.6-0.2-1.2-0.1-1.7,0.2
				s-0.8,1-0.9,1.7c0,0.6-0.3,1.2-0.6,1.7c-1.9,2.4-3,6.1-3,10.2c0,3.9,1,7.8,2.7,10.7S165,475,168.3,476.6z"/>
			<path class="st5" d="M181.7,470.9c0.2-0.4,0.4-0.9,0.6-1.4c0.1-0.3,0.5-0.5,0.8-0.4c0.3,0.1,0.5,0.5,0.3,0.9
				c-0.2,0.6-0.4,1.1-0.7,1.6c0,0.1-0.1,0.2-0.2,0.2c-0.2,0.1-0.4,0.2-0.6,0C181.7,471.6,181.6,471.2,181.7,470.9z"/>
			<path class="st5" d="M160.3,452.1c0.2-0.5,0.5-1,0.7-1.4c0.2-0.3,0.6-0.4,0.8-0.2s0.3,0.6,0.2,0.9c-0.2,0.4-0.5,0.8-0.7,1.3
				c0,0.1-0.1,0.2-0.2,0.3c-0.2,0.1-0.4,0.1-0.6,0C160.3,452.8,160.2,452.4,160.3,452.1z"/>
			<path class="st5" d="M182.5,458.5c-0.1-0.4,0.1-0.7,0.4-0.8c0.3-0.1,0.7,0.1,0.8,0.4c0.8,3,1,6.4,0.5,9.3c0,0.2-0.1,0.3-0.3,0.4
				c-0.1,0.1-0.3,0.1-0.4,0.1c-0.3-0.1-0.5-0.4-0.5-0.8C183.4,464.4,183.2,461.3,182.5,458.5z"/>
			<path class="st5" d="M159.9,464.7c-0.9-3.3-1.1-7-0.4-10.1c0.1-0.4,0.4-0.6,0.7-0.5c0.3,0.1,0.5,0.4,0.4,0.8
				c-0.6,2.9-0.5,6.3,0.4,9.4c0.1,0.3,0,0.6-0.2,0.7c0,0-0.1,0.1-0.2,0.1C160.3,465.2,160,465,159.9,464.7z"/>
			<path class="st5" d="M169.5,451.2c0.1-0.1,0.3-0.1,0.5-0.1c0.2,0,0.3,0.1,0.4,0.3c0.1,0.1,0.1,0.3,0.1,0.5c0,0.2-0.1,0.3-0.3,0.4
				c-0.1,0.1-0.3,0.1-0.5,0.1c-0.2,0-0.3-0.1-0.4-0.3c-0.1-0.1-0.1-0.3-0.1-0.5C169.3,451.4,169.4,451.3,169.5,451.2z"/>
			<path class="st5" d="M164.7,457.3c0.1-0.1,0.3-0.1,0.5-0.1c0.2,0,0.3,0.1,0.4,0.3c0.1,0.1,0.1,0.3,0.1,0.5c0,0.2-0.1,0.3-0.3,0.4
				s-0.3,0.1-0.5,0.1c-0.2,0-0.3-0.1-0.4-0.3c-0.1-0.1-0.1-0.3-0.1-0.5C164.5,457.5,164.5,457.3,164.7,457.3z"/>
			<path class="st5" d="M176.4,456.3c0.1-0.1,0.3-0.1,0.5-0.1c0.2,0,0.3,0.1,0.4,0.3c0.1,0.1,0.1,0.3,0.1,0.5c0,0.2-0.1,0.3-0.3,0.4
				c-0.1,0.1-0.3,0.1-0.5,0.1c-0.2,0-0.3-0.1-0.4-0.3c-0.1-0.1-0.1-0.3-0.1-0.5C176.2,456.6,176.3,456.4,176.4,456.3z"/>
			<path class="st5" d="M168.2,468.3c0.1-0.1,0.3-0.1,0.5-0.1c0.2,0,0.3,0.1,0.4,0.3c0.1,0.1,0.1,0.3,0.1,0.5c0,0.2-0.1,0.3-0.3,0.4
				c-0.1,0.1-0.3,0.1-0.5,0.1c-0.2,0-0.3-0.1-0.4-0.3c-0.1-0.1-0.1-0.3-0.1-0.5C168,468.5,168.1,468.4,168.2,468.3z"/>
			<path class="st5" d="M174.9,469.3c0.1-0.1,0.3-0.1,0.5-0.1c0.2,0,0.3,0.1,0.4,0.3c0.1,0.1,0.1,0.3,0.1,0.5c0,0.2-0.1,0.3-0.3,0.4
				s-0.3,0.1-0.5,0.1c-0.2,0-0.3-0.1-0.4-0.3c-0.1-0.1-0.1-0.3-0.1-0.5C174.7,469.5,174.8,469.4,174.9,469.3z"/>
		</g>
	</g>
	<g>
		<g>
			<path class="st4" d="M215.1,424.3c0,0-5.6-2.9-13.8,2.3c0,0-7.7,3.5-9.1,13.9c0,0-1.3,6.9,3.5,13.4c0,0,0.9,3.1,1.4,2.6
				c0,0,0.6,0.7,2.6,0.1c0,0,5.8,1.7,10.1-0.3c0,0,11.2-2.8,13.3-15.8c0,0,1.3-8-3.8-13.7c0,0-0.1-1.6-1.1-2.3
				C218.2,424.4,217.2,423.6,215.1,424.3z"/>
			<path class="st5" d="M224.5,437.9c0-4.5-1.2-8.4-3.6-11.1c-0.2-0.3-0.4-0.6-0.4-0.9c-0.1-1.1-0.6-2.1-1.6-2.7
				c-0.9-0.6-2-0.7-3.1-0.4c-0.3,0.1-0.6,0.1-1,0c-3.4-1.1-7.5-0.7-11.6,1.1c-3.8,1.7-7.2,4.4-9.2,7.5c-2,3.1-3.2,7.2-3.2,11.4
				c0,4.5,1.2,8.4,3.6,11.1c0.2,0.3,0.4,0.6,0.4,0.9c0.1,1.1,0.6,2.1,1.6,2.7c0.9,0.6,2,0.7,3.1,0.4c0.3-0.1,0.6-0.1,1,0
				c3.4,1.1,7.5,0.7,11.6-1.1c3.8-1.7,7.2-4.4,9.2-7.5S224.4,442.1,224.5,437.9z M211.5,455.6c-3.8,1.7-7.6,2-10.6,1
				c-0.6-0.2-1.2-0.2-1.8,0c-0.6,0.2-1.3,0.1-1.9-0.2c-0.6-0.4-0.9-1-1-1.7c0-0.6-0.3-1.2-0.7-1.7c-2.1-2.4-3.3-6.1-3.3-10.2
				c0-3.9,1.1-7.8,3-10.7s5-5.4,8.6-7c3.8-1.7,7.6-2,10.6-1c0.6,0.2,1.2,0.2,1.8,0c0.6-0.2,1.3-0.1,1.9,0.2s0.9,1,1,1.7
				c0,0.6,0.3,1.2,0.7,1.7c2.1,2.4,3.3,6.1,3.3,10.2c0,3.9-1.1,7.8-3,10.7C218.2,451.5,215.1,454,211.5,455.6z"/>
			<path class="st5" d="M196.7,449.9c-0.3-0.4-0.5-0.9-0.7-1.4c-0.1-0.3-0.5-0.5-0.9-0.4c-0.3,0.1-0.5,0.5-0.4,0.9
				c0.2,0.6,0.5,1.1,0.8,1.6c0.1,0.1,0.1,0.2,0.2,0.2c0.2,0.1,0.5,0.2,0.7,0C196.7,450.6,196.8,450.2,196.7,449.9z"/>
			<path class="st5" d="M220.3,431.1c-0.2-0.5-0.5-1-0.8-1.4c-0.2-0.3-0.6-0.4-0.9-0.2c-0.3,0.2-0.4,0.6-0.2,0.9
				c0.3,0.4,0.5,0.8,0.7,1.3c0.1,0.1,0.1,0.2,0.2,0.3c0.2,0.1,0.4,0.1,0.6,0C220.3,431.8,220.4,431.4,220.3,431.1z"/>
			<path class="st5" d="M195.9,437.5c0.1-0.4-0.1-0.7-0.4-0.8c-0.4-0.1-0.7,0.1-0.8,0.4c-0.9,3-1.1,6.4-0.6,9.3
				c0,0.2,0.1,0.3,0.3,0.4c0.1,0.1,0.3,0.1,0.5,0.1c0.4-0.1,0.6-0.4,0.5-0.8C194.8,443.4,195,440.3,195.9,437.5z"/>
			<path class="st5" d="M220.7,443.7c1-3.3,1.2-7,0.4-10.1c-0.1-0.4-0.4-0.6-0.8-0.5c-0.4,0.1-0.6,0.4-0.5,0.8
				c0.7,2.9,0.6,6.3-0.4,9.4c-0.1,0.3,0,0.6,0.3,0.7c0.1,0,0.1,0.1,0.2,0.1C220.3,444.2,220.6,444,220.7,443.7z"/>
			<path class="st5" d="M210.1,430.2c-0.1-0.1-0.3-0.1-0.5-0.1c-0.2,0-0.3,0.1-0.4,0.3c-0.1,0.1-0.1,0.3-0.1,0.5
				c0,0.2,0.1,0.3,0.3,0.4c0.1,0.1,0.3,0.1,0.5,0.1c0.2,0,0.3-0.1,0.4-0.3c0.1-0.1,0.1-0.3,0.1-0.5
				C210.4,430.4,210.3,430.3,210.1,430.2z"/>
			<path class="st5" d="M215.5,436.3c-0.1-0.1-0.3-0.1-0.5-0.1c-0.2,0-0.3,0.1-0.4,0.3c-0.1,0.1-0.1,0.3-0.1,0.5
				c0,0.2,0.1,0.3,0.3,0.4s0.3,0.1,0.5,0.1c0.2,0,0.3-0.1,0.4-0.3c0.1-0.1,0.1-0.3,0.1-0.5C215.7,436.5,215.6,436.3,215.5,436.3z"/>
			<path class="st5" d="M202.5,435.3c-0.1-0.1-0.3-0.1-0.5-0.1c-0.2,0-0.3,0.1-0.4,0.3c-0.1,0.1-0.1,0.3-0.1,0.5
				c0,0.2,0.1,0.3,0.3,0.4c0.1,0.1,0.3,0.1,0.5,0.1c0.2,0,0.3-0.1,0.4-0.3c0.1-0.1,0.1-0.3,0.1-0.5
				C202.8,435.6,202.6,435.4,202.5,435.3z"/>
			<path class="st5" d="M211.6,447.3c-0.1-0.1-0.3-0.1-0.5-0.1c-0.2,0-0.3,0.1-0.4,0.3c-0.1,0.1-0.1,0.3-0.1,0.5
				c0,0.2,0.1,0.3,0.3,0.4c0.1,0.1,0.3,0.1,0.5,0.1c0.2,0,0.3-0.1,0.4-0.3c0.1-0.1,0.1-0.3,0.1-0.5
				C211.9,447.5,211.8,447.4,211.6,447.3z"/>
			<path class="st5" d="M204.1,448.3c-0.1-0.1-0.3-0.1-0.5-0.1c-0.2,0-0.3,0.1-0.4,0.3c-0.1,0.1-0.1,0.3-0.1,0.5
				c0,0.2,0.1,0.3,0.3,0.4s0.3,0.1,0.5,0.1c0.2,0,0.3-0.1,0.4-0.3c0.1-0.1,0.1-0.3,0.1-0.5C204.4,448.5,204.3,448.4,204.1,448.3z"/>
		</g>
	</g>
</g>
</svg>
