<?xml version="1.0" encoding="utf-8"?>
<!-- Generator: Adobe Illustrator 19.0.1, SVG Export Plug-In . SVG Version: 6.00 Build 0)  -->
<svg version="1.1" id="lemon_x5F_grow" xmlns="http://www.w3.org/2000/svg" xmlns:xlink="http://www.w3.org/1999/xlink" x="0px"
	 y="0px" viewBox="-223 225 512 512" style="enable-background:new -223 225 512 512;" xml:space="preserve">
<style type="text/css">
	.st0{fill:#81C784;}
	.st1{fill:#4CAF50;}
</style>
<g>
	<g>
		<g>
			<path class="st0" d="M-134.3,532.9c0-14.9-6.3-18.4-19.6-18.4C-153.8,528.9-145,532.9-134.3,532.9"/>
			<path class="st0" d="M-121.6,536.4c0-12.5,5.6-15,16.1-15C-105.3,533.6-110.8,536.4-121.6,536.4"/>
			<path class="st0" d="M-118.2,488.1c2.9,9-4.3,14.3-9.9,15C-132.3,496.8-129.4,489.6-118.2,488.1"/>
			<path class="st0" d="M-133.1,513.4c-9.6,0-11.5-4.6-11.5-12.7C-135.3,500.6-133.1,505-133.1,513.4"/>
			<path class="st0" d="M-123.9,518c10.5,0,15-1.2,15-15C-119.5,503-123.9,504.2-123.9,518"/>
		</g>
		<path class="st1" d="M-113.7,529c-0.3-0.6-0.9-0.9-1.5-0.6c-3.5,1.5-5.7,4.5-7.4,7.3c-1.5,1.7-3.2,3.5-4.8,5.8V526
			c0-1.6,1.7-4.5,4.3-7.3c0.1-0.1,0.3-0.3,0.5-0.6c1.3-1.4,3.9-4.3,6.2-6.2c0.5-0.4,0.6-1.1,0.2-1.6c-0.4-0.5-1.1-0.6-1.6-0.2
			c-2.5,2-5.2,5-6.5,6.5l-0.5,0.6c-0.5,0.6-1.6,1.8-2.6,3.3v-12.8c0-4.2,0.8-6.7,2.7-9.7c0.3-0.5,0.2-1.2-0.3-1.6
			c-0.5-0.4-1.2-0.2-1.6,0.3c-2.2,3.4-3.1,6.4-3.1,11c0,0,0,0,0,0s0,0,0,0v8.1c-1.2-1.7-2.4-2.9-2.6-3.1l-4.6-5
			c-0.4-0.5-1.2-0.5-1.6-0.1c-0.5,0.4-0.5,1.2-0.1,1.6l4.6,5c1.2,1.2,4.3,4.8,4.3,7.2V536c-1-1.3-2-2.2-2.8-3
			c-0.3-0.3-0.6-0.6-0.9-0.8c-3.1-4.9-6.3-8-9.6-9.5c-0.6-0.3-1.3,0-1.5,0.6c-0.3,0.6,0,1.3,0.6,1.5c3,1.4,5.8,4.2,8.7,8.8
			c0,0,0.1,0.1,0.1,0.1c0,0,0,0,0,0c0.3,0.3,0.6,0.6,1,1c1.2,1.1,2.8,2.7,4.4,5.4v12.3c0,0.6,0.5,1.2,1.2,1.2c0.6,0,1.2-0.5,1.2-1.2
			v-6.6c2-3.7,4.4-6.4,6.6-8.7c0,0,0,0,0,0c0,0,0.1-0.1,0.1-0.1c1.5-2.5,3.4-5.1,6.4-6.4C-113.7,530.3-113.4,529.6-113.7,529"/>
	</g>
</g>
<g>
	<g>
		<g>
			<path class="st0" d="M26.8,625.2c0-14.9-6.3-18.4-19.6-18.4C7.2,621.1,16,625.2,26.8,625.2"/>
			<path class="st0" d="M39.4,628.6c0-12.5,5.6-15,16.1-15C55.7,625.8,50.3,628.6,39.4,628.6"/>
			<path class="st0" d="M42.9,580.3c2.9,9-4.3,14.3-9.9,15C28.8,589,31.7,581.8,42.9,580.3"/>
			<path class="st0" d="M27.9,605.6c-9.6,0-11.5-4.6-11.5-12.7C25.8,592.8,27.9,597.3,27.9,605.6"/>
			<path class="st0" d="M37.1,610.2c10.5,0,15-1.2,15-15C41.6,595.2,37.1,596.4,37.1,610.2"/>
		</g>
		<path class="st1" d="M47.4,621.2c-0.3-0.6-0.9-0.9-1.5-0.6c-3.5,1.5-5.7,4.5-7.4,7.3c-1.5,1.7-3.2,3.5-4.8,5.8v-15.5
			c0-1.6,1.7-4.5,4.3-7.3c0.1-0.1,0.3-0.3,0.5-0.6c1.3-1.4,3.9-4.3,6.2-6.2c0.5-0.4,0.6-1.1,0.2-1.6c-0.4-0.5-1.1-0.6-1.6-0.2
			c-2.5,2-5.2,5-6.5,6.5l-0.5,0.6c-0.5,0.6-1.6,1.8-2.6,3.3v-12.8c0-4.2,0.8-6.7,2.7-9.7c0.3-0.5,0.2-1.2-0.3-1.6
			c-0.5-0.4-1.2-0.2-1.6,0.3c-2.2,3.4-3.1,6.4-3.1,11c0,0,0,0,0,0s0,0,0,0v8.1c-1.2-1.7-2.4-2.9-2.6-3.1l-4.6-5
			c-0.4-0.5-1.2-0.5-1.6-0.1c-0.5,0.4-0.5,1.2-0.1,1.6l4.6,5c1.2,1.2,4.3,4.8,4.3,7.2v14.6c-1-1.3-2-2.2-2.8-3
			c-0.3-0.3-0.6-0.6-0.9-0.8c-3.1-4.9-6.3-8-9.6-9.5c-0.6-0.3-1.3,0-1.5,0.6c-0.3,0.6,0,1.3,0.6,1.5c3,1.4,5.8,4.2,8.7,8.8
			c0,0,0.1,0.1,0.1,0.1c0,0,0,0,0,0c0.3,0.3,0.6,0.6,1,1c1.2,1.1,2.8,2.7,4.4,5.4v12.3c0,0.6,0.5,1.2,1.2,1.2c0.6,0,1.2-0.5,1.2-1.2
			v-6.6c2-3.7,4.4-6.4,6.6-8.7c0,0,0,0,0,0c0,0,0.1-0.1,0.1-0.1c1.5-2.5,3.4-5.1,6.4-6.4C47.4,622.5,47.6,621.8,47.4,621.2"/>
	</g>
</g>
<g>
	<g>
		<g>
			<path class="st0" d="M28.7,439.8c0-14.9-6.3-18.4-19.6-18.4C9.2,435.8,18,439.8,28.7,439.8"/>
			<path class="st0" d="M41.4,443.3c0-12.5,5.6-15,16.1-15C57.7,440.5,52.2,443.3,41.4,443.3"/>
			<path class="st0" d="M44.8,395c2.9,9-4.3,14.3-9.9,15C30.7,403.7,33.6,396.5,44.8,395"/>
			<path class="st0" d="M29.9,420.3c-9.6,0-11.5-4.6-11.5-12.7C27.7,407.5,29.9,412,29.9,420.3"/>
			<path class="st0" d="M39.1,424.9c10.5,0,15-1.2,15-15C43.5,409.9,39.1,411.1,39.1,424.9"/>
		</g>
		<path class="st1" d="M49.3,435.9c-0.3-0.6-0.9-0.9-1.5-0.6c-3.5,1.5-5.7,4.5-7.4,7.3c-1.5,1.7-3.2,3.5-4.8,5.8v-15.5
			c0-1.6,1.7-4.5,4.3-7.3c0.1-0.1,0.3-0.3,0.5-0.6c1.3-1.4,3.9-4.3,6.2-6.2c0.5-0.4,0.6-1.1,0.2-1.6c-0.4-0.5-1.1-0.6-1.6-0.2
			c-2.5,2-5.2,5-6.5,6.5l-0.5,0.6c-0.5,0.6-1.6,1.8-2.6,3.3v-12.8c0-4.2,0.8-6.7,2.7-9.7c0.3-0.5,0.2-1.2-0.3-1.6
			c-0.5-0.4-1.2-0.2-1.6,0.3c-2.2,3.4-3.1,6.4-3.1,11c0,0,0,0,0,0s0,0,0,0v8.1c-1.2-1.7-2.4-2.9-2.6-3.1l-4.6-5
			c-0.4-0.5-1.2-0.5-1.6-0.1c-0.5,0.4-0.5,1.2-0.1,1.6l4.6,5c1.2,1.2,4.3,4.8,4.3,7.2V443c-1-1.3-2-2.2-2.8-3
			c-0.3-0.3-0.6-0.6-0.9-0.8c-3.1-4.9-6.3-8-9.6-9.5c-0.6-0.3-1.3,0-1.5,0.6c-0.3,0.6,0,1.3,0.6,1.5c3,1.4,5.8,4.2,8.7,8.8
			c0,0,0.1,0.1,0.1,0.1c0,0,0,0,0,0c0.3,0.3,0.6,0.6,1,1c1.2,1.1,2.8,2.7,4.4,5.4v12.3c0,0.6,0.5,1.2,1.2,1.2s1.2-0.5,1.2-1.2v-6.6
			c2-3.7,4.4-6.4,6.6-8.7c0,0,0,0,0,0c0,0,0.1-0.1,0.1-0.1c1.5-2.5,3.4-5.1,6.4-6.4C49.3,437.2,49.6,436.5,49.3,435.9"/>
	</g>
</g>
<g>
	<g>
		<g>
			<path class="st0" d="M188.4,532.6c0-14.9-6.3-18.4-19.6-18.4C168.8,528.6,177.6,532.6,188.4,532.6"/>
			<path class="st0" d="M201,536.1c0-12.5,5.6-15,16.1-15C217.3,533.3,211.9,536.1,201,536.1"/>
			<path class="st0" d="M204.5,487.8c2.9,9-4.3,14.3-9.9,15C190.4,496.5,193.3,489.3,204.5,487.8"/>
			<path class="st0" d="M189.5,513.1c-9.6,0-11.5-4.6-11.5-12.7C187.4,500.3,189.5,504.7,189.5,513.1"/>
			<path class="st0" d="M198.7,517.7c10.5,0,15-1.2,15-15C203.2,502.7,198.7,503.9,198.7,517.7"/>
		</g>
		<path class="st1" d="M209,528.7c-0.3-0.6-0.9-0.9-1.5-0.6c-3.5,1.5-5.7,4.5-7.4,7.3c-1.5,1.7-3.2,3.5-4.8,5.8v-15.5
			c0-1.6,1.7-4.5,4.3-7.3c0.1-0.1,0.3-0.3,0.5-0.6c1.3-1.4,3.9-4.3,6.2-6.2c0.5-0.4,0.6-1.1,0.2-1.6c-0.4-0.5-1.1-0.6-1.6-0.2
			c-2.5,2-5.2,5-6.5,6.5l-0.5,0.6c-0.5,0.6-1.6,1.8-2.6,3.3v-12.8c0-4.2,0.8-6.7,2.7-9.7c0.3-0.5,0.2-1.2-0.3-1.6
			c-0.5-0.4-1.2-0.2-1.6,0.3c-2.2,3.4-3.1,6.4-3.1,11c0,0,0,0,0,0s0,0,0,0v8.1c-1.2-1.7-2.4-2.9-2.6-3.1l-4.6-5
			c-0.4-0.5-1.2-0.5-1.6-0.1c-0.5,0.4-0.5,1.2-0.1,1.6l4.6,5c1.2,1.2,4.3,4.8,4.3,7.2v14.6c-1-1.3-2-2.2-2.8-3
			c-0.3-0.3-0.6-0.6-0.9-0.8c-3.1-4.9-6.3-8-9.6-9.5c-0.6-0.3-1.3,0-1.5,0.6c-0.3,0.6,0,1.3,0.6,1.5c3,1.4,5.8,4.2,8.7,8.8
			c0,0,0.1,0.1,0.1,0.1c0,0,0,0,0,0c0.3,0.3,0.6,0.6,1,1c1.2,1.1,2.8,2.7,4.4,5.4v12.3c0,0.6,0.5,1.2,1.2,1.2c0.6,0,1.2-0.5,1.2-1.2
			v-6.6c2-3.7,4.4-6.4,6.6-8.7c0,0,0,0,0,0c0,0,0.1-0.1,0.1-0.1c1.5-2.5,3.4-5.1,6.4-6.4C209,530,209.3,529.3,209,528.7"/>
	</g>
</g>
</svg>
