<?xml version="1.0" encoding="utf-8"?>
<!-- Generator: Adobe Illustrator 19.0.1, SVG Export Plug-In . SVG Version: 6.00 Build 0)  -->
<svg version="1.1" id="lettuce_x5F_warn" xmlns="http://www.w3.org/2000/svg" xmlns:xlink="http://www.w3.org/1999/xlink" x="0px"
	 y="0px" viewBox="-223 225 512 512" style="enable-background:new -223 225 512 512;" xml:space="preserve">
<style type="text/css">
	.st0{clip-path:url(#SVGID_2_);}
	.st1{fill:#FBD303;}
	.st2{fill:#646B79;}
	.st3{clip-path:url(#SVGID_4_);}
	.st4{fill:#88C057;}
	.st5{fill:#659C35;}
	.st6{fill:#604A3B;}
	.st7{clip-path:url(#SVGID_6_);}
	.st8{clip-path:url(#SVGID_8_);}
	.st9{font-family:'Arial-Black';}
	.st10{font-size:21.0661px;}
	.st11{font-size:20.1175px;}
</style>
<g>
	<defs>
		<polygon id="SVGID_1_" points="-174.4,467.7 29.8,349.2 30,397.4 -174.9,516.4 		"/>
	</defs>
	<clipPath id="SVGID_2_">
		<use xlink:href="#SVGID_1_"  style="overflow:visible;"/>
	</clipPath>
	<g class="st0">
		<polygon class="st1" points="-174.4,493.7 29.8,375.2 30,423.4 -174.9,542.4 		"/>
		<g>
			<polygon class="st2" points="29.9,400.7 9,387.2 -20.9,404.6 18.3,430.2 30,423.4 			"/>
			<polygon class="st2" points="-9.1,446.1 -39.1,463.5 -78.1,437.8 -48.2,420.5 			"/>
			<polygon class="st2" points="-66.6,479.5 -96.6,496.9 -135.4,471.1 -105.5,453.7 			"/>
			<polygon class="st2" points="-124,512.8 -162.7,486.9 -174.4,493.7 -174.6,516.5 -154,530.2 			"/>
		</g>
	</g>
</g>
<g>
	<defs>
		<polygon id="SVGID_3_" points="29.9,374.6 234.8,493.6 234.6,541.8 30.4,423.2 		"/>
	</defs>
	<clipPath id="SVGID_4_">
		<use xlink:href="#SVGID_3_"  style="overflow:visible;"/>
	</clipPath>
	<g class="st3">
		<polygon class="st1" points="29.9,348.6 234.8,467.6 234.6,515.8 30.4,397.2 		"/>
		<g>
			<polygon class="st2" points="234.8,467.6 223.1,460.8 183.9,486.3 213.8,503.7 234.7,490.2 			"/>
			<polygon class="st2" points="156.6,470.5 126.7,453.1 165.7,427.4 195.7,444.8 			"/>
			<polygon class="st2" points="99.3,437.2 69.4,419.9 108.2,394.1 138.2,411.5 			"/>
			<polygon class="st2" points="50.8,360.7 30.2,374.5 30.4,397.2 42.1,404 80.8,378.1 			"/>
		</g>
	</g>
</g>
<g>
	<g>
		<g>
			<path class="st4" d="M68.5,569.5c4,1,8.4,0.9,13.1-1c8.1-3.4,13.8-11.1,14-19.9c0.2-9.8-6-18.2-14.7-21.2
				c-0.6-8.9-8-15.9-17.1-15.9c0,0-0.1,0-0.1,0c0.2-1.3,0.1-2.8-0.4-4.3c-1.2-4.2-4.9-7.4-9.2-7.9c-3.5-0.4-6.8,0.8-9.1,3.1
				c-2.2-2-5-3.2-8.2-3.2c-6.8,0-12.2,5.5-12.2,12.2c0,0,0,0,0,0.1C16.5,512.1,10,519,10,527.3c0,1.3,0.2,2.5,0.5,3.7
				c-9.8,0.4-17.6,8.4-17.6,18.3c0,3.3,0.9,6.5,2.5,9.2c-3,2.5-4.9,6.2-4.9,10.4c0,5.9,3.8,10.8,9,12.7
				c-0.7,23.9,7.9,38.1,24.4,57.1c0.3,0.3,0.6,0.7,0.9,1c0.1,0.1,0.1,0.1,0.2,0.2c6.9,7.7,22.4,1.8,19-8
				C26.1,579.7,81,587.3,81,587.3s1.6-15.8-12.6-16.5c0-0.4,0-0.8,0.1-1.2C68.5,569.6,68.5,569.5,68.5,569.5z"/>
			<path class="st5" d="M24.9,639.9c-0.1-0.1-0.1-0.1-0.2-0.2c-0.3-0.3-0.6-0.7-0.9-1c-16.5-19-25.1-33.1-24.4-57.1
				c-5.2-1.8-9-6.8-9-12.7c0-4.2,1.9-7.9,4.9-10.4c-1.6-2.7-2.5-5.8-2.5-9.2c0-9.9,7.8-17.9,17.6-18.3c-0.3-1.2-0.5-2.4-0.5-3.7
				c0-6.7,4.1-12.3,9.9-14.7c-0.4-1.3-0.9-2.5-1.5-3.8c-3.2-6.3-8.8-10.3-14-9.5c-4.2,0.7-7.2,4.1-8.5,8.8
				c-3.6-2.4-7.5-3.3-11.1-2.1c-7.6,2.7-10,13.7-5.7,23.8c0,0,0,0.1,0,0.1c-8.3,4-10.5,15.7-5.2,26.3c0.8,1.5,1.7,3,2.6,4.3
				c-9.1,3.8-11.5,15.3-5.8,25.3c1.8,3.2,4.3,5.8,7,7.8c-1.3,3.1-1,6.9,1,10.4c2.8,4.7,7.9,7.5,12.8,7.5c8.5,16.7,19,23.2,34.8,30
				c0.2,0.1,0.3,0.1,0.5,0.2C26.3,641.2,25.5,640.7,24.9,639.9z"/>
			<path class="st5" d="M31.1,562.6c0.2-0.3,0.2-0.7,0.2-1c1.9-4.7,4.1-8.6,6.4-11.9c11.6-2.4,20.4,1.2,20.6,1.3
				c0.3,0.2,0.7,0.2,1,0.2c1,0,2-0.6,2.4-1.6c0.6-1.3,0-2.8-1.3-3.4c-0.4-0.2-7.5-3.2-17.8-2.5c5-5.2,9.4-7.6,10.1-8
				c3.8-1.8,9.3,0.5,11.1,1.6c0.4,0.2,0.9,0.4,1.3,0.4c0.9,0,1.8-0.5,2.2-1.3c0.7-1.2,0.3-2.8-0.9-3.6c-0.3-0.2-6.1-3.5-12.1-2.9
				c0.5-2.1,1.6-4,2.2-4.8c0.9-1.1,0.7-2.8-0.5-3.6c-1.1-0.9-2.8-0.7-3.6,0.5c-0.2,0.2-3.6,4.7-3.6,9.9c-3.8,2.3-13.5,9.3-20.4,23.4
				c-0.4,0.8-0.7,1.6-1.1,2.4c-7.1-4.8-5.9-13.5-5.9-13.9c0.2-1.4-0.7-2.7-2.2-3c-1.4-0.2-2.7,0.7-3,2.2c-0.8,4.7,0.3,14.4,9.1,19.6
				c-1.9,5.7-3.4,12.5-3.8,20.5c-0.1,0.3-0.1,0.5,0,0.7c-0.3,5.6,0,11.8,0.9,18.7c-3.3-1.8-4.8-4.5-4.9-4.6
				c-0.7-1.3-2.2-1.7-3.5-1.1c-1.3,0.7-1.8,2.2-1.1,3.5c0.1,0.3,3.2,6,10.4,8.2c1.9,10.3,5.2,21.8,10.6,34.8c1.8-0.1,3.5-0.6,5-1.4
				c0,0,0,0,0-0.1c-5.7-13.5-9.1-25.3-10.9-35.8c0-0.1,0-0.1,0-0.2c-1.4-7.9-1.8-14.9-1.5-21.3c3.6-6.2,14.3-6.4,14.4-6.5
				c1.4,0,2.6-1.2,2.6-2.6c0-1.4-1.2-2.6-2.6-2.6c0,0,0,0,0,0c-0.4,0-7.8,0.2-13.7,3.8c0.7-5.1,1.9-9.7,3.4-13.7
				C30.9,563,31,562.8,31.1,562.6z"/>
		</g>
	</g>
	<g>
		<path class="st6" d="M21.9,645c-0.1-1,1-3.2,2.2-3.3c0.8,0,0.9,0.9,1.9,0.8c0.9,0,1.1-1,1.8-0.8c0.9,0.3,1.8,2.3,1.6,3.3
			C29.3,645.8,22,645.6,21.9,645z"/>
		<path class="st6" d="M24.8,644.5c-0.1-1,1-3.2,2.2-3.3c0.8,0,0.9,0.9,1.9,0.8c0.9,0,1.1-1,1.8-0.8c0.9,0.3,1.8,2.3,1.6,3.3
			C32.2,645.2,24.9,645.1,24.8,644.5z"/>
		<path class="st6" d="M28,643.7c-0.1-1,1-3.2,2.2-3.3c0.8,0,0.9,0.9,1.9,0.8c0.9,0,1.1-1,1.8-0.8c0.9,0.3,1.8,2.3,1.6,3.3
			C35.4,644.5,28.1,644.3,28,643.7z"/>
		<path class="st6" d="M32.8,644.5c-0.1-1,1-3.2,2.2-3.3c0.8,0,0.9,0.9,1.9,0.8c0.9,0,1.1-1,1.8-0.8c0.9,0.3,1.8,2.3,1.6,3.3
			C40.2,645.2,32.9,645.1,32.8,644.5z"/>
		<path class="st6" d="M29.4,645.2c-0.1-1,1-3.2,2.2-3.3c0.8,0,0.9,0.9,1.9,0.8c0.9,0,1.1-1,1.8-0.8c0.9,0.3,1.8,2.3,1.6,3.3
			C36.8,645.9,29.5,645.8,29.4,645.2z"/>
		<path class="st6" d="M35.1,645.2c-0.1-1,1-3.2,2.2-3.3c0.8,0,0.9,0.9,1.9,0.8c0.9,0,1.1-1,1.8-0.8c0.9,0.3,1.8,2.3,1.6,3.3
			C42.5,645.9,35.2,645.8,35.1,645.2z"/>
	</g>
</g>
<g>
	<g>
		<g>
			<path class="st4" d="M-92.3,478.2c4,1,8.4,0.9,13.1-1c8.1-3.4,13.8-11.1,14-19.9c0.2-9.8-6-18.2-14.7-21.2
				c-0.6-8.9-8-15.9-17.1-15.9c0,0-0.1,0-0.1,0c0.2-1.3,0.1-2.8-0.4-4.3c-1.2-4.2-4.9-7.4-9.2-7.9c-3.5-0.4-6.8,0.8-9.1,3.1
				c-2.2-2-5-3.2-8.2-3.2c-6.8,0-12.2,5.5-12.2,12.2c0,0,0,0,0,0.1c-8.2,0.6-14.7,7.5-14.7,15.8c0,1.3,0.2,2.5,0.5,3.7
				c-9.8,0.4-17.6,8.4-17.6,18.3c0,3.3,0.9,6.5,2.5,9.2c-3,2.5-4.9,6.2-4.9,10.4c0,5.9,3.8,10.8,9,12.7
				c-0.7,23.9,7.9,38.1,24.4,57.1c0.3,0.3,0.6,0.7,0.9,1c0.1,0.1,0.1,0.1,0.2,0.2c6.9,7.7,22.4,1.8,19-8
				c-17.8-52.2,37.1-44.7,37.1-44.7s1.6-15.8-12.6-16.5c0-0.4,0-0.8,0.1-1.2C-92.3,478.2-92.3,478.2-92.3,478.2z"/>
			<path class="st5" d="M-135.9,548.6c-0.1-0.1-0.1-0.1-0.2-0.2c-0.3-0.3-0.6-0.7-0.9-1c-16.5-19-25.1-33.1-24.4-57.1
				c-5.2-1.8-9-6.8-9-12.7c0-4.2,1.9-7.9,4.9-10.4c-1.6-2.7-2.5-5.8-2.5-9.2c0-9.9,7.8-17.9,17.6-18.3c-0.3-1.2-0.5-2.4-0.5-3.7
				c0-6.7,4.1-12.3,9.9-14.7c-0.4-1.3-0.9-2.5-1.5-3.8c-3.2-6.3-8.8-10.3-14-9.5c-4.2,0.7-7.2,4.1-8.5,8.8
				c-3.6-2.4-7.5-3.3-11.1-2.1c-7.6,2.7-10,13.7-5.7,23.8c0,0,0,0.1,0,0.1c-8.3,4-10.5,15.7-5.2,26.3c0.8,1.5,1.7,3,2.6,4.3
				c-9.1,3.8-11.5,15.3-5.8,25.3c1.8,3.2,4.3,5.8,7,7.8c-1.3,3.1-1,6.9,1,10.4c2.8,4.7,7.9,7.5,12.8,7.5c8.5,16.7,19,23.2,34.8,30
				c0.2,0.1,0.3,0.1,0.5,0.2C-134.5,549.9-135.3,549.3-135.9,548.6z"/>
			<path class="st5" d="M-129.7,471.2c0.2-0.3,0.2-0.7,0.2-1c1.9-4.7,4.1-8.6,6.4-11.9c11.6-2.4,20.4,1.2,20.6,1.3
				c0.3,0.2,0.7,0.2,1,0.2c1,0,2-0.6,2.4-1.6c0.6-1.3,0-2.8-1.3-3.4c-0.4-0.2-7.5-3.2-17.8-2.5c5-5.2,9.4-7.6,10.1-8
				c3.8-1.8,9.3,0.5,11.1,1.6c0.4,0.2,0.9,0.4,1.3,0.4c0.9,0,1.8-0.5,2.2-1.3c0.7-1.2,0.3-2.8-0.9-3.6c-0.3-0.2-6.1-3.5-12.1-2.9
				c0.5-2.1,1.6-4,2.2-4.8c0.9-1.1,0.7-2.8-0.5-3.6c-1.1-0.9-2.8-0.7-3.6,0.5c-0.2,0.2-3.6,4.7-3.6,9.9c-3.8,2.3-13.5,9.3-20.4,23.4
				c-0.4,0.8-0.7,1.6-1.1,2.4c-7.1-4.8-5.9-13.5-5.9-13.9c0.2-1.4-0.7-2.7-2.2-3c-1.4-0.2-2.7,0.7-3,2.2c-0.8,4.7,0.3,14.4,9.1,19.6
				c-1.9,5.7-3.4,12.5-3.8,20.5c-0.1,0.3-0.1,0.5,0,0.7c-0.3,5.6,0,11.8,0.9,18.7c-3.3-1.8-4.8-4.5-4.9-4.6
				c-0.7-1.3-2.2-1.7-3.5-1.1c-1.3,0.7-1.8,2.2-1.1,3.5c0.1,0.3,3.2,6,10.4,8.2c1.9,10.3,5.2,21.8,10.6,34.8c1.8-0.1,3.5-0.6,5-1.4
				c0,0,0,0,0-0.1c-5.7-13.5-9.1-25.3-10.9-35.8c0-0.1,0-0.1,0-0.2c-1.4-7.9-1.8-14.9-1.5-21.3c3.6-6.2,14.3-6.4,14.4-6.5
				c1.4,0,2.6-1.2,2.6-2.6c0-1.4-1.2-2.6-2.6-2.6c0,0,0,0,0,0c-0.4,0-7.8,0.2-13.7,3.8c0.7-5.1,1.9-9.7,3.4-13.7
				C-130,471.6-129.8,471.4-129.7,471.2z"/>
		</g>
	</g>
	<g>
		<path class="st6" d="M-138.9,553.7c-0.1-1,1-3.2,2.2-3.3c0.8,0,0.9,0.9,1.9,0.8c0.9,0,1.1-1,1.8-0.8c0.9,0.3,1.8,2.3,1.6,3.3
			C-131.5,554.4-138.8,554.3-138.9,553.7z"/>
		<path class="st6" d="M-136,553.1c-0.1-1,1-3.2,2.2-3.3c0.8,0,0.9,0.9,1.9,0.8c0.9,0,1.1-1,1.8-0.8c0.9,0.3,1.8,2.3,1.6,3.3
			C-128.6,553.9-135.9,553.7-136,553.1z"/>
		<path class="st6" d="M-132.8,552.3c-0.1-1,1-3.2,2.2-3.3c0.8,0,0.9,0.9,1.9,0.8c0.9,0,1.1-1,1.8-0.8c0.9,0.3,1.8,2.3,1.6,3.3
			C-125.4,553.1-132.7,553-132.8,552.3z"/>
		<path class="st6" d="M-128,553.1c-0.1-1,1-3.2,2.2-3.3c0.8,0,0.9,0.9,1.9,0.8c0.9,0,1.1-1,1.8-0.8c0.9,0.3,1.8,2.3,1.6,3.3
			C-120.6,553.9-127.9,553.7-128,553.1z"/>
		<path class="st6" d="M-131.4,553.8c-0.1-1,1-3.2,2.2-3.3c0.8,0,0.9,0.9,1.9,0.8c0.9,0,1.1-1,1.8-0.8c0.9,0.3,1.8,2.3,1.6,3.3
			C-124,554.6-131.3,554.4-131.4,553.8z"/>
		<path class="st6" d="M-125.7,553.8c-0.1-1,1-3.2,2.2-3.3c0.8,0,0.9,0.9,1.9,0.8c0.9,0,1.1-1,1.8-0.8c0.9,0.3,1.8,2.3,1.6,3.3
			C-118.3,554.6-125.6,554.4-125.7,553.8z"/>
	</g>
</g>
<g>
	<g>
		<g>
			<path class="st4" d="M69.8,384.7c4,1,8.4,0.9,13.1-1c8.1-3.4,13.8-11.1,14-19.9c0.2-9.8-6-18.2-14.7-21.2
				c-0.6-8.9-8-15.9-17.1-15.9c0,0-0.1,0-0.1,0c0.2-1.3,0.1-2.8-0.4-4.3c-1.2-4.2-4.9-7.4-9.2-7.9c-3.5-0.4-6.8,0.8-9.1,3.1
				c-2.2-2-5-3.2-8.2-3.2c-6.8,0-12.2,5.5-12.2,12.2c0,0,0,0,0,0.1c-8.2,0.6-14.7,7.5-14.7,15.8c0,1.3,0.2,2.5,0.5,3.7
				c-9.8,0.4-17.6,8.4-17.6,18.3c0,3.3,0.9,6.5,2.5,9.2c-3,2.5-4.9,6.2-4.9,10.4c0,5.9,3.8,10.8,9,12.7
				c-0.7,23.9,7.9,38.1,24.4,57.1c0.3,0.3,0.6,0.7,0.9,1c0.1,0.1,0.1,0.1,0.2,0.2c6.9,7.7,22.4,1.8,19-8
				c-17.8-52.2,37.1-44.7,37.1-44.7s1.6-15.8-12.6-16.5c0-0.4,0-0.8,0.1-1.2C69.7,384.7,69.7,384.7,69.8,384.7z"/>
			<path class="st5" d="M26.1,455.1c-0.1-0.1-0.1-0.1-0.2-0.2c-0.3-0.3-0.6-0.7-0.9-1c-16.5-19-25.1-33.1-24.4-57.1
				c-5.2-1.8-9-6.8-9-12.7c0-4.2,1.9-7.9,4.9-10.4c-1.6-2.7-2.5-5.8-2.5-9.2c0-9.9,7.8-17.9,17.6-18.3c-0.3-1.2-0.5-2.4-0.5-3.7
				c0-6.7,4.1-12.3,9.9-14.7c-0.4-1.3-0.9-2.5-1.5-3.8c-3.2-6.3-8.8-10.3-14-9.5c-4.2,0.7-7.2,4.1-8.5,8.8
				c-3.6-2.4-7.5-3.3-11.1-2.1c-7.6,2.7-10,13.7-5.7,23.8c0,0,0,0.1,0,0.1c-8.3,4-10.5,15.7-5.2,26.3c0.8,1.5,1.7,3,2.6,4.3
				c-9.1,3.8-11.5,15.3-5.8,25.3c1.8,3.2,4.3,5.8,7,7.8c-1.3,3.1-1,6.9,1,10.4c2.8,4.7,7.9,7.5,12.8,7.5c8.5,16.7,19,23.2,34.8,30
				c0.2,0.1,0.3,0.1,0.5,0.2C27.5,456.4,26.7,455.8,26.1,455.1z"/>
			<path class="st5" d="M32.3,377.7c0.2-0.3,0.2-0.7,0.2-1c1.9-4.7,4.1-8.6,6.4-11.9c11.6-2.4,20.4,1.2,20.6,1.3
				c0.3,0.2,0.7,0.2,1,0.2c1,0,2-0.6,2.4-1.6c0.6-1.3,0-2.8-1.3-3.4c-0.4-0.2-7.5-3.2-17.8-2.5c5-5.2,9.4-7.6,10.1-8
				c3.8-1.8,9.3,0.5,11.1,1.6c0.4,0.2,0.9,0.4,1.3,0.4c0.9,0,1.8-0.5,2.2-1.3c0.7-1.2,0.3-2.8-0.9-3.6c-0.3-0.2-6.1-3.5-12.1-2.9
				c0.5-2.1,1.6-4,2.2-4.8c0.9-1.1,0.7-2.8-0.5-3.6c-1.1-0.9-2.8-0.7-3.6,0.5c-0.2,0.2-3.6,4.7-3.6,9.9c-3.8,2.3-13.5,9.3-20.4,23.4
				c-0.4,0.8-0.7,1.6-1.1,2.4c-7.1-4.8-5.9-13.5-5.9-13.9c0.2-1.4-0.7-2.7-2.2-3c-1.4-0.2-2.7,0.7-3,2.2c-0.8,4.7,0.3,14.4,9.1,19.6
				c-1.9,5.7-3.4,12.5-3.8,20.5c-0.1,0.3-0.1,0.5,0,0.7c-0.3,5.6,0,11.8,0.9,18.7c-3.3-1.8-4.8-4.5-4.9-4.6
				c-0.7-1.3-2.2-1.7-3.5-1.1c-1.3,0.7-1.8,2.2-1.1,3.5c0.1,0.3,3.2,6,10.4,8.2c1.9,10.3,5.2,21.8,10.6,34.8c1.8-0.1,3.5-0.6,5-1.4
				c0,0,0,0,0-0.1c-5.7-13.5-9.1-25.3-10.9-35.8c0-0.1,0-0.1,0-0.2c-1.4-7.9-1.8-14.9-1.5-21.3c3.6-6.2,14.3-6.4,14.4-6.5
				c1.4,0,2.6-1.2,2.6-2.6c0-1.4-1.2-2.6-2.6-2.6c0,0,0,0,0,0c-0.4,0-7.8,0.2-13.7,3.8c0.7-5.1,1.9-9.7,3.4-13.7
				C32.1,378.1,32.2,377.9,32.3,377.7z"/>
		</g>
	</g>
	<g>
		<path class="st6" d="M23.1,460.1c-0.1-1,1-3.2,2.2-3.3c0.8,0,0.9,0.9,1.9,0.8c0.9,0,1.1-1,1.8-0.8c0.9,0.3,1.8,2.3,1.6,3.3
			C30.5,460.9,23.2,460.8,23.1,460.1z"/>
		<path class="st6" d="M26,459.6c-0.1-1,1-3.2,2.2-3.3c0.8,0,0.9,0.9,1.9,0.8c0.9,0,1.1-1,1.8-0.8c0.9,0.3,1.8,2.3,1.6,3.3
			C33.4,460.4,26.1,460.2,26,459.6z"/>
		<path class="st6" d="M29.2,458.8c-0.1-1,1-3.2,2.2-3.3c0.8,0,0.9,0.9,1.9,0.8c0.9,0,1.1-1,1.8-0.8c0.9,0.3,1.8,2.3,1.6,3.3
			C36.7,459.6,29.3,459.4,29.2,458.8z"/>
		<path class="st6" d="M34,459.6c-0.1-1,1-3.2,2.2-3.3c0.8,0,0.9,0.9,1.9,0.8c0.9,0,1.1-1,1.8-0.8c0.9,0.3,1.8,2.3,1.6,3.3
			C41.4,460.4,34.1,460.2,34,459.6z"/>
		<path class="st6" d="M30.7,460.3c-0.1-1,1-3.2,2.2-3.3c0.8,0,0.9,0.9,1.9,0.8c0.9,0,1.1-1,1.8-0.8c0.9,0.3,1.8,2.3,1.6,3.3
			C38.1,461.1,30.7,460.9,30.7,460.3z"/>
		<path class="st6" d="M36.4,460.3c-0.1-1,1-3.2,2.2-3.3c0.8,0,0.9,0.9,1.9,0.8c0.9,0,1.1-1,1.8-0.8c0.9,0.3,1.8,2.3,1.6,3.3
			C43.8,461.1,36.4,460.9,36.4,460.3z"/>
	</g>
</g>
<g>
	<g>
		<g>
			<path class="st4" d="M231.9,478.2c4,1,8.4,0.9,13.1-1c8.1-3.4,13.8-11.1,14-19.9c0.2-9.8-6-18.2-14.7-21.2
				c-0.6-8.9-8-15.9-17.1-15.9c0,0-0.1,0-0.1,0c0.2-1.3,0.1-2.8-0.4-4.3c-1.2-4.2-4.9-7.4-9.2-7.9c-3.5-0.4-6.8,0.8-9.1,3.1
				c-2.2-2-5-3.2-8.2-3.2c-6.8,0-12.2,5.5-12.2,12.2c0,0,0,0,0,0.1c-8.2,0.6-14.7,7.5-14.7,15.8c0,1.3,0.2,2.5,0.5,3.7
				c-9.8,0.4-17.6,8.4-17.6,18.3c0,3.3,0.9,6.5,2.5,9.2c-3,2.5-4.9,6.2-4.9,10.4c0,5.9,3.8,10.8,9,12.7
				c-0.7,23.9,7.9,38.1,24.4,57.1c0.3,0.3,0.6,0.7,0.9,1c0.1,0.1,0.1,0.1,0.2,0.2c6.9,7.7,22.4,1.8,19-8
				c-17.8-52.2,37.1-44.7,37.1-44.7s1.6-15.8-12.6-16.5c0-0.4,0-0.8,0.1-1.2C231.9,478.2,231.9,478.2,231.9,478.2z"/>
			<path class="st5" d="M188.3,548.6c-0.1-0.1-0.1-0.1-0.2-0.2c-0.3-0.3-0.6-0.7-0.9-1c-16.5-19-25.1-33.1-24.4-57.1
				c-5.2-1.8-9-6.8-9-12.7c0-4.2,1.9-7.9,4.9-10.4c-1.6-2.7-2.5-5.8-2.5-9.2c0-9.9,7.8-17.9,17.6-18.3c-0.3-1.2-0.5-2.4-0.5-3.7
				c0-6.7,4.1-12.3,9.9-14.7c-0.4-1.3-0.9-2.5-1.5-3.8c-3.2-6.3-8.8-10.3-14-9.5c-4.2,0.7-7.2,4.1-8.5,8.8
				c-3.6-2.4-7.5-3.3-11.1-2.1c-7.6,2.7-10,13.7-5.7,23.8c0,0,0,0.1,0,0.1c-8.3,4-10.5,15.7-5.2,26.3c0.8,1.5,1.7,3,2.6,4.3
				c-9.1,3.8-11.5,15.3-5.8,25.3c1.8,3.2,4.3,5.8,7,7.8c-1.3,3.1-1,6.9,1,10.4c2.8,4.7,7.9,7.5,12.8,7.5c8.5,16.7,19,23.2,34.8,30
				c0.2,0.1,0.3,0.1,0.5,0.2C189.7,549.9,188.9,549.3,188.3,548.6z"/>
			<path class="st5" d="M194.5,471.2c0.2-0.3,0.2-0.7,0.2-1c1.9-4.7,4.1-8.6,6.4-11.9c11.6-2.4,20.4,1.2,20.6,1.3
				c0.3,0.2,0.7,0.2,1,0.2c1,0,2-0.6,2.4-1.6c0.6-1.3,0-2.8-1.3-3.4c-0.4-0.2-7.5-3.2-17.8-2.5c5-5.2,9.4-7.6,10.1-8
				c3.8-1.8,9.3,0.5,11.1,1.6c0.4,0.2,0.9,0.4,1.3,0.4c0.9,0,1.8-0.5,2.2-1.3c0.7-1.2,0.3-2.8-0.9-3.6c-0.3-0.2-6.1-3.5-12.1-2.9
				c0.5-2.1,1.6-4,2.2-4.8c0.9-1.1,0.7-2.8-0.5-3.6c-1.1-0.9-2.8-0.7-3.6,0.5c-0.2,0.2-3.6,4.7-3.6,9.9c-3.8,2.3-13.5,9.3-20.4,23.4
				c-0.4,0.8-0.7,1.6-1.1,2.4c-7.1-4.8-5.9-13.5-5.9-13.9c0.2-1.4-0.7-2.7-2.2-3c-1.4-0.2-2.7,0.7-3,2.2c-0.8,4.7,0.3,14.4,9.1,19.6
				c-1.9,5.7-3.4,12.5-3.8,20.5c-0.1,0.3-0.1,0.5,0,0.7c-0.3,5.6,0,11.8,0.9,18.7c-3.3-1.8-4.8-4.5-4.9-4.6
				c-0.7-1.3-2.2-1.7-3.5-1.1c-1.3,0.7-1.8,2.2-1.1,3.5c0.1,0.3,3.2,6,10.4,8.2c1.9,10.3,5.2,21.8,10.6,34.8c1.8-0.1,3.5-0.6,5-1.4
				c0,0,0,0,0-0.1c-5.7-13.5-9.1-25.3-10.9-35.8c0-0.1,0-0.1,0-0.2c-1.4-7.9-1.8-14.9-1.5-21.3c3.6-6.2,14.3-6.4,14.4-6.5
				c1.4,0,2.6-1.2,2.6-2.6c0-1.4-1.2-2.6-2.6-2.6c0,0,0,0,0,0c-0.4,0-7.8,0.2-13.7,3.8c0.7-5.1,1.9-9.7,3.4-13.7
				C194.3,471.6,194.4,471.4,194.5,471.2z"/>
		</g>
	</g>
	<g>
		<path class="st6" d="M185.3,553.7c-0.1-1,1-3.2,2.2-3.3c0.8,0,0.9,0.9,1.9,0.8c0.9,0,1.1-1,1.8-0.8c0.9,0.3,1.8,2.3,1.6,3.3
			C192.7,554.4,185.4,554.3,185.3,553.7z"/>
		<path class="st6" d="M188.2,553.1c-0.1-1,1-3.2,2.2-3.3c0.8,0,0.9,0.9,1.9,0.8c0.9,0,1.1-1,1.8-0.8c0.9,0.3,1.8,2.3,1.6,3.3
			C195.6,553.9,188.3,553.7,188.2,553.1z"/>
		<path class="st6" d="M191.4,552.3c-0.1-1,1-3.2,2.2-3.3c0.8,0,0.9,0.9,1.9,0.8c0.9,0,1.1-1,1.8-0.8c0.9,0.3,1.8,2.3,1.6,3.3
			C198.8,553.1,191.5,553,191.4,552.3z"/>
		<path class="st6" d="M196.2,553.1c-0.1-1,1-3.2,2.2-3.3c0.8,0,0.9,0.9,1.9,0.8c0.9,0,1.1-1,1.8-0.8c0.9,0.3,1.8,2.3,1.6,3.3
			C203.6,553.9,196.3,553.7,196.2,553.1z"/>
		<path class="st6" d="M192.8,553.8c-0.1-1,1-3.2,2.2-3.3c0.8,0,0.9,0.9,1.9,0.8c0.9,0,1.1-1,1.8-0.8c0.9,0.3,1.8,2.3,1.6,3.3
			C200.2,554.6,192.9,554.4,192.8,553.8z"/>
		<path class="st6" d="M198.5,553.8c-0.1-1,1-3.2,2.2-3.3c0.8,0,0.9,0.9,1.9,0.8c0.9,0,1.1-1,1.8-0.8c0.9,0.3,1.8,2.3,1.6,3.3
			C205.9,554.6,198.6,554.4,198.5,553.8z"/>
	</g>
</g>
<g>
	<defs>
		<polygon id="SVGID_5_" points="-174.8,494.2 30.1,613.2 29.9,661.4 -174.3,542.9 		"/>
	</defs>
	<clipPath id="SVGID_6_">
		<use xlink:href="#SVGID_5_"  style="overflow:visible;"/>
	</clipPath>
	<g class="st7">
		<polygon class="st1" points="-174.8,468.2 30.1,587.2 29.9,635.4 -174.3,516.9 		"/>
		<g>
			<polygon class="st2" points="30.1,587.2 18.4,580.4 -20.8,606 9.1,623.4 30,609.9 			"/>
			<polygon class="st2" points="-154,480.4 -174.5,494.1 -174.3,516.9 -162.6,523.7 -124,497.8 			"/>
		</g>
	</g>
</g>
<g>
	<defs>
		<polygon id="SVGID_7_" points="30.5,587.4 234.7,468.9 234.9,517 30,636 		"/>
	</defs>
	<clipPath id="SVGID_8_">
		<use xlink:href="#SVGID_7_"  style="overflow:visible;"/>
	</clipPath>
	<g class="st8">
		<polygon class="st1" points="30.5,613.4 234.7,494.8 234.9,543 30,662 		"/>
		<g>
			<polygon class="st2" points="234.8,520.4 213.9,506.9 184,524.3 223.2,549.8 234.9,543 			"/>
			<polygon class="st2" points="80.8,632.5 42.2,606.6 30.5,613.4 30.2,636.1 50.8,649.9 			"/>
		</g>
	</g>
</g>
<text transform="matrix(0.5926 0.3431 -0.501 0.8654 -124.0042 543.6822)" class="st9 st10">Crime Scene</text>
<text transform="matrix(0.5889 -0.3413 0.5015 0.8652 68.4984 610.9694)" class="st9 st11">Do Not Cross Line</text>
</svg>
