<?xml version="1.0" encoding="utf-8"?>
<!-- Generator: Adobe Illustrator 19.0.1, SVG Export Plug-In . SVG Version: 6.00 Build 0)  -->
<svg version="1.1" id="lettuce_x5F_seed" xmlns="http://www.w3.org/2000/svg" xmlns:xlink="http://www.w3.org/1999/xlink" x="0px"
	 y="0px" viewBox="-223 225 512 512" style="enable-background:new -223 225 512 512;" xml:space="preserve">
<style type="text/css">
	.st0{fill:#D6D3C5;}
	.st1{fill:#C1BFB4;}
	.st2{fill:#BCE260;}
</style>
<g>
	<path class="st0" d="M-122.5,552.4c-0.2,0.4-0.5,0.8-1.1,0.8c-0.8,0-1.8-0.7-3.5-2.5c-2.9-2.9-4.2-5.2-4.2-5.2
		c-1-1.6-1.7-3-3.1-6.3c-0.5-1-2-4.6-3.5-9.3c-0.7-2.2-0.9-3.3-0.4-3.4c0.9-0.1,3.4,2.3,4.1,3.1c4,4.6,7.4,11.1,8,12.5
		C-125.7,543.6-122.8,549.6-122.5,552.4z"/>
	<line class="st1" x1="-134.5" y1="535.6" x2="-128.3" y2="547.2"/>
	<line class="st1" x1="-131.6" y1="538.3" x2="-125.4" y2="549.9"/>
	<line class="st1" x1="-132.9" y1="533.4" x2="-126.8" y2="545"/>
	<path class="st2" d="M-133.8,537.9"/>
</g>
<g>
	<path class="st0" d="M39.2,457.4c-0.2,0.4-0.5,0.8-1.1,0.8c-0.8,0-1.8-0.7-3.5-2.5c-2.9-2.9-4.2-5.2-4.2-5.2c-1-1.6-1.7-3-3.1-6.3
		c-0.5-1-2-4.6-3.5-9.3c-0.7-2.2-0.9-3.3-0.4-3.4c0.9-0.1,3.4,2.3,4.1,3.1c4,4.6,7.4,11.1,8,12.5C36.1,448.6,38.9,454.6,39.2,457.4z
		"/>
	<line class="st1" x1="27.2" y1="440.6" x2="33.4" y2="452.2"/>
	<line class="st1" x1="30.1" y1="443.3" x2="36.3" y2="454.9"/>
	<line class="st1" x1="28.8" y1="438.4" x2="34.9" y2="450"/>
	<path class="st2" d="M27.9,442.8"/>
</g>
<g>
	<path class="st0" d="M38.2,643.8c-0.2,0.4-0.5,0.8-1.1,0.8c-0.8,0-1.8-0.7-3.5-2.5c-2.9-2.9-4.2-5.2-4.2-5.2c-1-1.6-1.7-3-3.1-6.3
		c-0.5-1-2-4.6-3.5-9.3c-0.7-2.2-0.9-3.3-0.4-3.4c0.9-0.1,3.4,2.3,4.1,3.1c4,4.6,7.4,11.1,8,12.5C35.1,634.9,37.9,640.9,38.2,643.8z
		"/>
	<line class="st1" x1="26.3" y1="626.9" x2="32.4" y2="638.5"/>
	<line class="st1" x1="29.2" y1="629.6" x2="35.3" y2="641.2"/>
	<line class="st1" x1="27.8" y1="624.7" x2="34" y2="636.4"/>
	<path class="st2" d="M26.9,629.2"/>
</g>
<g>
	<path class="st0" d="M200.6,550.3c-0.2,0.4-0.5,0.8-1.1,0.8c-0.8,0-1.8-0.7-3.5-2.5c-2.9-2.9-4.2-5.2-4.2-5.2c-1-1.6-1.7-3-3.1-6.3
		c-0.5-1-2-4.6-3.5-9.3c-0.7-2.2-0.9-3.3-0.4-3.4c0.9-0.1,3.4,2.3,4.1,3.1c4,4.6,7.4,11.1,8,12.5
		C197.5,541.5,200.3,547.5,200.6,550.3z"/>
	<line class="st1" x1="188.6" y1="533.5" x2="194.8" y2="545.1"/>
	<line class="st1" x1="191.5" y1="536.2" x2="197.7" y2="547.8"/>
	<line class="st1" x1="190.2" y1="531.3" x2="196.4" y2="542.9"/>
	<path class="st2" d="M189.3,535.7"/>
</g>
</svg>
