<?xml version="1.0" encoding="utf-8"?>
<!-- Generator: Adobe Illustrator 19.0.1, SVG Export Plug-In . SVG Version: 6.00 Build 0)  -->
<svg version="1.1" id="lettuce_x5F_grow" xmlns="http://www.w3.org/2000/svg" xmlns:xlink="http://www.w3.org/1999/xlink" x="0px"
	 y="0px" viewBox="-223 225 512 512" style="enable-background:new -223 225 512 512;" xml:space="preserve">
<style type="text/css">
	.st0{fill:#88C057;}
	.st1{fill:#659C35;}
</style>
<g>
	<g>
		<path class="st0" d="M43.5,615.3c1.2,0.4,2.6,0.4,4-0.5c2.5-1.5,4.3-4.9,4.3-8.8c0.1-4.3-1.9-8-4.5-9.4c-0.2-3.9-2.5-7-5.3-7
			c0,0,0,0,0,0c0-0.6,0-1.2-0.1-1.9c-0.4-1.8-1.5-3.3-2.8-3.5c-1.1-0.2-2.1,0.4-2.8,1.4c-0.7-0.9-1.5-1.4-2.5-1.4
			c-2.1,0-3.8,2.4-3.8,5.4c0,0,0,0,0,0c-2.5,0.3-4.5,3.3-4.5,7c0,0.6,0.1,1.1,0.1,1.6c-3,0.2-5.4,3.7-5.4,8.1c0,1.5,0.3,2.9,0.8,4.1
			c-0.9,1.1-1.5,2.7-1.5,4.6c0,2.6,1.2,4.8,2.8,5.6c-0.2,10.6,2.4,16.8,7.5,25.2c0.1,0.2,0.2,0.3,0.3,0.5c0,0,0,0.1,0.1,0.1
			c2.1,3.4,6.9,0.8,5.9-3.5c-5.5-23.1,11.4-19.7,11.4-19.7s0.5-7-3.9-7.3C43.4,615.6,43.4,615.5,43.5,615.3
			C43.4,615.3,43.5,615.3,43.5,615.3z"/>
		<path class="st1" d="M31.9,612.2c0-0.1,0.1-0.3,0.1-0.5c0.6-2.1,1.3-3.8,2-5.3c3.6-1.1,6.3,0.5,6.4,0.6c0.1,0.1,0.2,0.1,0.3,0.1
			c0.3,0,0.6-0.3,0.7-0.7c0.2-0.6,0-1.3-0.4-1.5c-0.1-0.1-2.3-1.4-5.5-1.1c1.6-2.3,2.9-3.4,3.1-3.5c1.2-0.8,2.9,0.2,3.4,0.7
			c0.1,0.1,0.3,0.2,0.4,0.2c0.3,0,0.5-0.2,0.7-0.6c0.2-0.5,0.1-1.2-0.3-1.6c-0.1-0.1-1.9-1.6-3.7-1.3c0.2-0.9,0.5-1.8,0.7-2.1
			c0.3-0.5,0.2-1.2-0.2-1.6c-0.4-0.4-0.9-0.3-1.1,0.2c-0.1,0.1-1.1,2.1-1.1,4.4c-1.2,1-4.2,4.1-6.3,10.3c-0.1,0.3-0.2,0.7-0.3,1.1
			c-2.2-2.1-1.8-5.9-1.8-6.1c0.1-0.6-0.2-1.2-0.7-1.3c-0.4-0.1-0.8,0.3-0.9,1c-0.2,2.1,0.1,6.4,2.8,8.7c-0.6,2.5-1,5.5-1.2,9
			c0,0.1,0,0.2,0,0.3c-0.1,2.5,0,5.2,0.3,8.2c-1-0.8-1.5-2-1.5-2c-0.2-0.6-0.7-0.8-1.1-0.5c-0.4,0.3-0.5,1-0.3,1.5
			c0,0.1,1,2.7,3.2,3.6c0.6,4.5,1.6,9.6,3.3,15.3c0.5-0.1,1.1-0.3,1.6-0.6c0,0,0,0,0,0c-1.7-5.9-2.8-11.2-3.4-15.8c0,0,0-0.1,0-0.1
			c-0.4-3.5-0.6-6.6-0.5-9.4c1.1-2.7,4.4-2.8,4.5-2.8c0.4,0,0.8-0.5,0.8-1.2c0-0.6-0.4-1.1-0.8-1.1c0,0,0,0,0,0
			c-0.1,0-2.4,0.1-4.2,1.7c0.2-2.3,0.6-4.3,1-6.1C31.8,612.4,31.9,612.3,31.9,612.2z"/>
	</g>
</g>
<g>
	<g>
		<path class="st0" d="M-120.6,521.3c1.2,0.4,2.6,0.4,4-0.5c2.5-1.5,4.3-4.9,4.3-8.8c0.1-4.3-1.9-8-4.5-9.4c-0.2-3.9-2.5-7-5.3-7
			c0,0,0,0,0,0c0-0.6,0-1.2-0.1-1.9c-0.4-1.8-1.5-3.3-2.8-3.5c-1.1-0.2-2.1,0.4-2.8,1.4c-0.7-0.9-1.5-1.4-2.5-1.4
			c-2.1,0-3.8,2.4-3.8,5.4c0,0,0,0,0,0c-2.5,0.3-4.5,3.3-4.5,7c0,0.6,0.1,1.1,0.1,1.6c-3,0.2-5.4,3.7-5.4,8.1c0,1.5,0.3,2.9,0.8,4.1
			c-0.9,1.1-1.5,2.7-1.5,4.6c0,2.6,1.2,4.8,2.8,5.6c-0.2,10.6,2.4,16.8,7.5,25.2c0.1,0.2,0.2,0.3,0.3,0.5c0,0,0,0.1,0.1,0.1
			c2.1,3.4,6.9,0.8,5.9-3.5c-5.5-23.1,11.4-19.7,11.4-19.7s0.5-7-3.9-7.3C-120.6,521.7-120.6,521.5-120.6,521.3
			C-120.6,521.4-120.6,521.3-120.6,521.3z"/>
		<path class="st1" d="M-132.1,518.3c0-0.1,0.1-0.3,0.1-0.5c0.6-2.1,1.3-3.8,2-5.3c3.6-1.1,6.3,0.5,6.4,0.6c0.1,0.1,0.2,0.1,0.3,0.1
			c0.3,0,0.6-0.3,0.7-0.7c0.2-0.6,0-1.3-0.4-1.5c-0.1-0.1-2.3-1.4-5.5-1.1c1.6-2.3,2.9-3.4,3.1-3.5c1.2-0.8,2.9,0.2,3.4,0.7
			c0.1,0.1,0.3,0.2,0.4,0.2c0.3,0,0.5-0.2,0.7-0.6c0.2-0.5,0.1-1.2-0.3-1.6c-0.1-0.1-1.9-1.6-3.7-1.3c0.2-0.9,0.5-1.8,0.7-2.1
			c0.3-0.5,0.2-1.2-0.2-1.6c-0.4-0.4-0.9-0.3-1.1,0.2c-0.1,0.1-1.1,2.1-1.1,4.4c-1.2,1-4.2,4.1-6.3,10.3c-0.1,0.3-0.2,0.7-0.3,1.1
			c-2.2-2.1-1.8-5.9-1.8-6.1c0.1-0.6-0.2-1.2-0.7-1.3c-0.4-0.1-0.8,0.3-0.9,1c-0.2,2.1,0.1,6.4,2.8,8.7c-0.6,2.5-1,5.5-1.2,9
			c0,0.1,0,0.2,0,0.3c-0.1,2.5,0,5.2,0.3,8.2c-1-0.8-1.5-2-1.5-2c-0.2-0.6-0.7-0.8-1.1-0.5c-0.4,0.3-0.5,1-0.3,1.5
			c0,0.1,1,2.7,3.2,3.6c0.6,4.5,1.6,9.6,3.3,15.3c0.5-0.1,1.1-0.3,1.6-0.6c0,0,0,0,0,0c-1.7-5.9-2.8-11.2-3.4-15.8c0,0,0-0.1,0-0.1
			c-0.4-3.5-0.6-6.6-0.5-9.4c1.1-2.7,4.4-2.8,4.5-2.8c0.4,0,0.8-0.5,0.8-1.2c0-0.6-0.4-1.1-0.8-1.1c0,0,0,0,0,0
			c-0.1,0-2.4,0.1-4.2,1.7c0.2-2.3,0.6-4.3,1-6.1C-132.2,518.5-132.1,518.4-132.1,518.3z"/>
	</g>
</g>
<g>
	<g>
		<path class="st0" d="M42.5,428c1.2,0.4,2.6,0.4,4-0.5c2.5-1.5,4.3-4.9,4.3-8.8c0.1-4.3-1.9-8-4.5-9.4c-0.2-3.9-2.5-7-5.3-7
			c0,0,0,0,0,0c0-0.6,0-1.2-0.1-1.9c-0.4-1.8-1.5-3.3-2.8-3.5c-1.1-0.2-2.1,0.4-2.8,1.4c-0.7-0.9-1.5-1.4-2.5-1.4
			c-2.1,0-3.8,2.4-3.8,5.4c0,0,0,0,0,0c-2.5,0.3-4.5,3.3-4.5,7c0,0.6,0.1,1.1,0.1,1.6c-3,0.2-5.4,3.7-5.4,8.1c0,1.5,0.3,2.9,0.8,4.1
			c-0.9,1.1-1.5,2.7-1.5,4.6c0,2.6,1.2,4.8,2.8,5.6c-0.2,10.6,2.4,16.8,7.5,25.2c0.1,0.2,0.2,0.3,0.3,0.5c0,0,0,0.1,0.1,0.1
			c2.1,3.4,6.9,0.8,5.9-3.5c-5.5-23.1,11.4-19.7,11.4-19.7s0.5-7-3.9-7.3C42.4,428.4,42.4,428.2,42.5,428
			C42.4,428,42.5,428,42.5,428z"/>
		<path class="st1" d="M30.9,424.9c0-0.1,0.1-0.3,0.1-0.5c0.6-2.1,1.3-3.8,2-5.3c3.6-1.1,6.3,0.5,6.4,0.6c0.1,0.1,0.2,0.1,0.3,0.1
			c0.3,0,0.6-0.3,0.7-0.7c0.2-0.6,0-1.3-0.4-1.5c-0.1-0.1-2.3-1.4-5.5-1.1c1.6-2.3,2.9-3.4,3.1-3.5c1.2-0.8,2.9,0.2,3.4,0.7
			c0.1,0.1,0.3,0.2,0.4,0.2c0.3,0,0.5-0.2,0.7-0.6c0.2-0.5,0.1-1.2-0.3-1.6c-0.1-0.1-1.9-1.6-3.7-1.3c0.2-0.9,0.5-1.8,0.7-2.1
			c0.3-0.5,0.2-1.2-0.2-1.6c-0.4-0.4-0.9-0.3-1.1,0.2c-0.1,0.1-1.1,2.1-1.1,4.4c-1.2,1-4.2,4.1-6.3,10.3c-0.1,0.3-0.2,0.7-0.3,1.1
			c-2.2-2.1-1.8-5.9-1.8-6.1c0.1-0.6-0.2-1.2-0.7-1.3c-0.4-0.1-0.8,0.3-0.9,1c-0.2,2.1,0.1,6.4,2.8,8.7c-0.6,2.5-1,5.5-1.2,9
			c0,0.1,0,0.2,0,0.3c-0.1,2.5,0,5.2,0.3,8.2c-1-0.8-1.5-2-1.5-2c-0.2-0.6-0.7-0.8-1.1-0.5c-0.4,0.3-0.5,1-0.3,1.5
			c0,0.1,1,2.7,3.2,3.6c0.6,4.5,1.6,9.6,3.3,15.3c0.5-0.1,1.1-0.3,1.6-0.6c0,0,0,0,0,0c-1.7-5.9-2.8-11.2-3.4-15.8c0,0,0-0.1,0-0.1
			c-0.4-3.5-0.6-6.6-0.5-9.4c1.1-2.7,4.4-2.8,4.5-2.8c0.4,0,0.8-0.5,0.8-1.2c0-0.6-0.4-1.1-0.8-1.1c0,0,0,0,0,0
			c-0.1,0-2.4,0.1-4.2,1.7c0.2-2.3,0.6-4.3,1-6.1C30.8,425.1,30.9,425,30.9,424.9z"/>
	</g>
</g>
<g>
	<g>
		<path class="st0" d="M204.3,521.3c1.2,0.4,2.6,0.4,4-0.5c2.5-1.5,4.3-4.9,4.3-8.8c0.1-4.3-1.9-8-4.5-9.4c-0.2-3.9-2.5-7-5.3-7
			c0,0,0,0,0,0c0-0.6,0-1.2-0.1-1.9c-0.4-1.8-1.5-3.3-2.8-3.5c-1.1-0.2-2.1,0.4-2.8,1.4c-0.7-0.9-1.5-1.4-2.5-1.4
			c-2.1,0-3.8,2.4-3.8,5.4c0,0,0,0,0,0c-2.5,0.3-4.5,3.3-4.5,7c0,0.6,0.1,1.1,0.1,1.6c-3,0.2-5.4,3.7-5.4,8.1c0,1.5,0.3,2.9,0.8,4.1
			c-0.9,1.1-1.5,2.7-1.5,4.6c0,2.6,1.2,4.8,2.8,5.6c-0.2,10.6,2.4,16.8,7.5,25.2c0.1,0.2,0.2,0.3,0.3,0.5c0,0,0,0.1,0.1,0.1
			c2.1,3.4,6.9,0.8,5.9-3.5c-5.5-23.1,11.4-19.7,11.4-19.7s0.5-7-3.9-7.3C204.3,521.7,204.3,521.5,204.3,521.3
			C204.3,521.4,204.3,521.3,204.3,521.3z"/>
		<path class="st1" d="M192.7,518.3c0-0.1,0.1-0.3,0.1-0.5c0.6-2.1,1.3-3.8,2-5.3c3.6-1.1,6.3,0.5,6.4,0.6c0.1,0.1,0.2,0.1,0.3,0.1
			c0.3,0,0.6-0.3,0.7-0.7c0.2-0.6,0-1.3-0.4-1.5c-0.1-0.1-2.3-1.4-5.5-1.1c1.6-2.3,2.9-3.4,3.1-3.5c1.2-0.8,2.9,0.2,3.4,0.7
			c0.1,0.1,0.3,0.2,0.4,0.2c0.3,0,0.5-0.2,0.7-0.6c0.2-0.5,0.1-1.2-0.3-1.6c-0.1-0.1-1.9-1.6-3.7-1.3c0.2-0.9,0.5-1.8,0.7-2.1
			c0.3-0.5,0.2-1.2-0.2-1.6c-0.4-0.4-0.9-0.3-1.1,0.2c-0.1,0.1-1.1,2.1-1.1,4.4c-1.2,1-4.2,4.1-6.3,10.3c-0.1,0.3-0.2,0.7-0.3,1.1
			c-2.2-2.1-1.8-5.9-1.8-6.1c0.1-0.6-0.2-1.2-0.7-1.3c-0.4-0.1-0.8,0.3-0.9,1c-0.2,2.1,0.1,6.4,2.8,8.7c-0.6,2.5-1,5.5-1.2,9
			c0,0.1,0,0.2,0,0.3c-0.1,2.5,0,5.2,0.3,8.2c-1-0.8-1.5-2-1.5-2c-0.2-0.6-0.7-0.8-1.1-0.5c-0.4,0.3-0.5,1-0.3,1.5
			c0,0.1,1,2.7,3.2,3.6c0.6,4.5,1.6,9.6,3.3,15.3c0.5-0.1,1.1-0.3,1.6-0.6c0,0,0,0,0,0c-1.7-5.9-2.8-11.2-3.4-15.8c0,0,0-0.1,0-0.1
			c-0.4-3.5-0.6-6.6-0.5-9.4c1.1-2.7,4.4-2.8,4.5-2.8c0.4,0,0.8-0.5,0.8-1.2c0-0.6-0.4-1.1-0.8-1.1c0,0,0,0,0,0
			c-0.1,0-2.4,0.1-4.2,1.7c0.2-2.3,0.6-4.3,1-6.1C192.7,518.5,192.7,518.4,192.7,518.3z"/>
	</g>
</g>
</svg>
