<?xml version="1.0" encoding="utf-8"?>
<!-- Generator: Adobe Illustrator 19.0.1, SVG Export Plug-In . SVG Version: 6.00 Build 0)  -->
<svg version="1.1" id="loofa_x5F_seed" xmlns="http://www.w3.org/2000/svg" xmlns:xlink="http://www.w3.org/1999/xlink" x="0px"
	 y="0px" viewBox="-223 225 512 512" style="enable-background:new -223 225 512 512;" xml:space="preserve">
<style type="text/css">
	.st0{fill:#DBD8C1;}
	.st1{fill:#D6CC92;}
</style>
<g>
	<path class="st0" d="M42.3,453.1c0.3,1,2,5.7-0.3,7.8c-1.7,1.5-4.5,0.8-6.5,0.3c-4.6-1.1-7.4-4.2-8-4.8c-3.9-4.4-6.1-11.7-3.6-13.9
		c1.2-1.1,3.3-0.7,5.6-0.2c3.7,0.7,6.2,2.8,7.6,3.9C38.7,447.7,41.1,449.7,42.3,453.1z"/>
	<g>
		<path class="st1" d="M41.2,452.9c0.3,0.9,1.8,5.1-0.2,6.9c-1.5,1.4-4,0.7-5.8,0.3c-4.1-1-6.6-3.7-7.1-4.2
			c-3.5-3.9-5.4-10.3-3.2-12.3c1.1-1,2.9-0.6,5-0.2c3.3,0.7,5.5,2.4,6.7,3.5C38.1,448.2,40.1,449.9,41.2,452.9z"/>
	</g>
</g>
<g>
	<path class="st0" d="M202.9,545.8c0.3,1,2,5.7-0.3,7.8c-1.7,1.5-4.5,0.8-6.5,0.3c-4.6-1.1-7.4-4.2-8-4.8
		c-3.9-4.4-6.1-11.7-3.6-13.9c1.2-1.1,3.3-0.7,5.6-0.2c3.7,0.7,6.2,2.8,7.6,3.9C199.3,540.4,201.7,542.4,202.9,545.8z"/>
	<g>
		<path class="st1" d="M201.8,545.7c0.3,0.9,1.8,5.1-0.2,6.9c-1.5,1.4-4,0.7-5.8,0.3c-4.1-1-6.6-3.7-7.1-4.2
			c-3.5-3.9-5.4-10.3-3.2-12.3c1.1-1,2.9-0.6,5-0.2c3.3,0.7,5.5,2.4,6.7,3.5C198.7,540.9,200.8,542.6,201.8,545.7z"/>
	</g>
</g>
<g>
	<path class="st0" d="M40.3,637.4c0.3,1,2,5.7-0.3,7.8c-1.7,1.5-4.5,0.8-6.5,0.3c-4.6-1.1-7.4-4.2-8-4.8c-3.9-4.4-6.1-11.7-3.6-13.9
		c1.2-1.1,3.3-0.7,5.6-0.2c3.7,0.7,6.2,2.8,7.6,3.9C36.8,632.1,39.1,634,40.3,637.4z"/>
	<g>
		<path class="st1" d="M39.3,637.3c0.3,0.9,1.8,5.1-0.2,6.9c-1.5,1.4-4,0.7-5.8,0.3c-4.1-1-6.6-3.7-7.1-4.2
			c-3.5-3.9-5.4-10.3-3.2-12.3c1.1-1,2.9-0.6,5-0.2c3.3,0.7,5.5,2.4,6.7,3.5C36.1,632.5,38.2,634.3,39.3,637.3z"/>
	</g>
</g>
<g>
	<path class="st0" d="M-120.2,546c0.3,1,2,5.7-0.3,7.8c-1.7,1.5-4.5,0.8-6.5,0.3c-4.6-1.1-7.4-4.2-8-4.8c-3.9-4.4-6.1-11.7-3.6-13.9
		c1.2-1.1,3.3-0.7,5.6-0.2c3.7,0.7,6.2,2.8,7.6,3.9C-123.7,540.7-121.4,542.6-120.2,546z"/>
	<g>
		<path class="st1" d="M-121.3,545.9c0.3,0.9,1.8,5.1-0.2,6.9c-1.5,1.4-4,0.7-5.8,0.3c-4.1-1-6.6-3.7-7.1-4.2
			c-3.5-3.9-5.4-10.3-3.2-12.3c1.1-1,2.9-0.6,5-0.2c3.3,0.7,5.5,2.4,6.7,3.5C-124.4,541.1-122.3,542.9-121.3,545.9z"/>
	</g>
</g>
</svg>
