<?xml version="1.0" encoding="utf-8"?>
<!-- Generator: Adobe Illustrator 19.0.1, SVG Export Plug-In . SVG Version: 6.00 Build 0)  -->
<svg version="1.1" id="loofa" xmlns="http://www.w3.org/2000/svg" xmlns:xlink="http://www.w3.org/1999/xlink" x="0px" y="0px"
	 viewBox="0 0 50 50" style="enable-background:new 0 0 50 50;" xml:space="preserve">
<style type="text/css">
	.st0{fill:#84692D;}
	.st1{fill:#579935;}
	.st2{filter:url(#Adobe_OpacityMaskFilter);}
	.st3{fill:#FFFFFF;}
	.st4{mask:url(#SVGID_1_);}
	.st5{fill:#207F34;}
	.st6{filter:url(#Adobe_OpacityMaskFilter_1_);}
	.st7{fill:none;stroke:#207F34;stroke-width:0.75;stroke-miterlimit:10;}
	.st8{fill:#C8F697;}
	.st9{fill:#B6D822;}
	.st10{fill:none;stroke:#DFF194;stroke-miterlimit:10;}
	.st11{fill:#5B921F;}
</style>
<g id="fat">
	<path class="st0" d="M5.9,49c0,0-1.3-0.3-1.8-1.5c0,0,0.7-1.2,1.5-2c0,0,1.7,1,2,1.5C7.5,47.1,7.2,48,5.9,49z"/>
	<path class="st1" d="M6.2,48.6c0,0-1.2-0.4-1.8-1.5c0,0,0.5-1,1.1-1.6c0,0,1.7,1,2,1.5C7.5,47,7.4,47.9,6.2,48.6z"/>
	<path class="st1" d="M4.8,47.7c0,0-0.6,0.1-0.6-0.5c0,0,0.7-0.9,1.3-1.6c0,0,0.7,0.2,0.7,0.5C6.2,46,5.8,46.7,4.8,47.7z"/>
	<defs>
		<filter id="Adobe_OpacityMaskFilter" filterUnits="userSpaceOnUse" x="1.8" y="1" width="46.9" height="48.4">
			
				<feColorMatrix  type="matrix" values="-1 0 0 0 1  0 -1 0 0 1  0 0 -1 0 1  0 0 0 1 0" color-interpolation-filters="sRGB" result="source"/>
			<feFlood  style="flood-color:white;flood-opacity:1" result="back"/>
			<feBlend  in="source" in2="back" mode="normal"/>
		</filter>
	</defs>
	<mask maskUnits="userSpaceOnUse" x="1.8" y="1" width="46.9" height="48.4" id="SVGID_1_">
		<g class="st2">
			<polygon class="st3" points="5.6,47.8 5.3,47.5 5.5,47.4 5.8,47.7 			"/>
			<path class="st3" d="M5.5,47.4c0.1,0.1,0.2,0.2,0.3,0.3c0.2,0.2,0.5,0.2,0.5,0.2c0,0-0.2,0-0.4-0.1c-0.1,0-0.1-0.1-0.1-0.1"/>
		</g>
	</mask>
	<g class="st4">
		<path class="st5" d="M46.5,1c1.1,0.3,2,1,2.1,1.6c0.1,0.3-0.1,0.6-0.2,0.9c-0.2,0.4-0.6,0.7-1.2,1C46,5,44.4,5.1,42.8,5.9
			c-0.3,0.2-0.6,0.5-0.9,0.8c-0.5,0.5-0.9,1-1.2,1.5c-1-0.7-2-1.4-2.9-2c-0.2-0.1-0.3-0.2-0.5-0.3c0.1-0.1,0.3-0.2,0.5-0.4
			C37.9,5.3,38.4,5,39,4.6c0.8-0.5,1.7-0.9,2.2-1.2c0.5-0.2,1-0.4,1.5-0.6c0.6-0.3,1.1-0.6,1.6-0.8C45,1.7,45.8,1.3,46.5,1z"/>
		<defs>
			<filter id="Adobe_OpacityMaskFilter_1_" filterUnits="userSpaceOnUse" x="1.8" y="3.8" width="37.5" height="44.2">
				
					<feColorMatrix  type="matrix" values="-1 0 0 0 1  0 -1 0 0 1  0 0 -1 0 1  0 0 0 1 0" color-interpolation-filters="sRGB" result="source"/>
				<feFlood  style="flood-color:white;flood-opacity:1" result="back"/>
				<feBlend  in="source" in2="back" mode="normal"/>
			</filter>
		</defs>
		<mask maskUnits="userSpaceOnUse" x="1.8" y="3.8" width="37.5" height="44.2" id="SVGID_1_">
			<g class="st6">
				<polygon class="st3" points="6.2,48.1 5.8,47.9 5.8,47.8 6.3,47.9 				"/>
			</g>
		</mask>
		<g>
			<g>
				<path class="st1" d="M38.8,7.2c0,0-0.2-0.1-0.6-0.4C36,5.6,28.8,2,24.6,6.1C19.7,11,7.5,26.8,7.5,26.8s-6.2,8.5-5.1,14.3
					c0,0,0.4,2.9,3.9,6.5C9.1,43.9,37.2,8.3,38.8,7.2z"/>
				<path class="st1" d="M37.9,7.2c0,0-4.4-2.3-9.3,2.2L11.7,31.1c0,0-5.3,5.5-5.7,15.6"/>
			</g>
			<g>
				<path class="st7" d="M38.6,7c0,0-0.2-0.1-0.6-0.4C35.9,5.5,28.8,2,24.6,6.1C19.7,11,7.5,26.8,7.5,26.8S1.3,35.3,2.2,41
					c0,0,0.3,2.8,3.8,6.4c2.8-3.7,5.2-7,7-9.5c3-4.2,4.6-6.3,5.8-8.3c0.4-0.7,0.9-1.4,1.7-2.5c1.6-2.3,2.2-2.5,3.9-4.9
					c1.5-2,1.4-2.2,3.1-4.3c0.8-1,1.4-1.7,2.5-2.9c2.2-2.5,3.3-3.7,4.9-5.2C35.7,9.1,36.9,8.1,38.6,7z"/>
				<path class="st7" d="M37.6,7c0,0-4.3-2.2-9.2,2.2L11.6,31.1c0,0-5.3,5.5-5.8,15.6"/>
			</g>
			<path class="st8" d="M24.8,11.3l-0.5-0.4c-0.2-0.1-0.3-0.4-0.1-0.6l0.1-0.1c0.2-0.2,0.5-0.2,0.7-0.1l0.5,0.4
				c0.2,0.1,0.3,0.4,0.1,0.6l-0.1,0.1C25.3,11.4,25,11.4,24.8,11.3z"/>
			<path class="st8" d="M26.9,15.3l-0.5-0.4c-0.2-0.1-0.3-0.4-0.1-0.6l0.1-0.1c0.2-0.2,0.5-0.2,0.7-0.1l0.5,0.4
				c0.2,0.1,0.3,0.4,0.1,0.6l-0.1,0.1C27.4,15.4,27.1,15.4,26.9,15.3z"/>
			<path class="st8" d="M20.9,13.8l-0.4-0.3c-0.2-0.1-0.3-0.4-0.1-0.6l0.1-0.1c0.2-0.2,0.5-0.2,0.7-0.1l0.4,0.3
				c0.2,0.1,0.3,0.4,0.1,0.6l-0.1,0.1C21.4,13.9,21.1,13.9,20.9,13.8z"/>
			<path class="st8" d="M5.5,37.5l-0.5-0.4c-0.2-0.1-0.3-0.4-0.1-0.6l0.1-0.1c0.2-0.2,0.5-0.2,0.7-0.1l0.5,0.4
				c0.2,0.1,0.3,0.4,0.1,0.6l-0.1,0.1C6,37.6,5.7,37.7,5.5,37.5z"/>
			<path class="st8" d="M8.6,41.6L8,41.2c-0.2-0.1-0.3-0.4-0.1-0.6L8,40.4c0.2-0.2,0.5-0.2,0.7-0.1l0.5,0.4c0.2,0.1,0.3,0.4,0.1,0.6
				l-0.1,0.1C9.1,41.7,8.8,41.7,8.6,41.6z"/>
			<path class="st8" d="M10.5,37.9l-0.4-0.3c-0.2-0.1-0.3-0.4-0.1-0.6l0.1-0.1c0.2-0.2,0.5-0.2,0.7-0.1l0.4,0.3
				c0.2,0.1,0.3,0.4,0.1,0.6l-0.1,0.1C11,38,10.7,38,10.5,37.9z"/>
		</g>
		<g>
			<g>
				<path class="st9" d="M38.2,6.8c0,0,0.2,0.2,0.6,0.4c2,1.5,8.4,6.9,5.4,11.8c-3.6,5.8-16.6,21.3-16.6,21.3s-7.1,8-13.7,8.7
					c0,0-3.2,0.5-8.4-1.5C8.5,43.9,37.6,8.5,38.2,6.8z"/>
				<path class="st9" d="M38.5,7.6c0,0,3.9,3.2,0.8,8.8L21.4,37.8c0,0-4.1,6.3-15,9.7"/>
			</g>
			<g>
				<path class="st10" d="M38.8,7.2c0,0,0.2,0.1,0.6,0.4c1.9,1.5,7.9,6.5,4.9,11.3C40.6,24.7,27.8,40,27.8,40s-7,7.9-13.4,8.8
					c0,0-3.1,0.6-8-1.3c3.1-3.6,5.7-6.6,7.8-8.9c3.5-3.9,5.2-5.8,7-7.6c0.6-0.5,1.2-1.2,2.2-2.2c1.9-2.1,2-2.6,3.9-4.9
					c1.6-1.9,1.9-1.9,3.5-3.9c0.8-1,1.4-1.7,2.3-3c1.9-2.6,2.9-4,3.9-5.8C37.5,10.3,38.2,8.9,38.8,7.2z"/>
				<path class="st10" d="M39.1,8c0,0,3.7,3,0.5,8.6L22,37.8c0,0-4.1,6.2-14.6,9.7"/>
			</g>
			<path class="st11" d="M38.6,20.4l0.6,0.4c0.2,0.1,0.5,0.1,0.7-0.1l0.1-0.1c0.2-0.2,0.1-0.5-0.1-0.6l-0.6-0.4
				c-0.2-0.1-0.5-0.1-0.7,0.1l-0.1,0.1C38.4,20,38.4,20.3,38.6,20.4z"/>
			<path class="st11" d="M33.7,19.9l0.6,0.4c0.2,0.1,0.5,0.1,0.7-0.1l0.1-0.1c0.2-0.2,0.1-0.5-0.1-0.6L34.4,19
				c-0.2-0.1-0.5-0.1-0.7,0.1l-0.1,0.1C33.4,19.4,33.5,19.7,33.7,19.9z"/>
			<path class="st11" d="M37.2,24.6l0.4,0.3c0.2,0.1,0.5,0.1,0.7-0.1l0.1-0.1c0.2-0.2,0.1-0.5-0.1-0.6l-0.4-0.3
				c-0.2-0.1-0.5-0.1-0.7,0.1L37.1,24C36.9,24.2,37,24.5,37.2,24.6z"/>
			<path class="st11" d="M16.7,45.3l0.6,0.4c0.2,0.1,0.5,0.1,0.7-0.1l0.1-0.1c0.2-0.2,0.1-0.5-0.1-0.6l-0.6-0.4
				c-0.2-0.1-0.5-0.1-0.7,0.1l-0.1,0.1C16.5,44.9,16.5,45.2,16.7,45.3z"/>
			<path class="st11" d="M11.5,43.9l0.6,0.4c0.2,0.1,0.5,0.1,0.7-0.1l0.1-0.1c0.2-0.2,0.1-0.5-0.1-0.6L12.2,43
				c-0.2-0.1-0.5-0.1-0.7,0.1l-0.1,0.1C11.2,43.5,11.3,43.7,11.5,43.9z"/>
			<path class="st11" d="M14.8,41.1l0.4,0.3c0.2,0.1,0.5,0.1,0.7-0.1l0.1-0.1c0.2-0.2,0.1-0.5-0.1-0.6l-0.4-0.3
				c-0.2-0.1-0.5-0.1-0.7,0.1l-0.1,0.1C14.5,40.7,14.6,40.9,14.8,41.1z"/>
		</g>
	</g>
</g>
</svg>
