<?xml version="1.0" encoding="utf-8"?>
<!-- Generator: Adobe Illustrator 19.0.1, SVG Export Plug-In . SVG Version: 6.00 Build 0)  -->
<svg version="1.1" id="loofa_x5F_warn" xmlns="http://www.w3.org/2000/svg" xmlns:xlink="http://www.w3.org/1999/xlink" x="0px"
	 y="0px" viewBox="-223 225 512 512" style="enable-background:new -223 225 512 512;" xml:space="preserve">
<style type="text/css">
	.st0{clip-path:url(#SVGID_2_);}
	.st1{fill:#FBD303;}
	.st2{fill:#646B79;}
	.st3{clip-path:url(#SVGID_4_);}
	.st4{filter:url(#Adobe_OpacityMaskFilter);}
	.st5{fill:#FFFFFF;}
	.st6{mask:url(#thin_1_);}
	.st7{fill:#207F34;}
	.st8{filter:url(#Adobe_OpacityMaskFilter_1_);}
	.st9{fill:#579935;}
	.st10{fill:none;stroke:#207F34;stroke-width:0.75;stroke-miterlimit:10;}
	.st11{fill:#C8F697;}
	.st12{fill:#B6D822;}
	.st13{fill:none;stroke:#DFF194;stroke-miterlimit:10;}
	.st14{fill:#5B921F;}
	.st15{filter:url(#Adobe_OpacityMaskFilter_2_);}
	.st16{mask:url(#thin_2_);}
	.st17{filter:url(#Adobe_OpacityMaskFilter_3_);}
	.st18{filter:url(#Adobe_OpacityMaskFilter_4_);}
	.st19{mask:url(#thin_3_);}
	.st20{filter:url(#Adobe_OpacityMaskFilter_5_);}
	.st21{filter:url(#Adobe_OpacityMaskFilter_6_);}
	.st22{mask:url(#thin_4_);}
	.st23{filter:url(#Adobe_OpacityMaskFilter_7_);}
	.st24{filter:url(#Adobe_OpacityMaskFilter_8_);}
	.st25{mask:url(#thin_5_);}
	.st26{filter:url(#Adobe_OpacityMaskFilter_9_);}
	.st27{filter:url(#Adobe_OpacityMaskFilter_10_);}
	.st28{mask:url(#thin_6_);}
	.st29{filter:url(#Adobe_OpacityMaskFilter_11_);}
	.st30{filter:url(#Adobe_OpacityMaskFilter_12_);}
	.st31{mask:url(#thin_7_);}
	.st32{filter:url(#Adobe_OpacityMaskFilter_13_);}
	.st33{filter:url(#Adobe_OpacityMaskFilter_14_);}
	.st34{mask:url(#thin_8_);}
	.st35{filter:url(#Adobe_OpacityMaskFilter_15_);}
	.st36{filter:url(#Adobe_OpacityMaskFilter_16_);}
	.st37{mask:url(#thin_9_);}
	.st38{filter:url(#Adobe_OpacityMaskFilter_17_);}
	.st39{filter:url(#Adobe_OpacityMaskFilter_18_);}
	.st40{mask:url(#thin_10_);}
	.st41{filter:url(#Adobe_OpacityMaskFilter_19_);}
	.st42{filter:url(#Adobe_OpacityMaskFilter_20_);}
	.st43{mask:url(#thin_11_);}
	.st44{filter:url(#Adobe_OpacityMaskFilter_21_);}
	.st45{fill:#5C3715;}
	.st46{fill:#326B37;}
	.st47{fill:none;stroke:#245529;stroke-width:3;stroke-miterlimit:10;}
	.st48{fill:#48824A;}
	.st49{filter:url(#Adobe_OpacityMaskFilter_22_);}
	.st50{mask:url(#thin_24_);}
	.st51{filter:url(#Adobe_OpacityMaskFilter_23_);}
	.st52{clip-path:url(#SVGID_6_);}
	.st53{clip-path:url(#SVGID_8_);}
	.st54{font-family:'Arial-Black';}
	.st55{font-size:21.0661px;}
	.st56{font-size:20.1175px;}
</style>
<g>
	<defs>
		<polygon id="SVGID_1_" points="32.9,376.5 237.8,495.4 237.6,543.6 33.4,425.1 		"/>
	</defs>
	<clipPath id="SVGID_2_">
		<use xlink:href="#SVGID_1_"  style="overflow:visible;"/>
	</clipPath>
	<g class="st0">
		<polygon class="st1" points="32.9,350.5 237.8,469.4 237.6,517.6 33.4,399.1 		"/>
		<g>
			<polygon class="st2" points="237.8,469.4 226.1,462.6 186.9,488.2 216.8,505.6 237.7,492.1 			"/>
			<polygon class="st2" points="159.6,472.3 129.7,455 168.7,429.3 198.7,446.7 			"/>
			<polygon class="st2" points="102.3,439.1 72.4,421.7 111.2,395.9 141.2,413.3 			"/>
			<polygon class="st2" points="53.8,362.6 33.2,376.3 33.4,399.1 45.1,405.9 83.8,380 			"/>
		</g>
	</g>
</g>
<g>
	<defs>
		<polygon id="SVGID_3_" points="-171.4,469.6 32.8,351.1 33,399.3 -171.9,518.2 		"/>
	</defs>
	<clipPath id="SVGID_4_">
		<use xlink:href="#SVGID_3_"  style="overflow:visible;"/>
	</clipPath>
	<g class="st3">
		<polygon class="st1" points="-171.4,495.6 32.8,377.1 33,425.2 -171.9,544.2 		"/>
		<g>
			<polygon class="st2" points="32.9,402.6 12,389.1 -17.9,406.5 21.3,432 33,425.2 			"/>
			<polygon class="st2" points="-6.1,448 -36.1,465.4 -75.1,439.7 -45.2,422.4 			"/>
			<polygon class="st2" points="-63.6,481.3 -93.6,498.8 -132.4,472.9 -102.5,455.6 			"/>
			<polygon class="st2" points="-121,514.7 -159.7,488.8 -171.4,495.6 -171.6,518.3 -151,532.1 			"/>
		</g>
	</g>
</g>
<defs>
	<filter id="Adobe_OpacityMaskFilter" filterUnits="userSpaceOnUse" x="-174.2" y="502.7" width="14.1" height="45">
		
			<feColorMatrix  type="matrix" values="-1 0 0 0 1  0 -1 0 0 1  0 0 -1 0 1  0 0 0 1 0" color-interpolation-filters="sRGB" result="source"/>
		<feFlood  style="flood-color:white;flood-opacity:1" result="back"/>
		<feBlend  in="source" in2="back" mode="normal"/>
	</filter>
</defs>
<mask maskUnits="userSpaceOnUse" x="-174.2" y="502.7" width="14.1" height="45" id="thin_1_">
	<g class="st4">
		
			<rect x="-167.6" y="547.4" transform="matrix(0.9514 0.3078 -0.3078 0.9514 160.3868 78.1387)" class="st5" width="0.2" height="0.2"/>
		<path class="st5" d="M-167.6,547.4c0.1,0,0.1,0,0.2,0c0.2,0,0.3-0.1,0.3-0.1c0,0-0.1,0.1-0.2,0.1c0,0-0.1,0-0.1,0"/>
	</g>
</mask>
<g id="thin_23_" class="st6">
	<path class="st7" d="M-166,502.9c0.6-0.2,1.2-0.2,1.4,0.1c0.2,0.2,0.2,0.4,0.2,0.6c0,0.3,0,0.7-0.2,1.1c-0.3,0.8-1,1.5-1.4,2.6
		c0,0.3-0.1,0.5-0.1,0.8c0,0.5,0,1,0,1.4c-0.6,0-1.3,0-1.9-0.1c-0.1,0-0.2,0-0.3,0c0-0.1,0-0.3,0.1-0.4c0-0.1,0.1-0.5,0.2-1
		c0.2-0.7,0.4-1.2,0.6-1.6c0.1-0.3,0.3-0.6,0.4-1c0.2-0.4,0.3-0.8,0.4-1.1C-166.4,503.9-166.2,503.4-166,502.9z"/>
	<defs>
		<filter id="Adobe_OpacityMaskFilter_1_" filterUnits="userSpaceOnUse" x="-174.2" y="509.3" width="7.3" height="38.4">
			
				<feColorMatrix  type="matrix" values="-1 0 0 0 1  0 -1 0 0 1  0 0 -1 0 1  0 0 0 1 0" color-interpolation-filters="sRGB" result="source"/>
			<feFlood  style="flood-color:white;flood-opacity:1" result="back"/>
			<feBlend  in="source" in2="back" mode="normal"/>
		</filter>
	</defs>
	<mask maskUnits="userSpaceOnUse" x="-174.2" y="509.3" width="7.3" height="38.4" id="thin_1_">
		<g class="st8">
			
				<rect x="-167.3" y="547.4" transform="matrix(0.9591 -0.283 0.283 0.9591 -161.7748 -24.9311)" class="st5" width="0.3" height="0.1"/>
		</g>
	</mask>
	<g>
		<g>
			<path class="st9" d="M-167.2,509.7c0,0-0.1,0-0.4,0c-1.3,0.1-5.6,0.8-6,5c-0.4,4.9-0.2,19.4-0.2,19.4s0.3,7.6,2.7,10.7
				c0,0,1.1,1.6,3.9,2.4C-167.3,543.8-167.5,511-167.2,509.7z"/>
			<path class="st9" d="M-167.6,510.1c0,0-2.6,0.4-3.2,5l0.3,20c0,0-0.4,5.4,2.9,11.8"/>
		</g>
		<g>
			<path class="st10" d="M-167.3,509.7c0,0-0.1,0-0.4,0c-1.3,0.1-5.5,0.8-5.8,5c-0.4,4.9-0.2,19.4-0.2,19.4s0.3,7.6,2.6,10.7
				c0,0,1.1,1.6,3.8,2.4c-0.1-3.4-0.2-6.3-0.3-8.5c-0.1-3.8-0.2-5.6-0.4-7.4c-0.1-0.6-0.1-1.2-0.2-2.2c-0.1-2.1,0-2.4,0-4.6
				c0-1.8-0.1-1.9-0.2-3.8c0-1,0-1.6,0.1-2.8c0.1-2.4,0.1-3.6,0.3-5.1C-167.8,512.1-167.7,511-167.3,509.7z"/>
			<path class="st10" d="M-167.7,510.1c0,0-2.6,0.4-3.1,5l0.3,20c0,0-0.4,5.4,2.9,11.8"/>
		</g>
		<path class="st11" d="M-171.9,517.7L-171.9,517.7c-0.3,0-0.5-0.2-0.5-0.4l0,0c0-0.2,0.2-0.4,0.4-0.4h0.1c0.2,0,0.4,0.2,0.4,0.4
			l0,0C-171.5,517.6-171.7,517.7-171.9,517.7z"/>
		<path class="st11" d="M-169.6,519.3L-169.6,519.3c-0.3,0-0.5-0.2-0.5-0.4l0,0c0-0.2,0.2-0.4,0.4-0.4h0.1c0.2,0,0.4,0.2,0.4,0.4
			l0,0C-169.2,519.2-169.4,519.3-169.6,519.3z"/>
		<path class="st11" d="M-172.7,520.8L-172.7,520.8c-0.2,0-0.4-0.2-0.4-0.4l0,0c0-0.2,0.2-0.4,0.4-0.4l0,0c0.2,0,0.4,0.2,0.4,0.4
			l0,0C-172.3,520.7-172.5,520.8-172.7,520.8z"/>
		<path class="st11" d="M-171.1,541.4L-171.1,541.4c-0.3,0-0.5-0.2-0.5-0.4l0,0c0-0.2,0.2-0.4,0.4-0.4h0.1c0.2,0,0.4,0.2,0.4,0.4
			l0,0C-170.7,541.2-170.9,541.4-171.1,541.4z"/>
		<path class="st11" d="M-168.4,542.6L-168.4,542.6c-0.3,0-0.5-0.2-0.5-0.4l0,0c0-0.2,0.2-0.4,0.4-0.4h0.1c0.2,0,0.4,0.2,0.4,0.4
			l0,0C-168,542.4-168.2,542.6-168.4,542.6z"/>
		<path class="st11" d="M-168.9,539.6L-168.9,539.6c-0.2,0-0.4-0.2-0.4-0.4l0,0c0-0.2,0.2-0.4,0.4-0.4l0,0c0.2,0,0.4,0.2,0.4,0.4
			l0,0C-168.5,539.4-168.6,539.6-168.9,539.6z"/>
	</g>
	<g>
		<g>
			<path class="st12" d="M-167.6,509.7c0,0,0.2,0,0.4,0c1.4,0.1,5.9,0.8,6.3,5c0.5,5,0.2,19.5,0.2,19.5s-0.3,7.7-2.8,10.8
				c0,0-1.2,1.6-4.1,2.4C-167.5,544-167.3,511-167.6,509.7z"/>
			<path class="st12" d="M-167.2,510.1c0,0,2.8,0.4,3.4,5l-0.3,20.1c0,0,0.4,5.5-3.1,11.8"/>
		</g>
		<g>
			<path class="st13" d="M-167.2,509.7c0,0,0.1,0,0.4,0c1.3,0.1,5.6,0.8,5.9,5c0.4,4.9,0.2,19.3,0.2,19.3s-0.3,7.6-2.7,10.7
				c0,0-1.1,1.6-3.9,2.4c0.1-3.4,0.2-6.3,0.3-8.5c0.1-3.8,0.2-5.6,0.4-7.4c0.1-0.6,0.1-1.2,0.2-2.2c0.1-2.1,0-2.4,0-4.5
				c0-1.8,0.1-1.9,0.2-3.8c0-1,0-1.6-0.1-2.8c-0.1-2.4-0.1-3.6-0.3-5.1C-166.7,512.1-166.9,511-167.2,509.7z"/>
			<path class="st13" d="M-166.8,510.1c0,0,2.6,0.4,3.2,5l-0.3,19.9c0,0,0.4,5.4-2.9,11.7"/>
		</g>
		<path class="st14" d="M-162.6,517.8L-162.6,517.8c0.3,0,0.5-0.2,0.5-0.4l0,0c0-0.2-0.2-0.4-0.4-0.4h-0.1c-0.2,0-0.4,0.2-0.4,0.4
			l0,0C-163,517.6-162.8,517.8-162.6,517.8z"/>
		<path class="st14" d="M-164.9,519.4L-164.9,519.4c0.3,0,0.5-0.2,0.5-0.4l0,0c0-0.2-0.2-0.4-0.4-0.4h-0.1c-0.2,0-0.4,0.2-0.4,0.4
			l0,0C-165.3,519.2-165.1,519.4-164.9,519.4z"/>
		<path class="st14" d="M-161.8,520.9L-161.8,520.9c0.2,0,0.4-0.2,0.4-0.4l0,0c0-0.2-0.2-0.4-0.4-0.4h0c-0.2,0-0.4,0.2-0.4,0.4l0,0
			C-162.2,520.7-162,520.9-161.8,520.9z"/>
		<path class="st14" d="M-163.4,541.6L-163.4,541.6c0.3,0,0.5-0.2,0.5-0.4l0,0c0-0.2-0.2-0.4-0.4-0.4h-0.1c-0.2,0-0.4,0.2-0.4,0.4
			l0,0C-163.8,541.4-163.6,541.6-163.4,541.6z"/>
		<path class="st14" d="M-166.1,542.8L-166.1,542.8c0.3,0,0.5-0.2,0.5-0.4l0,0c0-0.2-0.2-0.4-0.4-0.4h-0.1c-0.2,0-0.4,0.2-0.4,0.4
			l0,0C-166.5,542.7-166.3,542.8-166.1,542.8z"/>
		<path class="st14" d="M-165.7,539.8L-165.7,539.8c0.2,0,0.4-0.2,0.4-0.4l0,0c0-0.2-0.2-0.4-0.4-0.4h0c-0.2,0-0.4,0.2-0.4,0.4l0,0
			C-166.1,539.7-165.9,539.8-165.7,539.8z"/>
	</g>
</g>
<defs>
	<filter id="Adobe_OpacityMaskFilter_2_" filterUnits="userSpaceOnUse" x="-107.5" y="464.8" width="18.8" height="43.3">
		
			<feColorMatrix  type="matrix" values="-1 0 0 0 1  0 -1 0 0 1  0 0 -1 0 1  0 0 0 1 0" color-interpolation-filters="sRGB" result="source"/>
		<feFlood  style="flood-color:white;flood-opacity:1" result="back"/>
		<feBlend  in="source" in2="back" mode="normal"/>
	</filter>
</defs>
<mask maskUnits="userSpaceOnUse" x="-107.5" y="464.8" width="18.8" height="43.3" id="thin_2_">
	<g class="st15">
		
			<rect x="-92.7" y="507.7" transform="matrix(-0.8496 0.5275 -0.5275 -0.8496 96.6197 987.9732)" class="st5" width="0.2" height="0.2"/>
		<path class="st5" d="M-92.5,507.6c0,0-0.1,0.1-0.2,0.1c-0.1,0-0.3,0-0.3,0c0,0,0.1,0,0.2,0c0,0,0.1,0,0.1,0"/>
	</g>
</mask>
<g id="thin_22_" class="st16">
	<path class="st7" d="M-104.7,464.8c-0.6-0.1-1.2,0.1-1.4,0.4c-0.1,0.2-0.1,0.4,0,0.6c0,0.3,0.1,0.7,0.4,1c0.5,0.7,1.3,1.2,2,2.2
		c0.1,0.2,0.2,0.5,0.3,0.8c0.2,0.5,0.3,0.9,0.3,1.4c0.6-0.2,1.2-0.3,1.9-0.5c0.1,0,0.2-0.1,0.3-0.1c0-0.1-0.1-0.2-0.2-0.4
		c-0.1-0.1-0.2-0.5-0.5-0.9c-0.3-0.6-0.7-1.1-0.9-1.4c-0.2-0.3-0.4-0.5-0.6-0.8c-0.2-0.3-0.5-0.7-0.6-1
		C-104.1,465.7-104.4,465.2-104.7,464.8z"/>
	<defs>
		<filter id="Adobe_OpacityMaskFilter_3_" filterUnits="userSpaceOnUse" x="-102.3" y="470.6" width="13.7" height="37.5">
			
				<feColorMatrix  type="matrix" values="-1 0 0 0 1  0 -1 0 0 1  0 0 -1 0 1  0 0 0 1 0" color-interpolation-filters="sRGB" result="source"/>
			<feFlood  style="flood-color:white;flood-opacity:1" result="back"/>
			<feBlend  in="source" in2="back" mode="normal"/>
		</filter>
	</defs>
	<mask maskUnits="userSpaceOnUse" x="-102.3" y="470.6" width="13.7" height="37.5" id="thin_2_">
		<g class="st17">
			
				<rect x="-93" y="507.8" transform="matrix(-0.999 -4.419902e-02 4.419902e-02 -0.999 -208.1052 1011.0676)" class="st5" width="0.3" height="0.1"/>
		</g>
	</mask>
	<g>
		<g>
			<path class="st9" d="M-101.9,471.2c0,0,0.1,0,0.4-0.1c1.3-0.2,5.6-0.6,7,3.4c1.6,4.7,4.9,18.8,4.9,18.8s1.6,7.4-0.1,11
				c0,0-0.7,1.8-3.2,3.3C-93.7,504.2-101.3,472.3-101.9,471.2z"/>
			<path class="st9" d="M-101.5,471.4c0,0,2.6-0.3,4.3,4.1l4.5,19.4c0,0,1.7,5.2,0,12.1"/>
		</g>
		<g>
			<path class="st10" d="M-101.8,471.1c0,0,0.1,0,0.4-0.1c1.3-0.2,5.5-0.5,6.9,3.4c1.6,4.7,4.9,18.8,4.9,18.8s1.6,7.4,0,11
				c0,0-0.7,1.8-3.1,3.2c-0.7-3.3-1.3-6.1-1.8-8.4c-0.8-3.7-1.1-5.5-1.4-7.3c-0.1-0.6-0.2-1.2-0.4-2.2c-0.4-2-0.6-2.3-1.1-4.4
				c-0.4-1.8-0.3-1.9-0.8-3.7c-0.2-0.9-0.4-1.6-0.7-2.7c-0.7-2.3-1-3.4-1.5-4.9C-100.8,473.3-101.2,472.3-101.8,471.1z"/>
			<path class="st10" d="M-101.3,471.4c0,0,2.6-0.3,4.2,4.1l4.5,19.4c0,0,1.7,5.2,0.1,12.1"/>
		</g>
		<path class="st11" d="M-95.5,477.8L-95.5,477.8c0.3-0.1,0.4-0.3,0.4-0.5l0,0c-0.1-0.2-0.3-0.3-0.5-0.3l-0.1,0
			c-0.2,0.1-0.3,0.3-0.3,0.5l0,0C-95.9,477.8-95.7,477.9-95.5,477.8z"/>
		<path class="st11" d="M-97.3,479.9L-97.3,479.9c0.3-0.1,0.4-0.3,0.4-0.5l0,0c-0.1-0.2-0.3-0.3-0.5-0.3l-0.1,0
			c-0.2,0.1-0.3,0.3-0.3,0.5l0,0C-97.7,479.9-97.5,480-97.3,479.9z"/>
		<path class="st11" d="M-93.9,480.7L-93.9,480.7c0.2-0.1,0.3-0.3,0.3-0.5l0,0c-0.1-0.2-0.3-0.3-0.5-0.3l0,0
			c-0.2,0.1-0.3,0.3-0.3,0.5l0,0C-94.4,480.6-94.2,480.7-93.9,480.7z"/>
		<path class="st11" d="M-90.5,501L-90.5,501c0.3-0.1,0.4-0.3,0.4-0.5l0,0c-0.1-0.2-0.3-0.3-0.5-0.3l-0.1,0
			c-0.2,0.1-0.3,0.3-0.3,0.5l0,0C-91,500.9-90.7,501-90.5,501z"/>
		<path class="st11" d="M-92.8,502.8L-92.8,502.8c0.3-0.1,0.4-0.3,0.4-0.5l0,0c-0.1-0.2-0.3-0.3-0.5-0.3l-0.1,0
			c-0.2,0.1-0.3,0.3-0.3,0.5l0,0C-93.3,502.7-93.1,502.8-92.8,502.8z"/>
		<path class="st11" d="M-93.1,499.8L-93.1,499.8c0.2-0.1,0.3-0.3,0.3-0.5l0,0c-0.1-0.2-0.3-0.3-0.5-0.3l0,0
			c-0.2,0.1-0.3,0.3-0.3,0.5h0C-93.6,499.7-93.4,499.8-93.1,499.8z"/>
	</g>
	<g>
		<g>
			<path class="st12" d="M-101.6,471.1c0,0-0.1,0-0.4,0.1c-1.3,0.4-5.5,2.2-4.9,6.4c0.7,4.9,4.5,19,4.5,19s2.1,7.4,5.4,9.8
				c0,0,1.5,1.3,4.6,1.4C-93.4,504.4-101.6,472.4-101.6,471.1z"/>
			<path class="st12" d="M-101.9,471.5c0,0-2.6,1-2,5.7l5.1,19.5c0,0,0.9,5.4,5.8,10.8"/>
		</g>
		<g>
			<path class="st13" d="M-101.9,471.2c0,0-0.1,0-0.4,0.1c-1.2,0.4-5.2,2.1-4.6,6.2c0.8,4.9,4.4,18.8,4.4,18.8s2.1,7.3,5.2,9.7
				c0,0,1.5,1.3,4.3,1.4c-0.9-3.3-1.7-6-2.3-8.2c-1-3.6-1.6-5.4-2.1-7.1c-0.2-0.5-0.4-1.2-0.7-2.1c-0.6-2-0.5-2.3-1.1-4.4
				c-0.5-1.7-0.6-1.8-1.1-3.6c-0.2-0.9-0.4-1.6-0.6-2.7c-0.5-2.3-0.7-3.5-0.9-5C-101.9,473.6-101.9,472.5-101.9,471.2z"/>
			<path class="st13" d="M-102.2,471.6c0,0-2.4,1-1.9,5.6l5,19.3c0,0,0.9,5.4,5.6,10.7"/>
		</g>
		<path class="st14" d="M-104.5,480.1L-104.5,480.1c-0.3,0.1-0.5-0.1-0.6-0.3l0,0c-0.1-0.2,0.1-0.4,0.3-0.5l0.1,0
			c0.2-0.1,0.4,0.1,0.5,0.3l0,0C-104.1,479.8-104.2,480.1-104.5,480.1z"/>
		<path class="st14" d="M-101.9,481.1L-101.9,481.1c-0.3,0.1-0.5-0.1-0.6-0.3l0,0c-0.1-0.2,0.1-0.4,0.3-0.5l0.1,0
			c0.2-0.1,0.4,0.1,0.5,0.3l0,0C-101.5,480.9-101.6,481.1-101.9,481.1z"/>
		<path class="st14" d="M-104.5,483.3L-104.5,483.3c-0.2,0.1-0.4-0.1-0.5-0.3l0,0c-0.1-0.2,0.1-0.4,0.3-0.5l0,0
			c0.2-0.1,0.4,0.1,0.5,0.3l0,0C-104.1,483.1-104.3,483.3-104.5,483.3z"/>
		<path class="st14" d="M-98,503.1L-98,503.1c-0.3,0.1-0.5-0.1-0.6-0.3l0,0c-0.1-0.2,0.1-0.4,0.3-0.5l0.1,0c0.2-0.1,0.4,0.1,0.5,0.3
			l0,0C-97.6,502.8-97.8,503-98,503.1z"/>
		<path class="st14" d="M-95,503.6L-95,503.6c-0.3,0.1-0.5-0.1-0.6-0.3l0,0c-0.1-0.2,0.1-0.4,0.3-0.5l0.1,0c0.2-0.1,0.4,0.1,0.5,0.3
			l0,0C-94.7,503.3-94.8,503.5-95,503.6z"/>
		<path class="st14" d="M-96.2,500.8L-96.2,500.8c-0.2,0.1-0.4-0.1-0.5-0.3l0,0c-0.1-0.2,0.1-0.4,0.3-0.5l0,0
			c0.2-0.1,0.4,0.1,0.5,0.3l0,0C-95.8,500.5-96,500.7-96.2,500.8z"/>
	</g>
</g>
<defs>
	<filter id="Adobe_OpacityMaskFilter_4_" filterUnits="userSpaceOnUse" x="-155.5" y="468.8" width="18.8" height="43.3">
		
			<feColorMatrix  type="matrix" values="-1 0 0 0 1  0 -1 0 0 1  0 0 -1 0 1  0 0 0 1 0" color-interpolation-filters="sRGB" result="source"/>
		<feFlood  style="flood-color:white;flood-opacity:1" result="back"/>
		<feBlend  in="source" in2="back" mode="normal"/>
	</filter>
</defs>
<mask maskUnits="userSpaceOnUse" x="-155.5" y="468.8" width="18.8" height="43.3" id="thin_3_">
	<g class="st18">
		
			<rect x="-140.7" y="511.7" transform="matrix(-0.8496 0.5275 -0.5275 -0.8496 9.9494 1020.6892)" class="st5" width="0.2" height="0.2"/>
		<path class="st5" d="M-140.5,511.6c0,0-0.1,0.1-0.2,0.1c-0.1,0-0.3,0-0.3,0c0,0,0.1,0,0.2,0c0,0,0.1,0,0.1,0"/>
	</g>
</mask>
<g id="thin_21_" class="st19">
	<path class="st7" d="M-152.7,468.8c-0.6-0.1-1.2,0.1-1.4,0.4c-0.1,0.2-0.1,0.4,0,0.6c0,0.3,0.1,0.7,0.4,1c0.5,0.7,1.3,1.2,2,2.2
		c0.1,0.2,0.2,0.5,0.3,0.8c0.2,0.5,0.3,0.9,0.3,1.4c0.6-0.2,1.2-0.3,1.9-0.5c0.1,0,0.2-0.1,0.3-0.1c0-0.1-0.1-0.2-0.2-0.4
		c-0.1-0.1-0.2-0.5-0.5-0.9c-0.3-0.6-0.7-1.1-0.9-1.4c-0.2-0.3-0.4-0.5-0.6-0.8c-0.2-0.3-0.5-0.7-0.6-1
		C-152.1,469.7-152.4,469.2-152.7,468.8z"/>
	<defs>
		<filter id="Adobe_OpacityMaskFilter_5_" filterUnits="userSpaceOnUse" x="-150.3" y="474.6" width="13.7" height="37.5">
			
				<feColorMatrix  type="matrix" values="-1 0 0 0 1  0 -1 0 0 1  0 0 -1 0 1  0 0 0 1 0" color-interpolation-filters="sRGB" result="source"/>
			<feFlood  style="flood-color:white;flood-opacity:1" result="back"/>
			<feBlend  in="source" in2="back" mode="normal"/>
		</filter>
	</defs>
	<mask maskUnits="userSpaceOnUse" x="-150.3" y="474.6" width="13.7" height="37.5" id="thin_3_">
		<g class="st20">
			
				<rect x="-141" y="511.8" transform="matrix(-0.999 -4.419902e-02 4.419902e-02 -0.999 -304.2351 1016.9421)" class="st5" width="0.3" height="0.1"/>
		</g>
	</mask>
	<g>
		<g>
			<path class="st9" d="M-149.9,475.2c0,0,0.1,0,0.4-0.1c1.3-0.2,5.6-0.6,7,3.4c1.6,4.7,4.9,18.8,4.9,18.8s1.6,7.4-0.1,11
				c0,0-0.7,1.8-3.2,3.3C-141.7,508.2-149.3,476.3-149.9,475.2z"/>
			<path class="st9" d="M-149.5,475.4c0,0,2.6-0.3,4.3,4.1l4.5,19.4c0,0,1.7,5.2,0,12.1"/>
		</g>
		<g>
			<path class="st10" d="M-149.8,475.1c0,0,0.1,0,0.4-0.1c1.3-0.2,5.5-0.5,6.9,3.4c1.6,4.7,4.9,18.8,4.9,18.8s1.6,7.4,0,11
				c0,0-0.7,1.8-3.1,3.2c-0.7-3.3-1.3-6.1-1.8-8.4c-0.8-3.7-1.1-5.5-1.4-7.3c-0.1-0.6-0.2-1.2-0.4-2.2c-0.4-2-0.6-2.3-1.1-4.4
				c-0.4-1.8-0.3-1.9-0.8-3.7c-0.2-0.9-0.4-1.6-0.7-2.7c-0.7-2.3-1-3.4-1.5-4.9C-148.8,477.3-149.2,476.3-149.8,475.1z"/>
			<path class="st10" d="M-149.3,475.4c0,0,2.6-0.3,4.2,4.1l4.5,19.4c0,0,1.7,5.2,0.1,12.1"/>
		</g>
		<path class="st11" d="M-143.5,481.8L-143.5,481.8c0.3-0.1,0.4-0.3,0.4-0.5l0,0c-0.1-0.2-0.3-0.3-0.5-0.3l-0.1,0
			c-0.2,0.1-0.3,0.3-0.3,0.5l0,0C-143.9,481.8-143.7,481.9-143.5,481.8z"/>
		<path class="st11" d="M-145.3,483.9L-145.3,483.9c0.3-0.1,0.4-0.3,0.4-0.5l0,0c-0.1-0.2-0.3-0.3-0.5-0.3l-0.1,0
			c-0.2,0.1-0.3,0.3-0.3,0.5l0,0C-145.7,483.9-145.5,484-145.3,483.9z"/>
		<path class="st11" d="M-141.9,484.7L-141.9,484.7c0.2-0.1,0.3-0.3,0.3-0.5l0,0c-0.1-0.2-0.3-0.3-0.5-0.3l0,0
			c-0.2,0.1-0.3,0.3-0.3,0.5l0,0C-142.4,484.6-142.2,484.7-141.9,484.7z"/>
		<path class="st11" d="M-138.5,505L-138.5,505c0.3-0.1,0.4-0.3,0.4-0.5l0,0c-0.1-0.2-0.3-0.3-0.5-0.3l-0.1,0
			c-0.2,0.1-0.3,0.3-0.3,0.5l0,0C-139,504.9-138.7,505-138.5,505z"/>
		<path class="st11" d="M-140.8,506.8L-140.8,506.8c0.3-0.1,0.4-0.3,0.4-0.5l0,0c-0.1-0.2-0.3-0.3-0.5-0.3l-0.1,0
			c-0.2,0.1-0.3,0.3-0.3,0.5l0,0C-141.3,506.7-141.1,506.8-140.8,506.8z"/>
		<path class="st11" d="M-141.1,503.8L-141.1,503.8c0.2-0.1,0.3-0.3,0.3-0.5l0,0c-0.1-0.2-0.3-0.3-0.5-0.3l0,0
			c-0.2,0.1-0.3,0.3-0.3,0.5l0,0C-141.6,503.7-141.4,503.8-141.1,503.8z"/>
	</g>
	<g>
		<g>
			<path class="st12" d="M-149.6,475.1c0,0-0.1,0-0.4,0.1c-1.3,0.4-5.5,2.2-4.9,6.4c0.7,4.9,4.5,19,4.5,19s2.1,7.4,5.4,9.8
				c0,0,1.5,1.3,4.6,1.4C-141.4,508.4-149.6,476.4-149.6,475.1z"/>
			<path class="st12" d="M-149.9,475.5c0,0-2.6,1-2,5.7l5.1,19.5c0,0,0.9,5.4,5.8,10.8"/>
		</g>
		<g>
			<path class="st13" d="M-149.9,475.2c0,0-0.1,0-0.4,0.1c-1.2,0.4-5.2,2.1-4.6,6.2c0.8,4.9,4.4,18.8,4.4,18.8s2.1,7.3,5.2,9.7
				c0,0,1.5,1.3,4.3,1.4c-0.9-3.3-1.7-6-2.3-8.2c-1-3.6-1.6-5.4-2.1-7.1c-0.2-0.5-0.4-1.2-0.7-2.1c-0.6-2-0.5-2.3-1.1-4.4
				c-0.5-1.7-0.6-1.8-1.1-3.6c-0.2-0.9-0.4-1.6-0.6-2.7c-0.5-2.3-0.7-3.5-0.9-5C-149.9,477.6-149.9,476.5-149.9,475.2z"/>
			<path class="st13" d="M-150.2,475.6c0,0-2.4,1-1.9,5.6l5,19.3c0,0,0.9,5.4,5.6,10.7"/>
		</g>
		<path class="st14" d="M-152.5,484.1L-152.5,484.1c-0.3,0.1-0.5-0.1-0.6-0.3l0,0c-0.1-0.2,0.1-0.4,0.3-0.5l0.1,0
			c0.2-0.1,0.4,0.1,0.5,0.3l0,0C-152.1,483.8-152.2,484.1-152.5,484.1z"/>
		<path class="st14" d="M-149.9,485.1L-149.9,485.1c-0.3,0.1-0.5-0.1-0.6-0.3l0,0c-0.1-0.2,0.1-0.4,0.3-0.5l0.1,0
			c0.2-0.1,0.4,0.1,0.5,0.3l0,0C-149.5,484.9-149.6,485.1-149.9,485.1z"/>
		<path class="st14" d="M-152.5,487.3L-152.5,487.3c-0.2,0.1-0.4-0.1-0.5-0.3l0,0c-0.1-0.2,0.1-0.4,0.3-0.5l0,0
			c0.2-0.1,0.4,0.1,0.5,0.3l0,0C-152.1,487.1-152.3,487.3-152.5,487.3z"/>
		<path class="st14" d="M-146,507.1L-146,507.1c-0.3,0.1-0.5-0.1-0.6-0.3l0,0c-0.1-0.2,0.1-0.4,0.3-0.5l0.1,0
			c0.2-0.1,0.4,0.1,0.5,0.3l0,0C-145.6,506.8-145.8,507-146,507.1z"/>
		<path class="st14" d="M-143,507.6L-143,507.6c-0.3,0.1-0.5-0.1-0.6-0.3l0,0c-0.1-0.2,0.1-0.4,0.3-0.5l0.1,0
			c0.2-0.1,0.4,0.1,0.5,0.3l0,0C-142.7,507.3-142.8,507.5-143,507.6z"/>
		<path class="st14" d="M-144.2,504.8L-144.2,504.8c-0.2,0.1-0.4-0.1-0.5-0.3l0,0c-0.1-0.2,0.1-0.4,0.3-0.5l0,0
			c0.2-0.1,0.4,0.1,0.5,0.3l0,0C-143.8,504.5-144,504.7-144.2,504.8z"/>
	</g>
</g>
<defs>
	<filter id="Adobe_OpacityMaskFilter_6_" filterUnits="userSpaceOnUse" x="-142.2" y="494.9" width="19.4" height="44.1">
		
			<feColorMatrix  type="matrix" values="-1 0 0 0 1  0 -1 0 0 1  0 0 -1 0 1  0 0 0 1 0" color-interpolation-filters="sRGB" result="source"/>
		<feFlood  style="flood-color:white;flood-opacity:1" result="back"/>
		<feBlend  in="source" in2="back" mode="normal"/>
	</filter>
</defs>
<mask maskUnits="userSpaceOnUse" x="-142.2" y="494.9" width="19.4" height="44.1" id="thin_4_">
	<g class="st21">
		
			<rect x="-137.9" y="538.6" transform="matrix(-0.999 4.447251e-02 -4.447251e-02 -0.999 -251.4622 1082.9062)" class="st5" width="0.2" height="0.2"/>
		<path class="st5" d="M-137.7,538.6c-0.1,0-0.1,0-0.2,0c-0.1,0-0.2-0.1-0.2-0.1c0,0,0.1,0.1,0.2,0.1c0,0,0.1,0,0.1,0"/>
	</g>
</mask>
<g id="thin_20_" class="st22">
	<path class="st7" d="M-127.4,495.3c-0.5-0.4-1.1-0.5-1.4-0.3c-0.2,0.1-0.3,0.3-0.4,0.5c-0.1,0.3-0.2,0.6-0.1,1.1
		c0.1,0.9,0.6,1.7,0.7,2.9c0,0.3-0.1,0.5-0.1,0.8c-0.1,0.5-0.2,0.9-0.4,1.3c0.6,0.2,1.3,0.3,1.9,0.5c0.1,0,0.2,0.1,0.3,0.1
		c0-0.1,0-0.3,0-0.4c0-0.1,0-0.6,0-1.1c0-0.7-0.1-1.3-0.1-1.7c-0.1-0.3-0.1-0.7-0.1-1c0-0.4-0.1-0.8-0.1-1.2
		C-127.2,496.3-127.3,495.8-127.4,495.3z"/>
	<defs>
		<filter id="Adobe_OpacityMaskFilter_7_" filterUnits="userSpaceOnUse" x="-138.4" y="501.7" width="15.6" height="37">
			
				<feColorMatrix  type="matrix" values="-1 0 0 0 1  0 -1 0 0 1  0 0 -1 0 1  0 0 0 1 0" color-interpolation-filters="sRGB" result="source"/>
			<feFlood  style="flood-color:white;flood-opacity:1" result="back"/>
			<feBlend  in="source" in2="back" mode="normal"/>
		</filter>
	</defs>
	<mask maskUnits="userSpaceOnUse" x="-138.4" y="501.7" width="15.6" height="37" id="thin_4_">
		<g class="st23">
			
				<rect x="-138.2" y="538.5" transform="matrix(-0.8497 -0.5272 0.5272 -0.8497 -539.3616 923.3979)" class="st5" width="0.3" height="0.1"/>
		</g>
	</mask>
	<g>
		<g>
			<path class="st9" d="M-128.1,502.1c0,0,0.1,0,0.4,0.1c1.2,0.5,5.2,2.3,4.5,6.4c-0.9,4.9-4.9,18.8-4.9,18.8s-2.3,7.3-5.4,9.6
				c0,0-1.5,1.2-4.4,1.3C-137,535-128.1,503.5-128.1,502.1z"/>
			<path class="st9" d="M-127.8,502.6c0,0,2.4,1.1,1.7,5.7l-5.6,19.2c0,0-1.1,5.3-5.9,10.6"/>
		</g>
		<g>
			<path class="st10" d="M-127.9,502.2c0,0,0.1,0,0.4,0.1c1.2,0.5,5.1,2.2,4.3,6.3c-0.9,4.9-4.9,18.8-4.9,18.8s-2.3,7.3-5.4,9.6
				c0,0-1.5,1.2-4.3,1.3c1-3.3,1.8-6,2.5-8.2c1.1-3.6,1.7-5.4,2.3-7c0.2-0.5,0.4-1.1,0.7-2.1c0.6-2,0.6-2.3,1.2-4.4
				c0.5-1.7,0.6-1.8,1.2-3.6c0.3-0.9,0.4-1.6,0.7-2.7c0.6-2.3,0.8-3.5,1-5C-128.1,504.6-128,503.5-127.9,502.2z"/>
			<path class="st10" d="M-127.6,502.6c0,0,2.4,1,1.7,5.7l-5.5,19.2c0,0-1.1,5.3-5.9,10.6"/>
		</g>
		<path class="st11" d="M-125.7,511.1L-125.7,511.1c0.3,0.1,0.5,0,0.6-0.3l0,0c0.1-0.2-0.1-0.4-0.3-0.5l-0.1,0
			c-0.2-0.1-0.4,0.1-0.5,0.3l0,0C-126,510.9-125.9,511.1-125.7,511.1z"/>
		<path class="st11" d="M-128.3,512.1L-128.3,512.1c0.3,0.1,0.5,0,0.6-0.3l0,0c0.1-0.2-0.1-0.4-0.3-0.5l-0.1,0
			c-0.2-0.1-0.4,0.1-0.5,0.3l0,0C-128.6,511.8-128.5,512-128.3,512.1z"/>
		<path class="st11" d="M-125.7,514.3L-125.7,514.3c0.2,0.1,0.4-0.1,0.5-0.3l0,0c0.1-0.2-0.1-0.4-0.3-0.5l0,0
			c-0.2-0.1-0.4,0.1-0.5,0.3l0,0C-126.1,514.1-125.9,514.3-125.7,514.3z"/>
		<path class="st11" d="M-132.7,533.7L-132.7,533.7c0.3,0.1,0.5,0,0.6-0.3v0c0.1-0.2-0.1-0.4-0.3-0.5l-0.1,0
			c-0.2-0.1-0.4,0.1-0.5,0.3l0,0C-133,533.5-132.9,533.7-132.7,533.7z"/>
		<path class="st11" d="M-135.6,534.2L-135.6,534.2c0.3,0.1,0.5,0,0.6-0.3l0,0c0.1-0.2-0.1-0.4-0.3-0.5l-0.1,0
			c-0.2-0.1-0.4,0.1-0.5,0.3l0,0C-135.9,533.9-135.8,534.1-135.6,534.2z"/>
		<path class="st11" d="M-134.4,531.4L-134.4,531.4c0.2,0.1,0.4-0.1,0.5-0.3l0,0c0.1-0.2-0.1-0.4-0.3-0.5l0,0
			c-0.2-0.1-0.4,0.1-0.5,0.3l0,0C-134.7,531.1-134.6,531.4-134.4,531.4z"/>
	</g>
	<g>
		<g>
			<path class="st12" d="M-127.7,502.2c0,0-0.1,0-0.4-0.1c-1.4-0.3-5.9-0.8-7.4,3.2c-1.8,4.7-5.4,18.8-5.4,18.8s-1.8,7.5-0.1,11.2
				c0,0,0.7,1.9,3.3,3.4C-136.9,535.3-128.3,503.4-127.7,502.2z"/>
			<path class="st12" d="M-128.2,502.5c0,0-2.8-0.4-4.6,4l-5.1,19.5c0,0-1.9,5.2-0.2,12.2"/>
		</g>
		<g>
			<path class="st13" d="M-128.1,502.1c0,0-0.1,0-0.4-0.1c-1.3-0.2-5.6-0.7-7,3.2c-1.7,4.6-5.3,18.6-5.3,18.6s-1.8,7.4-0.2,11
				c0,0,0.7,1.8,3.1,3.3c0.8-3.3,1.5-6.1,2-8.3c0.9-3.7,1.3-5.5,1.6-7.2c0.1-0.5,0.2-1.2,0.4-2.2c0.5-2,0.7-2.3,1.2-4.4
				c0.4-1.8,0.4-1.9,0.8-3.7c0.2-0.9,0.4-1.5,0.8-2.7c0.7-2.3,1.1-3.4,1.7-4.8C-129.2,504.3-128.7,503.3-128.1,502.1z"/>
			<path class="st13" d="M-128.5,502.4c0,0-2.6-0.3-4.4,4l-5,19.3c0,0-1.8,5.1-0.3,12.1"/>
		</g>
		<path class="st14" d="M-134.6,508.7L-134.6,508.7c-0.3-0.1-0.4-0.3-0.4-0.5l0,0c0.1-0.2,0.3-0.3,0.5-0.3l0.1,0
			c0.2,0.1,0.3,0.3,0.3,0.5l0,0C-134.2,508.7-134.4,508.8-134.6,508.7z"/>
		<path class="st14" d="M-132.9,510.9L-132.9,510.9c-0.3-0.1-0.4-0.3-0.4-0.5l0,0c0.1-0.2,0.3-0.3,0.5-0.3l0.1,0
			c0.2,0.1,0.3,0.3,0.3,0.5l0,0C-132.4,510.8-132.7,510.9-132.9,510.9z"/>
		<path class="st14" d="M-136.2,511.5L-136.2,511.5c-0.2-0.1-0.3-0.3-0.3-0.5l0,0c0.1-0.2,0.3-0.3,0.5-0.3l0,0
			c0.2,0.1,0.3,0.3,0.3,0.5l0,0C-135.8,511.5-136,511.6-136.2,511.5z"/>
		<path class="st14" d="M-140.2,531.9L-140.2,531.9c-0.3-0.1-0.4-0.3-0.4-0.5l0,0c0.1-0.2,0.3-0.3,0.5-0.3l0.1,0
			c0.2,0.1,0.3,0.3,0.3,0.5l0,0C-139.8,531.8-140,532-140.2,531.9z"/>
		<path class="st14" d="M-137.9,533.8L-137.9,533.8c-0.3-0.1-0.4-0.3-0.4-0.5l0,0c0.1-0.2,0.3-0.3,0.5-0.3l0.1,0
			c0.2,0.1,0.3,0.3,0.3,0.5l0,0C-137.5,533.7-137.7,533.9-137.9,533.8z"/>
		<path class="st14" d="M-137.5,530.8L-137.5,530.8c-0.2-0.1-0.3-0.3-0.3-0.5l0,0c0.1-0.2,0.3-0.3,0.5-0.3l0,0
			c0.2,0.1,0.3,0.3,0.3,0.5l0,0C-137.1,530.7-137.3,530.8-137.5,530.8z"/>
	</g>
</g>
<defs>
	<filter id="Adobe_OpacityMaskFilter_8_" filterUnits="userSpaceOnUse" x="41.5" y="551.8" width="18.8" height="43.3">
		
			<feColorMatrix  type="matrix" values="-1 0 0 0 1  0 -1 0 0 1  0 0 -1 0 1  0 0 0 1 0" color-interpolation-filters="sRGB" result="source"/>
		<feFlood  style="flood-color:white;flood-opacity:1" result="back"/>
		<feBlend  in="source" in2="back" mode="normal"/>
	</filter>
</defs>
<mask maskUnits="userSpaceOnUse" x="41.5" y="551.8" width="18.8" height="43.3" id="thin_5_">
	<g class="st24">
		
			<rect x="56.3" y="594.7" transform="matrix(-0.8496 0.5275 -0.5275 -0.8496 418.0962 1070.297)" class="st5" width="0.2" height="0.2"/>
		<path class="st5" d="M56.5,594.6c0,0-0.1,0.1-0.2,0.1c-0.1,0-0.3,0-0.3,0c0,0,0.1,0,0.2,0c0,0,0.1,0,0.1,0"/>
	</g>
</mask>
<g id="thin_19_" class="st25">
	<path class="st7" d="M44.3,551.8c-0.6-0.1-1.2,0.1-1.4,0.4c-0.1,0.2-0.1,0.4,0,0.6c0,0.3,0.1,0.7,0.4,1c0.5,0.7,1.3,1.2,2,2.2
		c0.1,0.2,0.2,0.5,0.3,0.8c0.2,0.5,0.3,0.9,0.3,1.4c0.6-0.2,1.2-0.3,1.9-0.5c0.1,0,0.2-0.1,0.3-0.1c0-0.1-0.1-0.2-0.2-0.4
		c-0.1-0.1-0.2-0.5-0.5-0.9c-0.3-0.6-0.7-1.1-0.9-1.4c-0.2-0.3-0.4-0.5-0.6-0.8c-0.2-0.3-0.5-0.7-0.6-1
		C44.9,552.7,44.6,552.2,44.3,551.8z"/>
	<defs>
		<filter id="Adobe_OpacityMaskFilter_9_" filterUnits="userSpaceOnUse" x="46.7" y="557.6" width="13.7" height="37.5">
			
				<feColorMatrix  type="matrix" values="-1 0 0 0 1  0 -1 0 0 1  0 0 -1 0 1  0 0 0 1 0" color-interpolation-filters="sRGB" result="source"/>
			<feFlood  style="flood-color:white;flood-opacity:1" result="back"/>
			<feBlend  in="source" in2="back" mode="normal"/>
		</filter>
	</defs>
	<mask maskUnits="userSpaceOnUse" x="46.7" y="557.6" width="13.7" height="37.5" id="thin_5_">
		<g class="st26">
			
				<rect x="56" y="594.8" transform="matrix(-0.999 -4.419902e-02 4.419902e-02 -0.999 85.9038 1191.5682)" class="st5" width="0.3" height="0.1"/>
		</g>
	</mask>
	<g>
		<g>
			<path class="st9" d="M47.1,558.2c0,0,0.1,0,0.4-0.1c1.3-0.2,5.6-0.6,7,3.4c1.6,4.7,4.9,18.8,4.9,18.8s1.6,7.4-0.1,11
				c0,0-0.7,1.8-3.2,3.3C55.3,591.2,47.7,559.3,47.1,558.2z"/>
			<path class="st9" d="M47.5,558.4c0,0,2.6-0.3,4.3,4.1l4.5,19.4c0,0,1.7,5.2,0,12.1"/>
		</g>
		<g>
			<path class="st10" d="M47.2,558.1c0,0,0.1,0,0.4-0.1c1.3-0.2,5.5-0.5,6.9,3.4c1.6,4.7,4.9,18.8,4.9,18.8s1.6,7.4,0,11
				c0,0-0.7,1.8-3.1,3.2c-0.7-3.3-1.3-6.1-1.8-8.4c-0.8-3.7-1.1-5.5-1.4-7.3c-0.1-0.6-0.2-1.2-0.4-2.2c-0.4-2-0.6-2.3-1.1-4.4
				c-0.4-1.8-0.3-1.9-0.8-3.7c-0.2-0.9-0.4-1.6-0.7-2.7c-0.7-2.3-1-3.4-1.5-4.9C48.2,560.3,47.8,559.3,47.2,558.1z"/>
			<path class="st10" d="M47.7,558.4c0,0,2.6-0.3,4.2,4.1l4.5,19.4c0,0,1.7,5.2,0.1,12.1"/>
		</g>
		<path class="st11" d="M53.5,564.8L53.5,564.8c0.3-0.1,0.4-0.3,0.4-0.5l0,0c-0.1-0.2-0.3-0.3-0.5-0.3l-0.1,0
			c-0.2,0.1-0.3,0.3-0.3,0.5l0,0C53.1,564.8,53.3,564.9,53.5,564.8z"/>
		<path class="st11" d="M51.7,566.9L51.7,566.9c0.3-0.1,0.4-0.3,0.4-0.5l0,0c-0.1-0.2-0.3-0.3-0.5-0.3l-0.1,0
			c-0.2,0.1-0.3,0.3-0.3,0.5h0C51.3,566.9,51.5,567,51.7,566.9z"/>
		<path class="st11" d="M55.1,567.7L55.1,567.7c0.2-0.1,0.3-0.3,0.3-0.5l0,0c-0.1-0.2-0.3-0.3-0.5-0.3l0,0c-0.2,0.1-0.3,0.3-0.3,0.5
			l0,0C54.6,567.6,54.8,567.7,55.1,567.7z"/>
		<path class="st11" d="M58.5,588L58.5,588c0.3-0.1,0.4-0.3,0.4-0.5l0,0c-0.1-0.2-0.3-0.3-0.5-0.3l-0.1,0c-0.2,0.1-0.3,0.3-0.3,0.5
			l0,0C58,587.9,58.3,588,58.5,588z"/>
		<path class="st11" d="M56.2,589.8L56.2,589.8c0.3-0.1,0.4-0.3,0.4-0.5l0,0c-0.1-0.2-0.3-0.3-0.5-0.3l-0.1,0
			c-0.2,0.1-0.3,0.3-0.3,0.5l0,0C55.7,589.7,55.9,589.8,56.2,589.8z"/>
		<path class="st11" d="M55.9,586.8L55.9,586.8c0.2-0.1,0.3-0.3,0.3-0.5l0,0c-0.1-0.2-0.3-0.3-0.5-0.3l0,0c-0.2,0.1-0.3,0.3-0.3,0.5
			l0,0C55.4,586.7,55.6,586.8,55.9,586.8z"/>
	</g>
	<g>
		<g>
			<path class="st12" d="M47.4,558.1c0,0-0.1,0-0.4,0.1c-1.3,0.4-5.5,2.2-4.9,6.4c0.7,4.9,4.5,19,4.5,19s2.1,7.4,5.4,9.8
				c0,0,1.5,1.3,4.6,1.4C55.6,591.4,47.4,559.4,47.4,558.1z"/>
			<path class="st12" d="M47.1,558.5c0,0-2.6,1-2,5.7l5.1,19.5c0,0,0.9,5.4,5.8,10.8"/>
		</g>
		<g>
			<path class="st13" d="M47.1,558.2c0,0-0.1,0-0.4,0.1c-1.2,0.4-5.2,2.1-4.6,6.2c0.8,4.9,4.4,18.8,4.4,18.8s2.1,7.3,5.2,9.7
				c0,0,1.5,1.3,4.3,1.4c-0.9-3.3-1.7-6-2.3-8.2c-1-3.6-1.6-5.4-2.1-7.1c-0.2-0.5-0.4-1.2-0.7-2.1c-0.6-2-0.5-2.3-1.1-4.4
				c-0.5-1.7-0.6-1.8-1.1-3.6c-0.2-0.9-0.4-1.6-0.6-2.7c-0.5-2.3-0.7-3.5-0.9-5C47.1,560.6,47.1,559.5,47.1,558.2z"/>
			<path class="st13" d="M46.8,558.6c0,0-2.4,1-1.9,5.6l5,19.3c0,0,0.9,5.4,5.6,10.7"/>
		</g>
		<path class="st14" d="M44.5,567.1L44.5,567.1c-0.3,0.1-0.5-0.1-0.6-0.3l0,0c-0.1-0.2,0.1-0.4,0.3-0.5l0.1,0
			c0.2-0.1,0.4,0.1,0.5,0.3l0,0C44.9,566.8,44.8,567.1,44.5,567.1z"/>
		<path class="st14" d="M47.1,568.1L47.1,568.1c-0.3,0.1-0.5-0.1-0.6-0.3l0,0c-0.1-0.2,0.1-0.4,0.3-0.5l0.1,0
			c0.2-0.1,0.4,0.1,0.5,0.3l0,0C47.5,567.9,47.4,568.1,47.1,568.1z"/>
		<path class="st14" d="M44.5,570.3L44.5,570.3c-0.2,0.1-0.4-0.1-0.5-0.3l0,0c-0.1-0.2,0.1-0.4,0.3-0.5l0,0c0.2-0.1,0.4,0.1,0.5,0.3
			l0,0C44.9,570.1,44.7,570.3,44.5,570.3z"/>
		<path class="st14" d="M51,590.1L51,590.1c-0.3,0.1-0.5-0.1-0.6-0.3l0,0c-0.1-0.2,0.1-0.4,0.3-0.5l0.1,0c0.2-0.1,0.4,0.1,0.5,0.3
			l0,0C51.4,589.8,51.2,590,51,590.1z"/>
		<path class="st14" d="M54,590.6L54,590.6c-0.3,0.1-0.5-0.1-0.6-0.3h0c-0.1-0.2,0.1-0.4,0.3-0.5l0.1,0c0.2-0.1,0.4,0.1,0.5,0.3l0,0
			C54.3,590.3,54.2,590.5,54,590.6z"/>
		<path class="st14" d="M52.8,587.8L52.8,587.8c-0.2,0.1-0.4-0.1-0.5-0.3l0,0c-0.1-0.2,0.1-0.4,0.3-0.5l0,0c0.2-0.1,0.4,0.1,0.5,0.3
			l0,0C53.2,587.5,53,587.7,52.8,587.8z"/>
	</g>
</g>
<defs>
	<filter id="Adobe_OpacityMaskFilter_10_" filterUnits="userSpaceOnUse" x="0.8" y="559.7" width="14.1" height="45">
		
			<feColorMatrix  type="matrix" values="-1 0 0 0 1  0 -1 0 0 1  0 0 -1 0 1  0 0 0 1 0" color-interpolation-filters="sRGB" result="source"/>
		<feFlood  style="flood-color:white;flood-opacity:1" result="back"/>
		<feBlend  in="source" in2="back" mode="normal"/>
	</filter>
</defs>
<mask maskUnits="userSpaceOnUse" x="0.8" y="559.7" width="14.1" height="45" id="thin_6_">
	<g class="st27">
		
			<rect x="7.4" y="604.4" transform="matrix(0.9514 0.3078 -0.3078 0.9514 186.428 27.0403)" class="st5" width="0.2" height="0.2"/>
		<path class="st5" d="M7.4,604.4c0.1,0,0.1,0,0.2,0c0.2,0,0.3-0.1,0.3-0.1c0,0-0.1,0.1-0.2,0.1c0,0-0.1,0-0.1,0"/>
	</g>
</mask>
<g id="thin_18_" class="st28">
	<path class="st7" d="M9,559.9c0.6-0.2,1.2-0.2,1.4,0.1c0.2,0.2,0.2,0.4,0.2,0.6c0,0.3,0,0.7-0.2,1.1c-0.3,0.8-1,1.5-1.4,2.6
		c0,0.3-0.1,0.5-0.1,0.8c0,0.5,0,1,0,1.4c-0.6,0-1.3,0-1.9-0.1c-0.1,0-0.2,0-0.3,0c0-0.1,0-0.3,0.1-0.4c0-0.1,0.1-0.5,0.2-1
		c0.2-0.7,0.4-1.2,0.6-1.6c0.1-0.3,0.3-0.6,0.4-1c0.2-0.4,0.3-0.8,0.4-1.1C8.6,560.9,8.8,560.4,9,559.9z"/>
	<defs>
		<filter id="Adobe_OpacityMaskFilter_11_" filterUnits="userSpaceOnUse" x="0.8" y="566.3" width="7.3" height="38.4">
			
				<feColorMatrix  type="matrix" values="-1 0 0 0 1  0 -1 0 0 1  0 0 -1 0 1  0 0 0 1 0" color-interpolation-filters="sRGB" result="source"/>
			<feFlood  style="flood-color:white;flood-opacity:1" result="back"/>
			<feBlend  in="source" in2="back" mode="normal"/>
		</filter>
	</defs>
	<mask maskUnits="userSpaceOnUse" x="0.8" y="566.3" width="7.3" height="38.4" id="thin_6_">
		<g class="st29">
			
				<rect x="7.7" y="604.4" transform="matrix(0.9591 -0.283 0.283 0.9591 -170.7518 26.925)" class="st5" width="0.3" height="0.1"/>
		</g>
	</mask>
	<g>
		<g>
			<path class="st9" d="M7.8,566.7c0,0-0.1,0-0.4,0c-1.3,0.1-5.6,0.8-6,5c-0.4,4.9-0.2,19.4-0.2,19.4s0.3,7.6,2.7,10.7
				c0,0,1.1,1.6,3.9,2.4C7.7,600.8,7.5,568,7.8,566.7z"/>
			<path class="st9" d="M7.4,567.1c0,0-2.6,0.4-3.2,5l0.3,20c0,0-0.4,5.4,2.9,11.8"/>
		</g>
		<g>
			<path class="st10" d="M7.7,566.7c0,0-0.1,0-0.4,0c-1.3,0.1-5.5,0.8-5.8,5c-0.4,4.9-0.2,19.4-0.2,19.4s0.3,7.6,2.6,10.7
				c0,0,1.1,1.6,3.8,2.4c-0.1-3.4-0.2-6.3-0.3-8.5c-0.1-3.8-0.2-5.6-0.4-7.4C7,587.7,6.9,587,6.9,586c-0.1-2.1,0-2.4,0-4.6
				c0-1.8-0.1-1.9-0.2-3.8c0-1,0-1.6,0.1-2.8c0.1-2.4,0.1-3.6,0.3-5.1C7.2,569.1,7.3,568,7.7,566.7z"/>
			<path class="st10" d="M7.3,567.1c0,0-2.6,0.4-3.1,5l0.3,20c0,0-0.4,5.4,2.9,11.8"/>
		</g>
		<path class="st11" d="M3.1,574.7L3.1,574.7c-0.3,0-0.5-0.2-0.5-0.4l0,0c0-0.2,0.2-0.4,0.4-0.4h0.1c0.2,0,0.4,0.2,0.4,0.4l0,0
			C3.5,574.6,3.3,574.7,3.1,574.7z"/>
		<path class="st11" d="M5.4,576.3L5.4,576.3c-0.3,0-0.5-0.2-0.5-0.4l0,0c0-0.2,0.2-0.4,0.4-0.4h0.1c0.2,0,0.4,0.2,0.4,0.4l0,0
			C5.8,576.2,5.6,576.3,5.4,576.3z"/>
		<path class="st11" d="M2.3,577.8L2.3,577.8c-0.2,0-0.4-0.2-0.4-0.4l0,0c0-0.2,0.2-0.4,0.4-0.4h0c0.2,0,0.4,0.2,0.4,0.4l0,0
			C2.7,577.7,2.5,577.8,2.3,577.8z"/>
		<path class="st11" d="M3.9,598.4L3.9,598.4c-0.3,0-0.5-0.2-0.5-0.4l0,0c0-0.2,0.2-0.4,0.4-0.4h0.1c0.2,0,0.4,0.2,0.4,0.4l0,0
			C4.3,598.2,4.1,598.4,3.9,598.4z"/>
		<path class="st11" d="M6.6,599.6L6.6,599.6c-0.3,0-0.5-0.2-0.5-0.4l0,0c0-0.2,0.2-0.4,0.4-0.4h0.1c0.2,0,0.4,0.2,0.4,0.4l0,0
			C7,599.4,6.8,599.6,6.6,599.6z"/>
		<path class="st11" d="M6.1,596.6L6.1,596.6c-0.2,0-0.4-0.2-0.4-0.4l0,0c0-0.2,0.2-0.4,0.4-0.4h0c0.2,0,0.4,0.2,0.4,0.4l0,0
			C6.5,596.4,6.4,596.6,6.1,596.6z"/>
	</g>
	<g>
		<g>
			<path class="st12" d="M7.4,566.7c0,0,0.2,0,0.4,0c1.4,0.1,5.9,0.8,6.3,5c0.5,5,0.2,19.5,0.2,19.5s-0.3,7.7-2.8,10.8
				c0,0-1.2,1.6-4.1,2.4C7.5,601,7.7,568,7.4,566.7z"/>
			<path class="st12" d="M7.8,567.1c0,0,2.8,0.4,3.4,5l-0.3,20.1c0,0,0.4,5.5-3.1,11.8"/>
		</g>
		<g>
			<path class="st13" d="M7.8,566.7c0,0,0.1,0,0.4,0c1.3,0.1,5.6,0.8,5.9,5c0.4,4.9,0.2,19.3,0.2,19.3s-0.3,7.6-2.7,10.7
				c0,0-1.1,1.6-3.9,2.4c0.1-3.4,0.2-6.3,0.3-8.5c0.1-3.8,0.2-5.6,0.4-7.4c0.1-0.6,0.1-1.2,0.2-2.2c0.1-2.1,0-2.4,0-4.5
				c0-1.8,0.1-1.9,0.2-3.8c0-1,0-1.6-0.1-2.8c-0.1-2.4-0.1-3.6-0.3-5.1C8.3,569.1,8.1,568,7.8,566.7z"/>
			<path class="st13" d="M8.2,567.1c0,0,2.6,0.4,3.2,5L11.1,592c0,0,0.4,5.4-2.9,11.7"/>
		</g>
		<path class="st14" d="M12.4,574.8L12.4,574.8c0.3,0,0.5-0.2,0.5-0.4l0,0c0-0.2-0.2-0.4-0.4-0.4h-0.1c-0.2,0-0.4,0.2-0.4,0.4l0,0
			C12,574.6,12.2,574.8,12.4,574.8z"/>
		<path class="st14" d="M10.1,576.4L10.1,576.4c0.3,0,0.5-0.2,0.5-0.4l0,0c0-0.2-0.2-0.4-0.4-0.4h-0.1c-0.2,0-0.4,0.2-0.4,0.4l0,0
			C9.7,576.2,9.9,576.4,10.1,576.4z"/>
		<path class="st14" d="M13.2,577.9L13.2,577.9c0.2,0,0.4-0.2,0.4-0.4l0,0c0-0.2-0.2-0.4-0.4-0.4h0c-0.2,0-0.4,0.2-0.4,0.4l0,0
			C12.8,577.7,13,577.9,13.2,577.9z"/>
		<path class="st14" d="M11.6,598.6L11.6,598.6c0.3,0,0.5-0.2,0.5-0.4l0,0c0-0.2-0.2-0.4-0.4-0.4h-0.1c-0.2,0-0.4,0.2-0.4,0.4l0,0
			C11.2,598.4,11.4,598.6,11.6,598.6z"/>
		<path class="st14" d="M8.9,599.8L8.9,599.8c0.3,0,0.5-0.2,0.5-0.4l0,0c0-0.2-0.2-0.4-0.4-0.4H8.9c-0.2,0-0.4,0.2-0.4,0.4l0,0
			C8.5,599.7,8.7,599.8,8.9,599.8z"/>
		<path class="st14" d="M9.3,596.8L9.3,596.8c0.2,0,0.4-0.2,0.4-0.4l0,0c0-0.2-0.2-0.4-0.4-0.4h0c-0.2,0-0.4,0.2-0.4,0.4l0,0
			C8.9,596.7,9.1,596.8,9.3,596.8z"/>
	</g>
</g>
<defs>
	<filter id="Adobe_OpacityMaskFilter_12_" filterUnits="userSpaceOnUse" x="17.8" y="585.9" width="19.4" height="44.1">
		
			<feColorMatrix  type="matrix" values="-1 0 0 0 1  0 -1 0 0 1  0 0 -1 0 1  0 0 0 1 0" color-interpolation-filters="sRGB" result="source"/>
		<feFlood  style="flood-color:white;flood-opacity:1" result="back"/>
		<feBlend  in="source" in2="back" mode="normal"/>
	</filter>
</defs>
<mask maskUnits="userSpaceOnUse" x="17.8" y="585.9" width="19.4" height="44.1" id="thin_7_">
	<g class="st30">
		
			<rect x="22.1" y="629.6" transform="matrix(-0.999 4.447251e-02 -4.447251e-02 -0.999 72.4265 1257.7006)" class="st5" width="0.2" height="0.2"/>
		<path class="st5" d="M22.3,629.6c-0.1,0-0.1,0-0.2,0c-0.1,0-0.2-0.1-0.2-0.1c0,0,0.1,0.1,0.2,0.1c0,0,0.1,0,0.1,0"/>
	</g>
</mask>
<g id="thin_17_" class="st31">
	<path class="st7" d="M32.6,586.3c-0.5-0.4-1.1-0.5-1.4-0.3c-0.2,0.1-0.3,0.3-0.4,0.5c-0.1,0.3-0.2,0.6-0.1,1.1
		c0.1,0.9,0.6,1.7,0.7,2.9c0,0.3-0.1,0.5-0.1,0.8c-0.1,0.5-0.2,0.9-0.4,1.3c0.6,0.2,1.3,0.3,1.9,0.5c0.1,0,0.2,0.1,0.3,0.1
		c0-0.1,0-0.3,0-0.4c0-0.1,0-0.6,0-1.1c0-0.7-0.1-1.3-0.1-1.7c-0.1-0.3-0.1-0.7-0.1-1c0-0.4-0.1-0.8-0.1-1.2
		C32.8,587.3,32.7,586.8,32.6,586.3z"/>
	<defs>
		<filter id="Adobe_OpacityMaskFilter_13_" filterUnits="userSpaceOnUse" x="21.6" y="592.7" width="15.6" height="37">
			
				<feColorMatrix  type="matrix" values="-1 0 0 0 1  0 -1 0 0 1  0 0 -1 0 1  0 0 0 1 0" color-interpolation-filters="sRGB" result="source"/>
			<feFlood  style="flood-color:white;flood-opacity:1" result="back"/>
			<feBlend  in="source" in2="back" mode="normal"/>
		</filter>
	</defs>
	<mask maskUnits="userSpaceOnUse" x="21.6" y="592.7" width="15.6" height="37" id="thin_7_">
		<g class="st32">
			
				<rect x="21.8" y="629.5" transform="matrix(-0.8497 -0.5272 0.5272 -0.8497 -291.3816 1176.0782)" class="st5" width="0.3" height="0.1"/>
		</g>
	</mask>
	<g>
		<g>
			<path class="st9" d="M31.9,593.1c0,0,0.1,0,0.4,0.1c1.2,0.5,5.2,2.3,4.5,6.4c-0.9,4.9-4.9,18.8-4.9,18.8s-2.3,7.3-5.4,9.6
				c0,0-1.5,1.2-4.4,1.3C23,626,31.9,594.5,31.9,593.1z"/>
			<path class="st9" d="M32.2,593.6c0,0,2.4,1.1,1.7,5.7l-5.6,19.2c0,0-1.1,5.3-5.9,10.6"/>
		</g>
		<g>
			<path class="st10" d="M32.1,593.2c0,0,0.1,0,0.4,0.1c1.2,0.5,5.1,2.2,4.3,6.3c-0.9,4.9-4.9,18.8-4.9,18.8s-2.3,7.3-5.4,9.6
				c0,0-1.5,1.2-4.3,1.3c1-3.3,1.8-6,2.5-8.2c1.1-3.6,1.7-5.4,2.3-7c0.2-0.5,0.4-1.1,0.7-2.1c0.6-2,0.6-2.3,1.2-4.4
				c0.5-1.7,0.6-1.8,1.2-3.6c0.3-0.9,0.4-1.6,0.7-2.7c0.6-2.3,0.8-3.5,1-5C31.9,595.6,32,594.5,32.1,593.2z"/>
			<path class="st10" d="M32.4,593.6c0,0,2.4,1,1.7,5.7l-5.5,19.2c0,0-1.1,5.3-5.9,10.6"/>
		</g>
		<path class="st11" d="M34.3,602.1L34.3,602.1c0.3,0.1,0.5,0,0.6-0.3l0,0c0.1-0.2-0.1-0.4-0.3-0.5l-0.1,0c-0.2-0.1-0.4,0.1-0.5,0.3
			l0,0C34,601.9,34.1,602.1,34.3,602.1z"/>
		<path class="st11" d="M31.7,603.1L31.7,603.1c0.3,0.1,0.5,0,0.6-0.3v0c0.1-0.2-0.1-0.4-0.3-0.5l-0.1,0c-0.2-0.1-0.4,0.1-0.5,0.3
			l0,0C31.4,602.8,31.5,603,31.7,603.1z"/>
		<path class="st11" d="M34.3,605.3L34.3,605.3c0.2,0.1,0.4-0.1,0.5-0.3l0,0c0.1-0.2-0.1-0.4-0.3-0.5l0,0c-0.2-0.1-0.4,0.1-0.5,0.3
			l0,0C33.9,605.1,34.1,605.3,34.3,605.3z"/>
		<path class="st11" d="M27.3,624.7L27.3,624.7c0.3,0.1,0.5,0,0.6-0.3v0c0.1-0.2-0.1-0.4-0.3-0.5l-0.1,0c-0.2-0.1-0.4,0.1-0.5,0.3
			l0,0C27,624.5,27.1,624.7,27.3,624.7z"/>
		<path class="st11" d="M24.4,625.2L24.4,625.2c0.3,0.1,0.5,0,0.6-0.3l0,0c0.1-0.2-0.1-0.4-0.3-0.5l-0.1,0c-0.2-0.1-0.4,0.1-0.5,0.3
			l0,0C24.1,624.9,24.2,625.1,24.4,625.2z"/>
		<path class="st11" d="M25.6,622.4L25.6,622.4c0.2,0.1,0.4-0.1,0.5-0.3l0,0c0.1-0.2-0.1-0.4-0.3-0.5h0c-0.2-0.1-0.4,0.1-0.5,0.3
			l0,0C25.3,622.1,25.4,622.4,25.6,622.4z"/>
	</g>
	<g>
		<g>
			<path class="st12" d="M32.3,593.2c0,0-0.1,0-0.4-0.1c-1.4-0.3-5.9-0.8-7.4,3.2c-1.8,4.7-5.4,18.8-5.4,18.8s-1.8,7.5-0.1,11.2
				c0,0,0.7,1.9,3.3,3.4C23.1,626.3,31.7,594.4,32.3,593.2z"/>
			<path class="st12" d="M31.8,593.5c0,0-2.8-0.4-4.6,4l-5.1,19.5c0,0-1.9,5.2-0.2,12.2"/>
		</g>
		<g>
			<path class="st13" d="M31.9,593.1c0,0-0.1,0-0.4-0.1c-1.3-0.2-5.6-0.7-7,3.2c-1.7,4.6-5.3,18.6-5.3,18.6s-1.8,7.4-0.2,11
				c0,0,0.7,1.8,3.1,3.3c0.8-3.3,1.5-6.1,2-8.3c0.9-3.7,1.3-5.5,1.6-7.2c0.1-0.5,0.2-1.2,0.4-2.2c0.5-2,0.7-2.3,1.2-4.4
				c0.4-1.8,0.4-1.9,0.8-3.7c0.2-0.9,0.4-1.5,0.8-2.7c0.7-2.3,1.1-3.4,1.7-4.8C30.8,595.3,31.3,594.3,31.9,593.1z"/>
			<path class="st13" d="M31.5,593.4c0,0-2.6-0.3-4.4,4l-5,19.3c0,0-1.8,5.1-0.3,12.1"/>
		</g>
		<path class="st14" d="M25.4,599.7L25.4,599.7c-0.3-0.1-0.4-0.3-0.4-0.5l0,0c0.1-0.2,0.3-0.3,0.5-0.3l0.1,0
			c0.2,0.1,0.3,0.3,0.3,0.5l0,0C25.8,599.7,25.6,599.8,25.4,599.7z"/>
		<path class="st14" d="M27.1,601.9L27.1,601.9c-0.3-0.1-0.4-0.3-0.4-0.5l0,0c0.1-0.2,0.3-0.3,0.5-0.3l0.1,0
			c0.2,0.1,0.3,0.3,0.3,0.5v0C27.6,601.8,27.3,601.9,27.1,601.9z"/>
		<path class="st14" d="M23.8,602.5L23.8,602.5c-0.2-0.1-0.3-0.3-0.3-0.5l0,0c0.1-0.2,0.3-0.3,0.5-0.3l0,0c0.2,0.1,0.3,0.3,0.3,0.5
			l0,0C24.2,602.5,24,602.6,23.8,602.5z"/>
		<path class="st14" d="M19.8,622.9L19.8,622.9c-0.3-0.1-0.4-0.3-0.4-0.5l0,0c0.1-0.2,0.3-0.3,0.5-0.3l0.1,0
			c0.2,0.1,0.3,0.3,0.3,0.5l0,0C20.2,622.8,20,623,19.8,622.9z"/>
		<path class="st14" d="M22.1,624.8L22.1,624.8c-0.3-0.1-0.4-0.3-0.4-0.5l0,0c0.1-0.2,0.3-0.3,0.5-0.3l0.1,0
			c0.2,0.1,0.3,0.3,0.3,0.5l0,0C22.5,624.7,22.3,624.9,22.1,624.8z"/>
		<path class="st14" d="M22.5,621.8L22.5,621.8c-0.2-0.1-0.3-0.3-0.3-0.5l0,0c0.1-0.2,0.3-0.3,0.5-0.3l0,0c0.2,0.1,0.3,0.3,0.3,0.5
			l0,0C22.9,621.7,22.7,621.8,22.5,621.8z"/>
	</g>
</g>
<defs>
	<filter id="Adobe_OpacityMaskFilter_14_" filterUnits="userSpaceOnUse" x="186.8" y="489.9" width="19.4" height="44.1">
		
			<feColorMatrix  type="matrix" values="-1 0 0 0 1  0 -1 0 0 1  0 0 -1 0 1  0 0 0 1 0" color-interpolation-filters="sRGB" result="source"/>
		<feFlood  style="flood-color:white;flood-opacity:1" result="back"/>
		<feBlend  in="source" in2="back" mode="normal"/>
	</filter>
</defs>
<mask maskUnits="userSpaceOnUse" x="186.8" y="489.9" width="19.4" height="44.1" id="thin_8_">
	<g class="st33">
		
			<rect x="191.1" y="533.6" transform="matrix(-0.999 4.447251e-02 -4.447251e-02 -0.999 405.9899 1058.2797)" class="st5" width="0.2" height="0.2"/>
		<path class="st5" d="M191.3,533.6c-0.1,0-0.1,0-0.2,0c-0.1,0-0.2-0.1-0.2-0.1c0,0,0.1,0.1,0.2,0.1c0,0,0.1,0,0.1,0"/>
	</g>
</mask>
<g id="thin_16_" class="st34">
	<path class="st7" d="M201.6,490.3c-0.5-0.4-1.1-0.5-1.4-0.3c-0.2,0.1-0.3,0.3-0.4,0.5c-0.1,0.3-0.2,0.6-0.1,1.1
		c0.1,0.9,0.6,1.7,0.7,2.9c0,0.3-0.1,0.5-0.1,0.8c-0.1,0.5-0.2,0.9-0.4,1.3c0.6,0.2,1.3,0.3,1.9,0.5c0.1,0,0.2,0.1,0.3,0.1
		c0-0.1,0-0.3,0-0.4c0-0.1,0-0.6,0-1.1c0-0.7-0.1-1.3-0.1-1.7c-0.1-0.3-0.1-0.7-0.1-1c0-0.4-0.1-0.8-0.1-1.2
		C201.8,491.3,201.7,490.8,201.6,490.3z"/>
	<defs>
		<filter id="Adobe_OpacityMaskFilter_15_" filterUnits="userSpaceOnUse" x="190.6" y="496.7" width="15.6" height="37">
			
				<feColorMatrix  type="matrix" values="-1 0 0 0 1  0 -1 0 0 1  0 0 -1 0 1  0 0 0 1 0" color-interpolation-filters="sRGB" result="source"/>
			<feFlood  style="flood-color:white;flood-opacity:1" result="back"/>
			<feBlend  in="source" in2="back" mode="normal"/>
		</filter>
	</defs>
	<mask maskUnits="userSpaceOnUse" x="190.6" y="496.7" width="15.6" height="37" id="thin_8_">
		<g class="st35">
			
				<rect x="190.8" y="533.5" transform="matrix(-0.8497 -0.5272 0.5272 -0.8497 71.8357 1087.604)" class="st5" width="0.3" height="0.1"/>
		</g>
	</mask>
	<g>
		<g>
			<path class="st9" d="M200.9,497.1c0,0,0.1,0,0.4,0.1c1.2,0.5,5.2,2.3,4.5,6.4c-0.9,4.9-4.9,18.8-4.9,18.8s-2.3,7.3-5.4,9.6
				c0,0-1.5,1.2-4.4,1.3C192,530,200.9,498.5,200.9,497.1z"/>
			<path class="st9" d="M201.2,497.6c0,0,2.4,1.1,1.7,5.7l-5.6,19.2c0,0-1.1,5.3-5.9,10.6"/>
		</g>
		<g>
			<path class="st10" d="M201.1,497.2c0,0,0.1,0,0.4,0.1c1.2,0.5,5.1,2.2,4.3,6.3c-0.9,4.9-4.9,18.8-4.9,18.8s-2.3,7.3-5.4,9.6
				c0,0-1.5,1.2-4.3,1.3c1-3.3,1.8-6,2.5-8.2c1.1-3.6,1.7-5.4,2.3-7c0.2-0.5,0.4-1.1,0.7-2.1c0.6-2,0.6-2.3,1.2-4.4
				c0.5-1.7,0.6-1.8,1.2-3.6c0.3-0.9,0.4-1.6,0.7-2.7c0.6-2.3,0.8-3.5,1-5C200.9,499.6,201,498.5,201.1,497.2z"/>
			<path class="st10" d="M201.4,497.6c0,0,2.4,1,1.7,5.7l-5.5,19.2c0,0-1.1,5.3-5.9,10.6"/>
		</g>
		<path class="st11" d="M203.3,506.1L203.3,506.1c0.3,0.1,0.5,0,0.6-0.3l0,0c0.1-0.2-0.1-0.4-0.3-0.5l-0.1,0
			c-0.2-0.1-0.4,0.1-0.5,0.3l0,0C203,505.9,203.1,506.1,203.3,506.1z"/>
		<path class="st11" d="M200.7,507.1L200.7,507.1c0.3,0.1,0.5,0,0.6-0.3l0,0c0.1-0.2-0.1-0.4-0.3-0.5l-0.1,0
			c-0.2-0.1-0.4,0.1-0.5,0.3l0,0C200.4,506.8,200.5,507,200.7,507.1z"/>
		<path class="st11" d="M203.3,509.3L203.3,509.3c0.2,0.1,0.4-0.1,0.5-0.3l0,0c0.1-0.2-0.1-0.4-0.3-0.5l0,0
			c-0.2-0.1-0.4,0.1-0.5,0.3l0,0C202.9,509.1,203.1,509.3,203.3,509.3z"/>
		<path class="st11" d="M196.3,528.7L196.3,528.7c0.3,0.1,0.5,0,0.6-0.3v0c0.1-0.2-0.1-0.4-0.3-0.5l-0.1,0c-0.2-0.1-0.4,0.1-0.5,0.3
			l0,0C196,528.5,196.1,528.7,196.3,528.7z"/>
		<path class="st11" d="M193.4,529.2L193.4,529.2c0.3,0.1,0.5,0,0.6-0.3l0,0c0.1-0.2-0.1-0.4-0.3-0.5l-0.1,0
			c-0.2-0.1-0.4,0.1-0.5,0.3l0,0C193.1,528.9,193.2,529.1,193.4,529.2z"/>
		<path class="st11" d="M194.6,526.4L194.6,526.4c0.2,0.1,0.4-0.1,0.5-0.3l0,0c0.1-0.2-0.1-0.4-0.3-0.5l0,0
			c-0.2-0.1-0.4,0.1-0.5,0.3l0,0C194.3,526.1,194.4,526.4,194.6,526.4z"/>
	</g>
	<g>
		<g>
			<path class="st12" d="M201.3,497.2c0,0-0.1,0-0.4-0.1c-1.4-0.3-5.9-0.8-7.4,3.2c-1.8,4.7-5.4,18.8-5.4,18.8s-1.8,7.5-0.1,11.2
				c0,0,0.7,1.9,3.3,3.4C192.1,530.3,200.7,498.4,201.3,497.2z"/>
			<path class="st12" d="M200.8,497.5c0,0-2.8-0.4-4.6,4l-5.1,19.5c0,0-1.9,5.2-0.2,12.2"/>
		</g>
		<g>
			<path class="st13" d="M200.9,497.1c0,0-0.1,0-0.4-0.1c-1.3-0.2-5.6-0.7-7,3.2c-1.7,4.6-5.3,18.6-5.3,18.6s-1.8,7.4-0.2,11
				c0,0,0.7,1.8,3.1,3.3c0.8-3.3,1.5-6.1,2-8.3c0.9-3.7,1.3-5.5,1.6-7.2c0.1-0.5,0.2-1.2,0.4-2.2c0.5-2,0.7-2.3,1.2-4.4
				c0.4-1.8,0.4-1.9,0.8-3.7c0.2-0.9,0.4-1.5,0.8-2.7c0.7-2.3,1.1-3.4,1.7-4.8C199.8,499.3,200.3,498.3,200.9,497.1z"/>
			<path class="st13" d="M200.5,497.4c0,0-2.6-0.3-4.4,4l-5,19.3c0,0-1.8,5.1-0.3,12.1"/>
		</g>
		<path class="st14" d="M194.4,503.7L194.4,503.7c-0.3-0.1-0.4-0.3-0.4-0.5l0,0c0.1-0.2,0.3-0.3,0.5-0.3l0.1,0
			c0.2,0.1,0.3,0.3,0.3,0.5l0,0C194.8,503.7,194.6,503.8,194.4,503.7z"/>
		<path class="st14" d="M196.1,505.9L196.1,505.9c-0.3-0.1-0.4-0.3-0.4-0.5l0,0c0.1-0.2,0.3-0.3,0.5-0.3l0.1,0
			c0.2,0.1,0.3,0.3,0.3,0.5l0,0C196.6,505.8,196.3,505.9,196.1,505.9z"/>
		<path class="st14" d="M192.8,506.5L192.8,506.5c-0.2-0.1-0.3-0.3-0.3-0.5l0,0c0.1-0.2,0.3-0.3,0.5-0.3l0,0
			c0.2,0.1,0.3,0.3,0.3,0.5l0,0C193.2,506.5,193,506.6,192.8,506.5z"/>
		<path class="st14" d="M188.8,526.9L188.8,526.9c-0.3-0.1-0.4-0.3-0.4-0.5l0,0c0.1-0.2,0.3-0.3,0.5-0.3l0.1,0
			c0.2,0.1,0.3,0.3,0.3,0.5l0,0C189.2,526.8,189,527,188.8,526.9z"/>
		<path class="st14" d="M191.1,528.8L191.1,528.8c-0.3-0.1-0.4-0.3-0.4-0.5l0,0c0.1-0.2,0.3-0.3,0.5-0.3l0.1,0
			c0.2,0.1,0.3,0.3,0.3,0.5l0,0C191.5,528.7,191.3,528.9,191.1,528.8z"/>
		<path class="st14" d="M191.5,525.8L191.5,525.8c-0.2-0.1-0.3-0.3-0.3-0.5l0,0c0.1-0.2,0.3-0.3,0.5-0.3l0,0
			c0.2,0.1,0.3,0.3,0.3,0.5l0,0C191.9,525.7,191.7,525.8,191.5,525.8z"/>
	</g>
</g>
<defs>
	<filter id="Adobe_OpacityMaskFilter_16_" filterUnits="userSpaceOnUse" x="159.8" y="500.7" width="14.1" height="45">
		
			<feColorMatrix  type="matrix" values="-1 0 0 0 1  0 -1 0 0 1  0 0 -1 0 1  0 0 0 1 0" color-interpolation-filters="sRGB" result="source"/>
		<feFlood  style="flood-color:white;flood-opacity:1" result="back"/>
		<feBlend  in="source" in2="back" mode="normal"/>
	</filter>
</defs>
<mask maskUnits="userSpaceOnUse" x="159.8" y="500.7" width="14.1" height="45" id="thin_9_">
	<g class="st36">
		
			<rect x="166.4" y="545.4" transform="matrix(0.9514 0.3078 -0.3078 0.9514 175.987 -24.765)" class="st5" width="0.2" height="0.2"/>
		<path class="st5" d="M166.4,545.4c0.1,0,0.1,0,0.2,0c0.2,0,0.3-0.1,0.3-0.1c0,0-0.1,0.1-0.2,0.1c0,0-0.1,0-0.1,0"/>
	</g>
</mask>
<g id="thin_15_" class="st37">
	<path class="st7" d="M168,500.9c0.6-0.2,1.2-0.2,1.4,0.1c0.2,0.2,0.2,0.4,0.2,0.6c0,0.3,0,0.7-0.2,1.1c-0.3,0.8-1,1.5-1.4,2.6
		c0,0.3-0.1,0.5-0.1,0.8c0,0.5,0,1,0,1.4c-0.6,0-1.3,0-1.9-0.1c-0.1,0-0.2,0-0.3,0c0-0.1,0-0.3,0.1-0.4c0-0.1,0.1-0.5,0.2-1
		c0.2-0.7,0.4-1.2,0.6-1.6c0.1-0.3,0.3-0.6,0.4-1c0.2-0.4,0.3-0.8,0.4-1.1C167.6,501.9,167.8,501.4,168,500.9z"/>
	<defs>
		<filter id="Adobe_OpacityMaskFilter_17_" filterUnits="userSpaceOnUse" x="159.8" y="507.3" width="7.3" height="38.4">
			
				<feColorMatrix  type="matrix" values="-1 0 0 0 1  0 -1 0 0 1  0 0 -1 0 1  0 0 0 1 0" color-interpolation-filters="sRGB" result="source"/>
			<feFlood  style="flood-color:white;flood-opacity:1" result="back"/>
			<feBlend  in="source" in2="back" mode="normal"/>
		</filter>
	</defs>
	<mask maskUnits="userSpaceOnUse" x="159.8" y="507.3" width="7.3" height="38.4" id="thin_9_">
		<g class="st38">
			
				<rect x="166.7" y="545.4" transform="matrix(0.9591 -0.283 0.283 0.9591 -147.5543 69.5109)" class="st5" width="0.3" height="0.1"/>
		</g>
	</mask>
	<g>
		<g>
			<path class="st9" d="M166.8,507.7c0,0-0.1,0-0.4,0c-1.3,0.1-5.6,0.8-6,5c-0.4,4.9-0.2,19.4-0.2,19.4s0.3,7.6,2.7,10.7
				c0,0,1.1,1.6,3.9,2.4C166.7,541.8,166.5,509,166.8,507.7z"/>
			<path class="st9" d="M166.4,508.1c0,0-2.6,0.4-3.2,5l0.3,20c0,0-0.4,5.4,2.9,11.8"/>
		</g>
		<g>
			<path class="st10" d="M166.7,507.7c0,0-0.1,0-0.4,0c-1.3,0.1-5.5,0.8-5.8,5c-0.4,4.9-0.2,19.4-0.2,19.4s0.3,7.6,2.6,10.7
				c0,0,1.1,1.6,3.8,2.4c-0.1-3.4-0.2-6.3-0.3-8.5c-0.1-3.8-0.2-5.6-0.4-7.4c-0.1-0.6-0.1-1.2-0.2-2.2c-0.1-2.1,0-2.4,0-4.6
				c0-1.8-0.1-1.9-0.2-3.8c0-1,0-1.6,0.1-2.8c0.1-2.4,0.1-3.6,0.3-5.1C166.2,510.1,166.3,509,166.7,507.7z"/>
			<path class="st10" d="M166.3,508.1c0,0-2.6,0.4-3.1,5l0.3,20c0,0-0.4,5.4,2.9,11.8"/>
		</g>
		<path class="st11" d="M162.1,515.7L162.1,515.7c-0.3,0-0.5-0.2-0.5-0.4l0,0c0-0.2,0.2-0.4,0.4-0.4h0.1c0.2,0,0.4,0.2,0.4,0.4l0,0
			C162.5,515.6,162.3,515.7,162.1,515.7z"/>
		<path class="st11" d="M164.4,517.3L164.4,517.3c-0.3,0-0.5-0.2-0.5-0.4l0,0c0-0.2,0.2-0.4,0.4-0.4h0.1c0.2,0,0.4,0.2,0.4,0.4l0,0
			C164.8,517.2,164.6,517.3,164.4,517.3z"/>
		<path class="st11" d="M161.3,518.8L161.3,518.8c-0.2,0-0.4-0.2-0.4-0.4l0,0c0-0.2,0.2-0.4,0.4-0.4l0,0c0.2,0,0.4,0.2,0.4,0.4l0,0
			C161.7,518.7,161.5,518.8,161.3,518.8z"/>
		<path class="st11" d="M162.9,539.4L162.9,539.4c-0.3,0-0.5-0.2-0.5-0.4l0,0c0-0.2,0.2-0.4,0.4-0.4h0.1c0.2,0,0.4,0.2,0.4,0.4l0,0
			C163.3,539.2,163.1,539.4,162.9,539.4z"/>
		<path class="st11" d="M165.6,540.6L165.6,540.6c-0.3,0-0.5-0.2-0.5-0.4l0,0c0-0.2,0.2-0.4,0.4-0.4h0.1c0.2,0,0.4,0.2,0.4,0.4l0,0
			C166,540.4,165.8,540.6,165.6,540.6z"/>
		<path class="st11" d="M165.1,537.6L165.1,537.6c-0.2,0-0.4-0.2-0.4-0.4l0,0c0-0.2,0.2-0.4,0.4-0.4l0,0c0.2,0,0.4,0.2,0.4,0.4l0,0
			C165.5,537.4,165.4,537.6,165.1,537.6z"/>
	</g>
	<g>
		<g>
			<path class="st12" d="M166.4,507.7c0,0,0.2,0,0.4,0c1.4,0.1,5.9,0.8,6.3,5c0.5,5,0.2,19.5,0.2,19.5s-0.3,7.7-2.8,10.8
				c0,0-1.2,1.6-4.1,2.4C166.5,542,166.7,509,166.4,507.7z"/>
			<path class="st12" d="M166.8,508.1c0,0,2.8,0.4,3.4,5l-0.3,20.1c0,0,0.4,5.5-3.1,11.8"/>
		</g>
		<g>
			<path class="st13" d="M166.8,507.7c0,0,0.1,0,0.4,0c1.3,0.1,5.6,0.8,5.9,5c0.4,4.9,0.2,19.3,0.2,19.3s-0.3,7.6-2.7,10.7
				c0,0-1.1,1.6-3.9,2.4c0.1-3.4,0.2-6.3,0.3-8.5c0.1-3.8,0.2-5.6,0.4-7.4c0.1-0.6,0.1-1.2,0.2-2.2c0.1-2.1,0-2.4,0-4.5
				c0-1.8,0.1-1.9,0.2-3.8c0-1,0-1.6-0.1-2.8c-0.1-2.4-0.1-3.6-0.3-5.1C167.3,510.1,167.1,509,166.8,507.7z"/>
			<path class="st13" d="M167.2,508.1c0,0,2.6,0.4,3.2,5l-0.3,19.9c0,0,0.4,5.4-2.9,11.7"/>
		</g>
		<path class="st14" d="M171.4,515.8L171.4,515.8c0.3,0,0.5-0.2,0.5-0.4l0,0c0-0.2-0.2-0.4-0.4-0.4h-0.1c-0.2,0-0.4,0.2-0.4,0.4l0,0
			C171,515.6,171.2,515.8,171.4,515.8z"/>
		<path class="st14" d="M169.1,517.4L169.1,517.4c0.3,0,0.5-0.2,0.5-0.4l0,0c0-0.2-0.2-0.4-0.4-0.4h-0.1c-0.2,0-0.4,0.2-0.4,0.4l0,0
			C168.7,517.2,168.9,517.4,169.1,517.4z"/>
		<path class="st14" d="M172.2,518.9L172.2,518.9c0.2,0,0.4-0.2,0.4-0.4l0,0c0-0.2-0.2-0.4-0.4-0.4h0c-0.2,0-0.4,0.2-0.4,0.4l0,0
			C171.8,518.7,172,518.9,172.2,518.9z"/>
		<path class="st14" d="M170.6,539.6L170.6,539.6c0.3,0,0.5-0.2,0.5-0.4l0,0c0-0.2-0.2-0.4-0.4-0.4h-0.1c-0.2,0-0.4,0.2-0.4,0.4l0,0
			C170.2,539.4,170.4,539.6,170.6,539.6z"/>
		<path class="st14" d="M167.9,540.8L167.9,540.8c0.3,0,0.5-0.2,0.5-0.4l0,0c0-0.2-0.2-0.4-0.4-0.4h-0.1c-0.2,0-0.4,0.2-0.4,0.4l0,0
			C167.5,540.7,167.7,540.8,167.9,540.8z"/>
		<path class="st14" d="M168.3,537.8L168.3,537.8c0.2,0,0.4-0.2,0.4-0.4l0,0c0-0.2-0.2-0.4-0.4-0.4h0c-0.2,0-0.4,0.2-0.4,0.4l0,0
			C167.9,537.7,168.1,537.8,168.3,537.8z"/>
	</g>
</g>
<defs>
	<filter id="Adobe_OpacityMaskFilter_18_" filterUnits="userSpaceOnUse" x="173.5" y="463.8" width="18.8" height="43.3">
		
			<feColorMatrix  type="matrix" values="-1 0 0 0 1  0 -1 0 0 1  0 0 -1 0 1  0 0 0 1 0" color-interpolation-filters="sRGB" result="source"/>
		<feFlood  style="flood-color:white;flood-opacity:1" result="back"/>
		<feBlend  in="source" in2="back" mode="normal"/>
	</filter>
</defs>
<mask maskUnits="userSpaceOnUse" x="173.5" y="463.8" width="18.8" height="43.3" id="thin_10_">
	<g class="st39">
		
			<rect x="188.3" y="506.7" transform="matrix(-0.8496 0.5275 -0.5275 -0.8496 615.8259 837.91)" class="st5" width="0.2" height="0.2"/>
		<path class="st5" d="M188.5,506.6c0,0-0.1,0.1-0.2,0.1c-0.1,0-0.3,0-0.3,0c0,0,0.1,0,0.2,0c0,0,0.1,0,0.1,0"/>
	</g>
</mask>
<g id="thin_14_" class="st40">
	<path class="st7" d="M176.3,463.8c-0.6-0.1-1.2,0.1-1.4,0.4c-0.1,0.2-0.1,0.4,0,0.6c0,0.3,0.1,0.7,0.4,1c0.5,0.7,1.3,1.2,2,2.2
		c0.1,0.2,0.2,0.5,0.3,0.8c0.2,0.5,0.3,0.9,0.3,1.4c0.6-0.2,1.2-0.3,1.9-0.5c0.1,0,0.2-0.1,0.3-0.1c0-0.1-0.1-0.2-0.2-0.4
		c-0.1-0.1-0.2-0.5-0.5-0.9c-0.3-0.6-0.7-1.1-0.9-1.4c-0.2-0.3-0.4-0.5-0.6-0.8c-0.2-0.3-0.5-0.7-0.6-1
		C176.9,464.7,176.6,464.2,176.3,463.8z"/>
	<defs>
		<filter id="Adobe_OpacityMaskFilter_19_" filterUnits="userSpaceOnUse" x="178.7" y="469.6" width="13.7" height="37.5">
			
				<feColorMatrix  type="matrix" values="-1 0 0 0 1  0 -1 0 0 1  0 0 -1 0 1  0 0 0 1 0" color-interpolation-filters="sRGB" result="source"/>
			<feFlood  style="flood-color:white;flood-opacity:1" result="back"/>
			<feBlend  in="source" in2="back" mode="normal"/>
		</filter>
	</defs>
	<mask maskUnits="userSpaceOnUse" x="178.7" y="469.6" width="13.7" height="37.5" id="thin_10_">
		<g class="st41">
			
				<rect x="188" y="506.8" transform="matrix(-0.999 -4.419902e-02 4.419902e-02 -0.999 353.6644 1021.4885)" class="st5" width="0.3" height="0.1"/>
		</g>
	</mask>
	<g>
		<g>
			<path class="st9" d="M179.1,470.2c0,0,0.1,0,0.4-0.1c1.3-0.2,5.6-0.6,7,3.4c1.6,4.7,4.9,18.8,4.9,18.8s1.6,7.4-0.1,11
				c0,0-0.7,1.8-3.2,3.3C187.3,503.2,179.7,471.3,179.1,470.2z"/>
			<path class="st9" d="M179.5,470.4c0,0,2.6-0.3,4.3,4.1l4.5,19.4c0,0,1.7,5.2,0,12.1"/>
		</g>
		<g>
			<path class="st10" d="M179.2,470.1c0,0,0.1,0,0.4-0.1c1.3-0.2,5.5-0.5,6.9,3.4c1.6,4.7,4.9,18.8,4.9,18.8s1.6,7.4,0,11
				c0,0-0.7,1.8-3.1,3.2c-0.7-3.3-1.3-6.1-1.8-8.4c-0.8-3.7-1.1-5.5-1.4-7.3c-0.1-0.6-0.2-1.2-0.4-2.2c-0.4-2-0.6-2.3-1.1-4.4
				c-0.4-1.8-0.3-1.9-0.8-3.7c-0.2-0.9-0.4-1.6-0.7-2.7c-0.7-2.3-1-3.4-1.5-4.9C180.2,472.3,179.8,471.3,179.2,470.1z"/>
			<path class="st10" d="M179.7,470.4c0,0,2.6-0.3,4.2,4.1l4.5,19.4c0,0,1.7,5.2,0.1,12.1"/>
		</g>
		<path class="st11" d="M185.5,476.8L185.5,476.8c0.3-0.1,0.4-0.3,0.4-0.5l0,0c-0.1-0.2-0.3-0.3-0.5-0.3l-0.1,0
			c-0.2,0.1-0.3,0.3-0.3,0.5l0,0C185.1,476.8,185.3,476.9,185.5,476.8z"/>
		<path class="st11" d="M183.7,478.9L183.7,478.9c0.3-0.1,0.4-0.3,0.4-0.5l0,0c-0.1-0.2-0.3-0.3-0.5-0.3l-0.1,0
			c-0.2,0.1-0.3,0.3-0.3,0.5l0,0C183.3,478.9,183.5,479,183.7,478.9z"/>
		<path class="st11" d="M187.1,479.7L187.1,479.7c0.2-0.1,0.3-0.3,0.3-0.5l0,0c-0.1-0.2-0.3-0.3-0.5-0.3l0,0
			c-0.2,0.1-0.3,0.3-0.3,0.5l0,0C186.6,479.6,186.8,479.7,187.1,479.7z"/>
		<path class="st11" d="M190.5,500L190.5,500c0.3-0.1,0.4-0.3,0.4-0.5l0,0c-0.1-0.2-0.3-0.3-0.5-0.3l-0.1,0
			c-0.2,0.1-0.3,0.3-0.3,0.5l0,0C190,499.9,190.3,500,190.5,500z"/>
		<path class="st11" d="M188.2,501.8L188.2,501.8c0.3-0.1,0.4-0.3,0.4-0.5l0,0c-0.1-0.2-0.3-0.3-0.5-0.3l-0.1,0
			c-0.2,0.1-0.3,0.3-0.3,0.5l0,0C187.7,501.7,187.9,501.8,188.2,501.8z"/>
		<path class="st11" d="M187.9,498.8L187.9,498.8c0.2-0.1,0.3-0.3,0.3-0.5l0,0c-0.1-0.2-0.3-0.3-0.5-0.3l0,0
			c-0.2,0.1-0.3,0.3-0.3,0.5l0,0C187.4,498.7,187.6,498.8,187.9,498.8z"/>
	</g>
	<g>
		<g>
			<path class="st12" d="M179.4,470.1c0,0-0.1,0-0.4,0.1c-1.3,0.4-5.5,2.2-4.9,6.4c0.7,4.9,4.5,19,4.5,19s2.1,7.4,5.4,9.8
				c0,0,1.5,1.3,4.6,1.4C187.6,503.4,179.4,471.4,179.4,470.1z"/>
			<path class="st12" d="M179.1,470.5c0,0-2.6,1-2,5.7l5.1,19.5c0,0,0.9,5.4,5.8,10.8"/>
		</g>
		<g>
			<path class="st13" d="M179.1,470.2c0,0-0.1,0-0.4,0.1c-1.2,0.4-5.2,2.1-4.6,6.2c0.8,4.9,4.4,18.8,4.4,18.8s2.1,7.3,5.2,9.7
				c0,0,1.5,1.3,4.3,1.4c-0.9-3.3-1.7-6-2.3-8.2c-1-3.6-1.6-5.4-2.1-7.1c-0.2-0.5-0.4-1.2-0.7-2.1c-0.6-2-0.5-2.3-1.1-4.4
				c-0.5-1.7-0.6-1.8-1.1-3.6c-0.2-0.9-0.4-1.6-0.6-2.7c-0.5-2.3-0.7-3.5-0.9-5C179.1,472.6,179.1,471.5,179.1,470.2z"/>
			<path class="st13" d="M178.8,470.6c0,0-2.4,1-1.9,5.6l5,19.3c0,0,0.9,5.4,5.6,10.7"/>
		</g>
		<path class="st14" d="M176.5,479.1L176.5,479.1c-0.3,0.1-0.5-0.1-0.6-0.3l0,0c-0.1-0.2,0.1-0.4,0.3-0.5l0.1,0
			c0.2-0.1,0.4,0.1,0.5,0.3l0,0C176.9,478.8,176.8,479.1,176.5,479.1z"/>
		<path class="st14" d="M179.1,480.1L179.1,480.1c-0.3,0.1-0.5-0.1-0.6-0.3l0,0c-0.1-0.2,0.1-0.4,0.3-0.5l0.1,0
			c0.2-0.1,0.4,0.1,0.5,0.3l0,0C179.5,479.9,179.4,480.1,179.1,480.1z"/>
		<path class="st14" d="M176.5,482.3L176.5,482.3c-0.2,0.1-0.4-0.1-0.5-0.3l0,0c-0.1-0.2,0.1-0.4,0.3-0.5l0,0
			c0.2-0.1,0.4,0.1,0.5,0.3l0,0C176.9,482.1,176.7,482.3,176.5,482.3z"/>
		<path class="st14" d="M183,502.1L183,502.1c-0.3,0.1-0.5-0.1-0.6-0.3l0,0c-0.1-0.2,0.1-0.4,0.3-0.5l0.1,0c0.2-0.1,0.4,0.1,0.5,0.3
			l0,0C183.4,501.8,183.2,502,183,502.1z"/>
		<path class="st14" d="M186,502.6L186,502.6c-0.3,0.1-0.5-0.1-0.6-0.3l0,0c-0.1-0.2,0.1-0.4,0.3-0.5l0.1,0c0.2-0.1,0.4,0.1,0.5,0.3
			l0,0C186.3,502.3,186.2,502.5,186,502.6z"/>
		<path class="st14" d="M184.8,499.8L184.8,499.8c-0.2,0.1-0.4-0.1-0.5-0.3l0,0c-0.1-0.2,0.1-0.4,0.3-0.5l0,0
			c0.2-0.1,0.4,0.1,0.5,0.3l0,0C185.2,499.5,185,499.7,184.8,499.8z"/>
	</g>
</g>
<defs>
	<filter id="Adobe_OpacityMaskFilter_20_" filterUnits="userSpaceOnUse" x="42.5" y="349.8" width="18.8" height="43.3">
		
			<feColorMatrix  type="matrix" values="-1 0 0 0 1  0 -1 0 0 1  0 0 -1 0 1  0 0 0 1 0" color-interpolation-filters="sRGB" result="source"/>
		<feFlood  style="flood-color:white;flood-opacity:1" result="back"/>
		<feBlend  in="source" in2="back" mode="normal"/>
	</filter>
</defs>
<mask maskUnits="userSpaceOnUse" x="42.5" y="349.8" width="18.8" height="43.3" id="thin_11_">
	<g class="st42">
		
			<rect x="57.3" y="392.7" transform="matrix(-0.8496 0.5275 -0.5275 -0.8496 313.4008 696.1533)" class="st5" width="0.2" height="0.2"/>
		<path class="st5" d="M57.5,392.6c0,0-0.1,0.1-0.2,0.1c-0.1,0-0.3,0-0.3,0c0,0,0.1,0,0.2,0c0,0,0.1,0,0.1,0"/>
	</g>
</mask>
<g id="thin_13_" class="st43">
	<path class="st7" d="M45.3,349.8c-0.6-0.1-1.2,0.1-1.4,0.4c-0.1,0.2-0.1,0.4,0,0.6c0,0.3,0.1,0.7,0.4,1c0.5,0.7,1.3,1.2,2,2.2
		c0.1,0.2,0.2,0.5,0.3,0.8c0.2,0.5,0.3,0.9,0.3,1.4c0.6-0.2,1.2-0.3,1.9-0.5c0.1,0,0.2-0.1,0.3-0.1c0-0.1-0.1-0.2-0.2-0.4
		c-0.1-0.1-0.2-0.5-0.5-0.9c-0.3-0.6-0.7-1.1-0.9-1.4c-0.2-0.3-0.4-0.5-0.6-0.8c-0.2-0.3-0.5-0.7-0.6-1
		C45.9,350.7,45.6,350.2,45.3,349.8z"/>
	<defs>
		<filter id="Adobe_OpacityMaskFilter_21_" filterUnits="userSpaceOnUse" x="47.7" y="355.6" width="13.7" height="37.5">
			
				<feColorMatrix  type="matrix" values="-1 0 0 0 1  0 -1 0 0 1  0 0 -1 0 1  0 0 0 1 0" color-interpolation-filters="sRGB" result="source"/>
			<feFlood  style="flood-color:white;flood-opacity:1" result="back"/>
			<feBlend  in="source" in2="back" mode="normal"/>
		</filter>
	</defs>
	<mask maskUnits="userSpaceOnUse" x="47.7" y="355.6" width="13.7" height="37.5" id="thin_11_">
		<g class="st44">
			
				<rect x="57" y="392.8" transform="matrix(-0.999 -4.419902e-02 4.419902e-02 -0.999 96.8311 787.8098)" class="st5" width="0.3" height="0.1"/>
		</g>
	</mask>
	<g>
		<g>
			<path class="st9" d="M48.1,356.2c0,0,0.1,0,0.4-0.1c1.3-0.2,5.6-0.6,7,3.4c1.6,4.7,4.9,18.8,4.9,18.8s1.6,7.4-0.1,11
				c0,0-0.7,1.8-3.2,3.3C56.3,389.2,48.7,357.3,48.1,356.2z"/>
			<path class="st9" d="M48.5,356.4c0,0,2.6-0.3,4.3,4.1l4.5,19.4c0,0,1.7,5.2,0,12.1"/>
		</g>
		<g>
			<path class="st10" d="M48.2,356.1c0,0,0.1,0,0.4-0.1c1.3-0.2,5.5-0.5,6.9,3.4c1.6,4.7,4.9,18.8,4.9,18.8s1.6,7.4,0,11
				c0,0-0.7,1.8-3.1,3.2c-0.7-3.3-1.3-6.1-1.8-8.4c-0.8-3.7-1.1-5.5-1.4-7.3c-0.1-0.6-0.2-1.2-0.4-2.2c-0.4-2-0.6-2.3-1.1-4.4
				c-0.4-1.8-0.3-1.9-0.8-3.7c-0.2-0.9-0.4-1.6-0.7-2.7c-0.7-2.3-1-3.4-1.5-4.9C49.2,358.3,48.8,357.3,48.2,356.1z"/>
			<path class="st10" d="M48.7,356.4c0,0,2.6-0.3,4.2,4.1l4.5,19.4c0,0,1.7,5.2,0.1,12.1"/>
		</g>
		<path class="st11" d="M54.5,362.8L54.5,362.8c0.3-0.1,0.4-0.3,0.4-0.5l0,0c-0.1-0.2-0.3-0.3-0.5-0.3l-0.1,0
			c-0.2,0.1-0.3,0.3-0.3,0.5l0,0C54.1,362.8,54.3,362.9,54.5,362.8z"/>
		<path class="st11" d="M52.7,364.9L52.7,364.9c0.3-0.1,0.4-0.3,0.4-0.5l0,0c-0.1-0.2-0.3-0.3-0.5-0.3l-0.1,0
			c-0.2,0.1-0.3,0.3-0.3,0.5h0C52.3,364.9,52.5,365,52.7,364.9z"/>
		<path class="st11" d="M56.1,365.7L56.1,365.7c0.2-0.1,0.3-0.3,0.3-0.5l0,0c-0.1-0.2-0.3-0.3-0.5-0.3l0,0c-0.2,0.1-0.3,0.3-0.3,0.5
			l0,0C55.6,365.6,55.8,365.7,56.1,365.7z"/>
		<path class="st11" d="M59.5,386L59.5,386c0.3-0.1,0.4-0.3,0.4-0.5l0,0c-0.1-0.2-0.3-0.3-0.5-0.3l-0.1,0c-0.2,0.1-0.3,0.3-0.3,0.5
			l0,0C59,385.9,59.3,386,59.5,386z"/>
		<path class="st11" d="M57.2,387.8L57.2,387.8c0.3-0.1,0.4-0.3,0.4-0.5l0,0c-0.1-0.2-0.3-0.3-0.5-0.3l-0.1,0
			c-0.2,0.1-0.3,0.3-0.3,0.5l0,0C56.7,387.7,56.9,387.8,57.2,387.8z"/>
		<path class="st11" d="M56.9,384.8L56.9,384.8c0.2-0.1,0.3-0.3,0.3-0.5l0,0c-0.1-0.2-0.3-0.3-0.5-0.3l0,0c-0.2,0.1-0.3,0.3-0.3,0.5
			l0,0C56.4,384.7,56.6,384.8,56.9,384.8z"/>
	</g>
	<g>
		<g>
			<path class="st12" d="M48.4,356.1c0,0-0.1,0-0.4,0.1c-1.3,0.4-5.5,2.2-4.9,6.4c0.7,4.9,4.5,19,4.5,19s2.1,7.4,5.4,9.8
				c0,0,1.5,1.3,4.6,1.4C56.6,389.4,48.4,357.4,48.4,356.1z"/>
			<path class="st12" d="M48.1,356.5c0,0-2.6,1-2,5.7l5.1,19.5c0,0,0.9,5.4,5.8,10.8"/>
		</g>
		<g>
			<path class="st13" d="M48.1,356.2c0,0-0.1,0-0.4,0.1c-1.2,0.4-5.2,2.1-4.6,6.2c0.8,4.9,4.4,18.8,4.4,18.8s2.1,7.3,5.2,9.7
				c0,0,1.5,1.3,4.3,1.4c-0.9-3.3-1.7-6-2.3-8.2c-1-3.6-1.6-5.4-2.1-7.1c-0.2-0.5-0.4-1.2-0.7-2.1c-0.6-2-0.5-2.3-1.1-4.4
				c-0.5-1.7-0.6-1.8-1.1-3.6c-0.2-0.9-0.4-1.6-0.6-2.7c-0.5-2.3-0.7-3.5-0.9-5C48.1,358.6,48.1,357.5,48.1,356.2z"/>
			<path class="st13" d="M47.8,356.6c0,0-2.4,1-1.9,5.6l5,19.3c0,0,0.9,5.4,5.6,10.7"/>
		</g>
		<path class="st14" d="M45.5,365.1L45.5,365.1c-0.3,0.1-0.5-0.1-0.6-0.3l0,0c-0.1-0.2,0.1-0.4,0.3-0.5l0.1,0
			c0.2-0.1,0.4,0.1,0.5,0.3l0,0C45.9,364.8,45.8,365.1,45.5,365.1z"/>
		<path class="st14" d="M48.1,366.1L48.1,366.1c-0.3,0.1-0.5-0.1-0.6-0.3l0,0c-0.1-0.2,0.1-0.4,0.3-0.5l0.1,0
			c0.2-0.1,0.4,0.1,0.5,0.3l0,0C48.5,365.9,48.4,366.1,48.1,366.1z"/>
		<path class="st14" d="M45.5,368.3L45.5,368.3c-0.2,0.1-0.4-0.1-0.5-0.3l0,0c-0.1-0.2,0.1-0.4,0.3-0.5l0,0c0.2-0.1,0.4,0.1,0.5,0.3
			l0,0C45.9,368.1,45.7,368.3,45.5,368.3z"/>
		<path class="st14" d="M52,388.1L52,388.1c-0.3,0.1-0.5-0.1-0.6-0.3l0,0c-0.1-0.2,0.1-0.4,0.3-0.5l0.1,0c0.2-0.1,0.4,0.1,0.5,0.3
			l0,0C52.4,387.8,52.2,388,52,388.1z"/>
		<path class="st14" d="M55,388.6L55,388.6c-0.3,0.1-0.5-0.1-0.6-0.3h0c-0.1-0.2,0.1-0.4,0.3-0.5l0.1,0c0.2-0.1,0.4,0.1,0.5,0.3l0,0
			C55.3,388.3,55.2,388.5,55,388.6z"/>
		<path class="st14" d="M53.8,385.8L53.8,385.8c-0.2,0.1-0.4-0.1-0.5-0.3l0,0c-0.1-0.2,0.1-0.4,0.3-0.5l0,0c0.2-0.1,0.4,0.1,0.5,0.3
			l0,0C54.2,385.5,54,385.7,53.8,385.8z"/>
	</g>
</g>
<g>
	<g>
		
			<rect x="117" y="276.8" transform="matrix(0.5085 -0.8611 0.8611 0.5085 -282.8232 297.2068)" class="st45" width="3.8" height="239.1"/>
		<g>
			<path class="st45" d="M10.6,459.7l-1.9-0.5c-1.1-0.3-1.8-1.5-1.5-2.6L21,404.2l21.5-81.6c0.3-1.1,1.5-1.8,2.6-1.5l1.9,0.5
				c1.1,0.3,1.8,1.5,1.5,2.6l-35.4,134C12.9,459.4,11.7,460,10.6,459.7z"/>
			<path class="st45" d="M58.5,459l-3.5,0.9c-0.7,0.2-1.4-0.2-1.6-0.9L17.5,323.4c-0.2-0.7,0.2-1.4,0.9-1.6l3.5-0.9
				c0.7-0.2,1.4,0.2,1.6,0.9l35.9,135.6C59.6,458.1,59.2,458.8,58.5,459z"/>
			<g>
				<g>
					<path class="st46" d="M57.7,381.9c-5.7-4.3-3.7-9.9-2.8-11.7c1.4,1.1,2.1,1.6,4,3.7c-0.4,2.5,1.7,6.4,1.7,6.4
						c-1-2.7-1-4.9-1-5.7c0.1,0.1,2.2,2.7,3.3,3.4c0.3,2.3,2.2,4,2.2,4c0-0.1-0.9-1.1-1.3-3.4c3.1,1.9,5.7,1.4,5.7,1.4
						s-2.5-0.5-5.4-2.3c1.7-0.7,3.1-0.3,3.1-0.4c0,0-2.3-1.2-4-0.2c-1.3-1-2.5-2.7-3.1-3.4c0.1-0.1,1.9-1.1,4.9-0.8
						c0,0-3.9-1.3-5.6,0.1c-1.1-1.3-1.4-1.7-4-3.8c2.5-6,9.3-2.2,11.3,1.7c2.1,4,2.1,5.8,7.9,8.9C70.1,384.9,62.3,385.4,57.7,381.9z
						 M54.6,358.3c-0.6,2.6-1.6,4.6-2.6,6c0,0,0.1,0,0.1,0c7,1.2,4.2-11.1,4.2-11.1s-1.9,2.1-4.1,3.4c-2.6,1.5-4.2,6.4-0.7,7.6
						C52.7,362.8,53.8,360.9,54.6,358.3z M54.9,370.2c0,0,0.5-1,0.5-0.9c-2.3-1.8-4-2.4-6.2-2.3c0.7-0.4,1.7-1.3,2.8-2.6
						c-0.2,0-0.3-0.1-0.5-0.1c-1.2,1.5-3,2.3-3.6,2.6c-1.7,0.3-2.6,0.6-4,1c0,0-0.4,1.2,0.7,1.4C45.4,368.5,51.3,366.9,54.9,370.2z"
						/>
				</g>
			</g>
			<g>
				<g>
					<path class="st46" d="M-8.3,386.3c5.8-3.1,5.8-4.9,7.9-8.9c2-3.9,8.8-7.7,11.3-1.7c-2.6,2.1-2.9,2.4-4,3.8
						c-1.7-1.5-5.6-0.1-5.6-0.1c3-0.3,4.8,0.8,4.9,0.8c-0.5,0.6-1.8,2.3-3.1,3.4c-1.8-1-4,0.2-4,0.2c0,0.1,1.4-0.3,3.1,0.4
						c-2.9,1.8-5.4,2.3-5.4,2.3s2.5,0.5,5.7-1.4c-0.4,2.2-1.4,3.3-1.3,3.4c0,0,1.9-1.7,2.2-4c1.1-0.7,3.2-3.2,3.3-3.4
						c0,0.8,0.1,3-1,5.7c0,0,2.1-4,1.7-6.4c1.9-2,2.6-2.5,4-3.7c0.9,1.9,2.9,7.5-2.8,11.7C4.1,391.8-3.8,391.3-8.3,386.3z
						 M14.8,370.6c3.5-1.1,1.9-6-0.7-7.6c-2.2-1.3-4.1-3.4-4.1-3.4s-2.8,12.3,4.2,11.1c0,0,0.1,0,0.1,0c-1-1.4-2-3.3-2.6-6
						C12.6,367.3,13.7,369.2,14.8,370.6z M21.8,375.7c1.1-0.2,0.7-1.4,0.7-1.4c-1.4-0.4-2.3-0.8-4-1c-0.6-0.4-2.4-1.2-3.6-2.6
						c-0.1,0-0.3,0.1-0.5,0.1c1,1.4,2.1,2.2,2.8,2.6c-2.1-0.1-3.9,0.5-6.2,2.3c0,0,0.5,0.9,0.5,0.9C15.1,373.3,21,374.9,21.8,375.7z
						"/>
				</g>
			</g>
			<path class="st47" d="M44.1,451.8c0,0,14.1-11.3,10-30.3c-2.7-12.3-15-18-17.2-18.5c-0.3-0.1-1.6-0.3-3.4-1.2
				c-1.2-0.6-2.1-1.2-2.7-1.7c-1.8-1.5-7.1-6.4-8.6-15c-0.4-2.3-0.9-7,1.5-14.8c0.9-3,8.6-30.1,20.3-29.9c2.9,0.1,6,1.7,6.2,3.5
				c0.3,4.5-18.3,15.5-27.9,7c-4.8-4.2-6.2-12.1-3.7-19.6"/>
			<path class="st47" d="M8.1,445.8c8.1,2.7,14.5,2.3,15.7-1.3c0.7-2,0.1-5.9-1.1-8.4c-0.7-1.4-1.5-2.3-2-2.8
				c-1.1-1.2-3.8-4.5-4.7-10.6c-1.6-11.1,4.4-21,4.8-21.7c0.3-0.5,1-1.4,1.8-2.3c9.5-10.9,21.3-2.1,24.3-8.3
				c1.5-3.2-0.5-7.8-1.9-12.9c-2.3-8.8-3.8-22.7,0.6-44.9"/>
			<g>
				<g>
					<path class="st48" d="M45.9,408.5c-5.7-4.3-3.7-9.9-2.8-11.7c1.4,1.1,2.1,1.6,4,3.7c-0.4,2.5,1.7,6.4,1.7,6.4
						c-1-2.7-1-4.9-1-5.7c0.1,0.1,2.2,2.7,3.3,3.4c0.3,2.3,2.2,4,2.2,4c0-0.1-0.9-1.1-1.3-3.4c3.1,1.9,5.7,1.4,5.7,1.4
						s-2.5-0.5-5.4-2.3c1.7-0.7,3.1-0.3,3.1-0.4c0,0-2.3-1.2-4-0.2c-1.3-1-2.5-2.7-3.1-3.4c0.1-0.1,1.9-1.1,4.9-0.8
						c0,0-3.9-1.3-5.6,0.1c-1.1-1.3-1.4-1.7-4-3.8c2.5-6,9.3-2.2,11.3,1.7c2.1,4,2.1,5.8,7.9,8.9C58.3,411.4,50.5,411.9,45.9,408.5z
						 M42.8,384.9c-0.6,2.6-1.6,4.6-2.6,6c0,0,0.1,0,0.1,0c7,1.2,4.2-11.1,4.2-11.1s-1.9,2.1-4.1,3.4c-2.6,1.5-4.2,6.4-0.7,7.6
						C40.9,389.3,42,387.4,42.8,384.9z M43.1,396.7c0,0,0.5-1,0.5-0.9c-2.3-1.8-4-2.4-6.2-2.3c0.7-0.4,1.7-1.3,2.8-2.6
						c-0.2,0-0.3-0.1-0.5-0.1c-1.2,1.5-3,2.3-3.6,2.6c-1.7,0.3-2.6,0.6-4,1c0,0-0.4,1.2,0.7,1.4C33.6,395,39.5,393.5,43.1,396.7z"/>
				</g>
			</g>
			<g>
				<g>
					<path class="st48" d="M2.3,398.3c6.5,2.8,5.9,8.7,5.5,10.8c-1.6-0.8-2.4-1.1-4.7-2.6c-0.2-2.5-3.2-5.9-3.2-5.9
						c1.6,2.4,2.2,4.6,2.3,5.3c-0.2-0.1-2.8-2.1-4-2.5c-0.8-2.2-3.1-3.4-3.1-3.4c0,0.1,1.1,0.9,2.1,3c-3.5-1.1-5.8,0-5.8,0
						s2.5-0.1,5.7,1c-1.5,1.1-2.9,1.1-2.9,1.1c0,0,2.5,0.6,4-0.7c1.5,0.7,3.1,2.1,3.8,2.5c-0.1,0.1-1.6,1.5-4.6,2
						c0,0,4.1,0.4,5.4-1.4c1.4,1,1.8,1.3,4.8,2.7c-1.1,6.5-8.5,4.3-11.4,1c-3-3.4-3.4-5.2-9.8-6.8C-10.5,398.3-3,396,2.3,398.3z
						 M10.8,420.5c-0.1-2.7,0.4-4.8,1.1-6.4c0,0-0.1,0-0.1,0c-7.1,0.4-1.5,11.8-1.5,11.8s1.4-2.4,3.2-4.3c2.1-2.1,2.5-7.2-1.1-7.5
						C11.7,415.7,11,417.8,10.8,420.5z M7.8,409c0,0-0.3,1.1-0.3,1c2.6,1.3,4.5,1.4,6.5,0.8c-0.6,0.6-1.4,1.6-2.1,3.2
						c0.2,0,0.3,0,0.5,0c0.8-1.7,2.4-2.9,2.9-3.4c1.6-0.7,2.4-1.2,3.7-2c0,0,0.1-1.3-1-1.2C17.4,408.5,12,411.4,7.8,409z"/>
				</g>
			</g>
		</g>
	</g>
	<g>
		<path class="st45" d="M172.4,551.5l-1.9-0.5c-1.1-0.3-1.8-1.5-1.5-2.6l13.8-52.4l21.5-81.6c0.3-1.1,1.5-1.8,2.6-1.5l1.9,0.5
			c1.1,0.3,1.8,1.5,1.5,2.6l-35.4,134C174.7,551.1,173.5,551.8,172.4,551.5z"/>
		<path class="st45" d="M220.2,550.7l-3.5,0.9c-0.7,0.2-1.4-0.2-1.6-0.9l-35.9-135.6c-0.2-0.7,0.2-1.4,0.9-1.6l3.5-0.9
			c0.7-0.2,1.4,0.2,1.6,0.9l35.9,135.6C221.4,549.8,220.9,550.5,220.2,550.7z"/>
		<g>
			<g>
				<path class="st46" d="M219.5,473.6c-5.7-4.3-3.7-9.9-2.8-11.7c1.4,1.1,2.1,1.6,4,3.7c-0.4,2.5,1.7,6.4,1.7,6.4
					c-1-2.7-1-4.9-1-5.7c0.1,0.1,2.2,2.7,3.3,3.4c0.3,2.3,2.2,4,2.2,4c0-0.1-0.9-1.1-1.3-3.4c3.1,1.9,5.7,1.4,5.7,1.4
					s-2.5-0.5-5.4-2.3c1.7-0.7,3.1-0.3,3.1-0.4c0,0-2.3-1.2-4-0.2c-1.3-1-2.5-2.7-3.1-3.4c0.1-0.1,1.9-1.1,4.9-0.8
					c0,0-3.9-1.3-5.6,0.1c-1.1-1.3-1.4-1.7-4-3.8c2.5-6,9.3-2.2,11.3,1.7c2.1,4,2.1,5.8,7.9,8.9
					C231.9,476.6,224.1,477.1,219.5,473.6z M216.4,450c-0.6,2.6-1.6,4.6-2.6,6c0,0,0.1,0,0.1,0c7,1.2,4.2-11.1,4.2-11.1
					s-1.9,2.1-4.1,3.4c-2.6,1.5-4.2,6.4-0.7,7.6C214.5,454.5,215.6,452.6,216.4,450z M216.7,461.9c0,0,0.5-1,0.5-0.9
					c-2.3-1.8-4-2.4-6.2-2.3c0.7-0.4,1.7-1.3,2.8-2.6c-0.2,0-0.3-0.1-0.5-0.1c-1.2,1.5-3,2.3-3.6,2.6c-1.7,0.3-2.6,0.6-4,1
					c0,0-0.4,1.2,0.7,1.4C207.2,460.2,213.1,458.6,216.7,461.9z"/>
			</g>
		</g>
		<g>
			<g>
				<path class="st46" d="M153.5,478c5.8-3.1,5.8-4.9,7.9-8.9c2-3.9,8.8-7.7,11.3-1.7c-2.6,2.1-2.9,2.4-4,3.8
					c-1.7-1.5-5.6-0.1-5.6-0.1c3-0.3,4.8,0.8,4.9,0.8c-0.5,0.6-1.8,2.3-3.1,3.4c-1.8-1-4,0.2-4,0.2c0,0.1,1.4-0.3,3.1,0.4
					c-2.9,1.8-5.4,2.3-5.4,2.3s2.5,0.5,5.7-1.4c-0.4,2.2-1.4,3.3-1.3,3.4c0,0,1.9-1.7,2.2-4c1.1-0.7,3.2-3.2,3.3-3.4
					c0,0.8,0.1,3-1,5.7c0,0,2.1-4,1.7-6.4c1.9-2,2.6-2.5,4-3.7c0.9,1.9,2.9,7.5-2.8,11.7C165.9,483.5,158,483.1,153.5,478z
					 M176.6,462.3c3.5-1.1,1.9-6-0.7-7.6c-2.2-1.3-4.1-3.4-4.1-3.4s-2.8,12.3,4.2,11.1c0,0,0.1,0,0.1,0c-1-1.4-2-3.3-2.6-6
					C174.4,459,175.5,460.9,176.6,462.3z M183.6,467.4c1.1-0.2,0.7-1.4,0.7-1.4c-1.4-0.4-2.3-0.8-4-1c-0.6-0.4-2.4-1.2-3.6-2.6
					c-0.1,0-0.3,0.1-0.5,0.1c1,1.4,2.1,2.2,2.8,2.6c-2.1-0.1-3.9,0.5-6.2,2.3c0,0,0.5,0.9,0.5,0.9
					C176.9,465.1,182.8,466.6,183.6,467.4z"/>
			</g>
		</g>
		<path class="st47" d="M205.9,543.5c0,0,14.1-11.3,10-30.3c-2.7-12.3-15-18-17.2-18.5c-0.3-0.1-1.6-0.3-3.4-1.2
			c-1.2-0.6-2.1-1.2-2.7-1.7c-1.8-1.5-7.1-6.4-8.6-15c-0.4-2.3-0.9-7,1.5-14.8c0.9-3,8.6-30.1,20.3-29.9c2.9,0.1,6,1.7,6.2,3.5
			c0.3,4.5-18.3,15.5-27.9,7c-4.8-4.2-6.2-12.1-3.7-19.6"/>
		<path class="st47" d="M169.9,537.5c8.1,2.7,14.5,2.3,15.7-1.3c0.7-2,0.1-5.9-1.1-8.4c-0.7-1.4-1.5-2.3-2-2.8
			c-1.1-1.2-3.8-4.5-4.7-10.6c-1.6-11.1,4.4-21,4.8-21.7c0.3-0.5,1-1.4,1.8-2.3c9.5-10.9,21.3-2.1,24.3-8.3
			c1.5-3.2-0.5-7.8-1.9-12.9c-2.3-8.8-3.8-22.7,0.6-44.9"/>
		<g>
			<g>
				<path class="st48" d="M207.7,500.2c-5.7-4.3-3.7-9.9-2.8-11.7c1.4,1.1,2.1,1.6,4,3.7c-0.4,2.5,1.7,6.4,1.7,6.4
					c-1-2.7-1-4.9-1-5.7c0.1,0.1,2.2,2.7,3.3,3.4c0.3,2.3,2.2,4,2.2,4c0-0.1-0.9-1.1-1.3-3.4c3.1,1.9,5.7,1.4,5.7,1.4
					s-2.5-0.5-5.4-2.3c1.7-0.7,3.1-0.3,3.1-0.4c0,0-2.3-1.2-4-0.2c-1.3-1-2.5-2.7-3.1-3.4c0.1-0.1,1.9-1.1,4.9-0.8
					c0,0-3.9-1.3-5.6,0.1c-1.1-1.3-1.4-1.7-4-3.8c2.5-6,9.3-2.2,11.3,1.7c2.1,4,2.1,5.8,7.9,8.9
					C220.1,503.2,212.3,503.6,207.7,500.2z M204.6,476.6c-0.6,2.6-1.6,4.6-2.6,6c0,0,0.1,0,0.1,0c7,1.2,4.2-11.1,4.2-11.1
					s-1.9,2.1-4.1,3.4c-2.6,1.5-4.2,6.4-0.7,7.6C202.7,481,203.8,479.1,204.6,476.6z M204.9,488.4c0,0,0.5-1,0.5-0.9
					c-2.3-1.8-4-2.4-6.2-2.3c0.7-0.4,1.7-1.3,2.8-2.6c-0.2,0-0.3-0.1-0.5-0.1c-1.2,1.5-3,2.3-3.6,2.6c-1.7,0.3-2.6,0.6-4,1
					c0,0-0.4,1.2,0.7,1.4C195.4,486.7,201.3,485.2,204.9,488.4z"/>
			</g>
		</g>
		<g>
			<g>
				<path class="st48" d="M164.1,490c6.5,2.8,5.9,8.7,5.5,10.8c-1.6-0.8-2.4-1.1-4.7-2.6c-0.2-2.5-3.2-5.9-3.2-5.9
					c1.6,2.4,2.2,4.6,2.3,5.3c-0.2-0.1-2.8-2.1-4-2.5c-0.8-2.2-3.1-3.4-3.1-3.4c0,0.1,1.1,0.9,2.1,3c-3.5-1.1-5.8,0-5.8,0
					s2.5-0.1,5.7,1c-1.5,1.1-2.9,1.1-2.9,1.1c0,0,2.5,0.6,4-0.7c1.5,0.7,3.1,2.1,3.8,2.5c-0.1,0.1-1.6,1.5-4.6,2
					c0,0,4.1,0.4,5.4-1.4c1.4,1,1.8,1.3,4.8,2.7c-1.1,6.5-8.5,4.3-11.4,1c-3-3.4-3.4-5.2-9.8-6.8C151.3,490,158.8,487.7,164.1,490z
					 M172.6,512.2c-0.1-2.7,0.4-4.8,1.1-6.4c0,0-0.1,0-0.1,0c-7.1,0.4-1.5,11.8-1.5,11.8s1.4-2.4,3.2-4.3c2.1-2.1,2.5-7.2-1.1-7.5
					C173.5,507.4,172.8,509.5,172.6,512.2z M169.6,500.7c0,0-0.3,1.1-0.3,1c2.6,1.3,4.5,1.4,6.5,0.8c-0.6,0.6-1.4,1.6-2.1,3.2
					c0.2,0,0.3,0,0.5,0c0.8-1.7,2.4-2.9,2.9-3.4c1.6-0.7,2.4-1.2,3.7-2c0,0,0.1-1.3-1-1.2C179.2,500.2,173.8,503.1,169.6,500.7z"/>
			</g>
		</g>
	</g>
</g>
<g>
	<g>
		
			<rect x="-46.5" y="369.9" transform="matrix(0.5085 -0.8611 0.8611 0.5085 -443.3528 202.1813)" class="st45" width="3.8" height="239.1"/>
		<g>
			<path class="st45" d="M-152.9,552.8l-1.9-0.5c-1.1-0.3-1.8-1.5-1.5-2.6l13.8-52.4l21.5-81.6c0.3-1.1,1.5-1.8,2.6-1.5l1.9,0.5
				c1.1,0.3,1.8,1.5,1.5,2.6l-35.4,134C-150.6,552.5-151.8,553.1-152.9,552.8z"/>
			<path class="st45" d="M-105,552.1l-3.5,0.9c-0.7,0.2-1.4-0.2-1.6-0.9L-146,416.5c-0.2-0.7,0.2-1.4,0.9-1.6l3.5-0.9
				c0.7-0.2,1.4,0.2,1.6,0.9l35.9,135.6C-103.9,551.2-104.3,551.9-105,552.1z"/>
			<g>
				<g>
					<path class="st46" d="M-105.8,475c-5.7-4.3-3.7-9.9-2.8-11.7c1.4,1.1,2.1,1.6,4,3.7c-0.4,2.5,1.7,6.4,1.7,6.4
						c-1-2.7-1-4.9-1-5.7c0.1,0.1,2.2,2.7,3.3,3.4c0.3,2.3,2.2,4,2.2,4c0-0.1-0.9-1.1-1.3-3.4c3.1,1.9,5.7,1.4,5.7,1.4
						s-2.5-0.5-5.4-2.3c1.7-0.7,3.1-0.3,3.1-0.4c0,0-2.3-1.2-4-0.2c-1.3-1-2.5-2.7-3.1-3.4c0.1-0.1,1.9-1.1,4.9-0.8
						c0,0-3.9-1.3-5.6,0.1c-1.1-1.3-1.4-1.7-4-3.8c2.5-6,9.3-2.2,11.3,1.7c2.1,4,2.1,5.8,7.9,8.9C-93.4,478-101.2,478.5-105.8,475z
						 M-108.9,451.4c-0.6,2.6-1.6,4.6-2.6,6c0,0,0.1,0,0.1,0c7,1.2,4.2-11.1,4.2-11.1s-1.9,2.1-4.1,3.4c-2.6,1.5-4.2,6.4-0.7,7.6
						C-110.8,455.9-109.7,454-108.9,451.4z M-108.6,463.3c0,0,0.5-1,0.5-0.9c-2.3-1.8-4-2.4-6.2-2.3c0.7-0.4,1.7-1.3,2.8-2.6
						c-0.2,0-0.3-0.1-0.5-0.1c-1.2,1.5-3,2.3-3.6,2.6c-1.7,0.3-2.6,0.6-4,1c0,0-0.4,1.2,0.7,1.4C-118.1,461.6-112.2,460-108.6,463.3
						z"/>
				</g>
			</g>
			<g>
				<g>
					<path class="st46" d="M-171.8,479.4c5.8-3.1,5.8-4.9,7.9-8.9c2-3.9,8.8-7.7,11.3-1.7c-2.6,2.1-2.9,2.4-4,3.8
						c-1.7-1.5-5.6-0.1-5.6-0.1c3-0.3,4.8,0.8,4.9,0.8c-0.5,0.6-1.8,2.3-3.1,3.4c-1.8-1-4,0.2-4,0.2c0,0.1,1.4-0.3,3.1,0.4
						c-2.9,1.8-5.4,2.3-5.4,2.3s2.5,0.5,5.7-1.4c-0.4,2.2-1.4,3.3-1.3,3.4c0,0,1.9-1.7,2.2-4c1.1-0.7,3.2-3.2,3.3-3.4
						c0,0.8,0.1,3-1,5.7c0,0,2.1-4,1.7-6.4c1.9-2,2.6-2.5,4-3.7c0.9,1.9,2.9,7.5-2.8,11.7C-159.4,484.9-167.2,484.4-171.8,479.4z
						 M-148.7,463.7c3.5-1.1,1.9-6-0.7-7.6c-2.2-1.3-4.1-3.4-4.1-3.4s-2.8,12.3,4.2,11.1c0,0,0.1,0,0.1,0c-1-1.4-2-3.3-2.6-6
						C-150.9,460.4-149.8,462.3-148.7,463.7z M-141.7,468.8c1.1-0.2,0.7-1.4,0.7-1.4c-1.4-0.4-2.3-0.8-4-1c-0.6-0.4-2.4-1.2-3.6-2.6
						c-0.1,0-0.3,0.1-0.5,0.1c1,1.4,2.1,2.2,2.8,2.6c-2.1-0.1-3.9,0.5-6.2,2.3c0,0,0.5,0.9,0.5,0.9
						C-148.4,466.4-142.5,468-141.7,468.8z"/>
				</g>
			</g>
			<path class="st47" d="M-119.4,544.9c0,0,14.1-11.3,10-30.3c-2.7-12.3-15-18-17.2-18.5c-0.3-0.1-1.6-0.3-3.4-1.2
				c-1.2-0.6-2.1-1.2-2.7-1.7c-1.8-1.5-7.1-6.4-8.6-15c-0.4-2.3-0.9-7,1.5-14.8c0.9-3,8.6-30.1,20.3-29.9c2.9,0.1,6,1.7,6.2,3.5
				c0.3,4.5-18.3,15.5-27.9,7c-4.8-4.2-6.2-12.1-3.7-19.6"/>
			<path class="st47" d="M-155.4,538.9c8.1,2.7,14.5,2.3,15.7-1.3c0.7-2,0.1-5.9-1.1-8.4c-0.7-1.4-1.5-2.3-2-2.8
				c-1.1-1.2-3.8-4.5-4.7-10.6c-1.6-11.1,4.4-21,4.8-21.7c0.3-0.5,1-1.4,1.8-2.3c9.5-10.9,21.3-2.1,24.3-8.3
				c1.5-3.2-0.5-7.8-1.9-12.9c-2.3-8.8-3.8-22.7,0.6-44.9"/>
			<g>
				<g>
					<path class="st48" d="M-117.6,501.6c-5.7-4.3-3.7-9.9-2.8-11.7c1.4,1.1,2.1,1.6,4,3.7c-0.4,2.5,1.7,6.4,1.7,6.4
						c-1-2.7-1-4.9-1-5.7c0.1,0.1,2.2,2.7,3.3,3.4c0.3,2.3,2.2,4,2.2,4c0-0.1-0.9-1.1-1.3-3.4c3.1,1.9,5.7,1.4,5.7,1.4
						s-2.5-0.5-5.4-2.3c1.7-0.7,3.1-0.3,3.1-0.4c0,0-2.3-1.2-4-0.2c-1.3-1-2.5-2.7-3.1-3.4c0.1-0.1,1.9-1.1,4.9-0.8
						c0,0-3.9-1.3-5.6,0.1c-1.1-1.3-1.4-1.7-4-3.8c2.5-6,9.3-2.2,11.3,1.7c2.1,4,2.1,5.8,7.9,8.9C-105.2,504.5-113,505-117.6,501.6z
						 M-120.7,478c-0.6,2.6-1.6,4.6-2.6,6c0,0,0.1,0,0.1,0c7,1.2,4.2-11.1,4.2-11.1s-1.9,2.1-4.1,3.4c-2.6,1.5-4.2,6.4-0.7,7.6
						C-122.6,482.4-121.5,480.5-120.7,478z M-120.4,489.8c0,0,0.5-1,0.5-0.9c-2.3-1.8-4-2.4-6.2-2.3c0.7-0.4,1.7-1.3,2.8-2.6
						c-0.2,0-0.3-0.1-0.5-0.1c-1.2,1.5-3,2.3-3.6,2.6c-1.7,0.3-2.6,0.6-4,1c0,0-0.4,1.2,0.7,1.4C-129.9,488.1-124,486.5-120.4,489.8
						z"/>
				</g>
			</g>
			<g>
				<g>
					<path class="st48" d="M-161.2,491.4c6.5,2.8,5.9,8.7,5.5,10.8c-1.6-0.8-2.4-1.1-4.7-2.6c-0.2-2.5-3.2-5.9-3.2-5.9
						c1.6,2.4,2.2,4.6,2.3,5.3c-0.2-0.1-2.8-2.1-4-2.5c-0.8-2.2-3.1-3.4-3.1-3.4c0,0.1,1.1,0.9,2.1,3c-3.5-1.1-5.8,0-5.8,0
						s2.5-0.1,5.7,1c-1.5,1.1-2.9,1.1-2.9,1.1c0,0,2.5,0.6,4-0.7c1.5,0.7,3.1,2.1,3.8,2.5c-0.1,0.1-1.6,1.5-4.6,2
						c0,0,4.1,0.4,5.4-1.4c1.4,1,1.8,1.3,4.8,2.7c-1.1,6.5-8.5,4.3-11.4,1c-3-3.4-3.4-5.2-9.8-6.8
						C-174,491.4-166.5,489.1-161.2,491.4z M-152.7,513.6c-0.1-2.7,0.4-4.8,1.1-6.4c0,0-0.1,0-0.1,0c-7.1,0.4-1.5,11.8-1.5,11.8
						s1.4-2.4,3.2-4.3c2.1-2.1,2.5-7.2-1.1-7.5C-151.8,508.8-152.5,510.9-152.7,513.6z M-155.7,502.1c0,0-0.3,1.1-0.3,1
						c2.6,1.3,4.5,1.4,6.5,0.8c-0.6,0.6-1.4,1.6-2.1,3.2c0.2,0,0.3,0,0.5,0c0.8-1.7,2.4-2.9,2.9-3.4c1.6-0.7,2.4-1.2,3.7-2
						c0,0,0.1-1.3-1-1.2C-146.1,501.6-151.5,504.5-155.7,502.1z"/>
				</g>
			</g>
		</g>
	</g>
	<g>
		<path class="st45" d="M8.9,644.5L7,644c-1.1-0.3-1.8-1.5-1.5-2.6L19.3,589l21.5-81.6c0.3-1.1,1.5-1.8,2.6-1.5l1.9,0.5
			c1.1,0.3,1.8,1.5,1.5,2.6L11.5,643C11.2,644.2,10,644.8,8.9,644.5z"/>
		<path class="st45" d="M56.7,643.8l-3.5,0.9c-0.7,0.2-1.4-0.2-1.6-0.9L15.8,508.2c-0.2-0.7,0.2-1.4,0.9-1.6l3.5-0.9
			c0.7-0.2,1.4,0.2,1.6,0.9l35.9,135.6C57.9,642.9,57.4,643.6,56.7,643.8z"/>
		<g>
			<g>
				<path class="st46" d="M56,566.7c-5.7-4.3-3.7-9.9-2.8-11.7c1.4,1.1,2.1,1.6,4,3.7c-0.4,2.5,1.7,6.4,1.7,6.4c-1-2.7-1-4.9-1-5.7
					c0.1,0.1,2.2,2.7,3.3,3.4c0.3,2.3,2.2,4,2.2,4c0-0.1-0.9-1.1-1.3-3.4c3.1,1.9,5.7,1.4,5.7,1.4s-2.5-0.5-5.4-2.3
					c1.7-0.7,3.1-0.3,3.1-0.4c0,0-2.3-1.2-4-0.2c-1.3-1-2.5-2.7-3.1-3.4c0.1-0.1,1.9-1.1,4.9-0.8c0,0-3.9-1.3-5.6,0.1
					c-1.1-1.3-1.4-1.7-4-3.8c2.5-6,9.3-2.2,11.3,1.7c2.1,4,2.1,5.8,7.9,8.9C68.4,569.7,60.6,570.2,56,566.7z M52.9,543.1
					c-0.6,2.6-1.6,4.6-2.6,6c0,0,0.1,0,0.1,0c7,1.2,4.2-11.1,4.2-11.1s-1.9,2.1-4.1,3.4c-2.6,1.5-4.2,6.4-0.7,7.6
					C51,547.6,52.1,545.7,52.9,543.1z M53.2,555c0,0,0.5-1,0.5-0.9c-2.3-1.8-4-2.4-6.2-2.3c0.7-0.4,1.7-1.3,2.8-2.6
					c-0.2,0-0.3-0.1-0.5-0.1c-1.2,1.5-3,2.3-3.6,2.6c-1.7,0.3-2.6,0.6-4,1c0,0-0.4,1.2,0.7,1.4C43.7,553.3,49.6,551.7,53.2,555z"/>
			</g>
		</g>
		<g>
			<g>
				<path class="st46" d="M-10,571.1c5.8-3.1,5.8-4.9,7.9-8.9c2-3.9,8.8-7.7,11.3-1.7c-2.6,2.1-2.9,2.4-4,3.8
					c-1.7-1.5-5.6-0.1-5.6-0.1c3-0.3,4.8,0.8,4.9,0.8c-0.5,0.6-1.8,2.3-3.1,3.4c-1.8-1-4,0.2-4,0.2c0,0.1,1.4-0.3,3.1,0.4
					c-2.9,1.8-5.4,2.3-5.4,2.3s2.5,0.5,5.7-1.4c-0.4,2.2-1.4,3.3-1.3,3.4c0,0,1.9-1.7,2.2-4c1.1-0.7,3.2-3.2,3.3-3.4
					c0,0.8,0.1,3-1,5.7c0,0,2.1-4,1.7-6.4c1.9-2,2.6-2.5,4-3.7c0.9,1.9,2.9,7.5-2.8,11.7C2.4,576.6-5.5,576.1-10,571.1z M13.1,555.4
					c3.5-1.1,1.9-6-0.7-7.6c-2.2-1.3-4.1-3.4-4.1-3.4s-2.8,12.3,4.2,11.1c0,0,0.1,0,0.1,0c-1-1.4-2-3.3-2.6-6
					C10.9,552.1,12,554,13.1,555.4z M20.1,560.5c1.1-0.2,0.7-1.4,0.7-1.4c-1.4-0.4-2.3-0.8-4-1c-0.6-0.4-2.4-1.2-3.6-2.6
					c-0.1,0-0.3,0.1-0.5,0.1c1,1.4,2.1,2.2,2.8,2.6c-2.1-0.1-3.9,0.5-6.2,2.3c0,0,0.5,0.9,0.5,0.9C13.4,558.2,19.3,559.7,20.1,560.5
					z"/>
			</g>
		</g>
		<path class="st47" d="M42.4,636.6c0,0,14.1-11.3,10-30.3c-2.7-12.3-15-18-17.2-18.5c-0.3-0.1-1.6-0.3-3.4-1.2
			c-1.2-0.6-2.1-1.2-2.7-1.7c-1.8-1.5-7.1-6.4-8.6-15c-0.4-2.3-0.9-7,1.5-14.8c0.9-3,8.6-30.1,20.3-29.9c2.9,0.1,6,1.7,6.2,3.5
			c0.3,4.5-18.3,15.5-27.9,7c-4.8-4.2-6.2-12.1-3.7-19.6"/>
		<path class="st47" d="M6.4,630.6c8.1,2.7,14.5,2.3,15.7-1.3c0.7-2,0.1-5.9-1.1-8.4c-0.7-1.4-1.5-2.3-2-2.8
			c-1.1-1.2-3.8-4.5-4.7-10.6c-1.6-11.1,4.4-21,4.8-21.7c0.3-0.5,1-1.4,1.8-2.3c9.5-10.9,21.3-2.1,24.3-8.3
			c1.5-3.2-0.5-7.8-1.9-12.9c-2.3-8.8-3.8-22.7,0.6-44.9"/>
		<g>
			<g>
				<path class="st48" d="M44.2,593.3c-5.7-4.3-3.7-9.9-2.8-11.7c1.4,1.1,2.1,1.6,4,3.7c-0.4,2.5,1.7,6.4,1.7,6.4
					c-1-2.7-1-4.9-1-5.7c0.1,0.1,2.2,2.7,3.3,3.4c0.3,2.3,2.2,4,2.2,4c0-0.1-0.9-1.1-1.3-3.4c3.1,1.9,5.7,1.4,5.7,1.4
					s-2.5-0.5-5.4-2.3c1.7-0.7,3.1-0.3,3.1-0.4c0,0-2.3-1.2-4-0.2c-1.3-1-2.5-2.7-3.1-3.4c0.1-0.1,1.9-1.1,4.9-0.8
					c0,0-3.9-1.3-5.6,0.1c-1.1-1.3-1.4-1.7-4-3.8c2.5-6,9.3-2.2,11.3,1.7c2.1,4,2.1,5.8,7.9,8.9C56.6,596.3,48.8,596.7,44.2,593.3z
					 M41.1,569.7c-0.6,2.6-1.6,4.6-2.6,6c0,0,0.1,0,0.1,0c7,1.2,4.2-11.1,4.2-11.1s-1.9,2.1-4.1,3.4c-2.6,1.5-4.2,6.4-0.7,7.6
					C39.2,574.1,40.3,572.2,41.1,569.7z M41.4,581.5c0,0,0.5-1,0.5-0.9c-2.3-1.8-4-2.4-6.2-2.3c0.7-0.4,1.7-1.3,2.8-2.6
					c-0.2,0-0.3-0.1-0.5-0.1c-1.2,1.5-3,2.3-3.6,2.6c-1.7,0.3-2.6,0.6-4,1c0,0-0.4,1.2,0.7,1.4C31.9,579.8,37.8,578.3,41.4,581.5z"
					/>
			</g>
		</g>
		<g>
			<g>
				<path class="st48" d="M0.6,583.1c6.5,2.8,5.9,8.7,5.5,10.8c-1.6-0.8-2.4-1.1-4.7-2.6c-0.2-2.5-3.2-5.9-3.2-5.9
					c1.6,2.4,2.2,4.6,2.3,5.3c-0.2-0.1-2.8-2.1-4-2.5c-0.8-2.2-3.1-3.4-3.1-3.4c0,0.1,1.1,0.9,2.1,3c-3.5-1.1-5.8,0-5.8,0
					s2.5-0.1,5.7,1c-1.5,1.1-2.9,1.1-2.9,1.1c0,0,2.5,0.6,4-0.7c1.5,0.7,3.1,2.1,3.8,2.5c-0.1,0.1-1.6,1.5-4.6,2
					c0,0,4.1,0.4,5.4-1.4c1.4,1,1.8,1.3,4.8,2.7c-1.1,6.5-8.5,4.3-11.4,1c-3-3.4-3.4-5.2-9.8-6.8C-12.2,583.1-4.7,580.8,0.6,583.1z
					 M9.1,605.3c-0.1-2.7,0.4-4.8,1.1-6.4c0,0-0.1,0-0.1,0c-7.1,0.4-1.5,11.8-1.5,11.8s1.4-2.4,3.2-4.3c2.1-2.1,2.5-7.2-1.1-7.5
					C10,600.5,9.3,602.6,9.1,605.3z M6.1,593.8c0,0-0.3,1.1-0.3,1c2.6,1.3,4.5,1.4,6.5,0.8c-0.6,0.6-1.4,1.6-2.1,3.2
					c0.2,0,0.3,0,0.5,0c0.8-1.7,2.4-2.9,2.9-3.4c1.6-0.7,2.4-1.2,3.7-2c0,0,0.1-1.3-1-1.2C15.7,593.3,10.3,596.2,6.1,593.8z"/>
			</g>
		</g>
	</g>
</g>
<defs>
	<filter id="Adobe_OpacityMaskFilter_22_" filterUnits="userSpaceOnUse" x="13.8" y="349.7" width="14.1" height="45">
		
			<feColorMatrix  type="matrix" values="-1 0 0 0 1  0 -1 0 0 1  0 0 -1 0 1  0 0 0 1 0" color-interpolation-filters="sRGB" result="source"/>
		<feFlood  style="flood-color:white;flood-opacity:1" result="back"/>
		<feBlend  in="source" in2="back" mode="normal"/>
	</filter>
</defs>
<mask maskUnits="userSpaceOnUse" x="13.8" y="349.7" width="14.1" height="45" id="thin_24_">
	<g class="st49">
		
			<rect x="20.4" y="394.4" transform="matrix(0.9514 0.3078 -0.3078 0.9514 122.4202 12.8433)" class="st5" width="0.2" height="0.2"/>
		<path class="st5" d="M20.4,394.4c0.1,0,0.1,0,0.2,0c0.2,0,0.3-0.1,0.3-0.1c0,0-0.1,0.1-0.2,0.1c0,0-0.1,0-0.1,0"/>
	</g>
</mask>
<g id="thin_12_" class="st50">
	<path class="st7" d="M22,349.9c0.6-0.2,1.2-0.2,1.4,0.1c0.2,0.2,0.2,0.4,0.2,0.6c0,0.3,0,0.7-0.2,1.1c-0.3,0.8-1,1.5-1.4,2.6
		c0,0.3-0.1,0.5-0.1,0.8c0,0.5,0,1,0,1.4c-0.6,0-1.3,0-1.9-0.1c-0.1,0-0.2,0-0.3,0c0-0.1,0-0.3,0.1-0.4c0-0.1,0.1-0.5,0.2-1
		c0.2-0.7,0.4-1.2,0.6-1.6c0.1-0.3,0.3-0.6,0.4-1c0.2-0.4,0.3-0.8,0.4-1.1C21.6,350.9,21.8,350.4,22,349.9z"/>
	<defs>
		<filter id="Adobe_OpacityMaskFilter_23_" filterUnits="userSpaceOnUse" x="13.8" y="356.3" width="7.3" height="38.4">
			
				<feColorMatrix  type="matrix" values="-1 0 0 0 1  0 -1 0 0 1  0 0 -1 0 1  0 0 0 1 0" color-interpolation-filters="sRGB" result="source"/>
			<feFlood  style="flood-color:white;flood-opacity:1" result="back"/>
			<feBlend  in="source" in2="back" mode="normal"/>
		</filter>
	</defs>
	<mask maskUnits="userSpaceOnUse" x="13.8" y="356.3" width="7.3" height="38.4" id="thin_24_">
		<g class="st51">
			
				<rect x="20.7" y="394.4" transform="matrix(0.9591 -0.283 0.283 0.9591 -110.7892 22.019)" class="st5" width="0.3" height="0.1"/>
		</g>
	</mask>
	<g>
		<g>
			<path class="st9" d="M20.8,356.7c0,0-0.1,0-0.4,0c-1.3,0.1-5.6,0.8-6,5c-0.4,4.9-0.2,19.4-0.2,19.4s0.3,7.6,2.7,10.7
				c0,0,1.1,1.6,3.9,2.4C20.7,390.8,20.5,358,20.8,356.7z"/>
			<path class="st9" d="M20.4,357.1c0,0-2.6,0.4-3.2,5l0.3,20c0,0-0.4,5.4,2.9,11.8"/>
		</g>
		<g>
			<path class="st10" d="M20.7,356.7c0,0-0.1,0-0.4,0c-1.3,0.1-5.5,0.8-5.8,5c-0.4,4.9-0.2,19.4-0.2,19.4s0.3,7.6,2.6,10.7
				c0,0,1.1,1.6,3.8,2.4c-0.1-3.4-0.2-6.3-0.3-8.5c-0.1-3.8-0.2-5.6-0.4-7.4c-0.1-0.6-0.1-1.2-0.2-2.2c-0.1-2.1,0-2.4,0-4.6
				c0-1.8-0.1-1.9-0.2-3.8c0-1,0-1.6,0.1-2.8c0.1-2.4,0.1-3.6,0.3-5.1C20.2,359.1,20.3,358,20.7,356.7z"/>
			<path class="st10" d="M20.3,357.1c0,0-2.6,0.4-3.1,5l0.3,20c0,0-0.4,5.4,2.9,11.8"/>
		</g>
		<path class="st11" d="M16.1,364.7L16.1,364.7c-0.3,0-0.5-0.2-0.5-0.4l0,0c0-0.2,0.2-0.4,0.4-0.4h0.1c0.2,0,0.4,0.2,0.4,0.4l0,0
			C16.5,364.6,16.3,364.7,16.1,364.7z"/>
		<path class="st11" d="M18.4,366.3L18.4,366.3c-0.3,0-0.5-0.2-0.5-0.4l0,0c0-0.2,0.2-0.4,0.4-0.4h0.1c0.2,0,0.4,0.2,0.4,0.4l0,0
			C18.8,366.2,18.6,366.3,18.4,366.3z"/>
		<path class="st11" d="M15.3,367.8L15.3,367.8c-0.2,0-0.4-0.2-0.4-0.4l0,0c0-0.2,0.2-0.4,0.4-0.4h0c0.2,0,0.4,0.2,0.4,0.4l0,0
			C15.7,367.7,15.5,367.8,15.3,367.8z"/>
		<path class="st11" d="M16.9,388.4L16.9,388.4c-0.3,0-0.5-0.2-0.5-0.4l0,0c0-0.2,0.2-0.4,0.4-0.4h0.1c0.2,0,0.4,0.2,0.4,0.4l0,0
			C17.3,388.2,17.1,388.4,16.9,388.4z"/>
		<path class="st11" d="M19.6,389.6L19.6,389.6c-0.3,0-0.5-0.2-0.5-0.4l0,0c0-0.2,0.2-0.4,0.4-0.4h0.1c0.2,0,0.4,0.2,0.4,0.4l0,0
			C20,389.4,19.8,389.6,19.6,389.6z"/>
		<path class="st11" d="M19.1,386.6L19.1,386.6c-0.2,0-0.4-0.2-0.4-0.4l0,0c0-0.2,0.2-0.4,0.4-0.4l0,0c0.2,0,0.4,0.2,0.4,0.4l0,0
			C19.5,386.4,19.4,386.6,19.1,386.6z"/>
	</g>
	<g>
		<g>
			<path class="st12" d="M20.4,356.7c0,0,0.2,0,0.4,0c1.4,0.1,5.9,0.8,6.3,5c0.5,5,0.2,19.5,0.2,19.5s-0.3,7.7-2.8,10.8
				c0,0-1.2,1.6-4.1,2.4C20.5,391,20.7,358,20.4,356.7z"/>
			<path class="st12" d="M20.8,357.1c0,0,2.8,0.4,3.4,5l-0.3,20.1c0,0,0.4,5.5-3.1,11.8"/>
		</g>
		<g>
			<path class="st13" d="M20.8,356.7c0,0,0.1,0,0.4,0c1.3,0.1,5.6,0.8,5.9,5c0.4,4.9,0.2,19.3,0.2,19.3s-0.3,7.6-2.7,10.7
				c0,0-1.1,1.6-3.9,2.4c0.1-3.4,0.2-6.3,0.3-8.5c0.1-3.8,0.2-5.6,0.4-7.4c0.1-0.6,0.1-1.2,0.2-2.2c0.1-2.1,0-2.4,0-4.5
				c0-1.8,0.1-1.9,0.2-3.8c0-1,0-1.6-0.1-2.8c-0.1-2.4-0.1-3.6-0.3-5.1C21.3,359.1,21.1,358,20.8,356.7z"/>
			<path class="st13" d="M21.2,357.1c0,0,2.6,0.4,3.2,5L24.1,382c0,0,0.4,5.4-2.9,11.7"/>
		</g>
		<path class="st14" d="M25.4,364.8L25.4,364.8c0.3,0,0.5-0.2,0.5-0.4l0,0c0-0.2-0.2-0.4-0.4-0.4h-0.1c-0.2,0-0.4,0.2-0.4,0.4l0,0
			C25,364.6,25.2,364.8,25.4,364.8z"/>
		<path class="st14" d="M23.1,366.4L23.1,366.4c0.3,0,0.5-0.2,0.5-0.4l0,0c0-0.2-0.2-0.4-0.4-0.4h-0.1c-0.2,0-0.4,0.2-0.4,0.4l0,0
			C22.7,366.2,22.9,366.4,23.1,366.4z"/>
		<path class="st14" d="M26.2,367.9L26.2,367.9c0.2,0,0.4-0.2,0.4-0.4l0,0c0-0.2-0.2-0.4-0.4-0.4h0c-0.2,0-0.4,0.2-0.4,0.4l0,0
			C25.8,367.7,26,367.9,26.2,367.9z"/>
		<path class="st14" d="M24.6,388.6L24.6,388.6c0.3,0,0.5-0.2,0.5-0.4l0,0c0-0.2-0.2-0.4-0.4-0.4h-0.1c-0.2,0-0.4,0.2-0.4,0.4l0,0
			C24.2,388.4,24.4,388.6,24.6,388.6z"/>
		<path class="st14" d="M21.9,389.8L21.9,389.8c0.3,0,0.5-0.2,0.5-0.4l0,0c0-0.2-0.2-0.4-0.4-0.4h-0.1c-0.2,0-0.4,0.2-0.4,0.4l0,0
			C21.5,389.7,21.7,389.8,21.9,389.8z"/>
		<path class="st14" d="M22.3,386.8L22.3,386.8c0.2,0,0.4-0.2,0.4-0.4l0,0c0-0.2-0.2-0.4-0.4-0.4h0c-0.2,0-0.4,0.2-0.4,0.4l0,0
			C21.9,386.7,22.1,386.8,22.3,386.8z"/>
	</g>
</g>
<g>
	<defs>
		<polygon id="SVGID_5_" points="-171.8,496.1 33.1,615.1 32.9,663.3 -171.3,544.8 		"/>
	</defs>
	<clipPath id="SVGID_6_">
		<use xlink:href="#SVGID_5_"  style="overflow:visible;"/>
	</clipPath>
	<g class="st52">
		<polygon class="st1" points="-171.8,470.1 33.1,589.1 32.9,637.3 -171.3,518.8 		"/>
		<g>
			<polygon class="st2" points="33.1,589.1 21.4,582.3 -17.8,607.9 12.1,625.2 33,611.7 			"/>
			<polygon class="st2" points="-151,482.2 -171.5,496 -171.3,518.8 -159.6,525.5 -121,499.7 			"/>
		</g>
	</g>
</g>
<g>
	<defs>
		<polygon id="SVGID_7_" points="33.5,589.3 237.7,470.7 237.9,518.9 33,637.9 		"/>
	</defs>
	<clipPath id="SVGID_8_">
		<use xlink:href="#SVGID_7_"  style="overflow:visible;"/>
	</clipPath>
	<g class="st53">
		<polygon class="st1" points="33.5,615.3 237.7,496.7 237.9,544.9 33,663.9 		"/>
		<g>
			<polygon class="st2" points="237.8,522.3 216.9,508.8 187,526.1 226.2,551.7 237.9,544.9 			"/>
			<polygon class="st2" points="83.8,634.4 45.2,608.5 33.5,615.3 33.2,638 53.8,651.8 			"/>
		</g>
	</g>
</g>
<text transform="matrix(0.5926 0.3431 -0.501 0.8654 -121.0042 545.5585)" class="st54 st55">Crime Scene</text>
<text transform="matrix(0.5889 -0.3413 0.5015 0.8652 71.4984 612.8457)" class="st54 st56">Do Not Cross Line</text>
</svg>
