<?xml version="1.0" encoding="utf-8"?>
<!-- Generator: Adobe Illustrator 19.0.1, SVG Export Plug-In . SVG Version: 6.00 Build 0)  -->
<svg version="1.1" id="mushroom_x5F_grow" xmlns="http://www.w3.org/2000/svg" xmlns:xlink="http://www.w3.org/1999/xlink" x="0px"
	 y="0px" viewBox="-223 225 512 512" style="enable-background:new -223 225 512 512;" xml:space="preserve">
<style type="text/css">
	.st0{fill:#9E5A23;}
	.st1{fill:#844414;}
	.st2{fill:#CE8D5B;}
	.st3{fill:#F9DCB2;}
	.st4{fill:#DDBB8E;}
	.st5{fill:#B27214;}
	.st6{fill:#995C0D;}
</style>
<g>
	<g>
		<path class="st0" d="M-118.1,543.8l-0.3-88.1c0,5.1-5.6,9.2-12.6,9.2c-7,0-12.7-4-12.7-9.1l0.3,88.1c0,5.1,5.7,9.2,12.7,9.1
			C-123.7,552.9-118.1,548.9-118.1,543.8"/>
		<g>
			<path class="st1" d="M-125.4,479.6l-0.1-16.1c0-1.1,0.6-1.8,1.4-1.8s1.4,0.7,1.4,1.8l0.1,16.1c0,1.1-0.6,1.8-1.4,1.8
				C-124.8,481.4-125.4,480.7-125.4,479.6"/>
			<path class="st1" d="M-125.2,516.3l-0.1-29.4c0-1.1,0.6-1.8,1.4-1.8c0.8,0,1.4,0.7,1.4,1.8l0.1,29.4c0,1.1-0.6,1.8-1.4,1.8
				C-124.7,518.1-125.2,517.4-125.2,516.3"/>
			<path class="st1" d="M-125.1,549.3l-0.1-25.7c0-1.1,0.6-1.8,1.4-1.8c0.8,0,1.4,0.7,1.4,1.8l0.1,25.7c0,1.1-0.6,1.8-1.4,1.8
				C-124.6,551.1-125.1,550.4-125.1,549.3"/>
			<path class="st1" d="M-132.3,507.1l0-5.5c0-1.1,0.6-1.8,1.4-1.8c0.8,0,1.4,0.7,1.4,1.8l0,5.5c0,1.1-0.6,1.8-1.4,1.8
				C-131.7,508.9-132.3,508.2-132.3,507.1"/>
			<path class="st1" d="M-132.4,490.6l-0.1-18.3c0-1.1,0.6-1.8,1.4-1.8c0.8,0,1.4,0.7,1.4,1.8l0.1,18.3c0,1.1-0.6,1.8-1.4,1.8
				C-131.8,492.4-132.4,491.7-132.4,490.6"/>
			<path class="st1" d="M-132.2,525.5l0-11c0-1.1,0.6-1.8,1.4-1.8s1.4,0.7,1.4,1.8l0,11c0,1.1-0.6,1.8-1.4,1.8
				C-131.7,527.3-132.2,526.6-132.2,525.5"/>
			<path class="st1" d="M-132.2,551.1l-0.1-16.5c0-1.1,0.6-1.8,1.4-1.8s1.4,0.7,1.4,1.8l0.1,16.5c0,1.1-0.6,1.8-1.4,1.8
				C-131.6,553-132.1,552.2-132.2,551.1"/>
			<path class="st1" d="M-139.4,481.4l-0.1-18c0-1.1,0.6-1.8,1.4-1.8c0.8,0,1.4,0.7,1.4,1.8l0.1,18c0,1.1-0.6,1.8-1.4,1.8
				C-138.8,483.3-139.4,482.5-139.4,481.4"/>
			<path class="st1" d="M-139.2,542l-0.1-14.7c0-1.1,0.6-1.8,1.4-1.8c0.8,0,1.4,0.7,1.4,1.8l0.1,14.7c0,1.1-0.6,1.8-1.4,1.8
				C-138.6,543.8-139.2,543.1-139.2,542"/>
			<path class="st1" d="M-139.3,514.5l-0.1-22c0-1.1,0.6-1.8,1.4-1.8c0.8,0,1.4,0.7,1.4,1.8l0.1,22c0,1.1-0.6,1.8-1.4,1.8
				C-138.7,516.3-139.3,515.6-139.3,514.5"/>
		</g>
		<path class="st2" d="M-131,464.9c-7,0-12.7-4-12.7-9.1c0-5.1,5.6-9.2,12.6-9.2c7,0,12.7,4,12.7,9.1S-124,464.9-131,464.9"/>
		<path class="st1" d="M-138.8,455.8c0-0.6,0.3-1.3,0.7-1.7c0.8-0.6,3.2-2,7-2s6.2,1.4,7,2c0.7,0.5,0.8,1.6,0.6,2.6
			c-0.4,0.9-1.3,1.1-2,0.7c-0.7-0.5-2.5-1.6-5.6-1.6c-3.1,0-4.9,1.1-5.6,1.7c-0.7,0.6-1.5,0.2-2-0.7
			C-138.7,456.3-138.8,456.1-138.8,455.8"/>
	</g>
	<g>
		<path class="st3" d="M-124,470.1l1.7-0.4l0.9-0.2l0.1,0c0.1,0.4,3.5,3.5,3.8,3.1c0.1,0.4,0.3,0.8,0.5,1.2l-0.1,0l-0.9,0.4
			l-2.6,1.1c-0.1,0-0.2,0.1-0.2,0.1c-1.1,0.4-2.3-0.2-2.7-1.2c-0.1-0.4-0.1-0.9,0-1.3c-0.7,0.1-1.4-0.3-1.6-0.9
			C-125.4,471.1-124.9,470.3-124,470.1z"/>
		<g>
			<path class="st4" d="M-121.3,474.5c0.1,0,0.2-0.1,0.2-0.1l2.6-1.1c0,0,0,0,0,0c0.3-0.1-0.1-1.6,0.2-1.9c0,0.1,1.1,1.1,1.2,1.2
				c0,0,0.1,0.2,0.1,0.3c0,0,0.3,0.7-0.1,0.9l-0.1,0l-0.9,0.4l-2.6,1.1c-0.1,0-0.2,0.1-0.2,0.1c-1.1,0.4-2.3-0.2-2.7-1.2
				c0-0.2-0.1-0.3-0.1-0.5C-123.3,474.4-122.3,474.8-121.3,474.5z"/>
			<path class="st4" d="M-121.9,471.3c0-0.1-0.1-0.3-0.1-0.4c-0.1-0.4-0.2-0.8-0.3-1.1c0,0,0,0,0-0.1l0.9-0.2l0.1,0
				c0.4,0.1,1,0.7,1,0.7c0,0.1,0,1-0.3,1.5l-0.1,0l-0.8,0.3l-1.6,0.7c-0.1,0-0.1,0-0.2,0.1c-0.1,0-0.2,0.1-0.3,0.1
				c-0.7,0.1-1.4-0.3-1.6-0.9c0-0.1-0.1-0.3-0.1-0.4c0.3,0.4,0.8,0.6,1.4,0.5c0.1,0,0.2,0,0.3-0.1c0.1,0,0.1,0,0.2-0.1L-121.9,471.3
				z"/>
		</g>
		<path class="st5" d="M-118.1,467.7c0.2-0.4,0.5-0.7,1-0.9c1.6-0.5,4.4,0.9,5.2,3.5s-0.6,5.4-2.2,5.9c-1.3,0.4-2.3-0.7-3.1-2.4
			c-0.2-0.4-0.3-0.7-0.5-1.2c-0.3,0.4-0.6,0.6-0.9,0.7c-0.9,0.3-1.6-0.5-2.1-1.7c-0.2-0.3-0.3-0.7-0.4-1.1c-0.1-0.4-0.2-0.8-0.3-1.1
			c-0.3-1.3-0.1-2.3,0.8-2.6C-119.9,466.7-118.9,467-118.1,467.7z"/>
		<path class="st6" d="M-118.9,472.2c0.3-0.1,0.7-0.4,0.9-0.7c0.5-0.7,0.8-1.7,0.7-2.7c0.1,0.2,0.2,0.4,0.2,0.6
			c0.4,1.2,0.1,2.4-0.5,3.2c0,0,0,0,0,0c0.8,1.6,1.8,2.6,3,2.2c1.5-0.5,2.8-2.8,2.4-5.1c0.1,0.2,0.2,0.5,0.3,0.7
			c0.8,2.6-0.6,5.4-2.2,5.9c-1.3,0.4-2.3-0.7-3.1-2.4c-0.2-0.4-0.3-0.7-0.5-1.2c0,0,0,0,0-0.1c0,0,0,0,0,0.1
			c-0.3,0.4-0.6,0.6-0.9,0.7c-0.9,0.3-1.6-0.5-2.1-1.7c-0.2-0.3-0.3-0.7-0.4-1.1c-0.1-0.2-0.1-0.4-0.2-0.6c0.1,0.2,0.1,0.3,0.2,0.5
			C-120.5,471.7-119.8,472.5-118.9,472.2z"/>
		<g>
		</g>
		<g>
		</g>
		<g>
		</g>
		<g>
		</g>
		<g>
		</g>
		<g>
		</g>
		<g>
		</g>
		<g>
		</g>
		<g>
		</g>
		<g>
		</g>
		<g>
		</g>
		<g>
		</g>
		<g>
		</g>
		<g>
		</g>
		<g>
		</g>
	</g>
	<g>
		<path class="st3" d="M-124,509.7l1.7-0.4l0.9-0.2l0.1,0c0.1,0.4,3.5,3.5,3.8,3.1c0.1,0.4,0.3,0.8,0.5,1.2l-0.1,0l-0.9,0.4
			l-2.6,1.1c-0.1,0-0.2,0.1-0.2,0.1c-1.1,0.4-2.3-0.2-2.7-1.2c-0.1-0.4-0.1-0.9,0-1.3c-0.7,0.1-1.4-0.3-1.6-0.9
			C-125.4,510.7-124.9,509.9-124,509.7z"/>
		<g>
			<path class="st4" d="M-121.3,514.1c0.1,0,0.2-0.1,0.2-0.1l2.6-1.1c0,0,0,0,0,0c0.3-0.1-0.1-1.6,0.2-1.9c0,0.1,1.1,1.1,1.2,1.2
				c0,0,0.1,0.2,0.1,0.3c0,0,0.3,0.7-0.1,0.9l-0.1,0l-0.9,0.4l-2.6,1.1c-0.1,0-0.2,0.1-0.2,0.1c-1.1,0.4-2.3-0.2-2.7-1.2
				c0-0.2-0.1-0.3-0.1-0.5C-123.3,514-122.3,514.4-121.3,514.1z"/>
			<path class="st4" d="M-121.9,510.9c0-0.1-0.1-0.3-0.1-0.4c-0.1-0.4-0.2-0.8-0.3-1.1c0,0,0,0,0-0.1l0.9-0.2l0.1,0
				c0.4,0.1,1,0.7,1,0.7c0,0.1,0,1-0.3,1.5l-0.1,0l-0.8,0.3l-1.6,0.7c-0.1,0-0.1,0-0.2,0.1c-0.1,0-0.2,0.1-0.3,0.1
				c-0.7,0.1-1.4-0.3-1.6-0.9c0-0.1-0.1-0.3-0.1-0.4c0.3,0.4,0.8,0.6,1.4,0.5c0.1,0,0.2,0,0.3-0.1c0.1,0,0.1,0,0.2-0.1L-121.9,510.9
				z"/>
		</g>
		<path class="st5" d="M-118.1,507.3c0.2-0.4,0.5-0.7,1-0.9c1.6-0.5,4.4,0.9,5.2,3.5c0.8,2.6-0.6,5.4-2.2,5.9
			c-1.3,0.4-2.3-0.7-3.1-2.4c-0.2-0.4-0.3-0.7-0.5-1.2c-0.3,0.4-0.6,0.6-0.9,0.7c-0.9,0.3-1.6-0.5-2.1-1.7c-0.2-0.3-0.3-0.7-0.4-1.1
			c-0.1-0.4-0.2-0.8-0.3-1.1c-0.3-1.3-0.1-2.3,0.8-2.6C-119.9,506.2-118.9,506.6-118.1,507.3z"/>
		<path class="st6" d="M-118.9,511.8c0.3-0.1,0.7-0.4,0.9-0.7c0.5-0.7,0.8-1.7,0.7-2.7c0.1,0.2,0.2,0.4,0.2,0.6
			c0.4,1.2,0.1,2.4-0.5,3.2c0,0,0,0,0,0c0.8,1.6,1.8,2.6,3,2.2c1.5-0.5,2.8-2.8,2.4-5.1c0.1,0.2,0.2,0.5,0.3,0.7
			c0.8,2.6-0.6,5.4-2.2,5.9c-1.3,0.4-2.3-0.7-3.1-2.4c-0.2-0.4-0.3-0.7-0.5-1.2c0,0,0,0,0-0.1c0,0,0,0,0,0.1
			c-0.3,0.4-0.6,0.6-0.9,0.7c-0.9,0.3-1.6-0.5-2.1-1.7c-0.2-0.3-0.3-0.7-0.4-1.1c-0.1-0.2-0.1-0.4-0.2-0.6c0.1,0.2,0.1,0.3,0.2,0.5
			C-120.5,511.3-119.8,512.1-118.9,511.8z"/>
		<g>
		</g>
		<g>
		</g>
		<g>
		</g>
		<g>
		</g>
		<g>
		</g>
		<g>
		</g>
		<g>
		</g>
		<g>
		</g>
		<g>
		</g>
		<g>
		</g>
		<g>
		</g>
		<g>
		</g>
		<g>
		</g>
		<g>
		</g>
		<g>
		</g>
	</g>
	<g>
		<path class="st3" d="M-139.3,499.4l-1.5-0.9l-0.8-0.4l-0.1,0c0.2-0.3-0.1-5-0.6-4.9c0.2-0.4,0.3-0.8,0.5-1.2l0.1,0l0.9,0.4l2.6,1
			c0.1,0,0.2,0.1,0.2,0.1c1.1,0.5,1.6,1.7,1.1,2.7c-0.2,0.4-0.5,0.7-0.9,0.9c0.6,0.4,0.8,1.1,0.5,1.7
			C-137.6,499.6-138.6,499.9-139.3,499.4z"/>
		<g>
			<path class="st4" d="M-138.3,494.4c-0.1,0-0.1-0.1-0.2-0.1l-2.6-1c0,0,0,0,0,0c-0.3-0.1-1,1.2-1.5,1.2c0-0.1-0.1-1.6,0-1.6
				c0,0,0.1-0.2,0.1-0.3c0,0,0.3-0.7,0.7-0.6l0.1,0l0.9,0.4l2.6,1c0.1,0,0.2,0.1,0.2,0.1c1.1,0.5,1.6,1.7,1.1,2.7
				c-0.1,0.1-0.2,0.3-0.3,0.4C-136.9,495.8-137.4,494.8-138.3,494.4z"/>
			<path class="st4" d="M-140,497c-0.1,0.1-0.1,0.3-0.2,0.4c-0.2,0.4-0.4,0.7-0.6,1c0,0,0,0,0,0.1l-0.8-0.4l-0.1,0
				c-0.2-0.4-0.2-1.2-0.2-1.2c0.1-0.1,0.7-0.7,1.2-0.8l0.1,0l0.8,0.3l1.6,0.6c0.1,0,0.1,0,0.2,0.1c0.1,0,0.2,0.1,0.2,0.1
				c0.6,0.4,0.8,1.1,0.5,1.7c-0.1,0.1-0.1,0.2-0.2,0.3c0.1-0.5-0.2-1-0.6-1.3c-0.1-0.1-0.2-0.1-0.2-0.1c0,0-0.1,0-0.2-0.1L-140,497z
				"/>
		</g>
		<path class="st5" d="M-145.3,497c-0.4,0.2-0.9,0.2-1.3-0.1c-1.5-0.7-2.5-3.7-1.4-6.1s4.1-3.5,5.7-2.7c1.2,0.6,1.2,2.1,0.6,3.9
			c-0.1,0.4-0.3,0.8-0.5,1.2c0.4-0.1,0.9,0,1.2,0.1c0.8,0.4,0.8,1.4,0.4,2.7c-0.1,0.3-0.3,0.7-0.5,1.1c-0.2,0.4-0.4,0.7-0.6,1
			c-0.7,1.1-1.5,1.8-2.3,1.4C-144.7,499.1-145.2,498.1-145.3,497z"/>
		<path class="st6" d="M-141.6,494.4c-0.3-0.2-0.7-0.2-1.2-0.1c-0.8,0.1-1.8,0.6-2.4,1.5c0.1-0.2,0.1-0.4,0.2-0.6
			c0.5-1.1,1.6-1.8,2.6-2c0,0,0,0,0,0c0.6-1.7,0.5-3.1-0.6-3.7c-1.4-0.7-3.9,0.1-5.3,2.1c0.1-0.2,0.2-0.5,0.3-0.7
			c1.2-2.5,4.1-3.5,5.7-2.7c1.2,0.6,1.2,2.1,0.6,3.9c-0.1,0.4-0.3,0.8-0.5,1.2c0,0,0,0-0.1,0c0,0,0,0,0.1,0c0.4-0.1,0.9,0,1.2,0.1
			c0.8,0.4,0.8,1.4,0.4,2.7c-0.1,0.3-0.3,0.7-0.5,1.1c-0.1,0.2-0.2,0.4-0.3,0.5c0.1-0.2,0.1-0.3,0.2-0.5
			C-140.7,495.8-140.7,494.8-141.6,494.4z"/>
		<g>
		</g>
		<g>
		</g>
		<g>
		</g>
		<g>
		</g>
		<g>
		</g>
		<g>
		</g>
		<g>
		</g>
		<g>
		</g>
		<g>
		</g>
		<g>
		</g>
		<g>
		</g>
		<g>
		</g>
		<g>
		</g>
		<g>
		</g>
		<g>
		</g>
	</g>
	<g>
		<path class="st3" d="M-135.8,529.4l-1.3,1.1l-0.7,0.6l0,0c-0.2-0.3-4.7-1.5-4.8-1.1c-0.3-0.3-0.6-0.6-0.9-0.8l0.1-0.1l0.7-0.8
			l1.9-2.2c0.1-0.1,0.1-0.1,0.2-0.2c0.8-0.8,2.1-0.9,2.9-0.1c0.3,0.3,0.5,0.7,0.5,1.2c0.6-0.4,1.3-0.4,1.8,0.1
			C-135,527.9-135.1,528.9-135.8,529.4z"/>
		<g>
			<path class="st4" d="M-140.2,526.8c-0.1,0.1-0.1,0.1-0.2,0.2l-1.8,2.1c0,0,0,0,0,0c-0.2,0.3,0.8,1.4,0.7,1.8
				c-0.1-0.1-1.5-0.5-1.6-0.5c0,0-0.2-0.1-0.2-0.2c0,0-0.6-0.5-0.3-0.9l0.1-0.1l0.7-0.8l1.9-2.2c0.1-0.1,0.1-0.1,0.2-0.2
				c0.8-0.8,2.1-0.9,2.9-0.1c0.1,0.1,0.2,0.2,0.3,0.4C-138.4,525.9-139.5,526.1-140.2,526.8z"/>
			<path class="st4" d="M-138.2,529.4c0.1,0.1,0.2,0.2,0.3,0.3c0.3,0.3,0.6,0.6,0.8,0.9c0,0,0,0,0,0.1l-0.7,0.6l0,0
				c-0.4,0.1-1.2-0.2-1.2-0.2c-0.1-0.1-0.5-0.9-0.4-1.5l0,0l0.6-0.7l1.1-1.3c0,0,0.1-0.1,0.1-0.1c0.1-0.1,0.1-0.1,0.2-0.2
				c0.6-0.4,1.3-0.4,1.8,0.1c0.1,0.1,0.2,0.2,0.2,0.3c-0.5-0.2-1-0.2-1.5,0.1c-0.1,0.1-0.1,0.1-0.2,0.2c0,0-0.1,0.1-0.1,0.1
				L-138.2,529.4z"/>
		</g>
		<path class="st5" d="M-140,534.3c0,0.5-0.1,0.9-0.5,1.2c-1.2,1.2-4.3,1.2-6.2-0.7c-1.9-1.9-1.9-5-0.7-6.2c0.9-0.9,2.4-0.5,3.9,0.7
			c0.3,0.2,0.6,0.5,0.9,0.8c0.1-0.4,0.3-0.8,0.5-1.1c0.7-0.7,1.6-0.3,2.7,0.5c0.3,0.2,0.6,0.5,0.9,0.8c0.3,0.3,0.6,0.6,0.8,0.9
			c0.8,1,1.2,2,0.5,2.7C-137.8,534.4-138.9,534.6-140,534.3z"/>
		<path class="st6" d="M-141.3,529.9c-0.3,0.3-0.4,0.6-0.5,1.1c-0.2,0.8,0,1.9,0.6,2.8c-0.2-0.1-0.3-0.2-0.5-0.4
			c-0.9-0.9-1.2-2.1-1-3.1c0,0,0,0,0,0c-1.4-1.1-2.8-1.5-3.7-0.6c-1.1,1.1-1.2,3.7,0.2,5.7c-0.2-0.2-0.4-0.3-0.6-0.5
			c-1.9-1.9-1.9-5-0.7-6.2c0.9-0.9,2.4-0.5,3.9,0.7c0.3,0.2,0.6,0.5,0.9,0.8c0,0,0,0,0,0.1c0,0,0,0,0-0.1c0.1-0.4,0.3-0.8,0.5-1.1
			c0.7-0.7,1.6-0.3,2.7,0.5c0.3,0.2,0.6,0.5,0.9,0.8c0.1,0.1,0.3,0.3,0.4,0.4c-0.1-0.1-0.3-0.2-0.4-0.4
			C-139.6,529.6-140.6,529.3-141.3,529.9z"/>
		<g>
		</g>
		<g>
		</g>
		<g>
		</g>
		<g>
		</g>
		<g>
		</g>
		<g>
		</g>
		<g>
		</g>
		<g>
		</g>
		<g>
		</g>
		<g>
		</g>
		<g>
		</g>
		<g>
		</g>
		<g>
		</g>
		<g>
		</g>
		<g>
		</g>
	</g>
</g>
<g>
	<g>
		<path class="st0" d="M46.5,451.3l-0.3-88.1c0,5.1-5.6,9.2-12.6,9.2s-12.7-4-12.7-9.1l0.3,88.1c0,5.1,5.7,9.2,12.7,9.1
			C40.9,460.5,46.5,456.4,46.5,451.3"/>
		<g>
			<path class="st1" d="M39.3,387.1l-0.1-16.1c0-1.1,0.6-1.8,1.4-1.8c0.8,0,1.4,0.7,1.4,1.8l0.1,16.1c0,1.1-0.6,1.8-1.4,1.8
				C39.8,388.9,39.3,388.2,39.3,387.1"/>
			<path class="st1" d="M39.4,423.8l-0.1-29.4c0-1.1,0.6-1.8,1.4-1.8c0.8,0,1.4,0.7,1.4,1.8l0.1,29.4c0,1.1-0.6,1.8-1.4,1.8
				C40,425.6,39.4,424.9,39.4,423.8"/>
			<path class="st1" d="M39.5,456.8l-0.1-25.7c0-1.1,0.6-1.8,1.4-1.8c0.8,0,1.4,0.7,1.4,1.8l0.1,25.7c0,1.1-0.6,1.8-1.4,1.8
				C40.1,458.6,39.5,457.9,39.5,456.8"/>
			<path class="st1" d="M32.3,414.6l0-5.5c0-1.1,0.6-1.8,1.4-1.8c0.8,0,1.4,0.7,1.4,1.8l0,5.5c0,1.1-0.6,1.8-1.4,1.8
				C32.9,416.5,32.3,415.7,32.3,414.6"/>
			<path class="st1" d="M32.3,398.1l-0.1-18.3c0-1.1,0.6-1.8,1.4-1.8c0.8,0,1.4,0.7,1.4,1.8l0.1,18.3c0,1.1-0.6,1.8-1.4,1.8
				S32.3,399.2,32.3,398.1"/>
			<path class="st1" d="M32.4,433l0-11c0-1.1,0.6-1.8,1.4-1.8c0.8,0,1.4,0.7,1.4,1.8l0,11c0,1.1-0.6,1.8-1.4,1.8
				C33,434.8,32.4,434.1,32.4,433"/>
			<path class="st1" d="M32.5,458.6l-0.1-16.5c0-1.1,0.6-1.8,1.4-1.8c0.8,0,1.4,0.7,1.4,1.8l0.1,16.5c0,1.1-0.6,1.8-1.4,1.8
				C33,460.5,32.5,459.7,32.5,458.6"/>
			<path class="st1" d="M25.2,389l-0.1-18c0-1.1,0.6-1.8,1.4-1.8s1.4,0.7,1.4,1.8l0.1,18c0,1.1-0.6,1.8-1.4,1.8
				C25.8,390.8,25.2,390.1,25.2,389"/>
			<path class="st1" d="M25.4,449.5l-0.1-14.7c0-1.1,0.6-1.8,1.4-1.8c0.8,0,1.4,0.7,1.4,1.8l0.1,14.7c0,1.1-0.6,1.8-1.4,1.8
				C26,451.3,25.4,450.6,25.4,449.5"/>
			<path class="st1" d="M25.3,422l-0.1-22c0-1.1,0.6-1.8,1.4-1.8s1.4,0.7,1.4,1.8l0.1,22c0,1.1-0.6,1.8-1.4,1.8
				C25.9,423.8,25.3,423.1,25.3,422"/>
		</g>
		<path class="st2" d="M33.6,372.4c-7,0-12.7-4-12.7-9.1c0-5.1,5.6-9.2,12.6-9.2c7,0,12.7,4,12.7,9.1
			C46.2,368.3,40.6,372.4,33.6,372.4"/>
		<path class="st1" d="M25.8,363.3c0-0.6,0.3-1.3,0.7-1.7c0.8-0.6,3.2-2,7-2s6.2,1.4,7,2c0.7,0.5,0.8,1.6,0.6,2.6
			c-0.4,0.9-1.3,1.1-2,0.7c-0.7-0.5-2.5-1.6-5.6-1.6s-4.9,1.1-5.6,1.7c-0.7,0.6-1.5,0.2-2-0.7C26,363.8,25.8,363.6,25.8,363.3"/>
	</g>
	<g>
		<path class="st3" d="M40.6,377.6l1.7-0.4l0.9-0.2l0.1,0c0.1,0.4,3.5,3.5,3.8,3.1c0.1,0.4,0.3,0.8,0.5,1.2l-0.1,0l-0.9,0.4
			l-2.6,1.1c-0.1,0-0.2,0.1-0.2,0.1c-1.1,0.4-2.3-0.2-2.7-1.2c-0.1-0.4-0.1-0.9,0-1.3c-0.7,0.1-1.4-0.3-1.6-0.9
			C39.2,378.7,39.7,377.8,40.6,377.6z"/>
		<g>
			<path class="st4" d="M43.3,382c0.1,0,0.2-0.1,0.2-0.1l2.6-1.1c0,0,0,0,0,0c0.3-0.1-0.1-1.6,0.2-1.9c0,0.1,1.1,1.1,1.2,1.2
				c0,0,0.1,0.2,0.1,0.3c0,0,0.3,0.7-0.1,0.9l-0.1,0l-0.9,0.4l-2.6,1.1c-0.1,0-0.2,0.1-0.2,0.1c-1.1,0.4-2.3-0.2-2.7-1.2
				c0-0.2-0.1-0.3-0.1-0.5C41.4,381.9,42.4,382.3,43.3,382z"/>
			<path class="st4" d="M42.8,378.8c0-0.1-0.1-0.3-0.1-0.4c-0.1-0.4-0.2-0.8-0.3-1.1c0,0,0,0,0-0.1l0.9-0.2l0.1,0
				c0.4,0.1,1,0.7,1,0.7c0,0.1,0,1-0.3,1.5l-0.1,0l-0.8,0.3l-1.6,0.7c-0.1,0-0.1,0-0.2,0.1c-0.1,0-0.2,0.1-0.3,0.1
				c-0.7,0.1-1.4-0.3-1.6-0.9c0-0.1-0.1-0.3-0.1-0.4c0.3,0.4,0.8,0.6,1.4,0.5c0.1,0,0.2,0,0.3-0.1c0.1,0,0.1,0,0.2-0.1L42.8,378.8z"
				/>
		</g>
		<path class="st5" d="M46.5,375.2c0.2-0.4,0.5-0.7,1-0.9c1.6-0.5,4.4,0.9,5.2,3.5c0.8,2.6-0.6,5.4-2.2,5.9
			c-1.3,0.4-2.3-0.7-3.1-2.4c-0.2-0.4-0.3-0.7-0.5-1.2c-0.3,0.4-0.6,0.6-0.9,0.7c-0.9,0.3-1.6-0.5-2.1-1.7c-0.2-0.3-0.3-0.7-0.4-1.1
			c-0.1-0.4-0.2-0.8-0.3-1.1c-0.3-1.3-0.1-2.3,0.8-2.6C44.7,374.2,45.7,374.5,46.5,375.2z"/>
		<path class="st6" d="M45.7,379.7c0.3-0.1,0.7-0.4,0.9-0.7c0.5-0.7,0.8-1.7,0.7-2.7c0.1,0.2,0.2,0.4,0.2,0.6
			c0.4,1.2,0.1,2.4-0.5,3.2c0,0,0,0,0,0c0.8,1.6,1.8,2.6,3,2.2c1.5-0.5,2.8-2.8,2.4-5.1c0.1,0.2,0.2,0.5,0.3,0.7
			c0.8,2.6-0.6,5.4-2.2,5.9c-1.3,0.4-2.3-0.7-3.1-2.4c-0.2-0.4-0.3-0.7-0.5-1.2c0,0,0,0,0-0.1c0,0,0,0,0,0.1
			c-0.3,0.4-0.6,0.6-0.9,0.7c-0.9,0.3-1.6-0.5-2.1-1.7c-0.2-0.3-0.3-0.7-0.4-1.1c-0.1-0.2-0.1-0.4-0.2-0.6c0.1,0.2,0.1,0.3,0.2,0.5
			C44.1,379.2,44.8,380,45.7,379.7z"/>
		<g>
		</g>
		<g>
		</g>
		<g>
		</g>
		<g>
		</g>
		<g>
		</g>
		<g>
		</g>
		<g>
		</g>
		<g>
		</g>
		<g>
		</g>
		<g>
		</g>
		<g>
		</g>
		<g>
		</g>
		<g>
		</g>
		<g>
		</g>
		<g>
		</g>
	</g>
	<g>
		<path class="st3" d="M40.6,417.2l1.7-0.4l0.9-0.2l0.1,0c0.1,0.4,3.5,3.5,3.8,3.1c0.1,0.4,0.3,0.8,0.5,1.2l-0.1,0l-0.9,0.4
			l-2.6,1.1c-0.1,0-0.2,0.1-0.2,0.1c-1.1,0.4-2.3-0.2-2.7-1.2c-0.1-0.4-0.1-0.9,0-1.3c-0.7,0.1-1.4-0.3-1.6-0.9
			C39.2,418.2,39.7,417.4,40.6,417.2z"/>
		<g>
			<path class="st4" d="M43.3,421.6c0.1,0,0.2-0.1,0.2-0.1l2.6-1.1c0,0,0,0,0,0c0.3-0.1-0.1-1.6,0.2-1.9c0,0.1,1.1,1.1,1.2,1.2
				c0,0,0.1,0.2,0.1,0.3c0,0,0.3,0.7-0.1,0.9l-0.1,0l-0.9,0.4l-2.6,1.1c-0.1,0-0.2,0.1-0.2,0.1c-1.1,0.4-2.3-0.2-2.7-1.2
				c0-0.2-0.1-0.3-0.1-0.5C41.4,421.5,42.4,421.9,43.3,421.6z"/>
			<path class="st4" d="M42.8,418.4c0-0.1-0.1-0.3-0.1-0.4c-0.1-0.4-0.2-0.8-0.3-1.1c0,0,0,0,0-0.1l0.9-0.2l0.1,0
				c0.4,0.1,1,0.7,1,0.7c0,0.1,0,1-0.3,1.5l-0.1,0l-0.8,0.3l-1.6,0.7c-0.1,0-0.1,0-0.2,0.1c-0.1,0-0.2,0.1-0.3,0.1
				c-0.7,0.1-1.4-0.3-1.6-0.9c0-0.1-0.1-0.3-0.1-0.4c0.3,0.4,0.8,0.6,1.4,0.5c0.1,0,0.2,0,0.3-0.1c0.1,0,0.1,0,0.2-0.1L42.8,418.4z"
				/>
		</g>
		<path class="st5" d="M46.5,414.8c0.2-0.4,0.5-0.7,1-0.9c1.6-0.5,4.4,0.9,5.2,3.5c0.8,2.6-0.6,5.4-2.2,5.9
			c-1.3,0.4-2.3-0.7-3.1-2.4c-0.2-0.4-0.3-0.7-0.5-1.2c-0.3,0.4-0.6,0.6-0.9,0.7c-0.9,0.3-1.6-0.5-2.1-1.7c-0.2-0.3-0.3-0.7-0.4-1.1
			c-0.1-0.4-0.2-0.8-0.3-1.1c-0.3-1.3-0.1-2.3,0.8-2.6C44.7,413.7,45.7,414.1,46.5,414.8z"/>
		<path class="st6" d="M45.7,419.3c0.3-0.1,0.7-0.4,0.9-0.7c0.5-0.7,0.8-1.7,0.7-2.7c0.1,0.2,0.2,0.4,0.2,0.6
			c0.4,1.2,0.1,2.4-0.5,3.2c0,0,0,0,0,0c0.8,1.6,1.8,2.6,3,2.2c1.5-0.5,2.8-2.8,2.4-5.1c0.1,0.2,0.2,0.5,0.3,0.7
			c0.8,2.6-0.6,5.4-2.2,5.9c-1.3,0.4-2.3-0.7-3.1-2.4c-0.2-0.4-0.3-0.7-0.5-1.2c0,0,0,0,0-0.1c0,0,0,0,0,0.1
			c-0.3,0.4-0.6,0.6-0.9,0.7c-0.9,0.3-1.6-0.5-2.1-1.7c-0.2-0.3-0.3-0.7-0.4-1.1c-0.1-0.2-0.1-0.4-0.2-0.6c0.1,0.2,0.1,0.3,0.2,0.5
			C44.1,418.8,44.8,419.6,45.7,419.3z"/>
		<g>
		</g>
		<g>
		</g>
		<g>
		</g>
		<g>
		</g>
		<g>
		</g>
		<g>
		</g>
		<g>
		</g>
		<g>
		</g>
		<g>
		</g>
		<g>
		</g>
		<g>
		</g>
		<g>
		</g>
		<g>
		</g>
		<g>
		</g>
		<g>
		</g>
	</g>
	<g>
		<path class="st3" d="M25.3,406.9l-1.5-0.9l-0.8-0.4l-0.1,0c0.2-0.3-0.1-5-0.6-4.9c0.2-0.4,0.3-0.8,0.5-1.2l0.1,0l0.9,0.4l2.6,1
			c0.1,0,0.2,0.1,0.2,0.1c1.1,0.5,1.6,1.7,1.1,2.7c-0.2,0.4-0.5,0.7-0.9,0.9c0.6,0.4,0.8,1.1,0.5,1.7
			C27,407.1,26.1,407.4,25.3,406.9z"/>
		<g>
			<path class="st4" d="M26.4,401.9c-0.1,0-0.1-0.1-0.2-0.1l-2.6-1c0,0,0,0,0,0c-0.3-0.1-1,1.2-1.5,1.2c0-0.1-0.1-1.6,0-1.6
				c0,0,0.1-0.2,0.1-0.3c0,0,0.3-0.7,0.7-0.6l0.1,0l0.9,0.4l2.6,1c0.1,0,0.2,0.1,0.2,0.1c1.1,0.5,1.6,1.7,1.1,2.7
				c-0.1,0.1-0.2,0.3-0.3,0.4C27.8,403.3,27.3,402.3,26.4,401.9z"/>
			<path class="st4" d="M24.6,404.6c-0.1,0.1-0.1,0.3-0.2,0.4c-0.2,0.4-0.4,0.7-0.6,1c0,0,0,0,0,0.1l-0.8-0.4l-0.1,0
				c-0.2-0.4-0.2-1.2-0.2-1.2c0.1-0.1,0.7-0.7,1.2-0.8l0.1,0l0.8,0.3l1.6,0.6c0.1,0,0.1,0,0.2,0.1c0.1,0,0.2,0.1,0.2,0.1
				c0.6,0.4,0.8,1.1,0.5,1.7c-0.1,0.1-0.1,0.2-0.2,0.3c0.1-0.5-0.2-1-0.6-1.3c-0.1-0.1-0.2-0.1-0.2-0.1c0,0-0.1,0-0.2-0.1
				L24.6,404.6z"/>
		</g>
		<path class="st5" d="M19.4,404.5c-0.4,0.2-0.9,0.2-1.3-0.1c-1.5-0.7-2.5-3.7-1.4-6.1s4.1-3.5,5.7-2.7c1.2,0.6,1.2,2.1,0.6,3.9
			c-0.1,0.4-0.3,0.8-0.5,1.2c0.4-0.1,0.9,0,1.2,0.1c0.8,0.4,0.8,1.4,0.4,2.7c-0.1,0.3-0.3,0.7-0.5,1.1c-0.2,0.4-0.4,0.7-0.6,1
			c-0.7,1.1-1.5,1.8-2.3,1.4C20,406.6,19.4,405.6,19.4,404.5z"/>
		<path class="st6" d="M23.1,401.9c-0.3-0.2-0.7-0.2-1.2-0.1c-0.8,0.1-1.8,0.6-2.4,1.5c0.1-0.2,0.1-0.4,0.2-0.6
			c0.5-1.1,1.6-1.8,2.6-2c0,0,0,0,0,0c0.6-1.7,0.5-3.1-0.6-3.7c-1.4-0.7-3.9,0.1-5.3,2.1c0.1-0.2,0.2-0.5,0.3-0.7
			c1.2-2.5,4.1-3.5,5.7-2.7c1.2,0.6,1.2,2.1,0.6,3.9c-0.1,0.4-0.3,0.8-0.5,1.2c0,0,0,0-0.1,0c0,0,0,0,0.1,0c0.4-0.1,0.9,0,1.2,0.1
			c0.8,0.4,0.8,1.4,0.4,2.7c-0.1,0.3-0.3,0.7-0.5,1.1c-0.1,0.2-0.2,0.4-0.3,0.5c0.1-0.2,0.1-0.3,0.2-0.5
			C23.9,403.3,23.9,402.3,23.1,401.9z"/>
		<g>
		</g>
		<g>
		</g>
		<g>
		</g>
		<g>
		</g>
		<g>
		</g>
		<g>
		</g>
		<g>
		</g>
		<g>
		</g>
		<g>
		</g>
		<g>
		</g>
		<g>
		</g>
		<g>
		</g>
		<g>
		</g>
		<g>
		</g>
		<g>
		</g>
	</g>
	<g>
		<path class="st3" d="M28.9,436.9l-1.3,1.1l-0.7,0.6l0,0c-0.2-0.3-4.7-1.5-4.8-1.1c-0.3-0.3-0.6-0.6-0.9-0.8l0.1-0.1l0.7-0.8
			l1.9-2.2c0.1-0.1,0.1-0.1,0.2-0.2c0.8-0.8,2.1-0.9,2.9-0.1c0.3,0.3,0.5,0.7,0.5,1.2c0.6-0.4,1.3-0.4,1.8,0.1
			C29.6,435.4,29.5,436.4,28.9,436.9z"/>
		<g>
			<path class="st4" d="M24.4,434.3c-0.1,0.1-0.1,0.1-0.2,0.2l-1.8,2.1c0,0,0,0,0,0c-0.2,0.3,0.8,1.4,0.7,1.8
				c-0.1-0.1-1.5-0.5-1.6-0.5c0,0-0.2-0.1-0.2-0.2c0,0-0.6-0.5-0.3-0.9l0.1-0.1l0.7-0.8l1.9-2.2c0.1-0.1,0.1-0.1,0.2-0.2
				c0.8-0.8,2.1-0.9,2.9-0.1c0.1,0.1,0.2,0.2,0.3,0.4C26.2,433.4,25.1,433.6,24.4,434.3z"/>
			<path class="st4" d="M26.4,436.9c0.1,0.1,0.2,0.2,0.3,0.3c0.3,0.3,0.6,0.6,0.8,0.9c0,0,0,0,0,0.1l-0.7,0.6l0,0
				c-0.4,0.1-1.2-0.2-1.2-0.2c-0.1-0.1-0.5-0.9-0.4-1.5l0,0l0.6-0.7l1.1-1.3c0,0,0.1-0.1,0.1-0.1c0.1-0.1,0.1-0.1,0.2-0.2
				c0.6-0.4,1.3-0.4,1.8,0.1c0.1,0.1,0.2,0.2,0.2,0.3c-0.5-0.2-1-0.2-1.5,0.1c-0.1,0.1-0.1,0.1-0.2,0.2c0,0-0.1,0.1-0.1,0.1
				L26.4,436.9z"/>
		</g>
		<path class="st5" d="M24.7,441.8c0,0.5-0.1,0.9-0.5,1.2c-1.2,1.2-4.3,1.2-6.2-0.7c-1.9-1.9-1.9-5-0.7-6.2c0.9-0.9,2.4-0.5,3.9,0.7
			c0.3,0.2,0.6,0.5,0.9,0.8c0.1-0.4,0.3-0.8,0.5-1.1c0.7-0.7,1.6-0.3,2.7,0.5c0.3,0.2,0.6,0.5,0.9,0.8c0.3,0.3,0.6,0.6,0.8,0.9
			c0.8,1,1.2,2,0.5,2.7C26.8,441.9,25.7,442.1,24.7,441.8z"/>
		<path class="st6" d="M23.4,437.4c-0.3,0.3-0.4,0.6-0.5,1.1c-0.2,0.8,0,1.9,0.6,2.8c-0.2-0.1-0.3-0.2-0.5-0.4
			c-0.9-0.9-1.2-2.1-1-3.1c0,0,0,0,0,0c-1.4-1.1-2.8-1.5-3.7-0.6c-1.1,1.1-1.2,3.7,0.2,5.7c-0.2-0.2-0.4-0.3-0.6-0.5
			c-1.9-1.9-1.9-5-0.7-6.2c0.9-0.9,2.4-0.5,3.9,0.7c0.3,0.2,0.6,0.5,0.9,0.8c0,0,0,0,0,0.1c0,0,0,0,0-0.1c0.1-0.4,0.3-0.8,0.5-1.1
			c0.7-0.7,1.6-0.3,2.7,0.5c0.3,0.2,0.6,0.5,0.9,0.8c0.1,0.1,0.3,0.3,0.4,0.4c-0.1-0.1-0.3-0.2-0.4-0.4
			C25,437.1,24,436.8,23.4,437.4z"/>
		<g>
		</g>
		<g>
		</g>
		<g>
		</g>
		<g>
		</g>
		<g>
		</g>
		<g>
		</g>
		<g>
		</g>
		<g>
		</g>
		<g>
		</g>
		<g>
		</g>
		<g>
		</g>
		<g>
		</g>
		<g>
		</g>
		<g>
		</g>
		<g>
		</g>
	</g>
</g>
<g>
	<g>
		<path class="st0" d="M45.8,636.4l-0.3-88.1c0,5.1-5.6,9.2-12.6,9.2s-12.7-4-12.7-9.1l0.3,88.1c0,5.1,5.7,9.2,12.7,9.1
			S45.8,641.5,45.8,636.4"/>
		<g>
			<path class="st1" d="M38.5,572.2l-0.1-16.1c0-1.1,0.6-1.8,1.4-1.8c0.8,0,1.4,0.7,1.4,1.8l0.1,16.1c0,1.1-0.6,1.8-1.4,1.8
				C39.1,574.1,38.5,573.3,38.5,572.2"/>
			<path class="st1" d="M38.7,608.9l-0.1-29.4c0-1.1,0.6-1.8,1.4-1.8c0.8,0,1.4,0.7,1.4,1.8l0.1,29.4c0,1.1-0.6,1.8-1.4,1.8
				C39.2,610.8,38.7,610,38.7,608.9"/>
			<path class="st1" d="M38.8,641.9l-0.1-25.7c0-1.1,0.6-1.8,1.4-1.8c0.8,0,1.4,0.7,1.4,1.8l0.1,25.7c0,1.1-0.6,1.8-1.4,1.8
				C39.3,643.8,38.8,643,38.8,641.9"/>
			<path class="st1" d="M31.6,599.8l0-5.5c0-1.1,0.6-1.8,1.4-1.8c0.8,0,1.4,0.7,1.4,1.8l0,5.5c0,1.1-0.6,1.8-1.4,1.8
				C32.2,601.6,31.6,600.9,31.6,599.8"/>
			<path class="st1" d="M31.5,583.3l-0.1-18.3c0-1.1,0.6-1.8,1.4-1.8c0.8,0,1.4,0.7,1.4,1.8l0.1,18.3c0,1.1-0.6,1.8-1.4,1.8
				C32.1,585.1,31.6,584.4,31.5,583.3"/>
			<path class="st1" d="M31.7,618.1l0-11c0-1.1,0.6-1.8,1.4-1.8c0.8,0,1.4,0.7,1.4,1.8l0,11c0,1.1-0.6,1.8-1.4,1.8
				C32.2,619.9,31.7,619.2,31.7,618.1"/>
			<path class="st1" d="M31.8,643.8l-0.1-16.5c0-1.1,0.6-1.8,1.4-1.8c0.8,0,1.4,0.7,1.4,1.8l0.1,16.5c0,1.1-0.6,1.8-1.4,1.8
				C32.3,645.6,31.8,644.9,31.8,643.8"/>
			<path class="st1" d="M24.5,574.1l-0.1-18c0-1.1,0.6-1.8,1.4-1.8c0.8,0,1.4,0.7,1.4,1.8l0.1,18c0,1.1-0.6,1.8-1.4,1.8
				C25.1,575.9,24.5,575.2,24.5,574.1"/>
			<path class="st1" d="M24.7,634.6L24.6,620c0-1.1,0.6-1.8,1.4-1.8s1.4,0.7,1.4,1.8l0.1,14.7c0,1.1-0.6,1.8-1.4,1.8
				C25.3,636.5,24.7,635.8,24.7,634.6"/>
			<path class="st1" d="M24.6,607.1l-0.1-22c0-1.1,0.6-1.8,1.4-1.8s1.4,0.7,1.4,1.8l0.1,22c0,1.1-0.6,1.8-1.4,1.8
				C25.2,609,24.6,608.2,24.6,607.1"/>
		</g>
		<path class="st2" d="M32.9,557.6c-7,0-12.7-4-12.7-9.1c0-5.1,5.6-9.2,12.6-9.2s12.7,4,12.7,9.1C45.5,553.5,39.9,557.5,32.9,557.6"
			/>
		<path class="st1" d="M25.1,548.4c0-0.6,0.3-1.3,0.7-1.7c0.8-0.6,3.2-2,7-2c3.8,0,6.2,1.4,7,2c0.7,0.5,0.8,1.6,0.6,2.6
			c-0.4,0.9-1.3,1.1-2,0.7c-0.7-0.5-2.5-1.6-5.6-1.6s-4.9,1.1-5.6,1.7c-0.7,0.6-1.5,0.2-2-0.7C25.2,549,25.1,548.8,25.1,548.4"/>
	</g>
	<g>
		<path class="st3" d="M39.9,562.8l1.7-0.4l0.9-0.2l0.1,0c0.1,0.4,3.5,3.5,3.8,3.1c0.1,0.4,0.3,0.8,0.5,1.2l-0.1,0l-0.9,0.4
			l-2.6,1.1c-0.1,0-0.2,0.1-0.2,0.1c-1.1,0.4-2.3-0.2-2.7-1.2c-0.1-0.4-0.1-0.9,0-1.3c-0.7,0.1-1.4-0.3-1.6-0.9
			C38.5,563.8,39,563,39.9,562.8z"/>
		<g>
			<path class="st4" d="M42.6,567.1c0.1,0,0.2-0.1,0.2-0.1l2.6-1.1c0,0,0,0,0,0c0.3-0.1-0.1-1.6,0.2-1.9c0,0.1,1.1,1.1,1.2,1.2
				c0,0,0.1,0.2,0.1,0.3c0,0,0.3,0.7-0.1,0.9l-0.1,0l-0.9,0.4l-2.6,1.1c-0.1,0-0.2,0.1-0.2,0.1c-1.1,0.4-2.3-0.2-2.7-1.2
				c0-0.2-0.1-0.3-0.1-0.5C40.6,567.1,41.7,567.4,42.6,567.1z"/>
			<path class="st4" d="M42,564c0-0.1-0.1-0.3-0.1-0.4c-0.1-0.4-0.2-0.8-0.3-1.1c0,0,0,0,0-0.1l0.9-0.2l0.1,0c0.4,0.1,1,0.7,1,0.7
				c0,0.1,0,1-0.3,1.5l-0.1,0l-0.8,0.3l-1.6,0.7c-0.1,0-0.1,0-0.2,0.1c-0.1,0-0.2,0.1-0.3,0.1c-0.7,0.1-1.4-0.3-1.6-0.9
				c0-0.1-0.1-0.3-0.1-0.4c0.3,0.4,0.8,0.6,1.4,0.5c0.1,0,0.2,0,0.3-0.1c0.1,0,0.1,0,0.2-0.1L42,564z"/>
		</g>
		<path class="st5" d="M45.8,560.3c0.2-0.4,0.5-0.7,1-0.9c1.6-0.5,4.4,0.9,5.2,3.5c0.8,2.6-0.6,5.4-2.2,5.9
			c-1.3,0.4-2.3-0.7-3.1-2.4c-0.2-0.4-0.3-0.7-0.5-1.2c-0.3,0.4-0.6,0.6-0.9,0.7c-0.9,0.3-1.6-0.5-2.1-1.7c-0.2-0.3-0.3-0.7-0.4-1.1
			c-0.1-0.4-0.2-0.8-0.3-1.1c-0.3-1.3-0.1-2.3,0.8-2.6C44,559.3,45,559.6,45.8,560.3z"/>
		<path class="st6" d="M45,564.8c0.3-0.1,0.7-0.4,0.9-0.7c0.5-0.7,0.8-1.7,0.7-2.7c0.1,0.2,0.2,0.4,0.2,0.6c0.4,1.2,0.1,2.4-0.5,3.2
			c0,0,0,0,0,0c0.8,1.6,1.8,2.6,3,2.2c1.5-0.5,2.8-2.8,2.4-5.1c0.1,0.2,0.2,0.5,0.3,0.7c0.8,2.6-0.6,5.4-2.2,5.9
			c-1.3,0.4-2.3-0.7-3.1-2.4c-0.2-0.4-0.3-0.7-0.5-1.2c0,0,0,0,0-0.1c0,0,0,0,0,0.1c-0.3,0.4-0.6,0.6-0.9,0.7
			c-0.9,0.3-1.6-0.5-2.1-1.7c-0.2-0.3-0.3-0.7-0.4-1.1c-0.1-0.2-0.1-0.4-0.2-0.6c0.1,0.2,0.1,0.3,0.2,0.5
			C43.4,564.4,44.1,565.1,45,564.8z"/>
		<g>
		</g>
		<g>
		</g>
		<g>
		</g>
		<g>
		</g>
		<g>
		</g>
		<g>
		</g>
		<g>
		</g>
		<g>
		</g>
		<g>
		</g>
		<g>
		</g>
		<g>
		</g>
		<g>
		</g>
		<g>
		</g>
		<g>
		</g>
		<g>
		</g>
	</g>
	<g>
		<path class="st3" d="M39.9,602.4l1.7-0.4l0.9-0.2l0.1,0c0.1,0.4,3.5,3.5,3.8,3.1c0.1,0.4,0.3,0.8,0.5,1.2l-0.1,0l-0.9,0.4
			l-2.6,1.1c-0.1,0-0.2,0.1-0.2,0.1c-1.1,0.4-2.3-0.2-2.7-1.2c-0.1-0.4-0.1-0.9,0-1.3c-0.7,0.1-1.4-0.3-1.6-0.9
			C38.5,603.4,39,602.5,39.9,602.4z"/>
		<g>
			<path class="st4" d="M42.6,606.7c0.1,0,0.2-0.1,0.2-0.1l2.6-1.1c0,0,0,0,0,0c0.3-0.1-0.1-1.6,0.2-1.9c0,0.1,1.1,1.1,1.2,1.2
				c0,0,0.1,0.2,0.1,0.3c0,0,0.3,0.7-0.1,0.9l-0.1,0l-0.9,0.4l-2.6,1.1c-0.1,0-0.2,0.1-0.2,0.1c-1.1,0.4-2.3-0.2-2.7-1.2
				c0-0.2-0.1-0.3-0.1-0.5C40.6,606.7,41.7,607,42.6,606.7z"/>
			<path class="st4" d="M42,603.6c0-0.1-0.1-0.3-0.1-0.4c-0.1-0.4-0.2-0.8-0.3-1.1c0,0,0,0,0-0.1l0.9-0.2l0.1,0c0.4,0.1,1,0.7,1,0.7
				c0,0.1,0,1-0.3,1.5l-0.1,0l-0.8,0.3l-1.6,0.7c-0.1,0-0.1,0-0.2,0.1c-0.1,0-0.2,0.1-0.3,0.1c-0.7,0.1-1.4-0.3-1.6-0.9
				c0-0.1-0.1-0.3-0.1-0.4c0.3,0.4,0.8,0.6,1.4,0.5c0.1,0,0.2,0,0.3-0.1c0.1,0,0.1,0,0.2-0.1L42,603.6z"/>
		</g>
		<path class="st5" d="M45.8,599.9c0.2-0.4,0.5-0.7,1-0.9c1.6-0.5,4.4,0.9,5.2,3.5c0.8,2.6-0.6,5.4-2.2,5.9
			c-1.3,0.4-2.3-0.7-3.1-2.4c-0.2-0.4-0.3-0.7-0.5-1.2c-0.3,0.4-0.6,0.6-0.9,0.7c-0.9,0.3-1.6-0.5-2.1-1.7c-0.2-0.3-0.3-0.7-0.4-1.1
			c-0.1-0.4-0.2-0.8-0.3-1.1c-0.3-1.3-0.1-2.3,0.8-2.6C44,598.9,45,599.2,45.8,599.9z"/>
		<path class="st6" d="M45,604.4c0.3-0.1,0.7-0.4,0.9-0.7c0.5-0.7,0.8-1.7,0.7-2.7c0.1,0.2,0.2,0.4,0.2,0.6c0.4,1.2,0.1,2.4-0.5,3.2
			c0,0,0,0,0,0c0.8,1.6,1.8,2.6,3,2.2c1.5-0.5,2.8-2.8,2.4-5.1c0.1,0.2,0.2,0.5,0.3,0.7c0.8,2.6-0.6,5.4-2.2,5.9
			c-1.3,0.4-2.3-0.7-3.1-2.4c-0.2-0.4-0.3-0.7-0.5-1.2c0,0,0,0,0-0.1c0,0,0,0,0,0.1c-0.3,0.4-0.6,0.6-0.9,0.7
			c-0.9,0.3-1.6-0.5-2.1-1.7c-0.2-0.3-0.3-0.7-0.4-1.1c-0.1-0.2-0.1-0.4-0.2-0.6c0.1,0.2,0.1,0.3,0.2,0.5
			C43.4,604,44.1,604.7,45,604.4z"/>
		<g>
		</g>
		<g>
		</g>
		<g>
		</g>
		<g>
		</g>
		<g>
		</g>
		<g>
		</g>
		<g>
		</g>
		<g>
		</g>
		<g>
		</g>
		<g>
		</g>
		<g>
		</g>
		<g>
		</g>
		<g>
		</g>
		<g>
		</g>
		<g>
		</g>
	</g>
	<g>
		<path class="st3" d="M24.6,592.1l-1.5-0.9l-0.8-0.4l-0.1,0c0.2-0.3-0.1-5-0.6-4.9c0.2-0.4,0.3-0.8,0.5-1.2l0.1,0l0.9,0.4l2.6,1
			c0.1,0,0.2,0.1,0.2,0.1c1.1,0.5,1.6,1.7,1.1,2.7c-0.2,0.4-0.5,0.7-0.9,0.9c0.6,0.4,0.8,1.1,0.5,1.7
			C26.3,592.3,25.3,592.5,24.6,592.1z"/>
		<g>
			<path class="st4" d="M25.6,587c-0.1,0-0.1-0.1-0.2-0.1l-2.6-1c0,0,0,0,0,0c-0.3-0.1-1,1.2-1.5,1.2c0-0.1-0.1-1.6,0-1.6
				c0,0,0.1-0.2,0.1-0.3c0,0,0.3-0.7,0.7-0.6l0.1,0l0.9,0.4l2.6,1c0.1,0,0.2,0.1,0.2,0.1c1.1,0.5,1.6,1.7,1.1,2.7
				c-0.1,0.1-0.2,0.3-0.3,0.4C27,588.4,26.5,587.5,25.6,587z"/>
			<path class="st4" d="M23.9,589.7c-0.1,0.1-0.1,0.3-0.2,0.4c-0.2,0.4-0.4,0.7-0.6,1c0,0,0,0,0,0.1l-0.8-0.4l-0.1,0
				c-0.2-0.4-0.2-1.2-0.2-1.2c0.1-0.1,0.7-0.7,1.2-0.8l0.1,0l0.8,0.3l1.6,0.6c0.1,0,0.1,0,0.2,0.1c0.1,0,0.2,0.1,0.2,0.1
				c0.6,0.4,0.8,1.1,0.5,1.7c-0.1,0.1-0.1,0.2-0.2,0.3c0.1-0.5-0.2-1-0.6-1.3c-0.1-0.1-0.2-0.1-0.2-0.1c0,0-0.1,0-0.2-0.1
				L23.9,589.7z"/>
		</g>
		<path class="st5" d="M18.6,589.7c-0.4,0.2-0.9,0.2-1.3-0.1c-1.5-0.7-2.5-3.7-1.4-6.1s4.1-3.5,5.7-2.7c1.2,0.6,1.2,2.1,0.6,3.9
			c-0.1,0.4-0.3,0.8-0.5,1.2c0.4-0.1,0.9,0,1.2,0.1c0.8,0.4,0.8,1.4,0.4,2.7c-0.1,0.3-0.3,0.7-0.5,1.1c-0.2,0.4-0.4,0.7-0.6,1
			c-0.7,1.1-1.5,1.8-2.3,1.4C19.2,591.7,18.7,590.8,18.6,589.7z"/>
		<path class="st6" d="M22.3,587c-0.3-0.2-0.7-0.2-1.2-0.1c-0.8,0.1-1.8,0.6-2.4,1.5c0.1-0.2,0.1-0.4,0.2-0.6c0.5-1.1,1.6-1.8,2.6-2
			c0,0,0,0,0,0c0.6-1.7,0.5-3.1-0.6-3.7c-1.4-0.7-3.9,0.1-5.3,2.1c0.1-0.2,0.2-0.5,0.3-0.7c1.2-2.5,4.1-3.5,5.7-2.7
			c1.2,0.6,1.2,2.1,0.6,3.9c-0.1,0.4-0.3,0.8-0.5,1.2c0,0,0,0-0.1,0c0,0,0,0,0.1,0c0.4-0.1,0.9,0,1.2,0.1c0.8,0.4,0.8,1.4,0.4,2.7
			c-0.1,0.3-0.3,0.7-0.5,1.1c-0.1,0.2-0.2,0.4-0.3,0.5c0.1-0.2,0.1-0.3,0.2-0.5C23.2,588.5,23.2,587.4,22.3,587z"/>
		<g>
		</g>
		<g>
		</g>
		<g>
		</g>
		<g>
		</g>
		<g>
		</g>
		<g>
		</g>
		<g>
		</g>
		<g>
		</g>
		<g>
		</g>
		<g>
		</g>
		<g>
		</g>
		<g>
		</g>
		<g>
		</g>
		<g>
		</g>
		<g>
		</g>
	</g>
	<g>
		<path class="st3" d="M28.1,622.1l-1.3,1.1l-0.7,0.6l0,0c-0.2-0.3-4.7-1.5-4.8-1.1c-0.3-0.3-0.6-0.6-0.9-0.8l0.1-0.1l0.7-0.8
			l1.9-2.2c0.1-0.1,0.1-0.1,0.2-0.2c0.8-0.8,2.1-0.9,2.9-0.1c0.3,0.3,0.5,0.7,0.5,1.2c0.6-0.4,1.3-0.4,1.8,0.1
			C28.9,620.5,28.8,621.5,28.1,622.1z"/>
		<g>
			<path class="st4" d="M23.7,619.5c-0.1,0.1-0.1,0.1-0.2,0.2l-1.8,2.1c0,0,0,0,0,0c-0.2,0.3,0.8,1.4,0.7,1.8
				c-0.1-0.1-1.5-0.5-1.6-0.5c0,0-0.2-0.1-0.2-0.2c0,0-0.6-0.5-0.3-0.9l0.1-0.1l0.7-0.8l1.9-2.2c0.1-0.1,0.1-0.1,0.2-0.2
				c0.8-0.8,2.1-0.9,2.9-0.1c0.1,0.1,0.2,0.2,0.3,0.4C25.5,618.6,24.4,618.7,23.7,619.5z"/>
			<path class="st4" d="M25.7,622c0.1,0.1,0.2,0.2,0.3,0.3c0.3,0.3,0.6,0.6,0.8,0.9c0,0,0,0,0,0.1l-0.7,0.6l0,0
				c-0.4,0.1-1.2-0.2-1.2-0.2c-0.1-0.1-0.5-0.9-0.4-1.5l0,0l0.6-0.7l1.1-1.3c0,0,0.1-0.1,0.1-0.1c0.1-0.1,0.1-0.1,0.2-0.2
				c0.6-0.4,1.3-0.4,1.8,0.1c0.1,0.1,0.2,0.2,0.2,0.3c-0.5-0.2-1-0.2-1.5,0.1c-0.1,0.1-0.1,0.1-0.2,0.2c0,0-0.1,0.1-0.1,0.1
				L25.7,622z"/>
		</g>
		<path class="st5" d="M23.9,627c0,0.5-0.1,0.9-0.5,1.2c-1.2,1.2-4.3,1.2-6.2-0.7c-1.9-1.9-1.9-5-0.7-6.2c0.9-0.9,2.4-0.5,3.9,0.7
			c0.3,0.2,0.6,0.5,0.9,0.8c0.1-0.4,0.3-0.8,0.5-1.1c0.7-0.7,1.6-0.3,2.7,0.5c0.3,0.2,0.6,0.5,0.9,0.8c0.3,0.3,0.6,0.6,0.8,0.9
			c0.8,1,1.2,2,0.5,2.7C26.1,627,25,627.2,23.9,627z"/>
		<path class="st6" d="M22.6,622.6c-0.3,0.3-0.4,0.6-0.5,1.1c-0.2,0.8,0,1.9,0.6,2.8c-0.2-0.1-0.3-0.2-0.5-0.4
			c-0.9-0.9-1.2-2.1-1-3.1c0,0,0,0,0,0c-1.4-1.1-2.8-1.5-3.7-0.6c-1.1,1.1-1.2,3.7,0.2,5.7c-0.2-0.2-0.4-0.3-0.6-0.5
			c-1.9-1.9-1.9-5-0.7-6.2c0.9-0.9,2.4-0.5,3.9,0.7c0.3,0.2,0.6,0.5,0.9,0.8c0,0,0,0,0,0.1c0,0,0,0,0-0.1c0.1-0.4,0.3-0.8,0.5-1.1
			c0.7-0.7,1.6-0.3,2.7,0.5c0.3,0.2,0.6,0.5,0.9,0.8c0.1,0.1,0.3,0.3,0.4,0.4c-0.1-0.1-0.3-0.2-0.4-0.4
			C24.3,622.3,23.3,621.9,22.6,622.6z"/>
		<g>
		</g>
		<g>
		</g>
		<g>
		</g>
		<g>
		</g>
		<g>
		</g>
		<g>
		</g>
		<g>
		</g>
		<g>
		</g>
		<g>
		</g>
		<g>
		</g>
		<g>
		</g>
		<g>
		</g>
		<g>
		</g>
		<g>
		</g>
		<g>
		</g>
	</g>
</g>
<g>
	<g>
		<path class="st0" d="M205.8,544.6l-0.3-88.1c0,5.1-5.6,9.2-12.6,9.2c-7,0-12.7-4-12.7-9.1l0.3,88.1c0,5.1,5.7,9.2,12.7,9.1
			C200.2,553.8,205.8,549.8,205.8,544.6"/>
		<g>
			<path class="st1" d="M198.6,480.4l-0.1-16.1c0-1.1,0.6-1.8,1.4-1.8c0.8,0,1.4,0.7,1.4,1.8l0.1,16.1c0,1.1-0.6,1.8-1.4,1.8
				C199.1,482.3,198.6,481.5,198.6,480.4"/>
			<path class="st1" d="M198.7,517.1l-0.1-29.4c0-1.1,0.6-1.8,1.4-1.8s1.4,0.7,1.4,1.8l0.1,29.4c0,1.1-0.6,1.8-1.4,1.8
				S198.7,518.2,198.7,517.1"/>
			<path class="st1" d="M198.8,550.1l-0.1-25.7c0-1.1,0.6-1.8,1.4-1.8c0.8,0,1.4,0.7,1.4,1.8l0.1,25.7c0,1.1-0.6,1.8-1.4,1.8
				C199.4,552,198.8,551.2,198.8,550.1"/>
			<path class="st1" d="M191.6,508l0-5.5c0-1.1,0.6-1.8,1.4-1.8c0.8,0,1.4,0.7,1.4,1.8l0,5.5c0,1.1-0.6,1.8-1.4,1.8
				S191.6,509.1,191.6,508"/>
			<path class="st1" d="M191.6,491.5l-0.1-18.3c0-1.1,0.6-1.8,1.4-1.8s1.4,0.7,1.4,1.8l0.1,18.3c0,1.1-0.6,1.8-1.4,1.8
				S191.6,492.6,191.6,491.5"/>
			<path class="st1" d="M191.7,526.3l0-11c0-1.1,0.6-1.8,1.4-1.8s1.4,0.7,1.4,1.8l0,11c0,1.1-0.6,1.8-1.4,1.8
				S191.7,527.4,191.7,526.3"/>
			<path class="st1" d="M191.8,552l-0.1-16.5c0-1.1,0.6-1.8,1.4-1.8c0.8,0,1.4,0.7,1.4,1.8l0.1,16.5c0,1.1-0.6,1.8-1.4,1.8
				S191.8,553.1,191.8,552"/>
			<path class="st1" d="M184.5,482.3l-0.1-18c0-1.1,0.6-1.8,1.4-1.8c0.8,0,1.4,0.7,1.4,1.8l0.1,18c0,1.1-0.6,1.8-1.4,1.8
				C185.1,484.1,184.5,483.4,184.5,482.3"/>
			<path class="st1" d="M184.7,542.9l-0.1-14.7c0-1.1,0.6-1.8,1.4-1.8s1.4,0.7,1.4,1.8l0.1,14.7c0,1.1-0.6,1.8-1.4,1.8
				C185.3,544.7,184.7,544,184.7,542.9"/>
			<path class="st1" d="M184.6,515.3l-0.1-22c0-1.1,0.6-1.8,1.4-1.8s1.4,0.7,1.4,1.8l0.1,22c0,1.1-0.6,1.8-1.4,1.8
				C185.2,517.2,184.6,516.4,184.6,515.3"/>
		</g>
		<path class="st2" d="M192.9,465.8c-7,0-12.7-4-12.7-9.1c0-5.1,5.6-9.2,12.6-9.2c7,0,12.7,4,12.7,9.1
			C205.5,461.7,199.9,465.8,192.9,465.8"/>
		<path class="st1" d="M185.1,456.6c0-0.6,0.3-1.3,0.7-1.7c0.8-0.6,3.2-2,7-2c3.8,0,6.2,1.4,7,2c0.7,0.5,0.8,1.6,0.6,2.6
			c-0.4,0.9-1.3,1.1-2,0.7c-0.7-0.5-2.5-1.6-5.6-1.6s-4.9,1.1-5.6,1.7c-0.7,0.6-1.5,0.2-2-0.7C185.3,457.2,185.1,457,185.1,456.6"/>
	</g>
	<g>
		<path class="st3" d="M199.9,471l1.7-0.4l0.9-0.2l0.1,0c0.1,0.4,3.5,3.5,3.8,3.1c0.1,0.4,0.3,0.8,0.5,1.2l-0.1,0l-0.9,0.4l-2.6,1.1
			c-0.1,0-0.2,0.1-0.2,0.1c-1.1,0.4-2.3-0.2-2.7-1.2c-0.1-0.4-0.1-0.9,0-1.3c-0.7,0.1-1.4-0.3-1.6-0.9
			C198.5,472,199,471.2,199.9,471z"/>
		<g>
			<path class="st4" d="M202.6,475.3c0.1,0,0.2-0.1,0.2-0.1l2.6-1.1c0,0,0,0,0,0c0.3-0.1-0.1-1.6,0.2-1.9c0,0.1,1.1,1.1,1.2,1.2
				c0,0,0.1,0.2,0.1,0.3c0,0,0.3,0.7-0.1,0.9l-0.1,0l-0.9,0.4l-2.6,1.1c-0.1,0-0.2,0.1-0.2,0.1c-1.1,0.4-2.3-0.2-2.7-1.2
				c0-0.2-0.1-0.3-0.1-0.5C200.7,475.3,201.7,475.7,202.6,475.3z"/>
			<path class="st4" d="M202,472.2c0-0.1-0.1-0.3-0.1-0.4c-0.1-0.4-0.2-0.8-0.3-1.1c0,0,0,0,0-0.1l0.9-0.2l0.1,0
				c0.4,0.1,1,0.7,1,0.7c0,0.1,0,1-0.3,1.5l-0.1,0l-0.8,0.3l-1.6,0.7c-0.1,0-0.1,0-0.2,0.1c-0.1,0-0.2,0.1-0.3,0.1
				c-0.7,0.1-1.4-0.3-1.6-0.9c0-0.1-0.1-0.3-0.1-0.4c0.3,0.4,0.8,0.6,1.4,0.5c0.1,0,0.2,0,0.3-0.1c0.1,0,0.1,0,0.2-0.1L202,472.2z"
				/>
		</g>
		<path class="st5" d="M205.8,468.6c0.2-0.4,0.5-0.7,1-0.9c1.6-0.5,4.4,0.9,5.2,3.5s-0.6,5.4-2.2,5.9c-1.3,0.4-2.3-0.7-3.1-2.4
			c-0.2-0.4-0.3-0.7-0.5-1.2c-0.3,0.4-0.6,0.6-0.9,0.7c-0.9,0.3-1.6-0.5-2.1-1.7c-0.2-0.3-0.3-0.7-0.4-1.1c-0.1-0.4-0.2-0.8-0.3-1.1
			c-0.3-1.3-0.1-2.3,0.8-2.6C204,467.5,205,467.8,205.8,468.6z"/>
		<path class="st6" d="M205,473.1c0.3-0.1,0.7-0.4,0.9-0.7c0.5-0.7,0.8-1.7,0.7-2.7c0.1,0.2,0.2,0.4,0.2,0.6
			c0.4,1.2,0.1,2.4-0.5,3.2c0,0,0,0,0,0c0.8,1.6,1.8,2.6,3,2.2c1.5-0.5,2.8-2.8,2.4-5.1c0.1,0.2,0.2,0.5,0.3,0.7
			c0.8,2.6-0.6,5.4-2.2,5.9c-1.3,0.4-2.3-0.7-3.1-2.4c-0.2-0.4-0.3-0.7-0.5-1.2c0,0,0,0,0-0.1c0,0,0,0,0,0.1
			c-0.3,0.4-0.6,0.6-0.9,0.7c-0.9,0.3-1.6-0.5-2.1-1.7c-0.2-0.3-0.3-0.7-0.4-1.1c-0.1-0.2-0.1-0.4-0.2-0.6c0.1,0.2,0.1,0.3,0.2,0.5
			C203.4,472.6,204.1,473.3,205,473.1z"/>
		<g>
		</g>
		<g>
		</g>
		<g>
		</g>
		<g>
		</g>
		<g>
		</g>
		<g>
		</g>
		<g>
		</g>
		<g>
		</g>
		<g>
		</g>
		<g>
		</g>
		<g>
		</g>
		<g>
		</g>
		<g>
		</g>
		<g>
		</g>
		<g>
		</g>
	</g>
	<g>
		<path class="st3" d="M199.9,510.6l1.7-0.4l0.9-0.2l0.1,0c0.1,0.4,3.5,3.5,3.8,3.1c0.1,0.4,0.3,0.8,0.5,1.2l-0.1,0l-0.9,0.4
			l-2.6,1.1c-0.1,0-0.2,0.1-0.2,0.1c-1.1,0.4-2.3-0.2-2.7-1.2c-0.1-0.4-0.1-0.9,0-1.3c-0.7,0.1-1.4-0.3-1.6-0.9
			C198.5,511.6,199,510.8,199.9,510.6z"/>
		<g>
			<path class="st4" d="M202.6,514.9c0.1,0,0.2-0.1,0.2-0.1l2.6-1.1c0,0,0,0,0,0c0.3-0.1-0.1-1.6,0.2-1.9c0,0.1,1.1,1.1,1.2,1.2
				c0,0,0.1,0.2,0.1,0.3c0,0,0.3,0.7-0.1,0.9l-0.1,0l-0.9,0.4l-2.6,1.1c-0.1,0-0.2,0.1-0.2,0.1c-1.1,0.4-2.3-0.2-2.7-1.2
				c0-0.2-0.1-0.3-0.1-0.5C200.7,514.9,201.7,515.2,202.6,514.9z"/>
			<path class="st4" d="M202,511.8c0-0.1-0.1-0.3-0.1-0.4c-0.1-0.4-0.2-0.8-0.3-1.1c0,0,0,0,0-0.1l0.9-0.2l0.1,0
				c0.4,0.1,1,0.7,1,0.7c0,0.1,0,1-0.3,1.5l-0.1,0l-0.8,0.3l-1.6,0.7c-0.1,0-0.1,0-0.2,0.1c-0.1,0-0.2,0.1-0.3,0.1
				c-0.7,0.1-1.4-0.3-1.6-0.9c0-0.1-0.1-0.3-0.1-0.4c0.3,0.4,0.8,0.6,1.4,0.5c0.1,0,0.2,0,0.3-0.1c0.1,0,0.1,0,0.2-0.1L202,511.8z"
				/>
		</g>
		<path class="st5" d="M205.8,508.1c0.2-0.4,0.5-0.7,1-0.9c1.6-0.5,4.4,0.9,5.2,3.5s-0.6,5.4-2.2,5.9c-1.3,0.4-2.3-0.7-3.1-2.4
			c-0.2-0.4-0.3-0.7-0.5-1.2c-0.3,0.4-0.6,0.6-0.9,0.7c-0.9,0.3-1.6-0.5-2.1-1.7c-0.2-0.3-0.3-0.7-0.4-1.1c-0.1-0.4-0.2-0.8-0.3-1.1
			c-0.3-1.3-0.1-2.3,0.8-2.6C204,507.1,205,507.4,205.8,508.1z"/>
		<path class="st6" d="M205,512.6c0.3-0.1,0.7-0.4,0.9-0.7c0.5-0.7,0.8-1.7,0.7-2.7c0.1,0.2,0.2,0.4,0.2,0.6
			c0.4,1.2,0.1,2.4-0.5,3.2c0,0,0,0,0,0c0.8,1.6,1.8,2.6,3,2.2c1.5-0.5,2.8-2.8,2.4-5.1c0.1,0.2,0.2,0.5,0.3,0.7
			c0.8,2.6-0.6,5.4-2.2,5.9c-1.3,0.4-2.3-0.7-3.1-2.4c-0.2-0.4-0.3-0.7-0.5-1.2c0,0,0,0,0-0.1c0,0,0,0,0,0.1
			c-0.3,0.4-0.6,0.6-0.9,0.7c-0.9,0.3-1.6-0.5-2.1-1.7c-0.2-0.3-0.3-0.7-0.4-1.1c-0.1-0.2-0.1-0.4-0.2-0.6c0.1,0.2,0.1,0.3,0.2,0.5
			C203.4,512.2,204.1,512.9,205,512.6z"/>
		<g>
		</g>
		<g>
		</g>
		<g>
		</g>
		<g>
		</g>
		<g>
		</g>
		<g>
		</g>
		<g>
		</g>
		<g>
		</g>
		<g>
		</g>
		<g>
		</g>
		<g>
		</g>
		<g>
		</g>
		<g>
		</g>
		<g>
		</g>
		<g>
		</g>
	</g>
	<g>
		<path class="st3" d="M184.6,500.3l-1.5-0.9l-0.8-0.4l-0.1,0c0.2-0.3-0.1-5-0.6-4.9c0.2-0.4,0.3-0.8,0.5-1.2l0.1,0l0.9,0.4l2.6,1
			c0.1,0,0.2,0.1,0.2,0.1c1.1,0.5,1.6,1.7,1.1,2.7c-0.2,0.4-0.5,0.7-0.9,0.9c0.6,0.4,0.8,1.1,0.5,1.7
			C186.3,500.5,185.4,500.7,184.6,500.3z"/>
		<g>
			<path class="st4" d="M185.7,495.2c-0.1,0-0.1-0.1-0.2-0.1l-2.6-1c0,0,0,0,0,0c-0.3-0.1-1,1.2-1.5,1.2c0-0.1-0.1-1.6,0-1.6
				c0,0,0.1-0.2,0.1-0.3c0,0,0.3-0.7,0.7-0.6l0.1,0l0.9,0.4l2.6,1c0.1,0,0.2,0.1,0.2,0.1c1.1,0.5,1.6,1.7,1.1,2.7
				c-0.1,0.1-0.2,0.3-0.3,0.4C187.1,496.6,186.6,495.7,185.7,495.2z"/>
			<path class="st4" d="M183.9,497.9c-0.1,0.1-0.1,0.3-0.2,0.4c-0.2,0.4-0.4,0.7-0.6,1c0,0,0,0,0,0.1l-0.8-0.4l-0.1,0
				c-0.2-0.4-0.2-1.2-0.2-1.2c0.1-0.1,0.7-0.7,1.2-0.8l0.1,0l0.8,0.3l1.6,0.6c0.1,0,0.1,0,0.2,0.1c0.1,0,0.2,0.1,0.2,0.1
				c0.6,0.4,0.8,1.1,0.5,1.7c-0.1,0.1-0.1,0.2-0.2,0.3c0.1-0.5-0.2-1-0.6-1.3c-0.1-0.1-0.2-0.1-0.2-0.1c0,0-0.1,0-0.2-0.1
				L183.9,497.9z"/>
		</g>
		<path class="st5" d="M178.6,497.9c-0.4,0.2-0.9,0.2-1.3-0.1c-1.5-0.7-2.5-3.7-1.4-6.1s4.1-3.5,5.7-2.7c1.2,0.6,1.2,2.1,0.6,3.9
			c-0.1,0.4-0.3,0.8-0.5,1.2c0.4-0.1,0.9,0,1.2,0.1c0.8,0.4,0.8,1.4,0.4,2.7c-0.1,0.3-0.3,0.7-0.5,1.1c-0.2,0.4-0.4,0.7-0.6,1
			c-0.7,1.1-1.5,1.8-2.3,1.4C179.3,499.9,178.7,499,178.6,497.9z"/>
		<path class="st6" d="M182.4,495.2c-0.3-0.2-0.7-0.2-1.2-0.1c-0.8,0.1-1.8,0.6-2.4,1.5c0.1-0.2,0.1-0.4,0.2-0.6
			c0.5-1.1,1.6-1.8,2.6-2c0,0,0,0,0,0c0.6-1.7,0.5-3.1-0.6-3.7c-1.4-0.7-3.9,0.1-5.3,2.1c0.1-0.2,0.2-0.5,0.3-0.7
			c1.2-2.5,4.1-3.5,5.7-2.7c1.2,0.6,1.2,2.1,0.6,3.9c-0.1,0.4-0.3,0.8-0.5,1.2c0,0,0,0-0.1,0c0,0,0,0,0.1,0c0.4-0.1,0.9,0,1.2,0.1
			c0.8,0.4,0.8,1.4,0.4,2.7c-0.1,0.3-0.3,0.7-0.5,1.1c-0.1,0.2-0.2,0.4-0.3,0.5c0.1-0.2,0.1-0.3,0.2-0.5
			C183.2,496.7,183.2,495.6,182.4,495.2z"/>
		<g>
		</g>
		<g>
		</g>
		<g>
		</g>
		<g>
		</g>
		<g>
		</g>
		<g>
		</g>
		<g>
		</g>
		<g>
		</g>
		<g>
		</g>
		<g>
		</g>
		<g>
		</g>
		<g>
		</g>
		<g>
		</g>
		<g>
		</g>
		<g>
		</g>
	</g>
	<g>
		<path class="st3" d="M188.1,530.3l-1.3,1.1l-0.7,0.6l0,0c-0.2-0.3-4.7-1.5-4.8-1.1c-0.3-0.3-0.6-0.6-0.9-0.8l0.1-0.1l0.7-0.8
			l1.9-2.2c0.1-0.1,0.1-0.1,0.2-0.2c0.8-0.8,2.1-0.9,2.9-0.1c0.3,0.3,0.5,0.7,0.5,1.2c0.6-0.4,1.3-0.4,1.8,0.1
			C188.9,528.7,188.8,529.7,188.1,530.3z"/>
		<g>
			<path class="st4" d="M183.7,527.7c-0.1,0.1-0.1,0.1-0.2,0.2l-1.8,2.1c0,0,0,0,0,0c-0.2,0.3,0.8,1.4,0.7,1.8
				c-0.1-0.1-1.5-0.5-1.6-0.5c0,0-0.2-0.1-0.2-0.2c0,0-0.6-0.5-0.3-0.9l0.1-0.1l0.7-0.8l1.9-2.2c0.1-0.1,0.1-0.1,0.2-0.2
				c0.8-0.8,2.1-0.9,2.9-0.1c0.1,0.1,0.2,0.2,0.3,0.4C185.5,526.8,184.4,527,183.7,527.7z"/>
			<path class="st4" d="M185.7,530.2c0.1,0.1,0.2,0.2,0.3,0.3c0.3,0.3,0.6,0.6,0.8,0.9c0,0,0,0,0,0.1l-0.7,0.6l0,0
				c-0.4,0.1-1.2-0.2-1.2-0.2c-0.1-0.1-0.5-0.9-0.4-1.5l0,0l0.6-0.7l1.1-1.3c0,0,0.1-0.1,0.1-0.1c0.1-0.1,0.1-0.1,0.2-0.2
				c0.6-0.4,1.3-0.4,1.8,0.1c0.1,0.1,0.2,0.2,0.2,0.3c-0.5-0.2-1-0.2-1.5,0.1c-0.1,0.1-0.1,0.1-0.2,0.2c0,0-0.1,0.1-0.1,0.1
				L185.7,530.2z"/>
		</g>
		<path class="st5" d="M184,535.2c0,0.5-0.1,0.9-0.5,1.2c-1.2,1.2-4.3,1.2-6.2-0.7c-1.9-1.9-1.9-5-0.7-6.2c0.9-0.9,2.4-0.5,3.9,0.7
			c0.3,0.2,0.6,0.5,0.9,0.8c0.1-0.4,0.3-0.8,0.5-1.1c0.7-0.7,1.6-0.3,2.7,0.5c0.3,0.2,0.6,0.5,0.9,0.8c0.3,0.3,0.6,0.6,0.8,0.9
			c0.8,1,1.2,2,0.5,2.7C186.1,535.3,185,535.4,184,535.2z"/>
		<path class="st6" d="M182.7,530.8c-0.3,0.3-0.4,0.6-0.5,1.1c-0.2,0.8,0,1.9,0.6,2.8c-0.2-0.1-0.3-0.2-0.5-0.4
			c-0.9-0.9-1.2-2.1-1-3.1c0,0,0,0,0,0c-1.4-1.1-2.8-1.5-3.7-0.6c-1.1,1.1-1.2,3.7,0.2,5.7c-0.2-0.2-0.4-0.3-0.6-0.5
			c-1.9-1.9-1.9-5-0.7-6.2c0.9-0.9,2.4-0.5,3.9,0.7c0.3,0.2,0.6,0.5,0.9,0.8c0,0,0,0,0,0.1c0,0,0,0,0-0.1c0.1-0.4,0.3-0.8,0.5-1.1
			c0.7-0.7,1.6-0.3,2.7,0.5c0.3,0.2,0.6,0.5,0.9,0.8c0.1,0.1,0.3,0.3,0.4,0.4c-0.1-0.1-0.3-0.2-0.4-0.4
			C184.3,530.5,183.3,530.1,182.7,530.8z"/>
		<g>
		</g>
		<g>
		</g>
		<g>
		</g>
		<g>
		</g>
		<g>
		</g>
		<g>
		</g>
		<g>
		</g>
		<g>
		</g>
		<g>
		</g>
		<g>
		</g>
		<g>
		</g>
		<g>
		</g>
		<g>
		</g>
		<g>
		</g>
		<g>
		</g>
	</g>
</g>
</svg>
