<?xml version="1.0" encoding="utf-8"?>
<!-- Generator: Adobe Illustrator 19.0.1, SVG Export Plug-In . SVG Version: 6.00 Build 0)  -->
<svg version="1.1" id="mushroom" xmlns="http://www.w3.org/2000/svg" xmlns:xlink="http://www.w3.org/1999/xlink" x="0px" y="0px"
	 viewBox="0 0 50 50" style="enable-background:new 0 0 50 50;" xml:space="preserve">
<style type="text/css">
	.st0{fill:#F9DCB2;}
	.st1{fill:#DDBB8E;}
	.st2{fill:#B27214;}
	.st3{fill:#995C0D;}
</style>
<g>
	<path class="st0" d="M38.4,42.9l-0.5-6.3l-0.3-3.2l0-0.2c-1.4,0.2-17.3-8.3-16.3-9.6c-1.7,0-3.3-0.1-4.9-0.3l0,0.3l-0.3,3.6
		l-0.8,10.3c0,0.3,0,0.6,0,0.9c0,4.2,3.5,7.8,7.8,7.8c1.8,0,3.4-0.6,4.8-1.6c0.5,2.5,2.6,4.4,5.3,4.4C36.2,48.9,38.7,46.1,38.4,42.9
		z"/>
	<g>
		<path class="st1" d="M18.8,38.4c0-0.3,0-0.6,0-0.9l0.8-10c0,0,0,0,0,0c0-1.3,5.9-1.5,6.9-2.8c-0.4,0-5.4-2.6-5.8-2.6
			c0,0-0.9-0.2-1.2-0.2c-0.1,0-3-0.2-3.3,1.4l0,0.3l-0.3,3.6l-0.8,10.3c0,0.3,0,0.6,0,0.9c0,4.2,3.5,7.8,7.8,7.8
			c0.6,0,1.2-0.1,1.8-0.2C21.3,45.1,18.8,42,18.8,38.4z"/>
		<path class="st1" d="M31.3,36.8c0.6,0,1.1,0,1.7,0c1.6,0,3.1-0.1,4.5-0.2c0.1,0,0.2,0,0.3,0l-0.3-3.2l0-0.2c-0.8-1.4-4-2.7-4-2.7
			c-0.5,0-3.8,1-5.1,2.7l0,0.2l-0.3,3.2l-0.5,6.3c0,0.2,0,0.4,0,0.6c0,0.3,0,0.7,0.1,1c0.5,2.5,2.6,4.4,5.3,4.4
			c0.5,0,1.1-0.1,1.6-0.2c-1.9-0.6-3.3-2.2-3.7-4.1c-0.1-0.3-0.1-0.7-0.1-1c0-0.2,0-0.4,0-0.6L31.3,36.8z"/>
	</g>
	<path class="st2" d="M40.3,19.7c1.3-1.2,2.1-2.6,2.1-4.5c0-6.2-8.7-14.1-19.3-14.1S3.7,9.1,3.7,15.3c0,4.9,5.3,7.2,12.7,8
		c1.5,0.2,3.2,0.3,4.9,0.3c-1,1.3-1.5,2.8-1.5,4.1c0,3.3,3.7,5,8.8,5.5c1.4,0.2,2.9,0.2,4.5,0.2c1.6,0,3.1-0.1,4.5-0.2
		c5.1-0.5,8.8-2.2,8.8-5.5C46.3,24.9,43.9,21.7,40.3,19.7z"/>
	<path class="st3" d="M24.5,27.6c0-1.3,0.6-2.7,1.5-4.1c1.9-2.6,5.3-4.8,9.4-5.5c-0.8-0.1-1.6-0.2-2.4-0.2c-4.9,0-9.1,2.4-11.5,5.3
		c0,0,0,0,0,0c-6.9-0.9-11.8-3.2-11.8-7.9c0-5.6,7.1-12.6,16.3-13.9c-1-0.1-2-0.2-3.1-0.2C12.3,1.1,3.7,9.1,3.7,15.3
		c0,4.9,5.3,7.2,12.7,8c1.5,0.2,3.2,0.3,4.9,0.3c0.1-0.1,0.1-0.1,0.2-0.2c-0.1,0.1-0.1,0.1-0.2,0.2c-1,1.3-1.5,2.8-1.5,4.1
		c0,3.3,3.7,5,8.8,5.5c1.4,0.2,2.9,0.2,4.5,0.2c0.8,0,1.6,0,2.4-0.1c-0.7,0-1.4-0.1-2.1-0.2C28.2,32.6,24.5,31,24.5,27.6z"/>
	<g>
	</g>
	<g>
	</g>
	<g>
	</g>
	<g>
	</g>
	<g>
	</g>
	<g>
	</g>
	<g>
	</g>
	<g>
	</g>
	<g>
	</g>
	<g>
	</g>
	<g>
	</g>
	<g>
	</g>
	<g>
	</g>
	<g>
	</g>
	<g>
	</g>
</g>
</svg>
