<?xml version="1.0" encoding="utf-8"?>
<!-- Generator: Adobe Illustrator 19.0.1, SVG Export Plug-In . SVG Version: 6.00 Build 0)  -->
<svg version="1.1" id="mushroom_x5F_warn" xmlns="http://www.w3.org/2000/svg" xmlns:xlink="http://www.w3.org/1999/xlink" x="0px"
	 y="0px" viewBox="-223 225 512 512" style="enable-background:new -223 225 512 512;" xml:space="preserve">
<style type="text/css">
	.st0{clip-path:url(#SVGID_2_);}
	.st1{fill:#FBD303;}
	.st2{fill:#646B79;}
	.st3{clip-path:url(#SVGID_4_);}
	.st4{fill:#9E5A23;}
	.st5{fill:#844414;}
	.st6{fill:#CE8D5B;}
	.st7{fill:#F9DCB2;}
	.st8{fill:#DDBB8E;}
	.st9{fill:#B27214;}
	.st10{fill:#995C0D;}
	.st11{clip-path:url(#SVGID_6_);}
	.st12{clip-path:url(#SVGID_8_);}
	.st13{font-family:'Arial-Black';}
	.st14{font-size:21.0661px;}
	.st15{font-size:20.1175px;}
</style>
<g>
	<defs>
		<polygon id="SVGID_1_" points="32.9,372.7 237.8,491.7 237.6,539.9 33.4,421.4 		"/>
	</defs>
	<clipPath id="SVGID_2_">
		<use xlink:href="#SVGID_1_"  style="overflow:visible;"/>
	</clipPath>
	<g class="st0">
		<polygon class="st1" points="32.9,346.7 237.8,465.7 237.6,513.9 33.4,395.4 		"/>
		<g>
			<polygon class="st2" points="237.8,465.7 226.1,458.9 186.9,484.5 216.8,501.8 237.7,488.4 			"/>
			<polygon class="st2" points="159.6,468.6 129.7,451.3 168.7,425.6 198.7,443 			"/>
			<polygon class="st2" points="102.3,435.4 72.4,418 111.2,392.2 141.2,409.6 			"/>
			<polygon class="st2" points="53.8,358.8 33.2,372.6 33.4,395.4 45.1,402.2 83.8,376.3 			"/>
		</g>
	</g>
</g>
<g>
	<defs>
		<polygon id="SVGID_3_" points="-171.4,465.9 32.8,347.3 33,395.5 -171.9,514.5 		"/>
	</defs>
	<clipPath id="SVGID_4_">
		<use xlink:href="#SVGID_3_"  style="overflow:visible;"/>
	</clipPath>
	<g class="st3">
		<polygon class="st1" points="-171.4,491.9 32.8,373.3 33,421.5 -171.9,540.5 		"/>
		<g>
			<polygon class="st2" points="32.9,398.9 12,385.4 -17.9,402.8 21.3,428.3 33,421.5 			"/>
			<polygon class="st2" points="-6.1,444.3 -36.1,461.7 -75.1,436 -45.2,418.6 			"/>
			<polygon class="st2" points="-63.6,477.6 -93.6,495 -132.4,469.2 -102.5,451.9 			"/>
			<polygon class="st2" points="-121,511 -159.7,485.1 -171.4,491.9 -171.6,514.6 -151,528.4 			"/>
		</g>
	</g>
</g>
<g>
	<g>
		<path class="st4" d="M-118.1,543.8l-0.3-88.1c0,5.1-5.6,9.2-12.6,9.2c-7,0-12.7-4-12.7-9.1l0.3,88.1c0,5.1,5.7,9.2,12.7,9.1
			C-123.7,552.9-118.1,548.9-118.1,543.8"/>
		<g>
			<path class="st5" d="M-125.4,479.6l-0.1-16.1c0-1.1,0.6-1.8,1.4-1.8s1.4,0.7,1.4,1.8l0.1,16.1c0,1.1-0.6,1.8-1.4,1.8
				C-124.8,481.4-125.4,480.7-125.4,479.6"/>
			<path class="st5" d="M-125.2,516.3l-0.1-29.4c0-1.1,0.6-1.8,1.4-1.8c0.8,0,1.4,0.7,1.4,1.8l0.1,29.4c0,1.1-0.6,1.8-1.4,1.8
				C-124.7,518.1-125.2,517.4-125.2,516.3"/>
			<path class="st5" d="M-125.1,549.3l-0.1-25.7c0-1.1,0.6-1.8,1.4-1.8c0.8,0,1.4,0.7,1.4,1.8l0.1,25.7c0,1.1-0.6,1.8-1.4,1.8
				C-124.6,551.1-125.1,550.4-125.1,549.3"/>
			<path class="st5" d="M-132.3,507.1l0-5.5c0-1.1,0.6-1.8,1.4-1.8c0.8,0,1.4,0.7,1.4,1.8l0,5.5c0,1.1-0.6,1.8-1.4,1.8
				C-131.7,508.9-132.3,508.2-132.3,507.1"/>
			<path class="st5" d="M-132.4,490.6l-0.1-18.3c0-1.1,0.6-1.8,1.4-1.8c0.8,0,1.4,0.7,1.4,1.8l0.1,18.3c0,1.1-0.6,1.8-1.4,1.8
				C-131.8,492.4-132.4,491.7-132.4,490.6"/>
			<path class="st5" d="M-132.2,525.5l0-11c0-1.1,0.6-1.8,1.4-1.8s1.4,0.7,1.4,1.8l0,11c0,1.1-0.6,1.8-1.4,1.8
				C-131.7,527.3-132.2,526.6-132.2,525.5"/>
			<path class="st5" d="M-132.2,551.1l-0.1-16.5c0-1.1,0.6-1.8,1.4-1.8s1.4,0.7,1.4,1.8l0.1,16.5c0,1.1-0.6,1.8-1.4,1.8
				C-131.6,553-132.1,552.2-132.2,551.1"/>
			<path class="st5" d="M-139.4,481.4l-0.1-18c0-1.1,0.6-1.8,1.4-1.8c0.8,0,1.4,0.7,1.4,1.8l0.1,18c0,1.1-0.6,1.8-1.4,1.8
				C-138.8,483.3-139.4,482.5-139.4,481.4"/>
			<path class="st5" d="M-139.2,542l-0.1-14.7c0-1.1,0.6-1.8,1.4-1.8c0.8,0,1.4,0.7,1.4,1.8l0.1,14.7c0,1.1-0.6,1.8-1.4,1.8
				C-138.6,543.8-139.2,543.1-139.2,542"/>
			<path class="st5" d="M-139.3,514.5l-0.1-22c0-1.1,0.6-1.8,1.4-1.8c0.8,0,1.4,0.7,1.4,1.8l0.1,22c0,1.1-0.6,1.8-1.4,1.8
				C-138.7,516.3-139.3,515.6-139.3,514.5"/>
		</g>
		<path class="st6" d="M-131,464.9c-7,0-12.7-4-12.7-9.1c0-5.1,5.6-9.2,12.6-9.2c7,0,12.7,4,12.7,9.1S-124,464.9-131,464.9"/>
		<path class="st5" d="M-138.8,455.8c0-0.6,0.3-1.3,0.7-1.7c0.8-0.6,3.2-2,7-2s6.2,1.4,7,2c0.7,0.5,0.8,1.6,0.6,2.6
			c-0.4,0.9-1.3,1.1-2,0.7c-0.7-0.5-2.5-1.6-5.6-1.6c-3.1,0-4.9,1.1-5.6,1.7c-0.7,0.6-1.5,0.2-2-0.7
			C-138.7,456.3-138.8,456.1-138.8,455.8"/>
	</g>
	<g>
		<path class="st7" d="M-124.2,467.8l3.3-0.8l1.7-0.4l0.1,0c0.1,0.7,6.9,6.8,7.4,6.1c0.3,0.8,0.6,1.5,0.9,2.2l-0.2,0.1l-1.8,0.7
			l-5.1,2.1c-0.1,0.1-0.3,0.1-0.4,0.2c-2.2,0.7-4.5-0.3-5.2-2.4c-0.3-0.8-0.2-1.7,0.1-2.5c-1.3,0.2-2.6-0.5-3-1.8
			C-126.9,469.8-125.9,468.1-124.2,467.8z"/>
		<g>
			<path class="st8" d="M-118.9,476.2c0.1,0,0.3-0.1,0.4-0.2l5-2c0,0,0,0,0,0c0.6-0.2-0.2-3,0.4-3.7c0.1,0.2,2.2,2.1,2.2,2.3
				c0,0,0.2,0.4,0.3,0.5c0,0,0.6,1.4-0.2,1.8l-0.2,0.1l-1.8,0.7l-5.1,2.1c-0.1,0.1-0.3,0.1-0.4,0.2c-2.2,0.7-4.5-0.3-5.2-2.4
				c-0.1-0.3-0.2-0.6-0.2-0.9C-122.7,476.1-120.7,476.8-118.9,476.2z"/>
			<path class="st8" d="M-120,470.1c-0.1-0.3-0.2-0.5-0.3-0.8c-0.2-0.8-0.4-1.5-0.6-2.2c0,0,0-0.1,0-0.1l1.7-0.4l0.1,0
				c0.8,0.2,2,1.4,2,1.4c0.1,0.3,0,2-0.6,2.9l-0.1,0l-1.6,0.7l-3.2,1.3c-0.1,0-0.2,0.1-0.3,0.1c-0.2,0.1-0.4,0.1-0.5,0.1
				c-1.3,0.2-2.6-0.5-3-1.8c-0.1-0.3-0.1-0.5-0.1-0.8c0.6,0.8,1.6,1.2,2.7,1.1c0.2,0,0.4-0.1,0.5-0.1c0.1,0,0.2-0.1,0.3-0.1
				L-120,470.1z"/>
		</g>
		<path class="st9" d="M-112.6,463c0.4-0.8,1-1.4,2-1.7c3.2-1,8.5,1.7,10.2,6.8c1.6,5-1.1,10.4-4.2,11.5c-2.5,0.8-4.5-1.3-6-4.7
			c-0.3-0.7-0.6-1.5-0.9-2.2c-0.5,0.7-1.2,1.2-1.8,1.4c-1.7,0.6-3.1-0.9-4.2-3.2c-0.3-0.6-0.6-1.4-0.8-2.1c-0.2-0.8-0.4-1.5-0.6-2.2
			c-0.5-2.5-0.2-4.5,1.5-5C-116.2,461-114.2,461.6-112.6,463z"/>
		<path class="st10" d="M-114.3,471.8c0.7-0.2,1.3-0.7,1.8-1.4c1-1.3,1.6-3.3,1.4-5.3c0.2,0.3,0.3,0.7,0.5,1.1
			c0.7,2.3,0.2,4.7-0.9,6.3l0,0c1.5,3.1,3.5,5,5.8,4.3c2.9-0.9,5.3-5.4,4.6-10c0.2,0.4,0.4,0.9,0.6,1.4c1.6,5-1.1,10.4-4.2,11.5
			c-2.5,0.8-4.5-1.3-6-4.7c-0.3-0.7-0.6-1.5-0.9-2.2c0,0,0.1-0.1,0.1-0.1c0,0-0.1,0.1-0.1,0.1c-0.5,0.7-1.2,1.2-1.8,1.4
			c-1.7,0.6-3.1-0.9-4.2-3.2c-0.3-0.6-0.6-1.4-0.8-2.1c-0.1-0.4-0.2-0.8-0.3-1.1c0.1,0.3,0.3,0.7,0.4,1
			C-117.4,470.9-116,472.3-114.3,471.8z"/>
	</g>
	<g>
		<path class="st7" d="M-123,501.9l3.6-0.1l1.8,0l0.1,0c0,0.7,5.5,8.5,6.1,8c0.1,0.9,0.2,1.7,0.4,2.5l-0.2,0l-2,0.3l-5.7,1
			c-0.2,0-0.3,0.1-0.5,0.1c-2.4,0.2-4.5-1.4-4.7-3.7c-0.1-0.9,0.2-1.8,0.7-2.6c-1.4-0.1-2.6-1.1-2.7-2.5
			C-126.3,503.3-124.8,501.9-123,501.9z"/>
		<g>
			<path class="st8" d="M-119.5,511.8c0.2,0,0.3,0,0.5-0.1l5.6-0.9c0,0,0,0,0,0c0.7-0.1,0.5-3.2,1.2-3.7c0,0.2,1.7,2.7,1.8,2.9
				c0,0,0.1,0.4,0.1,0.6c0,0,0.3,1.5-0.6,1.8l-0.2,0l-2,0.3l-5.7,1c-0.2,0-0.3,0.1-0.5,0.1c-2.4,0.2-4.5-1.4-4.7-3.7
				c0-0.3,0-0.6,0-1C-123.4,510.8-121.6,512-119.5,511.8z"/>
			<path class="st8" d="M-119.2,505.2c0-0.3-0.1-0.6-0.1-0.9c-0.1-0.8-0.1-1.6-0.1-2.4c0-0.1,0-0.1,0-0.2l1.8,0l0.1,0
				c0.8,0.4,1.7,1.9,1.7,1.9c0,0.3-0.4,2-1.3,2.8l-0.1,0l-1.8,0.3l-3.5,0.6c-0.1,0-0.2,0-0.3,0c-0.2,0-0.4,0-0.6,0
				c-1.4-0.1-2.6-1.1-2.7-2.5c0-0.3,0-0.6,0.1-0.8c0.4,1,1.4,1.6,2.5,1.7c0.2,0,0.4,0,0.6,0c0.1,0,0.2,0,0.3,0L-119.2,505.2z"/>
		</g>
		<path class="st9" d="M-110.1,499.7c0.6-0.7,1.4-1.2,2.4-1.3c3.5-0.3,8.3,3.8,8.9,9.3c0.5,5.5-3.5,10.4-7,10.8
			c-2.7,0.2-4.3-2.4-5.1-6.2c-0.2-0.8-0.3-1.6-0.4-2.5c-0.7,0.6-1.5,0.9-2.2,1c-1.9,0.2-3-1.6-3.5-4.3c-0.2-0.7-0.3-1.5-0.3-2.3
			c-0.1-0.8-0.1-1.6-0.1-2.4c0.1-2.7,0.8-4.7,2.7-4.8C-113.3,496.8-111.4,497.9-110.1,499.7z"/>
		<path class="st10" d="M-113.8,508.3c0.7-0.1,1.5-0.4,2.2-1c1.3-1.1,2.5-3,2.6-5.1c0.1,0.4,0.2,0.8,0.2,1.2
			c0.2,2.5-0.9,4.9-2.4,6.2l0,0c0.8,3.6,2.4,6,5,5.7c3.1-0.3,6.7-4.3,7-9.2c0.1,0.5,0.2,1,0.3,1.6c0.5,5.5-3.5,10.4-7,10.8
			c-2.7,0.2-4.3-2.4-5.1-6.2c-0.2-0.8-0.3-1.6-0.4-2.5c0,0,0.1-0.1,0.1-0.1c0,0-0.1,0.1-0.1,0.1c-0.7,0.6-1.5,0.9-2.2,1
			c-1.9,0.2-3-1.6-3.5-4.3c-0.2-0.7-0.3-1.5-0.3-2.3c0-0.4-0.1-0.8-0.1-1.2c0.1,0.4,0.1,0.7,0.2,1.1
			C-116.7,506.6-115.6,508.5-113.8,508.3z"/>
	</g>
	<g>
		<path class="st7" d="M-140,498l-2.7-1.6l-1.4-0.8l-0.1-0.1c0.3-0.5-0.2-8.7-1-8.6c0.3-0.7,0.6-1.4,0.8-2l0.1,0.1l1.6,0.6l4.7,1.8
			c0.1,0,0.3,0.1,0.4,0.2c1.9,0.9,2.7,3,1.9,4.8c-0.4,0.7-0.9,1.3-1.6,1.6c1,0.7,1.4,2,0.9,3.1C-137,498.4-138.7,498.8-140,498z"/>
		<g>
			<path class="st8" d="M-138.2,489.1c-0.1-0.1-0.3-0.1-0.4-0.2l-4.5-1.8c0,0,0,0,0,0c-0.6-0.3-1.8,2.1-2.6,2.2
				c0.1-0.2-0.1-2.7,0-2.9c0,0,0.1-0.4,0.2-0.5c0,0,0.5-1.3,1.2-1l0.1,0.1l1.6,0.6l4.7,1.8c0.1,0,0.3,0.1,0.4,0.2
				c1.9,0.9,2.7,3,1.9,4.8c-0.1,0.3-0.3,0.5-0.5,0.7C-135.7,491.5-136.6,489.9-138.2,489.1z"/>
			<path class="st8" d="M-141.3,493.8c-0.1,0.2-0.2,0.5-0.3,0.7c-0.3,0.6-0.6,1.2-1,1.8c0,0,0,0.1-0.1,0.1l-1.4-0.8l-0.1-0.1
				c-0.4-0.6-0.4-2.2-0.4-2.2c0.1-0.2,1.2-1.3,2.2-1.5l0.1,0l1.5,0.6l2.9,1.1c0.1,0,0.2,0.1,0.3,0.1c0.2,0.1,0.3,0.2,0.4,0.3
				c1,0.7,1.4,2,0.9,3.1c-0.1,0.2-0.2,0.4-0.4,0.6c0.1-0.9-0.3-1.8-1.1-2.4c-0.1-0.1-0.3-0.2-0.4-0.3c-0.1,0-0.2-0.1-0.3-0.1
				L-141.3,493.8z"/>
		</g>
		<path class="st9" d="M-150.5,493.8c-0.8,0.3-1.6,0.3-2.4-0.1c-2.7-1.3-4.5-6.5-2.4-10.8s7.3-6.1,10-4.8c2.1,1,2.1,3.7,1,6.8
			c-0.2,0.7-0.5,1.3-0.8,2c0.8-0.1,1.5,0,2.1,0.2c1.5,0.7,1.5,2.5,0.7,4.7c-0.2,0.6-0.5,1.2-0.8,1.9c-0.3,0.6-0.6,1.2-1,1.8
			c-1.2,2-2.7,3.1-4.1,2.4C-149.4,497.4-150.4,495.7-150.5,493.8z"/>
		<path class="st10" d="M-144,489.1c-0.6-0.3-1.3-0.4-2.1-0.2c-1.5,0.2-3.1,1.1-4.2,2.6c0.1-0.3,0.2-0.7,0.4-1c1-2,2.8-3.2,4.5-3.5
			c0,0,0,0,0,0c1-3,0.9-5.5-1.1-6.4c-2.4-1.2-6.9,0.2-9.3,3.6c0.1-0.4,0.3-0.9,0.5-1.3c2.1-4.3,7.3-6.1,10-4.8c2.1,1,2.1,3.7,1,6.8
			c-0.2,0.7-0.5,1.3-0.8,2c0,0-0.1,0-0.1,0c0,0,0.1,0,0.1,0c0.8-0.1,1.5,0,2.1,0.2c1.5,0.7,1.5,2.5,0.7,4.7
			c-0.2,0.6-0.5,1.2-0.8,1.9c-0.2,0.3-0.3,0.7-0.5,1c0.1-0.3,0.2-0.6,0.3-0.9C-142.5,491.6-142.5,489.8-144,489.1z"/>
	</g>
	<g>
		<path class="st7" d="M-139.4,525.9l-2.6,0.1l-1.3,0.1l-0.1,0c0,0.6-3.7,7.2-4.2,6.7c0,0.7-0.1,1.4-0.2,2.1l0.1,0l1.5,0.2l4.2,0.5
			c0.1,0,0.2,0,0.4,0c1.7,0.1,3.2-1.3,3.3-3.2c0-0.8-0.2-1.5-0.6-2c1-0.2,1.8-1,1.9-2.2C-137,526.9-138.1,525.8-139.4,525.9z"/>
		<g>
			<path class="st8" d="M-141.6,534.1c-0.1,0-0.2,0-0.4,0l-4-0.5c0,0,0,0,0,0c-0.5,0-0.5-2.5-1-3c0,0.2-1.2,2.2-1.2,2.4
				c0,0-0.1,0.4-0.1,0.5c0,0-0.1,1.3,0.5,1.4l0.1,0l1.5,0.2l4.2,0.5c0.1,0,0.2,0,0.4,0c1.7,0.1,3.2-1.3,3.3-3.2c0-0.3,0-0.5-0.1-0.8
				C-138.9,533.2-140.2,534.2-141.6,534.1z"/>
			<path class="st8" d="M-142,528.8c0-0.2,0-0.5,0-0.7c0-0.7,0-1.3,0-1.9c0,0,0-0.1,0-0.1l-1.3,0.1l-0.1,0c-0.6,0.3-1.2,1.6-1.2,1.6
				c0,0.2,0.4,1.6,1,2.2l0.1,0l1.3,0.2l2.6,0.3c0.1,0,0.2,0,0.2,0c0.1,0,0.3,0,0.4,0c1-0.2,1.8-1,1.9-2.2c0-0.2,0-0.5-0.1-0.7
				c-0.3,0.8-0.9,1.4-1.7,1.5c-0.1,0-0.3,0-0.4,0c-0.1,0-0.2,0-0.2,0L-142,528.8z"/>
		</g>
		<path class="st9" d="M-148.8,524.7c-0.4-0.6-1-0.9-1.8-1c-2.5-0.1-5.9,3.4-6.1,7.9c-0.2,4.5,2.9,8.3,5.4,8.4c2,0.1,3-2.1,3.5-5.2
			c0.1-0.6,0.2-1.3,0.2-2.1c0.5,0.4,1.1,0.7,1.6,0.7c1.4,0.1,2.1-1.5,2.4-3.6c0.1-0.6,0.1-1.2,0.2-1.9c0-0.7,0-1.3,0-1.9
			c-0.1-2.2-0.7-3.8-2.1-3.8C-146.6,522.2-147.9,523.2-148.8,524.7z"/>
		<path class="st10" d="M-145.9,531.5c-0.5,0-1.1-0.3-1.6-0.7c-1-0.8-1.9-2.3-2-4.1c-0.1,0.3-0.1,0.7-0.1,1
			c-0.1,2.1,0.8,3.9,1.9,4.9l0,0c-0.5,2.9-1.5,4.9-3.4,4.8c-2.3-0.1-5-3.2-5.3-7.1c-0.1,0.4-0.1,0.8-0.1,1.3
			c-0.2,4.5,2.9,8.3,5.4,8.4c2,0.1,3-2.1,3.5-5.2c0.1-0.6,0.2-1.3,0.2-2.1c0,0-0.1,0-0.1-0.1c0,0,0.1,0.1,0.1,0.1
			c0.5,0.4,1.1,0.7,1.6,0.7c1.4,0.1,2.1-1.5,2.4-3.6c0.1-0.6,0.1-1.2,0.2-1.9c0-0.3,0-0.7,0-1c0,0.3-0.1,0.6-0.1,0.9
			C-143.8,530.1-144.5,531.6-145.9,531.5z"/>
	</g>
</g>
<g>
	<g>
		<path class="st4" d="M46.9,452.3l-0.3-88.1c0,5.1-5.6,9.2-12.6,9.2s-12.7-4-12.7-9.1l0.3,88.1c0,5.1,5.7,9.2,12.7,9.1
			S46.9,457.4,46.9,452.3"/>
		<g>
			<path class="st5" d="M39.6,388.1l-0.1-16.1c0-1.1,0.6-1.8,1.4-1.8c0.8,0,1.4,0.7,1.4,1.8l0.1,16.1c0,1.1-0.6,1.8-1.4,1.8
				C40.2,389.9,39.6,389.2,39.6,388.1"/>
			<path class="st5" d="M39.8,424.8l-0.1-29.4c0-1.1,0.6-1.8,1.4-1.8c0.8,0,1.4,0.7,1.4,1.8l0.1,29.4c0,1.1-0.6,1.8-1.4,1.8
				C40.3,426.6,39.8,425.9,39.8,424.8"/>
			<path class="st5" d="M39.9,457.8l-0.1-25.7c0-1.1,0.6-1.8,1.4-1.8c0.8,0,1.4,0.7,1.4,1.8l0.1,25.7c0,1.1-0.6,1.8-1.4,1.8
				C40.4,459.6,39.9,458.9,39.9,457.8"/>
			<path class="st5" d="M32.7,415.6l0-5.5c0-1.1,0.6-1.8,1.4-1.8c0.8,0,1.4,0.7,1.4,1.8l0,5.5c0,1.1-0.6,1.8-1.4,1.8
				C33.3,417.5,32.7,416.7,32.7,415.6"/>
			<path class="st5" d="M32.7,399.1l-0.1-18.3c0-1.1,0.6-1.8,1.4-1.8c0.8,0,1.4,0.7,1.4,1.8l0.1,18.3c0,1.1-0.6,1.8-1.4,1.8
				S32.7,400.2,32.7,399.1"/>
			<path class="st5" d="M32.8,434l0-11c0-1.1,0.6-1.8,1.4-1.8c0.8,0,1.4,0.7,1.4,1.8l0,11c0,1.1-0.6,1.8-1.4,1.8
				C33.3,435.8,32.8,435.1,32.8,434"/>
			<path class="st5" d="M32.9,459.6l-0.1-16.5c0-1.1,0.6-1.8,1.4-1.8c0.8,0,1.4,0.7,1.4,1.8l0.1,16.5c0,1.1-0.6,1.8-1.4,1.8
				C33.4,461.5,32.9,460.7,32.9,459.6"/>
			<path class="st5" d="M25.6,390l-0.1-18c0-1.1,0.6-1.8,1.4-1.8c0.8,0,1.4,0.7,1.4,1.8l0.1,18c0,1.1-0.6,1.8-1.4,1.8
				C26.2,391.8,25.6,391.1,25.6,390"/>
			<path class="st5" d="M25.8,450.5l-0.1-14.7c0-1.1,0.6-1.8,1.4-1.8c0.8,0,1.4,0.7,1.4,1.8l0.1,14.7c0,1.1-0.6,1.8-1.4,1.8
				C26.4,452.3,25.8,451.6,25.8,450.5"/>
			<path class="st5" d="M25.7,423l-0.1-22c0-1.1,0.6-1.8,1.4-1.8s1.4,0.7,1.4,1.8l0.1,22c0,1.1-0.6,1.8-1.4,1.8
				C26.3,424.8,25.7,424.1,25.7,423"/>
		</g>
		<path class="st6" d="M34,373.4c-7,0-12.7-4-12.7-9.1c0-5.1,5.6-9.2,12.6-9.2c7,0,12.7,4,12.7,9.1C46.6,369.3,41,373.4,34,373.4"/>
		<path class="st5" d="M26.2,364.3c0-0.6,0.3-1.3,0.7-1.7c0.8-0.6,3.2-2,7-2s6.2,1.4,7,2c0.7,0.5,0.8,1.6,0.6,2.6
			c-0.4,0.9-1.3,1.1-2,0.7c-0.7-0.5-2.5-1.6-5.6-1.6c-3.1,0-4.9,1.1-5.6,1.7c-0.7,0.6-1.5,0.2-2-0.7
			C26.4,364.8,26.2,364.6,26.2,364.3"/>
	</g>
	<g>
		<path class="st7" d="M40.8,376.3l3.3-0.8l1.7-0.4l0.1,0c0.1,0.7,6.9,6.8,7.4,6.1c0.3,0.8,0.6,1.5,0.9,2.2l-0.2,0.1l-1.8,0.7
			l-5.1,2.1c-0.1,0.1-0.3,0.1-0.4,0.2c-2.2,0.7-4.5-0.3-5.2-2.4c-0.3-0.8-0.2-1.7,0.1-2.5c-1.3,0.2-2.6-0.5-3-1.8
			C38.1,378.3,39.1,376.6,40.8,376.3z"/>
		<g>
			<path class="st8" d="M46.1,384.7c0.1,0,0.3-0.1,0.4-0.2l5-2c0,0,0,0,0,0c0.6-0.2-0.2-3,0.4-3.7c0.1,0.2,2.2,2.1,2.2,2.3
				c0,0,0.2,0.4,0.3,0.5c0,0,0.6,1.4-0.2,1.8l-0.2,0.1l-1.8,0.7l-5.1,2.1c-0.1,0.1-0.3,0.1-0.4,0.2c-2.2,0.7-4.5-0.3-5.2-2.4
				c-0.1-0.3-0.2-0.6-0.2-0.9C42.3,384.7,44.3,385.3,46.1,384.7z"/>
			<path class="st8" d="M45,378.6c-0.1-0.3-0.2-0.5-0.3-0.8c-0.2-0.8-0.4-1.5-0.6-2.2c0,0,0-0.1,0-0.1l1.7-0.4l0.1,0
				c0.8,0.2,2,1.4,2,1.4c0.1,0.3,0,2-0.6,2.9l-0.1,0l-1.6,0.7l-3.2,1.3c-0.1,0-0.2,0.1-0.3,0.1c-0.2,0.1-0.4,0.1-0.5,0.1
				c-1.3,0.2-2.6-0.5-3-1.8c-0.1-0.3-0.1-0.5-0.1-0.8c0.6,0.8,1.6,1.2,2.7,1.1c0.2,0,0.4-0.1,0.5-0.1c0.1,0,0.2-0.1,0.3-0.1
				L45,378.6z"/>
		</g>
		<path class="st9" d="M52.4,371.5c0.4-0.8,1-1.4,2-1.7c3.2-1,8.5,1.7,10.2,6.8c1.6,5-1.1,10.4-4.2,11.5c-2.5,0.8-4.5-1.3-6-4.7
			c-0.3-0.7-0.6-1.5-0.9-2.2c-0.5,0.7-1.2,1.2-1.8,1.4c-1.7,0.6-3.1-0.9-4.2-3.2c-0.3-0.6-0.6-1.4-0.8-2.1c-0.2-0.8-0.4-1.5-0.6-2.2
			c-0.5-2.5-0.2-4.5,1.5-5C48.8,369.5,50.8,370.1,52.4,371.5z"/>
		<path class="st10" d="M50.7,380.3c0.7-0.2,1.3-0.7,1.8-1.4c1-1.3,1.6-3.3,1.4-5.3c0.2,0.3,0.3,0.7,0.5,1.1
			c0.7,2.3,0.2,4.7-0.9,6.3c0,0,0,0,0,0c1.5,3.1,3.5,5,5.8,4.3c2.9-0.9,5.3-5.4,4.6-10c0.2,0.4,0.4,0.9,0.6,1.4
			c1.6,5-1.1,10.4-4.2,11.5c-2.5,0.8-4.5-1.3-6-4.7c-0.3-0.7-0.6-1.5-0.9-2.2c0,0,0.1-0.1,0.1-0.1c0,0-0.1,0.1-0.1,0.1
			c-0.5,0.7-1.2,1.2-1.8,1.4c-1.7,0.6-3.1-0.9-4.2-3.2c-0.3-0.6-0.6-1.4-0.8-2.1c-0.1-0.4-0.2-0.8-0.3-1.1c0.1,0.3,0.3,0.7,0.4,1
			C47.7,379.4,49,380.8,50.7,380.3z"/>
	</g>
	<g>
		<path class="st7" d="M42,410.4l3.6-0.1l1.8,0l0.1,0c0,0.7,5.5,8.5,6.1,8c0.1,0.9,0.2,1.7,0.4,2.5l-0.2,0l-2,0.3l-5.7,1
			c-0.2,0-0.3,0.1-0.5,0.1c-2.4,0.2-4.5-1.4-4.7-3.7c-0.1-0.9,0.2-1.8,0.7-2.6c-1.4-0.1-2.6-1.1-2.7-2.5
			C38.7,411.8,40.2,410.4,42,410.4z"/>
		<g>
			<path class="st8" d="M45.5,420.3c0.2,0,0.3,0,0.5-0.1l5.6-0.9c0,0,0,0,0,0c0.7-0.1,0.5-3.2,1.2-3.7c0,0.2,1.7,2.7,1.8,2.9
				c0,0,0.1,0.4,0.1,0.6c0,0,0.3,1.5-0.6,1.8l-0.2,0l-2,0.3l-5.7,1c-0.2,0-0.3,0.1-0.5,0.1c-2.4,0.2-4.5-1.4-4.7-3.7
				c0-0.3,0-0.6,0-1C41.6,419.3,43.4,420.5,45.5,420.3z"/>
			<path class="st8" d="M45.8,413.7c0-0.3-0.1-0.6-0.1-0.9c-0.1-0.8-0.1-1.6-0.1-2.4c0-0.1,0-0.1,0-0.2l1.8,0l0.1,0
				c0.8,0.4,1.7,1.9,1.7,1.9c0,0.3-0.4,2-1.3,2.8l-0.1,0l-1.8,0.3l-3.5,0.6c-0.1,0-0.2,0-0.3,0c-0.2,0-0.4,0-0.6,0
				c-1.4-0.1-2.6-1.1-2.7-2.5c0-0.3,0-0.6,0.1-0.8c0.4,1,1.4,1.6,2.5,1.7c0.2,0,0.4,0,0.6,0c0.1,0,0.2,0,0.3,0L45.8,413.7z"/>
		</g>
		<path class="st9" d="M54.9,408.2c0.6-0.7,1.4-1.2,2.4-1.3c3.5-0.3,8.3,3.8,8.9,9.3c0.5,5.5-3.5,10.4-7,10.8
			c-2.7,0.2-4.3-2.4-5.1-6.2c-0.2-0.8-0.3-1.6-0.4-2.5c-0.7,0.6-1.5,0.9-2.2,1c-1.9,0.2-3-1.6-3.5-4.3c-0.2-0.7-0.3-1.5-0.3-2.3
			c-0.1-0.8-0.1-1.6-0.1-2.4c0.1-2.7,0.8-4.7,2.7-4.8C51.7,405.3,53.6,406.4,54.9,408.2z"/>
		<path class="st10" d="M51.2,416.8c0.7-0.1,1.5-0.4,2.2-1c1.3-1.1,2.5-3,2.6-5.1c0.1,0.4,0.2,0.8,0.2,1.2c0.2,2.5-0.9,4.9-2.4,6.2
			l0,0c0.8,3.6,2.4,6,5,5.7c3.1-0.3,6.7-4.3,7-9.2c0.1,0.5,0.2,1,0.3,1.6c0.5,5.5-3.5,10.4-7,10.8c-2.7,0.2-4.3-2.4-5.1-6.2
			c-0.2-0.8-0.3-1.6-0.4-2.5c0,0,0.1-0.1,0.1-0.1c0,0-0.1,0.1-0.1,0.1c-0.7,0.6-1.5,0.9-2.2,1c-1.9,0.2-3-1.6-3.5-4.3
			c-0.2-0.7-0.3-1.5-0.3-2.3c0-0.4-0.1-0.8-0.1-1.2c0.1,0.4,0.1,0.7,0.2,1.1C48.3,415.2,49.4,417,51.2,416.8z"/>
	</g>
	<g>
		<path class="st7" d="M25,406.5l-2.7-1.6l-1.4-0.8l-0.1-0.1c0.3-0.5-0.2-8.7-1-8.6c0.3-0.7,0.6-1.4,0.8-2l0.1,0.1l1.6,0.6l4.7,1.8
			c0.1,0,0.3,0.1,0.4,0.2c1.9,0.9,2.7,3,1.9,4.8c-0.4,0.7-0.9,1.3-1.6,1.6c1,0.7,1.4,2,0.9,3.1C28,406.9,26.3,407.3,25,406.5z"/>
		<g>
			<path class="st8" d="M26.8,397.6c-0.1-0.1-0.3-0.1-0.4-0.2l-4.5-1.8c0,0,0,0,0,0c-0.6-0.3-1.8,2.1-2.6,2.2c0.1-0.2-0.1-2.7,0-2.9
				c0,0,0.1-0.4,0.2-0.5c0,0,0.5-1.3,1.2-1l0.1,0.1l1.6,0.6l4.7,1.8c0.1,0,0.3,0.1,0.4,0.2c1.9,0.9,2.7,3,1.9,4.8
				c-0.1,0.3-0.3,0.5-0.5,0.7C29.3,400,28.4,398.4,26.8,397.6z"/>
			<path class="st8" d="M23.7,402.3c-0.1,0.2-0.2,0.5-0.3,0.7c-0.3,0.6-0.6,1.2-1,1.8c0,0,0,0.1-0.1,0.1l-1.4-0.8l-0.1-0.1
				c-0.4-0.6-0.4-2.2-0.4-2.2c0.1-0.2,1.2-1.3,2.2-1.5l0.1,0l1.5,0.6l2.9,1.1c0.1,0,0.2,0.1,0.3,0.1c0.2,0.1,0.3,0.2,0.4,0.3
				c1,0.7,1.4,2,0.9,3.1c-0.1,0.2-0.2,0.4-0.4,0.6c0.1-0.9-0.3-1.8-1.1-2.4c-0.1-0.1-0.3-0.2-0.4-0.3c-0.1,0-0.2-0.1-0.3-0.1
				L23.7,402.3z"/>
		</g>
		<path class="st9" d="M14.5,402.3c-0.8,0.3-1.6,0.3-2.4-0.1c-2.7-1.3-4.5-6.5-2.4-10.8s7.3-6.1,10-4.8c2.1,1,2.1,3.7,1,6.8
			c-0.2,0.7-0.5,1.3-0.8,2c0.8-0.1,1.5,0,2.1,0.2c1.5,0.7,1.5,2.5,0.7,4.7c-0.2,0.6-0.5,1.2-0.8,1.9c-0.3,0.6-0.6,1.2-1,1.8
			c-1.2,2-2.7,3.1-4.1,2.4C15.6,405.9,14.6,404.2,14.5,402.3z"/>
		<path class="st10" d="M21,397.6c-0.6-0.3-1.3-0.4-2.1-0.2c-1.5,0.2-3.1,1.1-4.2,2.6c0.1-0.3,0.2-0.7,0.4-1c1-2,2.8-3.2,4.5-3.5
			l0,0c1-3,0.9-5.5-1.1-6.4c-2.4-1.2-6.9,0.2-9.3,3.6c0.1-0.4,0.3-0.9,0.5-1.3c2.1-4.3,7.3-6.1,10-4.8c2.1,1,2.1,3.7,1,6.8
			c-0.2,0.7-0.5,1.3-0.8,2c0,0-0.1,0-0.1,0c0,0,0.1,0,0.1,0c0.8-0.1,1.5,0,2.1,0.2c1.5,0.7,1.5,2.5,0.7,4.7
			c-0.2,0.6-0.5,1.2-0.8,1.9c-0.2,0.3-0.3,0.7-0.5,1c0.1-0.3,0.2-0.6,0.3-0.9C22.5,400.2,22.5,398.3,21,397.6z"/>
	</g>
	<g>
		<path class="st7" d="M25.6,434.4l-2.6,0.1l-1.3,0.1l-0.1,0c0,0.6-3.7,7.2-4.2,6.7c0,0.7-0.1,1.4-0.2,2.1l0.1,0l1.5,0.2l4.2,0.5
			c0.1,0,0.2,0,0.4,0c1.7,0.1,3.2-1.3,3.3-3.2c0-0.8-0.2-1.5-0.6-2c1-0.2,1.8-1,1.9-2.2C28,435.4,26.9,434.3,25.6,434.4z"/>
		<g>
			<path class="st8" d="M23.4,442.6c-0.1,0-0.2,0-0.4,0l-4-0.5c0,0,0,0,0,0c-0.5,0-0.5-2.5-1-3c0,0.2-1.2,2.2-1.2,2.4
				c0,0-0.1,0.4-0.1,0.5c0,0-0.1,1.3,0.5,1.4l0.1,0l1.5,0.2l4.2,0.5c0.1,0,0.2,0,0.4,0c1.7,0.1,3.2-1.3,3.3-3.2c0-0.3,0-0.5-0.1-0.8
				C26.2,441.7,24.8,442.7,23.4,442.6z"/>
			<path class="st8" d="M23,437.3c0-0.2,0-0.5,0-0.7c0-0.7,0-1.3,0-1.9c0,0,0-0.1,0-0.1l-1.3,0.1l-0.1,0c-0.6,0.3-1.2,1.6-1.2,1.6
				c0,0.2,0.4,1.6,1,2.2l0.1,0l1.3,0.2l2.6,0.3c0.1,0,0.2,0,0.2,0c0.1,0,0.3,0,0.4,0c1-0.2,1.8-1,1.9-2.2c0-0.2,0-0.5-0.1-0.7
				c-0.3,0.8-0.9,1.4-1.7,1.5c-0.1,0-0.3,0-0.4,0c-0.1,0-0.2,0-0.2,0L23,437.3z"/>
		</g>
		<path class="st9" d="M16.2,433.2c-0.4-0.6-1-0.9-1.8-1c-2.5-0.1-5.9,3.4-6.1,7.9s2.9,8.3,5.4,8.4c2,0.1,3-2.1,3.5-5.2
			c0.1-0.6,0.2-1.3,0.2-2.1c0.5,0.4,1.1,0.7,1.6,0.7c1.4,0.1,2.1-1.5,2.4-3.6c0.1-0.6,0.1-1.2,0.2-1.9c0-0.7,0-1.3,0-1.9
			c-0.1-2.2-0.7-3.8-2.1-3.8C18.4,430.7,17.1,431.7,16.2,433.2z"/>
		<path class="st10" d="M19.1,440c-0.5,0-1.1-0.3-1.6-0.7c-1-0.8-1.9-2.3-2-4.1c-0.1,0.3-0.1,0.7-0.1,1c-0.1,2.1,0.8,3.9,1.9,4.9
			l0,0c-0.5,2.9-1.5,4.9-3.4,4.8c-2.3-0.1-5-3.2-5.3-7.1c-0.1,0.4-0.1,0.8-0.1,1.3c-0.2,4.5,2.9,8.3,5.4,8.4c2,0.1,3-2.1,3.5-5.2
			c0.1-0.6,0.2-1.3,0.2-2.1c0,0-0.1,0-0.1-0.1c0,0,0.1,0.1,0.1,0.1c0.5,0.4,1.1,0.7,1.6,0.7c1.4,0.1,2.1-1.5,2.4-3.6
			c0.1-0.6,0.1-1.2,0.2-1.9c0-0.3,0-0.7,0-1c0,0.3-0.1,0.6-0.1,0.9C21.2,438.6,20.5,440.1,19.1,440z"/>
	</g>
</g>
<g>
	<g>
		<path class="st4" d="M45.3,636.2L45,548.1c0,5.1-5.6,9.2-12.6,9.2s-12.7-4-12.7-9.1l0.3,88.1c0,5.1,5.7,9.2,12.7,9.1
			C39.7,645.3,45.3,641.3,45.3,636.2"/>
		<g>
			<path class="st5" d="M38,572L38,555.8c0-1.1,0.6-1.8,1.4-1.8c0.8,0,1.4,0.7,1.4,1.8l0.1,16.1c0,1.1-0.6,1.8-1.4,1.8
				C38.6,573.8,38,573.1,38,572"/>
			<path class="st5" d="M38.1,608.7L38,579.3c0-1.1,0.6-1.8,1.4-1.8c0.8,0,1.4,0.7,1.4,1.8l0.1,29.4c0,1.1-0.6,1.8-1.4,1.8
				C38.7,610.5,38.1,609.8,38.1,608.7"/>
			<path class="st5" d="M38.3,641.7L38.2,616c0-1.1,0.6-1.8,1.4-1.8c0.8,0,1.4,0.7,1.4,1.8l0.1,25.7c0,1.1-0.6,1.8-1.4,1.8
				C38.8,643.5,38.3,642.8,38.3,641.7"/>
			<path class="st5" d="M31.1,599.5l0-5.5c0-1.1,0.6-1.8,1.4-1.8c0.8,0,1.4,0.7,1.4,1.8l0,5.5c0,1.1-0.6,1.8-1.4,1.8
				C31.7,601.3,31.1,600.6,31.1,599.5"/>
			<path class="st5" d="M31,583L31,564.7c0-1.1,0.6-1.8,1.4-1.8c0.8,0,1.4,0.7,1.4,1.8l0.1,18.3c0,1.1-0.6,1.8-1.4,1.8
				C31.6,584.8,31,584.1,31,583"/>
			<path class="st5" d="M31.1,617.9l0-11c0-1.1,0.6-1.8,1.4-1.8c0.8,0,1.4,0.7,1.4,1.8l0,11c0,1.1-0.6,1.8-1.4,1.8
				C31.7,619.7,31.2,619,31.1,617.9"/>
			<path class="st5" d="M31.2,643.5L31.2,627c0-1.1,0.6-1.8,1.4-1.8c0.8,0,1.4,0.7,1.4,1.8l0.1,16.5c0,1.1-0.6,1.8-1.4,1.8
				C31.8,645.4,31.2,644.6,31.2,643.5"/>
			<path class="st5" d="M24,573.9l-0.1-18c0-1.1,0.6-1.8,1.4-1.8s1.4,0.7,1.4,1.8l0.1,18c0,1.1-0.6,1.8-1.4,1.8
				C24.5,575.7,24,575,24,573.9"/>
			<path class="st5" d="M24.2,634.4l-0.1-14.7c0-1.1,0.6-1.8,1.4-1.8c0.8,0,1.4,0.7,1.4,1.8l0.1,14.7c0,1.1-0.6,1.8-1.4,1.8
				C24.7,636.2,24.2,635.5,24.2,634.4"/>
			<path class="st5" d="M24.1,606.9l-0.1-22c0-1.1,0.6-1.8,1.4-1.8s1.4,0.7,1.4,1.8l0.1,22c0,1.1-0.6,1.8-1.4,1.8
				C24.7,608.7,24.1,608,24.1,606.9"/>
		</g>
		<path class="st6" d="M32.3,557.3c-7,0-12.7-4-12.7-9.1c0-5.1,5.6-9.2,12.6-9.2s12.7,4,12.7,9.1C45,553.2,39.4,557.3,32.3,557.3"/>
		<path class="st5" d="M24.6,548.2c0-0.6,0.3-1.3,0.7-1.7c0.8-0.6,3.2-2,7-2c3.8,0,6.2,1.4,7,2c0.7,0.5,0.8,1.6,0.6,2.6
			c-0.4,0.9-1.3,1.1-2,0.7c-0.7-0.5-2.5-1.6-5.6-1.6s-4.9,1.1-5.6,1.7c-0.7,0.6-1.5,0.2-2-0.7C24.7,548.7,24.6,548.5,24.6,548.2"/>
	</g>
	<g>
		<path class="st7" d="M39.2,560.2l3.3-0.8l1.7-0.4l0.1,0c0.1,0.7,6.9,6.8,7.4,6.1c0.3,0.8,0.6,1.5,0.9,2.2l-0.2,0.1l-1.8,0.7
			l-5.1,2.1c-0.1,0.1-0.3,0.1-0.4,0.2c-2.2,0.7-4.5-0.3-5.2-2.4c-0.3-0.8-0.2-1.7,0.1-2.5c-1.3,0.2-2.6-0.5-3-1.8
			C36.5,562.2,37.5,560.5,39.2,560.2z"/>
		<g>
			<path class="st8" d="M44.5,568.6c0.1,0,0.3-0.1,0.4-0.2l5-2c0,0,0,0,0,0c0.6-0.2-0.2-3,0.4-3.7c0.1,0.2,2.2,2.1,2.2,2.3
				c0,0,0.2,0.4,0.3,0.5c0,0,0.6,1.4-0.2,1.8l-0.2,0.1l-1.8,0.7l-5.1,2.1c-0.1,0.1-0.3,0.1-0.4,0.2c-2.2,0.7-4.5-0.3-5.2-2.4
				c-0.1-0.3-0.2-0.6-0.2-0.9C40.7,568.5,42.7,569.2,44.5,568.6z"/>
			<path class="st8" d="M43.4,562.5c-0.1-0.3-0.2-0.5-0.3-0.8c-0.2-0.8-0.4-1.5-0.6-2.2c0,0,0-0.1,0-0.1l1.7-0.4l0.1,0
				c0.8,0.2,2,1.4,2,1.4c0.1,0.3,0,2-0.6,2.9l-0.1,0l-1.6,0.7l-3.2,1.3c-0.1,0-0.2,0.1-0.3,0.1c-0.2,0.1-0.4,0.1-0.5,0.1
				c-1.3,0.2-2.6-0.5-3-1.8c-0.1-0.3-0.1-0.5-0.1-0.8c0.6,0.8,1.6,1.2,2.7,1.1c0.2,0,0.4-0.1,0.5-0.1c0.1,0,0.2-0.1,0.3-0.1
				L43.4,562.5z"/>
		</g>
		<path class="st9" d="M50.7,555.4c0.4-0.8,1-1.4,2-1.7c3.2-1,8.5,1.7,10.2,6.8c1.6,5-1.1,10.4-4.2,11.5c-2.5,0.8-4.5-1.3-6-4.7
			c-0.3-0.7-0.6-1.5-0.9-2.2c-0.5,0.7-1.2,1.2-1.8,1.4c-1.7,0.6-3.1-0.9-4.2-3.2c-0.3-0.6-0.6-1.4-0.8-2.1c-0.2-0.8-0.4-1.5-0.6-2.2
			c-0.5-2.5-0.2-4.5,1.5-5C47.2,553.4,49.2,554,50.7,555.4z"/>
		<path class="st10" d="M49.1,564.2c0.7-0.2,1.3-0.7,1.8-1.4c1-1.3,1.6-3.3,1.4-5.3c0.2,0.3,0.3,0.7,0.5,1.1
			c0.7,2.3,0.2,4.7-0.9,6.3l0,0c1.5,3.1,3.5,5,5.8,4.3c2.9-0.9,5.3-5.4,4.6-10c0.2,0.4,0.4,0.9,0.6,1.4c1.6,5-1.1,10.4-4.2,11.5
			c-2.5,0.8-4.5-1.3-6-4.7c-0.3-0.7-0.6-1.5-0.9-2.2c0,0,0.1-0.1,0.1-0.1c0,0-0.1,0.1-0.1,0.1c-0.5,0.7-1.2,1.2-1.8,1.4
			c-1.7,0.6-3.1-0.9-4.2-3.2c-0.3-0.6-0.6-1.4-0.8-2.1c-0.1-0.4-0.2-0.8-0.3-1.1c0.1,0.3,0.3,0.7,0.4,1
			C46,563.3,47.4,564.7,49.1,564.2z"/>
	</g>
	<g>
		<path class="st7" d="M40.4,594.3l3.6-0.1l1.8,0l0.1,0c0,0.7,5.5,8.5,6.1,8c0.1,0.9,0.2,1.7,0.4,2.5l-0.2,0l-2,0.3l-5.7,1
			c-0.2,0-0.3,0.1-0.5,0.1c-2.4,0.2-4.5-1.4-4.7-3.7c-0.1-0.9,0.2-1.8,0.7-2.6c-1.4-0.1-2.6-1.1-2.7-2.5
			C37.1,595.7,38.6,594.3,40.4,594.3z"/>
		<g>
			<path class="st8" d="M43.9,604.2c0.2,0,0.3,0,0.5-0.1l5.6-0.9c0,0,0,0,0,0c0.7-0.1,0.5-3.2,1.2-3.7c0,0.2,1.7,2.7,1.8,2.9
				c0,0,0.1,0.4,0.1,0.6c0,0,0.3,1.5-0.6,1.8l-0.2,0l-2,0.3l-5.7,1c-0.2,0-0.3,0.1-0.5,0.1c-2.4,0.2-4.5-1.4-4.7-3.7
				c0-0.3,0-0.6,0-1C39.9,603.2,41.8,604.4,43.9,604.2z"/>
			<path class="st8" d="M44.1,597.6c0-0.3-0.1-0.6-0.1-0.9c-0.1-0.8-0.1-1.6-0.1-2.4c0-0.1,0-0.1,0-0.2l1.8,0l0.1,0
				c0.8,0.4,1.7,1.9,1.7,1.9c0,0.3-0.4,2-1.3,2.8l-0.1,0l-1.8,0.3l-3.5,0.6c-0.1,0-0.2,0-0.3,0c-0.2,0-0.4,0-0.6,0
				c-1.4-0.1-2.6-1.1-2.7-2.5c0-0.3,0-0.6,0.1-0.8c0.4,1,1.4,1.6,2.5,1.7c0.2,0,0.4,0,0.6,0c0.1,0,0.2,0,0.3,0L44.1,597.6z"/>
		</g>
		<path class="st9" d="M53.3,592.1c0.6-0.7,1.4-1.2,2.4-1.3c3.5-0.3,8.3,3.8,8.9,9.3c0.5,5.5-3.5,10.4-7,10.8
			c-2.7,0.2-4.3-2.4-5.1-6.2c-0.2-0.8-0.3-1.6-0.4-2.5c-0.7,0.6-1.5,0.9-2.2,1c-1.9,0.2-3-1.6-3.5-4.3c-0.2-0.7-0.3-1.5-0.3-2.3
			c-0.1-0.8-0.1-1.6-0.1-2.4c0.1-2.7,0.8-4.7,2.7-4.8C50.1,589.2,52,590.3,53.3,592.1z"/>
		<path class="st10" d="M49.6,600.7c0.7-0.1,1.5-0.4,2.2-1c1.3-1.1,2.5-3,2.6-5.1c0.1,0.4,0.2,0.8,0.2,1.2c0.2,2.5-0.9,4.9-2.4,6.2
			c0,0,0,0,0,0c0.8,3.6,2.4,6,5,5.7c3.1-0.3,6.7-4.3,7-9.2c0.1,0.5,0.2,1,0.3,1.6c0.5,5.5-3.5,10.4-7,10.8c-2.7,0.2-4.3-2.4-5.1-6.2
			c-0.2-0.8-0.3-1.6-0.4-2.5c0,0,0.1-0.1,0.1-0.1c0,0-0.1,0.1-0.1,0.1c-0.7,0.6-1.5,0.9-2.2,1c-1.9,0.2-3-1.6-3.5-4.3
			c-0.2-0.7-0.3-1.5-0.3-2.3c0-0.4-0.1-0.8-0.1-1.2c0.1,0.4,0.1,0.7,0.2,1.1C46.7,599,47.7,600.9,49.6,600.7z"/>
	</g>
	<g>
		<path class="st7" d="M23.4,590.4l-2.7-1.6l-1.4-0.8l-0.1-0.1c0.3-0.5-0.2-8.7-1-8.6c0.3-0.7,0.6-1.4,0.8-2l0.1,0.1l1.6,0.6
			l4.7,1.8c0.1,0,0.3,0.1,0.4,0.2c1.9,0.9,2.7,3,1.9,4.8c-0.4,0.7-0.9,1.3-1.6,1.6c1,0.7,1.4,2,0.9,3.1
			C26.4,590.8,24.7,591.2,23.4,590.4z"/>
		<g>
			<path class="st8" d="M25.2,581.5c-0.1-0.1-0.3-0.1-0.4-0.2l-4.5-1.8c0,0,0,0,0,0c-0.6-0.3-1.8,2.1-2.6,2.2c0.1-0.2-0.1-2.7,0-2.9
				c0,0,0.1-0.4,0.2-0.5c0,0,0.5-1.3,1.2-1l0.1,0.1l1.6,0.6l4.7,1.8c0.1,0,0.3,0.1,0.4,0.2c1.9,0.9,2.7,3,1.9,4.8
				c-0.1,0.3-0.3,0.5-0.5,0.7C27.7,583.9,26.8,582.3,25.2,581.5z"/>
			<path class="st8" d="M22.1,586.2c-0.1,0.2-0.2,0.5-0.3,0.7c-0.3,0.6-0.6,1.2-1,1.8c0,0,0,0.1-0.1,0.1l-1.4-0.8l-0.1-0.1
				c-0.4-0.6-0.4-2.2-0.4-2.2c0.1-0.2,1.2-1.3,2.2-1.5l0.1,0l1.5,0.6l2.9,1.1c0.1,0,0.2,0.1,0.3,0.1c0.2,0.1,0.3,0.2,0.4,0.3
				c1,0.7,1.4,2,0.9,3.1c-0.1,0.2-0.2,0.4-0.4,0.6c0.1-0.9-0.3-1.8-1.1-2.4c-0.1-0.1-0.3-0.2-0.4-0.3c-0.1,0-0.2-0.1-0.3-0.1
				L22.1,586.2z"/>
		</g>
		<path class="st9" d="M12.9,586.2c-0.8,0.3-1.6,0.3-2.4-0.1c-2.7-1.3-4.5-6.5-2.4-10.8s7.3-6.1,10-4.8c2.1,1,2.1,3.7,1,6.8
			c-0.2,0.7-0.5,1.3-0.8,2c0.8-0.1,1.5,0,2.1,0.2c1.5,0.7,1.5,2.5,0.7,4.7c-0.2,0.6-0.5,1.2-0.8,1.9c-0.3,0.6-0.6,1.2-1,1.8
			c-1.2,2-2.7,3.1-4.1,2.4C13.9,589.8,13,588.1,12.9,586.2z"/>
		<path class="st10" d="M19.4,581.5c-0.6-0.3-1.3-0.4-2.1-0.2c-1.5,0.2-3.1,1.1-4.2,2.6c0.1-0.3,0.2-0.7,0.4-1c1-2,2.8-3.2,4.5-3.5
			l0,0c1-3,0.9-5.5-1.1-6.4c-2.4-1.2-6.9,0.2-9.3,3.6c0.1-0.4,0.3-0.9,0.5-1.3c2.1-4.3,7.3-6.1,10-4.8c2.1,1,2.1,3.7,1,6.8
			c-0.2,0.7-0.5,1.3-0.8,2c0,0-0.1,0-0.1,0c0,0,0.1,0,0.1,0c0.8-0.1,1.5,0,2.1,0.2c1.5,0.7,1.5,2.5,0.7,4.7
			c-0.2,0.6-0.5,1.2-0.8,1.9c-0.2,0.3-0.3,0.7-0.5,1c0.1-0.3,0.2-0.6,0.3-0.9C20.9,584,20.9,582.2,19.4,581.5z"/>
	</g>
	<g>
		<path class="st7" d="M24,618.3l-2.6,0.1l-1.3,0.1l-0.1,0c0,0.6-3.7,7.2-4.2,6.7c0,0.7-0.1,1.4-0.2,2.1l0.1,0l1.5,0.2l4.2,0.5
			c0.1,0,0.2,0,0.4,0c1.7,0.1,3.2-1.3,3.3-3.2c0-0.8-0.2-1.5-0.6-2c1-0.2,1.8-1,1.9-2.2C26.3,619.3,25.3,618.2,24,618.3z"/>
		<g>
			<path class="st8" d="M21.8,626.5c-0.1,0-0.2,0-0.4,0l-4-0.5c0,0,0,0,0,0c-0.5,0-0.5-2.5-1-3c0,0.2-1.2,2.2-1.2,2.4
				c0,0-0.1,0.4-0.1,0.5c0,0-0.1,1.3,0.5,1.4l0.1,0l1.5,0.2l4.2,0.5c0.1,0,0.2,0,0.4,0c1.7,0.1,3.2-1.3,3.3-3.2c0-0.3,0-0.5-0.1-0.8
				C24.5,625.6,23.2,626.6,21.8,626.5z"/>
			<path class="st8" d="M21.3,621.2c0-0.2,0-0.5,0-0.7c0-0.7,0-1.3,0-1.9c0,0,0-0.1,0-0.1l-1.3,0.1l-0.1,0c-0.6,0.3-1.2,1.6-1.2,1.6
				c0,0.2,0.4,1.6,1,2.2l0.1,0l1.3,0.2l2.6,0.3c0.1,0,0.2,0,0.2,0c0.1,0,0.3,0,0.4,0c1-0.2,1.8-1,1.9-2.2c0-0.2,0-0.5-0.1-0.7
				c-0.3,0.8-0.9,1.4-1.7,1.5c-0.1,0-0.3,0-0.4,0c-0.1,0-0.2,0-0.2,0L21.3,621.2z"/>
		</g>
		<path class="st9" d="M14.6,617.1c-0.4-0.6-1-0.9-1.8-1c-2.5-0.1-5.9,3.4-6.1,7.9s2.9,8.3,5.4,8.4c2,0.1,3-2.1,3.5-5.2
			c0.1-0.6,0.2-1.3,0.2-2.1c0.5,0.4,1.1,0.7,1.6,0.7c1.4,0.1,2.1-1.5,2.4-3.6c0.1-0.6,0.1-1.2,0.2-1.9c0-0.7,0-1.3,0-1.9
			c-0.1-2.2-0.7-3.8-2.1-3.8C16.8,614.6,15.5,615.6,14.6,617.1z"/>
		<path class="st10" d="M17.5,623.9c-0.5,0-1.1-0.3-1.6-0.7c-1-0.8-1.9-2.3-2-4.1c-0.1,0.3-0.1,0.7-0.1,1c-0.1,2.1,0.8,3.9,1.9,4.9
			l0,0c-0.5,2.9-1.5,4.9-3.4,4.8c-2.3-0.1-5-3.2-5.3-7.1c-0.1,0.4-0.1,0.8-0.1,1.3c-0.2,4.5,2.9,8.3,5.4,8.4c2,0.1,3-2.1,3.5-5.2
			c0.1-0.6,0.2-1.3,0.2-2.1c0,0-0.1,0-0.1-0.1c0,0,0.1,0.1,0.1,0.1c0.5,0.4,1.1,0.7,1.6,0.7c1.4,0.1,2.1-1.5,2.4-3.6
			c0.1-0.6,0.1-1.2,0.2-1.9c0-0.3,0-0.7,0-1c0,0.3-0.1,0.6-0.1,0.9C19.6,622.5,18.9,624,17.5,623.9z"/>
	</g>
</g>
<g>
	<g>
		<path class="st4" d="M180,544.6c0,5.1,5.6,9.2,12.6,9.2s12.7-4,12.7-9.1l0.3-88.1c0,5.1-5.7,9.2-12.7,9.1s-12.6-4.1-12.6-9.2
			L180,544.6"/>
		<g>
			<path class="st5" d="M187.2,480.4c0,1.1-0.6,1.8-1.4,1.8c-0.8,0-1.4-0.7-1.4-1.8l0.1-16.1c0-1.1,0.6-1.8,1.4-1.8s1.4,0.7,1.4,1.8
				L187.2,480.4"/>
			<path class="st5" d="M187.1,517.1c0,1.1-0.6,1.8-1.4,1.8c-0.8,0-1.4-0.7-1.4-1.8l0.1-29.4c0-1.1,0.6-1.8,1.4-1.8
				c0.8,0,1.4,0.7,1.4,1.8L187.1,517.1"/>
			<path class="st5" d="M187,550.1c0,1.1-0.6,1.8-1.4,1.8c-0.8,0-1.4-0.7-1.4-1.8l0.1-25.7c0-1.1,0.6-1.8,1.4-1.8s1.4,0.7,1.4,1.8
				L187,550.1"/>
			<path class="st5" d="M194.1,507.9c0,1.1-0.6,1.8-1.4,1.8c-0.8,0-1.4-0.7-1.4-1.8l0-5.5c0-1.1,0.6-1.8,1.4-1.8
				c0.8,0,1.4,0.7,1.4,1.8L194.1,507.9"/>
			<path class="st5" d="M194.2,491.4c0,1.1-0.6,1.8-1.4,1.8s-1.4-0.7-1.4-1.8l0.1-18.3c0-1.1,0.6-1.8,1.4-1.8c0.8,0,1.4,0.7,1.4,1.8
				L194.2,491.4"/>
			<path class="st5" d="M194.1,526.3c0,1.1-0.6,1.8-1.4,1.8c-0.8,0-1.4-0.7-1.4-1.8l0-11c0-1.1,0.6-1.8,1.4-1.8s1.4,0.7,1.4,1.8
				L194.1,526.3"/>
			<path class="st5" d="M194,552c0,1.1-0.6,1.8-1.4,1.8c-0.8,0-1.4-0.7-1.4-1.8l0.1-16.5c0-1.1,0.6-1.8,1.4-1.8
				c0.8,0,1.4,0.7,1.4,1.8L194,552"/>
			<path class="st5" d="M201.2,482.3c0,1.1-0.6,1.8-1.4,1.8c-0.8,0-1.4-0.7-1.4-1.8l0.1-18c0-1.1,0.6-1.8,1.4-1.8
				c0.8,0,1.4,0.7,1.4,1.8L201.2,482.3"/>
			<path class="st5" d="M201,542.8c0,1.1-0.6,1.8-1.4,1.8c-0.8,0-1.4-0.7-1.4-1.8l0.1-14.7c0-1.1,0.6-1.8,1.4-1.8s1.4,0.7,1.4,1.8
				L201,542.8"/>
			<path class="st5" d="M201.1,515.3c0,1.1-0.6,1.8-1.4,1.8c-0.8,0-1.4-0.7-1.4-1.8l0.1-22c0-1.1,0.6-1.8,1.4-1.8s1.4,0.7,1.4,1.8
				L201.1,515.3"/>
		</g>
		<path class="st6" d="M192.9,465.7c-7,0-12.6-4.1-12.6-9.2s5.7-9.2,12.7-9.1c7,0,12.6,4.1,12.6,9.2S199.9,465.8,192.9,465.7"/>
		<path class="st5" d="M200.6,456.6c0,0.4-0.1,0.5-0.1,0.9c-0.4,0.9-1.3,1.3-2,0.7c-0.7-0.6-2.5-1.7-5.6-1.7c-3.1,0-4.9,1.1-5.6,1.6
			c-0.7,0.4-1.5,0.2-2-0.7c-0.3-0.9-0.1-2,0.6-2.6c0.8-0.5,3.2-2,7-2s6.2,1.5,7,2C200.4,455.3,200.6,456,200.6,456.6"/>
	</g>
	<g>
		<path class="st7" d="M188.2,472.1c-0.4,1.2-1.7,2-3,1.8c0.3,0.8,0.4,1.7,0.1,2.5c-0.7,2.1-3,3.1-5.2,2.4c-0.1,0-0.3-0.1-0.4-0.2
			l-5.1-2.1l-1.8-0.7l-0.2-0.1c0.3-0.7,0.6-1.5,0.9-2.2c0.5,0.7,7.2-5.4,7.4-6.1l0.1,0l1.7,0.4l3.3,0.8
			C187.7,468.9,188.7,470.6,188.2,472.1z"/>
		<g>
			<path class="st8" d="M185.5,475.5c0,0.3-0.1,0.6-0.2,0.9c-0.7,2.1-3,3.1-5.2,2.4c-0.1,0-0.3-0.1-0.4-0.2l-5.1-2.1l-1.8-0.7
				l-0.2-0.1c-0.8-0.4-0.2-1.7-0.2-1.8c0.1-0.1,0.3-0.5,0.3-0.5c0.1-0.2,2.2-2.1,2.2-2.3c0.5,0.7-0.3,3.5,0.4,3.7c0,0,0,0,0,0l5,2
				c0.1,0.1,0.3,0.1,0.4,0.2C182.6,477.6,184.5,477,185.5,475.5z"/>
			<path class="st8" d="M184.9,472.1c0.1,0,0.2,0.1,0.3,0.1c0.2,0.1,0.4,0.1,0.5,0.1c1,0.1,2.1-0.3,2.7-1.1c0,0.3,0,0.5-0.1,0.8
				c-0.4,1.2-1.7,2-3,1.8c-0.2,0-0.4-0.1-0.5-0.1c-0.1,0-0.2-0.1-0.3-0.1l-3.2-1.3l-1.6-0.7l-0.1,0c-0.7-0.9-0.7-2.6-0.6-2.9
				c0,0,1.2-1.3,2-1.4l0.1,0l1.7,0.4c0,0,0,0.1,0,0.1c-0.1,0.7-0.3,1.4-0.6,2.2c-0.1,0.3-0.2,0.5-0.3,0.8L184.9,472.1z"/>
		</g>
		<path class="st9" d="M179.4,462.3c1.7,0.6,2,2.5,1.5,5c-0.1,0.7-0.3,1.4-0.6,2.2c-0.2,0.8-0.5,1.5-0.8,2.1
			c-1.1,2.3-2.4,3.8-4.2,3.2c-0.7-0.2-1.3-0.7-1.8-1.4c-0.3,0.8-0.6,1.5-0.9,2.2c-1.5,3.4-3.5,5.5-6,4.7c-3.2-1-5.9-6.4-4.2-11.5
			c1.6-5,7-7.8,10.2-6.8c0.9,0.3,1.6,0.9,2,1.7C176,462.5,178,461.8,179.4,462.3z"/>
		<path class="st10" d="M180.2,469.4c0.1-0.3,0.3-0.6,0.4-1c-0.1,0.4-0.2,0.8-0.3,1.1c-0.2,0.8-0.5,1.5-0.8,2.1
			c-1.1,2.3-2.4,3.8-4.2,3.2c-0.7-0.2-1.3-0.7-1.8-1.4c0,0-0.1-0.1-0.1-0.1c0,0,0.1,0.1,0.1,0.1c-0.3,0.8-0.6,1.5-0.9,2.2
			c-1.5,3.4-3.5,5.5-6,4.7c-3.2-1-5.9-6.4-4.2-11.5c0.2-0.5,0.4-1,0.6-1.4c-0.7,4.6,1.8,9,4.6,10c2.4,0.8,4.3-1.1,5.8-4.3l0,0
			c-1.1-1.6-1.7-4-0.9-6.3c0.1-0.4,0.3-0.8,0.5-1.1c-0.3,2,0.3,4,1.4,5.3c0.5,0.7,1.2,1.2,1.8,1.4
			C177.8,473.1,179.2,471.7,180.2,469.4z"/>
	</g>
	<g>
		<path class="st7" d="M187.9,505.8c-0.1,1.4-1.3,2.4-2.7,2.5c0.5,0.7,0.8,1.6,0.7,2.6c-0.2,2.3-2.4,3.9-4.7,3.7
			c-0.2,0-0.3,0-0.5-0.1l-5.7-1l-2-0.3l-0.2,0c0.2-0.8,0.3-1.6,0.4-2.5c0.7,0.6,6.2-7.2,6.1-8l0.1,0l1.8,0l3.6,0.1
			C186.7,502.7,188.1,504.1,187.9,505.8z"/>
		<g>
			<path class="st8" d="M185.9,509.9c0.1,0.3,0.1,0.6,0,1c-0.2,2.3-2.4,3.9-4.7,3.7c-0.2,0-0.3,0-0.5-0.1l-5.7-1l-2-0.3l-0.2,0
				c-0.9-0.2-0.6-1.7-0.6-1.8c0-0.1,0.1-0.6,0.1-0.6c0-0.2,1.7-2.7,1.8-2.9c0.7,0.6,0.5,3.6,1.2,3.7c0,0,0,0,0,0l5.6,0.9
				c0.2,0,0.3,0.1,0.5,0.1C183.4,512.8,185.3,511.7,185.9,509.9z"/>
			<path class="st8" d="M184.5,506.6c0.1,0,0.2,0,0.3,0c0.2,0,0.4,0,0.6,0c1.1-0.1,2.1-0.8,2.5-1.7c0.1,0.3,0.1,0.5,0.1,0.8
				c-0.1,1.4-1.3,2.4-2.7,2.5c-0.2,0-0.4,0-0.6,0c-0.1,0-0.2,0-0.3,0l-3.5-0.6l-1.8-0.3l-0.1,0c-0.9-0.8-1.3-2.5-1.3-2.8
				c0,0,0.9-1.6,1.7-1.9l0.1,0l1.8,0c0,0,0,0.1,0,0.2c0,0.7,0,1.5-0.1,2.4c0,0.3-0.1,0.6-0.1,0.9L184.5,506.6z"/>
		</g>
		<path class="st9" d="M176.6,497.8c1.9,0.2,2.6,2.2,2.7,4.8c0,0.7,0,1.5-0.1,2.4c-0.1,0.8-0.2,1.6-0.3,2.3
			c-0.5,2.6-1.6,4.4-3.5,4.3c-0.7-0.1-1.5-0.4-2.2-1c-0.1,0.9-0.2,1.7-0.4,2.5c-0.8,3.8-2.4,6.4-5.1,6.2c-3.5-0.3-7.5-5.2-7-10.8
			c0.5-5.5,5.4-9.6,8.9-9.3c1,0.1,1.8,0.6,2.4,1.3C173.2,498.7,175.1,497.6,176.6,497.8z"/>
		<path class="st10" d="M179.1,504.8c0.1-0.4,0.1-0.7,0.2-1.1c0,0.4,0,0.8-0.1,1.2c-0.1,0.8-0.2,1.6-0.3,2.3
			c-0.5,2.6-1.6,4.4-3.5,4.3c-0.7-0.1-1.5-0.4-2.2-1c0,0-0.1-0.1-0.1-0.1c0,0,0.1,0.1,0.1,0.1c-0.1,0.9-0.2,1.7-0.4,2.5
			c-0.8,3.8-2.4,6.4-5.1,6.2c-3.5-0.3-7.5-5.2-7-10.8c0-0.5,0.1-1.1,0.3-1.6c0.3,4.9,3.9,8.9,7,9.2c2.6,0.2,4.2-2.2,5-5.7l0,0
			c-1.5-1.4-2.6-3.7-2.4-6.2c0-0.4,0.1-0.8,0.2-1.2c0.2,2.1,1.3,4,2.6,5.1c0.7,0.6,1.5,0.9,2.2,1
			C177.5,509.3,178.6,507.5,179.1,504.8z"/>
	</g>
	<g>
		<path class="st7" d="M198.2,497.9c-0.5-1.1-0.1-2.3,0.9-3.1c-0.7-0.3-1.3-0.9-1.6-1.6c-0.9-1.8,0-3.9,1.9-4.8
			c0.1-0.1,0.3-0.1,0.4-0.2l4.7-1.8l1.6-0.6l0.1-0.1c0.2,0.7,0.5,1.3,0.8,2c-0.7-0.1-1.3,8.1-1,8.6l-0.1,0.1l-1.4,0.8l-2.7,1.6
			C200.5,499.6,198.8,499.2,198.2,497.9z"/>
		<g>
			<path class="st8" d="M197.9,493.9c-0.2-0.2-0.3-0.4-0.5-0.7c-0.9-1.8,0-3.9,1.9-4.8c0.1-0.1,0.3-0.1,0.4-0.2l4.7-1.8l1.6-0.6
				l0.1-0.1c0.7-0.2,1.2,1,1.2,1c0,0.1,0.2,0.5,0.2,0.5c0.1,0.2-0.1,2.7,0,2.9c-0.7-0.1-2-2.4-2.6-2.2c0,0,0,0,0,0l-4.5,1.8
				c-0.1,0-0.3,0.1-0.4,0.2C198.4,490.7,197.5,492.4,197.9,493.9z"/>
			<path class="st8" d="M200.4,495.7c-0.1,0-0.2,0.1-0.3,0.1c-0.2,0.1-0.3,0.2-0.4,0.3c-0.8,0.6-1.2,1.5-1.1,2.4
				c-0.2-0.2-0.3-0.4-0.4-0.6c-0.5-1.1-0.1-2.3,0.9-3.1c0.1-0.1,0.3-0.2,0.4-0.3c0.1,0,0.2-0.1,0.3-0.1l2.9-1.1l1.5-0.6l0.1,0
				c1,0.2,2.1,1.3,2.2,1.5c0,0,0,1.6-0.4,2.2l-0.1,0.1l-1.4,0.8c0,0,0-0.1-0.1-0.1c-0.3-0.5-0.7-1.1-1-1.8c-0.1-0.2-0.2-0.5-0.3-0.7
				L200.4,495.7z"/>
		</g>
		<path class="st9" d="M210.1,498.8c-1.5,0.7-2.9-0.4-4.1-2.4c-0.3-0.5-0.7-1.1-1-1.8c-0.3-0.6-0.6-1.3-0.8-1.9
			c-0.8-2.2-0.8-4,0.7-4.7c0.6-0.3,1.3-0.4,2.1-0.2c-0.3-0.7-0.6-1.4-0.8-2c-1.1-3.2-1.1-5.8,1-6.8c2.7-1.3,7.9,0.5,10,4.8
			s0.3,9.5-2.4,10.8c-0.8,0.4-1.6,0.4-2.4,0.1C212.2,496.5,211.3,498.2,210.1,498.8z"/>
		<path class="st10" d="M205.1,494.7c0.1,0.3,0.2,0.6,0.3,0.9c-0.2-0.3-0.3-0.6-0.5-1c-0.3-0.6-0.6-1.3-0.8-1.9
			c-0.8-2.2-0.8-4,0.7-4.7c0.6-0.3,1.3-0.4,2.1-0.2c0,0,0.1,0,0.1,0c0,0-0.1,0-0.1,0c-0.3-0.7-0.6-1.4-0.8-2c-1.1-3.2-1.1-5.8,1-6.8
			c2.7-1.3,7.9,0.5,10,4.8c0.2,0.4,0.4,0.9,0.5,1.3c-2.4-3.5-6.8-4.8-9.3-3.6c-2,1-2.1,3.4-1.1,6.4l0,0c1.7,0.3,3.6,1.5,4.5,3.5
			c0.2,0.3,0.3,0.7,0.4,1c-1.1-1.5-2.7-2.4-4.2-2.6c-0.8-0.1-1.5,0-2.1,0.2C204.3,490.6,204.4,492.5,205.1,494.7z"/>
	</g>
	<g>
		<path class="st7" d="M198.9,529.1c0,1.1,0.9,2,1.9,2.2c-0.4,0.6-0.6,1.3-0.6,2c0.1,1.8,1.6,3.2,3.3,3.2c0.1,0,0.2,0,0.4,0l4.2-0.5
			l1.5-0.2l0.1,0c-0.1-0.6-0.2-1.3-0.2-2.1c-0.5,0.4-4.2-6.1-4.2-6.7l-0.1,0l-1.3-0.1l-2.6-0.1C200,526.7,198.9,527.8,198.9,529.1z"
			/>
		<g>
			<path class="st8" d="M200.3,532.5c0,0.2-0.1,0.5-0.1,0.8c0.1,1.8,1.6,3.2,3.3,3.2c0.1,0,0.2,0,0.4,0l4.2-0.5l1.5-0.2l0.1,0
				c0.6-0.1,0.5-1.4,0.5-1.4c0-0.1-0.1-0.5-0.1-0.5c0-0.2-1.2-2.2-1.2-2.4c-0.5,0.4-0.5,2.9-1,3c0,0,0,0,0,0l-4,0.5
				c-0.1,0-0.2,0-0.4,0C202,535,200.7,534,200.3,532.5z"/>
			<path class="st8" d="M201.4,529.9c-0.1,0-0.2,0-0.2,0c-0.1,0-0.3,0-0.4,0c-0.8-0.1-1.5-0.7-1.7-1.5c-0.1,0.2-0.1,0.4-0.1,0.7
				c0,1.1,0.9,2,1.9,2.2c0.1,0,0.3,0,0.4,0c0.1,0,0.2,0,0.2,0l2.6-0.3l1.3-0.2l0.1,0c0.7-0.6,1-2,1-2.2c0,0-0.6-1.3-1.2-1.6l-0.1,0
				l-1.3-0.1c0,0,0,0.1,0,0.1c0,0.6,0,1.2,0,1.9c0,0.2,0,0.5,0,0.7L201.4,529.9z"/>
		</g>
		<path class="st9" d="M207.3,523.1c-1.4,0.1-1.9,1.6-2.1,3.8c0,0.6,0,1.2,0,1.9c0,0.7,0.1,1.3,0.2,1.9c0.3,2.2,1,3.7,2.4,3.6
			c0.5,0,1.1-0.3,1.6-0.7c0,0.7,0.1,1.4,0.2,2.1c0.5,3.1,1.5,5.3,3.5,5.2c2.5-0.1,5.6-3.9,5.4-8.4s-3.6-8-6.1-7.9
			c-0.7,0-1.3,0.4-1.8,1C209.8,524,208.4,523.1,207.3,523.1z"/>
		<path class="st10" d="M205.3,528.7c0-0.3-0.1-0.6-0.1-0.9c0,0.3,0,0.7,0,1c0,0.7,0.1,1.3,0.2,1.9c0.3,2.2,1,3.7,2.4,3.6
			c0.5,0,1.1-0.3,1.6-0.7c0,0,0.1,0,0.1-0.1c0,0-0.1,0.1-0.1,0.1c0,0.7,0.1,1.4,0.2,2.1c0.5,3.1,1.5,5.3,3.5,5.2
			c2.5-0.1,5.6-3.9,5.4-8.4c0-0.4-0.1-0.9-0.1-1.3c-0.4,3.9-3.1,7-5.3,7.1c-1.9,0.1-2.9-1.9-3.4-4.8l0,0c1.1-1,2-2.9,1.9-4.9
			c0-0.3-0.1-0.7-0.1-1c-0.2,1.7-1,3.2-2,4.1c-0.5,0.4-1.1,0.7-1.6,0.7C206.4,532.4,205.6,530.9,205.3,528.7z"/>
	</g>
</g>
<g>
	<defs>
		<polygon id="SVGID_5_" points="-171.8,492.4 33.1,611.4 32.9,659.6 -171.3,541 		"/>
	</defs>
	<clipPath id="SVGID_6_">
		<use xlink:href="#SVGID_5_"  style="overflow:visible;"/>
	</clipPath>
	<g class="st11">
		<polygon class="st1" points="-171.8,466.4 33.1,585.4 32.9,633.6 -171.3,515 		"/>
		<g>
			<polygon class="st2" points="33.1,585.4 21.4,578.6 -17.8,604.2 12.1,621.5 33,608 			"/>
			<polygon class="st2" points="-151,478.5 -171.5,492.3 -171.3,515 -159.6,521.8 -121,495.9 			"/>
		</g>
	</g>
</g>
<g>
	<defs>
		<polygon id="SVGID_7_" points="33.5,585.5 237.7,467 237.9,515.2 33,634.2 		"/>
	</defs>
	<clipPath id="SVGID_8_">
		<use xlink:href="#SVGID_7_"  style="overflow:visible;"/>
	</clipPath>
	<g class="st12">
		<polygon class="st1" points="33.5,611.5 237.7,493 237.9,541.2 33,660.2 		"/>
		<g>
			<polygon class="st2" points="237.8,518.6 216.9,505.1 187,522.4 226.2,548 237.9,541.2 			"/>
			<polygon class="st2" points="83.8,630.6 45.2,604.8 33.5,611.5 33.2,634.3 53.8,648.1 			"/>
		</g>
	</g>
</g>
<text transform="matrix(0.5926 0.3431 -0.501 0.8654 -121.0042 541.8388)" class="st13 st14">Crime Scene</text>
<text transform="matrix(0.5889 -0.3413 0.5015 0.8652 71.4984 609.126)" class="st13 st15">Do Not Cross Line</text>
</svg>
