<?xml version="1.0" encoding="utf-8"?>
<!-- Generator: Adobe Illustrator 19.0.1, SVG Export Plug-In . SVG Version: 6.00 Build 0)  -->
<svg version="1.1" id="mushroom_x5F_seed" xmlns="http://www.w3.org/2000/svg" xmlns:xlink="http://www.w3.org/1999/xlink" x="0px"
	 y="0px" viewBox="-223 225 512 512" style="enable-background:new -223 225 512 512;" xml:space="preserve">
<style type="text/css">
	.st0{fill:#9E5A23;}
	.st1{fill:#844414;}
	.st2{fill:#CE8D5B;}
</style>
<g>
	<path class="st0" d="M-118.1,543.8l-0.3-88.1c0,5.1-5.6,9.2-12.6,9.2c-7,0-12.7-4-12.7-9.1l0.3,88.1c0,5.1,5.7,9.2,12.7,9.1
		C-123.7,552.9-118.1,548.9-118.1,543.8"/>
	<g>
		<path class="st1" d="M-125.4,479.6l-0.1-16.1c0-1.1,0.6-1.8,1.4-1.8s1.4,0.7,1.4,1.8l0.1,16.1c0,1.1-0.6,1.8-1.4,1.8
			C-124.8,481.4-125.4,480.7-125.4,479.6"/>
		<path class="st1" d="M-125.2,516.3l-0.1-29.4c0-1.1,0.6-1.8,1.4-1.8c0.8,0,1.4,0.7,1.4,1.8l0.1,29.4c0,1.1-0.6,1.8-1.4,1.8
			C-124.7,518.1-125.2,517.4-125.2,516.3"/>
		<path class="st1" d="M-125.1,549.3l-0.1-25.7c0-1.1,0.6-1.8,1.4-1.8c0.8,0,1.4,0.7,1.4,1.8l0.1,25.7c0,1.1-0.6,1.8-1.4,1.8
			C-124.6,551.1-125.1,550.4-125.1,549.3"/>
		<path class="st1" d="M-132.3,507.1l0-5.5c0-1.1,0.6-1.8,1.4-1.8c0.8,0,1.4,0.7,1.4,1.8l0,5.5c0,1.1-0.6,1.8-1.4,1.8
			C-131.7,508.9-132.3,508.2-132.3,507.1"/>
		<path class="st1" d="M-132.4,490.6l-0.1-18.3c0-1.1,0.6-1.8,1.4-1.8c0.8,0,1.4,0.7,1.4,1.8l0.1,18.3c0,1.1-0.6,1.8-1.4,1.8
			C-131.8,492.4-132.4,491.7-132.4,490.6"/>
		<path class="st1" d="M-132.2,525.5l0-11c0-1.1,0.6-1.8,1.4-1.8s1.4,0.7,1.4,1.8l0,11c0,1.1-0.6,1.8-1.4,1.8
			C-131.7,527.3-132.2,526.6-132.2,525.5"/>
		<path class="st1" d="M-132.2,551.1l-0.1-16.5c0-1.1,0.6-1.8,1.4-1.8s1.4,0.7,1.4,1.8l0.1,16.5c0,1.1-0.6,1.8-1.4,1.8
			C-131.6,553-132.1,552.2-132.2,551.1"/>
		<path class="st1" d="M-139.4,481.4l-0.1-18c0-1.1,0.6-1.8,1.4-1.8c0.8,0,1.4,0.7,1.4,1.8l0.1,18c0,1.1-0.6,1.8-1.4,1.8
			C-138.8,483.3-139.4,482.5-139.4,481.4"/>
		<path class="st1" d="M-139.2,542l-0.1-14.7c0-1.1,0.6-1.8,1.4-1.8c0.8,0,1.4,0.7,1.4,1.8l0.1,14.7c0,1.1-0.6,1.8-1.4,1.8
			C-138.6,543.8-139.2,543.1-139.2,542"/>
		<path class="st1" d="M-139.3,514.5l-0.1-22c0-1.1,0.6-1.8,1.4-1.8c0.8,0,1.4,0.7,1.4,1.8l0.1,22c0,1.1-0.6,1.8-1.4,1.8
			C-138.7,516.3-139.3,515.6-139.3,514.5"/>
	</g>
	<path class="st2" d="M-131,464.9c-7,0-12.7-4-12.7-9.1c0-5.1,5.6-9.2,12.6-9.2c7,0,12.7,4,12.7,9.1S-124,464.9-131,464.9"/>
	<path class="st1" d="M-138.8,455.8c0-0.6,0.3-1.3,0.7-1.7c0.8-0.6,3.2-2,7-2s6.2,1.4,7,2c0.7,0.5,0.8,1.6,0.6,2.6
		c-0.4,0.9-1.3,1.1-2,0.7c-0.7-0.5-2.5-1.6-5.6-1.6c-3.1,0-4.9,1.1-5.6,1.7c-0.7,0.6-1.5,0.2-2-0.7
		C-138.7,456.3-138.8,456.1-138.8,455.8"/>
</g>
<g>
	<path class="st0" d="M46.8,451.3l-0.3-88.1c0,5.1-5.6,9.2-12.6,9.2s-12.7-4-12.7-9.1l0.3,88.1c0,5.1,5.7,9.2,12.7,9.1
		C41.2,460.5,46.8,456.4,46.8,451.3"/>
	<g>
		<path class="st1" d="M39.6,387.1l-0.1-16.1c0-1.1,0.6-1.8,1.4-1.8c0.8,0,1.4,0.7,1.4,1.8l0.1,16.1c0,1.1-0.6,1.8-1.4,1.8
			C40.1,388.9,39.6,388.2,39.6,387.1"/>
		<path class="st1" d="M39.7,423.8l-0.1-29.4c0-1.1,0.6-1.8,1.4-1.8c0.8,0,1.4,0.7,1.4,1.8l0.1,29.4c0,1.1-0.6,1.8-1.4,1.8
			C40.2,425.6,39.7,424.9,39.7,423.8"/>
		<path class="st1" d="M39.8,456.8l-0.1-25.7c0-1.1,0.6-1.8,1.4-1.8c0.8,0,1.4,0.7,1.4,1.8l0.1,25.7c0,1.1-0.6,1.8-1.4,1.8
			C40.4,458.6,39.8,457.9,39.8,456.8"/>
		<path class="st1" d="M32.6,414.6l0-5.5c0-1.1,0.6-1.8,1.4-1.8c0.8,0,1.4,0.7,1.4,1.8l0,5.5c0,1.1-0.6,1.8-1.4,1.8
			C33.2,416.5,32.6,415.7,32.6,414.6"/>
		<path class="st1" d="M32.6,398.1l-0.1-18.3c0-1.1,0.6-1.8,1.4-1.8c0.8,0,1.4,0.7,1.4,1.8l0.1,18.3c0,1.1-0.6,1.8-1.4,1.8
			C33.1,399.9,32.6,399.2,32.6,398.1"/>
		<path class="st1" d="M32.7,433l0-11c0-1.1,0.6-1.8,1.4-1.8c0.8,0,1.4,0.7,1.4,1.8l0,11c0,1.1-0.6,1.8-1.4,1.8
			C33.3,434.8,32.7,434.1,32.7,433"/>
		<path class="st1" d="M32.8,458.6l-0.1-16.5c0-1.1,0.6-1.8,1.4-1.8c0.8,0,1.4,0.7,1.4,1.8l0.1,16.5c0,1.1-0.6,1.8-1.4,1.8
			C33.3,460.5,32.8,459.7,32.8,458.6"/>
		<path class="st1" d="M25.5,389l-0.1-18c0-1.1,0.6-1.8,1.4-1.8s1.4,0.7,1.4,1.8l0.1,18c0,1.1-0.6,1.8-1.4,1.8
			C26.1,390.8,25.5,390.1,25.5,389"/>
		<path class="st1" d="M25.7,449.5l-0.1-14.7c0-1.1,0.6-1.8,1.4-1.8c0.8,0,1.4,0.7,1.4,1.8l0.1,14.7c0,1.1-0.6,1.8-1.4,1.8
			C26.3,451.3,25.7,450.6,25.7,449.5"/>
		<path class="st1" d="M25.6,422l-0.1-22c0-1.1,0.6-1.8,1.4-1.8s1.4,0.7,1.4,1.8l0.1,22c0,1.1-0.6,1.8-1.4,1.8
			C26.2,423.8,25.6,423.1,25.6,422"/>
	</g>
	<path class="st2" d="M33.9,372.4c-7,0-12.7-4-12.7-9.1s5.6-9.2,12.6-9.2c7,0,12.7,4,12.7,9.1C46.5,368.3,40.9,372.4,33.9,372.4"/>
	<path class="st1" d="M26.1,363.3c0-0.6,0.3-1.3,0.7-1.7c0.8-0.6,3.2-2,7-2c3.8,0,6.2,1.4,7,2c0.7,0.5,0.8,1.6,0.6,2.6
		c-0.4,0.9-1.3,1.1-2,0.7c-0.7-0.5-2.5-1.6-5.6-1.6s-4.9,1.1-5.6,1.7c-0.7,0.6-1.5,0.2-2-0.7C26.3,363.8,26.1,363.6,26.1,363.3"/>
</g>
<g>
	<path class="st0" d="M45.8,636.4l-0.3-88.1c0,5.1-5.6,9.2-12.6,9.2s-12.7-4-12.7-9.1l0.3,88.1c0,5.1,5.7,9.2,12.7,9.1
		S45.8,641.5,45.8,636.4"/>
	<g>
		<path class="st1" d="M38.6,572.2l-0.1-16.1c0-1.1,0.6-1.8,1.4-1.8c0.8,0,1.4,0.7,1.4,1.8l0.1,16.1c0,1.1-0.6,1.8-1.4,1.8
			C39.1,574.1,38.6,573.3,38.6,572.2"/>
		<path class="st1" d="M38.7,608.9l-0.1-29.4c0-1.1,0.6-1.8,1.4-1.8c0.8,0,1.4,0.7,1.4,1.8l0.1,29.4c0,1.1-0.6,1.8-1.4,1.8
			C39.2,610.8,38.7,610,38.7,608.9"/>
		<path class="st1" d="M38.8,641.9l-0.1-25.7c0-1.1,0.6-1.8,1.4-1.8c0.8,0,1.4,0.7,1.4,1.8l0.1,25.7c0,1.1-0.6,1.8-1.4,1.8
			C39.4,643.8,38.8,643,38.8,641.9"/>
		<path class="st1" d="M31.6,599.8l0-5.5c0-1.1,0.6-1.8,1.4-1.8c0.8,0,1.4,0.7,1.4,1.8l0,5.5c0,1.1-0.6,1.8-1.4,1.8
			C32.2,601.6,31.6,600.9,31.6,599.8"/>
		<path class="st1" d="M31.6,583.3l-0.1-18.3c0-1.1,0.6-1.8,1.4-1.8c0.8,0,1.4,0.7,1.4,1.8l0.1,18.3c0,1.1-0.6,1.8-1.4,1.8
			C32.1,585.1,31.6,584.4,31.6,583.3"/>
		<path class="st1" d="M31.7,618.1l0-11c0-1.1,0.6-1.8,1.4-1.8c0.8,0,1.4,0.7,1.4,1.8l0,11c0,1.1-0.6,1.8-1.4,1.8
			C32.3,619.9,31.7,619.2,31.7,618.1"/>
		<path class="st1" d="M31.8,643.8l-0.1-16.5c0-1.1,0.6-1.8,1.4-1.8c0.8,0,1.4,0.7,1.4,1.8l0.1,16.5c0,1.1-0.6,1.8-1.4,1.8
			C32.3,645.6,31.8,644.9,31.8,643.8"/>
		<path class="st1" d="M24.5,574.1l-0.1-18c0-1.1,0.6-1.8,1.4-1.8s1.4,0.7,1.4,1.8l0.1,18c0,1.1-0.6,1.8-1.4,1.8
			C25.1,575.9,24.5,575.2,24.5,574.1"/>
		<path class="st1" d="M24.7,634.6L24.7,620c0-1.1,0.6-1.8,1.4-1.8c0.8,0,1.4,0.7,1.4,1.8l0.1,14.7c0,1.1-0.6,1.8-1.4,1.8
			C25.3,636.5,24.7,635.8,24.7,634.6"/>
		<path class="st1" d="M24.6,607.1l-0.1-22c0-1.1,0.6-1.8,1.4-1.8c0.8,0,1.4,0.7,1.4,1.8l0.1,22c0,1.1-0.6,1.8-1.4,1.8
			C25.2,609,24.6,608.2,24.6,607.1"/>
	</g>
	<path class="st2" d="M32.9,557.6c-7,0-12.7-4-12.7-9.1c0-5.1,5.6-9.2,12.6-9.2c7,0,12.7,4,12.7,9.1
		C45.5,553.5,39.9,557.5,32.9,557.6"/>
	<path class="st1" d="M25.1,548.4c0-0.6,0.3-1.3,0.7-1.7c0.8-0.6,3.2-2,7-2s6.2,1.4,7,2c0.7,0.5,0.8,1.6,0.6,2.6
		c-0.4,0.9-1.3,1.1-2,0.7c-0.7-0.5-2.5-1.6-5.6-1.6c-3.1,0-4.9,1.1-5.6,1.7c-0.7,0.6-1.5,0.2-2-0.7C25.3,549,25.1,548.8,25.1,548.4"
		/>
</g>
<g>
	<path class="st0" d="M205.8,544.6l-0.3-88.1c0,5.1-5.6,9.2-12.6,9.2c-7,0-12.7-4-12.7-9.1l0.3,88.1c0,5.1,5.7,9.2,12.7,9.1
		C200.2,553.8,205.8,549.8,205.8,544.6"/>
	<g>
		<path class="st1" d="M198.6,480.4l-0.1-16.1c0-1.1,0.6-1.8,1.4-1.8c0.8,0,1.4,0.7,1.4,1.8l0.1,16.1c0,1.1-0.6,1.8-1.4,1.8
			C199.1,482.3,198.6,481.5,198.6,480.4"/>
		<path class="st1" d="M198.7,517.1l-0.1-29.4c0-1.1,0.6-1.8,1.4-1.8s1.4,0.7,1.4,1.8l0.1,29.4c0,1.1-0.6,1.8-1.4,1.8
			S198.7,518.2,198.7,517.1"/>
		<path class="st1" d="M198.8,550.1l-0.1-25.7c0-1.1,0.6-1.8,1.4-1.8c0.8,0,1.4,0.7,1.4,1.8l0.1,25.7c0,1.1-0.6,1.8-1.4,1.8
			C199.4,552,198.8,551.2,198.8,550.1"/>
		<path class="st1" d="M191.6,508l0-5.5c0-1.1,0.6-1.8,1.4-1.8c0.8,0,1.4,0.7,1.4,1.8l0,5.5c0,1.1-0.6,1.8-1.4,1.8
			S191.6,509.1,191.6,508"/>
		<path class="st1" d="M191.6,491.5l-0.1-18.3c0-1.1,0.6-1.8,1.4-1.8s1.4,0.7,1.4,1.8l0.1,18.3c0,1.1-0.6,1.8-1.4,1.8
			S191.6,492.6,191.6,491.5"/>
		<path class="st1" d="M191.7,526.3l0-11c0-1.1,0.6-1.8,1.4-1.8s1.4,0.7,1.4,1.8l0,11c0,1.1-0.6,1.8-1.4,1.8
			S191.7,527.4,191.7,526.3"/>
		<path class="st1" d="M191.8,552l-0.1-16.5c0-1.1,0.6-1.8,1.4-1.8c0.8,0,1.4,0.7,1.4,1.8l0.1,16.5c0,1.1-0.6,1.8-1.4,1.8
			S191.8,553.1,191.8,552"/>
		<path class="st1" d="M184.5,482.3l-0.1-18c0-1.1,0.6-1.8,1.4-1.8c0.8,0,1.4,0.7,1.4,1.8l0.1,18c0,1.1-0.6,1.8-1.4,1.8
			C185.1,484.1,184.5,483.4,184.5,482.3"/>
		<path class="st1" d="M184.7,542.9l-0.1-14.7c0-1.1,0.6-1.8,1.4-1.8s1.4,0.7,1.4,1.8l0.1,14.7c0,1.1-0.6,1.8-1.4,1.8
			C185.3,544.7,184.7,544,184.7,542.9"/>
		<path class="st1" d="M184.6,515.3l-0.1-22c0-1.1,0.6-1.8,1.4-1.8s1.4,0.7,1.4,1.8l0.1,22c0,1.1-0.6,1.8-1.4,1.8
			C185.2,517.2,184.6,516.4,184.6,515.3"/>
	</g>
	<path class="st2" d="M192.9,465.8c-7,0-12.7-4-12.7-9.1c0-5.1,5.6-9.2,12.6-9.2c7,0,12.7,4,12.7,9.1
		C205.5,461.7,199.9,465.8,192.9,465.8"/>
	<path class="st1" d="M185.1,456.6c0-0.6,0.3-1.3,0.7-1.7c0.8-0.6,3.2-2,7-2c3.8,0,6.2,1.4,7,2c0.7,0.5,0.8,1.6,0.6,2.6
		c-0.4,0.9-1.3,1.1-2,0.7c-0.7-0.5-2.5-1.6-5.6-1.6s-4.9,1.1-5.6,1.7c-0.7,0.6-1.5,0.2-2-0.7C185.3,457.2,185.1,457,185.1,456.6"/>
</g>
</svg>
