<?xml version="1.0" encoding="utf-8"?>
<!-- Generator: Adobe Illustrator 19.0.1, SVG Export Plug-In . SVG Version: 6.00 Build 0)  -->
<svg version="1.1" id="onion" xmlns="http://www.w3.org/2000/svg" xmlns:xlink="http://www.w3.org/1999/xlink" x="0px" y="0px"
	 viewBox="0 0 50 50" style="enable-background:new 0 0 50 50;" xml:space="preserve">
<style type="text/css">
	.st0{fill:#76B580;}
	.st1{fill:#82D78C;}
	.st2{fill:#A0EB87;}
	.st3{fill:#FFAD41;}
	.st4{fill:#FF9811;}
	.st5{fill:#BD720D;}
	.st6{fill:#804C09;}
</style>
<g>
	<g>
		<path class="st0" d="M25,0.1c0,0-0.6,2.4-0.8,5.9v2.6h1.7V6C25.7,2.5,25,0.1,25,0.1z"/>
		<path class="st1" d="M17.9,1.4c4.5,3.4,6.3,6.2,6.3,7.8h1.7C25.1,4.3,17.9,1.4,17.9,1.4z"/>
		<path class="st2" d="M24.2,9.2l0.8,1l0.8-1c0-1.6,1.7-4.5,6.3-7.8C32.1,1.4,25,4.3,24.2,9.2z"/>
	</g>
	<g>
		<g id="XMLID_1050_">
			<path id="XMLID_1051_" class="st3" d="M32.2,16.7c-3.6-1.6-5-5-3.6-9.4c0,0-3.6,0-3.6,2.9c0-2.9-3.6-2.9-3.6-2.9
				c1.4,4.3,0,7.7-3.6,9.4c-6,2.5-10.1,8-10.1,14.4C7.7,39.9,15.5,47,25,47c9.6,0,17.3-7.1,17.3-15.9C42.3,24.7,38.2,19.2,32.2,16.7
				z"/>
			<path id="XMLID_1052_" class="st4" d="M25,10.3c0-2.9-3.6-2.9-3.6-2.9c1.4,4.3,0,7.7-3.6,9.4c-6,2.5-10.1,8-10.1,14.4
				C7.7,39.9,15.5,47,25,47C25,38.1,25,12.6,25,10.3z"/>
			<path id="XMLID_1053_" class="st5" d="M25,16.7c0,0-8.6,2.9-8.6,15.9c0,3.7,0.7,7.1,1.9,9.8c1.6,3.7,4,5.4,6.8,5.4V16.7z"/>
			<path id="XMLID_1054_" class="st4" d="M25,16.7c0,0,8.6,2.9,8.6,15.9c0,3.7-0.7,7.1-1.9,9.8c-1.6,3.7-4,5.4-6.8,5.4V16.7z"/>
			<g id="XMLID_1055_">
				<path id="XMLID_1056_" class="st6" d="M21.4,46.7c0.2,1.8,1.7,3.2,3.6,3.2s3.4-1.4,3.6-3.2C27.4,46.9,26.2,47,25,47
					C23.8,47,22.6,46.9,21.4,46.7z"/>
			</g>
		</g>
	</g>
</g>
</svg>
