<?xml version="1.0" encoding="utf-8"?>
<!-- Generator: Adobe Illustrator 19.0.1, SVG Export Plug-In . SVG Version: 6.00 Build 0)  -->
<svg version="1.1" id="onion_x5F_warn" xmlns="http://www.w3.org/2000/svg" xmlns:xlink="http://www.w3.org/1999/xlink" x="0px"
	 y="0px" viewBox="-223 225 512 512" style="enable-background:new -223 225 512 512;" xml:space="preserve">
<style type="text/css">
	.st0{clip-path:url(#SVGID_2_);}
	.st1{fill:#FBD303;}
	.st2{fill:#646B79;}
	.st3{clip-path:url(#SVGID_4_);}
	.st4{fill:#76B580;}
	.st5{fill:#82D78C;}
	.st6{fill:#A0EB87;}
	.st7{fill:#FFAD41;}
	.st8{fill:#FF9811;}
	.st9{fill:#BD720D;}
	.st10{fill:#804C09;}
	.st11{fill:#604A3B;}
	.st12{clip-path:url(#SVGID_6_);}
	.st13{clip-path:url(#SVGID_8_);}
	.st14{font-family:'Arial-Black';}
	.st15{font-size:21.0661px;}
	.st16{font-size:20.1175px;}
</style>
<g>
	<defs>
		<polygon id="SVGID_1_" points="31.8,369.9 236.7,488.9 236.5,537.1 32.3,418.6 		"/>
	</defs>
	<clipPath id="SVGID_2_">
		<use xlink:href="#SVGID_1_"  style="overflow:visible;"/>
	</clipPath>
	<g class="st0">
		<polygon class="st1" points="31.8,344 236.7,462.9 236.5,511.1 32.3,392.6 		"/>
		<g>
			<polygon class="st2" points="236.7,462.9 225,456.1 185.8,481.7 215.7,499.1 236.6,485.6 			"/>
			<polygon class="st2" points="158.5,465.8 128.6,448.5 167.6,422.8 197.6,440.2 			"/>
			<polygon class="st2" points="101.2,432.6 71.3,415.2 110.1,389.4 140.1,406.8 			"/>
			<polygon class="st2" points="52.7,356.1 32.1,369.8 32.3,392.6 44,399.4 82.7,373.5 			"/>
		</g>
	</g>
</g>
<g>
	<defs>
		<polygon id="SVGID_3_" points="-172.5,463.1 31.7,344.6 31.9,392.8 -173,511.7 		"/>
	</defs>
	<clipPath id="SVGID_4_">
		<use xlink:href="#SVGID_3_"  style="overflow:visible;"/>
	</clipPath>
	<g class="st3">
		<polygon class="st1" points="-172.5,489.1 31.7,370.6 31.9,418.7 -173,537.7 		"/>
		<g>
			<polygon class="st2" points="31.8,396.1 10.9,382.6 -19,400 20.2,425.5 31.9,418.7 			"/>
			<polygon class="st2" points="-7.2,441.5 -37.2,458.9 -76.2,433.2 -46.3,415.9 			"/>
			<polygon class="st2" points="-64.7,474.8 -94.7,492.3 -133.4,466.4 -103.6,449.1 			"/>
			<polygon class="st2" points="-122.1,508.2 -160.8,482.3 -172.5,489.1 -172.7,511.8 -152.1,525.6 			"/>
		</g>
	</g>
</g>
<g>
	<g>
		<g>
			<path class="st4" d="M32.1,544.3c0,0-1.3,4.9-1.7,11.9v5.3h3.4v-5.3C33.4,549.2,32.1,544.3,32.1,544.3z"/>
			<path class="st5" d="M17.7,547c9.2,6.8,12.7,12.6,12.7,15.8h3.4C32.2,552.9,17.7,547,17.7,547z"/>
			<path class="st6" d="M30.4,562.8l1.7,2l1.7-2c0-3.2,3.5-9,12.7-15.8C46.5,547,32,552.9,30.4,562.8z"/>
		</g>
		<g>
			<g id="XMLID_71_">
				<path id="XMLID_77_" class="st7" d="M46.6,577.9c-7.3-3.3-10.1-10.2-7.2-18.9c0,0-7.3,0-7.3,5.8c0-5.8-7.3-5.8-7.3-5.8
					c2.9,8.7,0,15.6-7.2,18.9C5.5,583-2.9,594.2-2.9,607.1c0,17.7,15.7,32.1,35,32.1c19.3,0,35-14.4,35-32.1
					C67.1,594.2,58.7,583,46.6,577.9z"/>
				<path id="XMLID_76_" class="st8" d="M32.1,564.9c0-5.8-7.3-5.8-7.3-5.8c2.9,8.7,0,15.6-7.2,18.9C5.5,583-2.9,594.2-2.9,607.1
					c0,17.7,15.7,32.1,35,32.1C32.1,621.1,32.1,569.6,32.1,564.9z"/>
				<path id="XMLID_75_" class="st9" d="M32.1,578c0,0-17.5,5.8-17.5,32.1c0,7.5,1.4,14.4,3.8,19.9c3.2,7.4,8.2,10.8,13.7,10.8V578z
					"/>
				<path id="XMLID_74_" class="st8" d="M32.1,578c0,0,17.5,5.8,17.5,32.1c0,7.5-1.4,14.4-3.8,19.9c-3.2,7.4-8.2,10.8-13.7,10.8V578
					z"/>
				<g id="XMLID_72_">
					<path id="XMLID_73_" class="st10" d="M24.9,638.5c0.4,3.7,3.5,6.5,7.2,6.5s6.9-2.9,7.2-6.5c-2.3,0.5-4.8,0.7-7.2,0.7
						C29.6,639.2,27.2,639,24.9,638.5z"/>
				</g>
			</g>
		</g>
	</g>
	<g>
		<g>
			<path class="st11" d="M11.8,644.5c-0.3-1.6,2-5.3,4.2-5.5c1.5-0.1,1.8,1.5,3.6,1.4c1.8-0.1,2.2-1.7,3.6-1.4
				c1.8,0.4,3.5,3.8,3.2,5.5C26.3,645.7,12,645.5,11.8,644.5z"/>
			<path class="st11" d="M17.5,643.6c-0.3-1.6,2-5.3,4.2-5.5c1.5-0.1,1.8,1.5,3.6,1.4c1.8-0.1,2.2-1.7,3.6-1.4
				c1.8,0.4,3.5,3.8,3.2,5.5C32,644.8,17.7,644.5,17.5,643.6z"/>
			<path class="st11" d="M23.8,642.3c-0.3-1.6,2-5.3,4.2-5.5c1.5-0.1,1.8,1.5,3.6,1.4c1.8-0.1,2.2-1.7,3.6-1.4
				c1.8,0.4,3.5,3.8,3.2,5.5C38.3,643.6,24,643.3,23.8,642.3z"/>
			<path class="st11" d="M33.1,643.6c-0.3-1.6,2-5.3,4.2-5.5c1.5-0.1,1.8,1.5,3.6,1.4c1.8-0.1,2.2-1.7,3.6-1.4
				c1.8,0.4,3.5,3.8,3.2,5.5C47.5,644.8,33.3,644.5,33.1,643.6z"/>
			<path class="st11" d="M26.6,644.7c-0.3-1.6,2-5.3,4.2-5.5c1.5-0.1,1.8,1.5,3.6,1.4c1.8-0.1,2.2-1.7,3.6-1.4
				c1.8,0.4,3.5,3.8,3.2,5.5C41,646,26.7,645.7,26.6,644.7z"/>
			<path class="st11" d="M37.7,644.7c-0.3-1.6,2-5.3,4.2-5.5c1.5-0.1,1.8,1.5,3.6,1.4c1.8-0.1,2.2-1.7,3.6-1.4
				c1.8,0.4,3.5,3.8,3.2,5.5C52.1,646,37.9,645.7,37.7,644.7z"/>
		</g>
	</g>
</g>
<g>
	<g>
		<g>
			<path class="st4" d="M193.7,453c0,0-1.3,4.9-1.7,11.9v5.3h3.4v-5.3C195,457.9,193.7,453,193.7,453z"/>
			<path class="st5" d="M179.3,455.6c9.2,6.8,12.7,12.6,12.7,15.8h3.4C193.8,461.5,179.3,455.6,179.3,455.6z"/>
			<path class="st6" d="M192,471.4l1.7,2l1.7-2c0-3.2,3.5-9,12.7-15.8C208.1,455.6,193.6,461.5,192,471.4z"/>
		</g>
		<g>
			<g id="XMLID_64_">
				<path id="XMLID_70_" class="st7" d="M208.2,486.6c-7.3-3.3-10.1-10.2-7.2-18.9c0,0-7.3,0-7.3,5.8c0-5.8-7.3-5.8-7.3-5.8
					c2.9,8.7,0,15.6-7.2,18.9c-12.1,5.1-20.5,16.2-20.5,29.2c0,17.7,15.7,32.1,35,32.1c19.3,0,35-14.4,35-32.1
					C228.7,502.8,220.3,491.7,208.2,486.6z"/>
				<path id="XMLID_69_" class="st8" d="M193.7,473.5c0-5.8-7.3-5.8-7.3-5.8c2.9,8.7,0,15.6-7.2,18.9c-12.1,5.1-20.5,16.2-20.5,29.2
					c0,17.7,15.7,32.1,35,32.1C193.7,529.8,193.7,478.3,193.7,473.5z"/>
				<path id="XMLID_68_" class="st9" d="M193.7,486.6c0,0-17.5,5.8-17.5,32.1c0,7.5,1.4,14.4,3.8,19.9c3.2,7.4,8.2,10.8,13.7,10.8
					V486.6z"/>
				<path id="XMLID_67_" class="st8" d="M193.7,486.6c0,0,17.5,5.8,17.5,32.1c0,7.5-1.4,14.4-3.8,19.9c-3.2,7.4-8.2,10.8-13.7,10.8
					V486.6z"/>
				<g id="XMLID_65_">
					<path id="XMLID_66_" class="st10" d="M186.5,547.2c0.4,3.7,3.5,6.5,7.2,6.5c3.8,0,6.9-2.9,7.2-6.5c-2.3,0.5-4.8,0.7-7.2,0.7
						C191.2,547.8,188.8,547.6,186.5,547.2z"/>
				</g>
			</g>
		</g>
	</g>
	<g>
		<g>
			<path class="st11" d="M173.4,553.1c-0.3-1.6,2-5.3,4.2-5.5c1.5-0.1,1.8,1.5,3.6,1.4c1.8-0.1,2.2-1.7,3.6-1.4
				c1.8,0.4,3.5,3.8,3.2,5.5C187.9,554.4,173.6,554.1,173.4,553.1z"/>
			<path class="st11" d="M179.1,552.2c-0.3-1.6,2-5.3,4.2-5.5c1.5-0.1,1.8,1.5,3.6,1.4c1.8-0.1,2.2-1.7,3.6-1.4
				c1.8,0.4,3.5,3.8,3.2,5.5C193.6,553.5,179.3,553.2,179.1,552.2z"/>
			<path class="st11" d="M185.4,551c-0.3-1.6,2-5.3,4.2-5.5c1.5-0.1,1.8,1.5,3.6,1.4c1.8-0.1,2.2-1.7,3.6-1.4
				c1.8,0.4,3.5,3.8,3.2,5.5C199.9,552.2,185.6,552,185.4,551z"/>
			<path class="st11" d="M194.7,552.2c-0.3-1.6,2-5.3,4.2-5.5c1.5-0.1,1.8,1.5,3.6,1.4c1.8-0.1,2.2-1.7,3.6-1.4
				c1.8,0.4,3.5,3.8,3.2,5.5C209.1,553.5,194.9,553.2,194.7,552.2z"/>
			<path class="st11" d="M188.2,553.4c-0.3-1.6,2-5.3,4.2-5.5c1.5-0.1,1.8,1.5,3.6,1.4c1.8-0.1,2.2-1.7,3.6-1.4
				c1.8,0.4,3.5,3.8,3.2,5.5C202.6,554.6,188.4,554.4,188.2,553.4z"/>
			<path class="st11" d="M199.3,553.4c-0.3-1.6,2-5.3,4.2-5.5c1.5-0.1,1.8,1.5,3.6,1.4c1.8-0.1,2.2-1.7,3.6-1.4
				c1.8,0.4,3.5,3.8,3.2,5.5C213.7,554.6,199.5,554.4,199.3,553.4z"/>
		</g>
	</g>
</g>
<g>
	<g>
		<g>
			<path class="st4" d="M-128.7,452.6c0,0-1.3,4.9-1.7,11.9v5.3h3.4v-5.3C-127.4,457.5-128.7,452.6-128.7,452.6z"/>
			<path class="st5" d="M-143.1,455.3c9.2,6.8,12.7,12.6,12.7,15.8h3.4C-128.7,461.2-143.1,455.3-143.1,455.3z"/>
			<path class="st6" d="M-130.4,471.1l1.7,2l1.7-2c0-3.2,3.5-9,12.7-15.8C-114.3,455.3-128.8,461.2-130.4,471.1z"/>
		</g>
		<g>
			<g id="XMLID_57_">
				<path id="XMLID_63_" class="st7" d="M-114.2,486.2c-7.3-3.3-10.1-10.2-7.2-18.9c0,0-7.3,0-7.3,5.8c0-5.8-7.3-5.8-7.3-5.8
					c2.9,8.7,0,15.6-7.2,18.9c-12.1,5.1-20.5,16.2-20.5,29.2c0,17.7,15.7,32.1,35,32.1c19.3,0,35-14.4,35-32.1
					C-93.7,502.5-102.1,491.3-114.2,486.2z"/>
				<path id="XMLID_62_" class="st8" d="M-128.7,473.2c0-5.8-7.3-5.8-7.3-5.8c2.9,8.7,0,15.6-7.2,18.9
					c-12.1,5.1-20.5,16.2-20.5,29.2c0,17.7,15.7,32.1,35,32.1C-128.7,529.4-128.7,477.9-128.7,473.2z"/>
				<path id="XMLID_61_" class="st9" d="M-128.7,486.3c0,0-17.5,5.8-17.5,32.1c0,7.5,1.4,14.4,3.8,19.9c3.2,7.4,8.2,10.8,13.7,10.8
					V486.3z"/>
				<path id="XMLID_60_" class="st8" d="M-128.7,486.3c0,0,17.5,5.8,17.5,32.1c0,7.5-1.4,14.4-3.8,19.9c-3.2,7.4-8.2,10.8-13.7,10.8
					V486.3z"/>
				<g id="XMLID_58_">
					<path id="XMLID_59_" class="st10" d="M-136,546.8c0.4,3.7,3.5,6.5,7.2,6.5c3.8,0,6.9-2.9,7.2-6.5c-2.3,0.5-4.8,0.7-7.2,0.7
						C-131.2,547.5-133.6,547.3-136,546.8z"/>
				</g>
			</g>
		</g>
	</g>
	<g>
		<g>
			<path class="st11" d="M-149,552.8c-0.3-1.6,2-5.3,4.2-5.5c1.5-0.1,1.8,1.5,3.6,1.4c1.8-0.1,2.2-1.7,3.6-1.4
				c1.8,0.4,3.5,3.8,3.2,5.5C-134.6,554-148.8,553.8-149,552.8z"/>
			<path class="st11" d="M-143.3,551.9c-0.3-1.6,2-5.3,4.2-5.5c1.5-0.1,1.8,1.5,3.6,1.4c1.8-0.1,2.2-1.7,3.6-1.4
				c1.8,0.4,3.5,3.8,3.2,5.5C-128.9,553.1-143.2,552.8-143.3,551.9z"/>
			<path class="st11" d="M-137,550.6c-0.3-1.6,2-5.3,4.2-5.5c1.5-0.1,1.8,1.5,3.6,1.4c1.8-0.1,2.2-1.7,3.6-1.4
				c1.8,0.4,3.5,3.8,3.2,5.5C-122.6,551.8-136.9,551.6-137,550.6z"/>
			<path class="st11" d="M-127.8,551.9c-0.3-1.6,2-5.3,4.2-5.5c1.5-0.1,1.8,1.5,3.6,1.4c1.8-0.1,2.2-1.7,3.6-1.4
				c1.8,0.4,3.5,3.8,3.2,5.5C-113.3,553.1-127.6,552.8-127.8,551.9z"/>
			<path class="st11" d="M-134.3,553c-0.3-1.6,2-5.3,4.2-5.5c1.5-0.1,1.8,1.5,3.6,1.4c1.8-0.1,2.2-1.7,3.6-1.4
				c1.8,0.4,3.5,3.8,3.2,5.5C-119.8,554.3-134.1,554-134.3,553z"/>
			<path class="st11" d="M-123.2,553c-0.3-1.6,2-5.3,4.2-5.5c1.5-0.1,1.8,1.5,3.6,1.4c1.8-0.1,2.2-1.7,3.6-1.4
				c1.8,0.4,3.5,3.8,3.2,5.5C-108.7,554.3-123,554-123.2,553z"/>
		</g>
	</g>
</g>
<g>
	<g>
		<g>
			<path class="st4" d="M33.1,359.3c0,0-1.3,4.9-1.7,11.9v5.3h3.4v-5.3C34.3,364.2,33.1,359.3,33.1,359.3z"/>
			<path class="st5" d="M18.7,361.9c9.2,6.8,12.7,12.6,12.7,15.8h3.4C33.1,367.8,18.7,361.9,18.7,361.9z"/>
			<path class="st6" d="M31.4,377.7l1.7,2l1.7-2c0-3.2,3.5-9,12.7-15.8C47.5,361.9,33,367.8,31.4,377.7z"/>
		</g>
		<g>
			<g id="XMLID_50_">
				<path id="XMLID_56_" class="st7" d="M47.6,392.9c-7.3-3.3-10.1-10.2-7.2-18.9c0,0-7.3,0-7.3,5.8c0-5.8-7.3-5.8-7.3-5.8
					c2.9,8.7,0,15.6-7.2,18.9C6.5,398-1.9,409.1-1.9,422.1c0,17.7,15.7,32.1,35,32.1c19.3,0,35-14.4,35-32.1
					C68,409.1,59.6,398,47.6,392.9z"/>
				<path id="XMLID_55_" class="st8" d="M33.1,379.8c0-5.8-7.3-5.8-7.3-5.8c2.9,8.7,0,15.6-7.2,18.9C6.5,398-1.9,409.1-1.9,422.1
					c0,17.7,15.7,32.1,35,32.1C33.1,436.1,33.1,384.6,33.1,379.8z"/>
				<path id="XMLID_54_" class="st9" d="M33.1,392.9c0,0-17.5,5.8-17.5,32.1c0,7.5,1.4,14.4,3.8,19.9c3.2,7.4,8.2,10.8,13.7,10.8
					V392.9z"/>
				<path id="XMLID_53_" class="st8" d="M33.1,392.9c0,0,17.5,5.8,17.5,32.1c0,7.5-1.4,14.4-3.8,19.9c-3.2,7.4-8.2,10.8-13.7,10.8
					V392.9z"/>
				<g id="XMLID_51_">
					<path id="XMLID_52_" class="st10" d="M25.8,453.5c0.4,3.7,3.5,6.5,7.2,6.5s6.9-2.9,7.2-6.5c-2.3,0.5-4.8,0.7-7.2,0.7
						C30.6,454.2,28.1,453.9,25.8,453.5z"/>
				</g>
			</g>
		</g>
	</g>
	<g>
		<g>
			<path class="st11" d="M12.8,459.4c-0.3-1.6,2-5.3,4.2-5.5c1.5-0.1,1.8,1.5,3.6,1.4c1.8-0.1,2.2-1.7,3.6-1.4
				c1.8,0.4,3.5,3.8,3.2,5.5C27.2,460.7,13,460.4,12.8,459.4z"/>
			<path class="st11" d="M18.5,458.5c-0.3-1.6,2-5.3,4.2-5.5c1.5-0.1,1.8,1.5,3.6,1.4c1.8-0.1,2.2-1.7,3.6-1.4
				c1.8,0.4,3.5,3.8,3.2,5.5C32.9,459.8,18.6,459.5,18.5,458.5z"/>
			<path class="st11" d="M24.8,457.3c-0.3-1.6,2-5.3,4.2-5.5c1.5-0.1,1.8,1.5,3.6,1.4c1.8-0.1,2.2-1.7,3.6-1.4
				c1.8,0.4,3.5,3.8,3.2,5.5C39.2,458.5,24.9,458.3,24.8,457.3z"/>
			<path class="st11" d="M34,458.5c-0.3-1.6,2-5.3,4.2-5.5c1.5-0.1,1.8,1.5,3.6,1.4c1.8-0.1,2.2-1.7,3.6-1.4
				c1.8,0.4,3.5,3.8,3.2,5.5C48.5,459.8,34.2,459.5,34,458.5z"/>
			<path class="st11" d="M27.5,459.7c-0.3-1.6,2-5.3,4.2-5.5c1.5-0.1,1.8,1.5,3.6,1.4c1.8-0.1,2.2-1.7,3.6-1.4
				c1.8,0.4,3.5,3.8,3.2,5.5C42,461,27.7,460.7,27.5,459.7z"/>
			<path class="st11" d="M38.6,459.7c-0.3-1.6,2-5.3,4.2-5.5c1.5-0.1,1.8,1.5,3.6,1.4c1.8-0.1,2.2-1.7,3.6-1.4
				c1.8,0.4,3.5,3.8,3.2,5.5C53.1,461,38.8,460.7,38.6,459.7z"/>
		</g>
	</g>
</g>
<g>
	<defs>
		<polygon id="SVGID_5_" points="-172.9,489.6 32,608.6 31.8,656.8 -172.4,538.3 		"/>
	</defs>
	<clipPath id="SVGID_6_">
		<use xlink:href="#SVGID_5_"  style="overflow:visible;"/>
	</clipPath>
	<g class="st12">
		<polygon class="st1" points="-172.9,463.6 32,582.6 31.8,630.8 -172.4,512.3 		"/>
		<g>
			<polygon class="st2" points="32,582.6 20.3,575.8 -18.9,601.4 11,618.7 31.9,605.2 			"/>
			<polygon class="st2" points="-152.1,475.7 -172.6,489.5 -172.4,512.3 -160.7,519 -122.1,493.2 			"/>
		</g>
	</g>
</g>
<g>
	<defs>
		<polygon id="SVGID_7_" points="32.4,582.8 236.6,464.2 236.8,512.4 31.9,631.4 		"/>
	</defs>
	<clipPath id="SVGID_8_">
		<use xlink:href="#SVGID_7_"  style="overflow:visible;"/>
	</clipPath>
	<g class="st13">
		<polygon class="st1" points="32.4,608.8 236.6,490.2 236.8,538.4 31.9,657.4 		"/>
		<g>
			<polygon class="st2" points="236.7,515.8 215.8,502.3 185.9,519.6 225.1,545.2 236.8,538.4 			"/>
			<polygon class="st2" points="82.7,627.9 44.1,602 32.4,608.8 32.2,631.5 52.7,645.3 			"/>
		</g>
	</g>
</g>
<text transform="matrix(0.5926 0.3431 -0.501 0.8654 -122.0996 539.0562)" class="st14 st15">Crime Scene</text>
<text transform="matrix(0.5889 -0.3413 0.5015 0.8652 70.4029 606.3433)" class="st14 st16">Do Not Cross Line</text>
</svg>
