<?xml version="1.0" encoding="utf-8"?>
<!-- Generator: Adobe Illustrator 19.0.1, SVG Export Plug-In . SVG Version: 6.00 Build 0)  -->
<svg version="1.1" id="onion_x5F_grow" xmlns="http://www.w3.org/2000/svg" xmlns:xlink="http://www.w3.org/1999/xlink" x="0px"
	 y="0px" viewBox="-223 225 512 512" style="enable-background:new -223 225 512 512;" xml:space="preserve">
<style type="text/css">
	.st0{fill:#FFAD41;}
	.st1{fill:#FF9811;}
	.st2{fill:#804C09;}
	.st3{fill:#604A3B;}
</style>
<g>
	<g>
		<g>
			<g id="XMLID_1050_">
				<path id="XMLID_1051_" class="st0" d="M43.3,603.4c-4.6-2.1-6.4-6.4-4.5-11.9c0,0-4.6,0-4.6,3.7c0-3.7-4.6-3.7-4.6-3.7
					c1.8,5.5,0,9.8-4.5,11.9c-7.6,3.2-12.9,10.2-12.9,18.3c0,11.1,9.8,20.1,22,20.1c12.1,0,22-9,22-20.1
					C56.1,613.6,50.8,606.6,43.3,603.4z"/>
				<path id="XMLID_1052_" class="st0" d="M34.1,595.2c0-3.7-4.6-3.7-4.6-3.7c1.8,5.5,0,9.8-4.5,11.9c-7.6,3.2-12.9,10.2-12.9,18.3
					c0,11.1,9.8,20.1,22,20.1C34.1,630.5,34.1,598.2,34.1,595.2z"/>
				<path id="XMLID_1053_" class="st1" d="M34.1,603.4c0,0-11,3.7-11,20.1c0,4.7,0.9,9.1,2.4,12.5c2,4.7,5.1,6.8,8.6,6.8V603.4z"/>
				<path id="XMLID_1054_" class="st1" d="M34.1,603.4c0,0,11,3.7,11,20.1c0,4.7-0.9,9.1-2.4,12.5c-2,4.7-5.1,6.8-8.6,6.8V603.4z"/>
				<g id="XMLID_1055_">
					<path id="XMLID_1056_" class="st2" d="M29.6,641.5c0.2,2.3,2.2,4.1,4.6,4.1s4.3-1.8,4.6-4.1c-1.5,0.3-3,0.4-4.6,0.4
						C32.6,641.9,31,641.8,29.6,641.5z"/>
				</g>
			</g>
		</g>
	</g>
	<g>
		<g>
			<path class="st3" d="M15.1,643.9c-0.3-1.6,2-5.3,4.2-5.5c1.5-0.1,1.8,1.5,3.6,1.4c1.8-0.1,2.2-1.7,3.6-1.4
				c1.8,0.4,3.5,3.8,3.2,5.5C29.6,645.1,15.3,644.9,15.1,643.9z"/>
			<path class="st3" d="M20.8,643c-0.3-1.6,2-5.3,4.2-5.5c1.5-0.1,1.8,1.5,3.6,1.4c1.8-0.1,2.2-1.7,3.6-1.4c1.8,0.4,3.5,3.8,3.2,5.5
				C35.3,644.2,21,643.9,20.8,643z"/>
			<path class="st3" d="M27.1,641.7c-0.3-1.6,2-5.3,4.2-5.5c1.5-0.1,1.8,1.5,3.6,1.4c1.8-0.1,2.2-1.7,3.6-1.4
				c1.8,0.4,3.5,3.8,3.2,5.5C41.6,642.9,27.3,642.7,27.1,641.7z"/>
			<path class="st3" d="M36.4,643c-0.3-1.6,2-5.3,4.2-5.5c1.5-0.1,1.8,1.5,3.6,1.4c1.8-0.1,2.2-1.7,3.6-1.4c1.8,0.4,3.5,3.8,3.2,5.5
				C50.8,644.2,36.6,643.9,36.4,643z"/>
			<path class="st3" d="M29.9,644.1c-0.3-1.6,2-5.3,4.2-5.5c1.5-0.1,1.8,1.5,3.6,1.4c1.8-0.1,2.2-1.7,3.6-1.4
				c1.8,0.4,3.5,3.8,3.2,5.5C44.3,645.4,30.1,645.1,29.9,644.1z"/>
			<path class="st3" d="M41,644.1c-0.3-1.6,2-5.3,4.2-5.5c1.5-0.1,1.8,1.5,3.6,1.4c1.8-0.1,2.2-1.7,3.6-1.4c1.8,0.4,3.5,3.8,3.2,5.5
				C55.4,645.4,41.2,645.1,41,644.1z"/>
		</g>
	</g>
</g>
<g>
	<g>
		<g>
			<g id="XMLID_1_">
				<path id="XMLID_7_" class="st0" d="M202.7,513.4c-4.6-2.1-6.4-6.4-4.5-11.9c0,0-4.6,0-4.6,3.7c0-3.7-4.6-3.7-4.6-3.7
					c1.8,5.5,0,9.8-4.5,11.9c-7.6,3.2-12.9,10.2-12.9,18.3c0,11.1,9.8,20.1,22,20.1c12.1,0,22-9,22-20.1
					C215.5,523.6,210.3,516.6,202.7,513.4z"/>
				<path id="XMLID_6_" class="st0" d="M193.5,505.2c0-3.7-4.6-3.7-4.6-3.7c1.8,5.5,0,9.8-4.5,11.9c-7.6,3.2-12.9,10.2-12.9,18.3
					c0,11.1,9.8,20.1,22,20.1C193.5,540.6,193.5,508.2,193.5,505.2z"/>
				<path id="XMLID_5_" class="st1" d="M193.5,513.4c0,0-11,3.7-11,20.1c0,4.7,0.9,9.1,2.4,12.5c2,4.7,5.1,6.8,8.6,6.8V513.4z"/>
				<path id="XMLID_4_" class="st1" d="M193.5,513.4c0,0,11,3.7,11,20.1c0,4.7-0.9,9.1-2.4,12.5c-2,4.7-5.1,6.8-8.6,6.8V513.4z"/>
				<g id="XMLID_2_">
					<path id="XMLID_3_" class="st2" d="M189,551.5c0.2,2.3,2.2,4.1,4.6,4.1s4.3-1.8,4.6-4.1c-1.5,0.3-3,0.4-4.6,0.4
						C192,551.9,190.5,551.8,189,551.5z"/>
				</g>
			</g>
		</g>
	</g>
	<g>
		<g>
			<path class="st3" d="M174.6,553.9c-0.3-1.6,2-5.3,4.2-5.5c1.5-0.1,1.8,1.5,3.6,1.4c1.8-0.1,2.2-1.7,3.6-1.4
				c1.8,0.4,3.5,3.8,3.2,5.5C189,555.1,174.7,554.9,174.6,553.9z"/>
			<path class="st3" d="M180.2,553c-0.3-1.6,2-5.3,4.2-5.5c1.5-0.1,1.8,1.5,3.6,1.4c1.8-0.1,2.2-1.7,3.6-1.4
				c1.8,0.4,3.5,3.8,3.2,5.5C194.7,554.2,180.4,554,180.2,553z"/>
			<path class="st3" d="M186.5,551.7c-0.3-1.6,2-5.3,4.2-5.5c1.5-0.1,1.8,1.5,3.6,1.4c1.8-0.1,2.2-1.7,3.6-1.4
				c1.8,0.4,3.5,3.8,3.2,5.5C201,553,186.7,552.7,186.5,551.7z"/>
			<path class="st3" d="M195.8,553c-0.3-1.6,2-5.3,4.2-5.5c1.5-0.1,1.8,1.5,3.6,1.4c1.8-0.1,2.2-1.7,3.6-1.4
				c1.8,0.4,3.5,3.8,3.2,5.5C210.2,554.2,196,554,195.8,553z"/>
			<path class="st3" d="M189.3,554.1c-0.3-1.6,2-5.3,4.2-5.5c1.5-0.1,1.8,1.5,3.6,1.4c1.8-0.1,2.2-1.7,3.6-1.4
				c1.8,0.4,3.5,3.8,3.2,5.5C203.7,555.4,189.5,555.1,189.3,554.1z"/>
			<path class="st3" d="M200.4,554.1c-0.3-1.6,2-5.3,4.2-5.5c1.5-0.1,1.8,1.5,3.6,1.4c1.8-0.1,2.2-1.7,3.6-1.4
				c1.8,0.4,3.5,3.8,3.2,5.5C214.9,555.4,200.6,555.1,200.4,554.1z"/>
		</g>
	</g>
</g>
<g>
	<g>
		<g>
			<g id="XMLID_8_">
				<path id="XMLID_14_" class="st0" d="M42,419c-4.6-2.1-6.4-6.4-4.5-11.9c0,0-4.6,0-4.6,3.7c0-3.7-4.6-3.7-4.6-3.7
					c1.8,5.5,0,9.8-4.5,11.9c-7.6,3.2-12.9,10.2-12.9,18.3c0,11.1,9.8,20.1,22,20.1c12.1,0,22-9,22-20.1
					C54.8,429.2,49.6,422.2,42,419z"/>
				<path id="XMLID_13_" class="st0" d="M32.9,410.8c0-3.7-4.6-3.7-4.6-3.7c1.8,5.5,0,9.8-4.5,11.9c-7.6,3.2-12.9,10.2-12.9,18.3
					c0,11.1,9.8,20.1,22,20.1C32.9,446.2,32.9,413.8,32.9,410.8z"/>
				<path id="XMLID_12_" class="st1" d="M32.9,419.1c0,0-11,3.7-11,20.1c0,4.7,0.9,9.1,2.4,12.5c2,4.7,5.1,6.8,8.6,6.8V419.1z"/>
				<path id="XMLID_11_" class="st1" d="M32.9,419.1c0,0,11,3.7,11,20.1c0,4.7-0.9,9.1-2.4,12.5c-2,4.7-5.1,6.8-8.6,6.8V419.1z"/>
				<g id="XMLID_9_">
					<path id="XMLID_10_" class="st2" d="M28.3,457.1c0.2,2.3,2.2,4.1,4.6,4.1s4.3-1.8,4.6-4.1c-1.5,0.3-3,0.4-4.6,0.4
						C31.3,457.5,29.8,457.4,28.3,457.1z"/>
				</g>
			</g>
		</g>
	</g>
	<g>
		<g>
			<path class="st3" d="M13.9,459.5c-0.3-1.6,2-5.3,4.2-5.5c1.5-0.1,1.8,1.5,3.6,1.4c1.8-0.1,2.2-1.7,3.6-1.4
				c1.8,0.4,3.5,3.8,3.2,5.5C28.3,460.7,14.1,460.5,13.9,459.5z"/>
			<path class="st3" d="M19.6,458.6c-0.3-1.6,2-5.3,4.2-5.5c1.5-0.1,1.8,1.5,3.6,1.4c1.8-0.1,2.2-1.7,3.6-1.4
				c1.8,0.4,3.5,3.8,3.2,5.5C34,459.8,19.7,459.6,19.6,458.6z"/>
			<path class="st3" d="M25.9,457.3c-0.3-1.6,2-5.3,4.2-5.5c1.5-0.1,1.8,1.5,3.6,1.4c1.8-0.1,2.2-1.7,3.6-1.4
				c1.8,0.4,3.5,3.8,3.2,5.5C40.3,458.6,26,458.3,25.9,457.3z"/>
			<path class="st3" d="M35.1,458.6c-0.3-1.6,2-5.3,4.2-5.5c1.5-0.1,1.8,1.5,3.6,1.4c1.8-0.1,2.2-1.7,3.6-1.4
				c1.8,0.4,3.5,3.8,3.2,5.5C49.6,459.8,35.3,459.6,35.1,458.6z"/>
			<path class="st3" d="M28.6,459.8c-0.3-1.6,2-5.3,4.2-5.5c1.5-0.1,1.8,1.5,3.6,1.4c1.8-0.1,2.2-1.7,3.6-1.4
				c1.8,0.4,3.5,3.8,3.2,5.5C43.1,461,28.8,460.8,28.6,459.8z"/>
			<path class="st3" d="M39.7,459.8c-0.3-1.6,2-5.3,4.2-5.5c1.5-0.1,1.8,1.5,3.6,1.4c1.8-0.1,2.2-1.7,3.6-1.4
				c1.8,0.4,3.5,3.8,3.2,5.5C54.2,461,39.9,460.8,39.7,459.8z"/>
		</g>
	</g>
</g>
<g>
	<g>
		<g>
			<g id="XMLID_15_">
				<path id="XMLID_21_" class="st0" d="M-119.6,513.6c-4.6-2.1-6.4-6.4-4.5-11.9c0,0-4.6,0-4.6,3.7c0-3.7-4.6-3.7-4.6-3.7
					c1.8,5.5,0,9.8-4.5,11.9c-7.6,3.2-12.9,10.2-12.9,18.3c0,11.1,9.8,20.1,22,20.1c12.1,0,22-9,22-20.1
					C-106.7,523.8-112,516.8-119.6,513.6z"/>
				<path id="XMLID_20_" class="st0" d="M-128.7,505.4c0-3.7-4.6-3.7-4.6-3.7c1.8,5.5,0,9.8-4.5,11.9c-7.6,3.2-12.9,10.2-12.9,18.3
					c0,11.1,9.8,20.1,22,20.1C-128.7,540.7-128.7,508.4-128.7,505.4z"/>
				<path id="XMLID_19_" class="st1" d="M-128.7,513.6c0,0-11,3.7-11,20.1c0,4.7,0.9,9.1,2.4,12.5c2,4.7,5.1,6.8,8.6,6.8V513.6z"/>
				<path id="XMLID_18_" class="st1" d="M-128.7,513.6c0,0,11,3.7,11,20.1c0,4.7-0.9,9.1-2.4,12.5c-2,4.7-5.1,6.8-8.6,6.8V513.6z"/>
				<g id="XMLID_16_">
					<path id="XMLID_17_" class="st2" d="M-133.3,551.6c0.2,2.3,2.2,4.1,4.6,4.1s4.3-1.8,4.6-4.1c-1.5,0.3-3,0.4-4.6,0.4
						C-130.3,552.1-131.8,551.9-133.3,551.6z"/>
				</g>
			</g>
		</g>
	</g>
	<g>
		<g>
			<path class="st3" d="M-147.7,554c-0.3-1.6,2-5.3,4.2-5.5c1.5-0.1,1.8,1.5,3.6,1.4c1.8-0.1,2.2-1.7,3.6-1.4
				c1.8,0.4,3.5,3.8,3.2,5.5C-133.3,555.3-147.5,555-147.7,554z"/>
			<path class="st3" d="M-142,553.1c-0.3-1.6,2-5.3,4.2-5.5c1.5-0.1,1.8,1.5,3.6,1.4c1.8-0.1,2.2-1.7,3.6-1.4
				c1.8,0.4,3.5,3.8,3.2,5.5C-127.6,554.4-141.8,554.1-142,553.1z"/>
			<path class="st3" d="M-135.7,551.9c-0.3-1.6,2-5.3,4.2-5.5c1.5-0.1,1.8,1.5,3.6,1.4c1.8-0.1,2.2-1.7,3.6-1.4
				c1.8,0.4,3.5,3.8,3.2,5.5C-121.3,553.1-135.5,552.9-135.7,551.9z"/>
			<path class="st3" d="M-126.5,553.1c-0.3-1.6,2-5.3,4.2-5.5c1.5-0.1,1.8,1.5,3.6,1.4c1.8-0.1,2.2-1.7,3.6-1.4
				c1.8,0.4,3.5,3.8,3.2,5.5C-112,554.4-126.3,554.1-126.5,553.1z"/>
			<path class="st3" d="M-133,554.3c-0.3-1.6,2-5.3,4.2-5.5c1.5-0.1,1.8,1.5,3.6,1.4c1.8-0.1,2.2-1.7,3.6-1.4
				c1.8,0.4,3.5,3.8,3.2,5.5C-118.5,555.6-132.8,555.3-133,554.3z"/>
			<path class="st3" d="M-121.8,554.3c-0.3-1.6,2-5.3,4.2-5.5c1.5-0.1,1.8,1.5,3.6,1.4c1.8-0.1,2.2-1.7,3.6-1.4
				c1.8,0.4,3.5,3.8,3.2,5.5C-107.4,555.6-121.7,555.3-121.8,554.3z"/>
		</g>
	</g>
</g>
</svg>
