<?xml version="1.0" encoding="utf-8"?>
<!-- Generator: Adobe Illustrator 19.0.1, SVG Export Plug-In . SVG Version: 6.00 Build 0)  -->
<svg version="1.1" id="pear_x5F_seed" xmlns="http://www.w3.org/2000/svg" xmlns:xlink="http://www.w3.org/1999/xlink" x="0px"
	 y="0px" viewBox="-223 225 512 512" style="enable-background:new -223 225 512 512;" xml:space="preserve">
<style type="text/css">
	.st0{fill:#D6B156;}
	.st1{fill:#D6B156;stroke:#D3B092;stroke-width:0.25;stroke-miterlimit:10;}
</style>
<g>
	<g>
		<path class="st0" d="M38.8,606.1c0.1,1.8,0.3,4.4-1.3,6.4c-2.7,3.2-8,2.3-8.8,2.1c-1.2-0.2-4.9-1.1-9.4-6.4
			c-6.5-7.7-9.8-19.2-7-21.2c1.1-0.8,2.2,0.6,9.6,3.7c8.3,3.5,9.7,3,12.3,5.6C34.8,597,38.4,600.6,38.8,606.1z"/>
		<line class="st1" x1="18" y1="597.1" x2="29" y2="609.9"/>
		<line class="st1" x1="21.8" y1="596.3" x2="32.8" y2="609.1"/>
	</g>
	<g>
		<path class="st0" d="M28.9,637.3c0.1,1.8,0.3,4.4-1.3,6.4c-2.7,3.2-8,2.3-8.8,2.1c-1.2-0.2-4.9-1.1-9.4-6.4
			c-6.5-7.7-9.8-19.2-7-21.2c1.1-0.8,2.2,0.6,9.6,3.7c8.3,3.5,9.7,3,12.3,5.6C24.9,628.2,28.5,631.8,28.9,637.3z"/>
		<line class="st1" x1="8.1" y1="628.3" x2="19.1" y2="641"/>
		<line class="st1" x1="11.9" y1="627.5" x2="22.9" y2="640.2"/>
	</g>
	<g>
		<path class="st0" d="M66.5,637.3c0.1,1.8,0.3,4.4-1.3,6.4c-2.7,3.2-8,2.3-8.8,2.1c-1.2-0.2-4.9-1.1-9.4-6.4
			c-6.5-7.7-9.8-19.2-7-21.2c1.1-0.8,2.2,0.6,9.6,3.7c8.3,3.5,9.7,3,12.3,5.6C62.4,628.2,66,631.8,66.5,637.3z"/>
		<line class="st1" x1="45.6" y1="628.3" x2="56.6" y2="641"/>
		<line class="st1" x1="49.4" y1="627.5" x2="60.4" y2="640.2"/>
	</g>
</g>
</svg>
