<?xml version="1.0" encoding="utf-8"?>
<!-- Generator: Adobe Illustrator 19.0.1, SVG Export Plug-In . SVG Version: 6.00 Build 0)  -->
<svg version="1.1" id="pear_x5F_grow" xmlns="http://www.w3.org/2000/svg" xmlns:xlink="http://www.w3.org/1999/xlink" x="0px"
	 y="0px" viewBox="-223 225 512 512" style="enable-background:new -223 225 512 512;" xml:space="preserve">
<style type="text/css">
	.st0{fill:#479947;}
</style>
<g>
	<g>
		<g>
			<path class="st0" d="M12,514.9c0.2,0.4,0.3,0.9,0.5,1.2c0.1,0.2,0.2,0.4,0.3,0.6c1.7-3.1,4.4-8.2,4.1-10.2c0,0,0.9,3.8-3.1,10.7
				c0.2,0,0.4-0.1,0.6-0.1c0.4-0.1,0.8-0.2,1.3-0.4c0.5-0.2,0.9-0.4,1.4-0.7c1-0.6,1.9-1.3,2.7-2.3c0.8-1,1.4-2.2,1.7-3.5
				c0.2-0.6,0.2-1.3,0.3-2c0-0.7-0.1-1.4-0.2-2.1c-0.2-0.7-0.4-1.4-0.6-1.9c-0.3-0.6-0.7-1.2-1-1.7c-0.4-0.5-0.9-0.9-1.3-1.2
				c-0.4-0.3-0.9-0.5-1.2-0.7c-0.4-0.2-0.7-0.2-0.9-0.3c-0.2,0-0.3-0.1-0.3-0.1s-0.1,0.1-0.2,0.3c-0.1,0.2-0.3,0.5-0.5,0.8
				c-0.2,0.3-0.4,0.6-0.7,1c-0.3,0.3-0.5,0.6-0.8,1c-0.3,0.4-0.6,0.7-0.8,1c-0.3,0.4-0.5,0.7-0.7,1.1c-0.3,0.4-0.4,0.7-0.6,1.1
				c-0.2,0.4-0.3,0.8-0.4,1.2c-0.2,0.8-0.3,1.8-0.2,2.8c0,1,0.2,2,0.5,3C11.6,514,11.8,514.5,12,514.9z"/>
			<path class="st0" d="M-8,506.2c-0.5-0.1-1.2-0.2-1.9-0.2c-0.7-0.1-1.4-0.1-2.1-0.1c-1.5,0-3,0.1-4.3,0.5
				c-1.4,0.3-2.7,0.8-3.8,1.4c-0.6,0.3-1.1,0.6-1.6,1.1c-0.5,0.4-0.9,0.8-1.3,1.3c-0.4,0.4-0.8,0.9-1.2,1.5c-0.4,0.5-0.7,1-1.1,1.6
				c-0.4,0.6-0.8,1.1-1.1,1.6c-0.4,0.5-0.7,1-1.1,1.4c-0.3,0.4-0.6,0.8-0.9,1c-0.2,0.3-0.3,0.4-0.3,0.4s0.1,0.2,0.2,0.4
				c0.2,0.3,0.4,0.7,0.8,1.1c0.4,0.4,0.9,1,1.5,1.4c0.6,0.4,1.4,0.9,2.2,1.3c0.8,0.3,1.7,0.6,2.7,0.8c0.9,0.1,2,0.2,3,0.1
				c1-0.1,2-0.3,2.9-0.6c0.9-0.3,1.9-0.7,2.7-1.2c1.7-1,3.1-2.3,4.1-3.7c1.1-1.5,1.7-3.1,2.1-4.7c0.2-0.8,0.3-1.5,0.3-2.3
				c0.1-0.7,0-1.4,0-1.9c0-0.3,0-0.6-0.1-0.9c-7.9,8.4-13.6,8.7-13.6,8.7c2.8-0.4,8.8-6.2,12.5-9.9C-7.3,506.2-7.6,506.2-8,506.2z"
				/>
			<path class="st0" d="M-21.3,541c-0.1-0.3-0.1-0.6-0.2-0.8c-6.5,9.6-12.1,10.7-12.1,10.7c2.7-0.8,7.8-7.4,10.8-11.7
				c-0.3,0-0.6,0-0.9,0c-0.5,0-1.2,0-1.9,0.1c-0.7,0-1.4,0.1-2.1,0.3c-1.5,0.2-2.9,0.6-4.2,1.1c-1.3,0.5-2.5,1.2-3.5,2
				c-0.5,0.4-1,0.8-1.4,1.3c-0.4,0.5-0.8,0.9-1.1,1.5c-0.3,0.5-0.6,1-0.9,1.6c-0.3,0.5-0.6,1.1-0.8,1.7c-0.3,0.6-0.6,1.2-0.8,1.7
				c-0.3,0.6-0.6,1.1-0.8,1.5c-0.3,0.4-0.5,0.9-0.7,1.2c-0.2,0.3-0.3,0.4-0.3,0.4s0.1,0.2,0.3,0.4c0.2,0.2,0.5,0.6,1,1
				c0.4,0.3,1,0.9,1.7,1.2c0.7,0.4,1.5,0.7,2.4,0.9c0.8,0.2,1.8,0.3,2.8,0.3c0.9,0,1.9-0.1,2.9-0.4c0.9-0.3,1.9-0.6,2.8-1
				c0.9-0.5,1.7-1,2.5-1.6c1.5-1.2,2.7-2.7,3.5-4.3c0.8-1.6,1.2-3.3,1.4-4.9c0.1-0.8,0.1-1.6,0-2.3C-21,542.2-21.2,541.5-21.3,541z"
				/>
			<path class="st0" d="M40.3,584.1c0.8-5.5,1.7-11,2.8-16.5c1.9-10.3,4.6-20.5,7.8-29.7c0.8-2.3,1.8-4.3,2.7-6.5
				c0.2,0.4,0.2,0.8,0.5,1.1c0.6,0.9,1.5,1.8,2.6,2.4c0.5,0.3,1.1,0.6,1.7,0.8c0.6,0.2,1.2,0.3,1.9,0.4c0.6,0,1.3,0,1.9-0.1
				c0.6-0.1,1.2-0.3,1.7-0.5c0.6-0.2,1-0.5,1.4-0.8c0.4-0.3,0.7-0.7,0.9-0.9c0.2-0.3,0.4-0.6,0.5-0.7c0.1-0.2,0.2-0.3,0.2-0.3
				s-0.1-0.1-0.2-0.3c-0.1-0.2-0.3-0.4-0.6-0.7c-0.2-0.3-0.4-0.5-0.7-0.9c-0.2-0.3-0.4-0.6-0.7-1c-0.2-0.4-0.4-0.7-0.7-1
				c-0.3-0.4-0.5-0.6-0.7-0.9c-0.3-0.3-0.5-0.6-0.9-0.8c-0.3-0.3-0.6-0.5-1-0.7c-0.7-0.4-1.5-0.7-2.4-0.9c-0.9-0.2-1.8-0.3-2.8-0.3
				c-0.1,0-0.1,0-0.2,0c0.1-0.1,0.1-0.3,0.2-0.4c2-3.9,4.1-7.6,6.3-10.7c2.3-3.1,4.6-5.8,6.8-8.1c2.3-2.1,4.5-3.9,6.5-5.1
				c1.9-1.4,3.6-2,4.7-2.7c1.1-0.6,1.7-0.9,1.7-0.9s-0.6,0.2-1.9,0.5c-1.2,0.4-3.1,0.6-5.2,1.7c-2.2,0.9-4.8,2.3-7.6,4.2
				c-2.7,2-5.7,4.4-8.4,7.5c-2.8,3.1-5.5,6.7-7.9,10.8c-2.4,4.1-4.7,8.5-6.6,13.3c-1.9,4.8-3.8,9.7-5.2,14.9
				c-1.2,4.3-2.2,8.7-3.2,13.1c0-3.4-0.2-57.3-1.2-74.6c-0.1-1.9-0.2-3.6-0.3-5.3c-1.3,0.7-2.6,1.4-3.9,2.1
				c-0.1,1.1-0.1,2.1-0.2,3.2c-1,17.5-1.8,71.1-1.8,74.6c-1-4.4-1.9-8.8-3.2-13.1c-1.4-5.2-3.3-10.1-5.2-14.9
				c-1.9-4.8-4.3-9.2-6.6-13.3c-2.5-4-5.2-7.7-7.9-10.8c-2.8-3.1-5.7-5.6-8.5-7.5c-2.8-1.9-5.3-3.3-7.6-4.2c-2.1-1.1-4-1.3-5.2-1.7
				c-1.2-0.3-1.9-0.5-1.9-0.5s0.6,0.3,1.7,0.9c1.1,0.6,2.8,1.3,4.7,2.7c2,1.2,4.1,2.9,6.5,5.1c2.2,2.2,4.5,4.9,6.8,8.1
				c2.2,3.2,4.3,6.8,6.3,10.7c0.1,0.1,0.1,0.3,0.2,0.4c-0.1,0-0.2,0-0.2,0c-0.9,0-1.9,0.1-2.8,0.3c-0.9,0.2-1.7,0.5-2.4,0.9
				c-0.4,0.2-0.7,0.4-1,0.7c-0.3,0.3-0.6,0.5-0.8,0.8c-0.3,0.3-0.5,0.6-0.8,0.9c-0.2,0.3-0.5,0.6-0.7,1c-0.3,0.4-0.5,0.7-0.7,1
				c-0.2,0.4-0.5,0.6-0.7,0.9c-0.2,0.2-0.4,0.5-0.5,0.7c-0.1,0.2-0.2,0.3-0.2,0.3s0.1,0.1,0.2,0.3c0.1,0.2,0.3,0.4,0.5,0.7
				c0.2,0.3,0.6,0.7,0.9,0.9c0.4,0.3,0.9,0.6,1.4,0.8c0.5,0.2,1.1,0.4,1.7,0.5c0.6,0.1,1.2,0.1,1.9,0.1c0.6-0.1,1.3-0.2,1.9-0.4
				c0.6-0.2,1.2-0.4,1.7-0.8c1.1-0.6,2-1.4,2.6-2.4c0.2-0.4,0.3-0.7,0.5-1.1c0.9,2.2,1.9,4.2,2.7,6.5c3.2,9.2,5.8,19.4,7.8,29.7
				c1.1,5.5,2,11,2.8,16.5c-17.9-46.3-59.2-51.3-59.2-51.3s34.3,8.8,53.6,55.7c10.5,25.5,7.5,52.2,7.8,56.9l5.7,0l5.7,0
				c0.2-4.7-2.8-31.4,7.8-56.9c19.4-46.9,53.6-55.7,53.6-55.7S58.2,537.8,40.3,584.1z M55.2,527.5c2.1,2,4.6,4.1,6,4.3
				c0,0-2.6-0.2-6.4-3.4C54.9,528.1,55,527.8,55.2,527.5z M3.9,531.8c1.3-0.2,3.8-2.3,6-4.3c0.1,0.3,0.3,0.6,0.4,1
				C6.4,531.7,3.9,531.8,3.9,531.8z"/>
			<path class="st0" d="M52.3,516.7c0.1-0.2,0.2-0.4,0.3-0.6c0.2-0.3,0.3-0.8,0.5-1.2c0.2-0.4,0.3-0.9,0.5-1.4c0.3-1,0.5-2,0.5-3
				c0.1-1,0-1.9-0.2-2.8c-0.1-0.4-0.2-0.8-0.4-1.2c-0.2-0.4-0.3-0.8-0.6-1.1c-0.2-0.4-0.4-0.7-0.7-1.1c-0.3-0.3-0.5-0.7-0.8-1
				c-0.3-0.4-0.6-0.7-0.8-1c-0.3-0.4-0.5-0.7-0.7-1c-0.2-0.3-0.4-0.6-0.5-0.8c-0.1-0.2-0.2-0.3-0.2-0.3s-0.1,0-0.3,0.1
				c-0.2,0.1-0.6,0.1-0.9,0.3c-0.4,0.2-0.9,0.4-1.2,0.7c-0.4,0.3-0.9,0.7-1.3,1.2c-0.4,0.5-0.7,1-1,1.7c-0.3,0.6-0.5,1.3-0.6,1.9
				c-0.1,0.7-0.2,1.4-0.2,2.1c0,0.7,0.1,1.4,0.3,2c0.3,1.3,0.9,2.5,1.7,3.5c0.8,1,1.7,1.8,2.7,2.3c0.5,0.3,1,0.5,1.4,0.7
				c0.4,0.2,0.9,0.3,1.3,0.4c0.2,0.1,0.4,0.1,0.6,0.1c-4-6.9-3.1-10.7-3.1-10.7C47.9,508.5,50.5,513.6,52.3,516.7z"/>
			<path class="st0" d="M70.9,508.3c0,0.5-0.1,1.2,0,1.9c0.1,0.7,0.2,1.5,0.3,2.3c0.4,1.6,1.1,3.2,2.1,4.7c1,1.5,2.4,2.8,4.1,3.7
				c0.8,0.5,1.8,0.9,2.7,1.2c0.9,0.3,2,0.5,2.9,0.6c1,0.1,2,0,3-0.1c1-0.2,1.9-0.5,2.7-0.8c0.9-0.4,1.6-0.8,2.2-1.3
				c0.6-0.4,1.1-1,1.5-1.4c0.4-0.4,0.6-0.9,0.8-1.1c0.2-0.3,0.2-0.4,0.2-0.4s-0.1-0.2-0.3-0.4c-0.2-0.2-0.5-0.7-0.9-1
				c-0.3-0.4-0.7-0.9-1.1-1.4c-0.3-0.5-0.7-1-1.1-1.6c-0.4-0.6-0.7-1.1-1.1-1.6c-0.4-0.6-0.8-1-1.2-1.5c-0.4-0.5-0.9-0.9-1.3-1.3
				c-0.5-0.4-1-0.7-1.6-1.1c-1.1-0.6-2.4-1.1-3.8-1.4c-1.4-0.3-2.9-0.5-4.3-0.5c-0.7,0-1.5,0-2.1,0.1c-0.7,0-1.3,0.1-1.9,0.2
				c-0.3,0-0.6,0.1-0.9,0.1c3.6,3.7,9.7,9.5,12.5,9.9c0,0-5.7-0.3-13.6-8.7C70.9,507.7,70.9,508,70.9,508.3z"/>
		</g>
	</g>
</g>
</svg>
