<?xml version="1.0" encoding="utf-8"?>
<!-- Generator: Adobe Illustrator 19.0.1, SVG Export Plug-In . SVG Version: 6.00 Build 0)  -->
<svg version="1.1" id="pear_x5F_harvest" xmlns="http://www.w3.org/2000/svg" xmlns:xlink="http://www.w3.org/1999/xlink" x="0px"
	 y="0px" viewBox="-223 225 512 512" style="enable-background:new -223 225 512 512;" xml:space="preserve">
<style type="text/css">
	.st0{fill:#479947;}
	.st1{fill:#683632;}
	.st2{fill:#6B3635;}
	.st3{fill:#A6D144;}
	.st4{fill:#C3E24E;}
	.st5{fill:#FFFFFF;}
	.st6{fill:#72BE0E;}
	.st7{fill:#40A712;}
</style>
<g>
	<g>
		<g>
			<g>
				<path class="st0" d="M-113,413.3c1.2,3,2.9,6.1,4.8,8.9c2,2.6,4.2,5.4,6.8,7.6c2.5,2.1,5.3,4.3,8.2,5.9c5.8,3.3,12,5.2,18.2,5.8
					c6.1,0.6,12.2-0.2,17.4-1.8c2.6-0.8,5.1-1.8,7.3-2.9c2.2-1,4.1-2.3,5.7-3.3c0.9-0.6,1.7-1.2,2.4-1.7c-38.5-8.8-49.1-25-49.1-25
					c6,7.6,33.4,15.4,50.6,19.8c-0.3-0.9-0.7-1.8-1.1-2.8c-0.7-1.6-1.6-3.8-2.6-5.8c-1-2.1-2.1-4.3-3.4-6.4c-2.5-4.3-5.6-8.5-8.9-12
					c-3.3-3.6-7-6.4-10.7-8.7c-2-1-3.8-2-5.8-2.7c-2-0.7-3.9-1.3-6.1-1.7c-2-0.4-4-0.8-6.3-0.9c-2-0.3-4.2-0.4-6.5-0.5
					c-2.4-0.2-4.6-0.4-6.5-0.5c-2.3-0.1-4.2-0.4-6-0.7c-1.7-0.3-3.4-0.5-4.5-0.7c-1.2-0.2-1.8-0.3-1.8-0.3s-0.4,0.5-0.9,1.5
					c-0.5,0.9-1.4,2.4-2,4.2c-0.6,1.8-1.6,4.4-1.7,6.8c-0.2,2.6-0.3,5.5,0.1,8.7C-114.9,406.9-114.1,410-113,413.3z"/>
				<path class="st0" d="M14.9,401.2c1,2.2,2.3,4.1,3.3,5.7c0.6,0.9,1.2,1.7,1.7,2.4c8.8-38.5,25-49.1,25-49.1
					c-7.6,6-15.4,33.4-19.7,50.6c0.9-0.3,1.8-0.7,2.8-1.1c1.7-0.7,3.8-1.6,5.8-2.6c2-1,4.2-2.2,6.4-3.4c4.3-2.5,8.5-5.6,12-8.9
					c3.6-3.3,6.4-7,8.6-10.7c1-2,2.1-3.8,2.8-5.8c0.7-2,1.3-3.9,1.7-6.1c0.4-2,0.8-4,0.9-6.4c0.3-2,0.4-4.2,0.5-6.5
					c0.2-2.4,0.4-4.6,0.5-6.5c0.2-2.3,0.4-4.2,0.7-6c0.3-1.7,0.5-3.4,0.7-4.5c0.2-1.2,0.3-1.8,0.3-1.8s-0.5-0.4-1.5-0.9
					c-0.9-0.5-2.4-1.4-4.2-2c-1.8-0.6-4.4-1.6-6.8-1.7c-2.6-0.2-5.5-0.3-8.7,0.1c-2.9,0.5-6.1,1.3-9.3,2.5c-3,1.2-6,2.9-8.9,4.8
					c-2.6,2-5.4,4.2-7.7,6.8c-2.1,2.5-4.3,5.3-5.9,8.2c-3.3,5.8-5.2,12-5.8,18.2c-0.6,6.1,0.2,12.2,1.8,17.4
					C12.8,396.6,13.8,399,14.9,401.2z"/>
				<path class="st0" d="M-73,478.4c0.6-0.5,1.1-1,1.6-1.5c-28.5-1.9-37.9-12.3-37.9-12.3c5.2,4.7,25.6,7.2,38.4,8.4
					c-0.3-0.6-0.7-1.2-1.1-1.9c-0.7-1.1-1.6-2.5-2.5-3.9c-1-1.3-2-2.8-3.2-4.1c-2.3-2.8-4.9-5.4-7.7-7.6c-2.8-2.2-5.7-3.8-8.6-4.9
					c-1.5-0.5-2.9-1-4.5-1.3c-1.5-0.3-2.9-0.5-4.5-0.5c-1.5-0.1-3-0.1-4.6,0.1c-1.5,0-3.1,0.2-4.7,0.4c-1.7,0.2-3.3,0.2-4.7,0.4
					c-1.6,0.1-3,0.2-4.3,0.2c-1.2,0-2.5,0-3.3,0c-0.9,0-1.3,0-1.3,0s-0.2,0.4-0.5,1.2c-0.2,0.7-0.7,1.9-0.9,3.3
					c-0.2,1.3-0.6,3.3-0.4,5.1c0.1,1.9,0.4,4,1,6.2c0.7,2,1.6,4.2,2.8,6.4c1.2,2,2.7,4,4.4,5.8c1.7,1.7,3.6,3.4,5.7,4.7
					c2.1,1.3,4.3,2.5,6.5,3.3c4.5,1.7,9.2,2.4,13.6,2.1c4.5-0.3,8.7-1.5,12.2-3.3c1.8-0.9,3.4-1.8,4.9-2.9
					C-75.3,480.4-74,479.3-73,478.4z"/>
				<path class="st0" d="M-24,431.3c0.3,0.9,0.7,1.8,1.1,2.5c0.2,0.4,0.4,0.8,0.6,1.2c3.7-6.6,9.2-17.4,8.7-21.5c0,0,2,8.1-6.6,22.6
					c0.4-0.1,0.8-0.1,1.2-0.3c0.8-0.2,1.8-0.4,2.7-0.8c1-0.4,2-0.8,3-1.4c2-1.2,4-2.8,5.7-4.9c1.6-2.1,2.9-4.6,3.5-7.3
					c0.4-1.3,0.5-2.9,0.6-4.3c0.1-1.5-0.2-3-0.4-4.4c-0.3-1.4-0.8-2.9-1.4-4.1c-0.7-1.3-1.4-2.5-2.2-3.5c-0.9-1-1.8-1.9-2.7-2.6
					c-0.8-0.7-1.9-1.1-2.6-1.5c-0.7-0.3-1.5-0.5-1.9-0.6c-0.4-0.1-0.7-0.1-0.7-0.1s-0.2,0.2-0.4,0.7c-0.2,0.4-0.7,1-1.1,1.6
					c-0.4,0.6-0.9,1.3-1.5,2.1c-0.5,0.7-1.1,1.4-1.7,2.2c-0.6,0.7-1.2,1.5-1.7,2.2c-0.6,0.8-1.1,1.5-1.6,2.2
					c-0.5,0.8-0.9,1.6-1.2,2.4c-0.4,0.8-0.6,1.7-0.8,2.6c-0.4,1.8-0.6,3.8-0.5,5.9c0.1,2.1,0.5,4.2,1.1,6.3
					C-24.7,429.3-24.3,430.3-24,431.3z"/>
				<path class="st0" d="M2,456.4c0.2,0.6,0.5,1.2,0.7,1.7c0.1,0.3,0.2,0.6,0.4,0.8c2.5-4.5,6.4-12,6-14.9c0,0,1.4,5.5-4.5,15.6
					c0.3,0,0.6-0.1,0.9-0.2c0.5-0.1,1.2-0.3,1.9-0.6c0.7-0.3,1.4-0.6,2.1-1c1.4-0.8,2.8-2,3.9-3.4c1.1-1.4,2-3.2,2.4-5.1
					c0.3-0.9,0.3-2,0.4-2.9c0-1-0.1-2.1-0.3-3c-0.2-1-0.6-2-0.9-2.8c-0.5-0.9-1-1.7-1.5-2.4c-0.6-0.7-1.2-1.3-1.8-1.8
					c-0.6-0.5-1.3-0.8-1.8-1c-0.5-0.2-1-0.4-1.3-0.4C8,435.1,7.9,435,7.9,435s-0.1,0.1-0.3,0.4c-0.1,0.3-0.5,0.7-0.7,1.1
					c-0.3,0.4-0.6,0.9-1,1.4c-0.4,0.4-0.8,0.9-1.2,1.5c-0.4,0.5-0.8,1-1.2,1.5c-0.4,0.5-0.8,1-1.1,1.5c-0.4,0.5-0.6,1.1-0.9,1.6
					c-0.3,0.6-0.4,1.2-0.6,1.8c-0.3,1.2-0.4,2.6-0.3,4c0.1,1.4,0.4,2.9,0.8,4.3C1.5,455.1,1.7,455.8,2,456.4z"/>
				<path class="st0" d="M-27.2,443.6c-0.8-0.1-1.7-0.2-2.7-0.3c-1-0.1-2-0.1-3.1-0.1c-2.2,0-4.4,0.2-6.4,0.7
					c-2.1,0.4-3.9,1.2-5.5,2.1c-0.8,0.5-1.6,0.9-2.3,1.5c-0.7,0.6-1.4,1.1-2,1.9c-0.6,0.6-1.2,1.3-1.7,2.1c-0.5,0.7-1,1.5-1.6,2.3
					c-0.6,0.8-1.1,1.6-1.6,2.3c-0.5,0.8-1.1,1.5-1.5,2c-0.5,0.6-0.9,1.2-1.2,1.5c-0.3,0.4-0.5,0.6-0.5,0.6s0.1,0.3,0.4,0.6
					c0.2,0.4,0.6,1,1.1,1.6c0.5,0.6,1.3,1.5,2.2,2.1c0.9,0.6,2,1.3,3.2,1.8c1.2,0.4,2.5,0.8,4,1.1c1.3,0.2,2.9,0.2,4.3,0.2
					c1.4-0.2,2.9-0.4,4.3-0.9c1.3-0.5,2.7-1,3.9-1.7c2.5-1.4,4.5-3.3,6.1-5.4c1.5-2.1,2.5-4.5,3.1-6.8c0.3-1.2,0.4-2.2,0.5-3.3
					c0.1-1,0.1-2,0-2.8c0-0.5,0-0.9-0.1-1.3c-11.6,12.3-19.8,12.7-19.8,12.7c4.1-0.6,12.9-9,18.2-14.4
					C-26.3,443.7-26.7,443.6-27.2,443.6z"/>
				<path class="st0" d="M-46.6,494.4c-0.1-0.4-0.2-0.9-0.3-1.2c-9.5,14-17.6,15.6-17.6,15.6c4-1.2,11.4-10.9,15.7-17
					c-0.4,0-0.8,0-1.3,0c-0.8,0-1.8,0-2.7,0.1c-1,0.1-2,0.2-3.1,0.4c-2.1,0.3-4.3,0.9-6.2,1.6c-2,0.8-3.7,1.8-5.1,2.9
					c-0.7,0.6-1.4,1.2-2,1.9c-0.6,0.7-1.1,1.3-1.6,2.1c-0.5,0.7-0.9,1.5-1.4,2.4c-0.4,0.8-0.8,1.7-1.2,2.5c-0.5,0.9-0.9,1.8-1.2,2.5
					c-0.4,0.9-0.8,1.6-1.2,2.2c-0.4,0.6-0.7,1.3-1,1.7c-0.3,0.4-0.4,0.6-0.4,0.6s0.2,0.3,0.4,0.6c0.3,0.3,0.8,0.9,1.4,1.5
					c0.6,0.5,1.5,1.3,2.5,1.7c1,0.5,2.2,1,3.5,1.3c1.2,0.2,2.6,0.4,4.1,0.5c1.4,0,2.8-0.2,4.3-0.5c1.4-0.4,2.8-0.8,4.1-1.5
					c1.2-0.7,2.5-1.4,3.6-2.3c2.2-1.8,4-4,5.1-6.3c1.2-2.3,1.8-4.9,2-7.2c0.1-1.2,0.1-2.3,0-3.3C-46.2,496.2-46.4,495.2-46.6,494.4z
					"/>
				<path class="st0" d="M43.4,557.4c1.2-8,2.5-16.1,4.1-24.1c2.8-15.1,6.7-29.9,11.4-43.4c1.2-3.4,2.6-6.4,3.9-9.5
					c0.3,0.5,0.4,1.1,0.7,1.6c0.9,1.4,2.3,2.6,3.8,3.5c0.8,0.5,1.6,0.8,2.5,1.1c0.9,0.3,1.8,0.4,2.7,0.5c0.9,0.1,1.9,0,2.7-0.1
					c0.9-0.2,1.8-0.4,2.5-0.7c0.8-0.3,1.5-0.8,2.1-1.2c0.6-0.4,1-1,1.4-1.3c0.3-0.4,0.6-0.8,0.7-1c0.1-0.3,0.2-0.4,0.2-0.4
					s-0.1-0.1-0.3-0.4c-0.2-0.2-0.5-0.6-0.8-1c-0.3-0.4-0.6-0.8-1-1.3c-0.3-0.4-0.6-0.9-1-1.4c-0.3-0.5-0.6-1-1-1.5
					c-0.4-0.5-0.7-0.9-1.1-1.4c-0.4-0.5-0.8-0.8-1.3-1.2c-0.4-0.4-0.9-0.7-1.4-1c-1-0.6-2.2-1.1-3.5-1.3c-1.3-0.3-2.7-0.4-4-0.4
					c-0.1,0-0.2,0-0.4,0c0.1-0.2,0.1-0.4,0.2-0.6c3-5.7,6-11.1,9.2-15.7c3.3-4.6,6.7-8.5,9.9-11.8c3.4-3.1,6.6-5.7,9.4-7.4
					c2.7-2,5.2-3,6.8-3.9c1.6-0.8,2.5-1.3,2.5-1.3s-0.9,0.2-2.7,0.7c-1.7,0.6-4.6,0.9-7.6,2.5c-3.3,1.3-7,3.4-11.1,6.1
					c-4,2.9-8.3,6.4-12.3,11c-4.1,4.5-8,9.8-11.6,15.7c-3.5,6-6.9,12.4-9.7,19.4c-2.8,7-5.6,14.2-7.6,21.8
					c-1.8,6.3-3.2,12.7-4.6,19.2c0-4.9-0.4-83.6-1.7-108.9c-0.1-2.7-0.3-5.3-0.4-7.8c-1.9,1.1-3.8,2.1-5.8,3.1
					c-0.1,1.6-0.2,3.1-0.3,4.7c-1.5,25.5-2.6,103.8-2.6,108.9c-1.4-6.4-2.8-12.9-4.6-19.2c-2-7.6-4.8-14.8-7.6-21.8
					c-2.8-7-6.2-13.4-9.7-19.4C1,461.1-2.9,455.8-7,451.3c-4-4.5-8.4-8.1-12.3-11c-4.1-2.7-7.8-4.8-11.1-6.1
					c-3.1-1.7-5.9-1.9-7.6-2.5c-1.8-0.5-2.7-0.7-2.7-0.7s0.9,0.4,2.5,1.3c1.6,0.9,4.1,1.9,6.8,3.9c2.9,1.7,6,4.3,9.4,7.4
					c3.3,3.3,6.6,7.2,9.9,11.8c3.3,4.6,6.3,9.9,9.3,15.7c0.1,0.2,0.2,0.4,0.2,0.6c-0.1,0-0.2,0-0.4,0c-1.4,0-2.8,0.1-4,0.4
					c-1.3,0.3-2.5,0.7-3.5,1.3c-0.5,0.3-1,0.6-1.4,1c-0.5,0.4-0.9,0.7-1.2,1.2c-0.4,0.4-0.7,0.8-1.1,1.4c-0.3,0.4-0.7,0.9-1,1.5
					c-0.4,0.5-0.7,1-1,1.4c-0.4,0.5-0.7,0.9-1,1.3c-0.3,0.3-0.6,0.7-0.8,1c-0.2,0.2-0.3,0.4-0.3,0.4s0.1,0.2,0.2,0.4
					c0.2,0.2,0.4,0.7,0.7,1c0.4,0.4,0.8,1,1.4,1.3c0.6,0.4,1.3,0.8,2.1,1.2c0.7,0.3,1.6,0.6,2.5,0.7c0.9,0.1,1.8,0.2,2.7,0.1
					c0.9-0.1,1.9-0.2,2.7-0.5c0.8-0.3,1.7-0.7,2.5-1.1c1.6-0.9,2.9-2.1,3.8-3.5c0.4-0.5,0.5-1.1,0.7-1.6c1.3,3.2,2.7,6.2,3.9,9.5
					c4.7,13.5,8.5,28.3,11.3,43.4c1.6,8,2.9,16.1,4.1,24.1c-26.1-67.6-86.5-75-86.5-75s50,12.9,78.3,81.3
					c15.4,37.2,11,76.2,11.3,83.1l8.3,0l8.3,0c0.3-6.8-4-45.8,11.4-83.1c28.3-68.4,78.3-81.3,78.3-81.3S69.5,489.8,43.4,557.4z
					 M65.1,474.8c3.1,3,6.8,6.1,8.7,6.3c0,0-3.7-0.2-9.3-4.9C64.7,475.7,64.9,475.2,65.1,474.8z M-9.9,481.1
					c1.9-0.3,5.6-3.4,8.7-6.3c0.2,0.4,0.4,0.9,0.6,1.4C-6.1,480.8-9.9,481.1-9.9,481.1z"/>
				<path class="st0" d="M106,431.8c0.7,0.6,1.5,1.2,2.5,1.7c1.6,1,3.6,2.3,5.7,3.3c2.2,1.1,4.6,2,7.3,2.9
					c5.2,1.6,11.3,2.4,17.4,1.8c6.2-0.6,12.4-2.5,18.2-5.8c2.9-1.5,5.6-3.7,8.2-5.9c2.5-2.2,4.8-5,6.8-7.7c2-2.9,3.6-5.9,4.8-8.9
					c1.2-3.2,2-6.4,2.5-9.3c0.4-3.1,0.3-6.1,0.1-8.7c-0.1-2.4-1.1-5-1.7-6.8c-0.6-1.8-1.5-3.3-2-4.2c-0.5-1-0.9-1.5-0.9-1.5
					s-0.6,0.1-1.8,0.3c-1,0.2-2.8,0.4-4.4,0.7c-1.8,0.3-3.7,0.5-6,0.7c-1.9,0.1-4.1,0.3-6.5,0.5c-2.3,0.1-4.5,0.2-6.5,0.5
					c-2.3,0.1-4.3,0.5-6.3,0.9c-2.2,0.4-4.1,1-6.1,1.7c-2.1,0.7-3.8,1.7-5.8,2.7c-3.7,2.2-7.4,5.1-10.7,8.6c-3.3,3.5-6.3,7.7-8.9,12
					c-1.3,2.1-2.4,4.3-3.4,6.4c-1,2-1.9,4.2-2.6,5.8c-0.5,1-0.8,2-1.1,2.8c17.1-4.3,44.5-12.2,50.6-19.8
					C155.1,406.7,144.5,423,106,431.8z"/>
				<path class="st0" d="M191.4,454c-0.2-1.4-0.7-2.6-0.9-3.3c-0.3-0.8-0.5-1.2-0.5-1.2s-0.5,0-1.3,0c-0.8,0-2.1,0-3.3,0
					c-1.3,0-2.7,0-4.3-0.2c-1.4-0.1-3-0.2-4.7-0.4c-1.7-0.2-3.2-0.3-4.7-0.4c-1.7-0.2-3.2-0.1-4.6-0.1c-1.6,0-3,0.2-4.5,0.5
					c-1.6,0.3-2.9,0.8-4.4,1.3c-2.9,1.2-5.9,2.8-8.7,4.9c-2.8,2.2-5.4,4.8-7.7,7.6c-1.2,1.4-2.2,2.8-3.2,4.1c-1,1.3-1.8,2.8-2.5,3.9
					c-0.5,0.7-0.8,1.3-1.1,1.9c12.7-1.1,33.2-3.6,38.4-8.4c0,0-9.4,10.4-37.9,12.3c0.5,0.5,0.9,1,1.6,1.5c1,0.9,2.3,2,3.7,3
					c1.4,1,3.1,2,4.9,2.9c3.6,1.7,7.8,3,12.2,3.3c4.4,0.3,9.1-0.4,13.6-2.1c2.2-0.8,4.4-2,6.5-3.3c2.1-1.3,4-3,5.7-4.7
					c1.7-1.8,3.2-3.8,4.5-5.8c1.2-2.2,2.1-4.3,2.8-6.4c0.6-2.2,0.9-4.3,1-6.2C192.1,457.3,191.7,455.4,191.4,454z"/>
				<path class="st0" d="M67.4,417c0.1,1.4,0.2,2.9,0.6,4.3c0.7,2.8,1.9,5.3,3.5,7.3c1.6,2.1,3.6,3.7,5.7,4.9c1,0.6,2,1,3,1.4
					c0.9,0.4,1.9,0.6,2.7,0.8c0.4,0.1,0.9,0.2,1.2,0.3c-8.5-14.6-6.6-22.6-6.6-22.6c-0.6,4.1,5,14.9,8.7,21.5
					c0.2-0.4,0.4-0.7,0.6-1.2c0.3-0.7,0.7-1.6,1.1-2.5c0.3-0.9,0.7-1.9,0.9-2.9c0.6-2.1,1-4.2,1.1-6.3c0.2-2.1,0-4.1-0.4-5.9
					c-0.3-0.9-0.5-1.8-0.8-2.6c-0.4-0.8-0.7-1.6-1.2-2.4c-0.4-0.8-0.9-1.5-1.6-2.2c-0.5-0.7-1.1-1.4-1.7-2.2
					c-0.7-0.8-1.2-1.5-1.8-2.2c-0.6-0.8-1.1-1.4-1.5-2.1c-0.4-0.6-0.9-1.2-1.1-1.6c-0.3-0.4-0.5-0.7-0.5-0.7s-0.3,0.1-0.7,0.1
					c-0.4,0.1-1.2,0.3-1.9,0.6c-0.7,0.4-1.8,0.8-2.6,1.5c-0.9,0.7-1.8,1.6-2.7,2.6c-0.8,1-1.5,2.2-2.2,3.5c-0.6,1.3-1,2.7-1.3,4.1
					C67.6,414.1,67.3,415.6,67.4,417z"/>
				<path class="st0" d="M60.8,459c0.1-0.2,0.2-0.5,0.4-0.8c0.2-0.5,0.5-1.1,0.7-1.7c0.2-0.6,0.5-1.3,0.7-2c0.4-1.4,0.7-2.9,0.8-4.3
					c0.1-1.4,0-2.8-0.3-4c-0.2-0.6-0.3-1.2-0.6-1.8c-0.2-0.6-0.5-1.1-0.9-1.6c-0.3-0.5-0.6-1-1.1-1.5c-0.4-0.5-0.8-1-1.2-1.5
					c-0.5-0.6-0.8-1.1-1.2-1.5c-0.4-0.5-0.8-1-1.1-1.4c-0.2-0.4-0.6-0.8-0.8-1.1c-0.2-0.3-0.3-0.4-0.3-0.4s-0.2,0-0.5,0.1
					c-0.3,0.1-0.8,0.2-1.3,0.4c-0.5,0.3-1.2,0.6-1.8,1c-0.6,0.5-1.2,1.1-1.8,1.8c-0.5,0.7-1.1,1.5-1.5,2.4c-0.4,0.8-0.7,1.8-0.9,2.8
					c-0.2,1-0.3,2-0.3,3c0.1,1,0.1,2,0.4,2.9c0.5,1.9,1.3,3.7,2.4,5.1c1.1,1.4,2.5,2.6,3.9,3.4c0.7,0.4,1.4,0.7,2.1,1
					c0.6,0.3,1.3,0.4,1.9,0.6c0.3,0.1,0.6,0.1,0.9,0.2c-5.9-10.1-4.5-15.6-4.5-15.6C54.4,447,58.3,454.4,60.8,459z"/>
				<path class="st0" d="M88,446.8c0,0.8-0.1,1.8,0,2.8c0.1,1.1,0.2,2.1,0.5,3.3c0.6,2.3,1.6,4.7,3.1,6.8c1.5,2.1,3.6,4,6.1,5.4
					c1.2,0.7,2.6,1.3,3.9,1.7c1.4,0.5,2.9,0.7,4.3,0.9c1.5,0.1,3,0,4.3-0.2c1.5-0.3,2.8-0.7,4-1.1c1.3-0.5,2.3-1.2,3.2-1.8
					c0.9-0.6,1.6-1.5,2.2-2.1c0.5-0.6,0.9-1.3,1.2-1.6c0.2-0.4,0.4-0.6,0.4-0.6s-0.2-0.2-0.5-0.6c-0.3-0.3-0.8-1-1.3-1.5
					c-0.5-0.6-1-1.2-1.6-2c-0.4-0.7-1-1.4-1.6-2.3c-0.6-0.8-1.1-1.6-1.6-2.3c-0.6-0.8-1.1-1.5-1.7-2.1c-0.6-0.7-1.2-1.3-1.9-1.9
					c-0.7-0.6-1.5-1-2.3-1.5c-1.6-0.9-3.5-1.7-5.5-2.1c-2-0.5-4.2-0.7-6.3-0.7c-1,0-2.1,0-3.1,0.1c-1,0.1-2,0.2-2.7,0.3
					c-0.5,0-0.9,0.1-1.3,0.2c5.3,5.4,14.1,13.8,18.2,14.4c0,0-8.3-0.4-19.8-12.7C88.1,445.9,88,446.3,88,446.8z"/>
				<path class="st0" d="M139.7,510.6c-0.4-0.6-0.8-1.4-1.2-2.2c-0.3-0.8-0.7-1.6-1.2-2.5c-0.4-0.9-0.8-1.7-1.2-2.5
					c-0.4-0.9-0.9-1.7-1.4-2.4c-0.5-0.8-1-1.5-1.6-2.1c-0.6-0.7-1.3-1.3-2-1.9c-1.4-1.1-3.2-2.2-5.1-2.9c-1.9-0.8-4-1.3-6.2-1.6
					c-1-0.2-2.1-0.3-3-0.4c-1-0.1-2-0.1-2.7-0.1c-0.5-0.1-0.9-0.1-1.3,0c4.4,6.2,11.8,15.8,15.7,17c0,0-8.1-1.6-17.6-15.6
					c-0.1,0.3-0.2,0.8-0.3,1.2c-0.2,0.8-0.3,1.8-0.4,2.8c-0.1,1-0.1,2.1,0,3.3c0.2,2.4,0.8,4.9,2,7.2c1.2,2.3,2.9,4.6,5.1,6.3
					c1.1,0.9,2.4,1.7,3.6,2.3c1.3,0.7,2.8,1.2,4.1,1.5c1.4,0.3,2.9,0.5,4.3,0.5c1.5,0,2.9-0.2,4.1-0.5c1.3-0.3,2.5-0.8,3.5-1.3
					c1-0.4,1.8-1.2,2.5-1.7c0.6-0.5,1.1-1.1,1.4-1.5c0.3-0.4,0.4-0.6,0.4-0.6s-0.1-0.2-0.4-0.6C140.4,511.9,140.1,511.2,139.7,510.6
					z"/>
			</g>
		</g>
	</g>
	<g>
		<path class="st1" d="M109.8,601.7h11.1c0.9,1.3,1.8,2.7,2.6,4c-1.1,0.1-2.2,0.1-3.2,0.2c-0.3-0.3-0.6-0.6-0.8-0.8
			c-0.6,0-1.2,0-1.8,0c0,0,0.8,2-2.2,2.7c0,0-2.8,0.6-3.1-2.7l-1.4,0l-0.6,0.8l-4.1-0.2L109.8,601.7z"/>
		<path class="st2" d="M99.7,498.8c0.3-0.5,0.7-0.8,1.1-0.9c4.1-1.6,12.7,11.3,14.2,13.5c0.4,0.8,0.9,1.9,1.2,3.2
			c0.4,1.5,0.3,2.4,0.6,4.7c0.1,1,0.3,2.1,0.5,3.5c-1.7,0-3.5,0-5.2,0c0.2-0.8,0.4-1.5,0.5-2.2C114,510.2,102.7,501.1,99.7,498.8z"
			/>
		<path class="st3" d="M114.2,522.8c0,0,2.6,0.1,5.3-1.6c0,0,4-2.7,7.4,0.8c0,0,7.6,12.8,13.2,17.5c0.2,0.2,0.4,0.3,0.6,0.4
			c5.6,4.4,11.8,24.4,9.1,34.6c0,0-3.2,16-18.4,25.4c0,0-8.3,4.7-17.2,4V522.8z"/>
		<path class="st3" d="M115,522.8c0,0-2.6,0.1-5.3-1.6c0,0-4-2.7-7.4,0.8c0,0-7.6,12.8-13.2,17.5c-0.2,0.2-0.4,0.3-0.6,0.4
			c-5.6,4.4-11.8,24.4-9.1,34.6c0,0,3.2,16,18.4,25.4c0,0,8.3,4.7,17.2,4V522.8z"/>
		<path class="st4" d="M110.4,533.3c0,0-1.8,0.1-3.7-1.3c0,0-2.8-2.1-5.2,0.6c0,0-5.3,10.1-9.2,13.8c-0.1,0.1-0.3,0.2-0.4,0.3
			c-3.9,3.4-8.3,19.2-6.4,27.3c0,0,2.2,12.6,12.9,20.1c0,0,5.8,3.7,12.1,3.1c1.7-1.5,4-4,5.9-7.7c0.7-1.3,2.7-5.2,3.7-11.7
			c1.5-9.4-0.2-17.2-1.5-23C117.3,549.6,115,541.8,110.4,533.3z"/>
		<path class="st5" d="M107.8,538.5c0.1,0.2,0.2,0.6,0.2,1.1c0,0.8-0.4,1.3-0.8,2c-0.7,1.1-1.1,1.6-1.5,2.2c-0.7,1-1.1,1.9-1.9,3.8
			c-1,2.3-2.8,8.1-4.7,16.1c-0.5,0.3-1.6,0.9-3,0.9c-0.1,0-2,0-2.9-0.7c-2.1-1.8,0.8-9.6,4.3-15C99.3,546.1,102.5,542.1,107.8,538.5
			z"/>
		<g>
			<path class="st6" d="M116.3,517.7c0,0,3.1-31.6,32.1-22.5c0.1,0.9,0.2,2.3-0.2,4.1c-0.4,2-1.2,3.3-1.6,4
				c-6.8,11.7-16.3,14.5-16.3,14.5C124.3,519.5,119.1,518.5,116.3,517.7z"/>
			<path class="st7" d="M116.1,518c0,0,11-17.3,32.3-22.5c0.1,1,0.1,2.3-0.2,3.9c-1.5,9.5-10.2,14.8-12.2,16
				C127.2,520.4,118.3,518.5,116.1,518z"/>
		</g>
	</g>
	<g>
		<path class="st1" d="M-24,536.5h-9.1c-0.7,1.1-1.4,2.2-2.2,3.3c0.9,0.1,1.8,0.1,2.6,0.2c0.2-0.2,0.5-0.5,0.7-0.7c0.5,0,1,0,1.5,0
			c0,0-0.7,1.6,1.8,2.2c0,0,2.3,0.5,2.5-2.2l1.2,0l0.5,0.7l3.3-0.2L-24,536.5z"/>
		<path class="st2" d="M-11.3,454.6c0.3-0.9,0.2-1.4,0-1.7c-1.1-1.6-6.2,0.2-9.7,1.5c-1.4,0.8-3.2,2.1-4.8,4.1
			c-4.3,5.2-4.4,11.3-4.3,13.3h4.3c-0.5-1.6-0.5-3-0.4-4.1C-25.6,461.9-19.6,456.9-11.3,454.6z"/>
		<path class="st3" d="M-27.7,471.8c0,0-2.2,0.1-4.4-1.3c0,0-3.3-2.2-6.1,0.7c0,0-6.2,10.5-10.8,14.4c-0.1,0.1-0.3,0.2-0.5,0.4
			c-4.6,3.6-9.7,20-7.5,28.4c0,0,2.6,13.1,15.1,20.9c0,0,6.8,3.9,14.1,3.3V471.8z"/>
		<path class="st3" d="M-28.3,471.8c0,0,2.2,0.1,4.4-1.3c0,0,3.3-2.2,6.1,0.7c0,0,6.2,10.5,10.8,14.4c0.1,0.1,0.3,0.2,0.5,0.4
			c4.6,3.6,9.7,20,7.5,28.4c0,0-2.6,13.1-15.1,20.9c0,0-6.8,3.9-14.1,3.3V471.8z"/>
		<path class="st4" d="M-24.5,480.4c0,0,1.5,0.1,3.1-1.1c0,0,2.3-1.8,4.3,0.5c0,0,4.4,8.3,7.6,11.3c0.1,0.1,0.2,0.2,0.3,0.3
			c3.2,2.8,6.8,15.8,5.2,22.4c0,0-1.8,10.3-10.6,16.4c0,0-4.8,3.1-9.9,2.6c-1.4-1.3-3.2-3.3-4.9-6.3c-0.6-1.1-2.2-4.2-3-9.6
			c-1.2-7.7,0.2-14.1,1.3-18.9C-30.2,493.7-28.3,487.4-24.5,480.4z"/>
		<path class="st5" d="M-22.4,484.7c-0.1,0.2-0.2,0.5-0.1,0.9c0,0.6,0.3,1.1,0.6,1.6c0.6,0.9,0.9,1.3,1.2,1.8
			c0.6,0.8,0.9,1.6,1.6,3.1c0.8,1.9,2.3,6.7,3.9,13.2c0.4,0.3,1.3,0.7,2.5,0.8c0.1,0,1.7,0,2.4-0.6c1.8-1.5-0.7-7.9-3.5-12.3
			C-15.4,490.9-18,487.6-22.4,484.7z"/>
		<g>
			<path class="st6" d="M-29.3,467.6c0,0-2.5-25.9-26.3-18.4c-0.1,0.7-0.2,1.9,0.1,3.3c0.3,1.6,1,2.7,1.3,3.3
				c5.6,9.6,13.4,11.9,13.4,11.9C-36,469.1-31.7,468.3-29.3,467.6z"/>
			<path class="st7" d="M-29.2,467.8c0,0-9-14.2-26.5-18.4c0,0.8,0,1.9,0.2,3.2c1.2,7.8,8.3,12.2,10,13.1
				C-38.3,469.8-31,468.3-29.2,467.8z"/>
		</g>
	</g>
	<g>
		<path class="st1" d="M-82,500.5h-9.1c-0.7,1.1-1.4,2.2-2.2,3.3c0.9,0.1,1.8,0.1,2.6,0.2c0.2-0.2,0.5-0.5,0.7-0.7c0.5,0,1,0,1.5,0
			c0,0-0.7,1.6,1.8,2.2c0,0,2.3,0.5,2.5-2.2l1.2,0l0.5,0.7l3.3-0.2L-82,500.5z"/>
		<path class="st2" d="M-69.3,418.6c0.3-0.9,0.2-1.4,0-1.7c-1.1-1.6-6.2,0.2-9.7,1.5c-1.4,0.8-3.2,2.1-4.8,4.1
			c-4.3,5.2-4.4,11.3-4.3,13.3h4.3c-0.5-1.6-0.5-3-0.4-4.1C-83.6,425.9-77.6,420.9-69.3,418.6z"/>
		<path class="st3" d="M-85.7,435.8c0,0-2.2,0.1-4.4-1.3c0,0-3.3-2.2-6.1,0.7c0,0-6.2,10.5-10.8,14.4c-0.1,0.1-0.3,0.2-0.5,0.4
			c-4.6,3.6-9.7,20-7.5,28.4c0,0,2.6,13.1,15.1,20.9c0,0,6.8,3.9,14.1,3.3V435.8z"/>
		<path class="st3" d="M-86.3,435.8c0,0,2.2,0.1,4.4-1.3c0,0,3.3-2.2,6.1,0.7c0,0,6.2,10.5,10.8,14.4c0.1,0.1,0.3,0.2,0.5,0.4
			c4.6,3.6,9.7,20,7.5,28.4c0,0-2.6,13.1-15.1,20.9c0,0-6.8,3.9-14.1,3.3V435.8z"/>
		<path class="st4" d="M-82.5,444.4c0,0,1.5,0.1,3.1-1.1c0,0,2.3-1.8,4.3,0.5c0,0,4.4,8.3,7.6,11.3c0.1,0.1,0.2,0.2,0.3,0.3
			c3.2,2.8,6.8,15.8,5.2,22.4c0,0-1.8,10.3-10.6,16.4c0,0-4.8,3.1-9.9,2.6c-1.4-1.3-3.2-3.3-4.9-6.3c-0.6-1.1-2.2-4.2-3-9.6
			c-1.2-7.7,0.2-14.1,1.3-18.9C-88.2,457.7-86.3,451.4-82.5,444.4z"/>
		<path class="st5" d="M-80.4,448.7c-0.1,0.2-0.2,0.5-0.1,0.9c0,0.6,0.3,1.1,0.6,1.6c0.6,0.9,0.9,1.3,1.2,1.8
			c0.6,0.8,0.9,1.6,1.6,3.1c0.8,1.9,2.3,6.7,3.9,13.2c0.4,0.3,1.3,0.7,2.5,0.8c0.1,0,1.7,0,2.4-0.6c1.8-1.5-0.7-7.9-3.5-12.3
			C-73.4,454.9-76,451.6-80.4,448.7z"/>
		<g>
			<path class="st6" d="M-87.3,431.6c0,0-2.5-25.9-26.3-18.4c-0.1,0.7-0.2,1.9,0.1,3.3c0.3,1.6,1,2.7,1.3,3.3
				c5.6,9.6,13.4,11.9,13.4,11.9C-94,433.1-89.7,432.3-87.3,431.6z"/>
			<path class="st7" d="M-87.2,431.8c0,0-9-14.2-26.5-18.4c0,0.8,0,1.9,0.2,3.2c1.2,7.8,8.3,12.2,10,13.1
				C-96.3,433.8-89,432.3-87.2,431.8z"/>
		</g>
	</g>
	<g>
		<path class="st1" d="M50.8,506.7h11.1c0.9,1.3,1.8,2.7,2.6,4c-1.1,0.1-2.2,0.1-3.2,0.2c-0.3-0.3-0.6-0.6-0.8-0.8
			c-0.6,0-1.2,0-1.8,0c0,0,0.8,2-2.2,2.7c0,0-2.8,0.6-3.1-2.7l-1.4,0l-0.6,0.8l-4.1-0.2L50.8,506.7z"/>
		<path class="st2" d="M40.7,403.8c0.3-0.5,0.7-0.8,1.1-0.9c4.1-1.6,12.7,11.3,14.2,13.5c0.4,0.8,0.9,1.9,1.2,3.2
			c0.4,1.5,0.3,2.4,0.6,4.7c0.1,1,0.3,2.1,0.5,3.5c-1.7,0-3.5,0-5.2,0c0.2-0.8,0.4-1.5,0.5-2.2C55,415.2,43.7,406.1,40.7,403.8z"/>
		<path class="st3" d="M55.2,427.8c0,0,2.6,0.1,5.3-1.6c0,0,4-2.7,7.4,0.8c0,0,7.6,12.8,13.2,17.5c0.2,0.2,0.4,0.3,0.6,0.4
			c5.6,4.4,11.8,24.4,9.1,34.6c0,0-3.2,16-18.4,25.4c0,0-8.3,4.7-17.2,4V427.8z"/>
		<path class="st3" d="M56,427.8c0,0-2.6,0.1-5.3-1.6c0,0-4-2.7-7.4,0.8c0,0-7.6,12.8-13.2,17.5c-0.2,0.2-0.4,0.3-0.6,0.4
			c-5.6,4.4-11.8,24.4-9.1,34.6c0,0,3.2,16,18.4,25.4c0,0,8.3,4.7,17.2,4V427.8z"/>
		<path class="st4" d="M51.4,438.3c0,0-1.8,0.1-3.7-1.3c0,0-2.8-2.1-5.2,0.6c0,0-5.3,10.1-9.2,13.8c-0.1,0.1-0.3,0.2-0.4,0.3
			c-3.9,3.4-8.3,19.2-6.4,27.3c0,0,2.2,12.6,12.9,20.1c0,0,5.8,3.7,12.1,3.1c1.7-1.5,4-4,5.9-7.7c0.7-1.3,2.7-5.2,3.7-11.7
			c1.5-9.4-0.2-17.2-1.5-23C58.3,454.6,56,446.8,51.4,438.3z"/>
		<path class="st5" d="M48.8,443.5c0.1,0.2,0.2,0.6,0.2,1.1c0,0.8-0.4,1.3-0.8,2c-0.7,1.1-1.1,1.6-1.5,2.2c-0.7,1-1.1,1.9-1.9,3.8
			c-1,2.3-2.8,8.1-4.7,16.1c-0.5,0.3-1.6,0.9-3,0.9c-0.1,0-2,0-2.9-0.7c-2.1-1.8,0.8-9.6,4.3-15C40.3,451.1,43.5,447.1,48.8,443.5z"
			/>
		<g>
			<path class="st6" d="M57.3,422.7c0,0,3.1-31.6,32.1-22.5c0.1,0.9,0.2,2.3-0.2,4.1c-0.4,2-1.2,3.3-1.6,4
				c-6.8,11.7-16.3,14.5-16.3,14.5C65.3,424.5,60.1,423.5,57.3,422.7z"/>
			<path class="st7" d="M57.1,423c0,0,11-17.3,32.3-22.5c0.1,1,0.1,2.3-0.2,3.9c-1.5,9.5-10.2,14.8-12.2,16
				C68.2,425.4,59.3,423.5,57.1,423z"/>
		</g>
	</g>
</g>
</svg>
