<?xml version="1.0" encoding="utf-8"?>
<!-- Generator: Adobe Illustrator 19.0.1, SVG Export Plug-In . SVG Version: 6.00 Build 0)  -->
<svg version="1.1" id="圖層_6" xmlns="http://www.w3.org/2000/svg" xmlns:xlink="http://www.w3.org/1999/xlink" x="0px" y="0px"
	 viewBox="455 -455 960 960" style="enable-background:new 455 -455 960 960;" xml:space="preserve">
<style type="text/css">
	.st0{fill:#99CC33;}
	.st1{fill:#46CECA;}
	.st2{fill:#55DBDA;}
	.st3{fill:#9CF2F0;}
	.st4{opacity:0.4;}
	.st5{clip-path:url(#SVGID_2_);fill:#E8F7F6;}
	.st6{clip-path:url(#SVGID_4_);fill:#E8F7F6;}
	.st7{clip-path:url(#SVGID_6_);fill:#E8F7F6;}
	.st8{fill:#669933;}
	.st9{fill:#7FA54E;}
	.st10{fill:#7BAF3E;}
</style>
<g id="basex2">
	<rect x="455.9" y="-455" class="st0" width="959.1" height="960"/>
</g>
<g>
	<path class="st1" d="M1102.8-354.2c40-8.5,79.5,14.3,94.9,23.2c14.2,8.2,25.3,17.6,29.5,21.1c20,16.9,33.2,34.1,41,44.5
		c11.2,14.9,15.2,22.6,29,38.5c24.2,27.8,29.9,27.7,48.6,52.4c25.2,33.3,38.5,66,45.9,88.3c9.8,57.4,3.2,96.1-5.4,121.4
		c-4.2,12.4-16.2,43.3-29.7,91.2c-4.4,15.5-3.3,13.2-5.5,20.2c-14.3,44.9-30.9,96.7-75.4,123.1c-26.2,15.6-34,12.9-45.9,30.4
		c-12,17.7-10.1,34.4-27,55.2c-6,7.3-11,11.7-21.6,19.3c-6.6,4.8-35.7,25.3-91,40.7c-21.8,6.1-56.7,15.5-103.2,14.5
		c-10.3-0.2-29.9-0.8-54.9-6.1c-36-7.5-45.8-16.9-86.4-25.3c-10.6-2.2-26.3-5.3-46.4-6.3c-48.4-2.4-52.8,11.2-84.3,8.4
		c-61.8-5.5-103.3-62.9-108.4-70.1c-4.9-7-8.8-13.6-13.8-23.8c-15.5-31.8-21.3-69.3-59.1-202.5C507.9,13.6,503.2,5,503.9-22.7
		c2.4-90.3,56.2-153,67.4-165.6c64.3-72,146.3-83.3,167.3-85.5c10.3-12.3,51.4-58.5,117.9-64.6c27.1-2.5,49.8,2.4,65.2,7.4
		c15.2,7.6,25.7,17.4,42.3,16.4c12.7-0.7,22.7-7.4,29.1-12.7c-1.1,2.4-2.8,6.9-0.9,10.4c3,5.3,12.5,4.9,16.4,4.7
		C1036.1-313.5,1066-346.3,1102.8-354.2z"/>
	<path class="st2" d="M1091.1-357.5c4.3-0.2,54.4-2,95.7,29.1c33.9,25.6,25,45.7,74.3,100.5c24,26.7,29.7,26.6,48.2,50.2
		c25,31.9,38.2,63.3,45.5,84.6c9.7,55.1,3.1,92.1-5.4,116.4c-4.1,11.9-16,41.5-29.5,87.4c-4.3,14.8-3.3,12.7-5.5,19.4
		c-14.2,43-30.6,92.7-74.7,118c-26,14.9-33.7,12.4-45.5,29.1c-11.9,17-10,32.9-26.8,52.9c-7.6,9-15.7,14.9-21.4,18.5
		c-18.6,13.1-48.3,30.8-88.3,42.3c-16.8,4.8-55.8,15.7-104.3,10.6c-55.3-5.8-57.1-24.8-101.7-31.7c-75.1-11.7-101.3,46.3-163.2,31.7
		c-56.3-13.3-88.9-60.9-112.4-95.2c-28.1-41.1-25.5-57.8-72.2-216.9C478.4,2.6,473.8-5.6,474.5-32.2c2.4-86.5,55.7-146.6,66.9-158.7
		c63.8-69,145-79.8,165.9-82c51.1-55,99-64,117.7-66.1c25.9-2.9,56.2,0.8,77.1,3.3c46.4,5.6,46,11.9,70,12.5
		C1027.4-321.7,1037.5-354.8,1091.1-357.5z"/>
	<path class="st3" d="M1079-317.4c3.9-0.2,48.8-1.8,85.8,26.4c30.4,23.2,22.4,41.4,66.6,91.1c21.5,24.2,26.6,24.1,43.2,45.6
		c22.4,29,34.3,57.4,40.8,76.7c8.7,49.9,2.8,83.5-4.8,105.5c-3.7,10.7-14.4,37.6-26.4,79.3c-3.9,13.5-2.9,11.5-4.9,17.6
		c-12.7,39-27.5,84-67,107c-23.3,13.5-30.2,11.2-40.8,26.4c-10.7,15.4-8.9,29.9-24,48c-6.8,8.2-14,13.5-19.2,16.8
		c-16.6,11.9-43.3,27.9-79.1,38.4c-15.1,4.4-50.1,14.2-93.5,9.6c-49.6-5.3-51.2-22.5-91.1-28.8c-67.3-10.6-90.8,42-146.3,28.8
		c-50.4-12-79.7-55.2-100.7-86.3c-25.2-37.2-22.9-52.4-64.8-196.7c-22.9-78.8-27-86.2-26.4-110.3c2.1-78.5,49.9-132.9,60-143.9
		c57.2-62.6,130-72.4,148.7-74.3c45.8-49.9,88.7-58.1,105.5-60c23.2-2.6,50.3,0.7,69.1,3c41.6,5.1,41.3,10.8,62.8,11.4
		C1022-284.9,1031.1-315,1079-317.4z"/>
</g>
<g id="_x34__6_" class="st4">
	<g>
		<defs>
			<rect id="SVGID_1_" x="947.6" y="-182.3" width="279.2" height="242"/>
		</defs>
		<clipPath id="SVGID_2_">
			<use xlink:href="#SVGID_1_"  style="overflow:visible;"/>
		</clipPath>
		<path class="st5" d="M494.6,267.6c0,0,13.7-25.3,35.6-30.9c21.9-5.6,41-23.9,51.8-45c0,0-17.4,40.8-35.2,46.4
			C529,243.7,508.3,250.7,494.6,267.6"/>
		<path class="st5" d="M693.2,246.2c0,0,13.7-25.3,35.6-30.9c22-5.6,41-23.9,51.8-45c0,0-17.4,40.8-35.2,46.4
			C727.6,222.3,706.9,229.3,693.2,246.2"/>
		<path class="st5" d="M987.8-23.4c0,0,13.7-25.3,35.6-31c22-5.6,41-23.9,51.8-45c0,0-17.4,40.8-35.2,46.4
			C1022.2-47.3,1001.5-40.3,987.8-23.4"/>
		<path class="st5" d="M669.1,492c0,0,13.7-25.3,35.6-30.9c22-5.6,41-23.9,51.8-45c0,0-17.4,40.8-35.2,46.4
			C703.5,468.1,682.8,475.2,669.1,492"/>
		<path class="st5" d="M853.2,253.9c0,0,13.7-25.3,35.6-31c21.9-5.6,41-23.9,51.8-45c0,0-17.4,40.8-35.2,46.4
			C887.6,230,866.9,237,853.2,253.9"/>
		<path class="st5" d="M1110.4,19.4c0,0,13.7-25.3,35.6-31c21.9-5.6,41-23.9,51.8-45c0,0-17.4,40.8-35.2,46.4
			C1144.8-4.5,1124,2.5,1110.4,19.4"/>
		<path class="st5" d="M1139.4-106.4c0,0,13.7-25.3,35.6-30.9c21.9-5.6,41-23.9,51.8-45c0,0-17.4,40.8-35.2,46.4
			C1173.8-130.3,1153.1-123.3,1139.4-106.4"/>
	</g>
</g>
<g id="_x34__5_" class="st4">
	<g>
		<defs>
			<rect id="SVGID_3_" x="543.2" y="-176.2" width="279.2" height="242"/>
		</defs>
		<clipPath id="SVGID_4_">
			<use xlink:href="#SVGID_3_"  style="overflow:visible;"/>
		</clipPath>
		<path class="st6" d="M90.2,273.7c0,0,13.7-25.3,35.6-30.9c21.9-5.6,41-23.9,51.8-45c0,0-17.4,40.8-35.2,46.4
			C124.6,249.8,103.8,256.8,90.2,273.7"/>
		<path class="st6" d="M288.8,252.3c0,0,13.7-25.3,35.6-30.9c22-5.6,41-23.9,51.8-45c0,0-17.4,40.8-35.2,46.4
			C323.2,228.4,302.5,235.4,288.8,252.3"/>
		<path class="st6" d="M583.4-17.3c0,0,13.7-25.3,35.6-31c22-5.6,41-23.9,51.8-45c0,0-17.4,40.8-35.2,46.4
			C617.7-41.2,597-34.1,583.4-17.3"/>
		<path class="st6" d="M264.7,498.2c0,0,13.7-25.3,35.6-30.9c22-5.6,41-23.9,51.8-45c0,0-17.4,40.8-35.2,46.4
			C299.1,474.3,278.4,481.3,264.7,498.2"/>
		<path class="st6" d="M448.8,260.1c0,0,13.7-25.3,35.6-31c21.9-5.6,41-23.9,51.8-45c0,0-17.4,40.8-35.2,46.4
			C483.2,236.2,462.5,243.2,448.8,260.1"/>
		<path class="st6" d="M705.9,25.5c0,0,13.7-25.3,35.6-31c21.9-5.6,41-23.9,51.8-45c0,0-17.4,40.8-35.2,46.4
			C740.3,1.6,719.6,8.6,705.9,25.5"/>
		<path class="st6" d="M735-100.2c0,0,13.7-25.3,35.6-30.9c21.9-5.6,41-23.9,51.8-45c0,0-17.4,40.8-35.2,46.4
			C769.3-124.1,748.6-117.1,735-100.2"/>
	</g>
</g>
<g id="_x34__4_" class="st4">
	<g>
		<defs>
			<rect id="SVGID_5_" x="778.8" y="65.8" width="279.2" height="242"/>
		</defs>
		<clipPath id="SVGID_6_">
			<use xlink:href="#SVGID_5_"  style="overflow:visible;"/>
		</clipPath>
		<path class="st7" d="M325.7,515.7c0,0,13.7-25.3,35.6-30.9c21.9-5.6,41-23.9,51.8-45c0,0-17.4,40.8-35.2,46.4
			C360.1,491.8,339.4,498.8,325.7,515.7"/>
		<path class="st7" d="M524.4,494.3c0,0,13.7-25.3,35.6-30.9c22-5.6,41-23.9,51.8-45c0,0-17.4,40.8-35.2,46.4
			C558.7,470.4,538,477.5,524.4,494.3"/>
		<path class="st7" d="M818.9,224.7c0,0,13.7-25.3,35.6-31c22-5.6,41-23.9,51.8-45c0,0-17.4,40.8-35.2,46.4
			C853.3,200.8,832.6,207.9,818.9,224.7"/>
		<path class="st7" d="M500.2,740.2c0,0,13.7-25.3,35.6-30.9c22-5.6,41-23.9,51.8-45c0,0-17.4,40.8-35.2,46.4
			C534.6,716.3,513.9,723.3,500.2,740.2"/>
		<path class="st7" d="M684.4,502.1c0,0,13.7-25.3,35.6-31c21.9-5.6,41-23.9,51.8-45c0,0-17.4,40.8-35.2,46.4
			C718.7,478.2,698,485.2,684.4,502.1"/>
		<path class="st7" d="M941.5,267.5c0,0,13.7-25.3,35.6-31c21.9-5.6,41-23.9,51.8-45c0,0-17.4,40.8-35.2,46.4
			C975.9,243.6,955.2,250.6,941.5,267.5"/>
		<path class="st7" d="M970.5,141.8c0,0,13.7-25.3,35.6-30.9c21.9-5.6,41-23.9,51.8-45c0,0-17.4,40.8-35.2,46.4
			C1004.9,117.9,984.2,124.9,970.5,141.8"/>
	</g>
</g>
<g id="green_1_">
	<g>
		<g>
			<path class="st8" d="M1371.8,138.1c-0.8-3.8-1.1-7.1-0.9-10c-3.1,5.2-4.2,11.7-3,19c1.2,7.8,4.5,14,4.6,14.1
				c0.5,0.9,0.3,2-0.5,2.6s-1.9,0.6-2.7-0.1c-14.1-12.9-21.6-27.3-25.5-37.1c-1.8-4.5-3-8.6-3.8-11.7c-5.4,20.9,14,52.5,14.2,52.8
				c0.6,0.8,0.4,2.1-0.4,2.7c-0.8,0.6-2,0.6-2.7-0.1c-10.5-10.3-19.6-15.3-26-17.9c12.8,12.2,26.5,35.4,27.2,36.6
				c0.5,0.9,0.3,2-0.5,2.6c-0.8,0.6-2,0.6-2.7-0.1c-13-12.2-22.6-18-28.3-20.8c7.7,11.2,12.7,26,12.9,26.7c0.3,0.8,0,1.7-0.7,2.3
				c-0.7,0.6-1.6,0.6-2.4,0.1c-12.1-7.7-29.1-26.7-32.9-42.4c-0.6,1.5-1.1,3.3-1.3,5.7c-0.4,6.4,1.8,17.4,14.9,33.6
				c0.6,0.8,0.6,2-0.1,2.7c-0.7,0.7-1.8,0.8-2.7,0.3c-29.7-21.4-46.4-19.2-53.9-15.8c24.3,3,59.5,32.4,70.6,42
				c0.8,0.7,0.9,1.9,0.4,2.8c-0.6,0.8-1.8,1.1-2.7,0.6c-15.2-9.3-29.4-12.4-41.2-9.2c-3.5,1-6.3,2.3-8.3,3.7
				c18.7-0.5,30.3,5.7,37,11.4c5,4.3,8,8.8,9.5,11.7l77.4-77.4C1379.8,159.1,1373.7,146.8,1371.8,138.1z"/>
		</g>
	</g>
	<g>
		<g>
			<path class="st9" d="M1282.4-397.5c-0.8-3.8-1.1-7.1-0.9-10c-3.1,5.2-4.2,11.7-3,19c1.2,7.8,4.5,14,4.6,14.1
				c0.5,0.9,0.3,2-0.5,2.6c-0.8,0.6-1.9,0.6-2.7-0.1c-14.1-12.9-21.6-27.3-25.5-37.1c-1.8-4.5-3-8.6-3.8-11.7
				c-5.4,20.9,14,52.5,14.2,52.8c0.6,0.8,0.4,2.1-0.4,2.7c-0.8,0.6-2,0.6-2.7-0.1c-10.5-10.3-19.6-15.3-26-17.9
				c12.8,12.2,26.5,35.4,27.2,36.6c0.5,0.9,0.3,2-0.5,2.6s-2,0.6-2.7-0.1c-13-12.2-22.6-18-28.3-20.8c7.7,11.2,12.7,26,12.9,26.7
				c0.3,0.8,0,1.7-0.7,2.3c-0.7,0.6-1.6,0.6-2.4,0.1c-12.1-7.7-29.1-26.7-32.9-42.4c-0.6,1.5-1.1,3.3-1.3,5.7
				c-0.4,6.4,1.8,17.4,14.9,33.6c0.6,0.8,0.6,2-0.1,2.7c-0.7,0.7-1.8,0.8-2.7,0.3c-29.7-21.4-46.4-19.2-53.9-15.8
				c24.3,3,59.5,32.4,70.6,42c0.8,0.7,0.9,1.9,0.4,2.8s-1.8,1.1-2.7,0.6c-15.2-9.3-29.4-12.4-41.2-9.2c-3.5,1-6.3,2.3-8.3,3.7
				c18.7-0.5,30.3,5.7,37,11.4c5,4.3,8,8.8,9.5,11.7l77.4-77.4C1290.3-376.6,1284.3-388.8,1282.4-397.5z"/>
		</g>
	</g>
	<g>
		<g>
			<path class="st10" d="M1372.9,201c-0.8-3.8-1.1-7.1-0.9-10c-3.1,5.2-4.2,11.7-3,19c1.2,7.8,4.5,14,4.6,14.1
				c0.5,0.9,0.3,2-0.5,2.6c-0.8,0.6-1.9,0.6-2.7-0.1c-14.1-12.9-21.6-27.3-25.5-37.1c-1.8-4.5-3-8.6-3.8-11.7
				c-5.4,20.9,14,52.5,14.2,52.8c0.6,0.8,0.4,2.1-0.4,2.7c-0.8,0.6-2,0.6-2.7-0.1c-10.5-10.3-19.6-15.3-26-17.9
				c12.8,12.2,26.5,35.4,27.2,36.6c0.5,0.9,0.3,2-0.5,2.6s-2,0.6-2.7-0.1c-13-12.2-22.6-18-28.3-20.8c7.7,11.2,12.7,26,12.9,26.7
				c0.3,0.8,0,1.7-0.7,2.3c-0.7,0.6-1.6,0.6-2.4,0.1c-12.1-7.7-29.1-26.7-32.9-42.4c-0.6,1.5-1.1,3.3-1.3,5.7
				c-0.4,6.4,1.8,17.4,14.9,33.6c0.6,0.8,0.6,2-0.1,2.7c-0.7,0.7-1.8,0.8-2.7,0.3c-29.7-21.4-46.4-19.2-53.9-15.8
				c24.3,3,59.5,32.4,70.6,42c0.8,0.7,0.9,1.9,0.4,2.8s-1.8,1.1-2.7,0.6c-15.2-9.3-29.4-12.4-41.2-9.2c-3.5,1-6.3,2.3-8.3,3.7
				c18.7-0.5,30.3,5.7,37,11.4c5,4.3,8,8.8,9.5,11.7l77.4-77.4C1380.9,222,1374.8,209.7,1372.9,201z"/>
		</g>
	</g>
	<g>
		<g>
			<path class="st10" d="M660.3,387.4c-0.8-3.8-1.1-7.1-0.9-10c-3.1,5.2-4.2,11.7-3,19c1.2,7.8,4.5,14,4.6,14.1
				c0.5,0.9,0.3,2-0.5,2.6s-1.9,0.6-2.7-0.1c-14.1-12.9-21.6-27.3-25.5-37.1c-1.8-4.5-3-8.6-3.8-11.7c-5.4,20.9,14,52.5,14.2,52.8
				c0.6,0.8,0.4,2.1-0.4,2.7c-0.8,0.6-2,0.6-2.7-0.1c-10.5-10.3-19.6-15.3-26-17.9c12.8,12.2,26.5,35.4,27.2,36.6
				c0.5,0.9,0.3,2-0.5,2.6s-2,0.6-2.7-0.1c-13-12.2-22.6-18-28.3-20.8c7.7,11.2,12.7,26,12.9,26.7c0.3,0.8,0,1.7-0.7,2.3
				c-0.7,0.6-1.6,0.6-2.4,0.1c-12.1-7.7-29.1-26.7-32.9-42.4c-0.6,1.5-1.1,3.3-1.3,5.7c-0.4,6.4,1.8,17.4,14.9,33.6
				c0.6,0.8,0.6,2-0.1,2.7c-0.7,0.7-1.8,0.8-2.7,0.3c-29.7-21.4-46.4-19.2-53.9-15.8c24.3,3,59.5,32.4,70.6,42
				c0.8,0.7,0.9,1.9,0.4,2.8c-0.6,0.8-1.8,1.1-2.7,0.6c-15.2-9.3-29.4-12.4-41.2-9.2c-3.5,1-6.3,2.3-8.3,3.7
				c18.7-0.5,30.3,5.7,37,11.4c5,4.3,8,8.8,9.5,11.7l77.4-77.4C668.3,408.4,662.2,396.1,660.3,387.4z"/>
		</g>
	</g>
	<g>
		<g>
			<path class="st10" d="M776.6,347.4c-0.8-3.8-1.1-7.1-0.9-10c-3.1,5.2-4.2,11.7-3,19c1.2,7.8,4.5,14,4.6,14.1
				c0.5,0.9,0.3,2-0.5,2.6s-1.9,0.6-2.7-0.1c-14.1-12.9-21.6-27.3-25.5-37.1c-1.8-4.5-3-8.6-3.8-11.7c-5.4,20.9,14,52.5,14.2,52.8
				c0.6,0.8,0.4,2.1-0.4,2.7c-0.8,0.6-2,0.6-2.7-0.1c-10.5-10.3-19.6-15.3-26-17.9c12.8,12.2,26.5,35.4,27.2,36.6
				c0.5,0.9,0.3,2-0.5,2.6c-0.8,0.6-2,0.6-2.7-0.1c-13-12.2-22.6-18-28.3-20.8c7.7,11.2,12.7,26,12.9,26.7c0.3,0.8,0,1.7-0.7,2.3
				c-0.7,0.6-1.6,0.6-2.4,0.1c-12.1-7.7-29.1-26.7-32.9-42.4c-0.6,1.5-1.1,3.3-1.3,5.7c-0.4,6.4,1.8,17.4,14.9,33.6
				c0.6,0.8,0.6,2-0.1,2.7c-0.7,0.7-1.8,0.8-2.7,0.3c-29.7-21.4-46.4-19.2-53.9-15.8c24.3,3,59.5,32.4,70.6,42
				c0.8,0.7,0.9,1.9,0.4,2.8c-0.6,0.8-1.8,1.1-2.7,0.6c-15.2-9.3-29.4-12.4-41.2-9.2c-3.5,1-6.3,2.3-8.3,3.7
				c18.7-0.5,30.3,5.7,37,11.4c5,4.3,8,8.8,9.5,11.7l77.4-77.4C784.6,368.2,778.6,356,776.6,347.4z"/>
		</g>
	</g>
</g>
</svg>
