<?xml version="1.0" encoding="utf-8"?>
<!-- Generator: Adobe Illustrator 19.0.1, SVG Export Plug-In . SVG Version: 6.00 Build 0)  -->
<svg version="1.1" id="radish_x5F_grow" xmlns="http://www.w3.org/2000/svg" xmlns:xlink="http://www.w3.org/1999/xlink" x="0px"
	 y="0px" viewBox="-223 225 512 512" style="enable-background:new -223 225 512 512;" xml:space="preserve">
<style type="text/css">
	.st0{fill:#BCE260;}
</style>
<g>
	<path class="st0" d="M48.1,599.4c-3-4-8.1,0-11.1,6.1c2-8.1,2-18.2-5-18.2c-10.1,0-9.1,19.2-7.1,27.3c0,1,0,1,1,2c-1,0-2,0-3,0
		c-6.1,2-3,11.1,1,17.2c4,6.1,12.1,14.2,12.1,14.2s2-13.1,6.1-22.2S53.1,605.4,48.1,599.4z"/>
</g>
<g>
	<path class="st0" d="M208.9,505.4c-3-4-8.1,0-11.1,6.1c2-8.1,2-18.2-5-18.2c-10.1,0-9.1,19.2-7.1,27.3c0,1,0,1,1,2c-1,0-2,0-3,0
		c-6.1,2-3,11.1,1,17.2c4,6.1,12.1,14.2,12.1,14.2s2-13.1,6.1-22.2S214,511.5,208.9,505.4z"/>
</g>
<g>
	<path class="st0" d="M47.3,412.1c-3-4-8.1,0-11.1,6.1c2-8.1,2-18.2-5-18.2C21,400,22,419.2,24,427.3c0,1,0,1,1,2c-1,0-2,0-3,0
		c-6.1,2-3,11.1,1,17.2s12.1,14.2,12.1,14.2s2-13.1,6.1-22.2C45.2,429.3,52.3,418.2,47.3,412.1z"/>
</g>
<g>
	<path class="st0" d="M-116,505.4c-3-4-8.1,0-11.1,6.1c2-8.1,2-18.2-5-18.2c-10.1,0-9.1,19.2-7.1,27.3c0,1,0,1,1,2c-1,0-2,0-3,0
		c-6.1,2-3,11.1,1,17.2c4,6.1,12.1,14.2,12.1,14.2s2-13.1,6.1-22.2C-118,522.6-110.9,511.5-116,505.4z"/>
</g>
</svg>
