<?xml version="1.0" encoding="utf-8"?>
<!-- Generator: Adobe Illustrator 19.0.1, SVG Export Plug-In . SVG Version: 6.00 Build 0)  -->
<svg version="1.1" id="圖層_1" xmlns="http://www.w3.org/2000/svg" xmlns:xlink="http://www.w3.org/1999/xlink" x="0px" y="0px"
	 viewBox="0 0 50 50" style="enable-background:new 0 0 50 50;" xml:space="preserve">
<style type="text/css">
	.st0{display:none;}
	.st1{fill:#FBFDF0;}
	.st2{fill:#88C057;}
	.st3{fill:#A4E869;}
	.st4{fill:#659C35;}
	.st5{fill:#DDC5AB;}
</style>
<rect x="-4.4" y="-3.9" class="st0" width="57.1" height="54.2"/>
<g>
	<path class="st1" d="M0.2,46.6c0,0,0.5,0.1,1-0.1c0.5-0.2,0.8-0.7,1-0.8c0.4-0.7,0.2-1.1,0.6-1.6c0.1-0.1,0.2-0.3,0.3-0.5
		C3.3,43.3,3.3,43,3.2,43c0,0-0.1,0.2-0.3,0.5c-0.3,0.5-0.5,0.5-0.6,0.9c-0.1,0.2,0,0.2-0.2,0.7C2,45.3,2,45.5,1.9,45.6
		c0,0.1-0.1,0.3-0.3,0.5c-0.1,0.1-0.2,0.1-0.5,0.3C0.6,46.6,0.2,46.6,0.2,46.6z"/>
	<path class="st1" d="M2.2,46.8c0,0,0.4-0.1,0.9-0.4c0.5-0.3,0.7-0.7,0.8-0.9c0.4-0.7,0.3-1,0.6-1.6c0,0,0.1-0.2,0.2-0.4
		c0.1-0.2,0.1-0.4,0.1-0.4c0,0-0.1,0.2-0.3,0.5c-0.3,0.5-0.4,0.5-0.5,0.9c-0.1,0.2,0,0.2-0.2,0.6c-0.1,0.2-0.1,0.4-0.2,0.5
		c0,0.1-0.1,0.3-0.3,0.5c-0.1,0.1-0.2,0.2-0.4,0.3C2.4,46.6,2.2,46.7,2.2,46.8z"/>
	<path class="st1" d="M4.2,47.5c0,0-0.5-0.1-0.8-0.5C3,46.6,3,46.1,2.9,45.8c-0.1-0.8,0.2-1.2,0.1-1.9c0,0,0-0.3,0-0.5
		c0-0.2,0.1-0.5,0.2-0.5c0,0,0,0.2,0.1,0.6c0.1,0.6,0.2,0.7,0.2,1.1c0,0.2-0.1,0.2-0.2,0.7c0,0.2-0.1,0.4-0.1,0.6
		c0,0.1,0,0.4,0.1,0.6c0,0.1,0.1,0.2,0.3,0.5C4,47.3,4.2,47.5,4.2,47.5z"/>
</g>
<g>
	<g>
		<path class="st1" d="M31.5,28.9c1-1,2.5-2.4,3.8-4.7c0.5-0.9,0.9-1.8,1.2-2.3c-0.7-0.3-1.4-0.7-2.2-1c-1.2-0.5-2.4-0.8-3.4-1
			c-0.6-2.8-1.3-5-2.2-6.7c-5.2,2.5-9.1,5.4-11.7,7.6c-2,1.7-6.7,5.9-10.9,12.6C3.9,37.1,0.9,41.9,2.6,44c1.3,1.7,4.7,1,6.3,0.6
			c3.2-0.6,4.9-1.9,11.1-6.5C23.5,35.6,28,32.3,31.5,28.9z"/>
	</g>
	<path class="st2" d="M30.6,20.2c0,0,10.8-6.4,17.7,2.6c0,0,1.8,2.1,0.4,4c-1.3,1.9-4.3,1.5-5.8-0.5C41.5,24.5,38.2,22.2,30.6,20.2z
		"/>
	<path class="st2" d="M30.6,20.2c0,0,6.6-10.6-1.9-16.9c0,0-2.8-2.5-5.3-1.6c-2.3,0.8-2.4,4.1-0.2,5.3C25.5,8.4,28.8,11.8,30.6,20.2
		z"/>
	<path class="st2" d="M48,23.4c0,0,0.1,0.1,0.1,0.2c0.2-0.2,0.4-0.4,0.6-0.7c1.8-2.3,0.4-4.1,0.4-4.1c-5.4-8.1-18,0.7-18,0.7
		c0.6,0,1.2,0.1,1.7,0.2C36.5,18.3,43.2,17.1,48,23.4z"/>
	<path class="st3" d="M28.7,3.3c6.5,4.8,4.1,12.2,2.6,15.4c0,0.1,0,0.1,0,0.2c0,0,9-12.5,1.4-17.4c0,0-2.4-2.1-5.2-0.6
		c-0.5,0.2-0.9,0.6-1.2,0.9C27.7,2.4,28.7,3.3,28.7,3.3z"/>
	<path class="st4" d="M44.4,5.6c-3.2-2.1-7.2,1.1-7.2,1.1c-0.7,0.8-1.3,1.7-1.8,2.6c-0.6,4.1-3.2,8.5-4.5,10.4
		c-0.1,0.3-0.1,0.5-0.2,0.7c1.5-1,6-3.8,10.3-4.5c1.1-0.7,2.1-1.5,3-2.4C48.8,8.9,44.4,5.6,44.4,5.6z"/>
	<path class="st3" d="M30.6,20.2c0,0,10.8-6.4,17.7,2.6c0,0,1.8,2.1,0.4,4c-1.3,1.9-4.3,1.5-5.8-0.5C41.5,24.5,38.2,22.2,30.6,20.2z
		"/>
	<g>
		<g>
			<g>
				<path class="st5" d="M19.7,20.4c0.1,0,0.3,0.2,0.5,0.6c0.8,1.2,1.9,2.7,2.6,3.3c0.2,0.2,0.5,0.6,0.7,1c0.1,0.2,0.1,0.4,0.1,0.4
					c0,0-0.1,0-0.2-0.1c-1-0.8-2.3-2.6-3.2-4"/>
				<path class="st5" d="M23.4,25.6c0.1,0.1,0.1,0.1,0.2,0.1c0.1,0,0-0.2-0.1-0.4c-0.2-0.4-0.5-0.8-0.7-1c-0.7-0.6-1.8-2.1-2.6-3.3
					c-0.2-0.3-0.4-0.5-0.5-0.6c0.1,0.4,0.3,0.8,0.5,1.2C21.1,23,22.4,24.8,23.4,25.6z"/>
			</g>
		</g>
	</g>
	<g>
		<g>
			<g>
				<path class="st5" d="M17.7,25.5c0.1,0,0.3,0.2,0.5,0.6c0.8,1.2,1.9,2.7,2.6,3.3c0.2,0.2,0.5,0.6,0.7,1c0.1,0.2,0.1,0.4,0.1,0.4
					c0,0-0.1,0-0.2-0.1c-1-0.8-2.3-2.6-3.2-4"/>
				<path class="st5" d="M21.4,30.7c0.1,0.1,0.1,0.1,0.2,0.1c0.1,0,0-0.2-0.1-0.4c-0.2-0.4-0.5-0.8-0.7-1c-0.7-0.6-1.8-2.1-2.6-3.3
					c-0.2-0.3-0.4-0.5-0.5-0.6c0.1,0.4,0.3,0.8,0.5,1.2C19.1,28.1,20.4,29.9,21.4,30.7z"/>
			</g>
		</g>
	</g>
	<g>
		<g>
			<g>
				<path class="st5" d="M12.5,29.3c0.1,0,0.3,0.2,0.5,0.6c0.8,1.2,1.9,2.7,2.6,3.3c0.2,0.2,0.5,0.6,0.7,1c0.1,0.2,0.1,0.4,0.1,0.4
					c0,0-0.1,0-0.2-0.1c-1-0.8-2.3-2.6-3.2-4"/>
				<path class="st5" d="M16.2,34.5c0.1,0.1,0.1,0.1,0.2,0.1c0.1,0,0-0.2-0.1-0.4c-0.2-0.4-0.5-0.8-0.7-1c-0.7-0.6-1.8-2.1-2.6-3.3
					c-0.2-0.3-0.4-0.5-0.5-0.6c0.1,0.4,0.3,0.8,0.5,1.2C13.9,31.8,15.2,33.6,16.2,34.5z"/>
			</g>
		</g>
	</g>
</g>
</svg>
