<?xml version="1.0" encoding="utf-8"?>
<!-- Generator: Adobe Illustrator 19.0.1, SVG Export Plug-In . SVG Version: 6.00 Build 0)  -->
<svg version="1.1" id="radish_x5F_harvest" xmlns="http://www.w3.org/2000/svg" xmlns:xlink="http://www.w3.org/1999/xlink" x="0px"
	 y="0px" viewBox="-223 225 512 512" style="enable-background:new -223 225 512 512;" xml:space="preserve">
<style type="text/css">
	.st0{fill:#FBFDF0;}
	.st1{fill:#88C057;}
	.st2{fill:#A4E869;}
	.st3{fill:#659C35;}
	.st4{fill:#DDC5AB;}
</style>
<g>
	<g>
		<path class="st0" d="M183.4,600.8c-0.1-0.1-0.1-0.2-0.2-0.3c-1.1,0.4-2.3,0.8-3.4,1.2c0.1,0.9,0.2,1.8,0.3,2.6
			c0-0.1,0-0.1,0.1-0.2C180.7,602.4,181.9,601.2,183.4,600.8z"/>
		<path class="st0" d="M170.6,589.3c-0.5-0.8-0.8-1.6-0.9-2.5c-1.2,1.4-2,3-2.4,4.9c0.1,0.3,0.2,0.6,0.3,1
			C168.1,590.9,169.2,589.8,170.6,589.3z"/>
		<path class="st0" d="M186.7,625.4c0,0.8-0.1,1.6-0.1,2.5c0.8,1.8,1.5,3.5,2.3,5.3c0.2-3,0.2-6,0.2-8.9
			C188.3,624.5,187.5,625,186.7,625.4z"/>
		<path class="st0" d="M217.1,592.5c0.5-0.9,1-1.9,1.6-2.8c1.1-1.6,3.1-2.5,5-2.4c0-0.2,0.1-0.5,0.1-0.8c-3,1-6,2.1-9,3.1
			C215.9,590.3,216.7,591.3,217.1,592.5z"/>
		<path class="st0" d="M209.2,553.7c6.3,0,12.6,0,18.9-0.6c1.3-12,2.3-24.6,2.3-36.2c0-6.3-0.3-15.4-3.4-26.5
			c-1.3-4.6-2.8-8.4-3.9-10.9c-3.1,1-6.5,2.3-10.1,4c-5.3,2.5-9.8,5.2-13.5,7.8c-10.7-6.6-20-11-28.3-13.9
			c-7.9,24.4-10.8,45.5-11.8,60.7c-0.3,3.8-0.6,9.4-0.5,16.4c15.5,0,31.1-0.3,46.5,0.8C206.3,554.3,207.6,553.7,209.2,553.7z"/>
		<path class="st0" d="M200.4,643.2c-0.6,1.4-1.6,2.1-2.7,2.4c-0.3,0.9-0.7,1.9-0.9,2.8c4.7-3,8.5-9.2,11.2-14.8
			c-0.4,0.4-0.9,0.8-1.4,1.2c-0.9,0.8-2.1,1.2-3.4,1.3C202.4,638.6,201.4,640.9,200.4,643.2z"/>
		<path class="st0" d="M220.6,567.1c-2-0.3-3.9-0.5-5.9-0.8c2,0.8,4,1.7,5.7,2.8C220.5,568.4,220.6,567.8,220.6,567.1z"/>
	</g>
	<path class="st1" d="M199.7,492.8c0,0,12.8-54.3,62.9-48.4c0,0,12.1,0.6,14.2,11.1c2.1,10.3-8.5,18.6-19.7,17.1
		C247,471.2,229.4,474.4,199.7,492.8z"/>
	<path class="st1" d="M199.7,492.8c0,0-13.8-53.8-59.9-46.1c0,0-16.6,1.2-21.5,12c-4.6,10.1,5.7,20.3,16.3,17.2
		C146.1,472.6,167,472.7,199.7,492.8z"/>
	<path class="st1" d="M263.7,446.9c0,0,0.4,0,1,0.1c0-1.3,0-2.7-0.2-4.1c-1.9-13.1-12.2-13.9-12.2-13.9
		c-42.8-7.8-53.3,59.9-53.3,59.9c2-1.8,3.9-3.5,5.8-5C211.7,468.2,228.5,442.7,263.7,446.9z"/>
	<path class="st2" d="M139.8,446.7c35.6-6,51.9,24.7,57.5,39c0.2,0.2,0.5,0.4,0.7,0.6c0,0-12.2-67.2-51.4-57.9
		c0,0-14.2,1.4-18.3,14.8c-0.7,2.3-1,4.6-0.9,6.9C133.4,447.2,139.8,446.7,139.8,446.7z"/>
	<path class="st3" d="M195.5,403.6c-16.5,3.8-19,26.5-19,26.5c0.5,4.6,1.4,9.3,2.5,13.8c11.3,14.3,17.2,36.4,19.5,46.7
		c0.6,1.1,1.2,2,1.6,2.7c1.4-8.1,6.3-30.9,17.4-47.1c1-5.7,1.7-11.4,1.7-17C219.5,399.6,195.5,403.6,195.5,403.6z"/>
	<path class="st2" d="M199.7,492.8c0,0,12.8-54.3,62.9-48.4c0,0,12.1,0.6,14.2,11.1c2.1,10.3-8.5,18.6-19.7,17.1
		C247,471.2,229.4,474.4,199.7,492.8z"/>
	<g>
		<g>
			<g>
				<path class="st4" d="M166.6,528.5c0.5-0.2,1.8-0.2,3.4,0.1c6.2,1.2,14.4,2.2,18.7,1.9c1.3-0.1,3.7,0.3,5.3,1
					c1,0.4,1.5,0.8,1.5,1c0,0.2-0.3,0.3-0.8,0.3c-5.7,0.5-15.6-0.7-22.8-2.1"/>
				<path class="st4" d="M194.6,532.8c0.5,0,0.8-0.2,0.8-0.3c0.1-0.3-0.4-0.6-1.5-1c-1.7-0.6-4-1.1-5.3-1
					c-4.3,0.4-12.4-0.7-18.7-1.9c-1.6-0.3-2.9-0.3-3.4-0.1c1.7,0.7,3.4,1.4,5.2,2.2C179.1,532.1,188.9,533.3,194.6,532.8z"/>
			</g>
		</g>
	</g>
	<g>
		<g>
			<g>
				<path class="st4" d="M176.8,550.4c0.5-0.2,1.8-0.2,3.4,0.1c6.2,1.2,14.4,2.2,18.7,1.9c1.3-0.1,3.7,0.3,5.3,1
					c1,0.4,1.5,0.8,1.5,1c0,0.2-0.3,0.3-0.8,0.3c-5.7,0.5-15.6-0.7-22.8-2.1"/>
				<path class="st4" d="M204.8,554.7c0.5,0,0.8-0.2,0.8-0.3c0.1-0.3-0.4-0.6-1.5-1c-1.7-0.6-4-1.1-5.3-1
					c-4.3,0.4-12.4-0.7-18.7-1.9c-1.6-0.3-2.9-0.3-3.4-0.1c1.7,0.7,3.4,1.4,5.2,2.2C189.3,553.9,199.1,555.2,204.8,554.7z"/>
			</g>
		</g>
	</g>
</g>
<g>
	<g>
		<path class="st0" d="M21.2,507.1c-0.1-0.1-0.1-0.2-0.2-0.3c-1.1,0.4-2.3,0.8-3.4,1.2c0.1,0.9,0.2,1.8,0.3,2.6c0-0.1,0-0.1,0.1-0.2
			C18.6,508.6,19.8,507.5,21.2,507.1z"/>
		<path class="st0" d="M8.4,495.5c-0.5-0.8-0.8-1.6-0.9-2.5c-1.2,1.4-2,3-2.4,4.9c0.1,0.3,0.2,0.6,0.3,1
			C5.9,497.2,7.1,496.1,8.4,495.5z"/>
		<path class="st0" d="M24.6,531.7c0,0.8-0.1,1.6-0.1,2.5c0.8,1.8,1.5,3.5,2.3,5.3c0.2-3,0.2-6,0.2-8.9
			C26.2,530.8,25.4,531.2,24.6,531.7z"/>
		<path class="st0" d="M55,498.8c0.5-0.9,1-1.9,1.6-2.8c1.1-1.6,3.1-2.5,5-2.4c0-0.3,0.1-0.5,0.1-0.8c-3,1-6,2.1-9,3.1
			C53.7,496.6,54.6,497.6,55,498.8z"/>
		<path class="st0" d="M47.1,459.9c6.3,0,12.6,0,18.9-0.6c1.3-12,2.3-24.6,2.3-36.2c0-6.3-0.3-15.4-3.4-26.5
			c-1.3-4.6-2.8-8.4-3.9-10.9c-3.1,1-6.5,2.3-10.1,4c-5.3,2.5-9.8,5.2-13.5,7.8c-10.7-6.6-20-11-28.3-13.9
			C1.2,408-1.6,429.1-2.6,444.3c-0.3,3.8-0.6,9.4-0.5,16.4c15.5,0,31.1-0.3,46.5,0.8C44.2,460.6,45.4,459.9,47.1,459.9z"/>
		<path class="st0" d="M38.2,549.5c-0.6,1.4-1.6,2.1-2.7,2.4c-0.3,0.9-0.7,1.9-0.9,2.8c4.7-3,8.5-9.2,11.2-14.8
			c-0.4,0.4-0.9,0.8-1.4,1.2c-0.9,0.8-2.1,1.2-3.4,1.3C40.2,544.9,39.3,547.2,38.2,549.5z"/>
		<path class="st0" d="M58.4,473.4c-2-0.3-3.9-0.5-5.9-0.8c2,0.8,4,1.7,5.7,2.8C58.4,474.7,58.4,474,58.4,473.4z"/>
	</g>
	<path class="st1" d="M37.5,399.1c0,0,12.8-54.3,62.9-48.4c0,0,12.1,0.6,14.2,11.1c2.1,10.3-8.5,18.6-19.7,17.1
		C84.8,377.5,67.3,380.7,37.5,399.1z"/>
	<path class="st1" d="M37.5,399.1c0,0-13.8-53.8-59.9-46.1c0,0-16.6,1.2-21.5,12c-4.6,10.1,5.7,20.3,16.3,17.2
		C-16,378.9,4.8,379,37.5,399.1z"/>
	<path class="st1" d="M101.5,353.2c0,0,0.4,0,1,0.1c0-1.3,0-2.7-0.2-4.1c-1.9-13.1-12.2-13.9-12.2-13.9
		c-42.8-7.8-53.3,59.9-53.3,59.9c2-1.8,3.9-3.5,5.8-5C49.6,374.4,66.4,349,101.5,353.2z"/>
	<path class="st2" d="M-22.4,353c35.6-6,51.9,24.7,57.5,39c0.2,0.2,0.5,0.4,0.7,0.6c0,0-12.2-67.2-51.4-57.9c0,0-14.2,1.4-18.3,14.8
		c-0.7,2.3-1,4.6-0.9,6.9C-28.7,353.5-22.4,353-22.4,353z"/>
	<path class="st3" d="M33.4,309.9c-16.5,3.8-19,26.5-19,26.5c0.5,4.6,1.4,9.3,2.5,13.8c11.3,14.3,17.2,36.4,19.5,46.7
		c0.6,1.1,1.2,2,1.6,2.7c1.4-8.1,6.3-30.9,17.4-47.1c1-5.7,1.7-11.4,1.7-17C57.4,305.9,33.4,309.9,33.4,309.9z"/>
	<path class="st2" d="M37.5,399.1c0,0,12.8-54.3,62.9-48.4c0,0,12.1,0.6,14.2,11.1c2.1,10.3-8.5,18.6-19.7,17.1
		C84.8,377.5,67.3,380.7,37.5,399.1z"/>
	<g>
		<g>
			<g>
				<path class="st4" d="M4.4,434.8c0.5-0.2,1.8-0.2,3.4,0.1c6.2,1.2,14.4,2.2,18.7,1.9c1.3-0.1,3.7,0.3,5.3,1c1,0.4,1.5,0.8,1.5,1
					c0,0.2-0.3,0.3-0.8,0.3c-5.7,0.5-15.6-0.7-22.8-2.1"/>
				<path class="st4" d="M32.5,439.1c0.5,0,0.8-0.2,0.8-0.3c0.1-0.3-0.4-0.6-1.5-1c-1.7-0.6-4-1.1-5.3-1c-4.3,0.4-12.4-0.7-18.7-1.9
					c-1.6-0.3-2.9-0.3-3.4-0.1c1.7,0.7,3.4,1.4,5.2,2.2C16.9,438.3,26.8,439.6,32.5,439.1z"/>
			</g>
		</g>
	</g>
	<g>
		<g>
			<g>
				<path class="st4" d="M14.6,456.7c0.5-0.2,1.8-0.2,3.4,0.1c6.2,1.2,14.4,2.2,18.7,1.9c1.3-0.1,3.7,0.3,5.3,1c1,0.4,1.5,0.8,1.5,1
					c0,0.2-0.3,0.3-0.8,0.3c-5.7,0.5-15.6-0.7-22.8-2.1"/>
				<path class="st4" d="M42.7,460.9c0.5,0,0.8-0.2,0.8-0.3c0.1-0.3-0.4-0.6-1.5-1c-1.7-0.6-4-1.1-5.3-1c-4.3,0.4-12.4-0.7-18.7-1.9
					c-1.6-0.3-2.9-0.3-3.4-0.1c1.7,0.7,3.4,1.4,5.2,2.2C27.1,460.2,37,461.5,42.7,460.9z"/>
			</g>
		</g>
	</g>
</g>
<g>
	<g>
		<path class="st0" d="M20.6,693.8c-0.1-0.1-0.1-0.2-0.2-0.3c-1.1,0.4-2.3,0.8-3.4,1.2c0.1,0.9,0.2,1.8,0.3,2.6c0-0.1,0-0.1,0.1-0.2
			C18,695.4,19.2,694.3,20.6,693.8z"/>
		<path class="st0" d="M7.9,682.3c-0.5-0.8-0.8-1.6-0.9-2.5c-1.2,1.4-2,3-2.4,4.9c0.1,0.3,0.2,0.6,0.3,1
			C5.4,684,6.5,682.8,7.9,682.3z"/>
		<path class="st0" d="M24,718.4c0,0.8-0.1,1.6-0.1,2.5c0.8,1.8,1.5,3.5,2.3,5.3c0.2-3,0.2-6,0.2-8.9C25.6,717.6,24.8,718,24,718.4z
			"/>
		<path class="st0" d="M54.4,685.5c0.5-0.9,1-1.9,1.6-2.8c1.1-1.6,3.1-2.5,5-2.4c0-0.3,0.1-0.5,0.1-0.8c-3,1-6,2.1-9,3.1
			C53.2,683.4,54,684.3,54.4,685.5z"/>
		<path class="st0" d="M46.5,646.7c6.3,0,12.6,0,18.9-0.6c1.3-12,2.3-24.6,2.3-36.2c0-6.3-0.3-15.4-3.4-26.5
			c-1.3-4.6-2.8-8.4-3.9-10.9c-3.1,1-6.5,2.3-10.1,4c-5.3,2.5-9.8,5.2-13.5,7.8c-10.7-6.6-20-11-28.3-13.9
			C0.6,594.8-2.2,615.9-3.2,631c-0.3,3.8-0.6,9.4-0.5,16.4c15.5,0,31.1-0.3,46.5,0.8C43.6,647.3,44.8,646.7,46.5,646.7z"/>
		<path class="st0" d="M37.7,736.2c-0.6,1.4-1.6,2.1-2.7,2.4c-0.3,0.9-0.7,1.9-0.9,2.8c4.7-3,8.5-9.2,11.2-14.8
			c-0.4,0.4-0.9,0.8-1.4,1.2c-0.9,0.8-2.1,1.2-3.4,1.3C39.6,731.6,38.7,734,37.7,736.2z"/>
		<path class="st0" d="M57.9,660.1c-2-0.3-3.9-0.5-5.9-0.8c2,0.8,4,1.7,5.7,2.8C57.8,661.5,57.8,660.8,57.9,660.1z"/>
	</g>
	<path class="st1" d="M36.9,585.9c0,0,12.8-54.3,62.9-48.4c0,0,12.1,0.6,14.2,11.1c2.1,10.3-8.5,18.6-19.7,17.1
		C84.2,564.3,66.7,567.4,36.9,585.9z"/>
	<path class="st1" d="M36.9,585.9c0,0-13.8-53.8-59.9-46.1c0,0-16.6,1.2-21.5,12c-4.6,10.1,5.7,20.3,16.3,17.2
		C-16.6,565.6,4.2,565.7,36.9,585.9z"/>
	<path class="st1" d="M101,539.9c0,0,0.4,0,1,0.1c0-1.3,0-2.7-0.2-4.1C99.9,522.9,89.6,522,89.6,522c-42.8-7.8-53.3,59.9-53.3,59.9
		c2-1.8,3.9-3.5,5.8-5C49,561.2,65.8,535.7,101,539.9z"/>
	<path class="st2" d="M-23,539.8c35.6-6,51.9,24.7,57.5,39c0.2,0.2,0.5,0.4,0.7,0.6c0,0-12.2-67.2-51.4-57.9c0,0-14.2,1.4-18.3,14.8
		c-0.7,2.3-1,4.6-0.9,6.9C-29.3,540.2-23,539.8-23,539.8z"/>
	<path class="st3" d="M32.8,496.6c-16.5,3.8-19,26.5-19,26.5c0.5,4.6,1.4,9.3,2.5,13.8c11.3,14.3,17.2,36.4,19.5,46.7
		c0.6,1.1,1.2,2,1.6,2.7c1.4-8.1,6.3-30.9,17.4-47.1c1-5.7,1.7-11.4,1.7-17C56.8,492.6,32.8,496.6,32.8,496.6z"/>
	<path class="st2" d="M36.9,585.9c0,0,12.8-54.3,62.9-48.4c0,0,12.1,0.6,14.2,11.1c2.1,10.3-8.5,18.6-19.7,17.1
		C84.2,564.3,66.7,567.4,36.9,585.9z"/>
	<g>
		<g>
			<g>
				<path class="st4" d="M3.9,621.6c0.5-0.2,1.8-0.2,3.4,0.1c6.2,1.2,14.4,2.2,18.7,1.9c1.3-0.1,3.7,0.3,5.3,1c1,0.4,1.5,0.8,1.5,1
					c0,0.2-0.3,0.3-0.8,0.3c-5.7,0.5-15.6-0.7-22.8-2.1"/>
				<path class="st4" d="M31.9,625.8c0.5,0,0.8-0.2,0.8-0.3c0.1-0.3-0.4-0.6-1.5-1c-1.7-0.6-4-1.1-5.3-1c-4.3,0.4-12.4-0.7-18.7-1.9
					c-1.6-0.3-2.9-0.3-3.4-0.1c1.7,0.7,3.4,1.4,5.2,2.2C16.4,625.1,26.2,626.4,31.9,625.8z"/>
			</g>
		</g>
	</g>
	<g>
		<g>
			<g>
				<path class="st4" d="M14.1,643.4c0.5-0.2,1.8-0.2,3.4,0.1c6.2,1.2,14.4,2.2,18.7,1.9c1.3-0.1,3.7,0.3,5.3,1c1,0.4,1.5,0.8,1.5,1
					c0,0.2-0.3,0.3-0.8,0.3c-5.7,0.5-15.6-0.7-22.8-2.1"/>
				<path class="st4" d="M42.1,647.7c0.5,0,0.8-0.2,0.8-0.3c0.1-0.3-0.4-0.6-1.5-1c-1.7-0.6-4-1.1-5.3-1c-4.3,0.4-12.4-0.7-18.7-1.9
					c-1.6-0.3-2.9-0.3-3.4-0.1c1.7,0.7,3.4,1.4,5.2,2.2C26.6,646.9,36.4,648.2,42.1,647.7z"/>
			</g>
		</g>
	</g>
</g>
<g>
	<g>
		<path class="st0" d="M-140.7,601.4c-0.1-0.1-0.1-0.2-0.2-0.3c-1.1,0.4-2.3,0.8-3.4,1.2c0.1,0.9,0.2,1.8,0.3,2.6
			c0-0.1,0-0.1,0.1-0.2C-143.4,603-142.2,601.9-140.7,601.4z"/>
		<path class="st0" d="M-153.5,589.9c-0.5-0.8-0.8-1.6-0.9-2.5c-1.2,1.4-2,3-2.4,4.9c0.1,0.3,0.2,0.6,0.3,1
			C-156,591.6-154.9,590.4-153.5,589.9z"/>
		<path class="st0" d="M-137.4,626c0,0.8-0.1,1.6-0.1,2.5c0.8,1.8,1.5,3.5,2.3,5.3c0.2-3,0.2-6,0.2-8.9
			C-135.8,625.2-136.6,625.6-137.4,626z"/>
		<path class="st0" d="M-106.9,593.1c0.5-0.9,1-1.9,1.6-2.8c1.1-1.6,3.1-2.5,5-2.4c0-0.3,0.1-0.5,0.1-0.8c-3,1-6,2.1-9,3.1
			C-108.2,590.9-107.4,591.9-106.9,593.1z"/>
		<path class="st0" d="M-114.9,554.3c6.3,0,12.6,0,18.9-0.6c1.3-12,2.3-24.6,2.3-36.2c0-6.3-0.3-15.4-3.4-26.5
			c-1.3-4.6-2.8-8.4-3.9-10.9c-3.1,1-6.5,2.3-10.1,4c-5.3,2.5-9.8,5.2-13.5,7.8c-10.7-6.6-20-11-28.3-13.9
			c-7.9,24.4-10.8,45.5-11.8,60.7c-0.3,3.8-0.6,9.4-0.5,16.4c15.5,0,31.1-0.3,46.5,0.8C-117.8,554.9-116.5,554.3-114.9,554.3z"/>
		<path class="st0" d="M-123.7,643.8c-0.6,1.4-1.6,2.1-2.7,2.4c-0.3,0.9-0.7,1.9-0.9,2.8c4.7-3,8.5-9.2,11.2-14.8
			c-0.4,0.4-0.9,0.8-1.4,1.2c-0.9,0.8-2.1,1.2-3.4,1.3C-121.7,639.2-122.7,641.5-123.7,643.8z"/>
		<path class="st0" d="M-103.5,567.7c-2-0.3-3.9-0.5-5.9-0.8c2,0.8,4,1.7,5.7,2.8C-103.6,569.1-103.5,568.4-103.5,567.7z"/>
	</g>
	<path class="st1" d="M-124.4,493.4c0,0,12.8-54.3,62.9-48.4c0,0,12.1,0.6,14.2,11.1c2.1,10.3-8.5,18.6-19.7,17.1
		C-77.1,471.8-94.7,475-124.4,493.4z"/>
	<path class="st1" d="M-124.4,493.4c0,0-13.8-53.8-59.9-46.1c0,0-16.6,1.2-21.5,12c-4.6,10.1,5.7,20.3,16.3,17.2
		C-177.9,473.2-157.1,473.3-124.4,493.4z"/>
	<path class="st1" d="M-60.4,447.5c0,0,0.4,0,1,0.1c0-1.3,0-2.7-0.2-4.1c-1.9-13.1-12.2-13.9-12.2-13.9
		c-42.8-7.8-53.3,59.9-53.3,59.9c2-1.8,3.9-3.5,5.8-5C-112.3,468.8-95.5,443.3-60.4,447.5z"/>
	<path class="st2" d="M-184.3,447.3c35.6-6,51.9,24.7,57.5,39c0.2,0.2,0.5,0.4,0.7,0.6c0,0-12.2-67.2-51.4-57.9
		c0,0-14.2,1.4-18.3,14.8c-0.7,2.3-1,4.6-0.9,6.9C-190.7,447.8-184.3,447.3-184.3,447.3z"/>
	<path class="st3" d="M-128.6,404.2c-16.5,3.8-19,26.5-19,26.5c0.5,4.6,1.4,9.3,2.5,13.8c11.3,14.3,17.2,36.4,19.5,46.7
		c0.6,1.1,1.2,2,1.6,2.7c1.4-8.1,6.3-30.9,17.4-47.1c1-5.7,1.7-11.4,1.7-17C-104.6,400.2-128.6,404.2-128.6,404.2z"/>
	<path class="st2" d="M-124.4,493.4c0,0,12.8-54.3,62.9-48.4c0,0,12.1,0.6,14.2,11.1c2.1,10.3-8.5,18.6-19.7,17.1
		C-77.1,471.8-94.7,475-124.4,493.4z"/>
	<g>
		<g>
			<g>
				<path class="st4" d="M-157.5,529.2c0.5-0.2,1.8-0.2,3.4,0.1c6.2,1.2,14.4,2.2,18.7,1.9c1.3-0.1,3.7,0.3,5.3,1
					c1,0.4,1.5,0.8,1.5,1c0,0.2-0.3,0.3-0.8,0.3c-5.7,0.5-15.6-0.7-22.8-2.1"/>
				<path class="st4" d="M-129.4,533.4c0.5,0,0.8-0.2,0.8-0.3c0.1-0.3-0.4-0.6-1.5-1c-1.7-0.6-4-1.1-5.3-1
					c-4.3,0.4-12.4-0.7-18.7-1.9c-1.6-0.3-2.9-0.3-3.4-0.1c1.7,0.7,3.4,1.4,5.2,2.2C-145,532.7-135.2,533.9-129.4,533.4z"/>
			</g>
		</g>
	</g>
	<g>
		<g>
			<g>
				<path class="st4" d="M-147.3,551c0.5-0.2,1.8-0.2,3.4,0.1c6.2,1.2,14.4,2.2,18.7,1.9c1.3-0.1,3.7,0.3,5.3,1c1,0.4,1.5,0.8,1.5,1
					c0,0.2-0.3,0.3-0.8,0.3c-5.7,0.5-15.6-0.7-22.8-2.1"/>
				<path class="st4" d="M-119.2,555.3c0.5,0,0.8-0.2,0.8-0.3c0.1-0.3-0.4-0.6-1.5-1c-1.7-0.6-4-1.1-5.3-1
					c-4.3,0.4-12.4-0.7-18.7-1.9c-1.6-0.3-2.9-0.3-3.4-0.1c1.7,0.7,3.4,1.4,5.2,2.2C-134.8,554.5-125,555.8-119.2,555.3z"/>
			</g>
		</g>
	</g>
</g>
</svg>
