<?xml version="1.0" encoding="utf-8"?>
<!-- Generator: Adobe Illustrator 19.0.1, SVG Export Plug-In . SVG Version: 6.00 Build 0)  -->
<svg version="1.1" id="report_x5F_harvest" xmlns="http://www.w3.org/2000/svg" xmlns:xlink="http://www.w3.org/1999/xlink" x="0px"
	 y="0px" viewBox="-223 225 512 512" style="enable-background:new -223 225 512 512;" xml:space="preserve">
<style type="text/css">
	.st0{display:none;}
	.st1{display:inline;}
	.st2{fill:#2366B8;}
	.st3{fill:#F7F7F5;stroke:#DB6A77;stroke-miterlimit:10;}
	.st4{fill:#969696;}
	.st5{font-family:'TimesNewRomanPS-BoldMT';}
	.st6{font-size:35.946px;}
	.st7{fill:#DB6A77;}
	.st8{fill:#FFFFFF;stroke:#000000;stroke-width:0.5;stroke-miterlimit:10;}
</style>
<g class="st0">
	<g class="st1">
		<path class="st2" d="M109.7,427.9h-5.3v-25.8c0-0.2,0-0.3,0-0.5c0-1-0.3-2-1-2.8l-42.9-49c0,0,0,0,0,0c-0.3-0.3-0.6-0.5-0.9-0.7
			c-0.1-0.1-0.2-0.1-0.3-0.2c-0.3-0.1-0.6-0.3-0.9-0.4c-0.1,0-0.2-0.1-0.2-0.1c-0.3-0.1-0.7-0.1-1-0.1H-48.4c-4.8,0-8.7,3.9-8.7,8.7
			v70.9h-5.3c-6.9,0-12.5,5.6-12.5,12.5v64.9c0,6.9,5.6,12.5,12.5,12.5h5.3v44.4c0,4.8,3.9,8.7,8.7,8.7h144c4.8,0,8.7-3.9,8.7-8.7
			v-44.4h5.3c6.9,0,12.5-5.6,12.5-12.5v-64.9C122.2,433.5,116.6,427.9,109.7,427.9z M-48.4,357H52.8v44.7c0,2.4,2,4.4,4.4,4.4h38.6
			v21.9h-144V357z M61.6,484.7c3.2,0,6.7-0.7,8.8-1.5l1.6,8.2c-1.9,1-6.3,2-12,2c-16.1,0-24.4-10-24.4-23.3
			c0-15.9,11.4-24.8,25.5-24.8c5.5,0,9.6,1.1,11.5,2.1l-2.1,8.4c-2.1-0.9-5.1-1.7-8.9-1.7c-8.4,0-14.9,5.1-14.9,15.4
			C46.6,478.8,52.2,484.7,61.6,484.7z M30.8,468.9c0,15.3-9.3,24.6-22.9,24.6c-13.8,0-21.9-10.5-21.9-23.7c0-14,8.9-24.4,22.7-24.4
			C22.9,445.3,30.8,456,30.8,468.9z M-60.1,492.5v-45.8c3.9-0.6,8.9-1,14.3-1c8.9,0,14.6,1.6,19.1,5c4.8,3.6,7.9,9.3,7.9,17.6
			c0,8.9-3.3,15.1-7.8,18.9c-4.9,4.1-12.4,6-21.5,6C-53.6,493.2-57.5,492.8-60.1,492.5z M95.7,559.8h-144v-42h144L95.7,559.8
			L95.7,559.8z M103.7,492.7l-4.2-8.4c-1.7-3.3-2.8-5.7-4.2-8.4h-0.1c-1,2.7-2.1,5.1-3.6,8.4l-3.9,8.4h-12l13.5-23.6l-13-23.1h12.1
			l4.1,8.5c1.4,2.8,2.4,5.1,3.5,7.8H96c1.1-3,2-5.1,3.2-7.8l3.9-8.5h12.1L102,468.8l13.8,23.9L103.7,492.7L103.7,492.7z"/>
		<path class="st2" d="M-30.1,468.6c0.1-9.7-5.6-14.8-14.7-14.8c-2.4,0-3.9,0.2-4.8,0.4v30.5c0.9,0.2,2.4,0.2,3.7,0.2
			C-36.3,485-30.1,479.7-30.1,468.6z"/>
		<path class="st2" d="M-2.9,469.5c0,9.1,4.3,15.6,11.4,15.6c7.1,0,11.2-6.8,11.2-15.9c0-8.4-4-15.6-11.3-15.6
			C1.2,453.6-2.9,460.4-2.9,469.5z"/>
	</g>
</g>
<g>
	<g>
		<g>
			<path class="st2" d="M84.6,426.6h-4.5v-21.7c0-0.1,0-0.3,0-0.4c0-0.9-0.3-1.7-0.9-2.4L43,360.8c0,0,0,0,0,0
				c-0.2-0.2-0.5-0.4-0.7-0.6c-0.1-0.1-0.2-0.1-0.2-0.1c-0.2-0.1-0.5-0.2-0.7-0.3c-0.1,0-0.1,0-0.2-0.1c-0.3-0.1-0.6-0.1-0.8-0.1
				h-88.8c-4.1,0-7.3,3.3-7.3,7.3v59.7h-4.5c-5.8,0-10.5,4.7-10.5,10.5v54.6c0,5.8,4.7,10.5,10.5,10.5h4.5v37.4
				c0,4.1,3.3,7.3,7.3,7.3H72.7c4.1,0,7.3-3.3,7.3-7.3v-37.4h4.5c5.8,0,10.5-4.7,10.5-10.5v-54.6C95.1,431.3,90.4,426.6,84.6,426.6z
				 M-48.5,366.9h85.1v37.6c0,2,1.6,3.7,3.7,3.7h32.5v18.4H-48.5V366.9z M44,474.3c2.7,0,5.7-0.6,7.4-1.3l1.3,6.9
				c-1.6,0.8-5.3,1.7-10.1,1.7c-13.6,0-20.6-8.5-20.6-19.6c0-13.4,9.6-20.9,21.5-20.9c4.6,0,8.1,0.9,9.7,1.7l-1.8,7.1
				c-1.8-0.8-4.3-1.5-7.5-1.5c-7.1,0-12.5,4.3-12.5,13C31.4,469.4,36.1,474.3,44,474.3z M18.1,461c0,12.9-7.8,20.7-19.3,20.7
				c-11.7,0-18.5-8.8-18.5-20c0-11.8,7.5-20.6,19.1-20.6C11.5,441.2,18.1,450.2,18.1,461z M-58.5,480.9v-38.6
				c3.3-0.5,7.5-0.8,12-0.8c7.5,0,12.3,1.3,16.1,4.2c4.1,3,6.6,7.9,6.6,14.8c0,7.5-2.7,12.7-6.5,15.9c-4.1,3.4-10.4,5.1-18.1,5.1
				C-53,481.5-56.3,481.2-58.5,480.9z M72.7,537.6H-48.5v-35.4H72.7L72.7,537.6L72.7,537.6z M79.5,481.1l-3.6-7.1
				c-1.5-2.7-2.4-4.8-3.5-7.1h-0.1c-0.8,2.3-1.8,4.3-3,7.1l-3.3,7.1H55.9l11.4-19.9l-11-19.4h10.2l3.4,7.2c1.2,2.4,2,4.3,3,6.5H73
				c0.9-2.5,1.7-4.3,2.7-6.5l3.3-7.2h10.1L78.1,461l11.7,20.1L79.5,481.1L79.5,481.1z"/>
			<path class="st2" d="M-33.2,460.8c0.1-8.2-4.7-12.5-12.4-12.5c-2,0-3.3,0.2-4,0.4v25.7c0.8,0.2,2,0.2,3.1,0.2
				C-38.4,474.6-33.2,470.2-33.2,460.8z"/>
			<path class="st2" d="M-10.3,461.6c0,7.7,3.6,13.1,9.6,13.1c6,0,9.4-5.7,9.4-13.3c0-7.1-3.4-13.1-9.5-13.1
				C-6.8,448.2-10.3,453.9-10.3,461.6z"/>
		</g>
	</g>
	<rect x="-19.9" y="518.1" class="st3" width="163" height="47.6"/>
	<g>
		<text transform="matrix(1 0 0 1 -13.2685 551.1055)"><tspan x="0" y="0" class="st4 st5 st6">size: </tspan><tspan x="76.8" y="0" class="st7 st5 st6">8MB</tspan></text>
	</g>
	<g>
		<g>
			<g>
				<path class="st8" d="M-25.4,507.8c-0.3,0.1-0.6,0.3-0.7,0.6c-0.1,0.3-0.1,0.7,0.1,0.9l4.8,7.7l-3.3,1.9l-5.1-8
					c-0.2-0.2-0.4-0.4-0.7-0.5c-0.1,0-0.1,0-0.2,0c-0.2,0-0.4,0.1-0.6,0.2l-4.7,3.5V496l15.9,10.3L-25.4,507.8z"/>
			</g>
		</g>
	</g>
</g>
</svg>
