<?xml version="1.0" encoding="utf-8"?>
<!-- Generator: Adobe Illustrator 19.0.1, SVG Export Plug-In . SVG Version: 6.00 Build 0)  -->
<svg version="1.1" id="report" xmlns="http://www.w3.org/2000/svg" xmlns:xlink="http://www.w3.org/1999/xlink" x="0px" y="0px"
	 viewBox="0 0 50 50" style="enable-background:new 0 0 50 50;" xml:space="preserve">
<style type="text/css">
	.st0{fill:#2366B8;}
</style>
<g>
	<g>
		<path class="st0" d="M44.1,18.1H43v-5.6c0,0,0-0.1,0-0.1c0-0.2-0.1-0.4-0.2-0.6L33.4,1.1c0,0,0,0,0,0C33.3,1,33.3,1,33.2,0.9
			c0,0,0,0-0.1,0c-0.1,0-0.1-0.1-0.2-0.1c0,0,0,0-0.1,0c-0.1,0-0.1,0-0.2,0H9.7c-1,0-1.9,0.9-1.9,1.9v15.4H6.7
			c-1.5,0-2.7,1.2-2.7,2.7v14.1c0,1.5,1.2,2.7,2.7,2.7h1.2v9.7c0,1,0.9,1.9,1.9,1.9h31.3c1,0,1.9-0.9,1.9-1.9v-9.7h1.2
			c1.5,0,2.7-1.2,2.7-2.7V20.8C46.9,19.3,45.6,18.1,44.1,18.1z M9.7,2.7h22v9.7c0,0.5,0.4,0.9,0.9,0.9h8.4v4.8H9.7V2.7z M33.7,30.4
			c0.7,0,1.5-0.2,1.9-0.3l0.3,1.8c-0.4,0.2-1.4,0.4-2.6,0.4c-3.5,0-5.3-2.2-5.3-5.1c0-3.5,2.5-5.4,5.5-5.4c1.2,0,2.1,0.2,2.5,0.5
			l-0.5,1.8c-0.5-0.2-1.1-0.4-1.9-0.4c-1.8,0-3.2,1.1-3.2,3.4C30.4,29.2,31.6,30.4,33.7,30.4z M27,27c0,3.3-2,5.3-5,5.3
			c-3,0-4.8-2.3-4.8-5.2c0-3,1.9-5.3,4.9-5.3C25.3,21.9,27,24.2,27,27z M7.2,32.2v-10C8,22,9.1,22,10.3,22c1.9,0,3.2,0.3,4.2,1.1
			c1.1,0.8,1.7,2,1.7,3.8c0,1.9-0.7,3.3-1.7,4.1c-1.1,0.9-2.7,1.3-4.7,1.3C8.6,32.3,7.8,32.2,7.2,32.2z M41.1,46.8H9.7v-9.1h31.3
			L41.1,46.8L41.1,46.8z M42.8,32.2l-0.9-1.8c-0.4-0.7-0.6-1.2-0.9-1.8h0c-0.2,0.6-0.5,1.1-0.8,1.8l-0.8,1.8h-2.6l2.9-5.1l-2.8-5
			h2.6l0.9,1.9c0.3,0.6,0.5,1.1,0.8,1.7h0c0.2-0.6,0.4-1.1,0.7-1.7l0.9-1.9h2.6l-2.9,5l3,5.2L42.8,32.2L42.8,32.2z"/>
		<path class="st0" d="M13.7,27c0-2.1-1.2-3.2-3.2-3.2c-0.5,0-0.8,0-1,0.1v6.6c0.2,0,0.5,0,0.8,0C12.4,30.5,13.7,29.4,13.7,27z"/>
		<path class="st0" d="M19.6,27.2c0,2,0.9,3.4,2.5,3.4c1.6,0,2.4-1.5,2.4-3.4c0-1.8-0.9-3.4-2.5-3.4C20.5,23.7,19.6,25.2,19.6,27.2z
			"/>
	</g>
</g>
</svg>
