<?xml version="1.0" encoding="utf-8"?>
<!-- Generator: Adobe Illustrator 19.0.1, SVG Export Plug-In . SVG Version: 6.00 Build 0)  -->
<svg version="1.1" id="report_x5F_seed" xmlns="http://www.w3.org/2000/svg" xmlns:xlink="http://www.w3.org/1999/xlink" x="0px"
	 y="0px" viewBox="-223 225 512 512" style="enable-background:new -223 225 512 512;" xml:space="preserve">
<style type="text/css">
	.st0{display:none;}
	.st1{display:inline;}
	.st2{fill:#ECE7EA;}
	.st3{fill:#8B7E7F;}
	.st4{fill:#FFFFFF;}
	.st5{fill:#C2B8B9;}
	.st6{display:inline;fill:#CE8989;}
	.st7{font-family:'TimesNewRomanPS-BoldMT';}
	.st8{font-size:39.4968px;}
	.st9{fill:#2366B8;}
	.st10{fill:#F7F7F7;stroke:#DDC747;stroke-width:0.75;stroke-miterlimit:10;}
	.st11{fill:#969696;}
	.st12{font-size:36.7696px;}
	.st13{fill:#CEB732;}
	.st14{fill:#FFFFFD;stroke:#000000;stroke-width:0.5;stroke-miterlimit:10;}
</style>
<g class="st0">
	<g class="st1">
		<rect x="-34.2" y="395.1" class="st2" width="139.4" height="176.1"/>
		<path class="st3" d="M68.1,385H47.5c0-6.7-5.4-12.1-12.1-12.1s-12.1,5.4-12.1,12.1H2.9c-3.2,0-5.8,2.6-5.8,5.8v14.5h76.8v-14.5
			C73.9,387.6,71.3,385,68.1,385z"/>
		<rect x="-2.9" y="534.9" class="st4" width="15.9" height="15.9"/>
		<path class="st5" d="M73.9,546.1H26.2c-1.8,0-3.3-1.5-3.3-3.3c0-1.8,1.5-3.3,3.3-3.3h47.7c1.8,0,3.3,1.5,3.3,3.3
			C77.2,544.7,75.7,546.1,73.9,546.1z"/>
		<rect x="-2.9" y="498.5" class="st4" width="15.9" height="15.9"/>
		<path class="st5" d="M73.9,509.8H26.2c-1.8,0-3.3-1.5-3.3-3.3c0-1.8,1.5-3.3,3.3-3.3h47.7c1.8,0,3.3,1.5,3.3,3.3
			C77.2,508.3,75.7,509.8,73.9,509.8z"/>
		<rect x="-2.9" y="462.2" class="st4" width="15.9" height="15.9"/>
		<path class="st5" d="M73.9,473.4H26.2c-1.8,0-3.3-1.5-3.3-3.3s1.5-3.3,3.3-3.3h47.7c1.8,0,3.3,1.5,3.3,3.3S75.7,473.4,73.9,473.4z
			"/>
		<rect x="-2.9" y="425.8" class="st4" width="15.9" height="15.9"/>
		<path class="st5" d="M73.9,437H26.2c-1.8,0-3.3-1.5-3.3-3.3s1.5-3.3,3.3-3.3h47.7c1.8,0,3.3,1.5,3.3,3.3S75.7,437,73.9,437z"/>
	</g>
	<text transform="matrix(1 0 0 1 -54.3884 486.9358)" class="st6 st7 st8">To Do List</text>
</g>
<g>
	<g>
		<g>
			<path class="st9" d="M84.5,426.6H80v-21.7c0-0.1,0-0.3,0-0.4c0-0.9-0.3-1.7-0.9-2.4L43,360.8c0,0,0,0,0,0
				c-0.2-0.2-0.5-0.4-0.7-0.6c-0.1-0.1-0.2-0.1-0.2-0.1c-0.2-0.1-0.5-0.2-0.7-0.3c-0.1,0-0.1,0-0.2-0.1c-0.3-0.1-0.6-0.1-0.8-0.1
				h-88.8c-4.1,0-7.3,3.3-7.3,7.3v59.7h-4.5c-5.8,0-10.5,4.7-10.5,10.5v54.6c0,5.8,4.7,10.5,10.5,10.5h4.5v37.4
				c0,4.1,3.3,7.3,7.3,7.3H72.7c4.1,0,7.3-3.3,7.3-7.3v-37.4h4.5c5.8,0,10.5-4.7,10.5-10.5v-54.6C95,431.3,90.3,426.6,84.5,426.6z
				 M-48.6,366.9h85.1v37.6c0,2,1.6,3.7,3.7,3.7h32.5v18.4H-48.6V366.9z M44,474.3c2.7,0,5.7-0.6,7.4-1.3l1.3,6.9
				c-1.6,0.8-5.3,1.7-10.1,1.7c-13.6,0-20.6-8.5-20.6-19.6c0-13.4,9.6-20.9,21.5-20.9c4.6,0,8.1,0.9,9.7,1.7l-1.8,7.1
				c-1.8-0.8-4.3-1.5-7.5-1.5c-7.1,0-12.5,4.3-12.5,13C31.4,469.4,36.1,474.3,44,474.3z M18,461c0,12.9-7.8,20.7-19.3,20.7
				c-11.7,0-18.5-8.8-18.5-20c0-11.8,7.5-20.6,19.1-20.6C11.5,441.2,18,450.2,18,461z M-58.5,480.9v-38.6c3.3-0.5,7.5-0.8,12-0.8
				c7.5,0,12.3,1.3,16.1,4.2c4.1,3,6.6,7.9,6.6,14.8c0,7.5-2.7,12.7-6.5,15.9c-4.1,3.4-10.4,5.1-18.1,5.1
				C-53,481.5-56.3,481.2-58.5,480.9z M72.7,537.6H-48.6v-35.4H72.7L72.7,537.6L72.7,537.6z M79.4,481.1l-3.6-7.1
				c-1.5-2.7-2.4-4.8-3.5-7.1h-0.1c-0.8,2.3-1.8,4.3-3,7.1l-3.3,7.1H55.8l11.4-19.9l-11-19.4h10.2l3.4,7.2c1.2,2.4,2,4.3,3,6.5H73
				c0.9-2.5,1.7-4.3,2.7-6.5l3.3-7.2h10.1L78,461l11.7,20.1L79.4,481.1L79.4,481.1z"/>
			<path class="st9" d="M-33.2,460.8c0.1-8.2-4.7-12.5-12.4-12.5c-2,0-3.3,0.2-4,0.4v25.7c0.8,0.2,2,0.2,3.1,0.2
				C-38.4,474.6-33.2,470.2-33.2,460.8z"/>
			<path class="st9" d="M-10.3,461.6c0,7.7,3.6,13.1,9.6,13.1c6,0,9.4-5.7,9.4-13.3c0-7.1-3.4-13.1-9.5-13.1
				C-6.8,448.2-10.3,453.9-10.3,461.6z"/>
		</g>
	</g>
	<rect x="-19" y="519.4" class="st10" width="160.7" height="46.9"/>
	<g>
		<text transform="matrix(1 0 0 1 -12.2144 552.2599)"><tspan x="0" y="0" class="st11 st7 st12">size: </tspan><tspan x="78.6" y="0" class="st13 st7 st12">0 kb</tspan></text>
	</g>
	<g>
		<g>
			<g>
				<path class="st14" d="M-24.6,508c-0.3,0.1-0.6,0.3-0.7,0.6c-0.1,0.3-0.1,0.7,0.1,1l5,7.8l-3.4,2l-5.2-8.2
					c-0.2-0.2-0.4-0.4-0.7-0.5c-0.1,0-0.1,0-0.2,0c-0.2,0-0.4,0.1-0.6,0.2l-4.9,3.6v-18.6l16.3,10.5L-24.6,508z"/>
			</g>
		</g>
	</g>
</g>
</svg>
