<?xml version="1.0" encoding="utf-8"?>
<!-- Generator: Adobe Illustrator 19.0.1, SVG Export Plug-In . SVG Version: 6.00 Build 0)  -->
<svg version="1.1" id="report_x5F_warn" xmlns="http://www.w3.org/2000/svg" xmlns:xlink="http://www.w3.org/1999/xlink" x="0px"
	 y="0px" viewBox="-223 225 512 512" style="enable-background:new -223 225 512 512;" xml:space="preserve">
<style type="text/css">
	.st0{clip-path:url(#SVGID_2_);}
	.st1{fill:#FBD303;}
	.st2{fill:#646B79;}
	.st3{clip-path:url(#SVGID_4_);}
	.st4{fill:#2366B8;}
	.st5{fill:#F7F7F5;stroke:#DB6A77;stroke-miterlimit:10;}
	.st6{fill:#969696;}
	.st7{font-family:'TimesNewRomanPS-BoldMT';}
	.st8{font-size:35.946px;}
	.st9{fill:#DB6A77;}
	.st10{fill:#FFFFFF;stroke:#000000;stroke-width:0.5;stroke-miterlimit:10;}
	.st11{clip-path:url(#SVGID_6_);}
	.st12{clip-path:url(#SVGID_8_);}
	.st13{font-family:'Arial-Black';}
	.st14{font-size:21.0661px;}
	.st15{font-size:20.1175px;}
</style>
<g>
	<defs>
		<polygon id="SVGID_1_" points="33.6,361.5 238.5,480.5 238.3,528.6 34.1,410.1 		"/>
	</defs>
	<clipPath id="SVGID_2_">
		<use xlink:href="#SVGID_1_"  style="overflow:visible;"/>
	</clipPath>
	<g class="st0">
		<polygon class="st1" points="33.6,335.5 238.5,454.5 238.3,502.7 34.1,384.1 		"/>
		<g>
			<polygon class="st2" points="238.5,454.5 226.8,447.7 187.6,473.2 217.5,490.6 238.4,477.1 			"/>
			<polygon class="st2" points="160.3,457.4 130.4,440 169.4,414.3 199.4,431.7 			"/>
			<polygon class="st2" points="103,424.1 73.1,406.8 111.9,380.9 141.9,398.4 			"/>
			<polygon class="st2" points="54.5,347.6 33.9,361.4 34.1,384.1 45.8,390.9 84.5,365 			"/>
		</g>
	</g>
</g>
<g>
	<defs>
		<polygon id="SVGID_3_" points="-170.7,454.6 33.5,336.1 33.7,384.3 -171.2,503.3 		"/>
	</defs>
	<clipPath id="SVGID_4_">
		<use xlink:href="#SVGID_3_"  style="overflow:visible;"/>
	</clipPath>
	<g class="st3">
		<polygon class="st1" points="-170.7,480.6 33.5,362.1 33.7,410.3 -171.2,529.3 		"/>
		<g>
			<polygon class="st2" points="33.6,387.6 12.7,374.1 -17.2,391.5 22,417.1 33.7,410.3 			"/>
			<polygon class="st2" points="-5.4,433 -35.4,450.4 -74.4,424.7 -44.5,407.4 			"/>
			<polygon class="st2" points="-62.9,466.4 -92.9,483.8 -131.7,458 -101.8,440.6 			"/>
			<polygon class="st2" points="-120.3,499.7 -159,473.8 -170.7,480.6 -170.9,503.4 -150.3,517.1 			"/>
		</g>
	</g>
</g>
<g>
	<g>
		<g>
			<path class="st4" d="M84.6,426.6h-4.5v-21.7c0-0.1,0-0.3,0-0.4c0-0.9-0.3-1.7-0.9-2.4L43,360.8c0,0,0,0,0,0
				c-0.2-0.2-0.5-0.4-0.7-0.6c-0.1-0.1-0.2-0.1-0.2-0.1c-0.2-0.1-0.5-0.2-0.7-0.3c-0.1,0-0.1,0-0.2-0.1c-0.3-0.1-0.6-0.1-0.8-0.1
				h-88.8c-4.1,0-7.3,3.3-7.3,7.3v59.7h-4.5c-5.8,0-10.5,4.7-10.5,10.5v54.6c0,5.8,4.7,10.5,10.5,10.5h4.5v37.4
				c0,4.1,3.3,7.3,7.3,7.3H72.7c4.1,0,7.3-3.3,7.3-7.3v-37.4h4.5c5.8,0,10.5-4.7,10.5-10.5v-54.6C95.1,431.3,90.4,426.6,84.6,426.6z
				 M-48.5,366.9h85.1v37.6c0,2,1.6,3.7,3.7,3.7h32.5v18.4H-48.5V366.9z M44,474.3c2.7,0,5.7-0.6,7.4-1.3l1.3,6.9
				c-1.6,0.8-5.3,1.7-10.1,1.7c-13.6,0-20.6-8.5-20.6-19.6c0-13.4,9.6-20.9,21.5-20.9c4.6,0,8.1,0.9,9.7,1.7l-1.8,7.1
				c-1.8-0.8-4.3-1.5-7.5-1.5c-7.1,0-12.5,4.3-12.5,13C31.4,469.4,36.1,474.3,44,474.3z M18.1,461c0,12.9-7.8,20.7-19.3,20.7
				c-11.7,0-18.5-8.8-18.5-20c0-11.8,7.5-20.6,19.1-20.6C11.5,441.2,18.1,450.2,18.1,461z M-58.5,480.9v-38.6
				c3.3-0.5,7.5-0.8,12-0.8c7.5,0,12.3,1.3,16.1,4.2c4.1,3,6.6,7.9,6.6,14.8c0,7.5-2.7,12.7-6.5,15.9c-4.1,3.4-10.4,5.1-18.1,5.1
				C-53,481.5-56.3,481.2-58.5,480.9z M72.7,537.6H-48.5v-35.4H72.7L72.7,537.6L72.7,537.6z M79.5,481.1l-3.6-7.1
				c-1.5-2.7-2.4-4.8-3.5-7.1h-0.1c-0.8,2.3-1.8,4.3-3,7.1l-3.3,7.1H55.9l11.4-19.9l-11-19.4h10.2l3.4,7.2c1.2,2.4,2,4.3,3,6.5H73
				c0.9-2.5,1.7-4.3,2.7-6.5l3.3-7.2h10.1L78.1,461l11.7,20.1L79.5,481.1L79.5,481.1z"/>
			<path class="st4" d="M-33.2,460.8c0.1-8.2-4.7-12.5-12.4-12.5c-2,0-3.3,0.2-4,0.4v25.7c0.8,0.2,2,0.2,3.1,0.2
				C-38.4,474.6-33.2,470.2-33.2,460.8z"/>
			<path class="st4" d="M-10.3,461.6c0,7.7,3.6,13.1,9.6,13.1c6,0,9.4-5.7,9.4-13.3c0-7.1-3.4-13.1-9.5-13.1
				C-6.8,448.2-10.3,453.9-10.3,461.6z"/>
		</g>
	</g>
	<rect x="-19.9" y="518.1" class="st5" width="163" height="47.6"/>
	<g>
		<text transform="matrix(1 0 0 1 -13.2685 551.1055)"><tspan x="0" y="0" class="st6 st7 st8">size: </tspan><tspan x="76.8" y="0" class="st9 st7 st8">8MB</tspan></text>
	</g>
	<g>
		<g>
			<g>
				<path class="st10" d="M-25.4,507.8c-0.3,0.1-0.6,0.3-0.7,0.6c-0.1,0.3-0.1,0.7,0.1,0.9l4.8,7.7l-3.3,1.9l-5.1-8
					c-0.2-0.2-0.4-0.4-0.7-0.5c-0.1,0-0.1,0-0.2,0c-0.2,0-0.4,0.1-0.6,0.2l-4.7,3.5V496l15.9,10.3L-25.4,507.8z"/>
			</g>
		</g>
	</g>
</g>
<g>
	<defs>
		<polygon id="SVGID_5_" points="-171.1,481.1 33.8,600.1 33.6,648.3 -170.6,529.8 		"/>
	</defs>
	<clipPath id="SVGID_6_">
		<use xlink:href="#SVGID_5_"  style="overflow:visible;"/>
	</clipPath>
	<g class="st11">
		<polygon class="st1" points="-171.1,455.1 33.8,574.1 33.6,622.3 -170.6,503.8 		"/>
		<g>
			<polygon class="st2" points="33.8,574.1 22.1,567.3 -17.1,592.9 12.8,610.3 33.7,596.8 			"/>
			<polygon class="st2" points="-150.3,467.3 -170.8,481 -170.6,503.8 -158.9,510.6 -120.3,484.7 			"/>
		</g>
	</g>
</g>
<g>
	<defs>
		<polygon id="SVGID_7_" points="34.2,574.3 238.4,455.7 238.6,503.9 33.7,622.9 		"/>
	</defs>
	<clipPath id="SVGID_8_">
		<use xlink:href="#SVGID_7_"  style="overflow:visible;"/>
	</clipPath>
	<g class="st12">
		<polygon class="st1" points="34.2,600.3 238.4,481.7 238.6,529.9 33.7,648.9 		"/>
		<g>
			<polygon class="st2" points="238.5,507.3 217.6,493.8 187.7,511.2 226.9,536.7 238.6,529.9 			"/>
			<polygon class="st2" points="84.5,619.4 45.9,593.5 34.2,600.3 33.9,623 54.5,636.8 			"/>
		</g>
	</g>
</g>
<text transform="matrix(0.5926 0.3431 -0.501 0.8654 -120.3065 530.5786)" class="st13 st14">Crime Scene</text>
<text transform="matrix(0.5889 -0.3413 0.5015 0.8652 72.196 597.8657)" class="st13 st15">Do Not Cross Line</text>
</svg>
