<?xml version="1.0" encoding="utf-8"?>
<!-- Generator: Adobe Illustrator 19.0.1, SVG Export Plug-In . SVG Version: 6.00 Build 0)  -->
<svg version="1.1" id="sansingOnion_x5F_seed" xmlns="http://www.w3.org/2000/svg" xmlns:xlink="http://www.w3.org/1999/xlink"
	 x="0px" y="0px" viewBox="-223 225 512 512" style="enable-background:new -223 225 512 512;" xml:space="preserve">
<style type="text/css">
	.st0{fill:#282725;}
	.st1{fill:#161412;}
</style>
<g>
	<path class="st0" d="M202,546.2c0.2,1.6,0.4,3.1-0.5,4.6c-1.7,2.8-5.7,2.7-6.1,2.7c-3.6,0-5.8-2.6-6.8-3.7
		c-3.6-4.1-5-11.3-1.9-14.1c1.7-1.5,4.1-1.3,4.8-1.2c3.4,0.3,5.5,2.7,7,4.4C199.3,539.7,201.5,542.3,202,546.2z"/>
	<g>
		<path class="st1" d="M200.2,543.2c0.3,1,1.4,4.7-0.7,7c-1.1,1.3-2.8,1.6-3.7,1.8c-0.6,0.1-2.7,0.5-4.6-0.5
			c-2.9-1.4-3.7-4.8-4.1-6.4c-0.3-1.3-1.5-6.1,1.2-8.3c1.4-1.1,3.1-1,3.7-1c2.6,0.1,4.4,1.8,5.4,2.9
			C198.1,539.4,199.5,540.8,200.2,543.2z"/>
	</g>
</g>
<g>
	<path class="st0" d="M39.5,638.8c0.2,1.6,0.4,3.1-0.5,4.6c-1.7,2.8-5.7,2.7-6.1,2.7c-3.6,0-5.8-2.6-6.8-3.7
		c-3.6-4.1-5-11.3-1.9-14.1c1.7-1.5,4.1-1.3,4.8-1.2c3.4,0.3,5.5,2.7,7,4.4C36.8,632.3,39,634.9,39.5,638.8z"/>
	<g>
		<path class="st1" d="M37.6,635.8c0.3,1,1.4,4.7-0.7,7c-1.1,1.3-2.8,1.6-3.7,1.8c-0.6,0.1-2.7,0.5-4.6-0.5
			c-2.9-1.4-3.7-4.8-4.1-6.4c-0.3-1.3-1.5-6.1,1.2-8.3c1.4-1.1,3.1-1,3.7-1c2.6,0.1,4.4,1.8,5.4,2.9C35.5,632,36.9,633.4,37.6,635.8
			z"/>
	</g>
</g>
<g>
	<path class="st0" d="M42,453.7c0.2,1.6,0.4,3.1-0.5,4.6c-1.7,2.8-5.7,2.7-6.1,2.7c-3.6,0-5.8-2.6-6.8-3.7c-3.6-4.1-5-11.3-1.9-14.1
		c1.7-1.5,4.1-1.3,4.8-1.2c3.4,0.3,5.5,2.7,7,4.4C39.3,447.2,41.5,449.8,42,453.7z"/>
	<g>
		<path class="st1" d="M40.2,450.7c0.3,1,1.4,4.7-0.7,7c-1.1,1.3-2.8,1.6-3.7,1.8c-0.6,0.1-2.7,0.5-4.6-0.5
			c-2.9-1.4-3.7-4.8-4.1-6.4c-0.3-1.3-1.5-6.1,1.2-8.3c1.4-1.1,3.1-1,3.7-1c2.6,0.1,4.4,1.8,5.4,2.9C38,446.9,39.5,448.3,40.2,450.7
			z"/>
	</g>
</g>
<g>
	<path class="st0" d="M-121.1,547.6c0.2,1.6,0.4,3.1-0.5,4.6c-1.7,2.8-5.7,2.7-6.1,2.7c-3.6,0-5.8-2.6-6.8-3.7
		c-3.6-4.1-5-11.3-1.9-14.1c1.7-1.5,4.1-1.3,4.8-1.2c3.4,0.3,5.5,2.7,7,4.4C-123.8,541.1-121.6,543.7-121.1,547.6z"/>
	<g>
		<path class="st1" d="M-122.9,544.6c0.3,1,1.4,4.7-0.7,7c-1.1,1.3-2.8,1.6-3.7,1.8c-0.6,0.1-2.7,0.5-4.6-0.5
			c-2.9-1.4-3.7-4.8-4.1-6.4c-0.3-1.3-1.5-6.1,1.2-8.3c1.4-1.1,3.1-1,3.7-1c2.6,0.1,4.4,1.8,5.4,2.9
			C-125.1,540.8-123.6,542.2-122.9,544.6z"/>
	</g>
</g>
</svg>
