<?xml version="1.0" encoding="utf-8"?>
<!-- Generator: Adobe Illustrator 19.0.1, SVG Export Plug-In . SVG Version: 6.00 Build 0)  -->
<svg version="1.1" id="sansingOnion_x5F_harvest" xmlns="http://www.w3.org/2000/svg" xmlns:xlink="http://www.w3.org/1999/xlink"
	 x="0px" y="0px" viewBox="-223 225 512 512" style="enable-background:new -223 225 512 512;" xml:space="preserve">
<style type="text/css">
	.st0{fill:#604A3B;}
	.st1{fill:#AF903A;}
	.st2{fill:#88C057;}
	.st3{fill:#E6E6E6;}
	.st4{fill:#FFFFFF;}
	.st5{fill:#436B1C;}
	.st6{fill:#659C35;}
</style>
<g>
	<g>
		<g>
			<path class="st0" d="M-0.9,459.9c-0.4-3,3.1-10,6.8-10.3c2.4-0.2,2.9,2.7,5.8,2.6c2.9-0.1,3.5-3.2,5.7-2.6
				c2.9,0.8,5.6,7.2,5.1,10.2C22.1,462.2-0.6,461.8-0.9,459.9z"/>
			<path class="st0" d="M8.2,458.2c-0.4-3,3.1-10,6.8-10.3c2.4-0.2,2.9,2.7,5.8,2.6c2.9-0.1,3.5-3.2,5.7-2.6
				c2.9,0.8,5.6,7.2,5.1,10.2C31.2,460.5,8.5,460.1,8.2,458.2z"/>
			<path class="st0" d="M18.2,455.8c-0.4-3,3.1-10,6.8-10.3c2.4-0.2,2.9,2.7,5.8,2.6c2.9-0.1,3.5-3.2,5.7-2.6
				c2.9,0.8,5.6,7.2,5.1,10.2C41.2,458.2,18.5,457.7,18.2,455.8z"/>
			<path class="st0" d="M32.9,458.2c-0.4-3,3.1-10,6.8-10.3c2.4-0.2,2.9,2.7,5.8,2.6c2.9-0.1,3.5-3.2,5.7-2.6
				c2.9,0.8,5.6,7.2,5.1,10.2C55.9,460.5,33.2,460.1,32.9,458.2z"/>
			<path class="st0" d="M22.6,460.4c-0.4-3,3.1-10,6.8-10.3c2.4-0.2,2.9,2.7,5.8,2.6c2.9-0.1,3.5-3.2,5.7-2.6
				c2.9,0.8,5.6,7.2,5.1,10.2C45.6,462.8,22.9,462.3,22.6,460.4z"/>
			<path class="st0" d="M40.3,460.4c-0.4-3,3.1-10,6.8-10.3c2.4-0.2,2.9,2.7,5.8,2.6c2.9-0.1,3.5-3.2,5.7-2.6
				c2.9,0.8,5.6,7.2,5.1,10.2C63.2,462.8,40.5,462.3,40.3,460.4z"/>
		</g>
	</g>
	<g>
		<g transform="translate(-1)">
			<g>
				<path class="st1" d="M33.6,452c-0.4,0.3-0.9,0.4-1.5,0.4c-1.1-0.2-1.8-1.2-1.7-2.2l1.2-7.8c0.2-1.1,1.2-1.8,2.2-1.7
					c1.1,0.2,1.8,1.2,1.7,2.2l-1.2,7.8C34.3,451.2,34,451.7,33.6,452"/>
				<path class="st1" d="M28.5,448.4c-0.8,0.6-1.8,0.5-2.5-0.2c-0.8-0.8-0.8-2-0.1-2.8l4.3-4.5c0.7-0.8,2-0.8,2.8-0.1
					c0.8,0.8,0.8,2,0.1,2.8l-4.3,4.5C28.7,448.3,28.6,448.4,28.5,448.4"/>
				<path class="st1" d="M39.5,450.1c-0.1,0.1-0.2,0.1-0.3,0.2c-1,0.5-2.2,0.1-2.6-0.9l-2.8-5.6c-0.5-1-0.1-2.2,0.9-2.6
					c1-0.5,2.2-0.1,2.6,0.9l2.8,5.6C40.5,448.5,40.3,449.5,39.5,450.1"/>
			</g>
			<path class="st2" d="M75.3,338.8c1.7-2.2,1.2-5.3-1-6.9l-6.6-4.6c-1.5-1.1-3.6-0.8-4.7,0.7l-12.4,15.8l-6.8-19.9
				c-0.6-1.9-2.6-2.9-4.5-2.2l-12.4,4.5c-1.8,0.7-2.7,2.7-2.1,4.5l7,19.2c2.8,7.6,3.6,15.8,2.4,23.8l-4.1,27.5
				c-1.3,8.9-2.9,17.8-5.8,26.3c-0.2,0.5-0.3,1-0.4,1.6c-0.9,5.4,2.1,10.9,7.2,12.8c7.4,2.9,15-1.9,16.1-9.2
				c0.1-0.7,0.1-1.3,0.1-1.9c-0.3-8.5,0.7-17,2-25.4l4.3-28.5c1.2-8.3,4.6-16.1,9.7-22.7L75.3,338.8z"/>
			<path class="st3" d="M27.3,415.8c-0.9,3.9-1.9,7.8-3.2,11.6c-0.2,0.5-0.3,1-0.4,1.6c-0.9,5.4,2.1,10.9,7.2,12.8
				c7.4,2.9,15-1.9,16.1-9.2c0.1-0.7,0.1-1.3,0.1-1.9c-0.2-4,0-8,0.3-12l-3.7-3.1c-1.1-1-2.7-1.1-3.9-0.2c-1.4,1-3.3,0.7-4.3-0.6
				c-0.9-1.2-2.4-1.6-3.8-1L27.3,415.8z"/>
			<path class="st4" d="M35.9,436.6c-0.4,0.3-0.9,0.4-1.5,0.4c-2.1-0.3-3.3-1.6-3.9-2.3c-0.5-0.7-1.4-2.3-1.1-4.4
				c0.2-1.1,1.2-1.8,2.2-1.7c1.1,0.2,1.8,1.2,1.7,2.2c-0.1,0.7,0.2,1.2,0.4,1.5c0.2,0.3,0.6,0.7,1.3,0.8c1.1,0.2,1.8,1.2,1.7,2.2
				C36.6,435.9,36.3,436.3,35.9,436.6"/>
			<path class="st5" d="M31.4,324.4l7.5-2.7l0.2-0.1l0,0l0,0c1.8-0.7,3.9,0.3,4.5,2.2l6.8,19.9l5.9-7.5L48.9,313
				c-0.6-1.9-2.7-2.9-4.5-2.2l-12.5,4.5c-1.8,0.6-2.7,2.6-2.1,4.4L31.4,324.4z"/>
			<g>
				<path class="st6" d="M35,376.6c-0.4,0.3-1,0.5-1.6,0.3c-1.1-0.2-1.7-1.3-1.5-2.4c3-12.8,8.3-22.7,17.1-32.2
					c0.7-0.8,2-0.8,2.8-0.1c0.8,0.7,0.8,2,0.1,2.8c-8.5,9.1-13.3,18.2-16.2,30.4C35.6,375.9,35.4,376.3,35,376.6"/>
				<path class="st6" d="M64.8,343.2c-0.7,0.5-1.7,0.5-2.4,0c-0.9-0.7-1-1.9-0.4-2.8l3.9-5c0.7-0.9,1.9-1,2.8-0.4
					c0.9,0.7,1,1.9,0.4,2.8l-3.9,5C65.1,343,64.9,343.1,64.8,343.2"/>
				<path class="st6" d="M48.2,370.6c-0.5,0.3-1.1,0.5-1.7,0.3c-1-0.3-1.7-1.4-1.4-2.4c1.8-6.4,4.8-12.3,8.8-17.6l3.9-5.1
					c0.7-0.9,1.9-1,2.8-0.4c0.9,0.7,1,1.9,0.4,2.8l-3.9,5.1c-3.8,4.8-6.5,10.3-8.2,16.2C48.8,370,48.6,370.3,48.2,370.6"/>
				<path class="st6" d="M44.6,392c-0.4,0.3-0.9,0.4-1.5,0.4c-1.1-0.2-1.8-1.2-1.7-2.2l2.1-13.6c0.2-1.1,1.2-1.8,2.2-1.7
					c1.1,0.2,1.8,1.2,1.7,2.2l-2.1,13.6C45.3,391.2,45,391.7,44.6,392"/>
				<path class="st6" d="M42.6,405.6c-0.4,0.3-0.9,0.4-1.5,0.4c-1.1-0.2-1.8-1.2-1.7-2.2l0.9-5.8c0.2-1.1,1.2-1.8,2.2-1.7
					c1.1,0.2,1.8,1.2,1.7,2.2l-0.9,5.8C43.3,404.8,43,405.3,42.6,405.6"/>
				<path class="st6" d="M39.8,349.4c-0.1,0.1-0.3,0.2-0.5,0.3c-1,0.4-2.2-0.2-2.5-1.2l-6.1-16.8c-0.4-1,0.2-2.1,1.2-2.5
					c1-0.4,2.2,0.2,2.5,1.2l6.1,16.8C40.8,348,40.5,348.9,39.8,349.4"/>
				<path class="st6" d="M75.5,320.1l-8.7-6c-1.6-1.1-3.7-0.7-4.8,0.9l-8.3,12.7l2.8,8.5l6.6-8.3c1.2-1.4,3.2-1.7,4.7-0.7l5.2,3.7
					l3.5-5.9C77.4,323.4,77.1,321.2,75.5,320.1"/>
			</g>
		</g>
	</g>
</g>
<g>
	<g>
		<g>
			<path class="st0" d="M-162.1,551.9c-0.4-3,3.1-10,6.8-10.3c2.4-0.2,2.9,2.7,5.8,2.6c2.9-0.1,3.5-3.2,5.7-2.6
				c2.9,0.8,5.6,7.2,5.1,10.2C-139.2,554.2-161.9,553.7-162.1,551.9z"/>
			<path class="st0" d="M-153.1,550.2c-0.4-3,3.1-10,6.8-10.3c2.4-0.2,2.9,2.7,5.8,2.6c2.9-0.1,3.5-3.2,5.7-2.6
				c2.9,0.8,5.6,7.2,5.1,10.2C-130.1,552.5-152.8,552-153.1,550.2z"/>
			<path class="st0" d="M-143.1,547.8c-0.4-3,3.1-10,6.8-10.3c2.4-0.2,2.9,2.7,5.8,2.6c2.9-0.1,3.5-3.2,5.7-2.6
				c2.9,0.8,5.6,7.2,5.1,10.2C-120.1,550.2-142.8,549.7-143.1,547.8z"/>
			<path class="st0" d="M-128.3,550.2c-0.4-3,3.1-10,6.8-10.3c2.4-0.2,2.9,2.7,5.8,2.6c2.9-0.1,3.5-3.2,5.7-2.6
				c2.9,0.8,5.6,7.2,5.1,10.2C-105.4,552.5-128.1,552-128.3,550.2z"/>
			<path class="st0" d="M-138.7,552.4c-0.4-3,3.1-10,6.8-10.3c2.4-0.2,2.9,2.7,5.8,2.6c2.9-0.1,3.5-3.2,5.7-2.6
				c2.9,0.8,5.6,7.2,5.1,10.2C-115.7,554.7-138.4,554.3-138.7,552.4z"/>
			<path class="st0" d="M-121,552.4c-0.4-3,3.1-10,6.8-10.3c2.4-0.2,2.9,2.7,5.8,2.6c2.9-0.1,3.5-3.2,5.7-2.6
				c2.9,0.8,5.6,7.2,5.1,10.2C-98,554.7-120.7,554.3-121,552.4z"/>
		</g>
	</g>
	<g>
		<g transform="translate(-1)">
			<g>
				<path class="st1" d="M-127.7,544c-0.4,0.3-0.9,0.4-1.5,0.4c-1.1-0.2-1.8-1.2-1.7-2.2l1.2-7.8c0.2-1.1,1.2-1.8,2.2-1.7
					c1.1,0.2,1.8,1.2,1.7,2.2l-1.2,7.8C-127,543.2-127.3,543.7-127.7,544"/>
				<path class="st1" d="M-132.8,540.4c-0.8,0.6-1.8,0.5-2.5-0.2c-0.8-0.8-0.8-2-0.1-2.8l4.3-4.5c0.7-0.8,2-0.8,2.8-0.1
					c0.8,0.8,0.8,2,0.1,2.8l-4.3,4.5C-132.6,540.3-132.7,540.3-132.8,540.4"/>
				<path class="st1" d="M-121.8,542.1c-0.1,0.1-0.2,0.1-0.3,0.2c-1,0.5-2.2,0.1-2.6-0.9l-2.8-5.6c-0.5-1-0.1-2.2,0.9-2.6
					c1-0.5,2.2-0.1,2.6,0.9l2.8,5.6C-120.7,540.5-121,541.5-121.8,542.1"/>
			</g>
			<path class="st2" d="M-86,430.8c1.7-2.2,1.2-5.3-1-6.9l-6.6-4.6c-1.5-1.1-3.6-0.8-4.7,0.7l-12.4,15.8l-6.8-19.9
				c-0.6-1.9-2.6-2.9-4.5-2.2l-12.4,4.5c-1.8,0.7-2.7,2.7-2.1,4.5l7,19.2c2.8,7.6,3.6,15.8,2.4,23.8l-4.1,27.5
				c-1.3,8.9-2.9,17.8-5.8,26.3c-0.2,0.5-0.3,1-0.4,1.6c-0.9,5.4,2.1,10.9,7.2,12.8c7.4,2.9,15-1.9,16.1-9.2
				c0.1-0.7,0.1-1.3,0.1-1.9c-0.3-8.5,0.7-17,2-25.4l4.3-28.5c1.2-8.3,4.6-16.1,9.7-22.7L-86,430.8z"/>
			<path class="st3" d="M-134,507.8c-0.9,3.9-1.9,7.8-3.2,11.6c-0.2,0.5-0.3,1-0.4,1.6c-0.9,5.4,2.1,10.9,7.2,12.8
				c7.4,2.9,15-1.9,16.1-9.2c0.1-0.7,0.1-1.3,0.1-1.9c-0.2-4,0-8,0.3-12l-3.7-3.1c-1.1-1-2.7-1.1-3.9-0.2c-1.4,1-3.3,0.7-4.3-0.6
				c-0.9-1.2-2.4-1.6-3.8-1L-134,507.8z"/>
			<path class="st4" d="M-125.4,528.6c-0.4,0.3-0.9,0.4-1.5,0.4c-2.1-0.3-3.3-1.6-3.9-2.3s-1.4-2.3-1.1-4.4c0.2-1.1,1.2-1.8,2.2-1.7
				c1.1,0.2,1.8,1.2,1.7,2.2c-0.1,0.7,0.2,1.2,0.4,1.5c0.2,0.3,0.6,0.7,1.3,0.8c1.1,0.2,1.8,1.2,1.7,2.2
				C-124.7,527.8-125,528.3-125.4,528.6"/>
			<path class="st5" d="M-129.9,416.4l7.5-2.7l0.2-0.1l0,0l0,0c1.8-0.7,3.9,0.3,4.5,2.2l6.8,19.9l5.9-7.5l-7.5-23.2
				c-0.6-1.9-2.7-2.9-4.5-2.2l-12.5,4.5c-1.8,0.6-2.7,2.6-2.1,4.4L-129.9,416.4z"/>
			<g>
				<path class="st6" d="M-126.3,468.5c-0.4,0.3-1,0.5-1.6,0.3c-1.1-0.2-1.7-1.3-1.5-2.4c3-12.8,8.3-22.7,17.1-32.2
					c0.7-0.8,2-0.8,2.8-0.1c0.8,0.7,0.8,2,0.1,2.8c-8.5,9.1-13.3,18.2-16.2,30.4C-125.6,467.9-125.9,468.3-126.3,468.5"/>
				<path class="st6" d="M-96.5,435.2c-0.7,0.5-1.7,0.5-2.4,0c-0.9-0.7-1-1.9-0.4-2.8l3.9-5c0.7-0.9,1.9-1,2.8-0.4
					c0.9,0.7,1,1.9,0.4,2.8l-3.9,5C-96.2,435-96.4,435.1-96.5,435.2"/>
				<path class="st6" d="M-113.1,462.6c-0.5,0.3-1.1,0.5-1.7,0.3c-1-0.3-1.7-1.4-1.4-2.4c1.8-6.4,4.8-12.3,8.8-17.6l3.9-5.1
					c0.7-0.9,1.9-1,2.8-0.4c0.9,0.7,1,1.9,0.4,2.8l-3.9,5.1c-3.8,4.8-6.5,10.3-8.2,16.2C-112.5,462-112.7,462.3-113.1,462.6"/>
				<path class="st6" d="M-116.7,483.9c-0.4,0.3-0.9,0.4-1.5,0.4c-1.1-0.2-1.8-1.2-1.7-2.2l2.1-13.6c0.2-1.1,1.2-1.8,2.2-1.7
					c1.1,0.2,1.8,1.2,1.7,2.2l-2.1,13.6C-116,483.2-116.2,483.6-116.7,483.9"/>
				<path class="st6" d="M-118.7,497.6c-0.4,0.3-0.9,0.4-1.5,0.4c-1.1-0.2-1.8-1.2-1.7-2.2l0.9-5.8c0.2-1.1,1.2-1.8,2.2-1.7
					c1.1,0.2,1.8,1.2,1.7,2.2l-0.9,5.8C-118,496.8-118.3,497.3-118.7,497.6"/>
				<path class="st6" d="M-121.5,441.4c-0.1,0.1-0.3,0.2-0.5,0.3c-1,0.4-2.2-0.2-2.5-1.2l-6.1-16.8c-0.4-1,0.2-2.1,1.2-2.5
					c1-0.4,2.2,0.2,2.5,1.2l6.1,16.8C-120.5,440-120.8,440.9-121.5,441.4"/>
				<path class="st6" d="M-85.8,412.1l-8.7-6c-1.6-1.1-3.7-0.7-4.8,0.9l-8.3,12.7l2.8,8.5l6.6-8.3c1.2-1.4,3.2-1.7,4.7-0.7l5.2,3.7
					l3.5-5.9C-83.9,415.4-84.2,413.2-85.8,412.1"/>
			</g>
		</g>
	</g>
</g>
<g>
	<g>
		<g>
			<path class="st0" d="M161.1,551.9c-0.4-3,3.1-10,6.8-10.3c2.4-0.2,2.9,2.7,5.8,2.6c2.9-0.1,3.5-3.2,5.7-2.6
				c2.9,0.8,5.6,7.2,5.1,10.2C184.1,554.2,161.4,553.7,161.1,551.9z"/>
			<path class="st0" d="M170.2,550.2c-0.4-3,3.1-10,6.8-10.3c2.4-0.2,2.9,2.7,5.8,2.6c2.9-0.1,3.5-3.2,5.7-2.6
				c2.9,0.8,5.6,7.2,5.1,10.2C193.1,552.5,170.4,552,170.2,550.2z"/>
			<path class="st0" d="M180.2,547.8c-0.4-3,3.1-10,6.8-10.3c2.4-0.2,2.9,2.7,5.8,2.6c2.9-0.1,3.5-3.2,5.7-2.6
				c2.9,0.8,5.6,7.2,5.1,10.2C203.2,550.2,180.5,549.7,180.2,547.8z"/>
			<path class="st0" d="M194.9,550.2c-0.4-3,3.1-10,6.8-10.3c2.4-0.2,2.9,2.7,5.8,2.6c2.9-0.1,3.5-3.2,5.7-2.6
				c2.9,0.8,5.6,7.2,5.1,10.2C217.9,552.5,195.2,552,194.9,550.2z"/>
			<path class="st0" d="M184.6,552.4c-0.4-3,3.1-10,6.8-10.3c2.4-0.2,2.9,2.7,5.8,2.6c2.9-0.1,3.5-3.2,5.7-2.6
				c2.9,0.8,5.6,7.2,5.1,10.2C207.5,554.7,184.8,554.3,184.6,552.4z"/>
			<path class="st0" d="M202.2,552.4c-0.4-3,3.1-10,6.8-10.3c2.4-0.2,2.9,2.7,5.8,2.6c2.9-0.1,3.5-3.2,5.7-2.6
				c2.9,0.8,5.6,7.2,5.1,10.2C225.2,554.7,202.5,554.3,202.2,552.4z"/>
		</g>
	</g>
	<g>
		<g transform="translate(-1)">
			<g>
				<path class="st1" d="M195.6,544c-0.4,0.3-0.9,0.4-1.5,0.4c-1.1-0.2-1.8-1.2-1.7-2.2l1.2-7.8c0.2-1.1,1.2-1.8,2.2-1.7
					c1.1,0.2,1.8,1.2,1.7,2.2l-1.2,7.8C196.3,543.2,196,543.7,195.6,544"/>
				<path class="st1" d="M190.5,540.4c-0.8,0.6-1.8,0.5-2.5-0.2c-0.8-0.8-0.8-2-0.1-2.8l4.3-4.5c0.7-0.8,2-0.8,2.8-0.1
					c0.8,0.8,0.8,2,0.1,2.8l-4.3,4.5C190.7,540.3,190.6,540.3,190.5,540.4"/>
				<path class="st1" d="M201.5,542.1c-0.1,0.1-0.2,0.1-0.3,0.2c-1,0.5-2.2,0.1-2.6-0.9l-2.8-5.6c-0.5-1-0.1-2.2,0.9-2.6
					c1-0.5,2.2-0.1,2.6,0.9l2.8,5.6C202.5,540.5,202.3,541.5,201.5,542.1"/>
			</g>
			<path class="st2" d="M237.2,430.8c1.7-2.2,1.2-5.3-1-6.9l-6.6-4.6c-1.5-1.1-3.6-0.8-4.7,0.7l-12.4,15.8l-6.8-19.9
				c-0.6-1.9-2.6-2.9-4.5-2.2l-12.4,4.5c-1.8,0.7-2.7,2.7-2.1,4.5l7,19.2c2.8,7.6,3.6,15.8,2.4,23.8l-4.1,27.5
				c-1.3,8.9-2.9,17.8-5.8,26.3c-0.2,0.5-0.3,1-0.4,1.6c-0.9,5.4,2.1,10.9,7.2,12.8c7.4,2.9,15-1.9,16.1-9.2
				c0.1-0.7,0.1-1.3,0.1-1.9c-0.3-8.5,0.7-17,2-25.4l4.3-28.5c1.2-8.3,4.6-16.1,9.7-22.7L237.2,430.8z"/>
			<path class="st3" d="M189.3,507.8c-0.9,3.9-1.9,7.8-3.2,11.6c-0.2,0.5-0.3,1-0.4,1.6c-0.9,5.4,2.1,10.9,7.2,12.8
				c7.4,2.9,15-1.9,16.1-9.2c0.1-0.7,0.1-1.3,0.1-1.9c-0.2-4,0-8,0.3-12l-3.7-3.1c-1.1-1-2.7-1.1-3.9-0.2c-1.4,1-3.3,0.7-4.3-0.6
				c-0.9-1.2-2.4-1.6-3.8-1L189.3,507.8z"/>
			<path class="st4" d="M197.9,528.6c-0.4,0.3-0.9,0.4-1.5,0.4c-2.1-0.3-3.3-1.6-3.9-2.3c-0.5-0.7-1.4-2.3-1.1-4.4
				c0.2-1.1,1.2-1.8,2.2-1.7c1.1,0.2,1.8,1.2,1.7,2.2c-0.1,0.7,0.2,1.2,0.4,1.5c0.2,0.3,0.6,0.7,1.3,0.8c1.1,0.2,1.8,1.2,1.7,2.2
				C198.6,527.8,198.3,528.3,197.9,528.6"/>
			<path class="st5" d="M193.4,416.4l7.5-2.7l0.2-0.1l0,0l0,0c1.8-0.7,3.9,0.3,4.5,2.2l6.8,19.9l5.9-7.5l-7.5-23.2
				c-0.6-1.9-2.7-2.9-4.5-2.2l-12.5,4.5c-1.8,0.6-2.7,2.6-2.1,4.4L193.4,416.4z"/>
			<g>
				<path class="st6" d="M197,468.5c-0.4,0.3-1,0.5-1.6,0.3c-1.1-0.2-1.7-1.3-1.5-2.4c3-12.8,8.3-22.7,17.1-32.2
					c0.7-0.8,2-0.8,2.8-0.1c0.8,0.7,0.8,2,0.1,2.8c-8.5,9.1-13.3,18.2-16.2,30.4C197.6,467.9,197.3,468.3,197,468.5"/>
				<path class="st6" d="M226.8,435.2c-0.7,0.5-1.7,0.5-2.4,0c-0.9-0.7-1-1.9-0.4-2.8l3.9-5c0.7-0.9,1.9-1,2.8-0.4
					c0.9,0.7,1,1.9,0.4,2.8l-3.9,5C227,435,226.9,435.1,226.8,435.2"/>
				<path class="st6" d="M210.2,462.6c-0.5,0.3-1.1,0.5-1.7,0.3c-1-0.3-1.7-1.4-1.4-2.4c1.8-6.4,4.8-12.3,8.8-17.6l3.9-5.1
					c0.7-0.9,1.9-1,2.8-0.4c0.9,0.7,1,1.9,0.4,2.8l-3.9,5.1c-3.8,4.8-6.5,10.3-8.2,16.2C210.8,462,210.5,462.3,210.2,462.6"/>
				<path class="st6" d="M206.6,483.9c-0.4,0.3-0.9,0.4-1.5,0.4c-1.1-0.2-1.8-1.2-1.7-2.2l2.1-13.6c0.2-1.1,1.2-1.8,2.2-1.7
					c1.1,0.2,1.8,1.2,1.7,2.2l-2.1,13.6C207.3,483.2,207,483.6,206.6,483.9"/>
				<path class="st6" d="M204.6,497.6c-0.4,0.3-0.9,0.4-1.5,0.4c-1.1-0.2-1.8-1.2-1.7-2.2l0.9-5.8c0.2-1.1,1.2-1.8,2.2-1.7
					c1.1,0.2,1.8,1.2,1.7,2.2l-0.9,5.8C205.3,496.8,205,497.3,204.6,497.6"/>
				<path class="st6" d="M201.8,441.4c-0.1,0.1-0.3,0.2-0.5,0.3c-1,0.4-2.2-0.2-2.5-1.2l-6.1-16.8c-0.4-1,0.2-2.1,1.2-2.5
					c1-0.4,2.2,0.2,2.5,1.2l6.1,16.8C202.8,440,202.5,440.9,201.8,441.4"/>
				<path class="st6" d="M237.4,412.1l-8.7-6c-1.6-1.1-3.7-0.7-4.8,0.9l-8.3,12.7l2.8,8.5l6.6-8.3c1.2-1.4,3.2-1.7,4.7-0.7l5.2,3.7
					l3.5-5.9C239.4,415.4,239,413.2,237.4,412.1"/>
			</g>
		</g>
	</g>
</g>
<g>
	<g>
		<g>
			<path class="st0" d="M-1.8,645.3c-0.4-3,3.1-10,6.8-10.3c2.4-0.2,2.9,2.7,5.8,2.6c2.9-0.1,3.5-3.2,5.7-2.6
				c2.9,0.8,5.6,7.2,5.1,10.2C21.2,647.6-1.5,647.1-1.8,645.3z"/>
			<path class="st0" d="M7.2,643.6c-0.4-3,3.1-10,6.8-10.3c2.4-0.2,2.9,2.7,5.8,2.6c2.9-0.1,3.5-3.2,5.7-2.6
				c2.9,0.8,5.6,7.2,5.1,10.2C30.2,645.9,7.5,645.4,7.2,643.6z"/>
			<path class="st0" d="M17.2,641.2c-0.4-3,3.1-10,6.8-10.3c2.4-0.2,2.9,2.7,5.8,2.6c2.9-0.1,3.5-3.2,5.7-2.6
				c2.9,0.8,5.6,7.2,5.1,10.2C40.2,643.6,17.5,643.1,17.2,641.2z"/>
			<path class="st0" d="M32,643.6c-0.4-3,3.1-10,6.8-10.3c2.4-0.2,2.9,2.7,5.8,2.6c2.9-0.1,3.5-3.2,5.7-2.6
				c2.9,0.8,5.6,7.2,5.1,10.2C55,645.9,32.3,645.4,32,643.6z"/>
			<path class="st0" d="M21.6,645.8c-0.4-3,3.1-10,6.8-10.3c2.4-0.2,2.9,2.7,5.8,2.6c2.9-0.1,3.5-3.2,5.7-2.6
				c2.9,0.8,5.6,7.2,5.1,10.2C44.6,648.1,21.9,647.7,21.6,645.8z"/>
			<path class="st0" d="M39.3,645.8c-0.4-3,3.1-10,6.8-10.3c2.4-0.2,2.9,2.7,5.8,2.6c2.9-0.1,3.5-3.2,5.7-2.6
				c2.9,0.8,5.6,7.2,5.1,10.2C62.3,648.1,39.6,647.7,39.3,645.8z"/>
		</g>
	</g>
	<g>
		<g transform="translate(-1)">
			<g>
				<path class="st1" d="M32.6,637.4c-0.4,0.3-0.9,0.4-1.5,0.4c-1.1-0.2-1.8-1.2-1.7-2.2l1.2-7.8c0.2-1.1,1.2-1.8,2.2-1.7
					c1.1,0.2,1.8,1.2,1.7,2.2l-1.2,7.8C33.3,636.6,33.1,637.1,32.6,637.4"/>
				<path class="st1" d="M27.6,633.8c-0.8,0.6-1.8,0.5-2.5-0.2c-0.8-0.8-0.8-2-0.1-2.8l4.3-4.5c0.7-0.8,2-0.8,2.8-0.1
					c0.8,0.8,0.8,2,0.1,2.8l-4.3,4.5C27.7,633.7,27.6,633.7,27.6,633.8"/>
				<path class="st1" d="M38.6,635.4c-0.1,0.1-0.2,0.1-0.3,0.2c-1,0.5-2.2,0.1-2.6-0.9l-2.8-5.6c-0.5-1-0.1-2.2,0.9-2.6
					c1-0.5,2.2-0.1,2.6,0.9l2.8,5.6C39.6,633.8,39.3,634.9,38.6,635.4"/>
			</g>
			<path class="st2" d="M74.3,524.1c1.7-2.2,1.2-5.3-1-6.9l-6.6-4.6c-1.5-1.1-3.6-0.8-4.7,0.7L49.5,529l-6.8-19.9
				c-0.6-1.9-2.6-2.9-4.5-2.2l-12.4,4.5c-1.8,0.7-2.7,2.7-2.1,4.5l7,19.2c2.8,7.6,3.6,15.8,2.4,23.8L29,586.5
				c-1.3,8.9-2.9,17.8-5.8,26.3c-0.2,0.5-0.3,1-0.4,1.6c-0.9,5.4,2.1,10.9,7.2,12.8c7.4,2.9,15-1.9,16.1-9.2
				c0.1-0.7,0.1-1.3,0.1-1.9c-0.3-8.5,0.7-17,2-25.4l4.3-28.5c1.2-8.3,4.6-16.1,9.7-22.7L74.3,524.1z"/>
			<path class="st3" d="M26.3,601.2c-0.9,3.9-1.9,7.8-3.2,11.6c-0.2,0.5-0.3,1-0.4,1.6c-0.9,5.4,2.1,10.9,7.2,12.8
				c7.4,2.9,15-1.9,16.1-9.2c0.1-0.7,0.1-1.3,0.1-1.9c-0.2-4,0-8,0.3-12l-3.7-3.1c-1.1-1-2.7-1.1-3.9-0.2c-1.4,1-3.3,0.7-4.3-0.6
				c-0.9-1.2-2.4-1.6-3.8-1L26.3,601.2z"/>
			<path class="st4" d="M35,622c-0.4,0.3-0.9,0.4-1.5,0.4c-2.1-0.3-3.3-1.6-3.9-2.3c-0.5-0.7-1.4-2.3-1.1-4.4
				c0.2-1.1,1.2-1.8,2.2-1.7c1.1,0.2,1.8,1.2,1.7,2.2c-0.1,0.7,0.2,1.2,0.4,1.5c0.2,0.3,0.6,0.7,1.3,0.8c1.1,0.2,1.8,1.2,1.7,2.2
				C35.7,621.2,35.4,621.7,35,622"/>
			<path class="st5" d="M30.5,509.8l7.5-2.7l0.2-0.1l0,0l0,0c1.8-0.7,3.9,0.3,4.5,2.2l6.8,19.9l5.9-7.5l-7.5-23.2
				c-0.6-1.9-2.7-2.9-4.5-2.2L31,500.7c-1.8,0.6-2.7,2.6-2.1,4.4L30.5,509.8z"/>
			<g>
				<path class="st6" d="M34.1,561.9c-0.4,0.3-1,0.5-1.6,0.3c-1.1-0.2-1.7-1.3-1.5-2.4c3-12.8,8.3-22.7,17.1-32.2
					c0.7-0.8,2-0.8,2.8-0.1c0.8,0.7,0.8,2,0.1,2.8c-8.5,9.1-13.3,18.2-16.2,30.4C34.7,561.3,34.4,561.7,34.1,561.9"/>
				<path class="st6" d="M63.8,528.6c-0.7,0.5-1.7,0.5-2.4,0c-0.9-0.7-1-1.9-0.4-2.8l3.9-5c0.7-0.9,1.9-1,2.8-0.4
					c0.9,0.7,1,1.9,0.4,2.8l-3.9,5C64.1,528.4,64,528.5,63.8,528.6"/>
				<path class="st6" d="M47.3,556c-0.5,0.3-1.1,0.5-1.7,0.3c-1-0.3-1.7-1.4-1.4-2.4c1.8-6.4,4.8-12.3,8.8-17.6l3.9-5.1
					c0.7-0.9,1.9-1,2.8-0.4c0.9,0.7,1,1.9,0.4,2.8l-3.9,5.1c-3.8,4.8-6.5,10.3-8.2,16.2C47.9,555.4,47.6,555.7,47.3,556"/>
				<path class="st6" d="M43.7,577.3c-0.4,0.3-0.9,0.4-1.5,0.4c-1.1-0.2-1.8-1.2-1.7-2.2l2.1-13.6c0.2-1.1,1.2-1.8,2.2-1.7
					c1.1,0.2,1.8,1.2,1.7,2.2L44.5,576C44.4,576.6,44.1,577,43.7,577.3"/>
				<path class="st6" d="M41.6,591c-0.4,0.3-0.9,0.4-1.5,0.4c-1.1-0.2-1.8-1.2-1.7-2.2l0.9-5.8c0.2-1.1,1.2-1.8,2.2-1.7
					c1.1,0.2,1.8,1.2,1.7,2.2l-0.9,5.8C42.3,590.2,42,590.7,41.6,591"/>
				<path class="st6" d="M38.9,534.8c-0.1,0.1-0.3,0.2-0.5,0.3c-1,0.4-2.2-0.2-2.5-1.2L29.7,517c-0.4-1,0.2-2.1,1.2-2.5
					c1-0.4,2.2,0.2,2.5,1.2l6.1,16.8C39.8,533.4,39.5,534.3,38.9,534.8"/>
				<path class="st6" d="M74.5,505.5l-8.7-6c-1.6-1.1-3.7-0.7-4.8,0.9L52.7,513l2.8,8.5l6.6-8.3c1.2-1.4,3.2-1.7,4.7-0.7l5.2,3.7
					l3.5-5.9C76.5,508.8,76.1,506.6,74.5,505.5"/>
			</g>
		</g>
	</g>
</g>
</svg>
