<?xml version="1.0" encoding="utf-8"?>
<!-- Generator: Adobe Illustrator 19.0.1, SVG Export Plug-In . SVG Version: 6.00 Build 0)  -->
<svg version="1.1" id="sansingOnion_x5F_grow" xmlns="http://www.w3.org/2000/svg" xmlns:xlink="http://www.w3.org/1999/xlink"
	 x="0px" y="0px" viewBox="-223 225 512 512" style="enable-background:new -223 225 512 512;" xml:space="preserve">
<style type="text/css">
	.st0{fill:#88C057;}
	.st1{fill:#604A3B;}
</style>
<g>
	<g>
		<g transform="translate(-1)">
			<path class="st0" d="M-122.8,508.7c0.2-0.4,0.5-1,0.7-1.8c0.2-0.8,0.4-1.4,0.2-2.1c-0.2-0.8-0.9-1.3-1.2-1.5
				c-0.9-0.3-1.7-0.7-2.6-1c-0.3,0.1-1,0.3-1.6,0.8c-0.8,0.7-1.1,1.5-1.2,1.8c-0.3,0.4-0.6,0.9-0.9,1.3l-4.4-7.8
				c-0.4-0.7-1.3-1-2.1-0.6l-4.8,2.9c-0.7,0.4-0.9,1.3-0.5,2l4.4,7.5c1.8,3,2.8,6.4,2.9,9.8l0.5,11.9c0.1,3.8,0.2,7.7-0.3,11.5
				c0,0.2,0,0.5,0,0.7c0.1,2.3,1.8,4.4,4.1,4.8c3.3,0.6,6.2-2,6-5.1c0-0.3,0-0.6-0.1-0.8c-0.8-3.5-1-7.2-1.2-10.8l-0.5-12.3
				c-0.1-3.6,0.6-7.1,2.3-10.3C-123,509.3-122.9,509-122.8,508.7z"/>
		</g>
	</g>
	<g>
		<path class="st1" d="M-145.9,553.3c-0.2-1.4,1.5-4.8,3.2-4.9c1.1-0.1,1.4,1.3,2.8,1.2c1.4-0.1,1.7-1.5,2.7-1.2
			c1.4,0.4,2.7,3.4,2.4,4.9C-135,554.4-145.8,554.2-145.9,553.3z"/>
		<path class="st1" d="M-141.6,552.5c-0.2-1.4,1.5-4.8,3.2-4.9c1.1-0.1,1.4,1.3,2.8,1.2c1.4-0.1,1.7-1.5,2.7-1.2
			c1.4,0.4,2.7,3.4,2.4,4.9C-130.7,553.6-141.5,553.4-141.6,552.5z"/>
		<path class="st1" d="M-136.8,551.4c-0.2-1.4,1.5-4.8,3.2-4.9c1.1-0.1,1.4,1.3,2.8,1.2c1.4-0.1,1.7-1.5,2.7-1.2
			c1.4,0.4,2.7,3.4,2.4,4.9C-125.9,552.5-136.7,552.2-136.8,551.4z"/>
		<path class="st1" d="M-129.8,552.5c-0.2-1.4,1.5-4.8,3.2-4.9c1.1-0.1,1.4,1.3,2.8,1.2c1.4-0.1,1.7-1.5,2.7-1.2
			c1.4,0.4,2.7,3.4,2.4,4.9C-118.9,553.6-129.7,553.4-129.8,552.5z"/>
		<path class="st1" d="M-134.7,553.5c-0.2-1.4,1.5-4.8,3.2-4.9c1.1-0.1,1.4,1.3,2.8,1.2c1.4-0.1,1.7-1.5,2.7-1.2
			c1.4,0.4,2.7,3.4,2.4,4.9C-123.8,554.6-134.6,554.4-134.7,553.5z"/>
		<path class="st1" d="M-126.3,553.5c-0.2-1.4,1.5-4.8,3.2-4.9c1.1-0.1,1.4,1.3,2.8,1.2c1.4-0.1,1.7-1.5,2.7-1.2
			c1.4,0.4,2.7,3.4,2.4,4.9C-115.4,554.6-126.2,554.4-126.3,553.5z"/>
	</g>
</g>
<g>
	<g>
		<g transform="translate(-1)">
			<path class="st0" d="M41.3,600.6c0.2-0.4,0.5-1,0.7-1.8c0.2-0.8,0.4-1.4,0.2-2.1c-0.2-0.8-0.9-1.3-1.2-1.5
				c-0.9-0.3-1.7-0.7-2.6-1c-0.3,0.1-1,0.3-1.6,0.8c-0.8,0.7-1.1,1.5-1.2,1.8c-0.3,0.4-0.6,0.9-0.9,1.3l-4.4-7.8
				c-0.4-0.7-1.3-1-2.1-0.6l-4.8,2.9c-0.7,0.4-0.9,1.3-0.5,2l4.4,7.5c1.8,3,2.8,6.4,2.9,9.8l0.5,11.9c0.1,3.8,0.2,7.7-0.3,11.5
				c0,0.2,0,0.5,0,0.7c0.1,2.3,1.8,4.4,4.1,4.8c3.3,0.6,6.2-2,6-5.1c0-0.3,0-0.6-0.1-0.8c-0.8-3.5-1-7.2-1.2-10.8l-0.5-12.3
				c-0.1-3.6,0.6-7.1,2.3-10.3C41,601.2,41.1,600.9,41.3,600.6z"/>
		</g>
	</g>
	<g>
		<path class="st1" d="M18.1,645.2c-0.2-1.4,1.5-4.8,3.2-4.9c1.1-0.1,1.4,1.3,2.8,1.2c1.4-0.1,1.7-1.5,2.7-1.2
			c1.4,0.4,2.7,3.4,2.4,4.9C29.1,646.3,18.3,646.1,18.1,645.2z"/>
		<path class="st1" d="M22.4,644.4c-0.2-1.4,1.5-4.8,3.2-4.9c1.1-0.1,1.4,1.3,2.8,1.2c1.4-0.1,1.7-1.5,2.7-1.2
			c1.4,0.4,2.7,3.4,2.4,4.9C33.4,645.5,22.6,645.3,22.4,644.4z"/>
		<path class="st1" d="M27.2,643.3c-0.2-1.4,1.5-4.8,3.2-4.9c1.1-0.1,1.4,1.3,2.8,1.2c1.4-0.1,1.7-1.5,2.7-1.2
			c1.4,0.4,2.7,3.4,2.4,4.9C38.2,644.4,27.3,644.2,27.2,643.3z"/>
		<path class="st1" d="M34.2,644.4c-0.2-1.4,1.5-4.8,3.2-4.9c1.1-0.1,1.4,1.3,2.8,1.2c1.4-0.1,1.7-1.5,2.7-1.2
			c1.4,0.4,2.7,3.4,2.4,4.9C45.2,645.5,34.4,645.3,34.2,644.4z"/>
		<path class="st1" d="M29.3,645.5c-0.2-1.4,1.5-4.8,3.2-4.9c1.1-0.1,1.4,1.3,2.8,1.2c1.4-0.1,1.7-1.5,2.7-1.2
			c1.4,0.4,2.7,3.4,2.4,4.9C40.3,646.6,29.4,646.4,29.3,645.5z"/>
		<path class="st1" d="M37.7,645.5c-0.2-1.4,1.5-4.8,3.2-4.9c1.1-0.1,1.4,1.3,2.8,1.2c1.4-0.1,1.7-1.5,2.7-1.2
			c1.4,0.4,2.7,3.4,2.4,4.9C48.7,646.6,37.9,646.4,37.7,645.5z"/>
	</g>
</g>
<g>
	<g>
		<g transform="translate(-1)">
			<path class="st0" d="M42.3,415.4c0.2-0.4,0.5-1,0.7-1.8c0.2-0.8,0.4-1.4,0.2-2.1c-0.2-0.8-0.9-1.3-1.2-1.5
				c-0.9-0.3-1.7-0.7-2.6-1c-0.3,0.1-1,0.3-1.6,0.8c-0.8,0.7-1.1,1.5-1.2,1.8c-0.3,0.4-0.6,0.9-0.9,1.3l-4.4-7.8
				c-0.4-0.7-1.3-1-2.1-0.6l-4.8,2.9c-0.7,0.4-0.9,1.3-0.5,2l4.4,7.5c1.8,3,2.8,6.4,2.9,9.8l0.5,11.9c0.1,3.8,0.2,7.7-0.3,11.5
				c0,0.2,0,0.5,0,0.7c0.1,2.3,1.8,4.4,4.1,4.8c3.3,0.6,6.2-2,6-5.1c0-0.3,0-0.6-0.1-0.8c-0.8-3.5-1-7.2-1.2-10.8l-0.5-12.3
				c-0.1-3.6,0.6-7.1,2.3-10.3C42,416,42.1,415.7,42.3,415.4z"/>
		</g>
	</g>
	<g>
		<path class="st1" d="M19.1,460c-0.2-1.4,1.5-4.8,3.2-4.9c1.1-0.1,1.4,1.3,2.8,1.2c1.4-0.1,1.7-1.5,2.7-1.2
			c1.4,0.4,2.7,3.4,2.4,4.9C30.1,461.1,19.3,460.8,19.1,460z"/>
		<path class="st1" d="M23.4,459.1c-0.2-1.4,1.5-4.8,3.2-4.9c1.1-0.1,1.4,1.3,2.8,1.2c1.4-0.1,1.7-1.5,2.7-1.2
			c1.4,0.4,2.7,3.4,2.4,4.9C34.4,460.3,23.6,460,23.4,459.1z"/>
		<path class="st1" d="M28.2,458c-0.2-1.4,1.5-4.8,3.2-4.9c1.1-0.1,1.4,1.3,2.8,1.2c1.4-0.1,1.7-1.5,2.7-1.2
			c1.4,0.4,2.7,3.4,2.4,4.9C39.2,459.1,28.3,458.9,28.2,458z"/>
		<path class="st1" d="M35.2,459.1c-0.2-1.4,1.5-4.8,3.2-4.9c1.1-0.1,1.4,1.3,2.8,1.2c1.4-0.1,1.7-1.5,2.7-1.2
			c1.4,0.4,2.7,3.4,2.4,4.9C46.2,460.3,35.4,460,35.2,459.1z"/>
		<path class="st1" d="M30.3,460.2c-0.2-1.4,1.5-4.8,3.2-4.9c1.1-0.1,1.4,1.3,2.8,1.2c1.4-0.1,1.7-1.5,2.7-1.2
			c1.4,0.4,2.7,3.4,2.4,4.9C41.3,461.3,30.4,461.1,30.3,460.2z"/>
		<path class="st1" d="M38.7,460.2c-0.2-1.4,1.5-4.8,3.2-4.9c1.1-0.1,1.4,1.3,2.8,1.2c1.4-0.1,1.7-1.5,2.7-1.2
			c1.4,0.4,2.7,3.4,2.4,4.9C49.7,461.3,38.9,461.1,38.7,460.2z"/>
	</g>
</g>
<g>
	<g>
		<g transform="translate(-1)">
			<path class="st0" d="M201.9,508.7c0.2-0.4,0.5-1,0.7-1.8c0.2-0.8,0.4-1.4,0.2-2.1c-0.2-0.8-0.9-1.3-1.2-1.5
				c-0.9-0.3-1.7-0.7-2.6-1c-0.3,0.1-1,0.3-1.6,0.8c-0.8,0.7-1.1,1.5-1.2,1.8c-0.3,0.4-0.6,0.9-0.9,1.3l-4.4-7.8
				c-0.4-0.7-1.3-1-2.1-0.6l-4.8,2.9c-0.7,0.4-0.9,1.3-0.5,2l4.4,7.5c1.8,3,2.8,6.4,2.9,9.8l0.5,11.9c0.1,3.8,0.2,7.7-0.3,11.5
				c0,0.2,0,0.5,0,0.7c0.1,2.3,1.8,4.4,4.1,4.8c3.3,0.6,6.2-2,6-5.1c0-0.3,0-0.6-0.1-0.8c-0.8-3.5-1-7.2-1.2-10.8l-0.5-12.3
				c-0.1-3.6,0.6-7.1,2.3-10.3C201.6,509.3,201.8,509,201.9,508.7z"/>
		</g>
	</g>
	<g>
		<path class="st1" d="M178.7,553.3c-0.2-1.4,1.5-4.8,3.2-4.9c1.1-0.1,1.4,1.3,2.8,1.2c1.4-0.1,1.7-1.5,2.7-1.2
			c1.4,0.4,2.7,3.4,2.4,4.9C189.7,554.4,178.9,554.2,178.7,553.3z"/>
		<path class="st1" d="M183.1,552.5c-0.2-1.4,1.5-4.8,3.2-4.9c1.1-0.1,1.4,1.3,2.8,1.2c1.4-0.1,1.7-1.5,2.7-1.2
			c1.4,0.4,2.7,3.4,2.4,4.9C194,553.6,183.2,553.4,183.1,552.5z"/>
		<path class="st1" d="M187.8,551.4c-0.2-1.4,1.5-4.8,3.2-4.9c1.1-0.1,1.4,1.3,2.8,1.2c1.4-0.1,1.7-1.5,2.7-1.2
			c1.4,0.4,2.7,3.4,2.4,4.9C198.8,552.5,188,552.2,187.8,551.4z"/>
		<path class="st1" d="M194.9,552.5c-0.2-1.4,1.5-4.8,3.2-4.9c1.1-0.1,1.4,1.3,2.8,1.2c1.4-0.1,1.7-1.5,2.7-1.2
			c1.4,0.4,2.7,3.4,2.4,4.9C205.8,553.6,195,553.4,194.9,552.5z"/>
		<path class="st1" d="M189.9,553.5c-0.2-1.4,1.5-4.8,3.2-4.9c1.1-0.1,1.4,1.3,2.8,1.2c1.4-0.1,1.7-1.5,2.7-1.2
			c1.4,0.4,2.7,3.4,2.4,4.9C200.9,554.6,190.1,554.4,189.9,553.5z"/>
		<path class="st1" d="M198.3,553.5c-0.2-1.4,1.5-4.8,3.2-4.9c1.1-0.1,1.4,1.3,2.8,1.2c1.4-0.1,1.7-1.5,2.7-1.2
			c1.4,0.4,2.7,3.4,2.4,4.9C209.3,554.6,198.5,554.4,198.3,553.5z"/>
	</g>
</g>
</svg>
