<?xml version="1.0" encoding="utf-8"?>
<!-- Generator: Adobe Illustrator 19.0.1, SVG Export Plug-In . SVG Version: 6.00 Build 0)  -->
<svg version="1.1" id="sansing_x5F_onion" xmlns="http://www.w3.org/2000/svg" xmlns:xlink="http://www.w3.org/1999/xlink" x="0px"
	 y="0px" viewBox="0 0 50 50" style="enable-background:new 0 0 50 50;" xml:space="preserve">
<style type="text/css">
	.st0{fill:#AF903A;}
	.st1{fill:#88C057;}
	.st2{fill:#E6E6E6;}
	.st3{fill:#FFFFFF;}
	.st4{fill:#436B1C;}
	.st5{fill:#659C35;}
</style>
<g>
	<g transform="translate(-1)">
		<g>
			<path class="st0" d="M7,45.2c-0.2,0-0.4,0-0.5-0.1c-0.3-0.2-0.4-0.6-0.2-0.9l1.5-2.3c0.2-0.3,0.6-0.4,0.9-0.2
				c0.3,0.2,0.4,0.6,0.2,0.9l-1.5,2.3C7.3,45,7.2,45.2,7,45.2"/>
			<path class="st0" d="M5.9,43.3c-0.3,0.1-0.7-0.1-0.8-0.4c-0.1-0.4,0-0.8,0.4-0.9l2-0.9c0.3-0.2,0.8,0,0.9,0.4
				c0.1,0.4,0,0.8-0.4,0.9l-2,0.9C5.9,43.3,5.9,43.3,5.9,43.3"/>
			<path class="st0" d="M9.2,45.4c0,0-0.1,0-0.1,0c-0.4,0-0.7-0.3-0.7-0.6l-0.1-2.2c0-0.4,0.3-0.7,0.6-0.7c0.4,0,0.7,0.3,0.7,0.6
				l0.1,2.2C9.7,45,9.5,45.3,9.2,45.4"/>
		</g>
		<path class="st1" d="M36,14.5c0.8-0.5,1.1-1.5,0.6-2.4l-1.5-2.4c-0.3-0.5-1-0.7-1.6-0.4l-6.2,3.4l0.5-7.3C28,4.7,27.5,4.1,26.8,4
			l-4.6-0.3c-0.7,0-1.2,0.5-1.3,1.1L20.5,12c-0.2,2.8-1,5.6-2.5,8l-5.1,8.3C11.2,31,9.5,33.6,7.3,36c-0.1,0.1-0.2,0.3-0.4,0.5
			c-1,1.6-0.8,3.8,0.5,5.1c2,1.9,5.1,1.5,6.5-0.7c0.1-0.2,0.2-0.4,0.3-0.6c1.1-2.8,2.6-5.4,4.2-7.9l5.3-8.6c1.5-2.5,3.7-4.5,6.3-5.9
			L36,14.5z"/>
		<path class="st2" d="M10,32.7c-0.8,1.1-1.7,2.3-2.6,3.3c-0.1,0.1-0.2,0.3-0.4,0.5c-1,1.6-0.8,3.8,0.5,5.1c2,1.9,5.1,1.5,6.5-0.7
			c0.1-0.2,0.2-0.4,0.3-0.6c0.5-1.3,1.1-2.6,1.8-3.8l-0.8-1.5c-0.2-0.5-0.7-0.7-1.2-0.6c-0.6,0.1-1.2-0.2-1.3-0.8
			c-0.1-0.5-0.6-0.8-1.1-0.8L10,32.7z"/>
		<path class="st3" d="M9.9,40.6c-0.2,0-0.4,0-0.5-0.1c-0.6-0.4-0.9-1-0.9-1.3s-0.1-0.9,0.3-1.6c0.2-0.3,0.6-0.4,0.9-0.2
			c0.3,0.2,0.4,0.6,0.2,0.9c-0.1,0.2-0.1,0.4-0.1,0.5c0,0.1,0.1,0.3,0.3,0.4c0.3,0.2,0.4,0.6,0.2,0.9C10.2,40.4,10,40.5,9.9,40.6"/>
		<path class="st4" d="M23.9,3.9L26.7,4l0.1,0l0,0l0,0c0.7,0,1.2,0.6,1.1,1.3l-0.5,7.3l2.9-1.6l0.8-8.5c0.1-0.7-0.5-1.3-1.1-1.3
			L25.3,1c-0.7,0-1.2,0.5-1.3,1.1L23.9,3.9z"/>
		<g>
			<path class="st5" d="M17.9,21.1c-0.2,0-0.4,0-0.6-0.1c-0.3-0.2-0.4-0.7-0.1-1c2.7-3.7,5.8-6.2,10-8c0.3-0.2,0.8,0,0.9,0.4
				c0.2,0.3,0,0.8-0.4,0.9c-4,1.7-6.8,4-9.4,7.6C18.2,21,18,21.1,17.9,21.1"/>
			<path class="st5" d="M32,14.5c-0.3,0.1-0.6-0.1-0.8-0.3c-0.2-0.3-0.1-0.8,0.3-0.9l1.9-1.1c0.3-0.2,0.8-0.1,0.9,0.3
				c0.2,0.3,0.1,0.8-0.3,0.9l-1.9,1.1C32.2,14.5,32.1,14.5,32,14.5"/>
			<path class="st5" d="M22.9,21c-0.2,0-0.4,0-0.6-0.1c-0.3-0.2-0.3-0.7-0.1-1c1.5-1.8,3.2-3.3,5.3-4.4l2-1.1
				c0.3-0.2,0.8-0.1,0.9,0.3c0.2,0.3,0.1,0.8-0.3,0.9l-2,1.1c-1.9,1-3.5,2.4-4.9,4.1C23.2,20.9,23.1,21,22.9,21"/>
			<path class="st5" d="M18.8,27.4c-0.2,0-0.4,0-0.5-0.1c-0.3-0.2-0.4-0.6-0.2-0.9l2.5-4.1c0.2-0.3,0.6-0.4,0.9-0.2
				c0.3,0.2,0.4,0.6,0.2,0.9l-2.5,4.1C19.2,27.3,19,27.4,18.8,27.4"/>
			<path class="st5" d="M16.3,31.5c-0.2,0-0.4,0-0.5-0.1c-0.3-0.2-0.4-0.6-0.2-0.9l1.1-1.8c0.2-0.3,0.6-0.4,0.9-0.2
				c0.3,0.2,0.4,0.6,0.2,0.9l-1.1,1.8C16.6,31.4,16.5,31.5,16.3,31.5"/>
			<path class="st5" d="M23.2,13c-0.1,0-0.1,0-0.2,0c-0.4,0-0.7-0.3-0.6-0.7l0.4-6.3c0-0.4,0.3-0.7,0.7-0.6c0.4,0,0.7,0.3,0.6,0.7
				l-0.4,6.3C23.7,12.7,23.4,13,23.2,13"/>
			<path class="st5" d="M38.7,8.5l-2-3.1C36.4,4.8,35.6,4.7,35,5L30.6,8l-0.3,3.1l3.3-1.8c0.6-0.3,1.3-0.1,1.6,0.4l1.2,1.9l1.9-1.4
				C38.9,9.9,39,9.1,38.7,8.5"/>
		</g>
	</g>
</g>
<g>
	<g transform="translate(-1)">
		<g>
			<path class="st0" d="M16.3,48.8c-0.2,0-0.4,0-0.5-0.1c-0.3-0.2-0.4-0.6-0.2-0.9l1.5-2.3c0.2-0.3,0.6-0.4,0.9-0.2
				c0.3,0.2,0.4,0.6,0.2,0.9l-1.5,2.3C16.6,48.7,16.4,48.8,16.3,48.8"/>
			<path class="st0" d="M15.1,46.9c-0.3,0.1-0.7-0.1-0.8-0.4c-0.1-0.4,0-0.8,0.4-0.9l2-0.9c0.3-0.2,0.8,0,0.9,0.4
				c0.1,0.4,0,0.8-0.4,0.9l-2,0.9C15.2,46.9,15.2,46.9,15.1,46.9"/>
			<path class="st0" d="M18.4,49c0,0-0.1,0-0.1,0c-0.4,0-0.7-0.3-0.7-0.6l-0.1-2.2c0-0.4,0.3-0.7,0.6-0.7c0.4,0,0.7,0.3,0.7,0.6
				l0.1,2.2C19,48.6,18.8,48.9,18.4,49"/>
		</g>
		<path class="st1" d="M45.3,18.1c0.8-0.5,1.1-1.5,0.6-2.4l-1.5-2.4c-0.3-0.5-1-0.7-1.6-0.4l-6.2,3.4l0.5-7.3
			c0.1-0.7-0.5-1.3-1.1-1.3l-4.6-0.3c-0.7,0-1.2,0.5-1.3,1.1l-0.4,7.1c-0.2,2.8-1,5.6-2.5,8l-5.1,8.3c-1.7,2.7-3.4,5.3-5.5,7.7
			c-0.1,0.1-0.2,0.3-0.4,0.5c-1,1.6-0.8,3.8,0.5,5.1c2,1.9,5.1,1.5,6.5-0.7c0.1-0.2,0.2-0.4,0.3-0.6c1.1-2.8,2.6-5.4,4.2-7.9
			l5.3-8.6c1.5-2.5,3.7-4.5,6.3-5.9L45.3,18.1z"/>
		<path class="st2" d="M19.2,36.3c-0.8,1.1-1.7,2.3-2.6,3.3c-0.1,0.1-0.2,0.3-0.4,0.5c-1,1.6-0.8,3.8,0.5,5.1c2,1.9,5.1,1.5,6.5-0.7
			c0.1-0.2,0.2-0.4,0.3-0.6c0.5-1.3,1.1-2.6,1.8-3.8l-0.8-1.5c-0.2-0.5-0.7-0.7-1.2-0.6c-0.6,0.1-1.2-0.2-1.3-0.8
			c-0.1-0.5-0.6-0.8-1.1-0.8L19.2,36.3z"/>
		<path class="st3" d="M19.1,44.2c-0.2,0-0.4,0-0.5-0.1c-0.6-0.4-0.9-1-0.9-1.3c-0.1-0.3-0.1-0.9,0.3-1.6c0.2-0.3,0.6-0.4,0.9-0.2
			c0.3,0.2,0.4,0.6,0.2,0.9C19,42.2,19,42.4,19,42.5c0,0.1,0.1,0.3,0.3,0.4c0.3,0.2,0.4,0.6,0.2,0.9C19.5,44,19.3,44.1,19.1,44.2"/>
		<path class="st4" d="M33.2,7.5L36,7.6l0.1,0l0,0l0,0c0.7,0,1.2,0.6,1.1,1.3l-0.5,7.3l2.9-1.6l0.8-8.5c0.1-0.7-0.5-1.3-1.1-1.3
			l-4.6-0.3c-0.7,0-1.2,0.5-1.3,1.1L33.2,7.5z"/>
		<g>
			<path class="st5" d="M27.1,24.7c-0.2,0-0.4,0-0.6-0.1c-0.3-0.2-0.4-0.7-0.1-1c2.7-3.7,5.8-6.2,10-8c0.3-0.2,0.8,0,0.9,0.4
				c0.2,0.3,0,0.8-0.4,0.9c-4,1.7-6.8,4-9.4,7.6C27.4,24.6,27.3,24.7,27.1,24.7"/>
			<path class="st5" d="M41.3,18.1c-0.3,0.1-0.6-0.1-0.8-0.3c-0.2-0.3-0.1-0.8,0.3-0.9l1.9-1.1c0.3-0.2,0.8-0.1,0.9,0.3
				c0.2,0.3,0.1,0.8-0.3,0.9L41.5,18C41.4,18.1,41.4,18.1,41.3,18.1"/>
			<path class="st5" d="M32.2,24.6c-0.2,0-0.4,0-0.6-0.1c-0.3-0.2-0.3-0.7-0.1-1c1.5-1.8,3.2-3.3,5.3-4.4l2-1.1
				c0.3-0.2,0.8-0.1,0.9,0.3c0.2,0.3,0.1,0.8-0.3,0.9l-2,1.1c-1.9,1-3.5,2.4-4.9,4.1C32.5,24.5,32.4,24.6,32.2,24.6"/>
			<path class="st5" d="M28.1,31c-0.2,0-0.4,0-0.5-0.1c-0.3-0.2-0.4-0.6-0.2-0.9l2.5-4.1c0.2-0.3,0.6-0.4,0.9-0.2
				c0.3,0.2,0.4,0.6,0.2,0.9l-2.5,4.1C28.4,30.9,28.3,31,28.1,31"/>
			<path class="st5" d="M25.6,35.1c-0.2,0-0.4,0-0.5-0.1c-0.3-0.2-0.4-0.6-0.2-0.9l1.1-1.8c0.2-0.3,0.6-0.4,0.9-0.2
				c0.3,0.2,0.4,0.6,0.2,0.9L26,34.8C25.9,35,25.7,35.1,25.6,35.1"/>
			<path class="st5" d="M32.4,16.7c-0.1,0-0.1,0-0.2,0c-0.4,0-0.7-0.3-0.6-0.7l0.4-6.3C32,9.3,32.3,9,32.7,9c0.4,0,0.7,0.3,0.6,0.7
				L33,16C32.9,16.3,32.7,16.6,32.4,16.7"/>
			<path class="st5" d="M47.9,12.1L46,9c-0.4-0.6-1.1-0.7-1.7-0.4l-4.4,2.9l-0.3,3.1l3.3-1.8c0.6-0.3,1.3-0.1,1.6,0.4l1.2,1.9
				l1.9-1.4C48.1,13.5,48.3,12.7,47.9,12.1"/>
		</g>
	</g>
</g>
</svg>
