<?xml version="1.0" encoding="utf-8"?>
<!-- Generator: Adobe Illustrator 19.0.1, SVG Export Plug-In . SVG Version: 6.00 Build 0)  -->
<svg version="1.1" id="strawberry_x5F_grow" xmlns="http://www.w3.org/2000/svg" xmlns:xlink="http://www.w3.org/1999/xlink"
	 x="0px" y="0px" viewBox="-223 225 512 512" style="enable-background:new -223 225 512 512;" xml:space="preserve">
<style type="text/css">
	.st0{fill:#88C057;}
</style>
<g>
	<g>
		<path class="st0" d="M-123.6,513c15.2,9.5,9,22.4,6.4,26.7c-3.6-2.5-5.6-3.7-10.6-8.2c1.5-5.6-4-14.6-4-14.6
			c2.5,6.2,2.3,11.2,2,13c-0.3-0.3-5.8-6.1-8.7-7.6c-0.6-5.3-5.7-9.1-5.7-9.1c-0.1,0.2,2.3,2.6,3.2,7.6c-8.4-4.2-15.5-3-15.5-3
			s6.7,1.1,14.5,5c-4.9,1.7-8.5,0.9-8.6,1c0,0,6.1,2.7,11.1,0.4c3.4,2.3,6.7,6.2,8.1,7.6c-0.3,0.2-5.5,2.5-13.6,2
			c0,0,10.6,3,15.4-0.4c3,3,3.7,3.8,10.7,8.5c-7.7,13.8-25.9,5.3-31.1-3.6c-5.3-9.1-5.1-13.2-20.7-20.1
			C-157.5,506.5-135.9,505.2-123.6,513z M-111.1,541.5c3.7,9.1,14.2,2.7,16.7-5c2.2-6.6,6.2-12.7,6.2-12.7s-28.6-2.6-23.4,16.1
			c0,0.1,0.1,0.2,0.1,0.3c2.7-3.4,6.7-7,12.5-9.6C-104.5,533.9-108.4,537.9-111.1,541.5z M-116.7,551c0.5,1.2,2.1,0.5,2.1,0.5
			c0.3-1.6,0.6-2.6,0.6-4.5c0.4-0.7,1.1-2.8,3-4.4c-0.1-0.2-0.2-0.3-0.3-0.5c-1.7,1.4-2.7,2.7-3.1,3.5c-0.3-2.3-1.5-4.2-4.6-6.3
			c0,0-1.2,0.7-1.2,0.7C-114.9,543.3-115.8,550-116.7,551z"/>
	</g>
</g>
<g>
	<g>
		<path class="st0" d="M39.1,419.7c15.2,9.5,9,22.4,6.4,26.7c-3.6-2.5-5.6-3.7-10.6-8.2c1.5-5.6-4-14.6-4-14.6
			c2.5,6.2,2.3,11.2,2,13c-0.3-0.3-5.8-6.1-8.7-7.6c-0.6-5.3-5.7-9.1-5.7-9.1c-0.1,0.2,2.3,2.6,3.2,7.6c-8.4-4.2-15.5-3-15.5-3
			s6.7,1.1,14.5,5c-4.9,1.7-8.5,0.9-8.6,1c0,0,6.1,2.7,11.1,0.4c3.4,2.3,6.7,6.2,8.1,7.6c-0.3,0.2-5.5,2.5-13.6,2
			c0,0,10.6,3,15.4-0.4c3,3,3.7,3.8,10.7,8.5c-7.7,13.8-25.9,5.3-31.1-3.6c-5.3-9.1-5.1-13.2-20.7-20.1
			C5.1,413.2,26.7,411.9,39.1,419.7z M51.6,448.3c3.7,9.1,14.2,2.7,16.7-5c2.2-6.6,6.2-12.7,6.2-12.7s-28.6-2.6-23.4,16.1
			c0,0.1,0.1,0.2,0.1,0.3c2.7-3.4,6.7-7,12.5-9.6C58.2,440.6,54.3,444.6,51.6,448.3z M46,457.7c0.5,1.2,2.1,0.5,2.1,0.5
			c0.3-1.6,0.6-2.6,0.6-4.5c0.4-0.7,1.1-2.8,3-4.4c-0.1-0.2-0.2-0.3-0.3-0.5c-1.7,1.4-2.7,2.7-3.1,3.5c-0.3-2.3-1.5-4.2-4.6-6.3
			c0,0-1.2,0.7-1.2,0.7C47.8,450,46.9,456.7,46,457.7z"/>
	</g>
</g>
<g>
	<g>
		<path class="st0" d="M40.1,607c15.2,9.5,9,22.4,6.4,26.7c-3.6-2.5-5.6-3.7-10.6-8.2c1.5-5.6-4-14.6-4-14.6c2.5,6.2,2.3,11.2,2,13
			c-0.3-0.3-5.8-6.1-8.7-7.6c-0.6-5.3-5.7-9.1-5.7-9.1c-0.1,0.2,2.3,2.6,3.2,7.6c-8.4-4.2-15.5-3-15.5-3s6.7,1.1,14.5,5
			c-4.9,1.7-8.5,0.9-8.6,1c0,0,6.1,2.7,11.1,0.4c3.4,2.3,6.7,6.2,8.1,7.6c-0.3,0.2-5.5,2.5-13.6,2c0,0,10.6,3,15.4-0.4
			c3,3,3.7,3.8,10.7,8.5c-7.7,13.8-25.9,5.3-31.1-3.6c-5.3-9.1-5.1-13.2-20.7-20.1C6.1,600.5,27.7,599.2,40.1,607z M52.6,635.5
			c3.7,9.1,14.2,2.7,16.7-5c2.2-6.6,6.2-12.7,6.2-12.7s-28.6-2.6-23.4,16.1c0,0.1,0.1,0.2,0.1,0.3c2.7-3.4,6.7-7,12.5-9.6
			C59.2,627.9,55.3,631.9,52.6,635.5z M47,645c0.5,1.2,2.1,0.5,2.1,0.5c0.3-1.6,0.6-2.6,0.6-4.5c0.4-0.7,1.1-2.8,3-4.4
			c-0.1-0.2-0.2-0.3-0.3-0.5c-1.7,1.4-2.7,2.7-3.1,3.5c-0.3-2.3-1.5-4.2-4.6-6.3c0,0-1.2,0.7-1.2,0.7C48.8,637.3,47.9,644,47,645z"
			/>
	</g>
</g>
<g>
	<g>
		<path class="st0" d="M199.3,512.6c15.2,9.5,9,22.4,6.4,26.7c-3.6-2.5-5.6-3.7-10.6-8.2c1.5-5.6-4-14.6-4-14.6
			c2.5,6.2,2.3,11.2,2,13c-0.3-0.3-5.8-6.1-8.7-7.6c-0.6-5.3-5.7-9.1-5.7-9.1c-0.1,0.2,2.3,2.6,3.2,7.6c-8.4-4.2-15.5-3-15.5-3
			s6.7,1.1,14.5,5c-4.9,1.7-8.5,0.9-8.6,1c0,0,6.1,2.7,11.1,0.4c3.4,2.3,6.7,6.2,8.1,7.6c-0.3,0.2-5.5,2.5-13.6,2
			c0,0,10.6,3,15.4-0.4c3,3,3.7,3.8,10.7,8.5c-7.7,13.8-25.9,5.3-31.1-3.6c-5.3-9.1-5.1-13.2-20.7-20.1
			C165.4,506.1,186.9,504.8,199.3,512.6z M211.8,541.1c3.7,9.1,14.2,2.7,16.7-5c2.2-6.6,6.2-12.7,6.2-12.7s-28.6-2.6-23.4,16.1
			c0,0.1,0.1,0.2,0.1,0.3c2.7-3.4,6.7-7,12.5-9.6C218.4,533.5,214.5,537.5,211.8,541.1z M206.2,550.6c0.5,1.2,2.1,0.5,2.1,0.5
			c0.3-1.6,0.6-2.6,0.6-4.5c0.4-0.7,1.1-2.8,3-4.4c-0.1-0.2-0.2-0.3-0.3-0.5c-1.7,1.4-2.7,2.7-3.1,3.5c-0.3-2.3-1.5-4.2-4.6-6.3
			c0,0-1.2,0.7-1.2,0.7C208,542.9,207.1,549.6,206.2,550.6z"/>
	</g>
</g>
</svg>
