<?xml version="1.0" encoding="utf-8"?>
<!-- Generator: Adobe Illustrator 19.0.1, SVG Export Plug-In . SVG Version: 6.00 Build 0)  -->
<svg version="1.1" id="strawberry_x5F_warn" xmlns="http://www.w3.org/2000/svg" xmlns:xlink="http://www.w3.org/1999/xlink"
	 x="0px" y="0px" viewBox="-223 225 512 512" style="enable-background:new -223 225 512 512;" xml:space="preserve">
<style type="text/css">
	.st0{clip-path:url(#SVGID_2_);}
	.st1{fill:#FBD303;}
	.st2{fill:#646B79;}
	.st3{clip-path:url(#SVGID_4_);}
	.st4{fill:none;stroke:#659C35;stroke-miterlimit:10;}
	.st5{fill:#88C057;}
	.st6{fill:#659C35;}
	.st7{fill:#E22F37;}
	.st8{fill:#994530;}
	.st9{clip-path:url(#SVGID_6_);}
	.st10{clip-path:url(#SVGID_8_);}
	.st11{font-family:'Arial-Black';}
	.st12{font-size:21.0661px;}
	.st13{font-size:20.1175px;}
</style>
<g>
	<defs>
		<polygon id="SVGID_1_" points="37.1,373.9 242,492.9 241.8,541.1 37.6,422.6 		"/>
	</defs>
	<clipPath id="SVGID_2_">
		<use xlink:href="#SVGID_1_"  style="overflow:visible;"/>
	</clipPath>
	<g class="st0">
		<polygon class="st1" points="37.1,347.9 242,466.9 241.8,515.1 37.6,396.6 		"/>
		<g>
			<polygon class="st2" points="242,466.9 230.3,460.1 191.1,485.7 221,503.1 241.9,489.6 			"/>
			<polygon class="st2" points="163.8,469.8 133.9,452.5 172.9,426.8 202.9,444.2 			"/>
			<polygon class="st2" points="106.5,436.6 76.6,419.2 115.4,393.4 145.4,410.8 			"/>
			<polygon class="st2" points="58,360.1 37.4,373.8 37.6,396.6 49.3,403.4 88,377.5 			"/>
		</g>
	</g>
</g>
<g>
	<defs>
		<polygon id="SVGID_3_" points="-167.2,467.1 37,348.5 37.2,396.7 -167.7,515.7 		"/>
	</defs>
	<clipPath id="SVGID_4_">
		<use xlink:href="#SVGID_3_"  style="overflow:visible;"/>
	</clipPath>
	<g class="st3">
		<polygon class="st1" points="-167.2,493.1 37,374.5 37.2,422.7 -167.7,541.7 		"/>
		<g>
			<polygon class="st2" points="37.1,400.1 16.2,386.6 -13.7,404 25.5,429.5 37.2,422.7 			"/>
			<polygon class="st2" points="-1.9,445.5 -31.9,462.9 -70.9,437.2 -41,419.8 			"/>
			<polygon class="st2" points="-59.4,478.8 -89.4,496.3 -128.1,470.4 -98.3,453.1 			"/>
			<polygon class="st2" points="-116.8,512.2 -155.5,486.3 -167.2,493.1 -167.4,515.8 -146.8,529.6 			"/>
		</g>
	</g>
</g>
<g>
	<path class="st4" d="M70.9,612.8c4.2,1.3,6.5,3.3,7.6,4.6c0.2,0.2,0.4,0.4,0.4,0.5c2,2.6,2.7,5.5,2.9,7.6"/>
	<path class="st4" d="M-2.2,615.4c-4.8-1.1-8.1-0.3-9.9,0.4c-0.3,0.1-0.6,0.2-0.7,0.3c-3.4,1.5-5.6,3.9-7,5.8"/>
	<g>
		<g>
			<path class="st5" d="M31.5,561.9c28.4,19.7,16.9,46.1,11.9,54.9c-6.8-5.2-10.5-7.5-19.7-17c2.7-11.6-7.4-30.1-7.4-30.1
				c4.8,12.8,4.2,23.1,3.8,26.8c-0.6-0.7-10.8-12.4-16.3-15.7c-1-11-10.7-18.7-10.7-18.7c-0.2,0.3,4.3,5.3,6.1,15.7
				c-15.7-8.7-29-6.2-29-6.2s12.6,2.2,27.1,10.4c-9.2,3.5-15.9,1.8-16.1,2.1c0,0,11.5,5.5,20.8,0.8c6.4,4.7,12.5,12.7,15.1,15.6
				c-0.6,0.3-10.2,5.2-25.5,4.1c0,0,19.8,6.1,28.8-0.9c5.6,6.1,7,7.8,20,17.4c-14.4,28.4-48.5,10.9-58.1-7.3
				c-10-18.8-9.5-27.3-38.8-41.4C-32.1,548.5,8.3,545.8,31.5,561.9z M54.8,620.6c7,18.8,26.5,5.6,31.2-10.2
				c4.1-13.7,11.5-26.2,11.5-26.2s-53.5-5.4-43.8,33.2c0.1,0.2,0.1,0.4,0.2,0.6c5.1-7,12.6-14.4,23.3-19.8
				C67.1,604.9,59.9,613.1,54.8,620.6z M44.2,640.1c0.9,2.4,4,1.1,4,1.1c0.5-3.3,1.1-5.3,1.1-9.3c0.8-1.4,2.1-5.8,5.5-9
				c-0.2-0.3-0.4-0.6-0.5-1c-3.2,2.8-5,5.5-5.8,7.1c-0.5-4.8-2.8-8.6-8.6-13c0,0-2.2,1.5-2.3,1.5C47.7,624.2,45.9,638.1,44.2,640.1z
				"/>
		</g>
	</g>
	<g>
		<polygon class="st6" points="82.5,627.6 81.6,627.6 81.1,625 82.6,624.8 		"/>
		<path class="st5" d="M84.3,627.5c0.3-0.2,0.6-0.6,0.8-0.9c-1.5-0.8-2.1-0.1-2.1-0.1c0-0.3-0.2-0.5-0.5-0.5l-0.1,1.6l0,0l0,0l0,0
			l-0.9,0.1l0,0l0,0l0,0l-0.3-1.6c-0.2,0.1-0.3,0.1-0.3,0.2c0,0-0.4-0.8-2-0.5c0.1,0.4,0.3,0.8,0.5,1.1c-1.3,0-2.5,0.3-3.2,1.3
			c2.8,1.3,3.9,0,3.9,0c-0.1,2,1.3,2.8,1.6,2.9c0.2,0,1.8-0.4,2.3-2.3c0,0,0.1,1.5,3.2,1C86.8,628.5,85.6,627.9,84.3,627.5z"/>
		<g>
			<path class="st7" d="M86.7,629.8C86.7,629.8,86.7,629.7,86.7,629.8c-2.6,0.2-2.7-1.1-2.7-1.1c-0.4,1.9-2,2.3-2.3,2.3
				c-0.2-0.1-1.6-0.9-1.6-2.9c0,0-0.9,1.1-3.2,0.3c0,0,0,0,0,0c0,0,0,0,0,0c-0.8,0.6-1.3,1.7-1.5,3.3c-0.5,3.7,2.6,9.2,4.8,9.5
				s6.6-4.1,7.1-7.9C87.6,631.7,87.3,630.6,86.7,629.8C86.7,629.8,86.7,629.8,86.7,629.8z"/>
		</g>
		<path class="st8" d="M78.4,630.3c0-0.1-0.2-0.1-0.2,0c0,0-0.6,1.5-0.7,1.6c0,0.1,0,0.3,0.1,0.4c0.1,0.1,0.2,0.2,0.4,0.2
			s0.3,0,0.4-0.1c0.1-0.1,0.2-0.2,0.2-0.4C78.6,631.9,78.4,630.3,78.4,630.3z"/>
		<path class="st8" d="M81.7,631.9c0-0.1-0.2-0.1-0.2,0c0,0-0.6,1.5-0.7,1.6c0,0.1,0,0.3,0.1,0.4c0.1,0.1,0.2,0.2,0.4,0.2
			c0.1,0,0.3,0,0.4-0.1c0.1-0.1,0.2-0.2,0.2-0.4S81.7,631.9,81.7,631.9z"/>
		<path class="st8" d="M85.1,631.2c0-0.1-0.2-0.1-0.2,0c0,0-0.6,1.5-0.7,1.6s0,0.3,0.1,0.4c0.1,0.1,0.2,0.2,0.4,0.2
			c0.1,0,0.3,0,0.4-0.1c0.1-0.1,0.2-0.2,0.2-0.4C85.3,632.8,85.1,631.2,85.1,631.2z"/>
		<path class="st8" d="M79.3,634.3c0-0.1-0.2-0.1-0.2,0c0,0-0.6,1.5-0.7,1.6s0,0.3,0.1,0.4c0.1,0.1,0.2,0.2,0.4,0.2
			c0.1,0,0.3,0,0.4-0.1c0.1-0.1,0.2-0.2,0.2-0.4C79.5,635.9,79.3,634.3,79.3,634.3z"/>
		<path class="st8" d="M81,637.1c0-0.1-0.2-0.1-0.2,0c0,0-0.6,1.5-0.7,1.6c0,0.1,0,0.3,0.1,0.4c0.1,0.1,0.2,0.2,0.4,0.2
			c0.1,0,0.3,0,0.4-0.1c0.1-0.1,0.2-0.2,0.2-0.4C81.2,638.7,81,637.1,81,637.1z"/>
		<path class="st8" d="M83.4,634.8c0-0.1-0.2-0.1-0.2,0c0,0-0.6,1.5-0.7,1.6c0,0.1,0,0.3,0.1,0.4c0.1,0.1,0.2,0.2,0.4,0.2
			c0.1,0,0.3,0,0.4-0.1c0.1-0.1,0.2-0.2,0.2-0.4C83.6,636.4,83.4,634.8,83.4,634.8z"/>
	</g>
	<g>
		<polygon class="st6" points="-19.9,620.5 -18.3,621.4 -20,624.1 -21,623.7 		"/>
		<path class="st5" d="M-27.2,623.9c3.2,1.9,4,0.3,4,0.3c-0.4,2.3,1.3,3.5,1.5,3.6c0.3,0,2.2-0.3,3-2.5c0,0,0.6,1.9,4.4,1.8
			c-0.4-1.4-1.6-2.3-3.1-2.9c0.5-0.2,0.9-0.6,1.1-1c-1.7-1.2-2.5-0.4-2.5-0.4c0-0.1-0.1-0.2-0.2-0.3l-1,1.6l0,0l0,0l0,0l-0.9-0.5
			l0,0l0,0l0,0l0.6-1.8c-0.4-0.1-0.7,0-0.8,0.4c0,0-0.4-1-2.4-0.8c0,0.5,0.2,1,0.5,1.4C-24.6,622.7-26.2,622.8-27.2,623.9z"/>
		<g>
			<path class="st7" d="M-26.7,624.3c-1.1,0.6-1.8,1.8-2.3,3.8c-1.1,4.4,1.9,11.3,4.5,11.9c2.6,0.6,8.4-4.1,9.5-8.5
				c0.5-2,0.4-3.4-0.3-4.4c0,0,0,0,0,0c0,0,0,0,0,0c-2.9-0.2-3.4-1.8-3.4-1.8c-0.8,2.2-2.7,2.5-3,2.5c-0.2-0.2-1.9-1.3-1.5-3.6
				C-23.2,624.2-23.9,625.6-26.7,624.3C-26.7,624.2-26.7,624.2-26.7,624.3C-26.7,624.2-26.7,624.3-26.7,624.3z"/>
		</g>
		<path class="st8" d="M-18.6,630.4c0,0.2,0,0.4,0.1,0.5c0.1,0.2,0.2,0.3,0.4,0.3s0.4,0,0.5-0.1c0.2-0.1,0.3-0.2,0.3-0.4
			c0-0.2,0-2.1,0-2.1c0-0.1-0.2-0.2-0.3-0.1C-17.6,628.6-18.6,630.2-18.6,630.4z"/>
		<path class="st8" d="M-23,630.8c0,0.2,0,0.4,0.1,0.5c0.1,0.2,0.2,0.3,0.4,0.3c0.2,0,0.4,0,0.5-0.1c0.2-0.1,0.3-0.2,0.3-0.4
			c0-0.2,0-2.1,0-2.1c0-0.1-0.2-0.2-0.3-0.1C-22,628.9-23,630.6-23,630.8z"/>
		<path class="st8" d="M-26.5,628.5c0,0.2,0,0.4,0.1,0.5c0.1,0.2,0.2,0.3,0.4,0.3c0.2,0,0.4,0,0.5-0.1c0.2-0.1,0.3-0.2,0.3-0.4
			c0-0.2,0-2.1,0-2.1c0-0.1-0.2-0.2-0.3-0.1C-25.5,626.6-26.4,628.3-26.5,628.5z"/>
		<path class="st8" d="M-21.4,634.4c0,0.2,0,0.4,0.1,0.5c0.1,0.2,0.2,0.3,0.4,0.3c0.2,0,0.4,0,0.5-0.1c0.2-0.1,0.3-0.2,0.3-0.4
			c0-0.2,0-2.1,0-2.1c0-0.1-0.2-0.2-0.3-0.1C-20.4,632.6-21.3,634.3-21.4,634.4z"/>
		<path class="st8" d="M-24.5,636.9c0,0.2,0,0.4,0.1,0.5c0.1,0.2,0.2,0.3,0.4,0.3s0.4,0,0.5-0.1c0.2-0.1,0.3-0.2,0.3-0.4
			c0-0.2,0-2.1,0-2.1c0-0.1-0.2-0.2-0.3-0.1C-23.5,635.1-24.5,636.7-24.5,636.9z"/>
		<path class="st8" d="M-26.2,633.3c0,0.2,0,0.4,0.1,0.5c0.1,0.2,0.2,0.3,0.4,0.3c0.2,0,0.4,0,0.5-0.1c0.2-0.1,0.3-0.2,0.3-0.4
			c0-0.2,0-2.1,0-2.1c0-0.1-0.2-0.2-0.3-0.1C-25.2,631.4-26.1,633.1-26.2,633.3z"/>
	</g>
</g>
<g>
	<path class="st4" d="M241.3,518.9c4.2,1.3,6.5,3.3,7.6,4.6c0.2,0.2,0.4,0.4,0.4,0.5c2,2.6,2.7,5.5,2.9,7.6"/>
	<path class="st4" d="M168.2,521.5c-4.8-1.1-8.1-0.3-9.9,0.4c-0.3,0.1-0.6,0.2-0.7,0.3c-3.4,1.5-5.6,3.9-7,5.8"/>
	<g>
		<g>
			<path class="st5" d="M201.9,467.9c28.4,19.7,16.9,46.1,11.9,54.9c-6.8-5.2-10.5-7.5-19.7-17c2.7-11.6-7.4-30.1-7.4-30.1
				c4.8,12.8,4.2,23.1,3.8,26.8c-0.6-0.7-10.8-12.4-16.3-15.7c-1-11-10.7-18.7-10.7-18.7c-0.2,0.3,4.3,5.3,6.1,15.7
				c-15.7-8.7-29-6.2-29-6.2s12.6,2.2,27.1,10.4c-9.2,3.5-15.9,1.8-16.1,2.1c0,0,11.5,5.5,20.8,0.8c6.4,4.7,12.5,12.7,15.1,15.6
				c-0.6,0.3-10.2,5.2-25.5,4.1c0,0,19.8,6.1,28.8-0.9c5.6,6.1,7,7.8,20,17.4c-14.4,28.4-48.5,10.9-58.1-7.3
				c-10-18.8-9.5-27.3-38.8-41.4C138.3,454.6,178.7,451.9,201.9,467.9z M225.2,526.7c7,18.8,26.5,5.6,31.2-10.2
				c4.1-13.7,11.5-26.2,11.5-26.2s-53.5-5.4-43.8,33.2c0.1,0.2,0.1,0.4,0.2,0.6c5.1-7,12.6-14.4,23.3-19.8
				C237.5,511,230.3,519.2,225.2,526.7z M214.6,546.2c0.9,2.4,4,1.1,4,1.1c0.5-3.3,1.1-5.3,1.1-9.3c0.8-1.4,2.1-5.8,5.5-9
				c-0.2-0.3-0.4-0.6-0.5-1c-3.2,2.8-5,5.5-5.8,7.1c-0.5-4.8-2.8-8.6-8.6-13c0,0-2.2,1.5-2.3,1.5
				C218.1,530.3,216.3,544.1,214.6,546.2z"/>
		</g>
	</g>
	<g>
		<polygon class="st6" points="252.9,533.6 252,533.7 251.5,531.1 253,530.9 		"/>
		<path class="st5" d="M254.7,533.6c0.3-0.2,0.6-0.6,0.8-0.9c-1.5-0.8-2.1-0.1-2.1-0.1c0-0.3-0.2-0.5-0.5-0.5l-0.1,1.6l0,0l0,0l0,0
			l-0.9,0.1l0,0l0,0l0,0l-0.3-1.6c-0.2,0.1-0.3,0.1-0.3,0.2c0,0-0.4-0.8-2-0.5c0.1,0.4,0.3,0.8,0.5,1.1c-1.3,0-2.5,0.3-3.2,1.3
			c2.8,1.3,3.9,0,3.9,0c-0.1,2,1.3,2.8,1.6,2.9c0.2,0,1.8-0.4,2.3-2.3c0,0,0.1,1.5,3.2,1C257.2,534.6,256,534,254.7,533.6z"/>
		<g>
			<path class="st7" d="M257.1,535.8C257.1,535.8,257.1,535.8,257.1,535.8c-2.6,0.2-2.7-1.1-2.7-1.1c-0.4,1.9-2,2.3-2.3,2.3
				c-0.2-0.1-1.6-0.9-1.6-2.9c0,0-0.9,1.1-3.2,0.3c0,0,0,0,0,0c0,0,0,0,0,0c-0.8,0.6-1.3,1.7-1.5,3.3c-0.5,3.7,2.6,9.2,4.8,9.5
				s6.6-4.1,7.1-7.9C258,537.8,257.7,536.6,257.1,535.8C257.1,535.8,257.1,535.8,257.1,535.8z"/>
		</g>
		<path class="st8" d="M248.8,536.4c0-0.1-0.2-0.1-0.2,0c0,0-0.6,1.5-0.7,1.6c0,0.1,0,0.3,0.1,0.4c0.1,0.1,0.2,0.2,0.4,0.2
			c0.1,0,0.3,0,0.4-0.1c0.1-0.1,0.2-0.2,0.2-0.4C249.1,538,248.8,536.4,248.8,536.4z"/>
		<path class="st8" d="M252.1,538c0-0.1-0.2-0.1-0.2,0c0,0-0.6,1.5-0.7,1.6c0,0.1,0,0.3,0.1,0.4c0.1,0.1,0.2,0.2,0.4,0.2
			c0.1,0,0.3,0,0.4-0.1c0.1-0.1,0.2-0.2,0.2-0.4C252.3,539.6,252.1,538,252.1,538z"/>
		<path class="st8" d="M255.5,537.3c0-0.1-0.2-0.1-0.2,0c0,0-0.6,1.5-0.7,1.6s0,0.3,0.1,0.4c0.1,0.1,0.2,0.2,0.4,0.2
			c0.1,0,0.3,0,0.4-0.1c0.1-0.1,0.2-0.2,0.2-0.4C255.7,538.9,255.5,537.3,255.5,537.3z"/>
		<path class="st8" d="M249.7,540.4c0-0.1-0.2-0.1-0.2,0c0,0-0.6,1.5-0.7,1.6s0,0.3,0.1,0.4c0.1,0.1,0.2,0.2,0.4,0.2
			c0.1,0,0.3,0,0.4-0.1c0.1-0.1,0.2-0.2,0.2-0.4C249.9,541.9,249.7,540.4,249.7,540.4z"/>
		<path class="st8" d="M251.4,543.2c0-0.1-0.2-0.1-0.2,0c0,0-0.6,1.5-0.7,1.6c0,0.1,0,0.3,0.1,0.4c0.1,0.1,0.2,0.2,0.4,0.2
			c0.1,0,0.3,0,0.4-0.1c0.1-0.1,0.2-0.2,0.2-0.4C251.6,544.8,251.4,543.2,251.4,543.2z"/>
		<path class="st8" d="M253.8,540.9c0-0.1-0.2-0.1-0.2,0c0,0-0.6,1.5-0.7,1.6c0,0.1,0,0.3,0.1,0.4c0.1,0.1,0.2,0.2,0.4,0.2
			s0.3,0,0.4-0.1c0.1-0.1,0.2-0.2,0.2-0.4C254,542.5,253.8,540.9,253.8,540.9z"/>
	</g>
	<g>
		<polygon class="st6" points="150.5,526.6 152.1,527.5 150.4,530.2 149.4,529.7 		"/>
		<path class="st5" d="M143.2,530c3.2,1.9,4,0.3,4,0.3c-0.4,2.3,1.3,3.5,1.5,3.6c0.3,0,2.2-0.3,3-2.5c0,0,0.6,1.9,4.4,1.8
			c-0.4-1.4-1.6-2.3-3.1-2.9c0.5-0.2,0.9-0.6,1.1-1c-1.7-1.2-2.5-0.4-2.5-0.4c0-0.1-0.1-0.2-0.2-0.3l-1,1.6l0,0l0,0l0,0l-0.9-0.5
			l0,0l0,0l0,0l0.6-1.8c-0.4-0.1-0.7,0-0.8,0.4c0,0-0.4-1-2.4-0.8c0,0.5,0.2,1,0.5,1.4C145.8,528.7,144.2,528.9,143.2,530z"/>
		<g>
			<path class="st7" d="M143.7,530.3c-1.1,0.6-1.8,1.8-2.3,3.8c-1.1,4.4,1.9,11.3,4.5,11.9c2.6,0.6,8.4-4.1,9.5-8.5
				c0.5-2,0.4-3.4-0.3-4.4c0,0,0,0,0,0c0,0,0,0,0,0c-2.9-0.2-3.4-1.8-3.4-1.8c-0.8,2.2-2.7,2.5-3,2.5c-0.2-0.2-1.9-1.3-1.5-3.6
				C147.2,530.3,146.5,531.7,143.7,530.3C143.7,530.3,143.7,530.3,143.7,530.3C143.7,530.3,143.7,530.3,143.7,530.3z"/>
		</g>
		<path class="st8" d="M151.8,536.5c0,0.2,0,0.4,0.1,0.5c0.1,0.2,0.2,0.3,0.4,0.3s0.4,0,0.5-0.1c0.2-0.1,0.3-0.2,0.3-0.4
			c0-0.2,0-2.1,0-2.1c0-0.1-0.2-0.2-0.3-0.1C152.8,534.6,151.8,536.3,151.8,536.5z"/>
		<path class="st8" d="M147.4,536.9c0,0.2,0,0.4,0.1,0.5c0.1,0.2,0.2,0.3,0.4,0.3c0.2,0,0.4,0,0.5-0.1c0.2-0.1,0.3-0.2,0.3-0.4
			c0-0.2,0-2.1,0-2.1c0-0.1-0.2-0.2-0.3-0.1C148.4,535,147.4,536.7,147.4,536.9z"/>
		<path class="st8" d="M143.9,534.6c0,0.2,0,0.4,0.1,0.5c0.1,0.2,0.2,0.3,0.4,0.3c0.2,0,0.4,0,0.5-0.1c0.2-0.1,0.3-0.2,0.3-0.4
			c0-0.2,0-2.1,0-2.1c0-0.1-0.2-0.2-0.3-0.1C144.9,532.7,144,534.4,143.9,534.6z"/>
		<path class="st8" d="M149,540.5c0,0.2,0,0.4,0.1,0.5c0.1,0.2,0.2,0.3,0.4,0.3c0.2,0,0.4,0,0.5-0.1c0.2-0.1,0.3-0.2,0.3-0.4
			c0-0.2,0-2.1,0-2.1c0-0.1-0.2-0.2-0.3-0.1C150,538.7,149.1,540.4,149,540.5z"/>
		<path class="st8" d="M145.9,543c0,0.2,0,0.4,0.1,0.5c0.1,0.2,0.2,0.3,0.4,0.3c0.2,0,0.4,0,0.5-0.1c0.2-0.1,0.3-0.2,0.3-0.4
			c0-0.2,0-2.1,0-2.1c0-0.1-0.2-0.2-0.3-0.1C146.9,541.1,145.9,542.8,145.9,543z"/>
		<path class="st8" d="M144.2,539.3c0,0.2,0,0.4,0.1,0.5c0.1,0.2,0.2,0.3,0.4,0.3c0.2,0,0.4,0,0.5-0.1c0.2-0.1,0.3-0.2,0.3-0.4
			c0-0.2,0-2.1,0-2.1c0-0.1-0.2-0.2-0.3-0.1C145.3,537.5,144.3,539.2,144.2,539.3z"/>
	</g>
</g>
<g>
	<path class="st4" d="M81.4,423.3c4.2,1.3,6.5,3.3,7.6,4.6c0.2,0.2,0.4,0.4,0.4,0.5c2,2.6,2.7,5.5,2.9,7.6"/>
	<path class="st4" d="M8.3,425.9c-4.8-1.1-8.1-0.3-9.9,0.4c-0.3,0.1-0.6,0.2-0.7,0.3c-3.4,1.5-5.6,3.9-7,5.8"/>
	<g>
		<g>
			<path class="st5" d="M41.9,372.3c28.4,19.7,16.9,46.1,11.9,54.9c-6.8-5.2-10.5-7.5-19.7-17c2.7-11.6-7.4-30.1-7.4-30.1
				c4.8,12.8,4.2,23.1,3.8,26.8c-0.6-0.7-10.8-12.4-16.3-15.7c-1-11-10.7-18.7-10.7-18.7c-0.2,0.3,4.3,5.3,6.1,15.7
				c-15.7-8.7-29-6.2-29-6.2s12.6,2.2,27.1,10.4c-9.2,3.5-15.9,1.8-16.1,2.1c0,0,11.5,5.5,20.8,0.8C19,400.1,25,408.1,27.6,411
				c-0.6,0.3-10.2,5.2-25.5,4.1c0,0,19.8,6.1,28.8-0.9c5.6,6.1,7,7.8,20,17.4c-14.4,28.4-48.5,10.9-58.1-7.3
				c-10-18.8-9.5-27.3-38.8-41.4C-21.6,359,18.8,356.3,41.9,372.3z M65.3,431.1c7,18.8,26.5,5.6,31.2-10.2
				c4.1-13.7,11.5-26.2,11.5-26.2s-53.5-5.4-43.8,33.2c0.1,0.2,0.1,0.4,0.2,0.6c5.1-7,12.6-14.4,23.3-19.8
				C77.6,415.4,70.3,423.6,65.3,431.1z M54.7,450.5c0.9,2.4,4,1.1,4,1.1c0.5-3.3,1.1-5.3,1.1-9.3c0.8-1.4,2.1-5.8,5.5-9
				c-0.2-0.3-0.4-0.6-0.5-1c-3.2,2.8-5,5.5-5.8,7.1c-0.5-4.8-2.8-8.6-8.6-13c0,0-2.2,1.5-2.3,1.5C58.1,434.7,56.4,448.5,54.7,450.5z
				"/>
		</g>
	</g>
	<g>
		<polygon class="st6" points="92.9,438 92.1,438.1 91.6,435.5 93.1,435.3 		"/>
		<path class="st5" d="M94.8,438c0.3-0.2,0.6-0.6,0.8-0.9c-1.5-0.8-2.1-0.1-2.1-0.1c0-0.3-0.2-0.5-0.5-0.5l-0.1,1.6l0,0l0,0l0,0
			l-0.9,0.1l0,0l0,0l0,0l-0.3-1.6c-0.2,0.1-0.3,0.1-0.3,0.2c0,0-0.4-0.8-2-0.5c0.1,0.4,0.3,0.8,0.5,1.1c-1.3,0-2.5,0.3-3.2,1.3
			c2.8,1.3,3.9,0,3.9,0c-0.1,2,1.3,2.8,1.6,2.9c0.2,0,1.8-0.4,2.3-2.3c0,0,0.1,1.5,3.2,1C97.2,439,96.1,438.3,94.8,438z"/>
		<g>
			<path class="st7" d="M97.2,440.2C97.2,440.2,97.2,440.2,97.2,440.2c-2.6,0.2-2.7-1.1-2.7-1.1c-0.4,1.9-2,2.3-2.3,2.3
				c-0.2-0.1-1.6-0.9-1.6-2.9c0,0-0.9,1.1-3.2,0.3c0,0,0,0,0,0c0,0,0,0,0,0c-0.8,0.6-1.3,1.7-1.5,3.3c-0.5,3.7,2.6,9.2,4.8,9.5
				s6.6-4.1,7.1-7.9C98,442.2,97.8,441,97.2,440.2C97.2,440.2,97.2,440.2,97.2,440.2z"/>
		</g>
		<path class="st8" d="M88.9,440.8c0-0.1-0.2-0.1-0.2,0c0,0-0.6,1.5-0.7,1.6c0,0.1,0,0.3,0.1,0.4c0.1,0.1,0.2,0.2,0.4,0.2
			c0.1,0,0.3,0,0.4-0.1c0.1-0.1,0.2-0.2,0.2-0.4C89.1,442.4,88.9,440.8,88.9,440.8z"/>
		<path class="st8" d="M92.1,442.4c0-0.1-0.2-0.1-0.2,0c0,0-0.6,1.5-0.7,1.6c0,0.1,0,0.3,0.1,0.4c0.1,0.1,0.2,0.2,0.4,0.2
			c0.1,0,0.3,0,0.4-0.1c0.1-0.1,0.2-0.2,0.2-0.4C92.4,444,92.1,442.4,92.1,442.4z"/>
		<path class="st8" d="M95.5,441.7c0-0.1-0.2-0.1-0.2,0c0,0-0.6,1.5-0.7,1.6c0,0.1,0,0.3,0.1,0.4c0.1,0.1,0.2,0.2,0.4,0.2
			c0.1,0,0.3,0,0.4-0.1c0.1-0.1,0.2-0.2,0.2-0.4S95.5,441.7,95.5,441.7z"/>
		<path class="st8" d="M89.8,444.7c0-0.1-0.2-0.1-0.2,0c0,0-0.6,1.5-0.7,1.6c0,0.1,0,0.3,0.1,0.4c0.1,0.1,0.2,0.2,0.4,0.2
			c0.1,0,0.3,0,0.4-0.1c0.1-0.1,0.2-0.2,0.2-0.4C90,446.3,89.8,444.7,89.8,444.7z"/>
		<path class="st8" d="M91.4,447.6c0-0.1-0.2-0.1-0.2,0c0,0-0.6,1.5-0.7,1.6c0,0.1,0,0.3,0.1,0.4c0.1,0.1,0.2,0.2,0.4,0.2
			c0.1,0,0.3,0,0.4-0.1c0.1-0.1,0.2-0.2,0.2-0.4S91.4,447.6,91.4,447.6z"/>
		<path class="st8" d="M93.8,445.3c0-0.1-0.2-0.1-0.2,0c0,0-0.6,1.5-0.7,1.6c0,0.1,0,0.3,0.1,0.4c0.1,0.1,0.2,0.2,0.4,0.2
			c0.1,0,0.3,0,0.4-0.1c0.1-0.1,0.2-0.2,0.2-0.4C94,446.9,93.8,445.3,93.8,445.3z"/>
	</g>
	<g>
		<polygon class="st6" points="-9.4,431 -7.9,431.9 -9.6,434.6 -10.5,434.1 		"/>
		<path class="st5" d="M-16.8,434.4c3.2,1.9,4,0.3,4,0.3c-0.4,2.3,1.3,3.5,1.5,3.6c0.3,0,2.2-0.3,3-2.5c0,0,0.6,1.9,4.4,1.8
			c-0.4-1.4-1.6-2.3-3.1-2.9c0.5-0.2,0.9-0.6,1.1-1c-1.7-1.2-2.5-0.4-2.5-0.4c0-0.1-0.1-0.2-0.2-0.3l-1,1.6l0,0l0,0l0,0l-0.9-0.5
			l0,0l0,0l0,0l0.6-1.8c-0.4-0.1-0.7,0-0.8,0.4c0,0-0.4-1-2.4-0.8c0,0.5,0.2,1,0.5,1.4C-14.1,433.1-15.7,433.3-16.8,434.4z"/>
		<g>
			<path class="st7" d="M-16.2,434.7c-1.1,0.6-1.8,1.8-2.3,3.8c-1.1,4.4,1.9,11.3,4.5,11.9c2.6,0.6,8.4-4.1,9.5-8.5
				c0.5-2,0.4-3.4-0.3-4.4c0,0,0,0,0,0c0,0,0,0,0,0c-2.9-0.2-3.4-1.8-3.4-1.8c-0.8,2.2-2.7,2.5-3,2.5c-0.2-0.2-1.9-1.3-1.5-3.6
				C-12.7,434.7-13.5,436.1-16.2,434.7C-16.2,434.7-16.2,434.7-16.2,434.7C-16.2,434.7-16.2,434.7-16.2,434.7z"/>
		</g>
		<path class="st8" d="M-8.2,440.9c0,0.2,0,0.4,0.1,0.5c0.1,0.2,0.2,0.3,0.4,0.3c0.2,0,0.4,0,0.5-0.1c0.2-0.1,0.3-0.2,0.3-0.4
			s0-2.1,0-2.1c0-0.1-0.2-0.2-0.3-0.1C-7.2,439-8.1,440.7-8.2,440.9z"/>
		<path class="st8" d="M-12.6,441.2c0,0.2,0,0.4,0.1,0.5c0.1,0.2,0.2,0.3,0.4,0.3c0.2,0,0.4,0,0.5-0.1c0.2-0.1,0.3-0.2,0.3-0.4
			c0-0.2,0-2.1,0-2.1c0-0.1-0.2-0.2-0.3-0.1C-11.5,439.4-12.5,441.1-12.6,441.2z"/>
		<path class="st8" d="M-16,438.9c0,0.2,0,0.4,0.1,0.5c0.1,0.2,0.2,0.3,0.4,0.3c0.2,0,0.4,0,0.5-0.1c0.2-0.1,0.3-0.2,0.3-0.4
			c0-0.2,0-2.1,0-2.1c0-0.1-0.2-0.2-0.3-0.1C-15,437.1-16,438.8-16,438.9z"/>
		<path class="st8" d="M-10.9,444.9c0,0.2,0,0.4,0.1,0.5c0.1,0.2,0.2,0.3,0.4,0.3s0.4,0,0.5-0.1c0.2-0.1,0.3-0.2,0.3-0.4
			s0-2.1,0-2.1c0-0.1-0.2-0.2-0.3-0.1C-9.9,443.1-10.9,444.7-10.9,444.9z"/>
		<path class="st8" d="M-14.1,447.4c0,0.2,0,0.4,0.1,0.5c0.1,0.2,0.2,0.3,0.4,0.3c0.2,0,0.4,0,0.5-0.1c0.2-0.1,0.3-0.2,0.3-0.4
			c0-0.2,0-2.1,0-2.1c0-0.1-0.2-0.2-0.3-0.1C-13.1,445.5-14,447.2-14.1,447.4z"/>
		<path class="st8" d="M-15.7,443.7c0,0.2,0,0.4,0.1,0.5c0.1,0.2,0.2,0.3,0.4,0.3c0.2,0,0.4,0,0.5-0.1c0.2-0.1,0.3-0.2,0.3-0.4
			c0-0.2,0-2.1,0-2.1c0-0.1-0.2-0.2-0.3-0.1C-14.7,441.9-15.7,443.5-15.7,443.7z"/>
	</g>
</g>
<g>
	<path class="st4" d="M-80.4,519.5c4.2,1.3,6.5,3.3,7.6,4.6c0.2,0.2,0.4,0.4,0.4,0.5c2,2.6,2.7,5.5,2.9,7.6"/>
	<path class="st4" d="M-153.6,522.1c-4.8-1.1-8.1-0.3-9.9,0.4c-0.3,0.1-0.6,0.2-0.7,0.3c-3.4,1.5-5.6,3.9-7,5.8"/>
	<g>
		<g>
			<path class="st5" d="M-119.9,468.6c28.4,19.7,16.9,46.1,11.9,54.9c-6.8-5.2-10.5-7.5-19.7-17c2.7-11.6-7.4-30.1-7.4-30.1
				c4.8,12.8,4.2,23.1,3.8,26.8c-0.6-0.7-10.8-12.4-16.3-15.7c-1-11-10.7-18.7-10.7-18.7c-0.2,0.3,4.3,5.3,6.1,15.7
				c-15.7-8.7-29-6.2-29-6.2s12.6,2.2,27.1,10.4c-9.2,3.5-15.9,1.8-16.1,2.1c0,0,11.5,5.5,20.8,0.8c6.4,4.7,12.5,12.7,15.1,15.6
				c-0.6,0.3-10.2,5.2-25.5,4.1c0,0,19.8,6.1,28.8-0.9c5.6,6.1,7,7.8,20,17.4c-14.4,28.4-48.5,10.9-58.1-7.3
				c-10-18.8-9.5-27.3-38.8-41.4C-183.5,455.2-143.1,452.5-119.9,468.6z M-96.6,527.3c7,18.8,26.5,5.6,31.2-10.2
				c4.1-13.7,11.5-26.2,11.5-26.2s-53.5-5.4-43.8,33.2c0.1,0.2,0.1,0.4,0.2,0.6c5.1-7,12.6-14.4,23.3-19.8
				C-84.3,511.6-91.5,519.8-96.6,527.3z M-107.2,546.8c0.9,2.4,4,1.1,4,1.1c0.5-3.3,1.1-5.3,1.1-9.3c0.8-1.4,2.1-5.8,5.5-9
				c-0.2-0.3-0.4-0.6-0.5-1c-3.2,2.8-5,5.5-5.8,7.1c-0.5-4.8-2.8-8.6-8.6-13c0,0-2.2,1.5-2.3,1.5
				C-103.7,530.9-105.4,544.8-107.2,546.8z"/>
		</g>
	</g>
	<g>
		<polygon class="st6" points="-68.9,534.2 -69.8,534.3 -70.3,531.7 -68.8,531.5 		"/>
		<path class="st5" d="M-67,534.2c0.3-0.2,0.6-0.6,0.8-0.9c-1.5-0.8-2.1-0.1-2.1-0.1c0-0.3-0.2-0.5-0.5-0.5l-0.1,1.6l0,0l0,0l0,0
			l-0.9,0.1l0,0l0,0l0,0l-0.3-1.6c-0.2,0.1-0.3,0.1-0.3,0.2c0,0-0.4-0.8-2-0.5c0.1,0.4,0.3,0.8,0.5,1.1c-1.3,0-2.5,0.3-3.2,1.3
			c2.8,1.3,3.9,0,3.9,0c-0.1,2,1.3,2.8,1.6,2.9c0.2,0,1.8-0.4,2.3-2.3c0,0,0.1,1.5,3.2,1C-64.6,535.2-65.8,534.6-67,534.2z"/>
		<g>
			<path class="st7" d="M-64.6,536.5C-64.6,536.4-64.6,536.4-64.6,536.5c-2.6,0.2-2.7-1.1-2.7-1.1c-0.4,1.9-2,2.3-2.3,2.3
				c-0.2-0.1-1.6-0.9-1.6-2.9c0,0-0.9,1.1-3.2,0.3c0,0,0,0,0,0c0,0,0,0,0,0c-0.8,0.6-1.3,1.7-1.5,3.3c-0.5,3.7,2.6,9.2,4.8,9.5
				s6.6-4.1,7.1-7.9C-63.8,538.4-64,537.3-64.6,536.5C-64.7,536.5-64.7,536.5-64.6,536.5z"/>
		</g>
		<path class="st8" d="M-73,537c0-0.1-0.2-0.1-0.2,0c0,0-0.6,1.5-0.7,1.6s0,0.3,0.1,0.4c0.1,0.1,0.2,0.2,0.4,0.2
			c0.1,0,0.3,0,0.4-0.1c0.1-0.1,0.2-0.2,0.2-0.4C-72.7,538.6-73,537-73,537z"/>
		<path class="st8" d="M-69.7,538.6c0-0.1-0.2-0.1-0.2,0c0,0-0.6,1.5-0.7,1.6c0,0.1,0,0.3,0.1,0.4c0.1,0.1,0.2,0.2,0.4,0.2
			c0.1,0,0.3,0,0.4-0.1c0.1-0.1,0.2-0.2,0.2-0.4C-69.5,540.2-69.7,538.6-69.7,538.6z"/>
		<path class="st8" d="M-66.3,537.9c0-0.1-0.2-0.1-0.2,0c0,0-0.6,1.5-0.7,1.6c0,0.1,0,0.3,0.1,0.4c0.1,0.1,0.2,0.2,0.4,0.2
			c0.1,0,0.3,0,0.4-0.1c0.1-0.1,0.2-0.2,0.2-0.4C-66.1,539.5-66.3,537.9-66.3,537.9z"/>
		<path class="st8" d="M-72.1,541c0-0.1-0.2-0.1-0.2,0c0,0-0.6,1.5-0.7,1.6s0,0.3,0.1,0.4c0.1,0.1,0.2,0.2,0.4,0.2
			c0.1,0,0.3,0,0.4-0.1c0.1-0.1,0.2-0.2,0.2-0.4C-71.9,542.6-72.1,541-72.1,541z"/>
		<path class="st8" d="M-70.4,543.8c0-0.1-0.2-0.1-0.2,0c0,0-0.6,1.5-0.7,1.6s0,0.3,0.1,0.4c0.1,0.1,0.2,0.2,0.4,0.2
			c0.1,0,0.3,0,0.4-0.1c0.1-0.1,0.2-0.2,0.2-0.4C-70.2,545.4-70.4,543.8-70.4,543.8z"/>
		<path class="st8" d="M-68,541.5c0-0.1-0.2-0.1-0.2,0c0,0-0.6,1.5-0.7,1.6s0,0.3,0.1,0.4c0.1,0.1,0.2,0.2,0.4,0.2
			c0.1,0,0.3,0,0.4-0.1c0.1-0.1,0.2-0.2,0.2-0.4C-67.8,543.1-68,541.5-68,541.5z"/>
	</g>
	<g>
		<polygon class="st6" points="-171.3,527.2 -169.7,528.1 -171.4,530.8 -172.3,530.4 		"/>
		<path class="st5" d="M-178.6,530.6c3.2,1.9,4,0.3,4,0.3c-0.4,2.3,1.3,3.5,1.5,3.6c0.3,0,2.2-0.3,3-2.5c0,0,0.6,1.9,4.4,1.8
			c-0.4-1.4-1.6-2.3-3.1-2.9c0.5-0.2,0.9-0.6,1.1-1c-1.7-1.2-2.5-0.4-2.5-0.4c0-0.1-0.1-0.2-0.2-0.3l-1,1.6l0,0l0,0l0,0l-0.9-0.5
			l0,0l0,0l0,0l0.6-1.8c-0.4-0.1-0.7,0-0.8,0.4c0,0-0.4-1-2.4-0.8c0,0.5,0.2,1,0.5,1.4C-176,529.4-177.5,529.5-178.6,530.6z"/>
		<g>
			<path class="st7" d="M-178.1,531c-1.1,0.6-1.8,1.8-2.3,3.8c-1.1,4.4,1.9,11.3,4.5,11.9c2.6,0.6,8.4-4.1,9.5-8.5
				c0.5-2,0.4-3.4-0.3-4.4c0,0,0,0,0,0c0,0,0,0,0,0c-2.9-0.2-3.4-1.8-3.4-1.8c-0.8,2.2-2.7,2.5-3,2.5c-0.2-0.2-1.9-1.3-1.5-3.6
				C-174.6,530.9-175.3,532.3-178.1,531C-178.1,530.9-178.1,530.9-178.1,531C-178.1,530.9-178.1,531-178.1,531z"/>
		</g>
		<path class="st8" d="M-170,537.1c0,0.2,0,0.4,0.1,0.5c0.1,0.2,0.2,0.3,0.4,0.3c0.2,0,0.4,0,0.5-0.1c0.2-0.1,0.3-0.2,0.3-0.4
			c0-0.2,0-2.1,0-2.1c0-0.1-0.2-0.2-0.3-0.1C-169,535.3-170,536.9-170,537.1z"/>
		<path class="st8" d="M-174.4,537.5c0,0.2,0,0.4,0.1,0.5c0.1,0.2,0.2,0.3,0.4,0.3c0.2,0,0.4,0,0.5-0.1c0.2-0.1,0.3-0.2,0.3-0.4
			c0-0.2,0-2.1,0-2.1c0-0.1-0.2-0.2-0.3-0.1C-173.4,535.6-174.4,537.3-174.4,537.5z"/>
		<path class="st8" d="M-177.9,535.2c0,0.2,0,0.4,0.1,0.5c0.1,0.2,0.2,0.3,0.4,0.3c0.2,0,0.4,0,0.5-0.1c0.2-0.1,0.3-0.2,0.3-0.4
			c0-0.2,0-2.1,0-2.1c0-0.1-0.2-0.2-0.3-0.1C-176.9,533.3-177.8,535-177.9,535.2z"/>
		<path class="st8" d="M-172.8,541.1c0,0.2,0,0.4,0.1,0.5c0.1,0.2,0.2,0.3,0.4,0.3c0.2,0,0.4,0,0.5-0.1c0.2-0.1,0.3-0.2,0.3-0.4
			c0-0.2,0-2.1,0-2.1c0-0.1-0.2-0.2-0.3-0.1C-171.8,539.3-172.7,541-172.8,541.1z"/>
		<path class="st8" d="M-175.9,543.6c0,0.2,0,0.4,0.1,0.5c0.1,0.2,0.2,0.3,0.4,0.3c0.2,0,0.4,0,0.5-0.1c0.2-0.1,0.3-0.2,0.3-0.4
			c0-0.2,0-2.1,0-2.1c0-0.1-0.2-0.2-0.3-0.1C-174.9,541.8-175.9,543.4-175.9,543.6z"/>
		<path class="st8" d="M-177.5,540c0,0.2,0,0.4,0.1,0.5c0.1,0.2,0.2,0.3,0.4,0.3c0.2,0,0.4,0,0.5-0.1c0.2-0.1,0.3-0.2,0.3-0.4
			c0-0.2,0-2.1,0-2.1c0-0.1-0.2-0.2-0.3-0.1C-176.5,538.1-177.5,539.8-177.5,540z"/>
	</g>
</g>
<g>
	<defs>
		<polygon id="SVGID_5_" points="-167.6,493.6 37.3,612.6 37.1,660.8 -167.1,542.2 		"/>
	</defs>
	<clipPath id="SVGID_6_">
		<use xlink:href="#SVGID_5_"  style="overflow:visible;"/>
	</clipPath>
	<g class="st9">
		<polygon class="st1" points="-167.6,467.6 37.3,586.6 37.1,634.8 -167.1,516.2 		"/>
		<g>
			<polygon class="st2" points="37.3,586.6 25.6,579.8 -13.6,605.4 16.3,622.7 37.2,609.2 			"/>
			<polygon class="st2" points="-146.8,479.7 -167.3,493.5 -167.1,516.2 -155.4,523 -116.8,497.1 			"/>
		</g>
	</g>
</g>
<g>
	<defs>
		<polygon id="SVGID_7_" points="37.7,586.8 241.9,468.2 242.1,516.4 37.2,635.4 		"/>
	</defs>
	<clipPath id="SVGID_8_">
		<use xlink:href="#SVGID_7_"  style="overflow:visible;"/>
	</clipPath>
	<g class="st10">
		<polygon class="st1" points="37.7,612.7 241.9,494.2 242.1,542.4 37.2,661.4 		"/>
		<g>
			<polygon class="st2" points="242,519.8 221.1,506.3 191.2,523.6 230.4,549.2 242.1,542.4 			"/>
			<polygon class="st2" points="88,631.9 49.4,606 37.7,612.7 37.5,635.5 58,649.3 			"/>
		</g>
	</g>
</g>
<text transform="matrix(0.5926 0.3431 -0.501 0.8654 -116.7991 543.0443)" class="st11 st12">Crime Scene</text>
<text transform="matrix(0.5889 -0.3413 0.5015 0.8652 75.7035 610.3314)" class="st11 st13">Do Not Cross Line</text>
</svg>
