<?xml version="1.0" encoding="utf-8"?>
<!-- Generator: Adobe Illustrator 19.0.1, SVG Export Plug-In . SVG Version: 6.00 Build 0)  -->
<svg version="1.1" id="strawberry_x5F_seed" xmlns="http://www.w3.org/2000/svg" xmlns:xlink="http://www.w3.org/1999/xlink"
	 x="0px" y="0px" viewBox="-223 225 512 512" style="enable-background:new -223 225 512 512;" xml:space="preserve">
<style type="text/css">
	.st0{fill:#C1A046;}
</style>
<g>
	<g>
		<path class="st0" d="M-131.4,536.5c1,1.9,0,3.6-2.3,3.9s-6-6.5-3.7-6.8C-135.1,533.4-132.4,534.7-131.4,536.5z"/>
		<path class="st0" d="M-131.2,537.3c0.6,0.5,0.2,1.8-0.8,2.4c-0.9,0.5-2.4,0.5-2.9-0.1c-0.4-0.5,0.1-1.4,0.2-1.5
			c0.4-0.6,1.2-0.9,1.5-0.9C-133,537.1-131.7,536.8-131.2,537.3z"/>
	</g>
	<g>
		<path class="st0" d="M-129.9,551.6c1,1.9,0,3.6-2.3,3.9c-2.3,0.3-6-6.5-3.7-6.8C-133.6,548.4-130.9,549.7-129.9,551.6z"/>
		<path class="st0" d="M-129.7,552.3c0.6,0.5,0.2,1.8-0.8,2.4c-0.9,0.5-2.4,0.5-2.9-0.1c-0.4-0.5,0.1-1.4,0.2-1.5
			c0.4-0.6,1.2-0.9,1.5-0.9C-131.4,552.2-130.2,551.9-129.7,552.3z"/>
	</g>
	<g>
		<path class="st0" d="M-117.6,546.6c1,1.9,0,3.6-2.3,3.9c-2.3,0.3-6-6.5-3.7-6.8C-121.3,543.4-118.6,544.7-117.6,546.6z"/>
		<path class="st0" d="M-117.4,547.4c0.6,0.5,0.2,1.8-0.8,2.4c-0.9,0.5-2.4,0.5-2.9-0.1c-0.4-0.5,0.1-1.4,0.2-1.5
			c0.4-0.6,1.2-0.9,1.5-0.9C-119.1,547.2-117.9,546.9-117.4,547.4z"/>
	</g>
</g>
<g>
	<g>
		<path class="st0" d="M191.8,534.7c1,1.9,0,3.6-2.3,3.9c-2.3,0.3-6-6.5-3.7-6.8S190.8,532.8,191.8,534.7z"/>
		<path class="st0" d="M192,535.4c0.6,0.5,0.2,1.8-0.8,2.4c-0.9,0.5-2.4,0.5-2.9-0.1c-0.4-0.5,0.1-1.4,0.2-1.5
			c0.4-0.6,1.2-0.9,1.5-0.9C190.3,535.3,191.5,535,192,535.4z"/>
	</g>
	<g>
		<path class="st0" d="M193.3,549.7c1,1.9,0,3.6-2.3,3.9s-6-6.5-3.7-6.8C189.6,546.5,192.3,547.8,193.3,549.7z"/>
		<path class="st0" d="M193.5,550.5c0.6,0.5,0.2,1.8-0.8,2.4c-0.9,0.5-2.4,0.5-2.9-0.1c-0.4-0.5,0.1-1.4,0.2-1.5
			c0.4-0.6,1.2-0.9,1.5-0.9C191.8,550.3,193,550,193.5,550.5z"/>
	</g>
	<g>
		<path class="st0" d="M205.6,544.7c1,1.9,0,3.6-2.3,3.9c-2.3,0.3-6-6.5-3.7-6.8C201.9,541.6,204.6,542.9,205.6,544.7z"/>
		<path class="st0" d="M205.8,545.5c0.6,0.5,0.2,1.8-0.8,2.4c-0.9,0.5-2.4,0.5-2.9-0.1c-0.4-0.5,0.1-1.4,0.2-1.5
			c0.4-0.6,1.2-0.9,1.5-0.9C204.1,545.3,205.3,545,205.8,545.5z"/>
	</g>
</g>
<g>
	<g>
		<path class="st0" d="M31.1,441.4c1,1.9,0,3.6-2.3,3.9c-2.3,0.3-6-6.5-3.7-6.8C27.4,438.3,30.1,439.6,31.1,441.4z"/>
		<path class="st0" d="M31.3,442.2c0.6,0.5,0.2,1.8-0.8,2.4c-0.9,0.5-2.4,0.5-2.9-0.1c-0.4-0.5,0.1-1.4,0.2-1.5
			c0.4-0.6,1.2-0.9,1.5-0.9C29.6,442,30.8,441.7,31.3,442.2z"/>
	</g>
	<g>
		<path class="st0" d="M32.6,456.5c1,1.9,0,3.6-2.3,3.9c-2.3,0.3-6-6.5-3.7-6.8C29,453.3,31.6,454.6,32.6,456.5z"/>
		<path class="st0" d="M32.9,457.2c0.6,0.5,0.2,1.8-0.8,2.4c-0.9,0.5-2.4,0.5-2.9-0.1c-0.4-0.5,0.1-1.4,0.2-1.5
			c0.4-0.6,1.2-0.9,1.5-0.9C31.1,457.1,32.3,456.7,32.9,457.2z"/>
	</g>
	<g>
		<path class="st0" d="M45,451.5c1,1.9,0,3.6-2.3,3.9c-2.3,0.3-6-6.5-3.7-6.8C41.3,448.3,44,449.6,45,451.5z"/>
		<path class="st0" d="M45.2,452.2c0.6,0.5,0.2,1.8-0.8,2.4c-0.9,0.5-2.4,0.5-2.9-0.1c-0.4-0.5,0.1-1.4,0.2-1.5
			c0.4-0.6,1.2-0.9,1.5-0.9C43.5,452.1,44.7,451.8,45.2,452.2z"/>
	</g>
</g>
<g>
	<g>
		<path class="st0" d="M29.1,625.7c1,1.9,0,3.6-2.3,3.9c-2.3,0.3-6-6.5-3.7-6.8S28.1,623.9,29.1,625.7z"/>
		<path class="st0" d="M29.3,626.5c0.6,0.5,0.2,1.8-0.8,2.4c-0.9,0.5-2.4,0.5-2.9-0.1c-0.4-0.5,0.1-1.4,0.2-1.5
			c0.4-0.6,1.2-0.9,1.5-0.9C27.6,626.3,28.8,626,29.3,626.5z"/>
	</g>
	<g>
		<path class="st0" d="M30.6,640.7c1,1.9,0,3.6-2.3,3.9s-6-6.5-3.7-6.8C27,637.6,29.6,638.9,30.6,640.7z"/>
		<path class="st0" d="M30.9,641.5c0.6,0.5,0.2,1.8-0.8,2.4c-0.9,0.5-2.4,0.5-2.9-0.1c-0.4-0.5,0.1-1.4,0.2-1.5
			c0.4-0.6,1.2-0.9,1.5-0.9C29.1,641.4,30.3,641,30.9,641.5z"/>
	</g>
	<g>
		<path class="st0" d="M43,635.8c1,1.9,0,3.6-2.3,3.9c-2.3,0.3-6-6.5-3.7-6.8C39.3,632.6,42,633.9,43,635.8z"/>
		<path class="st0" d="M43.2,636.5c0.6,0.5,0.2,1.8-0.8,2.4c-0.9,0.5-2.4,0.5-2.9-0.1c-0.4-0.5,0.1-1.4,0.2-1.5
			c0.4-0.6,1.2-0.9,1.5-0.9C41.5,636.4,42.7,636.1,43.2,636.5z"/>
	</g>
</g>
</svg>
