<?xml version="1.0" encoding="utf-8"?>
<!-- Generator: Adobe Illustrator 19.0.1, SVG Export Plug-In . SVG Version: 6.00 Build 0)  -->
<svg version="1.1" id="strawberry" xmlns="http://www.w3.org/2000/svg" xmlns:xlink="http://www.w3.org/1999/xlink" x="0px" y="0px"
	 viewBox="0 0 50 50" style="enable-background:new 0 0 50 50;" xml:space="preserve">
<style type="text/css">
	.st0{fill:#659C35;}
	.st1{fill:#88C057;}
	.st2{fill:#E22F37;}
	.st3{fill:#994530;}
</style>
<g>
	<polygon class="st0" points="26.3,8.4 23.8,8.9 21.3,1.5 25.6,0.3 	"/>
	<path class="st1" d="M31.8,7.6c0.9-0.8,1.6-1.9,2-3.1C29.1,2.8,27.6,5,27.6,5c-0.1-0.9-0.8-1.3-1.7-1.4l0.4,4.8l0,0l0,0l0,0
		l-2.5,0.5l0,0l0,0l0,0l-1.5-4.5c-0.5,0.2-0.8,0.5-0.8,0.7c0,0-1.5-2.3-6.2-0.5c0.4,1.2,1.1,2.3,2.1,3.2c-3.8,0.5-7.3,1.9-9.1,5.1
		c8.9,2.7,11.6-1.6,11.6-1.6c0.5,5.8,5.1,7.6,5.8,7.8c0.7-0.2,5.2-2,5.8-7.8c0,0,1,4.3,9.9,1.6C39.3,9.5,35.6,8.1,31.8,7.6z"/>
	<g>
		<path class="st2" d="M39.8,13.2C39.8,13.2,39.8,13.2,39.8,13.2c-7.5,1.7-8.4-2.1-8.4-2.1c-0.5,5.8-5.1,7.6-5.8,7.8
			c-0.7-0.2-5.2-2-5.8-7.8c0,0-2.2,3.5-9.3,2.2c0,0,0,0,0,0c0,0,0,0,0.1,0c-2.1,2.1-3.2,5.4-3.2,10.4c0,11.1,11.2,26,17.8,26
			S43,34.9,43,23.7c0-5.1-1.2-8.4-3.3-10.5C39.7,13.2,39.7,13.2,39.8,13.2z"/>
	</g>
	<path class="st3" d="M15.4,18.2c-0.1-0.3-0.6-0.3-0.7,0c0,0-1.3,4.6-1.3,5s0.2,0.9,0.5,1.2c0.3,0.3,0.7,0.5,1.2,0.5
		s0.9-0.2,1.2-0.5c0.3-0.3,0.5-0.7,0.5-1.2S15.4,18.2,15.4,18.2z"/>
	<path class="st3" d="M25.7,21.7c-0.1-0.3-0.6-0.3-0.7,0c0,0-1.3,4.6-1.3,5s0.2,0.9,0.5,1.2c0.3,0.3,0.7,0.5,1.2,0.5
		s0.9-0.2,1.2-0.5c0.3-0.3,0.5-0.7,0.5-1.2S25.7,21.7,25.7,21.7z"/>
	<path class="st3" d="M35.4,18.2c-0.1-0.3-0.6-0.3-0.7,0c0,0-1.3,4.6-1.3,5s0.2,0.9,0.5,1.2c0.3,0.3,0.7,0.5,1.2,0.5
		c0.4,0,0.9-0.2,1.2-0.5c0.3-0.3,0.5-0.7,0.5-1.2S35.4,18.2,35.4,18.2z"/>
	<path class="st3" d="M19.6,29.5c-0.1-0.3-0.6-0.3-0.7,0c0,0-1.3,4.6-1.3,5c0,0.4,0.2,0.9,0.5,1.2c0.3,0.3,0.7,0.5,1.2,0.5
		c0.4,0,0.9-0.2,1.2-0.5c0.3-0.3,0.5-0.7,0.5-1.2S19.6,29.5,19.6,29.5z"/>
	<path class="st3" d="M25.7,37.3c-0.1-0.3-0.6-0.3-0.7,0c0,0-1.3,4.6-1.3,5c0,0.4,0.2,0.9,0.5,1.2c0.3,0.3,0.7,0.5,1.2,0.5
		s0.9-0.2,1.2-0.5c0.3-0.3,0.5-0.7,0.5-1.2S25.7,37.3,25.7,37.3z"/>
	<path class="st3" d="M31.8,29.5c-0.1-0.3-0.6-0.3-0.7,0c0,0-1.3,4.6-1.3,5c0,0.4,0.2,0.9,0.5,1.2c0.3,0.3,0.7,0.5,1.2,0.5
		s0.9-0.2,1.2-0.5c0.3-0.3,0.5-0.7,0.5-1.2S31.8,29.5,31.8,29.5z"/>
</g>
</svg>
