<?xml version="1.0" encoding="utf-8"?>
<!-- Generator: Adobe Illustrator 19.0.1, SVG Export Plug-In . SVG Version: 6.00 Build 0)  -->
<svg version="1.1" xmlns="http://www.w3.org/2000/svg" xmlns:xlink="http://www.w3.org/1999/xlink" x="0px" y="0px"
	 viewBox="0 0 50 50" style="enable-background:new 0 0 50 50;" xml:space="preserve">
<style type="text/css">
	.st0{display:none;}
	.st1{display:inline;}
	.st2{fill:#FBFDF0;}
	.st3{fill:#88C057;}
	.st4{fill:#A4E869;}
	.st5{fill:#659C35;}
	.st6{fill:#DDC5AB;}
	.st7{fill:#82B236;}
	.st8{fill:#B4B56F;}
	.st9{fill:#D8D5A7;}
	.st10{display:none;fill:#D8D5A7;}
	.st11{display:none;fill:#E8E6BF;}
	.st12{fill:#E8E6BF;}
	.st13{fill:#7EA532;}
	.st14{fill:#C3C979;}
	.st15{fill:#BEBF77;}
	.st16{fill:#583E68;}
	.st17{fill:#6A3311;}
	.st18{fill:#6F58A8;}
	.st19{fill:#E22F37;}
	.st20{fill:#994530;}
	.st21{fill:#8CC153;}
	.st22{fill:#434A54;}
	.st23{fill:#A0D468;}
	.st24{fill:#E6E9ED;}
	.st25{fill:#ED5564;}
</style>
<g id="圖層_1" class="st0">
	<rect x="-4.4" y="-3.9" width="57.1" height="54.2"/>
	<g class="st1">
		<path class="st2" d="M0.2,46.6c0,0,0.5,0.1,1-0.1c0.5-0.2,0.8-0.7,1-0.8c0.4-0.7,0.2-1.1,0.6-1.6c0.1-0.1,0.2-0.3,0.3-0.5
			C3.3,43.3,3.3,43,3.2,43c0,0-0.1,0.2-0.3,0.5c-0.3,0.5-0.5,0.5-0.6,0.9c-0.1,0.2,0,0.2-0.2,0.7C2,45.3,2,45.5,1.9,45.6
			c0,0.1-0.1,0.3-0.3,0.5c-0.1,0.1-0.2,0.1-0.5,0.3C0.6,46.6,0.2,46.6,0.2,46.6z"/>
		<path class="st2" d="M2.2,46.8c0,0,0.4-0.1,0.9-0.4c0.5-0.3,0.7-0.7,0.8-0.9c0.4-0.7,0.3-1,0.6-1.6c0,0,0.1-0.2,0.2-0.4
			c0.1-0.2,0.1-0.4,0.1-0.4c0,0-0.1,0.2-0.3,0.5c-0.3,0.5-0.4,0.5-0.5,0.9c-0.1,0.2,0,0.2-0.2,0.6c-0.1,0.2-0.1,0.4-0.2,0.5
			c0,0.1-0.1,0.3-0.3,0.5c-0.1,0.1-0.2,0.2-0.4,0.3C2.4,46.6,2.2,46.7,2.2,46.8z"/>
		<path class="st2" d="M4.2,47.5c0,0-0.5-0.1-0.8-0.5C3,46.6,3,46.1,2.9,45.8c-0.1-0.8,0.2-1.2,0.1-1.9c0,0,0-0.3,0-0.5
			c0-0.2,0.1-0.5,0.2-0.5c0,0,0,0.2,0.1,0.6c0.1,0.6,0.2,0.7,0.2,1.1c0,0.2-0.1,0.2-0.2,0.7c0,0.2-0.1,0.4-0.1,0.6
			c0,0.1,0,0.4,0.1,0.6c0,0.1,0.1,0.2,0.3,0.5C4,47.3,4.2,47.5,4.2,47.5z"/>
	</g>
	<g class="st1">
		<g>
			<path class="st2" d="M31.5,28.9c1-1,2.5-2.4,3.8-4.7c0.5-0.9,0.9-1.8,1.2-2.3c-0.7-0.3-1.4-0.7-2.2-1c-1.2-0.5-2.4-0.8-3.4-1
				c-0.6-2.8-1.3-5-2.2-6.7c-5.2,2.5-9.1,5.4-11.7,7.6c-2,1.7-6.7,5.9-10.9,12.6C3.9,37.1,0.9,41.9,2.6,44c1.3,1.7,4.7,1,6.3,0.6
				c3.2-0.6,4.9-1.9,11.1-6.5C23.5,35.6,28,32.3,31.5,28.9z"/>
		</g>
		<path class="st3" d="M30.6,20.2c0,0,10.8-6.4,17.7,2.6c0,0,1.8,2.1,0.4,4c-1.3,1.9-4.3,1.5-5.8-0.5C41.5,24.5,38.2,22.2,30.6,20.2
			z"/>
		<path class="st3" d="M30.6,20.2c0,0,6.6-10.6-1.9-16.9c0,0-2.8-2.5-5.3-1.6c-2.3,0.8-2.4,4.1-0.2,5.3
			C25.5,8.4,28.8,11.8,30.6,20.2z"/>
		<path class="st3" d="M48,23.4c0,0,0.1,0.1,0.1,0.2c0.2-0.2,0.4-0.4,0.6-0.7c1.8-2.3,0.4-4.1,0.4-4.1c-5.4-8.1-18,0.7-18,0.7
			c0.6,0,1.2,0.1,1.7,0.2C36.5,18.3,43.2,17.1,48,23.4z"/>
		<path class="st4" d="M28.7,3.3c6.5,4.8,4.1,12.2,2.6,15.4c0,0.1,0,0.1,0,0.2c0,0,9-12.5,1.4-17.4c0,0-2.4-2.1-5.2-0.6
			c-0.5,0.2-0.9,0.6-1.2,0.9C27.7,2.4,28.7,3.3,28.7,3.3z"/>
		<path class="st5" d="M44.4,5.6c-3.2-2.1-7.2,1.1-7.2,1.1c-0.7,0.8-1.3,1.7-1.8,2.6c-0.6,4.1-3.2,8.5-4.5,10.4
			c-0.1,0.3-0.1,0.5-0.2,0.7c1.5-1,6-3.8,10.3-4.5c1.1-0.7,2.1-1.5,3-2.4C48.8,8.9,44.4,5.6,44.4,5.6z"/>
		<path class="st4" d="M30.6,20.2c0,0,10.8-6.4,17.7,2.6c0,0,1.8,2.1,0.4,4c-1.3,1.9-4.3,1.5-5.8-0.5C41.5,24.5,38.2,22.2,30.6,20.2
			z"/>
		<g>
			<g>
				<g>
					<path class="st6" d="M19.7,20.4c0.1,0,0.3,0.2,0.5,0.6c0.8,1.2,1.9,2.7,2.6,3.3c0.2,0.2,0.5,0.6,0.7,1c0.1,0.2,0.1,0.4,0.1,0.4
						c0,0-0.1,0-0.2-0.1c-1-0.8-2.3-2.6-3.2-4"/>
					<path class="st6" d="M23.4,25.6c0.1,0.1,0.1,0.1,0.2,0.1c0.1,0,0-0.2-0.1-0.4c-0.2-0.4-0.5-0.8-0.7-1c-0.7-0.6-1.8-2.1-2.6-3.3
						c-0.2-0.3-0.4-0.5-0.5-0.6c0.1,0.4,0.3,0.8,0.5,1.2C21.1,23,22.4,24.8,23.4,25.6z"/>
				</g>
			</g>
		</g>
		<g>
			<g>
				<g>
					<path class="st6" d="M17.7,25.5c0.1,0,0.3,0.2,0.5,0.6c0.8,1.2,1.9,2.7,2.6,3.3c0.2,0.2,0.5,0.6,0.7,1c0.1,0.2,0.1,0.4,0.1,0.4
						c0,0-0.1,0-0.2-0.1c-1-0.8-2.3-2.6-3.2-4"/>
					<path class="st6" d="M21.4,30.7c0.1,0.1,0.1,0.1,0.2,0.1c0.1,0,0-0.2-0.1-0.4c-0.2-0.4-0.5-0.8-0.7-1c-0.7-0.6-1.8-2.1-2.6-3.3
						c-0.2-0.3-0.4-0.5-0.5-0.6c0.1,0.4,0.3,0.8,0.5,1.2C19.1,28.1,20.4,29.9,21.4,30.7z"/>
				</g>
			</g>
		</g>
		<g>
			<g>
				<g>
					<path class="st6" d="M12.5,29.3c0.1,0,0.3,0.2,0.5,0.6c0.8,1.2,1.9,2.7,2.6,3.3c0.2,0.2,0.5,0.6,0.7,1c0.1,0.2,0.1,0.4,0.1,0.4
						c0,0-0.1,0-0.2-0.1c-1-0.8-2.3-2.6-3.2-4"/>
					<path class="st6" d="M16.2,34.5c0.1,0.1,0.1,0.1,0.2,0.1c0.1,0,0-0.2-0.1-0.4c-0.2-0.4-0.5-0.8-0.7-1c-0.7-0.6-1.8-2.1-2.6-3.3
						c-0.2-0.3-0.4-0.5-0.5-0.6c0.1,0.4,0.3,0.8,0.5,1.2C13.9,31.8,15.2,33.6,16.2,34.5z"/>
				</g>
			</g>
		</g>
	</g>
</g>
<g id="lettuce" class="st0">
	<g class="st1">
		<g>
			<path class="st3" d="M37.9,24.4c1.4,0.3,2.9,0.3,4.5-0.4c2.8-1.2,4.8-3.9,4.8-6.9c0.1-3.4-2.1-6.3-5.1-7.4
				c-0.2-3.1-2.8-5.5-5.9-5.5c0,0,0,0,0,0c0.1-0.5,0-1-0.1-1.5C35.7,1.3,34.5,0.2,33,0c-1.2-0.1-2.4,0.3-3.1,1.1
				C29.1,0.4,28.1,0,27,0c-2.3,0-4.2,1.9-4.2,4.2c0,0,0,0,0,0c-2.8,0.2-5.1,2.6-5.1,5.5c0,0.4,0.1,0.9,0.2,1.3
				c-3.4,0.1-6.1,2.9-6.1,6.3c0,1.2,0.3,2.2,0.9,3.2c-1,0.9-1.7,2.2-1.7,3.6c0,2,1.3,3.8,3.1,4.4c-0.2,8.3,2.7,13.2,8.5,19.8
				c0.1,0.1,0.2,0.2,0.3,0.4c0,0,0,0.1,0.1,0.1c2.4,2.7,7.8,0.6,6.6-2.8c-6.2-18.1,12.8-15.5,12.8-15.5s0.5-5.5-4.4-5.7
				C37.9,24.7,37.9,24.5,37.9,24.4C37.9,24.4,37.9,24.4,37.9,24.4z"/>
			<path class="st5" d="M22.8,48.8C22.8,48.8,22.8,48.7,22.8,48.8c-0.2-0.2-0.3-0.3-0.4-0.4c-5.7-6.6-8.7-11.5-8.5-19.8
				c-1.8-0.6-3.1-2.4-3.1-4.4c0-1.5,0.7-2.8,1.7-3.6c-0.5-0.9-0.9-2-0.9-3.2c0-3.4,2.7-6.2,6.1-6.3c-0.1-0.4-0.2-0.8-0.2-1.3
				c0-2.3,1.4-4.3,3.4-5.1c-0.1-0.4-0.3-0.9-0.5-1.3c-1.1-2.2-3.1-3.6-4.8-3.3c-1.5,0.2-2.5,1.4-2.9,3C11.5,2.3,10.2,2,8.9,2.4
				c-2.6,0.9-3.5,4.7-2,8.3c0,0,0,0,0,0c-2.9,1.4-3.6,5.4-1.8,9.1c0.3,0.5,0.6,1,0.9,1.5c-3.2,1.3-4,5.3-2,8.8
				c0.6,1.1,1.5,2,2.4,2.7c-0.4,1.1-0.4,2.4,0.4,3.6c1,1.6,2.8,2.6,4.4,2.6c3,5.8,6.6,8.1,12.1,10.4c0.1,0,0.1,0,0.2,0.1
				C23.3,49.2,23,49,22.8,48.8z"/>
			<path class="st5" d="M25,22c0.1-0.1,0.1-0.2,0.1-0.4c0.6-1.6,1.4-3,2.2-4.1c4-0.8,7.1,0.4,7.1,0.5c0.1,0.1,0.2,0.1,0.4,0.1
				c0.3,0,0.7-0.2,0.8-0.5c0.2-0.5,0-1-0.5-1.2c-0.1-0.1-2.6-1.1-6.2-0.9c1.7-1.8,3.3-2.6,3.5-2.8c1.3-0.6,3.2,0.2,3.8,0.5
				c0.1,0.1,0.3,0.1,0.5,0.1c0.3,0,0.6-0.2,0.8-0.4c0.3-0.4,0.1-1-0.3-1.2c-0.1-0.1-2.1-1.2-4.2-1c0.2-0.7,0.6-1.4,0.8-1.7
				c0.3-0.4,0.2-1-0.2-1.3c-0.4-0.3-1-0.2-1.3,0.2c-0.1,0.1-1.2,1.6-1.2,3.4c-1.3,0.8-4.7,3.2-7.1,8.1c-0.1,0.3-0.3,0.5-0.4,0.8
				c-2.5-1.7-2.1-4.7-2-4.8c0.1-0.5-0.3-0.9-0.7-1c-0.5-0.1-1,0.3-1,0.7c-0.3,1.6,0.1,5,3.1,6.8c-0.7,2-1.2,4.3-1.3,7.1
				c0,0.1,0,0.2,0,0.3c-0.1,1.9,0,4.1,0.3,6.5c-1.1-0.6-1.7-1.5-1.7-1.6c-0.2-0.4-0.8-0.6-1.2-0.4c-0.4,0.2-0.6,0.8-0.4,1.2
				c0,0.1,1.1,2.1,3.6,2.9c0.6,3.6,1.8,7.6,3.7,12c0.6,0,1.2-0.2,1.7-0.5c0,0,0,0,0,0c-2-4.7-3.1-8.8-3.8-12.4c0,0,0,0,0-0.1
				c-0.5-2.7-0.6-5.2-0.5-7.4c1.3-2.1,5-2.2,5-2.2c0.5,0,0.9-0.4,0.9-0.9c0-0.5-0.4-0.9-0.9-0.9c0,0,0,0,0,0c-0.1,0-2.7,0.1-4.7,1.3
				c0.2-1.8,0.7-3.4,1.2-4.8C24.9,22.1,24.9,22.1,25,22z"/>
		</g>
	</g>
</g>
<g id="cabbage" class="st0">
	<g class="st1">
		<g>
			<g>
				<path class="st7" d="M2.6,29.1c-0.3-0.7-0.6-1.4-0.9-2.2c0,0-2.7-5.3,0.4-6.6c3.1-1.3,13,7.1,15.8,4
					C17.8,24.3,9.1,43.6,2.6,29.1z"/>
				<path class="st8" d="M6.6,23.4c0.5,0.4,0.9,0.9,1.3,1.5c-0.6,0-1.2,0-1.8,0C6,25,5.8,25,5.6,25c-0.8-0.6-1.6-1-2.4-1
					c-0.2,0-0.4,0-0.6,0.1c0.6,0,1.3,0.2,1.9,0.6C4.8,24.8,5,25,5.2,25.1c-0.9,0.2-1.7,0.4-2.4,0.8c-0.2,0.1-0.4,0.2-0.6,0.3
					c-0.1,0.1-0.2,0.1-0.3,0.2c0,0-0.1,0.1-0.1,0.1c0,0-0.1,0-0.1,0.1c0,0.1,0.1,0,0.1,0c0.1,0,0.1,0,0.2,0c0.1,0,0.2,0,0.3-0.1
					c0.2,0,0.4-0.1,0.6-0.1c0.5-0.1,1-0.2,1.5-0.3c-0.1,0.4-0.2,0.7-0.3,1c-0.1,0.3-0.3,0.6-0.5,0.9c0.2-0.2,0.4-0.4,0.6-0.6
					c0.2-0.2,0.3-0.5,0.5-0.8c0.1-0.2,0.1-0.3,0.2-0.5c0.6-0.1,1.1-0.1,1.7-0.2c0.2,0,0.3,0,0.5,0c-0.1,0.8-0.3,1.5-0.6,2.1
					c-0.1,0.2-0.2,0.3-0.3,0.5c0.5-0.5,0.9-1.2,1.1-2c0.1-0.2,0.1-0.4,0.2-0.7c0.7,0,1.4,0,2.2,0.1c0.2,0,0.4,0.1,0.7,0.1
					c0,0.7,0,1.4-0.1,2c-0.1,0.6-0.2,1.2-0.5,1.7c-0.1,0.3-0.3,0.6-0.5,0.8c0.4-0.4,0.7-0.8,1-1.4c0.2-0.6,0.4-1.2,0.5-1.9
					c0-0.4,0.1-0.8,0.1-1.2c0.3,0.1,0.7,0.2,1.1,0.3c0,0,0.1,0,0.1,0c0.4,0.1,0.9,0.3,1.3,0.5c0.4,0.2,0.9,0.4,1.3,0.7
					c0.9,0.5,1.9,1,2.8,1.5c0.5,0.3,0.9,0.5,1.4,0.8c0,0,0.1,0.1,0.1,0c0-0.1-0.1-0.1-0.1-0.1c-0.1-0.1-0.2-0.2-0.3-0.2
					c-0.2-0.2-0.5-0.3-0.7-0.5c-0.9-0.6-1.9-1.2-2.8-1.7c-0.4-0.3-0.9-0.5-1.3-0.8c-0.4-0.2-0.9-0.4-1.3-0.6c-0.1,0-0.2-0.1-0.3-0.1
					c-0.1-0.3-0.3-0.5-0.5-0.7c-0.2-0.2-0.3-0.5-0.5-0.7c-0.1-0.2-0.3-0.3-0.4-0.5c-0.1-0.2-0.3-0.4-0.5-0.6
					c-0.4-0.4-0.7-0.8-1.1-1.1c-0.4-0.4-0.9-0.7-1.3-0.9c0.7,0.5,1.5,1.2,2.1,1.9c0.1,0.2,0.3,0.3,0.4,0.5c0.1,0.1,0.1,0.2,0.2,0.3
					c0.1,0.1,0.2,0.3,0.3,0.4c0.1,0.2,0.2,0.3,0.3,0.5c0.2,0.3,0.3,0.5,0.4,0.8c-0.4-0.1-0.8-0.3-1.2-0.3c-0.3-0.1-0.6-0.1-0.8-0.2
					C9,25.1,8.7,25,8.3,25c-0.8-1.1-1.8-2-2.9-2.6c-0.3-0.1-0.6-0.3-0.8-0.3C5.3,22.4,6,22.8,6.6,23.4z"/>
			</g>
			<path class="st9" d="M45.6,26.3c0-0.9-0.5-1.7-1.2-2.1c0.4-0.7,0.6-1.5,0.6-2.4c0-3-2.5-5.5-5.6-5.5c-0.8,0-1.6,0.2-2.3,0.5
				C36.3,15.7,35,15,33.5,15c-1.7,0-3.2,0.9-4,2.3c-0.8-0.6-1.9-0.9-3-0.9c-2.9,0-5.2,2.3-5.2,5.1c0,0.2,0,0.4,0,0.6
				c-2,0.7-3.5,2.6-3.5,4.8c0,1.7,0.9,3.3,2.3,4.2c-0.5,0.7-0.9,1.6-0.9,2.6c0,2.4,2,4.4,4.5,4.4c1,0,2-0.4,2.8-0.9
				c1,1.4,2.7,2.3,4.5,2.3c2,0,3.7-1,4.7-2.5c0.7,1.1,1.9,1.9,3.3,1.9c2.1,0,3.8-1.7,3.8-3.8c0-0.5-0.1-0.9-0.2-1.3
				c1.4-0.6,2.3-1.9,2.3-3.5c0-0.7-0.2-1.4-0.6-2C45.1,28,45.6,27.2,45.6,26.3z"/>
			<path class="st9" d="M33,23.9c0-0.9-0.5-1.7-1.2-2.1c0.4-0.7,0.6-1.5,0.6-2.4c0-3-2.5-5.5-5.6-5.5c-0.8,0-1.6,0.2-2.3,0.5
				c-0.8-1.1-2.1-1.8-3.7-1.8c-1.7,0-3.2,0.9-4,2.3c-0.8-0.6-1.9-0.9-3-0.9c-2.9,0-5.2,2.3-5.2,5.1c0,0.2,0,0.4,0,0.6
				c-2,0.7-3.5,2.6-3.5,4.8c0,1.7,0.9,3.3,2.3,4.2c-0.5,0.7-0.9,1.6-0.9,2.6c0,2.4,2,4.4,4.5,4.4c1,0,2-0.4,2.8-0.9
				c1,1.4,2.7,2.3,4.5,2.3c2,0,3.7-1,4.7-2.5c0.7,1.1,1.9,1.9,3.3,1.9c2.1,0,3.8-1.7,3.8-3.8c0-0.5-0.1-0.9-0.2-1.3
				c1.4-0.6,2.3-1.9,2.3-3.5c0-0.7-0.2-1.4-0.6-2C32.5,25.5,33,24.8,33,23.9z"/>
			<path class="st9" d="M23.4,26.3c-0.6,0.2-1.2,0.4-1.8,0.4c-2.5,0-4.5-2-4.5-4.4c0-1,0.3-1.9,0.9-2.6c-1.4-0.9-2.3-2.5-2.3-4.2
				c0-0.8,0.2-1.6,0.6-2.3c-1.5-0.9-3.5-0.7-4.7,0.6c-0.1,0.1-0.2,0.2-0.3,0.3c-1.4-0.7-3.2-0.5-4.4,0.7c-0.9,0.9-1.3,2.2-1.1,3.4
				c-0.7,0.1-1.3,0.4-1.9,0.9c-1.3,1.3-1.3,3.4,0,4.7c0.5,0.5,1.2,0.8,2,0.9C5.6,25.8,6,27.2,7,28.1c1,1,2.5,1.4,3.8,1.1
				c-0.2,0.9,0,2,0.7,2.7c1.1,1.1,2.9,1.1,4,0c0.2-0.2,0.4-0.5,0.6-0.8c1,0.4,2.2,0.2,3.1-0.6c0.4-0.4,0.6-0.9,0.8-1.4
				c0.6,0.2,1.3,0,1.8-0.4c0.5-0.5,0.6-1.1,0.5-1.7C22.7,26.8,23.1,26.5,23.4,26.3z"/>
			<path class="st9" d="M48.5,19.1c-0.1-0.1-0.2-0.2-0.4-0.3c0.7-1.4,0.5-3.2-0.7-4.4c-0.9-0.9-2.2-1.3-3.4-1.1
				c-0.1-0.7-0.4-1.3-0.9-1.8c-1.3-1.3-3.4-1.3-4.7,0c-0.1,0.1-0.2,0.2-0.2,0.3C38,11.9,38,12,38,12c0.7,0.4,1.2,1.2,1.2,2.1
				c0,0.9-0.5,1.7-1.3,2.1c0.4,0.6,0.6,1.3,0.6,2c0,1.6-1,2.9-2.3,3.5c0.2,0.4,0.2,0.9,0.2,1.3c0,2.1-1.7,3.8-3.8,3.8
				c-0.5,0-1-0.1-1.4-0.3c0,0.1,0.1,0.1,0.1,0.2c0.4,0.4,0.9,0.6,1.4,0.7c-0.2,0.6,0,1.3,0.4,1.8c0.5,0.5,1.2,0.6,1.8,0.4
				c0.2,0.6,0.5,1.1,1,1.5c1.6,1.6,4.2,1.6,5.8,0c0.4-0.4,0.7-0.9,0.9-1.4c1,0.2,2.1-0.1,2.9-0.9c0.9-0.9,1.2-2.1,0.9-3.3
				c0.8-0.1,1.5-0.5,2.1-1.1C50,23,50,20.6,48.5,19.1z"/>
			<path class="st10" d="M19.7,15.4c-0.1,0-0.2,0-0.3-0.1c-2.3-0.9-3.4-3.4-2.5-5.7c0.9-2.3,3.4-3.4,5.7-2.5
				c0.5,0.2,0.7,0.7,0.5,1.2C22.9,8.8,22.4,9,22,8.8c-1.3-0.5-2.9,0.1-3.4,1.5c-0.5,1.3,0.1,2.9,1.5,3.4c0.5,0.2,0.7,0.7,0.5,1.2
				C20.4,15.2,20.1,15.4,19.7,15.4z"/>
			<path class="st11" d="M42.8,24.8c-0.5,0-1.1-0.1-1.6-0.3c-1.1-0.4-2-1.3-2.4-2.3c-0.2-0.5,0-1,0.5-1.2c0.5-0.2,1,0,1.2,0.5
				c0.3,0.6,0.8,1.1,1.4,1.4c0.7,0.3,1.4,0.2,2,0c0.6-0.3,1.1-0.8,1.4-1.4c0.3-0.6,0.2-1.4,0-2c-0.2-0.5,0-1,0.5-1.2
				c0.5-0.2,1,0,1.2,0.5c0.5,1.1,0.5,2.3,0.1,3.4s-1.3,2-2.3,2.4C44,24.7,43.4,24.8,42.8,24.8z"/>
			<path class="st10" d="M30.4,22.6c-1.5,0-3-0.8-3.8-2.2c-0.2-0.4-0.1-1,0.3-1.2c0.4-0.2,1-0.1,1.2,0.3c0.3,0.6,0.9,1,1.6,1.2
				c0.7,0.2,1.4,0.1,2-0.2s1-0.9,1.2-1.6c0.2-0.7,0.1-1.4-0.2-2c-0.2-0.4-0.1-1,0.3-1.2c0.4-0.2,1-0.1,1.2,0.3
				c0.6,1,0.7,2.2,0.4,3.3c-0.3,1.1-1.1,2.1-2.1,2.7C31.9,22.4,31.2,22.6,30.4,22.6z"/>
			<path class="st10" d="M27.3,17.8c-0.6,0-1.3-0.1-1.9-0.4c-2.2-1.1-3.1-3.7-2-5.9c0.2-0.4,0.8-0.6,1.2-0.4
				c0.4,0.2,0.6,0.8,0.4,1.2c-0.6,1.3-0.1,2.9,1.2,3.5c1.3,0.6,2.9,0.1,3.5-1.2c0.2-0.4,0.8-0.6,1.2-0.4c0.4,0.2,0.6,0.8,0.4,1.2
				C30.5,16.9,28.9,17.8,27.3,17.8z"/>
			<path class="st10" d="M20.5,22.8c-0.6,0-1.2-0.1-1.8-0.4c-2.2-1-3.2-3.6-2.3-5.8c0.2-0.5,0.7-0.7,1.2-0.5
				c0.5,0.2,0.7,0.7,0.5,1.2c-0.6,1.3,0,2.9,1.3,3.4c0.6,0.3,1.3,0.3,2,0c0.6-0.3,1.2-0.7,1.4-1.4C23,19,23.6,18.8,24,19
				c0.5,0.2,0.7,0.7,0.5,1.2c-0.5,1.1-1.3,1.9-2.4,2.3C21.5,22.7,21,22.8,20.5,22.8z"/>
			<path class="st10" d="M30.5,13c-0.1,0-0.3,0-0.4,0c-1.2-0.1-2.2-0.7-3-1.6c-0.3-0.4-0.3-0.9,0.1-1.3c0.4-0.3,1-0.3,1.3,0.1
				c0.4,0.5,1.1,0.9,1.8,0.9c0.7,0.1,1.4-0.1,1.9-0.6c1.1-0.9,1.3-2.6,0.4-3.7c-0.3-0.4-0.3-0.9,0.1-1.3c0.4-0.3,1-0.3,1.3,0.1
				c1.5,1.9,1.3,4.7-0.6,6.2C32.5,12.7,31.5,13,30.5,13z"/>
			<path class="st12" d="M45.9,19.5c0-1.3-0.7-2.4-1.8-3c0.5-1,0.8-2.2,0.8-3.4c0-4.4-3.6-7.9-8-7.9c-1.2,0-2.3,0.2-3.2,0.7
				c-1.2-1.6-3.1-2.7-5.3-2.7c-2.5,0-4.6,1.3-5.7,3.3c-1.2-0.8-2.7-1.3-4.3-1.3c-4.2,0-7.5,3.3-7.5,7.4c0,0.3,0,0.6,0.1,0.9
				c-3,1-5.1,3.7-5.1,7c0,2.5,1.3,4.8,3.3,6.1c-0.8,1.1-1.3,2.4-1.3,3.8c0,3.5,2.9,6.4,6.5,6.4c1.5,0,2.9-0.5,4-1.3
				c1.5,2,3.8,3.3,6.5,3.3c2.9,0,5.4-1.5,6.8-3.7c1,1.6,2.7,2.7,4.8,2.7c3,0,5.5-2.4,5.5-5.4c0-0.7-0.1-1.3-0.4-1.9
				c2-0.8,3.4-2.7,3.4-5c0-1.1-0.3-2.1-0.9-2.9C45.2,22,45.9,20.9,45.9,19.5z"/>
			<path class="st9" d="M18.8,29.4c-0.6,0-1.1-0.1-1.7-0.3c-2.3-0.9-3.3-3.5-2.4-5.7c0.2-0.5,0.7-0.7,1.2-0.5
				c0.5,0.2,0.7,0.7,0.5,1.2c-0.5,1.3,0.1,2.9,1.4,3.4c1.3,0.5,2.9-0.1,3.4-1.4c0.2-0.5,0.7-0.7,1.2-0.5c0.5,0.2,0.7,0.7,0.5,1.2
				C22.2,28.3,20.5,29.4,18.8,29.4z"/>
			<path class="st9" d="M26.6,20.5c-0.5-0.2-1-0.5-1.4-0.9c-1.7-1.7-1.8-4.5-0.1-6.2c0.3-0.4,0.9-0.4,1.3,0c0.4,0.3,0.4,0.9,0,1.3
				c-1,1-1,2.7,0.1,3.7c1,1,2.7,1,3.7-0.1c0.3-0.4,0.9-0.4,1.3,0c0.4,0.3,0.4,0.9,0,1.3C30.1,20.8,28.2,21.1,26.6,20.5z"/>
			<path class="st9" d="M13.9,12.4c0.1-0.5,0.3-1.1,0.6-1.6c1.3-2,4.1-2.6,6.1-1.2c0.4,0.3,0.5,0.8,0.3,1.2
				c-0.3,0.4-0.8,0.5-1.2,0.3c-1.2-0.8-2.8-0.5-3.6,0.7c-0.8,1.2-0.5,2.8,0.7,3.6c0.4,0.3,0.5,0.8,0.3,1.2c-0.3,0.4-0.8,0.5-1.2,0.3
				C14.2,16,13.5,14.1,13.9,12.4z"/>
			<path class="st9" d="M38.7,13.9c-0.2,0.5-0.6,0.9-1,1.3c-1.8,1.6-4.6,1.4-6.2-0.4c-0.3-0.4-0.3-0.9,0.1-1.3
				c0.4-0.3,0.9-0.3,1.3,0.1c0.9,1.1,2.6,1.2,3.7,0.3c1.1-0.9,1.2-2.6,0.3-3.7c-0.3-0.4-0.3-0.9,0.1-1.3c0.4-0.3,0.9-0.3,1.3,0.1
				C39.3,10.4,39.5,12.3,38.7,13.9z"/>
			<path class="st9" d="M35.8,30.1c-0.4,0.4-0.8,0.8-1.3,1c-2.2,1.1-4.8,0.3-5.9-1.9c-0.2-0.4-0.1-1,0.4-1.2c0.4-0.2,1-0.1,1.2,0.4
				c0.7,1.3,2.2,1.8,3.5,1.1c1.3-0.7,1.8-2.2,1.1-3.5c-0.2-0.4-0.1-1,0.4-1.2c0.4-0.2,1-0.1,1.2,0.4C37.2,26.8,36.9,28.8,35.8,30.1z
				"/>
			<g>
				<path class="st7" d="M29.4,45.7c-0.5-0.1-1-0.2-1.5-0.3c0,0-3.8-0.5-3-2.8s9.5-4.9,9.3-7.7C34.2,35,39.4,47.5,29.4,45.7z"/>
			</g>
			<g>
				<path class="st7" d="M41.9,41.1c-0.5,0.5-1.1,1.1-1.6,1.7c0,0-4.1,4.5-4,2.5c0.1-2,8.3-13.7,7.2-14.6
					C43.4,30.7,52.8,29.6,41.9,41.1z"/>
			</g>
			<g>
				<path class="st7" d="M22.5,39.7c0.1-0.5,0.2-1,0.3-1.6c0,0,1.4-3.8-2.1-5.2c-3.5-1.5-11.5,3.5-15,0.7
					C5.7,33.6,19.5,50.1,22.5,39.7z"/>
			</g>
		</g>
		<g>
			<path class="st7" d="M22.2,45c-0.7-0.3-1.5-0.7-2.3-1.1c0,0-6-1.9-4.4-7.4s15.7-10.1,15.7-16.9C31.2,19.6,37.9,51.3,22.2,45z"/>
			<path class="st13" d="M22.2,45c11.2-1.7,9-25.4,9-25.4S37.9,51.3,22.2,45z"/>
		</g>
		<g>
			<path class="st7" d="M43.5,37.7c-0.2-0.3-0.4-0.6-0.6-1c0,0-1.6-1.8-0.4-5.8c1.2-4,6.2-6.8,7.1-12C49.7,18.9,47.6,43.4,43.5,37.7
				z"/>
			<path class="st13" d="M43.5,37.7c3.7-0.7,6.1-18.8,6.1-18.8c0.2,5.1-0.5,9-1.1,11.6c-0.4,1.8-1.9,8-3.8,8
				C44.2,38.6,43.8,38.1,43.5,37.7z"/>
		</g>
		<g>
			<path class="st7" d="M31.5,45.2c-0.2-0.4-0.3-0.8-0.4-1.3c0,0-1.5-2.7,1.3-5.9s10.1-3,12.8-7.4C45.2,30.6,34.9,53,31.5,45.2z"/>
			<path class="st13" d="M31.5,45.2c4.9,1.5,13.7-14.6,13.7-14.6S34.9,53,31.5,45.2z"/>
		</g>
		<g>
			<path class="st7" d="M16.3,38c0-0.3-0.1-0.7-0.3-1.1c0,0-0.1-2.3-3.5-4.6s-8.3-1.4-12.2-4.7C0.3,27.5,17.3,44.7,16.3,38z"/>
			<path class="st13" d="M16.3,38c-2.8,1.8-16-10.4-16-10.4S17.3,44.7,16.3,38z"/>
			<path class="st14" d="M10.2,33.1c-0.2,0-0.4,0.1-0.6,0.3c0.5,0.3,1,0.7,1.5,1.1c0.2,0.1,0.3,0.2,0.5,0.3c0.5,0.1,1.1,0.3,1.7,0.8
				c0.2,0.1,0.4,0.3,0.6,0.4c-0.5-0.4-1-0.6-1.5-0.8c-0.1,0-0.2-0.1-0.3-0.1c0.8,0.6,1.6,1.3,2.4,2c0.2,0.2,0.4,0.4,0.6,0.5
				c0.1,0.1,0.2,0.2,0.3,0.3c0,0,0.1,0.1,0.1,0.1c0,0,0.1,0.1,0.1,0.1c0,0-0.1,0-0.1-0.1c-0.1,0-0.1-0.1-0.2-0.1
				c-0.1-0.1-0.2-0.2-0.3-0.2c-0.2-0.2-0.4-0.3-0.6-0.5c-0.5-0.4-0.9-0.7-1.4-1.1c0.2,0.3,0.4,0.6,0.7,0.9c0.2,0.3,0.5,0.6,0.8,0.9
				c-0.3-0.3-0.5-0.5-0.8-0.8c-0.2-0.3-0.5-0.6-0.7-0.8c-0.1-0.2-0.2-0.3-0.4-0.5c-0.5-0.4-1-0.8-1.5-1.1c-0.1-0.1-0.3-0.2-0.4-0.3
				c0.4,0.6,0.8,1.2,1.3,1.8c0.1,0.2,0.3,0.3,0.4,0.5c-0.6-0.6-1.2-1.4-1.7-2.1c-0.1-0.2-0.3-0.4-0.4-0.6c-0.6-0.5-1.3-0.9-1.9-1.3
				c-0.2-0.1-0.4-0.2-0.5-0.3c0.2,0.5,0.5,1,0.8,1.5c0.3,0.5,0.7,1,1.1,1.5c0.2,0.3,0.5,0.6,0.7,0.9c-0.5-0.5-1-1-1.4-1.6
				c-0.4-0.5-0.8-1.1-1.1-1.6c-0.2-0.3-0.4-0.6-0.5-0.9c-0.3-0.2-0.6-0.3-0.8-0.4c0,0-0.1,0-0.1,0c-0.3-0.2-0.6-0.3-1-0.4
				c-0.3-0.1-0.6-0.2-0.9-0.3c-0.6-0.2-1.3-0.4-1.9-0.6c-0.3-0.1-0.6-0.2-0.9-0.3c0,0-0.1,0-0.1-0.1c0,0,0.1,0,0.1,0
				c0.1,0,0.1,0,0.2,0.1c0.1,0,0.3,0.1,0.4,0.1c0.6,0.1,1.2,0.3,1.8,0.5C4.7,30.9,5,31,5.3,31.1c0.3,0.1,0.6,0.2,0.9,0.4
				c0.1,0,0.2,0.1,0.2,0.1c0-0.1,0.1-0.2,0.1-0.2c0-0.1,0.1-0.1,0.2-0.2c0.1,0,0.1-0.1,0.2-0.1C7,31,7,30.9,7.1,30.9
				c0.2-0.1,0.4-0.1,0.6-0.1c0.2,0,0.5,0.1,0.8,0.2C8,30.8,7.6,30.9,7.3,31c-0.1,0-0.1,0.1-0.1,0.1c0,0,0,0.1-0.1,0.1
				c0,0-0.1,0.1-0.1,0.1c0,0-0.1,0.1-0.1,0.1c0,0.1-0.1,0.2-0.1,0.3c0.3,0.2,0.6,0.3,1,0.5c0.2,0.1,0.4,0.3,0.7,0.4
				c0.3,0.2,0.5,0.3,0.8,0.5c0.3-0.2,0.9-0.3,1.5,0c0.2,0.1,0.4,0.2,0.6,0.3C10.9,33.1,10.5,33.1,10.2,33.1z"/>
		</g>
		<path class="st14" d="M18.2,41.4c0.4,0.5,0.8,1.1,1.3,1.6c-0.2,0.2-0.4,0.3-0.5,0.5c0.3,0.2,0.6,0.3,0.9,0.5
			c0.6,0.3,1.2,0.6,1.8,0.8c0.1-0.1,0.2-0.4,0.3-0.6c0.4-0.8,0.7-1.4,1-2c0.3-0.5,0.7-1.3,1.2-2.3c1.3,0,3.3-0.3,5.3-1.6
			c0.5-0.3,1-0.7,1.3-1c-0.3,0.2-2.3,1.4-3.9,1.8c-0.6,0.2-1.4,0.3-1.4,0.3c-0.5,0.1-1,0.1-1.3,0.1c0.6-1,1.2-2.1,1.7-3.2
			c0.2-0.5,0.5-1,0.7-1.5c0.9-0.3,1.5-0.7,2-1c0.6-0.4,1.1-0.7,1.6-1.4c0.3-0.4,0.5-0.8,0.6-1.1c-0.7,1.1-1.7,2-2.9,2.6
			c-0.3,0.2-0.7,0.3-1.1,0.5c0.8-1.7,1.4-3.4,1.9-5.2c0.1-0.4,0.2-0.9,0.3-1.3c0-0.2,0.1-0.4,0.1-0.7c0-0.1,0-0.2,0.1-0.3
			c0-0.1,0.1-0.3,0-0.3c-0.1,0-0.1,0.1-0.2,0.2c-0.1,0.1-0.1,0.2-0.2,0.3c-0.1,0.2-0.2,0.4-0.3,0.6c-0.2,0.4-0.5,1.1-0.6,1.3
			c-0.5,1.1-1.3,2.5-1.5,2.8c-0.2-0.4-0.5-0.8-0.7-1.4c-0.3-0.9-0.4-1.7-0.4-2.3c-0.1,0.8-0.1,1.4,0,1.8c0.1,0.5,0.2,0.8,0.4,1.2
			c0.2,0.4,0.3,0.8,0.5,1c-0.5,1.1-1.1,2.4-1.8,3.6c-0.3,0.4-0.5,0.8-0.8,1.2c-0.6-1.1-1.1-2.4-1.5-3.9c-0.1-0.4-0.1-0.7-0.2-1.1
			c-0.1,1.5,0.3,2.9,0.9,4.3c0.2,0.4,0.3,0.8,0.5,1.2c-0.6,1.2-1.5,2.4-2.6,3.7c-0.4,0.5-0.8,0.9-1.2,1.3c-0.7-0.7-1.5-1.6-2.2-2.8
			c-0.7-1.3-1-2.4-1.1-3c-0.2-0.7-0.3-1.4-0.3-1.8c0,1.1,0.1,2.3,0.5,3.4C17,39.4,17.5,40.4,18.2,41.4z"/>
		<path class="st14" d="M32.3,44c0,0.4-0.1,0.8-0.1,1.3c-0.1,0.1-0.2,0.2-0.3,0.3c0,0.2,0.1,0.3,0.1,0.5c0.1,0.3,0.2,0.6,0.3,0.8
			c0.1-0.1,0.2-0.2,0.3-0.4c0.4-0.5,0.7-0.9,1-1.2c0.3-0.3,0.6-0.8,1.1-1.4c0.4,0.2,1.2,0.3,2.3-0.3c0.3-0.1,0.5-0.3,0.8-0.5
			c-0.1,0.1-1.2,0.6-1.9,0.7c-0.3,0-0.6,0-0.6,0c-0.2,0-0.4-0.1-0.5-0.1c0.5-0.6,1-1.2,1.6-1.9c0.2-0.3,0.5-0.6,0.7-0.9
			c0.4-0.1,0.7-0.2,1-0.4c0.3-0.2,0.6-0.3,1-0.7c0.2-0.2,0.4-0.5,0.6-0.7c-0.6,0.6-1.2,1.1-1.8,1.3c-0.2,0.1-0.3,0.1-0.5,0.2
			c0.8-1,1.5-2.1,2.3-3.2c0.2-0.3,0.4-0.6,0.5-0.9c0.1-0.1,0.2-0.3,0.2-0.4c0-0.1,0.1-0.1,0.1-0.2c0,0,0.1-0.2,0.1-0.2
			c0,0-0.1,0.1-0.1,0.1c-0.1,0.1-0.1,0.1-0.2,0.2c-0.1,0.1-0.2,0.3-0.3,0.4c-0.2,0.3-0.5,0.6-0.6,0.8c-0.5,0.7-1.2,1.5-1.4,1.7
			c0-0.3,0.1-0.6,0.2-1c0.2-0.7,0.4-1.2,0.6-1.6c-0.3,0.5-0.5,1-0.6,1.2c-0.1,0.3-0.2,0.6-0.3,0.9c-0.1,0.3-0.1,0.6-0.2,0.7
			c-0.5,0.7-1.1,1.4-1.7,2.2c-0.2,0.3-0.4,0.5-0.6,0.7c0.1-0.8,0.4-1.8,0.7-2.9c0.1-0.3,0.2-0.5,0.3-0.8c-0.5,1-0.8,2.1-1.1,3.1
			c-0.1,0.3-0.1,0.6-0.2,0.9c-0.6,0.7-1.3,1.4-2,2.2c-0.3,0.3-0.5,0.5-0.8,0.7c0-0.6,0-1.3,0.2-2.2c0.2-1,0.4-1.8,0.6-2.2
			c0.2-0.5,0.3-1,0.5-1.3c-0.4,0.8-0.7,1.6-0.9,2.4C32.5,42.5,32.4,43.3,32.3,44z"/>
		<path class="st15" d="M43.2,33.9c0.1,0.4,0.2,0.8,0.3,1.2c-0.1,0.1-0.2,0.2-0.3,0.4c0.1,0.1,0.2,0.3,0.3,0.4
			c0.2,0.3,0.4,0.5,0.6,0.7c0-0.1,0.1-0.3,0.2-0.4c0.2-0.6,0.4-1,0.6-1.4c0.2-0.4,0.4-0.9,0.7-1.6c0.5,0,1.2-0.1,2.1-0.9
			c0.2-0.2,0.4-0.4,0.6-0.7c-0.1,0.1-1,0.9-1.6,1.1c-0.3,0.1-0.5,0.1-0.5,0.1c-0.2,0-0.4,0-0.5,0c0.3-0.7,0.7-1.5,1-2.3
			c0.1-0.4,0.3-0.7,0.4-1c0.4-0.2,0.6-0.4,0.8-0.6c0.3-0.2,0.5-0.5,0.7-0.9c0.2-0.3,0.3-0.6,0.4-0.8c-0.4,0.8-0.8,1.4-1.3,1.8
			c-0.1,0.1-0.3,0.2-0.4,0.3c0.5-1.2,0.9-2.4,1.3-3.7c0.1-0.3,0.2-0.6,0.3-1c0-0.2,0.1-0.3,0.1-0.5c0-0.1,0-0.2,0.1-0.2
			c0,0,0.1-0.2,0-0.2c0,0-0.1,0.1-0.1,0.1c0,0.1-0.1,0.2-0.1,0.2c-0.1,0.2-0.1,0.3-0.2,0.5c-0.1,0.3-0.3,0.8-0.4,0.9
			c-0.3,0.8-0.8,1.8-0.9,2c0-0.3-0.1-0.6-0.1-1c0-0.7,0.1-1.3,0.1-1.7c-0.1,0.6-0.2,1.1-0.2,1.3c0,0.3,0,0.6,0,0.9
			c0,0.3,0,0.6,0,0.8c-0.3,0.8-0.7,1.7-1.1,2.6c-0.1,0.3-0.3,0.6-0.4,0.9c-0.1-0.8-0.1-1.8-0.1-3c0-0.3,0-0.6,0.1-0.8
			c-0.2,1.1-0.2,2.2-0.2,3.3c0,0.3,0,0.6,0.1,0.9c-0.4,0.8-0.8,1.7-1.4,2.6c-0.2,0.3-0.4,0.6-0.6,0.9c-0.2-0.5-0.4-1.3-0.5-2.2
			c-0.1-1-0.1-1.8,0-2.3c0-0.5,0.1-1,0.1-1.4c-0.1,0.8-0.2,1.7-0.2,2.5C43,32.4,43,33.2,43.2,33.9z"/>
	</g>
</g>
<g id="aubergine" class="st0">
	<g class="st1">
		<g>
			<path class="st16" d="M42.9,16.1C42.9,16.1,43,16.1,42.9,16.1L42.9,16.1C42.9,16.1,42.9,16.1,42.9,16.1c-0.9-0.6-1.3-1.7-0.8-2.4
				c-0.5,0.7-1.6,0.7-2.5,0c-0.9-0.6-1.3-1.7-0.8-2.4c-0.5,0.7-1.6,0.7-2.5,0c-0.9-0.6-1.3-1.7-0.8-2.4C35,9.7,34,9.8,33.2,9.3
				c-1.3,0.9-2.7,2.2-4.3,4c0,0-6.9,6.4-16.5,8.2c-0.9,0.2-1.8,0.4-2.6,0.7c-0.4,0.2-1.2,0.6-1.2,0.6c-5.7,3.2-8.7,9.9-7,16.4
				c1.6,5.9,6.6,9.9,12.4,10.6c2.6,0.3,5.3-0.3,7.7-1.4c5.3-2.5,16.2-9.7,20.7-28.2c0,0,0.7-1.7,1.2-3.8
				C43.2,16.3,43.1,16.2,42.9,16.1z"/>
			<path class="st17" d="M42.7,6.5c-0.5,0-0.9-0.4-0.9-0.9s0.4-0.9,0.9-0.9c1.6,0,3-0.5,3.5-1.3c0.4-0.6,0.4-1.4,0-2.3
				c-0.2-0.4,0-0.9,0.5-1.1c0.4-0.2,0.9,0,1.1,0.5c0.8,1.9,0.4,3.2-0.1,3.9C46.8,5.7,44.9,6.5,42.7,6.5z"/>
			<path class="st5" d="M32.9,9.1c-0.8-0.6-1.1-1.7-0.5-2.5c0.6-0.8,1.7-1,2.6-0.4c1.8-2.6,5.1-2.4,7.8-0.5c2.7,1.9,3.9,4.8,2.1,7.4
				c0.8,0.6,1.1,1.7,0.5,2.5c-0.6,0.8-1.6,1-2.5,0.5l0,0c-0.9-0.6-1.3-1.7-0.8-2.4c-0.5,0.7-1.6,0.7-2.5,0c-0.9-0.6-1.3-1.7-0.8-2.4
				c-0.5,0.7-1.6,0.7-2.5,0c-0.9-0.6-1.3-1.7-0.8-2.4C35,9.8,33.9,9.8,32.9,9.1"/>
			<path class="st18" d="M7.6,42.8c-0.3,0-0.6-0.1-0.7-0.4c-2-3.3-2.3-7.8-0.6-11.6c0.2-0.4,0.7-0.6,1.1-0.4s0.6,0.7,0.4,1.1
				c-1.4,3.3-1.2,7.1,0.5,10c0.2,0.4,0.1,0.9-0.3,1.2C7.9,42.8,7.7,42.8,7.6,42.8z"/>
			<path class="st18" d="M8.7,29.3c-0.2,0-0.4-0.1-0.6-0.2c-0.4-0.3-0.4-0.8-0.1-1.2c1-1.2,2.4-2.2,3.8-2.7c0.4-0.2,0.9,0,1.1,0.5
				c0.2,0.4,0,0.9-0.5,1.1c-1.2,0.5-2.3,1.3-3.1,2.3C9.2,29.2,9,29.3,8.7,29.3z"/>
		</g>
		<g>
		</g>
		<g>
		</g>
		<g>
		</g>
		<g>
		</g>
		<g>
		</g>
		<g>
		</g>
		<g>
		</g>
		<g>
		</g>
		<g>
		</g>
		<g>
		</g>
		<g>
		</g>
		<g>
		</g>
		<g>
		</g>
		<g>
		</g>
		<g>
		</g>
	</g>
</g>
<g id="strawberry" class="st0">
	<g class="st1">
		<polygon class="st5" points="26.3,8.4 23.8,8.9 21.3,1.5 25.6,0.3 		"/>
		<path class="st3" d="M31.8,7.6c0.9-0.8,1.6-1.9,2-3.1C29.1,2.8,27.6,5,27.6,5c-0.1-0.9-0.8-1.3-1.7-1.4l0.4,4.8l0,0l0,0l0,0
			l-2.5,0.5l0,0l0,0l0,0l-1.5-4.5c-0.5,0.2-0.8,0.5-0.8,0.7c0,0-1.5-2.3-6.2-0.5c0.4,1.2,1.1,2.3,2.1,3.2c-3.8,0.5-7.3,1.9-9.1,5.1
			c8.9,2.7,11.6-1.6,11.6-1.6c0.5,5.8,5.1,7.6,5.8,7.8c0.7-0.2,5.2-2,5.8-7.8c0,0,1,4.3,9.9,1.6C39.3,9.5,35.6,8.1,31.8,7.6z"/>
		<g>
			<path class="st19" d="M39.8,13.2C39.8,13.2,39.8,13.2,39.8,13.2c-7.5,1.7-8.4-2.1-8.4-2.1c-0.5,5.8-5.1,7.6-5.8,7.8
				c-0.7-0.2-5.2-2-5.8-7.8c0,0-2.2,3.5-9.3,2.2c0,0,0,0,0,0c0,0,0,0,0.1,0c-2.1,2.1-3.2,5.4-3.2,10.4c0,11.1,11.2,26,17.8,26
				S43,34.9,43,23.7c0-5.1-1.2-8.4-3.3-10.5C39.7,13.2,39.7,13.2,39.8,13.2z"/>
		</g>
		<path class="st20" d="M15.4,18.2c-0.1-0.3-0.6-0.3-0.7,0c0,0-1.3,4.6-1.3,5s0.2,0.9,0.5,1.2c0.3,0.3,0.7,0.5,1.2,0.5
			s0.9-0.2,1.2-0.5c0.3-0.3,0.5-0.7,0.5-1.2S15.4,18.2,15.4,18.2z"/>
		<path class="st20" d="M25.7,21.7c-0.1-0.3-0.6-0.3-0.7,0c0,0-1.3,4.6-1.3,5s0.2,0.9,0.5,1.2c0.3,0.3,0.7,0.5,1.2,0.5
			s0.9-0.2,1.2-0.5c0.3-0.3,0.5-0.7,0.5-1.2S25.7,21.7,25.7,21.7z"/>
		<path class="st20" d="M35.4,18.2c-0.1-0.3-0.6-0.3-0.7,0c0,0-1.3,4.6-1.3,5s0.2,0.9,0.5,1.2c0.3,0.3,0.7,0.5,1.2,0.5
			c0.4,0,0.9-0.2,1.2-0.5c0.3-0.3,0.5-0.7,0.5-1.2S35.4,18.2,35.4,18.2z"/>
		<path class="st20" d="M19.6,29.5c-0.1-0.3-0.6-0.3-0.7,0c0,0-1.3,4.6-1.3,5c0,0.4,0.2,0.9,0.5,1.2c0.3,0.3,0.7,0.5,1.2,0.5
			c0.4,0,0.9-0.2,1.2-0.5c0.3-0.3,0.5-0.7,0.5-1.2S19.6,29.5,19.6,29.5z"/>
		<path class="st20" d="M25.7,37.3c-0.1-0.3-0.6-0.3-0.7,0c0,0-1.3,4.6-1.3,5c0,0.4,0.2,0.9,0.5,1.2c0.3,0.3,0.7,0.5,1.2,0.5
			s0.9-0.2,1.2-0.5c0.3-0.3,0.5-0.7,0.5-1.2S25.7,37.3,25.7,37.3z"/>
		<path class="st20" d="M31.8,29.5c-0.1-0.3-0.6-0.3-0.7,0c0,0-1.3,4.6-1.3,5c0,0.4,0.2,0.9,0.5,1.2c0.3,0.3,0.7,0.5,1.2,0.5
			s0.9-0.2,1.2-0.5c0.3-0.3,0.5-0.7,0.5-1.2S31.8,29.5,31.8,29.5z"/>
	</g>
</g>
<g id="watermelon">
	<g>
		<path class="st21" d="M16.9,38.6c-4,0-7.8-1.6-10.7-4.4c-2.9-2.9-4.4-6.7-4.4-10.7c0-4,1.6-7.8,4.4-10.7c2.9-2.9,6.7-4.4,10.7-4.4
			c4,0,7.8,1.6,10.7,4.4c2.9,2.9,4.4,6.7,4.4,10.7c0,4-1.6,7.8-4.4,10.7C24.8,37,21,38.6,16.9,38.6z"/>
		<path class="st22" d="M21,4.3c0-0.6-0.5-1-1-1c-0.1,0-0.2,0-0.3,0.1l0,0c-0.1,0-1,0.3-1.9,1.1c-1.2,1-1.9,2.4-1.9,4l2,0
			c0-2.2,2.2-3,2.3-3.1l0,0C20.7,5.1,21,4.7,21,4.3z"/>
		<path class="st5" d="M16.9,7.3C8,7.3,0.8,14.5,0.8,23.5c0,8.9,7.2,16.1,16.1,16.1c8.9,0,16.1-7.2,16.1-16.1
			C33.1,14.5,25.8,7.3,16.9,7.3z M19.6,37.3c-0.1,0-0.1,0-0.2,0c-0.3-5.9,0.7-8.5,1.7-9.7c0.3-0.3,1.6-1.8,1.6-3.6
			c0-0.8-0.2-1.5-0.2-1.5c-0.2-0.8-0.6-1.1-0.9-1.8c0,0-0.6-1-0.9-2.5c-0.5-2.1,0.6-2.9,0.5-4.8c0-1-0.4-2.3-1.8-4
			c0.1,0,0.1,0,0.2,0c0.5,0,1.7,0.2,2.7,1.1c1.2,1.2,1.2,3,1.2,3.6c0,2-1.1,2.7-0.6,4.3c0.2,0.7,0.6,1.3,0.7,1.5
			c0.7,1.1,1.2,1.2,1.5,1.9c0.1,0.2,0.3,0.8-0.4,2.9c-0.4,1.3-0.8,2.2-1.3,3.3c-1.1,2.3-1.6,3.5-1.6,3.6C21.1,34.4,22,36.1,21,37
			C20.5,37.3,20,37.3,19.6,37.3z M14.2,37.3c-2.1-0.4-3-1.3-3.4-2c-0.4-0.7-0.3-1.2-0.7-3c-0.5-2.1-0.9-2-1.1-3.3
			c-0.4-2.5,1-2.9,0.6-5.5c-0.2-1.6-0.9-1.9-0.7-3.3c0.2-1.3,0.7-1.2,1.1-2.7c0.6-2.2-0.4-3.3,0.5-4.4c0.5-0.6,1-0.4,1.4-1.1
			c0.4-0.7,0-1.2,0.4-1.8c0.2-0.3,0.7-0.7,1.8-0.9c0,0,0.1,0,0.1,0c0,0,0.1,0,0.1,0c0.4,0.6,0.9,1.5,0.7,2.4
			c-0.3,1.3-1.7,1.4-2.3,2.8c-0.5,1.2,0.8,1.8,0.4,3.4c-0.3,1-0.8,0.8-1,1.8c-0.2,0.9,0.3,2.5,0.7,3.7c0.2,0.8,0.4,1.2,0.4,1.4
			c0,1.1-0.9,1.4-0.9,2.5c0,0.5,0.2,0.8,0.1,1.3c-0.1,0.5-0.4,0.7-0.6,1c-0.5,0.9,0.7,2.3,1.5,4.2C13.7,34.7,14.1,35.8,14.2,37.3z
			 M3.9,29c-0.4-0.6-0.7-0.8-0.8-1.4c-0.1-0.5,0.1-0.7,0.3-1.4c0.2-0.7,0.4-1.4,0.4-2.1c0-1.3-0.7-1.6-0.7-3.1c0-0.4,0-0.7,0.1-0.8
			c0.1-0.8,0.4-1.4,0.7-2.1c0.7-1.7,1.7-3.2,3-4.5c1-1,2.1-1.8,3.4-2.5c-0.2,0.3-0.5,0.6-0.8,1.1c-0.1,0.1-0.6,0.9-0.9,1.3
			c-0.8,1.4-0.2,2.3-0.8,4c-0.5,1.3-1,1-1.4,2.1c-0.7,1.9,0.8,2.7,1,5.5c0.1,2.5-1,3-0.3,4.7c0.4,1.1,1,1,1.5,2.5
			c0.3,0.9,0.4,1.6,0.9,2.6c0.3,0.5,0.6,0.9,0.8,1.1c-1-0.3-2.4-1-3.7-2.2c-0.8-0.8-1.5-1.4-1.9-2.5C4.3,30.3,4.5,29.9,3.9,29z
			 M16.6,37.6c-0.4-1.8-0.9-3.2-1.4-4.1c-0.6-1.2-1.2-1.9-1-2.9c0.1-0.8,0.6-1.1,0.5-2c-0.1-0.7-0.5-0.8-0.5-1.4
			c0-1.2,1.4-1.5,1.3-2.5c-0.1-0.6-0.8-0.6-1.3-1.6c-0.1-0.2-0.6-1-0.4-2.1c0.2-1.5,1.5-1.7,1.5-3c0-1-0.9-1.4-0.7-2.4
			c0.1-0.6,0.5-0.9,0.7-1.1c0.7-0.7,1.3-2.1,1.2-5.3c0.1,0,0.2,0,0.3,0c0.1,0,0.2,0,0.3,0c1,1.1,2.1,2.6,2.1,4.6
			c0,1.1-0.3,1.2-0.6,2.9c-0.2,1.4-0.5,3.6,0.5,5.7c0.6,1.4,1.3,1.7,1.1,2.6c-0.2,0.8-0.8,0.7-1.6,2.1c-0.2,0.3-0.5,0.9-1.1,2.2
			c-0.6,1.3-0.6,1.4-0.6,1.5c-0.1,0.8,0.1,1.4,0.6,2.7c1.2,3.1,1.4,3.6,1.1,3.9C18.5,37.8,18.1,38,16.6,37.6z M26.9,33.4
			c-1,1-2.1,1.9-3.4,2.5c-1.3,0.9-1.7,1-1.7,0.9c-0.1-0.1,1.2-0.9,2-2.5c0.5-1.1,0.3-1.5,0.8-3.1c0.4-1.4,0.8-1.6,1.5-3.2
			c0.8-1.6,1.4-3,1.5-4.6c0.1-2.5-1.4-2.3-2-6c-0.4-2.1-0.1-3.6-1.3-5.6c-0.3-0.5-0.6-0.9-0.8-1.1c1.2,0.7,2.4,1.5,3.4,2.5
			c1,1,1.6,1.6,1.9,2.3c0.5,1.2,0,1.6,0.5,2.7c0.5,0.9,0.9,0.8,1.3,1.7c0.4,0.8,0.4,1.7,0.4,3.4c0,1.9-0.4,3.8-1.1,5.5
			C29.2,30.6,28.2,32.1,26.9,33.4z"/>
		<path class="st23" d="M16.9,29.5c0,8.9,7.2,16.1,16.1,16.1c8.9,0,16.1-7.2,16.1-16.1H16.9z"/>
		<path class="st24" d="M33.1,43.6c7.8,0,14.1-6.3,14.1-14.1H18.9C18.9,37.3,25.3,43.6,33.1,43.6z"/>
		<path class="st25" d="M33.1,42.6c7.2,0,13.1-5.9,13.1-13.1H20C20,36.8,25.8,42.6,33.1,42.6z"/>
		<g>
			<path class="st22" d="M25,32.5c-0.6,0-1,0.5-1,1c0,0.6,0.5,1,1,1c0.6,0,1-0.5,1-1C26,33,25.6,32.5,25,32.5z"/>
			<path class="st22" d="M30,32.5c-0.6,0-1,0.5-1,1c0,0.6,0.5,1,1,1s1-0.5,1-1C31.1,33,30.6,32.5,30,32.5z"/>
			<path class="st22" d="M35.1,32.5c-0.6,0-1,0.5-1,1c0,0.6,0.5,1,1,1s1-0.5,1-1C36.1,33,35.6,32.5,35.1,32.5z"/>
			<path class="st22" d="M40.1,32.5c-0.6,0-1,0.5-1,1c0,0.6,0.5,1,1,1s1-0.5,1-1C41.1,33,40.7,32.5,40.1,32.5z"/>
			<path class="st22" d="M27.5,36.4c-0.6,0-1,0.5-1,1s0.5,1,1,1c0.6,0,1-0.5,1-1S28.1,36.4,27.5,36.4z"/>
			<path class="st22" d="M32.6,36.4c-0.6,0-1,0.5-1,1s0.5,1,1,1c0.6,0,1-0.5,1-1S33.1,36.4,32.6,36.4z"/>
			<path class="st22" d="M37.6,36.4c-0.6,0-1,0.5-1,1s0.5,1,1,1c0.6,0,1-0.5,1-1S38.2,36.4,37.6,36.4z"/>
		</g>
		<g>
		</g>
		<g>
		</g>
		<g>
		</g>
		<g>
		</g>
		<g>
		</g>
		<g>
		</g>
		<g>
		</g>
		<g>
		</g>
		<g>
		</g>
		<g>
		</g>
		<g>
		</g>
		<g>
		</g>
		<g>
		</g>
		<g>
		</g>
		<g>
		</g>
	</g>
</g>
</svg>
