<?xml version="1.0" encoding="utf-8"?>
<!-- Generator: Adobe Illustrator 19.0.1, SVG Export Plug-In . SVG Version: 6.00 Build 0)  -->
<svg version="1.1" id="watermelon_x5F_grow" xmlns="http://www.w3.org/2000/svg" xmlns:xlink="http://www.w3.org/1999/xlink"
	 x="0px" y="0px" viewBox="-223 225 512 512" style="enable-background:new -223 225 512 512;" xml:space="preserve">
<style type="text/css">
	.st0{fill:#659C35;}
</style>
<g>
	<g>
		<g>
			<path class="st0" d="M53.7,585.6c-1.5,0.7-2.9,1.5-4,2.4c-1.2,0.9-2.1,1.8-2.7,2.8c-0.7,1-1.2,2-1.6,3.1
				c-0.4,1.1-0.6,2.2-0.7,3.3c0,1.1,0,2.2,0,3.2c0.1,1.1,0.3,2.1,0.5,3c0.3,0.9,0.5,1.8,0.8,2.5c0.2,0.7,0.5,1.3,0.7,1.7l0.3,0.6
				c-5.5,3.4-10.3,7.9-14.3,13.5c-4.3,6.1-7.3,13.2-8.7,21.3c-0.1,0.8-0.1,1.4,0.2,2c0.3,0.5,0.7,0.7,1.3,0.7c0.6-0.1,1.1-0.4,1.5-1
				c0.5-0.6,0.7-1.3,0.9-2.1c1.1-6.8,3.4-12.9,6.9-18.2c3.3-5,7.3-9,12-12.3c-0.4,1-0.7,2.1-1,3.1c-0.3,1.1-0.5,2.3-0.7,3.7
				c-0.2,1.5-0.2,2.9-0.1,4.3c0.1,1.4,0.4,2.9,0.9,4.5c0.5,1.6,1.2,3.2,2.2,4.7c1,1.5,2.3,2.9,4,4.4c1.8,1.4,3.8,2.7,6.2,3.8
				c1.2-4.6,1.8-8.6,1.9-12.2c0.1-3.4-0.1-6.1-0.6-8.2c-0.5-2-1.3-3.8-2.3-5.4c-1-1.5-1.9-2.7-2.8-3.5c-0.9-0.8-1.9-1.5-2.9-2.1
				c3-1.6,6.3-2.9,9.9-3.8c0,0.2,0,0.4,0,0.7c0,0.3,0,0.9,0,1.8c0,0.9,0.1,1.9,0.2,2.8c0.1,0.9,0.3,2,0.6,3.4
				c0.3,1.3,0.7,2.6,1.1,3.8c0.4,1.2,1.1,2.5,1.9,3.7c0.8,1.3,1.8,2.5,2.8,3.4c1.1,1,2.4,1.8,4,2.4c1.6,0.6,3.3,1,5.2,1
				c0.4-2.4,0.5-4.7,0.4-6.7c-0.1-2-0.4-3.7-0.9-5.2c-0.5-1.4-1-2.7-1.7-3.9c-0.7-1.2-1.4-2.1-2.2-2.9c-0.8-0.8-1.6-1.4-2.4-2.1
				c-0.8-0.6-1.6-1.1-2.3-1.5c-0.8-0.4-1.4-0.7-2-0.9c-0.6-0.2-1-0.4-1.4-0.5l-0.5-0.1c2.7-0.5,4.8-0.8,6.4-0.9
				c0.2,0.2,0.4,0.4,0.6,0.8c0.3,0.3,0.8,0.9,1.8,1.7c0.9,0.8,1.9,1.6,2.8,2.3c1,0.7,2.2,1.3,3.6,1.9c1.4,0.6,2.8,1,4.2,1
				c1.4,0.1,2.8-0.2,4.3-0.8c1.5-0.6,2.8-1.7,4-3.2c-1.1-1.8-2.2-3.4-3.4-4.6c-1.1-1.2-2.2-2.2-3.2-2.8c-1-0.6-2-1.1-3.1-1.4
				c-1-0.3-2-0.5-3-0.5c-0.9,0-1.8,0.1-2.7,0.2c-0.9,0.1-1.6,0.3-2.3,0.6c-0.7,0.3-1.3,0.5-1.9,0.8c-0.5,0.2-1,0.5-1.3,0.7l-0.5,0.3
				c-0.1,0-0.7,0-1.6,0.1c-1,0.1-1.8,0.1-2.3,0.2c0.1-0.1,0.3-0.2,0.6-0.4c0.2-0.2,0.7-0.6,1.3-1.2c0.6-0.6,1.1-1.2,1.6-1.8
				c0.5-0.6,0.9-1.5,1.4-2.4c0.5-1,0.8-2,0.9-3c0.2-1,0.1-2.1-0.1-3.4c-0.2-1.2-0.6-2.4-1.3-3.7c-1.5,0.1-2.8,0.4-4,0.8
				c-1.2,0.4-2.1,1-2.9,1.6c-0.7,0.6-1.4,1.3-1.9,2.1c-0.6,0.8-1,1.6-1.2,2.5c-0.3,0.9-0.4,1.8-0.6,2.7c-0.1,0.9-0.2,1.8-0.2,2.6
				c0,0.9,0.1,1.6,0.2,2.3c0.1,0.7,0.1,1.2,0.2,1.6l0.1,0.6c-3.2,0.8-6.3,1.9-9.4,3.4c0.2-0.2,0.4-0.4,0.6-0.7
				c0.3-0.3,0.7-1,1.4-1.9c0.6-0.9,1.2-1.9,1.7-2.9c0.5-1,0.9-2.1,1.3-3.5c0.4-1.3,0.5-2.6,0.5-3.8c0-1.2-0.3-2.5-0.8-3.8
				C55.5,587.9,54.7,586.7,53.7,585.6z"/>
		</g>
	</g>
	<g>
		<g>
			<path class="st0" d="M7.6,589.3c-0.5,1.4-0.8,2.6-0.8,3.8c0,1.2,0.2,2.5,0.5,3.8c0.4,1.3,0.8,2.5,1.3,3.5c0.5,1,1.1,1.9,1.7,2.9
				c0.7,1,1.1,1.6,1.4,1.9c0.3,0.3,0.5,0.6,0.6,0.7c-3.1-1.5-6.2-2.6-9.4-3.4l0.1-0.6c0.1-0.4,0.2-0.9,0.2-1.6
				c0.1-0.7,0.1-1.4,0.2-2.3c0-0.8,0-1.7-0.2-2.6c-0.1-0.9-0.3-1.8-0.6-2.7c-0.2-0.9-0.6-1.7-1.2-2.5c-0.5-0.8-1.2-1.5-1.9-2.1
				c-0.7-0.6-1.7-1.2-2.9-1.6c-1.2-0.4-2.5-0.7-4-0.8c-0.6,1.2-1.1,2.4-1.3,3.7c-0.2,1.3-0.3,2.4-0.1,3.4c0.2,1,0.5,2,0.9,3
				c0.5,1,0.9,1.8,1.4,2.4c0.5,0.6,1,1.3,1.6,1.8c0.6,0.6,1,1,1.3,1.2c0.2,0.2,0.4,0.3,0.6,0.4c-0.6-0.1-1.3-0.1-2.3-0.2
				c-1-0.1-1.5-0.1-1.6-0.1l-0.5-0.3c-0.3-0.2-0.7-0.4-1.3-0.7c-0.5-0.2-1.2-0.5-1.9-0.8c-0.7-0.3-1.5-0.5-2.3-0.6
				c-0.9-0.1-1.8-0.2-2.7-0.2c-0.9,0-1.9,0.2-3,0.5c-1,0.3-2.1,0.8-3.1,1.4c-1,0.6-2.1,1.6-3.2,2.8c-1.2,1.3-2.3,2.8-3.4,4.6
				c1.2,1.5,2.5,2.5,4,3.2c1.5,0.6,2.9,0.9,4.3,0.8c1.4-0.1,2.7-0.4,4.2-1c1.4-0.6,2.6-1.2,3.6-1.9c1-0.7,1.9-1.4,2.8-2.3
				c0.9-0.8,1.5-1.4,1.8-1.7c0.3-0.3,0.5-0.6,0.6-0.8c1.6,0.1,3.8,0.4,6.4,0.9l-0.5,0.1c-0.3,0.1-0.8,0.3-1.4,0.5
				c-0.6,0.2-1.2,0.5-2,0.9c-0.8,0.4-1.5,0.9-2.3,1.5c-0.8,0.6-1.6,1.3-2.4,2.1c-0.8,0.8-1.5,1.7-2.2,2.9c-0.7,1.2-1.2,2.5-1.7,3.9
				c-0.5,1.4-0.8,3.2-0.9,5.2c-0.1,2.1,0,4.3,0.4,6.7c1.9,0,3.6-0.4,5.2-1c1.6-0.6,2.9-1.4,4-2.4c1-1,2-2.1,2.8-3.4
				c0.8-1.3,1.4-2.5,1.9-3.7c0.4-1.2,0.8-2.5,1.1-3.8c0.3-1.3,0.5-2.4,0.6-3.4c0.1-0.9,0.2-1.8,0.2-2.8c0-0.9,0-1.5,0-1.8
				c0-0.3,0-0.5,0-0.7c3.6,0.9,6.9,2.2,9.9,3.8c-1,0.6-2,1.3-2.9,2.1c-0.9,0.8-1.8,2-2.8,3.5c-1,1.6-1.8,3.4-2.3,5.4
				c-0.5,2.1-0.8,4.8-0.6,8.2c0.1,3.6,0.7,7.6,1.9,12.2c2.4-1.1,4.5-2.4,6.2-3.8c1.7-1.4,3.1-2.9,4-4.4c0.9-1.5,1.7-3,2.2-4.7
				c0.5-1.6,0.8-3.1,0.9-4.5c0.1-1.4,0-2.8-0.1-4.3c-0.2-1.4-0.4-2.7-0.7-3.7c-0.3-1.1-0.6-2.1-1-3.1c4.7,3.3,8.7,7.3,12,12.3
				c3.5,5.3,5.8,11.3,6.9,18.2c0.1,0.8,0.4,1.5,0.9,2.1c0.5,0.6,1,0.9,1.5,1c0.6,0.1,1-0.2,1.3-0.7c0.3-0.5,0.4-1.2,0.2-2
				c-1.4-8.2-4.4-15.2-8.7-21.3c-4-5.6-8.8-10.1-14.3-13.5l0.3-0.6c0.2-0.4,0.4-1,0.7-1.7c0.2-0.7,0.5-1.6,0.8-2.5
				c0.3-0.9,0.4-1.9,0.5-3c0.1-1.1,0.1-2.2,0-3.2c0-1.1-0.3-2.2-0.7-3.3c-0.4-1.1-0.9-2.1-1.6-3.1c-0.7-1-1.6-1.9-2.7-2.8
				c-1.2-0.9-2.5-1.7-4-2.4C8.9,586.7,8.1,587.9,7.6,589.3z"/>
		</g>
	</g>
</g>
<g>
	<g>
		<g>
			<path class="st0" d="M-106.8,493.9c-1.5,0.7-2.9,1.5-4,2.4c-1.2,0.9-2.1,1.8-2.7,2.8c-0.7,1-1.2,2-1.6,3.1
				c-0.4,1.1-0.6,2.2-0.7,3.3c0,1.1,0,2.2,0,3.2c0.1,1.1,0.3,2.1,0.5,3c0.3,0.9,0.5,1.8,0.8,2.5c0.2,0.7,0.5,1.3,0.7,1.7l0.3,0.6
				c-5.5,3.4-10.3,7.9-14.3,13.5c-4.3,6.1-7.3,13.2-8.7,21.3c-0.1,0.8-0.1,1.4,0.2,2c0.3,0.5,0.7,0.7,1.3,0.7c0.6-0.1,1.1-0.4,1.5-1
				c0.5-0.6,0.7-1.3,0.9-2.1c1.1-6.8,3.4-12.9,6.9-18.2c3.3-5,7.3-9,12-12.3c-0.4,1-0.7,2.1-1,3.1c-0.3,1.1-0.5,2.3-0.7,3.7
				c-0.2,1.5-0.2,2.9-0.1,4.3c0.1,1.4,0.4,2.9,0.9,4.5c0.5,1.6,1.2,3.2,2.2,4.7c1,1.5,2.3,2.9,4,4.4c1.8,1.4,3.8,2.7,6.2,3.8
				c1.2-4.6,1.8-8.6,1.9-12.2c0.1-3.4-0.1-6.1-0.6-8.2c-0.5-2-1.3-3.8-2.3-5.4c-1-1.5-1.9-2.7-2.8-3.5c-0.9-0.8-1.9-1.5-2.9-2.1
				c3-1.6,6.3-2.9,9.9-3.8c0,0.2,0,0.4,0,0.7c0,0.3,0,0.9,0,1.8c0,0.9,0.1,1.9,0.2,2.8c0.1,0.9,0.3,2,0.6,3.4
				c0.3,1.3,0.7,2.6,1.1,3.8c0.4,1.2,1.1,2.5,1.9,3.7c0.8,1.3,1.8,2.5,2.8,3.4c1.1,1,2.4,1.8,4,2.4c1.6,0.6,3.3,1,5.2,1
				c0.4-2.4,0.5-4.7,0.4-6.7c-0.1-2-0.4-3.7-0.9-5.2c-0.5-1.4-1-2.7-1.7-3.9c-0.7-1.2-1.4-2.1-2.2-2.9c-0.8-0.8-1.6-1.4-2.4-2.1
				c-0.8-0.6-1.6-1.1-2.3-1.5c-0.8-0.4-1.4-0.7-2-0.9c-0.6-0.2-1-0.4-1.4-0.5l-0.5-0.1c2.7-0.5,4.8-0.8,6.4-0.9
				c0.2,0.2,0.4,0.4,0.6,0.8c0.3,0.3,0.8,0.9,1.8,1.7c0.9,0.8,1.9,1.6,2.8,2.3c1,0.7,2.2,1.3,3.6,1.9c1.4,0.6,2.8,1,4.2,1
				c1.4,0.1,2.8-0.2,4.3-0.8c1.5-0.6,2.8-1.7,4-3.2c-1.1-1.8-2.2-3.4-3.4-4.6c-1.1-1.2-2.2-2.2-3.2-2.8c-1-0.6-2-1.1-3.1-1.4
				c-1-0.3-2-0.5-3-0.5c-0.9,0-1.8,0.1-2.7,0.2c-0.9,0.1-1.6,0.3-2.3,0.6c-0.7,0.3-1.3,0.5-1.9,0.8c-0.5,0.2-1,0.5-1.3,0.7l-0.5,0.3
				c-0.1,0-0.7,0-1.6,0.1c-1,0.1-1.8,0.1-2.3,0.2c0.1-0.1,0.3-0.2,0.6-0.4c0.2-0.2,0.7-0.6,1.3-1.2c0.6-0.6,1.1-1.2,1.6-1.8
				c0.5-0.6,0.9-1.5,1.4-2.4c0.5-1,0.8-2,0.9-3c0.2-1,0.1-2.1-0.1-3.4c-0.2-1.2-0.6-2.4-1.3-3.7c-1.5,0.1-2.8,0.4-4,0.8
				c-1.2,0.4-2.1,1-2.9,1.6c-0.7,0.6-1.4,1.3-1.9,2.1c-0.6,0.8-1,1.6-1.2,2.5c-0.3,0.9-0.4,1.8-0.6,2.7c-0.1,0.9-0.2,1.8-0.2,2.6
				c0,0.9,0.1,1.6,0.2,2.3c0.1,0.7,0.1,1.2,0.2,1.6l0.1,0.6c-3.2,0.8-6.3,1.9-9.4,3.4c0.2-0.2,0.4-0.4,0.6-0.7
				c0.3-0.3,0.7-1,1.4-1.9c0.6-0.9,1.2-1.9,1.7-2.9c0.5-1,0.9-2.1,1.3-3.5c0.4-1.3,0.5-2.6,0.5-3.8c0-1.2-0.3-2.5-0.8-3.8
				C-105,496.3-105.8,495-106.8,493.9z"/>
		</g>
	</g>
	<g>
		<g>
			<path class="st0" d="M-152.9,497.6c-0.5,1.4-0.8,2.6-0.8,3.8c0,1.2,0.2,2.5,0.5,3.8c0.4,1.3,0.8,2.5,1.3,3.5
				c0.5,1,1.1,1.9,1.7,2.9c0.7,1,1.1,1.6,1.4,1.9c0.3,0.3,0.5,0.6,0.6,0.7c-3.1-1.5-6.2-2.6-9.4-3.4l0.1-0.6
				c0.1-0.4,0.2-0.9,0.2-1.6c0.1-0.7,0.1-1.4,0.2-2.3c0-0.8,0-1.7-0.2-2.6c-0.1-0.9-0.3-1.8-0.6-2.7c-0.2-0.9-0.6-1.7-1.2-2.5
				c-0.5-0.8-1.2-1.5-1.9-2.1c-0.7-0.6-1.7-1.2-2.9-1.6c-1.2-0.4-2.5-0.7-4-0.8c-0.6,1.2-1.1,2.4-1.3,3.7c-0.2,1.3-0.3,2.4-0.1,3.4
				c0.2,1,0.5,2,0.9,3c0.5,1,0.9,1.8,1.4,2.4c0.5,0.6,1,1.3,1.6,1.8c0.6,0.6,1,1,1.3,1.2c0.2,0.2,0.4,0.3,0.6,0.4
				c-0.6-0.1-1.3-0.1-2.3-0.2c-1-0.1-1.5-0.1-1.6-0.1l-0.5-0.3c-0.3-0.2-0.7-0.4-1.3-0.7c-0.5-0.2-1.2-0.5-1.9-0.8
				c-0.7-0.3-1.5-0.5-2.3-0.6c-0.9-0.1-1.8-0.2-2.7-0.2c-0.9,0-1.9,0.2-3,0.5c-1,0.3-2.1,0.8-3.1,1.4c-1,0.6-2.1,1.6-3.2,2.8
				c-1.2,1.3-2.3,2.8-3.4,4.6c1.2,1.5,2.5,2.5,4,3.2c1.5,0.6,2.9,0.9,4.3,0.8c1.4-0.1,2.7-0.4,4.2-1c1.4-0.6,2.6-1.2,3.6-1.9
				c1-0.7,1.9-1.4,2.8-2.3c0.9-0.8,1.5-1.4,1.8-1.7c0.3-0.3,0.5-0.6,0.6-0.8c1.6,0.1,3.8,0.4,6.4,0.9l-0.5,0.1
				c-0.3,0.1-0.8,0.3-1.4,0.5c-0.6,0.2-1.2,0.5-2,0.9c-0.8,0.4-1.5,0.9-2.3,1.5c-0.8,0.6-1.6,1.3-2.4,2.1c-0.8,0.8-1.5,1.7-2.2,2.9
				c-0.7,1.2-1.2,2.5-1.7,3.9c-0.5,1.4-0.8,3.2-0.9,5.2c-0.1,2.1,0,4.3,0.4,6.7c1.9,0,3.6-0.4,5.2-1c1.6-0.6,2.9-1.4,4-2.4
				c1-1,2-2.1,2.8-3.4c0.8-1.3,1.4-2.5,1.9-3.7c0.4-1.2,0.8-2.5,1.1-3.8c0.3-1.3,0.5-2.4,0.6-3.4c0.1-0.9,0.2-1.8,0.2-2.8
				c0-0.9,0-1.5,0-1.8c0-0.3,0-0.5,0-0.7c3.6,0.9,6.9,2.2,9.9,3.8c-1,0.6-2,1.3-2.9,2.1c-0.9,0.8-1.8,2-2.8,3.5
				c-1,1.6-1.8,3.4-2.3,5.4c-0.5,2.1-0.8,4.8-0.6,8.2c0.1,3.6,0.7,7.6,1.9,12.2c2.4-1.1,4.5-2.4,6.2-3.8c1.7-1.4,3.1-2.9,4-4.4
				c0.9-1.5,1.7-3,2.2-4.7c0.5-1.6,0.8-3.1,0.9-4.5c0.1-1.4,0-2.8-0.1-4.3c-0.2-1.4-0.4-2.7-0.7-3.7c-0.3-1.1-0.6-2.1-1-3.1
				c4.7,3.3,8.7,7.3,12,12.3c3.5,5.3,5.8,11.3,6.9,18.2c0.1,0.8,0.4,1.5,0.9,2.1c0.5,0.6,1,0.9,1.5,1c0.6,0.1,1-0.2,1.3-0.7
				c0.3-0.5,0.4-1.2,0.2-2c-1.4-8.2-4.4-15.2-8.7-21.3c-4-5.6-8.8-10.1-14.3-13.5l0.3-0.6c0.2-0.4,0.4-1,0.7-1.7
				c0.2-0.7,0.5-1.6,0.8-2.5c0.3-0.9,0.4-1.9,0.5-3c0.1-1.1,0.1-2.2,0-3.2c0-1.1-0.3-2.2-0.7-3.3c-0.4-1.1-0.9-2.1-1.6-3.1
				c-0.7-1-1.6-1.9-2.7-2.8c-1.2-0.9-2.5-1.7-4-2.4C-151.7,495-152.4,496.3-152.9,497.6z"/>
		</g>
	</g>
</g>
<g>
	<g>
		<g>
			<path class="st0" d="M55.8,399.7c-1.5,0.7-2.9,1.5-4,2.4c-1.2,0.9-2.1,1.8-2.7,2.8c-0.7,1-1.2,2-1.6,3.1
				c-0.4,1.1-0.6,2.2-0.7,3.3c0,1.1,0,2.2,0,3.2c0.1,1.1,0.3,2.1,0.5,3c0.3,0.9,0.5,1.8,0.8,2.5c0.2,0.7,0.5,1.3,0.7,1.7l0.3,0.6
				c-5.5,3.4-10.3,7.9-14.3,13.5c-4.3,6.1-7.3,13.2-8.7,21.3c-0.1,0.8-0.1,1.4,0.2,2c0.3,0.5,0.7,0.7,1.3,0.7c0.6-0.1,1.1-0.4,1.5-1
				c0.5-0.6,0.7-1.3,0.9-2.1c1.1-6.8,3.4-12.9,6.9-18.2c3.3-5,7.3-9,12-12.3c-0.4,1-0.7,2.1-1,3.1c-0.3,1.1-0.5,2.3-0.7,3.7
				c-0.2,1.5-0.2,2.9-0.1,4.3c0.1,1.4,0.4,2.9,0.9,4.5c0.5,1.6,1.2,3.2,2.2,4.7c1,1.5,2.3,2.9,4,4.4c1.8,1.4,3.8,2.7,6.2,3.8
				c1.2-4.6,1.8-8.6,1.9-12.2c0.1-3.4-0.1-6.1-0.6-8.2c-0.5-2-1.3-3.8-2.3-5.4c-1-1.5-1.9-2.7-2.8-3.5c-0.9-0.8-1.9-1.5-2.9-2.1
				c3-1.6,6.3-2.9,9.9-3.8c0,0.2,0,0.4,0,0.7c0,0.3,0,0.9,0,1.8c0,0.9,0.1,1.9,0.2,2.8c0.1,0.9,0.3,2,0.6,3.4
				c0.3,1.3,0.7,2.6,1.1,3.8c0.4,1.2,1.1,2.5,1.9,3.7c0.8,1.3,1.8,2.5,2.8,3.4c1.1,1,2.4,1.8,4,2.4c1.6,0.6,3.3,1,5.2,1
				c0.4-2.4,0.5-4.7,0.4-6.7c-0.1-2-0.4-3.7-0.9-5.2c-0.5-1.4-1-2.7-1.7-3.9c-0.7-1.2-1.4-2.1-2.2-2.9c-0.8-0.8-1.6-1.4-2.4-2.1
				c-0.8-0.6-1.6-1.1-2.3-1.5c-0.8-0.4-1.4-0.7-2-0.9c-0.6-0.2-1-0.4-1.4-0.5l-0.5-0.1c2.7-0.5,4.8-0.8,6.4-0.9
				c0.2,0.2,0.4,0.4,0.6,0.8c0.3,0.3,0.8,0.9,1.8,1.7c0.9,0.8,1.9,1.6,2.8,2.3c1,0.7,2.2,1.3,3.6,1.9c1.4,0.6,2.8,1,4.2,1
				c1.4,0.1,2.8-0.2,4.3-0.8c1.5-0.6,2.8-1.7,4-3.2c-1.1-1.8-2.2-3.4-3.4-4.6c-1.1-1.2-2.2-2.2-3.2-2.8c-1-0.6-2-1.1-3.1-1.4
				c-1-0.3-2-0.5-3-0.5c-0.9,0-1.8,0.1-2.7,0.2c-0.9,0.1-1.6,0.3-2.3,0.6c-0.7,0.3-1.3,0.5-1.9,0.8c-0.5,0.2-1,0.5-1.3,0.7l-0.5,0.3
				c-0.1,0-0.7,0-1.6,0.1c-1,0.1-1.8,0.1-2.3,0.2c0.1-0.1,0.3-0.2,0.6-0.4c0.2-0.2,0.7-0.6,1.3-1.2c0.6-0.6,1.1-1.2,1.6-1.8
				c0.5-0.6,0.9-1.5,1.4-2.4c0.5-1,0.8-2,0.9-3c0.2-1,0.1-2.1-0.1-3.4c-0.2-1.2-0.6-2.4-1.3-3.7c-1.5,0.1-2.8,0.4-4,0.8
				c-1.2,0.4-2.1,1-2.9,1.6c-0.7,0.6-1.4,1.3-1.9,2.1c-0.6,0.8-1,1.6-1.2,2.5c-0.3,0.9-0.4,1.8-0.6,2.7c-0.1,0.9-0.2,1.8-0.2,2.6
				c0,0.9,0.1,1.6,0.2,2.3c0.1,0.7,0.1,1.2,0.2,1.6l0.1,0.6c-3.2,0.8-6.3,1.9-9.4,3.4c0.2-0.2,0.4-0.4,0.6-0.7
				c0.3-0.3,0.7-1,1.4-1.9c0.6-0.9,1.2-1.9,1.7-2.9c0.5-1,0.9-2.1,1.3-3.5c0.4-1.3,0.5-2.6,0.5-3.8c0-1.2-0.3-2.5-0.8-3.8
				C57.6,402.1,56.8,400.9,55.8,399.7z"/>
		</g>
	</g>
	<g>
		<g>
			<path class="st0" d="M9.7,403.4c-0.5,1.4-0.8,2.6-0.8,3.8c0,1.2,0.2,2.5,0.5,3.8c0.4,1.3,0.8,2.5,1.3,3.5c0.5,1,1.1,1.9,1.7,2.9
				c0.7,1,1.1,1.6,1.4,1.9c0.3,0.3,0.5,0.6,0.6,0.7c-3.1-1.5-6.2-2.6-9.4-3.4l0.1-0.6c0.1-0.4,0.2-0.9,0.2-1.6
				c0.1-0.7,0.1-1.4,0.2-2.3c0-0.8,0-1.7-0.2-2.6c-0.1-0.9-0.3-1.8-0.6-2.7c-0.2-0.9-0.6-1.7-1.2-2.5c-0.5-0.8-1.2-1.5-1.9-2.1
				c-0.7-0.6-1.7-1.2-2.9-1.6c-1.2-0.4-2.5-0.7-4-0.8c-0.6,1.2-1.1,2.4-1.3,3.7c-0.2,1.3-0.3,2.4-0.1,3.4c0.2,1,0.5,2,0.9,3
				c0.5,1,0.9,1.8,1.4,2.4c0.5,0.6,1,1.3,1.6,1.8c0.6,0.6,1,1,1.3,1.2c0.2,0.2,0.4,0.3,0.6,0.4c-0.6-0.1-1.3-0.1-2.3-0.2
				c-1-0.1-1.5-0.1-1.6-0.1l-0.5-0.3c-0.3-0.2-0.7-0.4-1.3-0.7c-0.5-0.2-1.2-0.5-1.9-0.8c-0.7-0.3-1.5-0.5-2.3-0.6
				c-0.9-0.1-1.8-0.2-2.7-0.2c-0.9,0-1.9,0.2-3,0.5c-1,0.3-2.1,0.8-3.1,1.4c-1,0.6-2.1,1.6-3.2,2.8c-1.2,1.3-2.3,2.8-3.4,4.6
				c1.2,1.5,2.5,2.5,4,3.2c1.5,0.6,2.9,0.9,4.3,0.8c1.4-0.1,2.7-0.4,4.2-1c1.4-0.6,2.6-1.2,3.6-1.9c1-0.7,1.9-1.4,2.8-2.3
				c0.9-0.8,1.5-1.4,1.8-1.7c0.3-0.3,0.5-0.6,0.6-0.8c1.6,0.1,3.8,0.4,6.4,0.9l-0.5,0.1c-0.3,0.1-0.8,0.3-1.4,0.5
				c-0.6,0.2-1.2,0.5-2,0.9c-0.8,0.4-1.5,0.9-2.3,1.5c-0.8,0.6-1.6,1.3-2.4,2.1c-0.8,0.8-1.5,1.7-2.2,2.9c-0.7,1.2-1.2,2.5-1.7,3.9
				c-0.5,1.4-0.8,3.2-0.9,5.2c-0.1,2.1,0,4.3,0.4,6.7c1.9,0,3.6-0.4,5.2-1c1.6-0.6,2.9-1.4,4-2.4c1-1,2-2.1,2.8-3.4
				c0.8-1.3,1.4-2.5,1.9-3.7c0.4-1.2,0.8-2.5,1.1-3.8c0.3-1.3,0.5-2.4,0.6-3.4c0.1-0.9,0.2-1.8,0.2-2.8c0-0.9,0-1.5,0-1.8
				c0-0.3,0-0.5,0-0.7c3.6,0.9,6.9,2.2,9.9,3.8c-1,0.6-2,1.3-2.9,2.1c-0.9,0.8-1.8,2-2.8,3.5c-1,1.6-1.8,3.4-2.3,5.4
				c-0.5,2.1-0.8,4.8-0.6,8.2c0.1,3.6,0.7,7.6,1.9,12.2c2.4-1.1,4.5-2.4,6.2-3.8c1.7-1.4,3.1-2.9,4-4.4c0.9-1.5,1.7-3,2.2-4.7
				c0.5-1.6,0.8-3.1,0.9-4.5c0.1-1.4,0-2.8-0.1-4.3c-0.2-1.4-0.4-2.7-0.7-3.7c-0.3-1.1-0.6-2.1-1-3.1c4.7,3.3,8.7,7.3,12,12.3
				c3.5,5.3,5.8,11.3,6.9,18.2c0.1,0.8,0.4,1.5,0.9,2.1c0.5,0.6,1,0.9,1.5,1c0.6,0.1,1-0.2,1.3-0.7c0.3-0.5,0.4-1.2,0.2-2
				c-1.4-8.2-4.4-15.2-8.7-21.3c-4-5.6-8.8-10.1-14.3-13.5l0.3-0.6c0.2-0.4,0.4-1,0.7-1.7c0.2-0.7,0.5-1.6,0.8-2.5
				c0.3-0.9,0.4-1.9,0.5-3c0.1-1.1,0.1-2.2,0-3.2c0-1.1-0.3-2.2-0.7-3.3c-0.4-1.1-0.9-2.1-1.6-3.1c-0.7-1-1.6-1.9-2.7-2.8
				c-1.2-0.9-2.5-1.7-4-2.4C10.9,400.9,10.2,402.1,9.7,403.4z"/>
		</g>
	</g>
</g>
<g>
	<g>
		<g>
			<path class="st0" d="M216.2,493.4c-1.5,0.7-2.9,1.5-4,2.4c-1.2,0.9-2.1,1.8-2.7,2.8c-0.7,1-1.2,2-1.6,3.1
				c-0.4,1.1-0.6,2.2-0.7,3.3c0,1.1,0,2.2,0,3.2c0.1,1.1,0.3,2.1,0.5,3c0.3,0.9,0.5,1.8,0.8,2.5c0.2,0.7,0.5,1.3,0.7,1.7l0.3,0.6
				c-5.5,3.4-10.3,7.9-14.3,13.5c-4.3,6.1-7.3,13.2-8.7,21.3c-0.1,0.8-0.1,1.4,0.2,2c0.3,0.5,0.7,0.7,1.3,0.7c0.6-0.1,1.1-0.4,1.5-1
				c0.5-0.6,0.7-1.3,0.9-2.1c1.1-6.8,3.4-12.9,6.9-18.2c3.3-5,7.3-9,12-12.3c-0.4,1-0.7,2.1-1,3.1c-0.3,1.1-0.5,2.3-0.7,3.7
				c-0.2,1.5-0.2,2.9-0.1,4.3c0.1,1.4,0.4,2.9,0.9,4.5c0.5,1.6,1.2,3.2,2.2,4.7c1,1.5,2.3,2.9,4,4.4c1.8,1.4,3.8,2.7,6.2,3.8
				c1.2-4.6,1.8-8.6,1.9-12.2c0.1-3.4-0.1-6.1-0.6-8.2c-0.5-2-1.3-3.8-2.3-5.4c-1-1.5-1.9-2.7-2.8-3.5c-0.9-0.8-1.9-1.5-2.9-2.1
				c3-1.6,6.3-2.9,9.9-3.8c0,0.2,0,0.4,0,0.7c0,0.3,0,0.9,0,1.8c0,0.9,0.1,1.9,0.2,2.8c0.1,0.9,0.3,2,0.6,3.4
				c0.3,1.3,0.7,2.6,1.1,3.8c0.4,1.2,1.1,2.5,1.9,3.7c0.8,1.3,1.8,2.5,2.8,3.4c1.1,1,2.4,1.8,4,2.4c1.6,0.6,3.3,1,5.2,1
				c0.4-2.4,0.5-4.7,0.4-6.7c-0.1-2-0.4-3.7-0.9-5.2c-0.5-1.4-1-2.7-1.7-3.9c-0.7-1.2-1.4-2.1-2.2-2.9c-0.8-0.8-1.6-1.4-2.4-2.1
				c-0.8-0.6-1.6-1.1-2.3-1.5c-0.8-0.4-1.4-0.7-2-0.9c-0.6-0.2-1-0.4-1.4-0.5l-0.5-0.1c2.7-0.5,4.8-0.8,6.4-0.9
				c0.2,0.2,0.4,0.4,0.6,0.8c0.3,0.3,0.8,0.9,1.8,1.7c0.9,0.8,1.9,1.6,2.8,2.3c1,0.7,2.2,1.3,3.6,1.9c1.4,0.6,2.8,1,4.2,1
				c1.4,0.1,2.8-0.2,4.3-0.8c1.5-0.6,2.8-1.7,4-3.2c-1.1-1.8-2.2-3.4-3.4-4.6c-1.1-1.2-2.2-2.2-3.2-2.8c-1-0.6-2-1.1-3.1-1.4
				c-1-0.3-2-0.5-3-0.5c-0.9,0-1.8,0.1-2.7,0.2c-0.9,0.1-1.6,0.3-2.3,0.6c-0.7,0.3-1.3,0.5-1.9,0.8c-0.5,0.2-1,0.5-1.3,0.7l-0.5,0.3
				c-0.1,0-0.7,0-1.6,0.1c-1,0.1-1.8,0.1-2.3,0.2c0.1-0.1,0.3-0.2,0.6-0.4c0.2-0.2,0.7-0.6,1.3-1.2c0.6-0.6,1.1-1.2,1.6-1.8
				c0.5-0.6,0.9-1.5,1.4-2.4c0.5-1,0.8-2,0.9-3c0.2-1,0.1-2.1-0.1-3.4c-0.2-1.2-0.6-2.4-1.3-3.7c-1.5,0.1-2.8,0.4-4,0.8
				c-1.2,0.4-2.1,1-2.9,1.6c-0.7,0.6-1.4,1.3-1.9,2.1c-0.6,0.8-1,1.6-1.2,2.5c-0.3,0.9-0.4,1.8-0.6,2.7c-0.1,0.9-0.2,1.8-0.2,2.6
				c0,0.9,0.1,1.6,0.2,2.3c0.1,0.7,0.1,1.2,0.2,1.6l0.1,0.6c-3.2,0.8-6.3,1.9-9.4,3.4c0.2-0.2,0.4-0.4,0.6-0.7
				c0.3-0.3,0.7-1,1.4-1.9c0.6-0.9,1.2-1.9,1.7-2.9c0.5-1,0.9-2.1,1.3-3.5c0.4-1.3,0.5-2.6,0.5-3.8c0-1.2-0.3-2.5-0.8-3.8
				C218,495.8,217.2,494.6,216.2,493.4z"/>
		</g>
	</g>
	<g>
		<g>
			<path class="st0" d="M170,497.1c-0.5,1.4-0.8,2.6-0.8,3.8c0,1.2,0.2,2.5,0.5,3.8c0.4,1.3,0.8,2.5,1.3,3.5c0.5,1,1.1,1.9,1.7,2.9
				c0.7,1,1.1,1.6,1.4,1.9c0.3,0.3,0.5,0.6,0.6,0.7c-3.1-1.5-6.2-2.6-9.4-3.4l0.1-0.6c0.1-0.4,0.2-0.9,0.2-1.6
				c0.1-0.7,0.1-1.4,0.2-2.3c0-0.8,0-1.7-0.2-2.6c-0.1-0.9-0.3-1.8-0.6-2.7c-0.2-0.9-0.6-1.7-1.2-2.5c-0.5-0.8-1.2-1.5-1.9-2.1
				c-0.7-0.6-1.7-1.2-2.9-1.6c-1.2-0.4-2.5-0.7-4-0.8c-0.6,1.2-1.1,2.4-1.3,3.7c-0.2,1.3-0.3,2.4-0.1,3.4c0.2,1,0.5,2,0.9,3
				c0.5,1,0.9,1.8,1.4,2.4c0.5,0.6,1,1.3,1.6,1.8c0.6,0.6,1,1,1.3,1.2c0.2,0.2,0.4,0.3,0.6,0.4c-0.6-0.1-1.3-0.1-2.3-0.2
				c-1-0.1-1.5-0.1-1.6-0.1l-0.5-0.3c-0.3-0.2-0.7-0.4-1.3-0.7c-0.5-0.2-1.2-0.5-1.9-0.8c-0.7-0.3-1.5-0.5-2.3-0.6
				c-0.9-0.1-1.8-0.2-2.7-0.2c-0.9,0-1.9,0.2-3,0.5c-1,0.3-2.1,0.8-3.1,1.4c-1,0.6-2.1,1.6-3.2,2.8c-1.2,1.3-2.3,2.8-3.4,4.6
				c1.2,1.5,2.5,2.5,4,3.2c1.5,0.6,2.9,0.9,4.3,0.8c1.4-0.1,2.7-0.4,4.2-1c1.4-0.6,2.6-1.2,3.6-1.9c1-0.7,1.9-1.4,2.8-2.3
				c0.9-0.8,1.5-1.4,1.8-1.7c0.3-0.3,0.5-0.6,0.6-0.8c1.6,0.1,3.8,0.4,6.4,0.9l-0.5,0.1c-0.3,0.1-0.8,0.3-1.4,0.5
				c-0.6,0.2-1.2,0.5-2,0.9c-0.8,0.4-1.5,0.9-2.3,1.5c-0.8,0.6-1.6,1.3-2.4,2.1c-0.8,0.8-1.5,1.7-2.2,2.9c-0.7,1.2-1.2,2.5-1.7,3.9
				c-0.5,1.4-0.8,3.2-0.9,5.2c-0.1,2.1,0,4.3,0.4,6.7c1.9,0,3.6-0.4,5.2-1c1.6-0.6,2.9-1.4,4-2.4c1-1,2-2.1,2.8-3.4
				c0.8-1.3,1.4-2.5,1.9-3.7c0.4-1.2,0.8-2.5,1.1-3.8c0.3-1.3,0.5-2.4,0.6-3.4c0.1-0.9,0.2-1.8,0.2-2.8c0-0.9,0-1.5,0-1.8
				c0-0.3,0-0.5,0-0.7c3.6,0.9,6.9,2.2,9.9,3.8c-1,0.6-2,1.3-2.9,2.1c-0.9,0.8-1.8,2-2.8,3.5c-1,1.6-1.8,3.4-2.3,5.4
				c-0.5,2.1-0.8,4.8-0.6,8.2c0.1,3.6,0.7,7.6,1.9,12.2c2.4-1.1,4.5-2.4,6.2-3.8c1.7-1.4,3.1-2.9,4-4.4c0.9-1.5,1.7-3,2.2-4.7
				c0.5-1.6,0.8-3.1,0.9-4.5c0.1-1.4,0-2.8-0.1-4.3c-0.2-1.4-0.4-2.7-0.7-3.7c-0.3-1.1-0.6-2.1-1-3.1c4.7,3.3,8.7,7.3,12,12.3
				c3.5,5.3,5.8,11.3,6.9,18.2c0.1,0.8,0.4,1.5,0.9,2.1c0.5,0.6,1,0.9,1.5,1c0.6,0.1,1-0.2,1.3-0.7c0.3-0.5,0.4-1.2,0.2-2
				c-1.4-8.2-4.4-15.2-8.7-21.3c-4-5.6-8.8-10.1-14.3-13.5l0.3-0.6c0.2-0.4,0.4-1,0.7-1.7c0.2-0.7,0.5-1.6,0.8-2.5
				c0.3-0.9,0.4-1.9,0.5-3c0.1-1.1,0.1-2.2,0-3.2c0-1.1-0.3-2.2-0.7-3.3c-0.4-1.1-0.9-2.1-1.6-3.1c-0.7-1-1.6-1.9-2.7-2.8
				c-1.2-0.9-2.5-1.7-4-2.4C171.3,494.6,170.5,495.8,170,497.1z"/>
		</g>
	</g>
</g>
</svg>
