<?xml version="1.0" encoding="utf-8"?>
<!-- Generator: Adobe Illustrator 19.0.1, SVG Export Plug-In . SVG Version: 6.00 Build 0)  -->
<svg version="1.1" id="watermelon_x5F_warn" xmlns="http://www.w3.org/2000/svg" xmlns:xlink="http://www.w3.org/1999/xlink"
	 x="0px" y="0px" viewBox="-223 225 512 512" style="enable-background:new -223 225 512 512;" xml:space="preserve">
<style type="text/css">
	.st0{clip-path:url(#SVGID_2_);}
	.st1{fill:#FBD303;}
	.st2{fill:#646B79;}
	.st3{clip-path:url(#SVGID_4_);}
	.st4{fill:#8CC153;}
	.st5{fill:#434A54;}
	.st6{fill:#659C35;}
	.st7{fill:#4D7526;}
	.st8{fill:#84BA50;}
	.st9{clip-path:url(#SVGID_6_);}
	.st10{clip-path:url(#SVGID_8_);}
	.st11{font-family:'Arial-Black';}
	.st12{font-size:21.0661px;}
	.st13{font-size:20.1175px;}
</style>
<g>
	<defs>
		<polygon id="SVGID_1_" points="34.5,373.1 239.4,492.1 239.2,540.3 35,421.8 		"/>
	</defs>
	<clipPath id="SVGID_2_">
		<use xlink:href="#SVGID_1_"  style="overflow:visible;"/>
	</clipPath>
	<g class="st0">
		<polygon class="st1" points="34.5,347.1 239.4,466.1 239.2,514.3 35,395.8 		"/>
		<g>
			<polygon class="st2" points="239.4,466.1 227.7,459.3 188.5,484.9 218.4,502.3 239.3,488.8 			"/>
			<polygon class="st2" points="161.1,469 131.2,451.7 170.2,426 200.2,443.4 			"/>
			<polygon class="st2" points="103.9,435.8 74,418.4 112.8,392.6 142.8,410 			"/>
			<polygon class="st2" points="55.3,359.3 34.7,373 35,395.8 46.7,402.6 85.3,376.7 			"/>
		</g>
	</g>
</g>
<g>
	<defs>
		<polygon id="SVGID_3_" points="-169.8,466.3 34.4,347.7 34.6,395.9 -170.3,514.9 		"/>
	</defs>
	<clipPath id="SVGID_4_">
		<use xlink:href="#SVGID_3_"  style="overflow:visible;"/>
	</clipPath>
	<g class="st3">
		<polygon class="st1" points="-169.8,492.3 34.4,373.7 34.6,421.9 -170.3,540.9 		"/>
		<g>
			<polygon class="st2" points="34.5,399.3 13.6,385.8 -16.3,403.2 22.9,428.7 34.6,421.9 			"/>
			<polygon class="st2" points="-4.6,444.7 -34.6,462.1 -73.6,436.4 -43.7,419 			"/>
			<polygon class="st2" points="-62,478 -92,495.5 -130.8,469.6 -100.9,452.3 			"/>
			<polygon class="st2" points="-119.5,511.4 -158.1,485.5 -169.8,492.3 -170,515 -149.5,528.8 			"/>
		</g>
	</g>
</g>
<g>
	<g>
		<path class="st4" d="M69.6,586.9c1.4,9.9-1.2,19.7-7.2,27.7c-6,8-14.7,13.1-24.6,14.5c-9.9,1.4-19.7-1.2-27.7-7.2
			c-8-6-13.1-14.7-14.5-24.6c-1.4-9.9,1.2-19.7,7.2-27.7c6-8,14.7-13.1,24.6-14.5c9.9-1.4,19.7,1.2,27.7,7.2
			C63.1,568.3,68.2,577,69.6,586.9z"/>
		<path class="st5" d="M-15.6,588.8c-1.4,0.2-2.3,1.5-2.1,2.8c0,0.3,0.1,0.5,0.2,0.7l0,0c0.1,0.2,1.1,2.3,3.2,4.2
			c2.9,2.7,6.5,3.8,10.3,3.2l-0.8-4.9c-5.4,0.9-8.2-4.4-8.3-4.7l0,0C-13.4,589.2-14.5,588.6-15.6,588.8z"/>
		<path class="st6" d="M-6.8,597.6c3.1,21.8,23.2,36.9,45,33.9c21.8-3.1,37-23.2,33.9-45c-3.1-21.8-23.2-37-45-33.9
			C5.3,555.7-9.8,575.8-6.8,597.6z M65.6,580.7c0.1,0.1,0.1,0.3,0.2,0.4c-14.2,2.7-20.9,1.2-24.3-0.9c-0.8-0.5-4.9-3.2-9.3-2.7
			c-2,0.2-3.7,1-3.7,1c-1.8,0.8-2.6,1.8-4,2.8c0,0-2.3,1.8-5.8,3.1c-4.9,1.8-7.2-0.4-11.8,0.4c-2.3,0.4-5.6,1.8-9,5.8
			c0-0.2,0-0.3,0-0.5c-0.1-1.3-0.1-4.3,1.8-6.9c2.6-3.5,7-4,8.3-4.1c4.9-0.6,6.9,1.7,10.6,0.1c1.6-0.7,2.9-1.8,3.4-2.2
			c2.5-2.2,2.5-3.4,4.1-4.4c0.5-0.3,1.8-0.9,7.3,0c3.3,0.6,5.7,1.3,8.5,2.1c6,1.8,9,2.7,9.3,2.7c6.7,0.8,10.6-2.2,13.1,0.1
			C65.2,578.5,65.5,579.8,65.6,580.7z M67.4,593.9c-0.3,5.3-2.1,7.8-3.6,9c-1.7,1.3-2.9,1.1-7,2.7c-5.1,1.9-4.6,2.8-7.7,3.7
			c-5.9,1.8-7.5-1.5-13.5,0.3c-3.8,1.1-4.3,2.8-7.7,2.8c-3.1,0-3.2-1.4-6.9-1.9c-5.6-0.8-8,2.1-10.8,0.2c-1.5-1-1.4-2.3-3.3-3
			c-1.8-0.6-2.9,0.3-4.4-0.3c-0.9-0.4-2-1.4-2.8-4.1c0-0.1-0.1-0.1-0.1-0.2c0-0.1-0.1-0.1-0.1-0.2c1.4-1.3,3.4-2.7,5.6-2.5
			c3.2,0.3,4,3.7,7.5,4.6c3.1,0.8,4.2-2.6,8-2.1c2.5,0.3,2.3,1.6,4.7,1.8c2.3,0.2,6.1-1.6,8.9-2.9c1.9-0.9,2.9-1.3,3.3-1.4
			c2.7-0.3,3.7,1.8,6.4,1.4c1.3-0.2,1.8-0.7,3.1-0.6c1.3,0.2,1.8,0.8,2.6,1.1c2.5,1,5.5-2.5,9.7-5.2
			C61.1,596.2,63.8,594.8,67.4,593.9z M50.5,622c-1.3,1.1-1.8,2-3.2,2.4c-1.1,0.3-1.8,0-3.5-0.3c-1.8-0.3-3.6-0.6-5.3-0.3
			c-3.1,0.5-3.6,2.3-7.4,2.8c-0.9,0.1-1.7,0.1-2.1,0.1c-2-0.1-3.6-0.5-5.5-1c-4.4-1.2-8.4-3.1-12-5.9c-2.8-2.1-5.3-4.6-7.3-7.4
			c0.7,0.4,1.7,0.9,3,1.6c0.2,0.1,2.5,1.2,3.6,1.7c3.8,1.6,5.7-0.3,10,0.7c3.4,0.8,2.9,2.1,5.6,2.7c4.8,1,6.3-3,13.2-4.2
			c6-1.1,7.8,1.4,11.7-0.9c2.5-1.4,2.2-2.7,5.5-4.5c2.1-1.1,3.7-1.4,6-3.2c1.1-0.9,2-1.7,2.5-2.3c-0.5,2.5-1.6,6.2-4.1,9.8
			c-1.6,2.3-2.9,4.2-5.4,5.5C53.7,620.5,52.6,620.2,50.5,622z M67.2,588c-4.4,1.5-7.5,3.3-9.6,4.7c-2.8,1.9-4.3,3.5-6.8,3.4
			c-1.9-0.1-3-1.2-5-0.6c-1.7,0.5-1.8,1.4-3.2,1.6c-2.9,0.5-4.3-3-6.5-2.4c-1.5,0.4-1.2,2.1-3.5,3.8c-0.4,0.3-2.3,1.8-4.9,1.8
			c-3.7,0-4.7-3.1-7.7-2.6c-2.5,0.4-3.1,2.7-5.5,2.5c-1.4-0.1-2.4-0.9-2.9-1.3c-1.9-1.4-5.5-2.6-13.3-1.2c0-0.2-0.1-0.5-0.1-0.7
			c0-0.3-0.1-0.5-0.1-0.8c2.2-2.7,5.7-5.9,10.5-6.6c2.7-0.4,3,0.4,7.2,0.4c3.4,0,8.8-0.1,13.7-3.1c3.1-2,3.8-3.8,5.9-3.6
			c1.9,0.1,2,1.6,5.7,3.2c0.7,0.3,2.4,0.8,5.8,1.8c3.3,1,3.6,1,4,1c2,0.1,3.5-0.7,6.3-2.3c7.1-3.9,8.3-4.6,9.2-4.1
			C67.1,583.2,67.7,584.3,67.2,588z M53.6,564.2c2.8,2.1,5.3,4.6,7.3,7.4c2.6,2.9,3,3.7,2.9,3.8c-0.3,0.3-2.6-2.7-6.9-4.1
			c-2.8-1-3.7-0.3-7.8-1c-3.5-0.6-4.3-1.3-8.2-2.5c-4.3-1.3-7.9-2.3-11.6-2c-6.2,0.5-5.2,4.2-13.8,7c-4.9,1.6-8.7,1.5-13.1,5
			c-1.1,0.9-2,1.8-2.5,2.3c1.2-3.3,2.8-6.3,5-9.1c2.2-2.9,3.3-4.4,4.9-5.3c2.7-1.5,3.8-0.5,6.3-2.2c2.1-1.4,1.7-2.4,3.7-3.9
			c1.8-1.4,3.9-1.5,8.1-2.1c4.7-0.7,9.3-0.4,13.8,0.8C46,559.5,50,561.5,53.6,564.2z"/>
	</g>
	<g>
		<g>
			<g>
				<path class="st7" d="M54.4,537.5c-3,1.2-5.6,2.6-7.8,4.2c-2.3,1.6-4,3.3-5.3,5c-1.3,1.7-2.3,3.6-3.1,5.6c-0.8,2-1.2,4-1.3,5.9
					c-0.1,2-0.1,3.9,0.1,5.8c0.2,1.9,0.5,3.7,1,5.4c0.5,1.7,1,3.2,1.5,4.5c0.5,1.3,0.9,2.3,1.3,3l0.6,1.1
					c-10.7,6.2-19.9,14.1-27.6,24.2C5.5,613.2-0.2,625.8-3,640.5c-0.3,1.4-0.1,2.6,0.5,3.5c0.6,0.9,1.4,1.3,2.5,1.2
					c1.1-0.1,2.1-0.7,3-1.7c0.9-1,1.4-2.3,1.7-3.7c2-12.2,6.6-23,13.3-32.5c6.3-8.9,14-16.1,23.1-22c-0.7,1.8-1.4,3.7-1.9,5.6
					c-0.5,1.9-1,4.1-1.3,6.7c-0.4,2.6-0.4,5.2-0.3,7.7c0.2,2.5,0.7,5.3,1.7,8.1c1,2.9,2.4,5.7,4.2,8.3c1.9,2.7,4.5,5.3,7.8,7.8
					c3.4,2.6,7.4,4.9,12,6.8c2.3-8.2,3.5-15.4,3.7-21.8c0.2-6.1-0.2-10.9-1.2-14.7c-1-3.6-2.5-6.8-4.4-9.7c-1.9-2.8-3.7-4.8-5.4-6.3
					c-1.7-1.4-3.6-2.6-5.5-3.7c5.8-2.9,12.2-5.2,19.1-6.8c0,0.3,0,0.7-0.1,1.2c0,0.5,0,1.6,0,3.2c0.1,1.7,0.2,3.3,0.4,5
					c0.2,1.7,0.5,3.7,1.1,6c0.6,2.4,1.3,4.7,2.1,6.8c0.9,2.2,2.1,4.4,3.6,6.7c1.6,2.3,3.4,4.4,5.4,6.1c2,1.8,4.6,3.2,7.7,4.3
					c3.1,1.1,6.4,1.8,10,1.8c0.7-4.4,0.9-8.4,0.7-12.1c-0.2-3.6-0.8-6.6-1.7-9.2c-0.9-2.5-2-4.8-3.3-6.9c-1.3-2.1-2.7-3.8-4.2-5.1
					c-1.5-1.4-3.1-2.6-4.6-3.7c-1.5-1.1-3-1.9-4.5-2.6c-1.5-0.7-2.7-1.2-3.8-1.6c-1.1-0.4-2-0.7-2.7-0.9l-1.1-0.2
					c5.2-0.9,9.3-1.5,12.4-1.7c0.3,0.3,0.7,0.8,1.2,1.4c0.5,0.6,1.6,1.6,3.4,3.1c1.8,1.5,3.6,2.9,5.4,4.1c1.9,1.2,4.2,2.3,6.9,3.4
					c2.8,1.1,5.5,1.7,8.1,1.9c2.6,0.2,5.4-0.4,8.3-1.5c2.9-1.1,5.4-3,7.7-5.6c-2.1-3.3-4.3-6-6.5-8.3c-2.2-2.2-4.3-3.9-6.3-5
					c-2-1.1-4-2-6-2.6c-2-0.6-3.9-0.9-5.7-0.9c-1.8,0-3.5,0.1-5.2,0.4c-1.7,0.2-3.2,0.6-4.5,1.1c-1.4,0.5-2.6,1-3.6,1.4
					c-1.1,0.4-1.9,0.9-2.4,1.2l-0.9,0.5c-0.2,0-1.3,0-3.2,0.2c-1.9,0.1-3.4,0.3-4.5,0.4c0.3-0.1,0.6-0.4,1.1-0.7
					c0.4-0.3,1.3-1,2.4-2.1c1.2-1,2.2-2.1,3.1-3.3c0.9-1.1,1.8-2.6,2.7-4.4c0.9-1.7,1.5-3.5,1.8-5.3c0.3-1.8,0.2-3.8-0.2-6
					c-0.4-2.2-1.3-4.4-2.5-6.5c-2.8,0.2-5.4,0.7-7.6,1.5c-2.3,0.8-4.1,1.7-5.5,2.8c-1.4,1.1-2.7,2.4-3.7,3.8c-1.1,1.4-1.8,3-2.3,4.5
					c-0.5,1.6-0.9,3.2-1.1,4.8c-0.3,1.6-0.4,3.2-0.3,4.7c0.1,1.5,0.2,2.9,0.3,4.1c0.1,1.2,0.3,2.2,0.5,2.9l0.3,1.1
					c-6.2,1.4-12.2,3.4-18.1,6.1c0.3-0.3,0.7-0.7,1.2-1.3c0.5-0.6,1.4-1.7,2.7-3.4c1.3-1.7,2.3-3.4,3.3-5.1c0.9-1.7,1.8-3.8,2.5-6.2
					c0.7-2.4,1-4.6,1-6.8c0-2.1-0.6-4.4-1.6-6.8C57.9,541.8,56.4,539.6,54.4,537.5z"/>
			</g>
		</g>
		<g>
			<g>
				<path class="st7" d="M-20.3,592.5c-0.5,1.3-0.8,2.4-0.8,3.5c0,1.1,0.2,2.3,0.5,3.5c0.4,1.2,0.8,2.3,1.3,3.2
					c0.5,0.9,1.1,1.8,1.7,2.7c0.7,0.9,1.1,1.5,1.4,1.8c0.3,0.3,0.5,0.5,0.6,0.7c-3.1-1.4-6.2-2.4-9.4-3.1l0.1-0.6
					c0.1-0.4,0.2-0.9,0.2-1.5c0.1-0.6,0.1-1.3,0.2-2.1c0-0.8,0-1.6-0.2-2.4c-0.1-0.8-0.3-1.7-0.6-2.5c-0.2-0.8-0.6-1.6-1.2-2.3
					c-0.5-0.7-1.2-1.4-1.9-2c-0.7-0.6-1.7-1.1-2.9-1.5c-1.2-0.4-2.5-0.7-3.9-0.8c-0.6,1.1-1.1,2.2-1.3,3.4c-0.2,1.2-0.3,2.2-0.1,3.1
					c0.2,0.9,0.5,1.8,0.9,2.7c0.5,0.9,0.9,1.7,1.4,2.3c0.5,0.6,1,1.2,1.6,1.7c0.6,0.5,1,0.9,1.3,1.1c0.2,0.2,0.4,0.3,0.6,0.4
					c-0.6-0.1-1.3-0.1-2.3-0.2c-1-0.1-1.5-0.1-1.6-0.1l-0.4-0.3c-0.3-0.2-0.7-0.4-1.3-0.6c-0.5-0.2-1.2-0.5-1.9-0.7
					c-0.7-0.3-1.5-0.4-2.3-0.6c-0.9-0.1-1.8-0.2-2.7-0.2c-0.9,0-1.9,0.1-2.9,0.5c-1,0.3-2.1,0.8-3.1,1.3c-1,0.6-2.1,1.4-3.2,2.6
					c-1.2,1.2-2.3,2.6-3.4,4.3c1.2,1.3,2.5,2.3,4,2.9c1.5,0.6,2.9,0.9,4.3,0.8c1.3-0.1,2.7-0.4,4.2-1c1.4-0.6,2.6-1.1,3.6-1.8
					c1-0.6,1.9-1.3,2.8-2.1c0.9-0.8,1.5-1.3,1.7-1.6c0.3-0.3,0.5-0.5,0.6-0.7c1.6,0.1,3.7,0.4,6.4,0.9l-0.5,0.1
					c-0.3,0.1-0.8,0.2-1.4,0.5c-0.6,0.2-1.2,0.5-2,0.8c-0.8,0.3-1.5,0.8-2.3,1.3c-0.8,0.6-1.6,1.2-2.4,1.9c-0.8,0.7-1.5,1.6-2.2,2.7
					c-0.7,1.1-1.2,2.3-1.7,3.6c-0.5,1.3-0.8,2.9-0.9,4.8c-0.1,1.9,0,4,0.4,6.2c1.9,0,3.6-0.4,5.2-0.9c1.6-0.6,2.9-1.3,4-2.2
					c1-0.9,2-2,2.8-3.2c0.8-1.2,1.4-2.3,1.9-3.5c0.4-1.1,0.8-2.3,1.1-3.5c0.3-1.2,0.5-2.3,0.6-3.1c0.1-0.8,0.2-1.7,0.2-2.6
					c0-0.8,0-1.4,0-1.7c0-0.3,0-0.5,0-0.6c3.6,0.9,6.9,2,9.9,3.5c-1,0.5-2,1.2-2.9,1.9c-0.9,0.7-1.8,1.8-2.8,3.2
					c-1,1.5-1.8,3.1-2.3,5c-0.5,1.9-0.8,4.4-0.6,7.6c0.1,3.3,0.7,7,1.9,11.3c2.4-1,4.5-2.2,6.2-3.5c1.7-1.3,3.1-2.7,4-4
					c0.9-1.3,1.7-2.8,2.2-4.3c0.5-1.5,0.8-2.9,0.9-4.2c0.1-1.3,0-2.6-0.1-4c-0.2-1.3-0.4-2.5-0.7-3.5c-0.3-1-0.6-1.9-1-2.9
					c4.7,3,8.7,6.7,11.9,11.3c3.5,4.9,5.8,10.5,6.9,16.8c0.1,0.7,0.4,1.4,0.9,1.9c0.5,0.5,1,0.8,1.5,0.9c0.6,0.1,1-0.2,1.3-0.6
					c0.3-0.5,0.4-1.1,0.2-1.8c-1.4-7.6-4.4-14.1-8.7-19.7c-4-5.2-8.7-9.3-14.3-12.5l0.3-0.6c0.2-0.4,0.4-0.9,0.7-1.6
					c0.2-0.7,0.5-1.4,0.8-2.3c0.3-0.9,0.4-1.8,0.5-2.8c0.1-1,0.1-2,0-3c0-1-0.3-2-0.7-3c-0.4-1-0.9-2-1.6-2.9
					c-0.7-0.9-1.6-1.8-2.7-2.6c-1.1-0.8-2.5-1.6-4-2.2C-19,590.1-19.8,591.3-20.3,592.5z"/>
			</g>
		</g>
		<g>
			<g>
				<path class="st8" d="M73.9,588.7c-2.8,0-5.3,0.1-7.6,0.5c-2.3,0.4-4.2,1-5.8,1.7c-1.6,0.8-2.9,1.6-4.1,2.7
					c-1.2,1.1-2.1,2.2-2.8,3.4c-0.6,1.2-1.2,2.5-1.6,3.7c-0.4,1.3-0.7,2.5-0.7,3.7c-0.1,1.2-0.1,2.3-0.1,3.3c0,1,0.1,1.7,0.2,2.3
					l0.2,0.9c-10.5,1-20.3,3.5-29.4,7.8c-9.9,4.6-18.2,11.1-24.7,19.7c-0.6,0.8-0.8,1.6-0.6,2.3c0.2,0.7,0.8,1.2,1.7,1.5
					c0.9,0.2,1.9,0.1,2.9-0.3c1-0.4,1.8-1,2.4-1.9c5.2-7.2,12-12.8,20.2-17c7.7-3.9,16.1-6.4,25.1-7.6c-1.1,1-2.2,2-3.2,3
					c-1,1.1-2,2.4-3,3.9c-1,1.6-1.9,3.2-2.4,4.8c-0.6,1.7-0.9,3.5-1,5.6c-0.1,2.1,0.3,4.3,1,6.5c0.7,2.2,2.1,4.6,4.1,7.1
					c2,2.6,4.6,5.1,7.8,7.7c4.2-4.6,7.3-8.9,9.3-12.9c1.9-3.8,3-7,3.2-9.7c0.2-2.6,0-5-0.8-7.4c-0.7-2.3-1.6-4.1-2.6-5.5
					c-1-1.4-2.2-2.7-3.5-3.9c5.6-0.2,11.4,0.1,17.5,0.9c-0.1,0.2-0.3,0.4-0.4,0.8c-0.2,0.3-0.5,1-0.9,2.1c-0.4,1.1-0.8,2.2-1.1,3.3
					c-0.3,1.1-0.6,2.5-0.9,4.1c-0.2,1.7-0.3,3.3-0.3,4.9c0.1,1.6,0.4,3.4,1,5.3c0.6,1.9,1.5,3.7,2.6,5.4c1.2,1.7,2.8,3.3,5,4.9
					c2.2,1.6,4.7,2.9,7.6,3.9c1.8-2.6,3.2-5.1,4-7.5c0.9-2.3,1.3-4.4,1.3-6.3c0-1.9-0.2-3.6-0.7-5.3c-0.4-1.7-1.1-3.1-2-4.4
					c-0.9-1.3-1.8-2.5-2.7-3.6c-0.9-1.1-1.9-2.1-2.9-2.9c-1-0.8-1.9-1.5-2.7-2.1c-0.8-0.6-1.4-1-1.9-1.3l-0.8-0.4
					c4.5,0.9,8,1.7,10.6,2.4c0.2,0.3,0.4,0.7,0.6,1.2c0.3,0.5,0.9,1.5,1.9,2.9c1,1.5,2.1,2.8,3.2,4.1c1.2,1.3,2.7,2.6,4.6,4.1
					c1.9,1.5,3.9,2.6,6,3.4c2.1,0.8,4.5,1.3,7.2,1.3c2.7,0.1,5.3-0.4,7.9-1.5c-0.8-2.7-1.7-5-2.9-7.1c-1.1-2-2.4-3.7-3.6-4.9
					c-1.3-1.3-2.6-2.4-4.1-3.3c-1.5-0.9-2.9-1.6-4.4-2.1c-1.5-0.5-2.9-0.9-4.3-1.2c-1.4-0.3-2.8-0.5-4-0.6c-1.3-0.1-2.4-0.1-3.4-0.1
					c-1,0-1.8,0-2.3,0.1l-0.9,0.1c-0.2-0.1-1-0.3-2.6-0.8c-1.6-0.4-2.8-0.8-3.7-1c0.3,0,0.6-0.1,1.1-0.1c0.5-0.1,1.3-0.3,2.6-0.6
					c1.3-0.3,2.4-0.8,3.5-1.2c1.1-0.5,2.2-1.2,3.5-2c1.2-0.9,2.2-1.8,3-2.9c0.8-1,1.3-2.3,1.6-3.9c0.3-1.5,0.2-3.1-0.1-4.8
					c-2.4-0.6-4.6-1-6.6-1.2c-2.1-0.1-3.8,0-5.3,0.3c-1.5,0.3-2.9,0.8-4.1,1.4c-1.3,0.6-2.3,1.4-3.2,2.2c-0.9,0.9-1.6,1.8-2.3,2.8
					c-0.7,1-1.2,1.9-1.6,2.9c-0.4,1-0.7,1.9-0.9,2.7c-0.2,0.8-0.4,1.5-0.5,2l-0.1,0.8c-5.5-0.8-10.9-1.2-16.5-1.2
					c0.3-0.1,0.8-0.3,1.4-0.5c0.6-0.2,1.6-0.7,3.2-1.5c1.5-0.7,2.9-1.5,4.2-2.4c1.2-0.8,2.5-1.9,3.8-3.2c1.2-1.3,2.2-2.6,2.8-4
					c0.6-1.4,0.8-2.9,0.7-4.8C75.6,592.3,75,590.5,73.9,588.7z"/>
			</g>
		</g>
		<g>
			<g>
				<path class="st8" d="M-28.9,618.3c-0.1,0.9,0.1,1.8,0.4,2.5c0.3,0.7,0.8,1.4,1.4,2.1c0.7,0.7,1.3,1.2,2,1.7
					c0.7,0.4,1.4,0.8,2.1,1.2c0.8,0.4,1.3,0.6,1.6,0.8c0.3,0.1,0.5,0.2,0.7,0.3c-2.9,0-5.7,0.2-8.5,0.6l-0.1-0.4
					c0-0.3-0.1-0.6-0.2-1c-0.1-0.4-0.3-0.9-0.5-1.4c-0.2-0.5-0.5-1-0.8-1.5c-0.3-0.5-0.7-1-1.2-1.4c-0.4-0.5-1-0.8-1.6-1.2
					c-0.7-0.3-1.4-0.6-2.1-0.7c-0.8-0.2-1.7-0.2-2.8-0.1c-1.1,0.1-2.2,0.3-3.4,0.6c-0.2,0.9-0.2,1.7-0.1,2.5c0.2,0.8,0.4,1.5,0.8,2
					c0.4,0.5,0.9,1,1.5,1.5c0.6,0.5,1.2,0.8,1.8,1.1c0.6,0.2,1.2,0.5,1.8,0.6c0.7,0.2,1.1,0.3,1.3,0.3c0.2,0,0.4,0.1,0.6,0.1
					c-0.5,0.1-1.1,0.3-1.9,0.5c-0.8,0.2-1.3,0.4-1.4,0.4l-0.4,0c-0.3,0-0.7-0.1-1.2-0.1c-0.5,0-1.1,0-1.7,0.1
					c-0.6,0-1.3,0.1-2.1,0.3c-0.7,0.2-1.5,0.4-2.2,0.6c-0.8,0.3-1.5,0.6-2.3,1.1c-0.8,0.5-1.5,1.1-2.1,1.7c-0.7,0.7-1.3,1.5-1.9,2.5
					c-0.6,1.1-1.1,2.3-1.5,3.7c1.3,0.5,2.7,0.8,4.1,0.8c1.4,0,2.6-0.3,3.7-0.7c1.1-0.4,2.1-1,3.1-1.8c1-0.7,1.8-1.4,2.4-2.1
					c0.6-0.7,1.2-1.4,1.7-2.1c0.5-0.7,0.8-1.2,1-1.5c0.1-0.3,0.2-0.5,0.3-0.6c1.3-0.4,3.2-0.8,5.5-1.2l-0.4,0.2
					c-0.3,0.2-0.6,0.4-1,0.7c-0.4,0.3-0.9,0.7-1.4,1.1c-0.5,0.4-1,0.9-1.5,1.5c-0.5,0.6-1,1.2-1.4,1.9c-0.4,0.7-0.8,1.4-1,2.3
					c-0.2,0.9-0.4,1.8-0.3,2.7c0,1,0.2,2.1,0.7,3.3c0.5,1.2,1.1,2.5,2.1,3.9c1.5-0.5,2.8-1.2,3.9-2c1.1-0.8,2-1.6,2.6-2.5
					c0.6-0.9,1-1.8,1.4-2.8c0.3-1,0.5-1.9,0.5-2.7c0-0.8,0-1.7-0.1-2.5c-0.1-0.9-0.3-1.6-0.4-2.1c-0.2-0.6-0.4-1.1-0.6-1.7
					c-0.2-0.6-0.4-0.9-0.5-1.1c-0.1-0.2-0.2-0.3-0.2-0.4c3.1-0.4,6.2-0.6,9-0.5c-0.7,0.6-1.3,1.3-1.8,2c-0.5,0.7-1,1.7-1.4,2.8
					c-0.4,1.2-0.5,2.5-0.4,3.8c0.1,1.4,0.7,3,1.7,5c1,2.1,2.6,4.3,4.8,6.6c1.6-1.3,3-2.6,4-4c1-1.3,1.7-2.5,2.1-3.7
					c0.4-1.1,0.6-2.2,0.5-3.3c0-1.1-0.2-2.1-0.5-2.9c-0.3-0.8-0.7-1.7-1.3-2.5c-0.5-0.8-1-1.5-1.5-2c-0.5-0.5-1-1.1-1.6-1.6
					c4.7,0.6,9,1.9,13,3.9c4.3,2.2,7.8,5.1,10.4,8.8c0.3,0.4,0.7,0.8,1.2,1c0.5,0.2,1,0.3,1.5,0.1c0.5-0.1,0.8-0.4,0.9-0.8
					c0.1-0.4,0-0.8-0.3-1.2c-3.4-4.4-7.6-7.8-12.8-10.1c-4.7-2.2-9.8-3.5-15.2-4l0.1-0.5c0.1-0.3,0.1-0.7,0.1-1.2c0-0.5,0-1.1,0-1.7
					c0-0.6-0.2-1.3-0.4-1.9c-0.2-0.7-0.5-1.3-0.8-1.9c-0.3-0.6-0.8-1.2-1.4-1.7c-0.6-0.5-1.3-1-2.1-1.4c-0.8-0.4-1.8-0.7-3-0.9
					c-1.2-0.2-2.5-0.3-3.9-0.3C-28.6,616.4-28.9,617.4-28.9,618.3z"/>
			</g>
		</g>
	</g>
</g>
<g>
	<g>
		<path class="st4" d="M229.8,495.5c1.4,9.9-1.2,19.7-7.2,27.7c-6,8-14.7,13.1-24.6,14.5c-9.9,1.4-19.7-1.2-27.7-7.2
			c-8-6-13.1-14.7-14.5-24.6c-1.4-9.9,1.2-19.7,7.2-27.7c6-8,14.7-13.1,24.6-14.5c9.9-1.4,19.7,1.2,27.7,7.2
			C223.3,476.9,228.4,485.6,229.8,495.5z"/>
		<path class="st5" d="M144.7,497.4c-1.4,0.2-2.3,1.5-2.1,2.8c0,0.3,0.1,0.5,0.2,0.7l0,0c0.1,0.2,1.1,2.3,3.2,4.2
			c2.9,2.7,6.5,3.8,10.3,3.2l-0.8-4.9c-5.4,0.9-8.2-4.4-8.3-4.7l0,0C146.8,497.8,145.7,497.3,144.7,497.4z"/>
		<path class="st6" d="M153.4,506.2c3.1,21.8,23.2,36.9,45,33.9c21.8-3.1,37-23.2,33.9-45c-3.1-21.8-23.2-37-45-33.9
			C165.6,464.3,150.4,484.5,153.4,506.2z M225.8,489.3c0.1,0.1,0.1,0.3,0.2,0.4c-14.2,2.7-20.9,1.2-24.3-0.9
			c-0.8-0.5-4.9-3.2-9.3-2.7c-2,0.2-3.7,1-3.7,1c-1.8,0.8-2.6,1.8-4,2.8c0,0-2.3,1.8-5.8,3.1c-4.9,1.8-7.2-0.4-11.8,0.4
			c-2.3,0.4-5.6,1.8-9,5.8c0-0.2,0-0.3,0-0.5c-0.1-1.3-0.1-4.3,1.8-6.9c2.6-3.5,7-4,8.3-4.1c4.9-0.6,6.9,1.7,10.6,0.1
			c1.6-0.7,2.9-1.8,3.4-2.2c2.5-2.2,2.5-3.4,4.1-4.4c0.5-0.3,1.8-0.9,7.3,0c3.3,0.6,5.7,1.3,8.5,2.1c6,1.8,9,2.7,9.3,2.7
			c6.7,0.8,10.6-2.2,13.1,0.1C225.5,487.1,225.7,488.4,225.8,489.3z M227.7,502.6c-0.3,5.3-2.1,7.8-3.6,9c-1.7,1.3-2.9,1.1-7,2.7
			c-5.1,1.9-4.6,2.8-7.7,3.7c-5.9,1.8-7.5-1.5-13.5,0.3c-3.8,1.1-4.3,2.8-7.7,2.8c-3.1,0-3.2-1.4-6.9-1.9c-5.6-0.8-8,2.1-10.8,0.2
			c-1.5-1-1.4-2.3-3.3-3c-1.8-0.6-2.9,0.3-4.4-0.3c-0.9-0.4-2-1.4-2.8-4.1c0-0.1-0.1-0.1-0.1-0.2c0-0.1-0.1-0.1-0.1-0.2
			c1.4-1.3,3.4-2.7,5.6-2.5c3.2,0.3,4,3.7,7.5,4.6c3.1,0.8,4.2-2.6,8-2.1c2.5,0.3,2.3,1.6,4.7,1.8c2.3,0.2,6.1-1.6,8.9-2.9
			c1.9-0.9,2.9-1.3,3.3-1.4c2.7-0.3,3.7,1.8,6.4,1.4c1.3-0.2,1.8-0.7,3.1-0.6c1.3,0.2,1.8,0.8,2.6,1.1c2.5,1,5.5-2.5,9.7-5.2
			C221.4,504.8,224,503.5,227.7,502.6z M210.7,530.6c-1.3,1.1-1.8,2-3.2,2.4c-1.1,0.3-1.8,0-3.5-0.3c-1.8-0.3-3.6-0.6-5.3-0.3
			c-3.1,0.5-3.6,2.3-7.4,2.8c-0.9,0.1-1.7,0.1-2.1,0.1c-2-0.1-3.6-0.5-5.5-1c-4.4-1.2-8.4-3.1-12-5.9c-2.8-2.1-5.3-4.6-7.3-7.4
			c0.7,0.4,1.7,0.9,3,1.6c0.2,0.1,2.5,1.2,3.6,1.7c3.8,1.6,5.7-0.3,10,0.7c3.4,0.8,2.9,2.1,5.6,2.7c4.8,1,6.3-3,13.2-4.2
			c6-1.1,7.8,1.4,11.7-0.9c2.5-1.4,2.2-2.7,5.5-4.5c2.1-1.1,3.7-1.4,6-3.2c1.1-0.9,2-1.7,2.5-2.3c-0.5,2.5-1.6,6.2-4.1,9.8
			c-1.6,2.3-2.9,4.2-5.4,5.5C213.9,529.1,212.8,528.9,210.7,530.6z M227.5,496.6c-4.4,1.5-7.5,3.3-9.6,4.7c-2.8,1.9-4.3,3.5-6.8,3.4
			c-1.9-0.1-3-1.2-5-0.6c-1.7,0.5-1.8,1.4-3.2,1.6c-2.9,0.5-4.3-3-6.5-2.4c-1.5,0.4-1.2,2.1-3.5,3.8c-0.4,0.3-2.3,1.8-4.9,1.8
			c-3.7,0-4.7-3.1-7.7-2.6c-2.5,0.4-3.1,2.7-5.5,2.5c-1.4-0.1-2.4-0.9-2.9-1.3c-1.9-1.4-5.5-2.6-13.3-1.2c0-0.2-0.1-0.5-0.1-0.7
			c0-0.3-0.1-0.5-0.1-0.8c2.2-2.7,5.7-5.9,10.5-6.6c2.7-0.4,3,0.4,7.2,0.4c3.4,0,8.8-0.1,13.7-3.1c3.1-2,3.8-3.8,5.9-3.6
			c1.9,0.1,2,1.6,5.7,3.2c0.7,0.3,2.4,0.8,5.8,1.8c3.3,1,3.6,1,4,1c2,0.1,3.5-0.7,6.3-2.3c7.1-3.9,8.3-4.6,9.2-4.1
			C227.3,491.8,227.9,493,227.5,496.6z M213.8,472.9c2.8,2.1,5.3,4.6,7.3,7.4c2.6,2.9,3,3.7,2.9,3.8c-0.3,0.3-2.6-2.7-6.9-4.1
			c-2.8-1-3.7-0.3-7.8-1c-3.5-0.6-4.3-1.3-8.2-2.5c-4.3-1.3-7.9-2.3-11.6-2c-6.2,0.5-5.2,4.2-13.8,7c-4.9,1.6-8.7,1.5-13.1,5
			c-1.1,0.9-2,1.8-2.5,2.3c1.2-3.3,2.8-6.3,5-9.1c2.2-2.9,3.3-4.4,4.9-5.3c2.7-1.5,3.8-0.5,6.3-2.2c2.1-1.4,1.7-2.4,3.7-3.9
			c1.8-1.4,3.9-1.5,8.1-2.1c4.7-0.7,9.3-0.4,13.8,0.8C206.2,468.2,210.2,470.2,213.8,472.9z"/>
	</g>
	<g>
		<g>
			<g>
				<path class="st7" d="M214.6,446.2c-3,1.2-5.6,2.6-7.8,4.2c-2.3,1.6-4,3.3-5.3,5c-1.3,1.7-2.3,3.6-3.1,5.6c-0.8,2-1.2,4-1.3,5.9
					c-0.1,2-0.1,3.9,0.1,5.8c0.2,1.9,0.5,3.7,1,5.4c0.5,1.7,1,3.2,1.5,4.5c0.5,1.3,0.9,2.3,1.3,3l0.6,1.1
					c-10.7,6.2-19.9,14.1-27.6,24.2c-8.3,10.9-14.1,23.5-16.8,38.2c-0.3,1.4-0.1,2.6,0.5,3.5c0.6,0.9,1.4,1.3,2.5,1.2
					c1.1-0.1,2.1-0.7,3-1.7c0.9-1,1.4-2.3,1.7-3.7c2-12.2,6.6-23,13.3-32.5c6.3-8.9,14-16.1,23.1-22c-0.7,1.8-1.4,3.7-1.9,5.6
					c-0.5,1.9-1,4.1-1.3,6.7c-0.4,2.6-0.4,5.2-0.3,7.7c0.2,2.5,0.7,5.3,1.7,8.1c1,2.9,2.4,5.7,4.2,8.3c1.9,2.7,4.5,5.3,7.8,7.8
					c3.4,2.6,7.4,4.9,12,6.8c2.3-8.2,3.5-15.4,3.7-21.8c0.2-6.1-0.2-10.9-1.2-14.7c-1-3.6-2.5-6.8-4.4-9.7c-1.9-2.8-3.7-4.8-5.4-6.3
					c-1.7-1.4-3.6-2.6-5.5-3.7c5.8-2.9,12.2-5.2,19.1-6.8c0,0.3,0,0.7-0.1,1.2c0,0.5,0,1.6,0,3.2c0.1,1.7,0.2,3.3,0.4,5
					c0.2,1.7,0.5,3.7,1.1,6c0.6,2.4,1.3,4.7,2.1,6.8c0.9,2.2,2.1,4.4,3.6,6.7c1.6,2.3,3.4,4.4,5.4,6.1c2,1.8,4.6,3.2,7.7,4.3
					c3.1,1.1,6.4,1.8,10,1.8c0.7-4.4,0.9-8.4,0.7-12.1c-0.2-3.6-0.8-6.6-1.7-9.2c-0.9-2.5-2-4.8-3.3-6.9c-1.3-2.1-2.7-3.8-4.2-5.1
					c-1.5-1.4-3.1-2.6-4.6-3.7c-1.5-1.1-3-1.9-4.5-2.6c-1.5-0.7-2.7-1.2-3.8-1.6c-1.1-0.4-2-0.7-2.7-0.9l-1.1-0.2
					c5.2-0.9,9.3-1.5,12.4-1.7c0.3,0.3,0.7,0.8,1.2,1.4c0.5,0.6,1.6,1.6,3.4,3.1c1.8,1.5,3.6,2.9,5.4,4.1c1.9,1.2,4.2,2.3,6.9,3.4
					c2.8,1.1,5.5,1.7,8.1,1.9c2.6,0.2,5.4-0.4,8.3-1.5c2.9-1.1,5.4-3,7.7-5.6c-2.1-3.3-4.3-6-6.5-8.3c-2.2-2.2-4.3-3.9-6.3-5
					c-2-1.1-4-2-6-2.6c-2-0.6-3.9-0.9-5.7-0.9c-1.8,0-3.5,0.1-5.2,0.4c-1.7,0.2-3.2,0.6-4.5,1.1c-1.4,0.5-2.6,1-3.6,1.4
					c-1.1,0.4-1.9,0.9-2.4,1.2l-0.9,0.5c-0.2,0-1.3,0-3.2,0.2c-1.9,0.1-3.4,0.3-4.5,0.4c0.3-0.1,0.6-0.4,1.1-0.7
					c0.4-0.3,1.3-1,2.4-2.1c1.2-1,2.2-2.1,3.1-3.3c0.9-1.1,1.8-2.6,2.7-4.4c0.9-1.7,1.5-3.5,1.8-5.3c0.3-1.8,0.2-3.8-0.2-6
					c-0.4-2.2-1.3-4.4-2.5-6.5c-2.8,0.2-5.4,0.7-7.6,1.5c-2.3,0.8-4.1,1.7-5.5,2.8c-1.4,1.1-2.7,2.4-3.7,3.8c-1.1,1.4-1.8,3-2.3,4.5
					c-0.5,1.6-0.9,3.2-1.1,4.8c-0.3,1.6-0.4,3.2-0.3,4.7c0.1,1.5,0.2,2.9,0.3,4.1c0.1,1.2,0.3,2.2,0.5,2.9l0.3,1.1
					c-6.2,1.4-12.2,3.4-18.1,6.1c0.3-0.3,0.7-0.7,1.2-1.3c0.5-0.6,1.4-1.7,2.7-3.4c1.3-1.7,2.3-3.4,3.3-5.1c0.9-1.7,1.8-3.8,2.5-6.2
					c0.7-2.4,1-4.6,1-6.8c0-2.1-0.6-4.4-1.6-6.8C218.1,450.4,216.6,448.2,214.6,446.2z"/>
			</g>
		</g>
		<g>
			<g>
				<path class="st7" d="M139.9,501.1c-0.5,1.3-0.8,2.4-0.8,3.5c0,1.1,0.2,2.3,0.5,3.5c0.4,1.2,0.8,2.3,1.3,3.2
					c0.5,0.9,1.1,1.8,1.7,2.7c0.7,0.9,1.1,1.5,1.4,1.8c0.3,0.3,0.5,0.5,0.6,0.7c-3.1-1.4-6.2-2.4-9.4-3.1l0.1-0.6
					c0.1-0.4,0.2-0.9,0.2-1.5c0.1-0.6,0.1-1.3,0.2-2.1c0-0.8,0-1.6-0.2-2.4c-0.1-0.8-0.3-1.7-0.6-2.5c-0.2-0.8-0.6-1.6-1.2-2.3
					c-0.5-0.7-1.2-1.4-1.9-2c-0.7-0.6-1.7-1.1-2.9-1.5c-1.2-0.4-2.5-0.7-3.9-0.8c-0.6,1.1-1.1,2.2-1.3,3.4c-0.2,1.2-0.3,2.2-0.1,3.1
					c0.2,0.9,0.5,1.8,0.9,2.7c0.5,0.9,0.9,1.7,1.4,2.3c0.5,0.6,1,1.2,1.6,1.7c0.6,0.5,1,0.9,1.3,1.1c0.2,0.2,0.4,0.3,0.6,0.4
					c-0.6-0.1-1.3-0.1-2.3-0.2c-1-0.1-1.5-0.1-1.6-0.1l-0.4-0.3c-0.3-0.2-0.7-0.4-1.3-0.6c-0.5-0.2-1.2-0.5-1.9-0.7
					c-0.7-0.3-1.5-0.4-2.3-0.6c-0.9-0.1-1.8-0.2-2.7-0.2c-0.9,0-1.9,0.1-2.9,0.5c-1,0.3-2.1,0.8-3.1,1.3c-1,0.6-2.1,1.4-3.2,2.6
					c-1.2,1.2-2.3,2.6-3.4,4.3c1.2,1.3,2.5,2.3,4,2.9c1.5,0.6,2.9,0.9,4.3,0.8c1.3-0.1,2.7-0.4,4.2-1c1.4-0.6,2.6-1.1,3.6-1.8
					c1-0.6,1.9-1.3,2.8-2.1c0.9-0.8,1.5-1.3,1.7-1.6c0.3-0.3,0.5-0.5,0.6-0.7c1.6,0.1,3.7,0.4,6.4,0.9l-0.5,0.1
					c-0.3,0.1-0.8,0.2-1.4,0.5c-0.6,0.2-1.2,0.5-2,0.8c-0.8,0.3-1.5,0.8-2.3,1.3c-0.8,0.6-1.6,1.2-2.4,1.9c-0.8,0.7-1.5,1.6-2.2,2.7
					c-0.7,1.1-1.2,2.3-1.7,3.6c-0.5,1.3-0.8,2.9-0.9,4.8c-0.1,1.9,0,4,0.4,6.2c1.9,0,3.6-0.4,5.2-0.9c1.6-0.6,2.9-1.3,4-2.2
					c1-0.9,2-2,2.8-3.2c0.8-1.2,1.4-2.3,1.9-3.5c0.4-1.1,0.8-2.3,1.1-3.5c0.3-1.2,0.5-2.3,0.6-3.1c0.1-0.8,0.2-1.7,0.2-2.6
					c0-0.8,0-1.4,0-1.7c0-0.3,0-0.5,0-0.6c3.6,0.9,6.9,2,9.9,3.5c-1,0.5-2,1.2-2.9,1.9c-0.9,0.7-1.8,1.8-2.8,3.2
					c-1,1.5-1.8,3.1-2.3,5c-0.5,1.9-0.8,4.4-0.6,7.6c0.1,3.3,0.7,7,1.9,11.3c2.4-1,4.5-2.2,6.2-3.5c1.7-1.3,3.1-2.7,4-4
					c0.9-1.3,1.7-2.8,2.2-4.3c0.5-1.5,0.8-2.9,0.9-4.2c0.1-1.3,0-2.6-0.1-4c-0.2-1.3-0.4-2.5-0.7-3.5c-0.3-1-0.6-1.9-1-2.9
					c4.7,3,8.7,6.7,11.9,11.3c3.5,4.9,5.8,10.5,6.9,16.8c0.1,0.7,0.4,1.4,0.9,1.9c0.5,0.5,1,0.8,1.5,0.9c0.6,0.1,1-0.2,1.3-0.6
					c0.3-0.5,0.4-1.1,0.2-1.8c-1.4-7.6-4.4-14.1-8.7-19.7c-4-5.2-8.7-9.3-14.3-12.5l0.3-0.6c0.2-0.4,0.4-0.9,0.7-1.6
					c0.2-0.7,0.5-1.4,0.8-2.3c0.3-0.9,0.4-1.8,0.5-2.8c0.1-1,0.1-2,0-3c0-1-0.3-2-0.7-3c-0.4-1-0.9-2-1.6-2.9
					c-0.7-0.9-1.6-1.8-2.7-2.6c-1.1-0.8-2.5-1.6-4-2.2C141.2,498.8,140.5,499.9,139.9,501.1z"/>
			</g>
		</g>
		<g>
			<g>
				<path class="st8" d="M234.2,497.3c-2.8,0-5.3,0.1-7.6,0.5c-2.3,0.4-4.2,1-5.8,1.7c-1.6,0.8-2.9,1.6-4.1,2.7
					c-1.2,1.1-2.1,2.2-2.8,3.4c-0.6,1.2-1.2,2.5-1.6,3.7c-0.4,1.3-0.7,2.5-0.7,3.7c-0.1,1.2-0.1,2.3-0.1,3.3c0,1,0.1,1.7,0.2,2.3
					l0.2,0.9c-10.5,1-20.3,3.5-29.4,7.8c-9.9,4.6-18.2,11.1-24.7,19.7c-0.6,0.8-0.8,1.6-0.6,2.3c0.2,0.7,0.8,1.2,1.7,1.5
					c0.9,0.2,1.9,0.1,2.9-0.3c1-0.4,1.8-1,2.4-1.9c5.2-7.2,12-12.8,20.2-17c7.7-3.9,16.1-6.4,25.1-7.6c-1.1,1-2.2,2-3.2,3
					c-1,1.1-2,2.4-3,3.9c-1,1.6-1.9,3.2-2.4,4.8c-0.6,1.7-0.9,3.5-1,5.6c-0.1,2.1,0.3,4.3,1,6.5c0.7,2.2,2.1,4.6,4.1,7.1
					c2,2.6,4.6,5.1,7.8,7.7c4.2-4.6,7.3-8.9,9.3-12.9c1.9-3.8,3-7,3.2-9.7c0.2-2.6,0-5-0.8-7.4c-0.7-2.3-1.6-4.1-2.6-5.5
					c-1-1.4-2.2-2.7-3.5-3.9c5.6-0.2,11.4,0.1,17.5,0.9c-0.1,0.2-0.3,0.4-0.4,0.8c-0.2,0.3-0.5,1-0.9,2.1c-0.4,1.1-0.8,2.2-1.1,3.3
					c-0.3,1.1-0.6,2.5-0.9,4.1c-0.2,1.7-0.3,3.3-0.3,4.9c0.1,1.6,0.4,3.4,1,5.3c0.6,1.9,1.5,3.7,2.6,5.4c1.2,1.7,2.8,3.3,5,4.9
					c2.2,1.6,4.7,2.9,7.6,3.9c1.8-2.6,3.2-5.1,4-7.5c0.9-2.3,1.3-4.4,1.3-6.3c0-1.9-0.2-3.6-0.7-5.3c-0.4-1.7-1.1-3.1-2-4.4
					c-0.9-1.3-1.8-2.5-2.7-3.6c-0.9-1.1-1.9-2.1-2.9-2.9c-1-0.8-1.9-1.5-2.7-2.1c-0.8-0.6-1.4-1-1.9-1.3l-0.8-0.4
					c4.5,0.9,8,1.7,10.6,2.4c0.2,0.3,0.4,0.7,0.6,1.2c0.3,0.5,0.9,1.5,1.9,2.9c1,1.5,2.1,2.8,3.2,4.1c1.2,1.3,2.7,2.6,4.6,4.1
					c1.9,1.5,3.9,2.6,6,3.4c2.1,0.8,4.5,1.3,7.2,1.3c2.7,0.1,5.3-0.4,7.9-1.5c-0.8-2.7-1.7-5-2.9-7.1c-1.1-2-2.4-3.7-3.6-4.9
					c-1.3-1.3-2.6-2.4-4.1-3.3c-1.5-0.9-2.9-1.6-4.4-2.1c-1.5-0.5-2.9-0.9-4.3-1.2c-1.4-0.3-2.8-0.5-4-0.6c-1.3-0.1-2.4-0.1-3.4-0.1
					c-1,0-1.8,0-2.3,0.1l-0.9,0.1c-0.2-0.1-1-0.3-2.6-0.8c-1.6-0.4-2.8-0.8-3.7-1c0.3,0,0.6-0.1,1.1-0.1c0.5-0.1,1.3-0.3,2.6-0.6
					c1.3-0.3,2.4-0.8,3.5-1.2c1.1-0.5,2.2-1.2,3.5-2c1.2-0.9,2.2-1.8,3-2.9c0.8-1,1.3-2.3,1.6-3.9c0.3-1.5,0.2-3.1-0.1-4.8
					c-2.4-0.6-4.6-1-6.6-1.2c-2.1-0.1-3.8,0-5.3,0.3c-1.5,0.3-2.9,0.8-4.1,1.4c-1.3,0.6-2.3,1.4-3.2,2.2c-0.9,0.9-1.6,1.8-2.3,2.8
					c-0.7,1-1.2,1.9-1.6,2.9c-0.4,1-0.7,1.9-0.9,2.7c-0.2,0.8-0.4,1.5-0.5,2l-0.1,0.8c-5.5-0.8-10.9-1.2-16.5-1.2
					c0.3-0.1,0.8-0.3,1.4-0.5c0.6-0.2,1.6-0.7,3.2-1.5c1.5-0.7,2.9-1.5,4.2-2.4c1.2-0.8,2.5-1.9,3.8-3.2c1.2-1.3,2.2-2.6,2.8-4
					c0.6-1.4,0.8-2.9,0.7-4.8C235.8,501,235.2,499.1,234.2,497.3z"/>
			</g>
		</g>
		<g>
			<g>
				<path class="st8" d="M131.3,526.9c-0.1,0.9,0.1,1.8,0.4,2.5c0.3,0.7,0.8,1.4,1.4,2.1c0.7,0.7,1.3,1.2,2,1.7
					c0.7,0.4,1.4,0.8,2.1,1.2c0.8,0.4,1.3,0.6,1.6,0.8c0.3,0.1,0.5,0.2,0.7,0.3c-2.9,0-5.7,0.2-8.5,0.6l-0.1-0.4
					c0-0.3-0.1-0.6-0.2-1c-0.1-0.4-0.3-0.9-0.5-1.4c-0.2-0.5-0.5-1-0.8-1.5c-0.3-0.5-0.7-1-1.2-1.4c-0.4-0.5-1-0.8-1.6-1.2
					c-0.7-0.3-1.4-0.6-2.1-0.7c-0.8-0.2-1.7-0.2-2.8-0.1c-1.1,0.1-2.2,0.3-3.4,0.6c-0.2,0.9-0.2,1.7-0.1,2.5c0.2,0.8,0.4,1.5,0.8,2
					c0.4,0.5,0.9,1,1.5,1.5c0.6,0.5,1.2,0.8,1.8,1.1c0.6,0.2,1.2,0.5,1.8,0.6c0.7,0.2,1.1,0.3,1.3,0.3c0.2,0,0.4,0.1,0.6,0.1
					c-0.5,0.1-1.1,0.3-1.9,0.5c-0.8,0.2-1.3,0.4-1.4,0.4l-0.4,0c-0.3,0-0.7-0.1-1.2-0.1c-0.5,0-1.1,0-1.7,0.1
					c-0.6,0-1.3,0.1-2.1,0.3c-0.7,0.2-1.5,0.4-2.2,0.6c-0.8,0.3-1.5,0.6-2.3,1.1c-0.8,0.5-1.5,1.1-2.1,1.7c-0.7,0.7-1.3,1.5-1.9,2.5
					c-0.6,1.1-1.1,2.3-1.5,3.7c1.3,0.5,2.7,0.8,4.1,0.8c1.4,0,2.6-0.3,3.7-0.7c1.1-0.4,2.1-1,3.1-1.8c1-0.7,1.8-1.4,2.4-2.1
					c0.6-0.7,1.2-1.4,1.7-2.1c0.5-0.7,0.8-1.2,1-1.5c0.1-0.3,0.2-0.5,0.3-0.6c1.3-0.4,3.2-0.8,5.5-1.2l-0.4,0.2
					c-0.3,0.2-0.6,0.4-1,0.7c-0.4,0.3-0.9,0.7-1.4,1.1c-0.5,0.4-1,0.9-1.5,1.5c-0.5,0.6-1,1.2-1.4,1.9c-0.4,0.7-0.8,1.4-1,2.3
					c-0.2,0.9-0.4,1.8-0.3,2.7c0,1,0.2,2.1,0.7,3.3c0.5,1.2,1.1,2.5,2.1,3.9c1.5-0.5,2.8-1.2,3.9-2c1.1-0.8,2-1.6,2.6-2.5
					c0.6-0.9,1-1.8,1.4-2.8c0.3-1,0.5-1.9,0.5-2.7c0-0.8,0-1.7-0.1-2.5c-0.1-0.9-0.3-1.6-0.4-2.1c-0.2-0.6-0.4-1.1-0.6-1.7
					c-0.2-0.6-0.4-0.9-0.5-1.1c-0.1-0.2-0.2-0.3-0.2-0.4c3.1-0.4,6.2-0.6,9-0.5c-0.7,0.6-1.3,1.3-1.8,2c-0.5,0.7-1,1.7-1.4,2.8
					c-0.4,1.2-0.5,2.5-0.4,3.8c0.1,1.4,0.7,3,1.7,5c1,2.1,2.6,4.3,4.8,6.6c1.6-1.3,3-2.6,4-4c1-1.3,1.7-2.5,2.1-3.7
					c0.4-1.1,0.6-2.2,0.5-3.3c0-1.1-0.2-2.1-0.5-2.9c-0.3-0.8-0.7-1.7-1.3-2.5c-0.5-0.8-1-1.5-1.6-2c-0.5-0.5-1-1.1-1.6-1.6
					c4.7,0.6,9,1.9,13,3.9c4.3,2.2,7.8,5.1,10.4,8.8c0.3,0.4,0.7,0.8,1.2,1c0.5,0.2,1,0.3,1.5,0.1c0.5-0.1,0.8-0.4,0.9-0.8
					c0.1-0.4,0-0.8-0.3-1.2c-3.4-4.4-7.6-7.8-12.8-10.1c-4.7-2.2-9.8-3.5-15.2-4l0.1-0.5c0.1-0.3,0.1-0.7,0.1-1.2c0-0.5,0-1.1,0-1.7
					c0-0.6-0.2-1.3-0.4-1.9c-0.2-0.7-0.5-1.3-0.8-1.9c-0.3-0.6-0.8-1.2-1.4-1.7c-0.6-0.5-1.3-1-2.1-1.4c-0.8-0.4-1.8-0.7-3-0.9
					c-1.2-0.2-2.5-0.3-3.9-0.3C131.6,525.1,131.3,526,131.3,526.9z"/>
			</g>
		</g>
	</g>
</g>
<g>
	<g>
		<path class="st4" d="M-93.6,495.5c1.4,9.9-1.2,19.7-7.2,27.7c-6,8-14.7,13.1-24.6,14.5c-9.9,1.4-19.7-1.2-27.7-7.2
			c-8-6-13.1-14.7-14.5-24.6c-1.4-9.9,1.2-19.7,7.2-27.7c6-8,14.7-13.1,24.6-14.5c9.9-1.4,19.7,1.2,27.7,7.2
			C-100.1,476.9-95,485.6-93.6,495.5z"/>
		<path class="st5" d="M-178.8,497.4c-1.4,0.2-2.3,1.5-2.1,2.8c0,0.3,0.1,0.5,0.2,0.7l0,0c0.1,0.2,1.1,2.3,3.2,4.2
			c2.9,2.7,6.5,3.8,10.3,3.2l-0.8-4.9c-5.4,0.9-8.2-4.4-8.3-4.7l0,0C-176.6,497.8-177.7,497.3-178.8,497.4z"/>
		<path class="st6" d="M-170,506.2c3.1,21.8,23.2,36.9,45,33.9c21.8-3.1,37-23.2,33.9-45c-3.1-21.8-23.2-37-45-33.9
			C-157.9,464.3-173,484.5-170,506.2z M-97.6,489.3c0.1,0.1,0.1,0.3,0.2,0.4c-14.2,2.7-20.9,1.2-24.3-0.9c-0.8-0.5-4.9-3.2-9.3-2.7
			c-2,0.2-3.7,1-3.7,1c-1.8,0.8-2.6,1.8-4,2.8c0,0-2.3,1.8-5.8,3.1c-4.9,1.8-7.2-0.4-11.8,0.4c-2.3,0.4-5.6,1.8-9,5.8
			c0-0.2,0-0.3,0-0.5c-0.1-1.3-0.1-4.3,1.8-6.9c2.6-3.5,7-4,8.3-4.1c4.9-0.6,6.9,1.7,10.6,0.1c1.6-0.7,2.9-1.8,3.4-2.2
			c2.5-2.2,2.5-3.4,4.1-4.4c0.5-0.3,1.8-0.9,7.3,0c3.3,0.6,5.7,1.3,8.5,2.1c6,1.8,9,2.7,9.3,2.7c6.7,0.8,10.6-2.2,13.1,0.1
			C-98,487.1-97.7,488.4-97.6,489.3z M-95.8,502.6c-0.3,5.3-2.1,7.8-3.6,9c-1.7,1.3-2.9,1.1-7,2.7c-5.1,1.9-4.6,2.8-7.7,3.7
			c-5.9,1.8-7.5-1.5-13.5,0.3c-3.8,1.1-4.3,2.8-7.7,2.8c-3.1,0-3.2-1.4-6.9-1.9c-5.6-0.8-8,2.1-10.8,0.2c-1.5-1-1.4-2.3-3.3-3
			c-1.8-0.6-2.9,0.3-4.4-0.3c-0.9-0.4-2-1.4-2.8-4.1c0-0.1-0.1-0.1-0.1-0.2c0-0.1-0.1-0.1-0.1-0.2c1.4-1.3,3.4-2.7,5.6-2.5
			c3.2,0.3,4,3.7,7.5,4.6c3.1,0.8,4.2-2.6,8-2.1c2.5,0.3,2.3,1.6,4.7,1.8c2.3,0.2,6.1-1.6,8.9-2.9c1.9-0.9,2.9-1.3,3.3-1.4
			c2.7-0.3,3.7,1.8,6.4,1.4c1.3-0.2,1.8-0.7,3.1-0.6c1.3,0.2,1.8,0.8,2.6,1.1c2.5,1,5.5-2.5,9.7-5.2
			C-102.1,504.8-99.4,503.5-95.8,502.6z M-112.7,530.6c-1.3,1.1-1.8,2-3.2,2.4c-1.1,0.3-1.8,0-3.5-0.3c-1.8-0.3-3.6-0.6-5.3-0.3
			c-3.1,0.5-3.6,2.3-7.4,2.8c-0.9,0.1-1.7,0.1-2.1,0.1c-2-0.1-3.6-0.5-5.5-1c-4.4-1.2-8.4-3.1-12-5.9c-2.8-2.1-5.3-4.6-7.3-7.4
			c0.7,0.4,1.7,0.9,3,1.6c0.2,0.1,2.5,1.2,3.6,1.7c3.8,1.6,5.7-0.3,10,0.7c3.4,0.8,2.9,2.1,5.6,2.7c4.8,1,6.3-3,13.2-4.2
			c6-1.1,7.8,1.4,11.7-0.9c2.5-1.4,2.2-2.7,5.5-4.5c2.1-1.1,3.7-1.4,6-3.2c1.1-0.9,2-1.7,2.5-2.3c-0.5,2.5-1.6,6.2-4.1,9.8
			c-1.6,2.3-2.9,4.2-5.4,5.5C-109.5,529.1-110.6,528.9-112.7,530.6z M-96,496.6c-4.4,1.5-7.5,3.3-9.6,4.7c-2.8,1.9-4.3,3.5-6.8,3.4
			c-1.9-0.1-3-1.2-5-0.6c-1.7,0.5-1.8,1.4-3.2,1.6c-2.9,0.5-4.3-3-6.5-2.4c-1.5,0.4-1.2,2.1-3.5,3.8c-0.4,0.3-2.3,1.8-4.9,1.8
			c-3.7,0-4.7-3.1-7.7-2.6c-2.5,0.4-3.1,2.7-5.5,2.5c-1.4-0.1-2.4-0.9-2.9-1.3c-1.9-1.4-5.5-2.6-13.3-1.2c0-0.2-0.1-0.5-0.1-0.7
			c0-0.3-0.1-0.5-0.1-0.8c2.2-2.7,5.7-5.9,10.5-6.6c2.7-0.4,3,0.4,7.2,0.4c3.4,0,8.8-0.1,13.7-3.1c3.1-2,3.8-3.8,5.9-3.6
			c1.9,0.1,2,1.6,5.7,3.2c0.7,0.3,2.4,0.8,5.8,1.8c3.3,1,3.6,1,4,1c2,0.1,3.5-0.7,6.3-2.3c7.1-3.9,8.3-4.6,9.2-4.1
			C-96.2,491.8-95.5,493-96,496.6z M-109.6,472.9c2.8,2.1,5.3,4.6,7.3,7.4c2.6,2.9,3,3.7,2.9,3.8c-0.3,0.3-2.6-2.7-6.9-4.1
			c-2.8-1-3.7-0.3-7.8-1c-3.5-0.6-4.3-1.3-8.2-2.5c-4.3-1.3-7.9-2.3-11.6-2c-6.2,0.5-5.2,4.2-13.8,7c-4.9,1.6-8.7,1.5-13.1,5
			c-1.1,0.9-2,1.8-2.5,2.3c1.2-3.3,2.8-6.3,5-9.1c2.2-2.9,3.3-4.4,4.9-5.3c2.7-1.5,3.8-0.5,6.3-2.2c2.1-1.4,1.7-2.4,3.7-3.9
			c1.8-1.4,3.9-1.5,8.1-2.1c4.7-0.7,9.3-0.4,13.8,0.8C-117.2,468.2-113.2,470.2-109.6,472.9z"/>
	</g>
	<g>
		<g>
			<g>
				<path class="st7" d="M-108.8,446.2c-3,1.2-5.6,2.6-7.8,4.2c-2.3,1.6-4,3.3-5.3,5c-1.3,1.7-2.3,3.6-3.1,5.6c-0.8,2-1.2,4-1.3,5.9
					c-0.1,2-0.1,3.9,0.1,5.8c0.2,1.9,0.5,3.7,1,5.4c0.5,1.7,1,3.2,1.5,4.5c0.5,1.3,0.9,2.3,1.3,3l0.6,1.1
					c-10.7,6.2-19.9,14.1-27.6,24.2c-8.3,10.9-14.1,23.5-16.8,38.2c-0.3,1.4-0.1,2.6,0.5,3.5c0.6,0.9,1.4,1.3,2.5,1.2
					c1.1-0.1,2.1-0.7,3-1.7c0.9-1,1.4-2.3,1.7-3.7c2-12.2,6.6-23,13.3-32.5c6.3-8.9,14-16.1,23.1-22c-0.7,1.8-1.4,3.7-1.9,5.6
					c-0.5,1.9-1,4.1-1.3,6.7c-0.4,2.6-0.4,5.2-0.3,7.7c0.2,2.5,0.7,5.3,1.7,8.1c1,2.9,2.4,5.7,4.2,8.3c1.9,2.7,4.5,5.3,7.8,7.8
					c3.4,2.6,7.4,4.9,12,6.8c2.3-8.2,3.5-15.4,3.7-21.8c0.2-6.1-0.2-10.9-1.2-14.7c-1-3.6-2.5-6.8-4.4-9.7c-1.9-2.8-3.7-4.8-5.4-6.3
					c-1.7-1.4-3.6-2.6-5.5-3.7c5.8-2.9,12.2-5.2,19.1-6.8c0,0.3,0,0.7-0.1,1.2c0,0.5,0,1.6,0,3.2c0.1,1.7,0.2,3.3,0.4,5
					c0.2,1.7,0.5,3.7,1.1,6c0.6,2.4,1.3,4.7,2.1,6.8c0.9,2.2,2.1,4.4,3.6,6.7c1.6,2.3,3.4,4.4,5.4,6.1c2,1.8,4.6,3.2,7.7,4.3
					c3.1,1.1,6.4,1.8,10,1.8c0.7-4.4,0.9-8.4,0.7-12.1c-0.2-3.6-0.8-6.6-1.7-9.2c-0.9-2.5-2-4.8-3.3-6.9c-1.3-2.1-2.7-3.8-4.2-5.1
					c-1.5-1.4-3.1-2.6-4.6-3.7c-1.5-1.1-3-1.9-4.5-2.6c-1.5-0.7-2.7-1.2-3.8-1.6c-1.1-0.4-2-0.7-2.7-0.9l-1.1-0.2
					c5.2-0.9,9.3-1.5,12.4-1.7c0.3,0.3,0.7,0.8,1.2,1.4c0.5,0.6,1.6,1.6,3.4,3.1c1.8,1.5,3.6,2.9,5.4,4.1c1.9,1.2,4.2,2.3,6.9,3.4
					c2.8,1.1,5.5,1.7,8.1,1.9c2.6,0.2,5.4-0.4,8.3-1.5c2.9-1.1,5.4-3,7.7-5.6c-2.1-3.3-4.3-6-6.5-8.3c-2.2-2.2-4.3-3.9-6.3-5
					c-2-1.1-4-2-6-2.6c-2-0.6-3.9-0.9-5.7-0.9c-1.8,0-3.5,0.1-5.2,0.4c-1.7,0.2-3.2,0.6-4.5,1.1c-1.4,0.5-2.6,1-3.6,1.4
					c-1.1,0.4-1.9,0.9-2.4,1.2l-0.9,0.5c-0.2,0-1.3,0-3.2,0.2c-1.9,0.1-3.4,0.3-4.5,0.4c0.3-0.1,0.6-0.4,1.1-0.7
					c0.4-0.3,1.3-1,2.4-2.1c1.2-1,2.2-2.1,3.1-3.3c0.9-1.1,1.8-2.6,2.7-4.4c0.9-1.7,1.5-3.5,1.8-5.3c0.3-1.8,0.2-3.8-0.2-6
					c-0.4-2.2-1.3-4.4-2.5-6.5c-2.8,0.2-5.4,0.7-7.6,1.5c-2.3,0.8-4.1,1.7-5.5,2.8c-1.4,1.1-2.7,2.4-3.7,3.8c-1.1,1.4-1.8,3-2.3,4.5
					c-0.5,1.6-0.9,3.2-1.1,4.8c-0.3,1.6-0.4,3.2-0.3,4.7c0.1,1.5,0.2,2.9,0.3,4.1c0.1,1.2,0.3,2.2,0.5,2.9l0.3,1.1
					c-6.2,1.4-12.2,3.4-18.1,6.1c0.3-0.3,0.7-0.7,1.2-1.3c0.5-0.6,1.4-1.7,2.7-3.4c1.3-1.7,2.3-3.4,3.3-5.1c0.9-1.7,1.8-3.8,2.5-6.2
					c0.7-2.4,1-4.6,1-6.8c0-2.1-0.6-4.4-1.6-6.8C-105.3,450.4-106.8,448.2-108.8,446.2z"/>
			</g>
		</g>
		<g>
			<g>
				<path class="st7" d="M-183.5,501.1c-0.5,1.3-0.8,2.4-0.8,3.5c0,1.1,0.2,2.3,0.5,3.5c0.4,1.2,0.8,2.3,1.3,3.2
					c0.5,0.9,1.1,1.8,1.7,2.7c0.7,0.9,1.1,1.5,1.4,1.8c0.3,0.3,0.5,0.5,0.6,0.7c-3.1-1.4-6.2-2.4-9.4-3.1l0.1-0.6
					c0.1-0.4,0.2-0.9,0.2-1.5c0.1-0.6,0.1-1.3,0.2-2.1c0-0.8,0-1.6-0.2-2.4c-0.1-0.8-0.3-1.7-0.6-2.5c-0.2-0.8-0.6-1.6-1.2-2.3
					c-0.5-0.7-1.2-1.4-1.9-2c-0.7-0.6-1.7-1.1-2.9-1.5c-1.2-0.4-2.5-0.7-3.9-0.8c-0.6,1.1-1.1,2.2-1.3,3.4c-0.2,1.2-0.3,2.2-0.1,3.1
					c0.2,0.9,0.5,1.8,0.9,2.7c0.5,0.9,0.9,1.7,1.4,2.3c0.5,0.6,1,1.2,1.6,1.7c0.6,0.5,1,0.9,1.3,1.1c0.2,0.2,0.4,0.3,0.6,0.4
					c-0.6-0.1-1.3-0.1-2.3-0.2c-1-0.1-1.5-0.1-1.6-0.1l-0.4-0.3c-0.3-0.2-0.7-0.4-1.3-0.6c-0.5-0.2-1.2-0.5-1.9-0.7
					c-0.7-0.3-1.5-0.4-2.3-0.6c-0.9-0.1-1.8-0.2-2.7-0.2c-0.9,0-1.9,0.1-2.9,0.5c-1,0.3-2.1,0.8-3.1,1.3c-1,0.6-2.1,1.4-3.2,2.6
					c-1.2,1.2-2.3,2.6-3.4,4.3c1.2,1.3,2.5,2.3,4,2.9c1.5,0.6,2.9,0.9,4.3,0.8c1.3-0.1,2.7-0.4,4.2-1c1.4-0.6,2.6-1.1,3.6-1.8
					c1-0.6,1.9-1.3,2.8-2.1c0.9-0.8,1.5-1.3,1.7-1.6c0.3-0.3,0.5-0.5,0.6-0.7c1.6,0.1,3.7,0.4,6.4,0.9l-0.5,0.1
					c-0.3,0.1-0.8,0.2-1.4,0.5c-0.6,0.2-1.2,0.5-2,0.8c-0.8,0.3-1.5,0.8-2.3,1.3c-0.8,0.6-1.6,1.2-2.4,1.9c-0.8,0.7-1.5,1.6-2.2,2.7
					c-0.7,1.1-1.2,2.3-1.7,3.6c-0.5,1.3-0.8,2.9-0.9,4.8c-0.1,1.9,0,4,0.4,6.2c1.9,0,3.6-0.4,5.2-0.9c1.6-0.6,2.9-1.3,4-2.2
					c1-0.9,2-2,2.8-3.2c0.8-1.2,1.4-2.3,1.9-3.5c0.4-1.1,0.8-2.3,1.1-3.5c0.3-1.2,0.5-2.3,0.6-3.1c0.1-0.8,0.2-1.7,0.2-2.6
					c0-0.8,0-1.4,0-1.7c0-0.3,0-0.5,0-0.6c3.6,0.9,6.9,2,9.9,3.5c-1,0.5-2,1.2-2.9,1.9c-0.9,0.7-1.8,1.8-2.8,3.2
					c-1,1.5-1.8,3.1-2.3,5c-0.5,1.9-0.8,4.4-0.6,7.6c0.1,3.3,0.7,7,1.9,11.3c2.4-1,4.5-2.2,6.2-3.5c1.7-1.3,3.1-2.7,4-4
					c0.9-1.3,1.7-2.8,2.2-4.3c0.5-1.5,0.8-2.9,0.9-4.2c0.1-1.3,0-2.6-0.1-4c-0.2-1.3-0.4-2.5-0.7-3.5c-0.3-1-0.6-1.9-1-2.9
					c4.7,3,8.7,6.7,11.9,11.3c3.5,4.9,5.8,10.5,6.9,16.8c0.1,0.7,0.4,1.4,0.9,1.9c0.5,0.5,1,0.8,1.5,0.9c0.6,0.1,1-0.2,1.3-0.6
					c0.3-0.5,0.4-1.1,0.2-1.8c-1.4-7.6-4.4-14.1-8.7-19.7c-4-5.2-8.7-9.3-14.3-12.5l0.3-0.6c0.2-0.4,0.4-0.9,0.7-1.6
					c0.2-0.7,0.5-1.4,0.8-2.3c0.3-0.9,0.4-1.8,0.5-2.8c0.1-1,0.1-2,0-3c0-1-0.3-2-0.7-3c-0.4-1-0.9-2-1.6-2.9
					c-0.7-0.9-1.6-1.8-2.7-2.6c-1.1-0.8-2.5-1.6-4-2.2C-182.2,498.8-183,499.9-183.5,501.1z"/>
			</g>
		</g>
		<g>
			<g>
				<path class="st8" d="M-89.3,497.3c-2.8,0-5.3,0.1-7.6,0.5c-2.3,0.4-4.2,1-5.8,1.7c-1.6,0.8-2.9,1.6-4.1,2.7
					c-1.2,1.1-2.1,2.2-2.8,3.4c-0.6,1.2-1.2,2.5-1.6,3.7c-0.4,1.3-0.7,2.5-0.7,3.7c-0.1,1.2-0.1,2.3-0.1,3.3c0,1,0.1,1.7,0.2,2.3
					l0.2,0.9c-10.5,1-20.3,3.5-29.4,7.8c-9.9,4.6-18.2,11.1-24.7,19.7c-0.6,0.8-0.8,1.6-0.6,2.3c0.2,0.7,0.8,1.2,1.7,1.5
					c0.9,0.2,1.9,0.1,2.9-0.3c1-0.4,1.8-1,2.4-1.9c5.2-7.2,12-12.8,20.2-17c7.7-3.9,16.1-6.4,25.1-7.6c-1.1,1-2.2,2-3.2,3
					c-1,1.1-2,2.4-3,3.9c-1,1.6-1.9,3.2-2.4,4.8c-0.6,1.7-0.9,3.5-1,5.6c-0.1,2.1,0.3,4.3,1,6.5c0.7,2.2,2.1,4.6,4.1,7.1
					c2,2.6,4.6,5.1,7.8,7.7c4.2-4.6,7.3-8.9,9.3-12.9c1.9-3.8,3-7,3.2-9.7c0.2-2.6,0-5-0.8-7.4c-0.7-2.3-1.6-4.1-2.6-5.5
					c-1-1.4-2.2-2.7-3.5-3.9c5.6-0.2,11.4,0.1,17.5,0.9c-0.1,0.2-0.3,0.4-0.4,0.8c-0.2,0.3-0.5,1-0.9,2.1c-0.4,1.1-0.8,2.2-1.1,3.3
					c-0.3,1.1-0.6,2.5-0.9,4.1c-0.2,1.7-0.3,3.3-0.3,4.9c0.1,1.6,0.4,3.4,1,5.3c0.6,1.9,1.5,3.7,2.6,5.4c1.2,1.7,2.8,3.3,5,4.9
					c2.2,1.6,4.7,2.9,7.6,3.9c1.8-2.6,3.2-5.1,4-7.5c0.9-2.3,1.3-4.4,1.3-6.3c0-1.9-0.2-3.6-0.7-5.3c-0.4-1.7-1.1-3.1-2-4.4
					c-0.9-1.3-1.8-2.5-2.7-3.6c-0.9-1.1-1.9-2.1-2.9-2.9c-1-0.8-1.9-1.5-2.7-2.1c-0.8-0.6-1.4-1-1.9-1.3L-83,525
					c4.5,0.9,8,1.7,10.6,2.4c0.2,0.3,0.4,0.7,0.6,1.2c0.3,0.5,0.9,1.5,1.9,2.9c1,1.5,2.1,2.8,3.2,4.1c1.2,1.3,2.7,2.6,4.6,4.1
					c1.9,1.5,3.9,2.6,6,3.4c2.1,0.8,4.5,1.3,7.2,1.3c2.7,0.1,5.3-0.4,7.9-1.5c-0.8-2.7-1.7-5-2.9-7.1c-1.1-2-2.4-3.7-3.6-4.9
					c-1.3-1.3-2.6-2.4-4.1-3.3c-1.5-0.9-2.9-1.6-4.4-2.1c-1.5-0.5-2.9-0.9-4.3-1.2c-1.4-0.3-2.8-0.5-4-0.6c-1.3-0.1-2.4-0.1-3.4-0.1
					c-1,0-1.8,0-2.3,0.1l-0.9,0.1c-0.2-0.1-1-0.3-2.6-0.8c-1.6-0.4-2.8-0.8-3.7-1c0.3,0,0.6-0.1,1.1-0.1c0.5-0.1,1.3-0.3,2.6-0.6
					c1.3-0.3,2.4-0.8,3.5-1.2c1.1-0.5,2.2-1.2,3.5-2c1.2-0.9,2.2-1.8,3-2.9c0.8-1,1.3-2.3,1.6-3.9c0.3-1.5,0.2-3.1-0.1-4.8
					c-2.4-0.6-4.6-1-6.6-1.2c-2.1-0.1-3.8,0-5.3,0.3c-1.5,0.3-2.9,0.8-4.1,1.4c-1.3,0.6-2.3,1.4-3.2,2.2c-0.9,0.9-1.6,1.8-2.3,2.8
					c-0.7,1-1.2,1.9-1.6,2.9c-0.4,1-0.7,1.9-0.9,2.7c-0.2,0.8-0.4,1.5-0.5,2l-0.1,0.8c-5.5-0.8-10.9-1.2-16.5-1.2
					c0.3-0.1,0.8-0.3,1.4-0.5c0.6-0.2,1.6-0.7,3.2-1.5c1.5-0.7,2.9-1.5,4.2-2.4c1.2-0.8,2.5-1.9,3.8-3.2c1.2-1.3,2.2-2.6,2.8-4
					c0.6-1.4,0.8-2.9,0.7-4.8C-87.7,501-88.2,499.1-89.3,497.3z"/>
			</g>
		</g>
		<g>
			<g>
				<path class="st8" d="M-192.1,526.9c-0.1,0.9,0.1,1.8,0.4,2.5c0.3,0.7,0.8,1.4,1.4,2.1c0.7,0.7,1.3,1.2,2,1.7
					c0.7,0.4,1.4,0.8,2.1,1.2c0.8,0.4,1.3,0.6,1.6,0.8c0.3,0.1,0.5,0.2,0.7,0.3c-2.9,0-5.7,0.2-8.5,0.6l-0.1-0.4
					c0-0.3-0.1-0.6-0.2-1c-0.1-0.4-0.3-0.9-0.5-1.4c-0.2-0.5-0.5-1-0.8-1.5c-0.3-0.5-0.7-1-1.2-1.4c-0.4-0.5-1-0.8-1.6-1.2
					c-0.7-0.3-1.4-0.6-2.1-0.7c-0.8-0.2-1.7-0.2-2.8-0.1c-1.1,0.1-2.2,0.3-3.4,0.6c-0.2,0.9-0.2,1.7-0.1,2.5c0.2,0.8,0.4,1.5,0.8,2
					c0.4,0.5,0.9,1,1.5,1.5c0.6,0.5,1.2,0.8,1.8,1.1c0.6,0.2,1.2,0.5,1.8,0.6c0.7,0.2,1.1,0.3,1.3,0.3c0.2,0,0.4,0.1,0.6,0.1
					c-0.5,0.1-1.1,0.3-1.9,0.5c-0.8,0.2-1.3,0.4-1.4,0.4l-0.4,0c-0.3,0-0.7-0.1-1.2-0.1c-0.5,0-1.1,0-1.7,0.1
					c-0.6,0-1.3,0.1-2.1,0.3c-0.7,0.2-1.5,0.4-2.2,0.6c-0.8,0.3-1.5,0.6-2.3,1.1c-0.8,0.5-1.5,1.1-2.1,1.7c-0.7,0.7-1.3,1.5-1.9,2.5
					c-0.6,1.1-1.1,2.3-1.5,3.7c1.3,0.5,2.7,0.8,4.1,0.8c1.4,0,2.6-0.3,3.7-0.7c1.1-0.4,2.1-1,3.1-1.8c1-0.7,1.8-1.4,2.4-2.1
					c0.6-0.7,1.2-1.4,1.7-2.1c0.5-0.7,0.8-1.2,1-1.5c0.1-0.3,0.2-0.5,0.3-0.6c1.3-0.4,3.2-0.8,5.5-1.2l-0.4,0.2
					c-0.3,0.2-0.6,0.4-1,0.7c-0.4,0.3-0.9,0.7-1.4,1.1c-0.5,0.4-1,0.9-1.5,1.5c-0.5,0.6-1,1.2-1.4,1.9c-0.4,0.7-0.8,1.4-1,2.3
					c-0.2,0.9-0.4,1.8-0.3,2.7c0,1,0.2,2.1,0.7,3.3c0.5,1.2,1.1,2.5,2.1,3.9c1.5-0.5,2.8-1.2,3.9-2c1.1-0.8,2-1.6,2.6-2.5
					c0.6-0.9,1-1.8,1.4-2.8c0.3-1,0.5-1.9,0.5-2.7c0-0.8,0-1.7-0.1-2.5c-0.1-0.9-0.3-1.6-0.4-2.1c-0.2-0.6-0.4-1.1-0.6-1.7
					c-0.2-0.6-0.4-0.9-0.5-1.1c-0.1-0.2-0.2-0.3-0.2-0.4c3.1-0.4,6.2-0.6,9-0.5c-0.7,0.6-1.3,1.3-1.8,2c-0.5,0.7-1,1.7-1.4,2.8
					c-0.4,1.2-0.5,2.5-0.4,3.8c0.1,1.4,0.7,3,1.7,5c1,2.1,2.6,4.3,4.8,6.6c1.6-1.3,3-2.6,4-4c1-1.3,1.7-2.5,2.1-3.7
					c0.4-1.1,0.6-2.2,0.5-3.3c0-1.1-0.2-2.1-0.5-2.9c-0.3-0.8-0.7-1.7-1.3-2.5c-0.5-0.8-1-1.5-1.5-2c-0.5-0.5-1-1.1-1.6-1.6
					c4.7,0.6,9,1.9,13,3.9c4.3,2.2,7.8,5.1,10.4,8.8c0.3,0.4,0.7,0.8,1.2,1c0.5,0.2,1,0.3,1.5,0.1c0.5-0.1,0.8-0.4,0.9-0.8
					c0.1-0.4,0-0.8-0.3-1.2c-3.4-4.4-7.6-7.8-12.8-10.1c-4.7-2.2-9.8-3.5-15.2-4l0.1-0.5c0.1-0.3,0.1-0.7,0.1-1.2c0-0.5,0-1.1,0-1.7
					c0-0.6-0.2-1.3-0.4-1.9c-0.2-0.7-0.5-1.3-0.8-1.9c-0.3-0.6-0.8-1.2-1.4-1.7c-0.6-0.5-1.3-1-2.1-1.4c-0.8-0.4-1.8-0.7-3-0.9
					c-1.2-0.2-2.5-0.3-3.9-0.3C-191.8,525.1-192.1,526-192.1,526.9z"/>
			</g>
		</g>
	</g>
</g>
<g>
	<g>
		<path class="st4" d="M69.5,401.1c1.4,9.9-1.2,19.7-7.2,27.7c-6,8-14.7,13.1-24.6,14.5c-9.9,1.4-19.7-1.2-27.7-7.2
			c-8-6-13.1-14.7-14.5-24.6c-1.4-9.9,1.2-19.7,7.2-27.7c6-8,14.7-13.1,24.6-14.5c9.9-1.4,19.7,1.2,27.7,7.2
			C63,382.5,68.2,391.2,69.5,401.1z"/>
		<path class="st5" d="M-15.6,403c-1.4,0.2-2.3,1.5-2.1,2.8c0,0.3,0.1,0.5,0.2,0.7l0,0c0.1,0.2,1.1,2.3,3.2,4.2
			c2.9,2.7,6.5,3.8,10.3,3.2l-0.8-4.9c-5.4,0.9-8.2-4.4-8.3-4.7l0,0C-13.5,403.4-14.5,402.8-15.6,403z"/>
		<path class="st6" d="M-6.9,411.8c3.1,21.8,23.2,36.9,45,33.9c21.8-3.1,37-23.2,33.9-45c-3.1-21.8-23.2-37-45-33.9
			C5.3,369.9-9.9,390-6.9,411.8z M65.5,394.9c0.1,0.1,0.1,0.3,0.2,0.4c-14.2,2.7-20.9,1.2-24.3-0.9c-0.8-0.5-4.9-3.2-9.3-2.7
			c-2,0.2-3.7,1-3.7,1c-1.8,0.8-2.6,1.8-4,2.8c0,0-2.3,1.8-5.8,3.1c-4.9,1.8-7.2-0.4-11.8,0.4c-2.3,0.4-5.6,1.8-9,5.8
			c0-0.2,0-0.3,0-0.5c-0.1-1.3-0.1-4.3,1.8-6.9c2.6-3.5,7-4,8.3-4.1c4.9-0.6,6.9,1.7,10.6,0.1c1.6-0.7,2.9-1.8,3.4-2.2
			c2.5-2.2,2.5-3.4,4.1-4.4c0.5-0.3,1.8-0.9,7.3,0c3.3,0.6,5.7,1.3,8.5,2.1c6,1.8,9,2.7,9.3,2.7c6.7,0.8,10.6-2.2,13.1,0.1
			C65.2,392.7,65.4,394,65.5,394.9z M67.4,408.1c-0.3,5.3-2.1,7.8-3.6,9c-1.7,1.3-2.9,1.1-7,2.7c-5.1,1.9-4.6,2.8-7.7,3.7
			c-5.9,1.8-7.5-1.5-13.5,0.3c-3.8,1.1-4.3,2.8-7.7,2.8c-3.1,0-3.2-1.4-6.9-1.9c-5.6-0.8-8,2.1-10.8,0.2c-1.5-1-1.4-2.3-3.3-3
			c-1.8-0.6-2.9,0.3-4.4-0.3c-0.9-0.4-2-1.4-2.8-4.1c0-0.1-0.1-0.1-0.1-0.2c0-0.1-0.1-0.1-0.1-0.2c1.4-1.3,3.4-2.7,5.6-2.5
			c3.2,0.3,4,3.7,7.5,4.6c3.1,0.8,4.2-2.6,8-2.1c2.5,0.3,2.3,1.6,4.7,1.8c2.3,0.2,6.1-1.6,8.9-2.9c1.9-0.9,2.9-1.3,3.3-1.4
			c2.7-0.3,3.7,1.8,6.4,1.4c1.3-0.2,1.8-0.7,3.1-0.6c1.3,0.2,1.8,0.8,2.6,1.1c2.5,1,5.5-2.5,9.7-5.2C61.1,410.4,63.7,409,67.4,408.1
			z M50.5,436.2c-1.3,1.1-1.8,2-3.2,2.4c-1.1,0.3-1.8,0-3.5-0.3c-1.8-0.3-3.6-0.6-5.3-0.3c-3.1,0.5-3.6,2.3-7.4,2.8
			c-0.9,0.1-1.7,0.1-2.1,0.1c-2-0.1-3.6-0.5-5.5-1c-4.4-1.2-8.4-3.1-12-5.9c-2.8-2.1-5.3-4.6-7.3-7.4c0.7,0.4,1.7,0.9,3,1.6
			c0.2,0.1,2.5,1.2,3.6,1.7c3.8,1.6,5.7-0.3,10,0.7c3.4,0.8,2.9,2.1,5.6,2.7c4.8,1,6.3-3,13.2-4.2c6-1.1,7.8,1.4,11.7-0.9
			c2.5-1.4,2.2-2.7,5.5-4.5c2.1-1.1,3.7-1.4,6-3.2c1.1-0.9,2-1.7,2.5-2.3c-0.5,2.5-1.6,6.2-4.1,9.8c-1.6,2.3-2.9,4.2-5.4,5.5
			C53.6,434.7,52.5,434.4,50.5,436.2z M67.2,402.2c-4.4,1.5-7.5,3.3-9.6,4.7c-2.8,1.9-4.3,3.5-6.8,3.4c-1.9-0.1-3-1.2-5-0.6
			c-1.7,0.5-1.8,1.4-3.2,1.6c-2.9,0.5-4.3-3-6.5-2.4c-1.5,0.4-1.2,2.1-3.5,3.8c-0.4,0.3-2.3,1.8-4.9,1.8c-3.7,0-4.7-3.1-7.7-2.6
			c-2.5,0.4-3.1,2.7-5.5,2.5c-1.4-0.1-2.4-0.9-2.9-1.3c-1.9-1.4-5.5-2.6-13.3-1.2c0-0.2-0.1-0.5-0.1-0.7c0-0.3-0.1-0.5-0.1-0.8
			c2.2-2.7,5.7-5.9,10.5-6.6c2.7-0.4,3,0.4,7.2,0.4c3.4,0,8.8-0.1,13.7-3.1c3.1-2,3.8-3.8,5.9-3.6c1.9,0.1,2,1.6,5.7,3.2
			c0.7,0.3,2.4,0.8,5.8,1.8c3.3,1,3.6,1,4,1c2,0.1,3.5-0.7,6.3-2.3c7.1-3.9,8.3-4.6,9.2-4.1C67,397.4,67.6,398.5,67.2,402.2z
			 M53.5,378.4c2.8,2.1,5.3,4.6,7.3,7.4c2.6,2.9,3,3.7,2.9,3.8c-0.3,0.3-2.6-2.7-6.9-4.1c-2.8-1-3.7-0.3-7.8-1
			c-3.5-0.6-4.3-1.3-8.2-2.5c-4.3-1.3-7.9-2.3-11.6-2c-6.2,0.5-5.2,4.2-13.8,7c-4.9,1.6-8.7,1.5-13.1,5c-1.1,0.9-2,1.8-2.5,2.3
			c1.2-3.3,2.8-6.3,5-9.1c2.2-2.9,3.3-4.4,4.9-5.3c2.7-1.5,3.8-0.5,6.3-2.2c2.1-1.4,1.7-2.4,3.7-3.9c1.8-1.4,3.9-1.5,8.1-2.1
			c4.7-0.7,9.3-0.4,13.8,0.8C45.9,373.7,49.9,375.7,53.5,378.4z"/>
	</g>
	<g>
		<g>
			<g>
				<path class="st7" d="M54.3,351.7c-3,1.2-5.6,2.6-7.8,4.2c-2.3,1.6-4,3.3-5.3,5c-1.3,1.7-2.3,3.6-3.1,5.6c-0.8,2-1.2,4-1.3,5.9
					c-0.1,2-0.1,3.9,0.1,5.8c0.2,1.9,0.5,3.7,1,5.4c0.5,1.7,1,3.2,1.5,4.5c0.5,1.3,0.9,2.3,1.3,3l0.6,1.1
					c-10.7,6.2-19.9,14.1-27.6,24.2C5.4,427.4-0.3,440-3.1,454.7c-0.3,1.4-0.1,2.6,0.5,3.5c0.6,0.9,1.4,1.3,2.5,1.2
					c1.1-0.1,2.1-0.7,3-1.7c0.9-1,1.4-2.3,1.7-3.7c2-12.2,6.6-23,13.3-32.5c6.3-8.9,14-16.1,23.1-22c-0.7,1.8-1.4,3.7-1.9,5.6
					c-0.5,1.9-1,4.1-1.3,6.7c-0.4,2.6-0.4,5.2-0.3,7.7c0.2,2.5,0.7,5.3,1.7,8.1c1,2.9,2.4,5.7,4.2,8.3c1.9,2.7,4.5,5.3,7.8,7.8
					c3.4,2.6,7.4,4.9,12,6.8c2.3-8.2,3.5-15.4,3.7-21.8c0.2-6.1-0.2-10.9-1.2-14.7c-1-3.6-2.5-6.8-4.4-9.7c-1.9-2.8-3.7-4.8-5.4-6.3
					c-1.7-1.4-3.6-2.6-5.5-3.7c5.8-2.9,12.2-5.2,19.1-6.8c0,0.3,0,0.7-0.1,1.2c0,0.5,0,1.6,0,3.2c0.1,1.7,0.2,3.3,0.4,5
					c0.2,1.7,0.5,3.7,1.1,6c0.6,2.4,1.3,4.7,2.1,6.8c0.9,2.2,2.1,4.4,3.6,6.7c1.6,2.3,3.4,4.4,5.4,6.1c2,1.8,4.6,3.2,7.7,4.3
					c3.1,1.1,6.4,1.8,10,1.8c0.7-4.4,0.9-8.4,0.7-12.1c-0.2-3.6-0.8-6.6-1.7-9.2c-0.9-2.5-2-4.8-3.3-6.9c-1.3-2.1-2.7-3.8-4.2-5.1
					c-1.5-1.4-3.1-2.6-4.6-3.7c-1.5-1.1-3-1.9-4.5-2.6c-1.5-0.7-2.7-1.2-3.8-1.6c-1.1-0.4-2-0.7-2.7-0.9l-1.1-0.2
					c5.2-0.9,9.3-1.5,12.4-1.7c0.3,0.3,0.7,0.8,1.2,1.4c0.5,0.6,1.6,1.6,3.4,3.1c1.8,1.5,3.6,2.9,5.4,4.1c1.9,1.2,4.2,2.3,6.9,3.4
					c2.8,1.1,5.5,1.7,8.1,1.9c2.6,0.2,5.4-0.4,8.3-1.5c2.9-1.1,5.4-3,7.7-5.6c-2.1-3.3-4.3-6-6.5-8.3c-2.2-2.2-4.3-3.9-6.3-5
					c-2-1.1-4-2-6-2.6c-2-0.6-3.9-0.9-5.7-0.9c-1.8,0-3.5,0.1-5.2,0.4c-1.7,0.2-3.2,0.6-4.5,1.1c-1.4,0.5-2.6,1-3.6,1.4
					c-1.1,0.4-1.9,0.9-2.4,1.2l-0.9,0.5c-0.2,0-1.3,0-3.2,0.2c-1.9,0.1-3.4,0.3-4.5,0.4c0.3-0.1,0.6-0.4,1.1-0.7
					c0.4-0.3,1.3-1,2.4-2.1c1.2-1,2.2-2.1,3.1-3.3c0.9-1.1,1.8-2.6,2.7-4.4c0.9-1.7,1.5-3.5,1.8-5.3c0.3-1.8,0.2-3.8-0.2-6
					c-0.4-2.2-1.3-4.4-2.5-6.5c-2.8,0.2-5.4,0.7-7.6,1.5c-2.3,0.8-4.1,1.7-5.5,2.8c-1.4,1.1-2.7,2.4-3.7,3.8c-1.1,1.4-1.8,3-2.3,4.5
					c-0.5,1.6-0.9,3.2-1.1,4.8c-0.3,1.6-0.4,3.2-0.3,4.7c0.1,1.5,0.2,2.9,0.3,4.1c0.1,1.2,0.3,2.2,0.5,2.9l0.3,1.1
					c-6.2,1.4-12.2,3.4-18.1,6.1c0.3-0.3,0.7-0.7,1.2-1.3c0.5-0.6,1.4-1.7,2.7-3.4c1.3-1.7,2.3-3.4,3.3-5.1c0.9-1.7,1.8-3.8,2.5-6.2
					c0.7-2.4,1-4.6,1-6.8c0-2.1-0.6-4.4-1.6-6.8C57.8,356,56.3,353.8,54.3,351.7z"/>
			</g>
		</g>
		<g>
			<g>
				<path class="st7" d="M-20.3,406.7c-0.5,1.3-0.8,2.4-0.8,3.5c0,1.1,0.2,2.3,0.5,3.5c0.4,1.2,0.8,2.3,1.3,3.2
					c0.5,0.9,1.1,1.8,1.7,2.7c0.7,0.9,1.1,1.5,1.4,1.8c0.3,0.3,0.5,0.5,0.6,0.7c-3.1-1.4-6.2-2.4-9.4-3.1l0.1-0.6
					c0.1-0.4,0.2-0.9,0.2-1.5c0.1-0.6,0.1-1.3,0.2-2.1c0-0.8,0-1.6-0.2-2.4c-0.1-0.8-0.3-1.7-0.6-2.5c-0.2-0.8-0.6-1.6-1.2-2.3
					c-0.5-0.7-1.2-1.4-1.9-2c-0.7-0.6-1.7-1.1-2.9-1.5c-1.2-0.4-2.5-0.7-3.9-0.8c-0.6,1.1-1.1,2.2-1.3,3.4c-0.2,1.2-0.3,2.2-0.1,3.1
					c0.2,0.9,0.5,1.8,0.9,2.7c0.5,0.9,0.9,1.7,1.4,2.3c0.5,0.6,1,1.2,1.6,1.7c0.6,0.5,1,0.9,1.3,1.1c0.2,0.2,0.4,0.3,0.6,0.4
					c-0.6-0.1-1.3-0.1-2.3-0.2c-1-0.1-1.5-0.1-1.6-0.1l-0.4-0.3c-0.3-0.2-0.7-0.4-1.3-0.6c-0.5-0.2-1.2-0.5-1.9-0.7
					c-0.7-0.3-1.5-0.4-2.3-0.6c-0.9-0.1-1.8-0.2-2.7-0.2c-0.9,0-1.9,0.1-2.9,0.5c-1,0.3-2.1,0.8-3.1,1.3c-1,0.6-2.1,1.4-3.2,2.6
					c-1.2,1.2-2.3,2.6-3.4,4.3c1.2,1.3,2.5,2.3,4,2.9c1.5,0.6,2.9,0.9,4.3,0.8c1.3-0.1,2.7-0.4,4.2-1c1.4-0.6,2.6-1.1,3.6-1.8
					c1-0.6,1.9-1.3,2.8-2.1c0.9-0.8,1.5-1.3,1.7-1.6c0.3-0.3,0.5-0.5,0.6-0.7c1.6,0.1,3.7,0.4,6.4,0.9l-0.5,0.1
					c-0.3,0.1-0.8,0.2-1.4,0.5c-0.6,0.2-1.2,0.5-2,0.8c-0.8,0.3-1.5,0.8-2.3,1.3c-0.8,0.6-1.6,1.2-2.4,1.9c-0.8,0.7-1.5,1.6-2.2,2.7
					c-0.7,1.1-1.2,2.3-1.7,3.6c-0.5,1.3-0.8,2.9-0.9,4.8c-0.1,1.9,0,4,0.4,6.2c1.9,0,3.6-0.4,5.2-0.9c1.6-0.6,2.9-1.3,4-2.2
					c1-0.9,2-2,2.8-3.2c0.8-1.2,1.4-2.3,1.9-3.5c0.4-1.1,0.8-2.3,1.1-3.5c0.3-1.2,0.5-2.3,0.6-3.1c0.1-0.8,0.2-1.7,0.2-2.6
					c0-0.8,0-1.4,0-1.7c0-0.3,0-0.5,0-0.6c3.6,0.9,6.9,2,9.9,3.5c-1,0.5-2,1.2-2.9,1.9c-0.9,0.7-1.8,1.8-2.8,3.2
					c-1,1.5-1.8,3.1-2.3,5c-0.5,1.9-0.8,4.4-0.6,7.6c0.1,3.3,0.7,7,1.9,11.3c2.4-1,4.5-2.2,6.2-3.5c1.7-1.3,3.1-2.7,4-4
					c0.9-1.3,1.7-2.8,2.2-4.3c0.5-1.5,0.8-2.9,0.9-4.2c0.1-1.3,0-2.6-0.1-4c-0.2-1.3-0.4-2.5-0.7-3.5c-0.3-1-0.6-1.9-1-2.9
					c4.7,3,8.7,6.7,11.9,11.3c3.5,4.9,5.8,10.5,6.9,16.8c0.1,0.7,0.4,1.4,0.9,1.9c0.5,0.5,1,0.8,1.5,0.9c0.6,0.1,1-0.2,1.3-0.6
					c0.3-0.5,0.4-1.1,0.2-1.8c-1.4-7.6-4.4-14.1-8.7-19.7c-4-5.2-8.7-9.3-14.3-12.5l0.3-0.6c0.2-0.4,0.4-0.9,0.7-1.6
					c0.2-0.7,0.5-1.4,0.8-2.3c0.3-0.9,0.4-1.8,0.5-2.8c0.1-1,0.1-2,0-3c0-1-0.3-2-0.7-3c-0.4-1-0.9-2-1.6-2.9
					c-0.7-0.9-1.6-1.8-2.7-2.6c-1.1-0.8-2.5-1.6-4-2.2C-19.1,404.3-19.8,405.4-20.3,406.7z"/>
			</g>
		</g>
		<g>
			<g>
				<path class="st8" d="M73.9,402.8c-2.8,0-5.3,0.1-7.6,0.5c-2.3,0.4-4.2,1-5.8,1.7c-1.6,0.8-2.9,1.6-4.1,2.7
					c-1.2,1.1-2.1,2.2-2.8,3.4c-0.6,1.2-1.2,2.5-1.6,3.7c-0.4,1.3-0.7,2.5-0.7,3.7c-0.1,1.2-0.1,2.3-0.1,3.3c0,1,0.1,1.7,0.2,2.3
					l0.2,0.9c-10.5,1-20.3,3.5-29.4,7.8C12.3,437.5,4,444-2.5,452.5c-0.6,0.8-0.8,1.6-0.6,2.3c0.2,0.7,0.8,1.2,1.7,1.5
					c0.9,0.2,1.9,0.1,2.9-0.3c1-0.4,1.8-1,2.4-1.9c5.2-7.2,12-12.8,20.2-17c7.7-3.9,16.1-6.4,25.1-7.6c-1.1,1-2.2,2-3.2,3
					c-1,1.1-2,2.4-3,3.9c-1,1.6-1.9,3.2-2.4,4.8c-0.6,1.7-0.9,3.5-1,5.6c-0.1,2.1,0.3,4.3,1,6.5c0.7,2.2,2.1,4.6,4.1,7.1
					c2,2.6,4.6,5.1,7.8,7.7c4.2-4.6,7.3-8.9,9.3-12.9c1.9-3.8,3-7,3.2-9.7c0.2-2.6,0-5-0.8-7.4c-0.7-2.3-1.6-4.1-2.6-5.5
					c-1-1.4-2.2-2.7-3.5-3.9c5.6-0.2,11.4,0.1,17.5,0.9c-0.1,0.2-0.3,0.4-0.4,0.8c-0.2,0.3-0.5,1-0.9,2.1c-0.4,1.1-0.8,2.2-1.1,3.3
					c-0.3,1.1-0.6,2.5-0.9,4.1c-0.2,1.7-0.3,3.3-0.3,4.9c0.1,1.6,0.4,3.4,1,5.3c0.6,1.9,1.5,3.7,2.6,5.4c1.2,1.7,2.8,3.3,5,4.9
					c2.2,1.6,4.7,2.9,7.6,3.9c1.8-2.6,3.2-5.1,4-7.5c0.9-2.3,1.3-4.4,1.3-6.3c0-1.9-0.2-3.6-0.7-5.3c-0.4-1.7-1.1-3.1-2-4.4
					c-0.9-1.3-1.8-2.5-2.7-3.6c-0.9-1.1-1.9-2.1-2.9-2.9c-1-0.8-1.9-1.5-2.7-2.1c-0.8-0.6-1.4-1-1.9-1.3l-0.8-0.4
					c4.5,0.9,8,1.7,10.6,2.4c0.2,0.3,0.4,0.7,0.6,1.2c0.3,0.5,0.9,1.5,1.9,2.9c1,1.5,2.1,2.8,3.2,4.1c1.2,1.3,2.7,2.6,4.6,4.1
					c1.9,1.5,3.9,2.6,6,3.4c2.1,0.8,4.5,1.3,7.2,1.3c2.7,0.1,5.3-0.4,7.9-1.5c-0.8-2.7-1.7-5-2.9-7.1c-1.1-2-2.4-3.7-3.6-4.9
					c-1.3-1.3-2.6-2.4-4.1-3.3c-1.5-0.9-2.9-1.6-4.4-2.1c-1.5-0.5-2.9-0.9-4.3-1.2c-1.4-0.3-2.8-0.5-4-0.6c-1.3-0.1-2.4-0.1-3.4-0.1
					c-1,0-1.8,0-2.3,0.1l-0.9,0.1c-0.2-0.1-1-0.3-2.6-0.8c-1.6-0.4-2.8-0.8-3.7-1c0.3,0,0.6-0.1,1.1-0.1c0.5-0.1,1.3-0.3,2.6-0.6
					c1.3-0.3,2.4-0.8,3.5-1.2c1.1-0.5,2.2-1.2,3.5-2c1.2-0.9,2.2-1.8,3-2.9c0.8-1,1.3-2.3,1.6-3.9c0.3-1.5,0.2-3.1-0.1-4.8
					c-2.4-0.6-4.6-1-6.6-1.2c-2.1-0.1-3.8,0-5.3,0.3c-1.5,0.3-2.9,0.8-4.1,1.4c-1.3,0.6-2.3,1.4-3.2,2.2c-0.9,0.9-1.6,1.8-2.3,2.8
					c-0.7,1-1.2,1.9-1.6,2.9c-0.4,1-0.7,1.9-0.9,2.7c-0.2,0.8-0.4,1.5-0.5,2l-0.1,0.8c-5.5-0.8-10.9-1.2-16.5-1.2
					c0.3-0.1,0.8-0.3,1.4-0.5c0.6-0.2,1.6-0.7,3.2-1.5c1.5-0.7,2.9-1.5,4.2-2.4c1.2-0.8,2.5-1.9,3.8-3.2c1.2-1.3,2.2-2.6,2.8-4
					c0.6-1.4,0.8-2.9,0.7-4.8C75.5,406.5,74.9,404.7,73.9,402.8z"/>
			</g>
		</g>
		<g>
			<g>
				<path class="st8" d="M-29,432.5c-0.1,0.9,0.1,1.8,0.4,2.5c0.3,0.7,0.8,1.4,1.4,2.1c0.7,0.7,1.3,1.2,2,1.7
					c0.7,0.4,1.4,0.8,2.1,1.2c0.8,0.4,1.3,0.6,1.6,0.8c0.3,0.1,0.5,0.2,0.7,0.3c-2.9,0-5.7,0.2-8.5,0.6l-0.1-0.4
					c0-0.3-0.1-0.6-0.2-1c-0.1-0.4-0.3-0.9-0.5-1.4c-0.2-0.5-0.5-1-0.8-1.5c-0.3-0.5-0.7-1-1.2-1.4c-0.4-0.5-1-0.8-1.6-1.2
					c-0.7-0.3-1.4-0.6-2.1-0.7c-0.8-0.2-1.7-0.2-2.8-0.1c-1.1,0.1-2.2,0.3-3.4,0.6c-0.2,0.9-0.2,1.7-0.1,2.5c0.2,0.8,0.4,1.5,0.8,2
					c0.4,0.5,0.9,1,1.5,1.5c0.6,0.5,1.2,0.8,1.8,1.1c0.6,0.2,1.2,0.5,1.8,0.6c0.7,0.2,1.1,0.3,1.3,0.3c0.2,0,0.4,0.1,0.6,0.1
					c-0.5,0.1-1.1,0.3-1.9,0.5c-0.8,0.2-1.3,0.4-1.4,0.4l-0.4,0c-0.3,0-0.7-0.1-1.2-0.1c-0.5,0-1.1,0-1.7,0.1
					c-0.6,0-1.3,0.1-2.1,0.3c-0.7,0.2-1.5,0.4-2.2,0.6c-0.8,0.3-1.5,0.6-2.3,1.1c-0.8,0.5-1.5,1.1-2.1,1.7c-0.7,0.7-1.3,1.5-1.9,2.5
					c-0.6,1.1-1.1,2.3-1.5,3.7c1.3,0.5,2.7,0.8,4.1,0.8c1.4,0,2.6-0.3,3.7-0.7c1.1-0.4,2.1-1,3.1-1.8c1-0.7,1.8-1.4,2.4-2.1
					c0.6-0.7,1.2-1.4,1.7-2.1c0.5-0.7,0.8-1.2,1-1.5c0.1-0.3,0.2-0.5,0.3-0.6c1.3-0.4,3.2-0.8,5.5-1.2l-0.4,0.2
					c-0.3,0.2-0.6,0.4-1,0.7c-0.4,0.3-0.9,0.7-1.4,1.1c-0.5,0.4-1,0.9-1.5,1.5c-0.5,0.6-1,1.2-1.4,1.9c-0.4,0.7-0.8,1.4-1,2.3
					c-0.2,0.9-0.4,1.8-0.3,2.7c0,1,0.2,2.1,0.7,3.3c0.5,1.2,1.1,2.5,2.1,3.9c1.5-0.5,2.8-1.2,3.9-2c1.1-0.8,2-1.6,2.6-2.5
					c0.6-0.9,1-1.8,1.4-2.8c0.3-1,0.5-1.9,0.5-2.7c0-0.8,0-1.7-0.1-2.5c-0.1-0.9-0.3-1.6-0.4-2.1c-0.2-0.6-0.4-1.1-0.6-1.7
					c-0.2-0.6-0.4-0.9-0.5-1.1c-0.1-0.2-0.2-0.3-0.2-0.4c3.1-0.4,6.2-0.6,9-0.5c-0.7,0.6-1.3,1.3-1.8,2c-0.5,0.7-1,1.7-1.4,2.8
					c-0.4,1.2-0.5,2.5-0.4,3.8c0.1,1.4,0.7,3,1.7,5c1,2.1,2.6,4.3,4.8,6.6c1.6-1.3,3-2.6,4-4c1-1.3,1.7-2.5,2.1-3.7
					c0.4-1.1,0.6-2.2,0.5-3.3c0-1.1-0.2-2.1-0.5-2.9c-0.3-0.8-0.7-1.7-1.3-2.5c-0.5-0.8-1-1.5-1.5-2c-0.5-0.5-1-1.1-1.6-1.6
					c4.7,0.6,9,1.9,13,3.9c4.3,2.2,7.8,5.1,10.4,8.8c0.3,0.4,0.7,0.8,1.2,1c0.5,0.2,1,0.3,1.5,0.1c0.5-0.1,0.8-0.4,0.9-0.8
					c0.1-0.4,0-0.8-0.3-1.2c-3.4-4.4-7.6-7.8-12.8-10.1c-4.7-2.2-9.8-3.5-15.2-4l0.1-0.5c0.1-0.3,0.1-0.7,0.1-1.2c0-0.5,0-1.1,0-1.7
					c0-0.6-0.2-1.3-0.4-1.9c-0.2-0.7-0.5-1.3-0.8-1.9c-0.3-0.6-0.8-1.2-1.4-1.7c-0.6-0.5-1.3-1-2.1-1.4c-0.8-0.4-1.8-0.7-3-0.9
					c-1.2-0.2-2.5-0.3-3.9-0.3C-28.7,430.6-29,431.6-29,432.5z"/>
			</g>
		</g>
	</g>
</g>
<g>
	<defs>
		<polygon id="SVGID_5_" points="-170.3,492.8 34.7,611.8 34.4,660 -169.7,541.4 		"/>
	</defs>
	<clipPath id="SVGID_6_">
		<use xlink:href="#SVGID_5_"  style="overflow:visible;"/>
	</clipPath>
	<g class="st9">
		<polygon class="st1" points="-170.3,466.8 34.7,585.8 34.4,634 -169.7,515.4 		"/>
		<g>
			<polygon class="st2" points="34.7,585.8 23,579 -16.2,604.6 13.6,621.9 34.6,608.4 			"/>
			<polygon class="st2" points="-149.4,478.9 -170,492.7 -169.7,515.4 -158.1,522.2 -119.4,496.3 			"/>
		</g>
	</g>
</g>
<g>
	<defs>
		<polygon id="SVGID_7_" points="35.1,586 239.2,467.4 239.5,515.6 34.5,634.6 		"/>
	</defs>
	<clipPath id="SVGID_8_">
		<use xlink:href="#SVGID_7_"  style="overflow:visible;"/>
	</clipPath>
	<g class="st10">
		<polygon class="st1" points="35.1,611.9 239.2,493.4 239.5,541.6 34.5,660.6 		"/>
		<g>
			<polygon class="st2" points="239.3,519 218.4,505.5 188.5,522.8 227.7,548.4 239.5,541.6 			"/>
			<polygon class="st2" points="85.4,631.1 46.7,605.2 35.1,611.9 34.8,634.7 55.4,648.5 			"/>
		</g>
	</g>
</g>
<text transform="matrix(0.5926 0.3431 -0.501 0.8654 -119.4387 542.2444)" class="st11 st12">Crime Scene</text>
<text transform="matrix(0.5889 -0.3413 0.5015 0.8652 73.0639 609.5316)" class="st11 st13">Do Not Cross Line</text>
</svg>
