<?xml version="1.0" encoding="utf-8"?>
<!-- Generator: Adobe Illustrator 19.0.1, SVG Export Plug-In . SVG Version: 6.00 Build 0)  -->
<svg version="1.1" id="watermelon_x5F_seed" xmlns="http://www.w3.org/2000/svg" xmlns:xlink="http://www.w3.org/1999/xlink"
	 x="0px" y="0px" viewBox="-223 225 512 512" style="enable-background:new -223 225 512 512;" xml:space="preserve">
<style type="text/css">
	.st0{fill:#282826;}
	.st1{fill:#020202;}
</style>
<g>
	<path class="st0" d="M42.2,450.5c2.7,4.9,0,9.5-6,10.2c-6,0.7-15.7-17.2-9.7-17.9S39.5,445.6,42.2,450.5z"/>
	<path class="st1" d="M40.6,453.4c1.5,2,0.6,5.2-1.1,6.4c-0.7,0.5-1.7,0.7-2,0.8c-0.5,0.1-1.3,0.3-2.3,0.2c-0.2,0-1.1-0.2-2.1-0.8
		c-0.6-0.4-1.1-0.7-1.6-1.3c-0.8-1.2-0.6-2.8,0-4c0-0.1,0.1-0.1,0.1-0.2c1-1.7,3.1-2.1,3.5-2.2C35.9,452.1,39,451.4,40.6,453.4z"/>
</g>
<g>
	<path class="st0" d="M201.9,543.3c2.7,4.9,0,9.5-6,10.2s-15.7-17.2-9.7-17.9C192.2,534.9,199.2,538.3,201.9,543.3z"/>
	<path class="st1" d="M200.3,546.2c1.5,2,0.6,5.2-1.1,6.4c-0.7,0.5-1.7,0.7-2,0.8c-0.5,0.1-1.3,0.3-2.3,0.2c-0.2,0-1.1-0.2-2.1-0.8
		c-0.6-0.4-1.1-0.7-1.6-1.3c-0.8-1.2-0.6-2.8,0-4c0-0.1,0.1-0.1,0.1-0.2c1-1.7,3.1-2.1,3.5-2.2C195.6,544.8,198.7,544.2,200.3,546.2
		z"/>
</g>
<g>
	<path class="st0" d="M39.3,635.9c2.7,4.9,0,9.5-6,10.2c-6,0.7-15.7-17.2-9.7-17.9S36.7,630.9,39.3,635.9z"/>
	<path class="st1" d="M37.7,638.8c1.5,2,0.6,5.2-1.1,6.4c-0.7,0.5-1.7,0.7-2,0.8c-0.5,0.1-1.3,0.3-2.3,0.2c-0.2,0-1.1-0.2-2.1-0.8
		c-0.6-0.4-1.1-0.7-1.6-1.3c-0.8-1.2-0.6-2.8,0-4c0-0.1,0.1-0.1,0.1-0.2c1-1.7,3.1-2.1,3.5-2.2C33.1,637.4,36.2,636.8,37.7,638.8z"
		/>
</g>
<g>
	<path class="st0" d="M-121.2,543.9c2.7,4.9,0,9.5-6,10.2c-6,0.7-15.7-17.2-9.7-17.9S-123.9,539-121.2,543.9z"/>
	<path class="st1" d="M-122.8,546.8c1.5,2,0.6,5.2-1.1,6.4c-0.7,0.5-1.7,0.7-2,0.8c-0.5,0.1-1.3,0.3-2.3,0.2c-0.2,0-1.1-0.2-2.1-0.8
		c-0.6-0.4-1.1-0.7-1.6-1.3c-0.8-1.2-0.6-2.8,0-4c0-0.1,0.1-0.1,0.1-0.2c1-1.7,3.1-2.1,3.5-2.2
		C-127.4,545.5-124.4,544.8-122.8,546.8z"/>
</g>
</svg>
