<?xml version="1.0" encoding="utf-8"?>
<!-- Generator: Adobe Illustrator 19.0.1, SVG Export Plug-In . SVG Version: 6.00 Build 0)  -->
<svg version="1.1" id="watermelon" xmlns="http://www.w3.org/2000/svg" xmlns:xlink="http://www.w3.org/1999/xlink" x="0px" y="0px"
	 viewBox="0 0 50 50" style="enable-background:new 0 0 50 50;" xml:space="preserve">
<style type="text/css">
	.st0{fill:#8CC153;}
	.st1{fill:#434A54;}
	.st2{fill:#659C35;}
	.st3{fill:#A0D468;}
	.st4{fill:#E6E9ED;}
	.st5{fill:#ED5564;}
</style>
<g>
	<g>
		<path class="st0" d="M16.9,38.6c-4,0-7.8-1.6-10.7-4.4c-2.9-2.9-4.4-6.7-4.4-10.7c0-4,1.6-7.8,4.4-10.7c2.9-2.9,6.7-4.4,10.7-4.4
			c4,0,7.8,1.6,10.7,4.4c2.9,2.9,4.4,6.7,4.4,10.7c0,4-1.6,7.8-4.4,10.7C24.8,37,21,38.6,16.9,38.6z"/>
		<path class="st1" d="M21,4.3c0-0.6-0.5-1-1-1c-0.1,0-0.2,0-0.3,0.1l0,0c-0.1,0-1,0.3-1.9,1.1c-1.2,1-1.9,2.4-1.9,4l2,0
			c0-2.2,2.2-3,2.3-3.1l0,0C20.7,5.1,21,4.7,21,4.3z"/>
		<path class="st2" d="M16.9,7.3C8,7.3,0.8,14.5,0.8,23.5c0,8.9,7.2,16.1,16.1,16.1c8.9,0,16.1-7.2,16.1-16.1
			C33.1,14.5,25.8,7.3,16.9,7.3z M19.6,37.3c-0.1,0-0.1,0-0.2,0c-0.3-5.9,0.7-8.5,1.7-9.7c0.3-0.3,1.6-1.8,1.6-3.6
			c0-0.8-0.2-1.5-0.2-1.5c-0.2-0.8-0.6-1.1-0.9-1.8c0,0-0.6-1-0.9-2.5c-0.5-2.1,0.6-2.9,0.5-4.8c0-1-0.4-2.3-1.8-4
			c0.1,0,0.1,0,0.2,0c0.5,0,1.7,0.2,2.7,1.1c1.2,1.2,1.2,3,1.2,3.6c0,2-1.1,2.7-0.6,4.3c0.2,0.7,0.6,1.3,0.7,1.5
			c0.7,1.1,1.2,1.2,1.5,1.9c0.1,0.2,0.3,0.8-0.4,2.9c-0.4,1.3-0.8,2.2-1.3,3.3c-1.1,2.3-1.6,3.5-1.6,3.6C21.1,34.4,22,36.1,21,37
			C20.5,37.3,20,37.3,19.6,37.3z M14.2,37.3c-2.1-0.4-3-1.3-3.4-2c-0.4-0.7-0.3-1.2-0.7-3c-0.5-2.1-0.9-2-1.1-3.3
			c-0.4-2.5,1-2.9,0.6-5.5c-0.2-1.6-0.9-1.9-0.7-3.3c0.2-1.3,0.7-1.2,1.1-2.7c0.6-2.2-0.4-3.3,0.5-4.4c0.5-0.6,1-0.4,1.4-1.1
			c0.4-0.7,0-1.2,0.4-1.8c0.2-0.3,0.7-0.7,1.8-0.9c0,0,0.1,0,0.1,0c0,0,0.1,0,0.1,0c0.4,0.6,0.9,1.5,0.7,2.4
			c-0.3,1.3-1.7,1.4-2.3,2.8c-0.5,1.2,0.8,1.8,0.4,3.4c-0.3,1-0.8,0.8-1,1.8c-0.2,0.9,0.3,2.5,0.7,3.7c0.2,0.8,0.4,1.2,0.4,1.4
			c0,1.1-0.9,1.4-0.9,2.5c0,0.5,0.2,0.8,0.1,1.3c-0.1,0.5-0.4,0.7-0.6,1c-0.5,0.9,0.7,2.3,1.5,4.2C13.7,34.7,14.1,35.8,14.2,37.3z
			 M3.9,29c-0.4-0.6-0.7-0.8-0.8-1.4c-0.1-0.5,0.1-0.7,0.3-1.4c0.2-0.7,0.4-1.4,0.4-2.1c0-1.3-0.7-1.6-0.7-3.1c0-0.4,0-0.7,0.1-0.8
			c0.1-0.8,0.4-1.4,0.7-2.1c0.7-1.7,1.7-3.2,3-4.5c1-1,2.1-1.8,3.4-2.5c-0.2,0.3-0.5,0.6-0.8,1.1c-0.1,0.1-0.6,0.9-0.9,1.3
			c-0.8,1.4-0.2,2.3-0.8,4c-0.5,1.3-1,1-1.4,2.1c-0.7,1.9,0.8,2.7,1,5.5c0.1,2.5-1,3-0.3,4.7c0.4,1.1,1,1,1.5,2.5
			c0.3,0.9,0.4,1.6,0.9,2.6c0.3,0.5,0.6,0.9,0.8,1.1c-1-0.3-2.4-1-3.7-2.2c-0.8-0.8-1.5-1.4-1.9-2.5C4.3,30.3,4.5,29.9,3.9,29z
			 M16.6,37.6c-0.4-1.8-0.9-3.2-1.4-4.1c-0.6-1.2-1.2-1.9-1-2.9c0.1-0.8,0.6-1.1,0.5-2c-0.1-0.7-0.5-0.8-0.5-1.4
			c0-1.2,1.4-1.5,1.3-2.5c-0.1-0.6-0.8-0.6-1.3-1.6c-0.1-0.2-0.6-1-0.4-2.1c0.2-1.5,1.5-1.7,1.5-3c0-1-0.9-1.4-0.7-2.4
			c0.1-0.6,0.5-0.9,0.7-1.1c0.7-0.7,1.3-2.1,1.2-5.3c0.1,0,0.2,0,0.3,0c0.1,0,0.2,0,0.3,0c1,1.1,2.1,2.6,2.1,4.6
			c0,1.1-0.3,1.2-0.6,2.9c-0.2,1.4-0.5,3.6,0.5,5.7c0.6,1.4,1.3,1.7,1.1,2.6c-0.2,0.8-0.8,0.7-1.6,2.1c-0.2,0.3-0.5,0.9-1.1,2.2
			c-0.6,1.3-0.6,1.4-0.6,1.5c-0.1,0.8,0.1,1.4,0.6,2.7c1.2,3.1,1.4,3.6,1.1,3.9C18.5,37.8,18.1,38,16.6,37.6z M26.9,33.4
			c-1,1-2.1,1.9-3.4,2.5c-1.3,0.9-1.7,1-1.7,0.9c-0.1-0.1,1.2-0.9,2-2.5c0.5-1.1,0.3-1.5,0.8-3.1c0.4-1.4,0.8-1.6,1.5-3.2
			c0.8-1.6,1.4-3,1.5-4.6c0.1-2.5-1.4-2.3-2-6c-0.4-2.1-0.1-3.6-1.3-5.6c-0.3-0.5-0.6-0.9-0.8-1.1c1.2,0.7,2.4,1.5,3.4,2.5
			c1,1,1.6,1.6,1.9,2.3c0.5,1.2,0,1.6,0.5,2.7c0.5,0.9,0.9,0.8,1.3,1.7c0.4,0.8,0.4,1.7,0.4,3.4c0,1.9-0.4,3.8-1.1,5.5
			C29.2,30.6,28.2,32.1,26.9,33.4z"/>
	</g>
	<path class="st3" d="M16.9,29.5c0,8.9,7.2,16.1,16.1,16.1c8.9,0,16.1-7.2,16.1-16.1H16.9z"/>
	<path class="st4" d="M33.1,43.6c7.8,0,14.1-6.3,14.1-14.1H18.9C18.9,37.3,25.3,43.6,33.1,43.6z"/>
	<path class="st5" d="M33.1,42.6c7.2,0,13.1-5.9,13.1-13.1H20C20,36.8,25.8,42.6,33.1,42.6z"/>
	<g>
		<path class="st1" d="M25,32.5c-0.6,0-1,0.5-1,1c0,0.6,0.5,1,1,1c0.6,0,1-0.5,1-1C26,33,25.6,32.5,25,32.5z"/>
		<path class="st1" d="M30,32.5c-0.6,0-1,0.5-1,1c0,0.6,0.5,1,1,1s1-0.5,1-1C31.1,33,30.6,32.5,30,32.5z"/>
		<path class="st1" d="M35.1,32.5c-0.6,0-1,0.5-1,1c0,0.6,0.5,1,1,1s1-0.5,1-1C36.1,33,35.6,32.5,35.1,32.5z"/>
		<path class="st1" d="M40.1,32.5c-0.6,0-1,0.5-1,1c0,0.6,0.5,1,1,1s1-0.5,1-1C41.1,33,40.7,32.5,40.1,32.5z"/>
		<path class="st1" d="M27.5,36.4c-0.6,0-1,0.5-1,1s0.5,1,1,1c0.6,0,1-0.5,1-1S28.1,36.4,27.5,36.4z"/>
		<path class="st1" d="M32.6,36.4c-0.6,0-1,0.5-1,1s0.5,1,1,1c0.6,0,1-0.5,1-1S33.1,36.4,32.6,36.4z"/>
		<path class="st1" d="M37.6,36.4c-0.6,0-1,0.5-1,1s0.5,1,1,1c0.6,0,1-0.5,1-1S38.2,36.4,37.6,36.4z"/>
	</g>
</g>
</svg>
