<?xml version="1.0" encoding="utf-8"?>
<!-- Generator: Adobe Illustrator 19.0.1, SVG Export Plug-In . SVG Version: 6.00 Build 0)  -->
<svg version="1.1" id="wheat_x5F_warn" xmlns="http://www.w3.org/2000/svg" xmlns:xlink="http://www.w3.org/1999/xlink" x="0px"
	 y="0px" viewBox="-223 225 512 512" style="enable-background:new -223 225 512 512;" xml:space="preserve">
<style type="text/css">
	.st0{clip-path:url(#SVGID_2_);}
	.st1{fill:#FBD303;}
	.st2{fill:#646B79;}
	.st3{clip-path:url(#SVGID_4_);}
	.st4{fill:#FF912E;}
	.st5{fill:#FFB92C;}
	.st6{fill:#559B0B;}
	.st7{clip-path:url(#SVGID_6_);}
	.st8{clip-path:url(#SVGID_8_);}
	.st9{font-family:'Arial-Black';}
	.st10{font-size:21.0661px;}
	.st11{font-size:20.1175px;}
</style>
<g>
	<defs>
		<polygon id="SVGID_1_" points="26.2,360 231.1,479 230.9,527.2 26.7,408.7 		"/>
	</defs>
	<clipPath id="SVGID_2_">
		<use xlink:href="#SVGID_1_"  style="overflow:visible;"/>
	</clipPath>
	<g class="st0">
		<polygon class="st1" points="26.2,334 231.1,453 230.9,501.2 26.7,382.7 		"/>
		<g>
			<polygon class="st2" points="231.1,453 219.4,446.2 180.2,471.8 210.1,489.1 231,475.7 			"/>
			<polygon class="st2" points="152.8,455.9 122.9,438.6 161.9,412.9 191.9,430.3 			"/>
			<polygon class="st2" points="95.6,422.7 65.7,405.3 104.5,379.5 134.5,396.9 			"/>
			<polygon class="st2" points="47,346.1 26.4,359.9 26.7,382.7 38.4,389.4 77,363.6 			"/>
		</g>
	</g>
</g>
<g>
	<defs>
		<polygon id="SVGID_3_" points="-178.1,453.2 26.1,334.6 26.3,382.8 -178.6,501.8 		"/>
	</defs>
	<clipPath id="SVGID_4_">
		<use xlink:href="#SVGID_3_"  style="overflow:visible;"/>
	</clipPath>
	<g class="st3">
		<polygon class="st1" points="-178.1,479.2 26.1,360.6 26.3,408.8 -178.6,527.8 		"/>
		<g>
			<polygon class="st2" points="26.2,386.2 5.3,372.7 -24.6,390.1 14.6,415.6 26.3,408.8 			"/>
			<polygon class="st2" points="-12.9,431.6 -42.9,449 -81.9,423.3 -52,405.9 			"/>
			<polygon class="st2" points="-70.3,464.9 -100.3,482.3 -139.1,456.5 -109.2,439.2 			"/>
			<polygon class="st2" points="-127.8,498.3 -166.4,472.4 -178.1,479.2 -178.4,501.9 -157.8,515.7 			"/>
		</g>
	</g>
</g>
<g>
	<g>
		<path class="st4" d="M-136.5,525.1c0,1.1-0.9,2.1-2.1,2.1l0,0c-1.1,0-2.1-0.9-2.1-2.1v-84.3c0-1.1,0.9-2.1,2.1-2.1l0,0
			c1.1,0,2.1,0.9,2.1,2.1V525.1z"/>
		<g>
			<path class="st5" d="M-140.6,440.8c0-1.1,0.9-2.1,2.1-2.1l0,0c1.1,0,2.1,0.9,2.1,2.1v84.3"/>
		</g>
		<path class="st6" d="M-136.5,552.3c0,1.1-0.9,2.1-2.1,2.1l0,0c-1.1,0-2.1-0.9-2.1-2.1v-26.6c0-1.1,0.9-2.1,2.1-2.1l0,0
			c1.1,0,2.1,0.9,2.1,2.1V552.3z"/>
		<path class="st5" d="M-138.5,410.8v31.5c0,0-10.3-2.4-10.3-11.3C-148.8,422.1-138.5,410.8-138.5,410.8z"/>
		<path class="st4" d="M-138.5,410.8v31.5c0,0,10.3-2.4,10.3-11.3C-128.3,422.1-138.5,410.8-138.5,410.8z"/>
		<path class="st5" d="M-160.7,437.2l19.2,19.2c0,0-7.7,4.8-13.2-0.6C-160.1,450.4-160.7,437.2-160.7,437.2z"/>
		<g>
			<path class="st4" d="M-160.7,437.2l19.2,19.2c0,0,4.8-7.7-0.6-13.2C-147.5,437.8-160.7,437.2-160.7,437.2z"/>
			<path class="st4" d="M-116,437.2l-19.2,19.2c0,0,7.7,4.8,13.2-0.6C-116.7,450.4-116,437.2-116,437.2z"/>
		</g>
		<g>
			<path class="st5" d="M-116,437.2l-19.2,19.2c0,0-4.8-7.7,0.6-13.2C-129.2,437.8-116,437.2-116,437.2z"/>
			<path class="st5" d="M-160.7,457.3l19.2,19.2c0,0-7.7,4.8-13.2-0.6C-160.1,470.5-160.7,457.3-160.7,457.3z"/>
		</g>
		<g>
			<path class="st4" d="M-160.7,457.3l19.2,19.2c0,0,4.8-7.7-0.6-13.2C-147.5,457.9-160.7,457.3-160.7,457.3z"/>
			<path class="st4" d="M-116,457.3l-19.2,19.2c0,0,7.7,4.8,13.2-0.6C-116.7,470.5-116,457.3-116,457.3z"/>
		</g>
		<g>
			<path class="st5" d="M-116,457.3l-19.2,19.2c0,0-4.8-7.7,0.6-13.2C-129.2,457.9-116,457.3-116,457.3z"/>
			<path class="st5" d="M-160.7,477.4l19.2,19.2c0,0-7.7,4.8-13.2-0.6C-160.1,490.6-160.7,477.4-160.7,477.4z"/>
		</g>
		<g>
			<path class="st4" d="M-160.7,477.4l19.2,19.2c0,0,4.8-7.7-0.6-13.2C-147.5,478.1-160.7,477.4-160.7,477.4z"/>
			<path class="st4" d="M-116,477.4l-19.2,19.2c0,0,7.7,4.8,13.2-0.6C-116.7,490.6-116,477.4-116,477.4z"/>
		</g>
		<g>
			<path class="st5" d="M-116,477.4l-19.2,19.2c0,0-4.8-7.7,0.6-13.2C-129.2,478.1-116,477.4-116,477.4z"/>
			<path class="st5" d="M-160.7,497.5l19.2,19.2c0,0-7.7,4.8-13.2-0.6C-160.1,510.7-160.7,497.5-160.7,497.5z"/>
		</g>
		<g>
			<path class="st4" d="M-160.7,497.5l19.2,19.2c0,0,4.8-7.7-0.6-13.2C-147.5,498.2-160.7,497.5-160.7,497.5z"/>
			<path class="st4" d="M-116,497.5l-19.2,19.2c0,0,7.7,4.8,13.2-0.6C-116.7,510.7-116,497.5-116,497.5z"/>
		</g>
		<path class="st5" d="M-116,497.5l-19.2,19.2c0,0-4.8-7.7,0.6-13.2C-129.2,498.2-116,497.5-116,497.5z"/>
		<path class="st6" d="M-136.6,543.3c0,0,2.7-17.9,14-16.4c11.4,1.5,12.6-12.4,12.6-12.4s0,13-11.1,18.6
			c-11.1,5.6-11.7,15.8-15.5,15.7C-140.5,548.6-136.6,543.3-136.6,543.3z"/>
	</g>
	<g>
		<path class="st4" d="M24,430.9c0,1.1-0.9,2.1-2.1,2.1l0,0c-1.1,0-2.1-0.9-2.1-2.1v-84.3c0-1.1,0.9-2.1,2.1-2.1l0,0
			c1.1,0,2.1,0.9,2.1,2.1V430.9z"/>
		<g>
			<path class="st5" d="M19.9,346.7c0-1.1,0.9-2.1,2.1-2.1l0,0c1.1,0,2.1,0.9,2.1,2.1v84.3"/>
		</g>
		<path class="st6" d="M24,458.1c0,1.1-0.9,2.1-2.1,2.1l0,0c-1.1,0-2.1-0.9-2.1-2.1v-26.6c0-1.1,0.9-2.1,2.1-2.1l0,0
			c1.1,0,2.1,0.9,2.1,2.1V458.1z"/>
		<path class="st5" d="M22,316.6v31.5c0,0-10.3-2.4-10.3-11.3C11.7,327.9,22,316.6,22,316.6z"/>
		<path class="st4" d="M22,316.6v31.5c0,0,10.3-2.4,10.3-11.3C32.2,327.9,22,316.6,22,316.6z"/>
		<path class="st5" d="M-0.2,343.1l19.2,19.2c0,0-7.7,4.8-13.2-0.6C0.4,356.2-0.2,343.1-0.2,343.1z"/>
		<g>
			<path class="st4" d="M-0.2,343.1l19.2,19.2c0,0,4.8-7.7-0.6-13.2C13,343.7-0.2,343.1-0.2,343.1z"/>
			<path class="st4" d="M44.5,343.1l-19.2,19.2c0,0,7.7,4.8,13.2-0.6C43.8,356.2,44.5,343.1,44.5,343.1z"/>
		</g>
		<g>
			<path class="st5" d="M44.5,343.1l-19.2,19.2c0,0-4.8-7.7,0.6-13.2C31.3,343.7,44.5,343.1,44.5,343.1z"/>
			<path class="st5" d="M-0.2,363.2l19.2,19.2c0,0-7.7,4.8-13.2-0.6C0.4,376.3-0.2,363.2-0.2,363.2z"/>
		</g>
		<g>
			<path class="st4" d="M-0.2,363.2l19.2,19.2c0,0,4.8-7.7-0.6-13.2C13,363.8-0.2,363.2-0.2,363.2z"/>
			<path class="st4" d="M44.5,363.2l-19.2,19.2c0,0,7.7,4.8,13.2-0.6C43.8,376.3,44.5,363.2,44.5,363.2z"/>
		</g>
		<g>
			<path class="st5" d="M44.5,363.2l-19.2,19.2c0,0-4.8-7.7,0.6-13.2C31.3,363.8,44.5,363.2,44.5,363.2z"/>
			<path class="st5" d="M-0.2,383.3l19.2,19.2c0,0-7.7,4.8-13.2-0.6C0.4,396.5-0.2,383.3-0.2,383.3z"/>
		</g>
		<g>
			<path class="st4" d="M-0.2,383.3l19.2,19.2c0,0,4.8-7.7-0.6-13.2C13,383.9-0.2,383.3-0.2,383.3z"/>
			<path class="st4" d="M44.5,383.3l-19.2,19.2c0,0,7.7,4.8,13.2-0.6C43.8,396.5,44.5,383.3,44.5,383.3z"/>
		</g>
		<g>
			<path class="st5" d="M44.5,383.3l-19.2,19.2c0,0-4.8-7.7,0.6-13.2C31.3,383.9,44.5,383.3,44.5,383.3z"/>
			<path class="st5" d="M-0.2,403.4l19.2,19.2c0,0-7.7,4.8-13.2-0.6C0.4,416.6-0.2,403.4-0.2,403.4z"/>
		</g>
		<g>
			<path class="st4" d="M-0.2,403.4l19.2,19.2c0,0,4.8-7.7-0.6-13.2C13,404-0.2,403.4-0.2,403.4z"/>
			<path class="st4" d="M44.5,403.4l-19.2,19.2c0,0,7.7,4.8,13.2-0.6S44.5,403.4,44.5,403.4z"/>
		</g>
		<path class="st5" d="M44.5,403.4l-19.2,19.2c0,0-4.8-7.7,0.6-13.2C31.3,404,44.5,403.4,44.5,403.4z"/>
		<path class="st6" d="M23.9,449.1c0,0,2.7-17.9,14-16.4c11.4,1.5,12.6-12.4,12.6-12.4s0,13-11.1,18.6
			c-11.1,5.6-11.7,15.8-15.5,15.7C20,454.4,23.9,449.1,23.9,449.1z"/>
	</g>
	<g>
		<path class="st4" d="M-110.2,508.4c0,1.1-0.9,2.1-2.1,2.1l0,0c-1.1,0-2.1-0.9-2.1-2.1v-84.3c0-1.1,0.9-2.1,2.1-2.1l0,0
			c1.1,0,2.1,0.9,2.1,2.1V508.4z"/>
		<g>
			<path class="st5" d="M-114.3,424.1c0-1.1,0.9-2.1,2.1-2.1l0,0c1.1,0,2.1,0.9,2.1,2.1v84.3"/>
		</g>
		<path class="st6" d="M-110.2,535.6c0,1.1-0.9,2.1-2.1,2.1l0,0c-1.1,0-2.1-0.9-2.1-2.1v-26.6c0-1.1,0.9-2.1,2.1-2.1l0,0
			c1.1,0,2.1,0.9,2.1,2.1V535.6z"/>
		<path class="st5" d="M-112.3,394v31.5c0,0-10.3-2.4-10.3-11.3C-122.5,405.3-112.3,394-112.3,394z"/>
		<path class="st4" d="M-112.3,394v31.5c0,0,10.3-2.4,10.3-11.3C-102,405.3-112.3,394-112.3,394z"/>
		<path class="st5" d="M-134.4,420.5l19.2,19.2c0,0-7.7,4.8-13.2-0.6C-133.8,433.7-134.4,420.5-134.4,420.5z"/>
		<g>
			<path class="st4" d="M-134.4,420.5l19.2,19.2c0,0,4.8-7.7-0.6-13.2C-121.2,421.1-134.4,420.5-134.4,420.5z"/>
			<path class="st4" d="M-89.7,420.5l-19.2,19.2c0,0,7.7,4.8,13.2-0.6C-90.4,433.7-89.7,420.5-89.7,420.5z"/>
		</g>
		<g>
			<path class="st5" d="M-89.7,420.5l-19.2,19.2c0,0-4.8-7.7,0.6-13.2C-102.9,421.1-89.7,420.5-89.7,420.5z"/>
			<path class="st5" d="M-134.4,440.6l19.2,19.2c0,0-7.7,4.8-13.2-0.6C-133.8,453.8-134.4,440.6-134.4,440.6z"/>
		</g>
		<g>
			<path class="st4" d="M-134.4,440.6l19.2,19.2c0,0,4.8-7.7-0.6-13.2C-121.2,441.2-134.4,440.6-134.4,440.6z"/>
			<path class="st4" d="M-89.7,440.6l-19.2,19.2c0,0,7.7,4.8,13.2-0.6C-90.4,453.8-89.7,440.6-89.7,440.6z"/>
		</g>
		<g>
			<path class="st5" d="M-89.7,440.6l-19.2,19.2c0,0-4.8-7.7,0.6-13.2C-102.9,441.2-89.7,440.6-89.7,440.6z"/>
			<path class="st5" d="M-134.4,460.7l19.2,19.2c0,0-7.7,4.8-13.2-0.6C-133.8,473.9-134.4,460.7-134.4,460.7z"/>
		</g>
		<g>
			<path class="st4" d="M-134.4,460.7l19.2,19.2c0,0,4.8-7.7-0.6-13.2C-121.2,461.3-134.4,460.7-134.4,460.7z"/>
			<path class="st4" d="M-89.7,460.7l-19.2,19.2c0,0,7.7,4.8,13.2-0.6C-90.4,473.9-89.7,460.7-89.7,460.7z"/>
		</g>
		<g>
			<path class="st5" d="M-89.7,460.7l-19.2,19.2c0,0-4.8-7.7,0.6-13.2C-102.9,461.3-89.7,460.7-89.7,460.7z"/>
			<path class="st5" d="M-134.4,480.8l19.2,19.2c0,0-7.7,4.8-13.2-0.6C-133.8,494-134.4,480.8-134.4,480.8z"/>
		</g>
		<g>
			<path class="st4" d="M-134.4,480.8l19.2,19.2c0,0,4.8-7.7-0.6-13.2C-121.2,481.4-134.4,480.8-134.4,480.8z"/>
			<path class="st4" d="M-89.7,480.8L-109,500c0,0,7.7,4.8,13.2-0.6C-90.4,494-89.7,480.8-89.7,480.8z"/>
		</g>
		<path class="st5" d="M-89.7,480.8L-109,500c0,0-4.8-7.7,0.6-13.2C-102.9,481.4-89.7,480.8-89.7,480.8z"/>
		<path class="st6" d="M-110.3,526.5c0,0,2.7-17.9,14-16.4c11.4,1.5,12.6-12.4,12.6-12.4s0,13-11.1,18.6
			c-11.1,5.6-11.7,15.8-15.5,15.7C-114.2,531.9-110.3,526.5-110.3,526.5z"/>
	</g>
	<g>
		<path class="st4" d="M-82.9,492.7c0,1.1-0.9,2.1-2.1,2.1l0,0c-1.1,0-2.1-0.9-2.1-2.1v-84.3c0-1.1,0.9-2.1,2.1-2.1l0,0
			c1.1,0,2.1,0.9,2.1,2.1V492.7z"/>
		<g>
			<path class="st5" d="M-87.1,408.5c0-1.1,0.9-2.1,2.1-2.1l0,0c1.1,0,2.1,0.9,2.1,2.1v84.3"/>
		</g>
		<path class="st6" d="M-82.9,519.9c0,1.1-0.9,2.1-2.1,2.1l0,0c-1.1,0-2.1-0.9-2.1-2.1v-26.6c0-1.1,0.9-2.1,2.1-2.1l0,0
			c1.1,0,2.1,0.9,2.1,2.1V519.9z"/>
		<path class="st5" d="M-85,378.4v31.5c0,0-10.3-2.4-10.3-11.3C-95.3,389.7-85,378.4-85,378.4z"/>
		<path class="st4" d="M-85,378.4v31.5c0,0,10.3-2.4,10.3-11.3C-74.7,389.7-85,378.4-85,378.4z"/>
		<path class="st5" d="M-107.1,404.9l19.2,19.2c0,0-7.7,4.8-13.2-0.6C-106.5,418-107.1,404.9-107.1,404.9z"/>
		<g>
			<path class="st4" d="M-107.1,404.9l19.2,19.2c0,0,4.8-7.7-0.6-13.2C-93.9,405.5-107.1,404.9-107.1,404.9z"/>
			<path class="st4" d="M-62.5,404.9l-19.2,19.2c0,0,7.7,4.8,13.2-0.6C-63.1,418-62.5,404.9-62.5,404.9z"/>
		</g>
		<g>
			<path class="st5" d="M-62.5,404.9l-19.2,19.2c0,0-4.8-7.7,0.6-13.2C-75.6,405.5-62.5,404.9-62.5,404.9z"/>
			<path class="st5" d="M-107.1,425l19.2,19.2c0,0-7.7,4.8-13.2-0.6C-106.5,438.1-107.1,425-107.1,425z"/>
		</g>
		<g>
			<path class="st4" d="M-107.1,425l19.2,19.2c0,0,4.8-7.7-0.6-13.2C-93.9,425.6-107.1,425-107.1,425z"/>
			<path class="st4" d="M-62.5,425l-19.2,19.2c0,0,7.7,4.8,13.2-0.6C-63.1,438.1-62.5,425-62.5,425z"/>
		</g>
		<g>
			<path class="st5" d="M-62.5,425l-19.2,19.2c0,0-4.8-7.7,0.6-13.2C-75.6,425.6-62.5,425-62.5,425z"/>
			<path class="st5" d="M-107.1,445.1l19.2,19.2c0,0-7.7,4.8-13.2-0.6C-106.5,458.3-107.1,445.1-107.1,445.1z"/>
		</g>
		<g>
			<path class="st4" d="M-107.1,445.1l19.2,19.2c0,0,4.8-7.7-0.6-13.2C-93.9,445.7-107.1,445.1-107.1,445.1z"/>
			<path class="st4" d="M-62.5,445.1l-19.2,19.2c0,0,7.7,4.8,13.2-0.6C-63.1,458.3-62.5,445.1-62.5,445.1z"/>
		</g>
		<g>
			<path class="st5" d="M-62.5,445.1l-19.2,19.2c0,0-4.8-7.7,0.6-13.2C-75.6,445.7-62.5,445.1-62.5,445.1z"/>
			<path class="st5" d="M-107.1,465.2l19.2,19.2c0,0-7.7,4.8-13.2-0.6C-106.5,478.4-107.1,465.2-107.1,465.2z"/>
		</g>
		<g>
			<path class="st4" d="M-107.1,465.2l19.2,19.2c0,0,4.8-7.7-0.6-13.2C-93.9,465.8-107.1,465.2-107.1,465.2z"/>
			<path class="st4" d="M-62.5,465.2l-19.2,19.2c0,0,7.7,4.8,13.2-0.6C-63.1,478.4-62.5,465.2-62.5,465.2z"/>
		</g>
		<path class="st5" d="M-62.5,465.2l-19.2,19.2c0,0-4.8-7.7,0.6-13.2C-75.6,465.8-62.5,465.2-62.5,465.2z"/>
		<path class="st6" d="M-83.1,510.9c0,0,2.7-17.9,14-16.4c11.4,1.5,12.6-12.4,12.6-12.4s0,13-11.1,18.6
			c-11.1,5.6-11.7,15.8-15.5,15.7C-86.9,516.2-83.1,510.9-83.1,510.9z"/>
	</g>
	<g>
		<path class="st4" d="M-56.5,478.1c0,1.1-0.9,2.1-2.1,2.1l0,0c-1.1,0-2.1-0.9-2.1-2.1v-84.3c0-1.1,0.9-2.1,2.1-2.1l0,0
			c1.1,0,2.1,0.9,2.1,2.1V478.1z"/>
		<g>
			<path class="st5" d="M-60.6,393.8c0-1.1,0.9-2.1,2.1-2.1l0,0c1.1,0,2.1,0.9,2.1,2.1v84.3"/>
		</g>
		<path class="st6" d="M-56.5,505.3c0,1.1-0.9,2.1-2.1,2.1l0,0c-1.1,0-2.1-0.9-2.1-2.1v-26.6c0-1.1,0.9-2.1,2.1-2.1l0,0
			c1.1,0,2.1,0.9,2.1,2.1V505.3z"/>
		<path class="st5" d="M-58.6,363.8v31.5c0,0-10.3-2.4-10.3-11.3C-68.8,375.1-58.6,363.8-58.6,363.8z"/>
		<path class="st4" d="M-58.6,363.8v31.5c0,0,10.3-2.4,10.3-11.3C-48.3,375.1-58.6,363.8-58.6,363.8z"/>
		<path class="st5" d="M-80.7,390.2l19.2,19.2c0,0-7.7,4.8-13.2-0.6C-80.1,403.4-80.7,390.2-80.7,390.2z"/>
		<g>
			<path class="st4" d="M-80.7,390.2l19.2,19.2c0,0,4.8-7.7-0.6-13.2C-67.5,390.9-80.7,390.2-80.7,390.2z"/>
			<path class="st4" d="M-36.1,390.2l-19.2,19.2c0,0,7.7,4.8,13.2-0.6C-36.7,403.4-36.1,390.2-36.1,390.2z"/>
		</g>
		<g>
			<path class="st5" d="M-36.1,390.2l-19.2,19.2c0,0-4.8-7.7,0.6-13.2C-49.2,390.9-36.1,390.2-36.1,390.2z"/>
			<path class="st5" d="M-80.7,410.4l19.2,19.2c0,0-7.7,4.8-13.2-0.6C-80.1,423.5-80.7,410.4-80.7,410.4z"/>
		</g>
		<g>
			<path class="st4" d="M-80.7,410.4l19.2,19.2c0,0,4.8-7.7-0.6-13.2C-67.5,411-80.7,410.4-80.7,410.4z"/>
			<path class="st4" d="M-36.1,410.4l-19.2,19.2c0,0,7.7,4.8,13.2-0.6C-36.7,423.5-36.1,410.4-36.1,410.4z"/>
		</g>
		<g>
			<path class="st5" d="M-36.1,410.4l-19.2,19.2c0,0-4.8-7.7,0.6-13.2C-49.2,411-36.1,410.4-36.1,410.4z"/>
			<path class="st5" d="M-80.7,430.5l19.2,19.2c0,0-7.7,4.8-13.2-0.6C-80.1,443.6-80.7,430.5-80.7,430.5z"/>
		</g>
		<g>
			<path class="st4" d="M-80.7,430.5l19.2,19.2c0,0,4.8-7.7-0.6-13.2C-67.5,431.1-80.7,430.5-80.7,430.5z"/>
			<path class="st4" d="M-36.1,430.5l-19.2,19.2c0,0,7.7,4.8,13.2-0.6C-36.7,443.6-36.1,430.5-36.1,430.5z"/>
		</g>
		<g>
			<path class="st5" d="M-36.1,430.5l-19.2,19.2c0,0-4.8-7.7,0.6-13.2C-49.2,431.1-36.1,430.5-36.1,430.5z"/>
			<path class="st5" d="M-80.7,450.6l19.2,19.2c0,0-7.7,4.8-13.2-0.6C-80.1,463.7-80.7,450.6-80.7,450.6z"/>
		</g>
		<g>
			<path class="st4" d="M-80.7,450.6l19.2,19.2c0,0,4.8-7.7-0.6-13.2C-67.5,451.2-80.7,450.6-80.7,450.6z"/>
			<path class="st4" d="M-36.1,450.6l-19.2,19.2c0,0,7.7,4.8,13.2-0.6S-36.1,450.6-36.1,450.6z"/>
		</g>
		<path class="st5" d="M-36.1,450.6l-19.2,19.2c0,0-4.8-7.7,0.6-13.2C-49.2,451.2-36.1,450.6-36.1,450.6z"/>
		<path class="st6" d="M-56.6,496.3c0,0,2.7-17.9,14-16.4c11.4,1.5,12.6-12.4,12.6-12.4s0,13-11.1,18.6
			c-11.1,5.6-11.7,15.8-15.5,15.7C-60.5,501.6-56.6,496.3-56.6,496.3z"/>
	</g>
	<g>
		<path class="st4" d="M-30.2,460.4c0,1.1-0.9,2.1-2.1,2.1l0,0c-1.1,0-2.1-0.9-2.1-2.1v-84.3c0-1.1,0.9-2.1,2.1-2.1l0,0
			c1.1,0,2.1,0.9,2.1,2.1V460.4z"/>
		<g>
			<path class="st5" d="M-34.4,376.2c0-1.1,0.9-2.1,2.1-2.1l0,0c1.1,0,2.1,0.9,2.1,2.1v84.3"/>
		</g>
		<path class="st6" d="M-30.2,487.6c0,1.1-0.9,2.1-2.1,2.1l0,0c-1.1,0-2.1-0.9-2.1-2.1V461c0-1.1,0.9-2.1,2.1-2.1l0,0
			c1.1,0,2.1,0.9,2.1,2.1V487.6z"/>
		<path class="st5" d="M-32.3,346.1v31.5c0,0-10.3-2.4-10.3-11.3C-42.6,357.4-32.3,346.1-32.3,346.1z"/>
		<path class="st4" d="M-32.3,346.1v31.5c0,0,10.3-2.4,10.3-11.3C-22,357.4-32.3,346.1-32.3,346.1z"/>
		<path class="st5" d="M-54.4,372.6l19.2,19.2c0,0-7.7,4.8-13.2-0.6C-53.8,385.7-54.4,372.6-54.4,372.6z"/>
		<g>
			<path class="st4" d="M-54.4,372.6l19.2,19.2c0,0,4.8-7.7-0.6-13.2C-41.3,373.2-54.4,372.6-54.4,372.6z"/>
			<path class="st4" d="M-9.8,372.6L-29,391.8c0,0,7.7,4.8,13.2-0.6C-10.4,385.7-9.8,372.6-9.8,372.6z"/>
		</g>
		<g>
			<path class="st5" d="M-9.8,372.6L-29,391.8c0,0-4.8-7.7,0.6-13.2C-22.9,373.2-9.8,372.6-9.8,372.6z"/>
			<path class="st5" d="M-54.4,392.7l19.2,19.2c0,0-7.7,4.8-13.2-0.6C-53.8,405.8-54.4,392.7-54.4,392.7z"/>
		</g>
		<g>
			<path class="st4" d="M-54.4,392.7l19.2,19.2c0,0,4.8-7.7-0.6-13.2C-41.3,393.3-54.4,392.7-54.4,392.7z"/>
			<path class="st4" d="M-9.8,392.7L-29,411.9c0,0,7.7,4.8,13.2-0.6C-10.4,405.8-9.8,392.7-9.8,392.7z"/>
		</g>
		<g>
			<path class="st5" d="M-9.8,392.7L-29,411.9c0,0-4.8-7.7,0.6-13.2C-22.9,393.3-9.8,392.7-9.8,392.7z"/>
			<path class="st5" d="M-54.4,412.8l19.2,19.2c0,0-7.7,4.8-13.2-0.6C-53.8,426-54.4,412.8-54.4,412.8z"/>
		</g>
		<g>
			<path class="st4" d="M-54.4,412.8l19.2,19.2c0,0,4.8-7.7-0.6-13.2C-41.3,413.4-54.4,412.8-54.4,412.8z"/>
			<path class="st4" d="M-9.8,412.8L-29,432c0,0,7.7,4.8,13.2-0.6C-10.4,426-9.8,412.8-9.8,412.8z"/>
		</g>
		<g>
			<path class="st5" d="M-9.8,412.8L-29,432c0,0-4.8-7.7,0.6-13.2C-22.9,413.4-9.8,412.8-9.8,412.8z"/>
			<path class="st5" d="M-54.4,432.9l19.2,19.2c0,0-7.7,4.8-13.2-0.6C-53.8,446.1-54.4,432.9-54.4,432.9z"/>
		</g>
		<g>
			<path class="st4" d="M-54.4,432.9l19.2,19.2c0,0,4.8-7.7-0.6-13.2C-41.3,433.5-54.4,432.9-54.4,432.9z"/>
			<path class="st4" d="M-9.8,432.9L-29,452.1c0,0,7.7,4.8,13.2-0.6S-9.8,432.9-9.8,432.9z"/>
		</g>
		<path class="st5" d="M-9.8,432.9L-29,452.1c0,0-4.8-7.7,0.6-13.2C-22.9,433.5-9.8,432.9-9.8,432.9z"/>
		<path class="st6" d="M-30.4,478.6c0,0,2.7-17.9,14-16.4c11.4,1.5,12.6-12.4,12.6-12.4s0,13-11.1,18.6
			c-11.1,5.6-11.7,15.8-15.5,15.7C-34.2,483.9-30.4,478.6-30.4,478.6z"/>
	</g>
	<g>
		<path class="st4" d="M-3.9,446.7c0,1.1-0.9,2.1-2.1,2.1l0,0c-1.1,0-2.1-0.9-2.1-2.1v-84.3c0-1.1,0.9-2.1,2.1-2.1l0,0
			c1.1,0,2.1,0.9,2.1,2.1V446.7z"/>
		<g>
			<path class="st5" d="M-8.1,362.4c0-1.1,0.9-2.1,2.1-2.1l0,0c1.1,0,2.1,0.9,2.1,2.1v84.3"/>
		</g>
		<path class="st6" d="M-3.9,473.9c0,1.1-0.9,2.1-2.1,2.1l0,0c-1.1,0-2.1-0.9-2.1-2.1v-26.6c0-1.1,0.9-2.1,2.1-2.1l0,0
			c1.1,0,2.1,0.9,2.1,2.1V473.9z"/>
		<path class="st5" d="M-6,332.3v31.5c0,0-10.3-2.4-10.3-11.3C-16.3,343.7-6,332.3-6,332.3z"/>
		<path class="st4" d="M-6,332.3v31.5c0,0,10.3-2.4,10.3-11.3C4.3,343.7-6,332.3-6,332.3z"/>
		<path class="st5" d="M-28.1,358.8L-8.9,378c0,0-7.7,4.8-13.2-0.6C-27.5,372-28.1,358.8-28.1,358.8z"/>
		<g>
			<path class="st4" d="M-28.1,358.8L-8.9,378c0,0,4.8-7.7-0.6-13.2C-15,359.4-28.1,358.8-28.1,358.8z"/>
			<path class="st4" d="M16.5,358.8L-2.7,378c0,0,7.7,4.8,13.2-0.6C15.9,372,16.5,358.8,16.5,358.8z"/>
		</g>
		<g>
			<path class="st5" d="M16.5,358.8L-2.7,378c0,0-4.8-7.7,0.6-13.2C3.3,359.4,16.5,358.8,16.5,358.8z"/>
			<path class="st5" d="M-28.1,378.9l19.2,19.2c0,0-7.7,4.8-13.2-0.6C-27.5,392.1-28.1,378.9-28.1,378.9z"/>
		</g>
		<g>
			<path class="st4" d="M-28.1,378.9l19.2,19.2c0,0,4.8-7.7-0.6-13.2C-15,379.5-28.1,378.9-28.1,378.9z"/>
			<path class="st4" d="M16.5,378.9l-19.2,19.2c0,0,7.7,4.8,13.2-0.6C15.9,392.1,16.5,378.9,16.5,378.9z"/>
		</g>
		<g>
			<path class="st5" d="M16.5,378.9l-19.2,19.2c0,0-4.8-7.7,0.6-13.2C3.3,379.5,16.5,378.9,16.5,378.9z"/>
			<path class="st5" d="M-28.1,399l19.2,19.2c0,0-7.7,4.8-13.2-0.6C-27.5,412.2-28.1,399-28.1,399z"/>
		</g>
		<g>
			<path class="st4" d="M-28.1,399l19.2,19.2c0,0,4.8-7.7-0.6-13.2C-15,399.6-28.1,399-28.1,399z"/>
			<path class="st4" d="M16.5,399l-19.2,19.2c0,0,7.7,4.8,13.2-0.6C15.9,412.2,16.5,399,16.5,399z"/>
		</g>
		<g>
			<path class="st5" d="M16.5,399l-19.2,19.2c0,0-4.8-7.7,0.6-13.2C3.3,399.6,16.5,399,16.5,399z"/>
			<path class="st5" d="M-28.1,419.1l19.2,19.2c0,0-7.7,4.8-13.2-0.6C-27.5,432.3-28.1,419.1-28.1,419.1z"/>
		</g>
		<g>
			<path class="st4" d="M-28.1,419.1l19.2,19.2c0,0,4.8-7.7-0.6-13.2C-15,419.8-28.1,419.1-28.1,419.1z"/>
			<path class="st4" d="M16.5,419.1l-19.2,19.2c0,0,7.7,4.8,13.2-0.6S16.5,419.1,16.5,419.1z"/>
		</g>
		<path class="st5" d="M16.5,419.1l-19.2,19.2c0,0-4.8-7.7,0.6-13.2C3.3,419.8,16.5,419.1,16.5,419.1z"/>
		<path class="st6" d="M-4.1,464.9c0,0,2.7-17.9,14-16.4c11.4,1.5,12.6-12.4,12.6-12.4s0,13-11.1,18.6s-11.7,15.8-15.5,15.7
			C-7.9,470.2-4.1,464.9-4.1,464.9z"/>
	</g>
</g>
<g>
	<g>
		<path class="st4" d="M-83.1,555.6c0,1.1-0.9,2.1-2.1,2.1l0,0c-1.1,0-2.1-0.9-2.1-2.1v-84.3c0-1.1,0.9-2.1,2.1-2.1l0,0
			c1.1,0,2.1,0.9,2.1,2.1V555.6z"/>
		<g>
			<path class="st5" d="M-87.2,471.3c0-1.1,0.9-2.1,2.1-2.1l0,0c1.1,0,2.1,0.9,2.1,2.1v84.3"/>
		</g>
		<path class="st6" d="M-83.1,582.8c0,1.1-0.9,2.1-2.1,2.1l0,0c-1.1,0-2.1-0.9-2.1-2.1v-26.6c0-1.1,0.9-2.1,2.1-2.1l0,0
			c1.1,0,2.1,0.9,2.1,2.1V582.8z"/>
		<path class="st5" d="M-85.1,441.2v31.5c0,0-10.3-2.4-10.3-11.3C-95.4,452.6-85.1,441.2-85.1,441.2z"/>
		<path class="st4" d="M-85.1,441.2v31.5c0,0,10.3-2.4,10.3-11.3C-74.9,452.6-85.1,441.2-85.1,441.2z"/>
		<path class="st5" d="M-107.3,467.7l19.2,19.2c0,0-7.7,4.8-13.2-0.6C-106.6,480.9-107.3,467.7-107.3,467.7z"/>
		<g>
			<path class="st4" d="M-107.3,467.7l19.2,19.2c0,0,4.8-7.7-0.6-13.2C-94.1,468.3-107.3,467.7-107.3,467.7z"/>
			<path class="st4" d="M-62.6,467.7l-19.2,19.2c0,0,7.7,4.8,13.2-0.6C-63.2,480.9-62.6,467.7-62.6,467.7z"/>
		</g>
		<g>
			<path class="st5" d="M-62.6,467.7l-19.2,19.2c0,0-4.8-7.7,0.6-13.2C-75.8,468.3-62.6,467.7-62.6,467.7z"/>
			<path class="st5" d="M-107.3,487.8L-88,507c0,0-7.7,4.8-13.2-0.6C-106.6,501-107.3,487.8-107.3,487.8z"/>
		</g>
		<g>
			<path class="st4" d="M-107.3,487.8L-88,507c0,0,4.8-7.7-0.6-13.2C-94.1,488.4-107.3,487.8-107.3,487.8z"/>
			<path class="st4" d="M-62.6,487.8L-81.9,507c0,0,7.7,4.8,13.2-0.6C-63.2,501-62.6,487.8-62.6,487.8z"/>
		</g>
		<g>
			<path class="st5" d="M-62.6,487.8L-81.9,507c0,0-4.8-7.7,0.6-13.2C-75.8,488.4-62.6,487.8-62.6,487.8z"/>
			<path class="st5" d="M-107.3,507.9l19.2,19.2c0,0-7.7,4.8-13.2-0.6C-106.6,521.1-107.3,507.9-107.3,507.9z"/>
		</g>
		<g>
			<path class="st4" d="M-107.3,507.9l19.2,19.2c0,0,4.8-7.7-0.6-13.2C-94.1,508.5-107.3,507.9-107.3,507.9z"/>
			<path class="st4" d="M-62.6,507.9l-19.2,19.2c0,0,7.7,4.8,13.2-0.6C-63.2,521.1-62.6,507.9-62.6,507.9z"/>
		</g>
		<g>
			<path class="st5" d="M-62.6,507.9l-19.2,19.2c0,0-4.8-7.7,0.6-13.2C-75.8,508.5-62.6,507.9-62.6,507.9z"/>
			<path class="st5" d="M-107.3,528l19.2,19.2c0,0-7.7,4.8-13.2-0.6C-106.6,541.2-107.3,528-107.3,528z"/>
		</g>
		<g>
			<path class="st4" d="M-107.3,528l19.2,19.2c0,0,4.8-7.7-0.6-13.2C-94.1,528.6-107.3,528-107.3,528z"/>
			<path class="st4" d="M-62.6,528l-19.2,19.2c0,0,7.7,4.8,13.2-0.6C-63.2,541.2-62.6,528-62.6,528z"/>
		</g>
		<path class="st5" d="M-62.6,528l-19.2,19.2c0,0-4.8-7.7,0.6-13.2C-75.8,528.6-62.6,528-62.6,528z"/>
		<path class="st6" d="M-83.2,573.8c0,0,2.7-17.9,14-16.4c11.4,1.5,12.6-12.4,12.6-12.4s0,13-11.1,18.6s-11.7,15.8-15.5,15.7
			C-87.1,579.1-83.2,573.8-83.2,573.8z"/>
	</g>
	<g>
		<path class="st4" d="M77.4,461.4c0,1.1-0.9,2.1-2.1,2.1l0,0c-1.1,0-2.1-0.9-2.1-2.1v-84.3c0-1.1,0.9-2.1,2.1-2.1l0,0
			c1.1,0,2.1,0.9,2.1,2.1V461.4z"/>
		<g>
			<path class="st5" d="M73.3,377.2c0-1.1,0.9-2.1,2.1-2.1l0,0c1.1,0,2.1,0.9,2.1,2.1v84.3"/>
		</g>
		<path class="st6" d="M77.4,488.6c0,1.1-0.9,2.1-2.1,2.1l0,0c-1.1,0-2.1-0.9-2.1-2.1V462c0-1.1,0.9-2.1,2.1-2.1l0,0
			c1.1,0,2.1,0.9,2.1,2.1V488.6z"/>
		<path class="st5" d="M75.4,347.1v31.5c0,0-10.3-2.4-10.3-11.3C65.1,358.4,75.4,347.1,75.4,347.1z"/>
		<path class="st4" d="M75.4,347.1v31.5c0,0,10.3-2.4,10.3-11.3C85.6,358.4,75.4,347.1,75.4,347.1z"/>
		<path class="st5" d="M53.2,373.5l19.2,19.2c0,0-7.7,4.8-13.2-0.6C53.8,386.7,53.2,373.5,53.2,373.5z"/>
		<g>
			<path class="st4" d="M53.2,373.5l19.2,19.2c0,0,4.8-7.7-0.6-13.2C66.4,374.2,53.2,373.5,53.2,373.5z"/>
			<path class="st4" d="M97.9,373.5l-19.2,19.2c0,0,7.7,4.8,13.2-0.6C97.3,386.7,97.9,373.5,97.9,373.5z"/>
		</g>
		<g>
			<path class="st5" d="M97.9,373.5l-19.2,19.2c0,0-4.8-7.7,0.6-13.2C84.7,374.2,97.9,373.5,97.9,373.5z"/>
			<path class="st5" d="M53.2,393.7l19.2,19.2c0,0-7.7,4.8-13.2-0.6C53.8,406.8,53.2,393.7,53.2,393.7z"/>
		</g>
		<g>
			<path class="st4" d="M53.2,393.7l19.2,19.2c0,0,4.8-7.7-0.6-13.2C66.4,394.3,53.2,393.7,53.2,393.7z"/>
			<path class="st4" d="M97.9,393.7l-19.2,19.2c0,0,7.7,4.8,13.2-0.6C97.3,406.8,97.9,393.7,97.9,393.7z"/>
		</g>
		<g>
			<path class="st5" d="M97.9,393.7l-19.2,19.2c0,0-4.8-7.7,0.6-13.2C84.7,394.3,97.9,393.7,97.9,393.7z"/>
			<path class="st5" d="M53.2,413.8L72.5,433c0,0-7.7,4.8-13.2-0.6C53.8,426.9,53.2,413.8,53.2,413.8z"/>
		</g>
		<g>
			<path class="st4" d="M53.2,413.8L72.5,433c0,0,4.8-7.7-0.6-13.2C66.4,414.4,53.2,413.8,53.2,413.8z"/>
			<path class="st4" d="M97.9,413.8L78.6,433c0,0,7.7,4.8,13.2-0.6C97.3,426.9,97.9,413.8,97.9,413.8z"/>
		</g>
		<g>
			<path class="st5" d="M97.9,413.8L78.6,433c0,0-4.8-7.7,0.6-13.2C84.7,414.4,97.9,413.8,97.9,413.8z"/>
			<path class="st5" d="M53.2,433.9l19.2,19.2c0,0-7.7,4.8-13.2-0.6C53.8,447,53.2,433.9,53.2,433.9z"/>
		</g>
		<g>
			<path class="st4" d="M53.2,433.9l19.2,19.2c0,0,4.8-7.7-0.6-13.2C66.4,434.5,53.2,433.9,53.2,433.9z"/>
			<path class="st4" d="M97.9,433.9l-19.2,19.2c0,0,7.7,4.8,13.2-0.6C97.2,447,97.9,433.9,97.9,433.9z"/>
		</g>
		<path class="st5" d="M97.9,433.9l-19.2,19.2c0,0-4.8-7.7,0.6-13.2C84.7,434.5,97.9,433.9,97.9,433.9z"/>
		<path class="st6" d="M77.3,479.6c0,0,2.7-17.9,14-16.4c11.4,1.5,12.6-12.4,12.6-12.4s0,13-11.1,18.6s-11.7,15.8-15.5,15.7
			C73.4,484.9,77.3,479.6,77.3,479.6z"/>
	</g>
	<g>
		<path class="st4" d="M-56.8,538.8c0,1.1-0.9,2.1-2.1,2.1l0,0c-1.1,0-2.1-0.9-2.1-2.1v-84.3c0-1.1,0.9-2.1,2.1-2.1l0,0
			c1.1,0,2.1,0.9,2.1,2.1V538.8z"/>
		<g>
			<path class="st5" d="M-60.9,454.6c0-1.1,0.9-2.1,2.1-2.1l0,0c1.1,0,2.1,0.9,2.1,2.1v84.3"/>
		</g>
		<path class="st6" d="M-56.8,566c0,1.1-0.9,2.1-2.1,2.1l0,0c-1.1,0-2.1-0.9-2.1-2.1v-26.6c0-1.1,0.9-2.1,2.1-2.1l0,0
			c1.1,0,2.1,0.9,2.1,2.1V566z"/>
		<path class="st5" d="M-58.9,424.5V456c0,0-10.3-2.4-10.3-11.3C-69.1,435.8-58.9,424.5-58.9,424.5z"/>
		<path class="st4" d="M-58.9,424.5V456c0,0,10.3-2.4,10.3-11.3C-48.6,435.8-58.9,424.5-58.9,424.5z"/>
		<path class="st5" d="M-81,451l19.2,19.2c0,0-7.7,4.8-13.2-0.6C-80.4,464.1-81,451-81,451z"/>
		<g>
			<path class="st4" d="M-81,451l19.2,19.2c0,0,4.8-7.7-0.6-13.2C-67.8,451.6-81,451-81,451z"/>
			<path class="st4" d="M-36.3,451l-19.2,19.2c0,0,7.7,4.8,13.2-0.6C-37,464.1-36.3,451-36.3,451z"/>
		</g>
		<g>
			<path class="st5" d="M-36.3,451l-19.2,19.2c0,0-4.8-7.7,0.6-13.2C-49.5,451.6-36.3,451-36.3,451z"/>
			<path class="st5" d="M-81,471.1l19.2,19.2c0,0-7.7,4.8-13.2-0.6C-80.4,484.2-81,471.1-81,471.1z"/>
		</g>
		<g>
			<path class="st4" d="M-81,471.1l19.2,19.2c0,0,4.8-7.7-0.6-13.2C-67.8,471.7-81,471.1-81,471.1z"/>
			<path class="st4" d="M-36.3,471.1l-19.2,19.2c0,0,7.7,4.8,13.2-0.6C-37,484.2-36.3,471.1-36.3,471.1z"/>
		</g>
		<g>
			<path class="st5" d="M-36.3,471.1l-19.2,19.2c0,0-4.8-7.7,0.6-13.2C-49.5,471.7-36.3,471.1-36.3,471.1z"/>
			<path class="st5" d="M-81,491.2l19.2,19.2c0,0-7.7,4.8-13.2-0.6C-80.4,504.4-81,491.2-81,491.2z"/>
		</g>
		<g>
			<path class="st4" d="M-81,491.2l19.2,19.2c0,0,4.8-7.7-0.6-13.2C-67.8,491.8-81,491.2-81,491.2z"/>
			<path class="st4" d="M-36.3,491.2l-19.2,19.2c0,0,7.7,4.8,13.2-0.6C-37,504.4-36.3,491.2-36.3,491.2z"/>
		</g>
		<g>
			<path class="st5" d="M-36.3,491.2l-19.2,19.2c0,0-4.8-7.7,0.6-13.2C-49.5,491.8-36.3,491.2-36.3,491.2z"/>
			<path class="st5" d="M-81,511.3l19.2,19.2c0,0-7.7,4.8-13.2-0.6C-80.4,524.5-81,511.3-81,511.3z"/>
		</g>
		<g>
			<path class="st4" d="M-81,511.3l19.2,19.2c0,0,4.8-7.7-0.6-13.2C-67.8,511.9-81,511.3-81,511.3z"/>
			<path class="st4" d="M-36.3,511.3l-19.2,19.2c0,0,7.7,4.8,13.2-0.6C-37,524.5-36.3,511.3-36.3,511.3z"/>
		</g>
		<path class="st5" d="M-36.3,511.3l-19.2,19.2c0,0-4.8-7.7,0.6-13.2C-49.5,511.9-36.3,511.3-36.3,511.3z"/>
		<path class="st6" d="M-56.9,557c0,0,2.7-17.9,14-16.4c11.4,1.5,12.6-12.4,12.6-12.4s0,13-11.1,18.6c-11.1,5.6-11.7,15.8-15.5,15.7
			C-60.8,562.3-56.9,557-56.9,557z"/>
	</g>
	<g>
		<path class="st4" d="M-29.5,523.2c0,1.1-0.9,2.1-2.1,2.1l0,0c-1.1,0-2.1-0.9-2.1-2.1v-84.3c0-1.1,0.9-2.1,2.1-2.1l0,0
			c1.1,0,2.1,0.9,2.1,2.1V523.2z"/>
		<g>
			<path class="st5" d="M-33.6,438.9c0-1.1,0.9-2.1,2.1-2.1l0,0c1.1,0,2.1,0.9,2.1,2.1v84.3"/>
		</g>
		<path class="st6" d="M-29.5,550.4c0,1.1-0.9,2.1-2.1,2.1l0,0c-1.1,0-2.1-0.9-2.1-2.1v-26.6c0-1.1,0.9-2.1,2.1-2.1l0,0
			c1.1,0,2.1,0.9,2.1,2.1V550.4z"/>
		<path class="st5" d="M-31.6,408.9v31.5c0,0-10.3-2.4-10.3-11.3C-41.9,420.2-31.6,408.9-31.6,408.9z"/>
		<path class="st4" d="M-31.6,408.9v31.5c0,0,10.3-2.4,10.3-11.3C-21.3,420.2-31.6,408.9-31.6,408.9z"/>
		<path class="st5" d="M-53.7,435.3l19.2,19.2c0,0-7.7,4.8-13.2-0.6C-53.1,448.5-53.7,435.3-53.7,435.3z"/>
		<g>
			<path class="st4" d="M-53.7,435.3l19.2,19.2c0,0,4.8-7.7-0.6-13.2C-40.5,436-53.7,435.3-53.7,435.3z"/>
			<path class="st4" d="M-9.1,435.3l-19.2,19.2c0,0,7.7,4.8,13.2-0.6C-9.7,448.5-9.1,435.3-9.1,435.3z"/>
		</g>
		<g>
			<path class="st5" d="M-9.1,435.3l-19.2,19.2c0,0-4.8-7.7,0.6-13.2C-22.2,436-9.1,435.3-9.1,435.3z"/>
			<path class="st5" d="M-53.7,455.5l19.2,19.2c0,0-7.7,4.8-13.2-0.6C-53.1,468.6-53.7,455.5-53.7,455.5z"/>
		</g>
		<g>
			<path class="st4" d="M-53.7,455.5l19.2,19.2c0,0,4.8-7.7-0.6-13.2C-40.5,456.1-53.7,455.5-53.7,455.5z"/>
			<path class="st4" d="M-9.1,455.5l-19.2,19.2c0,0,7.7,4.8,13.2-0.6C-9.7,468.6-9.1,455.5-9.1,455.5z"/>
		</g>
		<g>
			<path class="st5" d="M-9.1,455.5l-19.2,19.2c0,0-4.8-7.7,0.6-13.2C-22.2,456.1-9.1,455.5-9.1,455.5z"/>
			<path class="st5" d="M-53.7,475.6l19.2,19.2c0,0-7.7,4.8-13.2-0.6C-53.1,488.7-53.7,475.6-53.7,475.6z"/>
		</g>
		<g>
			<path class="st4" d="M-53.7,475.6l19.2,19.2c0,0,4.8-7.7-0.6-13.2C-40.5,476.2-53.7,475.6-53.7,475.6z"/>
			<path class="st4" d="M-9.1,475.6l-19.2,19.2c0,0,7.7,4.8,13.2-0.6C-9.7,488.7-9.1,475.6-9.1,475.6z"/>
		</g>
		<g>
			<path class="st5" d="M-9.1,475.6l-19.2,19.2c0,0-4.8-7.7,0.6-13.2C-22.2,476.2-9.1,475.6-9.1,475.6z"/>
			<path class="st5" d="M-53.7,495.7l19.2,19.2c0,0-7.7,4.8-13.2-0.6C-53.1,508.8-53.7,495.7-53.7,495.7z"/>
		</g>
		<g>
			<path class="st4" d="M-53.7,495.7l19.2,19.2c0,0,4.8-7.7-0.6-13.2C-40.5,496.3-53.7,495.7-53.7,495.7z"/>
			<path class="st4" d="M-9.1,495.7l-19.2,19.2c0,0,7.7,4.8,13.2-0.6C-9.7,508.8-9.1,495.7-9.1,495.7z"/>
		</g>
		<path class="st5" d="M-9.1,495.7l-19.2,19.2c0,0-4.8-7.7,0.6-13.2C-22.2,496.3-9.1,495.7-9.1,495.7z"/>
		<path class="st6" d="M-29.7,541.4c0,0,2.7-17.9,14-16.4C-4.2,526.5-3,512.6-3,512.6s0,13-11.1,18.6s-11.7,15.8-15.5,15.7
			C-33.5,546.7-29.7,541.4-29.7,541.4z"/>
	</g>
	<g>
		<path class="st4" d="M-3.1,508.6c0,1.1-0.9,2.1-2.1,2.1l0,0c-1.1,0-2.1-0.9-2.1-2.1v-84.3c0-1.1,0.9-2.1,2.1-2.1l0,0
			c1.1,0,2.1,0.9,2.1,2.1V508.6z"/>
		<g>
			<path class="st5" d="M-7.2,424.3c0-1.1,0.9-2.1,2.1-2.1l0,0c1.1,0,2.1,0.9,2.1,2.1v84.3"/>
		</g>
		<path class="st6" d="M-3.1,535.8c0,1.1-0.9,2.1-2.1,2.1l0,0c-1.1,0-2.1-0.9-2.1-2.1v-26.6c0-1.1,0.9-2.1,2.1-2.1l0,0
			c1.1,0,2.1,0.9,2.1,2.1V535.8z"/>
		<path class="st5" d="M-5.2,394.3v31.5c0,0-10.3-2.4-10.3-11.3C-15.4,405.6-5.2,394.3-5.2,394.3z"/>
		<path class="st4" d="M-5.2,394.3v31.5c0,0,10.3-2.4,10.3-11.3C5.1,405.6-5.2,394.3-5.2,394.3z"/>
		<path class="st5" d="M-27.3,420.7L-8.1,440c0,0-7.7,4.8-13.2-0.6C-26.7,433.9-27.3,420.7-27.3,420.7z"/>
		<g>
			<path class="st4" d="M-27.3,420.7L-8.1,440c0,0,4.8-7.7-0.6-13.2C-14.1,421.4-27.3,420.7-27.3,420.7z"/>
			<path class="st4" d="M17.4,420.7L-1.9,440c0,0,7.7,4.8,13.2-0.6C16.7,433.9,17.4,420.7,17.4,420.7z"/>
		</g>
		<g>
			<path class="st5" d="M17.4,420.7L-1.9,440c0,0-4.8-7.7,0.6-13.2C4.2,421.4,17.4,420.7,17.4,420.7z"/>
			<path class="st5" d="M-27.3,440.8l19.2,19.2c0,0-7.7,4.8-13.2-0.6C-26.7,454-27.3,440.8-27.3,440.8z"/>
		</g>
		<g>
			<path class="st4" d="M-27.3,440.8l19.2,19.2c0,0,4.8-7.7-0.6-13.2C-14.1,441.5-27.3,440.8-27.3,440.8z"/>
			<path class="st4" d="M17.4,440.8l-19.2,19.2c0,0,7.7,4.8,13.2-0.6C16.7,454,17.4,440.8,17.4,440.8z"/>
		</g>
		<g>
			<path class="st5" d="M17.4,440.8l-19.2,19.2c0,0-4.8-7.7,0.6-13.2C4.2,441.5,17.4,440.8,17.4,440.8z"/>
			<path class="st5" d="M-27.3,460.9l19.2,19.2c0,0-7.7,4.8-13.2-0.6C-26.7,474.1-27.3,460.9-27.3,460.9z"/>
		</g>
		<g>
			<path class="st4" d="M-27.3,460.9l19.2,19.2c0,0,4.8-7.7-0.6-13.2C-14.1,461.6-27.3,460.9-27.3,460.9z"/>
			<path class="st4" d="M17.4,460.9l-19.2,19.2c0,0,7.7,4.8,13.2-0.6C16.7,474.1,17.4,460.9,17.4,460.9z"/>
		</g>
		<g>
			<path class="st5" d="M17.4,460.9l-19.2,19.2c0,0-4.8-7.7,0.6-13.2C4.2,461.6,17.4,460.9,17.4,460.9z"/>
			<path class="st5" d="M-27.3,481l19.2,19.2c0,0-7.7,4.8-13.2-0.6C-26.7,494.2-27.3,481-27.3,481z"/>
		</g>
		<g>
			<path class="st4" d="M-27.3,481l19.2,19.2c0,0,4.8-7.7-0.6-13.2C-14.1,481.7-27.3,481-27.3,481z"/>
			<path class="st4" d="M17.4,481l-19.2,19.2c0,0,7.7,4.8,13.2-0.6S17.4,481,17.4,481z"/>
		</g>
		<path class="st5" d="M17.4,481l-19.2,19.2c0,0-4.8-7.7,0.6-13.2C4.2,481.7,17.4,481,17.4,481z"/>
		<path class="st6" d="M-3.2,526.8c0,0,2.7-17.9,14-16.4c11.4,1.5,12.6-12.4,12.6-12.4s0,13-11.1,18.6
			c-11.1,5.6-11.7,15.8-15.5,15.7C-7.1,532.1-3.2,526.8-3.2,526.8z"/>
	</g>
	<g>
		<path class="st4" d="M23.2,490.9c0,1.1-0.9,2.1-2.1,2.1l0,0c-1.1,0-2.1-0.9-2.1-2.1v-84.3c0-1.1,0.9-2.1,2.1-2.1l0,0
			c1.1,0,2.1,0.9,2.1,2.1V490.9z"/>
		<g>
			<path class="st5" d="M19,406.7c0-1.1,0.9-2.1,2.1-2.1l0,0c1.1,0,2.1,0.9,2.1,2.1v84.3"/>
		</g>
		<path class="st6" d="M23.2,518.1c0,1.1-0.9,2.1-2.1,2.1l0,0c-1.1,0-2.1-0.9-2.1-2.1v-26.6c0-1.1,0.9-2.1,2.1-2.1l0,0
			c1.1,0,2.1,0.9,2.1,2.1V518.1z"/>
		<path class="st5" d="M21.1,376.6v31.5c0,0-10.3-2.4-10.3-11.3C10.8,387.9,21.1,376.6,21.1,376.6z"/>
		<path class="st4" d="M21.1,376.6v31.5c0,0,10.3-2.4,10.3-11.3C31.4,387.9,21.1,376.6,21.1,376.6z"/>
		<path class="st5" d="M-1,403.1l19.2,19.2c0,0-7.7,4.8-13.2-0.6C-0.4,416.2-1,403.1-1,403.1z"/>
		<g>
			<path class="st4" d="M-1,403.1l19.2,19.2c0,0,4.8-7.7-0.6-13.2C12.2,403.7-1,403.1-1,403.1z"/>
			<path class="st4" d="M43.6,403.1l-19.2,19.2c0,0,7.7,4.8,13.2-0.6C43,416.2,43.6,403.1,43.6,403.1z"/>
		</g>
		<g>
			<path class="st5" d="M43.6,403.1l-19.2,19.2c0,0-4.8-7.7,0.6-13.2C30.5,403.7,43.6,403.1,43.6,403.1z"/>
			<path class="st5" d="M-1,423.2l19.2,19.2c0,0-7.7,4.8-13.2-0.6C-0.4,436.3-1,423.2-1,423.2z"/>
		</g>
		<g>
			<path class="st4" d="M-1,423.2l19.2,19.2c0,0,4.8-7.7-0.6-13.2C12.2,423.8-1,423.2-1,423.2z"/>
			<path class="st4" d="M43.6,423.2l-19.2,19.2c0,0,7.7,4.8,13.2-0.6C43,436.3,43.6,423.2,43.6,423.2z"/>
		</g>
		<g>
			<path class="st5" d="M43.6,423.2l-19.2,19.2c0,0-4.8-7.7,0.6-13.2C30.5,423.8,43.6,423.2,43.6,423.2z"/>
			<path class="st5" d="M-1,443.3l19.2,19.2c0,0-7.7,4.8-13.2-0.6C-0.4,456.4-1,443.3-1,443.3z"/>
		</g>
		<g>
			<path class="st4" d="M-1,443.3l19.2,19.2c0,0,4.8-7.7-0.6-13.2C12.2,443.9-1,443.3-1,443.3z"/>
			<path class="st4" d="M43.6,443.3l-19.2,19.2c0,0,7.7,4.8,13.2-0.6C43,456.4,43.6,443.3,43.6,443.3z"/>
		</g>
		<g>
			<path class="st5" d="M43.6,443.3l-19.2,19.2c0,0-4.8-7.7,0.6-13.2C30.5,443.9,43.6,443.3,43.6,443.3z"/>
			<path class="st5" d="M-1,463.4l19.2,19.2c0,0-7.7,4.8-13.2-0.6C-0.4,476.5-1,463.4-1,463.4z"/>
		</g>
		<g>
			<path class="st4" d="M-1,463.4l19.2,19.2c0,0,4.8-7.7-0.6-13.2C12.2,464-1,463.4-1,463.4z"/>
			<path class="st4" d="M43.6,463.4l-19.2,19.2c0,0,7.7,4.8,13.2-0.6C43,476.5,43.6,463.4,43.6,463.4z"/>
		</g>
		<path class="st5" d="M43.6,463.4l-19.2,19.2c0,0-4.8-7.7,0.6-13.2C30.5,464,43.6,463.4,43.6,463.4z"/>
		<path class="st6" d="M23,509.1c0,0,2.7-17.9,14-16.4c11.4,1.5,12.6-12.4,12.6-12.4s0,13-11.1,18.6S26.9,514.7,23,514.6
			C19.2,514.4,23,509.1,23,509.1z"/>
	</g>
	<g>
		<path class="st4" d="M49.5,477.2c0,1.1-0.9,2.1-2.1,2.1l0,0c-1.1,0-2.1-0.9-2.1-2.1v-84.3c0-1.1,0.9-2.1,2.1-2.1l0,0
			c1.1,0,2.1,0.9,2.1,2.1V477.2z"/>
		<g>
			<path class="st5" d="M45.3,392.9c0-1.1,0.9-2.1,2.1-2.1l0,0c1.1,0,2.1,0.9,2.1,2.1v84.3"/>
		</g>
		<path class="st6" d="M49.5,504.4c0,1.1-0.9,2.1-2.1,2.1l0,0c-1.1,0-2.1-0.9-2.1-2.1v-26.6c0-1.1,0.9-2.1,2.1-2.1l0,0
			c1.1,0,2.1,0.9,2.1,2.1V504.4z"/>
		<path class="st5" d="M47.4,362.8v31.5c0,0-10.3-2.4-10.3-11.3C37.1,374.1,47.4,362.8,47.4,362.8z"/>
		<path class="st4" d="M47.4,362.8v31.5c0,0,10.3-2.4,10.3-11.3C57.7,374.1,47.4,362.8,47.4,362.8z"/>
		<path class="st5" d="M25.3,389.3l19.2,19.2c0,0-7.7,4.8-13.2-0.6C25.9,402.5,25.3,389.3,25.3,389.3z"/>
		<g>
			<path class="st4" d="M25.3,389.3l19.2,19.2c0,0,4.8-7.7-0.6-13.2C38.4,389.9,25.3,389.3,25.3,389.3z"/>
			<path class="st4" d="M69.9,389.3l-19.2,19.2c0,0,7.7,4.8,13.2-0.6C69.3,402.5,69.9,389.3,69.9,389.3z"/>
		</g>
		<g>
			<path class="st5" d="M69.9,389.3l-19.2,19.2c0,0-4.8-7.7,0.6-13.2C56.7,389.9,69.9,389.3,69.9,389.3z"/>
			<path class="st5" d="M25.3,409.4l19.2,19.2c0,0-7.7,4.8-13.2-0.6C25.9,422.6,25.3,409.4,25.3,409.4z"/>
		</g>
		<g>
			<path class="st4" d="M25.3,409.4l19.2,19.2c0,0,4.8-7.7-0.6-13.2C38.4,410,25.3,409.4,25.3,409.4z"/>
			<path class="st4" d="M69.9,409.4l-19.2,19.2c0,0,7.7,4.8,13.2-0.6C69.3,422.6,69.9,409.4,69.9,409.4z"/>
		</g>
		<g>
			<path class="st5" d="M69.9,409.4l-19.2,19.2c0,0-4.8-7.7,0.6-13.2C56.7,410,69.9,409.4,69.9,409.4z"/>
			<path class="st5" d="M25.3,429.5l19.2,19.2c0,0-7.7,4.8-13.2-0.6C25.9,442.7,25.3,429.5,25.3,429.5z"/>
		</g>
		<g>
			<path class="st4" d="M25.3,429.5l19.2,19.2c0,0,4.8-7.7-0.6-13.2C38.4,430.1,25.3,429.5,25.3,429.5z"/>
			<path class="st4" d="M69.9,429.5l-19.2,19.2c0,0,7.7,4.8,13.2-0.6C69.3,442.7,69.9,429.5,69.9,429.5z"/>
		</g>
		<g>
			<path class="st5" d="M69.9,429.5l-19.2,19.2c0,0-4.8-7.7,0.6-13.2C56.7,430.1,69.9,429.5,69.9,429.5z"/>
			<path class="st5" d="M25.3,449.6l19.2,19.2c0,0-7.7,4.8-13.2-0.6C25.9,462.8,25.3,449.6,25.3,449.6z"/>
		</g>
		<g>
			<path class="st4" d="M25.3,449.6l19.2,19.2c0,0,4.8-7.7-0.6-13.2C38.4,450.2,25.3,449.6,25.3,449.6z"/>
			<path class="st4" d="M69.9,449.6l-19.2,19.2c0,0,7.7,4.8,13.2-0.6C69.3,462.8,69.9,449.6,69.9,449.6z"/>
		</g>
		<path class="st5" d="M69.9,449.6l-19.2,19.2c0,0-4.8-7.7,0.6-13.2C56.7,450.2,69.9,449.6,69.9,449.6z"/>
		<path class="st6" d="M49.3,495.3c0,0,2.7-17.9,14-16.4c11.4,1.5,12.6-12.4,12.6-12.4s0,13-11.1,18.6
			c-11.1,5.6-11.7,15.8-15.5,15.7C45.5,500.7,49.3,495.3,49.3,495.3z"/>
	</g>
</g>
<g>
	<g>
		<path class="st4" d="M-27.1,588c0,1.1-0.9,2.1-2.1,2.1l0,0c-1.1,0-2.1-0.9-2.1-2.1v-84.3c0-1.1,0.9-2.1,2.1-2.1l0,0
			c1.1,0,2.1,0.9,2.1,2.1V588z"/>
		<g>
			<path class="st5" d="M-31.2,503.7c0-1.1,0.9-2.1,2.1-2.1l0,0c1.1,0,2.1,0.9,2.1,2.1V588"/>
		</g>
		<path class="st6" d="M-27.1,615.2c0,1.1-0.9,2.1-2.1,2.1l0,0c-1.1,0-2.1-0.9-2.1-2.1v-26.6c0-1.1,0.9-2.1,2.1-2.1l0,0
			c1.1,0,2.1,0.9,2.1,2.1V615.2z"/>
		<path class="st5" d="M-29.1,473.7v31.5c0,0-10.3-2.4-10.3-11.3C-39.4,485-29.1,473.7-29.1,473.7z"/>
		<path class="st4" d="M-29.1,473.7v31.5c0,0,10.3-2.4,10.3-11.3C-18.8,485-29.1,473.7-29.1,473.7z"/>
		<path class="st5" d="M-51.3,500.1l19.2,19.2c0,0-7.7,4.8-13.2-0.6C-50.6,513.3-51.3,500.1-51.3,500.1z"/>
		<g>
			<path class="st4" d="M-51.3,500.1l19.2,19.2c0,0,4.8-7.7-0.6-13.2C-38.1,500.8-51.3,500.1-51.3,500.1z"/>
			<path class="st4" d="M-6.6,500.1l-19.2,19.2c0,0,7.7,4.8,13.2-0.6C-7.2,513.3-6.6,500.1-6.6,500.1z"/>
		</g>
		<g>
			<path class="st5" d="M-6.6,500.1l-19.2,19.2c0,0-4.8-7.7,0.6-13.2C-19.8,500.8-6.6,500.1-6.6,500.1z"/>
			<path class="st5" d="M-51.3,520.2l19.2,19.2c0,0-7.7,4.8-13.2-0.6C-50.6,533.4-51.3,520.2-51.3,520.2z"/>
		</g>
		<g>
			<path class="st4" d="M-51.3,520.2l19.2,19.2c0,0,4.8-7.7-0.6-13.2C-38.1,520.9-51.3,520.2-51.3,520.2z"/>
			<path class="st4" d="M-6.6,520.2l-19.2,19.2c0,0,7.7,4.8,13.2-0.6C-7.2,533.4-6.6,520.2-6.6,520.2z"/>
		</g>
		<g>
			<path class="st5" d="M-6.6,520.2l-19.2,19.2c0,0-4.8-7.7,0.6-13.2C-19.8,520.9-6.6,520.2-6.6,520.2z"/>
			<path class="st5" d="M-51.3,540.3l19.2,19.2c0,0-7.7,4.8-13.2-0.6C-50.6,553.5-51.3,540.3-51.3,540.3z"/>
		</g>
		<g>
			<path class="st4" d="M-51.3,540.3l19.2,19.2c0,0,4.8-7.7-0.6-13.2C-38.1,541-51.3,540.3-51.3,540.3z"/>
			<path class="st4" d="M-6.6,540.3l-19.2,19.2c0,0,7.7,4.8,13.2-0.6C-7.2,553.5-6.6,540.3-6.6,540.3z"/>
		</g>
		<g>
			<path class="st5" d="M-6.6,540.3l-19.2,19.2c0,0-4.8-7.7,0.6-13.2C-19.8,541-6.6,540.3-6.6,540.3z"/>
			<path class="st5" d="M-51.3,560.5l19.2,19.2c0,0-7.7,4.8-13.2-0.6C-50.6,573.6-51.3,560.5-51.3,560.5z"/>
		</g>
		<g>
			<path class="st4" d="M-51.3,560.5l19.2,19.2c0,0,4.8-7.7-0.6-13.2C-38.1,561.1-51.3,560.5-51.3,560.5z"/>
			<path class="st4" d="M-6.6,560.5l-19.2,19.2c0,0,7.7,4.8,13.2-0.6S-6.6,560.5-6.6,560.5z"/>
		</g>
		<path class="st5" d="M-6.6,560.5l-19.2,19.2c0,0-4.8-7.7,0.6-13.2C-19.8,561.1-6.6,560.5-6.6,560.5z"/>
		<path class="st6" d="M-27.2,606.2c0,0,2.7-17.9,14-16.4c11.4,1.5,12.6-12.4,12.6-12.4s0,13-11.1,18.6
			c-11.1,5.6-11.7,15.8-15.5,15.7C-31,611.5-27.2,606.2-27.2,606.2z"/>
	</g>
	<g>
		<path class="st4" d="M133.4,493.9c0,1.1-0.9,2.1-2.1,2.1l0,0c-1.1,0-2.1-0.9-2.1-2.1v-84.3c0-1.1,0.9-2.1,2.1-2.1l0,0
			c1.1,0,2.1,0.9,2.1,2.1V493.9z"/>
		<g>
			<path class="st5" d="M129.3,409.6c0-1.1,0.9-2.1,2.1-2.1l0,0c1.1,0,2.1,0.9,2.1,2.1v84.3"/>
		</g>
		<path class="st6" d="M133.4,521.1c0,1.1-0.9,2.1-2.1,2.1l0,0c-1.1,0-2.1-0.9-2.1-2.1v-26.6c0-1.1,0.9-2.1,2.1-2.1l0,0
			c1.1,0,2.1,0.9,2.1,2.1V521.1z"/>
		<path class="st5" d="M131.4,379.5v31.5c0,0-10.3-2.4-10.3-11.3C121.1,390.8,131.4,379.5,131.4,379.5z"/>
		<path class="st4" d="M131.4,379.5v31.5c0,0,10.3-2.4,10.3-11.3C141.6,390.8,131.4,379.5,131.4,379.5z"/>
		<path class="st5" d="M109.2,406l19.2,19.2c0,0-7.7,4.8-13.2-0.6C109.9,419.2,109.2,406,109.2,406z"/>
		<g>
			<path class="st4" d="M109.2,406l19.2,19.2c0,0,4.8-7.7-0.6-13.2C122.4,406.6,109.2,406,109.2,406z"/>
			<path class="st4" d="M153.9,406l-19.2,19.2c0,0,7.7,4.8,13.2-0.6C153.3,419.2,153.9,406,153.9,406z"/>
		</g>
		<g>
			<path class="st5" d="M153.9,406l-19.2,19.2c0,0-4.8-7.7,0.6-13.2C140.7,406.6,153.9,406,153.9,406z"/>
			<path class="st5" d="M109.2,426.1l19.2,19.2c0,0-7.7,4.8-13.2-0.6C109.9,439.3,109.2,426.1,109.2,426.1z"/>
		</g>
		<g>
			<path class="st4" d="M109.2,426.1l19.2,19.2c0,0,4.8-7.7-0.6-13.2C122.4,426.7,109.2,426.1,109.2,426.1z"/>
			<path class="st4" d="M153.9,426.1l-19.2,19.2c0,0,7.7,4.8,13.2-0.6C153.3,439.3,153.9,426.1,153.9,426.1z"/>
		</g>
		<g>
			<path class="st5" d="M153.9,426.1l-19.2,19.2c0,0-4.8-7.7,0.6-13.2C140.7,426.7,153.9,426.1,153.9,426.1z"/>
			<path class="st5" d="M109.2,446.2l19.2,19.2c0,0-7.7,4.8-13.2-0.6C109.9,459.4,109.2,446.2,109.2,446.2z"/>
		</g>
		<g>
			<path class="st4" d="M109.2,446.2l19.2,19.2c0,0,4.8-7.7-0.6-13.2C122.4,446.8,109.2,446.2,109.2,446.2z"/>
			<path class="st4" d="M153.9,446.2l-19.2,19.2c0,0,7.7,4.8,13.2-0.6C153.3,459.4,153.9,446.2,153.9,446.2z"/>
		</g>
		<g>
			<path class="st5" d="M153.9,446.2l-19.2,19.2c0,0-4.8-7.7,0.6-13.2C140.7,446.8,153.9,446.2,153.9,446.2z"/>
			<path class="st5" d="M109.2,466.3l19.2,19.2c0,0-7.7,4.8-13.2-0.6C109.9,479.5,109.2,466.3,109.2,466.3z"/>
		</g>
		<g>
			<path class="st4" d="M109.2,466.3l19.2,19.2c0,0,4.8-7.7-0.6-13.2C122.4,466.9,109.2,466.3,109.2,466.3z"/>
			<path class="st4" d="M153.9,466.3l-19.2,19.2c0,0,7.7,4.8,13.2-0.6C153.3,479.5,153.9,466.3,153.9,466.3z"/>
		</g>
		<path class="st5" d="M153.9,466.3l-19.2,19.2c0,0-4.8-7.7,0.6-13.2C140.7,466.9,153.9,466.3,153.9,466.3z"/>
		<path class="st6" d="M133.3,512c0,0,2.7-17.9,14-16.4c11.4,1.5,12.6-12.4,12.6-12.4s0,13-11.1,18.6c-11.1,5.6-11.7,15.8-15.5,15.7
			C129.4,517.4,133.3,512,133.3,512z"/>
	</g>
	<g>
		<path class="st4" d="M-0.8,571.3c0,1.1-0.9,2.1-2.1,2.1l0,0c-1.1,0-2.1-0.9-2.1-2.1V487c0-1.1,0.9-2.1,2.1-2.1l0,0
			c1.1,0,2.1,0.9,2.1,2.1V571.3z"/>
		<g>
			<path class="st5" d="M-4.9,487c0-1.1,0.9-2.1,2.1-2.1l0,0c1.1,0,2.1,0.9,2.1,2.1v84.3"/>
		</g>
		<path class="st6" d="M-0.8,598.5c0,1.1-0.9,2.1-2.1,2.1l0,0c-1.1,0-2.1-0.9-2.1-2.1v-26.6c0-1.1,0.9-2.1,2.1-2.1l0,0
			c1.1,0,2.1,0.9,2.1,2.1V598.5z"/>
		<path class="st5" d="M-2.9,456.9v31.5c0,0-10.3-2.4-10.3-11.3C-13.1,468.3-2.9,456.9-2.9,456.9z"/>
		<path class="st4" d="M-2.9,456.9v31.5c0,0,10.3-2.4,10.3-11.3C7.4,468.3-2.9,456.9-2.9,456.9z"/>
		<path class="st5" d="M-25,483.4l19.2,19.2c0,0-7.7,4.8-13.2-0.6C-24.4,496.6-25,483.4-25,483.4z"/>
		<g>
			<path class="st4" d="M-25,483.4l19.2,19.2c0,0,4.8-7.7-0.6-13.2C-11.8,484-25,483.4-25,483.4z"/>
			<path class="st4" d="M19.7,483.4L0.4,502.6c0,0,7.7,4.8,13.2-0.6C19,496.6,19.7,483.4,19.7,483.4z"/>
		</g>
		<g>
			<path class="st5" d="M19.7,483.4L0.4,502.6c0,0-4.8-7.7,0.6-13.2C6.5,484,19.7,483.4,19.7,483.4z"/>
			<path class="st5" d="M-25,503.5l19.2,19.2c0,0-7.7,4.8-13.2-0.6C-24.4,516.7-25,503.5-25,503.5z"/>
		</g>
		<g>
			<path class="st4" d="M-25,503.5l19.2,19.2c0,0,4.8-7.7-0.6-13.2C-11.8,504.1-25,503.5-25,503.5z"/>
			<path class="st4" d="M19.7,503.5L0.4,522.7c0,0,7.7,4.8,13.2-0.6C19,516.7,19.7,503.5,19.7,503.5z"/>
		</g>
		<g>
			<path class="st5" d="M19.7,503.5L0.4,522.7c0,0-4.8-7.7,0.6-13.2C6.5,504.1,19.7,503.5,19.7,503.5z"/>
			<path class="st5" d="M-25,523.6l19.2,19.2c0,0-7.7,4.8-13.2-0.6C-24.4,536.8-25,523.6-25,523.6z"/>
		</g>
		<g>
			<path class="st4" d="M-25,523.6l19.2,19.2c0,0,4.8-7.7-0.6-13.2C-11.8,524.2-25,523.6-25,523.6z"/>
			<path class="st4" d="M19.7,523.6L0.4,542.8c0,0,7.7,4.8,13.2-0.6C19,536.8,19.7,523.6,19.7,523.6z"/>
		</g>
		<g>
			<path class="st5" d="M19.7,523.6L0.4,542.8c0,0-4.8-7.7,0.6-13.2C6.5,524.2,19.7,523.6,19.7,523.6z"/>
			<path class="st5" d="M-25,543.7L-5.8,563c0,0-7.7,4.8-13.2-0.6C-24.4,556.9-25,543.7-25,543.7z"/>
		</g>
		<g>
			<path class="st4" d="M-25,543.7L-5.8,563c0,0,4.8-7.7-0.6-13.2C-11.8,544.3-25,543.7-25,543.7z"/>
			<path class="st4" d="M19.7,543.7L0.4,563c0,0,7.7,4.8,13.2-0.6C19,556.9,19.7,543.7,19.7,543.7z"/>
		</g>
		<path class="st5" d="M19.7,543.7L0.4,563c0,0-4.8-7.7,0.6-13.2C6.5,544.3,19.7,543.7,19.7,543.7z"/>
		<path class="st6" d="M-0.9,589.5c0,0,2.7-17.9,14-16.4c11.4,1.5,12.6-12.4,12.6-12.4s0,13-11.1,18.6
			c-11.1,5.6-11.7,15.8-15.5,15.7C-4.8,594.8-0.9,589.5-0.9,589.5z"/>
	</g>
	<g>
		<path class="st4" d="M26.5,555.7c0,1.1-0.9,2.1-2.1,2.1l0,0c-1.1,0-2.1-0.9-2.1-2.1v-84.3c0-1.1,0.9-2.1,2.1-2.1l0,0
			c1.1,0,2.1,0.9,2.1,2.1V555.7z"/>
		<g>
			<path class="st5" d="M22.4,471.4c0-1.1,0.9-2.1,2.1-2.1l0,0c1.1,0,2.1,0.9,2.1,2.1v84.3"/>
		</g>
		<path class="st6" d="M26.5,582.9c0,1.1-0.9,2.1-2.1,2.1l0,0c-1.1,0-2.1-0.9-2.1-2.1v-26.6c0-1.1,0.9-2.1,2.1-2.1l0,0
			c1.1,0,2.1,0.9,2.1,2.1V582.9z"/>
		<path class="st5" d="M24.4,441.3v31.5c0,0-10.3-2.4-10.3-11.3C14.1,452.6,24.4,441.3,24.4,441.3z"/>
		<path class="st4" d="M24.4,441.3v31.5c0,0,10.3-2.4,10.3-11.3C34.7,452.6,24.4,441.3,24.4,441.3z"/>
		<path class="st5" d="M2.3,467.8L21.5,487c0,0-7.7,4.8-13.2-0.6C2.9,481,2.3,467.8,2.3,467.8z"/>
		<g>
			<path class="st4" d="M2.3,467.8L21.5,487c0,0,4.8-7.7-0.6-13.2C15.5,468.4,2.3,467.8,2.3,467.8z"/>
			<path class="st4" d="M46.9,467.8L27.7,487c0,0,7.7,4.8,13.2-0.6C46.3,481,46.9,467.8,46.9,467.8z"/>
		</g>
		<g>
			<path class="st5" d="M46.9,467.8L27.7,487c0,0-4.8-7.7,0.6-13.2C33.8,468.4,46.9,467.8,46.9,467.8z"/>
			<path class="st5" d="M2.3,487.9l19.2,19.2c0,0-7.7,4.8-13.2-0.6C2.9,501.1,2.3,487.9,2.3,487.9z"/>
		</g>
		<g>
			<path class="st4" d="M2.3,487.9l19.2,19.2c0,0,4.8-7.7-0.6-13.2C15.5,488.5,2.3,487.9,2.3,487.9z"/>
			<path class="st4" d="M46.9,487.9l-19.2,19.2c0,0,7.7,4.8,13.2-0.6C46.3,501.1,46.9,487.9,46.9,487.9z"/>
		</g>
		<g>
			<path class="st5" d="M46.9,487.9l-19.2,19.2c0,0-4.8-7.7,0.6-13.2C33.8,488.5,46.9,487.9,46.9,487.9z"/>
			<path class="st5" d="M2.3,508l19.2,19.2c0,0-7.7,4.8-13.2-0.6C2.9,521.2,2.3,508,2.3,508z"/>
		</g>
		<g>
			<path class="st4" d="M2.3,508l19.2,19.2c0,0,4.8-7.7-0.6-13.2C15.5,508.6,2.3,508,2.3,508z"/>
			<path class="st4" d="M46.9,508l-19.2,19.2c0,0,7.7,4.8,13.2-0.6C46.3,521.2,46.9,508,46.9,508z"/>
		</g>
		<g>
			<path class="st5" d="M46.9,508l-19.2,19.2c0,0-4.8-7.7,0.6-13.2C33.8,508.6,46.9,508,46.9,508z"/>
			<path class="st5" d="M2.3,528.1l19.2,19.2c0,0-7.7,4.8-13.2-0.6C2.9,541.3,2.3,528.1,2.3,528.1z"/>
		</g>
		<g>
			<path class="st4" d="M2.3,528.1l19.2,19.2c0,0,4.8-7.7-0.6-13.2C15.5,528.7,2.3,528.1,2.3,528.1z"/>
			<path class="st4" d="M46.9,528.1l-19.2,19.2c0,0,7.7,4.8,13.2-0.6S46.9,528.1,46.9,528.1z"/>
		</g>
		<path class="st5" d="M46.9,528.1l-19.2,19.2c0,0-4.8-7.7,0.6-13.2C33.8,528.7,46.9,528.1,46.9,528.1z"/>
		<path class="st6" d="M26.4,573.8c0,0,2.7-17.9,14-16.4C51.8,558.9,53,545,53,545s0,13-11.1,18.6c-11.1,5.6-11.7,15.8-15.5,15.7
			C22.5,579.2,26.4,573.8,26.4,573.8z"/>
	</g>
	<g>
		<path class="st4" d="M52.9,541c0,1.1-0.9,2.1-2.1,2.1l0,0c-1.1,0-2.1-0.9-2.1-2.1v-84.3c0-1.1,0.9-2.1,2.1-2.1l0,0
			c1.1,0,2.1,0.9,2.1,2.1V541z"/>
		<g>
			<path class="st5" d="M48.8,456.8c0-1.1,0.9-2.1,2.1-2.1l0,0c1.1,0,2.1,0.9,2.1,2.1V541"/>
		</g>
		<path class="st6" d="M52.9,568.2c0,1.1-0.9,2.1-2.1,2.1l0,0c-1.1,0-2.1-0.9-2.1-2.1v-26.6c0-1.1,0.9-2.1,2.1-2.1l0,0
			c1.1,0,2.1,0.9,2.1,2.1V568.2z"/>
		<path class="st5" d="M50.8,426.7v31.5c0,0-10.3-2.4-10.3-11.3C40.6,438,50.8,426.7,50.8,426.7z"/>
		<path class="st4" d="M50.8,426.7v31.5c0,0,10.3-2.4,10.3-11.3C61.1,438,50.8,426.7,50.8,426.7z"/>
		<path class="st5" d="M28.7,453.2l19.2,19.2c0,0-7.7,4.8-13.2-0.6C29.3,466.3,28.7,453.2,28.7,453.2z"/>
		<g>
			<path class="st4" d="M28.7,453.2l19.2,19.2c0,0,4.8-7.7-0.6-13.2C41.9,453.8,28.7,453.2,28.7,453.2z"/>
			<path class="st4" d="M73.4,453.2l-19.2,19.2c0,0,7.7,4.8,13.2-0.6C72.7,466.3,73.4,453.2,73.4,453.2z"/>
		</g>
		<g>
			<path class="st5" d="M73.4,453.2l-19.2,19.2c0,0-4.8-7.7,0.6-13.2C60.2,453.8,73.4,453.2,73.4,453.2z"/>
			<path class="st5" d="M28.7,473.3l19.2,19.2c0,0-7.7,4.8-13.2-0.6C29.3,486.4,28.7,473.3,28.7,473.3z"/>
		</g>
		<g>
			<path class="st4" d="M28.7,473.3l19.2,19.2c0,0,4.8-7.7-0.6-13.2C41.9,473.9,28.7,473.3,28.7,473.3z"/>
			<path class="st4" d="M73.4,473.3l-19.2,19.2c0,0,7.7,4.8,13.2-0.6C72.7,486.4,73.4,473.3,73.4,473.3z"/>
		</g>
		<g>
			<path class="st5" d="M73.4,473.3l-19.2,19.2c0,0-4.8-7.7,0.6-13.2C60.2,473.9,73.4,473.3,73.4,473.3z"/>
			<path class="st5" d="M28.7,493.4l19.2,19.2c0,0-7.7,4.8-13.2-0.6C29.3,506.5,28.7,493.4,28.7,493.4z"/>
		</g>
		<g>
			<path class="st4" d="M28.7,493.4l19.2,19.2c0,0,4.8-7.7-0.6-13.2C41.9,494,28.7,493.4,28.7,493.4z"/>
			<path class="st4" d="M73.4,493.4l-19.2,19.2c0,0,7.7,4.8,13.2-0.6C72.7,506.5,73.4,493.4,73.4,493.4z"/>
		</g>
		<g>
			<path class="st5" d="M73.4,493.4l-19.2,19.2c0,0-4.8-7.7,0.6-13.2C60.2,494,73.4,493.4,73.4,493.4z"/>
			<path class="st5" d="M28.7,513.5l19.2,19.2c0,0-7.7,4.8-13.2-0.6C29.3,526.7,28.7,513.5,28.7,513.5z"/>
		</g>
		<g>
			<path class="st4" d="M28.7,513.5l19.2,19.2c0,0,4.8-7.7-0.6-13.2C41.9,514.1,28.7,513.5,28.7,513.5z"/>
			<path class="st4" d="M73.4,513.5l-19.2,19.2c0,0,7.7,4.8,13.2-0.6C72.7,526.7,73.4,513.5,73.4,513.5z"/>
		</g>
		<path class="st5" d="M73.4,513.5l-19.2,19.2c0,0-4.8-7.7,0.6-13.2C60.2,514.1,73.4,513.5,73.4,513.5z"/>
		<path class="st6" d="M52.8,559.2c0,0,2.7-17.9,14-16.4c11.4,1.5,12.6-12.4,12.6-12.4s0,13-11.1,18.6
			c-11.1,5.6-11.7,15.8-15.5,15.7C48.9,564.5,52.8,559.2,52.8,559.2z"/>
	</g>
	<g>
		<path class="st4" d="M79.2,523.4c0,1.1-0.9,2.1-2.1,2.1l0,0c-1.1,0-2.1-0.9-2.1-2.1v-84.3c0-1.1,0.9-2.1,2.1-2.1l0,0
			c1.1,0,2.1,0.9,2.1,2.1V523.4z"/>
		<g>
			<path class="st5" d="M75.1,439.1c0-1.1,0.9-2.1,2.1-2.1l0,0c1.1,0,2.1,0.9,2.1,2.1v84.3"/>
		</g>
		<path class="st6" d="M79.2,550.6c0,1.1-0.9,2.1-2.1,2.1l0,0c-1.1,0-2.1-0.9-2.1-2.1v-26.6c0-1.1,0.9-2.1,2.1-2.1l0,0
			c1.1,0,2.1,0.9,2.1,2.1V550.6z"/>
		<path class="st5" d="M77.1,409v31.5c0,0-10.3-2.4-10.3-11.3C66.8,420.3,77.1,409,77.1,409z"/>
		<path class="st4" d="M77.1,409v31.5c0,0,10.3-2.4,10.3-11.3C87.4,420.3,77.1,409,77.1,409z"/>
		<path class="st5" d="M55,435.5l19.2,19.2c0,0-7.7,4.8-13.2-0.6C55.6,448.7,55,435.5,55,435.5z"/>
		<g>
			<path class="st4" d="M55,435.5l19.2,19.2c0,0,4.8-7.7-0.6-13.2C68.2,436.1,55,435.5,55,435.5z"/>
			<path class="st4" d="M99.6,435.5l-19.2,19.2c0,0,7.7,4.8,13.2-0.6C99,448.7,99.6,435.5,99.6,435.5z"/>
		</g>
		<g>
			<path class="st5" d="M99.6,435.5l-19.2,19.2c0,0-4.8-7.7,0.6-13.2C86.5,436.1,99.6,435.5,99.6,435.5z"/>
			<path class="st5" d="M55,455.6l19.2,19.2c0,0-7.7,4.8-13.2-0.6C55.6,468.8,55,455.6,55,455.6z"/>
		</g>
		<g>
			<path class="st4" d="M55,455.6l19.2,19.2c0,0,4.8-7.7-0.6-13.2C68.2,456.2,55,455.6,55,455.6z"/>
			<path class="st4" d="M99.6,455.6l-19.2,19.2c0,0,7.7,4.8,13.2-0.6C99,468.8,99.6,455.6,99.6,455.6z"/>
		</g>
		<g>
			<path class="st5" d="M99.6,455.6l-19.2,19.2c0,0-4.8-7.7,0.6-13.2C86.5,456.2,99.6,455.6,99.6,455.6z"/>
			<path class="st5" d="M55,475.7l19.2,19.2c0,0-7.7,4.8-13.2-0.6C55.6,488.9,55,475.7,55,475.7z"/>
		</g>
		<g>
			<path class="st4" d="M55,475.7l19.2,19.2c0,0,4.8-7.7-0.6-13.2C68.2,476.3,55,475.7,55,475.7z"/>
			<path class="st4" d="M99.6,475.7l-19.2,19.2c0,0,7.7,4.8,13.2-0.6C99,488.9,99.6,475.7,99.6,475.7z"/>
		</g>
		<g>
			<path class="st5" d="M99.6,475.7l-19.2,19.2c0,0-4.8-7.7,0.6-13.2C86.5,476.3,99.6,475.7,99.6,475.7z"/>
			<path class="st5" d="M55,495.8L74.2,515c0,0-7.7,4.8-13.2-0.6C55.6,509,55,495.8,55,495.8z"/>
		</g>
		<g>
			<path class="st4" d="M55,495.8L74.2,515c0,0,4.8-7.7-0.6-13.2C68.2,496.4,55,495.8,55,495.8z"/>
			<path class="st4" d="M99.6,495.8L80.4,515c0,0,7.7,4.8,13.2-0.6C99,509,99.6,495.8,99.6,495.8z"/>
		</g>
		<path class="st5" d="M99.6,495.8L80.4,515c0,0-4.8-7.7,0.6-13.2C86.5,496.4,99.6,495.8,99.6,495.8z"/>
		<path class="st6" d="M79,541.5c0,0,2.7-17.9,14-16.4c11.4,1.5,12.6-12.4,12.6-12.4s0,13-11.1,18.6S82.9,547.2,79,547
			C75.2,546.9,79,541.5,79,541.5z"/>
	</g>
	<g>
		<path class="st4" d="M105.5,509.6c0,1.1-0.9,2.1-2.1,2.1l0,0c-1.1,0-2.1-0.9-2.1-2.1v-84.3c0-1.1,0.9-2.1,2.1-2.1l0,0
			c1.1,0,2.1,0.9,2.1,2.1V509.6z"/>
		<g>
			<path class="st5" d="M101.3,425.3c0-1.1,0.9-2.1,2.1-2.1l0,0c1.1,0,2.1,0.9,2.1,2.1v84.3"/>
		</g>
		<path class="st6" d="M105.5,536.8c0,1.1-0.9,2.1-2.1,2.1l0,0c-1.1,0-2.1-0.9-2.1-2.1v-26.6c0-1.1,0.9-2.1,2.1-2.1l0,0
			c1.1,0,2.1,0.9,2.1,2.1V536.8z"/>
		<path class="st5" d="M103.4,395.3v31.5c0,0-10.3-2.4-10.3-11.3C93.1,406.6,103.4,395.3,103.4,395.3z"/>
		<path class="st4" d="M103.4,395.3v31.5c0,0,10.3-2.4,10.3-11.3C113.7,406.6,103.4,395.3,103.4,395.3z"/>
		<path class="st5" d="M81.3,421.7l19.2,19.2c0,0-7.7,4.8-13.2-0.6C81.9,434.9,81.3,421.7,81.3,421.7z"/>
		<g>
			<path class="st4" d="M81.3,421.7l19.2,19.2c0,0,4.8-7.7-0.6-13.2C94.4,422.3,81.3,421.7,81.3,421.7z"/>
			<path class="st4" d="M125.9,421.7L106.7,441c0,0,7.7,4.8,13.2-0.6C125.3,434.9,125.9,421.7,125.9,421.7z"/>
		</g>
		<g>
			<path class="st5" d="M125.9,421.7L106.7,441c0,0-4.8-7.7,0.6-13.2C112.8,422.3,125.9,421.7,125.9,421.7z"/>
			<path class="st5" d="M81.3,441.8l19.2,19.2c0,0-7.7,4.8-13.2-0.6C81.9,455,81.3,441.8,81.3,441.8z"/>
		</g>
		<g>
			<path class="st4" d="M81.3,441.8l19.2,19.2c0,0,4.8-7.7-0.6-13.2C94.4,442.5,81.3,441.8,81.3,441.8z"/>
			<path class="st4" d="M125.9,441.8l-19.2,19.2c0,0,7.7,4.8,13.2-0.6C125.3,455,125.9,441.8,125.9,441.8z"/>
		</g>
		<g>
			<path class="st5" d="M125.9,441.8l-19.2,19.2c0,0-4.8-7.7,0.6-13.2C112.8,442.5,125.9,441.8,125.9,441.8z"/>
			<path class="st5" d="M81.3,461.9l19.2,19.2c0,0-7.7,4.8-13.2-0.6C81.9,475.1,81.3,461.9,81.3,461.9z"/>
		</g>
		<g>
			<path class="st4" d="M81.3,461.9l19.2,19.2c0,0,4.8-7.7-0.6-13.2C94.4,462.6,81.3,461.9,81.3,461.9z"/>
			<path class="st4" d="M125.9,461.9l-19.2,19.2c0,0,7.7,4.8,13.2-0.6C125.3,475.1,125.9,461.9,125.9,461.9z"/>
		</g>
		<g>
			<path class="st5" d="M125.9,461.9l-19.2,19.2c0,0-4.8-7.7,0.6-13.2C112.8,462.6,125.9,461.9,125.9,461.9z"/>
			<path class="st5" d="M81.3,482l19.2,19.2c0,0-7.7,4.8-13.2-0.6C81.9,495.2,81.3,482,81.3,482z"/>
		</g>
		<g>
			<path class="st4" d="M81.3,482l19.2,19.2c0,0,4.8-7.7-0.6-13.2C94.4,482.7,81.3,482,81.3,482z"/>
			<path class="st4" d="M125.9,482l-19.2,19.2c0,0,7.7,4.8,13.2-0.6C125.3,495.2,125.9,482,125.9,482z"/>
		</g>
		<path class="st5" d="M125.9,482l-19.2,19.2c0,0-4.8-7.7,0.6-13.2C112.8,482.7,125.9,482,125.9,482z"/>
		<path class="st6" d="M105.3,527.8c0,0,2.7-17.9,14-16.4c11.4,1.5,12.6-12.4,12.6-12.4s0,13-11.1,18.6
			c-11.1,5.6-11.7,15.8-15.5,15.7C101.5,533.1,105.3,527.8,105.3,527.8z"/>
	</g>
</g>
<g>
	<g>
		<path class="st4" d="M26.3,617.8c0,1.1-0.9,2.1-2.1,2.1l0,0c-1.1,0-2.1-0.9-2.1-2.1v-84.3c0-1.1,0.9-2.1,2.1-2.1l0,0
			c1.1,0,2.1,0.9,2.1,2.1V617.8z"/>
		<g>
			<path class="st5" d="M22.1,533.6c0-1.1,0.9-2.1,2.1-2.1l0,0c1.1,0,2.1,0.9,2.1,2.1v84.3"/>
		</g>
		<path class="st6" d="M26.3,645c0,1.1-0.9,2.1-2.1,2.1l0,0c-1.1,0-2.1-0.9-2.1-2.1v-26.6c0-1.1,0.9-2.1,2.1-2.1l0,0
			c1.1,0,2.1,0.9,2.1,2.1V645z"/>
		<path class="st5" d="M24.2,503.5V535c0,0-10.3-2.4-10.3-11.3C13.9,514.8,24.2,503.5,24.2,503.5z"/>
		<path class="st4" d="M24.2,503.5V535c0,0,10.3-2.4,10.3-11.3C34.5,514.8,24.2,503.5,24.2,503.5z"/>
		<path class="st5" d="M2.1,530l19.2,19.2c0,0-7.7,4.8-13.2-0.6C2.7,543.1,2.1,530,2.1,530z"/>
		<g>
			<path class="st4" d="M2.1,530l19.2,19.2c0,0,4.8-7.7-0.6-13.2C15.2,530.6,2.1,530,2.1,530z"/>
			<path class="st4" d="M46.7,530l-19.2,19.2c0,0,7.7,4.8,13.2-0.6C46.1,543.1,46.7,530,46.7,530z"/>
		</g>
		<g>
			<path class="st5" d="M46.7,530l-19.2,19.2c0,0-4.8-7.7,0.6-13.2C33.6,530.6,46.7,530,46.7,530z"/>
			<path class="st5" d="M2.1,550.1l19.2,19.2c0,0-7.7,4.8-13.2-0.6C2.7,563.2,2.1,550.1,2.1,550.1z"/>
		</g>
		<g>
			<path class="st4" d="M2.1,550.1l19.2,19.2c0,0,4.8-7.7-0.6-13.2C15.2,550.7,2.1,550.1,2.1,550.1z"/>
			<path class="st4" d="M46.7,550.1l-19.2,19.2c0,0,7.7,4.8,13.2-0.6C46.1,563.2,46.7,550.1,46.7,550.1z"/>
		</g>
		<g>
			<path class="st5" d="M46.7,550.1l-19.2,19.2c0,0-4.8-7.7,0.6-13.2C33.6,550.7,46.7,550.1,46.7,550.1z"/>
			<path class="st5" d="M2.1,570.2l19.2,19.2c0,0-7.7,4.8-13.2-0.6C2.7,583.3,2.1,570.2,2.1,570.2z"/>
		</g>
		<g>
			<path class="st4" d="M2.1,570.2l19.2,19.2c0,0,4.8-7.7-0.6-13.2C15.2,570.8,2.1,570.2,2.1,570.2z"/>
			<path class="st4" d="M46.7,570.2l-19.2,19.2c0,0,7.7,4.8,13.2-0.6C46.1,583.3,46.7,570.2,46.7,570.2z"/>
		</g>
		<g>
			<path class="st5" d="M46.7,570.2l-19.2,19.2c0,0-4.8-7.7,0.6-13.2C33.6,570.8,46.7,570.2,46.7,570.2z"/>
			<path class="st5" d="M2.1,590.3l19.2,19.2c0,0-7.7,4.8-13.2-0.6C2.7,603.5,2.1,590.3,2.1,590.3z"/>
		</g>
		<g>
			<path class="st4" d="M2.1,590.3l19.2,19.2c0,0,4.8-7.7-0.6-13.2C15.2,590.9,2.1,590.3,2.1,590.3z"/>
			<path class="st4" d="M46.7,590.3l-19.2,19.2c0,0,7.7,4.8,13.2-0.6C46.1,603.5,46.7,590.3,46.7,590.3z"/>
		</g>
		<path class="st5" d="M46.7,590.3l-19.2,19.2c0,0-4.8-7.7,0.6-13.2C33.6,590.9,46.7,590.3,46.7,590.3z"/>
		<path class="st6" d="M26.1,636c0,0,2.7-17.9,14-16.4c11.4,1.5,12.6-12.4,12.6-12.4s0,13-11.1,18.6S30,641.6,26.1,641.5
			C22.3,641.3,26.1,636,26.1,636z"/>
	</g>
	<g>
		<path class="st4" d="M186.8,523.7c0,1.1-0.9,2.1-2.1,2.1l0,0c-1.1,0-2.1-0.9-2.1-2.1v-84.3c0-1.1,0.9-2.1,2.1-2.1l0,0
			c1.1,0,2.1,0.9,2.1,2.1V523.7z"/>
		<g>
			<path class="st5" d="M182.6,439.4c0-1.1,0.9-2.1,2.1-2.1l0,0c1.1,0,2.1,0.9,2.1,2.1v84.3"/>
		</g>
		<path class="st6" d="M186.8,550.9c0,1.1-0.9,2.1-2.1,2.1l0,0c-1.1,0-2.1-0.9-2.1-2.1v-26.6c0-1.1,0.9-2.1,2.1-2.1l0,0
			c1.1,0,2.1,0.9,2.1,2.1V550.9z"/>
		<path class="st5" d="M184.7,409.4v31.5c0,0-10.3-2.4-10.3-11.3C174.4,420.7,184.7,409.4,184.7,409.4z"/>
		<path class="st4" d="M184.7,409.4v31.5c0,0,10.3-2.4,10.3-11.3C195,420.7,184.7,409.4,184.7,409.4z"/>
		<path class="st5" d="M162.6,435.8l19.2,19.2c0,0-7.7,4.8-13.2-0.6C163.2,449,162.6,435.8,162.6,435.8z"/>
		<g>
			<path class="st4" d="M162.6,435.8l19.2,19.2c0,0,4.8-7.7-0.6-13.2C175.7,436.4,162.6,435.8,162.6,435.8z"/>
			<path class="st4" d="M207.2,435.8L188,455c0,0,7.7,4.8,13.2-0.6C206.6,449,207.2,435.8,207.2,435.8z"/>
		</g>
		<g>
			<path class="st5" d="M207.2,435.8L188,455c0,0-4.8-7.7,0.6-13.2C194.1,436.4,207.2,435.8,207.2,435.8z"/>
			<path class="st5" d="M162.6,455.9l19.2,19.2c0,0-7.7,4.8-13.2-0.6C163.2,469.1,162.6,455.9,162.6,455.9z"/>
		</g>
		<g>
			<path class="st4" d="M162.6,455.9l19.2,19.2c0,0,4.8-7.7-0.6-13.2C175.7,456.5,162.6,455.9,162.6,455.9z"/>
			<path class="st4" d="M207.2,455.9L188,475.1c0,0,7.7,4.8,13.2-0.6C206.6,469.1,207.2,455.9,207.2,455.9z"/>
		</g>
		<g>
			<path class="st5" d="M207.2,455.9L188,475.1c0,0-4.8-7.7,0.6-13.2C194.1,456.5,207.2,455.9,207.2,455.9z"/>
			<path class="st5" d="M162.6,476l19.2,19.2c0,0-7.7,4.8-13.2-0.6C163.2,489.2,162.6,476,162.6,476z"/>
		</g>
		<g>
			<path class="st4" d="M162.6,476l19.2,19.2c0,0,4.8-7.7-0.6-13.2C175.7,476.6,162.6,476,162.6,476z"/>
			<path class="st4" d="M207.2,476L188,495.3c0,0,7.7,4.8,13.2-0.6C206.6,489.2,207.2,476,207.2,476z"/>
		</g>
		<g>
			<path class="st5" d="M207.2,476L188,495.3c0,0-4.8-7.7,0.6-13.2C194.1,476.6,207.2,476,207.2,476z"/>
			<path class="st5" d="M162.6,496.1l19.2,19.2c0,0-7.7,4.8-13.2-0.6C163.2,509.3,162.6,496.1,162.6,496.1z"/>
		</g>
		<g>
			<path class="st4" d="M162.6,496.1l19.2,19.2c0,0,4.8-7.7-0.6-13.2C175.7,496.8,162.6,496.1,162.6,496.1z"/>
			<path class="st4" d="M207.2,496.1L188,515.4c0,0,7.7,4.8,13.2-0.6C206.6,509.3,207.2,496.1,207.2,496.1z"/>
		</g>
		<path class="st5" d="M207.2,496.1L188,515.4c0,0-4.8-7.7,0.6-13.2C194.1,496.8,207.2,496.1,207.2,496.1z"/>
		<path class="st6" d="M186.6,541.9c0,0,2.7-17.9,14-16.4c11.4,1.5,12.6-12.4,12.6-12.4s0,13-11.1,18.6
			c-11.1,5.6-11.7,15.8-15.5,15.7C182.8,547.2,186.6,541.9,186.6,541.9z"/>
	</g>
	<g>
		<path class="st4" d="M52.6,601.1c0,1.1-0.9,2.1-2.1,2.1l0,0c-1.1,0-2.1-0.9-2.1-2.1v-84.3c0-1.1,0.9-2.1,2.1-2.1l0,0
			c1.1,0,2.1,0.9,2.1,2.1V601.1z"/>
		<g>
			<path class="st5" d="M48.4,516.8c0-1.1,0.9-2.1,2.1-2.1l0,0c1.1,0,2.1,0.9,2.1,2.1v84.3"/>
		</g>
		<path class="st6" d="M52.6,628.3c0,1.1-0.9,2.1-2.1,2.1l0,0c-1.1,0-2.1-0.9-2.1-2.1v-26.6c0-1.1,0.9-2.1,2.1-2.1l0,0
			c1.1,0,2.1,0.9,2.1,2.1V628.3z"/>
		<path class="st5" d="M50.5,486.8v31.5c0,0-10.3-2.4-10.3-11.3C40.2,498.1,50.5,486.8,50.5,486.8z"/>
		<path class="st4" d="M50.5,486.8v31.5c0,0,10.3-2.4,10.3-11.3C60.8,498.1,50.5,486.8,50.5,486.8z"/>
		<path class="st5" d="M28.4,513.2l19.2,19.2c0,0-7.7,4.8-13.2-0.6C29,526.4,28.4,513.2,28.4,513.2z"/>
		<g>
			<path class="st4" d="M28.4,513.2l19.2,19.2c0,0,4.8-7.7-0.6-13.2C41.5,513.9,28.4,513.2,28.4,513.2z"/>
			<path class="st4" d="M73,513.2l-19.2,19.2c0,0,7.7,4.8,13.2-0.6C72.4,526.4,73,513.2,73,513.2z"/>
		</g>
		<g>
			<path class="st5" d="M73,513.2l-19.2,19.2c0,0-4.8-7.7,0.6-13.2C59.8,513.9,73,513.2,73,513.2z"/>
			<path class="st5" d="M28.4,533.3l19.2,19.2c0,0-7.7,4.8-13.2-0.6C29,546.5,28.4,533.3,28.4,533.3z"/>
		</g>
		<g>
			<path class="st4" d="M28.4,533.3l19.2,19.2c0,0,4.8-7.7-0.6-13.2C41.5,534,28.4,533.3,28.4,533.3z"/>
			<path class="st4" d="M73,533.3l-19.2,19.2c0,0,7.7,4.8,13.2-0.6C72.4,546.5,73,533.3,73,533.3z"/>
		</g>
		<g>
			<path class="st5" d="M73,533.3l-19.2,19.2c0,0-4.8-7.7,0.6-13.2C59.8,534,73,533.3,73,533.3z"/>
			<path class="st5" d="M28.4,553.4l19.2,19.2c0,0-7.7,4.8-13.2-0.6C29,566.6,28.4,553.4,28.4,553.4z"/>
		</g>
		<g>
			<path class="st4" d="M28.4,553.4l19.2,19.2c0,0,4.8-7.7-0.6-13.2C41.5,554.1,28.4,553.4,28.4,553.4z"/>
			<path class="st4" d="M73,553.4l-19.2,19.2c0,0,7.7,4.8,13.2-0.6C72.4,566.6,73,553.4,73,553.4z"/>
		</g>
		<g>
			<path class="st5" d="M73,553.4l-19.2,19.2c0,0-4.8-7.7,0.6-13.2C59.8,554.1,73,553.4,73,553.4z"/>
			<path class="st5" d="M28.4,573.5l19.2,19.2c0,0-7.7,4.8-13.2-0.6C29,586.7,28.4,573.5,28.4,573.5z"/>
		</g>
		<g>
			<path class="st4" d="M28.4,573.5l19.2,19.2c0,0,4.8-7.7-0.6-13.2C41.5,574.2,28.4,573.5,28.4,573.5z"/>
			<path class="st4" d="M73,573.5l-19.2,19.2c0,0,7.7,4.8,13.2-0.6C72.4,586.7,73,573.5,73,573.5z"/>
		</g>
		<path class="st5" d="M73,573.5l-19.2,19.2c0,0-4.8-7.7,0.6-13.2C59.8,574.2,73,573.5,73,573.5z"/>
		<path class="st6" d="M52.4,619.3c0,0,2.7-17.9,14-16.4c11.4,1.5,12.6-12.4,12.6-12.4s0,13-11.1,18.6
			c-11.1,5.6-11.7,15.8-15.5,15.7C48.6,624.6,52.4,619.3,52.4,619.3z"/>
	</g>
	<g>
		<path class="st4" d="M79.8,585.5c0,1.1-0.9,2.1-2.1,2.1l0,0c-1.1,0-2.1-0.9-2.1-2.1v-84.3c0-1.1,0.9-2.1,2.1-2.1l0,0
			c1.1,0,2.1,0.9,2.1,2.1V585.5z"/>
		<g>
			<path class="st5" d="M75.7,501.2c0-1.1,0.9-2.1,2.1-2.1l0,0c1.1,0,2.1,0.9,2.1,2.1v84.3"/>
		</g>
		<path class="st6" d="M79.8,612.7c0,1.1-0.9,2.1-2.1,2.1l0,0c-1.1,0-2.1-0.9-2.1-2.1v-26.6c0-1.1,0.9-2.1,2.1-2.1l0,0
			c1.1,0,2.1,0.9,2.1,2.1V612.7z"/>
		<path class="st5" d="M77.8,471.1v31.5c0,0-10.3-2.4-10.3-11.3C67.5,482.5,77.8,471.1,77.8,471.1z"/>
		<path class="st4" d="M77.8,471.1v31.5c0,0,10.3-2.4,10.3-11.3C88.1,482.5,77.8,471.1,77.8,471.1z"/>
		<path class="st5" d="M55.6,497.6l19.2,19.2c0,0-7.7,4.8-13.2-0.6C56.3,510.8,55.6,497.6,55.6,497.6z"/>
		<g>
			<path class="st4" d="M55.6,497.6l19.2,19.2c0,0,4.8-7.7-0.6-13.2C68.8,498.2,55.6,497.6,55.6,497.6z"/>
			<path class="st4" d="M100.3,497.6L81,516.8c0,0,7.7,4.8,13.2-0.6C99.7,510.8,100.3,497.6,100.3,497.6z"/>
		</g>
		<g>
			<path class="st5" d="M100.3,497.6L81,516.8c0,0-4.8-7.7,0.6-13.2C87.1,498.2,100.3,497.6,100.3,497.6z"/>
			<path class="st5" d="M55.6,517.7l19.2,19.2c0,0-7.7,4.8-13.2-0.6C56.3,530.9,55.6,517.7,55.6,517.7z"/>
		</g>
		<g>
			<path class="st4" d="M55.6,517.7l19.2,19.2c0,0,4.8-7.7-0.6-13.2C68.8,518.3,55.6,517.7,55.6,517.7z"/>
			<path class="st4" d="M100.3,517.7L81,536.9c0,0,7.7,4.8,13.2-0.6C99.7,530.9,100.3,517.7,100.3,517.7z"/>
		</g>
		<g>
			<path class="st5" d="M100.3,517.7L81,536.9c0,0-4.8-7.7,0.6-13.2C87.1,518.3,100.3,517.7,100.3,517.7z"/>
			<path class="st5" d="M55.6,537.8l19.2,19.2c0,0-7.7,4.8-13.2-0.6C56.3,551,55.6,537.8,55.6,537.8z"/>
		</g>
		<g>
			<path class="st4" d="M55.6,537.8l19.2,19.2c0,0,4.8-7.7-0.6-13.2C68.8,538.4,55.6,537.8,55.6,537.8z"/>
			<path class="st4" d="M100.3,537.8L81,557.1c0,0,7.7,4.8,13.2-0.6C99.7,551,100.3,537.8,100.3,537.8z"/>
		</g>
		<g>
			<path class="st5" d="M100.3,537.8L81,557.1c0,0-4.8-7.7,0.6-13.2C87.1,538.4,100.3,537.8,100.3,537.8z"/>
			<path class="st5" d="M55.6,557.9l19.2,19.2c0,0-7.7,4.8-13.2-0.6C56.3,571.1,55.6,557.9,55.6,557.9z"/>
		</g>
		<g>
			<path class="st4" d="M55.6,557.9l19.2,19.2c0,0,4.8-7.7-0.6-13.2C68.8,558.6,55.6,557.9,55.6,557.9z"/>
			<path class="st4" d="M100.3,557.9L81,577.2c0,0,7.7,4.8,13.2-0.6C99.7,571.1,100.3,557.9,100.3,557.9z"/>
		</g>
		<path class="st5" d="M100.3,557.9L81,577.2c0,0-4.8-7.7,0.6-13.2C87.1,558.6,100.3,557.9,100.3,557.9z"/>
		<path class="st6" d="M79.7,603.7c0,0,2.7-17.9,14-16.4c11.4,1.5,12.6-12.4,12.6-12.4s0,13-11.1,18.6s-11.7,15.8-15.5,15.7
			C75.9,609,79.7,603.7,79.7,603.7z"/>
	</g>
	<g>
		<path class="st4" d="M106.3,570.9c0,1.1-0.9,2.1-2.1,2.1l0,0c-1.1,0-2.1-0.9-2.1-2.1v-84.3c0-1.1,0.9-2.1,2.1-2.1l0,0
			c1.1,0,2.1,0.9,2.1,2.1V570.9z"/>
		<g>
			<path class="st5" d="M102.1,486.6c0-1.1,0.9-2.1,2.1-2.1l0,0c1.1,0,2.1,0.9,2.1,2.1v84.3"/>
		</g>
		<path class="st6" d="M106.3,598.1c0,1.1-0.9,2.1-2.1,2.1l0,0c-1.1,0-2.1-0.9-2.1-2.1v-26.6c0-1.1,0.9-2.1,2.1-2.1l0,0
			c1.1,0,2.1,0.9,2.1,2.1V598.1z"/>
		<path class="st5" d="M104.2,456.5v31.5c0,0-10.3-2.4-10.3-11.3C93.9,467.8,104.2,456.5,104.2,456.5z"/>
		<path class="st4" d="M104.2,456.5v31.5c0,0,10.3-2.4,10.3-11.3C114.5,467.8,104.2,456.5,104.2,456.5z"/>
		<path class="st5" d="M82,483l19.2,19.2c0,0-7.7,4.8-13.2-0.6C82.7,496.2,82,483,82,483z"/>
		<g>
			<path class="st4" d="M82,483l19.2,19.2c0,0,4.8-7.7-0.6-13.2C95.2,483.6,82,483,82,483z"/>
			<path class="st4" d="M126.7,483l-19.2,19.2c0,0,7.7,4.8,13.2-0.6C126.1,496.2,126.7,483,126.7,483z"/>
		</g>
		<g>
			<path class="st5" d="M126.7,483l-19.2,19.2c0,0-4.8-7.7,0.6-13.2C113.5,483.6,126.7,483,126.7,483z"/>
			<path class="st5" d="M82,503.1l19.2,19.2c0,0-7.7,4.8-13.2-0.6C82.7,516.3,82,503.1,82,503.1z"/>
		</g>
		<g>
			<path class="st4" d="M82,503.1l19.2,19.2c0,0,4.8-7.7-0.6-13.2C95.2,503.7,82,503.1,82,503.1z"/>
			<path class="st4" d="M126.7,503.1l-19.2,19.2c0,0,7.7,4.8,13.2-0.6C126.1,516.3,126.7,503.1,126.7,503.1z"/>
		</g>
		<g>
			<path class="st5" d="M126.7,503.1l-19.2,19.2c0,0-4.8-7.7,0.6-13.2C113.5,503.7,126.7,503.1,126.7,503.1z"/>
			<path class="st5" d="M82,523.2l19.2,19.2c0,0-7.7,4.8-13.2-0.6C82.7,536.4,82,523.2,82,523.2z"/>
		</g>
		<g>
			<path class="st4" d="M82,523.2l19.2,19.2c0,0,4.8-7.7-0.6-13.2C95.2,523.8,82,523.2,82,523.2z"/>
			<path class="st4" d="M126.7,523.2l-19.2,19.2c0,0,7.7,4.8,13.2-0.6C126.1,536.4,126.7,523.2,126.7,523.2z"/>
		</g>
		<g>
			<path class="st5" d="M126.7,523.2l-19.2,19.2c0,0-4.8-7.7,0.6-13.2C113.5,523.8,126.7,523.2,126.7,523.2z"/>
			<path class="st5" d="M82,543.3l19.2,19.2c0,0-7.7,4.8-13.2-0.6C82.7,556.5,82,543.3,82,543.3z"/>
		</g>
		<g>
			<path class="st4" d="M82,543.3l19.2,19.2c0,0,4.8-7.7-0.6-13.2C95.2,543.9,82,543.3,82,543.3z"/>
			<path class="st4" d="M126.7,543.3l-19.2,19.2c0,0,7.7,4.8,13.2-0.6C126.1,556.5,126.7,543.3,126.7,543.3z"/>
		</g>
		<path class="st5" d="M126.7,543.3l-19.2,19.2c0,0-4.8-7.7,0.6-13.2C113.5,543.9,126.7,543.3,126.7,543.3z"/>
		<path class="st6" d="M106.1,589c0,0,2.7-17.9,14-16.4c11.4,1.5,12.6-12.4,12.6-12.4s0,13-11.1,18.6s-11.7,15.8-15.5,15.7
			C102.3,594.4,106.1,589,106.1,589z"/>
	</g>
	<g>
		<path class="st4" d="M132.5,553.2c0,1.1-0.9,2.1-2.1,2.1l0,0c-1.1,0-2.1-0.9-2.1-2.1v-84.3c0-1.1,0.9-2.1,2.1-2.1l0,0
			c1.1,0,2.1,0.9,2.1,2.1V553.2z"/>
		<g>
			<path class="st5" d="M128.4,468.9c0-1.1,0.9-2.1,2.1-2.1l0,0c1.1,0,2.1,0.9,2.1,2.1v84.3"/>
		</g>
		<path class="st6" d="M132.5,580.4c0,1.1-0.9,2.1-2.1,2.1l0,0c-1.1,0-2.1-0.9-2.1-2.1v-26.6c0-1.1,0.9-2.1,2.1-2.1l0,0
			c1.1,0,2.1,0.9,2.1,2.1V580.4z"/>
		<path class="st5" d="M130.5,438.9v31.5c0,0-10.3-2.4-10.3-11.3C120.2,450.2,130.5,438.9,130.5,438.9z"/>
		<path class="st4" d="M130.5,438.9v31.5c0,0,10.3-2.4,10.3-11.3C140.7,450.2,130.5,438.9,130.5,438.9z"/>
		<path class="st5" d="M108.3,465.3l19.2,19.2c0,0-7.7,4.8-13.2-0.6C109,478.5,108.3,465.3,108.3,465.3z"/>
		<g>
			<path class="st4" d="M108.3,465.3l19.2,19.2c0,0,4.8-7.7-0.6-13.2C121.5,465.9,108.3,465.3,108.3,465.3z"/>
			<path class="st4" d="M153,465.3l-19.2,19.2c0,0,7.7,4.8,13.2-0.6C152.4,478.5,153,465.3,153,465.3z"/>
		</g>
		<g>
			<path class="st5" d="M153,465.3l-19.2,19.2c0,0-4.8-7.7,0.6-13.2C139.8,465.9,153,465.3,153,465.3z"/>
			<path class="st5" d="M108.3,485.4l19.2,19.2c0,0-7.7,4.8-13.2-0.6C109,498.6,108.3,485.4,108.3,485.4z"/>
		</g>
		<g>
			<path class="st4" d="M108.3,485.4l19.2,19.2c0,0,4.8-7.7-0.6-13.2C121.5,486,108.3,485.4,108.3,485.4z"/>
			<path class="st4" d="M153,485.4l-19.2,19.2c0,0,7.7,4.8,13.2-0.6C152.4,498.6,153,485.4,153,485.4z"/>
		</g>
		<g>
			<path class="st5" d="M153,485.4l-19.2,19.2c0,0-4.8-7.7,0.6-13.2C139.8,486,153,485.4,153,485.4z"/>
			<path class="st5" d="M108.3,505.5l19.2,19.2c0,0-7.7,4.8-13.2-0.6C109,518.7,108.3,505.5,108.3,505.5z"/>
		</g>
		<g>
			<path class="st4" d="M108.3,505.5l19.2,19.2c0,0,4.8-7.7-0.6-13.2C121.5,506.1,108.3,505.5,108.3,505.5z"/>
			<path class="st4" d="M153,505.5l-19.2,19.2c0,0,7.7,4.8,13.2-0.6C152.4,518.7,153,505.5,153,505.5z"/>
		</g>
		<g>
			<path class="st5" d="M153,505.5l-19.2,19.2c0,0-4.8-7.7,0.6-13.2C139.8,506.1,153,505.5,153,505.5z"/>
			<path class="st5" d="M108.3,525.6l19.2,19.2c0,0-7.7,4.8-13.2-0.6C109,538.8,108.3,525.6,108.3,525.6z"/>
		</g>
		<g>
			<path class="st4" d="M108.3,525.6l19.2,19.2c0,0,4.8-7.7-0.6-13.2C121.5,526.3,108.3,525.6,108.3,525.6z"/>
			<path class="st4" d="M153,525.6l-19.2,19.2c0,0,7.7,4.8,13.2-0.6C152.4,538.8,153,525.6,153,525.6z"/>
		</g>
		<path class="st5" d="M153,525.6l-19.2,19.2c0,0-4.8-7.7,0.6-13.2C139.8,526.3,153,525.6,153,525.6z"/>
		<path class="st6" d="M132.4,571.4c0,0,2.7-17.9,14-16.4c11.4,1.5,12.6-12.4,12.6-12.4s0,13-11.1,18.6
			c-11.1,5.6-11.7,15.8-15.5,15.7C128.5,576.7,132.4,571.4,132.4,571.4z"/>
	</g>
	<g>
		<path class="st4" d="M158.8,539.4c0,1.1-0.9,2.1-2.1,2.1l0,0c-1.1,0-2.1-0.9-2.1-2.1v-84.3c0-1.1,0.9-2.1,2.1-2.1l0,0
			c1.1,0,2.1,0.9,2.1,2.1V539.4z"/>
		<g>
			<path class="st5" d="M154.7,455.1c0-1.1,0.9-2.1,2.1-2.1l0,0c1.1,0,2.1,0.9,2.1,2.1v84.3"/>
		</g>
		<path class="st6" d="M158.8,566.6c0,1.1-0.9,2.1-2.1,2.1l0,0c-1.1,0-2.1-0.9-2.1-2.1V540c0-1.1,0.9-2.1,2.1-2.1l0,0
			c1.1,0,2.1,0.9,2.1,2.1V566.6z"/>
		<path class="st5" d="M156.7,425.1v31.5c0,0-10.3-2.4-10.3-11.3C146.5,436.4,156.7,425.1,156.7,425.1z"/>
		<path class="st4" d="M156.7,425.1v31.5c0,0,10.3-2.4,10.3-11.3C167,436.4,156.7,425.1,156.7,425.1z"/>
		<path class="st5" d="M134.6,451.5l19.2,19.2c0,0-7.7,4.8-13.2-0.6C135.2,464.7,134.6,451.5,134.6,451.5z"/>
		<g>
			<path class="st4" d="M134.6,451.5l19.2,19.2c0,0,4.8-7.7-0.6-13.2C147.8,452.2,134.6,451.5,134.6,451.5z"/>
			<path class="st4" d="M179.3,451.5L160,470.8c0,0,7.7,4.8,13.2-0.6C178.6,464.7,179.3,451.5,179.3,451.5z"/>
		</g>
		<g>
			<path class="st5" d="M179.3,451.5L160,470.8c0,0-4.8-7.7,0.6-13.2C166.1,452.2,179.3,451.5,179.3,451.5z"/>
			<path class="st5" d="M134.6,471.7l19.2,19.2c0,0-7.7,4.8-13.2-0.6C135.2,484.8,134.6,471.7,134.6,471.7z"/>
		</g>
		<g>
			<path class="st4" d="M134.6,471.7l19.2,19.2c0,0,4.8-7.7-0.6-13.2C147.8,472.3,134.6,471.7,134.6,471.7z"/>
			<path class="st4" d="M179.3,471.7L160,490.9c0,0,7.7,4.8,13.2-0.6C178.6,484.8,179.3,471.7,179.3,471.7z"/>
		</g>
		<g>
			<path class="st5" d="M179.3,471.7L160,490.9c0,0-4.8-7.7,0.6-13.2C166.1,472.3,179.3,471.7,179.3,471.7z"/>
			<path class="st5" d="M134.6,491.8l19.2,19.2c0,0-7.7,4.8-13.2-0.6C135.2,504.9,134.6,491.8,134.6,491.8z"/>
		</g>
		<g>
			<path class="st4" d="M134.6,491.8l19.2,19.2c0,0,4.8-7.7-0.6-13.2C147.8,492.4,134.6,491.8,134.6,491.8z"/>
			<path class="st4" d="M179.3,491.8L160,511c0,0,7.7,4.8,13.2-0.6C178.6,504.9,179.3,491.8,179.3,491.8z"/>
		</g>
		<g>
			<path class="st5" d="M179.3,491.8L160,511c0,0-4.8-7.7,0.6-13.2C166.1,492.4,179.3,491.8,179.3,491.8z"/>
			<path class="st5" d="M134.6,511.9l19.2,19.2c0,0-7.7,4.8-13.2-0.6C135.2,525,134.6,511.9,134.6,511.9z"/>
		</g>
		<g>
			<path class="st4" d="M134.6,511.9l19.2,19.2c0,0,4.8-7.7-0.6-13.2C147.8,512.5,134.6,511.9,134.6,511.9z"/>
			<path class="st4" d="M179.3,511.9L160,531.1c0,0,7.7,4.8,13.2-0.6C178.6,525,179.3,511.9,179.3,511.9z"/>
		</g>
		<path class="st5" d="M179.3,511.9L160,531.1c0,0-4.8-7.7,0.6-13.2C166.1,512.5,179.3,511.9,179.3,511.9z"/>
		<path class="st6" d="M158.7,557.6c0,0,2.7-17.9,14-16.4c11.4,1.5,12.6-12.4,12.6-12.4s0,13-11.1,18.6
			c-11.1,5.6-11.7,15.8-15.5,15.7C154.8,562.9,158.7,557.6,158.7,557.6z"/>
	</g>
</g>
<g>
	<defs>
		<polygon id="SVGID_5_" points="-178.6,479.7 26.4,598.7 26.1,646.9 -178,528.3 		"/>
	</defs>
	<clipPath id="SVGID_6_">
		<use xlink:href="#SVGID_5_"  style="overflow:visible;"/>
	</clipPath>
	<g class="st7">
		<polygon class="st1" points="-178.6,453.7 26.4,572.7 26.1,620.9 -178,502.3 		"/>
		<g>
			<polygon class="st2" points="26.4,572.7 14.6,565.9 -24.6,591.5 5.3,608.8 26.2,595.3 			"/>
			<polygon class="st2" points="-157.7,465.8 -178.3,479.6 -178,502.3 -166.4,509.1 -127.7,483.2 			"/>
		</g>
	</g>
</g>
<g>
	<defs>
		<polygon id="SVGID_7_" points="26.8,572.8 230.9,454.3 231.2,502.5 26.2,621.5 		"/>
	</defs>
	<clipPath id="SVGID_8_">
		<use xlink:href="#SVGID_7_"  style="overflow:visible;"/>
	</clipPath>
	<g class="st8">
		<polygon class="st1" points="26.8,598.8 230.9,480.3 231.2,528.5 26.2,647.5 		"/>
		<g>
			<polygon class="st2" points="231,505.9 210.1,492.4 180.2,509.7 219.4,535.3 231.2,528.5 			"/>
			<polygon class="st2" points="77.1,617.9 38.4,592.1 26.8,598.8 26.5,621.6 47.1,635.4 			"/>
		</g>
	</g>
</g>
<text transform="matrix(0.5926 0.3431 -0.501 0.8654 -127.7444 529.1308)" class="st9 st10">Crime Scene</text>
<text transform="matrix(0.5889 -0.3413 0.5015 0.8652 64.7582 596.418)" class="st9 st11">Do Not Cross Line</text>
</svg>
