<?xml version="1.0" encoding="utf-8"?>
<!-- Generator: Adobe Illustrator 19.0.1, SVG Export Plug-In . SVG Version: 6.00 Build 0)  -->
<svg version="1.1" id="wheat_x5F_grow" xmlns="http://www.w3.org/2000/svg" xmlns:xlink="http://www.w3.org/1999/xlink" x="0px"
	 y="0px" viewBox="-223 225 512 512" style="enable-background:new -223 225 512 512;" xml:space="preserve">
<style type="text/css">
	.st0{fill:#559B0B;}
</style>
<g>
	<g>
		<path class="st0" d="M25.8,644.9c0,1-0.8,1.8-1.8,1.8l0,0c-1,0-1.8-0.8-1.8-1.8v-23.1c0-1,0.8-1.8,1.8-1.8l0,0
			c1,0,1.8,0.8,1.8,1.8V644.9z"/>
		<path class="st0" d="M25.7,637.1c0,0,2.3-15.5,12.2-14.2c9.9,1.3,10.9-10.8,10.9-10.8s0,11.3-9.6,16.1S29,642,25.7,641.8
			C22.3,641.7,25.7,637.1,25.7,637.1z"/>
	</g>
	<g>
		<path class="st0" d="M52.2,628.7c0,1-0.8,1.8-1.8,1.8l0,0c-1,0-1.8-0.8-1.8-1.8v-23.1c0-1,0.8-1.8,1.8-1.8l0,0
			c1,0,1.8,0.8,1.8,1.8V628.7z"/>
		<path class="st0" d="M52.1,620.9c0,0,2.3-15.5,12.2-14.2c9.9,1.3,10.9-10.8,10.9-10.8s0,11.3-9.6,16.1s-10.1,13.7-13.5,13.6
			C48.8,625.5,52.1,620.9,52.1,620.9z"/>
	</g>
	<g>
		<path class="st0" d="M78.7,613c0,1-0.8,1.8-1.8,1.8l0,0c-1,0-1.8-0.8-1.8-1.8v-23.1c0-1,0.8-1.8,1.8-1.8l0,0c1,0,1.8,0.8,1.8,1.8
			V613z"/>
		<path class="st0" d="M78.6,605.2c0,0,2.3-15.5,12.2-14.2c9.9,1.3,10.9-10.8,10.9-10.8s0,11.3-9.6,16.1S81.9,610,78.6,609.9
			C75.2,609.8,78.6,605.2,78.6,605.2z"/>
	</g>
	<g>
		<path class="st0" d="M105.5,598.2c0,1-0.8,1.8-1.8,1.8l0,0c-1,0-1.8-0.8-1.8-1.8v-23.1c0-1,0.8-1.8,1.8-1.8l0,0
			c1,0,1.8,0.8,1.8,1.8V598.2z"/>
		<path class="st0" d="M105.3,590.4c0,0,2.3-15.5,12.2-14.2c9.9,1.3,10.9-10.8,10.9-10.8s0,11.3-9.6,16.1s-10.1,13.7-13.5,13.6
			C102,595,105.3,590.4,105.3,590.4z"/>
	</g>
	<g>
		<path class="st0" d="M131.9,581c0,1-0.8,1.8-1.8,1.8l0,0c-1,0-1.8-0.8-1.8-1.8V558c0-1,0.8-1.8,1.8-1.8l0,0c1,0,1.8,0.8,1.8,1.8
			V581z"/>
		<path class="st0" d="M131.8,573.2c0,0,2.3-15.5,12.2-14.2c9.9,1.3,10.9-10.8,10.9-10.8s0,11.3-9.6,16.1
			c-9.6,4.9-10.1,13.7-13.5,13.6C128.5,577.8,131.8,573.2,131.8,573.2z"/>
	</g>
	<g>
		<path class="st0" d="M158.4,567.3c0,1-0.8,1.8-1.8,1.8l0,0c-1,0-1.8-0.8-1.8-1.8v-23.1c0-1,0.8-1.8,1.8-1.8l0,0
			c1,0,1.8,0.8,1.8,1.8V567.3z"/>
		<path class="st0" d="M158.2,559.5c0,0,2.3-15.5,12.2-14.2c9.9,1.3,10.9-10.8,10.9-10.8s0,11.3-9.6,16.1s-10.1,13.7-13.5,13.6
			C154.9,564.1,158.2,559.5,158.2,559.5z"/>
	</g>
	<g>
		<path class="st0" d="M185.9,551.5c0,1-0.8,1.8-1.8,1.8l0,0c-1,0-1.8-0.8-1.8-1.8v-23.1c0-1,0.8-1.8,1.8-1.8l0,0
			c1,0,1.8,0.8,1.8,1.8V551.5z"/>
		<path class="st0" d="M185.8,543.7c0,0,2.3-15.5,12.2-14.2c9.9,1.3,10.9-10.8,10.9-10.8s0,11.3-9.6,16.1
			c-9.6,4.9-10.1,13.7-13.5,13.6C182.4,548.3,185.8,543.7,185.8,543.7z"/>
	</g>
</g>
<g>
	<g>
		<path class="st0" d="M-136.4,551.8c0,1-0.8,1.8-1.8,1.8l0,0c-1,0-1.8-0.8-1.8-1.8v-23.1c0-1,0.8-1.8,1.8-1.8l0,0
			c1,0,1.8,0.8,1.8,1.8V551.8z"/>
		<path class="st0" d="M-136.6,544c0,0,2.3-15.5,12.2-14.2c9.9,1.3,10.9-10.8,10.9-10.8s0,11.3-9.6,16.1
			c-9.6,4.9-10.1,13.7-13.5,13.6C-139.9,548.6-136.6,544-136.6,544z"/>
	</g>
	<g>
		<path class="st0" d="M-110,535.6c0,1-0.8,1.8-1.8,1.8l0,0c-1,0-1.8-0.8-1.8-1.8v-23.1c0-1,0.8-1.8,1.8-1.8l0,0
			c1,0,1.8,0.8,1.8,1.8V535.6z"/>
		<path class="st0" d="M-110.1,527.8c0,0,2.3-15.5,12.2-14.2c9.9,1.3,10.9-10.8,10.9-10.8s0,11.3-9.6,16.1s-10.1,13.7-13.5,13.6
			C-113.5,532.4-110.1,527.8-110.1,527.8z"/>
	</g>
	<g>
		<path class="st0" d="M-83.5,519.9c0,1-0.8,1.8-1.8,1.8l0,0c-1,0-1.8-0.8-1.8-1.8v-23.1c0-1,0.8-1.8,1.8-1.8l0,0
			c1,0,1.8,0.8,1.8,1.8V519.9z"/>
		<path class="st0" d="M-83.7,512.1c0,0,2.3-15.5,12.2-14.2c9.9,1.3,10.9-10.8,10.9-10.8s0,11.3-9.6,16.1s-10.1,13.7-13.5,13.6
			C-87,516.7-83.7,512.1-83.7,512.1z"/>
	</g>
	<g>
		<path class="st0" d="M-56.8,505.1c0,1-0.8,1.8-1.8,1.8l0,0c-1,0-1.8-0.8-1.8-1.8V482c0-1,0.8-1.8,1.8-1.8l0,0c1,0,1.8,0.8,1.8,1.8
			V505.1z"/>
		<path class="st0" d="M-56.9,497.3c0,0,2.3-15.5,12.2-14.2c9.9,1.3,10.9-10.8,10.9-10.8s0,11.3-9.6,16.1s-10.1,13.7-13.5,13.6
			C-60.2,501.9-56.9,497.3-56.9,497.3z"/>
	</g>
	<g>
		<path class="st0" d="M-30.3,487.9c0,1-0.8,1.8-1.8,1.8l0,0c-1,0-1.8-0.8-1.8-1.8v-23.1c0-1,0.8-1.8,1.8-1.8l0,0
			c1,0,1.8,0.8,1.8,1.8V487.9z"/>
		<path class="st0" d="M-30.5,480.1c0,0,2.3-15.5,12.2-14.2c9.9,1.3,10.9-10.8,10.9-10.8s0,11.3-9.6,16.1
			c-9.6,4.9-10.1,13.7-13.5,13.6C-33.8,484.7-30.5,480.1-30.5,480.1z"/>
	</g>
	<g>
		<path class="st0" d="M-3.9,474.2c0,1-0.8,1.8-1.8,1.8l0,0c-1,0-1.8-0.8-1.8-1.8v-23.1c0-1,0.8-1.8,1.8-1.8l0,0
			c1,0,1.8,0.8,1.8,1.8V474.2z"/>
		<path class="st0" d="M-4,466.3c0,0,2.3-15.5,12.2-14.2c9.9,1.3,10.9-10.8,10.9-10.8s0,11.3-9.6,16.1S-0.7,471.2-4,471.1
			C-7.3,471-4,466.3-4,466.3z"/>
	</g>
	<g>
		<path class="st0" d="M23.6,458.4c0,1-0.8,1.8-1.8,1.8l0,0c-1,0-1.8-0.8-1.8-1.8v-23.1c0-1,0.8-1.8,1.8-1.8l0,0
			c1,0,1.8,0.8,1.8,1.8V458.4z"/>
		<path class="st0" d="M23.5,450.6c0,0,2.3-15.5,12.2-14.2c9.9,1.3,10.9-10.8,10.9-10.8s0,11.3-9.6,16.1
			c-9.6,4.9-10.1,13.7-13.5,13.6C20.2,455.2,23.5,450.6,23.5,450.6z"/>
	</g>
</g>
<g>
	<g>
		<path class="st0" d="M-83.6,583c0,1-0.8,1.8-1.8,1.8l0,0c-1,0-1.8-0.8-1.8-1.8V560c0-1,0.8-1.8,1.8-1.8l0,0c1,0,1.8,0.8,1.8,1.8
			V583z"/>
		<path class="st0" d="M-83.7,575.2c0,0,2.3-15.5,12.2-14.2c9.9,1.3,10.9-10.8,10.9-10.8s0,11.3-9.6,16.1s-10.1,13.7-13.5,13.6
			C-87,579.8-83.7,575.2-83.7,575.2z"/>
	</g>
	<g>
		<path class="st0" d="M-57.1,566.9c0,1-0.8,1.8-1.8,1.8l0,0c-1,0-1.8-0.8-1.8-1.8v-23.1c0-1,0.8-1.8,1.8-1.8l0,0
			c1,0,1.8,0.8,1.8,1.8V566.9z"/>
		<path class="st0" d="M-57.3,559.1c0,0,2.3-15.5,12.2-14.2c9.9,1.3,10.9-10.8,10.9-10.8s0,11.3-9.6,16.1s-10.1,13.7-13.5,13.6
			C-60.6,563.7-57.3,559.1-57.3,559.1z"/>
	</g>
	<g>
		<path class="st0" d="M-30.7,551.1c0,1-0.8,1.8-1.8,1.8l0,0c-1,0-1.8-0.8-1.8-1.8v-23.1c0-1,0.8-1.8,1.8-1.8l0,0
			c1,0,1.8,0.8,1.8,1.8V551.1z"/>
		<path class="st0" d="M-30.8,543.3c0,0,2.3-15.5,12.2-14.2c9.9,1.3,10.9-10.8,10.9-10.8s0,11.3-9.6,16.1s-10.1,13.7-13.5,13.6
			C-34.1,547.9-30.8,543.3-30.8,543.3z"/>
	</g>
	<g>
		<path class="st0" d="M-3.9,536.3c0,1-0.8,1.8-1.8,1.8l0,0c-1,0-1.8-0.8-1.8-1.8v-23.1c0-1,0.8-1.8,1.8-1.8l0,0
			c1,0,1.8,0.8,1.8,1.8V536.3z"/>
		<path class="st0" d="M-4,528.5c0,0,2.3-15.5,12.2-14.2C18,515.6,19,503.5,19,503.5s0,11.3-9.6,16.1S-0.7,533.4-4,533.3
			C-7.4,533.1-4,528.5-4,528.5z"/>
	</g>
	<g>
		<path class="st0" d="M22.5,519.2c0,1-0.8,1.8-1.8,1.8l0,0c-1,0-1.8-0.8-1.8-1.8v-23.1c0-1,0.8-1.8,1.8-1.8l0,0
			c1,0,1.8,0.8,1.8,1.8V519.2z"/>
		<path class="st0" d="M22.4,511.4c0,0,2.3-15.5,12.2-14.2c9.9,1.3,10.9-10.8,10.9-10.8s0,11.3-9.6,16.1s-10.1,13.7-13.5,13.6
			C19.1,516,22.4,511.4,22.4,511.4z"/>
	</g>
	<g>
		<path class="st0" d="M49,505.4c0,1-0.8,1.8-1.8,1.8l0,0c-1,0-1.8-0.8-1.8-1.8v-23.1c0-1,0.8-1.8,1.8-1.8l0,0c1,0,1.8,0.8,1.8,1.8
			V505.4z"/>
		<path class="st0" d="M48.9,497.6c0,0,2.3-15.5,12.2-14.2c9.9,1.3,10.9-10.8,10.9-10.8s0,11.3-9.6,16.1
			c-9.6,4.9-10.1,13.7-13.5,13.6C45.5,502.2,48.9,497.6,48.9,497.6z"/>
	</g>
	<g>
		<path class="st0" d="M76.5,489.7c0,1-0.8,1.8-1.8,1.8l0,0c-1,0-1.8-0.8-1.8-1.8v-23.1c0-1,0.8-1.8,1.8-1.8l0,0
			c1,0,1.8,0.8,1.8,1.8V489.7z"/>
		<path class="st0" d="M76.4,481.9c0,0,2.3-15.5,12.2-14.2c9.9,1.3,10.9-10.8,10.9-10.8s0,11.3-9.6,16.1s-10.1,13.7-13.5,13.6
			C73.1,486.5,76.4,481.9,76.4,481.9z"/>
	</g>
</g>
<g>
	<g>
		<path class="st0" d="M-27.7,614.7c0,1-0.8,1.8-1.8,1.8l0,0c-1,0-1.8-0.8-1.8-1.8v-23.1c0-1,0.8-1.8,1.8-1.8l0,0
			c1,0,1.8,0.8,1.8,1.8V614.7z"/>
		<path class="st0" d="M-27.9,606.9c0,0,2.3-15.5,12.2-14.2c9.9,1.3,10.9-10.8,10.9-10.8s0,11.3-9.6,16.1s-10.1,13.7-13.5,13.6
			C-31.2,611.5-27.9,606.9-27.9,606.9z"/>
	</g>
	<g>
		<path class="st0" d="M-1.3,598.6c0,1-0.8,1.8-1.8,1.8l0,0c-1,0-1.8-0.8-1.8-1.8v-23.1c0-1,0.8-1.8,1.8-1.8l0,0
			c1,0,1.8,0.8,1.8,1.8V598.6z"/>
		<path class="st0" d="M-1.4,590.8c0,0,2.3-15.5,12.2-14.2c9.9,1.3,10.9-10.8,10.9-10.8s0,11.3-9.6,16.1S1.9,595.7-1.4,595.5
			C-4.8,595.4-1.4,590.8-1.4,590.8z"/>
	</g>
	<g>
		<path class="st0" d="M25.2,582.8c0,1-0.8,1.8-1.8,1.8l0,0c-1,0-1.8-0.8-1.8-1.8v-23.1c0-1,0.8-1.8,1.8-1.8l0,0
			c1,0,1.8,0.8,1.8,1.8V582.8z"/>
		<path class="st0" d="M25,575c0,0,2.3-15.5,12.2-14.2c9.9,1.3,10.9-10.8,10.9-10.8s0,11.3-9.6,16.1S28.4,579.9,25,579.8
			C21.7,579.6,25,575,25,575z"/>
	</g>
	<g>
		<path class="st0" d="M51.9,568c0,1-0.8,1.8-1.8,1.8l0,0c-1,0-1.8-0.8-1.8-1.8V545c0-1,0.8-1.8,1.8-1.8l0,0c1,0,1.8,0.8,1.8,1.8
			V568z"/>
		<path class="st0" d="M51.8,560.2c0,0,2.3-15.5,12.2-14.2c9.9,1.3,10.9-10.8,10.9-10.8s0,11.3-9.6,16.1S55.1,565.1,51.8,565
			C48.5,564.8,51.8,560.2,51.8,560.2z"/>
	</g>
	<g>
		<path class="st0" d="M78.4,550.9c0,1-0.8,1.8-1.8,1.8l0,0c-1,0-1.8-0.8-1.8-1.8v-23.1c0-1,0.8-1.8,1.8-1.8l0,0
			c1,0,1.8,0.8,1.8,1.8V550.9z"/>
		<path class="st0" d="M78.2,543.1c0,0,2.3-15.5,12.2-14.2c9.9,1.3,10.9-10.8,10.9-10.8s0,11.3-9.6,16.1s-10.1,13.7-13.5,13.6
			C74.9,547.7,78.2,543.1,78.2,543.1z"/>
	</g>
	<g>
		<path class="st0" d="M104.8,537.1c0,1-0.8,1.8-1.8,1.8l0,0c-1,0-1.8-0.8-1.8-1.8v-23.1c0-1,0.8-1.8,1.8-1.8l0,0
			c1,0,1.8,0.8,1.8,1.8V537.1z"/>
		<path class="st0" d="M104.7,529.3c0,0,2.3-15.5,12.2-14.2c9.9,1.3,10.9-10.8,10.9-10.8s0,11.3-9.6,16.1S108,534.2,104.7,534
			C101.4,533.9,104.7,529.3,104.7,529.3z"/>
	</g>
	<g>
		<path class="st0" d="M132.3,521.4c0,1-0.8,1.8-1.8,1.8l0,0c-1,0-1.8-0.8-1.8-1.8v-23.1c0-1,0.8-1.8,1.8-1.8l0,0
			c1,0,1.8,0.8,1.8,1.8V521.4z"/>
		<path class="st0" d="M132.2,513.6c0,0,2.3-15.5,12.2-14.2c9.9,1.3,10.9-10.8,10.9-10.8s0,11.3-9.6,16.1s-10.1,13.7-13.5,13.6
			C128.9,518.2,132.2,513.6,132.2,513.6z"/>
	</g>
</g>
</svg>
