<?xml version="1.0" encoding="utf-8"?>
<!-- Generator: Adobe Illustrator 19.0.1, SVG Export Plug-In . SVG Version: 6.00 Build 0)  -->
<svg version="1.1" id="wheat_x5F_seed" xmlns="http://www.w3.org/2000/svg" xmlns:xlink="http://www.w3.org/1999/xlink" x="0px"
	 y="0px" viewBox="-223 225 512 512" style="enable-background:new -223 225 512 512;" xml:space="preserve">
<style type="text/css">
	.st0{fill:#D8B252;}
	.st1{fill:#7F6629;}
</style>
<g>
	<g>
		<path class="st0" d="M36.6,638.5c0.3,1,2,5.7,0.7,7.5c-0.9,1.3-2.9,0.3-4.3-0.4c-3.2-1.6-5.4-4.9-5.8-5.5
			c-3.1-4.7-5.3-11.9-4-13.8c0.7-0.9,2.1-0.3,3.7,0.4c2.5,1.1,4.4,3.4,5.4,4.6C33.6,632.9,35.4,635.1,36.6,638.5z"/>
		<g>
			<path class="st1" d="M32.6,639.6c0.4,0.8,2.5,4.8,2.9,5.8c0.3,0.8-0.6-0.3-1.1-1.1c-1.3-1.9-3-4.7-3.3-5.3
				c-2.4-4.2-5.5-10.1-5.9-11.2c-0.2-0.6,0.4,0.2,1,1c1,1.4,2.2,3.4,2.9,4.6C29.9,634.8,31.1,636.7,32.6,639.6z"/>
		</g>
	</g>
	<g>
		<path class="st0" d="M198.8,545.6c0.3,1,2,5.7,0.7,7.5c-0.9,1.3-2.9,0.3-4.3-0.4c-3.2-1.6-5.4-4.9-5.8-5.5
			c-3.1-4.7-5.3-11.9-4-13.8c0.7-0.9,2.1-0.3,3.7,0.4c2.5,1.1,4.4,3.4,5.4,4.6C195.8,540.1,197.6,542.2,198.8,545.6z"/>
		<g>
			<path class="st1" d="M194.8,546.7c0.4,0.8,2.5,4.8,2.9,5.8c0.3,0.8-0.6-0.3-1.1-1.1c-1.3-1.9-3-4.7-3.3-5.3
				c-2.4-4.2-5.5-10.1-5.9-11.2c-0.2-0.6,0.4,0.2,1,1c1,1.4,2.2,3.4,2.9,4.6C192.1,541.9,193.3,543.9,194.8,546.7z"/>
		</g>
	</g>
	<g>
		<path class="st0" d="M89.5,606.9c0.3,1,2,5.7,0.7,7.5c-0.9,1.3-2.9,0.3-4.3-0.4c-3.2-1.6-5.4-4.9-5.8-5.5
			c-3.1-4.7-5.3-11.9-4-13.8c0.7-0.9,2.1-0.3,3.7,0.4c2.5,1.1,4.4,3.4,5.4,4.6C86.5,601.3,88.3,603.5,89.5,606.9z"/>
		<g>
			<path class="st1" d="M85.5,608c0.4,0.8,2.5,4.8,2.9,5.8c0.3,0.8-0.6-0.3-1.1-1.1c-1.3-1.9-3-4.7-3.3-5.3
				c-2.4-4.2-5.5-10.1-5.9-11.2c-0.2-0.6,0.4,0.2,1,1c1,1.4,2.2,3.4,2.9,4.6C82.8,603.2,84,605.2,85.5,608z"/>
		</g>
	</g>
	<g>
		<path class="st0" d="M116.6,591.9c0.3,1,2,5.7,0.7,7.5c-0.9,1.3-2.9,0.3-4.3-0.4c-3.2-1.6-5.4-4.9-5.8-5.5
			c-3.1-4.7-5.3-11.9-4-13.8c0.7-0.9,2.1-0.3,3.7,0.4c2.5,1.1,4.4,3.4,5.4,4.6C113.7,586.3,115.4,588.4,116.6,591.9z"/>
		<g>
			<path class="st1" d="M112.6,592.9c0.4,0.8,2.5,4.8,2.9,5.8c0.3,0.8-0.6-0.3-1.1-1.1c-1.3-1.9-3-4.7-3.3-5.3
				c-2.4-4.2-5.5-10.1-5.9-11.2c-0.2-0.6,0.4,0.2,1,1c1,1.4,2.2,3.4,2.9,4.6C109.9,588.1,111.1,590.1,112.6,592.9z"/>
		</g>
	</g>
	<g>
		<path class="st0" d="M170.5,561.1c0.3,1,2,5.7,0.7,7.5c-0.9,1.3-2.9,0.3-4.3-0.4c-3.2-1.6-5.4-4.9-5.8-5.5
			c-3.1-4.7-5.3-11.9-4-13.8c0.7-0.9,2.1-0.3,3.7,0.4c2.5,1.1,4.4,3.4,5.4,4.6C167.6,555.5,169.3,557.7,170.5,561.1z"/>
		<g>
			<path class="st1" d="M166.5,562.2c0.4,0.8,2.5,4.8,2.9,5.8c0.3,0.8-0.6-0.3-1.1-1.1c-1.3-1.9-3-4.7-3.3-5.3
				c-2.4-4.2-5.5-10.1-5.9-11.2c-0.2-0.6,0.4,0.2,1,1c1,1.4,2.2,3.4,2.9,4.6C163.8,557.4,165,559.4,166.5,562.2z"/>
		</g>
	</g>
	<g>
		<path class="st0" d="M144.9,574.8c0.3,1,2,5.7,0.7,7.5c-0.9,1.3-2.9,0.3-4.3-0.4c-3.2-1.6-5.4-4.9-5.8-5.5
			c-3.1-4.7-5.3-11.9-4-13.8c0.7-0.9,2.1-0.3,3.7,0.4c2.5,1.1,4.4,3.4,5.4,4.6C142,569.3,143.7,571.4,144.9,574.8z"/>
		<g>
			<path class="st1" d="M140.9,575.9c0.4,0.8,2.5,4.8,2.9,5.8c0.3,0.8-0.6-0.3-1.1-1.1c-1.3-1.9-3-4.7-3.3-5.3
				c-2.4-4.2-5.5-10.1-5.9-11.2c-0.2-0.6,0.4,0.2,1,1c1,1.4,2.2,3.4,2.9,4.6C138.2,571.1,139.4,573.1,140.9,575.9z"/>
		</g>
	</g>
	<g>
		<path class="st0" d="M63,622.2c0.3,1,2,5.7,0.7,7.5c-0.9,1.3-2.9,0.3-4.3-0.4c-3.2-1.6-5.4-4.9-5.8-5.5c-3.1-4.7-5.3-11.9-4-13.8
			c0.7-0.9,2.1-0.3,3.7,0.4c2.5,1.1,4.4,3.4,5.4,4.6C60.1,616.6,61.8,618.8,63,622.2z"/>
		<g>
			<path class="st1" d="M59,623.3c0.4,0.8,2.5,4.8,2.9,5.8c0.3,0.8-0.6-0.3-1.1-1.1c-1.3-1.9-3-4.7-3.3-5.3
				c-2.4-4.2-5.5-10.1-5.9-11.2c-0.2-0.6,0.4,0.2,1,1c1,1.4,2.2,3.4,2.9,4.6C56.3,618.5,57.5,620.5,59,623.3z"/>
		</g>
	</g>
</g>
<g>
	<g>
		<path class="st0" d="M-124.7,545.4c0.3,1,2,5.7,0.7,7.5c-0.9,1.3-2.9,0.3-4.3-0.4c-3.2-1.6-5.4-4.9-5.8-5.5
			c-3.1-4.7-5.3-11.9-4-13.8c0.7-0.9,2.1-0.3,3.7,0.4c2.5,1.1,4.4,3.4,5.4,4.6C-127.7,539.8-125.9,541.9-124.7,545.4z"/>
		<g>
			<path class="st1" d="M-128.7,546.4c0.4,0.8,2.5,4.8,2.9,5.8c0.3,0.8-0.6-0.3-1.1-1.1c-1.3-1.9-3-4.7-3.3-5.3
				c-2.4-4.2-5.5-10.1-5.9-11.2c-0.2-0.6,0.4,0.2,1,1c1,1.4,2.2,3.4,2.9,4.6C-131.4,541.6-130.2,543.6-128.7,546.4z"/>
		</g>
	</g>
	<g>
		<path class="st0" d="M37.5,452.5c0.3,1,2,5.7,0.7,7.5c-0.9,1.3-2.9,0.3-4.3-0.4c-3.2-1.6-5.4-4.9-5.8-5.5
			c-3.1-4.7-5.3-11.9-4-13.8c0.7-0.9,2.1-0.3,3.7,0.4c2.5,1.1,4.4,3.4,5.4,4.6C34.6,447,36.3,449.1,37.5,452.5z"/>
		<g>
			<path class="st1" d="M33.5,453.6c0.4,0.8,2.5,4.8,2.9,5.8c0.3,0.8-0.6-0.3-1.1-1.1c-1.3-1.9-3-4.7-3.3-5.3
				c-2.4-4.2-5.5-10.1-5.9-11.2c-0.2-0.6,0.4,0.2,1,1c1,1.4,2.2,3.4,2.9,4.6C30.8,448.8,32,450.8,33.5,453.6z"/>
		</g>
	</g>
	<g>
		<path class="st0" d="M-71.8,513.8c0.3,1,2,5.7,0.7,7.5c-0.9,1.3-2.9,0.3-4.3-0.4c-3.2-1.6-5.4-4.9-5.8-5.5
			c-3.1-4.7-5.3-11.9-4-13.8c0.7-0.9,2.1-0.3,3.7,0.4c2.5,1.1,4.4,3.4,5.4,4.6C-74.8,508.2-73,510.4-71.8,513.8z"/>
		<g>
			<path class="st1" d="M-75.8,514.9c0.4,0.8,2.5,4.8,2.9,5.8c0.3,0.8-0.6-0.3-1.1-1.1c-1.3-1.9-3-4.7-3.3-5.3
				c-2.4-4.2-5.5-10.1-5.9-11.2c-0.2-0.6,0.4,0.2,1,1c1,1.4,2.2,3.4,2.9,4.6C-78.5,510.1-77.3,512-75.8,514.9z"/>
		</g>
	</g>
	<g>
		<path class="st0" d="M-44.7,498.7c0.3,1,2,5.7,0.7,7.5c-0.9,1.3-2.9,0.3-4.3-0.4c-3.2-1.6-5.4-4.9-5.8-5.5
			c-3.1-4.7-5.3-11.9-4-13.8c0.7-0.9,2.1-0.3,3.7,0.4c2.5,1.1,4.4,3.4,5.4,4.6C-47.6,493.2-45.9,495.3-44.7,498.7z"/>
		<g>
			<path class="st1" d="M-48.7,499.8c0.4,0.8,2.5,4.8,2.9,5.8c0.3,0.8-0.6-0.3-1.1-1.1c-1.3-1.9-3-4.7-3.3-5.3
				c-2.4-4.2-5.5-10.1-5.9-11.2c-0.2-0.6,0.4,0.2,1,1c1,1.4,2.2,3.4,2.9,4.6C-51.3,495-50.2,497-48.7,499.8z"/>
		</g>
	</g>
	<g>
		<path class="st0" d="M9.2,468c0.3,1,2,5.7,0.7,7.5c-0.9,1.3-2.9,0.3-4.3-0.4c-3.2-1.6-5.4-4.9-5.8-5.5c-3.1-4.7-5.3-11.9-4-13.8
			c0.7-0.9,2.1-0.3,3.7,0.4c2.5,1.1,4.4,3.4,5.4,4.6C6.3,462.4,8,464.5,9.2,468z"/>
		<g>
			<path class="st1" d="M5.2,469c0.4,0.8,2.5,4.8,2.9,5.8c0.3,0.8-0.6-0.3-1.1-1.1c-1.3-1.9-3-4.7-3.3-5.3
				c-2.4-4.2-5.5-10.1-5.9-11.2c-0.2-0.6,0.4,0.2,1,1c1,1.4,2.2,3.4,2.9,4.6C2.6,464.2,3.7,466.2,5.2,469z"/>
		</g>
	</g>
	<g>
		<path class="st0" d="M-16.4,481.7c0.3,1,2,5.7,0.7,7.5c-0.9,1.3-2.9,0.3-4.3-0.4c-3.2-1.6-5.4-4.9-5.8-5.5
			c-3.1-4.7-5.3-11.9-4-13.8c0.7-0.9,2.1-0.3,3.7,0.4c2.5,1.1,4.4,3.4,5.4,4.6C-19.3,476.1-17.6,478.3-16.4,481.7z"/>
		<g>
			<path class="st1" d="M-20.4,482.8c0.4,0.8,2.5,4.8,2.9,5.8c0.3,0.8-0.6-0.3-1.1-1.1c-1.3-1.9-3-4.7-3.3-5.3
				c-2.4-4.2-5.5-10.1-5.9-11.2c-0.2-0.6,0.4,0.2,1,1c1,1.4,2.2,3.4,2.9,4.6C-23,478-21.9,480-20.4,482.8z"/>
		</g>
	</g>
	<g>
		<path class="st0" d="M-98.3,529.1c0.3,1,2,5.7,0.7,7.5c-0.9,1.3-2.9,0.3-4.3-0.4c-3.2-1.6-5.4-4.9-5.8-5.5
			c-3.1-4.7-5.3-11.9-4-13.8c0.7-0.9,2.1-0.3,3.7,0.4c2.5,1.1,4.4,3.4,5.4,4.6C-101.2,523.5-99.5,525.7-98.3,529.1z"/>
		<g>
			<path class="st1" d="M-102.3,530.2c0.4,0.8,2.5,4.8,2.9,5.8c0.3,0.8-0.6-0.3-1.1-1.1c-1.3-1.9-3-4.7-3.3-5.3
				c-2.4-4.2-5.5-10.1-5.9-11.2c-0.2-0.6,0.4,0.2,1,1c1,1.4,2.2,3.4,2.9,4.6C-104.9,525.3-103.8,527.3-102.3,530.2z"/>
		</g>
	</g>
</g>
<g>
	<g>
		<path class="st0" d="M-71.9,577.3c0.3,1,2,5.7,0.7,7.5c-0.9,1.3-2.9,0.3-4.3-0.4c-3.2-1.6-5.4-4.9-5.8-5.5
			c-3.1-4.7-5.3-11.9-4-13.8c0.7-0.9,2.1-0.3,3.7,0.4c2.5,1.1,4.4,3.4,5.4,4.6C-74.8,571.7-73.1,573.9-71.9,577.3z"/>
		<g>
			<path class="st1" d="M-75.9,578.4c0.4,0.8,2.5,4.8,2.9,5.8c0.3,0.8-0.6-0.3-1.1-1.1c-1.3-1.9-3-4.7-3.3-5.3
				c-2.4-4.2-5.5-10.1-5.9-11.2c-0.2-0.6,0.4,0.2,1,1c1,1.4,2.2,3.4,2.9,4.6C-78.6,573.6-77.4,575.6-75.9,578.4z"/>
		</g>
	</g>
	<g>
		<path class="st0" d="M90.3,484.5c0.3,1,2,5.7,0.7,7.5c-0.9,1.3-2.9,0.3-4.3-0.4c-3.2-1.6-5.4-4.9-5.8-5.5
			c-3.1-4.7-5.3-11.9-4-13.8c0.7-0.9,2.1-0.3,3.7,0.4c2.5,1.1,4.4,3.4,5.4,4.6C87.4,478.9,89.2,481.1,90.3,484.5z"/>
		<g>
			<path class="st1" d="M86.3,485.6c0.4,0.8,2.5,4.8,2.9,5.8c0.3,0.8-0.6-0.3-1.1-1.1c-1.3-1.9-3-4.7-3.3-5.3
				c-2.4-4.2-5.5-10.1-5.9-11.2c-0.2-0.6,0.4,0.2,1,1c1,1.4,2.2,3.4,2.9,4.6C83.7,480.8,84.9,482.7,86.3,485.6z"/>
		</g>
	</g>
	<g>
		<path class="st0" d="M-19,545.7c0.3,1,2,5.7,0.7,7.5c-0.9,1.3-2.9,0.3-4.3-0.4c-3.2-1.6-5.4-4.9-5.8-5.5c-3.1-4.7-5.3-11.9-4-13.8
			c0.7-0.9,2.1-0.3,3.7,0.4c2.5,1.1,4.4,3.4,5.4,4.6C-21.9,540.2-20.2,542.3-19,545.7z"/>
		<g>
			<path class="st1" d="M-23,546.8c0.4,0.8,2.5,4.8,2.9,5.8c0.3,0.8-0.6-0.3-1.1-1.1c-1.3-1.9-3-4.7-3.3-5.3
				c-2.4-4.2-5.5-10.1-5.9-11.2c-0.2-0.6,0.4,0.2,1,1c1,1.4,2.2,3.4,2.9,4.6C-25.7,542-24.5,544-23,546.8z"/>
		</g>
	</g>
	<g>
		<path class="st0" d="M8.1,530.7c0.3,1,2,5.7,0.7,7.5c-0.9,1.3-2.9,0.3-4.3-0.4c-3.2-1.6-5.4-4.9-5.8-5.5c-3.1-4.7-5.3-11.9-4-13.8
			c0.7-0.9,2.1-0.3,3.7,0.4c2.5,1.1,4.4,3.4,5.4,4.6C5.2,525.1,7,527.3,8.1,530.7z"/>
		<g>
			<path class="st1" d="M4.2,531.8c0.4,0.8,2.5,4.8,2.9,5.8c0.3,0.8-0.6-0.3-1.1-1.1c-1.3-1.9-3-4.7-3.3-5.3
				c-2.4-4.2-5.5-10.1-5.9-11.2c-0.2-0.6,0.4,0.2,1,1c1,1.4,2.2,3.4,2.9,4.6C1.5,527,2.7,529,4.2,531.8z"/>
		</g>
	</g>
	<g>
		<path class="st0" d="M62,499.9c0.3,1,2,5.7,0.7,7.5c-0.9,1.3-2.9,0.3-4.3-0.4c-3.2-1.6-5.4-4.9-5.8-5.5c-3.1-4.7-5.3-11.9-4-13.8
			c0.7-0.9,2.1-0.3,3.7,0.4c2.5,1.1,4.4,3.4,5.4,4.6C59.1,494.4,60.9,496.5,62,499.9z"/>
		<g>
			<path class="st1" d="M58.1,501c0.4,0.8,2.5,4.8,2.9,5.8c0.3,0.8-0.6-0.3-1.1-1.1c-1.3-1.9-3-4.7-3.3-5.3
				c-2.4-4.2-5.5-10.1-5.9-11.2c-0.2-0.6,0.4,0.2,1,1c1,1.4,2.2,3.4,2.9,4.6C55.4,496.2,56.6,498.2,58.1,501z"/>
		</g>
	</g>
	<g>
		<path class="st0" d="M36.4,513.7c0.3,1,2,5.7,0.7,7.5c-0.9,1.3-2.9,0.3-4.3-0.4c-3.2-1.6-5.4-4.9-5.8-5.5
			c-3.1-4.7-5.3-11.9-4-13.8c0.7-0.9,2.1-0.3,3.7,0.4c2.5,1.1,4.4,3.4,5.4,4.6C33.5,508.1,35.3,510.2,36.4,513.7z"/>
		<g>
			<path class="st1" d="M32.5,514.7c0.4,0.8,2.5,4.8,2.9,5.8c0.3,0.8-0.6-0.3-1.1-1.1c-1.3-1.9-3-4.7-3.3-5.3
				c-2.4-4.2-5.5-10.1-5.9-11.2c-0.2-0.6,0.4,0.2,1,1c1,1.4,2.2,3.4,2.9,4.6C29.8,509.9,31,511.9,32.5,514.7z"/>
		</g>
	</g>
	<g>
		<path class="st0" d="M-45.5,561c0.3,1,2,5.7,0.7,7.5c-0.9,1.3-2.9,0.3-4.3-0.4c-3.2-1.6-5.4-4.9-5.8-5.5c-3.1-4.7-5.3-11.9-4-13.8
			c0.7-0.9,2.1-0.3,3.7,0.4c2.5,1.1,4.4,3.4,5.4,4.6C-48.4,555.5-46.6,557.6-45.5,561z"/>
		<g>
			<path class="st1" d="M-49.4,562.1c0.4,0.8,2.5,4.8,2.9,5.8c0.3,0.8-0.6-0.3-1.1-1.1c-1.3-1.9-3-4.7-3.3-5.3
				c-2.4-4.2-5.5-10.1-5.9-11.2c-0.2-0.6,0.4,0.2,1,1c1,1.4,2.2,3.4,2.9,4.6C-52.1,557.3-50.9,559.3-49.4,562.1z"/>
		</g>
	</g>
</g>
<g>
	<g>
		<path class="st0" d="M-16.9,608.6c0.3,1,2,5.7,0.7,7.5c-0.9,1.3-2.9,0.3-4.3-0.4c-3.2-1.6-5.4-4.9-5.8-5.5
			c-3.1-4.7-5.3-11.9-4-13.8c0.7-0.9,2.1-0.3,3.7,0.4c2.5,1.1,4.4,3.4,5.4,4.6C-19.9,603-18.1,605.1-16.9,608.6z"/>
		<g>
			<path class="st1" d="M-20.9,609.6c0.4,0.8,2.5,4.8,2.9,5.8c0.3,0.8-0.6-0.3-1.1-1.1c-1.3-1.9-3-4.7-3.3-5.3
				c-2.4-4.2-5.5-10.1-5.9-11.2c-0.2-0.6,0.4,0.2,1,1c1,1.4,2.2,3.4,2.9,4.6C-23.6,604.8-22.4,606.8-20.9,609.6z"/>
		</g>
	</g>
	<g>
		<path class="st0" d="M146.9,516.3c0.3,1,2,5.7,0.7,7.5c-0.9,1.3-2.9,0.3-4.3-0.4c-3.2-1.6-5.4-4.9-5.8-5.5
			c-3.1-4.7-5.3-11.9-4-13.8c0.7-0.9,2.1-0.3,3.7,0.4c2.5,1.1,4.4,3.4,5.4,4.6C144,510.8,145.7,512.9,146.9,516.3z"/>
		<g>
			<path class="st1" d="M142.9,517.4c0.4,0.8,2.5,4.8,2.9,5.8c0.3,0.8-0.6-0.3-1.1-1.1c-1.3-1.9-3-4.7-3.3-5.3
				c-2.4-4.2-5.5-10.1-5.9-11.2c-0.2-0.6,0.4,0.2,1,1c1,1.4,2.2,3.4,2.9,4.6C140.2,512.6,141.4,514.6,142.9,517.4z"/>
		</g>
	</g>
	<g>
		<path class="st0" d="M36,577c0.3,1,2,5.7,0.7,7.5c-0.9,1.3-2.9,0.3-4.3-0.4c-3.2-1.6-5.4-4.9-5.8-5.5c-3.1-4.7-5.3-11.9-4-13.8
			c0.7-0.9,2.1-0.3,3.7,0.4c2.5,1.1,4.4,3.4,5.4,4.6C33,571.4,34.8,573.6,36,577z"/>
		<g>
			<path class="st1" d="M32,578.1c0.4,0.8,2.5,4.8,2.9,5.8c0.3,0.8-0.6-0.3-1.1-1.1c-1.3-1.9-3-4.7-3.3-5.3
				c-2.4-4.2-5.5-10.1-5.9-11.2c-0.2-0.6,0.4,0.2,1,1c1,1.4,2.2,3.4,2.9,4.6C29.3,573.3,30.5,575.3,32,578.1z"/>
		</g>
	</g>
	<g>
		<path class="st0" d="M63.1,561.9c0.3,1,2,5.7,0.7,7.5c-0.9,1.3-2.9,0.3-4.3-0.4c-3.2-1.6-5.4-4.9-5.8-5.5
			c-3.1-4.7-5.3-11.9-4-13.8c0.7-0.9,2.1-0.3,3.7,0.4c2.5,1.1,4.4,3.4,5.4,4.6C60.2,556.4,62,558.5,63.1,561.9z"/>
		<g>
			<path class="st1" d="M59.2,563c0.4,0.8,2.5,4.8,2.9,5.8c0.3,0.8-0.6-0.3-1.1-1.1c-1.3-1.9-3-4.7-3.3-5.3
				c-2.4-4.2-5.5-10.1-5.9-11.2c-0.2-0.6,0.4,0.2,1,1c1,1.4,2.2,3.4,2.9,4.6C56.5,558.2,57.7,560.2,59.2,563z"/>
		</g>
	</g>
	<g>
		<path class="st0" d="M117,531.2c0.3,1,2,5.7,0.7,7.5c-0.9,1.3-2.9,0.3-4.3-0.4c-3.2-1.6-5.4-4.9-5.8-5.5c-3.1-4.7-5.3-11.9-4-13.8
			c0.7-0.9,2.1-0.3,3.7,0.4c2.5,1.1,4.4,3.4,5.4,4.6C114.1,525.6,115.9,527.8,117,531.2z"/>
		<g>
			<path class="st1" d="M113.1,532.3c0.4,0.8,2.5,4.8,2.9,5.8c0.3,0.8-0.6-0.3-1.1-1.1c-1.3-1.9-3-4.7-3.3-5.3
				c-2.4-4.2-5.5-10.1-5.9-11.2c-0.2-0.6,0.4,0.2,1,1c1,1.4,2.2,3.4,2.9,4.6C110.4,527.5,111.6,529.4,113.1,532.3z"/>
		</g>
	</g>
	<g>
		<path class="st0" d="M91.4,544.9c0.3,1,2,5.7,0.7,7.5c-0.9,1.3-2.9,0.3-4.3-0.4c-3.2-1.6-5.4-4.9-5.8-5.5
			c-3.1-4.7-5.3-11.9-4-13.8c0.7-0.9,2.1-0.3,3.7,0.4c2.5,1.1,4.4,3.4,5.4,4.6C88.5,539.3,90.3,541.5,91.4,544.9z"/>
		<g>
			<path class="st1" d="M87.5,546c0.4,0.8,2.5,4.8,2.9,5.8c0.3,0.8-0.6-0.3-1.1-1.1c-1.3-1.9-3-4.7-3.3-5.3
				c-2.4-4.2-5.5-10.1-5.9-11.2c-0.2-0.6,0.4,0.2,1,1c1,1.4,2.2,3.4,2.9,4.6C84.8,541.2,86,543.2,87.5,546z"/>
		</g>
	</g>
	<g>
		<path class="st0" d="M9.5,592.3c0.3,1,2,5.7,0.7,7.5c-0.9,1.3-2.9,0.3-4.3-0.4c-3.2-1.6-5.4-4.9-5.8-5.5c-3.1-4.7-5.3-11.9-4-13.8
			c0.7-0.9,2.1-0.3,3.7,0.4c2.5,1.1,4.4,3.4,5.4,4.6C6.6,586.7,8.4,588.9,9.5,592.3z"/>
		<g>
			<path class="st1" d="M5.5,593.4c0.4,0.8,2.5,4.8,2.9,5.8c0.3,0.8-0.6-0.3-1.1-1.1c-1.3-1.9-3-4.7-3.3-5.3
				c-2.4-4.2-5.5-10.1-5.9-11.2c-0.2-0.6,0.4,0.2,1,1c1,1.4,2.2,3.4,2.9,4.6C2.9,588.6,4,590.5,5.5,593.4z"/>
		</g>
	</g>
</g>
</svg>
