<?xml version="1.0" encoding="utf-8"?>
<!-- Generator: Adobe Illustrator 19.0.1, SVG Export Plug-In . SVG Version: 6.00 Build 0)  -->
<svg version="1.1" id="wheat" xmlns="http://www.w3.org/2000/svg" xmlns:xlink="http://www.w3.org/1999/xlink" x="0px" y="0px"
	 viewBox="0 0 50 50" style="enable-background:new 0 0 50 50;" xml:space="preserve">
<style type="text/css">
	.st0{fill:#FFE6B8;}
	.st1{fill:#FFF3DC;}
	.st2{fill:#FEC45E;}
	.st3{fill:#FCDB5A;}
	.st4{fill:#FE9837;}
	.st5{fill:#FFAD61;}
	.st6{fill:#FF912E;}
	.st7{fill:#FFB92C;}
	.st8{fill:#559B0B;}
	.st9{display:none;}
	.st10{display:inline;}
</style>
<g>
	<path class="st0" d="M25.1,0.2l11,9.4h3.6C32.5,2.5,29.3,0.3,25.1,0.2z"/>
	<path class="st1" d="M25.1,0.2c3.1,0.1,5.6,2.3,11,9.4h-26C17.5,2.4,20.8,0.2,25,0.2C25.1,0.2,25.1,0.2,25.1,0.2z"/>
	<g>
		<circle class="st0" cx="30.4" cy="5.9" r="0.9"/>
		<circle class="st0" cx="28" cy="2.4" r="0.9"/>
		<circle class="st0" cx="19.6" cy="5" r="0.9"/>
	</g>
	<path class="st2" d="M44.8,44.1c1.2,1.2,1.2,3.2,0,4.4c-1.1,1.1-2.8,1.2-4,0.3l-4.4-6.3V15.3l6,3.6l0.8,23.7L44.8,44.1z"/>
	<path class="st3" d="M41.2,44.1c1.2,1.2,1.2,3.2,0,4.4c-0.1,0.1-0.3,0.2-0.4,0.3c-0.1-0.1-0.3-0.2-0.4-0.3l-0.6-0.6
		c-4.3,1.2-10.1,1.9-14.9,1.9s-10.6-0.7-14.9-1.9l-0.6,0.6c-1.2,1.2-3.2,1.2-4.4,0c-1.2-1.2-1.2-3.2,0-4.4l1.6-1.6l0.8-23.7
		l15.6-4.8l15.6,4.8l0.8,23.7L41.2,44.1z"/>
	<path class="st4" d="M42.4,9.6h-3.6v9.3h3.6c1.3,0,2.4-1.1,2.4-2.4V12C44.8,10.7,43.7,9.6,42.4,9.6z"/>
	<path class="st5" d="M41.2,12v4.5c0,1.3-1.1,2.4-2.4,2.4H7.6c-1.3,0-2.4-1.1-2.4-2.4V12c0-1.3,1.1-2.4,2.4-2.4h31.3
		C40.1,9.6,41.2,10.7,41.2,12z"/>
</g>
<g>
	<path class="st6" d="M15.5,39.8c-0.2,0.2-0.5,0.2-0.7-0.1l0,0c-0.2-0.2-0.2-0.5,0.1-0.7l16-13.3c0.2-0.2,0.5-0.2,0.7,0.1l0,0
		c0.2,0.2,0.2,0.5-0.1,0.7L15.5,39.8z"/>
	<g>
		<path class="st7" d="M30.8,25.7c0.2-0.2,0.5-0.2,0.7,0.1l0,0c0.2,0.2,0.2,0.5-0.1,0.7l-16,13.3"/>
	</g>
	<path class="st8" d="M10.3,44.1c-0.2,0.2-0.5,0.2-0.7-0.1l0,0c-0.2-0.2-0.2-0.5,0.1-0.7l5.1-4.2c0.2-0.2,0.5-0.2,0.7,0.1l0,0
		c0.2,0.2,0.2,0.5-0.1,0.7L10.3,44.1z"/>
	<path class="st7" d="M36.9,21.4l-6,5c0,0-1.2-2.3,0.5-3.7C33.1,21.2,36.9,21.4,36.9,21.4z"/>
	<path class="st6" d="M36.9,21.4l-6,5c0,0,2.1,1.6,3.8,0.2C36.3,25.1,36.9,21.4,36.9,21.4z"/>
	<path class="st7" d="M28.3,21.3L27.7,28c0,0-2.1-0.7-2-2.6C25.9,23.5,28.3,21.3,28.3,21.3z"/>
	<g>
		<path class="st6" d="M28.3,21.3L27.7,28c0,0,2.2-0.3,2.4-2.2C30.3,23.9,28.3,21.3,28.3,21.3z"/>
		<path class="st6" d="M35.4,29.8l-6.7-0.6c0,0,0.3,2.2,2.2,2.4C32.8,31.8,35.4,29.8,35.4,29.8z"/>
	</g>
	<g>
		<path class="st7" d="M35.4,29.8l-6.7-0.6c0,0,0.7-2.1,2.6-2C33.2,27.4,35.4,29.8,35.4,29.8z"/>
		<path class="st7" d="M24.5,24.5l-0.6,6.7c0,0-2.1-0.7-2-2.6C22.1,26.7,24.5,24.5,24.5,24.5z"/>
	</g>
	<g>
		<path class="st6" d="M24.5,24.5l-0.6,6.7c0,0,2.2-0.3,2.4-2.2C26.5,27.1,24.5,24.5,24.5,24.5z"/>
		<path class="st6" d="M31.6,33l-6.7-0.6c0,0,0.3,2.2,2.2,2.4C29,35,31.6,33,31.6,33z"/>
	</g>
	<g>
		<path class="st7" d="M31.6,33l-6.7-0.6c0,0,0.7-2.1,2.6-2C29.4,30.6,31.6,33,31.6,33z"/>
		<path class="st7" d="M20.7,27.7l-0.6,6.7c0,0-2.1-0.7-2-2.6C18.3,29.9,20.7,27.7,20.7,27.7z"/>
	</g>
	<g>
		<path class="st6" d="M20.7,27.7l-0.6,6.7c0,0,2.2-0.3,2.4-2.2C22.7,30.3,20.7,27.7,20.7,27.7z"/>
		<path class="st6" d="M27.8,36.2l-6.7-0.6c0,0,0.3,2.2,2.2,2.4C25.2,38.1,27.8,36.2,27.8,36.2z"/>
	</g>
	<g>
		<path class="st7" d="M27.8,36.2l-6.7-0.6c0,0,0.7-2.1,2.6-2C25.6,33.8,27.8,36.2,27.8,36.2z"/>
		<path class="st7" d="M16.9,30.9l-0.6,6.7c0,0-2.1-0.7-2-2.6C14.5,33.1,16.9,30.9,16.9,30.9z"/>
	</g>
	<g>
		<path class="st6" d="M16.9,30.9l-0.6,6.7c0,0,2.2-0.3,2.4-2.2C18.9,33.5,16.9,30.9,16.9,30.9z"/>
		<path class="st6" d="M23.9,39.3l-6.7-0.6c0,0,0.3,2.2,2.2,2.4C21.3,41.3,23.9,39.3,23.9,39.3z"/>
	</g>
	<path class="st7" d="M23.9,39.3l-6.7-0.6c0,0,0.7-2.1,2.6-2C21.7,36.9,23.9,39.3,23.9,39.3z"/>
	<path class="st8" d="M12,42.7c0,0,3.8-2.3,5.3,0.1c1.5,2.4,4.3,0.4,4.3,0.4s-2.5,2.1-5.3,0.8c-2.8-1.2-4.8,0.3-5.4-0.5
		C10.4,42.8,12,42.7,12,42.7z"/>
</g>
<g class="st9">
	<g class="st10">
		<path class="st6" d="M-47.2,14.9c0.9,1.6,0.2,2.3-0.6,2.7c-0.8,0.4-1.7,0.6-2.6-1.1c-0.9-1.6-1-5.2-1-5.2S-48.2,13.3-47.2,14.9z"
			/>
		<path class="st6" d="M-43.1,19.7c-0.8,1.7-1.8,1.4-2.6,1.1c-0.8-0.4-1.4-1.1-0.6-2.8c0.8-1.7,3.7-3.8,3.7-3.8
			S-42.3,17.9-43.1,19.7z"/>
		<path class="st6" d="M-42.6,26.1c-1.2,1.4-2.1,0.9-2.8,0.4c-0.7-0.6-1.1-1.4,0.1-2.8c1.2-1.5,4.5-2.7,4.5-2.7
			S-41.4,24.7-42.6,26.1z"/>
		<path class="st6" d="M-48.1,24.2c1.7,1,1.3,1.9,0.9,2.7c-0.5,0.8-1.2,1.4-2.9,0.4c-1.7-1-3.6-4-3.6-4S-49.8,23.3-48.1,24.2z"/>
		<path class="st6" d="M-44.8,32.8c-1.6,0.9-2.3,0.2-2.7-0.6c-0.4-0.8-0.6-1.7,1.1-2.6c1.6-0.9,5.2-1,5.2-1S-43.2,31.9-44.8,32.8z"
			/>
		<path class="st6" d="M-49.1,29.3c1.2,1.5,0.5,2.3-0.2,2.8c-0.7,0.5-1.6,0.8-2.8-0.7c-1.2-1.5-1.8-5.1-1.8-5.1
			S-50.3,27.8-49.1,29.3z"/>
		<path class="st6" d="M-48.3,38.4c-1.9,0.3-2.2-0.6-2.4-1.5c-0.1-0.9,0-1.8,1.9-2.1c1.9-0.3,5.2,0.8,5.2,0.8S-46.4,38.1-48.3,38.4z
			"/>
		<path class="st6" d="M-51.3,33.8c0.8,1.8,0,2.3-0.8,2.7c-0.8,0.4-1.7,0.4-2.6-1.3c-0.8-1.8-0.6-5.4-0.6-5.4S-52.1,32-51.3,33.8z"
			/>
		<path class="st6" d="M-55.1,37.2c0.3,1.9-0.6,2.3-1.5,2.4c-0.9,0.1-1.8,0-2.1-2c-0.3-1.9,0.8-5.3,0.8-5.3S-55.4,35.3-55.1,37.2z"
			/>
		<path class="st6" d="M-53.3,42.8c-1.9-0.3-2-1.3-1.8-2.2c0.1-0.9,0.6-1.7,2.5-1.4c1.9,0.3,4.8,2.4,4.8,2.4S-51.3,43-53.3,42.8z"/>
		<path class="st6" d="M-59.3,40.3c0.1,1.9-0.8,2.2-1.7,2.2c-0.9,0.1-1.8-0.2-1.9-2.2c-0.1-2,1.3-5.2,1.3-5.2S-59.4,38.4-59.3,40.3z
			"/>
		<path class="st6" d="M-58.8,46c-1.8-0.7-1.7-1.6-1.4-2.5c0.3-0.8,0.9-1.5,2.8-0.9c1.8,0.7,4.2,3.3,4.2,3.3S-57,46.7-58.8,46z"/>
		<path class="st6" d="M-48.6,18.9c1.9,0.5,1.8,1.5,1.5,2.3c-0.2,0.9-0.8,1.6-2.7,1.1c-1.9-0.5-4.5-3-4.5-3S-50.5,18.4-48.6,18.9z"
			/>
		<path class="st6" d="M-61.7,43.6c0,0-8.9,3.5-14.4,2.2c-0.4,0.5,0.6,1.3,0.6,1.3S-67.4,47.2-61.7,43.6z"/>
	</g>
</g>
</svg>
